<svg version="1.1" xmlns="http://www.w3.org/2000/svg" xmlns:xlink="http://www.w3.org/1999/xlink" width="309.2973" height="159.64866" viewBox="0,0,309.2973,159.64866"><defs><linearGradient x1="325" y1="125.17567" x2="325" y2="274.82433" gradientUnits="userSpaceOnUse" id="color-1"><stop offset="0" stop-color="#221f4e"/><stop offset="1" stop-color="#34317a"/></linearGradient></defs><g transform="translate(-170.35135,-120.17567)"><g data-paper-data="{&quot;isPaintingLayer&quot;:true}" fill-rule="nonzero" stroke-linejoin="miter" stroke-miterlimit="10" stroke-dasharray="" stroke-dashoffset="0" style="mix-blend-mode: normal"><path d="M176.82504,153.73364c0.41001,-1.59942 0.638,-3.22868 0.33857,-4.93329c0,-0.98832 -0.11742,-1.94876 -0.33857,-2.86858v-15.85523h184.86277c0.66638,0.00978 1.35038,0.01272 2.03927,0h100.81574c0.44166,0.02358 0.88427,0.02358 1.32592,0h4.51741v146.78056h-183.20611c-1.0448,-0.28239 -2.12242,-0.42503 -3.20471,-0.42419c-1.08213,-0.00079 -2.15958,0.14185 -3.20422,0.42419h-29.73382c-0.71091,-0.12868 -1.44334,-0.19571 -2.19094,-0.19571c-0.74809,0 -1.48052,0.06703 -2.19144,0.19571h-25.93955c-0.89578,-0.09816 -1.7996,-0.09816 -2.69538,0h-0.25295c-0.71091,-0.12868 -1.44334,-0.19571 -2.19094,-0.19571c-0.74809,0 -1.48052,0.06703 -2.19144,0.19571h-24.83869c-0.89578,-0.09816 -1.7996,-0.09816 -2.69538,0h-6.73478c-0.06438,-2.44279 -0.86259,-4.80965 -2.29075,-6.79252z" fill="#534dc1" stroke="none" stroke-width="1" stroke-linecap="butt"/><path d="M386.64099,233.43598c3.2121,-17.56195 0.54284,-34.88475 -7.80285,-50.41321c-2.49406,-4.65993 -7.8811,-11.76647 -11.78466,-15.55347c-7.99204,-7.76386 -17.25774,-13.23727 -27.50485,-16.30495c-3.17861,-0.94852 -10.55172,-2.24605 -14.01854,-2.46391c-21.60015,-1.38859 -41.52431,7.464 -53.33719,23.67933c-10.5466,14.48703 -13.13926,33.47539 -6.87354,50.20986c1.54667,4.09788 2.43652,5.76087 5.41913,10.05493c3.00747,4.32985 4.30486,5.81585 7.61587,8.63519c9.81174,8.43616 22.9377,11.94443 35.52132,9.51669c15.19101,-2.9126 26.53016,-14.502 27.93739,-28.4762c1.03681,-10.26879 -2.67095,-19.31092 -10.03349,-24.48829c-4.22059,-2.98327 -9.86847,-4.12639 -14.96593,-3.02596c-2.28083,0.49676 -4.65306,1.58747 -6.05656,2.77452c-0.57651,0.50653 -1.00292,0.96186 -0.94774,1.00311c0.03728,0.05367 0.96026,-0.03041 2.02638,-0.21392c2.62678,-0.41876 5.36795,0.09094 7.78664,1.43467c2.46143,1.3671 3.58035,2.36702 5.54637,5.00656c1.61805,2.13857 1.75624,2.41391 2.4856,4.53318c2.88013,8.42342 -1.42528,17.46138 -10.50611,21.99172c-5.08837,2.52641 -9.60782,3.19884 -14.68509,2.18986c-6.84278,-1.37412 -12.12507,-4.89309 -16.23163,-10.76711c-2.62221,-3.7752 -4.23499,-7.85369 -5.06501,-12.71458c-1.91618,-11.42708 1.89794,-22.77618 10.52361,-31.20768c1.80356,-1.75669 2.48195,-2.30747 5.60361,-4.34312c2.5188,-1.64344 4.1266,-2.57453 5.52967,-3.15122c8.49939,-3.64905 16.99606,-4.59076 26.19529,-2.91715c12.20632,2.18426 22.9265,9.14067 30.20904,19.62535c4.85917,6.99575 7.70042,14.33217 8.93043,23.05297c2.39585,16.92918 -3.0375,34.30993 -14.68919,46.93866c-3.6354,3.93088 -4.87788,5.00609 -10.2579,8.71646c-5.34969,3.71584 -6.89835,4.57933 -11.70099,6.56246c-19.42125,7.9728 -42.41214,6.22399 -60.59065,-4.59661c-22.02328,-13.11006 -35.29336,-36.83559 -35.67523,-63.81048c-0.2348,-17.36926 5.11809,-34.21668 15.39385,-48.32991c5.54066,-7.64141 11.51542,-13.4359 19.59015,-19.07104c8.58814,-5.96522 16.74555,-9.80111 26.63523,-12.47959c19.91704,-5.42605 40.88348,-3.99515 60.273,4.1011c3.71,1.56081 11.18923,5.56965 14.52553,7.81442c8.08625,5.41736 14.74607,11.45416 20.95622,18.94383c2.85181,3.45658 8.58294,12.12774 10.54112,15.93979c4.60737,9.0008 7.85935,18.22689 9.61775,27.40293c3.40292,17.76807 2.25651,35.59274 -3.3384,52.74089c-2.67279,8.16367 -6.38837,15.91301 -10.99673,23.09186c-0.58134,-0.0679 -31.42426,-0.78098 -33.32197,-1.11933c11.57521,-11.66031 18.68982,-25.04554 21.52101,-40.51258z" data-paper-data="{&quot;index&quot;:null}" fill="#423e9b" stroke="none" stroke-width="1" stroke-linecap="butt"/><path d="M246.53511,131.5834c-20.30036,19.53782 -31.31994,46.28917 -30.64969,74.44298c0.12527,5.29736 0.42531,8.66969 1.22651,13.60365c1.67503,10.50709 4.74413,19.96631 9.45938,29.23699c4.11983,8.08961 10.32143,16.58314 16.76239,23.02953c-3.05776,-0.08293 -30.71672,3.10345 -31.96022,3.36675c-3.33174,-4.73147 -6.34543,-9.74439 -9.01696,-15.01437c-8.77828,-17.29685 -13.47772,-37.77163 -13.25501,-57.76626c0.30781,-27.72101 9.40339,-54.00034 25.78279,-75.48266c10.53925,0 35.21837,-0.1568 37.14805,-0.28508c-1.95982,1.60449 -3.81134,3.24074 -5.49723,4.86847z" data-paper-data="{&quot;index&quot;:null}" fill="#423e9b" stroke="none" stroke-width="1" stroke-linecap="butt"/><path d="M430.88571,247.87443c6.54622,-27.46365 3.15698,-57.81359 -9.24839,-82.77632c-3.25621,-6.59728 -9.03757,-15.68445 -13.26434,-20.89145c-4.2086,-5.18969 -8.76749,-9.932 -13.62959,-14.20666c11.93038,0 24.46319,0 36.39758,0c1.09481,1.47667 2.27961,3.14545 3.72244,5.22271c5.51783,7.94403 8.89972,13.84396 12.60887,22.00983c16.41008,36.10071 17.68931,77.14372 4.3674,113.77253c-4.5349,0.06723 -28.39988,-1.00507 -28.39988,-1.00507c3.14092,-6.99023 5.56856,-14.23929 7.4459,-22.12557z" data-paper-data="{&quot;index&quot;:null}" fill="#423e9b" stroke="none" stroke-width="1" stroke-linecap="butt"/><path d="M175.35135,137.67133c0,-6.39897 5.91545,-12.49566 13.1192,-12.49566c28.93252,0 219.72832,0 272.60996,0c8.61359,0 13.56814,4.64378 13.56814,12.24625c0,30.59212 0,109.0924 0,125.70487c0,6.03964 -4.85913,11.69754 -13.31873,11.69754c-52.46667,0 -243.42599,0 -272.60996,0c-7.3279,0 -13.36861,-4.5235 -13.36861,-11.94695c0,-30.16113 0,-108.19342 0,-125.20604z" data-paper-data="{&quot;index&quot;:null}" fill="none" stroke="url(#color-1)" stroke-width="10" stroke-linecap="butt"/><path d="M287.29378,186.5572c-4.41014,-21.00536 9.04295,-41.60868 30.04831,-46.01882c21.00536,-4.41013 41.60868,9.04295 46.01882,30.04831c4.41014,21.00536 -9.04295,41.60869 -30.04831,46.01882c-21.00536,4.41013 -41.60868,-9.04295 -46.01882,-30.04831z" fill="none" stroke-opacity="0.49412" stroke="#000000" stroke-width="10" stroke-linecap="butt"/><path d="M328.54307,195.94791c-0.41788,-1.99035 0.85686,-3.9426 2.8472,-4.36048l33.33557,-6.9989c1.99036,-0.41788 3.9426,0.85686 4.36048,2.84721l1.65515,7.88341c0.41788,1.99035 -0.85686,3.9426 -2.84721,4.36048l-33.33556,6.9989c-1.99036,0.41788 -3.9426,-0.85686 -4.36048,-2.84721z" fill="none" stroke-opacity="0.49412" stroke="#000000" stroke-width="10" stroke-linecap="butt"/><path d="M349.95664,216.73274c-1.99036,0.41788 -3.9426,-0.85686 -4.36048,-2.84721l-6.9989,-33.33557c-0.41788,-1.99035 0.85687,-3.9426 2.84721,-4.36048l7.88341,-1.65515c1.99036,-0.41788 3.9426,0.85686 4.36048,2.84721l6.9989,33.33557c0.41788,1.99035 -0.85686,3.9426 -2.84721,4.36048z" fill="none" stroke-opacity="0.49412" stroke="#000000" stroke-width="10" stroke-linecap="butt"/><path d="M287.29378,186.5572c-4.41014,-21.00536 9.04295,-41.60868 30.04831,-46.01882c21.00536,-4.41013 41.60868,9.04295 46.01882,30.04831c4.41014,21.00536 -9.04295,41.60869 -30.04831,46.01882c-21.00536,4.41013 -41.60868,-9.04295 -46.01882,-30.04831z" fill="#5b54d0" stroke="none" stroke-width="0" stroke-linecap="butt"/><path d="M317.66376,209.04318c-16.8288,-4.23247 -27.04016,-21.30601 -22.80767,-38.13481c4.23248,-16.8288 21.30602,-27.04015 38.13482,-22.80767c16.82881,4.23247 27.04015,21.30601 22.80768,38.13481c-4.23248,16.8288 -21.30601,27.04015 -38.13482,22.80768z" data-paper-data="{&quot;index&quot;:null}" fill="#ffffff" stroke="none" stroke-width="0" stroke-linecap="butt"/><path d="M328.4395,176.18089c-0.42989,0.70858 -2.82169,0.14193 -2.86757,-0.73057c-0.11349,-2.15804 -0.0459,-12.68824 -0.0459,-12.68824c0,0 5.71889,-9.27708 6.84472,-11.1328c0.45952,-0.75743 0.99313,-0.62322 1.03967,0.26148c0.27017,5.13762 0.69947,13.30143 0.69947,13.30143c0,0 -4.5684,9.1723 -5.67039,10.9887z" data-paper-data="{&quot;index&quot;:null}" fill="#5b54d0" stroke="none" stroke-width="0" stroke-linecap="butt"/><path d="M322.09687,178.3294c0.58841,0.07376 1.12224,2.2039 0.5856,2.52456c-1.32734,0.79313 -8.52028,3.99095 -8.52028,3.99095c-1.2138,-0.15215 -7.72015,-0.96779 -9.26114,-1.16098c-0.62897,-0.07884 -0.71841,-0.50486 -0.17426,-0.83c1.33319,-0.79662 8.18132,-4.88861 8.18132,-4.88861c0,0 7.68043,0.17498 9.18877,0.36407z" data-paper-data="{&quot;index&quot;:null}" fill="#5b54d0" stroke="none" stroke-width="0" stroke-linecap="butt"/><path d="M320.36582,179.61363c-0.57531,-2.74017 1.17966,-5.42789 3.91983,-6.0032c2.74017,-0.5753 5.42789,1.17965 6.0032,3.91983c0.57531,2.74017 -1.17966,5.42789 -3.91983,6.0032c-2.74017,0.5753 -5.42789,-1.17965 -6.0032,-3.91983z" fill="#5b54d0" stroke="none" stroke-width="0" stroke-linecap="butt"/><path d="M328.54307,195.94791c-0.41788,-1.99035 0.85686,-3.9426 2.8472,-4.36048l33.33557,-6.9989c1.99036,-0.41788 3.9426,0.85686 4.36048,2.84721l1.65515,7.88341c0.41788,1.99035 -0.85686,3.9426 -2.84721,4.36048l-33.33556,6.9989c-1.99036,0.41788 -3.9426,-0.85686 -4.36048,-2.84721z" fill="#5b54d0" stroke="#5b54d0" stroke-width="0" stroke-linecap="butt"/><path d="M349.95664,216.73274c-1.99036,0.41788 -3.9426,-0.85686 -4.36048,-2.84721l-6.9989,-33.33557c-0.41788,-1.99035 0.85687,-3.9426 2.84721,-4.36048l7.88341,-1.65515c1.99036,-0.41788 3.9426,0.85686 4.36048,2.84721l6.9989,33.33557c0.41788,1.99035 -0.85686,3.9426 -2.84721,4.36048z" fill="#5b54d0" stroke="#5b54d0" stroke-width="0" stroke-linecap="butt"/><path d="M351.74929,212.71504c-1.92615,0.4044 -3.81543,-0.82922 -4.21983,-2.75537l-5.62902,-26.81087c-0.4044,-1.92614 0.82922,-3.81542 2.75536,-4.21982l2.83367,-0.59494c1.92615,-0.4044 3.81542,0.82922 4.21982,2.75537l5.62902,26.81087c0.4044,1.92614 -0.82921,3.81543 -2.75536,4.21983z" fill="#ffffff" stroke="none" stroke-width="0" stroke-linecap="butt"/><path d="M332.56076,197.74055c-0.4044,-1.92614 0.82922,-3.81542 2.75536,-4.21982l26.81087,-5.62902c1.92615,-0.4044 3.81542,0.82922 4.21982,2.75536l0.59494,2.83367c0.4044,1.92614 -0.82921,3.81542 -2.75536,4.21982l-26.81088,5.62902c-1.92615,0.4044 -3.81543,-0.82922 -4.21983,-2.75536z" fill="#ffffff" stroke="none" stroke-width="0" stroke-linecap="butt"/><path d="M202.68616,173.79337c-0.04189,0.57109 -1.48215,0.75254 -4.3208,0.54436c-2.83865,-0.20818 -4.23703,-0.59781 -4.19514,-1.1689l1.58292,-21.58381l-5.1566,-0.37817c-0.48711,-0.03572 -0.78298,-0.72164 -0.88764,-2.05777c-0.03799,-0.63324 -0.03276,-1.28019 0.01569,-1.94087c0.04845,-0.66067 0.13767,-1.30146 0.26764,-1.92238c0.29846,-1.30656 0.69125,-1.94198 1.17836,-1.90626l18.70317,1.37166c0.48711,0.03572 0.78299,0.72164 0.88765,2.05777c0.03799,0.63324 0.03276,1.28019 -0.01569,1.94087c-0.04845,0.66067 -0.13767,1.30147 -0.26764,1.92239c-0.29846,1.30656 -0.69124,1.94197 -1.17835,1.90625l-5.03062,-0.36893zM218.94958,175.41673c-0.01683,0.22956 -1.3382,0.24804 -3.96409,0.05546c-2.62029,-0.19216 -3.92305,-0.38904 -3.90826,-0.5906l1.54843,-21.11349c0.01438,-0.19596 1.3317,-0.19785 3.95199,-0.00568c2.62589,0.19258 3.93268,0.37285 3.92037,0.54082zM220.68402,151.76692c-0.01478,0.20156 -1.33512,0.20605 -3.96101,0.01347c-2.62029,-0.19216 -3.92407,-0.37504 -3.91134,-0.5486l0.45394,-6.18959c0.02095,-0.28555 1.34155,-0.33222 3.96184,-0.14006c2.62589,0.19258 3.93248,0.37566 3.91975,0.54922zM242.30033,177.17144c-0.01478,0.20156 -1.24834,0.21242 -3.70066,0.03257c-2.45232,-0.17985 -3.66904,-0.39854 -3.65015,-0.6561l0.91772,-12.51358c0.10512,-1.43332 -0.31543,-2.18468 -1.26164,-2.25407c-0.48711,-0.03572 -1.15418,0.2334 -2.00123,0.80736l-1.00888,13.75653c-0.02095,0.28555 -1.25758,0.33839 -3.7099,0.15855c-2.45232,-0.17985 -3.66699,-0.42655 -3.64399,-0.74008l1.03105,-14.05886l-1.07498,-0.07884c-0.94622,-0.06939 -1.34685,-1.0923 -1.2019,-3.06871c0.06528,-0.89022 0.30516,-1.78172 0.71964,-2.67448c0.5515,-1.22609 1.34235,-1.80134 2.37255,-1.7258c1.0302,0.07555 2.0041,0.41998 2.92168,1.03329c0.92318,0.61372 1.46769,1.17153 1.63352,1.67342c1.89584,-1.44272 3.92435,-2.08483 6.08553,-1.92633c2.16678,0.15891 3.85877,0.95849 5.07596,2.39872c1.64944,-1.23 3.56316,-1.76514 5.74113,-1.60541c4.73109,0.34697 6.88536,3.40109 6.46284,9.16237l-0.95837,13.06787c-0.01478,0.20156 -1.24834,0.21242 -3.70066,0.03257c-2.45232,-0.17985 -3.66904,-0.39854 -3.65015,-0.6561l0.91772,-12.51357c0.10512,-1.43332 -0.31543,-2.18468 -1.26164,-2.25407c-0.5151,-0.03778 -1.19617,0.23031 -2.04322,0.80427zM273.02803,178.47929c-1.88605,0.92557 -4.24841,1.28426 -7.08706,1.07608c-2.83864,-0.20818 -5.16134,-1.34954 -6.9681,-3.42406c-1.80635,-2.08012 -2.58388,-4.83344 -2.33258,-8.25997c0.2513,-3.42654 1.39134,-6.11523 3.42014,-8.06606c2.03481,-1.95603 4.48554,-2.82892 7.35217,-2.61869c2.86663,0.21024 5.02743,1.10329 6.48236,2.67917c1.45493,1.57588 2.1056,3.41082 1.95203,5.50481c-0.3404,4.6415 -3.17568,6.76679 -8.50584,6.37589l-2.97303,-0.21804c-0.06323,0.86223 0.12818,1.47576 0.57427,1.8406c0.45168,0.36524 1.13664,0.58153 2.05486,0.64888c2.01001,0.14741 3.95012,-0.17189 5.82031,-0.95789c0.03004,-0.02594 0.14424,0.18226 0.34259,0.62462c0.59792,1.28787 0.86588,2.35452 0.80388,3.19995c-0.062,0.84544 -0.37399,1.37701 -0.93597,1.59474zM268.56465,165.65551c0.08828,-1.20377 -0.45547,-1.84875 -1.63124,-1.93498c-0.54309,-0.03983 -1.02271,0.09105 -1.43886,0.39264c-0.41055,0.30201 -0.63882,0.76654 -0.68481,1.39362l-0.09793,1.33535l2.32635,0.17061c0.94622,0.06939 1.45506,-0.38302 1.5265,-1.35722z" fill="none" stroke-opacity="0.50196" stroke="#000000" stroke-width="10" stroke-linecap="square"/><path d="M202.68616,173.79337c-0.04189,0.57109 -1.48215,0.75254 -4.3208,0.54436c-2.83865,-0.20818 -4.23703,-0.59781 -4.19514,-1.1689l1.58292,-21.58381l-5.1566,-0.37817c-0.48711,-0.03572 -0.78298,-0.72164 -0.88764,-2.05777c-0.03799,-0.63324 -0.03276,-1.28019 0.01569,-1.94087c0.04845,-0.66067 0.13767,-1.30146 0.26764,-1.92238c0.29846,-1.30656 0.69125,-1.94198 1.17836,-1.90626l18.70317,1.37166c0.48711,0.03572 0.78299,0.72164 0.88765,2.05777c0.03799,0.63324 0.03276,1.28019 -0.01569,1.94087c-0.04845,0.66067 -0.13767,1.30147 -0.26764,1.92239c-0.29846,1.30656 -0.69124,1.94197 -1.17835,1.90625l-5.03062,-0.36893zM218.94958,175.41673c-0.01683,0.22956 -1.3382,0.24804 -3.96409,0.05546c-2.62029,-0.19216 -3.92305,-0.38904 -3.90826,-0.5906l1.54843,-21.11349c0.01438,-0.19596 1.3317,-0.19785 3.95199,-0.00568c2.62589,0.19258 3.93268,0.37285 3.92037,0.54082zM220.68402,151.76692c-0.01478,0.20156 -1.33512,0.20605 -3.96101,0.01347c-2.62029,-0.19216 -3.92407,-0.37504 -3.91134,-0.5486l0.45394,-6.18959c0.02095,-0.28555 1.34155,-0.33222 3.96184,-0.14006c2.62589,0.19258 3.93248,0.37566 3.91975,0.54922zM242.30033,177.17144c-0.01478,0.20156 -1.24834,0.21242 -3.70066,0.03257c-2.45232,-0.17985 -3.66904,-0.39854 -3.65015,-0.6561l0.91772,-12.51358c0.10512,-1.43332 -0.31543,-2.18468 -1.26164,-2.25407c-0.48711,-0.03572 -1.15418,0.2334 -2.00123,0.80736l-1.00888,13.75653c-0.02095,0.28555 -1.25758,0.33839 -3.7099,0.15855c-2.45232,-0.17985 -3.66699,-0.42655 -3.64399,-0.74008l1.03105,-14.05886l-1.07498,-0.07884c-0.94622,-0.06939 -1.34685,-1.0923 -1.2019,-3.06871c0.06528,-0.89022 0.30516,-1.78172 0.71964,-2.67448c0.5515,-1.22609 1.34235,-1.80134 2.37255,-1.7258c1.0302,0.07555 2.0041,0.41998 2.92168,1.03329c0.92318,0.61372 1.46769,1.17153 1.63352,1.67342c1.89584,-1.44272 3.92435,-2.08483 6.08553,-1.92633c2.16678,0.15891 3.85877,0.95849 5.07596,2.39872c1.64944,-1.23 3.56316,-1.76514 5.74113,-1.60541c4.73109,0.34697 6.88536,3.40109 6.46284,9.16237l-0.95837,13.06787c-0.01478,0.20156 -1.24834,0.21242 -3.70066,0.03257c-2.45232,-0.17985 -3.66904,-0.39854 -3.65015,-0.6561l0.91772,-12.51357c0.10512,-1.43332 -0.31543,-2.18468 -1.26164,-2.25407c-0.5151,-0.03778 -1.19617,0.23031 -2.04322,0.80427zM273.02803,178.47929c-1.88605,0.92557 -4.24841,1.28426 -7.08706,1.07608c-2.83864,-0.20818 -5.16134,-1.34954 -6.9681,-3.42406c-1.80635,-2.08012 -2.58388,-4.83344 -2.33258,-8.25997c0.2513,-3.42654 1.39134,-6.11523 3.42014,-8.06606c2.03481,-1.95603 4.48554,-2.82892 7.35217,-2.61869c2.86663,0.21024 5.02743,1.10329 6.48236,2.67917c1.45493,1.57588 2.1056,3.41082 1.95203,5.50481c-0.3404,4.6415 -3.17568,6.76679 -8.50584,6.37589l-2.97303,-0.21804c-0.06323,0.86223 0.12818,1.47576 0.57427,1.8406c0.45168,0.36524 1.13664,0.58153 2.05486,0.64888c2.01001,0.14741 3.95012,-0.17189 5.82031,-0.95789c0.03004,-0.02594 0.14424,0.18226 0.34259,0.62462c0.59792,1.28787 0.86588,2.35452 0.80388,3.19995c-0.062,0.84544 -0.37399,1.37701 -0.93597,1.59474zM268.56465,165.65551c0.08828,-1.20377 -0.45547,-1.84875 -1.63124,-1.93498c-0.54309,-0.03983 -1.02271,0.09105 -1.43886,0.39264c-0.41055,0.30201 -0.63882,0.76654 -0.68481,1.39362l-0.09793,1.33535l2.32635,0.17061c0.94622,0.06939 1.45506,-0.38302 1.5265,-1.35722z" fill="#ffffff" stroke="none" stroke-width="1" stroke-linecap="square"/><path d="M278.86034,256.86478c-3.86232,0.28404 -7.10323,-0.74951 -9.72271,-3.10068c-2.61949,-2.35117 -4.10759,-5.95211 -4.46431,-10.80284c-0.35712,-4.8561 0.60242,-8.62624 2.87861,-11.31043c2.27618,-2.68419 5.35887,-4.16929 9.24805,-4.4553c3.89455,-0.28641 7.12752,0.71264 9.6989,2.99712c2.57675,2.28409 4.04882,5.92402 4.41621,10.91979c0.36699,4.9904 -0.5848,8.79237 -2.85538,11.40594c-2.26521,2.61317 -5.33166,4.06197 -9.19935,4.3464zM277.28578,235.12336c-1.32146,0.09718 -2.3861,0.78577 -3.19391,2.06577c-0.80283,1.27423 -1.12386,3.00451 -0.96307,5.19083c0.16078,2.18632 0.7113,3.83359 1.65153,4.94183c0.93984,1.10287 2.10272,1.60334 3.48864,1.50142c1.3913,-0.10232 2.47592,-0.77617 3.25387,-2.02157c0.77756,-1.25077 1.08555,-2.97468 0.92398,-5.17174c-0.16197,-2.20243 -0.73227,-3.86176 -1.7109,-4.97798c-0.97863,-1.11622 -2.12867,-1.62574 -3.45013,-1.52856zM300.97832,262.66706c-2.34747,0.17264 -3.52832,0.16226 -3.54255,-0.03113l-1.56259,-21.24811l-1.40204,0.10311c-0.66073,0.04859 -1.15909,-0.52235 -1.49507,-1.71283c-0.11439,-0.38045 -0.19371,-0.8715 -0.23795,-1.47314c-0.04464,-0.60701 0.096,-1.33836 0.42194,-2.19406c0.45903,-1.24894 1.29557,-1.91806 2.50959,-2.00734c0.79503,-0.05847 1.54191,0.07294 2.24064,0.39421c0.70411,0.32088 1.19673,0.63031 1.47788,0.92828c0.28652,0.29757 0.43177,0.47322 0.43572,0.52694c1.73745,-1.56439 3.67784,-2.4254 5.82118,-2.58303c2.14872,-0.15802 4.05247,0.53911 5.71127,2.09139c1.66377,1.5465 2.62365,4.06022 2.87964,7.54115c0.25599,3.48093 -0.31655,6.23425 -1.71761,8.25999c-1.3961,2.01997 -3.27594,3.11686 -5.63952,3.29068c-1.07436,0.07901 -2.05599,0.09719 -2.94486,0.05454c0,0 0.39417,5.35991 0.49577,6.74153c0.06153,0.83663 -1.0986,1.14479 -3.45145,1.31781zM304.6128,240.7046c-0.46735,0.03437 -0.9102,0.21816 -1.32856,0.55138l0.53686,7.30026c0.4717,0.02472 0.85258,0.02642 1.14265,0.00509c0.29008,-0.02133 0.51569,-0.03793 0.67685,-0.04978c1.11978,-0.19576 1.57756,-1.68225 1.37331,-4.45947c-0.17185,-2.33673 -0.97221,-3.45255 -2.40111,-3.34748zM326.9012,253.33184c-2.7235,0.20029 -5.08809,-0.55747 -7.09376,-2.27326c-2.00606,-1.72117 -3.12999,-4.22552 -3.37176,-7.51305c-0.24176,-3.28753 0.46345,-5.99932 2.11565,-8.13533c1.65717,-2.14178 3.86095,-3.31382 6.61131,-3.51608c2.75036,-0.20226 4.92647,0.34252 6.5283,1.63434c1.60183,1.29182 2.47663,2.94226 2.62437,4.95131c0.32749,4.45322 -2.06574,6.86787 -7.17969,7.24395l-2.85242,0.20977c0.06083,0.82726 0.32852,1.38275 0.80306,1.66651c0.47991,0.28336 1.16035,0.39265 2.04133,0.32786c1.92847,-0.14182 3.72518,-0.71682 5.39011,-1.725c0.02488,-0.02883 0.16246,0.15278 0.41273,0.54484c0.74804,1.13858 1.15189,2.11344 1.21154,2.92458c0.05965,0.81114 -0.16198,1.35943 -0.66487,1.64485c0,0 -3.8524,1.81443 -6.5759,2.01471zM327.44317,239.77096c-0.08493,-1.15493 -0.69144,-1.69092 -1.81952,-1.60796c-0.52107,0.03832 -0.95796,0.22977 -1.31067,0.57436c-0.34735,0.34419 -0.4989,0.81712 -0.45466,1.41876l0.09422,1.28117l2.23199,-0.16414c0.90783,-0.06676 1.32738,-0.56749 1.25865,-1.50218zM347.04704,251.39663c0.01422,0.19339 -1.23029,0.38212 -3.73355,0.56621c-2.50761,0.125 -3.76733,0.10693 -3.77918,-0.05423l-1.00736,-13.69807l-1.11196,0.08177c-0.44049,0.0324 -0.81209,-0.21033 -1.11481,-0.72815c-0.30273,-0.51782 -0.48332,-1.17423 -0.54179,-1.96926c-0.21846,-2.97061 0.55328,-4.52069 2.31523,-4.65027c1.23551,-0.09086 2.29475,0.21201 3.17771,0.90859c0.88256,0.69121 1.3594,1.52029 1.4305,2.48721c0.49183,-1.17034 1.20188,-2.12721 2.13017,-2.87058c0.92789,-0.74875 1.89947,-1.16045 2.91474,-1.23511c1.59542,-0.11733 2.58988,0.22271 2.98337,1.0201c0.09677,0.21432 0.16096,0.53634 0.19257,0.96609c0.03121,0.42437 -0.04431,1.19684 -0.22654,2.31742c-0.17686,1.12018 -0.38679,1.93764 -0.62978,2.45239c-0.23762,0.51435 -0.38328,0.7735 -0.437,0.77745c-0.05372,0.00395 -0.31639,-0.07935 -0.788,-0.2499c-0.46664,-0.17631 -0.87991,-0.25124 -1.23982,-0.22477c-1.04212,0.07664 -1.50255,0.93953 -1.38127,2.58867zM355.84743,235.7297c-0.8693,-1.31869 -1.33574,-2.41047 -1.39934,-3.27533c-0.0636,-0.86486 0.12919,-1.43803 0.57836,-1.71949c1.51263,-0.80255 3.63606,-1.30436 6.3703,-1.50543c2.73962,-0.20147 4.72047,0.29554 5.94257,1.49108c1.2221,1.19554 1.92519,3.04492 2.10928,5.54818l0.47938,6.51867l1.40204,-0.1031c0.46735,-0.03437 0.85297,0.21541 1.15688,0.74935c0.30352,0.52856 0.49062,1.27362 0.56134,2.23517c0.07072,0.96155 -0.1013,1.92746 -0.51602,2.8977c-0.41472,0.97025 -1.03302,1.48559 -1.8549,1.54603c-1.48799,0.10943 -2.71513,-0.19999 -3.68143,-0.92826c-0.43275,-0.30302 -0.77642,-0.68011 -1.03103,-1.13126c-1.15042,1.68865 -3.06052,2.63115 -5.7303,2.82748c-2.00369,0.14735 -3.74565,-0.44286 -5.22591,-1.77062c-1.48026,-1.32776 -2.29229,-2.96931 -2.43608,-4.92464c-0.32947,-4.48007 2.18632,-6.91725 7.54737,-7.3115l2.27227,-0.1671l-0.03081,-0.41899c-0.05254,-0.71445 -0.2045,-1.16505 -0.45587,-1.3518c-0.246,-0.18714 -0.79606,-0.2493 -1.65018,-0.18649c-1.0475,0.07703 -2.5168,0.40383 -4.4079,0.98037zM359.70988,243.08515c0.04424,0.60164 0.24186,1.04888 0.59285,1.34172c0.35099,0.29283 0.78163,0.42049 1.29195,0.38296c0.51032,-0.03753 0.95709,-0.27831 1.3403,-0.72235l-0.23347,-3.17473l-1.1603,0.08533c-1.31608,0.09679 -1.92653,0.79248 -1.83132,2.08708zM385.14898,248.38397c0.0245,0.33305 -1.1182,0.58451 -3.42807,0.75438c-2.75865,0.08945 -4.14707,0.01063 -4.16524,-0.23647l-1.07373,-14.60053l-2.10306,0.15466c-0.55329,0.04069 -0.89986,-0.88977 -1.03971,-2.79138c-0.03634,-0.4942 -0.03244,-1.10209 0.01171,-1.82364c0.04415,-0.72156 0.21933,-1.0936 0.52552,-1.11612l2.18363,-0.16058l-0.26725,-3.63402c-0.0403,-0.54792 1.09987,-0.90721 3.42048,-1.07787c2.32599,-0.17105 3.50517,-0.03634 3.53757,0.40415l0.19437,2.64293l0.12502,1.14928l3.51316,-0.25836c0.46735,-0.03437 0.77193,0.91269 0.91375,2.84117c0.14143,1.9231 -0.02153,2.90183 -0.48888,2.9362l-2.933,0.21569zM398.38902,247.41029c0.01619,0.22025 -1.23539,0.42301 -3.75476,0.60829c-2.51398,0.18488 -3.77808,0.18062 -3.7923,-0.01276l-1.48971,-20.25703c-0.01382,-0.18801 1.23625,-0.37446 3.75023,-0.55934c2.51937,-0.18527 3.78499,-0.19734 3.79684,-0.03618zM396.72035,224.71983c0.01422,0.19339 -1.23836,0.38272 -3.75772,0.56799c-2.51398,0.18488 -3.77709,0.19405 -3.78933,0.02754l-0.43672,-5.93852c-0.02015,-0.27396 1.22677,-0.50338 3.74075,-0.68825c2.51937,-0.18527 3.78519,-0.19465 3.79743,-0.02812zM403.73797,244.82148c-1.85843,-1.76982 -2.91109,-4.33343 -3.15799,-7.6908c-0.24691,-3.35737 0.41941,-6.04739 1.99893,-8.07004c1.57952,-2.02265 3.82774,-3.14123 6.74462,-3.35574c2.91688,-0.21451 5.29647,0.56374 7.13878,2.33476c1.84231,1.77101 2.88691,4.33521 3.13382,7.69258c0.24691,3.35737 -0.41135,6.0468 -1.97475,8.06826c-1.5634,2.02147 -3.80355,3.13947 -6.72044,3.35397c-2.91688,0.21451 -5.30454,-0.56315 -7.16296,-2.33297zM407.79671,236.55945c0.18606,2.53012 1.05532,3.7381 2.60777,3.62393c1.55782,-0.11456 2.2437,-1.43689 2.05763,-3.96701c-0.18606,-2.53012 -1.57406,-8.97935 -3.39361,-8.84555c-1.81955,0.1338 -1.45786,6.65851 -1.27179,9.18864zM431.88739,244.94681c0.01422,0.19339 -0.96708,0.36276 -2.9439,0.50814c-2.75628,0.12169 -4.14253,0.07241 -4.15873,-0.14784l-0.98307,-13.3677l-1.07167,0.07881c-0.71445,0.05254 -1.22624,-0.51742 -1.53537,-1.70987c-0.08556,-0.35557 -0.14137,-0.71061 -0.16744,-1.06515c-0.06281,-0.85412 0.04091,-1.72048 0.31115,-2.59909c0.40532,-1.24499 1.12904,-1.90581 2.17117,-1.98245c1.0475,-0.07703 2.00037,0.10133 2.8586,0.5351c0.8636,0.43337 1.45324,0.88688 1.76891,1.36055c1.62068,-1.60981 3.62625,-2.50263 6.0167,-2.67842c2.39582,-0.17619 4.17582,0.34371 5.34002,1.5597c1.16917,1.21022 1.862,3.28721 2.07849,6.23095l0.91018,12.37661c0.0241,0.32768 -1.14027,0.57804 -3.49312,0.75107c-2.34747,0.17264 -3.53326,0.0951 -3.55736,-0.23257l-0.62699,-14.92538c-0.10113,-1.37518 -4.50977,0.19572 -4.64114,0.31879zM451.76612,238.30011c0.82725,-0.06083 1.21974,-0.37864 1.17747,-0.95343c-0.03042,-0.41363 -0.78437,-0.89827 -2.26185,-1.45392c-3.54106,-1.14921 -5.42891,-3.31922 -5.66356,-6.51007c-0.14972,-2.03591 0.47742,-3.64288 1.88142,-4.8209c1.40898,-1.18379 3.15023,-1.85192 5.22374,-2.00441c2.07888,-0.15288 3.85434,-0.06202 5.32637,0.2726c1.4774,0.33422 2.24238,0.85855 2.29492,1.573c0.04424,0.60164 -0.19254,1.42108 -0.71035,2.45832c-0.51821,1.03187 -0.88446,1.59618 -1.09878,1.69296c-1.22999,-0.56844 -2.53258,-0.80211 -3.90776,-0.70098c-0.74131,0.05452 -1.0928,0.34231 -1.05448,0.86337c0.0241,0.32768 0.18718,0.59923 0.48928,0.81466c0.30707,0.20965 0.85732,0.45813 1.65077,0.74543c0.79882,0.28691 1.46098,0.55147 1.98647,0.79367c0.53047,0.23643 1.13081,0.57843 1.80102,1.02603c1.3981,0.94494 2.15897,2.25811 2.28262,3.93949c0.16158,2.19707 -0.43803,4.03153 -1.79882,5.50342c-1.35581,1.46613 -3.50559,2.30742 -6.44933,2.52391c-1.94996,0.1434 -3.74695,-0.05659 -5.39096,-0.6c-1.64401,-0.54341 -2.50848,-1.39257 -2.59341,-2.5475c-0.05649,-0.76817 0.06939,-1.59025 0.37762,-2.46625c0.30784,-0.88137 0.64487,-1.47595 1.0111,-1.78373c0,0 4.13727,1.72913 5.42649,1.63432z" fill="none" stroke-opacity="0.50196" stroke="#000000" stroke-width="10" stroke-linecap="square"/><path d="M278.86034,256.86478c-3.86232,0.28404 -7.10323,-0.74951 -9.72271,-3.10068c-2.61949,-2.35117 -4.10759,-5.95211 -4.46431,-10.80284c-0.35712,-4.8561 0.60242,-8.62624 2.87861,-11.31043c2.27618,-2.68419 5.35887,-4.16929 9.24805,-4.4553c3.89455,-0.28641 7.12752,0.71264 9.6989,2.99712c2.57675,2.28409 4.04882,5.92402 4.41621,10.91979c0.36699,4.9904 -0.5848,8.79237 -2.85538,11.40594c-2.26521,2.61317 -5.33166,4.06197 -9.19935,4.3464zM277.28578,235.12336c-1.32146,0.09718 -2.3861,0.78577 -3.19391,2.06577c-0.80283,1.27423 -1.12386,3.00451 -0.96307,5.19083c0.16078,2.18632 0.7113,3.83359 1.65153,4.94183c0.93984,1.10287 2.10272,1.60334 3.48864,1.50142c1.3913,-0.10232 2.47592,-0.77617 3.25387,-2.02157c0.77756,-1.25077 1.08555,-2.97468 0.92398,-5.17174c-0.16197,-2.20243 -0.73227,-3.86176 -1.7109,-4.97798c-0.97863,-1.11622 -2.12867,-1.62574 -3.45013,-1.52856zM304.48625,262.11744c0.01422,0.19338 -1.15509,0.37659 -3.50793,0.54962c-2.34747,0.17264 -3.52832,0.16226 -3.54255,-0.03113l-1.56259,-21.24811l-1.40204,0.10311c-0.66073,0.04859 -1.15909,-0.52235 -1.49507,-1.71283c-0.11439,-0.38045 -0.19371,-0.8715 -0.23795,-1.47314c-0.04464,-0.60701 0.096,-1.33836 0.42194,-2.19406c0.45903,-1.24894 1.29557,-1.91806 2.50959,-2.00734c0.79503,-0.05847 1.54191,0.07294 2.24064,0.39421c0.70411,0.32088 1.19673,0.63031 1.47788,0.92828c0.28652,0.29757 0.43177,0.47322 0.43572,0.52694c1.73745,-1.56439 3.67784,-2.4254 5.82118,-2.58303c2.14872,-0.15802 4.05247,0.53911 5.71127,2.09139c1.66377,1.5465 2.62365,4.06022 2.87964,7.54115c0.25599,3.48093 -0.31655,6.23425 -1.71761,8.25999c-1.3961,2.01997 -3.27594,3.11686 -5.63952,3.29068c-1.07436,0.07901 -2.05599,0.09719 -2.94486,0.05454l0.55227,7.50975zM304.6128,240.7046c-0.46735,0.03437 -0.9102,0.21816 -1.32856,0.55138l0.53686,7.30026c0.4717,0.02472 0.85258,0.02642 1.14265,0.00509c0.29008,-0.02133 0.51569,-0.03793 0.67685,-0.04978c1.11978,-0.19576 1.57756,-1.68225 1.37331,-4.45947c-0.17185,-2.33673 -0.97221,-3.45255 -2.40111,-3.34748zM333.47709,251.3171c-1.66042,1.14287 -3.85238,1.81445 -6.57588,2.01474c-2.7235,0.20029 -5.08809,-0.55747 -7.09376,-2.27326c-2.00606,-1.72117 -3.12999,-4.22552 -3.37176,-7.51305c-0.24176,-3.28753 0.46345,-5.99932 2.11565,-8.13533c1.65717,-2.14178 3.86095,-3.31382 6.61131,-3.51608c2.75036,-0.20226 4.92647,0.34252 6.5283,1.63434c1.60183,1.29182 2.47663,2.94226 2.62437,4.95131c0.32749,4.45322 -2.06574,6.86787 -7.17969,7.24395l-2.85242,0.20977c0.06083,0.82726 0.32852,1.38275 0.80306,1.66651c0.47991,0.28336 1.16035,0.39265 2.04133,0.32786c1.92847,-0.14182 3.72518,-0.71682 5.39011,-1.725c0.02488,-0.02883 0.16246,0.15278 0.41273,0.54484c0.74804,1.13858 1.15189,2.11344 1.21154,2.92458c0.05965,0.81114 -0.16198,1.35943 -0.66487,1.64485zM327.44317,239.77096c-0.08493,-1.15493 -0.69144,-1.69092 -1.81952,-1.60796c-0.52107,0.03832 -0.95796,0.22977 -1.31067,0.57436c-0.34735,0.34419 -0.4989,0.81712 -0.45466,1.41876l0.09422,1.28117l2.23199,-0.16414c0.90783,-0.06676 1.32738,-0.56749 1.25865,-1.50218zM347.04704,251.39663c0.01422,0.19339 -1.23029,0.38212 -3.73355,0.56621c-2.50761,0.125 -3.76733,0.10693 -3.77918,-0.05423l-1.00736,-13.69807l-1.11196,0.08177c-0.44049,0.0324 -0.81209,-0.21033 -1.11481,-0.72815c-0.30273,-0.51782 -0.48332,-1.17423 -0.54179,-1.96926c-0.21846,-2.97061 0.55328,-4.52069 2.31523,-4.65027c1.23551,-0.09086 2.29475,0.21201 3.17771,0.90859c0.88256,0.69121 1.3594,1.52029 1.4305,2.48721c0.49183,-1.17034 1.20188,-2.12721 2.13017,-2.87058c0.92789,-0.74875 1.89947,-1.16045 2.91474,-1.23511c1.59542,-0.11733 2.58988,0.22271 2.98337,1.0201c0.09677,0.21432 0.16096,0.53634 0.19257,0.96609c0.03121,0.42437 -0.04431,1.19684 -0.22654,2.31742c-0.17686,1.12018 -0.38679,1.93764 -0.62978,2.45239c-0.23762,0.51435 -0.38328,0.7735 -0.437,0.77745c-0.05372,0.00395 -0.31639,-0.07935 -0.788,-0.2499c-0.46664,-0.17631 -0.87991,-0.25124 -1.23982,-0.22477c-1.04212,0.07664 -1.50255,0.93953 -1.38127,2.58867zM355.84743,235.7297c-0.8693,-1.31869 -1.33574,-2.41047 -1.39934,-3.27533c-0.0636,-0.86486 0.12919,-1.43803 0.57836,-1.71949c1.51263,-0.80255 3.63606,-1.30436 6.3703,-1.50543c2.73962,-0.20147 4.72047,0.29554 5.94257,1.49108c1.2221,1.19554 1.92519,3.04492 2.10928,5.54818l0.47938,6.51867l1.40204,-0.1031c0.46735,-0.03437 0.85297,0.21541 1.15688,0.74935c0.30352,0.52856 0.49062,1.27362 0.56134,2.23517c0.07072,0.96155 -0.1013,1.92746 -0.51602,2.8977c-0.41472,0.97025 -1.03302,1.48559 -1.8549,1.54603c-1.48799,0.10943 -2.71513,-0.19999 -3.68143,-0.92826c-0.43275,-0.30302 -0.77642,-0.68011 -1.03103,-1.13126c-1.15042,1.68865 -3.06052,2.63115 -5.7303,2.82748c-2.00369,0.14735 -3.74565,-0.44286 -5.22591,-1.77062c-1.48026,-1.32776 -2.29229,-2.96931 -2.43608,-4.92464c-0.32947,-4.48007 2.18632,-6.91725 7.54737,-7.3115l2.27227,-0.1671l-0.03081,-0.41899c-0.05254,-0.71445 -0.2045,-1.16505 -0.45587,-1.3518c-0.246,-0.18714 -0.79606,-0.2493 -1.65018,-0.18649c-1.0475,0.07703 -2.5168,0.40383 -4.4079,0.98037zM359.70988,243.08515c0.04424,0.60164 0.24186,1.04888 0.59285,1.34172c0.35099,0.29283 0.78163,0.42049 1.29195,0.38296c0.51032,-0.03753 0.95709,-0.27831 1.3403,-0.72235l-0.23347,-3.17473l-1.1603,0.08533c-1.31608,0.09679 -1.92653,0.79248 -1.83132,2.08708zM385.14898,248.38397c0.0245,0.33305 -1.1182,0.58451 -3.42807,0.75438c-2.75865,0.08945 -4.14707,0.01063 -4.16524,-0.23647l-1.07373,-14.60053l-2.10306,0.15466c-0.55329,0.04069 -0.89986,-0.88977 -1.03971,-2.79138c-0.03634,-0.4942 -0.03244,-1.10209 0.01171,-1.82364c0.04415,-0.72156 0.21933,-1.0936 0.52552,-1.11612l2.18363,-0.16058l-0.26725,-3.63402c-0.0403,-0.54792 1.09987,-0.90721 3.42048,-1.07787c2.32599,-0.17105 3.50517,-0.03634 3.53757,0.40415l0.19437,2.64293l0.12502,1.14928l3.51316,-0.25836c0.46735,-0.03437 0.77193,0.91269 0.91375,2.84117c0.14143,1.9231 -0.02153,2.90183 -0.48888,2.9362l-2.933,0.21569zM398.38902,247.41029c0.01619,0.22025 -1.23539,0.42301 -3.75476,0.60829c-2.51398,0.18488 -3.77808,0.18062 -3.7923,-0.01276l-1.48971,-20.25703c-0.01382,-0.18801 1.23625,-0.37446 3.75023,-0.55934c2.51937,-0.18527 3.78499,-0.19734 3.79684,-0.03618zM396.72035,224.71983c0.01422,0.19339 -1.23836,0.38272 -3.75772,0.56799c-2.51398,0.18488 -3.77709,0.19405 -3.78933,0.02754l-0.43672,-5.93852c-0.02015,-0.27396 1.22677,-0.50338 3.74075,-0.68825c2.51937,-0.18527 3.78519,-0.19465 3.79743,-0.02812zM403.73797,244.82148c-1.85843,-1.76982 -2.91109,-4.33343 -3.15799,-7.6908c-0.24691,-3.35737 0.41941,-6.04739 1.99893,-8.07004c1.57952,-2.02265 3.82774,-3.14123 6.74462,-3.35574c2.91688,-0.21451 5.29647,0.56374 7.13878,2.33476c1.84231,1.77101 2.88691,4.33521 3.13382,7.69258c0.24691,3.35737 -0.41135,6.0468 -1.97475,8.06826c-1.5634,2.02147 -3.80355,3.13947 -6.72044,3.35397c-2.91688,0.21451 -5.30454,-0.56315 -7.16296,-2.33297zM409.84628,232.59303c-1.55246,0.11417 -2.23564,1.4363 -2.04957,3.96642c0.18606,2.53012 1.05532,3.7381 2.60777,3.62393c1.55782,-0.11456 2.2437,-1.43689 2.05763,-3.96701c-0.18606,-2.53012 -1.05801,-3.7379 -2.61583,-3.62333zM431.88739,244.94681c0.01422,0.19339 -0.96708,0.36276 -2.9439,0.50814c-2.75628,0.12169 -4.14253,0.07241 -4.15873,-0.14784l-0.98307,-13.3677l-1.07167,0.07881c-0.71445,0.05254 -1.22624,-0.51742 -1.53537,-1.70987c-0.08556,-0.35557 -0.14137,-0.71061 -0.16744,-1.06515c-0.06281,-0.85412 0.04091,-1.72048 0.31115,-2.59909c0.40532,-1.24499 1.12904,-1.90581 2.17117,-1.98245c1.0475,-0.07703 2.00037,0.10133 2.8586,0.5351c0.8636,0.43337 1.45324,0.88688 1.76891,1.36055c1.62068,-1.60981 3.62625,-2.50263 6.0167,-2.67842c2.39582,-0.17619 4.17582,0.34371 5.34002,1.5597c1.16917,1.21022 1.862,3.28721 2.07849,6.23095l0.91018,12.37661c0.0241,0.32768 -1.14027,0.57804 -3.49312,0.75107c-2.34747,0.17264 -3.53326,0.0951 -3.55736,-0.23257l-0.87699,-11.92538c-0.10113,-1.37518 -0.63247,-2.02741 -1.59402,-1.95669c-0.27934,0.02054 -0.65741,0.16717 -1.13424,0.43987c-0.47722,0.26733 -0.78151,0.46254 -0.91288,0.58562zM446.33959,236.66575c2.32845,1.18437 4.1373,1.72916 5.42653,1.63435c0.82725,-0.06083 1.21974,-0.37864 1.17747,-0.95343c-0.03042,-0.41363 -0.78437,-0.89827 -2.26185,-1.45392c-3.54106,-1.14921 -5.42891,-3.31922 -5.66356,-6.51007c-0.14972,-2.03591 0.47742,-3.64288 1.88142,-4.8209c1.40898,-1.18379 3.15023,-1.85192 5.22374,-2.00441c2.07888,-0.15288 3.85434,-0.06202 5.32637,0.2726c1.4774,0.33422 2.24238,0.85855 2.29492,1.573c0.04424,0.60164 -0.19254,1.42108 -0.71035,2.45832c-0.51821,1.03187 -0.88446,1.59618 -1.09878,1.69296c-1.22999,-0.56844 -2.53258,-0.80211 -3.90776,-0.70098c-0.74131,0.05452 -1.0928,0.34231 -1.05448,0.86337c0.0241,0.32768 0.18718,0.59923 0.48928,0.81466c0.30707,0.20965 0.85732,0.45813 1.65077,0.74543c0.79882,0.28691 1.46098,0.55147 1.98647,0.79367c0.53047,0.23643 1.13081,0.57843 1.80102,1.02603c1.3981,0.94494 2.15897,2.25811 2.28262,3.93949c0.16158,2.19707 -0.43803,4.03153 -1.79882,5.50342c-1.35581,1.46613 -3.50559,2.30742 -6.44933,2.52391c-1.94996,0.1434 -3.74695,-0.05659 -5.39096,-0.6c-1.64401,-0.54341 -2.50848,-1.39257 -2.59341,-2.5475c-0.05649,-0.76817 0.06939,-1.59025 0.37762,-2.46625c0.30784,-0.88137 0.64487,-1.47595 1.0111,-1.78373z" fill="#ffffff" stroke="none" stroke-width="1" stroke-linecap="square"/></g></g></svg>