<svg version="1.1" xmlns="http://www.w3.org/2000/svg" xmlns:xlink="http://www.w3.org/1999/xlink" width="309.2973" height="159.64866" viewBox="0,0,309.2973,159.64866"><defs><linearGradient x1="300.00002" y1="125.1757" x2="300.00002" y2="274.82435" gradientUnits="userSpaceOnUse" id="color-1"><stop offset="0" stop-color="#203f6b"/><stop offset="1" stop-color="#4c97ff"/></linearGradient></defs><g transform="translate(-145.35137,-120.17569)"><g fill-rule="nonzero" stroke-linejoin="miter" stroke-miterlimit="10" stroke-dasharray="" stroke-dashoffset="0" style="mix-blend-mode: normal"><path d="M153.17921,273.32436v-146.64866h293.64163v146.64866z" fill="#1a3966" stroke="none" stroke-width="0" stroke-linecap="butt"/><path d="M150.53163,221.86756l17.54029,-17.54029l40.21725,40.21725l-28.54029,28.54029l-30.01177,-3.65785z" fill="#265699" stroke="none" stroke-width="0" stroke-linecap="butt"/><path d="M419.84253,273.32153l-28.77701,-28.77701l40.21725,-40.21725l19.52701,19.52701l-1.45548,46.33596z" fill="#265699" stroke="none" stroke-width="0" stroke-linecap="butt"/><path d="M451.30981,130.64575l-20.02703,20.02703l-24.14575,-24.14574z" fill="#265699" stroke="none" stroke-width="0" stroke-linecap="butt"/><path d="M194.20438,124.54032l-26.13246,26.13246l-16.54031,-16.54031l10.18434,-8.40167z" fill="#265699" stroke="none" stroke-width="0" stroke-linecap="butt"/><path d="M374.14437,212.08546l-33.94112,-33.94112l33.94113,-33.94112l33.94113,33.94113z" fill="#3373cc" stroke="none" stroke-width="0" stroke-linecap="butt"/><path d="M426.47196,196.85761l-18.71328,-18.71328l18.71328,-18.71328l18.71328,18.71328z" fill="#3373cc" stroke="none" stroke-width="0" stroke-linecap="butt"/><path d="M408.0855,167.52427l-12.56341,-12.56341l12.56341,-12.56341l12.56341,12.56341z" fill="#4c97ff" stroke="none" stroke-width="0" stroke-linecap="butt"/><path d="M408.0855,214.52428l-12.56341,-12.56341l12.56341,-12.56341l12.56341,12.56341z" fill="#4c97ff" stroke="none" stroke-width="0" stroke-linecap="butt"/><path d="M343.0855,155.62729l-26.23007,-26.23008h52.46015z" fill="#4c97ff" stroke="none" stroke-width="0" stroke-linecap="butt"/><path d="M343.0855,253.7546l-26.23007,-26.23007l26.23008,-26.23008l26.23008,26.23008z" fill="#4c97ff" stroke="none" stroke-width="0" stroke-linecap="butt"/><path d="M191.87895,178.46087l33.94113,-33.94112l33.94113,33.94113l-33.94112,33.94113z" fill="#3373cc" stroke="none" stroke-width="0" stroke-linecap="butt"/><path d="M154.7792,178.46087l18.71328,-18.71328l18.71328,18.71328l-18.71328,18.71328z" fill="#3373cc" stroke="none" stroke-width="0" stroke-linecap="butt"/><path d="M179.31554,155.2774l12.56341,-12.56341l12.56341,12.56341l-12.56341,12.56341z" fill="#4c97ff" stroke="none" stroke-width="0" stroke-linecap="butt"/><path d="M179.31554,202.2774l12.56341,-12.56341l12.56341,12.56341l-12.56341,12.56341z" fill="#4c97ff" stroke="none" stroke-width="0" stroke-linecap="butt"/><path d="M230.64887,129.71374h52.46015l-26.23007,26.23008z" fill="#4c97ff" stroke="none" stroke-width="0" stroke-linecap="butt"/><path d="M230.64887,227.84106l26.23008,-26.23008l26.23008,26.23008l-26.23007,26.23008z" fill="#4c97ff" stroke="none" stroke-width="0" stroke-linecap="butt"/><path d="M189.93889,258.47533c-2.51344,0 -3.87118,-0.40403 -4.07319,-1.21209l-1.42351,-5.58126h-6.88496l-1.25438,5.36985c-0.17382,0.89263 -1.55975,1.33894 -4.15776,1.33894c-1.38592,0 -2.41244,-0.07987 -3.07956,-0.2396c-0.66242,-0.15973 -0.99364,-0.28188 -0.99364,-0.36645l7.66719,-29.31572c0,-0.23021 1.97552,-0.3453 5.92657,-0.3453c3.95575,0 5.93361,0.1151 5.93361,0.3453l7.49101,29.358c0,0.20202 -0.66477,0.36175 -1.99432,0.4792c-1.32485,0.11275 -2.37721,0.16913 -3.15707,0.16913zM178.63543,246.17824h4.54534l-1.94499,-8.95679h-0.26074zM208.68628,228.34217c0,-0.43222 1.13927,-0.64833 3.41782,-0.64833c0.77987,0 1.6819,0.05168 2.70607,0.15503c1.02417,0.09866 1.53626,0.2349 1.53626,0.40873v22.81834h1.51512c0.7235,0 1.20034,0.64833 1.43055,1.94499c0.05638,0.37584 0.08456,0.88793 0.08456,1.53626c0,0.64833 -0.20201,1.43525 -0.60604,2.36076c-0.57316,1.26847 -1.49632,1.9027 -2.76949,1.9027c-0.9537,0 -1.79935,-0.18557 -2.53694,-0.55672c-0.7329,-0.37585 -1.22853,-0.76578 -1.48692,-1.16981l-0.38759,-0.56376c-1.58793,1.52686 -3.5799,2.29029 -5.97589,2.29029c-2.39599,0 -4.44669,-0.99364 -6.15207,-2.9809c-1.70069,-1.99196 -2.55103,-4.77085 -2.55103,-8.33666c0,-3.56581 0.89497,-6.3212 2.68492,-8.26619c1.78995,-1.94968 4.02621,-2.92452 6.70879,-2.92452c0.77987,0 1.57384,0.08456 2.3819,0.25369zM207.25573,243.23962c-1.61613,0 -2.42419,1.45639 -2.42419,4.36917c0,1.47048 0.2302,2.53224 0.69061,3.18527c0.4651,0.64833 0.97719,0.97249 1.53625,0.97249c0.56376,0 1.10639,-0.2443 1.62787,-0.73289v-7.36417c-0.49329,-0.28658 -0.97014,-0.42987 -1.43055,-0.42987zM233.14911,228.34217c0,-0.43222 1.13927,-0.64833 3.41782,-0.64833c0.77987,0 1.68189,0.05168 2.70606,0.15503c1.02417,0.09866 1.53626,0.2349 1.53626,0.40873v22.81834h1.51512c0.7235,0 1.20034,0.64833 1.43055,1.94499c0.05638,0.37584 0.08456,0.88793 0.08456,1.53626c0,0.64833 -0.20201,1.43525 -0.60604,2.36076c-0.57316,1.26847 -1.49632,1.9027 -2.76949,1.9027c-0.9537,0 -1.79934,-0.18557 -2.53693,-0.55672c-0.7329,-0.37585 -1.22854,-0.76578 -1.48693,-1.16981l-0.38759,-0.56376c-1.58793,1.52686 -3.5799,2.29029 -5.9759,2.29029c-2.39599,0 -4.44669,-0.99364 -6.15207,-2.9809c-1.70069,-1.99196 -2.55103,-4.77085 -2.55103,-8.33666c0,-3.56581 0.89497,-6.3212 2.68492,-8.26619c1.78995,-1.94968 4.02621,-2.92452 6.70879,-2.92452c0.77987,0 1.57384,0.08456 2.3819,0.25369zM231.71856,243.23962c-1.61613,0 -2.42418,1.45639 -2.42418,4.36917c0,1.47048 0.2302,2.53224 0.69061,3.18527c0.4651,0.64833 0.97719,0.97249 1.53626,0.97249c0.56376,0 1.10638,-0.2443 1.62786,-0.73289v-7.36417c-0.49329,-0.28658 -0.97014,-0.42987 -1.43055,-0.42987zM263.02405,257.22096c-1.81814,1.06646 -4.15775,1.59968 -7.01885,1.59968c-2.8564,0 -5.2665,-0.97249 -7.23027,-2.91748c-1.95908,-1.94968 -2.93862,-4.6487 -2.93862,-8.09706c0,-3.44835 0.9443,-6.22489 2.83291,-8.32961c1.8933,-2.10942 4.28226,-3.16413 7.16685,-3.16413c2.88459,0 5.1138,0.73524 6.68765,2.20573c1.57384,1.47048 2.36076,3.26043 2.36076,5.36985c0,4.67454 -2.68492,7.01181 -8.05477,7.01181h-2.98795c0,0.86443 0.23725,1.46344 0.71175,1.797c0.4792,0.33356 1.18156,0.50034 2.10707,0.50034c2.02015,0 3.93929,-0.46276 5.75743,-1.38827c0.02819,-0.02819 0.15738,0.17382 0.38759,0.60604c0.69531,1.24028 1.04296,2.28795 1.04296,3.14299c0,0.85034 -0.27483,1.40471 -0.8245,1.66311zM257.61193,244.70541c0,-1.21209 -0.59195,-1.81814 -1.77586,-1.81814c-0.54967,0 -1.01947,0.16678 -1.40941,0.50034c-0.38994,0.33356 -0.5849,0.81746 -0.5849,1.45169v1.33894h2.33962c0.9537,0 1.43055,-0.49094 1.43055,-1.47283zM278.65428,228.34217c0,-0.43222 1.13927,-0.64833 3.41782,-0.64833c0.77987,0 1.68189,0.05168 2.70607,0.15503c1.02417,0.09866 1.53625,0.2349 1.53625,0.40873v22.81834h1.51511c0.7235,0 1.20035,0.64833 1.43056,1.94499c0.05638,0.37584 0.08456,0.88793 0.08456,1.53626c0,0.64833 -0.20202,1.43525 -0.60605,2.36076c-0.57316,1.26847 -1.49632,1.9027 -2.76949,1.9027c-0.9537,0 -1.79935,-0.18557 -2.53694,-0.55672c-0.73289,-0.37585 -1.22853,-0.76578 -1.48692,-1.16981l-0.38759,-0.56376c-1.58794,1.52686 -3.5799,2.29029 -5.9759,2.29029c-2.396,0 -4.44669,-0.99364 -6.15207,-2.9809c-1.70069,-1.99196 -2.55104,-4.77085 -2.55104,-8.33666c0,-3.56581 0.89498,-6.3212 2.68493,-8.26619c1.78995,-1.94968 4.02622,-2.92452 6.70879,-2.92452c0.77987,0 1.57384,0.08456 2.3819,0.25369zM277.22373,243.23962c-1.61613,0 -2.42418,1.45639 -2.42418,4.36917c0,1.47048 0.2302,2.53224 0.69061,3.18527c0.4651,0.64833 0.97719,0.97249 1.53625,0.97249c0.56376,0 1.10638,-0.2443 1.62786,-0.73289v-7.36417c-0.49329,-0.28658 -0.97014,-0.42987 -1.43055,-0.42987zM330.82657,258.43306c-2.56982,0 -3.85473,-0.28893 -3.85473,-0.86678c0,0 -0.64375,-12.29115 -0.79078,-15.0984c-0.05687,-1.08573 -0.46378,-1.10806 -0.78637,-0.03392c-0.8474,2.82165 -4.61015,15.35078 -4.61015,15.35078c-0.11745,0.34765 -1.09934,0.52148 -2.94567,0.52148c-1.84632,0 -2.80003,-0.15974 -2.8611,-0.4792c0,0 -3.85408,-12.93553 -4.70934,-15.72563c-0.31016,-1.01183 -0.78738,-0.86238 -0.82621,0.24412c-0.09875,2.81448 -0.52491,14.96003 -0.52491,14.96003c-0.02819,0.43691 -0.57786,0.73524 -1.64901,0.89497c-1.06646,0.15503 -1.95439,0.23255 -2.66379,0.23255c-0.7047,0 -1.38827,-0.04228 -2.05069,-0.12685c-1.38592,-0.20202 -2.06478,-0.56376 -2.03659,-1.08524l1.00068,-28.13886c0,-0.69531 1.75942,-1.04297 5.27824,-1.04297c1.03827,0 2.30673,0.07987 3.8054,0.2396c1.50337,0.15973 2.34197,0.4698 2.5158,0.93021l4.84837,13.63604l4.24231,-13.67832c0.26309,-0.75169 2.25506,-1.12753 5.9759,-1.12753c1.07115,0 2.34902,0.07987 3.8336,0.2396c1.48458,0.15973 2.22686,0.44162 2.22686,0.84565l1.26143,28.3996c0,0.31946 -0.56377,0.55202 -1.6913,0.69766c-1.12752,0.14094 -2.12351,0.21141 -2.98795,0.21141zM341.45781,255.83974c-1.80404,-1.99196 -2.70607,-4.74971 -2.70607,-8.27323c0,-3.52353 0.90202,-6.27892 2.70607,-8.26618c1.80404,-1.99196 4.23527,-2.98795 7.29369,-2.98795c3.05842,0 5.48261,0.99599 7.27256,2.98795c1.78995,1.98727 2.68493,4.74266 2.68493,8.26618c0,3.52353 -0.89498,6.28127 -2.68493,8.27323c-1.78995,1.98727 -4.21413,2.9809 -7.27256,2.9809c-3.05842,0 -5.48965,-0.99364 -7.29369,-2.9809zM348.77265,243.54265c-1.63022,0 -2.44532,1.3272 -2.44532,3.98158c0,2.65438 0.8151,3.98158 2.44532,3.98158c1.63022,0 2.44533,-1.3272 2.44533,-3.98158c0,-2.65438 -0.81511,-3.98158 -2.44533,-3.98158zM371.74509,258.13003c0,0.34765 -1.21209,0.52148 -3.63628,0.52148c-2.88929,-0.11745 -4.33393,-0.30537 -4.33393,-0.56376v-15.32733h-2.20572c-0.57786,0 -0.86679,-0.99598 -0.86679,-2.98795c0,-0.52148 0.04933,-1.15572 0.14799,-1.9027c0.10336,-0.75169 0.31242,-1.12753 0.62718,-1.12753h2.29734v-3.81245c0,-0.57786 1.21913,-0.86679 3.65742,-0.86679c2.43828,0 3.65742,0.23256 3.65742,0.69766v2.76949l0.04933,1.21209h3.67856c0.48859,0 0.73289,1.01008 0.73289,3.03023c0,2.02015 -0.2443,3.03023 -0.73289,3.03023h-3.07251zM385.64181,258.13003c0,0.23021 -1.3225,0.34531 -3.96749,0.34531c-2.64029,0 -3.96044,-0.10101 -3.96044,-0.30302v-21.25389c0,-0.20201 1.32015,-0.30302 3.96044,-0.30302c2.64499,0 3.96749,0.08456 3.96749,0.25369zM385.64181,234.31806c0,0.20201 -1.3225,0.30302 -3.96749,0.30302c-2.64029,0 -3.96044,-0.08692 -3.96044,-0.26074v-6.23664c0,-0.28658 1.32015,-0.42987 3.96044,-0.42987c2.64499,0 3.96749,0.08692 3.96749,0.26074zM391.42259,255.83974c-1.80404,-1.99196 -2.70606,-4.74971 -2.70606,-8.27323c0,-3.52353 0.90202,-6.27892 2.70606,-8.26618c1.80404,-1.99196 4.23528,-2.98795 7.2937,-2.98795c3.05842,0 5.4826,0.99599 7.27255,2.98795c1.78995,1.98727 2.68493,4.74266 2.68493,8.26618c0,3.52353 -0.89498,6.28127 -2.68493,8.27323c-1.78995,1.98727 -4.21413,2.9809 -7.27255,2.9809c-3.05842,0 -5.48965,-0.99364 -7.2937,-2.9809zM398.73742,243.54265c-1.63022,0 -2.44533,1.3272 -2.44533,3.98158c0,2.65438 0.81511,3.98158 2.44533,3.98158c1.63022,0 2.44532,-1.3272 2.44532,-3.98158c0,-2.65438 -0.8151,-3.98158 -2.44532,-3.98158zM420.80084,258.13003c0,0.20202 -1.04061,0.30302 -3.12184,0.30302c-2.88459,-0.08456 -4.32689,-0.24194 -4.32689,-0.47215v-14.03067h-1.12753c-0.75169,0 -1.24262,-0.63423 -1.47283,-1.9027c-0.05638,-0.37584 -0.08457,-0.75168 -0.08457,-1.12753c0,-0.89732 0.17383,-1.7923 0.52148,-2.68492c0.51679,-1.26847 1.32249,-1.9027 2.41713,-1.9027c1.09934,0 2.08123,0.26075 2.94567,0.78223c0.86914,0.51678 1.44699,1.03356 1.73357,1.55035c1.81814,-1.55505 3.98158,-2.33257 6.49033,-2.33257c2.51344,0 4.33393,0.67887 5.46146,2.0366c1.12752,1.35304 1.69129,3.5752 1.69129,6.66651v12.98771c0,0.34296 -1.23559,0.51443 -3.70675,0.51443c-2.46647,0 -3.6997,-0.17148 -3.6997,-0.51443v-12.51556c0,-1.4423 -0.50504,-2.16344 -1.51511,-2.16344c-0.29128,0 -0.69765,0.12216 -1.21913,0.36645c-0.51679,0.24429 -0.84565,0.42517 -0.98659,0.54262z" fill="none" stroke-opacity="0.5098" stroke="#000000" stroke-width="7.5" stroke-linecap="square"/><path d="M189.93889,258.47533c-2.51345,0 -3.87118,-0.40403 -4.07319,-1.21209l-1.4235,-5.58126h-6.88496l-1.25437,5.36985c-0.17383,0.89263 -1.55975,1.33894 -4.15776,1.33894c-1.38592,0 -2.41244,-0.07987 -3.07956,-0.2396c-0.66242,-0.15973 -0.99363,-0.28188 -0.99363,-0.36645l7.66719,-29.31571c0,-0.2302 1.97552,-0.34531 5.92657,-0.34531c3.95574,0 5.93361,0.1151 5.93361,0.34531l7.49101,29.358c0,0.20201 -0.66477,0.36175 -1.99431,0.4792c-1.32484,0.11275 -2.3772,0.16913 -3.15708,0.16913zM178.63542,246.17824h4.54535l-1.94498,-8.9568h-0.26074zM208.68627,228.34217c0,-0.43222 1.13927,-0.64833 3.41782,-0.64833c0.77987,0 1.68189,0.05168 2.70607,0.15504c1.02417,0.09866 1.53626,0.2349 1.53626,0.40873v22.81834h1.51512c0.7235,0 1.20035,0.64833 1.43055,1.94498c0.05638,0.37584 0.08456,0.88793 0.08456,1.53626c0,0.64833 -0.20201,1.43525 -0.60605,2.36076c-0.57316,1.26847 -1.49632,1.9027 -2.76949,1.9027c-0.9537,0 -1.79935,-0.18557 -2.53694,-0.55672c-0.73289,-0.37584 -1.22854,-0.76578 -1.48693,-1.16981l-0.38759,-0.56376c-1.58794,1.52686 -3.5799,2.29029 -5.9759,2.29029c-2.396,0 -4.44669,-0.99363 -6.15207,-2.9809c-1.70069,-1.99196 -2.55103,-4.77085 -2.55103,-8.33666c0,-3.56581 0.89497,-6.3212 2.68492,-8.26619c1.78995,-1.94968 4.02621,-2.92452 6.70879,-2.92452c0.77987,0 1.57384,0.08456 2.3819,0.25369zM207.25572,243.23962c-1.61612,0 -2.42418,1.45639 -2.42418,4.36917c0,1.47048 0.2302,2.53224 0.69061,3.18527c0.46511,0.64833 0.97719,0.97249 1.53626,0.97249c0.56376,0 1.10639,-0.2443 1.62787,-0.73289v-7.36416c-0.49329,-0.28658 -0.97014,-0.42987 -1.43055,-0.42987zM233.14911,228.34217c0,-0.43222 1.13927,-0.64833 3.41782,-0.64833c0.77987,0 1.68189,0.05168 2.70607,0.15504c1.02417,0.09866 1.53626,0.2349 1.53626,0.40873v22.81834h1.51512c0.7235,0 1.20035,0.64833 1.43055,1.94498c0.05638,0.37584 0.08456,0.88793 0.08456,1.53626c0,0.64833 -0.20201,1.43525 -0.60605,2.36076c-0.57316,1.26847 -1.49632,1.9027 -2.76949,1.9027c-0.9537,0 -1.79935,-0.18557 -2.53694,-0.55672c-0.73289,-0.37584 -1.22854,-0.76578 -1.48693,-1.16981l-0.38759,-0.56376c-1.58794,1.52686 -3.5799,2.29029 -5.9759,2.29029c-2.396,0 -4.44669,-0.99363 -6.15207,-2.9809c-1.70069,-1.99196 -2.55103,-4.77085 -2.55103,-8.33666c0,-3.56581 0.89497,-6.3212 2.68492,-8.26619c1.78995,-1.94968 4.02621,-2.92452 6.70879,-2.92452c0.77987,0 1.57384,0.08456 2.3819,0.25369zM231.71856,243.23962c-1.61612,0 -2.42418,1.45639 -2.42418,4.36917c0,1.47048 0.2302,2.53224 0.69061,3.18527c0.46511,0.64833 0.97719,0.97249 1.53626,0.97249c0.56376,0 1.10639,-0.2443 1.62787,-0.73289v-7.36416c-0.49329,-0.28658 -0.97014,-0.42987 -1.43055,-0.42987zM263.02405,257.22096c-1.81814,1.06645 -4.15776,1.59968 -7.01886,1.59968c-2.8564,0 -5.26649,-0.97249 -7.23027,-2.91748c-1.95908,-1.94968 -2.93862,-4.6487 -2.93862,-8.09706c0,-3.44836 0.9443,-6.22489 2.83291,-8.32961c1.89331,-2.10942 4.28225,-3.16412 7.16685,-3.16412c2.88459,0 5.11381,0.73524 6.68765,2.20573c1.57384,1.47048 2.36076,3.26043 2.36076,5.36985c0,4.67454 -2.68492,7.01181 -8.05477,7.01181h-2.98795c0,0.86444 0.23725,1.46344 0.71175,1.797c0.4792,0.33356 1.18155,0.50034 2.10707,0.50034c2.02015,0 3.9393,-0.46276 5.75744,-1.38827c0.02819,-0.02819 0.15738,0.17383 0.38759,0.60605c0.69531,1.24028 1.04296,2.28794 1.04296,3.14298c0,0.85034 -0.27483,1.40471 -0.8245,1.6631zM257.61192,244.70541c0,-1.21209 -0.59195,-1.81814 -1.77586,-1.81814c-0.54967,0 -1.01947,0.16678 -1.40941,0.50034c-0.38994,0.33356 -0.5849,0.81746 -0.5849,1.45169v1.33894h2.33962c0.9537,0 1.43055,-0.49094 1.43055,-1.47283zM278.65428,228.34217c0,-0.43222 1.13927,-0.64833 3.41782,-0.64833c0.77987,0 1.68189,0.05168 2.70607,0.15504c1.02417,0.09866 1.53626,0.2349 1.53626,0.40873v22.81834h1.51512c0.7235,0 1.20035,0.64833 1.43055,1.94498c0.05638,0.37584 0.08456,0.88793 0.08456,1.53626c0,0.64833 -0.20201,1.43525 -0.60605,2.36076c-0.57316,1.26847 -1.49632,1.9027 -2.76949,1.9027c-0.9537,0 -1.79935,-0.18557 -2.53694,-0.55672c-0.73289,-0.37584 -1.22854,-0.76578 -1.48693,-1.16981l-0.38759,-0.56376c-1.58794,1.52686 -3.5799,2.29029 -5.9759,2.29029c-2.396,0 -4.44669,-0.99363 -6.15207,-2.9809c-1.70069,-1.99196 -2.55103,-4.77085 -2.55103,-8.33666c0,-3.56581 0.89497,-6.3212 2.68492,-8.26619c1.78995,-1.94968 4.02621,-2.92452 6.70879,-2.92452c0.77987,0 1.57384,0.08456 2.3819,0.25369zM277.22373,243.23962c-1.61612,0 -2.42418,1.45639 -2.42418,4.36917c0,1.47048 0.2302,2.53224 0.69061,3.18527c0.46511,0.64833 0.97719,0.97249 1.53626,0.97249c0.56376,0 1.10639,-0.2443 1.62787,-0.73289v-7.36416c-0.49329,-0.28658 -0.97014,-0.42987 -1.43055,-0.42987zM330.82657,258.43306c-2.56982,0 -3.85473,-0.28893 -3.85473,-0.86679l-0.90907,-17.35688l-5.27822,17.57533c-0.11745,0.34766 -1.09934,0.52148 -2.94567,0.52148c-1.84633,0 -2.80003,-0.15973 -2.8611,-0.4792l-5.45441,-17.79379l-0.60605,17.27231c-0.02819,0.43692 -0.57786,0.73524 -1.64901,0.89497c-1.06645,0.15504 -1.95438,0.23255 -2.66378,0.23255c-0.7047,0 -1.38827,-0.04228 -2.05069,-0.12685c-1.38592,-0.20201 -2.06478,-0.56376 -2.0366,-1.08525l1.00068,-28.13886c0,-0.69531 1.75941,-1.04296 5.27824,-1.04296c1.03827,0 2.30673,0.07987 3.80541,0.2396c1.50337,0.15973 2.34197,0.4698 2.5158,0.93021l4.84837,13.63604l4.24231,-13.67832c0.26309,-0.75168 2.25505,-1.12753 5.9759,-1.12753c1.07115,0 2.34902,0.07987 3.83359,0.2396c1.48458,0.15973 2.22687,0.44161 2.22687,0.84565l1.26142,28.3996c0,0.31947 -0.56376,0.55202 -1.69129,0.69766c-1.12753,0.14094 -2.12351,0.21141 -2.98795,0.21141zM341.45781,255.83974c-1.80404,-1.99196 -2.70607,-4.74971 -2.70607,-8.27323c0,-3.52352 0.90202,-6.27892 2.70607,-8.26619c1.80404,-1.99196 4.23528,-2.98795 7.29369,-2.98795c3.05842,0 5.4826,0.99598 7.27255,2.98795c1.78995,1.98727 2.68492,4.74266 2.68492,8.26619c0,3.52352 -0.89497,6.28127 -2.68492,8.27323c-1.78995,1.98727 -4.21413,2.9809 -7.27255,2.9809c-3.05842,0 -5.48965,-0.99363 -7.29369,-2.9809zM348.77265,243.54265c-1.63022,0 -2.44533,1.32719 -2.44533,3.98158c0,2.65439 0.81511,3.98158 2.44533,3.98158c1.63022,0 2.44533,-1.32719 2.44533,-3.98158c0,-2.65439 -0.81511,-3.98158 -2.44533,-3.98158zM371.74508,258.13003c0,0.34766 -1.21209,0.52148 -3.63628,0.52148c-2.88929,-0.11745 -4.33393,-0.30537 -4.33393,-0.56376v-15.32733h-2.20573c-0.57786,0 -0.86679,-0.99598 -0.86679,-2.98795c0,-0.52148 0.04933,-1.15572 0.14799,-1.9027c0.10336,-0.75168 0.31242,-1.12753 0.62719,-1.12753h2.29734v-3.81245c0,-0.57786 1.21914,-0.86679 3.65742,-0.86679c2.43828,0 3.65742,0.23255 3.65742,0.69766v2.76949l0.04933,1.21209h3.67856c0.4886,0 0.73289,1.01008 0.73289,3.03023c0,2.02015 -0.2443,3.03023 -0.73289,3.03023h-3.07251zM385.6418,258.13003c0,0.2302 -1.3225,0.34531 -3.96749,0.34531c-2.64029,0 -3.96044,-0.10101 -3.96044,-0.30302v-21.25389c0,-0.20201 1.32015,-0.30302 3.96044,-0.30302c2.64499,0 3.96749,0.08456 3.96749,0.25369zM385.6418,234.31806c0,0.20201 -1.3225,0.30302 -3.96749,0.30302c-2.64029,0 -3.96044,-0.08691 -3.96044,-0.26074v-6.23664c0,-0.28658 1.32015,-0.42987 3.96044,-0.42987c2.64499,0 3.96749,0.08691 3.96749,0.26074zM391.42259,255.83974c-1.80404,-1.99196 -2.70607,-4.74971 -2.70607,-8.27323c0,-3.52352 0.90202,-6.27892 2.70607,-8.26619c1.80404,-1.99196 4.23528,-2.98795 7.29369,-2.98795c3.05842,0 5.4826,0.99598 7.27255,2.98795c1.78995,1.98727 2.68492,4.74266 2.68492,8.26619c0,3.52352 -0.89497,6.28127 -2.68492,8.27323c-1.78995,1.98727 -4.21413,2.9809 -7.27255,2.9809c-3.05842,0 -5.48965,-0.99363 -7.29369,-2.9809zM398.73742,243.54265c-1.63022,0 -2.44533,1.32719 -2.44533,3.98158c0,2.65439 0.81511,3.98158 2.44533,3.98158c1.63022,0 2.44533,-1.32719 2.44533,-3.98158c0,-2.65439 -0.81511,-3.98158 -2.44533,-3.98158zM420.80084,258.13003c0,0.20201 -1.04061,0.30302 -3.12184,0.30302c-2.88459,-0.08456 -4.32689,-0.24195 -4.32689,-0.47215v-14.03067h-1.12753c-0.75168,0 -1.24263,-0.63423 -1.47283,-1.9027c-0.05638,-0.37584 -0.08456,-0.75168 -0.08456,-1.12753c0,-0.89732 0.17383,-1.7923 0.52148,-2.68492c0.51678,-1.26847 1.3225,-1.9027 2.41714,-1.9027c1.09934,0 2.08123,0.26074 2.94567,0.78222c0.86914,0.51678 1.44699,1.03357 1.73357,1.55035c1.81814,-1.55505 3.98158,-2.33257 6.49033,-2.33257c2.51345,0 4.33393,0.67887 5.46146,2.0366c1.12753,1.35303 1.69129,3.5752 1.69129,6.66651v12.98771c0,0.34296 -1.23558,0.51443 -3.70675,0.51443c-2.46647,0 -3.6997,-0.17148 -3.6997,-0.51443v-12.51556c0,-1.44229 -0.50504,-2.16344 -1.51512,-2.16344c-0.29128,0 -0.69766,0.12215 -1.21914,0.36645c-0.51678,0.2443 -0.84565,0.42517 -0.98659,0.54262z" fill="#ffffff" stroke="none" stroke-width="1" stroke-linecap="square"/><path d="M150.35137,137.67136c0,-6.39897 5.91545,-12.49566 13.1192,-12.49566c28.93252,0 219.72832,0 272.60996,0c8.61359,0 13.56814,4.64378 13.56814,12.24625c0,30.59212 0,109.0924 0,125.70487c0,6.03964 -4.85913,11.69754 -13.31873,11.69754c-52.46667,0 -243.42599,0 -272.60996,0c-7.3279,0 -13.36861,-4.5235 -13.36861,-11.94695c0,-30.16113 0,-108.19342 0,-125.20604z" fill="none" stroke="url(#color-1)" stroke-width="10" stroke-linecap="butt"/><path d="M266.05887,178.46086c0,-18.74516 15.19595,-33.94112 33.94112,-33.94112c18.74516,0 33.94113,15.19595 33.94113,33.94113c0,18.74516 -15.19595,33.94112 -33.94112,33.94112c-18.74516,0 -33.94112,-15.19595 -33.94112,-33.94112z" fill="none" stroke="#ffffff" stroke-width="7.5" stroke-linecap="butt"/><g stroke-linecap="butt"><path d="M266.05887,178.46086c0,-18.74516 15.19595,-33.94112 33.94112,-33.94112c18.74516,0 33.94113,15.19595 33.94113,33.94113c0,18.74516 -15.19595,33.94112 -33.94112,33.94112c-18.74516,0 -33.94112,-15.19595 -33.94112,-33.94112z" fill="#4c97ff" stroke="#000000" stroke-width="0"/><path d="M300,206.42113c-3.53302,0 -6.3971,-12.51825 -6.3971,-27.96028c0,-15.44204 2.86409,-27.96028 6.3971,-27.96028c3.53302,0 6.3971,12.51825 6.3971,27.96028c0,15.44204 -2.86409,27.96028 -6.3971,27.96028z" fill="none" stroke="#ffffff" stroke-width="2.5"/><path d="M329.53136,178.46086c0,3.11367 -13.22164,5.6378 -29.53136,5.6378c-16.30972,0 -29.53136,-2.52413 -29.53136,-5.6378c0,-3.11367 13.22164,-5.6378 29.53136,-5.6378c16.30972,0 29.53136,2.52413 29.53136,5.6378z" fill="none" stroke="#ffffff" stroke-width="2.5"/><path d="M314.73757,194.37934c-0.30206,0 -0.60411,-0.11543 -0.83497,-0.34534l-29.47516,-29.47611c-0.46078,-0.46078 -0.46078,-1.20917 0,-1.66995c0.46078,-0.46078 1.20917,-0.46078 1.66995,0l29.47516,29.47516c0.46078,0.46078 0.46078,1.20917 0,1.66995c-0.23087,0.2299 -0.53293,0.3463 -0.83497,0.3463z" fill="none" stroke="#ffffff" stroke-width="5"/><path d="M296.82506,168.79047c0,3.58712 -2.90797,6.4951 -6.49509,6.4951c-3.58712,0 -6.4951,-2.90798 -6.4951,-6.4951c0,-3.58712 2.90798,-6.49509 6.4951,-6.49509c3.58712,0 6.49509,2.90797 6.49509,6.49509z" fill="none" stroke="#ffffff" stroke-width="5"/><path d="M295.92476,182.19937c-3.49113,-0.82437 -5.65297,-4.32278 -4.8286,-7.8139c0.82437,-3.49113 4.32278,-5.65297 7.8139,-4.8286c3.49113,0.82437 5.65297,4.32278 4.8286,7.8139c-0.82437,3.49113 -4.32278,5.65297 -7.8139,4.8286z" fill="none" stroke="#ffffff" stroke-width="5"/><path d="M310.99751,182.96195c0,3.58712 -2.90894,6.49606 -6.49606,6.49606c-3.58712,0 -6.49509,-2.90894 -6.49509,-6.49606c0,-3.58712 2.90797,-6.4951 6.49509,-6.4951c3.58712,0 6.49606,2.90895 6.49606,6.4951z" fill="none" stroke="#ffffff" stroke-width="5"/><path d="M314.73757,194.37934c-0.30206,0 -0.60411,-0.11543 -0.83497,-0.34534l-7.23387,-7.23387c-0.46174,-0.46078 -0.46174,-1.20917 0,-1.66995c0.46174,-0.46078 1.20821,-0.46078 1.66995,0l7.23387,7.23387c0.46078,0.46078 0.46078,1.20917 0,1.66995c-0.23087,0.22895 -0.53293,0.34534 -0.83497,0.34534z" fill="none" stroke="#ffffff" stroke-width="5"/><path d="M314.73757,194.37934c-0.30206,0 -0.60411,-0.11543 -0.83497,-0.34534l-29.47516,-29.47611c-0.46078,-0.46078 -0.46078,-1.20917 0,-1.66995c0.46078,-0.46078 1.20917,-0.46078 1.66995,0l29.47516,29.47516c0.46078,0.46078 0.46078,1.20917 0,1.66995c-0.23087,0.2299 -0.53293,0.3463 -0.83497,0.3463z" fill="#4c97ff" stroke="none" stroke-width="1"/><path d="M296.82506,168.79047c0,3.58712 -2.90797,6.4951 -6.49509,6.4951c-3.58712,0 -6.4951,-2.90798 -6.4951,-6.4951c0,-3.58712 2.90798,-6.49509 6.4951,-6.49509c3.58712,0 6.49509,2.90797 6.49509,6.49509z" fill="#4c97ff" stroke="none" stroke-width="1"/><path d="M295.92476,182.19937c-3.49113,-0.82437 -5.65297,-4.32278 -4.8286,-7.8139c0.82437,-3.49113 4.32278,-5.65297 7.8139,-4.8286c3.49113,0.82437 5.65297,4.32278 4.8286,7.8139c-0.82437,3.49113 -4.32278,5.65297 -7.8139,4.8286z" fill="#4c97ff" stroke="none" stroke-width="1"/><path d="M310.99751,182.96195c0,3.58712 -2.90894,6.49606 -6.49606,6.49606c-3.58712,0 -6.49509,-2.90894 -6.49509,-6.49606c0,-3.58712 2.90797,-6.4951 6.49509,-6.4951c3.58712,0 6.49606,2.90895 6.49606,6.4951z" fill="#4c97ff" stroke="none" stroke-width="1"/><path d="M313.9026,194.03401l-7.23387,-7.23387c-0.46174,-0.46078 -0.46174,-1.20917 0,-1.66995c0.46174,-0.46078 1.20821,-0.46078 1.66995,0l7.23387,7.23387c0.46078,0.46078 0.46078,1.20917 0,1.66995c-0.23087,0.22895 -0.53293,0.34534 -0.83497,0.34534c0,0 -0.60411,-0.11543 -0.83497,-0.34534z" fill="#4c97ff" stroke="none" stroke-width="1"/><path d="M304.79986,163.68176c0.67465,4.17815 1.07094,9.27634 1.07094,14.77909c0,4.7586 -0.29636,9.21467 -0.81281,13.03483" fill="none" stroke="#ffffff" stroke-width="2.5"/><path d="M319.25867,182.73498c-5.17059,0.8499 -11.90035,1.36367 -19.25868,1.36367c-5.76317,0 -11.14075,-0.31516 -15.68564,-0.86014" fill="none" stroke="#ffffff" stroke-width="2.5"/><path d="M276.52682,182.29209c0,-2.55569 2.07179,-4.62748 4.62748,-4.62748c2.55569,0 4.62748,2.07179 4.62748,4.62748c0,2.55569 -2.0718,4.62748 -4.62748,4.62748c-2.55569,0 -4.62748,-2.0718 -4.62748,-4.62748z" fill="#4c97ff" stroke="#ffffff" stroke-width="2.5"/><path d="M300.33089,160.93638c0,-2.55569 2.07179,-4.62748 4.62748,-4.62748c2.55569,0 4.62748,2.07179 4.62748,4.62748c0,2.55569 -2.07179,4.62748 -4.62748,4.62748c-2.55569,0 -4.62748,-2.07179 -4.62748,-4.62748z" fill="#4c97ff" stroke="#ffffff" stroke-width="2.5"/><path d="" fill="#3373cc" stroke="none" stroke-width="0"/></g></g></g></svg>
