<svg xmlns="http://www.w3.org/2000/svg" width="309.297" height="159.649" viewBox="0 0 309.297 159.649"><defs><linearGradient x1="240" y1="105.176" x2="240" y2="254.824" gradientUnits="userSpaceOnUse" id="a"><stop offset="0" stop-color="#430"/><stop offset="1" stop-color="#816100"/></linearGradient></defs><g stroke-linejoin="round" stroke-miterlimit="10" style="mix-blend-mode:normal"><path d="M4.899 154.574V14.524c0-5 4.645-9.45 10.55-9.45h288.95v149.5z" fill="#c90"/><path d="M16.002 19.569c3.214 0 5.358 3.072 5.358 5.435v13.624c0 3.102-3.684 5.492-6.184 5.493H8.247V19.569zM31.69 50.095c2.217 0 4.56 2.711 4.56 4.885l.001 14.449c0 2.993-3.458 5.217-5.111 5.217l-2.057.001-.001 5.75s-2.603-.782-4.066-1.97c-1.463-1.189-3.01-3.778-3.01-3.778l-13.759-.001V50.094zm1.402-30.526h35.14c3.214 0 5.358 3.072 5.358 5.435v13.624c0 3.102-3.684 5.492-6.184 5.493l-24.63.002s-1.547 2.59-3.01 3.778-4.066 1.97-4.066 1.97v-5.75h-2.058c-1.653 0-5.111-2.225-5.111-5.218v-14.45c0-2.172 2.344-4.884 4.56-4.884M83.92 50.095c2.217 0 4.56 2.711 4.56 4.885l.001 14.449c0 2.993-3.458 5.217-5.111 5.217l-2.057.001-.001 5.75s-2.603-.782-4.066-1.97c-1.463-1.189-3.01-3.778-3.01-3.778l-24.63-.003c-2.5 0-6.185-2.39-6.185-5.492V55.53c0-2.363 2.145-5.435 5.36-5.435zm.357-30.526h35.14c3.214 0 5.359 3.072 5.359 5.435v13.624c0 3.102-3.685 5.492-6.185 5.493l-24.63.002s-1.546 2.59-3.01 3.778-4.065 1.97-4.065 1.97l-.001-5.75h-2.058c-1.652 0-5.111-2.225-5.111-5.218v-14.45c0-2.172 2.345-4.884 4.561-4.884m50.829 30.526c2.216 0 4.56 2.711 4.56 4.885v14.449c0 2.993-3.458 5.217-5.11 5.217l-2.058.001-.001 5.75s-2.602-.782-4.066-1.97c-1.463-1.189-3.01-3.778-3.01-3.778l-24.63-.003c-2.5 0-6.184-2.39-6.184-5.492V55.53c0-2.363 2.145-5.435 5.359-5.435zm1.401-30.526h35.14c3.214 0 5.359 3.072 5.359 5.435v13.624c0 3.102-3.685 5.492-6.185 5.493l-24.63.002s-1.546 2.59-3.01 3.778-4.065 1.97-4.065 1.97l-.001-5.75h-2.058c-1.652 0-5.111-2.225-5.11-5.218v-14.45c0-2.172 2.344-4.884 4.56-4.884m50.829 30.526c2.216 0 4.56 2.711 4.56 4.885v14.449c0 2.993-3.458 5.217-5.11 5.217l-2.058.001-.001 5.75s-2.602-.782-4.066-1.97c-1.463-1.189-3.01-3.778-3.01-3.778l-24.63-.003c-2.5 0-6.184-2.39-6.184-5.492V55.53c0-2.363 2.145-5.435 5.359-5.435zm1.401-30.526h35.14c3.214 0 5.359 3.072 5.359 5.435v13.624c0 3.102-3.685 5.492-6.185 5.493l-24.63.002s-1.546 2.59-3.01 3.778-4.065 1.97-4.065 1.97l-.001-5.75h-2.057c-1.653 0-5.112-2.225-5.112-5.218v-14.45c0-2.172 2.345-4.884 4.561-4.884m50.829 30.526c2.216 0 4.56 2.711 4.56 4.885v14.449c0 2.993-3.458 5.217-5.11 5.217l-2.058.001-.001 5.75s-2.602-.782-4.066-1.97c-1.463-1.189-3.01-3.778-3.01-3.778l-24.63-.003c-2.5 0-6.184-2.39-6.184-5.492V55.53c0-2.363 2.145-5.435 5.359-5.435zm1.401-30.526h35.14c3.214 0 5.359 3.072 5.359 5.435v13.624c0 3.102-3.684 5.492-6.185 5.493l-24.63.002s-1.546 2.59-3.01 3.778-4.065 1.97-4.065 1.97l-.001-5.75h-2.057c-1.653 0-5.112-2.225-5.112-5.218v-14.45c0-2.172 2.345-4.884 4.561-4.884m50.829 30.526c2.216 0 4.56 2.711 4.56 4.885v14.449c0 2.993-3.458 5.217-5.11 5.217l-2.058.001v5.75s-2.603-.782-4.066-1.97c-1.464-1.189-3.01-3.778-3.01-3.778l-24.63-.003c-2.5 0-6.185-2.39-6.185-5.492V55.53c0-2.363 2.145-5.435 5.359-5.435zM16.002 83.29c3.214 0 5.358 3.072 5.358 5.435v13.624c0 3.102-3.684 5.492-6.184 5.492l-6.929.001V83.29zm15.688 30.526c2.217 0 4.56 2.71 4.56 4.884l.001 14.45c0 2.993-3.458 5.217-5.111 5.217h-2.057l-.001 5.75s-2.603-.781-4.066-1.97c-1.463-1.188-3.01-3.777-3.01-3.777l-13.759-.002v-24.552zm1.402-30.526h35.14c3.214 0 5.358 3.072 5.358 5.435v13.624c0 3.102-3.684 5.492-6.184 5.492l-24.63.003s-1.547 2.59-3.01 3.778-4.066 1.969-4.066 1.969v-5.749h-2.058c-1.653-.001-5.111-2.225-5.111-5.218v-14.45c0-2.173 2.344-4.884 4.56-4.884m50.829 30.526c2.217 0 4.56 2.71 4.56 4.884l.001 14.45c0 2.993-3.458 5.217-5.111 5.217h-2.057l-.001 5.75s-2.603-.781-4.066-1.97c-1.463-1.188-3.01-3.777-3.01-3.777l-24.63-.003c-2.5 0-6.185-2.39-6.185-5.493v-13.623c0-2.364 2.145-5.435 5.36-5.435zm.357-30.526h35.14c3.214 0 5.359 3.072 5.359 5.435v13.624c0 3.102-3.685 5.492-6.185 5.492l-24.63.003s-1.546 2.59-3.01 3.778-4.065 1.969-4.065 1.969l-.001-5.749h-2.058c-1.652-.001-5.111-2.225-5.111-5.218v-14.45c0-2.173 2.345-4.884 4.561-4.884m50.829 30.526c2.216 0 4.56 2.71 4.56 4.884v14.45c0 2.993-3.458 5.217-5.11 5.217h-2.058l-.001 5.75s-2.602-.781-4.066-1.97c-1.463-1.188-3.01-3.777-3.01-3.777l-24.63-.003c-2.5 0-6.184-2.39-6.184-5.493v-13.623c0-2.364 2.145-5.435 5.359-5.435zm1.401-30.526h35.14c3.214 0 5.359 3.072 5.359 5.435v13.624c0 3.102-3.685 5.492-6.185 5.492l-24.63.003s-1.546 2.59-3.01 3.778-4.065 1.969-4.065 1.969l-.001-5.749h-2.058c-1.652-.001-5.111-2.225-5.11-5.218v-14.45c0-2.173 2.344-4.884 4.56-4.884m50.829 30.526c2.216 0 4.56 2.71 4.56 4.884v14.45c0 2.993-3.458 5.217-5.11 5.217h-2.058l-.001 5.75s-2.602-.781-4.066-1.97c-1.463-1.188-3.01-3.777-3.01-3.777l-24.63-.003c-2.5 0-6.184-2.39-6.184-5.493v-13.623c0-2.364 2.145-5.435 5.359-5.435zm1.401-30.526h35.14c3.214 0 5.359 3.072 5.359 5.435v13.624c0 3.102-3.685 5.492-6.185 5.492l-24.63.003s-1.546 2.59-3.01 3.778-4.065 1.969-4.065 1.969l-.001-5.749h-2.057c-1.653-.001-5.112-2.225-5.112-5.218v-14.45c0-2.173 2.345-4.884 4.561-4.884m50.829 30.526c2.216 0 4.56 2.71 4.56 4.884v14.45c0 2.993-3.458 5.217-5.11 5.217h-2.058l-.001 5.75s-2.602-.781-4.066-1.97c-1.463-1.188-3.01-3.777-3.01-3.777l-24.63-.003c-2.5 0-6.184-2.39-6.184-5.493v-13.623c0-2.364 2.145-5.435 5.359-5.435zm1.401-30.526h35.14c3.214 0 5.359 3.072 5.359 5.435v13.624c0 3.102-3.684 5.492-6.185 5.492l-24.63.003s-1.546 2.59-3.01 3.778-4.065 1.969-4.065 1.969l-.001-5.749h-2.057c-1.653-.001-5.112-2.225-5.112-5.218v-14.45c0-2.173 2.345-4.884 4.561-4.884m50.829 30.526c2.216 0 4.56 2.71 4.56 4.884v14.45c0 2.993-3.458 5.217-5.11 5.217h-2.058v5.75s-2.603-.781-4.066-1.97c-1.464-1.188-3.01-3.777-3.01-3.777l-24.63-.003c-2.5 0-6.185-2.39-6.185-5.493v-13.623c0-2.364 2.145-5.435 5.359-5.435zm1.371-94.285h15.884v24.554h-6.2s-1.546 2.59-3.01 3.778-4.065 1.97-4.065 1.97l-.001-5.75h-2.057c-1.653 0-5.112-2.225-5.112-5.218v-14.45c0-2.172 2.345-4.884 4.561-4.884m0 64.721h15.884v24.553h-6.2s-1.546 2.59-3.01 3.779c-1.463 1.188-4.065 1.969-4.065 1.969l-.001-5.749h-2.057c-1.653-.001-5.112-2.225-5.112-5.218v-14.45c0-2.173 2.345-4.884 4.561-4.884" fill="#ffcb31"/><path d="M12.002 17.569c3.214 0 5.358 3.072 5.358 5.435v13.624c0 3.102-3.684 5.492-6.184 5.493H4.247V17.569zM27.69 48.095c2.217 0 4.56 2.711 4.56 4.885l.001 14.449c0 2.993-3.458 5.217-5.111 5.217l-2.057.001-.001 5.75s-2.603-.782-4.066-1.97c-1.463-1.189-3.01-3.778-3.01-3.778l-13.759-.001V48.094zm1.402-30.526h35.14c3.214 0 5.358 3.072 5.358 5.435v13.624c0 3.102-3.684 5.492-6.184 5.493l-24.63.002s-1.547 2.59-3.01 3.778-4.066 1.97-4.066 1.97v-5.75h-2.058c-1.653 0-5.111-2.225-5.111-5.218v-14.45c0-2.172 2.344-4.884 4.56-4.884M79.92 48.095c2.217 0 4.56 2.711 4.56 4.885l.001 14.449c0 2.993-3.458 5.217-5.111 5.217l-2.057.001-.001 5.75s-2.603-.782-4.066-1.97c-1.463-1.189-3.01-3.778-3.01-3.778l-24.63-.003c-2.5 0-6.185-2.39-6.185-5.492V53.53c0-2.363 2.145-5.435 5.36-5.435zm.357-30.526h35.14c3.214 0 5.359 3.072 5.359 5.435v13.624c0 3.102-3.685 5.492-6.185 5.493l-24.63.002s-1.546 2.59-3.01 3.778-4.065 1.97-4.065 1.97l-.001-5.75h-2.058c-1.652 0-5.111-2.225-5.111-5.218v-14.45c0-2.172 2.345-4.884 4.561-4.884m50.829 30.526c2.216 0 4.56 2.711 4.56 4.885v14.449c0 2.993-3.458 5.217-5.11 5.217l-2.058.001-.001 5.75s-2.602-.782-4.066-1.97c-1.463-1.189-3.01-3.778-3.01-3.778l-24.63-.003c-2.5 0-6.184-2.39-6.184-5.492V53.53c0-2.363 2.145-5.435 5.359-5.435zm1.401-30.526h35.14c3.214 0 5.359 3.072 5.359 5.435v13.624c0 3.102-3.685 5.492-6.185 5.493l-24.63.002s-1.546 2.59-3.01 3.778-4.065 1.97-4.065 1.97l-.001-5.75h-2.058c-1.652 0-5.111-2.225-5.11-5.218v-14.45c0-2.172 2.344-4.884 4.56-4.884m50.829 30.526c2.216 0 4.56 2.711 4.56 4.885v14.449c0 2.993-3.458 5.217-5.11 5.217l-2.058.001-.001 5.75s-2.602-.782-4.066-1.97c-1.463-1.189-3.01-3.778-3.01-3.778l-24.63-.003c-2.5 0-6.184-2.39-6.184-5.492V53.53c0-2.363 2.145-5.435 5.359-5.435zm1.401-30.526h35.14c3.214 0 5.359 3.072 5.359 5.435v13.624c0 3.102-3.685 5.492-6.185 5.493l-24.63.002s-1.546 2.59-3.01 3.778-4.065 1.97-4.065 1.97l-.001-5.75h-2.057c-1.653 0-5.112-2.225-5.112-5.218v-14.45c0-2.172 2.345-4.884 4.561-4.884m50.829 30.526c2.216 0 4.56 2.711 4.56 4.885v14.449c0 2.993-3.458 5.217-5.11 5.217l-2.058.001-.001 5.75s-2.602-.782-4.066-1.97c-1.463-1.189-3.01-3.778-3.01-3.778l-24.63-.003c-2.5 0-6.184-2.39-6.184-5.492V53.53c0-2.363 2.145-5.435 5.359-5.435zm1.401-30.526h35.14c3.214 0 5.359 3.072 5.359 5.435v13.624c0 3.102-3.684 5.492-6.185 5.493l-24.63.002s-1.546 2.59-3.01 3.778-4.065 1.97-4.065 1.97l-.001-5.75h-2.057c-1.653 0-5.112-2.225-5.112-5.218v-14.45c0-2.172 2.345-4.884 4.561-4.884m50.829 30.526c2.216 0 4.56 2.711 4.56 4.885v14.449c0 2.993-3.458 5.217-5.11 5.217l-2.058.001v5.75s-2.603-.782-4.066-1.97c-1.464-1.189-3.01-3.778-3.01-3.778l-24.63-.003c-2.5 0-6.185-2.39-6.185-5.492V53.53c0-2.363 2.145-5.435 5.359-5.435zM12.002 81.29c3.214 0 5.358 3.072 5.358 5.435v13.624c0 3.102-3.684 5.492-6.184 5.492l-6.929.001V81.29zm15.688 30.526c2.217 0 4.56 2.71 4.56 4.884l.001 14.45c0 2.993-3.458 5.217-5.111 5.217h-2.057l-.001 5.75s-2.603-.781-4.066-1.97c-1.463-1.188-3.01-3.777-3.01-3.777l-13.759-.002v-24.552zm1.402-30.526h35.14c3.214 0 5.358 3.072 5.358 5.435v13.624c0 3.102-3.684 5.492-6.184 5.492l-24.63.003s-1.547 2.59-3.01 3.778-4.066 1.969-4.066 1.969v-5.749h-2.058c-1.653-.001-5.111-2.225-5.111-5.218v-14.45c0-2.173 2.344-4.884 4.56-4.884m50.829 30.526c2.217 0 4.56 2.71 4.56 4.884l.001 14.45c0 2.993-3.458 5.217-5.111 5.217h-2.057l-.001 5.75s-2.603-.781-4.066-1.97c-1.463-1.188-3.01-3.777-3.01-3.777l-24.63-.003c-2.5 0-6.185-2.39-6.185-5.493v-13.623c0-2.364 2.145-5.435 5.36-5.435zm.357-30.526h35.14c3.214 0 5.359 3.072 5.359 5.435v13.624c0 3.102-3.685 5.492-6.185 5.492l-24.63.003s-1.546 2.59-3.01 3.778-4.065 1.969-4.065 1.969l-.001-5.749h-2.058c-1.652-.001-5.111-2.225-5.111-5.218v-14.45c0-2.173 2.345-4.884 4.561-4.884m50.829 30.526c2.216 0 4.56 2.71 4.56 4.884v14.45c0 2.993-3.458 5.217-5.11 5.217h-2.058l-.001 5.75s-2.602-.781-4.066-1.97c-1.463-1.188-3.01-3.777-3.01-3.777l-24.63-.003c-2.5 0-6.184-2.39-6.184-5.493v-13.623c0-2.364 2.145-5.435 5.359-5.435zm1.401-30.526h35.14c3.214 0 5.359 3.072 5.359 5.435v13.624c0 3.102-3.685 5.492-6.185 5.492l-24.63.003s-1.546 2.59-3.01 3.778-4.065 1.969-4.065 1.969l-.001-5.749h-2.058c-1.652-.001-5.111-2.225-5.11-5.218v-14.45c0-2.173 2.344-4.884 4.56-4.884m50.829 30.526c2.216 0 4.56 2.71 4.56 4.884v14.45c0 2.993-3.458 5.217-5.11 5.217h-2.058l-.001 5.75s-2.602-.781-4.066-1.97c-1.463-1.188-3.01-3.777-3.01-3.777l-24.63-.003c-2.5 0-6.184-2.39-6.184-5.493v-13.623c0-2.364 2.145-5.435 5.359-5.435zm1.401-30.526h35.14c3.214 0 5.359 3.072 5.359 5.435v13.624c0 3.102-3.685 5.492-6.185 5.492l-24.63.003s-1.546 2.59-3.01 3.778-4.065 1.969-4.065 1.969l-.001-5.749h-2.057c-1.653-.001-5.112-2.225-5.112-5.218v-14.45c0-2.173 2.345-4.884 4.561-4.884m50.829 30.526c2.216 0 4.56 2.71 4.56 4.884v14.45c0 2.993-3.458 5.217-5.11 5.217h-2.058l-.001 5.75s-2.602-.781-4.066-1.97c-1.463-1.188-3.01-3.777-3.01-3.777l-24.63-.003c-2.5 0-6.184-2.39-6.184-5.493v-13.623c0-2.364 2.145-5.435 5.359-5.435zm1.401-30.526h35.14c3.214 0 5.359 3.072 5.359 5.435v13.624c0 3.102-3.684 5.492-6.185 5.492l-24.63.003s-1.546 2.59-3.01 3.778-4.065 1.969-4.065 1.969l-.001-5.749h-2.057c-1.653-.001-5.112-2.225-5.112-5.218v-14.45c0-2.173 2.345-4.884 4.561-4.884m50.829 30.526c2.216 0 4.56 2.71 4.56 4.884v14.45c0 2.993-3.458 5.217-5.11 5.217h-2.058v5.75s-2.603-.781-4.066-1.97c-1.464-1.188-3.01-3.777-3.01-3.777l-24.63-.003c-2.5 0-6.185-2.39-6.185-5.493v-13.623c0-2.364 2.145-5.435 5.359-5.435zm1.371-94.285h15.884v24.554h-6.2s-1.546 2.59-3.01 3.778-4.065 1.97-4.065 1.97l-.001-5.75h-2.057c-1.653 0-5.112-2.225-5.112-5.218v-14.45c0-2.172 2.345-4.884 4.561-4.884m0 64.721h15.884v24.553h-6.2s-1.546 2.59-3.01 3.779c-1.463 1.188-4.065 1.969-4.065 1.969l-.001-5.749h-2.057c-1.653-.001-5.112-2.225-5.112-5.218v-14.45c0-2.173 2.345-4.884 4.561-4.884" fill="#e6ac00"/><path d="M90.351 117.671c0-6.399 5.916-12.495 13.12-12.495h272.61c8.613 0 13.568 4.643 13.568 12.246v125.705c0 6.04-4.86 11.697-13.32 11.697H103.72c-7.328 0-13.369-4.523-13.369-11.947z" fill="none" stroke="url(#a)" stroke-width="10" transform="translate(-85.351 -100.176)"/><path d="m30.209 31.523 122.139-7.312c5.699-.341 9.826 4.877 10.077 9.067l1.447 24.154c.33 5.5-5.95 10.128-10.382 10.394L49.985 74.027s-2.468 4.755-4.936 7.017-6.999 3.923-6.999 3.923l-.612-10.192-3.648.217c-2.93.175-9.298-3.401-9.615-8.708l-1.533-25.617c-.23-3.853 3.637-8.909 7.567-9.144z" fill="none" stroke-opacity=".506" stroke="#000" stroke-width="15"/><path d="m30.209 31.523 122.139-7.312c5.699-.341 9.826 4.877 10.077 9.067l1.447 24.154c.33 5.5-5.95 10.128-10.382 10.394L49.985 74.027s-2.468 4.755-4.936 7.017-6.999 3.923-6.999 3.923l-.612-10.192-3.648.217c-2.93.175-9.298-3.401-9.615-8.708l-1.533-25.617c-.23-3.853 3.637-8.909 7.567-9.144z" fill="none" stroke="#fff" stroke-width="7.5"/><path d="m30.209 31.523 122.139-7.312c5.699-.341 9.826 4.877 10.077 9.067l1.447 24.154c.33 5.5-5.95 10.128-10.382 10.394L49.985 74.027s-2.468 4.755-4.936 7.017-6.999 3.923-6.999 3.923l-.612-10.192-3.648.217c-2.93.175-9.298-3.401-9.615-8.708l-1.533-25.617c-.23-3.853 3.637-8.909 7.567-9.144" fill="#ffbf00"/><path d="M49.027 61.626q-2.363.141-2.594-.606l-1.109-3.449-4.31.258-.59 3.414q-.108.849-2.552.996-1.305.078-1.935-.035t-.637-.194l3.702-18.653q-.012-.22 3.703-.44 3.715-.224 3.73-.005l5.797 18.111q.012.191-1.231.375-1.242.184-1.974.228zm-7.543-7.28 2.848-.171-1.558-5.546-.16.01zM61.77 41.59a18 18 0 0 1 1.7-.006q.969.038.979.2l.856 14.3.95-.056q.68-.041.967 1.164.076.35.112.964.037.609-.288 1.5-.474 1.226-1.669 1.298-.895.054-1.606-.26-.712-.312-.98-.675l-.266-.34q-1.404 1.53-3.657 1.665t-3.969-1.641q-1.71-1.78-1.912-5.128-.2-3.352 1.37-5.284 1.576-1.932 4.098-2.082.735-.045 1.504.074l-.32-5.332s.702-.276 2.131-.361zm-2.461 9.833c-1.015.06-4.376 1.091-4.267 2.92.055.921 3.148 1.491 3.46 1.883q.472.582 1 .551.531-.032.994-.52l-.276-4.615q-.48-.244-.911-.22zm8.064-4.486q-.095-.208 2.522-.365 2.62-.157 2.629-.025l1.735 6.308c.308 1.12.937 1.138 1.049.021l.64-6.397q.067-.246 2.675-.402 2.63-.157 2.56.06l-3.03 13.499q-.174.284-3.213.466t-3.282-.214zm17.12 2.627q-.84-1.312-.89-2.167-.052-.854.392-1.127 1.509-.77 4.207-.93 2.698-.162 3.887 1.034 1.188 1.191 1.336 3.663l.257 4.288.922-.055q.463-.028.75.497.291.525.348 1.48a4.04 4.04 0 0 1-.365 1.9q-.417.95-1.23.999-1.462.087-2.41-.645a2.2 2.2 0 0 1-.669-.753q-1.155 1.65-3.785 1.809-1.98.118-3.423-1.209-1.439-1.332-1.554-3.262-.264-4.42 5.023-4.737l1.495-.089-.017-.273q-.042-.703-.286-.894-.243-.19-1.084-.14-1.03.061-2.904.611zm2.47 4.862q.036.596.377.89.346.293.846.264.504-.03.888-.464l-.125-2.09-.758.046q-1.304.078-1.228 1.354zm16.099 3.746q.01.19-1.942.308-2.716.08-2.73-.138l-.526-8.79-.709.043q-.704.042-.993-1.14a4.6 4.6 0 0 1-.097-.7 4.6 4.6 0 0 1 .226-1.701q.42-1.224 1.45-1.286 1.032-.06 1.874.38.843.438 1.144.908 1.62-1.565 3.978-1.707 2.362-.141 3.497 1.072 1.135 1.209 1.309 4.111l.487 8.14q.02.328-2.302.467-2.316.139-2.336-.189l-.47-7.84q-.08-1.359-1.03-1.302-.273.017-.75.278-.471.261-.601.378zm15.502-4.849q1.305-.078 2.14-.643.41-.024.748 1.36.342 1.379.372 1.883.03.5-.096.671-1.382.98-3.88 1.13-2.494.15-4.36-1.603-1.86-1.757-2.052-4.97-.192-3.216 1.41-5.3 1.609-2.083 4.47-2.255 2.862-.171 4.058 1.143.263.284.298.872.035.58-.133 1.434c-.255 1.177-1.774 2.04-1.987 1.834q-1.122-.996-1.763-.957-.636.037-1.06.72-.42.677-.332 2.144s.829 2.617 2.167 2.537zm15.507 2.423q-1.653 1.106-4.338 1.267t-4.643-1.56q-1.954-1.725-2.148-4.963-.194-3.243 1.464-5.33 1.662-2.088 4.374-2.25t4.27 1.135q1.565 1.291 1.683 3.273.264 4.397-4.784 4.7l-1.871.111q.048.813.513 1.1.468.282 1.34.23c1.266-.076 3.661-.98 3.823-.717q.72 1.129.767 1.928.048.8-.45 1.076zm-3.863-7.638q-.07-1.14-1.181-1.073-.514.03-.863.366-.349.331-.314.926l.05.845 1.468-.088q.896-.053.84-.976zm12.572-11.046q-.024-.41 2.12-.537a18 18 0 0 1 1.7-.006q.969.038.979.2l.856 14.3.95-.056q.68-.041.967 1.164.076.35.112.964.037.609-.288 1.5-.474 1.226-1.669 1.298-.894.054-1.606-.26-.712-.312-.98-.675l-.266-.34q-1.404 1.53-3.657 1.665t-3.969-1.641q-1.71-1.78-1.912-5.128-.2-3.352 1.37-5.284 1.577-1.932 4.098-2.082.736-.045 1.504.074zm-.336 9.384c-1.014.06-4.288 1.086-4.179 2.915.055.92 3.06 1.496 3.372 1.888q.473.582 1 .551.531-.031.995-.52l-.277-4.615q-.48-.244-.91-.22z" fill="none" stroke-opacity=".506" stroke="#000" stroke-width="6" stroke-linecap="square"/><path d="M49.027 61.626q-2.363.141-2.594-.606l-1.109-3.449-4.31.258-.59 3.414q-.108.849-2.552.996-1.305.078-1.935-.035t-.637-.194l3.702-18.653q-.012-.22 3.703-.44 3.715-.224 3.73-.005l5.797 18.111q.012.191-1.231.375-1.242.184-1.974.228m-7.543-7.28 2.848-.171-1.558-5.546-.16.01zm18.161-12.307q-.024-.41 2.12-.537a18 18 0 0 1 1.7-.006q.969.038.978.2l.856 14.3.95-.056q.681-.041.968 1.164.075.35.112.964.036.609-.289 1.5-.473 1.226-1.668 1.298-.894.054-1.606-.26-.712-.312-.98-.675l-.267-.34q-1.403 1.53-3.656 1.665t-3.97-1.641q-1.71-1.78-1.91-5.128-.202-3.352 1.37-5.284 1.576-1.932 4.096-2.083.737-.043 1.505.075zm-.336 9.384q-1.522.09-1.358 2.835.083 1.38.551 1.968.472.582 1 .551.532-.032.994-.52l-.276-4.615q-.48-.244-.911-.22m8.064-4.486q-.095-.208 2.522-.365 2.62-.157 2.629-.025l2.505 9.109.919-9.177q.067-.246 2.675-.402 2.63-.157 2.56.06l-3.03 13.499q-.174.284-3.213.466t-3.282-.214zm17.12 2.627q-.84-1.312-.89-2.167-.052-.854.392-1.127 1.509-.77 4.207-.93 2.698-.162 3.887 1.034 1.188 1.191 1.336 3.663l.257 4.288.922-.055q.463-.028.75.497.291.525.348 1.48a4.04 4.04 0 0 1-.365 1.9q-.417.95-1.23.999-1.462.087-2.41-.645a2.2 2.2 0 0 1-.669-.753q-1.155 1.65-3.785 1.809-1.98.118-3.423-1.209-1.439-1.332-1.554-3.262-.264-4.42 5.023-4.737l1.495-.089-.017-.273q-.042-.703-.286-.894-.243-.19-1.084-.14-1.03.061-2.904.611m2.47 4.862q.036.596.377.89.346.293.846.264.504-.03.888-.464l-.125-2.09-.758.046q-1.304.078-1.228 1.354m16.099 3.746q.01.19-1.942.308-2.716.08-2.73-.138l-.526-8.79-.709.043q-.704.042-.993-1.14a4.6 4.6 0 0 1-.097-.7 4.6 4.6 0 0 1 .226-1.701q.42-1.224 1.45-1.286 1.032-.06 1.874.38.843.438 1.144.908 1.62-1.565 3.978-1.707 2.362-.141 3.497 1.072 1.135 1.209 1.309 4.111l.487 8.14q.02.328-2.302.467-2.316.139-2.336-.189l-.47-7.84q-.08-1.359-1.03-1.302-.273.017-.75.278-.471.261-.601.378zm13.335-7.386q.16 2.657 2.167 2.537 1.305-.078 2.14-.643.41-.024.748 1.36.342 1.379.372 1.883.03.5-.096.671-1.382.98-3.88 1.13-2.494.15-4.36-1.603-1.86-1.758-2.052-4.97-.192-3.216 1.41-5.3 1.609-2.083 4.47-2.255 2.862-.171 4.058 1.143.263.284.298.872.035.58-.133 1.434-.382 1.765-1.156 2.085a1.4 1.4 0 0 1-.312.046q-.2.012-.52-.297-1.121-.996-1.762-.957-.636.037-1.06.72-.42.677-.332 2.144m17.674 4.96q-1.653 1.106-4.338 1.267t-4.643-1.56q-1.954-1.725-2.148-4.963-.194-3.243 1.464-5.33 1.662-2.088 4.374-2.25t4.27 1.135q1.565 1.291 1.683 3.273.264 4.397-4.784 4.7l-1.871.111q.048.813.513 1.1.468.282 1.34.23a7.9 7.9 0 0 0 3.555-1.084q.025-.029.268.367.72 1.129.767 1.928.048.8-.45 1.076m-3.863-7.638q-.07-1.14-1.181-1.073-.514.03-.863.366-.349.331-.314.926l.05.845 1.468-.088q.896-.053.84-.976m12.572-11.046q-.024-.41 2.12-.537a18 18 0 0 1 1.7-.006q.969.038.979.2l.856 14.3.95-.056q.68-.041.967 1.164.076.35.112.964.037.609-.288 1.5-.474 1.226-1.669 1.298-.894.054-1.606-.26-.712-.312-.98-.675l-.266-.34q-1.404 1.53-3.657 1.665t-3.969-1.641q-1.71-1.78-1.912-5.128-.2-3.352 1.37-5.284 1.577-1.932 4.098-2.082.736-.045 1.504.074zm-.336 9.384q-1.522.09-1.357 2.835.082 1.38.55 1.968.473.582 1 .551.531-.031.995-.52l-.277-4.615q-.48-.244-.91-.22" fill="#fff"/><path d="m283.624 95.763-1.3 22.078c-.268 4.574-5.753 7.66-8.279 7.512l-3.143-.184-.52 8.784s-3.905-1.427-6.034-3.374-4.26-6.044-4.26-6.044-85.23-5.022-91.114-5.37c-3.82-.225-9.235-4.208-8.956-8.948l1.227-20.817c.212-3.611 3.765-8.112 8.677-7.823l107.173 6.312c3.387.2 6.725 4.553 6.53 7.874z" fill="none" stroke-opacity=".506" stroke="#000" stroke-width="15"/><path d="m283.624 95.763-1.3 22.078c-.268 4.574-5.753 7.66-8.279 7.512l-3.143-.184-.52 8.784s-3.905-1.427-6.034-3.374-4.26-6.044-4.26-6.044-85.23-5.022-91.114-5.37c-3.82-.225-9.235-4.208-8.956-8.948l1.227-20.817c.212-3.611 3.765-8.112 8.677-7.823l107.173 6.312c3.387.2 6.725 4.553 6.53 7.874z" fill="none" stroke="#fff" stroke-width="7.5"/><path d="m283.624 95.763-1.3 22.078c-.268 4.574-5.753 7.66-8.279 7.512l-3.143-.184-.52 8.784s-3.905-1.427-6.034-3.374-4.26-6.044-4.26-6.044-85.23-5.022-91.114-5.37c-3.82-.225-9.235-4.208-8.956-8.948l1.227-20.817c.212-3.611 3.765-8.112 8.677-7.823l107.173 6.312c3.387.2 6.725 4.553 6.53 7.874" fill="#ffbf00"/><path d="m186.643 109.03.048-7.184c.006-.956-.471-.907-.829.07l-2.573 7.03q-.11.277-1.607.189t-1.53-.35l-1.845-7.583c-.233-.957-.633-1.203-.71-.39l-.708 7.502q-.044.348-.917.426-.875.078-1.446.044a9 9 0 0 1-1.109-.136q-1.11-.23-1.063-.648l1.433-15.185q.033-.561 2.89-.392.843.05 2.05.25 1.21.201 1.33.582l1.39 4.784c.302 1.042 1.397 1.148 1.769.16l1.756-4.678q.248-.595 3.265-.418.866.051 2.066.252 1.2.2 1.18.525l-.227 15.398c-.01.17-2.088.369-2.556.341 0 0-2.076-.278-2.057-.589zm8.01-.433q-1.498-1.677-1.333-4.47.165-2.799 1.797-4.417 1.637-1.618 3.977-1.48 2.34.136 3.542 1.408 1.207 1.266 1.107 2.975-.224 3.793-4.577 3.537l-1.615-.095q-.04.701.327.994.372.29 1.125.334a6.8 6.8 0 0 0 3.155-.565q.025-.022.193.341.5 1.04.46 1.73t-.496.875s-2.34.872-3.844.643c-1.504-.23-2.817-.694-3.818-1.81zm5.133-5.769q.058-.984-.902-1.04a1.14 1.14 0 0 0-.776.225q-.333.249-.363.762l-.043.728 1.265.075q.772.045.82-.75zm5.757 3.532q1.83 1.26 2.93 1.325.703.041.73-.453.022-.348-1.164-.984-2.853-1.365-2.693-4.08.102-1.731 1.417-2.57 1.32-.84 3.087-.735t2.972.553q1.209.444 1.173 1.052-.03.517-.586 1.33-.55.813-.743.872a4.4 4.4 0 0 0-2.142-.692q-.63-.037-.657.41-.017.277.215.492.234.214.872.547.637.328 1.054.589.422.26.938.712 1.072.955.988 2.386-.11 1.869-1.42 2.956-1.312 1.086-3.816.94-1.66-.099-2.988-.74-1.322-.643-1.265-1.627.039-.654.399-1.36t.7-.923zm10.533.62q1.83 1.26 2.93 1.325.702.042.731-.452.02-.35-1.165-.985-2.853-1.364-2.693-4.08.102-1.731 1.417-2.57 1.32-.84 3.087-.735 1.769.105 2.972.553 1.209.444 1.173 1.052-.03.517-.586 1.33-.55.813-.743.872a4.4 4.4 0 0 0-2.142-.692q-.63-.037-.657.41-.017.278.215.492.234.214.872.547.637.328 1.054.589.422.26.938.712 1.072.955.988 2.386-.11 1.87-1.42 2.956-1.312 1.087-3.816.94-1.66-.099-2.988-.739-1.322-.645-1.265-1.628.039-.654.399-1.36t.7-.923zm11.77-3.605q-.587-1.209-.543-1.947.044-.736.452-.925 1.37-.505 3.698-.368 2.328.138 3.224 1.283.896 1.143.77 3.274l-.217 3.7.795.046q.4.024.592.503.196.48.147 1.303a3.5 3.5 0 0 1-.506 1.59q-.454.772-1.156.73-1.262-.074-1.998-.798a1.9 1.9 0 0 1-.497-.713q-1.157 1.296-3.426 1.162-1.71-.1-2.81-1.384-1.095-1.287-.997-2.953.225-3.813 4.786-3.544l1.29.076.013-.236q.036-.607-.154-.795-.188-.188-.914-.231-.89-.053-2.55.227zm1.619 4.417q-.03.515.232.8.266.288.697.313.435.025.809-.306l.106-1.803-.655-.039q-1.125-.066-1.19 1.035zm12.815 4.959q-2.274-.135-3.43-1.669-1.151-1.539-.983-4.403.17-2.868 1.891-4.4 1.725-1.53 4.426-1.37 2.704.159 4.39 1.453l-.687 11.659q-.102 1.733-1.56 2.574-1.456.843-3.66.713c-1.465-.087-4.127-.886-4.11-1.181.06-1 .303-2.357.657-2.806a8.4 8.4 0 0 0 3.307.875q1.29.076 1.343-.837l.041-.701q-1.018.129-1.625.093zm1.554-8.037c-1.047-.062-4.442.403-4.535 1.981-.058.983 2.933 1.927 3.323 2.246q.378.33.773.352.4.024.71-.029l.262-4.448a2.2 2.2 0 0 0-.533-.102zm7.44 7.218q-1.497-1.677-1.333-4.471.165-2.799 1.798-4.417 1.635-1.618 3.976-1.48 2.34.138 3.543 1.408 1.207 1.266 1.106 2.975-.223 3.794-4.577 3.537l-1.614-.095q-.042.702.326.995.374.289 1.125.333a6.8 6.8 0 0 0 3.156-.565q.024-.023.192.342.5 1.04.46 1.73-.04.689-.496.875s-2.34.871-3.844.642-2.817-.694-3.818-1.81zm5.133-5.77q.059-.983-.902-1.04a1.14 1.14 0 0 0-.776.226q-.333.248-.363.761l-.043.729 1.266.074q.771.045.819-.75zm5.757 3.533q1.83 1.26 2.93 1.324.702.042.731-.452.021-.35-1.165-.985-2.853-1.363-2.693-4.08.101-1.73 1.418-2.57 1.32-.84 3.086-.735 1.769.105 2.972.553 1.209.444 1.173 1.052-.03.517-.586 1.33-.55.813-.743.873a4.4 4.4 0 0 0-2.142-.693q-.63-.037-.657.41-.016.278.215.492.235.214.872.547.638.329 1.055.59.42.26.937.711 1.072.956.988 2.386-.11 1.87-1.42 2.956-1.311 1.087-3.815.94-1.662-.099-2.989-.739-1.322-.645-1.264-1.628.038-.655.398-1.36.36-.707.7-.923z" fill="none" stroke-opacity=".506" stroke="#000" stroke-width="6" stroke-linecap="square"/><path d="M188.7 109.619q-2.085-.123-2.057-.589l.063-9.418-3.417 9.335q-.11.276-1.607.188t-1.529-.35l-2.384-9.794-.88 9.323q-.044.348-.917.426-.875.078-1.446.044a9 9 0 0 1-1.109-.136q-1.11-.23-1.063-.648l1.433-15.185q.033-.561 2.89-.392.843.05 2.05.25 1.21.201 1.33.582l2.187 7.53 2.728-7.264q.248-.595 3.265-.418.867.051 2.066.252 1.2.2 1.18.525l-.227 15.398q-.014.255-.935.319-.92.064-1.621.022m13.615.145q-1.528.78-3.844.643-2.316-.136-3.818-1.81-1.498-1.677-1.333-4.47.165-2.799 1.797-4.417 1.637-1.618 3.977-1.48 2.34.136 3.542 1.408 1.207 1.266 1.107 2.975-.224 3.793-4.577 3.537l-1.615-.095q-.04.701.327.994.372.29 1.125.334a6.8 6.8 0 0 0 3.155-.566q.025-.021.193.342.5 1.04.46 1.73t-.496.875m-2.529-6.936q.058-.984-.902-1.04a1.14 1.14 0 0 0-.776.225q-.333.249-.363.762l-.043.728 1.265.075q.772.045.82-.75m5.757 3.532q1.83 1.26 2.93 1.325.703.041.73-.453.022-.348-1.164-.984-2.853-1.365-2.693-4.08.102-1.731 1.417-2.57 1.32-.84 3.087-.735t2.972.553q1.209.444 1.173 1.052-.03.517-.586 1.33-.55.813-.743.872a4.4 4.4 0 0 0-2.142-.692q-.63-.037-.657.41-.017.277.215.492.234.214.872.547.637.328 1.054.589.422.26.938.712 1.072.955.988 2.386-.11 1.869-1.42 2.956-1.312 1.086-3.816.94-1.66-.099-2.988-.74-1.322-.643-1.265-1.627.039-.654.399-1.36t.7-.923m10.533.62q1.83 1.26 2.93 1.325.702.042.731-.452.02-.35-1.165-.985-2.853-1.364-2.693-4.08.102-1.731 1.417-2.57 1.32-.84 3.087-.735 1.769.105 2.972.553 1.209.444 1.173 1.052-.03.517-.586 1.33-.55.813-.743.872a4.4 4.4 0 0 0-2.142-.692q-.63-.037-.657.41-.017.278.215.492.234.214.872.547.637.328 1.054.589.422.26.938.712 1.072.955.988 2.386-.11 1.87-1.42 2.956-1.312 1.087-3.816.94-1.66-.099-2.988-.739-1.322-.645-1.265-1.628.039-.654.399-1.36t.7-.923m11.77-3.605q-.587-1.209-.543-1.947.044-.736.452-.925 1.37-.505 3.698-.368 2.328.138 3.224 1.283.896 1.143.77 3.274l-.217 3.7.795.046q.4.024.592.503.196.48.147 1.303a3.5 3.5 0 0 1-.506 1.59q-.454.772-1.156.73-1.262-.074-1.998-.798a1.9 1.9 0 0 1-.497-.713q-1.157 1.296-3.426 1.162-1.71-.1-2.81-1.384-1.095-1.287-.997-2.953.225-3.813 4.786-3.544l1.29.076.013-.236q.036-.607-.154-.795-.188-.188-.914-.231-.89-.053-2.55.227m1.619 4.417q-.03.515.232.8.266.288.697.313.435.025.809-.306l.106-1.803-.655-.039q-1.125-.066-1.19 1.035m12.815 4.959q-2.274-.135-3.43-1.669-1.151-1.539-.983-4.403.17-2.868 1.891-4.4 1.725-1.53 4.426-1.37 2.704.159 4.39 1.453l-.687 11.659q-.102 1.733-1.56 2.574-1.456.843-3.66.713-2.198-.13-3.896-.796-.203-.575-.176-1.017.087-1.5.62-2.174a8.4 8.4 0 0 0 3.306.875q1.29.076 1.343-.837l.041-.701q-1.018.129-1.625.093m1.554-8.037q-1.571-.093-1.71 2.275-.087 1.473.498 1.952.378.33.773.352.4.024.71-.029l.262-4.448a2.2 2.2 0 0 0-.533-.102m11.258 9.027q-2.316-.135-3.818-1.81-1.497-1.676-1.333-4.47.165-2.799 1.798-4.417 1.635-1.617 3.976-1.48 2.34.138 3.543 1.408 1.207 1.266 1.106 2.975-.223 3.794-4.577 3.537l-1.614-.095q-.042.702.326.995.374.289 1.125.333a6.8 6.8 0 0 0 3.156-.565q.024-.023.192.342.5 1.04.46 1.73-.04.689-.496.875s-2.3.733-3.844.642m1.315-7.579q.059-.983-.902-1.04a1.14 1.14 0 0 0-.776.226q-.333.248-.363.761l-.043.729 1.266.074q.771.045.819-.75m5.757 3.533q1.83 1.26 2.93 1.324.702.042.731-.452.021-.35-1.165-.985-2.853-1.363-2.693-4.08.101-1.73 1.418-2.57 1.32-.84 3.086-.735 1.769.105 2.972.553 1.209.444 1.173 1.052-.03.517-.586 1.33-.55.813-.743.873a4.4 4.4 0 0 0-2.142-.693q-.63-.037-.657.41-.016.278.215.492.235.214.872.547.638.329 1.055.59.42.26.937.711 1.072.956.988 2.386-.11 1.87-1.42 2.956-1.311 1.087-3.815.94-1.662-.099-2.989-.739-1.322-.645-1.264-1.628.038-.655.398-1.36.36-.707.7-.923" fill="#fff"/></g></svg>