<svg version="1.1" xmlns="http://www.w3.org/2000/svg" xmlns:xlink="http://www.w3.org/1999/xlink" width="309.2973" height="159.64866" viewBox="0,0,309.2973,159.64866"><defs><linearGradient x1="325.00001" y1="125.17581" x2="325.00001" y2="274.82442" gradientUnits="userSpaceOnUse" id="color-1"><stop offset="0" stop-color="#290047"/><stop offset="1" stop-color="#4f0088"/></linearGradient></defs><g transform="translate(-170.35135,-120.17574)"><g data-paper-data="{&quot;isPaintingLayer&quot;:true}" fill-rule="nonzero" stroke-linejoin="miter" stroke-miterlimit="10" stroke-dasharray="" stroke-dashoffset="0" style="mix-blend-mode: normal"><path d="M176.35136,273.86466v-146.81271h293.6254v146.81271z" fill="#9400ff" stroke="none" stroke-width="0" stroke-linecap="butt"/><g data-paper-data="{&quot;index&quot;:null}" stroke="none" stroke-linecap="butt"><path d="M208.37516,153.25145v34.81487l-34.13222,32.76693l5.91326,-62.17266z" data-paper-data="{&quot;index&quot;:null}" fill="#a72bff" stroke-width="0"/><path d="M474.41496,153.67872v34.13222l-33.44959,33.44957l-34.13222,-32.76692v-34.81487z" fill="#a72bff" stroke-width="0"/><path d="M407.5158,153.67872v34.13222l-33.44958,33.44957l-34.13222,-32.76692v-34.81487z" fill="#a72bff" stroke-width="0"/><path d="M339.93401,153.67872v34.13222l-33.44957,33.44957l-34.13222,-32.76692v-34.81487z" fill="#a72bff" stroke-width="0"/><path d="M273.03486,153.67872v34.13222l-33.44958,33.44957l-34.13222,-32.76692v-34.81487z" fill="#a72bff" stroke-width="0"/><g fill="#9400ff" stroke-width="0"><path d="M208.37516,154.25901v14.66378l-34.13222,32.76692l5.91326,-42.02157z" data-paper-data="{&quot;index&quot;:null}"/><path d="M474.41496,154.68627v13.98113l-33.44959,33.44957l-34.13222,-32.76692v-14.66378z"/><path d="M411.88187,148.97679l-4.36606,19.69061l-33.44958,33.44957l-34.13222,-32.76692v-14.66378z"/><path d="M339.93401,154.68627v13.98113l-33.44957,33.44957l-34.13222,-32.76692l-2.68681,-21.71666z"/><path d="M273.03486,154.68627v13.98113l-33.44958,33.44957l-34.13222,-32.76692v-14.66378z"/></g><g fill="none" stroke-width="1" font-family="sans-serif" font-weight="normal" font-size="12" text-anchor="start"/></g><g data-paper-data="{&quot;index&quot;:null}" stroke="none" stroke-width="0" stroke-linecap="butt"><path d="M208.37516,126.04748v25.74688l-34.13222,32.76693l5.91326,-62.17267z" data-paper-data="{&quot;index&quot;:null}" fill="#a72bff"/><path d="M474.41496,130.93704c0,6.14811 0,20.60191 0,20.60191l-33.44959,33.44958l-34.13222,-32.76693c0,0 0,-21.83507 0,-28.00158c0,-3.04176 67.58181,1.73459 67.58181,6.71703z" fill="#a72bff"/><path d="M407.5158,124.45964v27.07934l-33.44958,33.44957l-34.13222,-32.76692v-27.76198z" fill="#a72bff"/><path d="M339.93401,123.78793v27.75104l-33.44957,33.44957l-34.13222,-32.76692v-27.42614z" fill="#a72bff"/><path d="M273.03486,124.79548v26.74349l-33.44958,33.44957l-34.13222,-32.76692l0.33585,-26.41859z" fill="#a72bff"/><g fill="#9400ff"><path d="M208.37516,123.36068v9.29016l-34.13222,32.76692l5.91326,-42.02157z" data-paper-data="{&quot;index&quot;:null}"/><path d="M461.996,125.19298c5.15062,1.37229 14.39695,5.22417 14.39695,5.22417l-35.42764,35.42763l-34.13191,-32.76668c0,0 -2.81511,-8.53802 0.933,-9.59998c6.24986,-1.76927 48.29611,0.13501 54.2296,1.71486z"/><path d="M407.5158,124.22003c0,2.49251 0,8.17539 0,8.17539l-33.44958,33.44957l-34.13222,-32.76692c0,0 0,-4.76088 0,-7.17879c0,-2.46894 67.58179,-3.7797 67.58179,-1.67926z"/><path d="M339.93401,124.45964v7.9358l-33.44957,33.44957l-34.13222,-32.76692v-8.9543z"/><path d="M273.03486,125.56344c0,2.30316 0,6.83199 0,6.83199l-33.44958,33.44957l-34.13222,-32.76692c0,0 0,-5.32633 0,-7.85049c0,-2.35151 67.5818,-2.02017 67.5818,0.33585z"/></g><g fill="#a72bff"><path d="M174.24246,148.28914c0,0 -2.11762,-13.53523 3.93073,-19.34176c5.19999,-4.99142 24.26669,-7.7272 20.21431,-3.83703c-6.30024,6.04835 -24.14504,23.17879 -24.14504,23.17879z" data-paper-data="{&quot;index&quot;:null}"/><path d="M463.80291,125.87905c-6.17151,6.17152 -22.83754,22.83753 -22.83754,22.83753c0,0 -17.31497,-16.62238 -23.61621,-22.67156c-4.20481,-4.03661 50.66068,-4.37292 46.45373,-0.16597z"/><path d="M396.26441,126.5184c-6.15434,6.15434 -22.19818,22.19818 -22.19818,22.19818c0,0 -17.28849,-16.59695 -23.58953,-22.64594c-4.21238,-4.04389 50.16924,-3.93376 45.78771,0.44777z"/><path d="M329.22421,125.9768c-6.1697,6.1697 -22.73978,22.73978 -22.73978,22.73978c0,0 -16.40891,-15.75256 -22.69026,-21.78264c-4.46049,-4.28208 49.66415,-5.19123 45.43004,-0.95713z"/><path d="M262.86118,125.44068c-6.17586,6.17587 -23.2759,23.2759 -23.2759,23.2759c0,0 -18.08644,-17.36299 -24.38339,-23.40804c-3.98162,-3.82235 51.74234,-3.95089 47.6593,0.13214z"/></g></g><g stroke="none" stroke-width="0" stroke-linecap="butt"><path d="M440.10854,275.6352v-34.81486l34.13222,-32.76693l-5.91325,62.17266z" data-paper-data="{&quot;index&quot;:null}" fill="#a72bff"/><path d="M174.06873,267c0,-6.22312 0,-25.92428 0,-25.92428l33.44957,-33.44957l34.13222,32.76692v34.81487c0,0 -40.57858,0 -52.76288,0c-6.45721,0 -14.81891,-4.7063 -14.81891,-8.20794z" fill="#a72bff"/><path d="M240.96789,275.20794v-34.13222l33.44957,-33.44957l34.13222,32.76692v34.81487z" fill="#a72bff"/><path d="M308.54969,275.20794v-34.13222l33.44958,-33.44957l34.13222,32.76692v34.81487z" fill="#a72bff"/><path d="M375.44884,275.20794v-34.13222l33.44957,-33.44957l34.13223,32.76692v34.81487z" fill="#a72bff"/><g fill="#9400ff"><path d="M440.10854,274.62764v-14.66377l34.13222,-32.76692l-5.91325,42.02158z" data-paper-data="{&quot;index&quot;:null}"/><path d="M174.06873,260.21925l33.44957,-33.44958l34.13222,32.76692v14.66378c0,0 -39.47755,0.00001 -51.76288,0.00001c-6.7915,0 -15.81891,-13.98113 -15.81891,-13.98113z"/><path d="M240.96789,274.20039v-13.98113l33.44957,-33.44958l34.13222,32.76692v14.66378z"/><path d="M308.54969,274.20039v-13.98113l33.44958,-33.44958l34.13222,32.76692v14.66378z"/><path d="M375.44884,274.20039v-13.98113l33.44957,-33.44958l34.13223,32.76692v14.66378z"/></g><g fill="#a72bff"><path d="M474.24081,244.32522c0,0 1.33853,14.90852 -0.81059,23.01329c-2.93097,11.05288 -33.32133,9.75339 -33.32133,9.75339z" data-paper-data="{&quot;index&quot;:null}"/><path d="M180.65204,270.7644c5.93046,-5.93047 26.86626,-26.86627 26.86626,-26.86627l34.13222,32.76692c0,0 -37.85623,0.38239 -50.25103,0.50759c-7.27907,0.07353 -13.68311,-3.47258 -10.74744,-6.40825z"/><path d="M240.96789,277.34771l33.44957,-33.44958l34.13222,32.76692z"/><path d="M308.54969,277.34771l33.44958,-33.44958l34.13222,32.76692z"/><path d="M375.44884,277.34771l33.44957,-33.44958l34.13223,32.76692z"/></g></g><path d="M216.18393,226.66883c0,3.4408 -1.48815,6.05742 -4.46346,7.84683c1.62317,0.59345 2.98135,1.61813 4.07354,3.07607c1.09118,1.45793 1.63728,3.51939 1.63728,6.18437c0,2.66599 -0.9864,4.77783 -2.95919,6.3345c-1.96776,1.55164 -4.78891,2.32745 -8.46245,2.32745h-11.72189c-0.55919,0 -1.02166,-0.18841 -1.3874,-0.56524c-0.36675,-0.38187 -0.54912,-0.88867 -0.54912,-1.5204v-31.78028c0,-0.3607 0.05844,-0.59849 0.17431,-0.71537c0.11687,-0.11587 0.35768,-0.17431 0.72342,-0.17431h11.32189c7.74205,0 11.61307,2.99546 11.61307,8.98638zM201.88572,225.72878v6.50074h0.24988c3.17581,0 4.76271,-1.05794 4.76271,-3.17481c0,-1.15869 -0.3073,-2.001 -0.92191,-2.52795c-0.60957,-0.53199 -1.62418,-0.79798 -3.04282,-0.79798zM201.88572,238.09047v6.45037h0.89773c1.42468,0 2.46649,-0.26297 3.12644,-0.78892c0.65894,-0.53199 0.98842,-1.37732 0.98842,-2.53601c0,-1.15768 -0.3073,-1.96675 -0.92191,-2.4272c-0.60957,-0.46549 -1.62418,-0.69824 -3.04282,-0.69824zM231.77886,252.93678c-3.27556,0 -6.04029,-1.11637 -8.2962,-3.35011c-2.24987,-2.23879 -3.3753,-5.334 -3.3753,-9.28462c0,-3.95767 1.08413,-7.14356 3.25037,-9.56069c2.17229,-2.41611 4.91284,-3.62418 8.22164,-3.62418c3.30881,0 5.86295,0.84534 7.66446,2.53602c1.80654,1.68463 2.71033,3.73501 2.71033,6.15112c0,5.36422 -3.07909,8.04734 -9.23625,8.04734h-3.42468c0,0.99143 0.27204,1.67859 0.81511,2.06146c0.54811,0.37682 1.35516,0.56524 2.41914,0.56524c2.31637,0 4.51585,-0.52896 6.60048,-1.58791c0.03325,-0.03325 0.18237,0.1995 0.44837,0.69824c0.79295,1.42468 1.18891,2.62367 1.18891,3.59898c0,0.97632 -0.31335,1.61309 -0.93904,1.91234c0,0 -4.77178,1.83677 -8.04734,1.83677zM233.61563,236.75244c0,-1.39144 -0.67808,-2.08665 -2.03626,-2.08665c-0.62569,0 -1.16373,0.19043 -1.6131,0.5733c-0.44836,0.37682 -0.67305,0.92796 -0.67305,1.65441v1.54559h2.68513c1.09219,0 1.63727,-0.56222 1.63727,-1.68664zM256.60802,252.1388c0,0.39899 -1.39042,0.59849 -4.17228,0.59849c-3.30881,-0.13299 -4.96322,-0.34861 -4.96322,-0.64786v-17.57377h-2.53501c-0.66499,0 -0.99747,-1.14156 -0.99747,-3.42468c0,-0.59849 0.05743,-1.32695 0.1743,-2.18639c0.11587,-0.86448 0.35769,-1.29672 0.72343,-1.29672h2.63475v-4.36372c0,-0.666 1.39647,-0.99848 4.18941,-0.99848c2.79898,0 4.19848,0.26599 4.19848,0.79798v3.17582l0.04937,1.38841h4.22367c0.55919,0 0.83929,1.1607 0.83929,3.48311c0,2.31637 -0.28009,3.47505 -0.83929,3.47505h-3.52544zM274.88103,252.1388c0,0.39899 -1.39143,0.59849 -4.17329,0.59849c-3.30881,-0.13299 -4.96321,-0.34861 -4.96321,-0.64786v-17.57377h-2.53501c-0.66499,0 -0.99748,-1.14156 -0.99748,-3.42468c0,-0.59849 0.05844,-1.32695 0.17431,-2.18639c0.11687,-0.86448 0.35769,-1.29672 0.72343,-1.29672h2.63475v-4.36372c0,-0.666 1.39647,-0.99848 4.19042,-0.99848c2.79798,0 4.19747,0.26599 4.19747,0.79798v3.17582l0.05038,1.38841h4.22266c0.5602,0 0.83929,1.1607 0.83929,3.48311c0,2.31637 -0.27909,3.47505 -0.83929,3.47505h-3.52443zM300.50214,251.10001c-2.08967,1.22519 -4.77178,1.83677 -8.04734,1.83677c-3.27556,0 -6.04029,-1.11637 -8.2962,-3.35011c-2.24987,-2.23879 -3.37531,-5.334 -3.37531,-9.28462c0,-3.95767 1.08413,-7.14356 3.25037,-9.56069c2.17229,-2.41611 4.91283,-3.62418 8.22164,-3.62418c3.30881,0 5.86296,0.84534 7.66447,2.53602c1.80655,1.68463 2.71032,3.73501 2.71032,6.15112c0,5.36422 -3.07909,8.04734 -9.23625,8.04734h-3.42468c0,0.99143 0.27204,1.67859 0.81511,2.06146c0.54811,0.37682 1.35416,0.56524 2.41914,0.56524c2.31637,0 4.51585,-0.52896 6.59948,-1.58791c0.03325,-0.03325 0.18338,0.1995 0.44937,0.69824c0.79294,1.42468 1.18892,2.62367 1.18892,3.59898c0,0.97632 -0.31335,1.61309 -0.93904,1.91234zM294.29157,236.75244c0,-1.39144 -0.67809,-2.08665 -2.03627,-2.08665c-0.6267,0 -1.16372,0.19043 -1.61309,0.5733c-0.44836,0.37682 -0.67305,0.92796 -0.67305,1.65441v1.54559h2.68513c1.09219,0 1.63728,-0.56222 1.63728,-1.68664zM316.73586,252.38867c0,0.23274 -1.5073,0.34862 -4.52191,0.34862c-3.00957,-0.0665 -4.51385,-0.1995 -4.51385,-0.39899v-16.48359h-1.33904c-0.53199,0 -0.95617,-0.32141 -1.27153,-0.96423c-0.31637,-0.64887 -0.47355,-1.45289 -0.47355,-2.41107c0,-3.5748 1.06096,-5.36221 3.18387,-5.36221c1.49018,0 2.73149,0.45441 3.72393,1.36322c0.99144,0.90882 1.48816,1.94256 1.48816,3.10125c0.69219,-1.35818 1.62619,-2.44131 2.801,-3.25037c1.17481,-0.80907 2.3748,-1.2141 3.59999,-1.2141c1.92242,0 3.08312,0.49672 3.48312,1.48816c0.0937,0.266 0.14106,0.65693 0.14106,1.17179c0,0.50983 -0.15819,1.42771 -0.47456,2.75163c-0.31032,1.32494 -0.63173,2.28615 -0.96423,2.88463c-0.33249,0.59345 -0.53199,0.88967 -0.59849,0.88967c-0.06045,0 -0.36575,-0.12494 -0.91386,-0.37381c-0.54911,-0.24988 -1.03677,-0.3738 -1.46297,-0.3738c-1.25844,0 -1.88714,0.99445 -1.88714,2.98438zM338.38417,243.90104v-17.68158h-3.52443c-0.56524,0 -0.96423,-0.71234 -1.19697,-2.13602c-0.09471,-0.6932 -0.14106,-1.40251 -0.14106,-2.12795c0,-0.73148 0.04635,-1.44382 0.14106,-2.13702c0.23275,-1.42368 0.63173,-2.13602 1.19697,-2.13602h16.6841c0.55919,0 0.93904,0.71234 1.13853,2.13602c0.13299,0.6932 0.1995,1.40554 0.1995,2.13702c0,0.72544 -0.0665,1.43475 -0.1995,2.12795c-0.1995,1.42368 -0.57934,2.13602 -1.13853,2.13602h-3.32493v17.68158h3.47404c0.5602,0 0.95617,0.70932 1.18892,2.12795c0.13299,0.69824 0.1995,1.4136 0.1995,2.14508c0,0.72544 -0.0665,1.43576 -0.1995,2.12795c-0.23275,1.42468 -0.62871,2.13602 -1.18892,2.13602h-16.73346c-0.56524,0 -0.94811,-0.71134 -1.1476,-2.13602c-0.13299,-0.69219 -0.1995,-1.40251 -0.1995,-2.12795c0,-0.73148 0.0665,-1.44684 0.1995,-2.14508c0.1995,-1.41863 0.58236,-2.12795 1.1476,-2.12795zM366.53525,252.1388c0,0.23274 -1.19093,0.34962 -3.5748,0.34962c-3.3078,-0.09975 -4.9622,-0.28312 -4.9622,-0.54912v-16.0846h-1.29673c-0.85944,0 -1.42166,-0.72947 -1.68766,-2.18639c-0.0665,-0.4272 -0.09974,-0.85642 -0.09974,-1.28866c0,-1.02569 0.19949,-2.05038 0.59848,-3.07606c0.59848,-1.45693 1.52645,-2.18639 2.78488,-2.18639c1.25743,0 2.38287,0.29924 3.37531,0.89773c0.99144,0.59345 1.6534,1.18589 1.98589,1.77934c2.08463,-1.78438 4.56422,-2.67707 7.44079,-2.67707c2.8816,0 4.96825,0.77884 6.25893,2.33652c1.29168,1.55164 1.93753,4.09772 1.93753,7.63927v14.89669c0,0.39899 -1.41662,0.59849 -4.24785,0.59849c-2.8272,0 -4.23979,-0.1995 -4.23979,-0.59849v-14.34858c0,-1.65642 -0.57934,-2.48463 -1.73803,-2.48463c-0.33249,0 -0.79798,0.14106 -1.39647,0.42318c-0.59244,0.28313 -0.97229,0.49068 -1.13854,0.62367zM394.19362,261.4748c0,0.23275 -1.41662,0.34861 -4.24785,0.34861c-2.8272,0 -4.23978,-0.11587 -4.23978,-0.34861v-25.57073h-1.68766c-0.79798,0 -1.3471,-0.72846 -1.64634,-2.18639c-0.09975,-0.45944 -0.14912,-1.05289 -0.14912,-1.77934c0,-0.73148 0.23275,-1.59295 0.69824,-2.58438c0.66499,-1.45793 1.72393,-2.1864 3.17582,-2.1864c0.96423,0 1.85088,0.22368 2.65994,0.67305c0.80906,0.44332 1.37128,0.85642 1.68765,1.23828c0.31536,0.37682 0.47356,0.59849 0.47356,0.66499c2.21662,-1.71788 4.61661,-2.57632 7.19897,-2.57632c2.58236,0 4.79898,0.9995 6.64986,3.0005c1.85692,2.001 2.78488,5.09621 2.78488,9.28562c0,4.18941 -0.92795,7.43474 -2.78488,9.73398c-1.85088,2.30024 -4.20049,3.44987 -7.04885,3.44987c-1.29168,0 -2.4665,-0.06651 -3.52443,-0.1995zM396.22989,235.8547c-0.56524,0 -1.11133,0.18237 -1.63727,0.54811v8.78689c0.55919,0.0665 1.0136,0.09975 1.36322,0.09975c0.34861,0 0.62367,0 0.82317,0c1.35214,-0.13299 2.02821,-1.87002 2.02821,-5.21208c0,-2.8151 -0.85944,-4.22266 -2.57732,-4.22266zM410.82734,227.90711c0,-0.35969 1.42166,-0.54004 4.26498,-0.54004c2.84836,0 4.27304,0.18035 4.27304,0.54004v14.49771c0,1.65742 0.52897,2.48563 1.5869,2.48563c0.79798,0 1.6937,-0.3466 2.68514,-1.03879v-15.94455c0,-0.32645 1.40554,-0.49067 4.2146,-0.49067c2.81612,0 4.22367,0.16422 4.22367,0.49067v16.28511h1.29672c1.12443,0 1.68766,1.07808 1.68766,3.23324c0,1.09219 -0.23275,2.2005 -0.69824,3.32594c-0.65995,1.45693 -1.55264,2.18538 -2.67708,2.18538c-2.22267,0 -3.86297,-0.91082 -4.9209,-2.7345l-0.05038,0.05038c-2.01713,1.78941 -4.18437,2.68412 -6.50074,2.68412c-3.2141,0 -5.58387,-0.80302 -7.10729,-2.41007c-1.51839,-1.60705 -2.27808,-4.26498 -2.27808,-7.97177zM449.51038,252.1388c0,0.39899 -1.39143,0.59849 -4.17329,0.59849c-3.30881,-0.13299 -4.96321,-0.34861 -4.96321,-0.64786v-17.57377h-2.53501c-0.66499,0 -0.99748,-1.14156 -0.99748,-3.42468c0,-0.59849 0.05844,-1.32695 0.17431,-2.18639c0.11687,-0.86448 0.35769,-1.29672 0.72343,-1.29672h2.63475v-4.36372c0,-0.666 1.39647,-0.99848 4.19042,-0.99848c2.79798,0 4.19747,0.26599 4.19747,0.79798v3.17582l0.05037,1.38841h4.22266c0.55919,0 0.83929,1.1607 0.83929,3.48311c0,2.31637 -0.2801,3.47505 -0.83929,3.47505h-3.52443z" fill="none" stroke-opacity="0.50588" stroke="#000000" stroke-width="10" stroke-linecap="square"/><path d="M216.23531,226.66883c0,3.4408 -1.48815,6.05742 -4.46346,7.84683c1.62317,0.59345 2.98135,1.61813 4.07253,3.07607c1.09219,1.45793 1.63828,3.51939 1.63828,6.18437c0,2.66599 -0.9864,4.77783 -2.95919,6.3345c-1.96776,1.55164 -4.7889,2.32745 -8.46245,2.32745h-11.72189c-0.55919,0 -1.02267,-0.18841 -1.38841,-0.56524c-0.36574,-0.38187 -0.54811,-0.88867 -0.54811,-1.5204v-31.78028c0,-0.3607 0.05844,-0.59849 0.17431,-0.71537c0.11687,-0.11587 0.35768,-0.17431 0.72342,-0.17431h11.32189c7.74205,0 11.61308,2.99546 11.61308,8.98638zM201.93711,225.72878v6.50074h0.24988c3.17581,0 4.76271,-1.05794 4.76271,-3.17481c0,-1.15869 -0.30731,-2.001 -0.92192,-2.52795c-0.60957,-0.53199 -1.62418,-0.79798 -3.04281,-0.79798zM201.93711,238.09047v6.45037h0.89773c1.42468,0 2.46649,-0.26297 3.12644,-0.78892c0.65894,-0.53199 0.98842,-1.37732 0.98842,-2.53601c0,-1.15768 -0.30731,-1.96675 -0.92192,-2.4272c-0.60957,-0.46549 -1.62418,-0.69824 -3.04281,-0.69824zM239.87758,251.10001c-2.08967,1.22519 -4.77178,1.83677 -8.04734,1.83677c-3.27556,0 -6.04029,-1.11637 -8.29621,-3.35011c-2.24987,-2.23879 -3.3753,-5.334 -3.3753,-9.28462c0,-3.95767 1.08413,-7.14356 3.25037,-9.56069c2.17229,-2.41611 4.91284,-3.62418 8.22164,-3.62418c3.30881,0 5.86296,0.84534 7.66447,2.53602c1.80654,1.68463 2.71033,3.73501 2.71033,6.15112c0,5.36422 -3.07909,8.04734 -9.23625,8.04734h-3.42468c0,0.99143 0.27204,1.67859 0.81511,2.06146c0.54811,0.37682 1.35415,0.56524 2.41914,0.56524c2.31637,0 4.51585,-0.52896 6.59948,-1.58791c0.03325,-0.03325 0.18337,0.1995 0.44937,0.69824c0.79295,1.42468 1.18892,2.62367 1.18892,3.59898c0,0.97632 -0.31335,1.61309 -0.93904,1.91234zM233.66701,236.75244c0,-1.39144 -0.67808,-2.08665 -2.03627,-2.08665c-0.6267,0 -1.16372,0.19043 -1.61309,0.5733c-0.44836,0.37682 -0.67305,0.92796 -0.67305,1.65441v1.54559h2.68513c1.09219,0 1.63728,-0.56222 1.63728,-1.68664zM256.65941,252.1388c0,0.39899 -1.39042,0.59849 -4.17228,0.59849c-3.30881,-0.13299 -4.96321,-0.34861 -4.96321,-0.64786v-17.57377h-2.53501c-0.66499,0 -0.99748,-1.14156 -0.99748,-3.42468c0,-0.59849 0.05743,-1.32695 0.17431,-2.18639c0.11587,-0.86448 0.35769,-1.29672 0.72342,-1.29672h2.63476v-4.36473c0,-0.66499 1.39647,-0.99748 4.18941,-0.99748c2.79898,0 4.19848,0.26599 4.19848,0.79798v3.17582l0.04937,1.38841h4.22367c0.55919,0 0.83929,1.1607 0.83929,3.48311c0,2.31637 -0.2801,3.47505 -0.83929,3.47505h-3.52544zM274.93242,252.1388c0,0.39899 -1.39143,0.59849 -4.17329,0.59849c-3.30881,-0.13299 -4.96321,-0.34861 -4.96321,-0.64786v-17.57377h-2.53501c-0.66499,0 -0.99748,-1.14156 -0.99748,-3.42468c0,-0.59849 0.05844,-1.32695 0.17431,-2.18639c0.11687,-0.86448 0.35769,-1.29672 0.72343,-1.29672h2.63475v-4.36473c0,-0.66499 1.39647,-0.99748 4.19042,-0.99748c2.79798,0 4.19747,0.26599 4.19747,0.79798v3.17582l0.05038,1.38841h4.22266c0.55919,0 0.83929,1.1607 0.83929,3.48311c0,2.31637 -0.2801,3.47505 -0.83929,3.47505h-3.52443zM300.55251,251.10001c-2.08866,1.22519 -4.77077,1.83677 -8.04633,1.83677c-3.27556,0 -6.0413,-1.11637 -8.2962,-3.35011c-2.24987,-2.23879 -3.3753,-5.334 -3.3753,-9.28462c0,-3.95767 1.08312,-7.14356 3.25037,-9.56069c2.17229,-2.41611 4.91284,-3.62418 8.22165,-3.62418c3.30881,0 5.86296,0.84534 7.66447,2.53602c1.80655,1.68463 2.71032,3.73501 2.71032,6.15112c0,5.36422 -3.07909,8.04734 -9.23625,8.04734h-3.42467c0,0.99143 0.27204,1.67859 0.81511,2.06146c0.54811,0.37682 1.35415,0.56524 2.41813,0.56524c2.31738,0 4.51686,-0.52896 6.60049,-1.58791c0.03325,-0.03325 0.18338,0.1995 0.44937,0.69824c0.79194,1.42468 1.18892,2.62367 1.18892,3.59898c0,0.97632 -0.31335,1.61309 -0.94005,1.91234zM294.34296,236.75244c0,-1.39144 -0.6791,-2.08665 -2.03627,-2.08665c-0.6267,0 -1.16373,0.19043 -1.6131,0.5733c-0.44836,0.37682 -0.67304,0.92796 -0.67304,1.65441v1.54559h2.68513c1.09118,0 1.63728,-0.56222 1.63728,-1.68664zM316.78724,252.38867c0,0.23274 -1.50731,0.34862 -4.52292,0.34862c-3.00856,-0.0665 -4.51385,-0.1995 -4.51385,-0.39899v-16.48359h-1.33803c-0.53199,0 -0.95617,-0.32141 -1.27153,-0.96423c-0.31637,-0.64887 -0.47456,-1.45289 -0.47456,-2.41107c0,-3.5748 1.06196,-5.36221 3.18388,-5.36221c1.49118,0 2.73249,0.45441 3.72493,1.36322c0.99144,0.90882 1.48816,1.94256 1.48816,3.10125c0.69219,-1.35818 1.6262,-2.44131 2.80101,-3.25037c1.17481,-0.80907 2.3748,-1.2141 3.59898,-1.2141c1.92342,0 3.08412,0.49672 3.48311,1.48816c0.09471,0.266 0.14207,0.65693 0.14207,1.17179c0,0.50983 -0.15819,1.42771 -0.47456,2.75163c-0.31032,1.32494 -0.63173,2.28615 -0.96423,2.88463c-0.33249,0.59345 -0.53198,0.88967 -0.59848,0.88967c-0.06045,0 -0.36575,-0.12494 -0.91386,-0.37381c-0.54911,-0.24988 -1.03677,-0.3738 -1.46296,-0.3738c-1.25844,0 -1.88715,0.99445 -1.88715,2.98438zM338.43556,243.90104v-17.68158h-3.52443c-0.56524,0 -0.96423,-0.71234 -1.19698,-2.13602c-0.09471,-0.6932 -0.14106,-1.40251 -0.14106,-2.12795c0,-0.73148 0.04635,-1.44382 0.14106,-2.13702c0.23275,-1.42368 0.63173,-2.13602 1.19698,-2.13602h16.6841c0.55919,0 0.93904,0.71234 1.13853,2.13602c0.13299,0.6932 0.19949,1.40554 0.19949,2.13702c0,0.72544 -0.0665,1.43475 -0.19949,2.12795c-0.1995,1.42368 -0.57934,2.13602 -1.13853,2.13602h-3.32493v17.68158h3.47405c0.5602,0 0.95617,0.70932 1.18891,2.12795c0.13299,0.69824 0.1995,1.4136 0.1995,2.14508c0,0.72544 -0.06651,1.43475 -0.1995,2.12795c-0.23275,1.42468 -0.62871,2.13602 -1.18891,2.13602h-16.73347c-0.56524,0 -0.94811,-0.71134 -1.1476,-2.13602c-0.13299,-0.6932 -0.1995,-1.40251 -0.1995,-2.12795c0,-0.73148 0.0665,-1.44684 0.1995,-2.14508c0.1995,-1.41863 0.58236,-2.12795 1.1476,-2.12795zM366.58663,252.1388c0,0.23274 -1.19194,0.34962 -3.57481,0.34962c-3.3078,-0.09975 -4.9622,-0.28312 -4.9622,-0.54912v-16.0846h-1.29672c-0.85944,0 -1.42166,-0.72947 -1.68766,-2.18639c-0.0665,-0.4272 -0.09975,-0.85642 -0.09975,-1.28866c0,-1.02569 0.1995,-2.05038 0.59849,-3.07606c0.59848,-1.45693 1.52644,-2.18639 2.78488,-2.18639c1.25743,0 2.38286,0.29924 3.3743,0.89773c0.99244,0.59345 1.6544,1.18589 1.9869,1.77934c2.08362,-1.78438 4.56422,-2.67707 7.44079,-2.67707c2.8816,0 4.96825,0.77884 6.25893,2.33652c1.29168,1.55164 1.93752,4.09772 1.93752,7.63927v14.89669c0,0.39899 -1.41662,0.59849 -4.24785,0.59849c-2.8272,0 -4.23979,-0.1995 -4.23979,-0.59849v-14.34858c0,-1.65642 -0.57934,-2.48463 -1.73803,-2.48463c-0.33249,0 -0.79799,0.14106 -1.39647,0.42318c-0.59244,0.28313 -0.97229,0.49068 -1.13853,0.62367zM394.24501,261.4748c0,0.23275 -1.41662,0.34861 -4.24785,0.34861c-2.8272,0 -4.23979,-0.11587 -4.23979,-0.34861v-25.57073h-1.68766c-0.79798,0 -1.3471,-0.72846 -1.64634,-2.18639c-0.09975,-0.45944 -0.14912,-1.05289 -0.14912,-1.77934c0,-0.73148 0.23275,-1.59295 0.69824,-2.58438c0.66499,-1.45793 1.72292,-2.1864 3.17581,-2.1864c0.96423,0 1.85088,0.22368 2.65994,0.67305c0.80906,0.44332 1.37128,0.85642 1.68765,1.23828c0.31536,0.37682 0.47355,0.59849 0.47355,0.66499c2.21662,-1.71788 4.61662,-2.57632 7.19898,-2.57632c2.58236,0 4.79898,0.9995 6.64986,3.0005c1.85692,2.001 2.78488,5.09621 2.78488,9.28562c0,4.18941 -0.92795,7.43474 -2.78488,9.73398c-1.85088,2.30024 -4.20049,3.44987 -7.04885,3.44987c-1.29168,0 -2.4665,-0.06651 -3.52443,-0.1995zM396.28128,235.8547c-0.56524,0 -1.11133,0.18237 -1.63727,0.54811v8.78689c0.55919,0.0665 1.0136,0.09975 1.36322,0.09975c0.34861,0 0.62368,0 0.82317,0c1.35214,-0.13299 2.02821,-1.87002 2.02821,-5.21208c0,-2.8151 -0.85945,-4.22266 -2.57733,-4.22266zM410.87873,227.90711c0,-0.35969 1.42166,-0.54004 4.26498,-0.54004c2.84836,0 4.27203,0.18035 4.27203,0.54004v14.49771c0,1.65742 0.52998,2.48563 1.58791,2.48563c0.79798,0 1.6937,-0.3466 2.68514,-1.03879v-15.94455c0,-0.32645 1.40554,-0.49067 4.2146,-0.49067c2.81511,0 4.22367,0.16422 4.22367,0.49067v16.28511h1.29672c1.12443,0 1.68664,1.07808 1.68664,3.23324c0,1.09219 -0.23275,2.2005 -0.69824,3.32594c-0.65894,1.45693 -1.55163,2.18538 -2.67606,2.18538c-2.22267,0 -3.86296,-0.91082 -4.9219,-2.7345l-0.04937,0.05038c-2.01713,1.78941 -4.18437,2.68412 -6.50074,2.68412c-3.2141,0 -5.58387,-0.80302 -7.10729,-2.41007c-1.51839,-1.60705 -2.27808,-4.26498 -2.27808,-7.97177zM449.56177,252.1388c0,0.39899 -1.39143,0.59849 -4.17329,0.59849c-3.30881,-0.13299 -4.96322,-0.34861 -4.96322,-0.64786v-17.57377h-2.535c-0.66499,0 -0.99748,-1.14156 -0.99748,-3.42468c0,-0.59849 0.05744,-1.32695 0.17431,-2.18639c0.11587,-0.86448 0.35768,-1.29672 0.72342,-1.29672h2.63475v-4.36473c0,-0.66499 1.39648,-0.99748 4.18941,-0.99748c2.79899,0 4.19848,0.26599 4.19848,0.79798v3.17582l0.04937,1.38841h4.22366c0.55919,0 0.83929,1.1607 0.83929,3.48311c0,2.31637 -0.2801,3.47505 -0.83929,3.47505h-3.52443z" fill="#ffffff" stroke="none" stroke-width="1" stroke-linecap="square"/><path d="M330.54918,141.51637l8.26648,0.03038c8.02335,0.06078 8.26649,0.09117 8.78314,0.45587c1.85388,1.4284 1.8235,3.76855 -0.12157,5.07537c-0.57744,0.39509 -0.85095,0.42548 -3.31267,0.42548h-2.67445v23.73575v23.70534h2.64406c3.00876,0 3.73815,0.24313 4.43716,1.48919c0.79019,1.398 0.39511,3.00876 -0.97252,4.01167c-0.51666,0.39509 -0.75979,0.39509 -8.78314,0.45587l-8.26648,0.06079l-0.85096,-0.42548c-0.88136,-0.48627 -1.67154,-1.64113 -1.67154,-2.58328c0,-0.66861 0.7598,-2.03622 1.36762,-2.49209c0.45588,-0.3647 0.85095,-0.39509 3.31266,-0.45587l2.79602,-0.06079v-23.70534v-23.70534l-2.79602,-0.0608c-2.46171,-0.06078 -2.85679,-0.09117 -3.31266,-0.45585c-0.60782,-0.42548 -1.36762,-1.7931 -1.36762,-2.49211c0,-0.94215 0.75978,-2.1274 1.67154,-2.58327z" fill="none" stroke="#6900b4" stroke-width="10" stroke-linecap="butt"/><path d="M311.46333,154.79746h21.39559v16.44179v16.41141l-21.69952,-0.03039c-21.51716,-0.06078 -21.69952,-0.0608 -22.36813,-0.45588c-0.36471,-0.21275 -0.85095,-0.699 -1.0637,-1.12448l-0.42548,-0.72939v-14.07126c0,-13.5242 0.0304,-14.07127 0.3647,-14.77026c0.45588,-0.82056 0.72939,-1.0941 1.64114,-1.42839c0.57744,-0.18236 4.71067,-0.24313 22.15538,-0.24313zM303.80467,162.42574c-0.48627,0.30391 -1.00292,1.36762 -3.82932,7.62825c-3.52542,7.81061 -3.70776,8.32727 -2.91757,9.17823c0.88136,0.94215 2.24897,0.97252 3.03915,0.03038c0.24313,-0.30391 0.60782,-0.97252 0.79018,-1.48918l0.3343,-0.94215h3.64697h3.64699l0.42548,1.09411c0.54705,1.48918 1.12449,2.00584 2.21857,2.00584c0.699,0 0.91174,-0.09118 1.36762,-0.60783c0.39509,-0.42548 0.54705,-0.79017 0.54705,-1.27644c0,-0.48627 -0.88136,-2.73523 -2.8872,-7.20279c-3.79893,-8.54 -3.61659,-8.1753 -4.22442,-8.47921c-0.699,-0.39509 -1.4588,-0.3647 -2.1578,0.06077z" fill="none" stroke="#6900b4" stroke-width="10" stroke-linecap="butt"/><path d="M304.92915,168.26091c0.12157,0.12156 1.97544,4.6803 1.97544,4.83226c0,0.12156 -0.91174,0.18233 -2.06662,0.18233c-1.58035,0 -2.03623,-0.06078 -1.97544,-0.24313c0.06077,-0.12156 0.51667,-1.24604 1.06371,-2.52249c0.54705,-1.24606 1.00291,-2.27937 1.00291,-2.24898z" fill="none" stroke="#6900b4" stroke-width="10" stroke-linecap="butt"/><path d="M344.25574,171.23928v-16.47218l6.32142,0.06078c5.95673,0.06078 6.35183,0.09118 6.95965,0.45588c0.36469,0.21275 0.85096,0.699 1.0637,1.12448l0.42547,0.72939v14.10164v14.07127l-0.42547,0.72939c-0.21274,0.42548 -0.69901,0.91174 -1.0637,1.12448c-0.63822,0.39509 -1.00292,0.3951 -6.95965,0.45587l-6.32142,0.06078z" fill="none" stroke="#6900b4" stroke-width="10" stroke-linecap="butt"/><path d="M330.54918,141.51637l8.26648,0.03038c8.02335,0.06078 8.26649,0.09117 8.78314,0.45587c1.85388,1.4284 1.8235,3.76855 -0.12157,5.07537c-0.57744,0.39509 -0.85095,0.42548 -3.31267,0.42548h-2.67445v23.73575v23.70534h2.64406c3.00876,0 3.73815,0.24313 4.43716,1.48919c0.79019,1.398 0.39511,3.00876 -0.97252,4.01167c-0.51666,0.39509 -0.75979,0.39509 -8.78314,0.45587l-8.26648,0.06079l-0.85096,-0.42548c-0.88136,-0.48627 -1.67154,-1.64113 -1.67154,-2.58328c0,-0.66861 0.7598,-2.03622 1.36762,-2.49209c0.45588,-0.3647 0.85095,-0.39509 3.31266,-0.45587l2.79602,-0.06079v-23.70534v-23.70534l-2.79602,-0.0608c-2.46171,-0.06078 -2.85679,-0.09117 -3.31266,-0.45585c-0.60782,-0.42548 -1.36762,-1.7931 -1.36762,-2.49211c0,-0.94215 0.75978,-2.1274 1.67154,-2.58327z" fill="#ffffff" stroke="none" stroke-width="1" stroke-linecap="butt"/><path d="M331.84157,154.79746v32.85319c0,0 -42.38166,-0.09119 -43.05027,-0.48627c-0.36471,-0.21275 -0.85096,-0.69901 -1.0637,-1.12449l-0.42548,-0.72939v-14.07127c0,-13.5242 0.03039,-14.07126 0.36469,-14.77025c0.45588,-0.82056 0.72939,-1.0941 1.64113,-1.42839c0.57744,-0.18236 42.53363,-0.24313 42.53363,-0.24313zM303.80467,162.42574c-0.48627,0.30391 -1.00292,1.36762 -3.82932,7.62825c-3.52542,7.81061 -3.70776,8.32727 -2.91757,9.17823c0.88136,0.94215 2.24897,0.97252 3.03915,0.03038c0.24313,-0.30391 0.60782,-0.97252 0.79018,-1.48918l0.3343,-0.94215h3.64697h3.64699l0.42548,1.09411c0.54705,1.48918 1.12449,2.00584 2.21857,2.00584c0.699,0 0.91174,-0.09118 1.36762,-0.60783c0.39509,-0.42548 0.54705,-0.79017 0.54705,-1.27644c0,-0.48627 -0.88136,-2.73523 -2.8872,-7.20279c-3.79893,-8.54 -3.61659,-8.1753 -4.22442,-8.47921c-0.699,-0.39509 -1.4588,-0.3647 -2.1578,0.06077z" fill="#ffffff" stroke="none" stroke-width="1" stroke-linecap="butt"/><path d="M304.92915,168.26091c0.12157,0.12156 1.97544,4.6803 1.97544,4.83226c0,0.12156 -0.91174,0.18233 -2.06662,0.18233c-1.58035,0 -2.03623,-0.06078 -1.97544,-0.24313c0.06077,-0.12156 0.51667,-1.24604 1.06371,-2.52249c0.54705,-1.24606 1.00291,-2.27937 1.00291,-2.24898z" fill="#ffffff" stroke="none" stroke-width="1" stroke-linecap="butt"/><path d="M345.27309,154.7671c0,0 11.65589,0.15196 12.26371,0.51666c0.36469,0.21275 0.85096,0.699 1.0637,1.12448l0.42547,0.72939v14.10164v14.07127l-0.42547,0.72939c-0.21274,0.42548 -0.69901,0.91174 -1.0637,1.12448c-0.63822,0.39509 -12.26371,0.51666 -12.26371,0.51666z" fill="#ffffff" stroke="none" stroke-width="1" stroke-linecap="butt"/><path d="M231.19985,187.30138c0,0 -16.73896,2.00486 -17.30255,1.85618c-0.32117,-0.07787 -0.76306,-0.29201 -0.97072,-0.50155l-0.40713,-0.35288l-0.9485,-7.66238l-0.95056,-7.67893l0.3088,-0.4415c0.15031,-0.25385 0.52664,-0.56928 0.81913,-0.72312c0.48681,-0.2619 17.23289,-2.41886 17.23289,-2.41886z" data-paper-data="{&quot;index&quot;:null}" fill="none" stroke="#6900b4" stroke-width="7.5" stroke-linecap="butt"/><path d="M226.6334,169.66898c0,0 17.73606,-2.11149 18.27203,-1.9762c0.32117,0.07787 0.76306,0.29201 0.97072,0.50155l0.40713,0.35288l0.95056,7.67892l0.9485,7.66238l-0.3088,0.4415c-0.15031,0.25385 -0.52663,0.56928 -0.81912,0.72312c-0.51032,0.28161 -18.20238,2.53887 -18.20238,2.53887z" fill="none" stroke="#6900b4" stroke-width="7.5" stroke-linecap="butt"/><path d="M227.48933,169.56303c0,0 16.88013,-2.00554 17.4161,-1.87025c0.32117,0.07787 0.76306,0.29201 0.97072,0.50155l0.40713,0.35288l0.95056,7.67892l0.9485,7.66238l-0.3088,0.4415c-0.15031,0.25385 -0.52663,0.56928 -0.81912,0.72312c-0.51032,0.28161 -17.34644,2.43292 -17.34644,2.43292z" fill="#ffffff" stroke="none" stroke-width="1" stroke-linecap="butt"/><path d="M230.34391,187.40733c0,0 -15.88302,1.8989 -16.44661,1.75023c-0.32117,-0.07787 -0.76306,-0.29201 -0.97072,-0.50155l-0.40713,-0.35288l-0.9485,-7.66238l-0.95056,-7.67893l0.3088,-0.4415c0.15031,-0.25385 0.52664,-0.56928 0.81913,-0.72312c0.4868,-0.2619 16.37695,-2.31291 16.37695,-2.31291z" data-paper-data="{&quot;index&quot;:null}" fill="#ffffff" stroke="none" stroke-width="1" stroke-linecap="butt"/><path d="M199.59614,171.21271l-0.88246,-7.12888l7.12888,-0.88246z" fill="none" stroke="#6900b4" stroke-width="7.5" stroke-linecap="butt"/><path d="M260.7736,185.23273l0.88247,7.12888l-7.12888,0.88246z" data-paper-data="{&quot;index&quot;:null}" fill="none" stroke="#6900b4" stroke-width="7.5" stroke-linecap="butt"/><path d="M199.59615,171.21271l-0.88246,-7.12888l7.12888,-0.88246z" fill="#ffffff" stroke="none" stroke-width="0" stroke-linecap="butt"/><path d="M260.7736,185.23273l0.88247,7.12888l-7.12888,0.88246z" data-paper-data="{&quot;index&quot;:null}" fill="#ffffff" stroke="none" stroke-width="0" stroke-linecap="butt"/><path d="M210.2401,198.72626l-7.12888,0.88247l-0.88247,-7.12888z" data-paper-data="{&quot;index&quot;:null}" fill="none" stroke="#6900b4" stroke-width="7.5" stroke-linecap="butt"/><path d="M250.12965,157.71915l7.12888,-0.88247l0.88246,7.12888z" data-paper-data="{&quot;index&quot;:null}" fill="none" stroke="#6900b4" stroke-width="7.5" stroke-linecap="butt"/><path d="M210.2401,198.72626l-7.12888,0.88247l-0.88247,-7.12888z" data-paper-data="{&quot;index&quot;:null}" fill="#ffffff" stroke="none" stroke-width="0" stroke-linecap="butt"/><path d="M250.12965,157.71915l7.12888,-0.88247l0.88246,7.12888z" data-paper-data="{&quot;index&quot;:null}" fill="#ffffff" stroke="none" stroke-width="0" stroke-linecap="butt"/><path d="M227.89656,172.46063c0.45439,-0.35995 0.99255,-0.44826 1.51834,-0.23134c0.45376,0.16075 0.32049,-0.05695 3.73441,5.61626c1.79894,2.96623 2.6101,4.48973 2.65242,4.83159c0.04232,0.34186 -0.03468,0.614 -0.27541,0.94751c-0.27552,0.40289 -0.4196,0.48804 -0.91102,0.54887c-0.76916,0.09521 -1.25473,-0.25918 -1.76891,-1.2585l-0.36081,-0.68976l-2.57767,0.32323l-2.57867,0.31503l-0.1308,0.64218c-0.08324,0.37909 -0.30277,0.93054 -0.44726,1.16535c-0.47353,0.7311 -1.44314,0.82561 -2.14475,0.23997c-0.62957,-0.52948 -0.5572,-0.93222 1.24151,-6.73005c1.44218,-4.64735 1.73319,-5.46438 2.0486,-5.72035z" data-paper-data="{&quot;noHover&quot;:false,&quot;origItem&quot;:[&quot;Path&quot;,{&quot;applyMatrix&quot;:true,&quot;segments&quot;:[[[337.25594,198.23165],[0,0],[-1.27458,0.7966]],[[327.21866,218.22657],[7.40846,-16.41018],[-9.24068,20.47288]],[[319.57122,242.28421],[-2.0712,-2.23052],[2.31018,2.4695]],[[327.53732,242.36387],[-2.0712,2.46948],[0.6373,-0.7966]],[[329.6085,238.46047],[-0.47798,1.35426],[0,0]],[330.48478,235.99097],[340.0441,235.99097],[349.60342,235.99097],[[350.71868,238.85877],[0,0],[1.4339,3.9034]],[[356.53394,244.11641],[-2.8678,0],[1.8322,0]],[[360.11868,242.52319],[-1.19492,1.35424],[1.0356,-1.11526]],[[361.55258,239.17743],[0,1.27458],[0,-1.27458]],[[353.98478,220.29777],[5.25764,11.71018],[-9.95762,-22.38474]],[[342.91188,198.07235],[1.59322,0.7966],[-1.8322,-1.0356]],[[337.25594,198.23167],[1.8322,-1.11524],[0,0]]],&quot;closed&quot;:true,&quot;fillColor&quot;:[0,0,0,1]}]}" fill="#6900b4" stroke="none" stroke-width="0.5" stroke-linecap="butt"/><path d="M229.2015,176.49121c0.09604,0.07488 1.79609,3.11844 1.8093,3.22527c0.01058,0.08546 -0.6251,0.20754 -1.437,0.30804c-1.11102,0.13753 -1.4368,0.13447 -1.40994,0.00098c0.03215,-0.09075 0.25478,-0.92096 0.52828,-1.86593c0.27615,-0.92361 0.50671,-1.68972 0.50936,-1.66835z" fill="#ffffff" stroke="none" stroke-width="1" stroke-linecap="butt"/><path d="M405.89868,167.44753c0.78999,-5.55025 5.92977,-9.40921 11.48002,-8.61923c5.55025,0.78999 9.40923,5.92978 8.61924,11.48003c-0.78999,5.55025 -5.92978,9.40921 -11.48003,8.61923c-5.55025,-0.78999 -9.40921,-5.92977 -8.61922,-11.48003z" fill="none" stroke="#6900b4" stroke-width="7.5" stroke-linecap="butt"/><path d="M393.4609,183.47527c0.78999,-5.55025 5.92978,-9.40921 11.48003,-8.61922c5.55025,0.78999 9.40921,5.92977 8.61923,11.48002c-0.78999,5.55025 -5.92977,9.40922 -11.48003,8.61923c-5.55025,-0.78999 -9.40922,-5.92978 -8.61924,-11.48003z" fill="none" stroke="#6900b4" stroke-width="7.5" stroke-linecap="butt"/><path d="M413.37054,186.30909c0.78999,-5.55025 5.92977,-9.40922 11.48003,-8.61924c5.55025,0.78999 9.40922,5.92978 8.61924,11.48002c-0.78999,5.55025 -5.92977,9.40921 -11.48003,8.61923c-5.55025,-0.78999 -9.40921,-5.92977 -8.61923,-11.48002z" fill="none" stroke="#6900b4" stroke-width="7.5" stroke-linecap="butt"/><path d="M405.89868,167.44753c0.78999,-5.55025 5.92977,-9.40921 11.48002,-8.61923c5.55025,0.78999 9.40923,5.92978 8.61924,11.48003c-0.78999,5.55025 -5.92978,9.40921 -11.48003,8.61923c-5.55025,-0.78999 -9.40921,-5.92977 -8.61922,-11.48003z" fill="#00ff01" stroke="none" stroke-width="NaN" stroke-linecap="butt"/><path d="M393.46089,183.47527c0.78999,-5.55025 5.92978,-9.40922 11.48003,-8.61924c5.55025,0.78999 9.40921,5.92978 8.61922,11.48002c-0.78999,5.55025 -5.92978,9.40922 -11.48003,8.61923c-5.55025,-0.78999 -9.40921,-5.92978 -8.61922,-11.48003z" fill="#ff0000" stroke="none" stroke-width="NaN" stroke-linecap="butt"/><path d="M413.37054,186.30909c0.78999,-5.55025 5.92977,-9.40922 11.48003,-8.61924c5.55025,0.78999 9.40922,5.92978 8.61924,11.48002c-0.78999,5.55025 -5.92977,9.40921 -11.48003,8.61923c-5.55025,-0.78999 -9.40921,-5.92977 -8.61923,-11.48002z" fill="#0071ff" stroke="none" stroke-width="NaN" stroke-linecap="butt"/><path d="M175.35136,137.67141c0,-6.39897 5.91545,-12.49566 13.1192,-12.49566c28.93252,0 219.72832,0 272.60996,0c8.61359,0 13.56814,4.64378 13.56814,12.24625c0,30.59212 0,109.0924 0,125.70487c0,6.03964 -4.85913,11.69754 -13.31873,11.69754c-52.46667,0 -243.42599,0 -272.60996,0c-7.3279,0 -13.36861,-4.5235 -13.36861,-11.94695c0,-30.16113 0,-108.19342 0,-125.20604z" data-paper-data="{&quot;index&quot;:null}" fill="none" stroke="url(#color-1)" stroke-width="10" stroke-linecap="butt"/></g></g></svg>
