<svg xmlns="http://www.w3.org/2000/svg" width="309.297" height="159.649" viewBox="0 0 309.297 159.649"><defs><linearGradient x1="240" y1="105.176" x2="240" y2="254.824" gradientUnits="userSpaceOnUse" id="a"><stop offset="0" stop-color="#203f6b"/><stop offset="1" stop-color="#4c97ff"/></linearGradient></defs><g stroke-miterlimit="10"><path d="M5 140.024v-125C5 9.754 10.58 5 17.449 5h271.5c9.708 0 15.349 5.021 15.349 10.524v127c0 7.532-4.306 12.124-9.849 12.124h-274.5C10.484 154.648 5 149.029 5 140.024" fill="#517af5"/><path d="m209.657 21.288-61.154-6.604-56.792 18.815-49.07-5.1-37.64 17.68V18.024c0-5.027 8.765-12.592 18.448-12.592h252.678zm0 0" fill="#5e85f9"/><path d="M5 153.651V73.037l53.094-23.83 48.354 19.452 56.936-30.627 57.358 10.093 41.151-26.298 42.405 8.093v123.73zm0 0" fill="#3e68e8"/><path d="M5 149.161v-44.86l31.645-26.05 62.32 23.477 68.909-34.303 41.894 22.198 47.636-23.4 46.894 5.879v77.06zm0 0" fill="#264fc9"/><path d="M5 154.648V134.73l45.113-27.048 55.337 23.975 49.454-25.822 57.33 16.146 44.172-24.332 47.892 20.844v36.155zm0 0" fill="#1c43b6"/><path d="M100.401 48.061c.233.31.418.583.403.498l4.568 23.532a1.165 1.165 0 0 1-.92 1.363.7.7 0 0 1-.359-.057l-.255-.13-15.959-5.8 1.014 5.216c.863 4.448-2.056 8.933-6.4 9.778L62.16 86.408c-4.643.693-8.968-2.225-9.823-6.628l-3.503-18.048c-.898-4.624 2.004-8.923 6.628-9.822l20.333-3.948c4.424-.858 8.702 2.081 9.592 6.673l1.03 5.3 12.327-11.876c.544-.491 1.218-.486 1.659.002zm0 0" fill="none" stroke-opacity=".302" stroke="#000" stroke-width="7.5" stroke-linejoin="round"/><path d="M100.401 48.061c.233.31.418.583.403.498l4.568 23.532a1.165 1.165 0 0 1-.92 1.363.7.7 0 0 1-.359-.057l-.255-.13-15.959-5.8 1.014 5.216c.863 4.448-2.056 8.933-6.4 9.778L62.16 86.408c-4.643.693-8.968-2.225-9.823-6.628l-3.503-18.048c-.898-4.624 2.004-8.923 6.628-9.822l20.333-3.948c4.424-.858 8.702 2.081 9.592 6.673l1.03 5.3 12.327-11.876c.544-.491 1.218-.486 1.659.002zm0 0" fill="#fff"/><path d="M118.798 86.344a.738.738 0 0 1 .581-1.26l14.907 1.188.12.02a.74.74 0 0 1 .538.894l-3.514 14.207a.74.74 0 0 1-.636.557.74.74 0 0 1-.74-.408l-2.105-4.256c-.854.49-1.858.93-2.962 1.287-2.877.93-6.478 1.31-9.961.572-3.517-.742-6.914-2.62-9.343-6.2-.886-1.305-1.639-2.835-2.218-4.615a.739.739 0 0 1 1.22-.787c3.764 3.995 7.334 5.285 10.513 5.216 2.844-.063 5.419-1.209 7.56-2.486zm0 0" fill="none" stroke-opacity=".302" stroke="#000" stroke-width="7"/><path d="M118.798 86.344a.738.738 0 0 1 .581-1.26l14.907 1.188.12.02a.74.74 0 0 1 .538.894l-3.514 14.207a.74.74 0 0 1-.636.557.74.74 0 0 1-.74-.408l-2.105-4.256c-.854.49-1.858.93-2.962 1.287-2.877.93-6.478 1.31-9.961.572-3.517-.742-6.914-2.62-9.343-6.2-.886-1.305-1.639-2.835-2.218-4.615a.739.739 0 0 1 1.22-.787c3.764 3.995 7.334 5.285 10.513 5.216 2.844-.063 5.419-1.209 7.56-2.486zm0 0" fill="#fff"/><path d="M230.306 33.413c-.546-.896-1.46-1.534-2.545-1.653l-34.012-3.704c-1.884-.204-3.563 1.234-3.753 3.215l-.412 4.282c-.603-.182-1.229-.269-1.815-.223l.515-5.366c.23-2.4 2.267-4.143 4.549-3.895l36.203 3.942c1.533.167 2.788 1.192 3.376 2.572" fill="none" stroke-opacity=".302" stroke="#000" stroke-width="7.5"/><path d="M188.284 29.964c.23-2.4 2.267-4.143 4.549-3.895l36.203 3.942c1.533.167 2.788 1.192 3.376 2.572-.751.17-1.46.454-2.106.83-.546-.896-1.46-1.534-2.545-1.653l-34.012-3.704c-1.884-.204-3.563 1.234-3.753 3.215l-.412 4.282c-.603-.182-1.229-.269-1.815-.223zm0 0" fill="#fff" stroke="#fff"/><path d="m180.331 35.801 54.29-4.088a6.213 6.213 0 0 1 6.663 5.73l2.858 37.927a6.215 6.215 0 0 1-5.733 6.664l-7.357.554a5.4 5.4 0 0 0-.165-2.667l5.68-.427a5.13 5.13 0 0 0 4.727-5.5l-2.618-34.766a5.127 5.127 0 0 0-5.497-4.727l-51.005 3.841a5.12 5.12 0 0 0-4.01 2.472 7.9 7.9 0 0 0-3.303-.661 6.22 6.22 0 0 1 5.47-4.352zm0 0" fill="none" stroke-opacity=".302" stroke="#000" stroke-width="7.5"/><path d="m180.331 35.801 54.29-4.088a6.213 6.213 0 0 1 6.663 5.73l2.858 37.927a6.215 6.215 0 0 1-5.733 6.664l-10.146.554a5.4 5.4 0 0 0-.164-2.667l8.468-.427a5.13 5.13 0 0 0 4.727-5.5l-2.618-34.766a5.127 5.127 0 0 0-5.497-4.727l-51.005 3.841a5.12 5.12 0 0 0-4.01 2.472 7.9 7.9 0 0 0-3.303-.661 6.22 6.22 0 0 1 5.47-4.352zm0 0" fill="#fff" stroke="#fff"/><path d="M156.245 96.5a7.21 7.21 0 0 1-6.237-8.071l5.607-43.783a7.213 7.213 0 0 1 8.07-6.239l62.67 8.025a7.21 7.21 0 0 1 6.239 8.072l-5.606 43.783a7.214 7.214 0 0 1-8.072 6.239zm61.17 4.706a5.95 5.95 0 0 0 6.657-5.146l5.14-40.135a5.95 5.95 0 0 0-5.147-6.659l-58.878-7.539a5.95 5.95 0 0 0-6.659 5.146l-5.139 40.135a5.95 5.95 0 0 0 5.146 6.658zm0 0" fill="none" stroke-opacity=".302" stroke="#000" stroke-width="7.5"/><path d="m201.853 87.01-4.42-5.719a5.803 5.803 0 0 1-8.318-6.443 5.805 5.805 0 0 1-5.474-7.089 5.802 5.802 0 0 1-4.143-9.67l-.426-.551a1.057 1.057 0 0 1 .19-1.48 1.053 1.053 0 0 1 1.48.188l.426.55a5.805 5.805 0 0 1 8.316 6.446 5.807 5.807 0 0 1 5.479 7.084q.273.011.55.045a5.806 5.806 0 0 1 3.589 9.628l4.42 5.719a1.056 1.056 0 0 1-1.67 1.292zm0 0" fill="none" stroke-opacity=".302" stroke="#000" stroke-width="6"/><path d="m201.853 87.01-4.42-5.719a5.803 5.803 0 0 1-8.318-6.443 5.805 5.805 0 0 1-5.474-7.089 5.802 5.802 0 0 1-4.143-9.67l-.426-.551a1.057 1.057 0 0 1 .19-1.48 1.053 1.053 0 0 1 1.48.188l.426.55a5.805 5.805 0 0 1 8.316 6.446 5.807 5.807 0 0 1 5.479 7.084q.273.011.55.045a5.806 5.806 0 0 1 3.589 9.628l4.42 5.719a1.056 1.056 0 0 1-1.67 1.292m0 0" fill="#fff"/><path d="M156.245 96.5a7.21 7.21 0 0 1-6.237-8.071l5.607-43.783a7.213 7.213 0 0 1 8.07-6.239l62.67 8.025a7.21 7.21 0 0 1 6.239 8.072l-5.606 43.783a7.214 7.214 0 0 1-8.072 6.239zm61.17 4.706a5.95 5.95 0 0 0 6.657-5.146l5.14-40.135a5.95 5.95 0 0 0-5.147-6.659l-58.878-7.539a5.95 5.95 0 0 0-6.659 5.146l-5.139 40.135a5.95 5.95 0 0 0 5.146 6.658zm0 0" fill="#fff" stroke="#fff"/><path d="M134.008 23.622a3.88 3.88 0 0 0 3.677-1.221l2.094-2.353c.991-1.11 2.814-.197 2.514 1.262l-.629 3.083a3.88 3.88 0 0 0 1.22 3.677l2.352 2.093c1.11.99.197 2.813-1.261 2.517l-3.086-.63a3.88 3.88 0 0 0-3.673 1.22l-2.095 2.35c-.989 1.111-2.811.198-2.515-1.26l.63-3.084a3.88 3.88 0 0 0-1.222-3.677l-2.351-2.092c-1.112-.991-.197-2.814 1.261-2.516zm0 0" fill="none" stroke-opacity=".302" stroke="#000" stroke-width="6"/><path d="M134.008 23.622a3.88 3.88 0 0 0 3.677-1.221l2.094-2.353c.991-1.11 2.814-.197 2.514 1.262l-.629 3.083a3.88 3.88 0 0 0 1.22 3.677l2.352 2.093c1.11.99.197 2.813-1.261 2.517l-3.086-.63a3.88 3.88 0 0 0-3.673 1.22l-2.095 2.35c-.989 1.111-2.811.198-2.515-1.26l.63-3.084a3.88 3.88 0 0 0-1.222-3.677l-2.351-2.092c-1.112-.991-.197-2.814 1.261-2.516zm0 0" fill="#fff"/><path d="M118.055 46.769a2.77 2.77 0 0 0 1.357-2.417l-.026-2.252c-.012-1.066 1.394-1.46 1.938-.546l1.153 1.935a2.78 2.78 0 0 0 2.417 1.358l2.252-.026c1.064-.012 1.459 1.393.544 1.938l-1.934 1.153a2.77 2.77 0 0 0-1.355 2.415l.024 2.253c.012 1.064-1.393 1.46-1.938.545l-1.153-1.936a2.78 2.78 0 0 0-2.417-1.355l-2.253.026c-1.064.012-1.458-1.392-.543-1.938zm0 0" fill="none" stroke-opacity=".302" stroke="#000" stroke-width="5"/><path d="M118.055 46.769a2.77 2.77 0 0 0 1.357-2.417l-.026-2.252c-.012-1.066 1.394-1.46 1.938-.546l1.153 1.935a2.78 2.78 0 0 0 2.417 1.358l2.252-.026c1.064-.012 1.459 1.393.544 1.938l-1.934 1.153a2.77 2.77 0 0 0-1.355 2.415l.024 2.253c.012 1.064-1.393 1.46-1.938.545l-1.153-1.936a2.78 2.78 0 0 0-2.417-1.355l-2.253.026c-1.064.012-1.458-1.392-.543-1.938zm0 0" fill="#fff"/><path d="M257.877 105.065c-1.362.334-2.287-1.35-1.277-2.322l2.136-2.055a3.66 3.66 0 0 0 1.018-3.504l-.706-2.88c-.332-1.36 1.35-2.288 2.32-1.278l2.058 2.136a3.65 3.65 0 0 0 3.502 1.016l2.88-.706c1.362-.331 2.288 1.35 1.279 2.322l-2.138 2.055a3.65 3.65 0 0 0-1.015 3.506l.705 2.88c.335 1.36-1.348 2.288-2.32 1.278l-2.055-2.138a3.66 3.66 0 0 0-3.506-1.016zm0 0" fill="none" stroke-opacity=".302" stroke="#000" stroke-width="6"/><path d="M257.877 105.065c-1.362.334-2.287-1.35-1.277-2.322l2.136-2.055a3.66 3.66 0 0 0 1.018-3.504l-.706-2.88c-.332-1.36 1.35-2.288 2.32-1.278l2.058 2.136a3.65 3.65 0 0 0 3.502 1.016l2.88-.706c1.362-.331 2.288 1.35 1.279 2.322l-2.138 2.055a3.65 3.65 0 0 0-1.015 3.506l.705 2.88c.335 1.36-1.348 2.288-2.32 1.278l-2.055-2.138a3.66 3.66 0 0 0-3.506-1.016zm0 0" fill="#fff"/><path d="M242.405 107.258c.348-.762 1.482-.574 1.563.26l.173 1.766a2.19 2.19 0 0 0 1.27 1.777l1.612.735c.762.348.573 1.482-.26 1.564l-1.766.173a2.19 2.19 0 0 0-1.775 1.269l-.736 1.612c-.348.763-1.48.574-1.563-.26l-.174-1.765a2.19 2.19 0 0 0-1.268-1.776l-1.614-.737c-.763-.346-.574-1.48.26-1.562l1.765-.173a2.19 2.19 0 0 0 1.777-1.269zm0 0" fill="none" stroke-opacity=".302" stroke="#000" stroke-width="5"/><path d="M242.405 107.258c.348-.762 1.482-.574 1.563.26l.173 1.766a2.19 2.19 0 0 0 1.27 1.777l1.612.735c.762.348.573 1.482-.26 1.564l-1.766.173a2.19 2.19 0 0 0-1.775 1.269l-.736 1.612c-.348.763-1.48.574-1.563-.26l-.174-1.765a2.19 2.19 0 0 0-1.268-1.776l-1.614-.737c-.763-.346-.574-1.48.26-1.562l1.765-.173a2.19 2.19 0 0 0 1.777-1.269zm0 0" fill="#fff"/><path d="M269.383 75.787a2.19 2.19 0 0 0 2.183.02l1.544-.871c.732-.412 1.536.408 1.11 1.13l-.897 1.53a2.18 2.18 0 0 0-.022 2.181l.87 1.544c.413.732-.407 1.536-1.13 1.112l-1.528-.9a2.19 2.19 0 0 0-2.182-.02l-1.544.871c-.73.412-1.536-.407-1.11-1.13l.9-1.529a2.19 2.19 0 0 0 .017-2.182l-.87-1.544c-.412-.731.407-1.535 1.131-1.112zm0 0" fill="none" stroke-opacity=".302" stroke="#000" stroke-width="5"/><path d="M269.383 75.787a2.19 2.19 0 0 0 2.183.02l1.544-.871c.732-.412 1.536.408 1.11 1.13l-.897 1.53a2.18 2.18 0 0 0-.022 2.181l.87 1.544c.413.732-.407 1.536-1.13 1.112l-1.528-.9a2.19 2.19 0 0 0-2.182-.02l-1.544.871c-.73.412-1.536-.407-1.11-1.13l.9-1.529a2.19 2.19 0 0 0 .017-2.182l-.87-1.544c-.412-.731.407-1.535 1.131-1.112zm0 0" fill="#fff"/><path d="M90.351 117.671c0-6.399 5.916-12.495 13.12-12.495h272.61c8.613 0 13.568 4.643 13.568 12.246v125.705c0 6.04-4.86 11.697-13.32 11.697H103.72c-7.328 0-13.369-4.523-13.369-11.947z" fill="none" stroke="url(#a)" stroke-width="10" transform="translate(-85.351 -100.176)"/><path d="M106.507 111.569q2.693 0 4.739.757 2.045.756 2.045 2.045 0 1.29-.98 3.19-.972 1.901-1.634 1.901-.188 0-.425-.201-.238-.21-1.11-.447-.863-.237-1.49-.237-2.139 0-3.45 1.512-1.303 1.513-1.303 4.63 0 3.112 1.34 4.624 1.346 1.512 3.413 1.512.85 0 1.901-.237 1.052-.245 1.491-.684.072-.08.295-.08.224 0 .828.836.613.828 1.124 2.175.519 1.346.518 2.081 0 1.44-2.21 2.29-2.212.843-5.236.843-4.869 0-8.001-3.428-3.133-3.428-3.133-9.68 0-6.25 3.226-9.822 3.227-3.58 8.052-3.58zm12.281 12.754q-1.03-1.844-1.03-3.003t.627-1.49q2.095-.922 5.761-.922 3.673 0 5.185 1.714 1.513 1.714 1.513 5.07v5.826h1.253q.626 0 .98.742.352.735.352 2.023 0 1.29-.648 2.543t-1.75 1.253q-1.994 0-3.212-1.066a3.05 3.05 0 0 1-.843-1.073q-1.699 2.139-5.279 2.139-2.685 0-4.53-1.916-1.843-1.916-1.843-4.537 0-6.006 7.187-6.006h2.031v-.375q0-.958-.317-1.231-.31-.274-1.454-.274-1.405 0-3.983.583zm2.953 6.792q0 .806.439 1.231.44.425 1.123.425.685 0 1.24-.554v-2.838h-1.038q-1.764 0-1.764 1.736zm30.492 6.41q0 .258-3.155.258t-3.154-.33v-10.731q0-1.844-1.217-1.844-.627 0-1.656.814v11.796q0 .367-3.155.367t-3.154-.403v-12.055h-.922q-1.217 0-1.217-2.543 0-1.144.447-2.326.59-1.62 1.915-1.62t2.557.698q1.239.699 1.498 1.326 2.289-2.024 5.07-2.024 2.786 0 4.48 1.728 1.994-1.728 4.795-1.728 6.086 0 6.086 7.41v11.206q0 .26-3.154.26t-3.155-.332v-10.73q0-1.844-1.217-1.844-.663 0-1.692.814zm26.29-.807q-2.326 1.36-5.978 1.36-3.65 0-6.157-2.484-2.506-2.49-2.506-6.9 0-4.406 2.412-7.093 2.421-2.693 6.107-2.693 3.688 0 5.697 1.88t2.01 4.573q0 5.97-6.857 5.97h-2.55q0 1.108.606 1.534.612.425 1.793.425 2.585 0 4.904-1.182.036-.036.331.512.886 1.59.886 2.679 0 1.087-.698 1.419zm-4.61-10.659q0-1.548-1.512-1.548-.698 0-1.202.425-.498.424-.497 1.231v1.145h1.995q1.217 0 1.217-1.253zm16.668 11.616q-.001.26-3.356.26-3.356-.08-3.356-.296v-12.242h-.994q-.59 0-.944-.72-.352-.72-.352-1.787 0-3.982 2.362-3.982 1.656 0 2.765 1.015 1.11 1.008 1.11 2.305.77-1.512 2.08-2.413 1.311-.907 2.672-.907 2.139 0 2.586 1.102.108.295.108.871 0 .57-.353 2.045-.345 1.477-.72 2.14-.368.662-.44.662t-.684-.274q-.605-.28-1.087-.28-1.398 0-1.397 2.21zm8.847-13.352q-1.03-1.844-1.03-3.003t.627-1.49q2.095-.922 5.761-.922 3.673 0 5.185 1.714t1.512 5.07v5.826h1.254q.626 0 .979.742.353.735.353 2.023 0 1.29-.648 2.543-.649 1.253-1.75 1.253-1.994 0-3.212-1.066a3.05 3.05 0 0 1-.843-1.073q-1.699 2.139-5.279 2.139-2.685 0-4.53-1.916-1.843-1.916-1.843-4.537 0-6.006 7.187-6.006h2.031v-.375q0-.958-.317-1.231-.309-.274-1.455-.274-1.404 0-3.982.583zm2.953 6.792q0 .806.439 1.231.44.425 1.123.425.685 0 1.239-.554v-2.838h-1.037q-1.764 0-1.764 1.736z" fill="none" stroke-opacity=".353" stroke="#000" stroke-width="8" stroke-linecap="square" stroke-linejoin="round"/><path d="M106.507 111.569q2.693 0 4.739.757 2.045.756 2.045 2.045 0 1.29-.98 3.19-.972 1.901-1.634 1.901-.188 0-.425-.201-.238-.21-1.11-.447-.863-.237-1.49-.237-2.139 0-3.45 1.512-1.303 1.513-1.303 4.63 0 3.112 1.34 4.624 1.346 1.512 3.413 1.512.85 0 1.901-.237 1.052-.245 1.491-.684.072-.08.295-.08.224 0 .828.836.613.828 1.124 2.175.519 1.346.518 2.081 0 1.44-2.21 2.29-2.212.843-5.236.843-4.869 0-8.001-3.428-3.133-3.428-3.133-9.68 0-6.25 3.226-9.822 3.227-3.58 8.052-3.58m12.281 12.754q-1.03-1.844-1.03-3.003t.627-1.49q2.095-.922 5.761-.922 3.673 0 5.185 1.714 1.513 1.714 1.513 5.07v5.826h1.253q.626 0 .98.742.352.735.352 2.023 0 1.29-.648 2.543t-1.75 1.253q-1.994 0-3.212-1.066a3.05 3.05 0 0 1-.843-1.073q-1.699 2.139-5.279 2.139-2.685 0-4.53-1.916-1.843-1.916-1.843-4.537 0-6.006 7.187-6.006h2.031v-.375q0-.958-.317-1.231-.31-.274-1.454-.274-1.405 0-3.983.583m2.953 6.792q0 .806.439 1.231.44.425 1.123.425.685 0 1.24-.554v-2.838h-1.038q-1.764 0-1.764 1.736m30.492 6.41q0 .258-3.155.258t-3.154-.33v-10.731q0-1.844-1.217-1.844-.627 0-1.656.814v11.796q0 .367-3.155.367t-3.154-.403v-12.055h-.922q-1.217 0-1.217-2.543 0-1.144.447-2.326.59-1.62 1.915-1.62t2.557.698q1.239.699 1.498 1.326 2.289-2.024 5.07-2.024 2.786 0 4.48 1.728 1.994-1.728 4.795-1.728 6.086 0 6.086 7.41v11.206q0 .26-3.154.26t-3.155-.332v-10.73q0-1.844-1.217-1.844-.663 0-1.692.814zm26.29-.807q-2.326 1.36-5.978 1.36-3.65 0-6.157-2.484-2.506-2.49-2.506-6.9 0-4.406 2.412-7.093 2.421-2.693 6.107-2.693 3.688 0 5.697 1.88t2.01 4.573q0 5.97-6.857 5.97h-2.55q0 1.108.606 1.534.612.425 1.793.425 2.585 0 4.904-1.182.036-.036.331.512.886 1.59.886 2.679 0 1.087-.698 1.419m-4.61-10.659q0-1.548-1.512-1.548-.698 0-1.202.425-.498.424-.497 1.231v1.145h1.995q1.217 0 1.217-1.253m16.668 11.616q-.001.26-3.356.26-3.356-.08-3.356-.296v-12.242h-.994q-.59 0-.944-.72-.352-.72-.352-1.787 0-3.982 2.362-3.982 1.656 0 2.765 1.015 1.11 1.008 1.11 2.305.77-1.512 2.08-2.413 1.311-.907 2.672-.907 2.139 0 2.586 1.102.108.295.108.871 0 .57-.353 2.045-.345 1.477-.72 2.14-.368.662-.44.662t-.684-.274q-.605-.28-1.087-.28-1.398 0-1.397 2.21zm8.847-13.352q-1.03-1.844-1.03-3.003t.627-1.49q2.095-.922 5.761-.922 3.673 0 5.185 1.714t1.512 5.07v5.826h1.254q.626 0 .979.742.353.735.353 2.023 0 1.29-.648 2.543-.649 1.253-1.75 1.253-1.994 0-3.212-1.066a3.05 3.05 0 0 1-.843-1.073q-1.699 2.139-5.279 2.139-2.685 0-4.53-1.916-1.843-1.916-1.843-4.537 0-6.006 7.187-6.006h2.031v-.375q0-.958-.317-1.231-.309-.274-1.455-.274-1.404 0-3.982.583m2.953 6.792q0 .806.439 1.231.44.425 1.123.425.685 0 1.239-.554v-2.838h-1.037q-1.764 0-1.764 1.736" fill="#fff"/></g></svg>
