<svg xmlns="http://www.w3.org/2000/svg" width="309.297" height="159.649" viewBox="0 0 309.297 159.649"><defs><linearGradient x1="239.5" y1="105.176" x2="239.5" y2="254.824" gradientUnits="userSpaceOnUse" id="a"><stop offset="0" stop-color="#00322e"/><stop offset="1" stop-color="#00796f"/></linearGradient></defs><g stroke-miterlimit="10" style="mix-blend-mode:normal"><path d="M8.329 153.148V6.5h293.64v146.648z" fill="#008f83"/><path d="m8.098 51.794 20.503 11.837v33.217L6.624 109.32c-3.084 1.75-1.896-59.472 1.474-57.527m.599-46.527h57.535v33.218L37.464 55.092 8.697 38.484zm77.82 0h57.535v33.218l-28.768 16.608-28.767-16.608zm-38.91 58.365 28.767-16.609 28.768 16.609v33.217l-28.768 16.61-28.767-16.61zm-38.91 58.365 28.767-16.61 28.768 16.61v33.217H8.697zm77.82 0 28.767-16.61 28.768 16.61v33.217H86.517zm194.549-58.365 20.566-11.874c3.351-1.935 3.679 59.089.47 57.236l-21.036-12.145zM164.337 5.266h57.534v33.218l-28.767 16.608-28.767-16.608zm77.819 0h57.535v33.218l-28.767 16.608-28.768-16.608zm-38.91 58.365 28.768-16.609 28.767 16.609v33.217l-28.767 16.61-28.768-16.61zm-38.909 58.365 28.767-16.61 28.767 16.61v33.217h-57.534zm77.819 0 28.768-16.61 28.767 16.61v33.217h-57.535zM125.427 63.631l28.767-16.609 28.767 16.609v33.217l-28.767 16.61-28.767-16.61z" fill="#00b2a4"/><path d="M89.851 117.671c0-6.399 5.916-12.495 13.12-12.495h272.61c8.613 0 13.568 4.643 13.568 12.246v125.705c0 6.04-4.86 11.697-13.32 11.697H103.22c-7.328 0-13.369-4.523-13.369-11.947z" fill="none" stroke="url(#a)" stroke-width="10" transform="translate(-84.851 -100.176)"/><path d="M32.852 108.079q2.631 0 4.629.739 1.998.74 1.998 1.998 0 1.26-.957 3.117-.95 1.857-1.597 1.857-.183 0-.415-.197-.233-.204-1.083-.436-.845-.232-1.457-.232-2.09 0-3.37 1.477-1.273 1.478-1.273 4.524 0 3.04 1.308 4.517 1.316 1.477 3.335 1.477.83 0 1.858-.232 1.026-.24 1.456-.668.07-.078.288-.078t.81.816q.597.81 1.097 2.125.506 1.316.506 2.033 0 1.407-2.16 2.237-2.16.825-5.114.824-4.756 0-7.816-3.35-3.06-3.348-3.06-9.455t3.151-9.596q3.151-3.497 7.866-3.497zm11.997 12.46q-1.005-1.8-1.006-2.934 0-1.132.612-1.456 2.048-.9 5.628-.9 3.588 0 5.066 1.674t1.477 4.953v5.691h1.224q.613 0 .957.725.345.717.345 1.977t-.633 2.483q-.633 1.225-1.71 1.225-1.948 0-3.138-1.042-.534-.436-.823-1.048-1.66 2.09-5.157 2.09-2.624 0-4.425-1.872-1.8-1.871-1.8-4.432 0-5.868 7.02-5.868h1.984v-.365q0-.936-.31-1.204-.301-.267-1.42-.267-1.373 0-3.89.57zm2.885 6.634q0 .789.429 1.203.43.415 1.097.415.67 0 1.21-.541v-2.772h-1.013q-1.723 0-1.723 1.695zm29.788 6.262q0 .253-3.082.253t-3.081-.324v-10.482q0-1.8-1.19-1.801-.611 0-1.617.795V133.4q0 .358-3.082.358-3.081.001-3.081-.394v-11.777h-.901q-1.19 0-1.189-2.483 0-1.118.436-2.273.577-1.583 1.872-1.583 1.294 0 2.497.683 1.21.682 1.464 1.294 2.237-1.977 4.952-1.977 2.724 0 4.376 1.689 1.95-1.689 4.686-1.689 5.945 0 5.945 7.24v10.947q0 .253-3.082.253t-3.081-.324v-10.482q0-1.8-1.189-1.801-.648 0-1.653.795zm19.843.542q-3.567 0-6.015-2.428-2.448-2.434-2.448-6.74 0-4.305 2.357-6.93 2.363-2.63 5.966-2.63 3.602 0 5.565 1.836 1.962 1.836 1.962 4.467 0 5.832-6.697 5.832h-2.49q0 1.084.59 1.499.599.415 1.752.415 2.525 0 4.791-1.154.035-.035.324.5.865 1.554.865 2.617t-.682 1.386s-3.462 1.33-5.84 1.33zm1.337-11.742q0-1.513-1.477-1.513-.683 0-1.175.415-.486.415-.486 1.203v1.119h1.95q1.188 0 1.188-1.224zm16.282 11.348q0 .252-3.278.253-3.279-.078-3.279-.289v-11.96h-.97q-.578 0-.922-.703-.345-.704-.345-1.745 0-3.89 2.308-3.89 1.618 0 2.701.991 1.084.985 1.084 2.252.753-1.477 2.033-2.357 1.28-.887 2.61-.887 2.09 0 2.526 1.077.105.288.105.851 0 .556-.345 1.998-.338 1.442-.703 2.09-.359.647-.43.647-.07 0-.668-.267-.591-.275-1.062-.275-1.365 0-1.365 2.16zm8.643-13.044q-1.006-1.8-1.006-2.934 0-1.132.612-1.456 2.047-.9 5.629-.9 3.588 0 5.065 1.674t1.477 4.953v5.691h1.225q.612 0 .956.725.345.717.345 1.977t-.633 2.483q-.633 1.225-1.71 1.225-1.949 0-3.137-1.042-.535-.436-.824-1.048-1.66 2.09-5.156 2.09-2.625 0-4.426-1.872-1.8-1.871-1.8-4.432 0-5.868 7.02-5.868h1.985v-.365q0-.936-.31-1.204-.303-.267-1.421-.267-1.373 0-3.89.57zm2.885 6.634q0 .789.429 1.203.43.415 1.097.415.67 0 1.21-.541v-2.772h-1.013q-1.723 0-1.723 1.695zm21.356-2.342q.682.54 2.357 1.477 1.681.936 3.208.936 1.534 0 1.534-1.19 0-.541-.436-.956-.43-.415-1.583-.95a48 48 0 0 1-1.73-.844q-.578-.31-1.535-1.013-.95-.704-1.456-1.464-1.435-2.047-1.435-5.22t2.357-5.347q2.356-2.18 6.177-2.18 2.596 0 4.79.562 2.197.555 2.266 1.456v.212q0 1.266-.795 3.194-.788 1.92-1.111 2.138-2.308-1.189-4.13-1.189-1.815 0-1.815 1.295 0 .795 1.337 1.407.288.147.823.401.54.246 1.245.591.703.345 1.513.865.809.521 1.751 1.386 1.907 1.801 1.907 4.756 0 3.856-2.125 6.304t-6.557 2.519q-2.16 0-3.911-.36-1.745-.357-3.047-1.4-1.294-1.047-1.294-2.525t.542-2.934q.54-1.463 1.153-1.927zm31.63 7.816q-2.274 1.33-5.84 1.33-3.567 0-6.015-2.428-2.449-2.434-2.449-6.74 0-4.305 2.357-6.93 2.364-2.63 5.966-2.63t5.565 1.836 1.963 4.467q0 5.832-6.698 5.832h-2.49q0 1.084.59 1.499.6.415 1.753.415 2.525 0 4.79-1.154.036-.035.324.5.866 1.554.866 2.617t-.683 1.386zm-4.503-10.412q0-1.513-1.478-1.513-.682 0-1.175.415-.485.415-.485 1.203v1.119h1.949q1.188 0 1.189-1.224zm15.916 11.165q0 .252-2.589.253-3.602-.105-3.602-.394v-11.672h-.936q-.936 0-1.224-1.583a6 6 0 0 1-.077-.935q0-1.119.436-2.238.647-1.583 2.012-1.583 1.372 0 2.448.648 1.084.647 1.45 1.294 2.264-1.942 5.396-1.942 3.138 0 4.537 1.696 1.408 1.689 1.408 5.544v10.806q0 .43-3.082.43-3.075 0-3.074-.43v-10.412q0-1.8-1.26-1.801-.365 0-1.013.31-.647.3-.83.45zm13.08-6.269q2.919 1.766 4.608 1.766 1.083 0 1.083-.753 0-.54-1.871-1.407-4.503-1.837-4.503-6.015 0-2.667 1.942-4.067 1.95-1.407 4.664-1.407 2.723 0 4.609.577 1.892.578 1.892 1.513 0 .788-.774 2.09-.774 1.294-1.062 1.4a6.8 6.8 0 0 0-3.349-.859q-.97 0-.97.683 0 .429.372.738.38.303 1.386.753 1.012.45 1.674.816.668.36 1.499 1.006 1.73 1.366 1.73 3.567 0 2.877-1.913 4.665-1.907 1.78-5.762 1.78-2.554 0-4.643-.866t-2.09-2.378q0-1.005.486-2.117.485-1.119.992-1.485zm22.041 6.269q0 .288-3.3.288-3.291 0-3.292-.253v-17.687q0-.246 3.293-.246 3.3 0 3.3.21zm0-19.812q0 .253-3.3.253-3.291 0-3.292-.218v-5.185q0-.36 3.293-.359 3.3 0 3.3.218zm10.77 19.812q0 .252-2.59.253-3.6-.105-3.601-.394v-11.672h-.936q-.936 0-1.224-1.583a6 6 0 0 1-.078-.935q0-1.119.437-2.238.647-1.583 2.012-1.583 1.371 0 2.448.648 1.084.647 1.45 1.294 2.264-1.942 5.396-1.942 3.137 0 4.537 1.696 1.407 1.689 1.407 5.544v10.806q0 .43-3.081.43-3.075 0-3.075-.43v-10.412q0-1.8-1.259-1.801-.365 0-1.013.31-.647.3-.83.45zm18.947.218q-3.489 0-5.403-2.252-1.907-2.25-1.907-6.662 0-4.41 2.505-6.916 2.505-2.504 6.662-2.504 4.165 0 6.867 1.836v17.94q0 2.666-2.167 4.088-2.16 1.42-5.544 1.42t-6.05-.865q-.366-.865-.366-1.547 0-2.308.76-3.384 2.412 1.04 5.15 1.04 1.983 0 1.983-1.4v-1.083q-1.547.29-2.49.289zm1.66-12.467q-2.412 0-2.413 3.644 0 2.265.936 2.948.612.471 1.224.472.613 0 1.083-.106v-6.845a3.3 3.3 0 0 0-.83-.113zm23.886-6.086v5.305h5.347q1.216 0 1.653 1.604.17.633.169 1.238 0 .599-.169 1.232-.436 1.597-1.653 1.597h-5.347v5.417q0 1.216-1.59 1.653a4.8 4.8 0 0 1-1.295.169l-1.14-.155q-1.646-.45-1.646-1.667v-5.417h-5.375q-1.217 0-1.653-1.59a4.7 4.7 0 0 1-.176-1.239q0-.605.176-1.245.436-1.597 1.653-1.597h5.375v-5.305q0-1.216 1.597-1.653a4.8 4.8 0 0 1 1.288-.169l1.147.155q1.638.45 1.639 1.667z" fill="#fff" stroke-opacity=".502" stroke="#000" stroke-width="7.5" stroke-linejoin="round"/><path d="M32.852 108.079q2.631 0 4.629.739 1.998.74 1.998 1.998 0 1.26-.957 3.117-.95 1.857-1.597 1.857-.183 0-.415-.197-.233-.204-1.083-.436-.845-.232-1.457-.232-2.09 0-3.37 1.477-1.273 1.478-1.273 4.524 0 3.04 1.308 4.517 1.316 1.477 3.335 1.477.83 0 1.858-.232 1.026-.24 1.456-.668.07-.078.288-.078t.81.816q.597.81 1.097 2.125.506 1.316.506 2.033 0 1.407-2.16 2.237-2.16.825-5.114.824-4.756 0-7.816-3.35-3.06-3.348-3.06-9.455t3.151-9.596q3.151-3.497 7.866-3.497m11.997 12.46q-1.005-1.8-1.006-2.934 0-1.132.612-1.456 2.048-.9 5.628-.9 3.588 0 5.066 1.674t1.477 4.953v5.691h1.224q.613 0 .957.725.345.717.345 1.977t-.633 2.483q-.633 1.225-1.71 1.225-1.948 0-3.138-1.042-.534-.436-.823-1.048-1.66 2.09-5.157 2.09-2.624 0-4.425-1.872-1.8-1.871-1.8-4.432 0-5.868 7.02-5.868h1.984v-.365q0-.936-.31-1.204-.301-.267-1.42-.267-1.373 0-3.89.57m2.885 6.634q0 .789.429 1.203.43.415 1.097.415.67 0 1.21-.541v-2.772h-1.013q-1.723 0-1.723 1.695m29.788 6.262q0 .253-3.082.253t-3.081-.324v-10.482q0-1.8-1.19-1.801-.611 0-1.617.795V133.4q0 .358-3.082.358-3.081.001-3.081-.394v-11.777h-.901q-1.19 0-1.189-2.483 0-1.118.436-2.273.577-1.583 1.872-1.583 1.294 0 2.497.683 1.21.682 1.464 1.294 2.237-1.977 4.952-1.977 2.724 0 4.376 1.689 1.95-1.689 4.686-1.689 5.945 0 5.945 7.24v10.947q0 .253-3.082.253t-3.081-.324v-10.482q0-1.8-1.189-1.801-.648 0-1.653.795zm25.683-.788q-2.273 1.33-5.84 1.33t-6.015-2.428q-2.448-2.434-2.448-6.74 0-4.305 2.357-6.93 2.363-2.63 5.966-2.63 3.602 0 5.565 1.836 1.962 1.836 1.962 4.467 0 5.832-6.697 5.832h-2.49q0 1.084.59 1.499.599.415 1.752.415 2.525 0 4.791-1.154.035-.035.324.5.865 1.554.865 2.617t-.682 1.386m-4.503-10.412q0-1.513-1.477-1.513-.683 0-1.175.415-.486.415-.486 1.203v1.119h1.95q1.188 0 1.188-1.224m16.282 11.348q0 .252-3.278.253-3.279-.078-3.279-.289v-11.96h-.97q-.578 0-.922-.703-.345-.704-.345-1.745 0-3.89 2.308-3.89 1.618 0 2.701.991 1.084.985 1.084 2.252.753-1.477 2.033-2.357 1.28-.887 2.61-.887 2.09 0 2.526 1.077.105.288.105.851 0 .556-.345 1.998-.338 1.442-.703 2.09-.359.647-.43.647-.07 0-.668-.267-.591-.275-1.062-.275-1.365 0-1.365 2.16zm8.643-13.044q-1.006-1.8-1.006-2.934 0-1.132.612-1.456 2.047-.9 5.629-.9 3.588 0 5.065 1.674t1.477 4.953v5.691h1.225q.612 0 .956.725.345.717.345 1.977t-.633 2.483q-.633 1.225-1.71 1.225-1.949 0-3.137-1.042-.535-.436-.824-1.048-1.66 2.09-5.156 2.09-2.625 0-4.426-1.872-1.8-1.871-1.8-4.432 0-5.868 7.02-5.868h1.985v-.365q0-.936-.31-1.204-.303-.267-1.421-.267-1.373 0-3.89.57m2.885 6.634q0 .789.429 1.203.43.415 1.097.415.67 0 1.21-.541v-2.772h-1.013q-1.723 0-1.723 1.695m21.356-2.342q.682.54 2.357 1.477 1.681.936 3.208.936 1.534 0 1.534-1.19 0-.541-.436-.956-.43-.415-1.583-.95a48 48 0 0 1-1.73-.844q-.578-.31-1.535-1.013-.95-.704-1.456-1.464-1.435-2.047-1.435-5.22t2.357-5.347q2.356-2.18 6.177-2.18 2.596 0 4.79.562 2.197.555 2.266 1.456v.212q0 1.266-.795 3.194-.788 1.92-1.111 2.138-2.308-1.189-4.13-1.189-1.815 0-1.815 1.295 0 .795 1.337 1.407.288.147.823.401.54.246 1.245.591.703.345 1.513.865.809.521 1.751 1.386 1.907 1.801 1.907 4.756 0 3.856-2.125 6.304t-6.557 2.519q-2.16 0-3.911-.36-1.745-.357-3.047-1.4-1.294-1.047-1.294-2.525t.542-2.934q.54-1.463 1.153-1.927m31.63 7.816q-2.274 1.33-5.84 1.33-3.567 0-6.015-2.428-2.449-2.434-2.449-6.74 0-4.305 2.357-6.93 2.364-2.63 5.966-2.63t5.565 1.836 1.963 4.467q0 5.832-6.698 5.832h-2.49q0 1.084.59 1.499.6.415 1.753.415 2.525 0 4.79-1.154.036-.035.324.5.866 1.554.866 2.617t-.683 1.386m-4.503-10.412q0-1.513-1.478-1.513-.682 0-1.175.415-.485.415-.485 1.203v1.119h1.949q1.188 0 1.189-1.224m15.916 11.165q0 .252-2.589.253-3.602-.105-3.602-.394v-11.672h-.936q-.936 0-1.224-1.583a6 6 0 0 1-.077-.935q0-1.119.436-2.238.647-1.583 2.012-1.583 1.372 0 2.448.648 1.084.647 1.45 1.294 2.264-1.942 5.396-1.942 3.138 0 4.537 1.696 1.408 1.689 1.408 5.544v10.806q0 .43-3.082.43-3.075 0-3.074-.43v-10.412q0-1.8-1.26-1.801-.365 0-1.013.31-.647.3-.83.45zm13.08-6.269q2.919 1.766 4.608 1.766 1.083 0 1.083-.753 0-.54-1.871-1.407-4.503-1.837-4.503-6.015 0-2.667 1.942-4.067 1.95-1.407 4.664-1.407 2.723 0 4.609.577 1.892.578 1.892 1.513 0 .788-.774 2.09-.774 1.294-1.062 1.4a6.8 6.8 0 0 0-3.349-.859q-.97 0-.97.683 0 .429.372.738.38.303 1.386.753 1.012.45 1.674.816.668.36 1.499 1.006 1.73 1.366 1.73 3.567 0 2.877-1.913 4.665-1.907 1.78-5.762 1.78-2.554 0-4.643-.866t-2.09-2.378q0-1.005.486-2.117.485-1.119.992-1.485m22.041 6.269q0 .288-3.3.288-3.291 0-3.292-.253v-17.687q0-.246 3.293-.246 3.3 0 3.3.21zm0-19.812q0 .253-3.3.253-3.291 0-3.292-.218v-5.185q0-.36 3.293-.359 3.3 0 3.3.218zm10.77 19.812q0 .252-2.59.253-3.6-.105-3.601-.394v-11.672h-.936q-.936 0-1.224-1.583a6 6 0 0 1-.078-.935q0-1.119.437-2.238.647-1.583 2.012-1.583 1.371 0 2.448.648 1.084.647 1.45 1.294 2.264-1.942 5.396-1.942 3.137 0 4.537 1.696 1.407 1.689 1.407 5.544v10.806q0 .43-3.081.43-3.075 0-3.075-.43v-10.412q0-1.8-1.259-1.801-.365 0-1.013.31-.647.3-.83.45zm18.947.218q-3.489 0-5.403-2.252-1.907-2.25-1.907-6.662 0-4.41 2.505-6.916 2.505-2.504 6.662-2.504 4.165 0 6.867 1.836v17.94q0 2.666-2.167 4.088-2.16 1.42-5.544 1.42t-6.05-.865q-.366-.865-.366-1.547 0-2.308.76-3.384 2.412 1.04 5.15 1.04 1.983 0 1.983-1.4v-1.083q-1.547.29-2.49.289m1.66-12.467q-2.412 0-2.413 3.644 0 2.265.936 2.948.612.471 1.224.472.613 0 1.083-.106v-6.845a3.3 3.3 0 0 0-.83-.113m23.885-6.086v5.305h5.347q1.216 0 1.653 1.604.17.633.169 1.238 0 .599-.169 1.232-.436 1.597-1.653 1.597h-5.347v5.417q0 1.216-1.59 1.653a4.8 4.8 0 0 1-1.295.169l-1.14-.155q-1.646-.45-1.646-1.667v-5.417h-5.375q-1.217 0-1.653-1.59a4.7 4.7 0 0 1-.176-1.239q0-.605.176-1.245.436-1.597 1.653-1.597h5.375v-5.305q0-1.216 1.597-1.653a4.8 4.8 0 0 1 1.288-.169l1.147.155q1.638.45 1.639 1.667" fill="#fff"/><path d="M74.424 79.701c7.228 0 13.035-5.859 13.035-13.035a13 13 0 0 0-13.035-13.034c-7.175 0-13.034 5.807-13.034 13.034 0 7.176 5.859 13.035 13.034 13.035m26.07-35.845c3.584 0 6.517 2.933 6.517 6.517V82.96c0 3.59-2.933 6.517-6.517 6.517H48.355c-3.584 0-6.517-2.926-6.517-6.517V50.373c0-3.584 2.933-6.517 6.517-6.517h4.628c1.173 0 2.215-.652 2.802-1.695l4.425-7.944c1.18-2.092 3.33-3.396 5.742-3.396h17.01c2.411 0 4.562 1.304 5.729 3.396l4.366 7.944c.593 1.043 1.63 1.695 2.874 1.695h4.563" fill="#fff" fill-rule="evenodd" stroke-opacity=".51" stroke="#000" stroke-width="12.5"/><path d="M268.21 79.766a1.95 1.95 0 0 1-1.942 1.942c-.188 0-.49-.13-.569-.208l-.374-.292-24.306-14.584v8.869c0 7.561-6.209 13.984-13.596 13.984h-34.572c-7.829-.342-13.984-6.497-13.984-13.984V44.806c0-7.862 6.123-13.985 13.984-13.985h34.572c7.525 0 13.596 6.176 13.596 13.985v9.011l23.975-15.54c1.047-.626 2.901-.405 3.466.536z" fill="#fff" stroke-opacity=".51" stroke="#000" stroke-width="12.5"/><path d="M74.424 79.701c7.228 0 13.035-5.859 13.035-13.035a13 13 0 0 0-13.035-13.034c-7.175 0-13.034 5.807-13.034 13.034 0 7.176 5.859 13.035 13.034 13.035m26.07-35.845c3.584 0 6.517 2.933 6.517 6.517V82.96c0 3.59-2.933 6.517-6.517 6.517H48.355c-3.584 0-6.517-2.926-6.517-6.517V50.373c0-3.584 2.933-6.517 6.517-6.517h4.628c1.173 0 2.215-.652 2.802-1.695l4.425-7.944c1.18-2.092 3.33-3.396 5.742-3.396h17.01c2.411 0 4.562 1.304 5.729 3.396l4.366 7.944c.593 1.043 1.63 1.695 2.874 1.695z" fill="#fff" fill-rule="evenodd"/><path d="M267.71 38.813c.282.576.5 1.086.5.943v40.01a1.95 1.95 0 0 1-1.942 1.942c-.188 0-.49-.13-.569-.208l-.374-.292-24.306-14.584v8.869c0 7.561-6.209 13.984-13.596 13.984h-34.572c-7.829-.342-13.984-6.497-13.984-13.984V44.806c0-7.862 6.123-13.985 13.984-13.985h34.572c7.525 0 13.596 6.176 13.596 13.985v9.011l23.975-15.539c1.047-.627 2.151-.406 2.716.535" fill="#fff"/><path d="M147.78 54.774v8.406h8.473q1.929 0 2.62 2.541.267 1.004.267 1.963 0 .947-.267 1.95-.691 2.531-2.62 2.531h-8.473v8.584q0 1.93-2.52 2.62a7.6 7.6 0 0 1-2.05.268l-1.807-.246q-2.608-.713-2.608-2.642v-8.584h-8.517q-1.93 0-2.62-2.52a7.4 7.4 0 0 1-.279-1.961q0-.96.279-1.974.69-2.53 2.62-2.53h8.517v-8.406q0-1.93 2.53-2.62a7.6 7.6 0 0 1 2.04-.267l1.818.245q2.597.713 2.597 2.642z" fill="#fff" stroke-opacity=".502" stroke="#000" stroke-width="12.5" stroke-linejoin="round"/><path d="M147.78 54.774v8.406h8.473q1.929 0 2.62 2.541.267 1.004.267 1.963 0 .947-.267 1.95-.691 2.531-2.62 2.531h-8.473v8.584q0 1.93-2.52 2.62a7.6 7.6 0 0 1-2.05.268l-1.807-.246q-2.608-.713-2.608-2.642v-8.584h-8.517q-1.93 0-2.62-2.52a7.4 7.4 0 0 1-.279-1.961q0-.96.279-1.974.69-2.53 2.62-2.53h8.517v-8.406q0-1.93 2.53-2.62a7.6 7.6 0 0 1 2.04-.267l1.818.245q2.597.713 2.597 2.642" fill="#fff"/></g></svg>
