<svg xmlns="http://www.w3.org/2000/svg" width="309.297" height="159.649" viewBox="0 0 309.297 159.649"><defs><linearGradient x1="131.459" y1="71.14" x2="348.991" y2="288.671" gradientUnits="userSpaceOnUse" id="a"><stop offset="0" stop-color="#00ff84"/><stop offset="1" stop-color="#00c9ff"/></linearGradient><linearGradient x1="176.622" y1="126.721" x2="181.316" y2="158.218" gradientUnits="userSpaceOnUse" id="d"><stop offset="0" stop-color="#41a362" stop-opacity=".325"/><stop offset="1" stop-color="#3f929f" stop-opacity=".588"/></linearGradient><linearGradient x1="179.199" y1="142.483" x2="173.252" y2="129.194" gradientUnits="userSpaceOnUse" id="e"><stop offset="0" stop-color="#fff" stop-opacity="0"/><stop offset="1" stop-color="#fff" stop-opacity=".306"/></linearGradient><linearGradient x1="174.636" y1="130.718" x2="176.814" y2="136.289" gradientUnits="userSpaceOnUse" id="f"><stop offset="0" stop-color="#fff" stop-opacity=".573"/><stop offset="1" stop-color="#fff" stop-opacity="0"/></linearGradient><linearGradient x1="180.282" y1="143.697" x2="182.447" y2="158.219" gradientUnits="userSpaceOnUse" id="g"><stop offset="0" stop-opacity="0"/><stop offset="1" stop-opacity=".208"/></linearGradient><linearGradient x1="288.8" y1="191.613" x2="301.951" y2="227.645" gradientUnits="userSpaceOnUse" id="h"><stop offset="0" stop-color="#41a362" stop-opacity=".325"/><stop offset="1" stop-color="#3f929f" stop-opacity=".588"/></linearGradient><linearGradient x1="295.65" y1="209.589" x2="285.421" y2="195.346" gradientUnits="userSpaceOnUse" id="i"><stop offset="0" stop-color="#fff" stop-opacity="0"/><stop offset="1" stop-color="#fff" stop-opacity=".306"/></linearGradient><linearGradient x1="287.422" y1="196.809" x2="291.34" y2="202.856" gradientUnits="userSpaceOnUse" id="j"><stop offset="0" stop-color="#fff" stop-opacity=".573"/><stop offset="1" stop-color="#fff" stop-opacity="0"/></linearGradient><linearGradient x1="297.222" y1="210.759" x2="303.286" y2="227.373" gradientUnits="userSpaceOnUse" id="k"><stop offset="0" stop-opacity="0"/><stop offset="1" stop-opacity=".208"/></linearGradient><linearGradient x1="277.254" y1="113.519" x2="285.282" y2="171.416" gradientUnits="userSpaceOnUse" id="l"><stop offset="0" stop-color="#41a362" stop-opacity=".325"/><stop offset="1" stop-color="#3f929f" stop-opacity=".588"/></linearGradient><linearGradient x1="281.69" y1="142.497" x2="271.023" y2="117.996" gradientUnits="userSpaceOnUse" id="m"><stop offset="0" stop-color="#fff" stop-opacity="0"/><stop offset="1" stop-color="#fff" stop-opacity=".306"/></linearGradient><linearGradient x1="273.534" y1="120.817" x2="277.429" y2="131.084" gradientUnits="userSpaceOnUse" id="n"><stop offset="0" stop-color="#fff" stop-opacity=".573"/><stop offset="1" stop-color="#fff" stop-opacity="0"/></linearGradient><linearGradient x1="283.656" y1="144.745" x2="287.357" y2="171.439" gradientUnits="userSpaceOnUse" id="o"><stop offset="0" stop-opacity="0"/><stop offset="1" stop-opacity=".208"/></linearGradient><linearGradient x1="185.505" y1="183.3" x2="166.677" y2="238.635" gradientUnits="userSpaceOnUse" id="p"><stop offset="0" stop-color="#41a362" stop-opacity=".325"/><stop offset="1" stop-color="#3f929f" stop-opacity=".588"/></linearGradient><linearGradient x1="176.455" y1="211.183" x2="177.927" y2="184.501" gradientUnits="userSpaceOnUse" id="q"><stop offset="0" stop-color="#fff" stop-opacity="0"/><stop offset="1" stop-color="#fff" stop-opacity=".306"/></linearGradient><linearGradient x1="178.904" y1="188.15" x2="177.773" y2="199.072" gradientUnits="userSpaceOnUse" id="r"><stop offset="0" stop-color="#fff" stop-opacity=".573"/><stop offset="1" stop-color="#fff" stop-opacity="0"/></linearGradient><linearGradient x1="177.202" y1="214.074" x2="168.521" y2="239.588" gradientUnits="userSpaceOnUse" id="s"><stop offset="0" stop-opacity="0"/><stop offset="1" stop-opacity=".208"/></linearGradient><linearGradient x1="213.571" y1="136.905" x2="266.429" y2="189.762" gradientUnits="userSpaceOnUse" id="t"><stop offset="0" stop-color="#00994f"/><stop offset="1" stop-color="#007899"/></linearGradient><linearGradient x1="216.66" y1="139.993" x2="263.34" y2="186.673" gradientUnits="userSpaceOnUse" id="u"><stop offset="0" stop-color="#00ff84"/><stop offset="1" stop-color="#00c9ff"/></linearGradient><linearGradient x1="129.073" y1="115.462" x2="135.488" y2="143.689" gradientUnits="userSpaceOnUse" id="v"><stop offset="0" stop-color="#41a362" stop-opacity=".325"/><stop offset="1" stop-color="#3f929f" stop-opacity=".588"/></linearGradient><linearGradient x1="132.49" y1="129.571" x2="126.188" y2="117.935" gradientUnits="userSpaceOnUse" id="w"><stop offset="0" stop-color="#fff" stop-opacity="0"/><stop offset="1" stop-color="#fff" stop-opacity=".306"/></linearGradient><linearGradient x1="127.547" y1="119.22" x2="129.904" y2="124.121" gradientUnits="userSpaceOnUse" id="x"><stop offset="0" stop-color="#fff" stop-opacity=".573"/><stop offset="1" stop-color="#fff" stop-opacity="0"/></linearGradient><linearGradient x1="133.555" y1="130.597" x2="136.513" y2="143.612" gradientUnits="userSpaceOnUse" id="y"><stop offset="0" stop-opacity="0"/><stop offset="1" stop-opacity=".208"/></linearGradient><linearGradient x1="126.403" y1="150.248" x2="128.174" y2="199.162" gradientUnits="userSpaceOnUse" id="z"><stop offset="0" stop-color="#41a362" stop-opacity=".325"/><stop offset="1" stop-color="#3f929f" stop-opacity=".588"/></linearGradient><linearGradient x1="127.638" y1="174.765" x2="120.832" y2="153.448" gradientUnits="userSpaceOnUse" id="A"><stop offset="0" stop-color="#fff" stop-opacity="0"/><stop offset="1" stop-color="#fff" stop-opacity=".306"/></linearGradient><linearGradient x1="122.685" y1="156.012" x2="125.058" y2="164.895" gradientUnits="userSpaceOnUse" id="B"><stop offset="0" stop-color="#fff" stop-opacity=".573"/><stop offset="1" stop-color="#fff" stop-opacity="0"/></linearGradient><linearGradient x1="129.084" y1="176.805" x2="129.901" y2="199.357" gradientUnits="userSpaceOnUse" id="C"><stop offset="0" stop-opacity="0"/><stop offset="1" stop-opacity=".208"/></linearGradient><linearGradient x1="312.533" y1="132.314" x2="308.813" y2="173.017" gradientUnits="userSpaceOnUse" id="D"><stop offset="0" stop-color="#41a362" stop-opacity=".325"/><stop offset="1" stop-color="#3f929f" stop-opacity=".588"/></linearGradient><linearGradient x1="310.956" y1="152.752" x2="307.579" y2="134.374" gradientUnits="userSpaceOnUse" id="E"><stop offset="0" stop-color="#fff" stop-opacity="0"/><stop offset="1" stop-color="#fff" stop-opacity=".306"/></linearGradient><linearGradient x1="308.841" y1="136.694" x2="309.865" y2="144.304" gradientUnits="userSpaceOnUse" id="F"><stop offset="0" stop-color="#fff" stop-opacity=".573"/><stop offset="1" stop-color="#fff" stop-opacity="0"/></linearGradient><linearGradient x1="311.937" y1="154.595" x2="310.222" y2="173.362" gradientUnits="userSpaceOnUse" id="G"><stop offset="0" stop-opacity="0"/><stop offset="1" stop-opacity=".208"/></linearGradient><linearGradient x1="360.871" y1="170.208" x2="363.231" y2="199.126" gradientUnits="userSpaceOnUse" id="H"><stop offset="0" stop-color="#41a362" stop-opacity=".325"/><stop offset="1" stop-color="#3f929f" stop-opacity=".588"/></linearGradient><linearGradient x1="362.259" y1="184.693" x2="357.657" y2="172.252" gradientUnits="userSpaceOnUse" id="I"><stop offset="0" stop-color="#fff" stop-opacity="0"/><stop offset="1" stop-color="#fff" stop-opacity=".306"/></linearGradient><linearGradient x1="358.823" y1="173.721" x2="360.467" y2="178.918" gradientUnits="userSpaceOnUse" id="J"><stop offset="0" stop-color="#fff" stop-opacity=".573"/><stop offset="1" stop-color="#fff" stop-opacity="0"/></linearGradient><linearGradient x1="363.17" y1="185.862" x2="364.258" y2="199.196" gradientUnits="userSpaceOnUse" id="K"><stop offset="0" stop-opacity="0"/><stop offset="1" stop-opacity=".208"/></linearGradient><linearGradient x1="165.107" y1="150.144" x2="171.374" y2="166.366" gradientUnits="userSpaceOnUse" id="L"><stop offset="0" stop-color="#41a362" stop-opacity=".325"/><stop offset="1" stop-color="#3f929f" stop-opacity=".588"/></linearGradient><linearGradient x1="168.365" y1="158.235" x2="163.607" y2="151.865" gradientUnits="userSpaceOnUse" id="M"><stop offset="0" stop-color="#fff" stop-opacity="0"/><stop offset="1" stop-color="#fff" stop-opacity=".306"/></linearGradient><linearGradient x1="164.526" y1="152.511" x2="166.353" y2="155.219" gradientUnits="userSpaceOnUse" id="N"><stop offset="0" stop-color="#fff" stop-opacity=".573"/><stop offset="1" stop-color="#fff" stop-opacity="0"/></linearGradient><linearGradient x1="169.087" y1="158.752" x2="171.977" y2="166.231" gradientUnits="userSpaceOnUse" id="O"><stop offset="0" stop-opacity="0"/><stop offset="1" stop-opacity=".208"/></linearGradient><linearGradient x1="353.959" y1="127.155" x2="356.523" y2="144.355" gradientUnits="userSpaceOnUse" id="P"><stop offset="0" stop-color="#41a362" stop-opacity=".325"/><stop offset="1" stop-color="#3f929f" stop-opacity=".588"/></linearGradient><linearGradient x1="355.367" y1="135.762" x2="352.119" y2="128.505" gradientUnits="userSpaceOnUse" id="Q"><stop offset="0" stop-color="#fff" stop-opacity="0"/><stop offset="1" stop-color="#fff" stop-opacity=".306"/></linearGradient><linearGradient x1="352.874" y1="129.337" x2="354.064" y2="132.38" gradientUnits="userSpaceOnUse" id="R"><stop offset="0" stop-color="#fff" stop-opacity=".573"/><stop offset="1" stop-color="#fff" stop-opacity="0"/></linearGradient><linearGradient x1="355.958" y1="136.425" x2="357.14" y2="144.356" gradientUnits="userSpaceOnUse" id="S"><stop offset="0" stop-opacity="0"/><stop offset="1" stop-opacity=".208"/></linearGradient><linearGradient x1="131.459" y1="71.14" x2="348.991" y2="288.671" gradientUnits="userSpaceOnUse" id="T"><stop offset="0" stop-color="#00994f"/><stop offset="1" stop-color="#007899"/></linearGradient><radialGradient cx="358.571" cy="141.081" r="139.642" gradientUnits="userSpaceOnUse" id="b"><stop offset="0" stop-color="#aaffe7" stop-opacity=".718"/><stop offset="1" stop-color="#aaffe7" stop-opacity="0"/></radialGradient><radialGradient cx="120.915" cy="141.081" r="139.642" gradientUnits="userSpaceOnUse" id="c"><stop offset="0" stop-color="#82ffcb" stop-opacity=".918"/><stop offset="1" stop-color="#82ffcb" stop-opacity="0"/></radialGradient></defs><g stroke-miterlimit="10" style="mix-blend-mode:normal"><path d="M90.351 242.329V117.123c0-7.424 6.041-11.947 13.369-11.947h272.61c8.46 0 13.319 5.658 13.319 11.697v125.705c0 7.603-4.955 12.246-13.568 12.246H103.47c-7.204 0-13.12-6.096-13.12-12.495z" fill="url(#a)" transform="translate(-85.351 -100.176)"/><path d="M87.869 252.627 375.297 108.6c16.498-8.267 12.512 8.402 10.005 12.713-18.19 31.281-65.884 133.512-65.884 133.512z" fill="url(#b)" transform="translate(-85.351 -100.176)"/><path d="M160.068 254.824s-47.694-102.23-65.884-133.512c-2.507-4.311-6.493-20.98 10.006-12.713l287.428 144.028z" fill="url(#c)" transform="translate(-85.351 -100.176)"/><g stroke-width="0"><path d="M163.22 144.817c-1.296-8.698 4.704-16.8 13.402-18.096 8.697-1.296 16.799 4.704 18.095 13.401 1.297 8.698-4.703 16.8-13.4 18.096-8.698 1.296-16.8-4.703-18.096-13.401" fill="url(#d)" transform="translate(-85.351 -100.176)"/><path d="M164.701 143.75c-.8-7.837 4.905-14.838 12.741-15.638 5.509-.562 10.605 2.09 13.424 6.436 1.191 1.837-25.365 17.038-26.165 9.202" fill="url(#e)" transform="translate(-85.351 -100.176)"/><path d="M167.076 138.935c1.453-4.92 5.833-8.66 11.251-9.04a12.6 12.6 0 0 1 7.435 1.792c1.747 1.058-19.102 8.658-18.686 7.248" fill="url(#f)" transform="translate(-85.351 -100.176)"/><path d="M194.99 142.54c-.342 5.995-3.186 12.45-11.726 15.373-6.877 2.354-14.99-2.647-16.302-4.816-.979-1.618-4.943-7.787-2.041-9.382 4.16-2.285 16.619-9.037 23.495-8.896 5.734.117 6.357 6.87 6.574 7.72" fill="url(#g)" transform="translate(-85.351 -100.176)"/></g><g stroke-width="0"><path d="M277.36 216.205c-3.632-9.95 1.49-20.96 11.44-24.592s20.96 1.49 24.592 11.44-1.49 20.96-11.44 24.592-20.96-1.49-24.592-11.44" fill="url(#h)" transform="translate(-85.351 -100.176)"/><path d="M278.849 214.587c-2.838-9.054 2.201-18.694 11.255-21.531 6.364-1.995 13.018-.098 17.396 4.35 1.85 1.88-25.813 26.235-28.651 17.181" fill="url(#i)" transform="translate(-85.351 -100.176)"/><path d="M280.488 208.332c.525-6.156 4.79-11.628 11.092-13.387a15.17 15.17 0 0 1 9.206.318c2.317.827-20.448 14.834-20.298 13.07" fill="url(#j)" transform="translate(-85.351 -100.176)"/><path d="M314.298 205.84c1.045 7.157-.75 15.46-10.122 20.974-7.546 4.44-18.329.499-20.4-1.744-1.546-1.672-7.715-7.994-4.677-10.576 4.357-3.703 17.427-14.68 25.575-16.177 6.795-1.247 9.161 6.572 9.624 7.523" fill="url(#k)" transform="translate(-85.351 -100.176)"/></g><g stroke-width="0"><path d="M252.32 146.482c-2.217-15.988 8.946-30.746 24.934-32.963s30.746 8.947 32.963 24.935-8.947 30.745-24.935 32.962-30.746-8.946-32.962-24.934" fill="url(#l)" transform="translate(-85.351 -100.176)"/><path d="M255.057 144.55c-1.322-14.397 9.279-27.141 23.677-28.463 10.121-.93 19.425 4.033 24.518 12.064 2.152 3.394-46.873 30.798-48.195 16.4" fill="url(#m)" transform="translate(-85.351 -100.176)"/><path d="M259.507 135.759c2.757-9.004 10.867-15.785 20.819-16.384 4.974-.299 9.676.99 13.612 3.43 3.187 1.974-35.222 15.534-34.431 12.954" fill="url(#n)" transform="translate(-85.351 -100.176)"/><path d="M310.673 142.896c-.74 10.998-6.08 22.792-21.81 27.997-12.667 4.191-27.465-5.14-29.832-9.145-1.765-2.987-8.926-14.384-3.57-17.256 7.677-4.118 30.671-16.277 43.29-15.89 10.522.322 11.538 12.73 11.922 14.294" fill="url(#o)" transform="translate(-85.351 -100.176)"/></g><path d="M26.755 114.876q2.234 0 3.932.627 1.697.628 1.697 1.697 0 1.07-.813 2.647-.806 1.578-1.356 1.578-.156 0-.353-.168-.197-.173-.92-.37-.717-.198-1.237-.197-1.775 0-2.862 1.254-1.08 1.256-1.081 3.842 0 2.582 1.111 3.836 1.118 1.255 2.832 1.255.705 0 1.578-.197.872-.204 1.237-.568.06-.066.245-.065.184 0 .687.693.508.688.932 1.804.43 1.117.43 1.727 0 1.195-1.834 1.9-1.835.699-4.344.699-4.039 0-6.638-2.844t-2.6-8.03 2.677-8.15q2.678-2.97 6.68-2.97zm9.592 19.885q-1.912-2.109-1.912-5.844t1.912-5.843q1.913-2.11 5.157-2.11t5.138 2.11 1.894 5.843q0 3.735-1.894 5.844t-5.138 2.109-5.157-2.11zm5.169-8.688q-1.728 0-1.727 2.814t1.727 2.815c1.155 0 8.024-1.75 8.024-3.626 0-1.877-6.87-2.003-8.024-2.003zM64.57 136.41q0 .215-2.617.215t-2.617-.275v-8.903q0-1.53-1.01-1.53-.519 0-1.374.676v9.787q0 .305-2.617.305t-2.617-.335v-10.002h-.765q-1.01 0-1.01-2.11 0-.95.371-1.93.49-1.343 1.59-1.343 1.099 0 2.12.58 1.029.579 1.243 1.099 1.901-1.68 4.207-1.68 2.312 0 3.716 1.435 1.655-1.434 3.98-1.434 5.048 0 5.048 6.148v9.297q0 .215-2.617.215t-2.617-.275v-8.903q0-1.53-1.01-1.53-.549 0-1.404.676zm24.107 0q0 .215-2.617.215t-2.617-.275v-8.903q0-1.53-1.01-1.53-.52 0-1.374.676v9.787q0 .305-2.617.305t-2.618-.335v-10.002h-.764q-1.01 0-1.01-2.11 0-.95.37-1.93.49-1.343 1.59-1.343t2.12.58q1.029.579 1.244 1.099 1.899-1.68 4.206-1.68 2.313 0 3.716 1.435 1.655-1.434 3.98-1.434 5.049 0 5.049 6.148v9.297q0 .215-2.617.215t-2.617-.275v-8.903q0-1.53-1.01-1.53-.55 0-1.404.676zm10.095-14.955q0-.341 2.629-.341t2.629.34v8.933q0 1.53.98 1.53.734 0 1.655-.646v-9.816q0-.306 2.599-.305 2.599 0 2.599.305v10.031h.795q1.04 0 1.04 1.99 0 1.01-.425 2.05-.615 1.344-1.655 1.344-2.049 0-3.03-1.679l-.03.03q-1.863 1.65-4.009 1.649-2.963 0-4.373-1.482-1.404-1.482-1.404-4.911zm23.184 14.925q0 .215-2.199.215-3.059-.09-3.059-.335v-9.912h-.794q-.795 0-1.04-1.344a5 5 0 0 1-.066-.795q0-.95.37-1.9.55-1.344 1.71-1.344 1.165 0 2.079.55.92.549 1.23 1.099 1.924-1.65 4.583-1.65 2.666 0 3.854 1.44 1.195 1.435 1.195 4.709v9.177q0 .365-2.617.365-2.61 0-2.61-.365v-8.843q0-1.53-1.07-1.53-.31 0-.86.264-.55.256-.706.382zm16.062 0q0 .245-2.803.245-2.796 0-2.796-.215v-15.021q0-.21 2.796-.21 2.803 0 2.803.18zm0-16.826q0 .216-2.803.216-2.796 0-2.796-.186v-4.403q0-.305 2.796-.305 2.803 0 2.803.185zm9.791 16.826q0 .37-2.569.37-3.06-.125-3.06-.4v-10.826h-1.559q-.615 0-.615-2.115 0-.549.107-1.344.108-.795.449-.795h1.619v-2.694q0-.61 2.581-.61 2.587 0 2.587.49v1.96l.03.854h2.605q.52 0 .52 2.145 0 2.14-.52 2.14s-.957 5.88-.957 7.873c0 1.22-1.218 2.953-1.218 2.953zm3.15-14.955q0-.34 2.796-.34 2.802-.001 2.898.304l2.199 7.224 2.11-7.284q.124-.245 1.9-.245 4.068 0 3.883.4l-7.188 20.465q-.03.185-1.667.185t-3.047-.108q-1.405-.107-1.345-.263l2.665-6.423zm24.199 7.677q.579.46 2.001 1.255 1.428.795 2.725.795 1.302 0 1.302-1.01 0-.46-.37-.812-.364-.353-1.344-.807a40 40 0 0 1-1.47-.717q-.49-.263-1.303-.86-.807-.598-1.237-1.243-1.219-1.74-1.219-4.434t2.002-4.54q2.001-1.853 5.246-1.853 2.205 0 4.069.478 1.864.472 1.924 1.237v.18q0 1.074-.675 2.712-.67 1.631-.944 1.816-1.96-1.01-3.508-1.01-1.54 0-1.541 1.1 0 .675 1.135 1.195.244.125.7.34.459.21 1.057.502t1.284.735q.687.442 1.488 1.177 1.62 1.53 1.62 4.04 0 3.273-1.805 5.353t-5.569 2.139q-1.834 0-3.322-.305-1.482-.305-2.587-1.189-1.1-.89-1.1-2.145a7.1 7.1 0 0 1 .46-2.491q.46-1.244.98-1.638zm21.872 13.032q0 .215-2.617.215-2.61 0-2.61-.215v-15.756h-1.04q-.735 0-1.01-1.344a5.2 5.2 0 0 1-.096-1.1q0-.675.43-1.595.61-1.344 1.96-1.345.885 0 1.631.413.753.412 1.04.765.293.352.293.412 2.05-1.59 4.433-1.59 2.39 0 4.099 1.853 1.715 1.846 1.715 5.718 0 3.87-1.715 5.999-1.71 2.12-4.338 2.12-1.194 0-2.175-.119zm1.255-15.786q-.52 0-1.01.335v5.413q.52.066.843.066h.502c.836-.084 5.548-1.858 5.548-3.917 0-1.733-4.823-1.897-5.883-1.897zm10.478 8.413q-1.912-2.109-1.912-5.844t1.912-5.843q1.911-2.11 5.156-2.11t5.139 2.11 1.894 5.843q0 3.735-1.894 5.844t-5.139 2.109-5.156-2.11zm5.168-8.688q-1.727 0-1.727 2.814t1.727 2.815c1.155 0 8.024-1.141 8.024-3.018s-6.869-2.61-8.024-2.61zm16.231 10.307q0 .37-2.569.37-3.06-.125-3.059-.4v-10.826h-1.56q-.615 0-.615-2.115 0-.549.108-1.344.106-.795.448-.795h1.619v-2.694q0-.61 2.581-.61 2.587 0 2.587.49v1.96l.03.854h2.605q.52 0 .52 2.145 0 2.14-.52 2.14h-2.175zm9.788-.06q0 .275-3.119.275-2.45-.03-2.45-.245v-20.835q0-.454 2.97-.454 2.6.09 2.6.305zm8.351.06q0 .245-2.802.245-2.796 0-2.796-.215v-15.021q0-.21 2.796-.21 2.802 0 2.802.18zm0-16.826q0 .216-2.802.216-2.796 0-2.796-.186v-4.403q0-.305 2.796-.305 2.802 0 2.802.185zm8.382 17.011q-2.964 0-4.59-1.912-1.618-1.911-1.618-5.658 0-3.746 2.127-5.873t5.658-2.128q3.537 0 5.832 1.56v15.236q0 2.265-1.84 3.472-1.836 1.206-4.709 1.206-2.874 0-5.138-.734-.312-.736-.311-1.315 0-1.959.645-2.874a10.9 10.9 0 0 0 4.374.884q1.685 0 1.685-1.189v-.92q-1.315.245-2.115.245zm1.41-10.587c-1.367 0-9.543 1.031-9.543 3.095 0 1.282 7.758 2.117 8.288 2.503q.52.4 1.04.4t.92-.09v-5.813a2.8 2.8 0 0 0-.705-.095zm13.855 10.372q0 .275-2.557.275-2.551 0-2.551-.424v-20.96q0-.21.95-.3a16 16 0 0 1 1.589-.095q2.57 0 2.57.55v6.118q1.713-.52 2.604-.52 2.325 0 3.669 1.243 1.344 1.237 1.344 4.601v9.482q0 .275-2.384.275-2.694-.09-2.694-.305v-8.992q0-1.5-.974-1.5-.675 0-1.566.64zm17.257.03q0 .37-2.57.37-3.06-.125-3.059-.4v-10.826h-1.56q-.615 0-.615-2.115 0-.549.108-1.344.107-.795.448-.795h1.62v-2.694q0-.61 2.58-.61 2.588 0 2.588.49v1.96l.03.854h2.605q.52 0 .52 2.145 0 2.14-.52 2.14h-2.175z" fill="none" stroke-opacity=".5" stroke="#000" stroke-width="6.5" stroke-linejoin="round"/><g stroke-width="0"><path d="M148.423 201.554c5.2-15.281 21.801-23.454 37.082-18.254 15.28 5.199 23.453 21.801 18.254 37.082-5.2 15.28-21.802 23.453-37.082 18.253s-23.453-21.8-18.254-37.081" fill="url(#p)" transform="translate(-85.351 -100.176)"/><path d="M151.736 201.058c5.285-13.459 20.48-20.084 33.938-14.8 9.46 3.716 15.545 12.328 16.489 21.79.399 4-55.712 6.468-50.427-6.99" fill="url(#q)" transform="translate(-85.351 -100.176)"/><path d="M159.66 195.2c6.507-6.806 16.799-9.223 25.96-5.288a23.1 23.1 0 0 1 10.622 9.177c1.96 3.195-38.447-1.938-36.582-3.889" fill="url(#r)" transform="translate(-85.351 -100.176)"/><path d="M202.171 224.555c-5.6 9.495-15.668 17.634-32.06 15.22-13.2-1.943-22.231-16.925-22.547-21.567-.236-3.462-1.516-16.86 4.559-17.022 8.709-.231 34.714-.769 45.815 5.244 9.258 5.013 4.593 16.555 4.233 18.125" fill="url(#s)" transform="translate(-85.351 -100.176)"/></g><path d="M26.755 114.876q2.234 0 3.932.627 1.697.628 1.697 1.697 0 1.07-.813 2.647-.806 1.578-1.356 1.578-.156 0-.353-.168-.197-.173-.92-.37-.717-.198-1.237-.197-1.775 0-2.862 1.254-1.08 1.256-1.081 3.842 0 2.582 1.111 3.836 1.118 1.255 2.832 1.255.705 0 1.578-.197.872-.204 1.237-.568.06-.066.245-.065.184 0 .687.693.508.688.932 1.804.43 1.117.43 1.727 0 1.195-1.834 1.9-1.835.699-4.344.699-4.039 0-6.638-2.844t-2.6-8.03 2.677-8.15q2.678-2.97 6.68-2.97m9.592 19.885q-1.912-2.109-1.912-5.844t1.912-5.843q1.913-2.11 5.157-2.11t5.138 2.11 1.894 5.843q0 3.735-1.894 5.844t-5.138 2.109-5.157-2.11m5.169-8.688q-1.728 0-1.727 2.814t1.727 2.815q1.732 0 1.732-2.815t-1.732-2.814m23.054 10.337q0 .215-2.617.215t-2.617-.275v-8.903q0-1.53-1.01-1.53-.519 0-1.374.676v9.787q0 .305-2.617.305t-2.617-.335v-10.002h-.765q-1.01 0-1.01-2.11 0-.95.371-1.93.49-1.343 1.59-1.343 1.099 0 2.12.58 1.029.579 1.243 1.099 1.901-1.68 4.207-1.68 2.312 0 3.716 1.435 1.655-1.434 3.98-1.434 5.048 0 5.048 6.148v9.297q0 .215-2.617.215t-2.617-.275v-8.903q0-1.53-1.01-1.53-.549 0-1.404.676zm24.107 0q0 .215-2.617.215t-2.617-.275v-8.903q0-1.53-1.01-1.53-.52 0-1.374.676v9.787q0 .305-2.617.305t-2.618-.335v-10.002h-.764q-1.01 0-1.01-2.11 0-.95.37-1.93.49-1.343 1.59-1.343t2.12.58q1.029.579 1.244 1.099 1.899-1.68 4.206-1.68 2.313 0 3.716 1.435 1.655-1.434 3.98-1.434 5.049 0 5.049 6.148v9.297q0 .215-2.617.215t-2.617-.275v-8.903q0-1.53-1.01-1.53-.55 0-1.404.676zm10.095-14.955q0-.341 2.629-.341t2.629.34v8.933q0 1.53.98 1.53.734 0 1.655-.646v-9.816q0-.306 2.599-.305 2.599 0 2.599.305v10.031h.795q1.04 0 1.04 1.99 0 1.01-.425 2.05-.615 1.344-1.655 1.344-2.049 0-3.03-1.679l-.03.03q-1.863 1.65-4.009 1.649-2.963 0-4.373-1.482-1.404-1.482-1.404-4.911zm23.184 14.925q0 .215-2.199.215-3.059-.09-3.059-.335v-9.912h-.794q-.795 0-1.04-1.344a5 5 0 0 1-.066-.795q0-.95.37-1.9.55-1.344 1.71-1.344 1.165 0 2.079.55.92.549 1.23 1.099 1.924-1.65 4.583-1.65 2.666 0 3.854 1.44 1.195 1.435 1.195 4.709v9.177q0 .365-2.617.365-2.61 0-2.61-.365v-8.843q0-1.53-1.07-1.53-.31 0-.86.264-.55.256-.706.382zm16.062 0q0 .245-2.803.245-2.796 0-2.796-.215v-15.021q0-.21 2.796-.21 2.803 0 2.803.18zm0-16.826q0 .216-2.803.216-2.796 0-2.796-.186v-4.403q0-.305 2.796-.305 2.803 0 2.803.185zm9.791 16.826q0 .37-2.569.37-3.06-.125-3.06-.4v-10.825h-1.559q-.615 0-.615-2.115 0-.549.107-1.344.108-.795.449-.795h1.619v-2.694q0-.61 2.581-.61 2.587 0 2.587.49v1.96l.03.854h2.605q.52 0 .52 2.145 0 2.14-.52 2.14h-2.175zm3.15-14.955q0-.34 2.796-.34 2.802-.001 2.898.304l2.199 7.224 2.11-7.284q.124-.245 1.9-.245 4.068 0 3.883.4l-7.188 20.465q-.03.185-1.667.185t-3.047-.108q-1.405-.107-1.345-.263l2.665-6.423zm24.199 7.677q.579.46 2.001 1.255 1.428.795 2.725.795 1.302 0 1.302-1.01 0-.46-.37-.812-.364-.353-1.344-.807a40 40 0 0 1-1.47-.717q-.49-.263-1.303-.86-.807-.598-1.237-1.243-1.219-1.74-1.219-4.434t2.002-4.54q2.001-1.853 5.246-1.853 2.205 0 4.069.478 1.864.472 1.924 1.237v.18q0 1.074-.675 2.712-.67 1.631-.944 1.816-1.96-1.01-3.508-1.01-1.54 0-1.541 1.1 0 .675 1.135 1.195.244.125.7.34.459.21 1.057.502t1.284.735q.687.442 1.488 1.177 1.62 1.53 1.62 4.04 0 3.273-1.805 5.353t-5.569 2.139q-1.834 0-3.322-.305-1.482-.305-2.587-1.189-1.1-.89-1.1-2.145a7.1 7.1 0 0 1 .46-2.491q.46-1.244.98-1.638m21.872 13.032q0 .215-2.617.215-2.61 0-2.61-.215v-15.756h-1.04q-.735 0-1.01-1.344a5.2 5.2 0 0 1-.096-1.1q0-.675.43-1.595.61-1.344 1.96-1.345.885 0 1.631.413.753.412 1.04.765.293.352.293.412 2.05-1.59 4.433-1.59 2.39 0 4.099 1.853 1.715 1.846 1.715 5.718 0 3.87-1.715 5.999-1.71 2.12-4.338 2.12-1.194 0-2.175-.119zm1.255-15.786q-.52 0-1.01.335v5.413q.52.066.843.066h.502q1.254-.125 1.254-3.215 0-2.6-1.589-2.599m10.478 8.413q-1.912-2.109-1.912-5.844t1.912-5.843q1.911-2.11 5.156-2.11t5.139 2.11 1.894 5.843q0 3.735-1.894 5.844t-5.139 2.109-5.156-2.11m5.168-8.688q-1.727 0-1.727 2.814t1.727 2.815q1.733 0 1.733-2.815t-1.733-2.814m16.231 10.307q0 .37-2.569.37-3.06-.125-3.059-.4v-10.824h-1.56q-.615 0-.615-2.115 0-.549.108-1.344.106-.795.448-.795h1.619v-2.694q0-.61 2.581-.61 2.587 0 2.587.49v1.96l.03.854h2.605q.52 0 .52 2.145 0 2.14-.52 2.14h-2.175zm9.788-.06q0 .275-3.119.275-2.45-.03-2.45-.245v-20.835q0-.454 2.97-.454 2.6.09 2.6.305zm8.351.06q0 .245-2.802.245-2.796 0-2.796-.215v-15.021q0-.21 2.796-.21 2.802 0 2.802.18zm0-16.826q0 .216-2.802.216-2.796 0-2.796-.186v-4.403q0-.305 2.796-.305 2.802 0 2.802.185zm8.382 17.011q-2.964 0-4.59-1.912-1.618-1.911-1.618-5.658 0-3.746 2.127-5.873t5.658-2.128q3.537 0 5.832 1.56v15.236q0 2.265-1.84 3.472-1.836 1.206-4.709 1.206-2.874 0-5.138-.734-.312-.736-.311-1.315 0-1.959.645-2.874a10.9 10.9 0 0 0 4.374.884q1.685 0 1.685-1.189v-.92q-1.315.245-2.115.245m1.41-10.587q-2.05 0-2.05 3.095 0 1.923.795 2.503.52.4 1.04.4t.92-.09v-5.813a2.8 2.8 0 0 0-.705-.095m13.855 10.372q0 .275-2.557.275-2.551 0-2.551-.424v-20.96q0-.21.95-.3a16 16 0 0 1 1.589-.095q2.57 0 2.57.55v6.118q1.713-.52 2.604-.52 2.325 0 3.669 1.243 1.344 1.237 1.344 4.601v9.482q0 .275-2.384.275-2.694-.09-2.694-.305v-8.992q0-1.5-.974-1.5-.675 0-1.566.64zm17.257.03q0 .37-2.57.37-3.06-.125-3.059-.4v-10.824h-1.56q-.615 0-.615-2.115 0-.549.108-1.344.107-.795.448-.795h1.62v-2.694q0-.61 2.58-.61 2.588 0 2.588.49v1.96l.03.854h2.605q.52 0 .52 2.145 0 2.14-.52 2.14h-2.175z" fill="#fff"/><path d="M125.467 92.339c-16.116-16.116-16.116-42.247 0-58.363 16.117-16.117 42.247-16.117 58.364 0 16.116 16.116 16.116 42.247 0 58.363-16.117 16.116-42.247 16.116-58.364 0" fill-opacity=".502"/><path d="M213.571 189.762c-14.596-14.596-14.596-38.261 0-52.857s38.262-14.596 52.858 0 14.596 38.261 0 52.857-38.262 14.596-52.858 0" fill="url(#t)" transform="translate(-85.351 -100.176)"/><path d="M216.66 186.673c-12.89-12.89-12.89-33.789 0-46.68s33.79-12.89 46.68 0 12.89 33.79 0 46.68-33.79 12.89-46.68 0" fill="url(#u)" transform="translate(-85.351 -100.176)"/><path d="m163.394 61.92-6.778-5.513 14.066-12.36s1.307-1.378 2.242-.978c1.512.647.838 2.216.838 2.216zm-29.25 14.199c.47-.472 1.001-.877 1.502-1.317l4.76-4.176 4.74-4.158 7.726 12.309s-.03.089-.238.423c-.442.712-.723 1.455-1.367 2.037-1.413 1.273-3.408 1.85-5.241 2.158a20.7 20.7 0 0 1-7.32-.073c-1.761-.341-3.689-.943-4.999-2.234-.467-.46-.842-1.03-.969-1.68a2.56 2.56 0 0 1 .052-1.196c.129-.448.61-1.346 1.355-2.093m8.54-.136c-4.267 0-7.727 1.325-7.727 2.96 0 1.634 3.46 2.958 7.727 2.958s7.726-1.324 7.726-2.959c0-1.634-3.46-2.959-7.726-2.959m30.805-1.325 1.437 1.26c.522.459.938 1.018 1.287 1.618l.005.01c.242.415.387.884.387 1.366 0 3.17-4.72 4.36-7.102 4.582-3.589.336-7.878.256-10.854-1.777-.976-.667-1.389-1.561-1.977-2.507l-1.585-2.547-13.679-21.967-6.326-10.162c-.603-.966 1.13-2.575 2.238-1.604l8.426 7.392 21.025 18.442zm-6.768 1.325c-4.267 0-7.727 1.325-7.727 2.96 0 1.634 3.46 2.958 7.727 2.958s7.726-1.324 7.726-2.959c0-1.634-3.46-2.959-7.726-2.959" fill="#fff"/><g stroke-width="0"><path d="M118.167 132.783c-1.771-7.795 3.111-15.55 10.906-17.321s15.55 3.111 17.32 10.906c1.772 7.794-3.11 15.55-10.905 17.32-7.795 1.772-15.55-3.11-17.321-10.905" fill="url(#v)" transform="translate(-85.351 -100.176)"/><path d="M119.436 131.714c-1.263-7.048 3.428-13.785 10.476-15.048a12.96 12.96 0 0 1 12.609 4.913c1.206 1.584-21.823 17.183-23.085 10.135" fill="url(#w)" transform="translate(-85.351 -100.176)"/><path d="M121.259 127.187c.979-4.559 4.693-8.249 9.578-8.966a11.45 11.45 0 0 1 6.862 1.115c1.656.84-16.72 9.158-16.44 7.851" fill="url(#x)" transform="translate(-85.351 -100.176)"/><path d="M146.807 128.54c.1 5.458-2.034 11.504-9.575 14.738-6.072 2.605-13.769-1.371-15.106-3.247-.998-1.4-5.014-6.72-2.494-8.363 3.614-2.357 14.444-9.331 20.687-9.675 5.205-.287 6.232 5.792 6.488 6.547" fill="url(#y)" transform="translate(-85.351 -100.176)"/></g><g stroke-width="0"><path d="M102.832 175.59c-.49-13.507 10.064-24.853 23.571-25.342 13.508-.49 24.854 10.064 25.343 23.572s-10.065 24.853-23.572 25.342c-13.507.49-24.853-10.064-25.342-23.572" fill="url(#z)" transform="translate(-85.351 -100.176)"/><path d="M105.276 174.214c.122-12.107 10.035-21.823 22.142-21.701 8.51.085 15.84 5.01 19.4 12.132 1.506 3.01-41.663 21.676-41.542 9.57" fill="url(#A)" transform="translate(-85.351 -100.176)"/><path d="M109.73 167.268c3.062-7.267 10.394-12.227 18.735-11.88a19.36 19.36 0 0 1 11.049 4.012c2.487 1.916-30.662 9.95-29.784 7.868" fill="url(#B)" transform="translate(-85.351 -100.176)"/><path d="M151.748 177.56c-1.55 9.098-7 18.47-20.546 21.47-10.909 2.416-22.444-6.614-24.076-10.152-1.216-2.638-6.214-12.741-1.509-14.679 6.746-2.778 26.934-10.954 37.413-9.56 8.74 1.162 8.532 11.584 8.718 12.92" fill="url(#C)" transform="translate(-85.351 -100.176)"/></g><g stroke-width="0"><path d="M290.321 150.806c1.028-11.24 10.972-19.519 22.212-18.492 11.24 1.028 19.518 10.972 18.49 22.212-1.026 11.24-10.97 19.518-22.21 18.49-11.24-1.026-19.519-10.97-18.492-22.21" fill="url(#D)" transform="translate(-85.351 -100.176)"/><path d="M292.492 149.925c1.385-10.015 10.626-17.012 20.641-15.627 7.04.973 12.588 5.829 14.783 12.106.927 2.653-36.809 13.536-35.424 3.52" fill="url(#E)" transform="translate(-85.351 -100.176)"/><path d="M296.917 144.644c3.307-5.694 9.906-9.026 16.778-7.854a16.17 16.17 0 0 1 8.726 4.495c1.857 1.85-26.451 4.99-25.504 3.359" fill="url(#F)" transform="translate(-85.351 -100.176)"/><path d="M330.63 157.623c-2.25 7.373-7.758 14.557-19.296 15.605-9.291.845-17.888-7.857-18.864-10.96-.729-2.315-3.797-11.213.306-12.32 5.882-1.585 23.47-6.217 32.002-3.951 7.116 1.89 5.838 10.5 5.851 11.626" fill="url(#G)" transform="translate(-85.351 -100.176)"/></g><g stroke-width="0"><path d="M347.591 185.847c-.651-7.986 5.294-14.988 13.28-15.64 7.986-.65 14.988 5.295 15.64 13.28.65 7.986-5.295 14.988-13.28 15.64-7.986.651-14.988-5.294-15.64-13.28" fill="url(#H)" transform="translate(-85.351 -100.176)"/><path d="M349.002 184.966c-.252-7.172 5.358-13.192 12.53-13.444a13 13 0 0 1 11.815 6.665c.971 1.742-24.092 13.952-24.345 6.78" fill="url(#I)" transform="translate(-85.351 -100.176)"/><path d="M351.453 180.734c1.619-4.386 5.828-7.52 10.777-7.538 2.473-.01 4.768.761 6.65 2.08 1.524 1.068-17.89 6.714-17.427 5.458" fill="url(#J)" transform="translate(-85.351 -100.176)"/><path d="M376.612 185.702c-.675 5.43-3.65 11.125-11.592 13.265-6.395 1.723-13.468-3.315-14.53-5.366-.79-1.53-4.02-7.379-1.286-8.653 3.92-1.826 15.656-7.209 21.899-6.664 5.206.454 5.362 6.632 5.509 7.418" fill="url(#K)" transform="translate(-85.351 -100.176)"/></g><g stroke-width="0"><path d="M160.13 161.389a8.695 8.695 0 1 1 16.221-6.268 8.695 8.695 0 0 1-16.222 6.268" fill="url(#L)" transform="translate(-85.351 -100.176)"/><path d="M160.79 160.643a7.79 7.79 0 0 1 12.843-8.031c.854.836-11.479 12.111-12.842 8.031" fill="url(#M)" transform="translate(-85.351 -100.176)"/><path d="M161.48 157.794a6.913 6.913 0 0 1 9.091-6.097c1.058.355-9.143 6.898-9.09 6.097" fill="url(#N)" transform="translate(-85.351 -100.176)"/><path d="M176.786 156.377c.534 3.236-.21 7.015-4.41 9.594-3.384 2.076-8.305.381-9.263-.618-.715-.745-3.565-3.558-2.21-4.754 1.944-1.716 7.776-6.803 11.457-7.55 3.07-.623 4.208 2.901 4.426 3.328" fill="url(#O)" transform="translate(-85.351 -100.176)"/></g><g stroke-width="0"><path d="M346.64 137.037a8.695 8.695 0 1 1 17.201-2.564 8.695 8.695 0 0 1-17.2 2.564" fill="url(#P)" transform="translate(-85.351 -100.176)"/><path d="M347.45 136.454a7.79 7.79 0 0 1 14.288-5.025c.65 1.003-13.852 9.305-14.289 5.025" fill="url(#Q)" transform="translate(-85.351 -100.176)"/><path d="M348.746 133.825a6.913 6.913 0 0 1 10.205-3.958c.954.578-10.432 4.728-10.205 3.958" fill="url(#R)" transform="translate(-85.351 -100.176)"/><path d="M363.99 135.793c-.187 3.275-1.74 6.8-6.403 8.396-3.756 1.285-8.187-1.446-8.903-2.63-.535-.884-2.7-4.253-1.115-5.124 2.272-1.248 9.076-4.935 12.831-4.858 3.132.064 3.471 3.752 3.59 4.216" fill="url(#S)" transform="translate(-85.351 -100.176)"/></g><path d="M90.351 242.329V117.123c0-7.424 6.041-11.947 13.369-11.947h272.61c8.46 0 13.319 5.658 13.319 11.697v125.705c0 7.603-4.955 12.246-13.568 12.246H103.47c-7.204 0-13.12-6.096-13.12-12.495z" fill="none" stroke="url(#T)" stroke-width="10" transform="translate(-85.351 -100.176)"/></g></svg>