<svg xmlns="http://www.w3.org/2000/svg" width="309.297" height="159.649" viewBox="0 0 309.297 159.649"><defs><linearGradient x1="240" y1="105.176" x2="240" y2="254.824" gradientUnits="userSpaceOnUse" id="a"><stop offset="0" stop-color="#735600"/><stop offset="1" stop-color="#b38600"/></linearGradient></defs><path d="M4.899 145.074V15.024c0-5 4.645-9.45 10.55-9.45h274.95c8.881 0 14 4.747 14 12.5v126c0 5.72-3.6 11-10 11h-278.5c-6.135 0-11-3.737-11-10" fill="#ffbf00"/><path d="m53.947 107.004 4.845 17.192c.097.341.056.72-.178.934-1.645 2.525-4.104 4.25-6.901 5.038s-5.815.534-8.517-.692c-2.196-1.001-4.63-1.273-6.949-.62a9.8 9.8 0 0 0-3.622 1.9c-.62.518-.372.467-.86 1.148l3.322 11.787c.193.682-.65 1.792-1.333 1.984-.682.193-1.85-.35-2.042-1.033l-8.19-29.062c-.155-.545.09-.983.374-1.283 1.683-2.39 4.006-4.075 6.735-4.844 2.797-.789 5.882-.554 8.584.673 2.197 1 4.61 1.204 6.93.55s4.272-2.087 5.623-4.088c.332-.388.79-.591 1.257-.502.467.09.787.441.922.919" fill="#e6ac00"/><path d="M70.799 129.92a17.79 17.79 0 0 1 5.364-16.465l-.327-1.674a4.36 4.36 0 0 1 3.442-5.111l9.874-1.928a4.36 4.36 0 0 1 5.112 3.442l.327 1.675a17.804 17.804 0 1 1-23.789 20.06zm20.15-11.058c.551-.108.696-.864.229-1.193l-5.034-3.573a.63.63 0 0 0-.882.172l-3.307 5.2c-.31.482.098 1.132.661 1.023l1.973-.386 2.103 6.255a2.199 2.199 0 0 0 2.146 3.605l4.41 3.9-1.124 1.667c-.32.475.119 1.105.684 1.007l6.077-1.025a.63.63 0 0 0 .501-.743l-1.33-6.026c-.122-.56-.876-.72-1.19-.255l-1.149 1.706-5.194-2.58a2.19 2.19 0 0 0-1.19-1.754l-.403-6.604z" fill="#ffcf40"/><path d="M116.549 115.742a8.644 8.644 0 0 1 5.889-10.732 8.645 8.645 0 0 1 10.732 5.89 8.63 8.63 0 0 1-1.682 7.983l-2.012-6.907a4.809 4.809 0 0 0-9.234 2.69l2.012 6.907a8.63 8.63 0 0 1-5.705-5.83m28.792 11.146c.032.11.051.245.07.38l1.451 10.136c.19 1.408-.586 2.736-1.97 3.139l-12.54 3.653a2.9 2.9 0 0 1-2.195-.242l-11.78-6.465s-3.518-2.482 4.109-4.373c2.498-.62 5.382.846 5.382.846l-5.779-19.834a2.88 2.88 0 0 1 1.963-3.577 2.88 2.88 0 0 1 3.577 1.963l3.228 11.08 6.72-1.957c.35-.102.704-.125 1.056-.087 0 0 6.374 4.193 6.708 5.338" fill="#ffd24d"/><path d="m184.786 107.004 4.845 17.192c.096.341.056.72-.179.934-1.644 2.525-4.104 4.25-6.9 5.038-2.798.788-5.815.534-8.517-.692-2.197-1.001-4.63-1.273-6.95-.62a9.8 9.8 0 0 0-3.622 1.9c-.62.518-.372.467-.86 1.148l3.323 11.787c.192.682-.651 1.792-1.333 1.984-.682.193-1.85-.35-2.042-1.033l-8.191-29.062c-.154-.545.09-.983.374-1.283 1.683-2.39 4.006-4.075 6.735-4.844 2.797-.789 5.883-.554 8.585.673 2.197 1 4.61 1.204 6.93.55s4.272-2.087 5.622-4.088c.333-.388.79-.591 1.258-.502.467.09.787.441.922.919m16.853 22.915a17.79 17.79 0 0 1 5.362-16.465l-.326-1.674a4.36 4.36 0 0 1 3.442-5.111l9.874-1.927a4.36 4.36 0 0 1 5.111 3.441l.327 1.675a17.804 17.804 0 1 1-23.788 20.06zm20.149-11.058c.55-.108.695-.864.229-1.193l-5.035-3.573a.63.63 0 0 0-.881.172l-3.307 5.2c-.311.482.098 1.132.66 1.023l1.974-.386 2.102 6.255a2.199 2.199 0 0 0 2.147 3.605l4.409 3.9-1.123 1.667c-.32.475.118 1.105.683 1.007l6.078-1.025a.63.63 0 0 0 .5-.743l-1.33-6.026c-.121-.56-.875-.72-1.19-.255l-1.148 1.706-5.194-2.58a2.19 2.19 0 0 0-1.191-1.754l-.402-6.604z" fill="#ffcf40"/><path d="M247.387 115.742a8.644 8.644 0 0 1 5.89-10.732 8.645 8.645 0 0 1 10.731 5.89 8.63 8.63 0 0 1-1.681 7.983l-2.012-6.907a4.809 4.809 0 0 0-9.234 2.69l2.012 6.907a8.63 8.63 0 0 1-5.706-5.83m28.793 11.146c.032.11.051.245.07.38l1.45 10.136c.19 1.408-.585 2.736-1.97 3.139l-12.54 3.653a2.9 2.9 0 0 1-2.194-.242l-11.781-6.465s-3.517-2.482 4.11-4.373c2.497-.62 5.381.846 5.381.846l-5.778-19.834a2.88 2.88 0 0 1 1.963-3.577 2.88 2.88 0 0 1 3.577 1.963l3.228 11.08 6.719-1.957c.35-.102.705-.125 1.056-.087 0 0 6.375 4.193 6.709 5.338" fill="#e6ac00"/><path d="M6.335 85.989a17.79 17.79 0 0 1 5.364-16.465l-.326-1.674a4.36 4.36 0 0 1 3.442-5.111l9.874-1.928a4.36 4.36 0 0 1 5.111 3.442l.327 1.674A17.804 17.804 0 1 1 6.339 85.989zm20.15-11.059c.55-.107.695-.863.229-1.193l-5.035-3.572a.63.63 0 0 0-.881.172l-3.307 5.2c-.31.481.098 1.132.661 1.022l1.973-.385 2.102 6.254a2.199 2.199 0 0 0 2.147 3.606l4.409 3.9-1.123 1.667c-.32.475.118 1.105.684 1.007l6.077-1.025a.63.63 0 0 0 .5-.743l-1.329-6.026c-.122-.56-.876-.721-1.19-.255l-1.149 1.706-5.194-2.58a2.19 2.19 0 0 0-1.191-1.754l-.402-6.604z" fill="#ffd24d"/><path d="M52.084 71.811a8.644 8.644 0 0 1 5.89-10.732 8.645 8.645 0 0 1 10.731 5.89 8.63 8.63 0 0 1-1.681 7.983l-2.012-6.907a4.809 4.809 0 0 0-9.234 2.69l2.012 6.907a8.63 8.63 0 0 1-5.706-5.831m28.793 11.146c.032.11.051.245.07.38l1.45 10.136c.19 1.407-.585 2.735-1.97 3.139l-12.54 3.653a2.9 2.9 0 0 1-2.194-.242l-11.781-6.465s-3.517-2.482 4.11-4.373c2.497-.62 5.381.846 5.381.846l-5.778-19.834a2.88 2.88 0 0 1 1.963-3.577 2.88 2.88 0 0 1 3.577 1.963l3.228 11.08 6.72-1.957c.35-.102.704-.125 1.056-.088 0 0 6.374 4.194 6.708 5.339" fill="#ffcf40"/><path d="m120.321 63.074 4.846 17.19c.096.342.056.721-.179.935-1.644 2.525-4.104 4.25-6.901 5.038s-5.814.534-8.516-.693c-2.197-1-4.63-1.272-6.95-.618a9.8 9.8 0 0 0-3.622 1.9c-.62.517-.372.466-.86 1.147l3.323 11.786c.192.683-.651 1.793-1.333 1.985-.683.192-1.85-.351-2.042-1.033l-8.192-29.062c-.153-.546.092-.983.375-1.284 1.683-2.389 4.006-4.074 6.735-4.844 2.797-.788 5.882-.553 8.585.674 2.196 1 4.61 1.204 6.93.55s4.271-2.087 5.622-4.088c.332-.388.79-.591 1.258-.502.467.09.787.44.921.918m16.853 22.916a17.79 17.79 0 0 1 5.363-16.465l-.327-1.674a4.36 4.36 0 0 1 3.442-5.111l9.875-1.928a4.36 4.36 0 0 1 5.111 3.442l.327 1.674a17.804 17.804 0 1 1-23.789 20.062zm20.15-11.059c.55-.107.695-.863.228-1.193l-5.034-3.572a.63.63 0 0 0-.882.172l-3.306 5.2c-.311.481.098 1.132.66 1.022l1.974-.385 2.102 6.254a2.199 2.199 0 0 0 2.147 3.606l4.408 3.9-1.122 1.667c-.32.475.118 1.105.683 1.007l6.078-1.025a.63.63 0 0 0 .5-.743l-1.33-6.026c-.122-.56-.876-.721-1.19-.255l-1.148 1.706-5.195-2.58a2.19 2.19 0 0 0-1.19-1.754l-.403-6.604zm25.599-3.119a8.644 8.644 0 0 1 5.889-10.732 8.645 8.645 0 0 1 10.732 5.89 8.63 8.63 0 0 1-1.681 7.983l-2.013-6.907a4.809 4.809 0 0 0-9.234 2.69l2.013 6.907a8.63 8.63 0 0 1-5.706-5.831m28.792 11.146c.033.11.052.245.071.38l1.45 10.136c.19 1.407-.585 2.735-1.97 3.139l-12.54 3.653a2.9 2.9 0 0 1-2.194-.242l-11.781-6.465s-3.517-2.482 4.11-4.373c2.497-.62 5.38.846 5.38.846l-5.778-19.834a2.88 2.88 0 0 1 1.963-3.577 2.88 2.88 0 0 1 3.577 1.963l3.229 11.08 6.719-1.957c.35-.102.704-.125 1.056-.088 0 0 6.375 4.194 6.708 5.339" fill="#e6ac00"/><path d="m251.159 63.074 4.846 17.19c.096.342.056.721-.178.935-1.645 2.525-4.104 4.25-6.901 5.038s-5.815.534-8.517-.693c-2.197-1-4.63-1.272-6.95-.618a9.8 9.8 0 0 0-3.622 1.9c-.619.517-.371.466-.859 1.147l3.322 11.786c.192.683-.65 1.793-1.333 1.985s-1.85-.351-2.042-1.033l-8.191-29.062c-.154-.546.091-.983.375-1.284 1.683-2.389 4.006-4.074 6.735-4.844 2.797-.788 5.882-.553 8.584.674 2.197 1 4.61 1.204 6.93.55s4.272-2.087 5.623-4.088c.332-.388.79-.591 1.257-.502.467.09.787.44.922.918m16.852 22.916a17.79 17.79 0 0 1 5.364-16.465l-.327-1.674a4.36 4.36 0 0 1 3.442-5.111l9.874-1.928a4.36 4.36 0 0 1 5.112 3.442l.326 1.674a17.804 17.804 0 1 1-23.788 20.062zm20.15-11.059c.551-.107.696-.863.229-1.193l-5.034-3.572a.63.63 0 0 0-.882.172l-3.307 5.2c-.31.481.098 1.132.661 1.022l1.973-.385 2.103 6.254a2.199 2.199 0 0 0 2.146 3.606l4.409 3.9-1.123 1.667c-.32.475.118 1.105.684 1.007l6.077-1.025a.63.63 0 0 0 .501-.743l-1.33-6.026c-.122-.56-.876-.721-1.19-.255l-1.149 1.706-5.194-2.58a2.19 2.19 0 0 0-1.19-1.754l-.403-6.604zM53.947 16.277l4.845 17.192c.097.34.056.72-.178.934-1.645 2.525-4.104 4.25-6.901 5.038s-5.815.534-8.517-.693c-2.197-1-4.63-1.272-6.949-.619a9.8 9.8 0 0 0-3.622 1.9c-.62.518-.372.466-.86 1.147l3.322 11.787c.193.682-.65 1.793-1.333 1.985s-1.85-.351-2.042-1.034l-8.19-29.061c-.155-.546.09-.983.374-1.284 1.683-2.389 4.006-4.075 6.735-4.844 2.797-.788 5.882-.553 8.584.673 2.197 1.001 4.61 1.205 6.93.551s4.272-2.088 5.623-4.088c.332-.389.79-.592 1.257-.502s.787.44.922.918" fill="#ffcf40"/><path d="M70.799 39.193a17.79 17.79 0 0 1 5.364-16.465l-.327-1.674a4.36 4.36 0 0 1 3.442-5.112l9.874-1.927a4.36 4.36 0 0 1 5.112 3.442l.327 1.674a17.804 17.804 0 1 1-23.789 20.061zm20.15-11.059c.551-.107.696-.864.229-1.193l-5.034-3.572a.63.63 0 0 0-.882.172l-3.307 5.2c-.31.481.098 1.132.661 1.022l1.973-.385 2.103 6.254a2.199 2.199 0 0 0 2.146 3.606l4.41 3.9-1.124 1.666c-.32.476.119 1.105.684 1.008l6.077-1.025a.63.63 0 0 0 .501-.744l-1.33-6.025c-.122-.56-.876-.721-1.19-.255l-1.149 1.706-5.194-2.58a2.19 2.19 0 0 0-1.19-1.754l-.403-6.604zm25.6-3.12a8.644 8.644 0 0 1 5.889-10.731 8.645 8.645 0 0 1 10.732 5.89 8.63 8.63 0 0 1-1.682 7.982l-2.012-6.907a4.809 4.809 0 0 0-9.234 2.69l2.012 6.908a8.63 8.63 0 0 1-5.705-5.831m28.792 11.147c.032.11.051.245.07.38l1.451 10.136c.19 1.407-.585 2.735-1.97 3.139l-12.54 3.653a2.9 2.9 0 0 1-2.195-.242l-11.78-6.466s-3.518-2.481 4.109-4.372c2.498-.62 5.382.846 5.382.846l-5.779-19.834a2.88 2.88 0 0 1 1.963-3.577 2.88 2.88 0 0 1 3.577 1.963l3.228 11.08 6.72-1.957c.35-.103.704-.126 1.056-.088 0 0 6.374 4.194 6.708 5.339" fill="#e6ac00"/><path d="m184.786 16.277 4.845 17.192c.096.34.056.72-.179.934-1.644 2.525-4.104 4.25-6.9 5.038-2.798.788-5.815.534-8.517-.693-2.197-1-4.63-1.272-6.95-.619a9.8 9.8 0 0 0-3.622 1.9c-.62.518-.372.466-.86 1.147l3.323 11.787c.192.682-.651 1.793-1.333 1.985s-1.85-.351-2.042-1.034l-8.191-29.061c-.154-.546.09-.983.374-1.284 1.683-2.389 4.006-4.075 6.735-4.844 2.797-.788 5.883-.553 8.585.673 2.197 1.001 4.61 1.205 6.93.551s4.272-2.088 5.622-4.088c.333-.389.79-.592 1.258-.502s.787.44.922.918" fill="#ffd24d"/><path d="M201.639 39.193a17.79 17.79 0 0 1 5.362-16.465l-.326-1.674a4.36 4.36 0 0 1 3.442-5.112l9.874-1.927a4.36 4.36 0 0 1 5.111 3.442l.327 1.674a17.804 17.804 0 1 1-23.788 20.061zm20.149-11.059c.55-.107.695-.864.229-1.193l-5.035-3.572a.63.63 0 0 0-.881.172l-3.307 5.2c-.311.481.098 1.132.66 1.022l1.974-.385 2.102 6.254a2.199 2.199 0 0 0 2.147 3.606l4.409 3.9-1.123 1.666c-.32.476.118 1.105.683 1.008l6.078-1.025a.63.63 0 0 0 .5-.744l-1.33-6.025c-.121-.56-.875-.721-1.19-.255l-1.148 1.706-5.194-2.58a2.19 2.19 0 0 0-1.191-1.754l-.402-6.604z" fill="#ffcf40"/><path d="M247.387 25.014a8.644 8.644 0 0 1 5.89-10.731 8.645 8.645 0 0 1 10.731 5.89 8.63 8.63 0 0 1-1.681 7.982l-2.012-6.907a4.809 4.809 0 0 0-9.234 2.69l2.012 6.908a8.63 8.63 0 0 1-5.706-5.831m28.793 11.147c.032.11.051.245.07.38l1.45 10.136c.19 1.407-.585 2.735-1.97 3.139l-12.54 3.653a2.9 2.9 0 0 1-2.194-.242l-11.781-6.466s-3.517-2.481 4.11-4.372c2.497-.62 5.381.846 5.381.846l-5.778-19.834a2.88 2.88 0 0 1 1.963-3.577 2.88 2.88 0 0 1 3.577 1.963l3.228 11.08 6.719-1.957c.35-.103.705-.126 1.056-.088 0 0 6.375 4.194 6.709 5.339" fill="#e6ac00"/><path d="M90.351 117.671c0-6.399 5.916-12.495 13.12-12.495h272.61c8.613 0 13.568 4.643 13.568 12.246v125.705c0 6.04-4.86 11.697-13.32 11.697H103.72c-7.328 0-13.369-4.523-13.369-11.947z" fill="none" stroke="url(#a)" stroke-width="10" transform="translate(-85.351 -100.176)"/><path d="M222.131 112.629v7.01h7.065q1.608 0 2.185 2.12.223.837.223 1.636 0 .791-.223 1.627-.576 2.11-2.185 2.11h-7.066v7.16q0 1.608-2.1 2.184a6.3 6.3 0 0 1-1.711.223l-1.506-.204q-2.175-.595-2.176-2.204v-7.158h-7.103q-1.608 0-2.185-2.101a6.2 6.2 0 0 1-.232-1.637 6.2 6.2 0 0 1 .232-1.645q.577-2.11 2.185-2.11h7.103v-7.01q0-1.609 2.11-2.186a6.3 6.3 0 0 1 1.702-.223l1.515.205q2.166.594 2.166 2.203z" fill="none" stroke-opacity=".502" stroke="#000" stroke-width="6.75" stroke-linecap="square"/><path d="M222.131 112.629v7.01h7.065q1.608 0 2.185 2.12.223.837.223 1.636 0 .791-.223 1.627-.576 2.11-2.185 2.11h-7.066v7.16q0 1.608-2.1 2.184a6.3 6.3 0 0 1-1.711.223l-1.506-.204q-2.175-.595-2.176-2.204v-7.158h-7.103q-1.608 0-2.185-2.101a6.2 6.2 0 0 1-.232-1.637 6.2 6.2 0 0 1 .232-1.645q.577-2.11 2.185-2.11h7.103v-7.01q0-1.609 2.11-2.186a6.3 6.3 0 0 1 1.702-.223l1.515.205q2.166.594 2.166 2.203" fill="#fff"/><path d="M96.015 120.654q.757 0 .757 2.802 0 .835-.18 1.975-.179 1.14-.655 1.14h-5.073v3.996l8.46-2.217c.453 0-.35 2.802-.195 3.973q.126.765.125 1.624 0 .858-.242 2.216-.24 1.359-.796 1.359H84.549q-1.522 0-1.522-1.242v-25.695q0-1.038.921-1.038h14.307q.835 0 .835 3.536t-.835 3.536h-7.391v4.035zm4.958-2.997q-.126-.32 3.73-.32 3.864 0 3.864.203l2.873 13.589 2.162-13.386q.117-.36 3.957-.36 3.871 0 3.754.313l-5.635 19.545q-.28.398-4.761.398-4.473 0-4.793-.594zm37.485 18.787q-2.52 1.476-6.478 1.476t-6.674-2.693q-2.716-2.7-2.716-7.478 0-4.776 2.615-7.688 2.622-2.92 6.618-2.92 3.998 0 6.174 2.038 2.178 2.037 2.178 4.956 0 6.471-7.43 6.471h-2.764q0 1.202.656 1.663.663.46 1.944.46 2.802 0 5.315-1.28.039-.039.36.554.96 1.725.96 2.904t-.758 1.537m-4.995-11.552q0-1.678-1.64-1.678-.757 0-1.303.46-.54.462-.539 1.336v1.24h2.162q1.32 0 1.32-1.358m17.658 12.388q0 .28-2.873.28-3.996-.116-3.996-.437v-12.949h-1.038q-1.038 0-1.358-1.756a6.4 6.4 0 0 1-.086-1.038q0-1.241.484-2.482.719-1.755 2.232-1.756 1.522 0 2.716.718 1.203.718 1.608 1.436 2.513-2.154 5.987-2.154 3.48 0 5.034 1.88 1.562 1.875 1.562 6.151v11.99q0 .476-3.42.476-3.41 0-3.41-.477v-11.551q0-2-1.397-1.999-.406 0-1.124.344-.719.335-.921.5zm22.862 0q0 .483-3.356.483-3.996-.163-3.996-.522v-14.144h-2.037q-.804 0-.804-2.763 0-.718.14-1.756t.586-1.038h2.115v-3.52q0-.796 3.372-.796 3.38 0 3.38.64v2.56l.038 1.116h3.404q.678 0 .679 2.802c0 1.863.05 6.95-.402 6.95l-3.119-4.156zm6.355-6.955q3.24 1.96 5.113 1.96 1.202-.001 1.202-.836 0-.6-2.076-1.561-4.995-2.037-4.996-6.674 0-2.958 2.154-4.511 2.163-1.56 5.175-1.561 3.02 0 5.113.64 2.1.64 2.1 1.678 0 .875-.86 2.318-.858 1.436-1.178 1.553a7.54 7.54 0 0 0-3.715-.952q-1.077 0-1.077.757 0 .476.413.82.422.336 1.538.835 1.125.5 1.858.905.741.399 1.662 1.117 1.92 1.514 1.92 3.957 0 3.192-2.123 5.175-2.115 1.975-6.392 1.975-2.834 0-5.152-.96t-2.318-2.639q0-1.116.539-2.35.539-1.24 1.1-1.646" fill="none" stroke-opacity=".502" stroke="#000" stroke-width="6.75" stroke-linecap="round" stroke-linejoin="round"/><path d="M96.015 120.654q.757 0 .757 2.802 0 .835-.18 1.975-.179 1.14-.655 1.14h-5.073v3.996h7.352q.68 0 .913 1.756.126.765.125 1.624 0 .858-.242 2.216-.24 1.359-.796 1.359H84.549q-1.522 0-1.522-1.242v-25.695q0-1.038.921-1.038h14.307q.835 0 .835 3.536t-.835 3.536h-7.391v4.035zm4.958-2.997q-.126-.32 3.73-.32 3.864 0 3.864.203l2.873 13.589 2.162-13.386q.117-.36 3.957-.36 3.871 0 3.754.313l-5.635 19.545q-.28.398-4.761.398-4.473 0-4.793-.594zm37.485 18.787q-2.52 1.476-6.478 1.476t-6.674-2.693q-2.716-2.7-2.716-7.478 0-4.776 2.615-7.688 2.622-2.92 6.618-2.92 3.998 0 6.174 2.038 2.178 2.037 2.178 4.956 0 6.471-7.43 6.471h-2.764q0 1.202.656 1.663.663.46 1.944.46 2.802 0 5.315-1.28.039-.039.36.554.96 1.725.96 2.904t-.758 1.537m-4.995-11.552q0-1.678-1.64-1.678-.756 0-1.303.46-.54.462-.539 1.336v1.24h2.162q1.32 0 1.32-1.358m17.658 12.388q0 .28-2.873.28-3.996-.117-3.996-.437v-12.949h-1.038q-1.038 0-1.358-1.756a6.4 6.4 0 0 1-.086-1.038q0-1.241.484-2.482.719-1.755 2.232-1.756 1.522 0 2.716.718 1.203.718 1.608 1.436 2.513-2.154 5.987-2.154 3.48 0 5.034 1.88 1.562 1.875 1.562 6.151v11.99q0 .476-3.42.476-3.41 0-3.41-.477v-11.551q0-2-1.397-1.999-.405 0-1.124.344-.719.335-.921.5zm22.862 0q0 .483-3.356.483-3.996-.163-3.996-.522v-14.144h-2.037q-.804 0-.804-2.763 0-.718.14-1.756t.586-1.038h2.115v-3.52q0-.796 3.372-.796 3.38 0 3.38.64v2.56l.038 1.116h3.404q.678 0 .679 2.802 0 2.794-.68 2.794h-2.84zm6.355-6.955q3.24 1.96 5.113 1.96 1.202-.001 1.202-.836 0-.6-2.076-1.561-4.995-2.037-4.996-6.674 0-2.958 2.154-4.511 2.163-1.56 5.175-1.561 3.02 0 5.113.64 2.1.64 2.1 1.678 0 .875-.86 2.318-.858 1.436-1.178 1.553a7.54 7.54 0 0 0-3.715-.952q-1.077 0-1.077.757 0 .476.413.82.422.336 1.538.835 1.125.5 1.858.905.741.399 1.662 1.117 1.92 1.514 1.92 3.957 0 3.192-2.123 5.175-2.115 1.975-6.392 1.975-2.834 0-5.152-.96t-2.318-2.639q0-1.116.539-2.35.539-1.24 1.1-1.646" fill="#fff"/><path d="M92.833 49.95c25.474-27.705 66.867-20.964 79.983-9.68l38.238-4.627q1.934-.417 3.259 1.805l4.152 34.307q.029 2.38-1.846 3.275l-80.366 9.725c-2.695 2.05-4.126 6.17-7.127 7.654l-11.379 1.377c-3.403-.688-5.505-4.336-8.868-5.492l-8.51 1.03q-2.378-1.028-2.99-2.517z" fill="none" stroke-opacity=".502" stroke="#000" stroke-width="15"/><path d="M92.833 49.95c25.474-27.705 66.867-20.964 79.983-9.68l38.238-4.627q1.934-.417 3.259 1.805l4.152 34.307q.029 2.38-1.846 3.275l-80.366 9.725c-2.695 2.05-4.126 6.17-7.127 7.654l-11.379 1.377c-3.403-.688-5.505-4.336-8.868-5.492l-8.51 1.03q-2.378-1.028-2.99-2.517z" fill="none" stroke="#fff" stroke-width="7.5"/><path d="M92.833 49.95c25.474-27.705 66.867-20.964 79.983-9.68l38.238-4.627q1.934-.417 3.259 1.805l4.152 34.307q.029 2.38-1.846 3.275l-80.366 9.725c-2.695 2.05-4.126 6.17-7.127 7.654l-11.379 1.377c-3.403-.688-5.505-4.336-8.868-5.492l-8.51 1.03q-2.378-1.028-2.99-2.517z" fill="#ffbf00" stroke="#c90" stroke-width="3.25"/><path d="M92.833 49.95c25.474-27.705 66.867-20.964 79.983-9.68l38.238-4.627q1.934-.417 3.259 1.805l4.152 34.307q.029 2.38-1.846 3.275l-80.366 9.725c-2.695 2.05-4.126 6.17-7.127 7.654l-11.379 1.377c-3.403-.688-5.505-4.336-8.868-5.492l-8.51 1.03q-2.378-1.028-2.99-2.517z" fill="#ffbf00" stroke="#c90" stroke-width="3.25"/><path d="m120.734 51.975 29.733-3.547c16.995.074 19.19 22.292 3.172 26.216l-29.721 3.64c-15.409.782-20.434-21.945-3.184-26.309z" fill="#b38600" stroke="#c90" stroke-width="2.5"/><path d="m195.259 47.901.727 6.002 6.05-.732q1.376-.166 2.09 1.589.278.693.36 1.378.082.676-.022 1.416-.276 1.866-1.652 2.033l-6.05.732.742 6.13q.166 1.376-1.573 2.088a5.5 5.5 0 0 1-1.441.368l-1.311-.02q-1.925-.283-2.091-1.66l-.742-6.13-6.081.736q-1.377.166-2.089-1.572a5.3 5.3 0 0 1-.368-1.377 5.4 5.4 0 0 1 .028-1.433q.275-1.867 1.652-2.033l6.082-.736-.726-6.002q-.168-1.377 1.58-2.09a5.4 5.4 0 0 1 1.434-.367l1.318.018q1.917.285 2.083 1.662z" fill="#fff" stroke="#fff" stroke-linecap="square"/><g fill="#fff" fill-rule="evenodd"><path d="M67.637 26.218a3.74 3.74 0 0 0 3.562-1.134l2.047-2.243c.969-1.06 2.716-.157 2.41 1.245l-.643 2.968a3.74 3.74 0 0 0 1.132 3.561l2.244 2.047c1.06.97.156 2.716-1.247 2.413l-2.967-.646a3.74 3.74 0 0 0-3.56 1.134l-2.048 2.242c-.967 1.06-2.714.157-2.41-1.246l.645-2.967a3.74 3.74 0 0 0-1.135-3.56l-2.244-2.047c-1.06-.969-.156-2.716 1.247-2.412z" stroke-opacity=".502" stroke="#000" stroke-width="5.5"/><path d="M67.662 25.989a3.74 3.74 0 0 0 3.562-1.134l2.047-2.244c.969-1.06 2.716-.156 2.41 1.246l-.644 2.968a3.74 3.74 0 0 0 1.133 3.561l2.243 2.047c1.06.969.157 2.716-1.246 2.412l-2.967-.646a3.74 3.74 0 0 0-3.56 1.134l-2.048 2.243c-.967 1.06-2.714.157-2.41-1.246l.645-2.967a3.74 3.74 0 0 0-1.136-3.56l-2.243-2.047c-1.06-.97-.157-2.716 1.247-2.413z"/></g><g fill="#fff" fill-rule="evenodd"><path d="M45.059 62.374a5.09 5.09 0 0 0 1.718-4.787l-.732-4.066c-.344-1.924 2.076-3.065 3.339-1.576l2.675 3.15a5.09 5.09 0 0 0 4.785 1.72l4.066-.733c1.924-.344 3.065 2.076 1.577 3.341l-3.15 2.673a5.09 5.09 0 0 0-1.717 4.784l.73 4.067c.346 1.922-2.074 3.064-3.34 1.575l-2.672-3.15a5.09 5.09 0 0 0-4.787-1.716l-4.066.733c-1.923.344-3.065-2.076-1.576-3.342z" stroke-opacity=".502" stroke="#000" stroke-width="6.5"/><path d="M45.059 62.374a5.09 5.09 0 0 0 1.718-4.787l-.732-4.066c-.344-1.924 2.076-3.065 3.339-1.576l2.675 3.15a5.09 5.09 0 0 0 4.785 1.72l4.066-.733c1.924-.344 3.065 2.076 1.577 3.341l-3.15 2.673a5.09 5.09 0 0 0-1.717 4.784l.73 4.067c.346 1.922-2.074 3.064-3.34 1.575l-2.672-3.15a5.09 5.09 0 0 0-4.787-1.716l-4.066.733c-1.923.344-3.065-2.076-1.576-3.342z"/></g><g fill="#fff" fill-rule="evenodd"><path d="M238.489 83.955a4.36 4.36 0 0 0 3.557-2.522l1.48-3.217c.702-1.521 2.964-1.136 3.12.53l.336 3.527a4.36 4.36 0 0 0 2.52 3.557l3.217 1.48c1.52.702 1.135 2.964-.532 3.123l-3.526.332a4.36 4.36 0 0 0-3.554 2.52l-1.483 3.217c-.7 1.522-2.96 1.137-3.12-.53l-.333-3.527a4.36 4.36 0 0 0-2.522-3.554l-3.218-1.48c-1.52-.703-1.135-2.964.532-3.123z" stroke-opacity=".502" stroke="#000" stroke-width="6"/><path d="M238.489 83.955a4.36 4.36 0 0 0 3.557-2.522l1.48-3.217c.702-1.521 2.964-1.136 3.12.53l.336 3.527a4.36 4.36 0 0 0 2.52 3.557l3.217 1.48c1.52.702 1.135 2.964-.532 3.123l-3.526.332a4.36 4.36 0 0 0-3.554 2.52l-1.483 3.217c-.7 1.522-2.96 1.137-3.12-.53l-.333-3.527a4.36 4.36 0 0 0-2.522-3.554l-3.218-1.48c-1.52-.703-1.135-2.964.532-3.123z"/></g></svg>
