<svg xmlns="http://www.w3.org/2000/svg" width="309.297" height="159.649" viewBox="0 0 309.297 159.649"><defs><linearGradient x1="240" y1="105.176" x2="240" y2="254.824" gradientUnits="userSpaceOnUse" id="a"><stop offset="0" stop-color="#003b09"/><stop offset="1" stop-color="#005c0e"/></linearGradient></defs><path d="M8.149 151.824v-144h293v144z" fill="#00be1e"/><path d="M18.149 30.699c0-15.05 12.2-27.25 27.25-27.25s27.25 12.2 27.25 27.25-12.2 27.25-27.25 27.25-27.25-12.2-27.25-27.25" fill-opacity=".6" fill="#00ff9a"/><path d="M99.766 90.199c0-9.803 7.947-17.75 17.75-17.75s17.75 7.947 17.75 17.75-7.947 17.75-17.75 17.75-17.75-7.947-17.75-17.75" fill-opacity=".6" fill="#00ff46"/><path d="M205.649 21.074c0-4.607.437-7.996 2.13-11.985 5.059-11.911 59.067-10.897 63.563 2.144 1.171 3.398.807 6.045.807 9.84 0 18.364-14.887 33.251-33.25 33.251s-33.25-14.887-33.25-33.25m-8.5 94.75c0-20.158 16.342-36.5 36.5-36.5s36.5 16.342 36.5 36.5-16.342 36.5-36.5 36.5-36.5-16.342-36.5-36.5" fill-opacity=".6" fill="#00ff9a"/><path d="M169.719 7.437c-3.176 8.408-11.3 14.387-20.82 14.387-9.236 0-17.157-5.627-20.523-13.64-1.112-2.648 42.267-3.192 41.344-.747M57.399 49.945c0-11.736 9.514-21.25 21.25-21.25s21.25 9.514 21.25 21.25-9.514 21.25-21.25 21.25-21.25-9.514-21.25-21.25m187.25 37.879c0-15.188 12.312-27.5 27.5-27.5s27.5 12.312 27.5 27.5-12.312 27.5-27.5 27.5-27.5-12.312-27.5-27.5" fill-opacity=".6" fill="#00ff46"/><path d="M9.649 127.074c0-19.744 16.006-35.75 35.75-35.75s35.75 16.006 35.75 35.75c0 10.103-4.191 19.228-10.93 25.73-6.43 6.204-43.63 6.019-50.1-.451s-10.47-15.407-10.47-25.279" fill-opacity=".6" fill="#00ff9a"/><path d="M91.649 13.074c0-7.87 28.5-7.87 28.5 0s-6.38 14.25-14.25 14.25-14.25-6.38-14.25-14.25m51 127.39c0-13.806 11.193-25 25-25s25 11.194 25 25c0 3.8-.847 7.4-2.363 10.624-3.994 8.495-40.987 8.693-45.067.43a24.9 24.9 0 0 1-2.57-11.053m51.5-102.391c0-11.736 9.514-21.25 21.25-21.25s21.25 9.514 21.25 21.25-9.514 21.25-21.25 21.25-21.25-9.514-21.25-21.25" fill-opacity=".6" fill="#00ff46"/><path d="M107.421 108.261q.752 0 .752 3.938 0 3.93-.752 3.931h-8.144v5.07h5.427q.76 0 .76 3.447t-.715 3.446h-5.472v10.713q0 .626-1.668.827-1.66.2-2.776.2l-2.092-.089q-2.175-.267-2.174-.893v-29.437q0-.707.283-.93.29-.225.87-.224zm19.387 29.927q-2.806 1.646-7.206 1.646t-7.43-3q-3.022-3.009-3.022-8.316 0-5.316 2.91-8.561 2.919-3.246 7.363-3.246t6.864 2.27q2.427 2.264 2.427 5.51 0 7.205-8.27 7.206h-3.068q0 1.332.73 1.846.737.506 2.166.506 3.112 0 5.911-1.422.045-.045.402.626 1.065 1.913 1.065 3.223t-.842 1.712zm-5.56-12.849q0-1.869-1.825-1.869-.84 0-1.444.514-.603.506-.603 1.482v1.384h2.405q1.467 0 1.466-1.511zm20.59 13.78q0 .536-3.737.536-4.444-.18-4.444-.58v-15.739h-2.271q-.893 0-.893-3.067 0-.803.156-1.958.156-1.161.648-1.161h2.36v-3.908q0-.894 3.752-.894 3.76 0 3.76.715v2.844l.044 1.243h3.782q.751 0 .752 3.12 0 3.111-.752 3.111h-3.157zm13.423-10.758q0 4.356 3.29 4.356 2.137 0 3.56-.842.669 0 1.086 2.293.424 2.286.424 3.112 0 .819-.223 1.087-2.352 1.467-6.447 1.467-4.087 0-6.96-3.045-2.867-3.052-2.867-8.316 0-5.271 2.822-8.516 2.829-3.246 7.519-3.246t6.514 2.263q.402.49.402 1.452 0 .953-.358 2.33-.796 2.843-2.092 3.29-.179.045-.513.045-.328 0-.82-.536-1.733-1.735-2.783-1.735-1.043 0-1.802 1.072-.752 1.065-.752 3.47zm18.988 10.713q0 .402-3.715.402-3.708 0-3.707-.625v-30.457q0-.312 1.377-.447a25 25 0 0 1 2.315-.134q3.73 0 3.73.804v8.89q2.494-.753 3.782-.753 3.38 0 5.338 1.802 1.957 1.802 1.957 6.693v13.78q0 .402-3.469.402-3.916-.135-3.916-.447v-13.073q0-2.174-1.421-2.174-.983 0-2.271.931z" fill="none" stroke-opacity=".506" stroke="#000" stroke-width="7.5" stroke-linecap="square"/><path d="M107.421 108.261q.752 0 .752 3.938 0 3.93-.752 3.931h-8.144v5.07h5.427q.76 0 .76 3.447t-.715 3.446h-5.472v10.713q0 .626-1.668.827-1.66.2-2.776.2l-2.092-.089q-2.175-.267-2.174-.893v-29.437q0-.707.283-.93.29-.224.87-.224zm12.181 31.573q-4.4 0-7.43-3-3.022-3.009-3.022-8.316 0-5.316 2.91-8.561 2.919-3.246 7.363-3.246t6.864 2.27q2.427 2.264 2.427 5.51 0 7.206-8.27 7.206h-3.068q0 1.332.73 1.846.737.506 2.166.506 3.112 0 5.911-1.422.045-.045.402.626 1.065 1.913 1.065 3.223t-.842 1.712s-4.273 1.646-7.206 1.646m1.645-14.495q0-1.869-1.824-1.869-.84 0-1.444.514-.603.506-.603 1.482v1.384h2.405q1.467 0 1.466-1.511m20.591 13.78q0 .536-3.737.536-4.444-.18-4.444-.58v-15.739h-2.271q-.894 0-.893-3.067 0-.803.156-1.958.156-1.161.648-1.161h2.36v-3.908q0-.894 3.752-.894 3.76 0 3.76.715v2.844l.044 1.243h3.782q.751 0 .752 3.12 0 3.111-.752 3.111h-3.157zm13.423-10.758q0 4.356 3.29 4.356 2.137 0 3.56-.842.669 0 1.086 2.293.424 2.286.424 3.112 0 .819-.223 1.087-2.352 1.467-6.447 1.467-4.087 0-6.96-3.045-2.867-3.052-2.867-8.316 0-5.271 2.822-8.516 2.829-3.246 7.519-3.246t6.514 2.263q.402.49.402 1.452 0 .953-.358 2.33-.795 2.844-2.092 3.29-.178.045-.513.045-.328 0-.82-.536-1.733-1.735-2.783-1.735-1.043 0-1.802 1.072-.752 1.065-.752 3.47m18.988 10.712q0 .402-3.715.402-3.707 0-3.707-.625v-30.457q0-.312 1.377-.447a25 25 0 0 1 2.315-.134q3.73 0 3.73.804v8.89q2.494-.753 3.782-.753 3.38 0 5.337 1.802 1.958 1.802 1.958 6.693v13.78q0 .402-3.469.402-3.916-.135-3.916-.447v-13.073q0-2.174-1.422-2.174-.982 0-2.27.931z" fill="#fff"/><path d="M116.792 56.208c0-19.425 15.747-35.173 35.173-35.173 19.425 0 35.173 15.748 35.173 35.173s-15.748 35.173-35.173 35.173-35.173-15.747-35.173-35.173z" fill="none" stroke="#005e0f" stroke-width="10"/><path d="M116.792 56.208c0-19.425 15.747-35.173 35.173-35.173 19.425 0 35.173 15.748 35.173 35.173s-15.748 35.173-35.173 35.173-35.173-15.747-35.173-35.173" fill="#008013"/><path d="M180.086 56.204c0 15.533-12.592 28.121-28.12 28.121-15.533 0-28.124-12.588-28.124-28.12s12.591-28.124 28.124-28.124c15.528 0 28.12 12.591 28.12 28.124" fill="none" stroke="#fff" stroke-width="5" stroke-linecap="round" stroke-linejoin="round"/><path d="M166.426 56.219c0 6.103-.992 11.75-2.716 16.355-2.61 7.107-6.903 11.747-11.75 11.747-4.849 0-9.127-4.64-11.751-11.747-1.706-4.605-2.702-10.252-2.702-16.355 0-6.108.996-11.75 2.702-16.356 2.624-7.145 6.902-11.786 11.75-11.786s9.14 4.64 11.75 11.786c1.725 4.605 2.717 10.248 2.717 16.356m12.289 8.09h-53.503m53.503-16.202h-53.503m26.753-20.023v56.248" fill="none" stroke="#fff" stroke-width="5" stroke-linecap="round" stroke-linejoin="round"/><path d="M175.324 66.217c-5.104 0-9.246 4.143-9.246 9.246s4.142 9.246 9.246 9.246c5.067 0 9.246-4.142 9.246-9.246 0-5.103-4.18-9.246-9.246-9.246m18.414 23.744a2.784 2.784 0 0 1 0 3.92 2.73 2.73 0 0 1-1.956.814c-.74 0-1.443-.26-1.96-.814l-5.19-5.16c-.602-.595-1.512-.676-2.255-.27-3.21 1.743-7.127 2.379-11.217 1.217-5.278-1.494-9.405-6.039-10.382-11.438-1.934-10.718 7.67-19.842 18.488-17.05 4.102 1.058 7.619 4.002 9.398 7.844 2.226 4.8 1.72 9.694-.352 13.529-.406.743-.325 1.65.27 2.248l5.156 5.16" fill="#fff" fill-rule="evenodd" stroke="#005e0f" stroke-width="15"/><path d="M175.324 66.217c-5.104 0-9.246 4.143-9.246 9.246s4.142 9.246 9.246 9.246c5.067 0 9.246-4.142 9.246-9.246 0-5.103-4.18-9.246-9.246-9.246m18.414 23.744a2.784 2.784 0 0 1 0 3.92 2.73 2.73 0 0 1-1.956.814c-.74 0-1.443-.26-1.96-.814l-5.19-5.16c-.602-.595-1.512-.676-2.255-.27-3.21 1.743-7.127 2.379-11.217 1.217-5.278-1.494-9.405-6.039-10.382-11.438-1.934-10.718 7.67-19.842 18.488-17.05 4.102 1.058 7.619 4.002 9.398 7.844 2.226 4.8 1.72 9.694-.352 13.529-.406.743-.325 1.65.27 2.248l5.156 5.16" fill="#fff" fill-rule="evenodd" stroke="#008013" stroke-width="7.5"/><path d="M175.324 66.217c-5.104 0-9.246 4.143-9.246 9.246s4.142 9.246 9.246 9.246c5.067 0 9.246-4.142 9.246-9.246 0-5.103-4.18-9.246-9.246-9.246m18.414 23.744a2.784 2.784 0 0 1 0 3.92 2.73 2.73 0 0 1-1.956.814c-.74 0-1.443-.26-1.96-.814l-5.19-5.16c-.602-.595-1.512-.676-2.255-.27-3.21 1.743-7.127 2.379-11.217 1.217-5.278-1.494-9.405-6.039-10.382-11.438-1.934-10.718 7.67-19.842 18.488-17.05 4.102 1.058 7.619 4.002 9.398 7.844 2.226 4.8 1.72 9.694-.352 13.529-.406.743-.325 1.65.27 2.248z" fill="#fff" fill-rule="evenodd"/><path d="M175.324 66.178c5.067 0 9.285 4.182 9.285 9.285 0 5.104-4.218 9.286-9.285 9.286-5.104 0-9.285-4.182-9.285-9.286s4.181-9.285 9.285-9.285" fill="#008013" fill-rule="evenodd"/><path d="M207.829 138.204a3.224 3.224 0 0 1-3.224-3.223v-5.325h-5.325a3.224 3.224 0 0 1-3.223-3.224v-1.13a3.224 3.224 0 0 1 3.223-3.223h5.325v-5.546a3.224 3.224 0 0 1 3.224-3.224h1.13a3.224 3.224 0 0 1 3.223 3.224v5.546h5.325a3.224 3.224 0 0 1 3.224 3.223v1.13a3.224 3.224 0 0 1-3.224 3.224h-5.325v5.325a3.224 3.224 0 0 1-3.223 3.223z" fill="none" stroke-opacity=".506" stroke="#000" stroke-width="7.5"/><path d="M207.829 138.204a3.224 3.224 0 0 1-3.224-3.223v-5.325h-5.325a3.224 3.224 0 0 1-3.223-3.224v-1.13a3.224 3.224 0 0 1 3.223-3.223h5.325v-5.546a3.224 3.224 0 0 1 3.224-3.224h1.13a3.224 3.224 0 0 1 3.223 3.224v5.546h5.325a3.224 3.224 0 0 1 3.224 3.223v1.13a3.224 3.224 0 0 1-3.224 3.224h-5.325v5.325a3.224 3.224 0 0 1-3.223 3.223z" fill="#fff"/><path d="M5.399 91.324c0-11.736 9.514-21.25 21.25-21.25s21.25 9.514 21.25 21.25-9.514 21.25-21.25 21.25-21.25-9.514-21.25-21.25" fill-opacity=".6" fill="#00ff46"/><path d="M90.351 117.671c0-6.399 5.916-12.495 13.12-12.495h272.61c8.613 0 13.568 4.643 13.568 12.246v125.705c0 6.04-4.86 11.697-13.32 11.697H103.72c-7.328 0-13.369-4.523-13.369-11.947z" fill="none" stroke="url(#a)" stroke-width="10" transform="translate(-85.351 -100.176)"/></svg>
