<svg version="1.1" xmlns="http://www.w3.org/2000/svg" xmlns:xlink="http://www.w3.org/1999/xlink" width="309.2973" height="159.64866" viewBox="0,0,309.2973,159.64866"><defs><linearGradient x1="240" y1="105.17566" x2="240" y2="254.82433" gradientUnits="userSpaceOnUse" id="color-1"><stop offset="0" stop-color="#845d03"/><stop offset="1" stop-color="#b17d02"/></linearGradient></defs><g transform="translate(-85.35135,-100.17567)"><g stroke-linejoin="miter" stroke-miterlimit="10" stroke-dasharray="" stroke-dashoffset="0" style="mix-blend-mode: normal"><g fill-rule="nonzero" stroke="none" stroke-width="1" stroke-linecap="butt"><path d="M91.39039,253.32418v-146.64851h297.21922v146.64852z" fill="#fcb103"/><path d="M286.39758,253.3242l102.21203,-100.86322v100.86322z" fill="#f0a902"/><path d="M91.39039,152.46111l102.21203,100.86322h-102.21203z" fill="#e3a514"/><path d="M106.25135,253.3242l148.60961,-146.64852h129.29036l-148.60961,146.64852z" fill="#f0a902"/><path d="M324.21211,253.3242l-148.6096,-146.64852h56.47165l148.60961,146.64852z" fill="#e3a514"/></g><path d="M90.35135,118.17133c0,-6.39897 5.91545,-12.99566 13.1192,-12.99566c28.93252,0 219.72832,0 272.60996,0c8.61359,0 13.56814,4.64378 13.56814,12.24625c0,30.59212 0,109.0924 0,125.70487c0,6.03964 -4.85913,11.69754 -13.31873,11.69754c-52.46667,0 -243.42599,0 -272.60996,0c-7.3279,0 -13.36861,-4.5235 -13.36861,-11.94695c0,-30.16113 0,-124.70605 0,-124.70605z" fill="none" fill-rule="nonzero" stroke="url(#color-1)" stroke-width="10" stroke-linecap="butt"/><path d="M177.55191,174.17498v23.25647c0,2.13185 -1.85668,3.87609 -4.12595,3.87609h-24.77634c-2.26927,0 -4.10532,-1.74424 -4.10532,-3.87609l0.02063,-31.00863c0,-2.13183 1.83606,-3.87607 4.10532,-3.87607h16.50381z" fill="none" fill-rule="nonzero" stroke-opacity="0.40392" stroke="#000000" stroke-width="6" stroke-linecap="butt"/><path d="M177.55191,174.17498v23.25647c0,2.13185 -1.85668,3.87609 -4.12595,3.87609h-24.77634c-2.26927,0 -4.10532,-1.74424 -4.10532,-3.87609l0.02063,-31.00863c0,-2.13183 1.83606,-3.87607 4.10532,-3.87607h16.50381z" fill="#ffffff" fill-rule="nonzero" stroke="none" stroke-width="1" stroke-linecap="butt"/><path d="M158.99314,197.1072v-15.44398h4.10989v15.44398z" fill="#bf8b11" fill-rule="nonzero" stroke="none" stroke-width="0.5" stroke-linecap="butt"/><path d="M169.26789,183.63174h-16.43959v-3.86098h16.43959z" fill="#bf8b11" fill-rule="nonzero" stroke="none" stroke-width="0.5" stroke-linecap="butt"/><path d="M163.09938,176.12401v-10.68115l11.3697,10.68114z" fill="#fcb103" fill-rule="nonzero" stroke="none" stroke-width="0.5" stroke-linecap="butt"/><path d="M162.08813,128.37196v17.70621c0,1.62307 -1.41358,2.95104 -3.14128,2.95104h-18.86336c-1.72771,0 -3.12556,-1.32797 -3.12556,-2.95104l0.01569,-23.60828c0,-1.62306 1.39788,-2.95103 3.12556,-2.95103h12.5651z" fill="none" fill-rule="nonzero" stroke-opacity="0.40392" stroke="#000000" stroke-width="6" stroke-linecap="butt"/><path d="M162.08813,128.37196v17.70621c0,1.62307 -1.41358,2.95104 -3.14128,2.95104h-18.86336c-1.72771,0 -3.12556,-1.32797 -3.12556,-2.95104l0.01569,-23.60828c0,-1.62306 1.39788,-2.95103 3.12556,-2.95103h12.5651z" fill="#ffffff" fill-rule="nonzero" stroke="none" stroke-width="1" stroke-linecap="butt"/><path d="M155.96682,145.72397c-0.13228,0 -0.26457,-0.0475 -0.36568,-0.1421l-12.90859,-12.12722c-0.2018,-0.18957 -0.2018,-0.49749 0,-0.68706c0.2018,-0.18957 0.52955,-0.18957 0.73134,0l12.90859,12.12683c0.2018,0.18957 0.2018,0.49749 0,0.68706c-0.1011,0.09458 -0.23339,0.14249 -0.36567,0.14249z" fill="#bf8b11" fill-rule="nonzero" stroke="#bf8b11" stroke-width="1" stroke-linecap="butt"/><path d="M148.39506,135.45244c0,1.47582 -1.27354,2.67225 -2.84451,2.67225c-1.57098,0 -2.84452,-1.19642 -2.84452,-2.67225c0,-1.47582 1.27354,-2.67225 2.84452,-2.67225c1.57098,0 2.84451,1.19642 2.84451,2.67225z" fill="#bf8b11" fill-rule="nonzero" stroke="#e2a414" stroke-width="0" stroke-linecap="butt"/><path d="M148.00076,140.96926c-1.52894,-0.33917 -2.47572,-1.7785 -2.11468,-3.21484c0.36103,-1.43634 1.89316,-2.32577 3.42209,-1.9866c1.52894,0.33917 2.47571,1.7785 2.11468,3.21484c-0.36103,1.43634 -1.89315,2.32578 -3.42208,1.98662z" fill="#bf8b11" fill-rule="nonzero" stroke="#e2a414" stroke-width="0" stroke-linecap="butt"/><path d="M154.60185,141.28301c0,1.47582 -1.27396,2.67265 -2.84493,2.67265c-1.57098,0 -2.84452,-1.19682 -2.84452,-2.67265c0,-1.47582 1.27355,-2.67225 2.84452,-2.67225c1.57098,0 2.84493,1.19681 2.84493,2.67225z" fill="#bf8b11" fill-rule="nonzero" stroke="#e2a414" stroke-width="0" stroke-linecap="butt"/><path d="M155.98782,145.74369c-0.13228,0 -0.26457,-0.0475 -0.36567,-0.14208l-3.16807,-2.9762c-0.20222,-0.18957 -0.20222,-0.49749 0,-0.68706c0.20222,-0.18957 0.52913,-0.18957 0.73135,0l3.16806,2.9762c0.2018,0.18957 0.2018,0.49749 0,0.68706c-0.1011,0.09419 -0.2334,0.14208 -0.36567,0.14208z" fill="#bf8b11" fill-rule="nonzero" stroke="#bf8b11" stroke-width="1" stroke-linecap="butt"/><path d="M151.0784,129.86179v-8.14404l8.66903,8.14403z" fill="#fcb103" fill-rule="nonzero" stroke="none" stroke-width="0.5" stroke-linecap="butt"/><path d="M339.71867,144.34499v30.9928c0,2.84101 -2.4743,5.16547 -5.49846,5.16547h-33.01825c-3.02416,0 -5.47097,-2.32444 -5.47097,-5.16546l0.0275,-41.32373c0,-2.841 2.4468,-5.16547 5.47096,-5.16547h21.99384z" fill="none" fill-rule="nonzero" stroke-opacity="0.40392" stroke="#000000" stroke-width="6" stroke-linecap="butt"/><path d="M339.71867,144.34499v30.9928c0,2.84101 -2.4743,5.16547 -5.49846,5.16547h-33.01825c-3.02416,0 -5.47097,-2.32444 -5.47097,-5.16546l0.0275,-41.32373c0,-2.841 2.4468,-5.16547 5.47096,-5.16547h21.99384z" fill="#ffffff" fill-rule="nonzero" stroke="none" stroke-width="1" stroke-linecap="butt"/><path d="M323.34571,164.54231c-0.00753,-0.22102 -0.0656,-0.58441 -0.19303,-1.20567c-0.07238,-0.35065 -0.46148,-2.14072 -0.5678,-2.64226c-0.29785,-1.40259 -0.57307,-2.77686 -0.86113,-4.33034c-0.55196,-2.99148 -0.52255,-4.2857 0.2594,-4.62361c0.37702,-0.16293 0.79929,-0.05667 1.38744,0.24793c0.31217,0.16081 1.64533,0.96695 1.56088,0.91805c1.50356,0.87981 2.61203,1.25667 3.71746,1.09657c1.15068,-0.16788 1.88813,-0.04251 2.16863,0.43778c0.2624,0.44982 0.0113,1.00307 -0.55046,1.54427c-1.10995,1.07391 -2.99733,1.78087 -4.40967,1.43306c-0.61983,-0.15584 -0.93351,-0.32941 -1.79463,-0.89753l-0.07164,-0.04674c0.03544,0.42008 0.19907,1.23259 0.54065,2.69397c0.22169,0.94639 1.56841,6.5079 1.98842,8.26964l0.0015,0.0085c0.39814,1.86801 -1.41232,3.34639 -3.94818,3.34639c-2.48081,0 -4.79801,-1.40825 -5.17427,-3.20754c-0.39965,-1.87012 1.41232,-3.35348 3.94592,-3.35348c0.50672,0 1.0157,0.06022 1.51866,0.17709c0.17117,0.04037 0.32877,0.0836 0.47958,0.13247zM310.52993,168.78554c-0.00753,-0.22527 -0.06785,-0.59363 -0.20056,-1.23046c-0.06786,-0.32585 -0.44866,-2.08051 -0.5678,-2.64013c-0.29407,-1.38843 -0.56553,-2.7556 -0.85207,-4.29987c-0.55196,-2.99148 -0.52179,-4.2857 0.25939,-4.6229c0.37854,-0.16293 0.79929,-0.05809 1.38745,0.24794c0.31293,0.16081 1.64533,0.96623 1.56088,0.91735c1.50282,0.87981 2.6105,1.25667 3.71444,1.09659c1.14992,-0.17002 1.88814,-0.04533 2.16863,0.43495c0.2624,0.44982 0.0113,1.00236 -0.54895,1.54427c-1.11147,1.07461 -2.99883,1.78017 -4.40891,1.4288c-0.61832,-0.15584 -0.932,-0.32869 -1.79313,-0.89752l-0.07164,-0.04605c0.03544,0.42006 0.19907,1.23259 0.54064,2.69326c0.22169,0.9471 1.56692,6.51002 1.98767,8.27034l0.00226,0.00921c0.38984,1.86871 -1.42063,3.35207 -3.94669,3.35207c-2.47855,0 -4.79573,-1.41181 -5.1803,-3.21606c-0.39211,-1.87012 1.42062,-3.35063 3.9512,-3.35063c0.68241,0 1.35955,0.10625 1.99823,0.30886z" fill="#bf8b11" fill-rule="evenodd" stroke-opacity="0.1" stroke="#000000" stroke-width="0" stroke-linecap="butt"/><path d="M320.4585,146.94235v-14.23426l15.15187,14.23425z" fill="#fcb103" fill-rule="nonzero" stroke="none" stroke-width="0.5" stroke-linecap="butt"/><path d="M260.81056,205.62c-0.65809,1.14025 -2.0034,1.86115 -3.475,1.86115c0,0 -35.52076,0 -47.64848,0c-4.45914,0 -4.91637,-2.78345 -2.90771,-6.4615c3.50511,-6.41823 10.74303,-18.60986 10.74303,-18.60986c0.65567,-1.14678 2.0034,-1.8622 3.47257,-1.8622h47.9968c2.9869,0 4.86888,2.63023 3.47499,4.87224z" fill="none" fill-rule="nonzero" stroke-opacity="0.40392" stroke="#000000" stroke-width="11" stroke-linecap="butt"/><path d="M216.41738,184.24129c0,0 -5.48548,9.50741 -9.5597,16.5688c-0.09954,0.17251 -0.85074,1.70775 -1.18758,3.10721c-0.27131,1.12719 0.23278,1.48779 0.06081,1.49173c-0.22429,0.00512 -0.26359,-4.07894 -0.26359,-4.34964c0,-4.48617 -0.04318,-32.31543 -0.04318,-32.31543c0,-2.7891 2.60929,-5.05004 5.8281,-5.05004h10.54339c0,0 0.31264,-0.00269 0.57572,0c8.79106,0.09014 9.26596,6.73338 9.26596,6.73338h26.23967c3.2176,0 5.8281,2.26199 5.8281,5.05004v5.05005h-40.33527c-2.96261,0 -5.63383,1.43085 -6.95243,3.71389z" fill="none" fill-rule="nonzero" stroke-opacity="0.40392" stroke="#000000" stroke-width="11" stroke-linecap="butt"/><path d="M216.41738,184.24129c0,0 -5.48548,9.50741 -9.5597,16.5688c-0.09954,0.17251 -0.85074,1.70775 -1.18758,3.10721c-0.27131,1.12719 0.23278,1.48779 0.06081,1.49173c-0.22429,0.00512 -0.26359,-4.07894 -0.26359,-4.34964c0,-4.48617 -0.04318,-32.31543 -0.04318,-32.31543c0,-2.7891 2.60929,-5.05004 5.8281,-5.05004h10.54339c0,0 0.31264,-0.00269 0.57572,0c8.79106,0.09014 9.26596,6.73338 9.26596,6.73338h26.23967c3.2176,0 5.8281,2.26199 5.8281,5.05004v5.05005h-40.33527c-2.96261,0 -5.63383,1.43085 -6.95243,3.71389z" fill="#bf8b11" fill-rule="nonzero" stroke="#ffffff" stroke-width="5" stroke-linecap="butt"/><path d="M260.81056,205.62c-0.65809,1.14025 -2.0034,1.86115 -3.475,1.86115c0,0 -35.52076,0 -47.64848,0c-4.45914,0 -4.91637,-2.78345 -2.90771,-6.4615c3.50511,-6.41823 10.74303,-18.60986 10.74303,-18.60986c0.65567,-1.14678 2.0034,-1.8622 3.47257,-1.8622h47.9968c2.9869,0 4.86888,2.63023 3.47499,4.87224z" fill="#ffffff" fill-rule="nonzero" stroke="#ffffff" stroke-width="5" stroke-linecap="butt"/><path d="M238.70169,184.08206c-4.63734,-7.73982 -2.44383,-22.20706 6.17151,-30.48246c0.76428,-0.73229 2.03332,-1.77111 2.89042,-2.37042c4.03893,-2.81349 8.68622,-4.26702 14.01685,-4.37786c1.21878,-0.02612 3.31291,0.11755 4.57135,0.31926c0.31189,0.04943 0.56898,0.08586 0.56898,0.08586c0.00388,-0.0033 0.00665,-0.3334 0.00964,-0.7365c0.06495,-5.94124 0.09942,-8.25475 0.13247,-8.38877c0.06997,-0.27133 0.36785,-0.51457 0.67292,-0.54541c0.26761,-0.02218 0.47411,0.06052 0.70589,0.2939c0.44623,0.44508 11.76663,13.40831 11.81221,13.52517c0.07491,0.19124 0.07675,0.36514 0.00883,0.5288c-0.10115,0.23163 -11.9812,15.75732 -12.18606,15.92149c-0.42892,0.34135 -1.03462,0.18078 -1.24406,-0.33312c-0.04557,-0.11685 -0.04242,-0.59294 0.04941,-8.2884c0.00687,-0.61496 0.00449,-1.12607 -0.00603,-1.137c-0.03506,-0.03642 -1.02313,-0.24278 -1.66519,-0.34598c-0.83657,-0.13319 -2.54368,-0.24823 -3.52494,-0.23528c-1.19977,0.01657 -2.54647,0.1514 -3.69772,0.3684c-0.48613,0.09534 -1.43731,0.30783 -1.60673,0.36244c-0.04134,0.01197 -0.29326,0.08701 -0.56382,0.16468c-3.56249,1.02481 -7.11616,3.13461 -10.13728,6.01335c-3.8749,3.69374 -4.97519,8.04513 -3.16298,18.47671z" fill="none" fill-rule="nonzero" stroke-opacity="0.40392" stroke="#000000" stroke-width="6" stroke-linecap="butt"/><path d="M237.11922,166.41159c0.8782,-12.53563 -4.75327,-24.91616 -14.63381,-30.50456c-4.87622,-2.41582 -10.76975,-1.15788 -12.54243,-0.6292c-1.78371,0.53197 -5.28981,1.51812 -8.01008,3.52446c-0.51172,0.37862 -1.27506,1.00311 -1.28737,1.05083c-0.00368,0.01432 0.25396,0.4645 0.57251,1.00176c3.99134,6.72071 4.23606,7.13761 4.2554,7.26073c0.07712,0.54549 -0.37349,0.95822 -0.92384,0.85066c-0.26344,-0.05238 -18.59207,-8.3665 -18.79866,-8.52465c-0.14284,-0.11335 -0.2296,-0.26697 -0.26096,-0.46861c-0.01934,-0.12312 3.34009,-16.5908 3.50601,-17.18201c0.08507,-0.30901 0.2245,-0.47431 0.47091,-0.57483c0.28374,-0.10972 0.66908,-0.0296 0.86844,0.17744c0.09714,0.10294 1.3031,2.12035 4.37939,7.3117c0.20746,0.35286 0.37767,0.64167 0.38275,0.64283c0,0 0.20739,-0.14731 0.45632,-0.33062c1.00328,-0.74164 2.77033,-1.80707 3.85453,-2.33073c4.74027,-2.29333 9.56242,-3.10042 14.54112,-2.43967c1.05767,0.14221 2.70067,0.48584 3.74436,0.78652c11.77556,3.40757 23.77224,15.7132 24.33845,34.09726c0,0 -0.51819,6.1455 -1.32135,7.53871c-0.46978,0.81491 -2.22031,-1.25707 -2.22031,-1.25707z" fill="none" fill-rule="nonzero" stroke-opacity="0.40392" stroke="#000000" stroke-width="6" stroke-linecap="butt"/><path d="M238.70169,184.08206c-4.63734,-7.73982 -2.44383,-22.20706 6.17151,-30.48246c0.76428,-0.73229 2.03332,-1.77111 2.89042,-2.37042c4.03893,-2.81349 8.68622,-4.26702 14.01685,-4.37786c1.21878,-0.02612 3.31291,0.11755 4.57135,0.31926c0.31189,0.04943 0.56898,0.08586 0.56898,0.08586c0.00388,-0.0033 0.00665,-0.3334 0.00964,-0.7365c0.06495,-5.94124 0.09942,-8.25475 0.13247,-8.38877c0.06997,-0.27133 0.36785,-0.51457 0.67292,-0.54541c0.26761,-0.02218 0.47411,0.06052 0.70589,0.2939c0.44623,0.44508 11.76663,13.40831 11.81221,13.52517c0.07491,0.19124 0.07675,0.36514 0.00883,0.5288c-0.10115,0.23163 -11.9812,15.75732 -12.18606,15.92149c-0.42892,0.34135 -1.03462,0.18078 -1.24406,-0.33312c-0.04557,-0.11685 -0.04242,-0.59294 0.04941,-8.2884c0.00687,-0.61496 0.00449,-1.12607 -0.00603,-1.137c-0.03506,-0.03642 -1.02313,-0.24278 -1.66519,-0.34598c-0.83657,-0.13319 -2.54368,-0.24823 -3.52494,-0.23528c-1.19977,0.01657 -2.54647,0.1514 -3.69772,0.3684c-0.48613,0.09534 -1.43731,0.30783 -1.60673,0.36244c-0.04134,0.01197 -0.29326,0.08701 -0.56382,0.16468c-3.56249,1.02481 -7.11616,3.13461 -10.13728,6.01335c-3.8749,3.69374 -4.97519,8.04513 -3.16298,18.47671z" fill="#ffffff" fill-rule="nonzero" stroke="none" stroke-width="1" stroke-linecap="butt"/><path d="M236.7354,167.17781c0.8782,-12.53563 -4.36946,-25.68237 -14.25,-31.27077c-4.87622,-2.41582 -10.76975,-1.15788 -12.54243,-0.6292c-1.78371,0.53197 -5.28981,1.51812 -8.01008,3.52445c-0.51172,0.37862 -1.27506,1.00312 -1.28737,1.05083c-0.00368,0.01432 0.25395,0.4645 0.5725,1.00176c3.99134,6.72071 4.23606,7.13761 4.2554,7.26073c0.07712,0.54549 -0.37348,0.95823 -0.92383,0.85066c-0.26344,-0.05238 -18.59208,-8.3665 -18.79866,-8.52465c-0.14284,-0.11335 -0.2296,-0.26697 -0.26096,-0.46861c-0.01934,-0.12312 3.34009,-16.5908 3.50601,-17.18201c0.08507,-0.30901 0.2245,-0.47432 0.47091,-0.57484c0.28374,-0.10972 0.66908,-0.02959 0.86844,0.17745c0.09714,0.10294 1.30311,2.12035 4.37939,7.3117c0.20746,0.35286 0.37767,0.64167 0.38274,0.64283c0,0 0.20739,-0.14731 0.45632,-0.33062c1.00328,-0.74164 2.77033,-1.80707 3.85453,-2.33073c4.74027,-2.29333 9.56243,-3.10043 14.54113,-2.43967c1.05767,0.14221 2.70067,0.48583 3.74435,0.78652c11.77556,3.40757 23.77224,15.7132 24.33845,34.09726c0,0 -0.51819,6.14551 -1.32135,7.53871c-0.46978,0.81491 -4.23533,4.19654 -4.23533,4.19654z" fill="#ffffff" fill-rule="nonzero" stroke="none" stroke-width="1" stroke-linecap="butt"/><path d="M254.63235,187.51308l-28.08699,0.009" fill="none" fill-rule="nonzero" stroke="#ffffff" stroke-width="20" stroke-linecap="round"/><path d="M223.78218,186.49927l42.12967,0.24815" fill="none" fill-rule="nonzero" stroke="#bf8b11" stroke-width="3.75" stroke-linecap="round"/><path d="M259.57892,194.05569l-42.12966,-0.24815" fill="none" fill-rule="nonzero" stroke="#bf8b11" stroke-width="3.75" stroke-linecap="round"/><path d="M254.0376,201.35049l-42.12966,-0.24815" fill="none" fill-rule="nonzero" stroke="#bf8b11" stroke-width="3.75" stroke-linecap="round"/><path d="M219.25834,229.18466c0.41269,0 4.64284,0.66011 4.61511,2.76273c-0.02773,2.10262 -4.4194,2.07458 -4.67891,2.07458h-4.14808v3.26742h6.01154c0.37014,0 0.61903,0.47862 0.74666,1.43588c0.06806,0.41694 0.10211,0.8594 0.10211,1.32738c0,0.46798 -0.06596,1.07212 -0.19783,1.81239c-0.13189,0.74028 -0.34887,1.1104 -0.65094,1.1104h-11.17431c-0.82961,0 -1.24443,-0.33822 -1.24443,-1.01468v-21.00846c0,-0.56583 0.25102,-0.84876 0.75304,-0.84876h11.69761c0.45522,0 0.68284,0.96363 0.68284,2.89091c0,1.92728 -0.22761,2.8909 -0.68283,2.8909h-6.04343v3.29932zM236.87277,220.98421c0.25952,-0.65094 1.62094,-0.97638 4.08427,-0.97638c0.62966,0 1.4061,0.04892 2.32931,0.14677c0.92747,0.09785 1.39121,0.18933 1.39121,0.27442l-3.83777,11.16547l4.03561,10.95342c0.06381,0.11061 -0.4063,0.21483 -1.41034,0.3127c-0.9998,0.09785 -1.84855,0.14679 -2.54628,0.14679c-2.7654,0 -4.27785,-0.37013 -4.53737,-1.1104l-2.45057,-6.24128l-2.22083,6.43911c-0.22123,0.60838 -1.61669,0.91258 -4.18639,0.91258c-0.62966,0 -1.4146,-0.04255 -2.35483,-0.12763c-0.93597,-0.08935 -1.35932,-0.21059 -1.26997,-0.36374l3.67039,-11.30196l-3.86822,-10.78502c-0.06381,-0.10636 0.38716,-0.20845 1.35292,-0.30632c0.97001,-0.09785 1.79326,-0.14678 2.46971,-0.14678c2.74411,0 4.24806,0.39141 4.51184,1.17423l2.25275,5.48824zM246.9364,242.2455c0,0 -0.85715,-7.16124 -0.85715,-10.73786c0,-3.4788 0.85715,-10.43653 0.85715,-10.43653c0,-0.74028 0.33608,-1.11041 1.00829,-1.11041h5.74991c3.22486,0 5.54993,0.66582 6.97518,1.99747c1.4295,1.32738 2.14424,3.25467 2.14424,5.7818c0,2.08893 -0.67646,4.00557 -2.02937,5.7499c-0.6722,0.86792 -1.6635,1.56351 -2.97386,2.08681c-1.30612,0.5233 -2.82922,0.78496 -4.56929,0.78496v5.852c0,0.25952 -0.40841,0.43822 -1.22528,0.53607c-0.81685,0.09785 -1.52097,0.14677 -2.11233,0.14677c0,0 -2.96748,-0.21703 -2.96748,-0.65097zM253.2415,225.78962v5.16278h0.4212c0.76155,0 1.40396,-0.23825 1.92727,-0.71475c0.5233,-0.48076 0.78496,-1.15721 0.78496,-2.02937c0,-0.87216 -0.18082,-1.49333 -0.54244,-1.86345c-0.35737,-0.37014 -0.99342,-0.5552 -1.90812,-0.5552zM276.01258,242.1267l-1.0785,-4.21829h-5.19468l-0.94449,4.05236c-0.13189,0.67645 -1.17849,1.01469 -3.13979,1.01469c-1.04659,0 -1.8209,-0.05956 -2.32292,-0.17868c-0.49777,-0.11913 -0.74666,-0.21272 -0.74666,-0.28079l5.78179,-22.11889c0,-0.17443 1.49119,-0.26164 4.47357,-0.26164c2.98664,0 4.47994,0.08721 4.47994,0.26165l5.65417,22.15081c0,0.15317 -0.50202,0.27441 -1.50608,0.36375c-0.99979,0.08508 -1.79538,0.12764 -2.38674,0.12764c0,0 -2.91643,-0.30423 -3.0696,-0.91261zM270.55625,233.76034h3.43336l-1.47416,-6.76459h-0.19145zM303.0364,242.25433c0,0.45948 -1.02532,0.68923 -3.07597,0.68923c-2.04638,0 -3.15679,-0.1638 -3.33123,-0.4914l-5.45633,-10.19154v10.15963c0,0.3914 -1.0083,0.58712 -3.0249,0.58712c-2.01236,0 -3.01853,-0.19571 -3.01853,-0.58712v-21.85725c0,-0.3276 0.8594,-0.49139 2.5782,-0.49139c0.67645,0 1.46566,0.05957 2.36761,0.17868c0.90619,0.11912 1.45715,0.34248 1.65286,0.67009l5.2266,10.06391v-10.26174c0,-0.41269 1.01255,-0.619 3.03767,-0.619c2.02937,0 3.04407,0.20634 3.04407,0.61903zM306.30227,241.46939v-19.60451c0,-0.54457 0.13614,-0.97426 0.40843,-1.2891c0.27229,-0.31483 0.62542,-0.47224 1.05936,-0.47224h5.45633c3.46738,0 6.09876,0.87217 7.89413,2.61649c1.79537,1.74007 2.69307,4.4842 2.69307,8.23236c0,8.01539 -3.41845,12.02308 -10.25536,12.02308h-5.59035c-1.11041,0 -1.66561,-0.50202 -1.66561,-1.50608zM312.57545,226.31292v9.77034c0,0.45522 0.03191,0.74453 0.09573,0.86792c0.06806,0.11912 0.26591,0.17868 0.5935,0.17868c1.1955,0 2.10383,-0.44671 2.72496,-1.34016c0.62115,-0.89344 0.93172,-2.38036 0.93172,-4.46079c0,-2.08043 -0.32122,-3.43547 -0.96364,-4.06512c-0.64242,-0.63392 -1.66137,-0.95087 -3.05682,-0.95087zM337.04865,229.18466c0.41269,0 0.61903,0.76368 0.61903,2.29103c0,0.45522 -0.04894,0.99342 -0.14678,1.61456c-0.09785,0.62115 -0.27652,0.93173 -0.53605,0.93173h-4.14808v3.26742h6.01154c0.37014,0 0.61902,0.47862 0.74665,1.43588c0.06806,0.41694 0.10211,0.8594 0.10211,1.32738c0,0.46798 -0.06594,1.07212 -0.19783,1.81239c-0.13189,0.74028 -0.34886,1.1104 -0.65093,1.1104h-11.17431c-0.82961,0 -1.24443,-0.33822 -1.24443,-1.01468v-21.00846c0,-0.56583 0.25103,-0.84876 0.75303,-0.84876h11.69762c0.45522,0 0.68284,0.96363 0.68284,2.89091c0,1.92728 -0.22761,2.8909 -0.68283,2.8909h-6.04343v3.29932zM342.5379,241.46939v-19.60451c0,-0.54457 0.13614,-0.97426 0.40841,-1.2891c0.27229,-0.31483 0.62542,-0.47224 1.05936,-0.47224h5.45634c3.46738,0 6.09875,0.87217 7.89413,2.61649c1.79537,1.74007 2.69306,4.4842 2.69306,8.23236c0,8.01539 -3.41843,12.02308 -10.25534,12.02308h-5.59035c-1.11041,0 -1.66562,-0.50202 -1.66562,-1.50608zM348.81107,226.31292v9.77034c0,0.45522 0.0319,0.74453 0.09572,0.86792c0.06806,0.11912 0.26591,0.17868 0.5935,0.17868c1.1955,0 2.10382,-0.44671 2.72497,-1.34016c0.62115,-0.89344 0.93173,-2.38036 0.93173,-4.46079c0,-2.08043 -0.3212,-3.43547 -0.96362,-4.06512c-0.64242,-0.63392 -1.66136,-0.95087 -3.05682,-0.95087z" fill="none" fill-rule="nonzero" stroke-opacity="0.47843" stroke="#000000" stroke-width="6" stroke-linecap="square"/><path d="M219.25834,229.18466c0.41269,0 0.61903,0.76368 0.61903,2.29103c0,0.45522 -0.04894,0.99342 -0.14678,1.61456c-0.09785,0.62115 -0.27654,0.93173 -0.53606,0.93173h-4.14808v3.26742h6.01154c0.37014,0 0.61903,0.47863 0.74666,1.43588c0.06806,0.41694 0.10211,0.8594 0.10211,1.32738c0,0.46798 -0.06594,1.07212 -0.19783,1.81239c-0.13189,0.74027 -0.34888,1.1104 -0.65094,1.1104h-11.17431c-0.82961,0 -1.24443,-0.33822 -1.24443,-1.01468v-21.00846c0,-0.56583 0.25102,-0.84876 0.75303,-0.84876h11.69762c0.45522,0 0.68284,0.96364 0.68284,2.89091c0,1.92727 -0.22761,2.8909 -0.68283,2.8909h-6.04344v3.29932zM236.87277,220.98421c0.25952,-0.65094 1.62096,-0.97639 4.08428,-0.97639c0.62966,0 1.40609,0.04892 2.3293,0.14677c0.92747,0.09785 1.39122,0.18933 1.39122,0.27442l-5.55206,11.30833l5.7499,10.81056c0.06382,0.11061 -0.40631,0.21484 -1.41035,0.3127c-0.9998,0.09785 -1.84855,0.14679 -2.54628,0.14679c-2.7654,0 -4.27785,-0.37013 -4.53737,-1.1104l-2.45057,-6.24128l-2.22083,6.4391c-0.22124,0.6084 -1.61669,0.91259 -4.18639,0.91259c-0.62966,0 -1.4146,-0.04255 -2.35483,-0.12763c-0.93598,-0.08935 -1.3593,-0.2106 -1.26995,-0.36376l5.09896,-11.30194l-5.29679,-10.78502c-0.06382,-0.10636 0.38716,-0.20846 1.35291,-0.30633c0.97001,-0.09785 1.79325,-0.14677 2.4697,-0.14677c2.74411,0 4.24806,0.39142 4.51184,1.17424l2.25275,5.48824zM249.90389,243.03927c-1.97832,0 -2.96748,-0.21698 -2.96748,-0.65094v-21.17441c0,-0.74027 0.33609,-1.1104 1.0083,-1.1104h5.74989c3.22487,0 5.54992,0.66581 6.97518,1.99746c1.4295,1.32738 2.14424,3.25466 2.14424,5.7818c0,2.08893 -0.67646,4.00556 -2.02937,5.74989c-0.6722,0.86791 -1.6635,1.56352 -2.97386,2.08681c-1.30612,0.52328 -2.82921,0.78494 -4.56929,0.78494v5.852c0,0.25952 -0.40841,0.43821 -1.22528,0.53608c-0.81685,0.09785 -1.52097,0.14677 -2.11233,0.14677zM253.2415,225.78961v5.16278h0.4212c0.76155,0 1.40398,-0.23826 1.92727,-0.71475c0.52328,-0.48075 0.78494,-1.15721 0.78494,-2.02938c0,-0.87216 -0.18081,-1.49332 -0.54244,-1.86344c-0.35737,-0.37014 -0.99342,-0.5552 -1.90812,-0.5552zM279.08218,243.03927c-1.89324,0 -2.91642,-0.30419 -3.06959,-0.91257l-1.0785,-4.21829h-5.19468l-0.94449,4.05236c-0.13189,0.67646 -1.17849,1.01469 -3.13979,1.01469c-1.04659,0 -1.82091,-0.05956 -2.32294,-0.1787c-0.49777,-0.11913 -0.74666,-0.21271 -0.74666,-0.28079l5.7818,-22.11889c0,-0.17443 1.49119,-0.26165 4.47355,-0.26165c2.98663,0 4.47994,0.08722 4.47994,0.26166l5.65417,22.1508c0,0.15315 -0.50203,0.27442 -1.50607,0.36376c-0.99979,0.08508 -1.79538,0.12763 -2.38675,0.12763zM270.55625,233.76034h3.43334l-1.47416,-6.76458h-0.19145zM303.03639,242.25433c0,0.45948 -1.02532,0.68923 -3.07597,0.68923c-2.04638,0 -3.15679,-0.1638 -3.33123,-0.4914l-5.45633,-10.19154v10.15963c0,0.39141 -1.00831,0.58712 -3.02492,0.58712c-2.01236,0 -3.01853,-0.1957 -3.01853,-0.58712v-21.85725c0,-0.3276 0.85941,-0.49139 2.5782,-0.49139c0.67646,0 1.46565,0.05957 2.3676,0.17869c0.90621,0.11912 1.45715,0.34248 1.65286,0.67007l5.2266,10.06391v-10.26174c0,-0.41269 1.01255,-0.61902 3.03768,-0.61902c2.02938,0 3.04406,0.20635 3.04406,0.61903zM306.30227,241.46939v-19.6045c0,-0.54457 0.13616,-0.97426 0.40843,-1.2891c0.27229,-0.31483 0.6254,-0.47224 1.05936,-0.47224h5.45633c3.46738,0 6.09876,0.87216 7.89414,2.61648c1.79538,1.74006 2.69307,4.4842 2.69307,8.23236c0,8.01539 -3.41845,12.02308 -10.25536,12.02308h-5.59034c-1.11041,0 -1.66562,-0.50203 -1.66562,-1.50608zM312.57545,226.31292v9.77034c0,0.45522 0.03191,0.74453 0.09572,0.86791c0.06806,0.11912 0.2659,0.17869 0.5935,0.17869c1.19552,0 2.10383,-0.44671 2.72498,-1.34015c0.62115,-0.89345 0.93172,-2.38037 0.93172,-4.46079c0,-2.08043 -0.32122,-3.43547 -0.96364,-4.06512c-0.64242,-0.63392 -1.66137,-0.95087 -3.05682,-0.95087zM337.04864,229.18466c0.41269,0 0.61903,0.76368 0.61903,2.29103c0,0.45522 -0.04893,0.99342 -0.14677,1.61456c-0.09785,0.62115 -0.27654,0.93173 -0.53606,0.93173h-4.14808v3.26742h6.01154c0.37014,0 0.61903,0.47863 0.74666,1.43588c0.06806,0.41694 0.10211,0.8594 0.10211,1.32738c0,0.46798 -0.06594,1.07212 -0.19783,1.81239c-0.13189,0.74027 -0.34886,1.1104 -0.65094,1.1104h-11.17431c-0.82961,0 -1.24442,-0.33822 -1.24442,-1.01468v-21.00846c0,-0.56583 0.25102,-0.84876 0.75303,-0.84876h11.69762c0.45522,0 0.68284,0.96364 0.68284,2.89091c0,1.92727 -0.22761,2.8909 -0.68283,2.8909h-6.04344v3.29932zM342.5379,241.46939v-19.6045c0,-0.54457 0.13613,-0.97426 0.40841,-1.2891c0.27229,-0.31483 0.62541,-0.47224 1.05936,-0.47224h5.45634c3.46738,0 6.09875,0.87216 7.89411,2.61648c1.79538,1.74006 2.69308,4.4842 2.69308,8.23236c0,8.01539 -3.41843,12.02308 -10.25534,12.02308h-5.59034c-1.11041,0 -1.66562,-0.50203 -1.66562,-1.50608zM348.81107,226.31292v9.77034c0,0.45522 0.03191,0.74453 0.09572,0.86791c0.06806,0.11912 0.2659,0.17869 0.59351,0.17869c1.19552,0 2.10382,-0.44671 2.72497,-1.34015c0.62115,-0.89345 0.93173,-2.38037 0.93173,-4.46079c0,-2.08043 -0.32122,-3.43547 -0.96364,-4.06512c-0.64242,-0.63392 -1.66136,-0.95087 -3.05681,-0.95087z" fill="#ffffff" fill-rule="nonzero" stroke="#ffffff" stroke-width="0" stroke-linecap="square"/><path d="M132.11214,220.26416c0.3634,0 0.5451,0.94609 0.5451,2.83827c0,1.89219 -0.1817,2.83827 -0.5451,2.83827h-5.87078v3.65906h3.91594c0.3634,0 0.5451,0.82914 0.5451,2.4874c0,1.65827 -0.17126,2.4874 -0.51378,2.4874h-3.94727v7.72537c0,0.30075 -0.40099,0.49916 -1.20298,0.59522c-0.80199,0.09607 -1.4703,0.14411 -2.00496,0.14411l-1.50999,-0.06266c-1.04843,-0.12948 -1.57264,-0.34251 -1.57264,-0.63908v-21.24007c0,-0.34251 0.06892,-0.56599 0.20676,-0.67041c0.14201,-0.10861 0.35295,-0.1629 0.63281,-0.1629zM137.3729,237.19983v-11.41576h-2.28065c-0.3634,0 -0.6182,-0.46155 -0.76439,-1.38467c-0.06683,-0.44694 -0.10025,-0.90432 -0.10025,-1.37215c0,-0.472 0.03342,-0.93356 0.10025,-1.38468c0.1462,-0.91894 0.40099,-1.37841 0.76439,-1.37841h10.78294c0.3634,0 0.60775,0.45947 0.73307,1.37841c0.08772,0.45111 0.13157,0.91268 0.13157,1.38468c0,0.46783 -0.04386,0.92521 -0.13157,1.37215c-0.12531,0.92312 -0.36966,1.38467 -0.73307,1.38467h-2.14907v11.41576h2.24305c0.3634,0 0.62028,0.46155 0.77066,1.38467c0.08354,0.44694 0.12531,0.90641 0.12531,1.37841c0,0.46783 -0.04177,0.9273 -0.12531,1.37841c-0.15037,0.91894 -0.40726,1.37841 -0.77066,1.37841h-10.808c-0.3634,0 -0.60985,-0.45947 -0.73933,-1.37841c-0.08772,-0.45111 -0.13157,-0.91059 -0.13157,-1.37841c0,-0.472 0.04386,-0.93147 0.13157,-1.37841c0.12949,-0.92312 0.37593,-1.38467 0.73933,-1.38467zM148.69766,240.82755v-19.95564c0,-0.44694 1.08393,-0.6704 3.2518,-0.6704c2.17204,0 3.25806,0.22346 3.25806,0.6704v15.72016h4.94348c0.38429,0 0.65162,0.50333 0.80199,1.50999c0.06266,0.48871 0.09399,0.98995 0.09399,1.50372c0,0.51377 -0.03133,1.03799 -0.09399,1.57264c-0.17126,1.02755 -0.44902,1.54131 -0.83331,1.54131h-9.88071c-0.472,0 -0.84793,-0.19214 -1.12779,-0.57643c-0.27568,-0.38429 -0.41352,-0.82287 -0.41352,-1.31576zM173.39754,229.17998c0.40517,0 0.60775,0.74977 0.60775,2.24931c0,0.44694 -0.04803,0.97533 -0.1441,1.58518c-0.09607,0.60985 -0.27151,0.91476 -0.52631,0.91476h-4.07258v3.20794h5.90211c0.3634,0 0.60775,0.46991 0.73307,1.40973c0.06683,0.40935 0.10025,0.84375 0.10025,1.30322c0,0.45947 -0.06475,1.05261 -0.19423,1.77941c-0.12948,0.7268 -0.34251,1.0902 -0.63908,1.0902h-10.9709c-0.81452,0 -1.22177,-0.33207 -1.22177,-0.99622v-20.62605c0,-0.55554 0.24644,-0.83331 0.73933,-0.83331h11.48467c0.44694,0 0.67041,0.94609 0.67041,2.83827c0,1.89219 -0.22347,2.83827 -0.67041,2.83827h-5.93344v3.23927zM179.62017,234.89412c0.40517,0.32163 1.10482,0.76022 2.09894,1.31576c0.9983,0.55554 1.95067,0.83331 2.85708,0.83331c0.91059,0 1.36588,-0.35296 1.36588,-1.05887c0,-0.32163 -0.12949,-0.60566 -0.38846,-0.85211c-0.2548,-0.24644 -0.7247,-0.52839 -1.40973,-0.84584c-0.68503,-0.32163 -1.1988,-0.57225 -1.54131,-0.75186c-0.34251,-0.18379 -0.79781,-0.48453 -1.36588,-0.90223c-0.5639,-0.4177 -0.99622,-0.85211 -1.29696,-1.30322c-0.85211,-1.21551 -1.27817,-2.76518 -1.27817,-4.64901c0,-1.88383 0.69965,-3.47109 2.09895,-4.76179c1.39929,-1.29487 3.233,-1.94231 5.50111,-1.94231c1.54131,0 2.96358,0.16708 4.26681,0.50124c1.30322,0.32998 1.97572,0.76231 2.01749,1.29696c0,0.06266 0,0.12531 0,0.18796c0,0.75186 -0.236,1.70004 -0.708,2.84454c-0.46783,1.14032 -0.79781,1.77523 -0.98995,1.90472c-1.37006,-0.70592 -2.596,-1.05887 -3.67785,-1.05887c-1.07766,0 -1.61651,0.38428 -1.61651,1.15285c0,0.472 0.39682,0.8897 1.19045,1.25311c0.17126,0.08772 0.41562,0.20676 0.73307,0.35713c0.32163,0.1462 0.69129,0.32163 1.10899,0.52631c0.4177,0.20468 0.86673,0.46156 1.34708,0.77066c0.48036,0.3091 1.00039,0.72054 1.56011,1.23431c1.13197,1.06931 1.69795,2.48114 1.69795,4.23548c0,2.289 -0.63073,4.1603 -1.89218,5.6139c-1.26146,1.4536 -3.20793,2.20128 -5.83945,2.24305c-1.28234,0 -2.44355,-0.10652 -3.48362,-0.31954c-1.0359,-0.21302 -1.94022,-0.62864 -2.71296,-1.24684c-0.76857,-0.62238 -1.15286,-1.37215 -1.15286,-2.24932c0,-0.87717 0.16082,-1.74807 0.48245,-2.61272c0.32163,-0.86882 0.66414,-1.44107 1.02755,-1.71675z" fill="none" fill-rule="nonzero" stroke-opacity="0.47843" stroke="#000000" stroke-width="6" stroke-linecap="square"/><path d="M132.11215,220.26416c0.3634,0 0.5451,0.94609 0.5451,2.83827c0,1.89218 -0.1817,2.83827 -0.5451,2.83827h-5.87078v3.65906h3.91594c0.3634,0 0.5451,0.82914 0.5451,2.48741c0,1.65827 -0.17126,2.48741 -0.51377,2.48741h-3.94727v7.72537c0,0.30074 -0.40099,0.49915 -1.20298,0.59522c-0.80198,0.09607 -1.4703,0.14411 -2.00496,0.14411l-1.50999,-0.06266c-1.04843,-0.12949 -1.57264,-0.34251 -1.57264,-0.63908v-21.24007c0,-0.34251 0.06892,-0.56598 0.20676,-0.67041c0.14202,-0.1086 0.35296,-0.1629 0.63282,-0.1629zM137.3729,237.19982v-11.41575h-2.28064c-0.3634,0 -0.6182,-0.46156 -0.76439,-1.38468c-0.06683,-0.44694 -0.10025,-0.90432 -0.10025,-1.37215c0,-0.472 0.03342,-0.93356 0.10025,-1.38468c0.1462,-0.91894 0.40099,-1.37841 0.76439,-1.37841h10.78294c0.3634,0 0.60775,0.45947 0.73306,1.37841c0.08772,0.45112 0.13158,0.91267 0.13158,1.38468c0,0.46782 -0.04386,0.92521 -0.13158,1.37215c-0.12531,0.92312 -0.36966,1.38468 -0.73306,1.38468h-2.14907v11.41575h2.24305c0.3634,0 0.62029,0.46156 0.77066,1.38468c0.08354,0.44694 0.12531,0.90641 0.12531,1.37841c0,0.46782 -0.04177,0.92729 -0.12531,1.37841c-0.15037,0.91894 -0.40726,1.37841 -0.77066,1.37841h-10.808c-0.3634,0 -0.60984,-0.45947 -0.73933,-1.37841c-0.08772,-0.45112 -0.13158,-0.91059 -0.13158,-1.37841c0,-0.472 0.04386,-0.93147 0.13158,-1.37841c0.12949,-0.92312 0.37593,-1.38468 0.73933,-1.38468zM148.69766,240.82755v-19.95564c0,-0.44694 1.08393,-0.67041 3.2518,-0.67041c2.17204,0 3.25806,0.22347 3.25806,0.67041v15.72016h4.94348c0.38429,0 0.65161,0.50333 0.80198,1.50999c0.06266,0.48871 0.09398,0.98995 0.09398,1.50372c0,0.51377 -0.03133,1.03798 -0.09398,1.57264c-0.17126,1.02754 -0.44903,1.54131 -0.83331,1.54131h-9.8807c-0.472,0 -0.84793,-0.19214 -1.12779,-0.57643c-0.27568,-0.38429 -0.41352,-0.82287 -0.41352,-1.31576zM173.39754,229.17997c0.40517,0 0.60775,0.74977 0.60775,2.24932c0,0.44694 -0.04803,0.97533 -0.14411,1.58517c-0.09607,0.60984 -0.27151,0.91476 -0.5263,0.91476h-4.07258v3.20794h5.90211c0.3634,0 0.60775,0.46991 0.73306,1.40974c0.06683,0.40935 0.10025,0.84375 0.10025,1.30323c0,0.45947 -0.06474,1.05261 -0.19423,1.7794c-0.12949,0.7268 -0.34251,1.0902 -0.63908,1.0902h-10.9709c-0.81452,0 -1.22177,-0.33207 -1.22177,-0.99622v-20.62605c0,-0.55554 0.24644,-0.83331 0.73933,-0.83331h11.48467c0.44694,0 0.67041,0.94609 0.67041,2.83827c0,1.89218 -0.22347,2.83827 -0.67041,2.83827h-5.93343v3.23927zM179.62017,234.89412c0.40517,0.32163 1.10482,0.76022 2.09894,1.31576c0.9983,0.55554 1.95066,0.83331 2.85707,0.83331c0.91059,0 1.36588,-0.35296 1.36588,-1.05887c0,-0.32163 -0.12949,-0.60566 -0.38846,-0.85211c-0.2548,-0.24644 -0.72471,-0.52839 -1.40974,-0.84584c-0.68503,-0.32163 -1.1988,-0.57225 -1.54131,-0.75186c-0.34251,-0.18379 -0.79781,-0.48453 -1.36588,-0.90223c-0.5639,-0.4177 -0.99622,-0.85211 -1.29696,-1.30323c-0.85211,-1.21551 -1.27816,-2.76518 -1.27816,-4.64901c0,-1.88383 0.69965,-3.47109 2.09894,-4.76179c1.3993,-1.29487 3.233,-1.94231 5.50111,-1.94231c1.54131,0 2.96358,0.16708 4.26681,0.50124c1.30323,0.32998 1.97572,0.7623 2.01749,1.29696c0,0.06266 0,0.12531 0,0.18797c0,0.75186 -0.236,1.70004 -0.708,2.84454c-0.46782,1.14032 -0.79781,1.77523 -0.98995,1.90471c-1.37006,-0.70591 -2.59601,-1.05887 -3.67785,-1.05887c-1.07767,0 -1.6165,0.38429 -1.6165,1.15285c0,0.472 0.39682,0.8897 1.19045,1.2531c0.17126,0.08772 0.41561,0.20676 0.73306,0.35713c0.32163,0.1462 0.69129,0.32163 1.10899,0.5263c0.4177,0.20467 0.86673,0.46156 1.34708,0.77066c0.48035,0.3091 1.00039,0.72053 1.56011,1.2343c1.13197,1.06931 1.69795,2.48114 1.69795,4.23548c0,2.289 -0.63073,4.1603 -1.89218,5.61389c-1.26146,1.4536 -3.20794,2.20128 -5.83945,2.24305c-1.28234,0 -2.44355,-0.10651 -3.48362,-0.31954c-1.0359,-0.21303 -1.94022,-0.62864 -2.71296,-1.24684c-0.76857,-0.62237 -1.15285,-1.37215 -1.15285,-2.24932c0,-0.87717 0.16081,-1.74808 0.48244,-2.61272c0.32163,-0.86882 0.66414,-1.44107 1.02754,-1.71675z" fill="#ffffff" fill-rule="nonzero" stroke="none" stroke-width="1" stroke-linecap="square"/></g></g></svg>
