<svg version="1.1" xmlns="http://www.w3.org/2000/svg" xmlns:xlink="http://www.w3.org/1999/xlink" width="309.2973" height="159.90424" viewBox="0,0,309.2973,159.90424"><defs><linearGradient x1="240" y1="105.17567" x2="240" y2="254.82434" gradientUnits="userSpaceOnUse" id="color-1"><stop offset="0" stop-color="#003e18"/><stop offset="1" stop-color="#00762d"/></linearGradient></defs><g transform="translate(-85.35135,-99.92009)"><g fill-rule="nonzero" stroke-linejoin="miter" stroke-dasharray="" stroke-dashoffset="0" style="mix-blend-mode: normal"><g stroke="none" stroke-width="1" stroke-linecap="butt" stroke-miterlimit="10"><path d="M94.63514,249.93243v-140.36487h290.22973v140.36487z" fill="#00511f"/><path d="M291.50764,109.56759h53.20878v15.44014h-80.78061v15.90802h-20.31608v15.44014h83.68291v15.44014h23.70209v15.90802h-122.3802v15.44014h-1.93486v15.44014h7.73946v15.90802h39.66473v15.44014h-179.45872v-15.44014v0v-15.90802v0v-15.44014v0v-15.44014v0v-15.90802v0v-15.44014v0v-15.44014v0v-15.90802v0v-15.44014v0z" fill="#00d150"/><path d="M297.79595,109.56759h-38.21358v15.44014h16.44635v15.90802h-50.30649v15.44014h56.11108v15.44014h-44.01818v15.90802h25.63696v15.44014h28.05554v15.44014h6.53017v16.60984h-19.59051v14.73831h-183.81216v-15.44014v0v-15.90802v0v-15.44014v0v-15.44014v0v-15.90802v0v-15.44014v0v-15.44014v0v-15.90802v0v-15.44014v0z" fill="#00b344"/><path d="M237.81514,109.56759h6.77203v15.44014h48.85534v16.60984h-77.87831v14.73831h46.92047v15.44014h-18.86493v15.90802h12.09291v15.44014h52.72507v15.44014h-29.50669v16.60984h-17.41378v14.73831h-166.88209v-15.44014v0v-15.90802v0v-15.44014v0v-15.44014v0v-15.90802v0v-15.44014v0v-15.44014v0v-15.90802v0v-15.44014v0z" fill="#00fa60"/><path d="M262.48466,109.56759h15.96264v15.44014h-18.38122v16.60984h-24.18581v14.73831h21.28351v15.44014h-61.43196v15.90802h16.93007v15.44014h-19.83236v15.44014h43.05074v16.60984h30.95784v14.73831h-172.20297v-15.44014v0v-15.90802v0v-15.44014v0v-15.44014v0v-15.90802v0v-15.44014v0v-15.44014v0v-15.90802v0v-15.44014v0z" fill="#00d150"/><path d="M201.0527,109.56759h33.86014v15.44014h-19.34865v15.90802h-24.18581v15.44014h68.6877v15.44014h-90.45493v15.90802h24.18581v15.44014h65.30169v15.44014h-41.11588v16.60984h30.95784v14.73831h-154.30547v-15.44014v0v-15.90802v0v-15.44014v0v-15.44014v0v-15.90802v0v-15.44014v0v-15.44014v0v-15.90802v0v-15.44014v0z" fill="#00e658"/><path d="M190.89466,109.56759h26.60439v15.44014h-11.60919v15.90802h-26.60439v15.44014h-19.34865v15.44014h76.42716v15.90802h-70.13885v15.44014h65.30169v15.44014h-71.10628v16.3759l40.63216,-0.18715v15.15941h-106.41757v-15.44014v0v-15.90802v0v-15.44014v0v-15.44014v0v-15.90802v0v-15.44014v0v-15.44014v0v-15.90802v0v-15.44014v0z" fill="#00c44b"/><path d="M182.67149,109.56759h17.41378v15.44014h12.09291v15.90802h-15.47892v15.44014h14.9952v15.44014h-31.92527v15.90802h-6.28831v15.44014h38.6973v15.44014h-14.9952v16.60984h3.38601v14.73831h-105.93385v-15.44014v0v-15.90802v0v-15.44014v0v-15.44014v0v-15.90802v0v-15.44014v0v-15.44014v0v-15.90802v0v-15.44014v0z" fill="#00b745"/><path d="M128.49527,109.56759v15.44014h45.95304v15.90802h-36.27872v15.44014h29.50669v15.44014h-33.37642v15.90802h54.17622v15.44014h-38.6973v15.44014h13.06034v15.90802h-4.35345v15.44014h-63.85054v-15.44014v0v-15.90802v0v-15.44014v0v-15.44014v0v-15.90802v0v-15.44014v0v-15.44014v0v-15.90802v0v-15.44014v0z" fill="#00ca4d"/><path d="M142.52304,109.56759h12.57662v15.44014h-0.96743v15.90802h-19.34865v15.44014h2.9023v15.44014h-18.38122v15.90802h2.41858v15.44014h14.51149v15.44014h2.41858v15.90802h19.83236v15.44014h-63.85054v-15.44014v0v-15.90802v0v-15.44014v0v-15.44014v0v-15.90802v0v-15.44014v0v-15.44014v0v-15.90802v0v-15.44014v0z" fill="#009e3d"/><path d="M96.08628,109.56759h3.38601v15.44014h23.21838v15.90802h-9.19061v15.44014h-7.25574v15.44014h36.27872v15.90802h-33.37642v15.44014h-8.70689v15.44014h4.83716v15.90802h18.38122v15.44014h-29.02297v-15.44014v0v-15.90802v0v-15.44014v0v-15.44014v0v-15.90802v0v-15.44014v0v-15.44014v0v-15.90802v0v-15.44014v0z" fill="#009138"/></g><g stroke-linecap="butt"><path d="M217.32765,156.02874c0,0 0.01595,-0.24735 0.36737,-0.24735c2.11499,0 22.2654,0 22.2654,0c5.47083,-5.72006 13.8638,-7.55156 21.22004,-4.63013c7.35625,2.92143 12.20657,10.01199 12.26245,17.92691c1.8685,11.98131 2.86942,24.08214 2.99489,36.20764c0,7.24747 -2.99481,11.88904 -8.71492,13.05703c-1.07414,0.22019 -2.16814,0.33096 -3.26462,0.32968c-5.29618,0.11174 -10.00425,-3.35465 -11.47004,-8.44518c-1.16798,-3.32426 -3.26413,-7.87706 -4.55191,-10.60235c-6.76995,3.06158 -14.66532,-0.71382 -16.53145,-7.90571h-6.76828c-1.86285,7.21033 -9.7835,10.99097 -16.56142,7.90571c-1.28777,2.75524 -3.38465,7.30804 -4.55264,10.60235c-1.46293,5.0796 -6.15491,8.54321 -11.44007,8.44518c-1.08646,-0.00111 -2.16955,-0.1117 -3.23392,-0.32968c-5.75006,-1.07813 -8.74489,-5.80956 -8.74489,-13.05703c0.12548,-12.12549 1.12568,-24.22632 2.99416,-36.20764c0.05587,-7.91492 4.90619,-15.00548 12.26243,-17.92691c2.29883,-0.91295 4.69845,-1.36173 7.07895,-1.37282c5.23711,-0.02433 10.37989,2.07039 14.14109,6.00293z" fill="none" stroke-opacity="0.14902" stroke="#000000" stroke-width="10" stroke-miterlimit="10"/><path d="M228.52073,159.83049v-29.28434c0,0 0.22527,-8.56004 6.75792,-8.56004c6.53266,0 7.69837,5.38812 7.75146,7.42005c0.05309,2.03193 0.10619,4.06386 0.15928,6.0958c0.05309,2.03193 2.47787,5.06844 6.30738,5.06844c3.8295,0 6.85123,-1.53019 6.75795,-5.51897c-0.08969,-3.83507 -0.22528,-25.13133 -0.22528,-25.13133" fill="none" stroke-opacity="0.14902" stroke="#000000" stroke-width="20" stroke-miterlimit="4"/><path d="M217.08029,155.7814h22.88013c5.47083,-5.72006 13.8638,-7.55156 21.22004,-4.63013c7.35625,2.92143 12.20657,10.01199 12.26245,17.92691c1.8685,11.98131 2.86942,24.08214 2.99489,36.20764c0,7.24747 -2.99481,11.88904 -8.71492,13.05703c-1.07414,0.22019 -2.16814,0.33096 -3.26462,0.32968c-5.29618,0.11174 -10.00425,-3.35465 -11.47004,-8.44518c-1.16798,-3.32426 -3.26413,-7.87706 -4.55191,-10.60235c-6.76995,3.06158 -14.66532,-0.71382 -16.53145,-7.90571h-6.76828c-1.86285,7.21033 -9.7835,10.99097 -16.56142,7.90571c-1.28777,2.75524 -3.38465,7.30804 -4.55264,10.60235c-1.46293,5.0796 -6.15491,8.54321 -11.44007,8.44518c-1.08646,-0.00111 -2.16955,-0.1117 -3.23392,-0.32968c-5.75006,-1.07813 -8.74489,-5.80956 -8.74489,-13.05703c0.12548,-12.12549 1.12568,-24.22632 2.99416,-36.20764c0.05587,-7.91492 4.90619,-15.00548 12.26243,-17.92691c2.29883,-0.91295 4.69845,-1.36173 7.07895,-1.37282c5.23711,-0.02433 10.37989,2.07039 14.14109,6.00293z" fill="#ffffff" stroke="none" stroke-width="9.34454" stroke-miterlimit="10"/><path d="M228.52073,159.83049v-29.28434c0,0 0.22527,-8.56004 6.75792,-8.56004c6.53266,0 7.69837,5.38812 7.75146,7.42005c0.05309,2.03193 0.10619,4.06386 0.15928,6.0958c0.05309,2.03193 2.47787,5.06844 6.30738,5.06844c3.8295,0 6.85123,-1.53019 6.75795,-5.51897c-0.08969,-3.83507 -0.22528,-25.13133 -0.22528,-25.13133" fill="none" stroke="#fdffff" stroke-width="8.5" stroke-miterlimit="4"/><path d="M251.03472,156.87856c0.98457,-0.85327 2.29106,-1.23706 3.58068,-1.05185c2.33215,0.3358 4.00856,2.41644 3.84057,4.76664c-0.16797,2.35021 -2.12326,4.17127 -4.47945,4.17197c-2.48079,-0.00014 -4.49182,-2.01118 -4.49197,-4.49197c-0.00001,-1.30286 0.5656,-2.54154 1.55017,-3.3948zM198.57223,158.77626h8.98466v5.98904h5.98977v8.98465h-5.98977v5.98977h-8.98466v-5.98977h-5.98977v-8.98465h5.98977zM255.47354,160.27407c0.00021,-0.82699 -0.67003,-1.49756 -1.49702,-1.49778c-0.39714,-0.0001 -0.77807,0.15756 -1.05896,0.43832c-0.2809,0.28076 -0.43876,0.6616 -0.43884,1.05875c-0.00019,0.82699 0.67006,1.49756 1.49705,1.49775c0.82699,0.0002 1.49755,-0.67004 1.49776,-1.49703zM201.56713,161.77044v5.98976h-5.98977v2.99489h5.98977v5.98977h2.99489v-5.98977h5.98977v-2.99489h-5.98977v-5.98976zM242.0503,165.86289c0.98473,-0.85329 2.29145,-1.23697 3.58118,-1.05153c2.33228,0.33583 4.00871,2.41667 3.84053,4.76701c-0.16818,2.35033 -2.12381,4.17128 -4.48014,4.17161c-2.48078,-0.00015 -4.49182,-2.01118 -4.49197,-4.49197c-0.00005,-1.30301 0.56568,-2.54182 1.55041,-3.39512zM260.01889,165.86289c0.98473,-0.85329 2.29145,-1.23697 3.58118,-1.05152c2.33214,0.33581 4.00853,2.41644 3.84055,4.76664c-0.16798,2.3502 -2.12325,4.17125 -4.47944,4.17196c-1.19145,0.00012 -2.33414,-0.47306 -3.1767,-1.31548c-0.84255,-0.84242 -1.31593,-1.98503 -1.31601,-3.17648c-0.00005,-1.30301 0.56568,-2.54182 1.55041,-3.39512zM246.48961,169.25723c-0.0002,-0.82699 -0.67075,-1.49724 -1.49775,-1.49705c-0.39714,0.00009 -0.77799,0.15796 -1.05875,0.43885c-0.28076,0.28089 -0.43843,0.66182 -0.43832,1.05897c0.00023,0.82699 0.6708,1.49722 1.49779,1.49702c0.82699,-0.00022 1.49723,-0.67078 1.49703,-1.49777zM262.96119,167.7602c-0.39728,-0.0001 -0.77831,0.15767 -1.05923,0.43858c-0.28091,0.28092 -0.43868,0.66196 -0.43858,1.05923c0.00023,0.82689 0.67065,1.49709 1.49754,1.49702c0.8269,-0.00007 1.4972,-0.67039 1.49728,-1.49728c0.00007,-0.82689 -0.67012,-1.49733 -1.49702,-1.49755zM251.03499,174.84764c0.98453,-0.8531 2.29092,-1.2368 3.58041,-1.0516c2.33214,0.33582 4.00851,2.41645 3.84054,4.76663c-0.16797,2.35019 -2.12322,4.17125 -4.47942,4.17197c-1.19145,-0.00006 -2.33407,-0.47345 -3.17648,-1.316c-0.84242,-0.84255 -1.31561,-1.98525 -1.31548,-3.1767c0.00021,-1.30272 0.56591,-2.5412 1.55044,-3.39431zM255.47354,178.24264c0.00021,-0.82699 -0.67003,-1.49757 -1.49702,-1.49779c-0.39714,-0.00011 -0.77807,0.15757 -1.05896,0.43833c-0.2809,0.28075 -0.43876,0.6616 -0.43884,1.05875c-0.00019,0.82699 0.67006,1.49755 1.49705,1.49775c0.82699,0.0002 1.49755,-0.67004 1.49776,-1.49703zM208.01255,186.43169c0.92728,-2.23814 3.11149,-3.69731 5.53413,-3.69707c3.30781,0.00033 5.98912,2.68196 5.98905,5.98976c-0.00005,2.42263 -1.45948,4.60668 -3.69772,5.53368c-2.23825,0.92701 -4.81454,0.41443 -6.52749,-1.29873c-1.71296,-1.71316 -2.22525,-4.2895 -1.29796,-6.52764zM237.50527,188.72431c-0.00003,-3.30795 2.68157,-5.98962 5.98952,-5.98968c1.58859,-0.00003 3.11213,0.63102 4.23543,1.75432c1.12331,1.1233 1.75436,2.64685 1.75433,4.23544c-0.00006,3.30795 -2.68173,5.98955 -5.98968,5.98953c-3.30795,-0.00002 -5.98958,-2.68165 -5.9896,-5.9896zM215.59089,186.53522c-0.60653,-0.56649 -1.42092,-0.85587 -2.2489,-0.79913c-1.6139,0.10604 -2.85204,1.47434 -2.79674,3.09077c0.0553,1.61643 1.38404,2.89693 3.00142,2.89242c0.7943,0.00002 1.55608,-0.31551 2.11773,-0.87716c0.56164,-0.56165 0.87718,-1.32342 0.87716,-2.11773c0.00014,-0.82992 -0.34412,-1.62269 -0.95066,-2.18917zM245.53903,186.53523c-0.60653,-0.56649 -1.42092,-0.85587 -2.24891,-0.79913c-1.6139,0.10603 -2.85204,1.47434 -2.79674,3.09077c0.0553,1.61643 1.38405,2.89693 3.00142,2.89242c0.7943,0.00002 1.55608,-0.31551 2.11773,-0.87716c0.56165,-0.56165 0.87717,-1.32342 0.87715,-2.11773c0.00014,-0.82992 -0.34412,-1.6227 -0.95066,-2.18918z" fill="#00b745" stroke="none" stroke-width="9.34454" stroke-miterlimit="10"/><path d="M264.47901,169.25775c-0.00007,0.82689 -0.69119,1.51802 -1.51809,1.51809c-0.82689,0.00007 -1.51813,-0.69092 -1.51835,-1.51782c-0.0001,-0.39728 0.16376,-0.79304 0.44467,-1.07396c0.28092,-0.28092 0.67668,-0.44478 1.07395,-0.44467c0.82689,0.00023 1.51789,0.69147 1.51782,1.51836z" fill="#ffffff" stroke="#ffffff" stroke-width="1.5" stroke-miterlimit="10"/><path d="M255.49435,160.27408c-0.00022,0.82699 -0.69159,1.51804 -1.51858,1.51785c-0.82699,-0.0002 -1.51804,-0.69158 -1.51786,-1.51857c0.00009,-0.39714 0.16404,-0.79271 0.44493,-1.07346c0.28089,-0.28076 0.67654,-0.44451 1.07369,-0.44441c0.82699,0.00023 1.51803,0.69161 1.51782,1.5186z" fill="#ffffff" stroke="#ffffff" stroke-width="1.5" stroke-miterlimit="10"/><path d="M246.51042,169.25723c0.0002,0.82699 -0.69085,1.51838 -1.51784,1.51858c-0.82699,0.00022 -1.51839,-0.69083 -1.51861,-1.51782c-0.0001,-0.39714 0.16365,-0.79278 0.44441,-1.07369c0.28076,-0.28089 0.67632,-0.44485 1.07347,-0.44494c0.82699,-0.00019 1.51836,0.69087 1.51857,1.51786z" fill="#ffffff" stroke="#ffffff" stroke-width="1.5" stroke-miterlimit="10"/><path d="M255.49435,178.24262c-0.00022,0.82699 -0.69159,1.51804 -1.51858,1.51785c-0.82699,-0.0002 -1.51804,-0.69157 -1.51786,-1.51856c0.00009,-0.39714 0.16404,-0.79271 0.44493,-1.07346c0.28089,-0.28076 0.67654,-0.44452 1.07369,-0.44441c0.82699,0.00023 1.51803,0.69161 1.51782,1.51861z" fill="#ffffff" stroke="#ffffff" stroke-width="1.5" stroke-miterlimit="10"/><path d="M245.55324,186.52003c0.60653,0.56648 0.95738,1.37445 0.95725,2.20437c0.00002,0.7943 -0.32159,1.57078 -0.88323,2.13243c-0.56165,0.56165 -1.33812,0.88329 -2.13243,0.88327c-1.61737,0.00451 -2.96695,-1.29609 -3.02224,-2.91252c-0.0553,-1.61643 1.20225,-3.00621 2.81615,-3.11224c0.82798,-0.05674 1.658,0.23822 2.26452,0.8047z" fill="#ffffff" stroke="none" stroke-width="4.67227" stroke-miterlimit="10"/><path d="M215.60511,186.52004c0.60654,0.56648 0.95738,1.37444 0.95725,2.20436c0.00002,0.7943 -0.32159,1.57078 -0.88323,2.13244c-0.56165,0.56165 -1.33812,0.88328 -2.13243,0.88327c-1.61737,0.00451 -2.96695,-1.29609 -3.02224,-2.91252c-0.0553,-1.61643 1.20224,-3.00621 2.81614,-3.11224c0.82798,-0.05674 1.658,0.23822 2.26452,0.8047z" fill="#ffffff" stroke="none" stroke-width="4.67227" stroke-miterlimit="10"/><path d="M204.5661,161.75004l0.01063,5.99545l5.99546,0.01063v3.00305l-5.99546,0.01063l-0.01063,5.99546h-3.00305l-0.01063,-5.99546l-5.99546,-0.01063v-3.00305l5.99546,-0.01063l0.01063,-5.99545z" fill="#ffffff" stroke="none" stroke-width="4.67227" stroke-miterlimit="10"/><path d="M232.12785,164.26668c0,0.77685 -0.6297,1.40662 -1.40656,1.40662h-4.4012c-0.77686,0 -1.40662,-0.62977 -1.40662,-1.40662v0c0,-0.7768 0.62976,-1.40656 1.40662,-1.40656h4.40121c0.77686,0 1.40656,0.62976 1.40656,1.40656z" fill="#00b745" stroke="#00b745" stroke-width="1" stroke-miterlimit="10"/></g><path d="M90.35135,118.17134c0,-6.39897 5.91545,-12.99566 13.1192,-12.99566c28.93252,0 219.72832,0 272.60996,0c8.61359,0 13.56814,4.64378 13.56814,12.24625c0,30.59212 0,109.0924 0,125.70487c0,6.03964 -4.85913,11.69754 -13.31873,11.69754c-52.46667,0 -243.42599,0 -272.60996,0c-7.3279,0 -13.36861,-4.5235 -13.36861,-11.94695c0,-30.16113 0,-124.70605 0,-124.70605z" fill="none" stroke="url(#color-1)" stroke-width="10" stroke-linecap="butt" stroke-miterlimit="10"/><g stroke-linecap="square" stroke-miterlimit="10"><path d="M252.31266,231.48462c0.35384,0 3.98074,0.56597 3.95696,2.36875c-0.02378,1.80277 -3.78916,1.77873 -4.01166,1.77873h-3.55653v2.80146h5.15425c0.31736,0 0.53075,0.41037 0.64018,1.23111c0.05835,0.35748 0.08755,0.73684 0.08755,1.13809c0,0.40124 -0.05655,0.91923 -0.16962,1.55393c-0.11308,0.63471 -0.29912,0.95205 -0.55811,0.95205h-9.58077c-0.7113,0 -1.06697,-0.28999 -1.06697,-0.86998v-18.01251c0,-0.48514 0.21522,-0.72772 0.64565,-0.72772h10.02945c0.3903,0 0.58546,0.82621 0.58546,2.47865c0,1.65244 -0.19515,2.47864 -0.58545,2.47864h-5.18159v2.82881zM267.41515,224.45361c0.22251,-0.55811 1.38978,-0.83714 3.50182,-0.83714c0.53987,0 1.20558,0.04194 1.99713,0.12584c0.79521,0.0839 1.19281,0.16233 1.19281,0.23529l-3.29048,9.5732l3.4601,9.39138c0.05471,0.09484 -0.34836,0.18419 -1.20922,0.26811c-0.85722,0.0839 -1.58493,0.12586 -2.18316,0.12586c-2.37103,0 -3.6678,-0.31735 -3.89031,-0.95205l-2.1011,-5.35123l-1.90412,5.52085c-0.18968,0.52162 -1.38614,0.78244 -3.58938,0.78244c-0.53987,0 -1.21287,-0.03648 -2.01901,-0.10943c-0.80249,-0.07661 -1.16547,-0.18056 -1.08886,-0.31187l3.14697,-9.69022l-3.31658,-9.247c-0.05471,-0.09119 0.33195,-0.17872 1.15998,-0.26264c0.83168,-0.0839 1.53753,-0.12585 2.11751,-0.12585c2.35278,0 3.64226,0.33559 3.86842,1.00678l1.93149,4.70558zM275.30873,233.47632c0,-2.9827 0.73491,-8.94821 0.73491,-8.94821c0,-0.63471 0.28815,-0.95206 0.8645,-0.95206h4.92993c2.76497,0 4.75847,0.57087 5.98047,1.71262c1.22564,1.13809 1.83846,2.79053 1.83846,4.95727c0,1.79103 -0.57999,3.43435 -1.73997,4.92992c-0.57634,0.74415 -1.42627,1.34054 -2.54977,1.78922c-1.11986,0.44867 -2.42575,0.67302 -3.91768,0.67302v5.01746c0,0.22251 -0.35017,0.37573 -1.05055,0.45962c-0.70036,0.0839 -1.30407,0.12584 -1.8111,0.12584c0,0 -2.5443,-0.18608 -2.5443,-0.55814c0,0 -0.7349,-6.13999 -0.7349,-9.20656zM281.44959,228.57373v4.42653h0.36113c0.65295,0 1.20375,-0.20427 1.65243,-0.61282c0.44867,-0.4122 0.67302,-0.99218 0.67302,-1.73997c0,-0.74778 -0.15503,-1.28037 -0.46508,-1.59771c-0.30641,-0.31736 -0.85175,-0.47602 -1.63601,-0.47602zM300.04865,238.9643h-4.45388l-0.8098,3.47446c-0.11308,0.57998 -1.01043,0.86999 -2.69203,0.86999c-0.89734,0 -2.63184,-0.33558 -2.63184,-0.39395l4.95727,-18.96458c0,-0.14956 1.27854,-0.22433 3.83561,-0.22433c2.56072,0 3.84107,0.07477 3.84107,0.22434l4.84785,18.99195c0,0.13133 -0.43043,0.23528 -1.2913,0.31188c-0.85721,0.07295 -1.53935,0.10944 -2.04637,0.10944c0,0 -2.50053,-0.26084 -2.63185,-0.78247zM296.29513,235.40777h2.94374l-1.26393,-5.79991h-0.16415zM324.14338,242.69046c0,0.39395 -0.8791,0.59094 -2.63731,0.59094c-1.75455,0 -2.70661,-0.14044 -2.85617,-0.42132l-4.67822,-8.73815v8.71079c0,0.33558 -0.86451,0.50339 -2.59353,0.50339c-1.72538,0 -2.58807,-0.1678 -2.58807,-0.50339v-18.74025c0,-0.28088 0.73684,-0.42131 2.21053,-0.42131c0.57998,0 1.25665,0.05107 2.02997,0.1532c0.77696,0.10213 1.24935,0.29364 1.41715,0.57453l4.48125,8.62873v-8.79834c0,-0.35384 0.86815,-0.53073 2.60448,-0.53073c1.73997,0 2.60996,0.17691 2.60996,0.53075zM326.94351,242.01746v-16.80877c0,-0.46691 0.11673,-0.83532 0.35018,-1.10527c0.23346,-0.26993 0.53623,-0.4049 0.90829,-0.4049h4.67822c2.97291,0 5.22903,0.74779 6.76837,2.24336c1.53934,1.49192 2.30902,3.84472 2.30902,7.05837c0,6.87234 -2.93095,10.3085 -8.79287,10.3085h-4.79313c-0.95206,0 -1.42808,-0.43043 -1.42808,-1.2913zM332.32209,229.02241v8.37702c0,0.3903 0.02736,0.63835 0.08208,0.74415c0.05835,0.10213 0.22799,0.1532 0.50886,0.1532c1.02501,0 1.80381,-0.38301 2.33636,-1.14904c0.53257,-0.76603 0.79885,-2.0409 0.79885,-3.82465c0,-1.78375 -0.27541,-2.94555 -0.82622,-3.48541c-0.55081,-0.54352 -1.42445,-0.81527 -2.6209,-0.81527zM353.30524,231.48462c0.35384,0 0.53075,0.65477 0.53075,1.96431c0,0.3903 -0.04196,0.85175 -0.12585,1.38431c-0.0839,0.53257 -0.23709,0.79886 -0.45961,0.79886h-3.55653v2.80146h5.15425c0.31736,0 0.53074,0.41037 0.64017,1.23111c0.05835,0.35748 0.08755,0.73684 0.08755,1.13809c0,0.40124 -0.05654,0.91923 -0.16962,1.55393c-0.11308,0.63471 -0.29911,0.95205 -0.5581,0.95205h-9.58077c-0.7113,0 -1.06697,-0.28999 -1.06697,-0.86998v-18.01251c0,-0.48514 0.21523,-0.72772 0.64564,-0.72772h10.02946c0.3903,0 0.58546,0.82621 0.58546,2.47865c0,1.65244 -0.19515,2.47864 -0.58545,2.47864h-5.18159v2.82881zM358.01169,225.20869c0,-0.46691 0.11673,-0.83532 0.35017,-1.10527c0.23346,-0.26993 0.53623,-0.4049 0.90829,-0.4049h4.67823c2.97291,0 5.22903,0.74779 6.76837,2.24336c1.53934,1.49192 2.30901,3.84472 2.30901,7.05837c0,6.87234 -2.93094,10.3085 -8.79286,10.3085h-4.79313c-0.95206,0 -1.42809,-0.43043 -1.42809,-1.2913zM363.39026,229.02241v8.37702c0,0.3903 0.02735,0.63835 0.08207,0.74415c0.05835,0.10213 0.22799,0.1532 0.50886,0.1532c1.02501,0 1.8038,-0.38301 2.33637,-1.14904c0.53257,-0.76603 0.79886,-2.0409 0.79886,-3.82465c0,-1.78375 -0.27539,-2.94555 -0.8262,-3.48541c-0.55081,-0.54352 -1.42444,-0.81527 -2.6209,-0.81527z" fill="none" stroke-opacity="0.47843" stroke="#000000" stroke-width="6"/><path d="M252.31266,231.48462c0.35384,0 0.53075,0.65477 0.53075,1.96431c0,0.3903 -0.04196,0.85175 -0.12585,1.38431c-0.0839,0.53257 -0.2371,0.79886 -0.45961,0.79886h-3.55653v2.80146h5.15425c0.31736,0 0.53075,0.41037 0.64018,1.23111c0.05835,0.35748 0.08755,0.73684 0.08755,1.13809c0,0.40124 -0.05654,0.91923 -0.16962,1.55393c-0.11308,0.6347 -0.29913,0.95205 -0.55811,0.95205h-9.58077c-0.7113,0 -1.06697,-0.28999 -1.06697,-0.86998v-18.01251c0,-0.48514 0.21522,-0.72772 0.64564,-0.72772h10.02946c0.3903,0 0.58546,0.82622 0.58546,2.47865c0,1.65243 -0.19515,2.47864 -0.58545,2.47864h-5.1816v2.82881zM267.41515,224.45361c0.22251,-0.55811 1.3898,-0.83715 3.50183,-0.83715c0.53987,0 1.20557,0.04194 1.99713,0.12584c0.79521,0.0839 1.19282,0.16233 1.19282,0.23529l-4.7603,9.69568l4.92992,9.2689c0.05472,0.09484 -0.34837,0.1842 -1.20922,0.26811c-0.85722,0.0839 -1.58493,0.12586 -2.18316,0.12586c-2.37103,0 -3.6678,-0.31735 -3.89031,-0.95205l-2.1011,-5.35123l-1.90412,5.52084c-0.18969,0.52164 -1.38614,0.78245 -3.58938,0.78245c-0.53987,0 -1.21287,-0.03648 -2.01901,-0.10943c-0.8025,-0.07661 -1.16545,-0.18057 -1.08885,-0.31189l4.37181,-9.6902l-4.54143,-9.247c-0.05472,-0.09119 0.33195,-0.17873 1.15998,-0.26265c0.83168,-0.0839 1.53752,-0.12584 2.1175,-0.12584c2.35278,0 3.64226,0.3356 3.86842,1.00679l1.93149,4.70558zM278.58794,243.36346c-1.6962,0 -2.5443,-0.18604 -2.5443,-0.55811v-18.15479c0,-0.6347 0.28816,-0.95205 0.86451,-0.95205h4.92992c2.76498,0 4.75846,0.57086 5.98047,1.71261c1.22564,1.13809 1.83846,2.79052 1.83846,4.95727c0,1.79103 -0.57999,3.43434 -1.73997,4.92992c-0.57634,0.74414 -1.42627,1.34055 -2.54977,1.78922c-1.11986,0.44866 -2.42574,0.673 -3.91768,0.673v5.01746c0,0.22251 -0.35017,0.37572 -1.05055,0.45963c-0.70036,0.0839 -1.30407,0.12584 -1.8111,0.12584zM281.44959,228.57372v4.42653h0.36113c0.65295,0 1.20376,-0.20428 1.65243,-0.61282c0.44866,-0.41219 0.673,-0.99218 0.673,-1.73998c0,-0.74778 -0.15503,-1.28036 -0.46508,-1.5977c-0.30641,-0.31736 -0.85175,-0.47602 -1.63601,-0.47602zM303.6052,243.36346c-1.62325,0 -2.50052,-0.26081 -2.63184,-0.78243l-0.9247,-3.61673h-4.45388l-0.8098,3.47446c-0.11308,0.57999 -1.01043,0.86999 -2.69203,0.86999c-0.89734,0 -1.56124,-0.05107 -1.99167,-0.15322c-0.42678,-0.10214 -0.64018,-0.18238 -0.64018,-0.24075l4.95727,-18.96458c0,-0.14956 1.27854,-0.22434 3.83559,-0.22434c2.56072,0 3.84107,0.07478 3.84107,0.22435l4.84785,18.99194c0,0.13131 -0.43044,0.23529 -1.29129,0.31189c-0.85721,0.07295 -1.53935,0.10943 -2.04638,0.10943zM296.29513,235.40777h2.94372l-1.26393,-5.7999h-0.16415zM324.14337,242.69046c0,0.39395 -0.8791,0.59094 -2.63731,0.59094c-1.75455,0 -2.70661,-0.14044 -2.85617,-0.42132l-4.67822,-8.73815v8.71079c0,0.33559 -0.86452,0.50339 -2.59355,0.50339c-1.72538,0 -2.58807,-0.16779 -2.58807,-0.50339v-18.74025c0,-0.28088 0.73685,-0.42131 2.21053,-0.42131c0.57999,0 1.25664,0.05107 2.02996,0.15321c0.77698,0.10213 1.24935,0.29364 1.41715,0.57451l4.48125,8.62873v-8.79834c0,-0.35384 0.86815,-0.53074 2.60449,-0.53074c1.73998,0 2.60996,0.17692 2.60996,0.53075zM326.94351,242.01746v-16.80876c0,-0.46691 0.11674,-0.83532 0.35018,-1.10527c0.23346,-0.26993 0.53621,-0.4049 0.90829,-0.4049h4.67822c2.97291,0 5.22903,0.74778 6.76838,2.24335c1.53935,1.49192 2.30902,3.84472 2.30902,7.05837c0,6.87234 -2.93095,10.3085 -8.79287,10.3085h-4.79312c-0.95206,0 -1.42809,-0.43044 -1.42809,-1.2913zM332.32209,229.02241v8.37702c0,0.3903 0.02736,0.63835 0.08207,0.74414c0.05835,0.10213 0.22798,0.15321 0.50886,0.15321c1.02503,0 1.80381,-0.38301 2.33638,-1.14904c0.53257,-0.76604 0.79885,-2.04091 0.79885,-3.82465c0,-1.78375 -0.27541,-2.94555 -0.82622,-3.48541c-0.55081,-0.54352 -1.42445,-0.81527 -2.6209,-0.81527zM353.30523,231.48462c0.35384,0 0.53075,0.65477 0.53075,1.96431c0,0.3903 -0.04195,0.85175 -0.12584,1.38431c-0.0839,0.53257 -0.2371,0.79886 -0.45961,0.79886h-3.55653v2.80146h5.15425c0.31736,0 0.53075,0.41037 0.64018,1.23111c0.05835,0.35748 0.08755,0.73684 0.08755,1.13809c0,0.40124 -0.05654,0.91923 -0.16962,1.55393c-0.11308,0.6347 -0.29911,0.95205 -0.55811,0.95205h-9.58077c-0.7113,0 -1.06696,-0.28999 -1.06696,-0.86998v-18.01251c0,-0.48514 0.21522,-0.72772 0.64564,-0.72772h10.02946c0.3903,0 0.58546,0.82622 0.58546,2.47865c0,1.65243 -0.19515,2.47864 -0.58545,2.47864h-5.1816v2.82881zM358.01169,242.01746v-16.80876c0,-0.46691 0.11672,-0.83532 0.35017,-1.10527c0.23346,-0.26993 0.53622,-0.4049 0.90829,-0.4049h4.67823c2.97291,0 5.22903,0.74778 6.76835,2.24335c1.53935,1.49192 2.30903,3.84472 2.30903,7.05837c0,6.87234 -2.93094,10.3085 -8.79286,10.3085h-4.79312c-0.95206,0 -1.42809,-0.43044 -1.42809,-1.2913zM363.39026,229.02241v8.37702c0,0.3903 0.02736,0.63835 0.08207,0.74414c0.05835,0.10213 0.22798,0.15321 0.50887,0.15321c1.02503,0 1.8038,-0.38301 2.33637,-1.14904c0.53257,-0.76604 0.79886,-2.04091 0.79886,-3.82465c0,-1.78375 -0.27541,-2.94555 -0.82622,-3.48541c-0.55081,-0.54352 -1.42444,-0.81527 -2.62089,-0.81527z" fill="#ffffff" stroke="#ffffff" stroke-width="0"/></g><path d="M117.70385,237.39795l0.05913,-3.74139c0,-0.25803 0.2652,-0.42825 0.79559,-0.51068c0.53397,-0.08242 0.97477,-0.12364 1.32239,-0.12364l1.07511,0.08063c0.69523,0.1111 1.04286,0.30462 1.04286,0.58056l-0.10751,8.61165c-0.36912,0.25802 -1.10916,0.51068 -2.2201,0.75796c-1.10737,0.24728 -2.37779,0.37091 -3.81127,0.37091c-2.65911,0 -4.80575,-0.86189 -6.43993,-2.58564c-1.63059,-1.72376 -2.44588,-4.25566 -2.44588,-7.59567c0,-2.84546 0.79738,-5.15696 2.39213,-6.93448c1.59476,-1.7811 3.8059,-2.67165 6.63344,-2.67165c1.28297,0 2.4423,0.12365 3.47799,0.37092c1.03927,0.24728 2.33303,1.26145 2.33303,1.6664c0,0.40138 -0.30464,1.14143 -0.58059,1.88685c-0.27594,0.74183 -0.58953,1.2973 -0.94072,1.66642c-0.34762,0.36554 -0.60027,0.54831 -0.75795,0.54831c-0.1541,0 -0.31894,-0.06809 -0.49455,-0.20427c-0.17202,-0.13977 -0.51606,-0.2867 -1.03212,-0.4408c-0.51247,-0.15769 -1.00702,-0.23653 -1.48365,-0.23653c-1.13604,0 -2.05705,0.36733 -2.76304,1.10199c-0.70599,0.73108 -1.05898,1.86891 -1.05898,3.41349c0,1.541 0.36195,2.71107 1.08586,3.51024c0.72391,0.79558 1.55712,1.19337 2.49964,1.19337c0.94609,0 1.41916,-0.23832 1.41916,-0.71495zM137.54784,243.20357c-1.59475,0 -2.45663,-0.25624 -2.58564,-0.76871l-0.90848,-3.55324h-4.37571l-0.79559,3.41348c-0.1111,0.56981 -0.99269,0.85472 -2.64477,0.85472c-0.88159,0 -1.53383,-0.05017 -1.95671,-0.15051c-0.4193,-0.10034 -0.62893,-0.17918 -0.62893,-0.23653l4.87026,-18.63171c0,-0.14694 1.25609,-0.2204 3.76828,-0.2204c2.51576,0 3.77365,0.07346 3.77365,0.2204l4.76275,18.65859c0,0.12901 -0.42288,0.23115 -1.26863,0.30641c-0.84217,0.07167 -1.51232,0.10751 -2.01046,0.10751zM130.36608,235.3875h2.89206l-1.24175,-5.69809h-0.16127l-1.48903,5.69809zM159.45647,242.62838c0,0 -0.33256,-6.3809 -0.43739,-8.39222c-0.05883,-1.12891 -0.55248,-1.26505 -0.87297,-0.19947c-0.60555,2.01334 -2.62455,8.72608 -2.62455,8.72608c-0.07167,0.22219 -0.69523,0.33329 -1.87069,0.33329c-1.17546,0 -1.7811,-0.10213 -1.81695,-0.30641c0,0 -1.91602,-6.25008 -2.55321,-8.32859c-0.38125,-1.24363 -0.97382,-1.28525 -1.01651,-0.07371c-0.07115,2.01883 -0.28456,8.07439 -0.28456,8.07439c-0.01791,0.27594 -0.36733,0.4641 -1.04823,0.56444c-0.67732,0.10035 -1.24176,0.15052 -1.69331,0.15052c-0.44797,0 -0.88159,-0.02688 -1.30088,-0.08064c-0.88159,-0.12901 -1.31342,-0.35837 -1.29551,-0.68807l0.63432,-17.88987c0,-0.4408 1.11812,-0.66119 3.35435,-0.66119c0.66299,0 1.47111,0.05017 2.42438,0.15051c0.95327,0.10034 1.48545,0.29744 1.59655,0.59131c0,0 1.75384,4.93709 2.31709,6.52265c0.32324,0.90992 1.1462,0.91339 1.42831,0.00411c0.49322,-1.58972 2.03333,-6.55363 2.03333,-6.55363c0.16485,-0.47663 1.43169,-0.71495 3.80053,-0.71495c0.67732,0 1.48725,0.05017 2.42976,0.15051c0.9461,0.10034 1.41915,0.27953 1.41915,0.53756l0.80096,18.05652c0,0.20069 -0.35837,0.34762 -1.07511,0.4408c-0.71317,0.08959 -1.34569,0.13439 -1.89757,0.13439c0,0 -2.45128,-0.18279 -2.45128,-0.54833zM176.54988,231.53322c0.34762,0 0.52143,0.64328 0.52143,1.92983c0,0.38345 -0.04121,0.83679 -0.12364,1.36001c-0.08242,0.52322 -0.23295,0.78483 -0.45155,0.78483h-3.49411v2.75229h5.06378c0.31178,0 0.52143,0.40317 0.62894,1.2095c0.05734,0.35121 0.08601,0.72391 0.08601,1.11812c0,0.39421 -0.05554,0.90309 -0.16663,1.52666c-0.1111,0.62357 -0.29387,0.93536 -0.5483,0.93536h-9.41262c-0.69882,0 -1.04823,-0.2849 -1.04823,-0.85472v-17.69635c0,-0.47663 0.21143,-0.71495 0.63432,-0.71495h9.85341c0.38345,0 0.57518,0.81171 0.57518,2.43514c0,1.62342 -0.19173,2.43514 -0.57518,2.43514h-5.09065v2.77917zM183.56583,243.20357c-1.66643,0 -2.49963,-0.18277 -2.49963,-0.54831v-17.83612c0,-0.62357 0.28312,-0.93535 0.84933,-0.93535h4.84338c2.71645,0 4.67495,0.56085 5.87548,1.68255c1.20413,1.11812 1.80619,2.74153 1.80619,4.87026c0,1.75959 -0.56981,3.37407 -1.70943,4.84338c-0.56622,0.73108 -1.40123,1.31701 -2.505,1.7578c-1.1002,0.4408 -2.38316,0.6612 -3.84891,0.6612v4.92939c0,0.21861 -0.34404,0.36912 -1.03211,0.45155c-0.68807,0.08242 -1.28117,0.12364 -1.77931,0.12364zM186.37726,228.67342v4.34883h0.35478c0.64148,0 1.18263,-0.20068 1.62342,-0.60206c0.4408,-0.40495 0.6612,-0.97477 0.6612,-1.70943c0,-0.73466 -0.15231,-1.25788 -0.45692,-1.56966c-0.30103,-0.31178 -0.83679,-0.46767 -1.60729,-0.46767zM205.55833,242.43486l-0.90847,-3.55324h-4.37571l-0.79559,3.41348c-0.1111,0.56981 -0.99269,0.85472 -2.64477,0.85472c-0.88159,0 -1.53383,-0.05017 -1.9567,-0.15051c-0.4193,-0.10034 -0.62894,-0.17918 -0.62894,-0.23653l4.87027,-18.63171c0,-0.14694 1.25609,-0.2204 3.76827,-0.2204c2.51576,0 3.77365,0.07346 3.77365,0.2204l4.76275,18.65859c0,0.12901 -0.42288,0.23115 -1.26863,0.30641c-0.84217,0.07167 -1.51233,0.10751 -2.01047,0.10751c0,0 -2.45664,-0.25625 -2.58566,-0.76872zM200.96222,235.3875h2.89205l-1.24175,-5.69809h-0.16126zM213.23784,241.88118v-16.51373c0,-0.45872 0.11468,-0.82067 0.34404,-1.08586c0.22935,-0.2652 0.52681,-0.39779 0.89234,-0.39779h4.59611c2.92074,0 5.13726,0.73466 6.64959,2.20398c1.51233,1.46574 2.26848,3.77724 2.26848,6.93448c0,6.75171 -2.87951,10.12756 -8.63854,10.12756h-4.70899c-0.93535,0 -1.40302,-0.42288 -1.40302,-1.26864zM218.52202,229.11422v8.22999c0,0.38346 0.02688,0.62714 0.08063,0.73108c0.05734,0.10034 0.22398,0.15051 0.49993,0.15051c1.00703,0 1.77215,-0.37628 2.29538,-1.12887c0.52322,-0.75257 0.78483,-2.00509 0.78483,-3.75752c0,-1.75243 -0.27057,-2.89384 -0.81171,-3.42423c-0.54114,-0.53398 -1.39945,-0.80096 -2.57491,-0.80096z" fill="none" stroke-opacity="0.47843" stroke="#000000" stroke-width="6" stroke-linecap="square" stroke-miterlimit="10"/><path d="M117.70385,237.39795l0.05913,-3.74139c0,-0.25803 0.2652,-0.42825 0.79559,-0.51068c0.53397,-0.08242 0.97477,-0.12364 1.32239,-0.12364l1.07511,0.08063c0.69523,0.1111 1.04286,0.30462 1.04286,0.58056l-0.10751,8.61165c-0.36912,0.25802 -1.10916,0.51068 -2.2201,0.75796c-1.10737,0.24728 -2.37779,0.37091 -3.81127,0.37091c-2.65911,0 -4.80575,-0.86189 -6.43993,-2.58564c-1.63059,-1.72376 -2.44588,-4.25566 -2.44588,-7.59567c0,-2.84546 0.79738,-5.15696 2.39213,-6.93448c1.59476,-1.7811 3.8059,-2.67165 6.63344,-2.67165c1.28297,0 2.4423,0.12365 3.47799,0.37092c1.03927,0.24728 1.75064,0.58235 2.1341,1.00523c0.0215,0.14694 0.03225,0.42289 0.03225,0.82784c0,0.40138 -0.13797,0.97477 -0.41392,1.72019c-0.27594,0.74183 -0.58953,1.2973 -0.94072,1.66642c-0.34762,0.36554 -0.60027,0.54831 -0.75795,0.54831c-0.1541,0 -0.31894,-0.06809 -0.49455,-0.20427c-0.17202,-0.13977 -0.51606,-0.2867 -1.03212,-0.4408c-0.51247,-0.15769 -1.00702,-0.23653 -1.48365,-0.23653c-1.13604,0 -2.05705,0.36733 -2.76304,1.10199c-0.70599,0.73108 -1.05898,1.86891 -1.05898,3.41349c0,1.541 0.36195,2.71107 1.08586,3.51024c0.72391,0.79558 1.55712,1.19337 2.49964,1.19337c0.94609,0 1.41916,-0.23832 1.41916,-0.71495zM137.54784,243.20357c-1.59475,0 -2.45663,-0.25624 -2.58564,-0.76871l-0.90848,-3.55324h-4.37571l-0.79559,3.41348c-0.1111,0.56981 -0.99269,0.85472 -2.64477,0.85472c-0.88159,0 -1.53383,-0.05017 -1.95671,-0.15051c-0.4193,-0.10034 -0.62893,-0.17918 -0.62893,-0.23653l4.87026,-18.63171c0,-0.14694 1.25609,-0.2204 3.76828,-0.2204c2.51576,0 3.77365,0.07346 3.77365,0.2204l4.76275,18.65859c0,0.12901 -0.42288,0.23115 -1.26863,0.30641c-0.84217,0.07167 -1.51232,0.10751 -2.01046,0.10751zM130.36608,235.3875h2.89206l-1.24175,-5.69809h-0.16127l-1.48903,5.69809zM161.90772,243.17669c-1.63417,0 -2.45126,-0.18277 -2.45126,-0.54831l-0.57519,-11.03602l-3.35972,11.17042c-0.07167,0.22219 -0.69523,0.33329 -1.87069,0.33329c-1.17546,0 -1.7811,-0.10213 -1.81695,-0.30641l-3.46724,-11.31019l-0.38704,10.98227c-0.01791,0.27594 -0.36733,0.4641 -1.04823,0.56444c-0.67732,0.10035 -1.24176,0.15052 -1.69331,0.15052c-0.44797,0 -0.88159,-0.02688 -1.30088,-0.08064c-0.88159,-0.12901 -1.31342,-0.35837 -1.29551,-0.68807l0.63432,-17.88987c0,-0.4408 1.11812,-0.66119 3.35435,-0.66119c0.66299,0 1.47111,0.05017 2.42438,0.15051c0.95327,0.10034 1.48545,0.29744 1.59655,0.59131l3.0802,8.67079l2.69853,-8.69766c0.16485,-0.47663 1.43169,-0.71495 3.80053,-0.71495c0.67732,0 1.48725,0.05017 2.42976,0.15051c0.9461,0.10034 1.41915,0.27953 1.41915,0.53756l0.80096,18.05652c0,0.20069 -0.35837,0.34762 -1.07511,0.4408c-0.71317,0.08959 -1.34569,0.13439 -1.89757,0.13439zM176.54988,231.53322c0.34762,0 0.52143,0.64328 0.52143,1.92983c0,0.38345 -0.04121,0.83679 -0.12364,1.36001c-0.08242,0.52322 -0.23295,0.78483 -0.45155,0.78483h-3.49411v2.75229h5.06378c0.31178,0 0.52143,0.40317 0.62894,1.2095c0.05734,0.35121 0.08601,0.72391 0.08601,1.11812c0,0.39421 -0.05554,0.90309 -0.16663,1.52666c-0.1111,0.62357 -0.29387,0.93536 -0.5483,0.93536h-9.41262c-0.69882,0 -1.04823,-0.2849 -1.04823,-0.85472v-17.69635c0,-0.47663 0.21143,-0.71495 0.63432,-0.71495h9.85341c0.38345,0 0.57518,0.81171 0.57518,2.43514c0,1.62342 -0.19173,2.43514 -0.57518,2.43514h-5.09065v2.77917zM183.56583,243.20357c-1.66643,0 -2.49963,-0.18277 -2.49963,-0.54831v-17.83612c0,-0.62357 0.28312,-0.93535 0.84933,-0.93535h4.84338c2.71645,0 4.67495,0.56085 5.87548,1.68255c1.20413,1.11812 1.80619,2.74153 1.80619,4.87026c0,1.75959 -0.56981,3.37407 -1.70943,4.84338c-0.56622,0.73108 -1.40123,1.31701 -2.505,1.7578c-1.1002,0.4408 -2.38316,0.6612 -3.84891,0.6612v4.92939c0,0.21861 -0.34404,0.36912 -1.03211,0.45155c-0.68807,0.08242 -1.28117,0.12364 -1.77931,0.12364zM186.37726,228.67342v4.34883h0.35478c0.64148,0 1.18263,-0.20068 1.62342,-0.60206c0.4408,-0.40495 0.6612,-0.97477 0.6612,-1.70943c0,-0.73466 -0.15231,-1.25788 -0.45692,-1.56966c-0.30103,-0.31178 -0.83679,-0.46767 -1.60729,-0.46767zM208.14398,243.20357c-1.59475,0 -2.45663,-0.25624 -2.58565,-0.76871l-0.90847,-3.55324h-4.37571l-0.79559,3.41348c-0.1111,0.56981 -0.99269,0.85472 -2.64477,0.85472c-0.88159,0 -1.53383,-0.05017 -1.9567,-0.15051c-0.4193,-0.10034 -0.62894,-0.17918 -0.62894,-0.23653l4.87027,-18.63171c0,-0.14694 1.25609,-0.2204 3.76827,-0.2204c2.51576,0 3.77365,0.07346 3.77365,0.2204l4.76275,18.65859c0,0.12901 -0.42288,0.23115 -1.26863,0.30641c-0.84217,0.07167 -1.51233,0.10751 -2.01047,0.10751zM200.96222,235.3875h2.89205l-1.24175,-5.69809h-0.16126zM213.23784,225.36745c0,-0.45872 0.11468,-0.82067 0.34404,-1.08586c0.22935,-0.2652 0.52681,-0.39779 0.89234,-0.39779h4.59611c2.92074,0 5.13726,0.73466 6.64959,2.20398c1.51233,1.46574 2.26848,3.77724 2.26848,6.93448c0,6.75171 -2.87951,10.12756 -8.63854,10.12756h-4.70899c-0.93535,0 -1.40302,-0.42288 -1.40302,-1.26864zM218.52202,229.11422v8.22999c0,0.38346 0.02688,0.62714 0.08063,0.73108c0.05734,0.10034 0.22398,0.15051 0.49993,0.15051c1.00703,0 1.77215,-0.37628 2.29538,-1.12887c0.52322,-0.75257 0.78483,-2.00509 0.78483,-3.75752c0,-1.75243 -0.27057,-2.89384 -0.81171,-3.42423c-0.54114,-0.53398 -1.39945,-0.80096 -2.57491,-0.80096z" fill="#ffffff" stroke-opacity="0.47843" stroke="#000000" stroke-width="0" stroke-linecap="square" stroke-miterlimit="10"/></g></g></svg>
