<svg xmlns="http://www.w3.org/2000/svg" width="309.297" height="159.649" viewBox="0 0 309.297 159.649"><defs><linearGradient x1="240" y1="105.176" x2="240" y2="254.824" gradientUnits="userSpaceOnUse" id="a"><stop offset="0" stop-color="#803100"/><stop offset="1" stop-color="#b35419"/></linearGradient></defs><path d="M7.158 153.483V6.165H302.14v147.318z" fill="#ff7724"/><path d="m15.407 79.574 30.172-30.172 30.172 30.172-30.172 30.172zm72 0 30.172-30.172 30.172 30.172-30.172 30.172zm72.5 0 30.172-30.172 30.172 30.172-30.172 30.172zm74 0 30.172-30.172 30.172 30.172-30.172 30.172z" fill="#f25d00"/><path d="m45.579 57.134 22.44 22.44-22.44 22.44-22.44-22.44z" fill="#de5500"/><path d="m45.579 64.739 14.835 14.835-14.835 14.835-14.835-14.835z" fill="#cc4e00"/><path d="m45.579 70.688 8.886 8.886-8.886 8.886-8.887-8.886z" fill="#ff8e26"/><path d="m117.579 57.134 22.44 22.44-22.44 22.44-22.44-22.44z" fill="#de5500"/><path d="m117.579 64.739 14.835 14.835-14.835 14.835-14.835-14.835z" fill="#cc4e00"/><path d="m117.579 70.688 8.886 8.886-8.886 8.886-8.887-8.886z" fill="#ff8e26"/><path d="m190.079 57.134 22.44 22.44-22.44 22.44-22.44-22.44z" fill="#de5500"/><path d="m190.079 64.739 14.835 14.835-14.835 14.835-14.835-14.835z" fill="#cc4e00"/><path d="m190.079 70.688 8.886 8.886-8.886 8.886-8.887-8.886z" fill="#ff8e26"/><path d="m264.079 57.134 22.44 22.44-22.44 22.44-22.44-22.44z" fill="#de5500"/><path d="m264.079 64.739 14.835 14.835-14.835 14.835-14.835-14.835z" fill="#cc4e00"/><path d="m264.079 70.688 8.886 8.886-8.886 8.886-8.887-8.886z" fill="#ff8e26"/><g stroke-width="0"><path d="m58.505 48.157 23.144-23.143 23.144 23.143-23.144 23.144z" fill="#ff8e26"/><path d="m131.505 48.157 23.144-23.143 23.144 23.143-23.144 23.144z" fill="#ff9b26"/><path d="m204.505 48.157 23.144-23.143 23.144 23.143-23.144 23.144zM9.649 25.014l23.144 23.143L9.649 71.301zm266.856 23.143 23.144-23.143v46.287z" fill="#ff8e26"/></g><path d="m58.505 111.657 23.144-23.143 23.144 23.143-23.144 23.144zm73 0 23.144-23.143 23.144 23.143-23.144 23.144zm73 0 23.144-23.143 23.144 23.143-23.144 23.144zM9.649 88.514l23.144 23.143-23.144 23.144zm266.856 23.143 23.144-23.143v46.287z" fill="#ff8e26"/><g stroke-width="0"><path d="m83.147 9.012-37.568 40.04L8.01 9.012z" fill="#cc4e00"/><path d="m70.753 9.096-25.174 26.83-25.174-26.83z" fill="#f25d00"/><path d="M60.837 9.082 45.579 25.344 30.32 9.082z" fill="#e65800"/></g><g stroke-width="0"><path d="m155.53 9.012-37.568 40.04-37.569-40.04z" fill="#cc4e00"/><path d="m143.136 9.096-25.174 26.83-25.174-26.83z" fill="#f25d00"/><path d="m133.22 9.082-15.258 16.262-15.259-16.262z" fill="#e65800"/></g><path d="m228.905 9.012-37.569 40.04-37.568-40.04z" fill="#cc4e00"/><path d="m216.51 9.096-25.174 26.83-25.174-26.83z" fill="#f25d00"/><path d="m206.595 9.082-15.259 16.262-15.258-16.262z" fill="#e65800"/><g stroke-width="0"><path d="m301.288 9.012-37.569 40.04-37.568-40.04z" fill="#cc4e00"/><path d="m288.893 9.096-25.174 26.83-25.174-26.83z" fill="#f25d00"/><path d="m278.978 9.082-15.259 16.262-15.258-16.262z" fill="#e65800"/></g><g stroke-width="0"><path d="m8.01 150.721 37.569-40.04 37.568 40.04z" fill="#cc4e00"/><path d="m20.405 150.637 25.174-26.83 25.174 26.83z" fill="#f25d00"/><path d="m30.32 150.651 15.259-16.263 15.258 16.263z" fill="#e65800"/></g><g stroke-width="0"><path d="m80.393 150.721 37.569-40.04 37.568 40.04z" fill="#cc4e00"/><path d="m92.788 150.637 25.174-26.83 25.174 26.83z" fill="#f25d00"/><path d="m102.703 150.651 15.259-16.263 15.258 16.263z" fill="#e65800"/></g><g stroke-width="0"><path d="m153.768 150.721 37.568-40.04 37.569 40.04z" fill="#cc4e00"/><path d="m166.162 150.637 25.174-26.83 25.174 26.83z" fill="#f25d00"/><path d="m176.078 150.651 15.258-16.263 15.259 16.263z" fill="#e65800"/></g><g stroke-width="0"><path d="m226.151 150.721 37.568-40.04 37.569 40.04z" fill="#cc4e00"/><path d="m238.545 150.637 25.174-26.83 25.174 26.83z" fill="#f25d00"/><path d="m248.461 150.651 15.258-16.263 15.259 16.263z" fill="#e65800"/></g><path d="M90.351 117.671c0-6.399 5.916-12.495 13.12-12.495h272.61c8.613 0 13.568 4.643 13.568 12.246v125.705c0 6.04-4.86 11.697-13.32 11.697H103.72c-7.328 0-13.369-4.523-13.369-11.947z" fill="none" stroke="url(#a)" stroke-width="10" transform="translate(-85.351 -100.176)"/><path d="M114.482 55.657c0-22.183 17.984-40.166 40.167-40.166s40.167 17.983 40.167 40.166c0 22.184-17.984 40.167-40.167 40.167s-40.167-17.983-40.167-40.167" fill-opacity=".502"/><path d="m52.239 125.422.091-5.818q0-.602 1.237-.794 1.245-.193 2.057-.193l1.672.126c1.081.173 1.955-.526 1.955-.097l-.5 14.392q-.862.602-3.453 1.179-2.583.577-5.927.577-6.204 0-10.016-4.021-3.803-4.022-3.803-11.813 0-6.638 3.72-10.784 3.72-4.155 10.316-4.155 2.993 0 5.409.577 2.424.576 3.319 1.563.05.343.05 1.288 0 .936-.644 2.675-.644 1.73-1.463 2.591-.81.853-1.178.853-.36 0-.77-.318-.4-.326-1.605-.685a7.8 7.8 0 0 0-2.307-.368q-2.651 0-4.297 1.714-1.647 1.705-1.647 5.308 0 3.596 1.689 5.46 1.688 1.855 3.887 1.855 2.207 0 2.207-1.112m13.572 1.58v-15.231h-3.043q-.727 0-1.02-1.848a12.4 12.4 0 0 1-.134-1.83q0-.945.134-1.848.292-1.84 1.02-1.84h14.387q.727 0 .978 1.84.176.903.176 1.847 0 .937-.176 1.831-.25 1.848-.978 1.848h-2.867v15.231h2.992q.728 0 1.029 1.848a10 10 0 0 1 .167 1.84q0 .935-.167 1.838-.302 1.84-1.029 1.84h-14.42q-.728 0-.987-1.84a9.6 9.6 0 0 1-.175-1.839q0-.945.175-1.84.26-1.846.987-1.847zm31.546-22.596q.726 0 .727 3.787 0 3.787-.727 3.787h-7.834v4.882h5.225q.728 0 .728 3.319t-.686 3.319h-5.267v10.307q0 .602-1.605.795-1.605.192-2.675.192l-2.015-.084q-2.098-.26-2.098-.852v-28.34q0-.687.276-.895.284-.217.844-.217zm42.202 30.003q-3.812 0-3.812-.852l-.895-17.163-5.225 17.372q-.166.518-2.909.518t-2.825-.477l-5.393-17.589-.601 17.08q-.042.643-1.63.877-1.581.234-2.634.234-1.045 0-2.023-.125-2.057-.3-2.015-1.07l.987-27.822q0-1.028 5.216-1.028 1.547 0 3.77.234 2.224.233 2.483.92l4.79 13.484 4.197-13.526q.386-1.112 5.91-1.112 1.581 0 3.78.234 2.206.234 2.207.836l1.245 28.08q0 .469-1.672.686-1.664.21-2.95.21m11.343-15.583q-1.195-2.139-1.195-3.486 0-1.346.727-1.73 2.433-1.07 6.688-1.07 4.264 0 6.019 1.99 1.756 1.99 1.756 5.885v6.763h1.454q.728 0 1.137.861.41.853.41 2.35 0 1.495-.753 2.95-.751 1.455-2.031 1.455-2.316 0-3.729-1.237a3.5 3.5 0 0 1-.978-1.246q-1.973 2.483-6.127 2.483-3.12 0-5.259-2.224-2.14-2.223-2.14-5.267 0-6.972 8.343-6.972h2.358v-.434q0-1.112-.368-1.43-.36-.318-1.689-.318-1.63 0-4.623.677m3.428 7.884q0 .935.51 1.43.51.493 1.304.493.795 0 1.438-.644v-3.294h-1.204q-2.048 0-2.048 2.015m24.946 7.398q0 .301-3.076.301-4.28-.125-4.28-.468v-13.869h-1.113q-1.111 0-1.454-1.881a7 7 0 0 1-.092-1.112q0-1.329.518-2.658.77-1.881 2.391-1.881 1.63 0 2.91.769 1.287.769 1.721 1.538 2.692-2.307 6.413-2.307 3.728 0 5.392 2.014 1.671 2.007 1.672 6.588v12.84q0 .51-3.662.51-3.654 0-3.653-.51v-12.372q0-2.14-1.497-2.14-.434 0-1.204.368-.768.36-.986.535zm17.34-15.282q-1.197-2.139-1.196-3.486 0-1.346.727-1.73 2.433-1.07 6.688-1.07 4.264 0 6.02 1.99t1.755 5.885v6.763h1.455q.726 0 1.137.861.41.853.41 2.35 0 1.495-.753 2.95t-2.032 1.455q-2.315 0-3.728-1.237a3.5 3.5 0 0 1-.978-1.246q-1.974 2.483-6.128 2.483-3.118 0-5.259-2.224-2.14-2.223-2.14-5.267 0-6.972 8.344-6.972h2.357v-.434q0-1.112-.368-1.43-.36-.318-1.688-.318-1.63 0-4.624.677m3.427 7.884q0 .935.51 1.43.51.493 1.304.493.795 0 1.438-.644v-3.294h-1.204q-2.048 0-2.048 2.015m23.876 7.657q-4.146 0-6.42-2.675-2.266-2.674-2.266-7.917 0-5.241 2.976-8.217t7.917-2.976q4.95 0 8.16 2.181v21.318q0 3.17-2.575 4.857-2.567 1.69-6.588 1.69-4.02 0-7.19-1.03-.434-1.028-.434-1.838 0-2.742.903-4.022 2.866 1.238 6.12 1.238 2.356 0 2.357-1.664v-1.287q-1.84.342-2.96.342m1.973-14.813q-2.867 0-2.867 4.33 0 2.692 1.112 3.503.727.56 1.454.56a6 6 0 0 0 1.288-.125v-8.135a4 4 0 0 0-.987-.133m28.423 13.66q-2.7 1.58-6.939 1.58t-7.147-2.884q-2.91-2.893-2.91-8.01 0-5.115 2.801-8.234 2.81-3.126 7.09-3.126t6.612 2.182 2.332 5.308q0 6.93-7.958 6.93h-2.96q0 1.288.703 1.781.71.494 2.081.494 3.002 0 5.693-1.372.042-.041.385.594 1.028 1.847 1.028 3.11t-.81 1.647m-5.35-12.373q0-1.797-1.756-1.797-.81 0-1.396.493-.577.493-.577 1.43v1.329h2.316q1.413 0 1.413-1.455m19.347 13.485q0 .3-3.895.3-3.897-.09-3.896-.342v-14.212h-1.154q-.685 0-1.095-.836-.41-.835-.41-2.073 0-4.623 2.743-4.623 1.921 0 3.21 1.178 1.287 1.17 1.287 2.676.894-1.756 2.416-2.8 1.522-1.054 3.102-1.054 2.482 0 3 1.279.127.342.126 1.011 0 .66-.41 2.375-.4 1.713-.835 2.482-.428.77-.51.77t-.794-.318q-.703-.326-1.263-.326-1.622 0-1.622 2.566z" fill="none" stroke-opacity=".502" stroke="#000" stroke-width="8.5" stroke-linecap="round" stroke-linejoin="round"/><path d="m52.239 125.422.091-5.818q0-.602 1.237-.794 1.245-.193 2.057-.193l1.672.126q1.622.26 1.622.903l-.167 13.392q-.862.602-3.453 1.179-2.583.577-5.927.577-6.204 0-10.015-4.021-3.804-4.022-3.804-11.813 0-6.638 3.72-10.784 3.72-4.155 10.316-4.155 2.993 0 5.409.577 2.424.576 3.319 1.563.05.343.05 1.288 0 .936-.644 2.675-.644 1.73-1.463 2.591-.81.853-1.178.853-.36 0-.77-.318-.4-.326-1.605-.685a7.8 7.8 0 0 0-2.307-.368q-2.651 0-4.297 1.714-1.647 1.705-1.647 5.308 0 3.595 1.689 5.46 1.688 1.855 3.887 1.855 2.207 0 2.207-1.112m13.572 1.58v-15.231h-3.043q-.727 0-1.02-1.848a12.4 12.4 0 0 1-.134-1.83q0-.945.134-1.848.292-1.84 1.02-1.84h14.387q.727 0 .978 1.84.176.903.176 1.847 0 .937-.176 1.831-.25 1.848-.978 1.848h-2.867v15.231h2.992q.728 0 1.029 1.848a10 10 0 0 1 .167 1.84q0 .935-.167 1.838-.302 1.84-1.029 1.84h-14.42q-.728 0-.987-1.84a9.6 9.6 0 0 1-.175-1.839q0-.945.175-1.84.26-1.846.987-1.847zm31.546-22.596q.726 0 .727 3.787 0 3.787-.727 3.787h-7.834v4.882h5.225q.728 0 .728 3.319t-.686 3.319h-5.267v10.307q0 .602-1.605.795-1.605.192-2.675.192l-2.015-.084q-2.098-.26-2.098-.852v-28.34q0-.687.276-.895.284-.217.844-.217zm42.202 30.003q-3.812 0-3.812-.852l-.895-17.163-5.224 17.372q-.168.518-2.91.518t-2.825-.477l-5.393-17.589-.601 17.08q-.042.643-1.63.877-1.581.234-2.634.234-1.045 0-2.023-.125-2.057-.3-2.015-1.07l.987-27.822q0-1.028 5.216-1.028 1.547 0 3.77.234 2.224.233 2.483.92l4.79 13.484 4.197-13.526q.385-1.113 5.91-1.112 1.581 0 3.78.234 2.206.234 2.207.836l1.245 28.08q0 .469-1.672.686-1.664.21-2.95.21m11.343-15.583q-1.195-2.139-1.195-3.486 0-1.346.727-1.73 2.433-1.07 6.688-1.07 4.263 0 6.019 1.99 1.755 1.99 1.756 5.885v6.763h1.454q.728 0 1.137.861.41.853.41 2.35 0 1.495-.753 2.95-.752 1.455-2.031 1.455-2.316 0-3.729-1.237a3.5 3.5 0 0 1-.978-1.246q-1.973 2.483-6.127 2.483-3.12 0-5.259-2.224-2.14-2.223-2.14-5.267 0-6.972 8.343-6.972h2.358v-.435q0-1.11-.368-1.43-.36-.316-1.689-.317-1.63 0-4.623.677m3.428 7.884q0 .935.51 1.43.51.493 1.304.493.795 0 1.438-.644v-3.294h-1.204q-2.048 0-2.048 2.015m24.946 7.398q0 .301-3.076.301-4.28-.125-4.28-.468v-13.869h-1.113q-1.111 0-1.454-1.881a7 7 0 0 1-.092-1.112q0-1.329.518-2.658.77-1.881 2.391-1.881 1.63 0 2.91.769 1.287.769 1.721 1.538 2.692-2.307 6.412-2.307 3.73 0 5.393 2.014 1.672 2.007 1.672 6.588v12.84q0 .51-3.662.51-3.654 0-3.653-.51v-12.372q0-2.14-1.497-2.14-.434 0-1.204.368-.768.36-.986.535zm17.34-15.282q-1.197-2.139-1.196-3.486 0-1.346.727-1.73 2.433-1.07 6.688-1.07 4.264 0 6.02 1.99t1.755 5.885v6.763h1.455q.726 0 1.137.861.41.853.41 2.35 0 1.495-.753 2.95t-2.032 1.455q-2.315 0-3.728-1.237a3.5 3.5 0 0 1-.978-1.246q-1.974 2.483-6.128 2.483-3.118 0-5.259-2.224-2.14-2.223-2.14-5.267 0-6.972 8.344-6.972h2.357v-.435q0-1.11-.368-1.43-.36-.316-1.689-.317-1.629 0-4.623.677m3.427 7.884q0 .935.51 1.43.51.493 1.304.493.795 0 1.438-.644v-3.294h-1.204q-2.048 0-2.048 2.015m23.876 7.657q-4.146 0-6.42-2.675-2.266-2.674-2.266-7.917 0-5.241 2.976-8.217t7.917-2.976q4.95 0 8.16 2.181v21.318q0 3.17-2.575 4.857-2.567 1.69-6.588 1.69-4.02 0-7.19-1.03-.435-1.028-.434-1.838 0-2.743.903-4.021 2.866 1.236 6.12 1.237 2.356 0 2.357-1.664v-1.287q-1.84.342-2.96.342m1.973-14.813q-2.867 0-2.867 4.33 0 2.692 1.112 3.503.727.56 1.454.56a6 6 0 0 0 1.288-.125v-8.135a4 4 0 0 0-.987-.133m28.423 13.66q-2.7 1.58-6.939 1.58t-7.147-2.884q-2.91-2.893-2.91-8.01 0-5.115 2.801-8.234 2.81-3.126 7.09-3.126t6.612 2.182 2.332 5.308q0 6.93-7.958 6.93h-2.96q0 1.288.703 1.781.71.495 2.081.494 3.002 0 5.693-1.372.042-.041.385.594 1.028 1.848 1.028 3.11t-.81 1.647m-5.35-12.373q0-1.797-1.756-1.797-.81 0-1.396.493-.577.493-.577 1.43v1.329h2.316q1.413 0 1.413-1.455m19.347 13.485q0 .3-3.895.3-3.897-.09-3.896-.342v-14.212h-1.154q-.685 0-1.095-.836-.41-.835-.41-2.073 0-4.623 2.743-4.623 1.921 0 3.21 1.178 1.287 1.17 1.287 2.676.894-1.755 2.416-2.8 1.522-1.054 3.102-1.054 2.482 0 3 1.279.127.342.126 1.011 0 .66-.41 2.375-.4 1.713-.835 2.482-.428.77-.51.77-.084 0-.794-.318-.703-.326-1.263-.326-1.622 0-1.622 2.566z" fill="#fff"/><path d="M117.896 55.657c0-20.298 16.455-36.753 36.753-36.753s36.753 16.455 36.753 36.753-16.455 36.753-36.753 36.753-36.753-16.455-36.753-36.753" fill="#bf5a1b"/><path d="M121.846 55.657c0-18.116 14.686-32.803 32.803-32.803s32.803 14.687 32.803 32.803c0 18.117-14.686 32.803-32.803 32.803s-32.803-14.686-32.803-32.803" fill="#ff7724"/><path d="M151.563 64.4h15.43V53.139c0-1.37-1.187-3.139-2.746-3.139h-6.399c-1.74 0-4.424-1.778-4.424-3.94v-7.08c0-1.072-1.101-2.352-2.655-2.352h-9.53c-.956 0-2.019.88-2.019 2.352v29.95c0 1.383 1.798 2.67 2.972 2.67h6.286v-4.114a3.086 3.086 0 0 1 3.085-3.086m-3.086 11.315h-9.143c-1.678 0-4.228-1.5-4.228-3.925V37.21c0-.672-.094-4.682 4.091-4.662 2.5.012 18.795-.034 18.795-.034l13.115 13.114V64.4a3.086 3.086 0 0 1 3.085 3.086v8.23a3.086 3.086 0 0 1-3.085 3.085h-19.544a3.086 3.086 0 0 1-3.086-3.086m9.258-37.801v6.24c0 .756.986 1.732 1.747 1.732h6.225zm.113 35.23v-2.572h-3.086v2.057c.568 0 1.029.23 1.029.515 0 .284-.46.514-1.029.514-.568 0-1.029-.46-1.029-1.029v-2.057a1.03 1.03 0 0 1 1.03-1.029h3.085c0-1.934-1.151-2.057-2.572-2.057h-1.027a2.57 2.57 0 0 0-2.572 2.572v3.086a2.57 2.57 0 0 0 2.572 2.571h1.028a2.57 2.57 0 0 0 2.572-2.571m8.229 2.571h2.057v-3.086h2.858v-2.057h-2.858v-1.029h2.858v-2.057h-4.915zm-7.2-8.229v2.057h2.057v4.115h-2.058v2.057h6.172v-2.057h-2.057v-4.115h2.057v-2.057z" fill="#fff"/><g fill="#fff" fill-rule="evenodd"><path d="M143.225 41.516c.367.459.951.687 1.532.598l1.322-.2c.625-.095.973.698.48 1.093l-1.042.837a1.65 1.65 0 0 0-.599 1.532l.201 1.322c.094.625-.698.973-1.094.48l-.837-1.042a1.65 1.65 0 0 0-1.532-.598l-1.321.2c-.625.095-.973-.697-.48-1.094l1.042-.836c.458-.368.686-.952.597-1.532l-.2-1.322c-.095-.625.698-.973 1.094-.48z" stroke="#ff7724" stroke-width="5"/><path d="M143.225 41.516c.367.459.951.687 1.532.598l1.322-.2c.625-.095.973.698.48 1.093l-1.042.837a1.65 1.65 0 0 0-.599 1.532l.201 1.322c.094.625-.698.973-1.094.48l-.837-1.042a1.65 1.65 0 0 0-1.532-.598l-1.321.2c-.625.095-.973-.697-.48-1.094l1.042-.836c.458-.368.686-.952.597-1.532l-.2-1.322c-.095-.625.698-.973 1.094-.48z"/></g><g fill="#fff" fill-rule="evenodd"><path d="M160.398 55.156a2.15 2.15 0 0 0 1.885-1.036l.908-1.493c.43-.706 1.516-.39 1.5.436l-.036 1.747a2.15 2.15 0 0 0 1.035 1.886l1.494.907c.705.43.39 1.517-.437 1.501L165 59.068a2.15 2.15 0 0 0-1.885 1.035l-.908 1.493c-.429.707-1.516.39-1.5-.436l.036-1.747a2.15 2.15 0 0 0-1.036-1.885l-1.494-.907c-.705-.43-.39-1.517.437-1.5z" stroke="#ff7724" stroke-width="5"/><path d="M160.398 55.156a2.15 2.15 0 0 0 1.885-1.036l.908-1.493c.43-.706 1.516-.39 1.5.436l-.036 1.747a2.15 2.15 0 0 0 1.035 1.886l1.494.907c.705.43.39 1.517-.437 1.501L165 59.068a2.15 2.15 0 0 0-1.885 1.035l-.908 1.493c-.429.707-1.516.39-1.5-.436l.036-1.747a2.15 2.15 0 0 0-1.036-1.885l-1.494-.907c-.705-.43-.39-1.517.437-1.5z"/></g><path d="M144.723 59.49c.483.321 1.1.36 1.618.103l1.18-.583c.56-.276 1.123.365.778.883l-.728 1.098a1.62 1.62 0 0 0-.103 1.617l.583 1.18c.275.56-.365 1.123-.884.779l-1.097-.729a1.62 1.62 0 0 0-1.617-.103l-1.18.583c-.56.276-1.123-.364-.779-.883l.73-1.097c.32-.482.358-1.099.102-1.618l-.584-1.18c-.275-.559.365-1.123.884-.779z" fill="#fff" fill-rule="evenodd"/></svg>
