<svg version="1.1" xmlns="http://www.w3.org/2000/svg" xmlns:xlink="http://www.w3.org/1999/xlink" width="309.2973" height="159.64866" viewBox="0,0,309.2973,159.64866"><defs><linearGradient x1="240" y1="105.1758" x2="240" y2="254.82446" gradientUnits="userSpaceOnUse" id="color-1"><stop offset="0" stop-color="#0c411c"/><stop offset="1" stop-color="#125f29"/></linearGradient></defs><g transform="translate(-85.35135,-100.1758)"><g data-paper-data="{&quot;isPaintingLayer&quot;:true}" fill-rule="nonzero" stroke-linejoin="miter" stroke-miterlimit="10" stroke-dasharray="" stroke-dashoffset="0" style="mix-blend-mode: normal"><path d="M90,237.20009c0,-32.58534 0,-100.04193 0,-117c0,-7.58598 7.79361,-15.2 16.8,-15.2c30.85232,0 207.36554,0 265,0c11.44315,0 18.2,6.9374 18.2,17.7c0,32.21672 0,98.70878 0,116c0,8.05438 -5.97287,16.3 -16.2,16.3c-55.67995,0 -237.45971,0 -268,0c-8.5236,0 -15.8,-6.97625 -15.8,-17.8z" fill="#34a853" stroke="none" stroke-width="0" stroke-linecap="butt"/><path d="M373.71311,122.93914v114.12405c0,2.39659 -1.63537,4.40045 -3.8457,5.00487v0.07826h-0.25615c-0.35665,0.07883 -0.72542,0.12475 -1.10603,0.12475h-258.00958c-0.38148,0 -0.75026,-0.0462 -1.10863,-0.12475h-1.86812v-0.821c-1.34601,-0.94402 -2.23199,-2.49911 -2.23199,-4.26242v-114.1252c0,-2.8702 2.33509,-5.20874 5.20875,-5.20874h258.0064c2.87424,0 5.21135,2.33855 5.21106,5.21019zM368.50176,122.1938h-54.11414v15.75591h54.86036v-15.01056c0,-0.41036 -0.33297,-0.74506 -0.74622,-0.74535zM369.24768,237.06291v-13.5219h-54.86007v14.14018h54.50169c0.20995,-0.12995 0.35867,-0.35376 0.35838,-0.61828zM110.10897,237.68119h67.26775v-14.14018h-67.62612v13.5219c0,0.26452 0.14843,0.48833 0.35837,0.61828zM181.84099,184.46602v15.48156h63.12032v-15.48156zM244.96102,180.00059v-16.74643h-63.12004v16.74643zM181.84099,204.41302v14.66229h63.12032v-14.66229zM181.84099,223.54102v14.14018h63.12032v-14.14018zM249.42732,237.68119h60.49487v-14.14018h-60.49487zM309.92219,219.07559v-14.66403h-60.49487v14.66403zM309.92219,199.94758v-15.48156h-60.49487v15.48156zM309.92219,180.00059v-16.74643h-60.49487v16.74643zM309.92219,158.78873v-16.37447h-60.49487v16.37447zM309.92219,137.94825v-15.75591h-60.49487v15.75591zM244.96102,137.94825v-15.75591h-63.12004v15.75591h63.12032zM181.84099,142.41427v16.37447h63.12032v-16.37447zM177.37672,142.41427h-67.62612v16.37447h67.62612zM109.75059,163.25417v16.74643h67.62612v-16.74643zM109.75059,184.46602v15.48156h67.62612v-15.48156zM109.75059,204.41302v14.66229h67.62612v-14.66229zM369.24768,219.07559v-14.66403h-54.86007v14.66403zM369.24768,199.94758v-15.48156h-54.86007v15.48156zM369.24768,180.00059v-16.74643h-54.86007v16.74643zM369.24768,158.78873v-16.37447h-54.86007v16.37447z" fill="#1b8d3d" stroke="#1b8d3d" stroke-width="1.5" stroke-linecap="butt"/><path d="M245.00654,137.95956h-63.2108v-15.77849h63.21052v15.77849z" data-paper-data="{&quot;noHover&quot;:false,&quot;origItem&quot;:[&quot;Path&quot;,{&quot;applyMatrix&quot;:true,&quot;segments&quot;:[[490.71132,269.81879],[490.71132,236.02979],[355.34854,236.02979],[355.34854,269.81879],[490.71192,269.81879]],&quot;closed&quot;:true,&quot;fillColor&quot;:[0,0,0,1]}]}" fill="#40ce66" stroke="none" stroke-width="0.5" stroke-linecap="butt"/><path d="M249.38191,223.5304h60.58569v14.1614h-60.58569z" data-paper-data="{&quot;noHover&quot;:false,&quot;origItem&quot;:[&quot;Path&quot;,{&quot;applyMatrix&quot;:true,&quot;segments&quot;:[[500.28942,483.69897],[630.02244,483.69897],[630.02244,453.37495],[500.28942,453.37495]],&quot;closed&quot;:true,&quot;fillColor&quot;:[0,0,0,1]}]}" fill="#40ce66" stroke="none" stroke-width="0.5" stroke-linecap="butt"/><path d="M314.34302,180.0142v-16.77366h54.94926v16.77366z" data-paper-data="{&quot;noHover&quot;:false,&quot;origItem&quot;:[&quot;Path&quot;,{&quot;applyMatrix&quot;:true,&quot;segments&quot;:[[757.2477,360.00125],[757.2477,324.08805],[639.59868,324.08805],[639.59868,360.00125]],&quot;closed&quot;:true,&quot;fillColor&quot;:[0,0,0,1]}]}" fill="#40ce66" stroke="none" stroke-width="0.5" stroke-linecap="butt"/><path d="M249.3823,158.80092v-16.39884h60.5849v16.39884z" data-paper-data="{&quot;noHover&quot;:false,&quot;origItem&quot;:[&quot;Path&quot;,{&quot;applyMatrix&quot;:true,&quot;segments&quot;:[[630.02244,314.51181],[630.02244,279.39627],[500.28942,279.39627],[500.28942,314.51181]],&quot;closed&quot;:true,&quot;fillColor&quot;:[0,0,0,1]}]}" fill="#40ce66" stroke="none" stroke-width="0.5" stroke-linecap="butt"/><path d="M369.2931,122.92741l-0.00031,15.03516h-54.94999v-15.78165l54.20368,-0.00033c0.41325,0.00029 0.74662,0.33646 0.74662,0.74681z" data-paper-data="{&quot;noHover&quot;:false,&quot;origItem&quot;:[&quot;Path&quot;,{&quot;applyMatrix&quot;:true,&quot;segments&quot;:[[[755.64804,236.03289],[0.88622,0.00062],[0,0]],[639.59868,236.03289],[639.59868,269.82189],[757.24832,269.82189],[[757.24832,237.63131],[0,0],[0,-0.88002]]],&quot;closed&quot;:true,&quot;fillColor&quot;:[0,0,0,1]}]}" fill="#40ce66" stroke="none" stroke-width="0.5" stroke-linecap="butt"/><path d="M245.00681,223.53083v14.16056h-63.21133v-14.16056z" data-paper-data="{&quot;noHover&quot;:false,&quot;origItem&quot;:[&quot;Path&quot;,{&quot;applyMatrix&quot;:true,&quot;segments&quot;:[[355.34856,453.37495],[355.34856,483.69897],[490.71194,483.69897],[490.71194,453.37495]],&quot;closed&quot;:true,&quot;fillColor&quot;:[0,0,0,1]}]}" fill="#40ce66" stroke="none" stroke-width="0.5" stroke-linecap="butt"/><path d="M245.00673,204.40245v14.6834h-63.21117v-14.6834z" data-paper-data="{&quot;noHover&quot;:false,&quot;origItem&quot;:[&quot;Path&quot;,{&quot;applyMatrix&quot;:true,&quot;segments&quot;:[[355.34856,412.35439],[355.34856,443.79811],[490.71194,443.79811],[490.71194,412.35439]],&quot;closed&quot;:true,&quot;fillColor&quot;:[0,0,0,1]}]}" fill="#40ce66" stroke="none" stroke-width="0.5" stroke-linecap="butt"/><path d="M109.70479,237.07165l0.00016,-13.54018h67.71741v14.15927l-67.35902,0.0001c-0.20994,-0.12995 -0.35855,-0.35466 -0.35855,-0.61918z" data-paper-data="{&quot;noHover&quot;:false,&quot;origItem&quot;:[&quot;Path&quot;,{&quot;applyMatrix&quot;:true,&quot;segments&quot;:[[[201.51714,483.69897],[-0.45022,-0.27868],[0,0]],[345.7748,483.69897],[345.7748,453.37495],[200.7486,453.37495],[[200.7486,482.37305],[0,0],[0,0.56728]]],&quot;closed&quot;:true,&quot;fillColor&quot;:[0,0,0,1]}]}" fill="#40ce66" stroke="none" stroke-width="0.5" stroke-linecap="butt"/><path d="M177.42229,204.40314v14.68206h-67.71727v-14.68206z" data-paper-data="{&quot;noHover&quot;:false,&quot;origItem&quot;:[&quot;Path&quot;,{&quot;applyMatrix&quot;:true,&quot;segments&quot;:[[200.7486,412.35439],[200.7486,443.79811],[345.7748,443.79811],[345.7748,412.35439]],&quot;closed&quot;:true,&quot;fillColor&quot;:[0,0,0,1]}]}" fill="#40ce66" stroke="none" stroke-width="0.5" stroke-linecap="butt"/><path d="M177.42217,184.45562v15.50238h-67.71703v-15.50238z" data-paper-data="{&quot;noHover&quot;:false,&quot;origItem&quot;:[&quot;Path&quot;,{&quot;applyMatrix&quot;:true,&quot;segments&quot;:[[200.7486,369.57749],[200.7486,402.77815],[345.7748,402.77815],[345.7748,369.57749]],&quot;closed&quot;:true,&quot;fillColor&quot;:[0,0,0,1]}]}" fill="#40ce66" stroke="none" stroke-width="0.5" stroke-linecap="butt"/><path d="M90.35135,117.67146c0,-6.39897 5.91545,-12.49566 13.1192,-12.49566c28.93252,0 219.72832,0 272.60996,0c8.61359,0 13.56814,4.64378 13.56814,12.24625c0,30.59212 0,109.0924 0,125.70487c0,6.03964 -4.85913,11.69754 -13.31873,11.69754c-52.46667,0 -243.42599,0 -272.60996,0c-7.3279,0 -13.36861,-4.5235 -13.36861,-11.94695c0,-30.16113 0,-108.19342 0,-125.20604z" data-paper-data="{&quot;index&quot;:null}" fill="none" stroke="url(#color-1)" stroke-width="10" stroke-linecap="butt"/><path d="M220.8269,181.89592c1.36964,-13.5628 5.1209,-50.70958 5.72801,-56.72145c0.2703,-2.67664 3.84256,-4.84315 6.5496,-4.56978c5.59081,0.56459 25.70614,2.59594 25.70614,2.59594l15.19026,18.49321c0,0 -3.7263,36.89959 -4.50447,44.60537c-0.27218,2.69523 -3.02696,5.20687 -6.80563,4.82529c-10.39396,-1.04963 -30.6451,-3.0947 -36.33719,-3.66951c-2.91955,-0.29484 -5.83833,-2.47352 -5.52674,-5.55907z" fill="none" stroke-opacity="0.50588" stroke="#000000" stroke-width="8.5" stroke-linecap="butt"/><g stroke-width="0" stroke-linecap="butt"><path d="M220.8269,181.89592c1.36964,-13.5628 5.1209,-50.70958 5.72801,-56.72145c0.2703,-2.67664 3.84256,-4.84315 6.5496,-4.56978c5.59081,0.56459 25.70614,2.59594 25.70614,2.59594l15.19026,18.49321c0,0 -3.7263,36.89959 -4.50447,44.60537c-0.27218,2.69523 -3.02696,5.20687 -6.80563,4.82529c-10.39396,-1.04963 -30.6451,-3.0947 -36.33719,-3.66951c-2.91955,-0.29484 -5.83833,-2.47352 -5.52674,-5.55907z" fill="#34a853" stroke="#000000"/><path d="M257.2194,139.87809l1.68735,-16.70899l15.02164,18.39634z" fill="#188038" stroke="none"/><path d="M231.23484,169.38947l2.27587,-22.53666l30.3865,3.06858l-2.27587,22.53667z" fill="#ffffff" stroke="none"/><path d="M235.76805,156.28963l0.61372,-6.0773l10.38205,1.04843l-0.61372,6.0773z" fill="#34a853" stroke="none"/><path d="M249.44197,157.67046l0.61372,-6.0773l10.38205,1.04844l-0.61371,6.0773z" fill="#34a853" stroke="none"/><path d="M234.83469,165.5322l0.61371,-6.0773l10.38206,1.04843l-0.61372,6.0773z" fill="#34a853" stroke="none"/><path d="M248.50861,166.91305l0.61372,-6.0773l10.38205,1.04843l-0.61372,6.07729z" fill="#34a853" stroke="none"/></g><path d="M124.24951,226.55077l0.05919,-5.17178c-0.00157,-0.35664 0.36506,-0.59356 1.09991,-0.71069c0.73981,-0.11718 1.3507,-0.17682 1.83265,-0.17893l1.49106,0.10493c0.96459,0.14934 1.44772,0.4147 1.4494,0.79613l-0.09659,11.90381c-0.51019,0.35889 -1.53467,0.7126 -3.07341,1.06115c-1.53379,0.34853 -3.2944,0.52714 -5.28182,0.53584c-3.68669,0.01615 -6.66811,-1.16211 -8.94429,-3.5348c-2.27121,-2.37271 -3.41698,-5.86739 -3.43733,-10.48401c-0.01734,-3.93304 1.07409,-7.13287 3.27428,-9.59948c2.20018,-2.47155 5.26034,-3.71593 9.18057,-3.7331c1.77875,-0.0078 3.38683,0.15606 4.82427,0.49156c1.44239,0.33548 2.43069,0.7943 2.96491,1.37648c0.03071,0.20297 0.04728,0.58432 0.04975,1.14405c0.00245,0.55479 -0.18535,1.34818 -0.56339,2.38017c-0.37806,1.02704 -0.80942,1.79674 -1.29409,2.30907c-0.47972,0.50737 -0.8289,0.76153 -1.04751,0.76248c-0.21364,0.00093 -0.44261,-0.09219 -0.6869,-0.27934c-0.23934,-0.19215 -0.71722,-0.39315 -1.43364,-0.60301c-0.71146,-0.21485 -1.39762,-0.32082 -2.05843,-0.31792c-1.57504,0.0069 -2.84973,0.52023 -3.82405,1.53997c-0.97437,1.01479 -1.45682,2.58965 -1.44741,4.7246c0.00939,2.12998 0.51834,3.74509 1.52686,4.84532c1.0085,1.09527 2.16613,1.64004 3.47287,1.63431c1.3117,-0.00575 1.96611,-0.33802 1.96321,-0.99683zM135.32367,232.20875c-1.59765,-1.7416 -2.40329,-4.16036 -2.41694,-7.25628c-0.01364,-3.09592 0.77065,-5.52165 2.35288,-7.27718c1.58224,-1.75553 3.72234,-2.6392 6.42027,-2.65102c2.69794,-0.01182 4.83827,0.85311 6.42101,2.59477c1.58274,1.74166 2.38096,4.16047 2.3946,7.25637c0.01364,3.09592 -0.7632,5.52161 -2.33054,7.27708c-1.56734,1.75547 -3.69996,2.63914 -6.3979,2.65096c-2.69794,0.01182 -4.84572,-0.85308 -6.44338,-2.59468zM139.58432,224.88611c0.01028,2.33307 0.73338,3.49648 2.1693,3.49018c1.4409,-0.00632 2.1562,-1.17601 2.14592,-3.50909c-0.01028,-2.33307 -0.68136,-9.448 -2.36434,-9.44063c-1.68297,0.00737 -1.96116,7.12645 -1.95088,9.45953zM152.48211,224.86672c-0.01364,-3.09592 0.77065,-5.52165 2.35288,-7.27719c1.58224,-1.75553 3.72234,-2.6392 6.42027,-2.65102c2.69794,-0.01182 4.83827,0.85311 6.42101,2.59478c1.58274,1.74166 2.38095,4.16046 2.39459,7.25637c0.01364,3.09592 -0.76319,5.52162 -2.33053,7.27709c-1.56734,1.75547 -3.69997,2.63913 -6.39791,2.65095c-2.69794,0.01182 -4.84573,-0.85307 -6.44338,-2.59468c0,0 -2.40331,-4.16036 -2.41696,-7.25628zM159.15971,224.80031c0.01028,2.33307 0.73338,3.49648 2.1693,3.49018c1.4409,-0.00632 2.1562,-1.17601 2.14592,-3.50909c-0.01028,-2.33307 0.86658,-7.52463 -2.6785,-7.50911c-3.54507,0.01554 -1.647,5.19493 -1.63672,7.52801zM179.84293,234.25768c-2.46441,0.0108 -4.37583,-0.77341 -5.73428,-2.35258c-1.35349,-1.57921 -2.03704,-3.92173 -2.05073,-7.02755c-0.01369,-3.10581 0.85999,-5.54432 2.62102,-7.3155c1.76104,-1.77118 4.10979,-2.6632 7.04622,-2.67607c2.9414,-0.01288 5.36892,0.62293 7.28254,1.90743l0.08352,18.94698c0.00827,1.87736 -0.75055,3.31968 -2.27647,4.327c-1.52094,1.00728 -3.47636,1.51618 -5.86624,1.52664c-1.42476,0.00624 -4.21297,-0.23405 -5.71349,-0.92295c-1.01641,-0.46665 -1.09391,-1.40178 -1.09477,-1.59581c-0.00717,-1.62474 0.2559,-2.81721 0.78917,-3.57745c1.70746,0.72564 3.52757,1.08423 5.46035,1.07576c1.40115,-0.00614 2.09954,-0.50207 2.09519,-1.48782l-0.00505,-1.14425c-1.09218,0.20789 -1.97119,0.31327 -2.63698,0.3162zM181.54376,221.08367c-1.70422,0.00746 -8.03745,0.99649 -8.02614,3.56239c0.00703,1.59501 5.82879,2.92896 6.49173,3.40656c0.43372,0.32999 0.86674,0.49404 1.29899,0.49214c0.43226,-0.0019 0.81469,-0.04072 1.14725,-0.11647l-0.03186,-7.22958c-0.30841,-0.07792 -0.60173,-0.11625 -0.87997,-0.11503zM199.45694,233.8671c0.001,0.22786 -1.29529,0.34748 -3.88889,0.35884c-2.03722,-0.01584 -3.05623,-0.11292 -3.05702,-0.29125l-0.1142,-25.90908c-0.00166,-0.37646 1.2322,-0.5701 3.7016,-0.58091c2.16166,0.06484 3.24288,0.18641 3.24366,0.36473zM211.1359,234.49949c-2.51906,0.01104 -4.6469,-0.83413 -6.3835,-2.5355c-1.73662,-1.70632 -2.61162,-4.07525 -2.62498,-7.10676c-0.01336,-3.03152 0.80812,-5.47475 2.46446,-7.32968c1.66127,-1.85991 3.76387,-2.79543 6.30777,-2.80658c2.54391,-0.01115 4.51185,0.62668 5.90377,1.91346c1.39193,1.28678 2.09197,2.85647 2.10014,4.70906c0.0181,4.10643 -2.33789,6.16999 -7.06797,6.19071l-2.63832,0.01156c0.00336,0.76283 0.21438,1.28945 0.63302,1.57989c0.42362,0.2904 1.04285,0.43383 1.85771,0.43026c1.78372,-0.00782 3.47372,-0.42141 5.07003,-1.24079c0.02474,-0.02487 0.13979,0.15047 0.34516,0.52605c0.61596,1.09203 0.92559,2.01205 0.92889,2.76002c0.0033,0.74797 -0.23553,1.23693 -0.71647,1.46692c0,0 -3.66064,1.42035 -6.17971,1.43138zM209.1738,222.21833l4.403,2.95015c0.83968,-0.00368 2.03541,-2.21426 2.03162,-3.07615c0,0 -3.63985,-1.59521 -4.68327,-1.59064c0,0 -1.75379,1.16185 -1.75135,1.71664z" fill="none" stroke-opacity="0.50588" stroke="#000000" stroke-width="7.5" stroke-linecap="square"/><path d="M123.88828,226.55071l0.05865,-5.17178c-0.00156,-0.35664 0.36176,-0.59356 1.08995,-0.71069c0.7331,-0.11718 1.33846,-0.17682 1.81603,-0.17893l1.47754,0.10492c0.95585,0.14934 1.4346,0.41471 1.43626,0.79613l-0.09572,11.90381c-0.50556,0.35889 -1.52076,0.7126 -3.04556,1.06115c-1.51988,0.34853 -3.26451,0.52713 -5.23392,0.53583c-3.65326,0.01615 -6.60765,-1.16211 -8.8632,-3.5348c-2.25062,-2.37271 -3.386,-5.86739 -3.40617,-10.48401c-0.01718,-3.93304 1.06434,-7.13286 3.24458,-9.59948c2.18023,-2.47155 5.21267,-3.71593 9.09735,-3.7331c1.76263,-0.0078 3.35613,0.15606 4.78053,0.49156c1.42931,0.33548 2.40865,0.7943 2.93802,1.37649c0.03043,0.20297 0.04687,0.58432 0.04932,1.14405c0.00242,0.55479 -0.18367,1.34818 -0.55829,2.38017c-0.37464,1.02704 -0.80209,1.79674 -1.28236,2.30907c-0.47537,0.50737 -0.82139,0.76153 -1.03801,0.76248c-0.2117,0.00093 -0.4386,-0.09219 -0.68067,-0.27934c-0.23717,-0.19215 -0.71072,-0.39315 -1.42064,-0.60301c-0.70501,-0.21485 -1.38494,-0.32082 -2.03976,-0.31792c-1.56077,0.0069 -2.8239,0.52023 -3.78939,1.53997c-0.96553,1.01479 -1.44362,2.58966 -1.4343,4.72461c0.0093,2.12998 0.51364,3.74508 1.51302,4.84532c0.99936,1.09527 2.14649,1.64004 3.44138,1.63432c1.29981,-0.00575 1.94828,-0.33802 1.9454,-0.99683zM135.9742,232.20866c-1.58317,-1.7416 -2.3815,-4.16036 -2.39503,-7.25628c-0.01352,-3.09592 0.76366,-5.52165 2.33155,-7.27719c1.56789,-1.75553 3.68859,-2.6392 6.36207,-2.65102c2.67348,-0.01182 4.79441,0.85311 6.36281,2.59477c1.56839,1.74166 2.35936,4.16047 2.37288,7.25637c0.01352,3.09592 -0.75627,5.52161 -2.30938,7.27707c-1.55313,1.75547 -3.66643,2.63913 -6.3399,2.65095c-2.67348,0.01182 -4.8018,-0.85307 -6.38496,-2.59468zM142.31529,221.37689c-1.42289,0.00629 -2.12925,1.17599 -2.11907,3.50905c0.01019,2.33307 0.72674,3.49648 2.14964,3.49018c1.42783,-0.00632 2.13664,-1.17601 2.12645,-3.50909c-0.01019,-2.33307 -0.72918,-3.49646 -2.15702,-3.49015zM155.37211,232.12291c-1.58317,-1.7416 -2.3815,-4.16036 -2.39503,-7.25628c-0.01352,-3.09592 0.76367,-5.52165 2.33155,-7.27719c1.56789,-1.75553 3.68859,-2.6392 6.36207,-2.65102c2.67348,-0.01182 4.79443,0.85311 6.36281,2.59478c1.56839,1.74166 2.35936,4.16046 2.37288,7.25637c0.01352,3.09592 -0.75627,5.52162 -2.3094,7.27709c-1.55313,1.75547 -3.66643,2.63913 -6.3399,2.65095c-2.67348,0.01182 -4.80179,-0.85308 -6.38496,-2.59468zM161.7132,221.29117c-1.4229,0.00629 -2.12926,1.17599 -2.11907,3.50905c0.01019,2.33307 0.72674,3.49648 2.14965,3.49018c1.42783,-0.00632 2.13664,-1.17601 2.12645,-3.50909c-0.01019,-2.33307 -0.72919,-3.49646 -2.15702,-3.49015zM180.08985,234.25761c-2.44206,0.0108 -4.33617,-0.77341 -5.68231,-2.35259c-1.34121,-1.57921 -2.01857,-3.92172 -2.03215,-7.02753c-0.01356,-3.10581 0.85221,-5.54432 2.59727,-7.3155c1.74508,-1.77118 4.07253,-2.6632 6.98234,-2.67607c2.91473,-0.01288 5.32024,0.62293 7.21652,1.90743l0.08276,18.94698c0.0082,1.87736 -0.74375,3.31968 -2.25583,4.327c-1.50715,1.00728 -3.44484,1.51615 -5.81305,1.52663c-2.36821,0.01047 -4.48668,-0.2848 -6.35536,-0.88583c-0.25868,-0.60814 -0.38907,-1.15246 -0.39118,-1.63296c-0.0071,-1.62474 0.25357,-2.81721 0.78201,-3.57745c1.69198,0.72564 3.49558,1.08423 5.41084,1.07576c1.38844,-0.00614 2.08051,-0.50207 2.0762,-1.48782l-0.005,-1.14425c-1.08228,0.20789 -1.95331,0.31327 -2.61306,0.3162zM181.77527,221.08358c-1.68877,0.00746 -2.52755,1.29414 -2.51633,3.86003c0.00697,1.59502 0.33891,2.63132 0.99584,3.10891c0.42979,0.32999 0.85886,0.49404 1.2872,0.49214c0.42834,-0.0019 0.8073,-0.04072 1.13685,-0.11647l-0.03157,-7.22958c-0.30561,-0.07792 -0.59627,-0.11625 -0.87198,-0.11503zM199.52603,233.86703c0.00099,0.22786 -1.28355,0.34747 -3.85363,0.35884c-2.01875,-0.01584 -3.02853,-0.11292 -3.0293,-0.29125l-0.11317,-25.90907c-0.00164,-0.37646 1.22103,-0.57011 3.66803,-0.58092c2.14206,0.06484 3.21348,0.18641 3.21426,0.36474zM217.22277,233.06804c-1.58622,0.94324 -3.62743,1.42036 -6.12366,1.4314c-2.49622,0.01104 -4.60477,-0.83413 -6.32563,-2.5355c-1.72087,-1.70632 -2.58794,-4.07525 -2.60118,-7.10676c-0.01324,-3.03152 0.8008,-5.47474 2.44212,-7.32968c1.64621,-1.85991 3.72974,-2.79543 6.25058,-2.80658c2.52085,-0.01115 4.47094,0.62668 5.85025,1.91346c1.37931,1.28678 2.07301,2.85647 2.0811,4.70907c0.01793,4.10643 -2.31669,6.16999 -7.00389,6.19071l-2.6144,0.01156c0.00333,0.76283 0.21243,1.28945 0.62729,1.57989c0.41978,0.2904 1.03339,0.43381 1.84085,0.43025c1.76755,-0.00782 3.44223,-0.42142 5.02406,-1.24079c0.02451,-0.02487 0.13852,0.15047 0.34204,0.52605c0.61038,1.09203 0.91719,2.01205 0.92046,2.76002c0.00327,0.74797 -0.2334,1.23693 -0.70998,1.46692zM212.44814,222.09226c-0.00465,-1.065 -0.52394,-1.5952 -1.5579,-1.59063c-0.47758,0.00211 -0.88805,0.15006 -1.23143,0.44385c-0.33845,0.29375 -0.50645,0.71802 -0.50403,1.27282l0.00515,1.18141l2.04573,-0.00904c0.83206,-0.00368 1.24623,-0.43648 1.24247,-1.29837z" fill="#ffffff" stroke="none" stroke-width="1" stroke-linecap="square"/><path d="M238.98698,226.57071c1.2396,0.68226 2.42071,1.02076 3.54329,1.01551c1.12776,-0.00527 1.6896,-0.44505 1.68551,-1.31931c-0.00186,-0.39834 -0.16388,-0.74937 -0.48604,-1.05307c-0.31699,-0.30375 -0.90059,-0.65021 -1.75085,-1.03941c-0.85028,-0.39437 -1.48801,-0.70179 -1.91327,-0.92225c-0.42528,-0.22565 -0.99089,-0.59548 -1.69687,-1.10952c-0.7008,-0.51405 -1.23873,-1.04957 -1.61382,-1.60653c-1.06237,-1.50047 -1.59901,-3.41727 -1.60991,-5.75038c-0.01091,-2.33311 0.84642,-4.30298 2.57197,-5.90958c1.72552,-1.61179 3.99281,-2.42426 6.80185,-2.4374c1.9089,-0.00892 3.67136,0.18978 5.28733,0.59609c1.61594,0.40112 2.45135,0.93267 2.50616,1.59459c0.00036,0.0776 0.00073,0.15519 0.00109,0.23278c0.00435,0.93117 -0.28246,2.10686 -0.86039,3.52705c-0.57279,1.41501 -0.97781,2.20322 -1.21501,2.36471c-1.7009,-0.86635 -3.22127,-1.29638 -4.56114,-1.29012c-1.33469,0.00624 -1.9998,0.48528 -1.99535,1.43715c0.00274,0.58457 0.49659,1.0996 1.48162,1.54506c0.21262,0.10765 0.51594,0.25367 0.90997,0.43806c0.39918,0.17921 0.85803,0.39433 1.37654,0.64541c0.5185,0.25107 1.07612,0.56662 1.67282,0.94667c0.5967,0.38003 1.24314,0.88659 1.93933,1.51966c1.40812,1.31778 2.11728,3.06304 2.12743,5.23579c0.01325,2.83492 -0.75707,5.15616 -2.31097,6.96374c-1.5539,1.80758 -3.96027,2.74485 -7.21915,2.81181c-1.58817,0.00743 -3.02695,-0.11777 -4.31631,-0.37558c-1.28419,-0.25783 -2.40658,-0.76733 -3.36721,-1.52849c-0.95548,-0.76635 -1.43576,-1.6927 -1.44083,-2.77908c-0.00507,-1.08637 0.18905,-2.16592 0.5824,-3.23863c0.39331,-1.0779 2.63534,-1.19704 3.86977,-0.51476zM264.86537,241.7446c0.00087,0.18624 -1.13162,0.28465 -3.39748,0.29524c-2.2607,0.01056 -3.39147,-0.07726 -3.39234,-0.2635l-0.09566,-20.4626l-1.35021,0.00631c-0.6363,0.00298 -1.07617,-0.57695 -1.31957,-1.73981c-0.08451,-0.37209 -0.12812,-0.84783 -0.13082,-1.42722c-0.00273,-0.58458 0.18027,-1.27607 0.54902,-2.07446c0.52222,-1.16644 1.36791,-1.7524 2.53706,-1.75786c0.76563,-0.00358 1.4726,0.17159 2.12092,0.52553c0.65349,0.35391 1.10511,0.68289 1.35486,0.98695c0.25491,0.30405 0.3825,0.48191 0.38274,0.53365c1.76798,-1.38437 3.68401,-2.08136 5.74812,-2.09101c2.06928,-0.00968 3.84744,0.78387 5.33447,2.38065c1.49219,1.59158 2.24611,4.06349 2.26178,7.41573c0.01568,3.35223 -0.71454,5.95264 -2.19062,7.80126c-1.47095,1.84341 -3.34454,2.77042 -5.62075,2.78107c-1.03464,0.00483 -1.9764,-0.04249 -2.82529,-0.142zM266.39846,221.1012c-0.45006,0.0021 -0.88652,0.14899 -1.30937,0.44067l0.03286,7.03039c0.45033,0.0548 0.81518,0.08154 1.09454,0.08024c0.27936,-0.00131 0.49663,-0.00232 0.65182,-0.00304c1.08587,-0.11372 6.32593,-1.52984 6.31343,-4.20439c-0.01052,-2.25034 -5.4072,-3.3503 -6.78328,-3.34387zM287.04457,234.36985c0.00087,0.18624 -1.20405,0.28498 -3.61476,0.29625c-2.41096,-0.04563 -3.61683,-0.14605 -3.61755,-0.30124l-1.13252,-13.18665c-0.42419,0.00199 -0.76424,-0.25509 -1.02014,-0.77122c-0.2559,-0.51613 -0.38566,-1.15703 -0.38924,-1.92266c-0.01338,-2.86079 0.82835,-4.29513 2.52516,-4.30306c1.18984,-0.00556 2.1848,0.35451 2.98489,1.08022c0.80006,0.72053 2.49854,0.51859 3.43705,-0.13246c0.93848,-0.65623 1.8966,-0.98661 2.87432,-0.99119c1.53645,-0.00719 2.46688,0.38422 2.79132,1.17422c0.0786,0.21174 0.11885,0.52454 0.12079,0.9384c0.00192,0.40867 -0.1214,1.14386 -0.36993,2.20556c-0.24335,1.06166 -0.49842,1.8311 -0.7652,2.3083c-0.26161,0.47717 -0.41827,0.71587 -0.47001,0.71611c-0.05174,0.00024 -0.29792,-0.0969 -0.73855,-0.29144c-0.43548,-0.19973 -0.82654,-0.29876 -1.17315,-0.29714c-1.00361,0.00468 -1.5017,0.80112 -1.49427,2.3893zM296.00845,232.08532c-1.80864,-1.78151 -2.72038,-4.25526 -2.73517,-7.42126c-0.0148,-3.16599 0.8398,-5.71787 2.5638,-7.65556c1.72915,-1.9429 3.91805,-2.92054 6.56674,-2.93292c2.64868,-0.01238 4.69785,0.65316 6.14748,1.99663c1.44963,1.34347 2.17897,2.98258 2.18802,4.91734c0.02005,4.2886 -2.43237,6.44438 -7.35726,6.46741l-2.74697,0.01284c0.00373,0.79667 0.22359,1.3466 0.65954,1.64979c0.44115,0.30316 1.08593,0.45277 1.93433,0.44881c1.85718,-0.00868 3.61669,-0.44113 5.27848,-1.29732c0.02575,-0.026 0.14558,0.15712 0.35952,0.54929c0.64165,1.1403 0.9643,2.10102 0.96795,2.88219c0.00365,0.78115 -0.24488,1.29188 -0.74554,1.53221c0,0 -3.86578,1.72234 -6.4338,1.49668c-2.56802,-0.22566 -4.83853,-0.86979 -6.64714,-2.64613zM304.0694,221.77345c-0.0052,-1.11224 -0.55098,-1.66581 -1.63737,-1.66073c-0.50179,0.00234 -0.93305,0.15698 -1.29374,0.4639c-0.35552,0.30688 -0.53193,0.75002 -0.52922,1.32943l0.00576,1.23382l2.14947,-0.01005c0.87429,-0.00409 1.3093,-0.4562 1.3051,-1.35634zM315.8192,219.84833c-0.74596,-1.32089 -1.12088,-2.39776 -1.12478,-3.23064c-0.00389,-0.83289 0.21865,-1.36938 0.6676,-1.60943c1.50231,-0.66921 3.57003,-1.00997 6.20318,-1.02229c2.63833,-0.01234 4.50357,0.59456 5.5957,1.82072c1.09213,1.22613 1.64383,3.04457 1.6551,5.45528l0.02934,6.27767l1.3502,-0.00631c0.45007,-0.0021 0.8031,0.26268 1.05907,0.79433c0.25595,0.52648 0.3861,1.2527 0.39043,2.17873c0.00433,0.926 -0.22421,1.84017 -0.68558,2.74249c-0.46138,0.90232 -1.08782,1.35531 -1.87933,1.35901c-1.43298,0.00671 -2.58839,-0.37072 -3.46624,-1.13226c-0.39466,-0.3189 -0.6991,-0.7029 -0.91331,-1.15197c-1.21369,1.54216 -3.10609,2.31924 -5.67715,2.33125c-1.9296,0.00901 -3.5598,-0.67139 -4.89057,-2.04128c-1.33077,-1.36989 -2.00056,-2.99636 -2.00937,-4.8794c-0.02017,-4.31445 2.55117,-6.48374 7.71403,-6.50787l2.18827,-0.01023l-0.0019,-0.40351c-0.00322,-0.68803 -0.11909,-1.1298 -0.34762,-1.32533c-0.22336,-0.19555 -0.74632,-0.2914 -1.56886,-0.28754c-1.00879,0.00471 -2.43819,0.22092 -4.28823,0.6486zM319.03494,227.15099c0.00271,0.5794 0.16255,1.02098 0.47955,1.32473c0.31699,0.30375 0.72123,0.45447 1.21268,0.45217c0.49144,-0.0023 0.93542,-0.20355 1.33188,-0.60374l-0.0143,-3.05736l-1.11742,0.00523c-1.26742,0.00592 -1.89823,0.63227 -1.8924,1.87901zM343.84854,206.57191c-0.00186,-0.39834 1.04219,-0.60238 3.13216,-0.61215c0.71391,-0.00333 1.54184,0.03935 2.4838,0.12807c0.94196,0.08873 1.41332,0.21068 1.41404,0.36586l0.09791,20.9437l1.38901,-0.0065c0.66216,-0.00309 1.10209,0.58977 1.31975,1.77861c0.05336,0.34637 0.08142,0.817 0.0842,1.41193c0.00278,0.59492 -0.17749,1.31743 -0.54083,2.16756c-0.52741,1.16646 -1.37307,1.75242 -2.53703,1.75787c-0.87428,0.00409 -1.65104,-0.163 -2.33034,-0.50128c-0.67413,-0.34346 -1.13107,-0.70088 -1.37077,-1.07222l-0.35934,-0.51047c-1.45228,1.40875 -3.27773,2.11826 -5.47634,2.12854c-2.1986,0.01028 -4.08334,-0.89399 -5.65418,-2.71283c-1.57084,-1.81884 -2.36391,-4.36299 -2.37919,-7.63245c-0.01531,-3.27463 0.79282,-5.80817 2.42439,-7.60059c1.63672,-1.79761 3.68628,-2.70218 6.14871,-2.7137c0.71391,-0.00333 1.4437,0.07344 2.18938,0.23033zM340.3927,224.26531c0.00632,1.35021 0.22298,2.32438 0.64999,2.92247c0.42699,0.59293 0.89913,0.8882 1.41645,0.88578c0.51731,-0.00241 1.01289,-0.22979 1.48673,-0.68208l-0.03159,-6.75879c-0.4513,-0.26174 -3.57469,-3.20196 -5.01506,-1.71618c-1.44037,1.48578 1.48099,2.67421 1.49349,5.34877zM362.2646,228.85005c0.79667,-0.00373 1.19372,-0.28236 1.19113,-0.83588c-0.00186,-0.39834 -0.69233,-0.91244 -2.07137,-1.5423c-3.31714,-1.33474 -4.9829,-3.53854 -4.99727,-6.61141c-0.00916,-1.96064 0.69774,-3.45903 2.12074,-4.49518c1.42812,-1.04135 3.14061,-1.56666 5.13747,-1.576c2.00204,-0.00936 3.69725,0.19481 5.08564,0.61253c1.39358,0.41769 2.09197,0.97056 2.09519,1.65861c0.00271,0.57939 -0.27822,1.34895 -0.8428,2.30866c-0.56459,0.95452 -0.95277,1.47108 -1.16451,1.54968c-1.14104,-0.6258 -2.37376,-0.93563 -3.69809,-0.92943c-0.71391,0.00333 -1.06968,0.2559 -1.06733,0.75771c0.00147,0.31557 0.13985,0.58651 0.41509,0.81285c0.28039,0.22114 0.79124,0.49554 1.53256,0.82317c0.7465,0.32761 1.3635,0.62477 1.85103,0.8915c0.4927,0.26153 1.04537,0.62884 1.65803,1.10193c1.2773,0.99766 1.91975,2.30608 1.92732,3.9253c0.00989,2.11583 -0.68565,3.83405 -2.08662,5.15461c-1.39581,1.31536 -3.51118,1.97969 -6.34609,1.99293c-1.87787,0.00878 -3.58651,-0.30139 -5.1259,-0.93052c-1.5394,-0.62912 -2.31171,-1.49979 -2.31692,-2.61202c-0.00346,-0.73977 0.17137,-1.51917 0.52451,-2.33821c0.35312,-0.82421 0.71526,-1.37169 1.08648,-1.64242c0,0 3.85014,1.92971 5.09171,1.9239z" fill="none" stroke-opacity="0.50588" stroke="#000000" stroke-width="7.5" stroke-linecap="square"/><path d="M236.37982,224.95331c0.50366,0.396 1.37271,0.93513 2.60715,1.61741c1.2396,0.68226 2.42071,1.02076 3.54329,1.01552c1.12776,-0.00527 1.68961,-0.44504 1.68552,-1.31931c-0.00186,-0.39834 -0.16387,-0.74937 -0.48603,-1.05309c-0.31699,-0.30375 -0.9006,-0.65021 -1.75085,-1.03941c-0.85028,-0.39437 -1.48801,-0.70179 -1.91327,-0.92225c-0.42528,-0.22565 -0.99089,-0.59546 -1.69687,-1.10949c-0.7008,-0.51405 -1.23873,-1.04957 -1.61382,-1.60653c-1.06237,-1.50045 -1.599,-3.41726 -1.60991,-5.75038c-0.01091,-2.33311 0.84643,-4.30299 2.57196,-5.90961c1.72552,-1.61179 3.99281,-2.42425 6.80185,-2.43738c1.9089,-0.00892 3.67136,0.18976 5.28733,0.59607c1.61595,0.40114 2.45133,0.93267 2.50616,1.59461c0.00036,0.07759 0.00072,0.15518 0.00108,0.23278c0.00435,0.93117 -0.28243,2.10686 -0.86037,3.52706c-0.57279,1.41499 -0.9778,2.20324 -1.21502,2.36472c-1.7009,-0.86634 -3.22127,-1.29638 -4.56114,-1.29012c-1.33469,0.00624 -1.99981,0.48529 -1.99535,1.43715c0.00274,0.58457 0.4966,1.09959 1.48162,1.54507c0.21262,0.10765 0.51594,0.25368 0.90996,0.43808c0.39919,0.17919 0.85803,0.39433 1.37653,0.64541c0.5185,0.25107 1.07612,0.56661 1.67282,0.94664c0.5967,0.38003 1.24314,0.88659 1.93934,1.51964c1.40812,1.31778 2.11727,3.06305 2.12743,5.2358c0.01325,2.83491 -0.75707,5.15617 -2.31097,6.96374c-1.5539,1.80758 -3.96027,2.74485 -7.21913,2.81181c-1.58817,0.00743 -3.02694,-0.11776 -4.3163,-0.37557c-1.28419,-0.25783 -2.4066,-0.76733 -3.3672,-1.52849c-0.95548,-0.76635 -1.43576,-1.69271 -1.44083,-2.77908c-0.00507,-1.08637 0.18905,-2.16591 0.58238,-3.23863c0.39331,-1.0779 0.8142,-1.78861 1.26266,-2.13214zM264.86536,241.7446c0.00087,0.18624 -1.13162,0.28465 -3.39748,0.29524c-2.2607,0.01056 -3.39146,-0.07726 -3.39233,-0.2635l-0.09566,-20.4626l-1.35021,0.00631c-0.6363,0.00298 -1.07617,-0.57695 -1.31957,-1.73981c-0.08451,-0.37209 -0.12812,-0.84783 -0.13082,-1.42722c-0.00273,-0.58458 0.18027,-1.27606 0.549,-2.07446c0.52222,-1.16645 1.36791,-1.75238 2.53706,-1.75785c0.76563,-0.00358 1.4726,0.1716 2.12093,0.52553c0.65349,0.35391 1.10512,0.68288 1.35486,0.98695c0.25491,0.30405 0.3825,0.48192 0.38274,0.53364c1.76798,-1.38437 3.68401,-2.08137 5.74812,-2.09101c2.06928,-0.00968 3.84744,0.78389 5.33447,2.38067c1.49219,1.59158 2.24611,4.06349 2.26178,7.41572c0.01568,3.35223 -0.71454,5.95265 -2.19062,7.80125c-1.47095,1.84341 -3.34453,2.77042 -5.62074,2.78107c-1.03464,0.00483 -1.9764,-0.04249 -2.8253,-0.142zM266.39908,221.23564c-0.45006,0.0021 -0.88652,0.149 -1.30939,0.44068l0.03287,7.03037c0.45033,0.05479 0.81518,0.08155 1.09454,0.08024c0.27936,-0.00131 0.49663,-0.00233 0.65182,-0.00305c1.08587,-0.11372 1.62256,-1.50785 1.61005,-4.18239c-0.01052,-2.25034 -0.70381,-3.37229 -2.07988,-3.36587zM287.04456,234.36984c0.00087,0.18624 -1.20405,0.28499 -3.61476,0.29626c-2.41096,-0.04563 -3.61684,-0.14605 -3.61755,-0.30124l-0.06166,-13.19166l-1.07086,0.005c-0.42419,0.00199 -0.76426,-0.25509 -1.02015,-0.77122c-0.2559,-0.51613 -0.38565,-1.15703 -0.38921,-1.92265c-0.01338,-2.86079 0.82835,-4.29514 2.52516,-4.30306c1.18984,-0.00556 2.1848,0.35451 2.98489,1.0802c0.80006,0.72052 1.20226,1.54638 1.20662,2.47754c0.54846,-1.08897 1.29193,-1.95896 2.23043,-2.61002c0.93848,-0.65623 1.89658,-0.98661 2.87432,-0.99119c1.53645,-0.00719 2.46688,0.38421 2.79133,1.17423c0.0786,0.21173 0.11885,0.52452 0.12078,0.93838c0.00192,0.40868 -0.12141,1.14388 -0.36994,2.20558c-0.24335,1.06166 -0.49842,1.83109 -0.7652,2.30828c-0.26161,0.47717 -0.41827,0.71585 -0.47001,0.71611c-0.05174,0.00024 -0.29792,-0.09689 -0.73855,-0.29143c-0.43548,-0.19973 -0.82654,-0.29876 -1.17315,-0.29714c-1.00361,0.00468 -1.50169,0.80112 -1.49426,2.38929zM309.08935,233.23475c-1.66638,0.98555 -3.81096,1.48444 -6.43378,1.4967c-2.62281,0.01225 -4.83853,-0.86978 -6.64716,-2.64611c-1.80864,-1.78151 -2.72035,-4.25527 -2.73514,-7.42126c-0.0148,-3.16599 0.8398,-5.71786 2.56379,-7.65556c1.72915,-1.9429 3.91806,-2.92054 6.56675,-2.93292c2.64868,-0.01238 4.69785,0.65316 6.14748,1.99663c1.44963,1.34347 2.17898,2.98258 2.18802,4.91734c0.02005,4.2886 -2.43236,6.44439 -7.35725,6.46742l-2.74698,0.01283c0.00373,0.79667 0.22359,1.34659 0.65956,1.64979c0.44115,0.30316 1.08591,0.45276 1.93433,0.4488c1.85718,-0.00868 3.61667,-0.44112 5.27848,-1.29732c0.02574,-0.02598 0.14558,0.15711 0.35953,0.54928c0.64165,1.1403 0.96431,2.10103 0.96796,2.88218c0.00365,0.78115 -0.24487,1.29189 -0.74556,1.5322zM304.06939,221.77347c-0.0052,-1.11224 -0.55097,-1.66583 -1.63737,-1.66074c-0.50179,0.00234 -0.93306,0.15697 -1.29375,0.46389c-0.35552,0.30688 -0.53192,0.75002 -0.52921,1.32943l0.00577,1.2338l2.14946,-0.01005c0.87429,-0.00409 1.3093,-0.4562 1.30509,-1.35634zM315.8192,219.84833c-0.74596,-1.32089 -1.12088,-2.39776 -1.12478,-3.23064c-0.00389,-0.83289 0.21864,-1.36936 0.66761,-1.60943c1.5023,-0.66923 3.57003,-1.00997 6.20318,-1.02229c2.63833,-0.01234 4.50357,0.59457 5.59569,1.82072c1.09213,1.22613 1.64382,3.04457 1.6551,5.45528l0.02935,6.27769l1.35021,-0.00631c0.45007,-0.0021 0.80309,0.26269 1.05906,0.79434c0.25595,0.52648 0.38609,1.2527 0.39042,2.17872c0.00433,0.926 -0.22419,1.84016 -0.68558,2.74249c-0.46138,0.90232 -1.08781,1.35531 -1.87931,1.35901c-1.43298,0.00671 -2.5884,-0.37072 -3.46624,-1.13227c-0.39466,-0.3189 -0.69909,-0.7029 -0.9133,-1.15196c-1.21369,1.54213 -3.10608,2.31924 -5.67717,2.33127c-1.9296,0.00901 -3.5598,-0.67141 -4.89057,-2.04129c-1.33077,-1.36988 -2.00054,-2.99634 -2.00935,-4.87938c-0.02017,-4.31445 2.55117,-6.48374 7.71403,-6.50787l2.18825,-0.01022l-0.0019,-0.40351c-0.00322,-0.68803 -0.1191,-1.1298 -0.34764,-1.32533c-0.22336,-0.19555 -0.74631,-0.2914 -1.56885,-0.28754c-1.00879,0.00471 -2.43818,0.22092 -4.28823,0.6486zM319.03494,227.151c0.00271,0.5794 0.16255,1.02096 0.47955,1.32472c0.31699,0.30375 0.72122,0.45447 1.21268,0.45217c0.49144,-0.0023 0.93542,-0.20355 1.33188,-0.60374l-0.0143,-3.05736l-1.11742,0.00523c-1.26742,0.00592 -1.89823,0.63227 -1.8924,1.87901zM343.84854,206.57196c-0.00186,-0.39834 1.0422,-0.6024 3.13217,-0.61216c0.71391,-0.00333 1.54183,0.03937 2.48379,0.12807c0.94196,0.08871 1.41331,0.21067 1.41403,0.36586l0.0979,20.94372l1.38901,-0.0065c0.66216,-0.00309 1.10209,0.58977 1.31975,1.77861c0.05336,0.34637 0.08143,0.817 0.08421,1.41192c0.00278,0.59493 -0.17749,1.31744 -0.54083,2.16756c-0.52741,1.16646 -1.37307,1.7524 -2.53705,1.75784c-0.87428,0.00409 -1.65105,-0.163 -2.33034,-0.50126c-0.67413,-0.34346 -1.13106,-0.70086 -1.37077,-1.07222l-0.35933,-0.51048c-1.45228,1.40875 -3.27775,2.11826 -5.47635,2.12854c-2.1986,0.01028 -4.08333,-0.894 -5.65417,-2.71282c-1.57084,-1.81884 -2.36392,-4.36298 -2.3792,-7.63244c-0.01531,-3.27463 0.79281,-5.80817 2.42438,-7.60059c1.63672,-1.79761 3.68628,-2.70219 6.14873,-2.7137c0.71391,-0.00333 1.44369,0.07344 2.18939,0.23033zM342.601,220.2431c-1.4847,0.00694 -2.22081,1.34767 -2.20831,4.02222c0.00632,1.35021 0.22297,2.32438 0.64997,2.92248c0.42698,0.59294 0.89913,0.88818 1.41646,0.88577c0.51731,-0.00241 1.01289,-0.22977 1.48673,-0.68207l-0.03159,-6.75878c-0.4513,-0.26174 -0.88906,-0.39161 -1.31325,-0.38963zM357.17288,226.9261c2.15292,1.28843 3.85019,1.92975 5.09174,1.92395c0.79667,-0.00373 1.1937,-0.28236 1.19112,-0.83588c-0.00186,-0.39834 -0.69231,-0.91244 -2.07135,-1.54231c-3.31714,-1.33474 -4.9829,-3.53852 -4.99727,-6.6114c-0.00916,-1.96065 0.69774,-3.45904 2.12074,-4.49518c1.42812,-1.04135 3.14061,-1.56667 5.13747,-1.57601c2.00204,-0.00936 3.69725,0.19481 5.08564,0.61254c1.39358,0.4177 2.09197,0.97056 2.09519,1.65859c0.00271,0.57939 -0.27822,1.34894 -0.8428,2.30865c-0.56459,0.95452 -0.95277,1.47109 -1.16451,1.54968c-1.14105,-0.62582 -2.37376,-0.93561 -3.6981,-0.92943c-0.71391,0.00333 -1.06966,0.2559 -1.06733,0.75771c0.00147,0.31557 0.13983,0.58651 0.41507,0.81287c0.28039,0.22114 0.79124,0.49554 1.53257,0.82316c0.7465,0.32761 1.36351,0.62477 1.85104,0.8915c0.4927,0.26153 1.04536,0.62885 1.65804,1.10192c1.2773,0.99766 1.91972,2.30608 1.92729,3.92529c0.00989,2.11583 -0.68564,3.83404 -2.08662,5.15462c-1.39581,1.31536 -3.51118,1.97969 -6.3461,1.99293c-1.87787,0.00878 -3.58651,-0.30139 -5.1259,-0.93052c-1.5394,-0.62912 -2.31171,-1.49981 -2.31692,-2.61205c-0.00346,-0.73976 0.17138,-1.51917 0.52451,-2.3382c0.35312,-0.82421 0.71528,-1.37167 1.08649,-1.64242z" fill="#ffffff" stroke="none" stroke-width="1" stroke-linecap="square"/></g></g></svg>
