<svg version="1.1" xmlns="http://www.w3.org/2000/svg" xmlns:xlink="http://www.w3.org/1999/xlink" width="309.2973" height="159.64866" viewBox="0,0,309.2973,159.64866"><defs><linearGradient x1="240" y1="105.17581" x2="240" y2="254.82447" gradientUnits="userSpaceOnUse" id="color-1"><stop offset="0" stop-color="#0c411c"/><stop offset="1" stop-color="#125f29"/></linearGradient></defs><g transform="translate(-85.35135,-100.1758)"><g fill-rule="nonzero" stroke-linejoin="miter" stroke-miterlimit="10" stroke-dasharray="" stroke-dashoffset="0" style="mix-blend-mode: normal"><path d="M90,237.2001c0,-32.58534 0,-100.04193 0,-117c0,-7.58598 7.79361,-15.2 16.8,-15.2c30.85232,0 207.36554,0 265,0c11.44315,0 18.2,6.9374 18.2,17.7c0,32.21672 0,98.70878 0,116c0,8.05438 -5.97287,16.3 -16.2,16.3c-55.67995,0 -237.45971,0 -268,0c-8.5236,0 -15.8,-6.97625 -15.8,-17.8z" fill="#34a853" stroke="none" stroke-width="0" stroke-linecap="butt"/><path d="M373.71311,122.93915v114.12405c0,2.39659 -1.63537,4.40045 -3.8457,5.00487v0.07826h-0.25615c-0.35665,0.07883 -0.72542,0.12475 -1.10603,0.12475h-258.00958c-0.38148,0 -0.75026,-0.0462 -1.10863,-0.12475h-1.86812v-0.821c-1.34601,-0.94402 -2.23199,-2.49911 -2.23199,-4.26242v-114.1252c0,-2.8702 2.33509,-5.20874 5.20875,-5.20874h258.0064c2.87424,0 5.21135,2.33855 5.21106,5.21019zM368.50176,122.19381h-54.11414v15.75591h54.86036v-15.01056c0,-0.41036 -0.33297,-0.74506 -0.74622,-0.74535zM369.24768,237.06292v-13.5219h-54.86007v14.14018h54.50169c0.20995,-0.12995 0.35867,-0.35376 0.35838,-0.61828zM110.10897,237.6812h67.26775v-14.14018h-67.62612v13.5219c0,0.26452 0.14843,0.48833 0.35837,0.61828zM181.84099,184.46603v15.48156h63.12032v-15.48156zM244.96102,180.0006v-16.74643h-63.12004v16.74643zM181.84099,204.41303v14.66229h63.12032v-14.66229zM181.84099,223.54105v14.14018h63.12032v-14.14018zM249.42732,237.6812h60.49487v-14.14018h-60.49487zM309.92219,219.07562v-14.66403h-60.49487v14.66403zM309.92219,199.94759v-15.48156h-60.49487v15.48156zM309.92219,180.0006v-16.74643h-60.49487v16.74643zM309.92219,158.78874v-16.37447h-60.49487v16.37447zM309.92219,137.94825v-15.75591h-60.49487v15.75591zM244.96102,137.94825v-15.75591h-63.12004v15.75591h63.12032zM181.84099,142.41428v16.37447h63.12032v-16.37447zM177.37672,142.41428h-67.62612v16.37447h67.62612zM109.75059,163.25418v16.74643h67.62612v-16.74643zM109.75059,184.46603v15.48156h67.62612v-15.48156zM109.75059,204.41303v14.66229h67.62612v-14.66229zM369.24768,219.07562v-14.66403h-54.86007v14.66403zM369.24768,199.94759v-15.48156h-54.86007v15.48156zM369.24768,180.0006v-16.74643h-54.86007v16.74643zM369.24768,158.78874v-16.37447h-54.86007v16.37447z" fill="#1b8d3d" stroke="#1b8d3d" stroke-width="1.5" stroke-linecap="butt"/><path d="M245.00654,137.95959h-63.2108v-15.77849h63.21052v15.77849z" fill="#40ce66" stroke="none" stroke-width="0.5" stroke-linecap="butt"/><path d="M249.38191,223.53041h60.58569v14.1614h-60.58569z" fill="#40ce66" stroke="none" stroke-width="0.5" stroke-linecap="butt"/><path d="M314.34302,180.01421v-16.77366h54.94926v16.77366z" fill="#40ce66" stroke="none" stroke-width="0.5" stroke-linecap="butt"/><path d="M249.3823,158.80093v-16.39884h60.5849v16.39884z" fill="#40ce66" stroke="none" stroke-width="0.5" stroke-linecap="butt"/><path d="M369.2931,122.92742l-0.00031,15.03516h-54.94999v-15.78165l54.20368,-0.00033c0.41325,0.00029 0.74662,0.33646 0.74662,0.74681z" fill="#40ce66" stroke="none" stroke-width="0.5" stroke-linecap="butt"/><path d="M245.00681,223.53086v14.16056h-63.21133v-14.16056z" fill="#40ce66" stroke="none" stroke-width="0.5" stroke-linecap="butt"/><path d="M245.00673,204.40246v14.6834h-63.21117v-14.6834z" fill="#40ce66" stroke="none" stroke-width="0.5" stroke-linecap="butt"/><path d="M109.70479,237.07166l0.00016,-13.54018h67.71741v14.15927l-67.35902,0.0001c-0.20994,-0.12995 -0.35855,-0.35466 -0.35855,-0.61918z" fill="#40ce66" stroke="none" stroke-width="0.5" stroke-linecap="butt"/><path d="M177.42229,204.40317v14.68206h-67.71727v-14.68206z" fill="#40ce66" stroke="none" stroke-width="0.5" stroke-linecap="butt"/><path d="M177.42217,184.45565v15.50238h-67.71703v-15.50238z" fill="#40ce66" stroke="none" stroke-width="0.5" stroke-linecap="butt"/><path d="M90.35135,117.67147c0,-6.39897 5.91545,-12.49566 13.1192,-12.49566c28.93252,0 219.72832,0 272.60996,0c8.61359,0 13.56814,4.64378 13.56814,12.24625c0,30.59212 0,109.0924 0,125.70487c0,6.03964 -4.85913,11.69754 -13.31873,11.69754c-52.46667,0 -243.42599,0 -272.60996,0c-7.3279,0 -13.36861,-4.5235 -13.36861,-11.94695c0,-30.16113 0,-108.19342 0,-125.20604z" fill="none" stroke="url(#color-1)" stroke-width="10" stroke-linecap="butt"/><path d="M212.98779,180.96178c1.36637,-13.53049 5.1087,-50.58876 5.71436,-56.58631c0.26965,-2.67026 3.83341,-4.83161 6.534,-4.5589c5.57749,0.56325 25.64489,2.58976 25.64489,2.58976l15.15407,18.44915c0,0 -3.71742,36.81167 -4.49374,44.4991c-0.27153,2.68881 -3.01975,5.19447 -6.78942,4.81379c-10.36919,-1.04713 -30.57209,-3.08733 -36.25062,-3.66077c-2.91259,-0.29413 -5.82442,-2.46762 -5.51357,-5.54583z" fill="none" stroke-opacity="0.50588" stroke="#000000" stroke-width="8.5" stroke-linecap="butt"/><g stroke-width="0" stroke-linecap="butt"><path d="M212.98779,180.96178c1.36637,-13.53049 5.1087,-50.58876 5.71436,-56.58631c0.26965,-2.67026 3.83341,-4.83161 6.534,-4.5589c5.57749,0.56325 25.64489,2.58976 25.64489,2.58976l15.15407,18.44915c0,0 -3.71742,36.81167 -4.49374,44.4991c-0.27153,2.68881 -3.01975,5.19447 -6.78942,4.81379c-10.36919,-1.04713 -30.57209,-3.08733 -36.25062,-3.66077c-2.91259,-0.29413 -5.82442,-2.46762 -5.51357,-5.54583z" fill="#34a853" stroke="#000000"/><path d="M249.29359,139.04404l1.68333,-16.66918l14.98586,18.35251z" fill="#188038" stroke="none"/><path d="M223.37093,168.48509l2.27044,-22.48296l30.31411,3.06127l-2.27044,22.48297z" fill="#ffffff" stroke="none"/><path d="M227.89334,155.41645l0.61225,-6.06282l10.35732,1.04594l-0.61225,6.06282z" fill="#34a853" stroke="none"/><path d="M241.53469,156.794l0.61225,-6.06282l10.35732,1.04594l-0.61224,6.06282z" fill="#34a853" stroke="none"/><path d="M226.96221,164.63704l0.61224,-6.06282l10.35733,1.04594l-0.61225,6.06282z" fill="#34a853" stroke="none"/><path d="M240.60355,166.01457l0.61225,-6.06282l10.35732,1.04594l-0.61225,6.06281z" fill="#34a853" stroke="none"/></g><path d="M130.84812,225.11124l-0.9084,-6.5964c0,-0.39974 1.41087,0.13652 2.23256,0.00883c0.82726,-0.12769 1.51017,-0.19154 2.04873,-0.19154l1.66563,0.12492c1.0771,0.17211 1.61566,0.47194 1.61566,0.89944l-0.16657,13.34169c-0.57187,0.39974 -1.71837,0.79117 -3.43953,1.17427c-1.7156,0.38309 -3.68382,0.57464 -5.90466,0.57464c-4.11965,0 -7.44536,-1.33528 -9.97711,-4.00584c-2.52621,-2.67056 -3.78931,-6.59312 -3.78931,-11.76767c0,-4.40837 1.23535,-7.98947 3.70603,-10.7433c2.47069,-2.7594 5.89633,-4.13909 10.27693,-4.13909c1.98765,0 3.78376,0.19154 5.38832,0.57464c1.6101,0.38309 2.7122,0.90222 3.30627,1.55737c0.03331,0.22764 0.04997,0.65514 0.04997,1.28252c0,0.62184 -0.21376,1.51018 -0.64127,2.66501c-0.42751,1.14929 -0.91332,2.00986 -1.45742,2.58173c-0.53856,0.56631 -0.92998,0.84948 -1.17427,0.84948c-0.23873,0 -0.49415,-0.10549 -0.76619,-0.31647c-0.26651,-0.21652 -0.7995,-0.44418 -1.599,-0.68291c-0.79396,-0.2443 -1.56014,-0.36643 -2.29856,-0.36643c-1.76002,0 -3.1869,0.56909 -4.28067,1.70727c-1.09377,1.13262 -1.64065,2.89542 -1.64065,5.28838c0,2.3874 0.56076,4.20016 1.68228,5.43828c1.12153,1.23256 2.41239,1.84885 3.87259,1.84885c1.46576,0 2.19863,-0.36921 2.19863,-1.10764zM143.19474,231.50725c-1.77668,-1.95989 -2.66501,-4.67486 -2.66501,-8.14492c0,-3.47006 0.88833,-6.18503 2.66501,-8.14493c1.77668,-1.95989 4.1724,-2.93984 7.1872,-2.93984c3.01478,0 5.40219,0.97995 7.16221,2.93984c1.76002,1.95989 2.64002,4.67487 2.64002,8.14493c0,3.47006 -0.88001,6.18503 -2.64002,8.14492c-1.76002,1.95989 -4.14742,2.93984 -7.1622,2.93984c-3.01478,0 -5.41052,-0.97995 -7.1872,-2.93984zM150.39858,218.39812c-1.60456,0 -2.40683,2.30752 -2.40683,4.92255c0,2.61504 0.80228,3.92256 2.40683,3.92256c1.6101,0 2.41517,-1.30752 2.41517,-3.92256c0,-2.61504 -0.80506,-4.92255 -2.41517,-4.92255zM165.06909,231.50725c-1.77668,-1.95989 -2.66501,-4.67486 -2.66501,-8.14492c0,-3.47006 0.88833,-6.18503 2.66501,-8.14493c1.77668,-1.95989 4.17241,-2.93984 7.1872,-2.93984c3.01478,0 5.40219,0.97995 7.1622,2.93984c1.76002,1.95989 2.64003,4.67487 2.64003,8.14493c0,3.47006 -0.88001,6.18503 -2.64003,8.14492c-1.76002,1.95989 -4.14741,2.93984 -7.1622,2.93984c-3.01478,0 -5.41053,-0.97995 -7.1872,-2.93984zM172.27294,217.79812c-1.60456,0 -2.40684,2.90752 -2.40684,5.52255c0,2.61504 0.80228,3.92256 2.40684,3.92256c1.6101,0 2.41517,-1.30752 2.41517,-3.92256c0,-2.61504 -0.80506,-5.52255 -2.41517,-5.52255zM192.93139,234.02235c-2.75384,0 -4.88585,-0.88833 -6.39602,-2.66501c-1.50462,-1.77668 -2.25692,-4.40559 -2.25692,-7.88675c0,-3.48117 0.98828,-6.21003 2.96482,-8.18657c1.97654,-1.97654 4.60546,-2.96482 7.88675,-2.96482c3.28684,0 5.99627,0.72455 8.12827,2.17364v21.23676c0,2.10425 -0.85503,3.71714 -2.56508,4.83866c-1.70449,1.12152 -3.89203,1.68228 -6.56258,1.68228c-2.67056,0 -5.05795,-0.34145 -7.1622,-1.02436c-0.2887,-0.68291 -0.43306,-1.29363 -0.43306,-1.83219c0,-1.82109 0.29982,-3.15636 0.89944,-4.00584c1.90437,0.82171 3.93643,1.23256 6.0962,1.23256c1.56569,0 2.34854,-0.55243 2.34854,-1.6573v-1.28254c-1.22146,0.22764 -2.20418,0.34146 -2.94817,0.34146zM194.89683,219.26487c-1.90437,0 -2.85656,1.43798 -2.85656,4.31397c0,1.78778 0.36922,2.95094 1.10764,3.4895c0.48304,0.37199 0.96606,0.55799 1.44909,0.55799c0.48304,0 0.91055,-0.04165 1.28254,-0.12493v-8.10329c-0.34422,-0.08883 -0.6718,-0.13325 -0.98272,-0.13325zM214.85039,233.6809c0,0.25539 -1.4491,0.3831 -4.3473,0.3831c-2.27635,-0.02776 -3.41454,-0.14158 -3.41454,-0.34145v-29.04025c0,-0.42195 1.37969,-0.63293 4.13909,-0.63293c2.41517,0.08327 3.62274,0.22486 3.62274,0.42473zM234.80995,232.87307c-1.79334,1.04935 -4.09745,1.57403 -6.91236,1.57403c-2.81492,0 -5.18843,-0.95774 -7.12056,-2.87321c-1.93213,-1.92102 -2.8982,-4.58049 -2.8982,-7.97837c0,-3.39788 0.92998,-6.13229 2.78993,-8.20323c1.86551,-2.07648 4.21959,-3.11473 7.06226,-3.11473c2.84267,0 5.03852,0.72455 6.58756,2.17364c1.54904,1.4491 2.32356,3.21189 2.32356,5.28837c0,4.60269 -2.64281,6.90403 -7.9284,6.90403h-2.94816c0,0.85503 0.23319,1.44631 0.69956,1.77389c0.47193,0.32757 1.16316,0.49135 2.07371,0.49135c1.9932,0 3.8837,-0.45527 5.67148,-1.36581c0.02776,-0.02776 0.15545,0.16934 0.38309,0.5913c0.68291,1.22701 1.02436,2.2597 1.02436,3.09807c0,0.83837 -0.26928,1.38526 -0.80784,1.64066zM229.47994,220.54741c0,-1.1937 -0.58297,-1.79055 -1.74891,-1.79055c-0.53856,0 -1.00215,0.16379 -1.39081,0.49136c-0.38309,0.32757 -0.57464,0.80228 -0.57464,1.42411v1.32418h2.3069c0.93831,0 1.40745,-0.48303 1.40745,-1.44909zM248.75025,223.6205c0.53856,0.42751 1.46854,1.01048 2.78993,1.74892c1.32695,0.73843 2.59283,1.10763 3.79764,1.10763c1.21036,0 1.81553,-0.46914 1.81553,-1.40745c0,-0.42751 -0.17212,-0.80505 -0.51635,-1.13262c-0.33868,-0.32757 -0.96329,-0.70235 -1.87383,-1.12431c-0.91055,-0.42751 -1.59346,-0.76063 -2.04873,-0.99937c-0.45527,-0.2443 -1.06045,-0.64405 -1.81553,-1.19926c-0.74953,-0.55521 -1.32418,-1.13263 -1.72393,-1.73225c-1.13262,-1.61566 -1.69894,-3.67549 -1.69894,-6.17948c0,-2.504 0.92997,-4.6138 2.78993,-6.32939c1.85995,-1.72115 4.29733,-2.58172 7.31211,-2.58172c2.04872,0 3.93922,0.22208 5.67146,0.66625c1.73224,0.43861 2.62615,1.01326 2.68167,1.72393c0,0.08327 0,0.16656 0,0.24984c0,0.99938 -0.3137,2.2597 -0.94108,3.78097c-0.62184,1.51572 -1.06045,2.35964 -1.31585,2.53176c-1.82108,-0.93831 -3.45063,-1.40745 -4.88862,-1.40745c-1.43244,0 -2.14866,0.51079 -2.14866,1.53238c0,0.62739 0.52745,1.1826 1.58234,1.66562c0.22764,0.11659 0.55244,0.27484 0.9744,0.4747c0.42751,0.19432 0.91887,0.42751 1.47409,0.69957c0.55521,0.27204 1.15206,0.61351 1.79055,1.02436c0.63849,0.41085 1.32972,0.95773 2.0737,1.64064c1.50462,1.42135 2.25693,3.29795 2.25693,5.62983c0,3.04255 -0.83837,5.52989 -2.5151,7.46202c-1.67674,1.93213 -4.26401,2.92596 -7.76184,2.98148c-1.70449,0 -3.24797,-0.14158 -4.63045,-0.42474c-1.37692,-0.28316 -2.57894,-0.83559 -3.60609,-1.6573c-1.02158,-0.82726 -1.53238,-1.82386 -1.53238,-2.9898c0,-1.16594 0.21375,-2.32355 0.64127,-3.47284c0.42751,-1.15483 0.88277,-1.91547 1.36581,-2.28191zM277.18851,233.72254c0,0.25539 -1.18815,0.38309 -3.56445,0.38309c-2.37074,0 -3.55612,-0.1971 -3.55612,-0.5913v-29.21513c0,-0.19432 0.44139,-0.33313 1.32418,-0.41641c0.88279,-0.08883 1.62122,-0.13324 2.21529,-0.13324c2.3874,0 3.5811,0.25539 3.5811,0.76618v8.52802c1.59345,-0.48304 2.80381,-0.72454 3.63108,-0.72454c2.15977,0 3.86425,0.57742 5.11347,1.73225c1.24923,1.14929 1.87384,3.28685 1.87384,6.41268v13.21677c0,0.25539 -1.10764,0.3831 -3.32293,0.3831c-2.50399,-0.08327 -3.75599,-0.22487 -3.75599,-0.42474v-12.53386c0,-1.39358 -0.45249,-2.09036 -1.35748,-2.09036c-0.62739,0 -1.35472,0.29704 -2.18198,0.89111zM307.55391,232.87307c-1.79334,1.04935 -4.09744,1.57403 -6.91235,1.57403c-2.81491,0 -5.18845,-0.95774 -7.12057,-2.87321c-1.93213,-1.92102 -2.89819,-4.58049 -2.89819,-7.97837c0,-3.39788 0.92998,-6.13229 2.78993,-8.20323c1.8655,-2.07648 4.2196,-3.11473 7.06228,-3.11473c2.84267,0 5.03853,0.72455 6.58756,2.17364c1.54904,1.4491 2.32355,3.21189 2.32355,5.28837c0,4.60269 -2.6428,6.90403 -7.92839,6.90403h-2.94817c0,0.85503 0.23318,1.44631 0.69957,1.77389c0.47193,0.32757 1.16316,0.49135 2.07371,0.49135c1.9932,0 3.88369,-0.45527 5.67146,-1.36581c0.02776,-0.02776 0.15546,0.16934 0.3831,0.5913c0.68291,1.22701 1.02437,2.2597 1.02437,3.09807c0,0.83837 -0.26928,1.38526 -0.80784,1.64066zM302.2239,220.54741c0,-1.1937 -0.58298,-1.79055 -1.74892,-1.79055c-0.53855,0 -1.00216,0.16379 -1.3908,0.49136c-0.3831,0.32757 -0.57464,0.80228 -0.57464,1.42411v1.32418h2.30689c0.93831,0 1.40747,-0.48303 1.40747,-1.44909zM328.27698,232.87307c-1.79334,1.04935 -4.09744,1.57403 -6.91236,1.57403c-2.81491,0 -5.18843,-0.95774 -7.12057,-2.87321c-1.93213,-1.92102 -2.8982,-4.58049 -2.8982,-7.97837c0,-3.39788 0.92998,-6.13229 2.78993,-8.20323c1.8655,-2.07648 4.2196,-3.11473 7.06227,-3.11473c2.84267,0 5.03853,0.72455 6.58756,2.17364c1.54904,1.4491 2.32355,3.21189 2.32355,5.28837c0,4.60269 -2.6428,6.90403 -7.9284,6.90403h-2.94816c0,0.85503 0.23319,1.44631 0.69957,1.77389c0.47193,0.32757 1.16315,0.49135 2.0737,0.49135c1.9932,0 3.88369,-0.45527 5.67146,-1.36581c0.02776,-0.02776 0.15546,0.16934 0.3831,0.5913c0.68291,1.22701 1.02436,2.2597 1.02436,3.09807c0,0.83837 -0.26928,1.38526 -0.80784,1.64066zM322.94696,220.54741c0,-1.1937 -0.58297,-1.79055 -1.74891,-1.79055c-0.53855,0 -1.00215,0.16379 -1.3908,0.49136c-0.3831,0.32757 -0.57464,0.80228 -0.57464,1.42411v1.32418h2.30689c0.93831,0 1.40747,-0.48303 1.40747,-1.44909zM342.68731,233.76418c0,0.34422 -1.1937,0.51635 -3.58111,0.51635c-2.84267,-0.11659 -4.26401,-0.30258 -4.26401,-0.55798v-15.09061h-2.17365c-0.57187,0 -0.8578,-0.98273 -0.8578,-2.94817c0,-0.51079 0.04997,-1.13541 0.14991,-1.87384c0.09994,-0.73843 0.30814,-1.10764 0.62461,-1.10764h2.25693v-3.756c0,-0.56631 1.19925,-0.84946 3.59776,-0.84946c2.40406,0 3.60609,0.22763 3.60609,0.68291v2.73163l0.04165,1.19092h3.63108c0.48303,0 0.72454,0.9966 0.72454,2.98981c0,1.98765 -0.24151,2.98148 -0.72454,2.98148h-3.03145zM349.46776,226.3438c2.30412,1.39358 4.12244,2.09036 5.45494,2.09036c0.85503,0 1.28253,-0.29703 1.28253,-0.89111c0,-0.42751 -0.73843,-0.98272 -2.21528,-1.66563c-3.55334,-1.4491 -5.33002,-3.82262 -5.33002,-7.12056c0,-2.10425 0.76619,-3.7088 2.29858,-4.81366c1.53793,-1.11042 3.37844,-1.66564 5.52156,-1.66564c2.14866,0 3.96698,0.22763 5.45494,0.68291c1.49352,0.45527 2.24027,1.05212 2.24027,1.79055c0,0.62184 -0.30537,1.44632 -0.9161,2.47346c-0.61073,1.02158 -1.0299,1.57403 -1.25755,1.6573c-1.22146,-0.67736 -2.54286,-1.01604 -3.9642,-1.01604c-0.76619,0 -1.14929,0.26928 -1.14929,0.80784c0,0.33868 0.14713,0.63016 0.44139,0.87445c0.29981,0.23873 0.8467,0.53578 1.64065,0.89112c0.79951,0.35533 1.4602,0.67736 1.98209,0.96606c0.52745,0.28316 1.11875,0.68014 1.77389,1.19092c1.36582,1.0771 2.04872,2.48457 2.04872,4.22237c0,2.27081 -0.75509,4.11133 -2.26526,5.52156c-1.50462,1.40468 -3.7782,2.10702 -6.82075,2.10702c-2.0154,0 -3.84761,-0.34145 -5.49658,-1.02436c-1.64897,-0.68291 -2.47346,-1.62121 -2.47346,-2.81491c0,-0.79395 0.19155,-1.62955 0.57464,-2.50677c0.3831,-0.88278 0.77451,-1.46854 1.17426,-1.75724z" fill="none" stroke-opacity="0.50196" stroke="#000000" stroke-width="8" stroke-linecap="square"/><path d="M130.84812,225.11123l0.0916,-5.7964c0,-0.39974 0.41087,-0.66347 1.23256,-0.79117c0.82726,-0.1277 1.51017,-0.19154 2.04873,-0.19154l1.66563,0.12492c1.0771,0.17212 1.61566,0.47193 1.61566,0.89944l-0.16657,13.34169c-0.57187,0.39974 -1.71837,0.79118 -3.43952,1.17427c-1.7156,0.38309 -3.68382,0.57464 -5.90466,0.57464c-4.11965,0 -7.44536,-1.33528 -9.97713,-4.00584c-2.52621,-2.67056 -3.78931,-6.59311 -3.78931,-11.76767c0,-4.40837 1.23535,-7.98947 3.70602,-10.74331c2.47069,-2.75939 5.89633,-4.13909 10.27694,-4.13909c1.98765,0 3.78376,0.19154 5.38831,0.57464c1.61011,0.38309 2.7122,0.90222 3.30627,1.55737c0.03331,0.22764 0.04997,0.65515 0.04997,1.28253c0,0.62184 -0.21375,1.51018 -0.64126,2.66501c-0.42751,1.14929 -0.91332,2.00986 -1.45743,2.58173c-0.53856,0.56632 -0.92998,0.84947 -1.17427,0.84947c-0.23874,0 -0.49413,-0.10549 -0.76619,-0.31647c-0.2665,-0.21653 -0.79951,-0.44418 -1.59901,-0.68291c-0.79395,-0.24429 -1.56014,-0.36643 -2.29856,-0.36643c-1.76001,0 -3.1869,0.5691 -4.28067,1.70727c-1.09377,1.13262 -1.64064,2.89542 -1.64064,5.28838c0,2.3874 0.56076,4.20017 1.68228,5.43828c1.12153,1.23256 2.41239,1.84884 3.87259,1.84884c1.46575,0 2.19863,-0.36922 2.19863,-1.10764zM143.19474,231.50725c-1.77668,-1.95989 -2.66501,-4.67487 -2.66501,-8.14493c0,-3.47006 0.88833,-6.18504 2.66501,-8.14493c1.77668,-1.95989 4.1724,-2.93984 7.18719,-2.93984c3.01479,0 5.4022,0.97995 7.16221,2.93984c1.76001,1.95989 2.64002,4.67487 2.64002,8.14493c0,3.47006 -0.88001,6.18503 -2.64002,8.14493c-1.76001,1.95989 -4.14742,2.93984 -7.1622,2.93984c-3.01479,0 -5.41052,-0.97995 -7.18718,-2.93984zM150.39858,219.39812c-1.60456,0 -2.40683,1.30752 -2.40683,3.92255c0,2.61504 0.80228,3.92256 2.40683,3.92256c1.61011,0 2.41517,-1.30752 2.41517,-3.92256c0,-2.61504 -0.80506,-3.92255 -2.41517,-3.92255zM165.06909,231.50725c-1.77668,-1.95989 -2.66501,-4.67487 -2.66501,-8.14493c0,-3.47006 0.88833,-6.18504 2.66501,-8.14493c1.77668,-1.95989 4.17241,-2.93984 7.18719,-2.93984c3.01479,0 5.4022,0.97995 7.16221,2.93984c1.76001,1.95989 2.64002,4.67487 2.64002,8.14493c0,3.47006 -0.88001,6.18503 -2.64002,8.14493c-1.76001,1.95989 -4.14742,2.93984 -7.1622,2.93984c-3.01479,0 -5.41053,-0.97995 -7.18719,-2.93984zM172.27294,219.39812c-1.60456,0 -2.40684,1.30752 -2.40684,3.92255c0,2.61504 0.80228,3.92256 2.40684,3.92256c1.61011,0 2.41517,-1.30752 2.41517,-3.92256c0,-2.61504 -0.80506,-3.92255 -2.41517,-3.92255zM192.93138,234.02235c-2.75385,0 -4.88585,-0.88833 -6.39602,-2.66501c-1.50462,-1.77668 -2.25693,-4.40559 -2.25693,-7.88675c0,-3.48117 0.98828,-6.21001 2.96482,-8.18657c1.97654,-1.97654 4.60547,-2.96482 7.88676,-2.96482c3.28684,0 5.99626,0.72455 8.12827,2.17364v21.23677c0,2.10425 -0.85503,3.71714 -2.56508,4.83866c-1.70449,1.12152 -3.89203,1.68228 -6.56258,1.68228c-2.67056,0 -5.05796,-0.34145 -7.1622,-1.02436c-0.2887,-0.68291 -0.43305,-1.29363 -0.43305,-1.83219c0,-1.82109 0.29981,-3.15636 0.89944,-4.00584c1.90437,0.82171 3.93643,1.23256 6.0962,1.23256c1.5657,0 2.34854,-0.55243 2.34854,-1.6573v-1.28254c-1.22146,0.22764 -2.20418,0.34146 -2.94816,0.34146zM194.89682,219.26487c-1.90437,0 -2.85655,1.438 -2.85655,4.31399c0,1.78778 0.36922,2.95094 1.10764,3.4895c0.48304,0.37199 0.96606,0.55799 1.44909,0.55799c0.48304,0 0.91055,-0.04165 1.28254,-0.12492v-8.10329c-0.34422,-0.08883 -0.6718,-0.13325 -0.98272,-0.13325zM214.85039,233.6809c0,0.25539 -1.4491,0.3831 -4.3473,0.3831c-2.27635,-0.02776 -3.41454,-0.14158 -3.41454,-0.34145v-29.04025c0,-0.42195 1.3797,-0.63294 4.13909,-0.63294c2.41517,0.08328 3.62274,0.22486 3.62274,0.42474zM234.80994,232.87307c-1.79333,1.04935 -4.09745,1.57402 -6.91236,1.57402c-2.81491,0 -5.18843,-0.95773 -7.12056,-2.87321c-1.93213,-1.92102 -2.8982,-4.58048 -2.8982,-7.97837c0,-3.39788 0.92998,-6.1323 2.78993,-8.20323c1.86551,-2.07648 4.21959,-3.11473 7.06227,-3.11473c2.84267,0 5.03853,0.72455 6.58756,2.17365c1.54904,1.4491 2.32356,3.21188 2.32356,5.28838c0,4.60269 -2.6428,6.90403 -7.9284,6.90403h-2.94816c0,0.85503 0.23319,1.44633 0.69957,1.7739c0.47193,0.32757 1.16316,0.49137 2.07371,0.49137c1.99321,0 3.88369,-0.45527 5.67147,-1.36581c0.02776,-0.02776 0.15545,0.16935 0.38309,0.5913c0.68291,1.22701 1.02436,2.2597 1.02436,3.09807c0,0.83837 -0.26928,1.38525 -0.80784,1.64065zM229.47993,220.54741c0,-1.1937 -0.58297,-1.79055 -1.74891,-1.79055c-0.53856,0 -1.00215,0.16379 -1.39081,0.49136c-0.38309,0.32757 -0.57464,0.80228 -0.57464,1.42412v1.32418h2.30689c0.9383,0 1.40745,-0.48303 1.40745,-1.44909zM248.75025,223.6205c0.53856,0.42751 1.46854,1.01048 2.78993,1.74891c1.32695,0.73843 2.59283,1.10764 3.79764,1.10764c1.21036,0 1.81553,-0.46916 1.81553,-1.40745c0,-0.42751 -0.17212,-0.80505 -0.51635,-1.13262c-0.33868,-0.32757 -0.96329,-0.70235 -1.87383,-1.1243c-0.91055,-0.42751 -1.59346,-0.76063 -2.04873,-0.99937c-0.45527,-0.24429 -1.06045,-0.64405 -1.81553,-1.19925c-0.74953,-0.55521 -1.32418,-1.13263 -1.72393,-1.73226c-1.13262,-1.61566 -1.69894,-3.67549 -1.69894,-6.17948c0,-2.504 0.92997,-4.6138 2.78993,-6.32939c1.85995,-1.72116 4.29732,-2.58172 7.31211,-2.58172c2.04873,0 3.93922,0.22208 5.67146,0.66625c1.73226,0.43861 2.62615,1.01326 2.68167,1.72393c0,0.08328 0,0.16656 0,0.24985c0,0.99938 -0.31369,2.2597 -0.94108,3.78097c-0.62184,1.51572 -1.06045,2.35964 -1.31585,2.53176c-1.82109,-0.9383 -3.45063,-1.40745 -4.88862,-1.40745c-1.43243,0 -2.14866,0.5108 -2.14866,1.53238c0,0.62739 0.52745,1.1826 1.58234,1.66563c0.22764,0.1166 0.55244,0.27483 0.9744,0.47471c0.42751,0.19432 0.91887,0.42751 1.47408,0.69956c0.55521,0.27205 1.15206,0.61351 1.79055,1.02436c0.63849,0.41086 1.32972,0.95774 2.07371,1.64064c1.50462,1.42133 2.25693,3.29794 2.25693,5.62983c0,3.04255 -0.83837,5.52989 -2.5151,7.46202c-1.67674,1.93213 -4.26401,2.92597 -7.76184,2.98149c-1.70449,0 -3.24797,-0.14158 -4.63045,-0.42474c-1.37691,-0.28316 -2.57895,-0.8356 -3.60609,-1.65731c-1.02158,-0.82726 -1.53238,-1.82386 -1.53238,-2.9898c0,-1.16594 0.21375,-2.32355 0.64127,-3.47283c0.42751,-1.15483 0.88277,-1.91547 1.36581,-2.28192zM277.18851,233.72253c0,0.25539 -1.18815,0.38309 -3.56445,0.38309c-2.37074,0 -3.55612,-0.1971 -3.55612,-0.5913v-29.21514c0,-0.19432 0.44139,-0.33312 1.32418,-0.4164c0.88278,-0.08883 1.62122,-0.13325 2.21529,-0.13325c2.3874,0 3.5811,0.25539 3.5811,0.76619v8.52802c1.59345,-0.48304 2.80381,-0.72454 3.63108,-0.72454c2.15977,0 3.86426,0.57742 5.11348,1.73225c1.24923,1.14929 1.87384,3.28684 1.87384,6.41268v13.21677c0,0.25539 -1.10765,0.3831 -3.32294,0.3831c-2.50399,-0.08328 -3.75599,-0.22486 -3.75599,-0.42474v-12.53386c0,-1.39358 -0.45249,-2.09036 -1.35749,-2.09036c-0.62739,0 -1.35471,0.29704 -2.18198,0.89111zM307.55391,232.87307c-1.79332,1.04935 -4.09744,1.57402 -6.91235,1.57402c-2.81491,0 -5.18845,-0.95773 -7.12057,-2.87321c-1.93213,-1.92102 -2.89819,-4.58048 -2.89819,-7.97837c0,-3.39788 0.92998,-6.1323 2.78993,-8.20323c1.8655,-2.07648 4.21959,-3.11473 7.06227,-3.11473c2.84267,0 5.03853,0.72455 6.58756,2.17365c1.54904,1.4491 2.32356,3.21188 2.32356,5.28838c0,4.60269 -2.6428,6.90403 -7.92839,6.90403h-2.94817c0,0.85503 0.23318,1.44633 0.69957,1.7739c0.47193,0.32757 1.16316,0.49137 2.07371,0.49137c1.99321,0 3.88369,-0.45527 5.67146,-1.36581c0.02776,-0.02776 0.15546,0.16935 0.3831,0.5913c0.68291,1.22701 1.02436,2.2597 1.02436,3.09807c0,0.83837 -0.26928,1.38525 -0.80784,1.64065zM302.2239,220.54741c0,-1.1937 -0.58297,-1.79055 -1.74891,-1.79055c-0.53855,0 -1.00216,0.16379 -1.3908,0.49136c-0.3831,0.32757 -0.57464,0.80228 -0.57464,1.42412v1.32418h2.30689c0.9383,0 1.40746,-0.48303 1.40746,-1.44909zM328.27698,232.87307c-1.79332,1.04935 -4.09745,1.57402 -6.91236,1.57402c-2.81491,0 -5.18843,-0.95773 -7.12056,-2.87321c-1.93213,-1.92102 -2.89819,-4.58048 -2.89819,-7.97837c0,-3.39788 0.92997,-6.1323 2.78992,-8.20323c1.8655,-2.07648 4.2196,-3.11473 7.06227,-3.11473c2.84267,0 5.03853,0.72455 6.58756,2.17365c1.54904,1.4491 2.32355,3.21188 2.32355,5.28838c0,4.60269 -2.6428,6.90403 -7.92839,6.90403h-2.94816c0,0.85503 0.23319,1.44633 0.69957,1.7739c0.47193,0.32757 1.16316,0.49137 2.07371,0.49137c1.99321,0 3.88369,-0.45527 5.67146,-1.36581c0.02776,-0.02776 0.15546,0.16935 0.3831,0.5913c0.68291,1.22701 1.02435,2.2597 1.02435,3.09807c0,0.83837 -0.26927,1.38525 -0.80783,1.64065zM322.94696,220.54741c0,-1.1937 -0.58297,-1.79055 -1.74891,-1.79055c-0.53855,0 -1.00215,0.16379 -1.39081,0.49136c-0.3831,0.32757 -0.57464,0.80228 -0.57464,1.42412v1.32418h2.30689c0.9383,0 1.40746,-0.48303 1.40746,-1.44909zM342.68731,233.76418c0,0.34422 -1.19371,0.51635 -3.58111,0.51635c-2.84267,-0.1166 -4.264,-0.30259 -4.264,-0.55799v-15.0906h-2.17365c-0.57187,0 -0.8578,-0.98272 -0.8578,-2.94816c0,-0.5108 0.04998,-1.1354 0.14991,-1.87384c0.09994,-0.73843 0.30814,-1.10764 0.62461,-1.10764h2.25693v-3.756c0,-0.56632 1.19925,-0.84947 3.59776,-0.84947c2.40406,0 3.60609,0.22764 3.60609,0.68291v2.73164l0.04164,1.19092h3.63108c0.48303,0 0.72455,0.9966 0.72455,2.9898c0,1.98765 -0.24151,2.98148 -0.72455,2.98148h-3.03145zM349.46776,226.34379c2.30412,1.39358 4.12243,2.09036 5.45494,2.09036c0.85503,0 1.28253,-0.29704 1.28253,-0.89112c0,-0.42751 -0.73843,-0.98271 -2.21529,-1.66563c-3.55334,-1.4491 -5.33001,-3.82262 -5.33001,-7.12056c0,-2.10425 0.76619,-3.7088 2.29857,-4.81366c1.53793,-1.11042 3.37845,-1.66564 5.52156,-1.66564c2.14866,0 3.96698,0.22763 5.45494,0.68291c1.49352,0.45527 2.24027,1.05212 2.24027,1.79055c0,0.62184 -0.30537,1.44633 -0.91609,2.47346c-0.61073,1.02158 -1.02992,1.57402 -1.25756,1.6573c-1.22146,-0.67736 -2.54286,-1.01603 -3.9642,-1.01603c-0.76619,0 -1.14929,0.26928 -1.14929,0.80783c0,0.33868 0.14713,0.63016 0.44139,0.87446c0.29981,0.23874 0.8467,0.53578 1.64065,0.89111c0.79951,0.35533 1.4602,0.67736 1.98209,0.96606c0.52745,0.28316 1.11875,0.68014 1.7739,1.19093c1.36581,1.0771 2.04873,2.48456 2.04873,4.22237c0,2.27081 -0.75509,4.11132 -2.26526,5.52156c-1.50462,1.40468 -3.7782,2.10702 -6.82075,2.10702c-2.01542,0 -3.8476,-0.34145 -5.49658,-1.02436c-1.64897,-0.68291 -2.47346,-1.62122 -2.47346,-2.81491c0,-0.79395 0.19154,-1.62953 0.57464,-2.50677c0.3831,-0.88278 0.77453,-1.46854 1.17427,-1.75724z" fill="#ffffff" stroke="none" stroke-width="1" stroke-linecap="square"/></g></g></svg>
