<svg version="1.1" xmlns="http://www.w3.org/2000/svg" xmlns:xlink="http://www.w3.org/1999/xlink" width="309.2973" height="159.64866" viewBox="0,0,309.2973,159.64866"><defs><linearGradient x1="325.00001" y1="-1.79588" x2="325.00001" y2="353.24916" gradientUnits="userSpaceOnUse" id="color-1"><stop offset="0" stop-color="#000000" stop-opacity="0"/><stop offset="1" stop-color="#000000" stop-opacity="0"/></linearGradient><linearGradient x1="325.00001" y1="34.52244" x2="325.00001" y2="316.93084" gradientUnits="userSpaceOnUse" id="color-2"><stop offset="0" stop-color="#000000" stop-opacity="0"/><stop offset="1" stop-color="#000000" stop-opacity="0"/></linearGradient><linearGradient x1="325.00001" y1="58.3377" x2="325.00001" y2="293.11559" gradientUnits="userSpaceOnUse" id="color-3"><stop offset="0" stop-color="#000000" stop-opacity="0"/><stop offset="1" stop-color="#000000" stop-opacity="0"/></linearGradient><linearGradient x1="325.00001" y1="82.35363" x2="325.00001" y2="269.09965" gradientUnits="userSpaceOnUse" id="color-4"><stop offset="0" stop-color="#000000" stop-opacity="0"/><stop offset="1" stop-color="#000000" stop-opacity="0"/></linearGradient><linearGradient x1="325.00001" y1="101.66414" x2="325.00001" y2="249.78914" gradientUnits="userSpaceOnUse" id="color-5"><stop offset="0" stop-color="#000000" stop-opacity="0"/><stop offset="1" stop-color="#000000" stop-opacity="0"/></linearGradient><linearGradient x1="325.00001" y1="116.81617" x2="325.00001" y2="234.63712" gradientUnits="userSpaceOnUse" id="color-6"><stop offset="0" stop-color="#000000" stop-opacity="0"/><stop offset="1" stop-color="#000000" stop-opacity="0"/></linearGradient><linearGradient x1="325.00002" y1="125.17575" x2="325.00002" y2="274.82439" gradientUnits="userSpaceOnUse" id="color-7"><stop offset="0" stop-color="#113545"/><stop offset="1" stop-color="#1d5b76"/></linearGradient></defs><g transform="translate(-170.35137,-120.17572)"><g fill-rule="nonzero" stroke-linejoin="miter" stroke-miterlimit="10" stroke-dasharray="" stroke-dashoffset="0" style="mix-blend-mode: normal"><path d="M179.49785,130.94798c3.22573,-1.0413 2.88873,-2.52621 5.32399,-2.64585c6.53562,-0.32107 13.22992,0.07493 19.77817,0.07493c22.33334,0 44.66666,0 67,0c22.85539,0 45.75288,0.39755 68.60182,-0.12913c8.09283,-2.69761 16.86311,-1.87087 25.39818,-1.87087c15,0 30,0 45,0c5.58221,-0.15054 11.25812,1.28164 16.77817,1.92508c9.19381,1.07166 18.86203,-1.24714 28,0c1.36174,0.18585 2.63723,0.82183 4,1c4.34575,0.56816 8.91903,-0.55928 13.23645,0.02625c0.98921,0.13416 1.97432,0.26023 2.9569,0.38251c1.02931,2.35091 -1.31058,137.85125 -1.67919,142.72506c-0.92676,1.4239 -1.87338,2.83368 -2.83949,4.22895c-2.55012,-1.015 -5.16607,-1.81083 -7.85102,-2.15872c-4.21015,-0.5455 -12.70103,-0.78608 -16.89935,0.13839c-1.45583,0.32058 -2.57367,1.56666 -4,2c-1.82074,0.55316 -3.79955,-0.26751 -5.70247,-0.26751c-1.02114,0 -8.45096,-0.01301 -8.98538,0.04867c-2.22053,0.25629 -4.40882,0.76024 -6.5813,1.28634c-1.73169,0.41935 -3.26235,1.61572 -5.03514,1.79412c-3.34006,0.33612 -7.02109,-0.12912 -10.39818,-0.12912c-24,0 -48,0 -72,0c-15,0 -30,0 -45,0c-6.66667,0 -13.33333,0 -20,0c-2.46643,0 -4.95658,0.47828 -7.39818,0.12912c-2.5278,-0.36149 -4.89558,-1.46413 -7.37999,-2.0542c-9.72776,-0.13957 -19.39866,-2.02661 -29.20721,-1.02626c-3.13577,0.31981 -46.52779,-4.21095 -46.52779,-4.21095c-2.91463,-8.64614 0.11413,-140.84815 1.41101,-141.2668z" fill="#2e8eb8" stroke="url(#color-1)" stroke-width="0" stroke-linecap="butt"/><path d="M183.79581,175.72664c0,-16.68166 2.89272,-32.68769 8.20391,-47.54383c4.20689,0.03388 8.43316,0.19425 12.60029,0.19425c22.33334,0 44.66666,0 67,0c22.85539,0 45.75288,0.39755 68.60182,-0.12913c8.09283,-2.69761 16.86311,-1.87087 25.39818,-1.87087c15,0 30,0 45,0c5.58221,-0.15054 11.25812,1.28164 16.77817,1.92508c9.19381,1.07166 18.86203,-1.24714 28,0c1.0039,0.13701 1.96092,0.51866 2.94059,0.78117c5.10825,14.60172 7.88544,30.2982 7.88544,46.64334c0,26.88242 -7.51216,52.01028 -20.55176,73.39886c-6.28075,10.30219 -13.84388,19.73684 -22.46762,28.08218c-0.71927,0.16036 -1.43624,0.33117 -2.1515,0.50438c-1.73169,0.41935 -3.26235,1.61572 -5.03514,1.79412c-3.34006,0.33612 -7.02109,-0.12912 -10.39818,-0.12912c-24,0 -48,0 -72,0c-15,0 -30,0 -45,0c-6.66667,0 -13.33333,0 -20,0c-2.46643,0 -4.95658,0.47828 -7.39818,0.12912c-2.5278,-0.36149 -4.89558,-1.46413 -7.37999,-2.0542c-9.30361,-0.13349 -18.55521,-1.86538 -27.92496,-1.14103c-25.98941,-25.60906 -42.10108,-61.21514 -42.10108,-100.58431z" fill="#197096" stroke="url(#color-2)" stroke-width="0" stroke-linecap="butt"/><path d="M207.61106,175.72664c0,-16.8478 3.54924,-32.86663 9.9408,-47.34958c18.01605,0 36.0321,0 54.04815,0c22.85539,0 45.75288,0.39755 68.60182,-0.12913c8.09283,-2.69761 16.86311,-1.87087 25.39818,-1.87087c15,0 30,0 45,0c5.58221,-0.15054 11.25812,1.28164 16.77817,1.92508c1.70745,0.19903 3.43125,0.28111 5.16499,0.29081c6.33171,14.42619 9.84579,30.36957 9.84579,47.1337c0,44.89547 -25.20308,83.90444 -62.23273,103.65041c-15.51874,0 -31.03748,0 -46.55622,0c-15,0 -30,0 -45,0c-6.25207,0 -12.50414,0 -18.75622,0c-37.02965,-19.74598 -62.23273,-58.75495 -62.23273,-103.65041z" fill="#2e8eb8" stroke="url(#color-3)" stroke-width="0" stroke-linecap="butt"/><path d="M231.627,175.72664c0,-17.28171 4.69492,-33.46687 12.87887,-47.34958c9.03138,0 18.06276,0 27.09414,0c22.85539,0 45.75288,0.39755 68.60182,-0.12913c8.09283,-2.69761 16.86311,-1.87087 25.39818,-1.87087c12.8937,0 25.7874,0 38.68111,0c8.93138,14.31812 14.0919,31.23121 14.0919,49.34959c0,51.56849 -41.80453,93.37301 -93.37301,93.37301c-51.56849,0 -93.37301,-41.80452 -93.37301,-93.37301z" fill="#197096" stroke="url(#color-4)" stroke-width="0" stroke-linecap="butt"/><path d="M250.93751,175.72664c0,-18.00686 6.42618,-34.51279 17.11032,-47.34958c1.18406,0 2.36812,0 3.55218,0c22.85539,0 45.75288,0.39755 68.60182,-0.12913c8.09283,-2.69761 16.86311,-1.87087 25.39818,-1.87087c4.87554,0 9.75108,0 14.62662,0c11.71403,13.1 18.83588,30.3931 18.83588,49.34959c0,40.90359 -33.15891,74.0625 -74.0625,74.0625c-40.90359,0 -74.0625,-33.15891 -74.0625,-74.0625z" fill="#2e8eb8" stroke="url(#color-5)" stroke-width="0" stroke-linecap="butt"/><path d="M266.08953,175.72664c0,-19.36765 9.34625,-36.55237 23.77456,-47.28998c16.78151,0.08658 33.57269,0.19772 50.33773,-0.18873c5.39163,-1.79721 11.08395,-2.03013 16.80707,-1.98539c16.19056,10.49868 26.90158,28.73054 26.90158,49.46411c0,32.53536 -26.37512,58.91047 -58.91048,58.91047c-32.53535,0 -58.91047,-26.37512 -58.91047,-58.91047z" fill="#197096" stroke="url(#color-6)" stroke-width="0" stroke-linecap="butt"/><path d="M282.01598,175.72665c0,-23.73943 19.2446,-42.98403 42.98403,-42.98403c23.73942,0 42.98403,19.2446 42.98403,42.98403c0,23.73943 -19.24461,42.98403 -42.98403,42.98403c-23.73942,0 -42.98403,-19.24461 -42.98403,-42.98403z" fill-opacity="0.50196" fill="#000000" stroke="none" stroke-width="0" stroke-linecap="butt"/><path d="M287.01598,175.72665c0,-20.978 17.00603,-37.98403 37.98403,-37.98403c20.978,0 37.98403,17.00603 37.98403,37.98403c0,20.978 -17.00603,37.98403 -37.98403,37.98403c-20.978,0 -37.98403,-17.00603 -37.98403,-37.98403z" fill="#ffffff" stroke="none" stroke-width="0" stroke-linecap="butt"/><path d="M291.61503,175.72665c0,-18.43802 14.94696,-33.38498 33.38498,-33.38498c18.43802,0 33.38498,14.94696 33.38498,33.38498c0,18.43802 -14.94696,33.38498 -33.38498,33.38498c-18.43802,0 -33.38498,-14.94696 -33.38498,-33.38498z" fill="#5cb1d6" stroke="none" stroke-width="0" stroke-linecap="butt"/><path d="M341.21647,193.23222c-0.32961,0 -0.65921,-0.12596 -0.91114,-0.37683l-32.16369,-32.16474c-0.50281,-0.5028 -0.50281,-1.31947 0,-1.82227c0.50281,-0.5028 1.31946,-0.5028 1.82227,0l32.16369,32.16369c0.50281,0.5028 0.50281,1.31946 0,1.82227c-0.25193,0.25088 -0.58153,0.37789 -0.91114,0.37789z" fill="#ffffff" stroke="none" stroke-width="1" stroke-linecap="butt"/><path d="M321.67012,165.30928c0,3.91431 -3.17323,7.08754 -7.08754,7.08754c-3.91431,0 -7.08754,-3.17323 -7.08754,-7.08754c0,-3.91431 3.17322,-7.08754 7.08754,-7.08754c3.91431,0 7.08754,3.17322 7.08754,7.08754z" fill="#ffffff" stroke="none" stroke-width="1" stroke-linecap="butt"/><path d="M320.68768,179.94126c-3.80957,-0.89956 -6.16859,-4.71707 -5.26903,-8.52665c0.89956,-3.80957 4.71707,-6.1686 8.52664,-5.26904c3.80957,0.89956 6.1686,4.71707 5.26904,8.52664c-0.89956,3.80957 -4.71707,6.1686 -8.52664,5.26904z" fill="#ffffff" stroke="none" stroke-width="1" stroke-linecap="butt"/><path d="M337.13526,180.77339c0,3.91431 -3.17427,7.08858 -7.08858,7.08858c-3.91431,0 -7.08754,-3.17428 -7.08754,-7.08858c0,-3.91431 3.17323,-7.08754 7.08754,-7.08754c3.91431,0 7.08858,3.17427 7.08858,7.08754z" fill="#ffffff" stroke="none" stroke-width="1" stroke-linecap="butt"/><path d="M341.21647,193.23222c-0.32961,0 -0.65921,-0.12596 -0.91114,-0.37683l-7.89371,-7.8937c-0.50385,-0.5028 -0.50385,-1.31947 0,-1.82227c0.50385,-0.5028 1.31842,-0.5028 1.82227,0l7.8937,7.8937c0.50281,0.5028 0.50281,1.31947 0,1.82227c-0.25193,0.24982 -0.58153,0.37683 -0.91114,0.37683z" fill="#ffffff" stroke="none" stroke-width="1" stroke-linecap="butt"/><g fill="#ffffff" stroke="#ffffff" stroke-width="1.5" stroke-linecap="butt"><path d="M297.30355,175.72665l6.18691,-6.1869v12.3738z"/><path d="M331.18691,154.21709h-12.3738l6.18689,-6.18689z" data-paper-data="{&quot;index&quot;:null}"/><path d="M352.69647,175.72665l-6.18689,6.1869v-12.3738z" data-paper-data="{&quot;index&quot;:null}"/><path d="M318.81311,197.2362h12.3738l-6.1869,6.18689z" data-paper-data="{&quot;index&quot;:null}"/></g><path d="M231.98316,254.00957c0,0.5101 -1.51028,0.76514 -4.53086,0.76514c-3.01557,0 -4.52336,-0.25505 -4.52336,-0.76514v-10.29945h-6.2712v10.29945c0,0.5101 -1.50779,0.76514 -4.52336,0.76514c-3.01557,0 -4.52336,-0.25505 -4.52336,-0.76514v-29.70563c0,-0.62512 1.50779,-0.93768 4.52336,-0.93768c3.01557,0 4.52336,0.31256 4.52336,0.93768v10.53199h6.2712v-10.44198c0,-0.41508 0.74765,-0.71264 2.24293,-0.89266c0.77515,-0.06001 1.53779,-0.09002 2.28793,-0.09002l2.28043,0.09002c1.49528,0.18004 2.24293,0.4776 2.24293,0.89266zM234.6733,232.59301c0,-0.32506 1.36525,-0.48759 4.09577,-0.48759c2.73552,0 4.14829,0.14752 4.23831,0.44258l3.22561,10.57701l3.09059,-10.66702c0.12002,-0.23504 1.0452,-0.35256 2.77552,-0.35256c3.97575,0 5.87361,0.19253 5.69358,0.57761l-10.532,29.97568c-0.03,0.18004 -0.84517,0.27005 -2.44546,0.27005c-1.5953,0 -3.08058,-0.0525 -4.45584,-0.15752c-1.37026,-0.10502 -2.02788,-0.23255 -1.97288,-0.38257l3.90075,-9.40678zM269.93377,262.92876c0,0.21004 -1.27775,0.31507 -3.83323,0.31507c-2.55048,0 -3.82572,-0.10503 -3.82572,-0.31507v-23.07437h-1.52279c-0.72014,0 -1.21522,-0.65762 -1.48528,-1.97288c-0.09002,-0.41508 -0.13503,-0.95019 -0.13503,-1.6053c0,-0.66013 0.21004,-1.43777 0.63012,-2.33294c0.60012,-1.31525 1.5553,-1.97288 2.86554,-1.97288c0.87016,0 1.67032,0.20254 2.40045,0.60762c0.73014,0.40008 1.23773,0.77264 1.52279,1.11771c0.28505,0.34007 0.42758,0.54011 0.42758,0.60011c2.00038,-1.5503 4.16579,-2.32543 6.49623,-2.32543c2.33044,0 4.33083,0.90267 6.00114,2.70802c1.67532,1.80534 2.51297,4.59838 2.51297,8.37909c0,3.78072 -0.83766,6.70878 -2.51297,8.78417c-1.67032,2.07539 -3.79072,3.11309 -6.3612,3.11309c-1.16522,0 -2.22542,-0.06001 -3.18061,-0.18004zM271.77161,239.80938c-0.51009,0 -1.0027,0.16503 -1.47778,0.49509v7.929c0.5051,0.06001 0.91518,0.09002 1.23023,0.09002c0.31507,0 0.56261,0 0.74264,0c1.22023,-0.12002 1.83034,-1.68782 1.83034,-4.70338c0,-2.54048 -0.77514,-3.81073 -2.32543,-3.81073zM294.84613,255.22481c-2.95556,0 -5.45103,-1.00769 -7.48642,-3.02307c-2.03039,-2.02038 -3.04559,-4.81341 -3.04559,-8.37909c0,-3.57068 0.97769,-6.44622 2.93306,-8.62664c1.96037,-2.18042 4.43334,-3.27061 7.4189,-3.27061c2.98557,0 5.29101,0.76264 6.91631,2.28793c1.63031,1.52029 2.44545,3.37064 2.44545,5.55106c0,4.84092 -2.77803,7.26138 -8.33408,7.26138h-3.09058c0,0.89517 0.24504,1.51529 0.73513,1.86036c0.49509,0.34007 1.22273,0.51009 2.18291,0.51009c2.0904,0 4.07578,-0.47759 5.95614,-1.43277c0.03001,-0.03 0.16503,0.18004 0.40507,0.63012c0.71513,1.28525 1.0727,2.36794 1.0727,3.24811c0,0.88017 -0.28256,1.45528 -0.84766,1.72532c0,0 -4.30579,1.6578 -7.26136,1.6578zM296.50395,240.61953c0,-1.25524 -0.61262,-1.88286 -1.83785,-1.88286c-0.56511,0 -1.0502,0.17253 -1.45527,0.5176c-0.40508,0.34007 -0.60762,0.83766 -0.60762,1.49279v1.39527h2.42296c0.98519,0 1.47778,-0.5076 1.47778,-1.52279zM316.75688,254.72971c0,0.21004 -1.36026,0.31506 -4.08077,0.31506c-2.71551,-0.06001 -4.07327,-0.18004 -4.07327,-0.36007v-14.87533h-1.20773c-0.48009,0 -0.86266,-0.29005 -1.14772,-0.87016c-0.28505,-0.58511 -0.42759,-1.31025 -0.42759,-2.17541c0,-3.22561 0.95769,-4.83842 2.87305,-4.83842c1.34526,0 2.46546,0.41008 3.36064,1.23023c0.89517,0.82015 1.34275,1.75283 1.34275,2.79802c0.62513,-1.22523 1.46778,-2.20291 2.52798,-2.93306c1.0602,-0.73014 2.14291,-1.09521 3.24811,-1.09521c1.73533,0 2.78302,0.44759 3.14309,1.34276c0.08501,0.24005 0.12752,0.59261 0.12752,1.0577c0,0.46008 -0.14253,1.28774 -0.42759,2.48297c-0.28006,1.19522 -0.57011,2.06289 -0.87016,2.603c-0.30006,0.5351 -0.48009,0.80265 -0.5401,0.80265c-0.05501,0 -0.33006,-0.11253 -0.82515,-0.33757c-0.49509,-0.22504 -0.93518,-0.33757 -1.32025,-0.33757c-1.13522,0 -1.70282,0.89767 -1.70282,2.69302zM334.49953,243.84514c0.56511,0.44509 1.5428,1.0577 2.93306,1.83785c1.39026,0.77515 2.72051,1.16272 3.99075,1.16272c1.27024,0 1.90536,-0.49259 1.90536,-1.47778c0,-0.45009 -0.18004,-0.84516 -0.54011,-1.18523c-0.36007,-0.34507 -1.0177,-0.74014 -1.97288,-1.18523c-0.95518,-0.45009 -1.67282,-0.80265 -2.15291,-1.0577c-0.47508,-0.25504 -1.1102,-0.67263 -1.90536,-1.25274c-0.79015,-0.58511 -1.39276,-1.19023 -1.80784,-1.81534c-1.19522,-1.70532 -1.79284,-3.87073 -1.79284,-6.49623c0,-2.6305 0.97769,-4.84842 2.93306,-6.65376c1.95537,-1.81035 4.51586,-2.71552 7.68145,-2.71552c2.15041,0 4.13579,0.23255 5.95613,0.69764c1.82535,0.46008 2.76802,1.0652 2.82804,1.81534c0,0.09002 0,0.17754 0,0.26255c0,1.0502 -0.33006,2.37545 -0.99018,3.97575c-0.65512,1.5953 -1.11521,2.48046 -1.38027,2.6555c-1.91536,-0.98519 -3.62819,-1.47778 -5.13848,-1.47778c-1.50529,0 -2.25793,0.5376 -2.25793,1.61281c0,0.66013 0.5526,1.24274 1.65782,1.74784c0.24005,0.12002 0.5826,0.28505 1.02769,0.49509c0.45009,0.21004 0.96519,0.45758 1.5453,0.74264c0.58511,0.28006 1.21273,0.63762 1.88286,1.07271c0.67513,0.43508 1.40026,1.01019 2.17541,1.72532c1.58531,1.49528 2.37795,3.46565 2.37795,5.91112c0,3.19561 -0.88267,5.8111 -2.648,7.84649c-1.76033,2.03039 -4.47835,3.07559 -8.15404,3.13559c-1.79035,0 -3.41064,-0.15002 -4.86092,-0.45009c-1.45028,-0.30006 -2.71301,-0.88267 -3.78822,-1.74784c-1.0752,-0.86517 -1.61281,-1.91037 -1.61281,-3.13559c0,-1.22523 0.22254,-2.44296 0.66763,-3.6532c0.45009,-1.21024 0.93018,-2.00788 1.44027,-2.39296zM373.84199,253.56699c-1.88536,1.10521 -4.30582,1.65781 -7.26138,1.65781c-2.95556,0 -5.45103,-1.00769 -7.48642,-3.02307c-2.03039,-2.02038 -3.04558,-4.81341 -3.04558,-8.37909c0,-3.57068 0.97769,-6.44622 2.93306,-8.62664c1.96037,-2.18042 4.43334,-3.27061 7.4189,-3.27061c2.98557,0 5.29101,0.76264 6.91632,2.28793c1.63031,1.52029 2.44545,3.37064 2.44545,5.55106c0,4.84092 -2.77803,7.26138 -8.33408,7.26138h-3.09058c0,0.89517 0.24505,1.51529 0.73514,1.86036c0.49509,0.34007 1.22273,0.51009 2.18291,0.51009c2.0904,0 4.07578,-0.47759 5.95614,-1.43277c0.03001,-0.03 0.16502,0.18004 0.40507,0.63012c0.71513,1.28525 1.0727,2.36794 1.0727,3.24811c0,0.88017 -0.28255,1.45528 -0.84766,1.72532zM368.23842,240.61953c0,-1.25524 -0.61262,-1.88286 -1.83785,-1.88286c-0.56511,0 -1.0502,0.17253 -1.45528,0.5176c-0.40508,0.34007 -0.60761,0.83766 -0.60761,1.49279v1.39527h2.42296c0.98519,0 1.47778,-0.5076 1.47778,-1.52279zM388.0413,254.50466c0,0.21004 -1.0752,0.31507 -3.22561,0.31507c-2.98557,-0.09002 -4.47835,-0.25505 -4.47835,-0.49509v-14.51526h-1.17022c-0.77515,0 -1.28275,-0.65762 -1.52279,-1.97288c-0.06002,-0.38508 -0.09001,-0.77264 -0.09001,-1.16272c0,-0.92517 0.18003,-1.85035 0.5401,-2.77553c0.5401,-1.31525 1.37776,-1.97288 2.51297,-1.97288c1.13522,0 2.15042,0.27005 3.04559,0.81016c0.89517,0.5351 1.49279,1.0702 1.79284,1.6053c1.88036,-1.61031 4.11829,-2.41546 6.71377,-2.41546c2.60049,0 4.48334,0.70263 5.64856,2.10791c1.16522,1.40026 1.74784,3.6982 1.74784,6.89381v13.44255c0,0.36007 -1.27774,0.54011 -3.83322,0.54011c-2.55048,0 -3.82573,-0.18004 -3.82573,-0.54011v-12.94745c0,-1.49528 -0.5226,-2.24293 -1.56779,-2.24293c-0.30006,0 -0.72014,0.12752 -1.26024,0.38257c-0.5351,0.25504 -0.87766,0.44259 -1.02769,0.56261zM404.30533,246.71069c2.42046,1.46528 4.33332,2.19791 5.73859,2.19791c0.89517,0 1.34276,-0.31507 1.34276,-0.94518c0,-0.44509 -0.77765,-1.0277 -2.33295,-1.74784c-3.73071,-1.52029 -5.59606,-4.01327 -5.59606,-7.47893c0,-2.21042 0.80515,-3.89823 2.41546,-5.06346c1.61531,-1.16522 3.55068,-1.74784 5.80611,-1.74784c2.25542,0 4.16579,0.24005 5.73109,0.72014c1.57031,0.47509 2.35545,1.10021 2.35545,1.87536c0,0.66013 -0.32256,1.52779 -0.96769,2.603c-0.64013,1.0752 -1.0802,1.65781 -1.32024,1.74783c-1.28524,-0.72013 -2.67302,-1.0802 -4.1633,-1.0802c-0.80515,0 -1.20772,0.28505 -1.20772,0.85516c0,0.35506 0.15503,0.66013 0.46509,0.91518c0.31507,0.25504 0.89017,0.57011 1.72532,0.94518c0.83515,0.37008 1.52778,0.70513 2.07789,1.00518c0.55511,0.30006 1.17773,0.71764 1.86786,1.25274c1.43527,1.13521 2.15291,2.61549 2.15291,4.44084c0,2.38545 -0.79264,4.31831 -2.37795,5.7986c-1.58531,1.48029 -3.97575,2.22043 -7.17136,2.22043c-2.1204,0 -4.04827,-0.35756 -5.78359,-1.0727c-1.73032,-0.72013 -2.5955,-1.70783 -2.5955,-2.96306c0,-0.83515 0.20254,-1.71533 0.60762,-2.6405c0.40508,-0.92517 0.81515,-1.53779 1.23023,-1.83784zM433.20722,255.22481c-2.95556,0 -5.45103,-1.00769 -7.48642,-3.02307c-2.03039,-2.02038 -3.04558,-4.81341 -3.04558,-8.37909c0,-3.57068 0.97769,-6.44622 2.93306,-8.62664c1.96037,-2.18042 4.43334,-3.27061 7.4189,-3.27061c2.98557,0 5.291,0.76264 6.91631,2.28793c1.63031,1.52029 2.44546,3.37064 2.44546,5.55106c0,4.84092 -2.77803,7.26138 -8.33408,7.26138h-3.09059c0,0.89517 0.24505,1.51529 0.73514,1.86036c0.49509,0.34007 1.22273,0.51009 2.18291,0.51009c2.0904,0 4.07577,-0.47759 5.95613,-1.43277c0.03001,-0.03 0.16503,0.18004 0.40508,0.63012c0.71513,1.28525 1.0727,2.36794 1.0727,3.24811c0,0.88017 -0.28256,1.45528 -0.84766,1.72532c0,0 -4.30579,1.6578 -7.26135,1.6578zM434.86504,240.61953c0,-1.25524 -0.61262,-1.88286 -1.83784,-1.88286c-0.56511,0 -1.0502,0.17253 -1.45528,0.5176c-0.40508,0.34007 -0.60762,0.83766 -0.60762,1.49279v1.39527h2.42296c0.98519,0 1.47778,-0.5076 1.47778,-1.52279z" fill="none" stroke-opacity="0.50588" stroke="#000000" stroke-width="10" stroke-linecap="square"/><path d="M231.98316,254.00957c0,0.5101 -1.51028,0.76514 -4.53086,0.76514c-3.01557,0 -4.52336,-0.25505 -4.52336,-0.76514v-10.29945h-6.2712v10.29945c0,0.5101 -1.50779,0.76514 -4.52336,0.76514c-3.01557,0 -4.52336,-0.25505 -4.52336,-0.76514v-29.70563c0,-0.62512 1.50779,-0.93768 4.52336,-0.93768c3.01557,0 4.52336,0.31256 4.52336,0.93768v10.53199h6.2712v-10.44198c0,-0.41508 0.74765,-0.71264 2.24293,-0.89266c0.77515,-0.06001 1.53779,-0.09002 2.28793,-0.09002l2.28043,0.09002c1.49528,0.18004 2.24293,0.4776 2.24293,0.89266zM234.6733,232.59301c0,-0.32506 1.36525,-0.48759 4.09577,-0.48759c2.73552,0 4.14829,0.14752 4.23831,0.44258l3.22561,10.57701l3.09059,-10.66702c0.12002,-0.23504 1.0452,-0.35256 2.77552,-0.35256c3.97575,0 5.87361,0.19253 5.69358,0.57761l-10.532,29.97568c-0.03,0.18004 -0.84517,0.27005 -2.44546,0.27005c-1.5953,0 -3.08058,-0.0525 -4.45584,-0.15752c-1.37026,-0.10502 -2.02788,-0.23255 -1.97288,-0.38257l3.90075,-9.40678zM269.93377,262.92876c0,0.21004 -1.27775,0.31507 -3.83323,0.31507c-2.55048,0 -3.82572,-0.10503 -3.82572,-0.31507v-23.07437h-1.52279c-0.72014,0 -1.21522,-0.65762 -1.48528,-1.97288c-0.09002,-0.41508 -0.13503,-0.95019 -0.13503,-1.6053c0,-0.66013 0.21004,-1.43777 0.63012,-2.33294c0.60012,-1.31525 1.5553,-1.97288 2.86554,-1.97288c0.87016,0 1.67032,0.20254 2.40045,0.60762c0.73014,0.40008 1.23773,0.77264 1.52279,1.11771c0.28505,0.34007 0.42758,0.54011 0.42758,0.60011c2.00038,-1.5503 4.16579,-2.32543 6.49623,-2.32543c2.33044,0 4.33083,0.90267 6.00114,2.70802c1.67532,1.80534 2.51297,4.59838 2.51297,8.37909c0,3.78072 -0.83766,6.70878 -2.51297,8.78417c-1.67032,2.07539 -3.79072,3.11309 -6.3612,3.11309c-1.16522,0 -2.22542,-0.06001 -3.18061,-0.18004zM271.77161,239.80938c-0.51009,0 -1.0027,0.16503 -1.47778,0.49509v7.929c0.5051,0.06001 0.91518,0.09002 1.23023,0.09002c0.31507,0 0.56261,0 0.74264,0c1.22023,-0.12002 1.83034,-1.68782 1.83034,-4.70338c0,-2.54048 -0.77514,-3.81073 -2.32543,-3.81073zM302.10751,253.56699c-1.88536,1.10521 -4.30581,1.65781 -7.26138,1.65781c-2.95556,0 -5.45103,-1.00769 -7.48642,-3.02307c-2.03039,-2.02038 -3.04559,-4.81341 -3.04559,-8.37909c0,-3.57068 0.97769,-6.44622 2.93306,-8.62664c1.96037,-2.18042 4.43334,-3.27061 7.4189,-3.27061c2.98557,0 5.29101,0.76264 6.91631,2.28793c1.63031,1.52029 2.44545,3.37064 2.44545,5.55106c0,4.84092 -2.77803,7.26138 -8.33408,7.26138h-3.09058c0,0.89517 0.24504,1.51529 0.73513,1.86036c0.49509,0.34007 1.22273,0.51009 2.18291,0.51009c2.0904,0 4.07578,-0.47759 5.95614,-1.43277c0.03001,-0.03 0.16503,0.18004 0.40507,0.63012c0.71513,1.28525 1.0727,2.36794 1.0727,3.24811c0,0.88017 -0.28256,1.45528 -0.84766,1.72532zM296.50395,240.61953c0,-1.25524 -0.61262,-1.88286 -1.83785,-1.88286c-0.56511,0 -1.0502,0.17253 -1.45527,0.5176c-0.40508,0.34007 -0.60762,0.83766 -0.60762,1.49279v1.39527h2.42296c0.98519,0 1.47778,-0.5076 1.47778,-1.52279zM316.75688,254.72971c0,0.21004 -1.36026,0.31506 -4.08077,0.31506c-2.71551,-0.06001 -4.07327,-0.18004 -4.07327,-0.36007v-14.87533h-1.20773c-0.48009,0 -0.86266,-0.29005 -1.14772,-0.87016c-0.28505,-0.58511 -0.42759,-1.31025 -0.42759,-2.17541c0,-3.22561 0.95769,-4.83842 2.87305,-4.83842c1.34526,0 2.46546,0.41008 3.36064,1.23023c0.89517,0.82015 1.34275,1.75283 1.34275,2.79802c0.62513,-1.22523 1.46778,-2.20291 2.52798,-2.93306c1.0602,-0.73014 2.14291,-1.09521 3.24811,-1.09521c1.73533,0 2.78302,0.44759 3.14309,1.34276c0.08501,0.24005 0.12752,0.59261 0.12752,1.0577c0,0.46008 -0.14253,1.28774 -0.42759,2.48297c-0.28006,1.19522 -0.57011,2.06289 -0.87016,2.603c-0.30006,0.5351 -0.48009,0.80265 -0.5401,0.80265c-0.05501,0 -0.33006,-0.11253 -0.82515,-0.33757c-0.49509,-0.22504 -0.93518,-0.33757 -1.32025,-0.33757c-1.13522,0 -1.70282,0.89767 -1.70282,2.69302zM334.49953,243.84514c0.56511,0.44509 1.5428,1.0577 2.93306,1.83785c1.39026,0.77515 2.72051,1.16272 3.99075,1.16272c1.27024,0 1.90536,-0.49259 1.90536,-1.47778c0,-0.45009 -0.18004,-0.84516 -0.54011,-1.18523c-0.36007,-0.34507 -1.0177,-0.74014 -1.97288,-1.18523c-0.95518,-0.45009 -1.67282,-0.80265 -2.15291,-1.0577c-0.47508,-0.25504 -1.1102,-0.67263 -1.90536,-1.25274c-0.79015,-0.58511 -1.39276,-1.19023 -1.80784,-1.81534c-1.19522,-1.70532 -1.79284,-3.87073 -1.79284,-6.49623c0,-2.6305 0.97769,-4.84842 2.93306,-6.65376c1.95537,-1.81035 4.51586,-2.71552 7.68145,-2.71552c2.15041,0 4.13579,0.23255 5.95613,0.69764c1.82535,0.46008 2.76802,1.0652 2.82804,1.81534c0,0.09002 0,0.17754 0,0.26255c0,1.0502 -0.33006,2.37545 -0.99018,3.97575c-0.65512,1.5953 -1.11521,2.48046 -1.38027,2.6555c-1.91536,-0.98519 -3.62819,-1.47778 -5.13848,-1.47778c-1.50529,0 -2.25793,0.5376 -2.25793,1.61281c0,0.66013 0.5526,1.24274 1.65782,1.74784c0.24005,0.12002 0.5826,0.28505 1.02769,0.49509c0.45009,0.21004 0.96519,0.45758 1.5453,0.74264c0.58511,0.28006 1.21273,0.63762 1.88286,1.07271c0.67513,0.43508 1.40026,1.01019 2.17541,1.72532c1.58531,1.49528 2.37795,3.46565 2.37795,5.91112c0,3.19561 -0.88267,5.8111 -2.648,7.84649c-1.76033,2.03039 -4.47835,3.07559 -8.15404,3.13559c-1.79035,0 -3.41064,-0.15002 -4.86092,-0.45009c-1.45028,-0.30006 -2.71301,-0.88267 -3.78822,-1.74784c-1.0752,-0.86517 -1.61281,-1.91037 -1.61281,-3.13559c0,-1.22523 0.22254,-2.44296 0.66763,-3.6532c0.45009,-1.21024 0.93018,-2.00788 1.44027,-2.39296zM373.84199,253.56699c-1.88536,1.10521 -4.30582,1.65781 -7.26138,1.65781c-2.95556,0 -5.45103,-1.00769 -7.48642,-3.02307c-2.03039,-2.02038 -3.04558,-4.81341 -3.04558,-8.37909c0,-3.57068 0.97769,-6.44622 2.93306,-8.62664c1.96037,-2.18042 4.43334,-3.27061 7.4189,-3.27061c2.98557,0 5.29101,0.76264 6.91632,2.28793c1.63031,1.52029 2.44545,3.37064 2.44545,5.55106c0,4.84092 -2.77803,7.26138 -8.33408,7.26138h-3.09058c0,0.89517 0.24505,1.51529 0.73514,1.86036c0.49509,0.34007 1.22273,0.51009 2.18291,0.51009c2.0904,0 4.07578,-0.47759 5.95614,-1.43277c0.03001,-0.03 0.16502,0.18004 0.40507,0.63012c0.71513,1.28525 1.0727,2.36794 1.0727,3.24811c0,0.88017 -0.28255,1.45528 -0.84766,1.72532zM368.23842,240.61953c0,-1.25524 -0.61262,-1.88286 -1.83785,-1.88286c-0.56511,0 -1.0502,0.17253 -1.45528,0.5176c-0.40508,0.34007 -0.60761,0.83766 -0.60761,1.49279v1.39527h2.42296c0.98519,0 1.47778,-0.5076 1.47778,-1.52279zM388.0413,254.50466c0,0.21004 -1.0752,0.31507 -3.22561,0.31507c-2.98557,-0.09002 -4.47835,-0.25505 -4.47835,-0.49509v-14.51526h-1.17022c-0.77515,0 -1.28275,-0.65762 -1.52279,-1.97288c-0.06002,-0.38508 -0.09001,-0.77264 -0.09001,-1.16272c0,-0.92517 0.18003,-1.85035 0.5401,-2.77553c0.5401,-1.31525 1.37776,-1.97288 2.51297,-1.97288c1.13522,0 2.15042,0.27005 3.04559,0.81016c0.89517,0.5351 1.49279,1.0702 1.79284,1.6053c1.88036,-1.61031 4.11829,-2.41546 6.71377,-2.41546c2.60049,0 4.48334,0.70263 5.64856,2.10791c1.16522,1.40026 1.74784,3.6982 1.74784,6.89381v13.44255c0,0.36007 -1.27774,0.54011 -3.83322,0.54011c-2.55048,0 -3.82573,-0.18004 -3.82573,-0.54011v-12.94745c0,-1.49528 -0.5226,-2.24293 -1.56779,-2.24293c-0.30006,0 -0.72014,0.12752 -1.26024,0.38257c-0.5351,0.25504 -0.87766,0.44259 -1.02769,0.56261zM404.30533,246.71069c2.42046,1.46528 4.33332,2.19791 5.73859,2.19791c0.89517,0 1.34276,-0.31507 1.34276,-0.94518c0,-0.44509 -0.77765,-1.0277 -2.33295,-1.74784c-3.73071,-1.52029 -5.59606,-4.01327 -5.59606,-7.47893c0,-2.21042 0.80515,-3.89823 2.41546,-5.06346c1.61531,-1.16522 3.55068,-1.74784 5.80611,-1.74784c2.25542,0 4.16579,0.24005 5.73109,0.72014c1.57031,0.47509 2.35545,1.10021 2.35545,1.87536c0,0.66013 -0.32256,1.52779 -0.96769,2.603c-0.64013,1.0752 -1.0802,1.65781 -1.32024,1.74783c-1.28524,-0.72013 -2.67302,-1.0802 -4.1633,-1.0802c-0.80515,0 -1.20772,0.28505 -1.20772,0.85516c0,0.35506 0.15503,0.66013 0.46509,0.91518c0.31507,0.25504 0.89017,0.57011 1.72532,0.94518c0.83515,0.37008 1.52778,0.70513 2.07789,1.00518c0.55511,0.30006 1.17773,0.71764 1.86786,1.25274c1.43527,1.13521 2.15291,2.61549 2.15291,4.44084c0,2.38545 -0.79264,4.31831 -2.37795,5.7986c-1.58531,1.48029 -3.97575,2.22043 -7.17136,2.22043c-2.1204,0 -4.04827,-0.35756 -5.78359,-1.0727c-1.73032,-0.72013 -2.5955,-1.70783 -2.5955,-2.96306c0,-0.83515 0.20254,-1.71533 0.60762,-2.6405c0.40508,-0.92517 0.81515,-1.53779 1.23023,-1.83784zM440.4686,253.56699c-1.88536,1.10521 -4.30581,1.65781 -7.26137,1.65781c-2.95556,0 -5.45103,-1.00769 -7.48642,-3.02307c-2.03039,-2.02038 -3.04558,-4.81341 -3.04558,-8.37909c0,-3.57068 0.97769,-6.44622 2.93306,-8.62664c1.96037,-2.18042 4.43334,-3.27061 7.4189,-3.27061c2.98557,0 5.291,0.76264 6.91631,2.28793c1.63031,1.52029 2.44546,3.37064 2.44546,5.55106c0,4.84092 -2.77803,7.26138 -8.33408,7.26138h-3.09059c0,0.89517 0.24505,1.51529 0.73514,1.86036c0.49509,0.34007 1.22273,0.51009 2.18291,0.51009c2.0904,0 4.07577,-0.47759 5.95613,-1.43277c0.03001,-0.03 0.16503,0.18004 0.40508,0.63012c0.71513,1.28525 1.0727,2.36794 1.0727,3.24811c0,0.88017 -0.28256,1.45528 -0.84766,1.72532zM434.86504,240.61953c0,-1.25524 -0.61262,-1.88286 -1.83784,-1.88286c-0.56511,0 -1.0502,0.17253 -1.45528,0.5176c-0.40508,0.34007 -0.60762,0.83766 -0.60762,1.49279v1.39527h2.42296c0.98519,0 1.47778,-0.5076 1.47778,-1.52279z" fill="#ffffff" stroke="none" stroke-width="1" stroke-linecap="square"/><path d="M175.35137,137.67138c0,-6.39897 5.91545,-12.49566 13.1192,-12.49566c28.93252,0 219.72832,0 272.60996,0c8.61359,0 13.56814,4.64378 13.56814,12.24625c0,30.59212 0,109.0924 0,125.70487c0,6.03964 -4.85913,11.69754 -13.31873,11.69754c-52.46667,0 -243.42599,0 -272.60996,0c-7.3279,0 -13.36861,-4.5235 -13.36861,-11.94695c0,-30.16113 0,-108.19342 0,-125.20604z" fill="none" stroke="url(#color-7)" stroke-width="10" stroke-linecap="butt"/></g></g></svg>
