<?xml version="1.0" encoding="utf-8"?>
<svg viewBox="7.911 28.848 600.107 299.899" width="600" height="300" xmlns="http://www.w3.org/2000/svg">
  <defs>
    <filter id="f071" x="0" y="0" width="1" height="1" color-interpolation-filters="sRGB">
      <feColorMatrix values="1" in="SourceGraphic" type="saturate" result="result2"/>
      <feFlood flood-color="#fe6600" flood-opacity="1" result="result1"/>
      <feBlend in2="result2" mode="multiply" in="result1" result="result3"/>
      <feComposite operator="in" k2="1" result="result4" in2="SourceGraphic"/>
    </filter>
    <filter id="f015" color-interpolation-filters="sRGB">
      <feTurbulence numOctaves="1" baseFrequency="0.002 0.107"/>
      <feColorMatrix values="2 0 0 0 0 0 0 0 0 0 0 0 0 0 0 0 0 0 0.5 0.5" result="result91"/>
      <feDisplacementMap yChannelSelector="A" xChannelSelector="R" scale="14.3" in="SourceGraphic" in2="result91"/>
    </filter>
    <filter id="f030" x="0" y="0" width="1" height="1" color-interpolation-filters="sRGB">
      <feColorMatrix type="saturate" values="0"/>
    </filter>
    <filter id="f111" width="1.600000023841858" height="2" y="-0.5" x="-0.30000001192092896" color-interpolation-filters="sRGB">
      <feTurbulence baseFrequency=".4" type="fractalNoise" seed="0" numOctaves="5" result="result1"/>
      <feOffset dx="-5" dy="-5" result="result2"/>
      <feDisplacementMap xChannelSelector="R" yChannelSelector="G" scale="30" in="SourceGraphic" in2="result1"/>
    </filter>
    <filter id="f121" color-interpolation-filters="sRGB">
      <feGaussianBlur stdDeviation="3"/>
    </filter>
    <filter id="f076" color-interpolation-filters="sRGB">
      <feTurbulence baseFrequency=".143" numOctaves="1" type="fractalNoise"/>
      <feColorMatrix values="1 0 0 0 0 0 1 0 0 0 0 0 1 0 0 0 0 0 6 -3.5 " result="result5"/>
      <feComposite in2="result5" operator="in" in="SourceGraphic" result="result6"/>
      <feMorphology result="result3" radius="5" operator="dilate" in="result6"/>
      <feDisplacementMap result="result4" scale="0" yChannelSelector="A" xChannelSelector="R" in="result3" in2="result3"/>
      <feComposite in2="result4" operator="arithmetic" result="result2" k1="1" k3="1"/>
      <feBlend mode="darken" in="result2" in2="result2"/>
      <feConvolveMatrix order="3 3" kernelMatrix="2 0 0 0 1 0 0 0 -1 " targetX="1" targetY="1" divisor="2" edgeMode="duplicate"/>
    </filter>
  </defs>
  <rect id="backgroundrect" width="1440" height="709" x="-235.032" y="-93.424" fill="none" stroke="none" transform="matrix(1, 0, 0, 1, 0, 1.4210854715202004e-14)"/>
  <g class="currentLayer" style="" transform="matrix(1, 0, 0, 1, -235.03163146972656, -93.42404174804688)">
    <title>Layer 1</title>
    <path d="M243,421.9510197503662 v-299.5 h600 v299.5 z" fill="#9966ff" stroke="none" stroke-width="0" stroke-linecap="butt" id="svg_3" class=""/>
    <path d="M243.07565999999997,421.9243497503662 v-299.92434 l300.01526,299.92434 z" fill="#6d3dcc" stroke="none" stroke-width="0" stroke-linecap="butt" id="svg_4" class=""/>
    <path d="M542.89384,421.9243497503662 l300.01526,-299.92434 v299.92434 z" data-paper-data="{&quot;index&quot;:null}" fill="#6d3dcc" stroke="none" stroke-width="0" stroke-linecap="butt" id="svg_5" class=""/>
    <path d="M715.9996,122.56077975036621 l-172.9996,299.37137 l-172.9996,-299.37137 z" fill="#6d3dcc" stroke="none" stroke-width="0" stroke-linecap="butt" id="svg_6" class=""/>
    <path d="M243.07565999999997,421.9243497503662 v-149.96217 l300.01526,149.96217 z" fill="#9966ff" stroke="none" stroke-width="0" stroke-linecap="butt" id="svg_7" class=""/>
    <path d="M542.89384,421.9243497503662 l300.01526,-149.96217 v149.96217 z" data-paper-data="{&quot;index&quot;:null}" fill="#9966ff" stroke="none" stroke-width="0" stroke-linecap="butt" id="svg_8" class=""/>
    <path d="M603.9996,122.56077975036621 l-60.9996,299.37137 l-60.9996,-299.37137 z" fill="#9966ff" stroke="none" stroke-width="0" stroke-linecap="butt" id="svg_9" class=""/>
    <path d="M317.85360000000003,382.07599975036624 v-28.46875 h-5.6875 c-0.90625,0 -1.54167,-1.15104 -1.90625,-3.45312 c-0.16667,-1.1145800000000001 -0.25,-2.25521 -0.25,-3.42187 c0,-1.1770800000000001 0.08333000000000007,-2.32812 0.25,-3.45312 c0.36458000000000035,-2.29167 1,-3.4375 1.90625,-3.4375 h26.89063 c0.90625,0 1.51563,1.1458300000000001 1.82813,3.4375 c0.21875000000000014,1.125 0.32813000000000025,2.27604 0.32813000000000025,3.45313 c0,1.16667 -0.10937000000000002,2.30729 -0.3281200000000004,3.4218800000000003 c-0.3125000000000003,2.30208 -0.9218700000000005,3.45313 -1.8281200000000002,3.45313 h-5.35937 v28.46875 l5.09375,-5.5 c0.90625,0 2.04688,6.65104 2.4218800000000003,8.95313 c0.20833000000000004,1.1145800000000001 0.3125000000000003,2.26042 0.3125000000000003,3.4375 c0,1.16667 -0.10417000000000007,2.3125 -0.3125000000000003,3.4375 c-0.3750000000000003,2.29167 -1.01562,3.4375 -1.9218700000000002,3.4375 h-26.95312 c-0.90625,0 -1.5208300000000001,-1.1458300000000001 -1.84375,-3.4375 c-0.21875000000000014,-1.125 -0.3281200000000004,-2.27083 -0.3281200000000004,-3.4375 c0,-1.1770800000000001 0.10938,-2.32292 0.32813000000000025,-3.4375 c0.3229200000000005,-2.30208 0.9375,-3.45312 1.84375,-3.45312 zM375.89231,395.9978797503662 c-4.5625,0 -6.84375,-0.23958000000000004 -6.84375,-0.7187500000000006 v-23.28125 c0,-2.6666700000000008 -0.88021,-4 -2.64062,-4 c-0.90625,0 -2.10417,0.5885400000000005 -3.59375,1.7656300000000007 v25.59375 c0,0.53125 -2.28125,0.79688 -6.84375,0.79688 c-4.5625,0 -6.84375,-0.29167000000000026 -6.84375,-0.8750000000000006 v-26.15625 h-2 c-1.76042,0 -2.64062,-1.83854 -2.64062,-5.51562 c0,-1.65625 0.3229200000000005,-3.33854 0.9687500000000006,-5.04687 c0.8541700000000005,-2.34375 2.23958,-3.51562 4.15625,-3.51562 c1.91667,0 3.7656300000000007,0.5052099999999995 5.54688,1.51563 c1.79167,1.01042 2.875,1.96875 3.25,2.875 c3.3125,-2.92708 6.97917,-4.39062 11,-4.39062 c4.03125,0 7.27083,1.25 9.71875,3.75 c2.88542,-2.5 6.35417,-3.75 10.40625,-3.75 c8.80207,0 13.20311,5.35938 13.20311,16.07813 v24.3125 c0,0.3750000000000003 -2.28125,0.5625 -6.84375,0.5625 c-4.56249,0 -6.84373,-0.23958000000000004 -6.84373,-0.7187500000000006 v-23.28125 c0,-2.6666700000000008 -0.88021,-4 -2.64062,-4 c-0.95833,0 -2.18229,0.5885400000000005 -3.67187,1.7656300000000007 v25.67188 c0,0 -2.28128,0.56245 -6.84378,0.56245 zM414.57286999999997,366.7947397503662 c-1.4895800000000001,-2.6666700000000008 -2.23437,-4.83854 -2.23437,-6.51562 c0,-1.6770800000000001 0.45313,-2.75521 1.35938,-3.23437 c3.03125,-1.3333300000000001 7.19792,-2 12.5,-2 c5.3125,0 9.0625,1.2395800000000001 11.25,3.71875 c2.1875,2.47917 3.28125,6.14583 3.28125,11 v12.64063 h2.71875 c0.90625,0 1.6145800000000001,0.5364599999999995 2.125,1.60938 c0.51042,1.0625 0.7656300000000008,2.52604 0.7656300000000008,4.39063 c0,1.8645800000000001 -0.46875,3.70313 -1.40625,5.51563 c-0.9375,1.8125 -2.20312,2.71875 -3.79687,2.71875 c-2.88542,0 -5.20833,-0.77083 -6.96875,-2.3125 c-0.7916700000000005,-0.6458300000000007 -1.40104,-1.4218700000000002 -1.8281200000000002,-2.32812 c-2.45833,3.09375 -6.27604,4.64063 -11.45312,4.64063 c-3.88542,0 -7.16146,-1.38542 -9.82812,-4.15625 c-2.6666700000000008,-2.77083 -4,-6.05208 -4,-9.84375 c0,-8.6875 5.19792,-13.03125 15.59375,-13.03125 h4.40625 v-0.8125 c0,-1.38542 -0.22917,-2.27604 -0.6875000000000006,-2.67187 c-0.4479200000000005,-0.39583000000000035 -1.5,-0.5937500000000006 -3.15625,-0.5937500000000006 c-2.03125,0 -4.91146,0.4218800000000004 -8.64062,1.26563 zM421.93225,384.20099975036624 c0.6354200000000005,0.61458 1.44792,0.92188 2.4375,0.92188 c0.9895799999999995,0 1.88542,-0.40104 2.6875,-1.20312 v-6.15625 h-2.25 c-2.55208,0 -3.82812,1.25521 -3.82812,3.7656300000000007 c0,0 0.31770000000000026,2.05727 0.9531200000000005,2.67186 zM465.6047,395.8416297503662 c-5.16667,0 -9.16667,-1.6666700000000012 -12,-5 c-2.82292,-3.33333 -4.23437,-8.26562 -4.23437,-14.79687 c0,-6.53125 1.85417,-11.65104 5.5625,-15.35937 c3.70833,-3.70833 8.64063,-5.5625 14.79688,-5.5625 c6.16667,0 11.25,1.35938 15.25,4.07813 v39.84375 c0,3.94792 -1.60417,6.97396 -4.8125,9.07813 c-3.19792,2.10417 -7.30208,3.15625 -12.3125,3.15625 c-5.01042,0 -9.48958,-0.6406200000000009 -13.4375,-1.9218700000000002 c-0.5416700000000005,-1.28125 -0.8125,-2.42708 -0.8125,-3.4375 c0,-3.41667 0.5625,-5.92187 1.6875,-7.51562 c3.57292,1.54167 7.38542,2.3125 11.4375,2.3125 c2.9375,0 4.40625,-1.03646 4.40625,-3.10937 v-2.40625 c-2.29167,0.42708000000000035 -4.13542,0.6406300000000008 -5.53125,0.6406300000000008 zM469.2922,368.1541197503662 c-3.57292,0 -5.35937,2.6979200000000008 -5.35937,8.09375 c0,3.35417 0.6927100000000008,5.53646 2.07813,6.54688 c0.90625,0.6979200000000011 1.8125,1.04688 2.71875,1.04688 c0.90625,0 1.7083300000000001,-0.0781200000000001 2.40625,-0.23437 v-15.20312 c-0.6458300000000007,-0.16667 -1.26042,-0.25 -1.84375,-0.25 zM509.44717,396.63849975036624 c-5.28125,0 -9.73437,-1.7968700000000002 -13.35937,-5.39062 c-3.625,-3.60417 -5.4375,-8.59375 -5.4375,-14.96875 c0,-6.375 1.74479,-11.50521 5.23438,-15.39062 c3.5,-3.89583 7.91667,-5.84375 13.25,-5.84375 c5.33333,0 9.45313,1.35938 12.35938,4.07813 c2.90625,2.71875 4.35938,6.02604 4.35938,9.92188 c0,8.63542 -4.95833,12.95313 -14.875,12.95313 h-5.53125 c0,1.60417 0.4375000000000003,2.71354 1.3125,3.32813 c0.8854200000000005,0.61458 2.18229,0.92188 3.8906300000000007,0.92188 c3.73958,0 7.28646,-0.8541700000000005 10.64063,-2.5625 c0.052080000000000036,-0.052080000000000036 0.29167000000000026,0.31771000000000027 0.7187500000000006,1.10938 c1.28125,2.30208 1.92188,4.23958 1.92188,5.8125 c0,1.57292 -0.5052099999999995,2.59896 -1.5156200000000002,3.07813 c0,0 -7.68754,2.95308 -12.96879,2.95308 zM512.41592,370.5603697503662 c0,-2.23958 -1.09375,-3.35937 -3.28125,-3.35937 c-1.01042,0 -1.88021,0.30729 -2.60937,0.92188 c-0.7187500000000006,0.61458 -1.07812,1.50521 -1.07812,2.6718800000000007 v2.4843800000000003 h4.32813 c1.76042,0 2.6406300000000007,-0.90625 2.6406300000000007,-2.71875 zM572.49215,362.0759897503662 c1.01042,0 1.51563,1.86979 1.51563,5.60938 c0,1.1145800000000001 -0.11979000000000019,2.43229 -0.3593700000000004,3.95313 c-0.23958000000000004,1.5208300000000001 -0.6770800000000007,2.28125 -1.3125,2.28125 h-10.15625 v8 l17.21875,-8.25 c0.90625,0 -0.98437,9.42188 -0.6718700000000009,11.76563 c0.16667,1.02083 0.25,2.10417 0.25,3.25 c0,1.1458300000000001 -0.16146000000000024,2.625 -0.4843700000000004,4.4375 c-0.3229200000000005,1.8125 -0.8541700000000005,2.71875 -1.59375,2.71875 h-27.35941 c-2.03125,0 -3.04687,-0.8281200000000005 -3.04687,-2.48437 v-51.4375 c0,-1.38542 0.61458,-2.07812 1.84375,-2.07812 h28.64066 c1.1145800000000001,0 1.6718800000000007,2.3593800000000003 1.6718800000000007,7.07813 c0,4.71875 -0.5572900000000005,7.07813 -1.6718700000000006,7.07813 h-14.79687 v8.07813 zM588.65084,366.4822397503662 h-3.92187 c-0.80208,0 -1.20312,-1.7708300000000001 -1.20312,-5.3125 c0,-3.55208 0.40104,-5.32812 1.20313,-5.32812 h3.92188 v-1.7656200000000006 c0,-5.64583 1.1875,-9.54687 3.5625,-11.70312 c2.375,-2.16667 5.69271,-3.25 9.95313,-3.25 c4.27083,0 8.03125,0.77083 11.28125,2.3125 c0.42708000000000035,0.16667 0.6406300000000008,0.7447900000000008 0.6406300000000008,1.73438 c0,0.97917 -0.45312,2.5625 -1.3593700000000002,4.75 c-0.90625,2.1875 -1.6770800000000001,3.44271 -2.3125,3.7656300000000007 c-1.8125,-1.125 -3.68229,-1.6875 -5.60937,-1.6875 c-2.07292,0 -3.10937,1.38542 -3.10937,4.15625 v1.6875 h6.64063 c0.95833,0 1.4375,1.7083300000000001 1.4375,5.125 c0,3.72917 -0.61458,5.59375 -1.84375,5.59375 h-5.125 v28.32813 c0,0.6354200000000005 -2.35937,0.95313 -7.07812,0.95313 c-4.71875,0 -7.07812,-0.31771000000000027 -7.07812,-0.9531200000000005 zM618.65081,366.4822397503662 h-3.92187 c-0.80208,0 -1.20312,-1.7708300000000001 -1.20312,-5.3125 c0,-3.55208 0.40104,-5.32812 1.20313,-5.32812 h3.92188 v-1.7656200000000006 c0,-5.64583 1.1875,-9.54687 3.5625,-11.70312 c2.375,-2.16667 5.69271,-3.25 9.95313,-3.25 c4.27083,0 8.03125,0.77083 11.28125,2.3125 c0.42708000000000035,0.16667 0.6406300000000008,0.7447900000000008 0.6406300000000008,1.73438 c0,0.97917 -0.45312,2.5625 -1.3593700000000002,4.75 c-0.90625,2.1875 -1.6770800000000001,3.44271 -2.3125,3.7656300000000007 c-1.8125,-1.125 -3.68229,-1.6875 -5.60937,-1.6875 c-2.07292,0 -3.10937,1.38542 -3.10937,4.15625 v1.6875 h6.64063 c0.95833,0 1.4375,1.7083300000000001 1.4375,5.125 c0,3.72917 -0.61458,5.59375 -1.84375,5.59375 h-5.125 v28.32813 c0,0.6354200000000005 -2.35937,0.95313 -7.07812,0.95313 c-4.71875,0 -7.07812,-0.31771000000000027 -7.07812,-0.9531200000000005 zM660.807,396.63849975036624 c-5.28125,0 -9.73437,-1.7968700000000002 -13.35937,-5.39062 c-3.62498,-3.60417 -5.43747,-8.59375 -5.43747,-14.96875 c0,-6.375 1.74478,-11.50521 5.23434,-15.39062 c3.5,-3.89583 7.91667,-5.84375 13.25,-5.84375 c5.33333,0 9.45313,1.35938 12.35938,4.07813 c2.90625,2.71875 4.35938,6.02604 4.35938,9.92188 c0,8.63542 -4.95833,12.95313 -14.875,12.95313 h-5.53125 c0,1.60417 0.4375000000000003,2.71354 1.3125,3.32813 c0.8854200000000005,0.61458 2.18229,0.92188 3.8906300000000007,0.92188 c3.73958,0 7.28646,-0.8541700000000005 10.64063,-2.5625 c0.052080000000000036,-0.052080000000000036 0.29167000000000026,0.31771000000000027 0.7187500000000006,1.10938 c1.28125,2.30208 1.92188,4.23958 1.92188,5.8125 c0,1.57292 -0.5052099999999995,2.59896 -1.5156200000000002,3.07813 c0,0 -7.68753,2.95308 -12.96878,2.95308 zM663.77575,370.5603697503662 c0,-2.23958 -1.09375,-3.35937 -3.28125,-3.35937 c-1.01042,0 -1.88021,0.30729 -2.60937,0.92188 c-0.7187500000000006,0.61458 -1.07812,1.50521 -1.07812,2.6718800000000007 v2.4843800000000003 h4.32813 c1.76042,0 2.6406300000000007,-0.90625 2.6406300000000007,-2.71875 zM695.5307,375.9978697503662 c0,5.22917 1.97396,7.84375 5.92188,7.84375 c2.5625,0 8.69792,-4.25521 10.40625,-5.26562 c0.7916700000000005,0 -2.55729,5.125 -2.04687,7.875 c0.51042,2.73958 0.7656300000000008,4.60417 0.7656300000000008,5.59375 c0,0.9895799999999995 -0.13542,1.6406300000000007 -0.40625,1.95313 c-2.82292,1.76042 -6.6875,2.6406300000000007 -11.59375,2.6406300000000007 c-4.90625,0 -9.08333,-1.82292 -12.53125,-5.46875 c-3.4375,-3.65625 -5.15625,-8.64583 -5.15625,-14.96875 c0,-6.32292 1.6927100000000008,-11.42708 5.07813,-15.3125 c3.38542,-3.89583 7.89063,-5.84375 13.51563,-5.84375 c5.63542,0 9.54688,1.35938 11.73438,4.07813 c0.47917000000000026,0.58333 0.7187500000000006,1.44792 0.7187500000000006,2.59375 c0,1.1458300000000001 -0.2135400000000002,2.54688 -0.6406200000000009,4.20313 c-0.95833,3.41667 -2.21354,5.39063 -3.76562,5.92188 c-0.20833000000000004,0.052080000000000036 -1.01562,1.82813 -1.4218700000000002,1.82813 c-0.39583000000000035,0 -0.3906200000000004,-2.06771 -0.98437,-2.70312 c-2.07292,-2.08333 -3.73958,-3.125 -5,-3.125 c-1.25,0 -2.32812,0.6406300000000008 -3.23437,1.92188 c-0.90625,1.28125 -1.3593700000000002,3.3593800000000003 -1.3593700000000002,6.23438 zM734.7319299999999,395.35724975036624 c0,0.6458300000000007 -2.23958,0.9687500000000006 -6.71875,0.9687500000000006 c-5.33333,-0.21875000000000014 -8,-0.56771 -8,-1.04687 v-28.3125 h-4.07812 c-1.07292,0 -1.6093700000000002,-1.84375 -1.6093700000000002,-5.53125 c0,-0.95833 0.09375000000000014,-2.13021 0.28125,-3.51562 c0.18750000000000014,-1.38542 0.57813,-2.07812 1.17188,-2.07812 h4.23438 v-7.04687 c0,-1.0625 2.25,-1.59375 6.75,-1.59375 c4.51042,0 6.76563,0.42708000000000035 6.76563,1.28125 v5.125 l0.07813000000000009,2.23438 h6.8125 c0.90625,0 1.35938,1.86979 1.35938,5.60938 c0,3.72917 -0.45312,5.59375 -1.3593700000000002,5.59375 h-5.6875 zM747.45318,381.4353797503662 c4.32292,2.61458 7.73438,3.92188 10.23438,3.92188 c1.60417,0 2.40625,-0.5572900000000005 2.40625,-1.6718700000000006 c0,-0.80208 -1.38542,-1.84375 -4.15625,-3.125 c-6.66667,-2.71875 -10,-7.17187 -10,-13.35937 c0,-3.94792 1.4375,-6.95833 4.3125,-9.03125 c2.88542,-2.08333 6.33854,-3.125 10.35938,-3.125 c4.03125,0 7.44271,0.42708000000000035 10.23438,1.28125 c2.80208,0.8541700000000005 4.20313,1.97396 4.20313,3.3593800000000003 c0,1.16667 -0.5729200000000005,2.71354 -1.71875,4.64063 c-1.1458300000000001,1.91667 -1.93229,2.95313 -2.35937,3.10938 c-2.29167,-1.2708300000000001 -4.77083,-1.90625 -7.4375,-1.90625 c-1.4375,0 -2.15625,0.5052099999999995 -2.15625,1.51563 c0,0.6354200000000005 0.27604,1.18229 0.82813,1.6406300000000007 c0.5625,0.4479200000000005 1.58854,1.00521 3.07813,1.6718800000000007 c1.5,0.6666700000000011 2.73958,1.2708300000000001 3.71875,1.8125 c0.9895799999999995,0.53125 2.09896,1.27604 3.32813,2.23438 c2.5625,2.02083 3.84375,4.66146 3.84375,7.92188 c0,4.26042 -1.41667,7.71354 -4.25,10.35938 c-2.82292,2.63542 -7.08854,3.95313 -12.79687,3.95313 c-3.78125,0 -7.21875,-0.6406200000000009 -10.3125,-1.9218700000000002 c-3.09375,-1.28125 -4.64062,-3.04167 -4.64062,-5.28125 c0,-1.4895800000000001 0.3593800000000004,-3.05729 1.07813,-4.70312 c0.7187500000000006,-1.65625 1.45313,-2.75521 2.20313,-3.29687 z" fill="none" stroke-opacity="0.54902" stroke="#000000" stroke-width="12.5" stroke-linecap="square" id="svg_10" class=""/>
    <path d="M317.85360000000003,382.07599975036624 v-28.46875 h-5.6875 c-0.90625,0 -1.54167,-1.15104 -1.90625,-3.45312 c-0.16667,-1.1145800000000001 -0.25,-2.25521 -0.25,-3.42187 c0,-1.1770800000000001 0.08333000000000007,-2.32812 0.25,-3.45312 c0.36458000000000035,-2.29167 1,-3.4375 1.90625,-3.4375 h26.89063 c0.90625,0 1.51563,1.1458300000000001 1.82813,3.4375 c0.21875000000000014,1.125 0.32813000000000025,2.27604 0.32813000000000025,3.45313 c0,1.16667 -0.10937000000000002,2.30729 -0.3281200000000004,3.4218800000000003 c-0.3125000000000003,2.30208 -0.9218700000000005,3.45313 -1.8281200000000002,3.45313 h-5.35937 v28.46875 h5.59375 c0.90625,0 1.54688,1.15104 1.92188,3.45313 c0.20833000000000004,1.1145800000000001 0.3125000000000003,2.26042 0.3125000000000003,3.4375 c0,1.16667 -0.10417000000000007,2.3125 -0.3125000000000003,3.4375 c-0.3750000000000003,2.29167 -1.01562,3.4375 -1.9218700000000002,3.4375 h-26.95312 c-0.90625,0 -1.5208300000000001,-1.1458300000000001 -1.84375,-3.4375 c-0.21875000000000014,-1.125 -0.3281200000000004,-2.27083 -0.3281200000000004,-3.4375 c0,-1.1770800000000001 0.10938,-2.32292 0.32813000000000025,-3.4375 c0.3229200000000005,-2.30208 0.9375,-3.45312 1.84375,-3.45312 zM382.73606,395.4353797503662 c0,0.3750000000000003 -2.28125,0.5625 -6.84375,0.5625 c-4.5625,0 -6.84375,-0.23958000000000004 -6.84375,-0.7187500000000006 v-23.28125 c0,-2.6666700000000008 -0.88021,-4 -2.64062,-4 c-0.90625,0 -2.10417,0.5885400000000005 -3.59375,1.7656300000000007 v25.59375 c0,0.53125 -2.28125,0.79688 -6.84375,0.79688 c-4.5625,0 -6.84375,-0.29167000000000026 -6.84375,-0.8750000000000006 v-26.15625 h-2 c-1.76042,0 -2.64062,-1.83854 -2.64062,-5.51562 c0,-1.65625 0.3229200000000005,-3.33854 0.9687500000000006,-5.04687 c0.8541700000000005,-2.34375 2.23958,-3.51562 4.15625,-3.51562 c1.91667,0 3.7656300000000007,0.5052099999999995 5.54688,1.51563 c1.79167,1.01042 2.875,1.96875 3.25,2.875 c3.3125,-2.92708 6.97917,-4.39062 11,-4.39062 c4.03125,0 7.27083,1.25 9.71875,3.75 c2.88542,-2.5 6.35417,-3.75 10.40625,-3.75 c8.80207,0 13.20311,5.35938 13.20311,16.07813 v24.3125 c0,0.3750000000000003 -2.28125,0.5625 -6.84375,0.5625 c-4.56249,0 -6.84373,-0.23958000000000004 -6.84373,-0.7187500000000006 v-23.28125 c0,-2.6666700000000008 -0.88021,-4 -2.64062,-4 c-0.95833,0 -2.18229,0.5885400000000005 -3.67187,1.7656300000000007 v25.67188 zM414.57286999999997,366.7947397503662 c-1.4895800000000001,-2.6666700000000008 -2.23437,-4.83854 -2.23437,-6.51562 c0,-1.6770800000000001 0.45313,-2.75521 1.35938,-3.23437 c3.03125,-1.3333300000000001 7.19792,-2 12.5,-2 c5.3125,0 9.0625,1.2395800000000001 11.25,3.71875 c2.1875,2.47917 3.28125,6.14583 3.28125,11 v12.64063 h2.71875 c0.90625,0 1.6145800000000001,0.5364599999999995 2.125,1.60938 c0.51042,1.0625 0.7656300000000008,2.52604 0.7656300000000008,4.39063 c0,1.8645800000000001 -0.46875,3.70313 -1.40625,5.51563 c-0.9375,1.8125 -2.20312,2.71875 -3.79687,2.71875 c-2.88542,0 -5.20833,-0.77083 -6.96875,-2.3125 c-0.7916700000000005,-0.6458300000000007 -1.40104,-1.4218700000000002 -1.8281200000000002,-2.32812 c-2.45833,3.09375 -6.27604,4.64063 -11.45312,4.64063 c-3.88542,0 -7.16146,-1.38542 -9.82812,-4.15625 c-2.6666700000000008,-2.77083 -4,-6.05208 -4,-9.84375 c0,-8.6875 5.19792,-13.03125 15.59375,-13.03125 h4.40625 v-0.8125 c0,-1.38542 -0.22917,-2.27604 -0.6875000000000006,-2.67187 c-0.4479200000000005,-0.39583000000000035 -1.5,-0.5937500000000006 -3.15625,-0.5937500000000006 c-2.03125,0 -4.91146,0.4218800000000004 -8.64062,1.26563 zM421.93225,384.20099975036624 c0.6354200000000005,0.61458 1.44792,0.92188 2.4375,0.92188 c0.9895799999999995,0 1.88542,-0.40104 2.6875,-1.20312 v-6.15625 h-2.25 c-2.55208,0 -3.82812,1.25521 -3.82812,3.7656300000000007 c0,0 0.31770000000000026,2.05727 0.9531200000000005,2.67186 zM465.6047,395.8416297503662 c-5.16667,0 -9.16667,-1.6666700000000012 -12,-5 c-2.82292,-3.33333 -4.23437,-8.26562 -4.23437,-14.79687 c0,-6.53125 1.85417,-11.65104 5.5625,-15.35937 c3.70833,-3.70833 8.64063,-5.5625 14.79688,-5.5625 c6.16667,0 11.25,1.35938 15.25,4.07813 v39.84375 c0,3.94792 -1.60417,6.97396 -4.8125,9.07813 c-3.19792,2.10417 -7.30208,3.15625 -12.3125,3.15625 c-5.01042,0 -9.48958,-0.6406200000000009 -13.4375,-1.9218700000000002 c-0.5416700000000005,-1.28125 -0.8125,-2.42708 -0.8125,-3.4375 c0,-3.41667 0.5625,-5.92187 1.6875,-7.51562 c3.57292,1.54167 7.38542,2.3125 11.4375,2.3125 c2.9375,0 4.40625,-1.03646 4.40625,-3.10937 v-2.40625 c-2.29167,0.42708000000000035 -4.13542,0.6406300000000008 -5.53125,0.6406300000000008 zM469.2922,368.1541197503662 c-3.57292,0 -5.35937,2.6979200000000008 -5.35937,8.09375 c0,3.35417 0.6927100000000008,5.53646 2.07813,6.54688 c0.90625,0.6979200000000011 1.8125,1.04688 2.71875,1.04688 c0.90625,0 1.7083300000000001,-0.0781200000000001 2.40625,-0.23437 v-15.20312 c-0.6458300000000007,-0.16667 -1.26042,-0.25 -1.84375,-0.25 zM522.41592,393.6853797503662 c-3.36458,1.96875 -7.6875,2.95313 -12.96875,2.95313 c-5.28125,0 -9.73437,-1.7968700000000002 -13.35937,-5.39062 c-3.625,-3.60417 -5.4375,-8.59375 -5.4375,-14.96875 c0,-6.375 1.74479,-11.50521 5.23438,-15.39062 c3.5,-3.89583 7.91667,-5.84375 13.25,-5.84375 c5.33333,0 9.45313,1.35938 12.35938,4.07813 c2.90625,2.71875 4.35938,6.02604 4.35938,9.92188 c0,8.63542 -4.95833,12.95313 -14.875,12.95313 h-5.53125 c0,1.60417 0.4375000000000003,2.71354 1.3125,3.32813 c0.8854200000000005,0.61458 2.18229,0.92188 3.8906300000000007,0.92188 c3.73958,0 7.28646,-0.8541700000000005 10.64063,-2.5625 c0.052080000000000036,-0.052080000000000036 0.29167000000000026,0.31771000000000027 0.7187500000000006,1.10938 c1.28125,2.30208 1.92188,4.23958 1.92188,5.8125 c0,1.57292 -0.5052099999999995,2.59896 -1.5156200000000002,3.07813 zM512.41592,370.5603697503662 c0,-2.23958 -1.09375,-3.35937 -3.28125,-3.35937 c-1.01042,0 -1.88021,0.30729 -2.60937,0.92188 c-0.7187500000000006,0.61458 -1.07812,1.50521 -1.07812,2.6718800000000007 v2.4843800000000003 h4.32813 c1.76042,0 2.6406300000000007,-0.90625 2.6406300000000007,-2.71875 zM572.49215,362.0759897503662 c1.01042,0 1.51563,1.86979 1.51563,5.60938 c0,1.1145800000000001 -0.11979000000000019,2.43229 -0.3593700000000004,3.95313 c-0.23958000000000004,1.5208300000000001 -0.6770800000000007,2.28125 -1.3125,2.28125 h-10.15625 v8 h14.71875 c0.90625,0 1.51563,1.17188 1.82813,3.51563 c0.16667,1.02083 0.25,2.10417 0.25,3.25 c0,1.1458300000000001 -0.16146000000000024,2.625 -0.4843700000000004,4.4375 c-0.3229200000000005,1.8125 -0.8541700000000005,2.71875 -1.59375,2.71875 h-27.35941 c-2.03125,0 -3.04687,-0.8281200000000005 -3.04687,-2.48437 v-51.4375 c0,-1.38542 0.61458,-2.07812 1.84375,-2.07812 h28.64066 c1.1145800000000001,0 1.6718800000000007,2.3593800000000003 1.6718800000000007,7.07813 c0,4.71875 -0.5572900000000005,7.07813 -1.6718700000000006,7.07813 h-14.79687 v8.07813 zM588.65084,366.4822397503662 h-3.92187 c-0.80208,0 -1.20312,-1.7708300000000001 -1.20312,-5.3125 c0,-3.55208 0.40104,-5.32812 1.20313,-5.32812 h3.92188 v-1.7656200000000006 c0,-5.64583 1.1875,-9.54687 3.5625,-11.70312 c2.375,-2.16667 5.69271,-3.25 9.95313,-3.25 c4.27083,0 8.03125,0.77083 11.28125,2.3125 c0.42708000000000035,0.16667 0.6406300000000008,0.7447900000000008 0.6406300000000008,1.73438 c0,0.97917 -0.45312,2.5625 -1.3593700000000002,4.75 c-0.90625,2.1875 -1.6770800000000001,3.44271 -2.3125,3.7656300000000007 c-1.8125,-1.125 -3.68229,-1.6875 -5.60937,-1.6875 c-2.07292,0 -3.10937,1.38542 -3.10937,4.15625 v1.6875 h6.64063 c0.95833,0 1.4375,1.7083300000000001 1.4375,5.125 c0,3.72917 -0.61458,5.59375 -1.84375,5.59375 h-5.125 v28.32813 c0,0.6354200000000005 -2.35937,0.95313 -7.07812,0.95313 c-4.71875,0 -7.07812,-0.31771000000000027 -7.07812,-0.9531200000000005 zM618.65081,366.4822397503662 h-3.92187 c-0.80208,0 -1.20312,-1.7708300000000001 -1.20312,-5.3125 c0,-3.55208 0.40104,-5.32812 1.20313,-5.32812 h3.92188 v-1.7656200000000006 c0,-5.64583 1.1875,-9.54687 3.5625,-11.70312 c2.375,-2.16667 5.69271,-3.25 9.95313,-3.25 c4.27083,0 8.03125,0.77083 11.28125,2.3125 c0.42708000000000035,0.16667 0.6406300000000008,0.7447900000000008 0.6406300000000008,1.73438 c0,0.97917 -0.45312,2.5625 -1.3593700000000002,4.75 c-0.90625,2.1875 -1.6770800000000001,3.44271 -2.3125,3.7656300000000007 c-1.8125,-1.125 -3.68229,-1.6875 -5.60937,-1.6875 c-2.07292,0 -3.10937,1.38542 -3.10937,4.15625 v1.6875 h6.64063 c0.95833,0 1.4375,1.7083300000000001 1.4375,5.125 c0,3.72917 -0.61458,5.59375 -1.84375,5.59375 h-5.125 v28.32813 c0,0.6354200000000005 -2.35937,0.95313 -7.07812,0.95313 c-4.71875,0 -7.07812,-0.31771000000000027 -7.07812,-0.9531200000000005 zM673.77575,393.6853797503662 c-3.36458,1.96875 -7.6875,2.95313 -12.96875,2.95313 c-5.28125,0 -9.73437,-1.7968700000000002 -13.35937,-5.39062 c-3.62498,-3.60417 -5.43747,-8.59375 -5.43747,-14.96875 c0,-6.375 1.74478,-11.50521 5.23434,-15.39062 c3.5,-3.89583 7.91667,-5.84375 13.25,-5.84375 c5.33333,0 9.45313,1.35938 12.35938,4.07813 c2.90625,2.71875 4.35938,6.02604 4.35938,9.92188 c0,8.63542 -4.95833,12.95313 -14.875,12.95313 h-5.53125 c0,1.60417 0.4375000000000003,2.71354 1.3125,3.32813 c0.8854200000000005,0.61458 2.18229,0.92188 3.8906300000000007,0.92188 c3.73958,0 7.28646,-0.8541700000000005 10.64063,-2.5625 c0.052080000000000036,-0.052080000000000036 0.29167000000000026,0.31771000000000027 0.7187500000000006,1.10938 c1.28125,2.30208 1.92188,4.23958 1.92188,5.8125 c0,1.57292 -0.5052099999999995,2.59896 -1.5156200000000002,3.07813 zM663.77575,370.5603697503662 c0,-2.23958 -1.09375,-3.35937 -3.28125,-3.35937 c-1.01042,0 -1.88021,0.30729 -2.60937,0.92188 c-0.7187500000000006,0.61458 -1.07812,1.50521 -1.07812,2.6718800000000007 v2.4843800000000003 h4.32813 c1.76042,0 2.6406300000000007,-0.90625 2.6406300000000007,-2.71875 zM695.5307,375.9978697503662 c0,5.22917 1.97396,7.84375 5.92188,7.84375 c2.5625,0 4.69792,-0.5052099999999995 6.40625,-1.5156200000000002 c0.7916700000000005,0 1.44271,1.375 1.95313,4.125 c0.51042,2.73958 0.7656300000000008,4.60417 0.7656300000000008,5.59375 c0,0.9895799999999995 -0.13542,1.6406300000000007 -0.40625,1.95313 c-2.82292,1.76042 -6.6875,2.6406300000000007 -11.59375,2.6406300000000007 c-4.90625,0 -9.08333,-1.82292 -12.53125,-5.46875 c-3.4375,-3.65625 -5.15625,-8.64583 -5.15625,-14.96875 c0,-6.32292 1.6927100000000008,-11.42708 5.07813,-15.3125 c3.38542,-3.89583 7.89063,-5.84375 13.51563,-5.84375 c5.63542,0 9.54688,1.35938 11.73438,4.07813 c0.47917000000000026,0.58333 0.7187500000000006,1.44792 0.7187500000000006,2.59375 c0,1.1458300000000001 -0.2135400000000002,2.54688 -0.6406200000000009,4.20313 c-0.95833,3.41667 -2.21354,5.39063 -3.76562,5.92188 c-0.20833000000000004,0.052080000000000036 -0.5156200000000005,0.07813000000000009 -0.9218700000000005,0.07813000000000009 c-0.39583000000000035,0 -0.8906200000000009,-0.31771000000000027 -1.4843700000000002,-0.9531200000000005 c-2.07292,-2.08333 -3.73958,-3.125 -5,-3.125 c-1.25,0 -2.32812,0.6406300000000008 -3.23437,1.92188 c-0.90625,1.28125 -1.3593700000000002,3.3593800000000003 -1.3593700000000002,6.23438 zM734.7319299999999,395.35724975036624 c0,0.6458300000000007 -2.23958,0.9687500000000006 -6.71875,0.9687500000000006 c-5.33333,-0.21875000000000014 -8,-0.56771 -8,-1.04687 v-28.3125 h-4.07812 c-1.07292,0 -1.6093700000000002,-1.84375 -1.6093700000000002,-5.53125 c0,-0.95833 0.09375000000000014,-2.13021 0.28125,-3.51562 c0.18750000000000014,-1.38542 0.57813,-2.07812 1.17188,-2.07812 h4.23438 v-7.04687 c0,-1.0625 2.25,-1.59375 6.75,-1.59375 c4.51042,0 6.76563,0.42708000000000035 6.76563,1.28125 v5.125 l0.07813000000000009,2.23438 h6.8125 c0.90625,0 1.35938,1.86979 1.35938,5.60938 c0,3.72917 -0.45312,5.59375 -1.3593700000000002,5.59375 h-5.6875 zM747.45318,381.4353797503662 c4.32292,2.61458 7.73438,3.92188 10.23438,3.92188 c1.60417,0 2.40625,-0.5572900000000005 2.40625,-1.6718700000000006 c0,-0.80208 -1.38542,-1.84375 -4.15625,-3.125 c-6.66667,-2.71875 -10,-7.17187 -10,-13.35937 c0,-3.94792 1.4375,-6.95833 4.3125,-9.03125 c2.88542,-2.08333 6.33854,-3.125 10.35938,-3.125 c4.03125,0 7.44271,0.42708000000000035 10.23438,1.28125 c2.80208,0.8541700000000005 4.20313,1.97396 4.20313,3.3593800000000003 c0,1.16667 -0.5729200000000005,2.71354 -1.71875,4.64063 c-1.1458300000000001,1.91667 -1.93229,2.95313 -2.35937,3.10938 c-2.29167,-1.2708300000000001 -4.77083,-1.90625 -7.4375,-1.90625 c-1.4375,0 -2.15625,0.5052099999999995 -2.15625,1.51563 c0,0.6354200000000005 0.27604,1.18229 0.82813,1.6406300000000007 c0.5625,0.4479200000000005 1.58854,1.00521 3.07813,1.6718800000000007 c1.5,0.6666700000000011 2.73958,1.2708300000000001 3.71875,1.8125 c0.9895799999999995,0.53125 2.09896,1.27604 3.32813,2.23438 c2.5625,2.02083 3.84375,4.66146 3.84375,7.92188 c0,4.26042 -1.41667,7.71354 -4.25,10.35938 c-2.82292,2.63542 -7.08854,3.95313 -12.79687,3.95313 c-3.78125,0 -7.21875,-0.6406200000000009 -10.3125,-1.9218700000000002 c-3.09375,-1.28125 -4.64062,-3.04167 -4.64062,-5.28125 c0,-1.4895800000000001 0.3593800000000004,-3.05729 1.07813,-4.70312 c0.7187500000000006,-1.65625 1.45313,-2.75521 2.20313,-3.29687 z" fill="#ffffff" stroke="none" stroke-width="1" stroke-linecap="square" id="svg_11" class=""/>
    <g stroke="none" stroke-width="1" stroke-linecap="butt" id="svg_12" class="" transform="rotate(-6.832038879394531 365.0004272460938,293.2017211914063) " filter="url(#f071)">
      <path d="M405.76207999999997,337.2024097503662 c-0.8285,0 -1.657,-0.3166000000000003 -2.2902,-0.9472 l-80.8459,-80.8485 c-1.2638,-1.2638 -1.2638,-3.3165 0,-4.5804 c1.2638,-1.2638 3.3166,-1.2638 4.5804,0 l80.8459,80.8459 c1.2638,1.2638 1.2638,3.3165 0,4.5804 c-0.6333000000000006,0.6306000000000012 -1.4618,0.9498000000000006 -2.2903000000000002,0.9498000000000006 z" fill="#d99e82" id="svg_13" filter="url(#f071)"/>
      <path d="M356.63078,267.01610975036624 c0,9.8389 -7.9761,17.815 -17.815,17.815 c-9.839,0 -17.8151,-7.9761 -17.8151,-17.815 c0,-9.839 7.9761,-17.8151 17.8151,-17.8151 c9.8389,0 17.815,7.9761 17.815,17.8151 z" fill="#fcb1e3" id="svg_14" filter="url(#f071)"/>
      <path d="M354.16138,303.7946097503662 c-9.5757,-2.2611 -15.5052,-11.8567 -13.2441,-21.4324 c2.2611,-9.5756 11.8567,-15.5052 21.4323,-13.2441 c9.5757,2.2611 15.5053,11.8567 13.2441,21.4324 c-2.2611,9.5756 -11.8567,15.5052 -21.4323,13.2441 z" fill="#ffd983" id="svg_15" filter="url(#f071)"/>
      <path d="M395.50358,305.8862097503662 c0,9.839 -7.9787,17.8177 -17.8177,17.8177 c-9.8389,0 -17.815,-7.9788 -17.815,-17.8177 c0,-9.8389 7.9761,-17.815 17.815,-17.815 c9.839,0 17.8177,7.9788 17.8177,17.815 z" fill="#a6d388" id="svg_16" filter="url(#f071)"/>
      <path d="M405.76207999999997,337.2024097503662 c-0.8285,0 -1.657,-0.3166000000000003 -2.2902,-0.9472 l-19.8415,-19.8414 c-1.2664,-1.2638 -1.2664,-3.3166 0,-4.5804 c1.2665,-1.2638 3.314,-1.2638 4.5804,0 l19.8415,19.8414 c1.2638,1.2638 1.2638,3.3166 0,4.5804 c-0.6333000000000006,0.6280000000000009 -1.4618,0.9472 -2.2903000000000002,0.9472 z" fill="#d99e82" id="svg_17" filter="url(#f071)"/>
    </g>
    <g stroke="none" stroke-width="1" stroke-linecap="butt" class="" transform="rotate(7.467829704284668 413.8213500976551,262.5071105957035) " id="svg_42" filter="url(#f015)">
      <path d="M456.4201131477949,308.49090414327276 c-0.865839846849442,0 -1.7316796936988847,-0.3308689143180856 -2.3934175223350524,-0.9898895629882813 l-84.48956146578789,-84.49227864575386 c-1.320758477306366,-1.320758477306366 -1.320758477306366,-3.4659720604419713 0,-4.786835044670105 c1.320758477306366,-1.320758477306366 3.4660765673637393,-1.320758477306366 4.786835044670105,0 l84.48956146578789,84.48956146578789 c1.320758477306366,1.320758477306366 1.320758477306366,3.4659720604419713 0,4.786835044670105 c-0.6618423355579386,0.6590206486702 -1.5276821824073792,0.9926067429542543 -2.393522029256821,0.9926067429542543 z" fill="#d99e82" id="svg_43" filter="url(#f015)"/>
      <path d="M405.07450389310094,235.14136251028674 c0,10.282331525850296 -8.335576587152481,18.617908113002777 -18.617908113002777,18.617908113002777 c-10.282436032772065,0 -18.618012619924546,-8.335576587152481 -18.618012619924546,-18.617908113002777 c0,-10.282436032772065 8.335576587152481,-18.618012619924546 18.618012619924546,-18.618012619924546 c10.282331525850296,0 18.617908113002777,8.335576587152481 18.617908113002777,18.618012619924546 z" fill="#fcb1e3" id="svg_44" filter="url(#f015)"/>
      <path d="M402.4938099669573,273.5774407327999 c-10.007269307756424,-2.3630060081005095 -16.20400723400116,-12.391072193288803 -13.84100122590065,-22.398341501045227 c2.3630060081005095,-10.007164800834655 12.391072193288803,-16.20400723400116 22.39823699412346,-13.84100122590065 c10.007269307756424,2.3630060081005095 16.20411174092293,12.391072193288803 13.84100122590065,22.398341501045227 c-2.3630060081005095,10.007164800834655 -12.391072193288803,16.20400723400116 -22.39823699412346,13.84100122590065 z" fill="#ffd983" id="svg_45" filter="url(#f015)"/>
      <path d="M445.6992705782053,275.7633075085034 c0,10.282436032772065 -8.338293767118454,18.620729799890515 -18.620729799890515,18.620729799890515 c-10.282331525850296,0 -18.617908113002777,-8.338398274040221 -18.617908113002777,-18.620729799890515 c0,-10.282331525850296 8.335576587152481,-18.617908113002777 18.617908113002777,-18.617908113002777 c10.282436032772065,0 18.620729799890515,8.338398274040221 18.620729799890515,18.617908113002777 z" fill="#a6d388" id="svg_46" filter="url(#f015)"/>
      <path d="M456.4201131477949,308.49090414327276 c-0.865839846849442,0 -1.7316796936988847,-0.3308689143180856 -2.3934175223350524,-0.9898895629882813 l-20.735740882635117,-20.735636375713348 c-1.3234756572723387,-1.320758477306366 -1.3234756572723387,-3.4660765673637393 0,-4.786835044670105 c1.3235801641941074,-1.320758477306366 3.4633593873977664,-1.320758477306366 4.786835044670105,0 l20.735740882635117,20.735636375713348 c1.320758477306366,1.320758477306366 1.320758477306366,3.4660765673637393 0,4.786835044670105 c-0.6618423355579386,0.6563034687042255 -1.5276821824073792,0.9898895629882813 -2.393522029256821,0.9898895629882813 z" fill="#d99e82" id="svg_47" filter="url(#f015)"/>
    </g>
    <g stroke="none" stroke-width="1" stroke-linecap="butt" class="" transform="rotate(82.3410873413086 669.5272216796874,260.2130126953125) " id="svg_54" filter="url(#f030)">
      <path d="M712.1259952202436,306.1967862157215 c-0.865839846849442,0 -1.7316796936988847,-0.3308689143180856 -2.3934175223350524,-0.9898895629882813 l-84.48956146578789,-84.49227864575386 c-1.320758477306366,-1.320758477306366 -1.320758477306366,-3.4659720604419713 0,-4.786835044670105 c1.320758477306366,-1.320758477306366 3.4660765673637393,-1.320758477306366 4.786835044670105,0 l84.48956146578789,84.48956146578789 c1.320758477306366,1.320758477306366 1.320758477306366,3.4659720604419713 0,4.786835044670105 c-0.6618423355579386,0.6590206486702 -1.5276821824073792,0.9926067429542543 -2.393522029256821,0.9926067429542543 z" fill="#d99e82" id="svg_55" filter="url(#f030)"/>
      <path d="M660.7803859655496,232.84724458273547 c0,10.282331525850296 -8.335576587152481,18.617908113002777 -18.617908113002777,18.617908113002777 c-10.282436032772065,0 -18.618012619924546,-8.335576587152481 -18.618012619924546,-18.617908113002777 c0,-10.282436032772065 8.335576587152481,-18.618012619924546 18.618012619924546,-18.618012619924546 c10.282331525850296,0 18.617908113002777,8.335576587152481 18.617908113002777,18.618012619924546 z" fill="#fcb1e3" id="svg_56" filter="url(#f030)"/>
      <path d="M658.199692039406,271.28332280524864 c-10.007269307756424,-2.3630060081005095 -16.20400723400116,-12.391072193288803 -13.84100122590065,-22.398341501045227 c2.3630060081005095,-10.007164800834655 12.391072193288803,-16.20400723400116 22.39823699412346,-13.84100122590065 c10.007269307756424,2.3630060081005095 16.20411174092293,12.391072193288803 13.84100122590065,22.398341501045227 c-2.3630060081005095,10.007164800834655 -12.391072193288803,16.20400723400116 -22.39823699412346,13.84100122590065 z" fill="#ffd983" id="svg_57" filter="url(#f030)"/>
      <path d="M701.405152650654,273.4691895809521 c0,10.282436032772065 -8.338293767118454,18.620729799890515 -18.620729799890515,18.620729799890515 c-10.282331525850296,0 -18.617908113002777,-8.338398274040221 -18.617908113002777,-18.620729799890515 c0,-10.282331525850296 8.335576587152481,-18.617908113002777 18.617908113002777,-18.617908113002777 c10.282436032772065,0 18.620729799890515,8.338398274040221 18.620729799890515,18.617908113002777 z" fill="#a6d388" id="svg_58" filter="url(#f030)"/>
      <path d="M712.1259952202436,306.1967862157215 c-0.865839846849442,0 -1.7316796936988847,-0.3308689143180856 -2.3934175223350524,-0.9898895629882813 l-20.735740882635117,-20.735636375713348 c-1.3234756572723387,-1.320758477306366 -1.3234756572723387,-3.4660765673637393 0,-4.786835044670105 c1.3235801641941074,-1.320758477306366 3.4633593873977664,-1.320758477306366 4.786835044670105,0 l20.735740882635117,20.735636375713348 c1.320758477306366,1.320758477306366 1.320758477306366,3.4660765673637393 0,4.786835044670105 c-0.6618423355579386,0.6563034687042255 -1.5276821824073792,0.9898895629882813 -2.393522029256821,0.9898895629882813 z" fill="#d99e82" id="svg_59" filter="url(#f030)"/>
    </g>
    <g stroke="none" stroke-width="1" stroke-linecap="butt" class="" transform="rotate(66.35710906982422 612.1472778320312,239.5809478759765) " id="svg_60" filter="url(#f111)">
      <path d="M656.3905572448177,287.33982274664845 c-0.8992642304617666,0 -1.7985284609235341,-0.3436415876453786 -2.4858116362142852,-1.0281026905170598 l-87.75114791730698,-87.75396998972604 c-1.3717442781624372,-1.3717442781624372 -1.3717442781624372,-3.5997704530192456 0,-4.9716232724285705 c1.3717442781624372,-1.3717442781624372 3.5998789942661324,-1.3717442781624372 4.9716232724285705,0 l87.75114791730698,87.75114791730698 c1.3717442781624372,1.3717442781624372 1.3717442781624372,3.5997704530192456 0,4.9716232724285705 c-0.6873917165376427,0.6844611028716874 -1.5866559469994068,1.0309247629361311 -2.485920177461172,1.0309247629361311 z" fill="#d99e82" id="svg_61" filter="url(#f111)"/>
      <path d="M603.062831612849,211.1587375825464 c0,10.679264740000317 -8.657358392982601,19.33662313298292 -19.33662313298292,19.33662313298292 c-10.679373281247205,0 -19.336731674229807,-8.657358392982601 -19.336731674229807,-19.33662313298292 c0,-10.679373281247205 8.657358392982601,-19.336731674229807 19.336731674229807,-19.336731674229807 c10.679264740000317,0 19.33662313298292,8.657358392982601 19.33662313298292,19.336731674229807 z" fill="#fcb1e3" id="svg_62" filter="url(#f111)"/>
      <path d="M600.3825140622126,251.07858006901353 c-10.393584178192791,-2.4542261333700632 -16.829537412378713,-12.869410019693436 -14.375311279008649,-23.262994197886226 c2.4542261333700632,-10.393475636945901 12.869410019693436,-16.829537412378713 23.26288565663934,-14.375311279008649 c10.393584178192791,2.4542261333700632 16.8296459536256,12.869410019693436 14.375311279008649,23.262994197886226 c-2.4542261333700632,10.393475636945901 -12.869410019693436,16.829537412378713 -23.26288565663934,14.375311279008649 z" fill="#ffd983" id="svg_63" filter="url(#f111)"/>
      <path d="M645.2558534328781,253.34882878890954 c0,10.679373281247205 -8.660180465401673,19.339553746648875 -19.339553746648875,19.339553746648875 c-10.679264740000317,0 -19.33662313298292,-8.66028900664856 -19.33662313298292,-19.339553746648875 c0,-10.679264740000317 8.657358392982601,-19.33662313298292 19.33662313298292,-19.33662313298292 c10.679373281247205,0 19.339553746648875,8.66028900664856 19.339553746648875,19.33662313298292 z" fill="#a6d388" id="svg_64" filter="url(#f111)"/>
      <path d="M656.3905572448177,287.33982274664845 c-0.8992642304617666,0 -1.7985284609235341,-0.3436415876453786 -2.4858116362142852,-1.0281026905170598 l-21.53621150115524,-21.53610295990835 c-1.374566350581508,-1.3717442781624372 -1.374566350581508,-3.5998789942661324 0,-4.9716232724285705 c1.3746748918283962,-1.3717442781624372 3.5970569218470603,-1.3717442781624372 4.9716232724285705,0 l21.53621150115524,21.53610295990835 c1.3717442781624372,1.3717442781624372 1.3717442781624372,3.5998789942661324 0,4.9716232724285705 c-0.6873917165376427,0.6816390304526138 -1.5866559469994068,1.0281026905170598 -2.485920177461172,1.0281026905170598 z" fill="#d99e82" id="svg_65" filter="url(#f111)"/>
    </g>
    <g stroke="#6d3dcc" stroke-width="15" stroke-linecap="butt" class="" transform="rotate(44.827232360839844 542.8231201171874,230.25683593749997) " id="svg_72" stroke-opacity="1">
      <path d="M593.6365747777227,285.10809573111254 c-1.0328079394297527,0 -2.0656158788595063,-0.39467349864026685 -2.854962876140032,-1.1807793364246955 l-100.78248327138651,-100.7857244308826 c-1.5754528350649604,-1.5754528350649604 -1.5754528350649604,-4.134348257234484 0,-5.709925752280064 c1.5754528350649604,-1.5754528350649604 4.134472917215103,-1.5754528350649604 5.709925752280064,0 l100.78248327138651,100.78248327138651 c1.5754528350649604,1.5754528350649604 1.5754528350649604,4.134348257234484 0,5.709925752280064 c-0.7894716572611506,0.7861058377844368 -1.8222795966909002,1.1840204959207936 -2.8550875361206507,1.1840204959207936 z" fill="#d99e82" id="svg_73" stroke-width="15" stroke="#6d3dcc"/>
      <path d="M532.3895057197807,197.61386775380623 c0,12.265170833138658 -9.943004714164921,22.20817554730358 -22.20817554730358,22.20817554730358 c-12.265295493119279,0 -22.2083002072842,-9.943004714164921 -22.2083002072842,-22.20817554730358 c0,-12.265295493119279 9.943004714164921,-22.2083002072842 22.2083002072842,-22.2083002072842 c12.265170833138658,0 22.20817554730358,9.943004714164921 22.20817554730358,22.2083002072842 z" fill="#fcb1e3" id="svg_74" stroke-width="15" stroke="#6d3dcc"/>
      <path d="M529.3111521583712,243.46193872582444 c-11.937065764149027,-2.8186868217798553 -19.328779314962194,-14.780559922072094 -16.510092493182338,-26.71762568622112 c2.8186868217798553,-11.936941104168405 14.780559922072094,-19.328779314962194 26.7175010262405,-16.510092493182338 c11.937065764149027,2.8186868217798553 19.328903974942815,14.780559922072094 16.510092493182338,26.71762568622112 c-2.8186868217798553,11.936941104168405 -14.780559922072094,19.328779314962194 -26.7175010262405,16.510092493182338 z" fill="#ffd983" id="svg_75" stroke-width="15" stroke="#6d3dcc"/>
      <path d="M580.848330665906,246.06932688045487 c0,12.265295493119279 -9.94624587366102,22.211541366780295 -22.211541366780295,22.211541366780295 c-12.265170833138658,0 -22.20817554730358,-9.946370533641637 -22.20817554730358,-22.211541366780295 c0,-12.265170833138658 9.943004714164921,-22.20817554730358 22.20817554730358,-22.20817554730358 c12.265295493119279,0 22.211541366780295,9.946370533641637 22.211541366780295,22.20817554730358 z" fill="#a6d388" id="svg_76" stroke-width="15" stroke="#6d3dcc"/>
      <path d="M593.6365747777227,285.10809573111254 c-1.0328079394297527,0 -2.0656158788595063,-0.39467349864026685 -2.854962876140032,-1.1807793364246955 l-24.734410054550885,-24.734285394570264 c-1.578693994561058,-1.5754528350649604 -1.578693994561058,-4.134472917215103 0,-5.709925752280064 c1.5788186545416782,-1.5754528350649604 4.131231757719004,-1.5754528350649604 5.709925752280064,0 l24.734410054550885,24.734285394570264 c1.5754528350649604,1.5754528350649604 1.5754528350649604,4.134472917215103 0,5.709925752280064 c-0.7894716572611506,0.7828646782883365 -1.8222795966909002,1.1807793364246955 -2.8550875361206507,1.1807793364246955 z" fill="#d99e82" id="svg_77" stroke-width="15" stroke="#6d3dcc"/>
    </g>
    <g stroke="none" stroke-width="0" stroke-linecap="butt" class="" transform="rotate(44.827232360839844 542.7937011718751,229.96272277832034) " id="svg_78">
      <path d="M593.607162746549,284.8139778035613 c-1.0328079394297527,0 -2.0656158788595063,-0.394673498640267 -2.854962876140032,-1.1807793364246955 l-100.78248327138651,-100.7857244308826 c-1.5754528350649604,-1.5754528350649604 -1.5754528350649604,-4.134348257234484 0,-5.709925752280064 c1.5754528350649604,-1.5754528350649604 4.134472917215103,-1.5754528350649604 5.709925752280064,0 l100.78248327138651,100.78248327138651 c1.5754528350649604,1.5754528350649604 1.5754528350649604,4.134348257234484 0,5.709925752280064 c-0.7894716572611506,0.7861058377844371 -1.8222795966909002,1.1840204959207936 -2.8550875361206507,1.1840204959207936 z" fill="#d99e82" id="svg_79" stroke-width="0" stroke="none"/>
      <path d="M532.360093688607,197.31974982625496 c0,12.265170833138658 -9.943004714164921,22.20817554730358 -22.20817554730358,22.20817554730358 c-12.265295493119279,0 -22.2083002072842,-9.943004714164921 -22.2083002072842,-22.20817554730358 c0,-12.265295493119279 9.943004714164921,-22.2083002072842 22.2083002072842,-22.2083002072842 c12.265170833138658,0 22.20817554730358,9.943004714164921 22.20817554730358,22.2083002072842 z" fill="#fcb1e3" id="svg_80" stroke-width="0" stroke="none"/>
      <path d="M529.2817401271975,243.16782079827317 c-11.937065764149027,-2.8186868217798553 -19.328779314962194,-14.780559922072094 -16.510092493182338,-26.71762568622112 c2.8186868217798553,-11.936941104168405 14.780559922072094,-19.328779314962194 26.7175010262405,-16.510092493182338 c11.937065764149027,2.8186868217798553 19.328903974942815,14.780559922072094 16.510092493182338,26.71762568622112 c-2.8186868217798553,11.936941104168405 -14.780559922072094,19.328779314962194 -26.7175010262405,16.510092493182338 z" fill="#ffd983" id="svg_81" stroke-width="0" stroke="none"/>
      <path d="M580.8189186347323,245.7752089529036 c0,12.265295493119279 -9.94624587366102,22.211541366780295 -22.211541366780295,22.211541366780295 c-12.265170833138658,0 -22.20817554730358,-9.946370533641637 -22.20817554730358,-22.211541366780295 c0,-12.265170833138658 9.943004714164921,-22.20817554730358 22.20817554730358,-22.20817554730358 c12.265295493119279,0 22.211541366780295,9.946370533641637 22.211541366780295,22.20817554730358 z" fill="#a6d388" id="svg_82" stroke-width="0" stroke="none"/>
      <path d="M593.607162746549,284.8139778035613 c-1.0328079394297527,0 -2.0656158788595063,-0.394673498640267 -2.854962876140032,-1.1807793364246955 l-24.734410054550885,-24.734285394570264 c-1.578693994561058,-1.5754528350649604 -1.578693994561058,-4.134472917215103 0,-5.709925752280064 c1.5788186545416782,-1.5754528350649604 4.131231757719004,-1.5754528350649604 5.709925752280064,0 l24.734410054550885,24.734285394570264 c1.5754528350649604,1.5754528350649604 1.5754528350649604,4.134472917215103 0,5.709925752280064 c-0.7894716572611506,0.7828646782883366 -1.8222795966909002,1.1807793364246955 -2.8550875361206507,1.1807793364246955 z" fill="#d99e82" id="svg_83" stroke-width="0" stroke="none"/>
    </g>
    <g stroke="none" stroke-width="1" stroke-linecap="butt" class="" transform="rotate(24.588247299194336 473.853210449219,239.28680419921866) " id="svg_66" filter="url(#f121)">
      <path d="M518.0964393172665,287.0457048190972 c-0.8992642304617666,0 -1.7985284609235341,-0.3436415876453788 -2.4858116362142852,-1.0281026905170598 l-87.75114791730698,-87.75396998972604 c-1.3717442781624372,-1.3717442781624372 -1.3717442781624372,-3.5997704530192456 0,-4.9716232724285705 c1.3717442781624372,-1.3717442781624372 3.5998789942661324,-1.3717442781624372 4.9716232724285705,0 l87.75114791730698,87.75114791730698 c1.3717442781624372,1.3717442781624372 1.3717442781624372,3.5997704530192456 0,4.9716232724285705 c-0.6873917165376433,0.6844611028716876 -1.5866559469994068,1.0309247629361311 -2.485920177461172,1.0309247629361311 z" fill="#d99e82" id="svg_67" filter="url(#f121)"/>
      <path d="M464.7687136852977,210.86461965499512 c0,10.679264740000317 -8.657358392982601,19.33662313298292 -19.33662313298292,19.33662313298292 c-10.679373281247205,0 -19.336731674229807,-8.657358392982601 -19.336731674229807,-19.33662313298292 c0,-10.679373281247205 8.657358392982601,-19.336731674229807 19.336731674229807,-19.336731674229807 c10.679264740000317,0 19.33662313298292,8.657358392982601 19.33662313298292,19.336731674229807 z" fill="#fcb1e3" id="svg_68" filter="url(#f121)"/>
      <path d="M462.08839613466137,250.78446214146226 c-10.393584178192791,-2.4542261333700632 -16.829537412378713,-12.869410019693436 -14.375311279008649,-23.262994197886226 c2.4542261333700632,-10.393475636945901 12.869410019693436,-16.829537412378713 23.26288565663934,-14.375311279008649 c10.393584178192791,2.4542261333700632 16.8296459536256,12.869410019693436 14.375311279008649,23.262994197886226 c-2.4542261333700632,10.393475636945901 -12.869410019693436,16.829537412378713 -23.26288565663934,14.375311279008649 z" fill="#ffd983" id="svg_69" filter="url(#f121)"/>
      <path d="M506.9617355053268,253.05471086135827 c0,10.679373281247205 -8.660180465401673,19.339553746648875 -19.339553746648875,19.339553746648875 c-10.679264740000317,0 -19.33662313298292,-8.66028900664856 -19.33662313298292,-19.339553746648875 c0,-10.679264740000317 8.657358392982601,-19.33662313298292 19.33662313298292,-19.33662313298292 c10.679373281247205,0 19.339553746648875,8.66028900664856 19.339553746648875,19.33662313298292 z" fill="#a6d388" id="svg_70" filter="url(#f121)"/>
      <path d="M518.0964393172665,287.0457048190972 c-0.8992642304617666,0 -1.7985284609235341,-0.3436415876453788 -2.4858116362142852,-1.0281026905170598 l-21.53621150115524,-21.53610295990835 c-1.374566350581508,-1.3717442781624372 -1.374566350581508,-3.5998789942661324 0,-4.9716232724285705 c1.3746748918283962,-1.3717442781624372 3.5970569218470603,-1.3717442781624372 4.9716232724285705,0 l21.53621150115524,21.53610295990835 c1.3717442781624372,1.3717442781624372 1.3717442781624372,3.5998789942661324 0,4.9716232724285705 c-0.6873917165376433,0.6816390304526144 -1.5866559469994068,1.0281026905170598 -2.485920177461172,1.0281026905170598 z" fill="#d99e82" id="svg_71" filter="url(#f121)"/>
    </g>
    <g stroke="none" stroke-width="1" stroke-linecap="butt" class="" transform="rotate(101.38897705078125 718.9415283203124,295.14288330078125) " filter="" id="svg_91" opacity="1">
      <path d="M759.7032545071411,339.1435842575073 c-0.8285,0 -1.657,-0.3166000000000003 -2.2902,-0.9472 l-80.8459,-80.8485 c-1.2638,-1.2638 -1.2638,-3.3165 0,-4.5804 c1.2638,-1.2638 3.3166,-1.2638 4.5804,0 l80.8459,80.8459 c1.2638,1.2638 1.2638,3.3165 0,4.5804 c-0.6333000000000006,0.6306000000000039 -1.4618,0.9498000000000006 -2.2903000000000002,0.9498000000000006 z" fill="#d99e82" id="svg_92" filter="" opacity="1"/>
      <path d="M710.5719545071411,268.95728425750735 c0,9.8389 -7.9761,17.815 -17.815,17.815 c-9.839,0 -17.8151,-7.9761 -17.8151,-17.815 c0,-9.839 7.9761,-17.8151 17.8151,-17.8151 c9.8389,0 17.815,7.9761 17.815,17.8151 z" fill="#fcb1e3" id="svg_93" filter="" opacity="1"/>
      <path d="M708.1025545071411,305.7357842575073 c-9.5757,-2.2611 -15.5052,-11.8567 -13.2441,-21.4324 c2.2611,-9.5756 11.8567,-15.5052 21.4323,-13.2441 c9.5757,2.2611 15.5053,11.8567 13.2441,21.4324 c-2.2611,9.5756 -11.8567,15.5052 -21.4323,13.2441 z" fill="#ffd983" id="svg_94" filter="" opacity="1"/>
      <path d="M749.4447545071412,307.82738425750733 c0,9.839 -7.9787,17.8177 -17.8177,17.8177 c-9.8389,0 -17.815,-7.9788 -17.815,-17.8177 c0,-9.8389 7.9761,-17.815 17.815,-17.815 c9.839,0 17.8177,7.9788 17.8177,17.815 z" fill="#a6d388" id="svg_95" filter="" opacity="1"/>
      <path d="M759.7032545071411,339.1435842575073 c-0.8285,0 -1.657,-0.3166000000000003 -2.2902,-0.9472 l-19.8415,-19.8414 c-1.2664,-1.2638 -1.2664,-3.3166 0,-4.5804 c1.2665,-1.2638 3.314,-1.2638 4.5804,0 l19.8415,19.8414 c1.2638,1.2638 1.2638,3.3166 0,4.5804 c-0.6333000000000006,0.628000000000003 -1.4618,0.9472 -2.2903000000000002,0.9472 z" fill="#d99e82" id="svg_96" filter="" opacity="1"/>
    </g>
    <g stroke="none" stroke-width="1" stroke-linecap="butt" class="" transform="rotate(101.38897705078125 719.6473999023439,297.8487548828125) " filter="url(#f076)" opacity="0.53" id="svg_28">
      <path d="M760.4091365795898,341.84946632995604 c-0.8285,0 -1.657,-0.3166000000000003 -2.2902,-0.9472 l-80.8459,-80.8485 c-1.2638,-1.2638 -1.2638,-3.3165 0,-4.5804 c1.2638,-1.2638 3.3166,-1.2638 4.5804,0 l80.8459,80.8459 c1.2638,1.2638 1.2638,3.3165 0,4.5804 c-0.6333000000000006,0.6306000000000044 -1.4618,0.9498000000000006 -2.2903000000000002,0.9498000000000006 z" fill="#d99e82" id="svg_29" filter="url(#f076)" opacity="0.53"/>
      <path d="M711.2778365795898,271.6631663299561 c0,9.8389 -7.9761,17.815 -17.815,17.815 c-9.839,0 -17.8151,-7.9761 -17.8151,-17.815 c0,-9.839 7.9761,-17.8151 17.8151,-17.8151 c9.8389,0 17.815,7.9761 17.815,17.8151 z" fill="#fcb1e3" id="svg_30" filter="url(#f076)" opacity="0.53"/>
      <path d="M708.8084365795899,308.44166632995604 c-9.5757,-2.2611 -15.5052,-11.8567 -13.2441,-21.4324 c2.2611,-9.5756 11.8567,-15.5052 21.4323,-13.2441 c9.5757,2.2611 15.5053,11.8567 13.2441,21.4324 c-2.2611,9.5756 -11.8567,15.5052 -21.4323,13.2441 z" fill="#ffd983" id="svg_31" filter="url(#f076)" opacity="0.53"/>
      <path d="M750.1506365795899,310.53326632995606 c0,9.839 -7.9787,17.8177 -17.8177,17.8177 c-9.8389,0 -17.815,-7.9788 -17.815,-17.8177 c0,-9.8389 7.9761,-17.815 17.815,-17.815 c9.839,0 17.8177,7.9788 17.8177,17.815 z" fill="#a6d388" id="svg_32" filter="url(#f076)" opacity="0.53"/>
      <path d="M760.4091365795898,341.84946632995604 c-0.8285,0 -1.657,-0.3166000000000003 -2.2902,-0.9472 l-19.8415,-19.8414 c-1.2664,-1.2638 -1.2664,-3.3166 0,-4.5804 c1.2665,-1.2638 3.314,-1.2638 4.5804,0 l19.8415,19.8414 c1.2638,1.2638 1.2638,3.3166 0,4.5804 c-0.6333000000000006,0.6280000000000033 -1.4618,0.9472 -2.2903000000000002,0.9472 z" fill="#d99e82" id="svg_33" filter="url(#f076)" opacity="0.53"/>
    </g>
    <g stroke="none" stroke-width="1" stroke-linecap="butt" class="" transform="rotate(101.38897705078125 713.3532714843749,298.5546264648438) " filter="url(#f076)" opacity="0.37" id="svg_34">
      <path d="M754.1150186520385,342.5553484024048 c-0.8285,0 -1.657,-0.3166000000000003 -2.2902,-0.9472 l-80.8459,-80.8485 c-1.2638,-1.2638 -1.2638,-3.3165 0,-4.5804 c1.2638,-1.2638 3.3166,-1.2638 4.5804,0 l80.8459,80.8459 c1.2638,1.2638 1.2638,3.3165 0,4.5804 c-0.6333000000000006,0.630600000000005 -1.4618,0.9498000000000006 -2.2903000000000002,0.9498000000000006 z" fill="#d99e82" id="svg_35" filter="url(#f076)" opacity="0.37"/>
      <path d="M704.9837186520385,272.3690484024048 c0,9.8389 -7.9761,17.815 -17.815,17.815 c-9.839,0 -17.8151,-7.9761 -17.8151,-17.815 c0,-9.839 7.9761,-17.8151 17.8151,-17.8151 c9.8389,0 17.815,7.9761 17.815,17.8151 z" fill="#fcb1e3" id="svg_36" filter="url(#f076)" opacity="0.37"/>
      <path d="M702.5143186520386,309.14754840240477 c-9.5757,-2.2611 -15.5052,-11.8567 -13.2441,-21.4324 c2.2611,-9.5756 11.8567,-15.5052 21.4323,-13.2441 c9.5757,2.2611 15.5053,11.8567 13.2441,21.4324 c-2.2611,9.5756 -11.8567,15.5052 -21.4323,13.2441 z" fill="#ffd983" id="svg_37" filter="url(#f076)" opacity="0.37"/>
      <path d="M743.8565186520386,311.2391484024048 c0,9.839 -7.9787,17.8177 -17.8177,17.8177 c-9.8389,0 -17.815,-7.9788 -17.815,-17.8177 c0,-9.8389 7.9761,-17.815 17.815,-17.815 c9.839,0 17.8177,7.9788 17.8177,17.815 z" fill="#a6d388" id="svg_38" filter="url(#f076)" opacity="0.37"/>
      <path d="M754.1150186520385,342.5553484024048 c-0.8285,0 -1.657,-0.3166000000000003 -2.2902,-0.9472 l-19.8415,-19.8414 c-1.2664,-1.2638 -1.2664,-3.3166 0,-4.5804 c1.2665,-1.2638 3.314,-1.2638 4.5804,0 l19.8415,19.8414 c1.2638,1.2638 1.2638,3.3166 0,4.5804 c-0.6333000000000006,0.6280000000000039 -1.4618,0.9472 -2.2903000000000002,0.9472 z" fill="#d99e82" id="svg_39" filter="url(#f076)" opacity="0.37"/>
    </g>
  </g>
</svg>