<svg xmlns="http://www.w3.org/2000/svg" width="309.298" height="159.648" viewBox="0 0 309.298 159.648"><defs><linearGradient x1="240" y1="105.675" x2="240" y2="255.323" gradientUnits="userSpaceOnUse" id="a"><stop offset="0" stop-color="#384373"/><stop offset="1" stop-color="#505fa6"/></linearGradient></defs><path d="M7.158 152.984V5.665H302.14v147.318z" fill="#748bee"/><g fill="none" stroke-opacity=".502" stroke="#8ca1ff" stroke-width="6.5" stroke-linejoin="round"><path d="m147.461 20.72-21.846 12.613-21.847-12.613V4.398h43.693z"/><path d="m125.203 57.818-21.847 12.613L81.51 57.818V32.592l21.846-12.614 21.847 12.614z"/><path d="M102.944 20.72 81.098 33.333 59.252 20.72V4.398h43.692zm122.292 108.372-21.846 12.613-21.847-12.613v-25.226l21.847-12.613 21.846 12.613z"/><path d="m202.978 91.995-21.847 12.613-21.846-12.613V66.769l21.846-12.613 21.847 12.613z"/><path d="m180.719 129.092-21.846 12.613-21.846-12.613v-25.226l21.846-12.613 21.846 12.613zm116.795-46.84-21.846-12.613V44.413L297.514 31.8zm-22.67-12.613-21.846 12.613-21.847-12.613V44.413L252.998 31.8l21.846 12.613z"/><path d="m297.102 32.542-21.846 12.613-21.846-12.613V7.316h43.692zm-44.516 0-21.848 12.613-21.846-12.613V7.316h43.693zM18.228 147.27c-7.12-4.11-3.023-32.107-3.023-32.107l21.846 12.613v25.226s-11.392-1.442-18.823-5.732zm19.647-19.494 21.846-12.613 21.847 12.613v25.226H37.875z"/><path d="m15.617 90.679 21.846-12.613 21.846 12.613v25.226l-21.846 12.613-21.846-12.613zm66.775 37.097 21.846-12.613 21.846 12.613v25.226H82.392z"/><path d="M60.133 90.679 81.98 78.066l21.846 12.613v25.226L81.98 128.518l-21.847-12.613z"/></g><g fill="none" stroke="#677ee6" stroke-width="6.5" stroke-linejoin="round"><path d="M164.085 4.398h43.693V20.72l-21.846 12.613-21.847-12.613z"/><path d="m186.344 32.592 21.846-12.614 21.846 12.614v25.226L208.19 70.431l-21.846-12.613z"/><path d="M208.602 4.398h43.693V20.72l-21.847 12.613-21.846-12.613zM86.311 103.866l21.846-12.613 21.846 12.613v25.226l-21.845 12.613-21.846-12.613z"/><path d="m108.568 66.769 21.847-12.613 21.847 12.613v25.226l-21.847 12.613-21.846-12.613z"/><path d="m130.828 103.866 21.845-12.613 21.847 12.613v25.226l-21.846 12.613-21.847-12.613zM14.032 31.8l21.847 12.613v25.226L14.032 82.252zm22.67 12.613L58.549 31.8l21.846 12.613v25.226L58.549 82.252 36.702 69.639z"/><path d="M14.444 7.316h43.693v25.226L36.291 45.155 14.444 32.542zm44.517 0h43.692v25.226L80.808 45.155 58.962 32.542zm215.534 145.686v-25.226l21.847-12.613s4.096 27.996-3.024 32.107c-7.431 4.29-18.823 5.732-18.823 5.732zm-.824 0h-43.692v-25.226l21.846-12.613 21.846 12.613z"/><path d="m295.93 115.905-21.847 12.613-21.846-12.613V90.679l21.846-12.613 21.847 12.613zm-66.775 37.097h-43.693v-25.226l21.846-12.613 21.847 12.613z"/><path d="m251.413 115.905-21.846 12.613-21.847-12.613V90.679l21.847-12.613 21.846 12.613z"/></g><g fill="none" stroke="#576fd9" stroke-width="6.5" stroke-linejoin="round"><path d="M157.585 4.398h43.693V20.72l-21.846 12.613-21.847-12.613z"/><path d="m179.844 32.592 21.846-12.614 21.846 12.614v25.226L201.69 70.431l-21.846-12.613z"/><path d="M202.102 4.398h43.693V20.72l-21.847 12.613-21.846-12.613zM79.811 103.866l21.846-12.613 21.846 12.613v25.226l-21.845 12.613-21.846-12.613z"/><path d="m102.068 66.769 21.847-12.613 21.847 12.613v25.226l-21.847 12.613-21.846-12.613z"/><path d="m124.328 103.866 21.845-12.613 21.847 12.613v25.226l-21.847 12.613-21.846-12.613zM7.532 31.8l21.847 12.613v25.226L7.532 82.252zm22.67 12.613L52.049 31.8l21.846 12.613v25.226L52.049 82.252 30.202 69.639z"/><path d="M7.944 7.316h43.693v25.226L29.791 45.155 7.944 32.542zm44.517 0h43.692v25.226L74.308 45.155 52.462 32.542zm227.034 148.686v-25.226l21.847-12.613s4.096 27.996-3.024 32.107c-7.431 4.29-18.823 5.732-18.823 5.732zm-.824 0h-43.692v-25.226l21.846-12.613 21.846 12.613z"/><path d="m300.93 118.905-21.847 12.613-21.846-12.613V93.679l21.846-12.613 21.847 12.613zm-66.775 37.097h-43.693v-25.226l21.846-12.613 21.847 12.613z"/><path d="m256.413 118.905-21.846 12.613-21.847-12.613V93.679l21.847-12.613 21.846 12.613z"/></g><path d="M90.352 118.17c0-6.398 5.915-12.494 13.12-12.494h272.61c8.613 0 13.568 4.642 13.568 12.245v125.705c0 6.04-4.86 11.697-13.32 11.697H103.72c-7.327 0-13.368-4.523-13.368-11.947z" fill="none" stroke="url(#a)" stroke-width="10" transform="translate(-85.352 -100.675)"/><path d="M22.565 127.93q0-1.122.66-2.615.658-1.5 1.44-2.038 1.47 1.083 2.985 1.083l1.205-.19q2.092-.62 2.168-3.341v-9.89h-3.1q-.66 0-.932-1.675-.12-.811-.121-1.66 0-.857.121-1.675.273-1.667.932-1.667h9.231q.78 0 1.167.447t.387 1.068v18.31q0 3.805-2.547 5.783-2.538 1.978-6.093 1.978-3.547 0-5.525-1.046-1.978-1.045-1.978-2.872zm20.526-5.972q.735.584 2.54 1.591 1.81 1.008 3.455 1.008 1.652 0 1.652-1.28 0-.584-.47-1.031-.462-.448-1.705-1.023a51 51 0 0 1-1.864-.91q-.621-.333-1.652-1.091-1.023-.757-1.57-1.576-1.545-2.205-1.545-5.624 0-3.417 2.539-5.76 2.538-2.349 6.654-2.349 2.796 0 5.16.606 2.365.599 2.441 1.57v.227q0 1.364-.856 3.44-.849 2.07-1.198 2.304-2.486-1.28-4.448-1.28-1.956 0-1.956 1.394 0 .856 1.44 1.516.31.159.887.432.584.265 1.341.636.759.371 1.63.932t1.887 1.493q2.054 1.94 2.054 5.124 0 4.153-2.289 6.79t-7.063 2.713q-2.327 0-4.214-.386-1.88-.387-3.282-1.508-1.395-1.13-1.394-2.721 0-1.592.583-3.16.585-1.577 1.243-2.077zm31.139 9.852q-5.449 0-8.882-3.57t-3.433-10.412q0-6.852 3.47-10.383 3.471-3.532 8.959-3.532 5.494 0 8.867 3.471 3.38 3.47 3.38 10.52 0 7.04-3.456 10.473-3.448 3.433-8.905 3.433zm.023-20.447q-1.865 0-3.13 1.713c-.839 1.136.345 2.733.345 4.79s-1.202 3.635-.398 4.736q1.204 1.645 3.16 1.645 1.963 0 3.183-1.668 1.22-1.674 1.22-4.774 0-3.108-1.258-4.775t-3.122-1.667zm36.707 19.204q0 .819-3.653.819-3.645 0-3.956-.584l-6.48-12.103v12.065q0 .698-3.592.698-3.585 0-3.585-.698v-25.957q0-.583 3.062-.583 1.205 0 2.812.212 1.614.212 1.963.796l6.207 11.951v-12.186q0-.735 3.607-.735 3.615 0 3.615.735zm13.424-13.232q-1.083-1.94-1.083-3.16t.659-1.57q2.205-.97 6.063-.97 3.865 0 5.457 1.804 1.59 1.804 1.591 5.336v6.131h1.319q.66 0 1.03.78.372.774.372 2.13 0 1.357-.682 2.675-.683 1.32-1.842 1.32-2.1 0-3.38-1.123a3.2 3.2 0 0 1-.887-1.129q-1.788 2.25-5.555 2.251-2.826 0-4.767-2.016-1.94-2.016-1.94-4.774 0-6.32 7.564-6.32h2.137v-.395q0-1.008-.334-1.296-.326-.288-1.53-.288-1.479 0-4.192.614zm3.108 7.147q0 .848.462 1.296.462.447 1.182.447t1.304-.584v-2.986h-1.092q-1.856 0-1.856 1.827zm22.615 6.707q0 .273-2.79.273-3.88-.114-3.88-.425v-12.572h-1.008q-1.008 0-1.318-1.705a6 6 0 0 1-.084-1.008q0-1.205.47-2.41.698-1.705 2.168-1.705 1.478 0 2.637.697 1.168.698 1.561 1.394 2.44-2.091 5.813-2.091 3.38 0 4.888 1.826 1.515 1.819 1.516 5.972v11.641q0 .462-3.32.462-3.31 0-3.311-.462V119.86q0-1.94-1.357-1.94-.393 0-1.091.333-.698.326-.894.485zm23.093-26.692q0-.584 3.062-.584 1.045 0 2.425.136 1.38.137 1.379.364v20.455h1.357q.97 0 1.28 1.743.076.508.076 1.38 0 .87-.538 2.114-.78 1.705-2.486 1.705-1.28 0-2.273-.5-.986-.508-1.334-1.053l-.349-.5q-2.137 2.053-5.358 2.053t-5.51-2.675-2.288-7.465q0-4.797 2.402-7.412 2.41-2.622 6.018-2.622 1.046 0 2.137.235zm-1.281 13.346c-1.45 0-5.292 1.217-5.292 3.829 0 1.318 3.324 2.36 3.738 2.946q.622.872 1.38.872t1.455-.66v-6.6q-.66-.387-1.281-.387zm39.109 13.656q-3.373 0-3.646-1.083l-1.28-5.01h-6.17l-1.121 4.813q-.235 1.205-3.729 1.205-1.864 0-2.759-.213-.886-.212-.886-.333l6.866-26.268q0-.31 5.313-.31 5.32 0 5.32.31l6.715 26.306q0 .273-1.789.432-1.78.15-2.834.151zm-10.126-11.019h4.078l-1.75-8.033h-.228zm26.148 10.906c0 .182-1.712.273-4.066.273q-3.532-.084-3.532-.311v-12.884h-1.046q-.621 0-.993-.758-.37-.758-.371-1.88 0-4.19 2.486-4.19 1.743 0 2.91 1.068 1.167 1.062 1.167 2.425.81-1.59 2.19-2.538 1.38-.955 2.812-.955 2.251 0 2.72 1.16.115.31.114.916 0 .6-.37 2.153-.364 1.553-.759 2.25-.386.698-.462.698-.075 0-.72-.288-.636-.296-1.144-.296-1.47 0-1.47 2.327zm14.831 0q0 .273-3.531.273c-2.355-.056-4.333-.16-4.333-.311 0 0-.99-13.137-1.238-13.642q-.37-.758-.371-1.88 0-4.19 2.486-4.19 1.743 0 2.91 1.068 1.167 1.062 1.167 2.425.81-1.59 2.19-2.538 1.38-.955 2.812-.955 2.25 0 2.72 1.16.115.31.114.916 0 .6-.371 2.153-.363 1.553-.758 2.25-.386.698-.462.698-.075 0-.72-.288-.636-.296-1.144-.296-1.47 0-1.47 2.327zm9.31-14.051q-1.083-1.94-1.083-3.16t.66-1.57q2.205-.97 6.062-.97 3.865 0 5.457 1.804t1.591 5.336v6.131h1.32q.658 0 1.03.78.37.774.371 2.13 0 1.357-.682 2.675-.682 1.32-1.841 1.32-2.1 0-3.38-1.123a3.2 3.2 0 0 1-.887-1.129q-1.789 2.25-5.555 2.251-2.828 0-4.767-2.016t-1.94-4.774q0-6.32 7.563-6.32h2.137v-.395q0-1.008-.333-1.296-.327-.288-1.531-.288-1.478 0-4.191.614zm3.108 7.147q0 .848.462 1.296.463.447 1.183.447t1.303-.584v-2.986h-1.091q-1.857 0-1.857 1.827zm13.15-12.263q0-.432 3.546-.432 3.555 0 3.676.387l2.789 9.162 2.675-9.238q.16-.31 2.41-.31 5.16 0 4.926.507l-9.117 25.957q-.038.235-2.114.235t-3.866-.136q-1.78-.137-1.705-.334l3.38-8.147z" fill="none" stroke-opacity=".502" stroke="#000" stroke-width="8.5" stroke-linecap="square" stroke-linejoin="round"/><path d="M22.565 127.93q0-1.122.66-2.615.658-1.5 1.44-2.038 1.47 1.083 2.985 1.083l1.205-.19q2.092-.62 2.168-3.341v-9.89h-3.1q-.66 0-.932-1.675-.12-.811-.121-1.66 0-.857.121-1.675.273-1.667.932-1.667h9.231q.78 0 1.167.447t.387 1.068v18.31q0 3.805-2.547 5.783-2.538 1.978-6.093 1.978-3.547 0-5.525-1.046-1.978-1.045-1.978-2.872m20.526-5.972q.735.584 2.54 1.591 1.81 1.008 3.455 1.008 1.652 0 1.652-1.28 0-.584-.47-1.031-.462-.448-1.705-1.023a51 51 0 0 1-1.864-.91q-.621-.333-1.652-1.091-1.023-.757-1.57-1.576-1.545-2.205-1.545-5.624 0-3.417 2.539-5.76 2.538-2.349 6.654-2.349 2.796 0 5.16.606 2.365.599 2.441 1.57v.227q0 1.364-.856 3.44-.849 2.07-1.198 2.304-2.486-1.28-4.448-1.28-1.956 0-1.956 1.394 0 .856 1.44 1.516.31.159.887.432.584.265 1.341.636.759.371 1.63.932t1.887 1.493q2.054 1.94 2.054 5.124 0 4.153-2.289 6.79t-7.063 2.713q-2.327 0-4.214-.386-1.88-.387-3.282-1.508-1.395-1.13-1.394-2.721 0-1.592.583-3.16.585-1.577 1.243-2.077m31.139 9.852q-5.449 0-8.882-3.57t-3.433-10.412q0-6.852 3.47-10.383 3.471-3.532 8.959-3.532 5.494 0 8.867 3.471 3.38 3.47 3.38 10.52 0 7.04-3.456 10.473-3.448 3.433-8.905 3.433m.023-20.447q-1.865 0-3.13 1.713-1.258 1.704-1.258 4.79 0 3.084 1.205 4.736 1.204 1.645 3.16 1.645 1.963 0 3.183-1.668 1.22-1.674 1.22-4.774 0-3.108-1.258-4.775t-3.122-1.667m36.707 19.204q0 .819-3.653.819-3.645 0-3.956-.584l-6.48-12.103v12.065q0 .698-3.592.698-3.585 0-3.585-.698v-25.957q0-.583 3.062-.583 1.205 0 2.812.212 1.614.212 1.963.796l6.207 11.951v-12.186q0-.735 3.607-.735 3.615 0 3.615.735zm13.424-13.232q-1.083-1.94-1.083-3.16t.659-1.57q2.205-.97 6.063-.97 3.865 0 5.457 1.804 1.59 1.804 1.591 5.336v6.131h1.319q.66 0 1.03.78.372.774.372 2.13 0 1.357-.682 2.675-.683 1.32-1.842 1.32-2.1 0-3.38-1.123a3.2 3.2 0 0 1-.887-1.129q-1.788 2.25-5.555 2.251-2.826 0-4.767-2.016-1.94-2.016-1.94-4.774 0-6.32 7.564-6.32h2.137v-.395q0-1.008-.334-1.296-.326-.288-1.53-.288-1.479 0-4.192.614m3.108 7.147q0 .848.462 1.296.462.447 1.182.447t1.304-.584v-2.986h-1.092q-1.856 0-1.856 1.827m22.615 6.707q0 .273-2.79.273-3.88-.114-3.88-.425v-12.572h-1.008q-1.008 0-1.318-1.705a6 6 0 0 1-.084-1.008q0-1.205.47-2.41.698-1.705 2.168-1.705 1.478 0 2.637.697 1.168.698 1.561 1.394 2.44-2.091 5.813-2.091 3.38 0 4.888 1.826 1.515 1.819 1.516 5.972v11.641q0 .462-3.32.462-3.31 0-3.311-.462V119.86q0-1.94-1.357-1.94-.393 0-1.091.333-.698.326-.894.485zm23.093-26.692q0-.584 3.062-.584 1.045 0 2.425.136 1.38.137 1.379.364v20.455h1.357q.97 0 1.28 1.743.076.508.076 1.38 0 .87-.538 2.114-.78 1.705-2.486 1.705-1.28 0-2.273-.5-.986-.508-1.334-1.053l-.349-.5q-2.137 2.053-5.358 2.053t-5.51-2.675-2.288-7.465q0-4.797 2.402-7.412 2.41-2.622 6.018-2.622 1.046 0 2.137.235zm-1.281 13.346q-2.175 0-2.175 3.918 0 1.977.621 2.857.622.872 1.38.872t1.455-.66v-6.6q-.66-.388-1.281-.387m39.109 13.656q-3.373 0-3.646-1.083l-1.28-5.01h-6.17l-1.121 4.813q-.235 1.205-3.729 1.205-1.864 0-2.759-.213-.886-.212-.886-.333l6.866-26.268q0-.31 5.313-.31 5.32 0 5.32.31l6.715 26.306q0 .273-1.789.432-1.78.15-2.834.151m-10.126-11.019h4.078l-1.75-8.033h-.228zm25.613 10.906q0 .273-3.531.273-3.532-.084-3.532-.311v-12.884h-1.046q-.621 0-.993-.758-.37-.758-.371-1.88 0-4.19 2.486-4.19 1.743 0 2.91 1.068 1.167 1.062 1.167 2.425.81-1.59 2.19-2.538 1.38-.955 2.812-.955 2.251 0 2.72 1.16.115.31.114.916 0 .6-.37 2.153-.364 1.553-.759 2.25-.386.698-.462.698-.075 0-.72-.288-.636-.296-1.144-.296-1.47 0-1.47 2.327zm15.366 0q0 .273-3.531.273-3.532-.084-3.532-.311v-12.884h-1.046q-.621 0-.993-.758-.37-.758-.371-1.88 0-4.19 2.486-4.19 1.743 0 2.91 1.068 1.167 1.062 1.167 2.425.81-1.59 2.19-2.538 1.38-.955 2.812-.955 2.25 0 2.72 1.16.115.31.114.916 0 .6-.371 2.153-.363 1.553-.758 2.25-.386.698-.462.698-.075 0-.72-.288-.636-.296-1.144-.296-1.47 0-1.47 2.327zm9.31-14.051q-1.083-1.94-1.083-3.16t.66-1.57q2.205-.97 6.062-.97 3.865 0 5.457 1.804t1.591 5.336v6.131h1.32q.658 0 1.03.78.37.774.371 2.13 0 1.357-.682 2.675-.682 1.32-1.841 1.32-2.1 0-3.38-1.123a3.2 3.2 0 0 1-.887-1.129q-1.789 2.25-5.555 2.251-2.828 0-4.767-2.016t-1.94-4.774q0-6.32 7.563-6.32h2.137v-.395q0-1.008-.333-1.296-.327-.288-1.531-.288-1.478 0-4.191.614m3.108 7.147q0 .848.462 1.296.463.447 1.183.447t1.303-.584v-2.986h-1.091q-1.857 0-1.857 1.827m13.15-12.263q0-.432 3.546-.432 3.555 0 3.676.387l2.789 9.162 2.675-9.238q.16-.31 2.41-.31 5.16 0 4.926.507l-9.117 25.957q-.038.235-2.114.235t-3.866-.136q-1.78-.137-1.705-.334l3.38-8.147z" fill="#fff"/><path d="M97.948 82.459a2.48 2.48 0 0 1 2.48-2.48h6.617a.83.83 0 0 0 .826-.827V65.461c0-.658.261-1.29.727-1.755l6.316-6.88-6.316-6.882a2.48 2.48 0 0 1-.727-1.754V34.497a.825.825 0 0 0-.828-.825h-6.614a2.481 2.481 0 0 1 0-4.962h6.616a5.795 5.795 0 0 1 5.788 5.788v12.664l7.342 7.909c.97.969.97 2.54 0 3.508l-7.342 7.91v12.664a5.795 5.795 0 0 1-5.79 5.787h-6.614c-1.37 0-2.48-1.11-2.481-2.48zm-19.715-2.48a2.481 2.481 0 1 1 0 4.961h-6.614a5.795 5.795 0 0 1-5.79-5.788V66.488l-7.342-7.909a2.48 2.48 0 0 1 0-3.508l7.342-7.909V34.498a5.795 5.795 0 0 1 5.79-5.79h6.614a2.482 2.482 0 0 1 0 4.963h-6.614a.825.825 0 0 0-.828.827V48.19c0 .657-.262 1.288-.727 1.754l-6.316 6.881 6.316 6.881a2.48 2.48 0 0 1 .727 1.755v13.691a.825.825 0 0 0 .828.827z" fill="none" stroke-opacity=".502" stroke="#000" stroke-width="10" stroke-linejoin="round"/><path d="M97.948 82.459a2.48 2.48 0 0 1 2.48-2.48h6.617a.83.83 0 0 0 .826-.827V65.461c0-.658.261-1.29.727-1.755l6.316-6.88-6.316-6.882a2.48 2.48 0 0 1-.727-1.754V34.497a.825.825 0 0 0-.828-.825h-6.614a2.481 2.481 0 0 1 0-4.962h6.616a5.795 5.795 0 0 1 5.788 5.788v12.664l7.342 7.909c.97.969.97 2.54 0 3.508l-7.342 7.91v12.664a5.795 5.795 0 0 1-5.79 5.787h-6.614c-1.37 0-2.48-1.11-2.481-2.48zm-19.715-2.48a2.481 2.481 0 1 1 0 4.961h-6.614a5.795 5.795 0 0 1-5.79-5.788V66.488l-7.342-7.909a2.48 2.48 0 0 1 0-3.508l7.342-7.909V34.498a5.795 5.795 0 0 1 5.79-5.79h6.614a2.482 2.482 0 0 1 0 4.963h-6.614a.825.825 0 0 0-.828.827V48.19c0 .657-.262 1.288-.727 1.754l-6.316 6.881 6.316 6.881a2.48 2.48 0 0 1 .727 1.755v13.691a.825.825 0 0 0 .828.827z" fill="#fff" stroke="#fff" stroke-width="2"/><path d="M222.802 82.151a2.79 2.79 0 0 1 2.79-2.788h7.437a.93.93 0 0 0 .929-.93V35.215a.93.93 0 0 0-.93-.927h-7.437a2.79 2.79 0 1 1 0-5.579h7.438a6.515 6.515 0 0 1 6.508 6.508v43.216a6.515 6.515 0 0 1-6.51 6.506h-7.436a2.79 2.79 0 0 1-2.79-2.788zm-19.604-2.79a2.79 2.79 0 1 1 0 5.58h-7.437a6.515 6.515 0 0 1-6.509-6.508V35.218a6.515 6.515 0 0 1 6.51-6.51h7.436a2.79 2.79 0 1 1 0 5.58h-7.437a.93.93 0 0 0-.93.93v43.215a.93.93 0 0 0 .93.93h7.438z" fill="none" stroke-opacity=".502" stroke="#000" stroke-width="10" stroke-linejoin="round"/><path d="M222.802 82.151a2.79 2.79 0 0 1 2.79-2.788h7.437a.93.93 0 0 0 .929-.93V35.215a.93.93 0 0 0-.93-.927h-7.437a2.79 2.79 0 1 1 0-5.579h7.438a6.515 6.515 0 0 1 6.508 6.508v43.216a6.515 6.515 0 0 1-6.51 6.506h-7.436a2.79 2.79 0 0 1-2.79-2.788zm-19.604-2.79a2.79 2.79 0 1 1 0 5.58h-7.437a6.515 6.515 0 0 1-6.509-6.508V35.218a6.515 6.515 0 0 1 6.51-6.51h7.436a2.79 2.79 0 1 1 0 5.58h-7.437a.93.93 0 0 0-.93.93v43.215a.93.93 0 0 0 .93.93h7.438z" fill="#fff" stroke="#fff" stroke-width="2"/><path d="M159.134 54.582h7.847a1.122 1.122 0 0 1 1.11 1.274 1.13 1.13 0 0 1-.254.574l-17.673 20.572V59.067h-7.848a1.122 1.122 0 0 1-.855-1.845l17.673-20.575z" fill="none" stroke-opacity=".502" stroke="#000" stroke-width="8.5" stroke-linecap="round" stroke-linejoin="round"/><path d="M159.134 54.582h7.847a1.122 1.122 0 0 1 1.11 1.274 1.13 1.13 0 0 1-.254.574l-17.673 20.572V59.067h-7.848a1.122 1.122 0 0 1-.855-1.845l17.673-20.575z" fill="#fff"/></svg>
