<svg version="1.1" xmlns="http://www.w3.org/2000/svg" xmlns:xlink="http://www.w3.org/1999/xlink" width="309.2973" height="159.64866" viewBox="0,0,309.2973,159.64866"><defs><linearGradient x1="240" y1="105.17574" x2="240" y2="254.82438" gradientUnits="userSpaceOnUse" id="color-1"><stop offset="0" stop-color="#392347"/><stop offset="1" stop-color="#6d4286"/></linearGradient></defs><g transform="translate(-85.35135,-100.1757)"><g stroke-miterlimit="10" stroke-dasharray="" stroke-dashoffset="0" style="mix-blend-mode: normal"><path d="M91.75,252.25007v-144.5h296.5v144.5z" fill="#bb71e6" fill-rule="nonzero" stroke="none" stroke-width="0" stroke-linecap="butt" stroke-linejoin="miter"/><g fill-rule="nonzero" stroke="none" stroke-width="1" stroke-linecap="butt" stroke-linejoin="miter"><path d="M338.15018,134.70167c0.19115,0.18309 -50.05576,13.47 -50.875,13.44385c-0.10923,0 18.40566,-35.57126 18.46028,-35.57126c0.02731,0.02616 32.27819,22.02279 32.41473,22.12741z" fill="#cf7dff"/><path d="M380.3412,157.01216c-0.13654,0.10462 -32.36011,-17.52408 -32.36011,-17.73332c0,-0.07846 23.15727,-22.33666 23.15727,-22.33666c0,0 9.25745,39.99151 9.20283,40.06998z" fill="#a764cd"/><path d="M277.79926,117.38684c0,0.60157 -9.14822,39.65149 -9.28476,39.62534c-0.08193,0 -27.82696,-31.04639 -27.82696,-31.04639c0,0 37.11172,-8.72833 37.11172,-8.57895z" fill="#cf7dff"/><path d="M310.51437,192.9496c0,0 -27.85427,-26.78306 -27.79965,-26.83537c0.16385,-0.10462 50.73846,-17.70716 50.92962,-17.70716c0.08193,0 -23.12997,44.54254 -23.12997,44.54254z" fill="#a764cd"/><path d="M375.56228,188.29395c0,0.07846 -46.1507,0.05231 -46.1507,-0.02616c0,-0.18309 17.99604,-30.44481 18.29643,-30.78483c0.10923,-0.13077 27.85427,30.73252 27.85427,30.81099z" fill="#cf7dff"/><path d="M291.72639,192.87113c0,0.20924 -36.89325,13.39153 -37.0571,13.26076c-0.13654,-0.15694 -13.98175,-48.67508 -13.89983,-48.75354c0.02731,-0.02615 50.95693,35.41432 50.95693,35.49279z" fill="#a563cb"/><path d="M356.88354,197.76219c-0.57347,1.43855 -18.29643,30.68021 -18.48759,30.49712c-0.35501,-0.34002 -18.26912,-30.44481 -18.26912,-30.70637c0,-0.13077 36.92056,-0.20924 36.75671,0.20925z" fill="#a764cd"/><path d="M371.43876,211.85991c1.14694,4.21101 8.98437,34.49889 8.92975,34.5512c-0.05462,0.05231 -37.0571,-0.05231 -37.0571,-0.05231c0,0 27.66311,-35.3097 27.71773,-35.38816c0.08193,-0.05231 0.24577,0.34002 0.40963,0.88928z" fill="#a764cd"/><path d="M319.74451,211.36296c-0.08193,0.26155 -8.7659,33.58345 -8.90244,34.0804l-0.27308,0.9416l-27.85427,-26.7046c0,0 36.62017,-8.76204 36.81132,-8.76204c0.21847,0 0.3004,0.18309 0.21847,0.44464z" fill="#cf7dff"/><path d="M249.83575,246.01878c-0.08193,-0.2354 -8.98436,-30.15711 -9.03898,-30.34019c-0.08193,-0.2354 37.0571,-0.31386 37.0571,-0.31386c0,0 -27.90889,30.99408 -28.01812,30.65406z" fill="#cf7dff"/></g><g fill-rule="nonzero" stroke="none" stroke-width="1" stroke-linecap="butt" stroke-linejoin="miter"><path d="M197.09385,134.70167c0.19115,0.18309 -50.05576,13.47 -50.875,13.44385c-0.10924,0 18.40566,-35.57126 18.46028,-35.57126c0.02731,0.02616 32.27818,22.02279 32.41472,22.12741z" fill="#a764cd"/><path d="M239.28487,157.01216c-0.13654,0.10462 -32.36011,-17.52408 -32.36011,-17.73332c0,-0.07846 23.15728,-22.33666 23.15728,-22.33666c0,0 9.25745,39.99151 9.20283,40.06998z" fill="#a563cb"/><path d="M136.74293,117.38684c0,0.60157 -9.14822,39.65149 -9.28476,39.62534c-0.08192,0 -27.82696,-31.04639 -27.82696,-31.04639c0,0 37.11172,-8.72832 37.11172,-8.57895z" fill="#cf7dff"/><path d="M169.45804,192.94961c0,0 -27.85427,-26.78307 -27.79965,-26.83538c0.16385,-0.10462 50.73847,-17.70716 50.92962,-17.70716c0.08192,0 -23.12997,44.54254 -23.12997,44.54254z" fill="#cf7dff"/><path d="M234.50596,188.29395c0,0.07846 -46.1507,0.05231 -46.1507,-0.02615c0,-0.18309 17.99604,-30.44482 18.29643,-30.78484c0.10924,-0.13078 27.85427,30.73252 27.85427,30.81099z" fill="#a764cd"/><path d="M150.67006,192.87113c0,0.20924 -36.89324,13.39154 -37.0571,13.26076c-0.13654,-0.15693 -13.98176,-48.67508 -13.89983,-48.75355c0.02731,-0.02615 50.95693,35.41432 50.95693,35.49279z" fill="#a764cd"/><path d="M215.82721,197.76218c-0.57346,1.43855 -18.29644,30.68021 -18.48759,30.49712c-0.35501,-0.34002 -18.26912,-30.44482 -18.26912,-30.70637c0,-0.13078 36.92057,-0.20924 36.75671,0.20925z" fill="#cf7dff"/><path d="M230.38243,211.85991c1.14694,4.21101 8.98437,34.49889 8.92975,34.5512c-0.05462,0.05231 -37.0571,-0.05231 -37.0571,-0.05231c0,0 27.6631,-35.3097 27.71772,-35.38816c0.08192,-0.05231 0.24578,0.34002 0.40963,0.88928z" fill="#a764cd"/><path d="M178.68819,211.36296c-0.08192,0.26155 -8.7659,33.58345 -8.90244,34.0804l-0.27308,0.9416l-27.85427,-26.7046c0,0 36.62018,-8.76204 36.81133,-8.76204c0.21846,0 0.30039,0.18309 0.21847,0.44465z" fill="#a563cb"/><path d="M108.77943,246.01878c-0.08192,-0.2354 -8.98437,-30.1571 -9.03899,-30.34019c-0.08192,-0.2354 37.05711,-0.31387 37.05711,-0.31387c0,0 -27.90888,30.99408 -28.01812,30.65406z" fill="#cf7dff"/></g><path d="M111.01042,232.25162v-28.41426c0,-0.63638 1.54339,-0.95458 4.63014,-0.95458c3.0927,0 4.63906,0.3182 4.63906,0.95458v22.38348h7.03889c0.54717,0 0.92781,0.71668 1.14192,2.15002c0.08921,0.69586 0.13382,1.40956 0.13382,2.14111c0,0.73155 -0.04461,1.47795 -0.13382,2.23924c-0.24385,1.46309 -0.63935,2.19464 -1.18653,2.19464h-14.06885c-0.67207,0 -1.20735,-0.27359 -1.60583,-0.82076c-0.39253,-0.54718 -0.58881,-1.17166 -0.58881,-1.87347zM134.23487,212.79429c1.73073,-0.76128 4.10974,-1.14192 7.13702,-1.14192c3.03323,0 5.17435,0.70776 6.42332,2.12327c1.24898,1.41551 1.87346,3.50903 1.87346,6.28057v7.21731c0,0 4.45274,-1.88884 4.45274,-0.82423c0,1.06461 -1.51764,6.36435 -2.05292,7.39921c-0.53528,1.03486 -1.2579,1.5523 -2.16787,1.5523c-1.64746,0 -2.97376,-0.44011 -3.97889,-1.32035c-0.45201,-0.36875 -0.79994,-0.81184 -1.04379,-1.32927c-1.40362,1.76641 -3.58338,2.64962 -6.53929,2.64962c-2.21842,0 -4.08892,-0.79101 -5.61148,-2.37305c-1.52256,-1.58204 -2.28384,-3.45551 -2.28384,-5.62041c0,-4.96023 2.9678,-7.44035 8.90342,-7.44035h2.51581v-0.46391c0,-0.79102 -0.13084,-1.29953 -0.39254,-1.52554c-0.25574,-0.22601 -0.85645,-0.33901 -1.8021,-0.33901c-1.15976,0 -2.80426,0.24087 -4.93347,0.72262c0,0 -1.27574,-2.76262 -1.27574,-3.72017c0,0 0.25872,-1.5731 0.77616,-1.84669zM137.86441,226.77396c0,0.66612 0.1814,1.17463 0.5442,1.52553c0.3628,0.35091 0.8267,0.52635 1.39172,0.52635c0.56501,0 3.96539,-1.67342 4.42335,-2.13138l-4.17356,-2.07054c-1.45714,0 -2.18571,0.71668 -2.18571,2.15003zM153.12094,212.33932c0,-0.33901 1.39171,-0.50851 4.17515,-0.50851c2.78939,0 4.23166,0.15166 4.32682,0.45499l3.28303,10.78582l3.14921,-10.87503c0.1249,-0.24385 1.07055,-0.36577 2.83696,-0.36577c4.05026,0 5.9832,0.19925 5.79883,0.59773l-10.73229,30.55536c-0.02974,0.18437 -0.85942,0.27656 -2.48904,0.27656c-1.62962,0 -3.14623,-0.05353 -4.54985,-0.16058c-1.39766,-0.10706 -2.06676,-0.2379 -2.00729,-0.39254l3.97889,-9.59037zM196.51792,233.7147c-1.92105,1.12408 -4.38927,1.68612 -7.40466,1.68612c-3.01539,0 -5.55795,-1.02595 -7.62769,-3.07784c-2.06974,-2.05784 -3.1046,-4.9067 -3.1046,-8.54658c0,-3.63988 0.99621,-6.56903 2.98863,-8.78745c1.99837,-2.22437 4.52011,-3.33656 7.56524,-3.33656c3.04513,0 5.39738,0.77615 7.05673,2.32845c1.65936,1.5523 2.48904,3.44064 2.48904,5.66501c0,4.93049 -2.83102,7.39574 -8.49305,7.39574h-3.15813c0,0.91592 0.24979,1.54932 0.74938,1.90023c0.50554,0.35091 1.246,0.52635 2.2214,0.52635c2.13516,0 4.16029,-0.48769 6.07539,-1.46309c0.02974,-0.02974 0.16653,0.1814 0.41038,0.63341c0.73155,1.3144 1.09731,2.42064 1.09731,3.31871c0,0.89808 -0.28845,1.48391 -0.86536,1.75749zM190.80831,220.51121c0,-1.27872 -0.62449,-1.91807 -1.87347,-1.91807c-0.57691,0 -1.07352,0.17545 -1.48985,0.52635c-0.41038,0.35091 -0.61557,0.85941 -0.61557,1.52553v1.41849h2.47119c1.00513,0 1.5077,-0.51744 1.5077,-1.5523zM211.45497,234.90123c0,0.21411 -1.38577,0.32117 -4.15731,0.32117c-2.77154,-0.06543 -4.15732,-0.18734 -4.15732,-0.36577v-15.16617h-1.23113c-0.4877,0 -0.87726,-0.29738 -1.16869,-0.89213c-0.29143,-0.59475 -0.43714,-1.33223 -0.43714,-2.21247c0,-3.28897 0.97539,-4.93347 2.92618,-4.93347c1.36793,0 2.50985,0.4193 3.42577,1.2579c0.91592,0.83265 1.37387,1.78426 1.37387,2.8548c0.63638,-1.24898 1.4958,-2.24519 2.57825,-2.98863c1.08245,-0.74938 2.18571,-1.12408 3.30979,-1.12408c1.76641,0 2.83399,0.45499 3.20274,1.36496c0.08921,0.24385 0.13382,0.60367 0.13382,1.07948c0,0.46985 -0.14572,1.31439 -0.43714,2.53364c-0.28548,1.21924 -0.58286,2.10245 -0.89213,2.64962c-0.30333,0.54718 -0.48473,0.82075 -0.5442,0.82075c-0.05947,0 -0.34198,-0.11299 -0.84752,-0.339c-0.49959,-0.23195 -0.94863,-0.34794 -1.34711,-0.34794c-1.15382,0 -1.73073,0.91294 -1.73073,2.73883zM241.41331,202.5616c2.22437,0 4.1811,0.31224 5.8702,0.93673c1.6891,0.62449 2.53364,1.46904 2.53364,2.53364c0,1.06461 -0.40443,2.38199 -1.21329,3.95213c-0.80292,1.57014 -1.47796,2.35521 -2.02513,2.35521c-0.15464,0 -0.33009,-0.08327 -0.52636,-0.2498c-0.19627,-0.17248 -0.65422,-0.35685 -1.37387,-0.55312c-0.7137,-0.19627 -1.32926,-0.2944 -1.8467,-0.2944c-1.76641,0 -3.19085,0.62449 -4.2733,1.87347c-1.0765,1.24898 -1.61475,3.1611 -1.61475,5.73638c0,2.56933 0.55312,4.47849 1.65936,5.72746c1.11219,1.24898 2.52175,1.87346 4.22869,1.87346c0.70181,0 1.48687,-0.09813 2.35521,-0.2944c0.86834,-0.20221 1.48391,-0.48472 1.8467,-0.84752c0.05947,-0.06543 0.18141,-0.09813 0.36578,-0.09813c0.18437,0 0.52635,0.34495 1.02594,1.03487c0.50554,0.68397 0.96945,1.58204 1.39172,2.69423c0.42822,1.11219 0.64233,1.97161 0.64233,2.57825c0,1.1895 -0.91294,2.13515 -2.73883,2.83696c-1.82589,0.69586 -3.9878,1.04379 -6.48576,1.04379c-4.02052,0 -7.32437,-1.41551 -9.91154,-4.24653c-2.58717,-2.83102 -3.88076,-6.82775 -3.88076,-11.99019c0,-5.16244 1.33224,-9.21865 3.99673,-12.16862c2.66449,-2.95592 5.98916,-4.43388 9.97399,-4.43388zM255.73479,232.25162c-1.90321,-2.09948 -2.85481,-5.00781 -2.85481,-8.72501c0,-3.7172 0.95161,-6.62553 2.85481,-8.72501c1.9032,-2.09948 4.46957,-3.14921 7.69906,-3.14921c3.2295,0 5.78693,1.04973 7.6723,3.14921c1.88536,2.09948 2.82804,5.00781 2.82804,8.72501c0,3.7172 -0.94268,6.62553 -2.82804,8.72501c-1.88536,2.09948 -4.4428,3.14921 -7.6723,3.14921c-3.2295,0 -5.79586,-1.04973 -7.69906,-3.14921zM263.45169,219.28008c-1.71883,0 -2.57825,1.40064 -2.57825,4.20192c0,2.80128 0.85942,4.20192 2.57825,4.20192c1.72478,0 2.58717,-1.40064 2.58717,-4.20192c0,-2.80128 -0.86239,-4.20192 -2.58717,-4.20192zM286.72335,234.66928c0,0.21411 -1.09434,0.32117 -3.28303,0.32117c-3.04512,-0.08921 -4.56769,-0.25574 -4.56769,-0.49959v-14.80039h-1.18653c-0.79102,0 -1.30846,-0.6691 -1.55231,-2.00729c-0.06543,-0.39848 -0.09813,-0.79399 -0.09813,-1.18653c0,-0.94565 0.18437,-1.89131 0.55312,-2.83697c0.54717,-1.33819 1.39767,-2.00729 2.55149,-2.00729c1.15976,0 2.19463,0.27358 3.1046,0.82076c0.91592,0.54718 1.52851,1.09434 1.83778,1.64151c1.9151,-1.64151 4.19597,-2.46228 6.84262,-2.46228c2.65259,0 4.57067,0.71668 5.75422,2.15003c1.1895,1.4274 1.78426,3.77072 1.78426,7.02997v13.70308c0,0.3628 -1.3025,0.5442 -3.90751,0.5442c-2.59906,0 -3.8986,-0.1814 -3.8986,-0.5442v-13.20349c0,-1.52256 -0.53231,-2.28385 -1.59691,-2.28385c-0.30927,0 -0.73749,0.13084 -1.28466,0.39254c-0.54717,0.25574 -0.89807,0.44607 -1.05271,0.57097zM312.85481,234.66928c0,0.36875 -1.27871,0.55312 -3.83614,0.55312c-3.04512,-0.1249 -4.5677,-0.32414 -4.5677,-0.59772v-16.16536h-2.32845c-0.61259,0 -0.9189,-1.05271 -0.9189,-3.15813c0,-0.54718 0.05353,-1.21627 0.16059,-2.00729c0.10706,-0.79102 0.33008,-1.18653 0.66909,-1.18653h2.41766v-4.0235c0,-0.60664 1.28466,-0.90996 3.85399,-0.90996c2.57527,0 3.86291,0.24384 3.86291,0.73154v2.92618l0.04461,1.27575h3.88968c0.51743,0 0.77616,1.06758 0.77616,3.20274c0,2.12921 -0.25872,3.19382 -0.77616,3.19382h-3.24734zM329.16431,234.90123c0,0.21411 -1.38577,0.32117 -4.15731,0.32117c-2.77154,-0.06543 -4.15731,-0.18734 -4.15731,-0.36577v-15.16617h-1.23114c-0.48769,0 -0.87726,-0.29738 -1.16869,-0.89213c-0.29143,-0.59475 -0.43714,-1.33223 -0.43714,-2.21247c0,-3.28897 0.97539,-4.93347 2.92618,-4.93347c1.36793,0 2.50985,0.4193 3.42577,1.2579c0.91592,0.83265 1.37387,1.78426 1.37387,2.8548c0.63639,-1.24898 1.4958,-2.24519 2.57825,-2.98863c1.08245,-0.74938 2.18571,-1.12408 3.30979,-1.12408c1.76641,0 2.83399,0.45499 3.20274,1.36496c0.08922,0.24385 0.13382,0.60367 0.13382,1.07948c0,0.46985 -0.14571,1.31439 -0.43714,2.53364c-0.28548,1.21924 -0.58286,2.10245 -0.89213,2.64962c-0.30332,0.54718 -0.48473,0.82075 -0.5442,0.82075c-0.05947,0 -0.34199,-0.11299 -0.84753,-0.339c-0.49959,-0.23195 -0.94863,-0.34794 -1.34711,-0.34794c-1.15382,0 -1.73073,0.91294 -1.73073,2.73883zM339.23215,232.25162c-1.90321,-2.09948 -2.85481,-5.00781 -2.85481,-8.72501c0,-3.7172 0.9516,-6.62553 2.85481,-8.72501c1.90321,-2.09948 4.46956,-3.14921 7.69905,-3.14921c3.2295,0 5.78694,1.04973 7.6723,3.14921c1.88536,2.09948 2.82805,5.00781 2.82805,8.72501c0,3.7172 -0.94268,6.62553 -2.82805,8.72501c-1.88536,2.09948 -4.4428,3.14921 -7.6723,3.14921c-3.2295,0 -5.79585,-1.04973 -7.69905,-3.14921zM346.94905,219.28008c-1.71883,0 -2.57825,1.40064 -2.57825,4.20192c0,2.80128 0.85942,4.20192 2.57825,4.20192c1.72478,0 2.58717,-1.40064 2.58717,-4.20192c0,-2.80128 -0.86239,-4.20192 -2.58717,-4.20192zM368.98958,234.58006c0,0.27358 -1.5523,0.41038 -4.6569,0.41038c-2.43848,-0.02974 -3.65772,-0.15166 -3.65772,-0.36577v-31.10849c0,-0.45201 1.47796,-0.67802 4.43388,-0.67802c2.58717,0.08921 3.88075,0.24087 3.88075,0.45498z" fill="none" fill-rule="nonzero" stroke-opacity="0.50588" stroke="#000000" stroke-width="8" stroke-linecap="square" stroke-linejoin="miter"/><path d="M111.01042,232.36273v-28.41426c0,-0.63638 1.54338,-0.95458 4.63014,-0.95458c3.09271,0 4.63907,0.31819 4.63907,0.95458v22.38348h7.03889c0.54717,0 0.92781,0.71668 1.14192,2.15002c0.08921,0.69586 0.13382,1.40956 0.13382,2.14111c0,0.73155 -0.04461,1.47796 -0.13382,2.23924c-0.24385,1.46309 -0.63936,2.19463 -1.18653,2.19463h-14.06885c-0.67207,0 -1.20735,-0.27359 -1.60583,-0.82076c-0.39253,-0.54717 -0.58881,-1.17166 -0.58881,-1.87347zM135.15114,218.47229c-0.85049,-1.52256 -1.27575,-2.76262 -1.27575,-3.72017c0,-0.95755 0.25871,-1.57312 0.77615,-1.84671c1.73073,-0.76128 4.10974,-1.14192 7.13702,-1.14192c3.03323,0 5.17434,0.70775 6.42332,2.12327c1.24898,1.41551 1.87346,3.50904 1.87346,6.28058v7.21731h1.55231c0.51744,0 0.92187,0.3063 1.21329,0.91889c0.29143,0.60664 0.43714,1.44227 0.43714,2.50688c0,1.06461 -0.26764,2.11434 -0.80292,3.14921c-0.53528,1.03487 -1.2579,1.5523 -2.16787,1.5523c-1.64746,0 -2.97376,-0.44011 -3.97889,-1.32035c-0.45201,-0.36874 -0.79993,-0.81184 -1.04378,-1.32927c-1.40362,1.76641 -3.58338,2.64962 -6.5393,2.64962c-2.21842,0 -4.08892,-0.79102 -5.61148,-2.37306c-1.52256,-1.58204 -2.28384,-3.4555 -2.28384,-5.6204c0,-4.96023 2.9678,-7.44035 8.90342,-7.44035h2.5158v-0.46391c0,-0.79102 -0.13084,-1.29953 -0.39253,-1.52554c-0.25574,-0.226 -0.85644,-0.33901 -1.8021,-0.33901c-1.15976,0 -2.80426,0.24087 -4.93347,0.72262zM138.14219,226.88507c0,0.66612 0.1814,1.17463 0.5442,1.52553c0.3628,0.35091 0.8267,0.52635 1.39172,0.52635c0.56501,0 1.0765,-0.22897 1.53446,-0.68694v-3.51498h-1.28466c-1.45714,0 -2.18571,0.71668 -2.18571,2.15003zM153.12094,212.45044c0,-0.33901 1.39171,-0.50851 4.17515,-0.50851c2.78939,0 4.23166,0.15166 4.32682,0.45498l3.28303,10.78582l3.14921,-10.87503c0.1249,-0.24385 1.07055,-0.36577 2.83696,-0.36577c4.05026,0 5.9832,0.19924 5.79883,0.59772l-10.73229,30.55536c-0.02974,0.18437 -0.85942,0.27656 -2.48904,0.27656c-1.62962,0 -3.14623,-0.05353 -4.54985,-0.16058c-1.39766,-0.10706 -2.06677,-0.2379 -2.00729,-0.39254l3.97889,-9.59037zM196.51792,233.82581c-1.92105,1.12408 -4.38927,1.68612 -7.40466,1.68612c-3.01539,0 -5.55795,-1.02595 -7.62769,-3.07784c-2.06974,-2.05784 -3.1046,-4.9067 -3.1046,-8.54658c0,-3.63988 0.99621,-6.56903 2.98863,-8.78745c1.99837,-2.22437 4.52011,-3.33656 7.56524,-3.33656c3.04513,0 5.39738,0.77615 7.05673,2.32845c1.65936,1.5523 2.48904,3.44064 2.48904,5.66501c0,4.93049 -2.83102,7.39574 -8.49305,7.39574h-3.15813c0,0.91592 0.24979,1.54933 0.74938,1.90024c0.50554,0.35091 1.246,0.52635 2.2214,0.52635c2.13516,0 4.16029,-0.4877 6.07539,-1.46309c0.02974,-0.02974 0.16653,0.1814 0.41038,0.63341c0.73155,1.3144 1.09732,2.42064 1.09732,3.31871c0,0.89808 -0.28845,1.4839 -0.86536,1.75749zM190.80831,220.62232c0,-1.27872 -0.62449,-1.91807 -1.87347,-1.91807c-0.57691,0 -1.07353,0.17545 -1.48986,0.52635c-0.41038,0.35091 -0.61556,0.85941 -0.61556,1.52553v1.41849h2.47119c1.00513,0 1.5077,-0.51743 1.5077,-1.5523zM211.45497,235.01234c0,0.21411 -1.38577,0.32117 -4.15731,0.32117c-2.77154,-0.06543 -4.15732,-0.18734 -4.15732,-0.36577v-15.16617h-1.23113c-0.4877,0 -0.87726,-0.29738 -1.16869,-0.89213c-0.29143,-0.59475 -0.43714,-1.33225 -0.43714,-2.21248c0,-3.28897 0.97539,-4.93346 2.92618,-4.93346c1.36793,0 2.50985,0.4193 3.42577,1.2579c0.91592,0.83265 1.37387,1.78425 1.37387,2.85481c0.63638,-1.24898 1.4958,-2.24519 2.57825,-2.98863c1.08245,-0.74938 2.18571,-1.12408 3.30979,-1.12408c1.76641,0 2.83399,0.45498 3.20274,1.36495c0.08921,0.24385 0.13382,0.60368 0.13382,1.07948c0,0.46985 -0.14572,1.3144 -0.43714,2.53365c-0.28548,1.21924 -0.58286,2.10245 -0.89213,2.64962c-0.30333,0.54717 -0.48472,0.82076 -0.5442,0.82076c-0.05947,0 -0.34198,-0.113 -0.84752,-0.33901c-0.49959,-0.23195 -0.94862,-0.34793 -1.34711,-0.34793c-1.15382,0 -1.73073,0.91295 -1.73073,2.73883zM241.41331,202.67273c2.22437,0 4.1811,0.31224 5.8702,0.93673c1.6891,0.62449 2.53364,1.46904 2.53364,2.53364c0,1.06461 -0.40444,2.38198 -1.2133,3.95213c-0.80292,1.57014 -1.47796,2.35521 -2.02513,2.35521c-0.15464,0 -0.33008,-0.08327 -0.52635,-0.2498c-0.19627,-0.17248 -0.65422,-0.35685 -1.37387,-0.55312c-0.7137,-0.19627 -1.32927,-0.2944 -1.84671,-0.2944c-1.76641,0 -3.19084,0.62449 -4.27329,1.87347c-1.0765,1.24898 -1.61475,3.1611 -1.61475,5.73638c0,2.56932 0.55311,4.47848 1.65936,5.72746c1.11219,1.24898 2.52174,1.87347 4.22868,1.87347c0.70181,0 1.48688,-0.09814 2.35522,-0.29441c0.86834,-0.20221 1.4839,-0.48472 1.8467,-0.84752c0.05947,-0.06543 0.18141,-0.09813 0.36578,-0.09813c0.18437,0 0.52635,0.34495 1.02594,1.03487c0.50554,0.68397 0.96945,1.58204 1.39172,2.69423c0.42822,1.11219 0.64233,1.9716 0.64233,2.57825c0,1.1895 -0.91295,2.13516 -2.73883,2.83696c-1.82588,0.69586 -3.98781,1.04379 -6.48576,1.04379c-4.02052,0 -7.32437,-1.41551 -9.91154,-4.24653c-2.58717,-2.83102 -3.88075,-6.82775 -3.88075,-11.99019c0,-5.16244 1.33225,-9.21865 3.99674,-12.16862c2.66449,-2.95592 5.98915,-4.43387 9.97398,-4.43387zM255.73479,232.36273c-1.90321,-2.09948 -2.8548,-5.00781 -2.8548,-8.72501c0,-3.7172 0.9516,-6.62553 2.8548,-8.72501c1.9032,-2.09948 4.46956,-3.14921 7.69906,-3.14921c3.2295,0 5.78694,1.04973 7.6723,3.14921c1.88536,2.09948 2.82804,5.00781 2.82804,8.72501c0,3.7172 -0.94268,6.62553 -2.82804,8.72501c-1.88536,2.09948 -4.4428,3.14921 -7.6723,3.14921c-3.2295,0 -5.79586,-1.04973 -7.69906,-3.14921zM263.45169,219.39119c-1.71883,0 -2.57825,1.40064 -2.57825,4.20192c0,2.80128 0.85942,4.20192 2.57825,4.20192c1.72478,0 2.58717,-1.40064 2.58717,-4.20192c0,-2.80128 -0.86239,-4.20192 -2.58717,-4.20192zM286.72335,234.78037c0,0.21411 -1.09434,0.32117 -3.28303,0.32117c-3.04513,-0.08921 -4.56769,-0.25574 -4.56769,-0.49959v-14.80039h-1.18653c-0.79102,0 -1.30845,-0.6691 -1.5523,-2.00729c-0.06543,-0.39848 -0.09814,-0.79399 -0.09814,-1.18653c0,-0.94565 0.18437,-1.89131 0.55312,-2.83697c0.54717,-1.33819 1.39767,-2.00729 2.55149,-2.00729c1.15976,0 2.19463,0.27359 3.1046,0.82076c0.91591,0.54717 1.52851,1.09435 1.83778,1.64151c1.9151,-1.64151 4.19598,-2.46228 6.84262,-2.46228c2.6526,0 4.57066,0.71668 5.75422,2.15003c1.1895,1.4274 1.78426,3.77072 1.78426,7.02997v13.70308c0,0.3628 -1.30251,0.5442 -3.90752,0.5442c-2.59906,0 -3.89859,-0.1814 -3.89859,-0.5442v-13.20349c0,-1.52256 -0.53231,-2.28385 -1.59691,-2.28385c-0.30927,0 -0.73749,0.13085 -1.28466,0.39254c-0.54717,0.25574 -0.89808,0.44606 -1.05271,0.57096zM312.85481,234.78037c0,0.36874 -1.27871,0.55312 -3.83614,0.55312c-3.04513,-0.1249 -4.5677,-0.32414 -4.5677,-0.59772v-16.16535h-2.32845c-0.61259,0 -0.9189,-1.05271 -0.9189,-3.15813c0,-0.54717 0.05353,-1.21627 0.16059,-2.00729c0.10706,-0.79102 0.33008,-1.18653 0.66909,-1.18653h2.41766v-4.02349c0,-0.60664 1.28467,-0.90997 3.85399,-0.90997c2.57527,0 3.86291,0.24385 3.86291,0.73155v2.92618l0.0446,1.27574h3.88968c0.51743,0 0.77615,1.06758 0.77615,3.20274c0,2.12921 -0.25872,3.19382 -0.77615,3.19382h-3.24734zM329.16431,235.01234c0,0.21411 -1.38577,0.32117 -4.15731,0.32117c-2.77154,-0.06543 -4.15731,-0.18734 -4.15731,-0.36577v-15.16617h-1.23114c-0.48769,0 -0.87726,-0.29738 -1.16868,-0.89213c-0.29143,-0.59475 -0.43714,-1.33225 -0.43714,-2.21248c0,-3.28897 0.97539,-4.93346 2.92618,-4.93346c1.36793,0 2.50986,0.4193 3.42577,1.2579c0.91591,0.83265 1.37387,1.78425 1.37387,2.85481c0.63639,-1.24898 1.4958,-2.24519 2.57825,-2.98863c1.08245,-0.74938 2.18571,-1.12408 3.30979,-1.12408c1.76641,0 2.83399,0.45498 3.20274,1.36495c0.08922,0.24385 0.13382,0.60368 0.13382,1.07948c0,0.46985 -0.14571,1.3144 -0.43714,2.53365c-0.28548,1.21924 -0.58286,2.10245 -0.89213,2.64962c-0.30332,0.54717 -0.48472,0.82076 -0.5442,0.82076c-0.05948,0 -0.34198,-0.113 -0.84752,-0.33901c-0.49959,-0.23195 -0.94862,-0.34793 -1.34711,-0.34793c-1.15382,0 -1.73073,0.91295 -1.73073,2.73883zM339.23215,232.36273c-1.90321,-2.09948 -2.85481,-5.00781 -2.85481,-8.72501c0,-3.7172 0.9516,-6.62553 2.85481,-8.72501c1.90321,-2.09948 4.46956,-3.14921 7.69906,-3.14921c3.2295,0 5.78693,1.04973 7.6723,3.14921c1.88536,2.09948 2.82805,5.00781 2.82805,8.72501c0,3.7172 -0.94268,6.62553 -2.82805,8.72501c-1.88536,2.09948 -4.4428,3.14921 -7.6723,3.14921c-3.2295,0 -5.79585,-1.04973 -7.69906,-3.14921zM346.94905,219.39119c-1.71883,0 -2.57825,1.40064 -2.57825,4.20192c0,2.80128 0.85942,4.20192 2.57825,4.20192c1.72478,0 2.58717,-1.40064 2.58717,-4.20192c0,-2.80128 -0.86239,-4.20192 -2.58717,-4.20192zM368.98958,234.69117c0,0.27358 -1.5523,0.41038 -4.6569,0.41038c-2.43849,-0.02974 -3.65772,-0.15166 -3.65772,-0.36577v-31.10848c0,-0.45201 1.47796,-0.67802 4.43388,-0.67802c2.58717,0.08921 3.88075,0.24087 3.88075,0.45498z" fill="#ffffff" fill-rule="nonzero" stroke="none" stroke-width="1" stroke-linecap="square" stroke-linejoin="miter"/><path d="M215.63258,160.62901c-3.47898,0 -6.29924,-2.82027 -6.29924,-6.29924v-22.69711c0,-3.47898 2.82027,-6.29924 6.29924,-6.29924h22.69711c3.47898,0 6.29924,2.82027 6.29924,6.29924v6.71963h6.71963c3.47898,0 6.29924,2.82027 6.29924,6.29924v6.71963h6.71963c3.47898,0 6.29924,2.82027 6.29924,6.29924v22.69711c0,3.47898 -2.82027,6.29924 -6.29924,6.29924h-22.69711c-3.47898,0 -6.29924,-2.82027 -6.29924,-6.29924v-6.71963h-6.71963c-3.47898,0 -6.29924,-2.82027 -6.29924,-6.29924v-6.71963z" fill="none" fill-rule="nonzero" stroke-opacity="0.50588" stroke="#000000" stroke-width="15" stroke-linecap="butt" stroke-linejoin="miter"/><path d="M215.63258,160.62903c-3.47898,0 -6.29924,-2.82027 -6.29924,-6.29924v-22.69711c0,-3.47898 2.82027,-6.29924 6.29924,-6.29924h22.69711c3.47898,0 6.29924,2.82027 6.29924,6.29924v22.69711c0,3.47898 -2.82027,6.29924 -6.29924,6.29924z" fill="none" fill-rule="nonzero" stroke="#bb71e6" stroke-width="7.5" stroke-linecap="butt" stroke-linejoin="miter"/><path d="M215.63258,160.62903c-3.47898,0 -6.29924,-2.82027 -6.29924,-6.29924v-22.69711c0,-3.47898 2.82027,-6.29924 6.29924,-6.29924h22.69711c3.47898,0 6.29924,2.82027 6.29924,6.29924v22.69711c0,3.47898 -2.82027,6.29924 -6.29924,6.29924z" fill="#ffffff" fill-rule="nonzero" stroke="none" stroke-width="0" stroke-linecap="butt" stroke-linejoin="miter"/><path d="M228.65145,173.6479c-3.47898,0 -6.29924,-2.82027 -6.29924,-6.29924v-22.69711c0,-3.47898 2.82027,-6.29924 6.29924,-6.29924h22.69711c3.47898,0 6.29924,2.82027 6.29924,6.29924v22.69711c0,3.47898 -2.82027,6.29924 -6.29924,6.29924z" fill="none" fill-rule="nonzero" stroke="#bb71e6" stroke-width="7.5" stroke-linecap="butt" stroke-linejoin="miter"/><path d="M228.65145,173.6479c-3.47898,0 -6.29924,-2.82027 -6.29924,-6.29924v-22.69711c0,-3.47898 2.82027,-6.29924 6.29924,-6.29924h22.69711c3.47898,0 6.29924,2.82027 6.29924,6.29924v22.69711c0,3.47898 -2.82027,6.29924 -6.29924,6.29924z" fill="#ffffff" fill-rule="nonzero" stroke="none" stroke-width="0" stroke-linecap="butt" stroke-linejoin="miter"/><path d="M241.67032,186.66677c-3.47898,0 -6.29924,-2.82027 -6.29924,-6.29924v-22.69711c0,-3.47898 2.82027,-6.29924 6.29924,-6.29924h22.69711c3.47898,0 6.29924,2.82027 6.29924,6.29924v22.69711c0,3.47898 -2.82027,6.29924 -6.29924,6.29924z" fill="none" fill-rule="nonzero" stroke="#bb71e6" stroke-width="7.5" stroke-linecap="butt" stroke-linejoin="miter"/><path d="M241.67032,186.66677c-3.47898,0 -6.29924,-2.82027 -6.29924,-6.29924v-22.69711c0,-3.47898 2.82027,-6.29924 6.29924,-6.29924h22.69711c3.47898,0 6.29924,2.82027 6.29924,6.29924v22.69711c0,3.47898 -2.82027,6.29924 -6.29924,6.29924z" fill="#ffffff" fill-rule="nonzero" stroke="none" stroke-width="0" stroke-linecap="butt" stroke-linejoin="miter"/><path d="M128.95519,155.50124l-4.96951,-0.01076l3.54656,-3.46441c2.42173,-2.36425 5.16039,-4.17244 8.15618,-5.38542l27.8701,-11.2856c1.19347,-0.48256 2.80553,0.70232 3.6024,2.64969c0.79572,1.94455 0.47607,3.91416 -0.7174,4.39672l-27.87051,11.28659c-2.99621,1.21397 -6.22695,1.82353 -9.61782,1.81319" fill="none" fill-rule="evenodd" stroke-opacity="0.4902" stroke="#000000" stroke-width="7" stroke-linecap="round" stroke-linejoin="round"/><path d="M161.48574,136.9568c0,0 -2.53423,-4.81562 -10.81528,0.19071c-2.16111,1.30634 -4.1548,0.88727 -4.92896,-0.89363c-0.31703,-0.72932 1.55814,-1.44433 1.55814,-1.44433" fill="none" fill-rule="evenodd" stroke-opacity="0.4902" stroke="#000000" stroke-width="7" stroke-linecap="round" stroke-linejoin="round"/><path d="M128.95519,155.50124l-4.96951,-0.01076l3.54656,-3.46442c2.42173,-2.36425 5.16039,-4.17244 8.15618,-5.38542l27.8701,-11.2856c1.19346,-0.48255 2.80553,0.70231 3.6024,2.64969c0.79572,1.94455 0.47606,3.91416 -0.7174,4.39672l-27.87051,11.28659c-2.99621,1.21397 -6.22695,1.82353 -9.61782,1.81319" fill="#ffffff" fill-rule="evenodd" stroke="#ffffff" stroke-width="1" stroke-linecap="round" stroke-linejoin="round"/><path d="M145.85128,135.89583c0,0 0.99239,3.56488 4.81918,1.25169c8.28105,-5.00632 10.81528,-0.19071 10.81528,-0.19071" fill="none" fill-rule="evenodd" stroke="#ffffff" stroke-width="2" stroke-linecap="round" stroke-linejoin="round"/><path d="M147.63447,136.32516c-0.30253,0.44641 -0.90827,0.56356 -1.35468,0.26103c-0.44641,-0.30253 -0.56295,-0.90917 -0.26103,-1.35468c0.30253,-0.44641 0.90974,-0.55996 1.35526,-0.25803c0.44641,0.30253 0.56266,0.90767 0.26014,1.35408z" fill="#ffffff" fill-rule="evenodd" stroke="#ffffff" stroke-width="2" stroke-linecap="round" stroke-linejoin="round"/><path d="M166.29004,165.3438c1.4773,2.06349 3.41447,4.18332 6.04212,5.40128c2.93911,1.36297 6.7967,1.61461 11.93867,-0.57918c0.33349,-0.14274 0.72136,-0.02712 0.92227,0.27492c0.20091,0.30204 0.15762,0.70445 -0.10294,0.95685c-1.26682,1.42467 -2.59461,2.54496 -3.95271,3.40091c-3.72747,2.35276 -7.66396,2.71834 -11.25009,1.97849c-3.55097,-0.73205 -6.75671,-2.55524 -9.06312,-4.59814c-0.88469,-0.78238 -1.64217,-1.60157 -2.23962,-2.40807l-3.70028,3.11504c-0.24087,0.20328 -0.58312,0.23431 -0.85662,0.07766c-0.2735,-0.15665 -0.41991,-0.46755 -0.36645,-0.77817l2.51337,-14.69393c0.07035,-0.40897 0.45862,-0.6837 0.86769,-0.61397l0.11904,0.02958l14.39832,4.96945c0.29792,0.10324 0.49997,0.38117 0.50628,0.69641c0.00632,0.31524 -0.18444,0.60103 -0.47798,0.71612z" fill="#ffffff" fill-rule="nonzero" stroke-opacity="0.50588" stroke="#000000" stroke-width="6" stroke-linecap="butt" stroke-linejoin="miter"/><path d="M166.29004,165.3438c1.4773,2.06349 3.41447,4.18332 6.04212,5.40128c2.93911,1.36297 6.7967,1.61461 11.93867,-0.57918c0.33349,-0.14274 0.72136,-0.02712 0.92227,0.27492c0.20091,0.30204 0.15762,0.70445 -0.10294,0.95685c-1.26682,1.42467 -2.59461,2.54496 -3.95271,3.40091c-3.72747,2.35276 -7.66396,2.71834 -11.25009,1.97849c-3.55097,-0.73205 -6.75671,-2.55524 -9.06312,-4.59814c-0.88469,-0.78238 -1.64217,-1.60157 -2.23962,-2.40807l-3.70028,3.11504c-0.24087,0.20328 -0.58312,0.23431 -0.85662,0.07766c-0.2735,-0.15665 -0.41991,-0.46755 -0.36645,-0.77817l2.51337,-14.69393c0.07035,-0.40897 0.45862,-0.6837 0.86769,-0.61397l0.11904,0.02958l14.39832,4.96945c0.29792,0.10324 0.49997,0.38117 0.50628,0.69641c0.00632,0.31524 -0.18444,0.60103 -0.47798,0.71612z" fill="#ffffff" fill-rule="nonzero" stroke="none" stroke-width="1" stroke-linecap="butt" stroke-linejoin="miter"/><path d="M345.97401,152.87541c0.61924,1.96853 5.21973,16.47457 5.21973,16.47457c0.14732,0.46831 -0.12552,0.95029 -0.56807,1.0895c-0.08035,0.02528 -0.22658,0.01058 -0.27067,-0.01241l-0.19884,-0.07442l-12.32952,-2.96043l1.19047,3.78442c1.01498,3.22655 -0.77223,6.8007 -3.92439,7.79229l-14.75247,4.64072c-3.3868,0.9049 -6.83943,-0.89533 -7.84444,-4.09015l-4.11928,-13.0949c-1.0553,-3.35471 0.73544,-6.78914 4.09014,-7.84444l14.75247,-4.64071c3.21103,-1.0101 6.63048,0.81016 7.67868,4.14229l1.20967,3.84545l8.14462,-9.84912c0.36278,-0.4082 1.58463,0.36097 1.72191,0.79733z" fill="none" fill-rule="nonzero" stroke-opacity="0.50588" stroke="#000000" stroke-width="6" stroke-linecap="butt" stroke-linejoin="miter"/><path d="M345.48305,151.94167c0.19764,0.20815 0.35916,0.39619 0.33998,0.33525l5.37071,17.07308c0.14732,0.46831 -0.12552,0.95029 -0.56807,1.0895c-0.08035,0.02528 -0.22658,0.01058 -0.27067,-0.01241l-0.19884,-0.07442l-12.32952,-2.96043l1.19047,3.78442c1.01498,3.22655 -0.77223,6.8007 -3.92439,7.79229l-14.75247,4.64072c-3.3868,0.9049 -6.83943,-0.89533 -7.84444,-4.09015l-4.11928,-13.0949c-1.0553,-3.35471 0.73544,-6.78914 4.09014,-7.84444l14.75247,-4.64071c3.21103,-1.0101 6.63048,0.81016 7.67868,4.14229l1.20967,3.84545l8.14462,-9.84912c0.36278,-0.4082 0.8637,-0.46217 1.23094,-0.13642z" fill="#ffffff" fill-rule="nonzero" stroke="#000000" stroke-width="0" stroke-linecap="butt" stroke-linejoin="miter"/><path d="M306.70131,140.11447c-1.23105,-1.91464 -2.87154,-3.90032 -5.17094,-5.109c-2.57192,-1.35252 -6.01638,-1.75059 -10.72086,-0.01546c-0.30514,0.11295 -0.64742,-0.00799 -0.81388,-0.28756c-0.16646,-0.27957 -0.10967,-0.63812 0.13504,-0.85256c1.1986,-1.21956 2.43821,-2.16371 3.69313,-2.86971c3.44445,-1.94083 6.98721,-2.09215 10.16664,-1.26889c3.14828,0.81471 5.93846,2.59144 7.91316,4.52473c0.75751,0.74047 1.39941,1.50822 1.89853,2.25743l3.45421,-2.62492c0.22488,-0.17132 0.53286,-0.1838 0.77086,-0.03123c0.238,0.15257 0.35524,0.43764 0.29345,0.7135l-2.90916,13.05068c-0.08132,0.36322 -0.44143,0.59195 -0.80478,0.51118l-0.10532,-0.03183l-12.67594,-5.09613c-0.26226,-0.10582 -0.43083,-0.36384 -0.42237,-0.64652c0.00845,-0.28268 0.19213,-0.53016 0.46024,-0.62013z" fill="#ffffff" fill-rule="nonzero" stroke-opacity="0.50588" stroke="#000000" stroke-width="6" stroke-linecap="butt" stroke-linejoin="miter"/><path d="M306.70131,140.11447c-1.23105,-1.91464 -2.87154,-3.90032 -5.17094,-5.109c-2.57192,-1.35252 -6.01638,-1.75059 -10.72086,-0.01546c-0.30514,0.11295 -0.64742,-0.00799 -0.81388,-0.28756c-0.16646,-0.27957 -0.10967,-0.63812 0.13504,-0.85256c1.1986,-1.21956 2.43821,-2.16371 3.69313,-2.86971c3.44445,-1.94083 6.98721,-2.09215 10.16664,-1.26889c3.14828,0.81471 5.93846,2.59144 7.91316,4.52473c0.75751,0.74047 1.39941,1.50822 1.89853,2.25743l3.45421,-2.62492c0.22488,-0.17132 0.53286,-0.1838 0.77086,-0.03123c0.238,0.15257 0.35524,0.43764 0.29345,0.7135l-2.90916,13.05068c-0.08132,0.36322 -0.44143,0.59195 -0.80478,0.51118l-0.10532,-0.03183l-12.67594,-5.09613c-0.26226,-0.10582 -0.43083,-0.36384 -0.42237,-0.64652c0.00845,-0.28268 0.19213,-0.53016 0.46024,-0.62013z" fill="#ffffff" fill-rule="nonzero" stroke="none" stroke-width="1" stroke-linecap="butt" stroke-linejoin="miter"/><path d="M90.35135,117.67137c0,-6.39897 5.91545,-12.49566 13.1192,-12.49566c28.93252,0 219.72832,0 272.60996,0c8.61359,0 13.56814,4.64378 13.56814,12.24625c0,30.59212 0,109.0924 0,125.70487c0,6.03964 -4.85913,11.69754 -13.31873,11.69754c-52.46667,0 -243.42599,0 -272.60996,0c-7.3279,0 -13.36861,-4.5235 -13.36861,-11.94695c0,-30.16113 0,-108.19342 0,-125.20604z" fill="none" fill-rule="nonzero" stroke="url(#color-1)" stroke-width="10" stroke-linecap="butt" stroke-linejoin="miter"/></g></g></svg>
