<svg version="1.1" xmlns="http://www.w3.org/2000/svg" xmlns:xlink="http://www.w3.org/1999/xlink" width="309.2973" height="159.64866" viewBox="0,0,309.2973,159.64866"><defs><linearGradient x1="240" y1="105.17573" x2="240" y2="254.82437" gradientUnits="userSpaceOnUse" id="color-1"><stop offset="0" stop-color="#113545"/><stop offset="1" stop-color="#1d5b76"/></linearGradient></defs><g transform="translate(-85.35135,-100.17569)"><g fill-rule="nonzero" stroke-linejoin="miter" stroke-miterlimit="10" stroke-dasharray="" stroke-dashoffset="0" style="mix-blend-mode: normal"><path d="M91.75,252.25003v-144.5h296.5v144.5z" fill="#5cb1d6" stroke="none" stroke-width="0" stroke-linecap="butt"/><path d="M187.6616,217.13671c1.07791,0 1.95173,0.87382 1.95173,1.95173v21.3232c0,1.0779 -0.87382,1.95173 -1.95173,1.95173h-21.3232c-1.07792,0 -1.95173,-0.87382 -1.95173,-1.95173v-21.3232c0,-1.07791 0.87381,-1.95173 1.95173,-1.95173z" fill="#539fc1" stroke-opacity="0.50196" stroke="#000000" stroke-width="7.5" stroke-linecap="butt"/><path d="M187.6616,217.13671c1.07792,0 1.95173,0.87384 1.95173,1.95174v21.32318c0,1.0779 -0.87381,1.95173 -1.95173,1.95173h-21.3232c-1.07792,0 -1.95173,-0.87381 -1.95173,-1.95173v-21.32318c0,-1.0779 0.87381,-1.95174 1.95173,-1.95174z" fill="#4a8eab" stroke-opacity="0.50196" stroke="#000000" stroke-width="0" stroke-linecap="butt"/><path d="M306.4365,187.3615c1.06755,0 3.97445,0 5.9364,0c1.11059,0 1.91841,1.06621 1.91841,1.86511c0,1.4358 0,6.02438 0,6.02438c0,0 2.07083,0 2.57009,0c0.46292,0 1.16351,0.2514 0.86949,0.67456c-1.35377,1.94835 -6.25106,9.56494 -7.26335,11.02183c-0.46758,0.67295 -1.53913,0.56984 -2.05463,-0.17207c-0.98034,-1.41091 -5.39234,-8.32907 -6.89193,-10.48729c-0.44322,-0.63789 0.23587,-1.03704 0.71661,-1.03704c0.48415,0 2.47111,0 2.47111,0c0,0 0,-4.5105 0,-5.95199c0,-0.82244 0.94369,-1.9375 1.72781,-1.9375z" fill="#539fc1" stroke-opacity="0.50196" stroke="#000000" stroke-width="7.5" stroke-linecap="butt"/><path d="M317.84699,156.10314c0.8439,0 1.52801,0.68411 1.52801,1.52801v16.69397c0,0.8439 -0.68412,1.52802 -1.52801,1.52802h-16.69397c-0.8439,0 -1.52801,-0.68412 -1.52801,-1.52802v-16.69397c0,-0.8439 0.68412,-1.52801 1.52801,-1.52801z" fill="#539fc1" stroke-opacity="0.50196" stroke="#000000" stroke-width="7.5" stroke-linecap="butt"/><path d="M317.84699,156.10314c0.84391,0 1.52801,0.68412 1.52801,1.52802v16.69397c0,0.8439 -0.6841,1.52801 -1.52801,1.52801h-16.69398c-0.8439,0 -1.52801,-0.68411 -1.52801,-1.52801v-16.69397c0,-0.8439 0.68411,-1.52802 1.52801,-1.52802z" fill="#4a8eab" stroke-opacity="0.50196" stroke="#000000" stroke-width="0" stroke-linecap="butt"/><path d="M306.4365,187.3615c1.06755,0 3.97445,0 5.9364,0c1.11059,0 1.91841,1.06621 1.91841,1.86511c0,1.4358 0,6.02438 0,6.02438c0,0 2.07083,0 2.57009,0c0.46292,0 1.16351,0.2514 0.86949,0.67456c-1.35377,1.94835 -6.25106,9.56494 -7.26335,11.02183c-0.46758,0.67295 -1.53913,0.56984 -2.05463,-0.17207c-0.98034,-1.41091 -5.39234,-8.32907 -6.89193,-10.48729c-0.44322,-0.63789 0.23586,-1.03704 0.71661,-1.03704c0.48415,0 2.47111,0 2.47111,0c0,0 0,-4.5105 0,-5.95199c0,-0.82244 0.94369,-1.9375 1.72781,-1.9375z" fill="#4a8eab" stroke-opacity="0.50196" stroke="#000000" stroke-width="0" stroke-linecap="butt"/><path d="M343.5635,144.63856c-1.06755,0 -3.97445,0 -5.9364,0c-1.11059,0 -1.91841,-1.06622 -1.91841,-1.86511c0,-1.4358 0,-6.02438 0,-6.02438c0,0 -2.07083,0 -2.57009,0c-0.46292,0 -1.16351,-0.2514 -0.86949,-0.67456c1.35377,-1.94835 6.25106,-9.56494 7.26335,-11.02183c0.46758,-0.67295 1.53913,-0.56985 2.05463,0.17206c0.98034,1.41091 5.39234,8.32908 6.89193,10.4873c0.44322,0.63789 -0.23587,1.03704 -0.71661,1.03704c-0.48415,0 -2.47111,0 -2.47111,0c0,0 0,4.51049 0,5.95198c0,0.82244 -0.94369,1.93751 -1.72781,1.93751z" fill="#539fc1" stroke-opacity="0.50196" stroke="#000000" stroke-width="7.5" stroke-linecap="butt"/><path d="M332.15302,175.89691c-0.8439,0 -1.52801,-0.68412 -1.52801,-1.52802v-16.69397c0,-0.8439 0.68412,-1.52801 1.52801,-1.52801h16.69397c0.8439,0 1.52801,0.68411 1.52801,1.52801v16.69397c0,0.8439 -0.68412,1.52802 -1.52801,1.52802z" fill="#539fc1" stroke-opacity="0.50196" stroke="#000000" stroke-width="7.5" stroke-linecap="butt"/><path d="M332.15301,175.89692c-0.84391,0 -1.52801,-0.68412 -1.52801,-1.52802v-16.69397c0,-0.8439 0.6841,-1.52801 1.52801,-1.52801h16.69398c0.8439,0 1.52801,0.6841 1.52801,1.52801v16.69397c0,0.8439 -0.68411,1.52802 -1.52801,1.52802z" fill="#4a8eab" stroke-opacity="0.50196" stroke="#000000" stroke-width="0" stroke-linecap="butt"/><path d="M343.5635,144.63856c-1.06755,0 -3.97445,0 -5.9364,0c-1.11059,0 -1.91841,-1.06622 -1.91841,-1.86511c0,-1.4358 0,-6.02438 0,-6.02438c0,0 -2.07083,0 -2.57009,0c-0.46292,0 -1.16351,-0.2514 -0.86949,-0.67456c1.35377,-1.94835 6.25106,-9.56494 7.26335,-11.02183c0.46758,-0.67295 1.53913,-0.56984 2.05463,0.17207c0.98034,1.41091 5.39234,8.32907 6.89193,10.48729c0.44322,0.63789 -0.23586,1.03704 -0.71661,1.03704c-0.48415,0 -2.47111,0 -2.47111,0c0,0 0,4.5105 0,5.95198c0,0.82244 -0.94369,1.93751 -1.72781,1.93751z" fill="#4a8eab" stroke-opacity="0.50196" stroke="#000000" stroke-width="0" stroke-linecap="butt"/><path d="M177.0635,173.63855c-1.06756,0 -3.97445,0 -5.9364,0c-1.1106,0 -1.91841,-1.06622 -1.91841,-1.86511c0,-1.43579 0,-6.02438 0,-6.02438c0,0 -2.07084,0 -2.57009,0c-0.46291,0 -1.16351,-0.2514 -0.86949,-0.67456c1.35377,-1.94835 6.25106,-9.56494 7.26335,-11.02183c0.46758,-0.67295 1.53913,-0.56985 2.05463,0.17206c0.98033,1.4109 5.39235,8.32907 6.89194,10.48729c0.44322,0.63789 -0.23587,1.03704 -0.71661,1.03704c-0.48415,0 -2.47111,0 -2.47111,0c0,0 0,4.5105 0,5.95198c0,0.82244 -0.94369,1.93751 -1.72781,1.93751z" fill="#539fc1" stroke-opacity="0.50196" stroke="#000000" stroke-width="7.5" stroke-linecap="butt"/><path d="M165.65301,204.89691c-0.8439,0 -1.52801,-0.68412 -1.52801,-1.52801v-16.69397c0,-0.8439 0.68411,-1.52801 1.52801,-1.52801h16.69397c0.8439,0 1.52801,0.68411 1.52801,1.52801v16.69397c0,0.8439 -0.68411,1.52801 -1.52801,1.52801z" fill="#539fc1" stroke-opacity="0.50196" stroke="#000000" stroke-width="7.5" stroke-linecap="butt"/><path d="M165.65301,204.89692c-0.8439,0 -1.52801,-0.68413 -1.52801,-1.52802v-16.69397c0,-0.84389 0.68411,-1.52801 1.52801,-1.52801h16.69398c0.8439,0 1.52801,0.68411 1.52801,1.52801v16.69397c0,0.84389 -0.68411,1.52802 -1.52801,1.52802z" fill="#4a8eab" stroke-opacity="0.50196" stroke="#000000" stroke-width="0" stroke-linecap="butt"/><path d="M177.0635,173.63855c-1.06756,0 -3.97445,0 -5.93641,0c-1.11059,0 -1.91841,-1.06621 -1.91841,-1.86511c0,-1.43579 0,-6.02438 0,-6.02438c0,0 -2.07083,0 -2.57009,0c-0.46292,0 -1.16351,-0.2514 -0.86949,-0.67456c1.35377,-1.94835 6.25106,-9.56494 7.26335,-11.02183c0.46758,-0.67295 1.53913,-0.56985 2.05463,0.17206c0.98034,1.41091 5.39235,8.32907 6.89194,10.48729c0.44322,0.63789 -0.23586,1.03704 -0.71661,1.03704c-0.48415,0 -2.47111,0 -2.47111,0c0,0 0,4.5105 0,5.95199c0,0.82243 -0.9437,1.9375 -1.72781,1.9375z" fill="#4a8eab" stroke-opacity="0.50196" stroke="#000000" stroke-width="0" stroke-linecap="butt"/><path d="M139.9365,216.36149c1.06755,0 3.97445,0 5.93641,0c1.11059,0 1.91841,1.06621 1.91841,1.86511c0,1.43579 0,6.02438 0,6.02438c0,0 2.07083,0 2.57009,0c0.46292,0 1.16351,0.2514 0.86949,0.67456c-1.35377,1.94835 -6.25106,9.56494 -7.26335,11.02183c-0.46759,0.67295 -1.53914,0.56985 -2.05463,-0.17206c-0.98033,-1.4109 -5.39234,-8.32907 -6.89193,-10.4873c-0.44322,-0.63788 0.23587,-1.03703 0.71661,-1.03704c0.48415,0 2.47111,0 2.47111,0c0,0 0,-4.51049 0,-5.95198c0,-0.82244 0.94369,-1.93751 1.72781,-1.93751z" fill="#539fc1" stroke-opacity="0.50196" stroke="#000000" stroke-width="7.5" stroke-linecap="butt"/><path d="M151.34699,185.10314c0.8439,0 1.52801,0.68412 1.52801,1.52801v16.69397c0,0.84389 -0.68411,1.52801 -1.52801,1.52802h-16.69397c-0.8439,0 -1.52801,-0.68412 -1.52801,-1.52802v-16.69397c0,-0.8439 0.68412,-1.52802 1.52801,-1.52801z" fill="#539fc1" stroke-opacity="0.50196" stroke="#000000" stroke-width="7.5" stroke-linecap="butt"/><path d="M151.34699,185.10313c0.84391,0 1.52801,0.68412 1.52801,1.52802v16.69397c0,0.84389 -0.6841,1.52801 -1.52801,1.52801h-16.69398c-0.8439,0 -1.52801,-0.6841 -1.52801,-1.52801v-16.69397c0,-0.8439 0.68411,-1.52802 1.52802,-1.52802z" fill="#4a8eab" stroke-opacity="0.50196" stroke="#000000" stroke-width="0" stroke-linecap="butt"/><path d="M139.9365,216.36149c1.06755,0 3.97445,0 5.93641,0c1.11059,0 1.91841,1.06621 1.91841,1.86511c0,1.43579 0,6.02438 0,6.02438c0,0 2.07084,0 2.57009,0c0.46292,0 1.16352,0.2514 0.86949,0.67456c-1.35377,1.94835 -6.25106,9.56494 -7.26335,11.02183c-0.46759,0.67295 -1.53914,0.56985 -2.05464,-0.17206c-0.98033,-1.4109 -5.39234,-8.32907 -6.89193,-10.48729c-0.44322,-0.63788 0.23586,-1.03704 0.71661,-1.03704c0.48415,0 2.47111,0 2.47111,0c0,0 0,-4.5105 0,-5.95198c0,-0.82244 0.94369,-1.9375 1.72781,-1.9375z" fill="#4a8eab" stroke-opacity="0.50196" stroke="#000000" stroke-width="0" stroke-linecap="butt"/><path d="M209.34781,170.04521c-2.0435,0 -3.70009,-1.65658 -3.70009,-3.70009v-40.42452c0,-2.04351 1.65658,-3.70009 3.70009,-3.70009h40.42453c2.0435,0 3.70009,1.65658 3.70009,3.70009v40.42452c0,2.04351 -1.65659,3.70009 -3.70009,3.70009z" fill="none" stroke-opacity="0.50196" stroke="#000000" stroke-width="15" stroke-linecap="butt"/><path d="M231.16329,189.13626c-2.04351,0 -3.70009,-1.6566 -3.70009,-3.70009v-40.42451c0,-2.04351 1.65659,-3.70009 3.70009,-3.70009h40.42452c2.0435,0 3.70009,1.6566 3.70009,3.70009v40.42451c0,2.0435 -1.65659,3.70009 -3.70009,3.70009z" fill="none" stroke-opacity="0.50196" stroke="#000000" stroke-width="15" stroke-linecap="butt"/><path d="M335.36458,227.75004c1.38071,0 2.5,1.11929 2.5,2.5v14.75c0,1.38071 -1.11929,2.5 -2.5,2.5h-14.75c-1.38071,0 -2.5,-1.11929 -2.5,-2.5v-14.75c0,-1.38071 1.11929,-2.5 2.5,-2.5z" fill="#539fc1" stroke-opacity="0.50196" stroke="#000000" stroke-width="5" stroke-linecap="butt"/><path d="M377.36458,208.00004c2.76142,0 5,2.23858 5,5v29.5c0,2.76142 -2.23858,5 -5,5h-29.5c-2.76142,0 -5,-2.23858 -5,-5v-29.5c0,-2.76142 2.23858,-5 5,-5z" fill="#4a8eab" stroke-opacity="0.50196" stroke="#000000" stroke-width="5" stroke-linecap="butt"/><path d="M362.61458,185.87504c0,-1.38071 1.11929,-2.5 2.5,-2.5h14.75c1.38071,0 2.5,1.11929 2.5,2.5v14.75c0,1.38071 -1.11929,2.5 -2.5,2.5h-14.75c-1.38071,0 -2.5,-1.11929 -2.5,-2.5z" fill="#539fc1" stroke-opacity="0.50196" stroke="#000000" stroke-width="5" stroke-linecap="butt"/><path d="M144.63542,132.25c-1.38071,0 -2.5,-1.11929 -2.5,-2.5v-14.75c0,-1.38071 1.11929,-2.5 2.5,-2.5h14.75c1.38071,0 2.5,1.11929 2.5,2.5v14.75c0,1.38071 -1.11929,2.5 -2.5,2.5z" fill="#539fc1" stroke-opacity="0.50196" stroke="#000000" stroke-width="5" stroke-linecap="butt"/><path d="M102.63542,152c-2.76142,0 -5,-2.23858 -5,-5v-29.5c0,-2.76142 2.23858,-5 5,-5h29.5c2.76142,0 5,2.23858 5,5v29.5c0,2.76142 -2.23858,5 -5,5z" fill="#4a8eab" stroke-opacity="0.50196" stroke="#000000" stroke-width="5" stroke-linecap="butt"/><path d="M90.35135,117.67136c0,-6.39897 5.91545,-12.49566 13.1192,-12.49566c28.93252,0 219.72832,0 272.60996,0c8.61359,0 13.56814,4.64378 13.56814,12.24625c0,30.59212 0,109.0924 0,125.70487c0,6.03964 -4.85913,11.69754 -13.31873,11.69754c-52.46667,0 -243.42599,0 -272.60996,0c-7.3279,0 -13.36861,-4.5235 -13.36861,-11.94695c0,-30.16113 0,-108.19342 0,-125.20604z" fill="none" stroke="url(#color-1)" stroke-width="10" stroke-linecap="butt"/><path d="M103.74173,233.17547v-27.36933c0,-0.61299 1.48663,-0.91947 4.45988,-0.91947c2.97898,0 4.46846,0.30649 4.46846,0.91948v21.56033h6.78003c0.52706,0 0.89369,0.69033 1.09993,2.07097c0.08593,0.67028 0.12889,1.35772 0.12889,2.06237c0,0.70464 -0.04296,1.42361 -0.12889,2.15689c-0.23489,1.40929 -0.61584,2.11393 -1.14289,2.11393h-13.55147c-0.64736,0 -1.16294,-0.26352 -1.54677,-0.79057c-0.3781,-0.52706 -0.56715,-1.12858 -0.56715,-1.80457zM125.87092,219.79587c-0.81922,-1.46657 -1.22883,-2.66102 -1.22883,-3.58335c0,-0.92235 0.2492,-1.51527 0.74761,-1.7788c1.66708,-0.73329 3.9586,-1.09993 6.87456,-1.09993c2.92169,0 4.98405,0.68173 6.1871,2.04519c1.20305,1.36345 1.80457,3.37999 1.80457,6.0496v6.9519h1.49522c0.49841,0 0.88796,0.29504 1.16867,0.88511c0.28071,0.58434 0.42108,1.38923 0.42108,2.41469c0,1.02545 -0.2578,2.0366 -0.77339,3.03341c-0.51559,0.99681 -1.21164,1.49521 -2.08814,1.49521c-1.58687,0 -2.8644,-0.42394 -3.83256,-1.27179c-0.43539,-0.3552 -0.77052,-0.78197 -1.0054,-1.28038c-1.35199,1.70145 -3.45159,2.55218 -6.29881,2.55218c-2.13684,0 -3.93856,-0.76192 -5.40512,-2.28579c-1.46658,-1.52387 -2.19986,-3.32843 -2.19986,-5.41371c0,-4.77781 2.85867,-7.16672 8.57601,-7.16672h2.42328v-0.44684c0,-0.76192 -0.12604,-1.25174 -0.3781,-1.46944c-0.24634,-0.2177 -0.82495,-0.32654 -1.73583,-0.32654c-1.11712,0 -2.70112,0.23201 -4.75203,0.69604zM129.39413,227.89925c0,0.64163 0.17473,1.13143 0.52419,1.46944c0.34946,0.33801 0.7963,0.50699 1.34053,0.50699c0.54424,0 1.03691,-0.22055 1.47803,-0.66168v-3.38571h-1.23743c-1.40356,0 -2.10532,0.69032 -2.10532,2.07096zM145.7559,220.80987c-0.20623,0 -0.30936,-0.63017 -0.30936,-1.8905c0,-3.43156 0.28071,-5.14732 0.84213,-5.14732h14.03268c0.20623,0 0.65881,0.64736 1.35773,1.94206c0.70464,1.28898 1.04264,2.429 1.014,2.45765l-8.53304,10.73291l8.22797,-2.8099c0.46976,0 0.13321,3.32549 0.13321,5.40505c0,0.7963 -0.07447,1.70718 -0.22342,2.73264c-0.14323,1.02545 -0.39242,1.53818 -0.74761,1.53818h-14.07565c-0.44112,0 -0.97103,-0.73329 -1.58974,-2.19986c-0.61299,-1.46657 -2.49089,-6.78311 -2.49089,-7.09246c0,-0.30936 10.0615,-5.93482 10.0615,-5.93482zM164.27833,213.99546c0,-0.32655 1.34054,-0.48981 4.02161,-0.48981c2.6868,0 4.07604,0.14609 4.1677,0.43825c0,0 1.46753,4.82129 2.04706,6.72526c0.42776,1.40533 1.79765,1.30738 2.21582,-0.13667c0.55417,-1.91367 1.93283,-6.67452 1.93283,-6.67452c0.12031,-0.23488 1.03118,-0.35232 2.73264,-0.35232c3.90132,0 5.76316,0.19192 5.58558,0.57575l-10.33761,29.4317c-0.02865,0.17758 -0.82781,0.26639 -2.3975,0.26639c-1.56969,0 -3.03053,-0.05155 -4.38253,-0.15468c-1.34627,-0.10313 -1.99076,-0.22916 -1.93347,-0.3781l3.83256,-9.23767zM218.61309,207.42008c0,1.02545 -0.38956,2.79439 -1.16867,4.30679c-0.77338,1.5124 -2.2686,2.18839 -2.45765,2.02799c-0.18905,-0.16615 -0.63018,-0.34373 -1.32336,-0.53278c-0.68746,-0.18905 -1.28038,-0.28357 -1.77879,-0.28357c-1.70145,0 -3.07349,0.60152 -4.11613,1.80457c-1.03691,1.20305 -1.55538,3.04485 -1.55538,5.52542c0,2.47484 0.53278,4.31378 1.59834,5.51683c1.07128,1.20305 2.42901,1.80457 4.07318,1.80457c0.676,0 1.43219,-0.09452 2.2686,-0.28357c0.83641,-0.19477 1.95353,-0.91088 2.13113,-0.91088c0.17758,0 0.50699,0.33227 0.98822,0.9968c0.48694,0.65881 0.93379,1.52387 1.34054,2.59515c0.41247,1.07128 0.61871,1.8991 0.61871,2.48344c0,1.14577 -0.87938,2.05664 -2.6381,2.73264c-1.75874,0.67028 -3.84116,1.00541 -6.24725,1.00541c-3.87267,0 -7.05501,-1.36346 -9.54704,-4.09037c-2.49203,-2.72691 -3.73803,-6.57666 -3.73803,-11.54926c0,-4.9726 1.28325,-8.87964 3.84975,-11.72111c2.5665,-2.84722 5.4652,-3.93666 9.6072,-4.27081c4.142,-0.33415 8.09473,1.81728 8.09473,2.84274zM224.3131,233.17547c-1.83321,-2.02227 -2.74983,-4.82365 -2.74983,-8.40415c0,-3.58049 0.9166,-6.38187 2.74983,-8.40414c1.83321,-2.02227 4.30519,-3.03339 7.41592,-3.03339c3.11074,0 5.57412,1.01113 7.39015,3.0334c1.81603,2.02227 2.72404,4.82364 2.72404,8.40415c0,3.58049 -0.90801,6.38188 -2.72404,8.40415c-1.81603,2.02227 -4.27942,3.0334 -7.39015,3.0334c-3.11074,0 -5.58271,-1.01112 -7.41592,-3.03339zM231.74622,220.68097c-1.65562,0 -2.48343,1.34913 -2.48343,4.04739c0,2.69826 0.82781,4.04739 2.48344,4.04739c1.66136,0 2.49202,-1.34912 2.49202,-4.04739c0,-2.69826 -0.83067,-4.04739 -2.49202,-4.04739zM252.97621,235.4183c0,0.26352 -1.49522,0.39529 -4.48565,0.39529c-2.34881,-0.02865 -3.52321,-0.14608 -3.52321,-0.35232v-29.96447c0,-0.43539 1.42361,-0.65308 4.27083,-0.65308c2.49203,0.08593 3.73804,0.23202 3.73804,0.43825zM264.94343,235.4183c0,0.26352 -1.49522,0.39529 -4.48565,0.39529c-2.34881,-0.02865 -3.52321,-0.14608 -3.52321,-0.35232v-29.96447c0,-0.43539 1.42361,-0.65308 4.27083,-0.65308c2.49203,0.08593 3.73804,0.23202 3.73804,0.43825zM276.95361,235.50424c0,0.23488 -1.34341,0.35233 -4.03021,0.35233c-2.68108,0 -4.02161,-0.10313 -4.02161,-0.30936v-21.6033c0,-0.20051 1.34054,-0.30076 4.02161,-0.30076c2.6868,0 4.03021,0.08593 4.03021,0.25779zM276.95361,211.30579c0,0.20623 -1.34341,0.30936 -4.03021,0.30936c-2.68108,0 -4.02161,-0.0888 -4.02161,-0.26639v-6.33319c0,-0.29217 1.34054,-0.43825 4.02161,-0.43825c2.6868,0 4.03021,0.0888 4.03021,0.26639zM281.84105,227.84769c2.37745,1.43793 4.25363,2.1569 5.62855,2.1569c0.88224,0 1.32335,-0.3065 1.32335,-0.91947c0,-0.44112 -0.76193,-1.01399 -2.28578,-1.71863c-3.66643,-1.49522 -5.49965,-3.94428 -5.49965,-7.34718c0,-2.17121 0.79057,-3.82683 2.37173,-4.96686c1.58688,-1.14577 3.48597,-1.71864 5.69729,-1.71864c2.21704,0 4.09323,0.23488 5.62855,0.70464c1.54104,0.46976 2.31157,1.08561 2.31157,1.84754c0,0.64163 -0.31509,1.49235 -0.94525,2.55218c-0.63017,1.05409 -1.0627,1.62411 -1.29757,1.71005c-1.26034,-0.69891 -2.62378,-1.04837 -4.09036,-1.04837c-0.79057,0 -1.18586,0.27784 -1.18586,0.83354c0,0.34945 0.15181,0.65022 0.45544,0.90229c0.30936,0.24634 0.87365,0.55283 1.69287,0.91948c0.82495,0.36664 1.50667,0.69891 2.04518,0.99681c0.54424,0.29217 1.15436,0.70178 1.83036,1.22883c1.40929,1.11139 2.11392,2.56364 2.11392,4.35675c0,2.34307 -0.77912,4.24218 -2.33735,5.69729c-1.5525,1.44938 -3.89845,2.17408 -7.03783,2.17408c-2.07956,0 -3.97006,-0.35232 -5.67151,-1.05696c-1.70145,-0.70464 -2.55218,-1.67281 -2.55218,-2.90449c0,-0.81922 0.19765,-1.6814 0.59294,-2.58655c0.39529,-0.91088 0.79917,-1.51527 1.21164,-1.81316zM308.76354,235.50424c0,0.23488 -1.34341,0.35233 -4.03021,0.35233c-2.68108,0 -4.02161,-0.10313 -4.02161,-0.30936v-21.6033c0,-0.20051 1.34053,-0.30076 4.02161,-0.30076c2.6868,0 4.03021,0.08593 4.03021,0.25779zM308.76354,211.30579c0,0.20623 -1.34341,0.30936 -4.03021,0.30936c-2.68108,0 -4.02161,-0.0888 -4.02161,-0.26639v-6.33319c0,-0.29217 1.34053,-0.43825 4.02161,-0.43825c2.6868,0 4.03021,0.0888 4.03021,0.26639zM314.6392,233.17547c-1.83321,-2.02227 -2.74982,-4.82365 -2.74982,-8.40415c0,-3.58049 0.91661,-6.38187 2.74982,-8.40414c1.83321,-2.02227 4.3052,-3.03339 7.41593,-3.03339c3.11074,0 5.57413,1.01113 7.39015,3.0334c1.81603,2.02227 2.72404,4.82364 2.72404,8.40415c0,3.58049 -0.90801,6.38188 -2.72404,8.40415c-1.81603,2.02227 -4.27942,3.0334 -7.39015,3.0334c-3.11074,0 -5.58271,-1.01112 -7.41593,-3.03339zM322.07232,220.68097c-1.65562,0 -2.48343,1.34913 -2.48343,4.04739c0,2.69826 0.82781,4.04739 2.48343,4.04739c1.66135,0 2.49203,-1.34912 2.49203,-4.04739c0,-2.69826 -0.83067,-4.04739 -2.49203,-4.04739zM344.48818,235.50424c0,0.20623 -1.05409,0.30936 -3.16229,0.30936c-2.93315,-0.08593 -4.39971,-0.24634 -4.39971,-0.48122v-14.25611h-1.14289c-0.76193,0 -1.26035,-0.64449 -1.49522,-1.93347c-0.06301,-0.38383 -0.09452,-0.76479 -0.09452,-1.14289c0,-0.91088 0.17759,-1.82176 0.53278,-2.73264c0.52705,-1.28898 1.34627,-1.93347 2.45765,-1.93347c1.11712,0 2.11392,0.26352 2.99043,0.79057c0.88224,0.52706 1.4723,1.05409 1.7702,1.58114c1.84468,-1.58114 4.04166,-2.37172 6.59098,-2.37172c2.55505,0 4.40258,0.69033 5.54261,2.07097c1.14576,1.37491 1.71864,3.63206 1.71864,6.77144v13.19915c0,0.34945 -1.25461,0.52419 -3.76382,0.52419c-2.50348,0 -3.75522,-0.17473 -3.75522,-0.52418v-12.71794c0,-1.46657 -0.51273,-2.19986 -1.53818,-2.19986c-0.29789,0 -0.71037,0.12603 -1.23742,0.3781c-0.52705,0.24634 -0.86505,0.42966 -1.014,0.54997zM360.46394,227.84769c2.37745,1.43793 4.25362,2.1569 5.62854,2.1569c0.88224,0 1.32335,-0.3065 1.32335,-0.91947c0,-0.44112 -0.76193,-1.01399 -2.28578,-1.71863c-3.66643,-1.49522 -5.49964,-3.94428 -5.49964,-7.34718c0,-2.17121 0.79057,-3.82683 2.37172,-4.96686c1.58688,-1.14577 3.48598,-1.71864 5.69729,-1.71864c2.21704,0 4.09323,0.23488 5.62855,0.70464c1.54104,0.46976 2.31157,1.08561 2.31157,1.84754c0,0.64163 -0.31509,1.49235 -0.94525,2.55218c-0.63017,1.05409 -1.0627,1.62411 -1.29757,1.71005c-1.26034,-0.69891 -2.62378,-1.04837 -4.09036,-1.04837c-0.79057,0 -1.18586,0.27784 -1.18586,0.83354c0,0.34945 0.15181,0.65022 0.45544,0.90229c0.30936,0.24634 0.87365,0.55283 1.69287,0.91948c0.82495,0.36664 1.50667,0.69891 2.04518,0.99681c0.54424,0.29217 1.15436,0.70178 1.83036,1.22883c1.40929,1.11139 2.11392,2.56364 2.11392,4.35675c0,2.34307 -0.77912,4.24218 -2.33735,5.69729c-1.5525,1.44938 -3.89845,2.17408 -7.03783,2.17408c-2.07956,0 -3.97006,-0.35232 -5.67151,-1.05696c-1.70145,-0.70464 -2.55218,-1.67281 -2.55218,-2.90449c0,-0.81922 0.19765,-1.6814 0.59294,-2.58655c0.39529,-0.91088 0.79917,-1.51527 1.21164,-1.81316z" fill="none" stroke-opacity="0.50196" stroke="#000000" stroke-width="7.5" stroke-linecap="square"/><path d="M103.74173,233.17547v-27.36933c0,-0.61299 1.48663,-0.91947 4.45988,-0.91947c2.97898,0 4.46846,0.30649 4.46846,0.91948v21.56033h6.78003c0.52706,0 0.89369,0.69033 1.09993,2.07097c0.08593,0.67028 0.12889,1.35772 0.12889,2.06237c0,0.70464 -0.04296,1.42361 -0.12889,2.15689c-0.23489,1.40929 -0.61584,2.11393 -1.14289,2.11393h-13.55147c-0.64736,0 -1.16294,-0.26352 -1.54677,-0.79057c-0.3781,-0.52706 -0.56715,-1.12858 -0.56715,-1.80457zM125.87092,219.79587c-0.81922,-1.46657 -1.22883,-2.66102 -1.22883,-3.58335c0,-0.92235 0.2492,-1.51527 0.74761,-1.7788c1.66708,-0.73329 3.9586,-1.09993 6.87456,-1.09993c2.92169,0 4.98405,0.68173 6.1871,2.04519c1.20305,1.36345 1.80457,3.37999 1.80457,6.0496v6.9519h1.49522c0.49841,0 0.88796,0.29504 1.16867,0.88511c0.28071,0.58434 0.42108,1.38923 0.42108,2.41469c0,1.02545 -0.2578,2.0366 -0.77339,3.03341c-0.51559,0.99681 -1.21164,1.49521 -2.08814,1.49521c-1.58687,0 -2.8644,-0.42394 -3.83256,-1.27179c-0.43539,-0.3552 -0.77052,-0.78197 -1.0054,-1.28038c-1.35199,1.70145 -3.45159,2.55218 -6.29881,2.55218c-2.13684,0 -3.93856,-0.76192 -5.40512,-2.28579c-1.46658,-1.52387 -2.19986,-3.32843 -2.19986,-5.41371c0,-4.77781 2.85867,-7.16672 8.57601,-7.16672h2.42328v-0.44684c0,-0.76192 -0.12604,-1.25174 -0.3781,-1.46944c-0.24634,-0.2177 -0.82495,-0.32654 -1.73583,-0.32654c-1.11712,0 -2.70112,0.23201 -4.75203,0.69604zM129.39413,227.89925c0,0.64163 0.17473,1.13143 0.52419,1.46944c0.34946,0.33801 0.7963,0.50699 1.34053,0.50699c0.54424,0 1.03691,-0.22055 1.47803,-0.66168v-3.38571h-1.23743c-1.40356,0 -2.10532,0.69032 -2.10532,2.07096zM145.7559,220.80987c-0.20623,0 -0.30936,-0.63017 -0.30936,-1.8905c0,-3.43156 0.28071,-5.14732 0.84213,-5.14732h14.03268c0.20623,0 0.65881,0.64736 1.35773,1.94206c0.70464,1.28898 1.05696,2.01368 1.05696,2.17408c0,0.1604 -0.01432,0.25492 -0.04296,0.28357l-8.53304,10.73291l7.65654,-0.52419c0.46976,0 0.70464,1.03978 0.70464,3.11933c0,0.7963 -0.07447,1.70718 -0.22342,2.73264c-0.14323,1.02545 -0.39242,1.53818 -0.74761,1.53818h-14.07565c-0.44112,0 -0.97103,-0.73329 -1.58974,-2.19986c-0.61299,-1.46657 -0.91947,-2.35454 -0.91947,-2.66389c0,-0.30936 0.02865,-0.49267 0.08593,-0.54996l8.40415,-9.81343zM164.27833,213.99546c0,-0.32655 1.34054,-0.48981 4.02161,-0.48981c2.6868,0 4.07604,0.14609 4.1677,0.43825l3.1623,10.38917l3.03341,-10.4751c0.12031,-0.23488 1.03118,-0.35232 2.73264,-0.35232c3.90132,0 5.76316,0.19192 5.58558,0.57575l-10.33761,29.4317c-0.02865,0.17758 -0.82781,0.26639 -2.3975,0.26639c-1.56969,0 -3.03053,-0.05155 -4.38253,-0.15468c-1.34627,-0.10313 -1.99076,-0.22916 -1.93347,-0.3781l3.83256,-9.23767zM210.5183,204.57732c2.14257,0 4.02734,0.30076 5.65432,0.90229c1.62698,0.60152 2.44047,1.41501 2.44047,2.44047c0,1.02545 -0.38956,2.29439 -1.16867,3.80679c-0.77338,1.5124 -1.42361,2.2686 -1.95066,2.2686c-0.14896,0 -0.31794,-0.08021 -0.50699,-0.24061c-0.18905,-0.16615 -0.63018,-0.34373 -1.32336,-0.53278c-0.68746,-0.18905 -1.28038,-0.28357 -1.77879,-0.28357c-1.70145,0 -3.07349,0.60152 -4.11613,1.80457c-1.03691,1.20305 -1.55538,3.04485 -1.55538,5.52542c0,2.47484 0.53278,4.31378 1.59834,5.51683c1.07128,1.20305 2.42901,1.80457 4.07318,1.80457c0.676,0 1.43219,-0.09452 2.2686,-0.28357c0.83641,-0.19477 1.42935,-0.4669 1.7788,-0.81636c0.05729,-0.06302 0.17473,-0.09452 0.35233,-0.09452c0.17758,0 0.50699,0.33227 0.98822,0.9968c0.48694,0.65881 0.93379,1.52387 1.34054,2.59515c0.41247,1.07128 0.61871,1.8991 0.61871,2.48344c0,1.14577 -0.87938,2.05664 -2.6381,2.73264c-1.75874,0.67028 -3.84116,1.00541 -6.24725,1.00541c-3.87267,0 -7.05501,-1.36346 -9.54704,-4.09037c-2.49203,-2.72691 -3.73803,-6.57666 -3.73803,-11.54926c0,-4.9726 1.28325,-8.87964 3.84975,-11.72111c2.5665,-2.84722 5.7689,-4.27081 9.6072,-4.27081zM224.3131,233.17547c-1.83321,-2.02227 -2.74983,-4.82365 -2.74983,-8.40415c0,-3.58049 0.9166,-6.38187 2.74983,-8.40414c1.83321,-2.02227 4.30519,-3.03339 7.41592,-3.03339c3.11074,0 5.57412,1.01113 7.39015,3.0334c1.81603,2.02227 2.72404,4.82364 2.72404,8.40415c0,3.58049 -0.90801,6.38188 -2.72404,8.40415c-1.81603,2.02227 -4.27942,3.0334 -7.39015,3.0334c-3.11074,0 -5.58271,-1.01112 -7.41592,-3.03339zM231.74622,220.68097c-1.65562,0 -2.48343,1.34913 -2.48343,4.04739c0,2.69826 0.82781,4.04739 2.48344,4.04739c1.66136,0 2.49202,-1.34912 2.49202,-4.04739c0,-2.69826 -0.83067,-4.04739 -2.49202,-4.04739zM252.97621,235.4183c0,0.26352 -1.49522,0.39529 -4.48565,0.39529c-2.34881,-0.02865 -3.52321,-0.14608 -3.52321,-0.35232v-29.96447c0,-0.43539 1.42361,-0.65308 4.27083,-0.65308c2.49203,0.08593 3.73804,0.23202 3.73804,0.43825zM264.94343,235.4183c0,0.26352 -1.49522,0.39529 -4.48565,0.39529c-2.34881,-0.02865 -3.52321,-0.14608 -3.52321,-0.35232v-29.96447c0,-0.43539 1.42361,-0.65308 4.27083,-0.65308c2.49203,0.08593 3.73804,0.23202 3.73804,0.43825zM276.95361,235.50424c0,0.23488 -1.34341,0.35233 -4.03021,0.35233c-2.68108,0 -4.02161,-0.10313 -4.02161,-0.30936v-21.6033c0,-0.20051 1.34054,-0.30076 4.02161,-0.30076c2.6868,0 4.03021,0.08593 4.03021,0.25779zM276.95361,211.30579c0,0.20623 -1.34341,0.30936 -4.03021,0.30936c-2.68108,0 -4.02161,-0.0888 -4.02161,-0.26639v-6.33319c0,-0.29217 1.34054,-0.43825 4.02161,-0.43825c2.6868,0 4.03021,0.0888 4.03021,0.26639zM281.84105,227.84769c2.37745,1.43793 4.25363,2.1569 5.62855,2.1569c0.88224,0 1.32335,-0.3065 1.32335,-0.91947c0,-0.44112 -0.76193,-1.01399 -2.28578,-1.71863c-3.66643,-1.49522 -5.49965,-3.94428 -5.49965,-7.34718c0,-2.17121 0.79057,-3.82683 2.37173,-4.96686c1.58688,-1.14577 3.48597,-1.71864 5.69729,-1.71864c2.21704,0 4.09323,0.23488 5.62855,0.70464c1.54104,0.46976 2.31157,1.08561 2.31157,1.84754c0,0.64163 -0.31509,1.49235 -0.94525,2.55218c-0.63017,1.05409 -1.0627,1.62411 -1.29757,1.71005c-1.26034,-0.69891 -2.62378,-1.04837 -4.09036,-1.04837c-0.79057,0 -1.18586,0.27784 -1.18586,0.83354c0,0.34945 0.15181,0.65022 0.45544,0.90229c0.30936,0.24634 0.87365,0.55283 1.69287,0.91948c0.82495,0.36664 1.50667,0.69891 2.04518,0.99681c0.54424,0.29217 1.15436,0.70178 1.83036,1.22883c1.40929,1.11139 2.11392,2.56364 2.11392,4.35675c0,2.34307 -0.77912,4.24218 -2.33735,5.69729c-1.5525,1.44938 -3.89845,2.17408 -7.03783,2.17408c-2.07956,0 -3.97006,-0.35232 -5.67151,-1.05696c-1.70145,-0.70464 -2.55218,-1.67281 -2.55218,-2.90449c0,-0.81922 0.19765,-1.6814 0.59294,-2.58655c0.39529,-0.91088 0.79917,-1.51527 1.21164,-1.81316zM308.76354,235.50424c0,0.23488 -1.34341,0.35233 -4.03021,0.35233c-2.68108,0 -4.02161,-0.10313 -4.02161,-0.30936v-21.6033c0,-0.20051 1.34053,-0.30076 4.02161,-0.30076c2.6868,0 4.03021,0.08593 4.03021,0.25779zM308.76354,211.30579c0,0.20623 -1.34341,0.30936 -4.03021,0.30936c-2.68108,0 -4.02161,-0.0888 -4.02161,-0.26639v-6.33319c0,-0.29217 1.34053,-0.43825 4.02161,-0.43825c2.6868,0 4.03021,0.0888 4.03021,0.26639zM314.6392,233.17547c-1.83321,-2.02227 -2.74982,-4.82365 -2.74982,-8.40415c0,-3.58049 0.91661,-6.38187 2.74982,-8.40414c1.83321,-2.02227 4.3052,-3.03339 7.41593,-3.03339c3.11074,0 5.57413,1.01113 7.39015,3.0334c1.81603,2.02227 2.72404,4.82364 2.72404,8.40415c0,3.58049 -0.90801,6.38188 -2.72404,8.40415c-1.81603,2.02227 -4.27942,3.0334 -7.39015,3.0334c-3.11074,0 -5.58271,-1.01112 -7.41593,-3.03339zM322.07232,220.68097c-1.65562,0 -2.48343,1.34913 -2.48343,4.04739c0,2.69826 0.82781,4.04739 2.48343,4.04739c1.66135,0 2.49203,-1.34912 2.49203,-4.04739c0,-2.69826 -0.83067,-4.04739 -2.49203,-4.04739zM344.48818,235.50424c0,0.20623 -1.05409,0.30936 -3.16229,0.30936c-2.93315,-0.08593 -4.39971,-0.24634 -4.39971,-0.48122v-14.25611h-1.14289c-0.76193,0 -1.26035,-0.64449 -1.49522,-1.93347c-0.06301,-0.38383 -0.09452,-0.76479 -0.09452,-1.14289c0,-0.91088 0.17759,-1.82176 0.53278,-2.73264c0.52705,-1.28898 1.34627,-1.93347 2.45765,-1.93347c1.11712,0 2.11392,0.26352 2.99043,0.79057c0.88224,0.52706 1.4723,1.05409 1.7702,1.58114c1.84468,-1.58114 4.04166,-2.37172 6.59098,-2.37172c2.55505,0 4.40258,0.69033 5.54261,2.07097c1.14576,1.37491 1.71864,3.63206 1.71864,6.77144v13.19915c0,0.34945 -1.25461,0.52419 -3.76382,0.52419c-2.50348,0 -3.75522,-0.17473 -3.75522,-0.52418v-12.71794c0,-1.46657 -0.51273,-2.19986 -1.53818,-2.19986c-0.29789,0 -0.71037,0.12603 -1.23742,0.3781c-0.52705,0.24634 -0.86505,0.42966 -1.014,0.54997zM360.46394,227.84769c2.37745,1.43793 4.25362,2.1569 5.62854,2.1569c0.88224,0 1.32335,-0.3065 1.32335,-0.91947c0,-0.44112 -0.76193,-1.01399 -2.28578,-1.71863c-3.66643,-1.49522 -5.49964,-3.94428 -5.49964,-7.34718c0,-2.17121 0.79057,-3.82683 2.37172,-4.96686c1.58688,-1.14577 3.48598,-1.71864 5.69729,-1.71864c2.21704,0 4.09323,0.23488 5.62855,0.70464c1.54104,0.46976 2.31157,1.08561 2.31157,1.84754c0,0.64163 -0.31509,1.49235 -0.94525,2.55218c-0.63017,1.05409 -1.0627,1.62411 -1.29757,1.71005c-1.26034,-0.69891 -2.62378,-1.04837 -4.09036,-1.04837c-0.79057,0 -1.18586,0.27784 -1.18586,0.83354c0,0.34945 0.15181,0.65022 0.45544,0.90229c0.30936,0.24634 0.87365,0.55283 1.69287,0.91948c0.82495,0.36664 1.50667,0.69891 2.04518,0.99681c0.54424,0.29217 1.15436,0.70178 1.83036,1.22883c1.40929,1.11139 2.11392,2.56364 2.11392,4.35675c0,2.34307 -0.77912,4.24218 -2.33735,5.69729c-1.5525,1.44938 -3.89845,2.17408 -7.03783,2.17408c-2.07956,0 -3.97006,-0.35232 -5.67151,-1.05696c-1.70145,-0.70464 -2.55218,-1.67281 -2.55218,-2.90449c0,-0.81922 0.19765,-1.6814 0.59294,-2.58655c0.39529,-0.91088 0.79917,-1.51527 1.21164,-1.81316z" fill="#ffffff" stroke="none" stroke-width="1" stroke-linecap="square"/><path d="M117.38542,174.12502c0,1.38071 -1.11929,2.5 -2.5,2.5h-14.75c-1.38071,0 -2.5,-1.11929 -2.5,-2.5v-14.75c0,-1.38071 1.11929,-2.5 2.5,-2.5h14.75c1.38071,0 2.5,1.11929 2.5,2.5z" fill="#539fc1" stroke-opacity="0.50196" stroke="#000000" stroke-width="5" stroke-linecap="butt"/><path d="M209.34781,170.04521c-2.0435,0 -3.70009,-1.65658 -3.70009,-3.70009v-40.42452c0,-2.04351 1.65658,-3.70009 3.70009,-3.70009h40.42453c2.0435,0 3.70009,1.65658 3.70009,3.70009v40.42452c0,2.04351 -1.65659,3.70009 -3.70009,3.70009z" fill="#5cb1d6" stroke="#ffffff" stroke-width="5" stroke-linecap="butt"/><path d="M231.16329,189.13626c-2.04351,0 -3.70009,-1.6566 -3.70009,-3.70009v-40.42451c0,-2.04351 1.65659,-3.70009 3.70009,-3.70009h40.42452c2.0435,0 3.70009,1.6566 3.70009,3.70009v40.42451c0,2.0435 -1.65659,3.70009 -3.70009,3.70009z" fill="#5cb1d6" stroke="#ffffff" stroke-width="5" stroke-linecap="butt"/><path d="M231.13542,170.23753c-2.04351,0 -3.70009,-1.65658 -3.70009,-3.70009v-21.50523c0,-2.0435 1.65658,-3.70009 3.70009,-3.70009h17.82648c2.04351,0 3.70009,1.65658 3.70009,3.70009v21.50523c0,2.04351 -1.65658,3.70009 -3.70009,3.70009z" fill="#539fc1" stroke="#ffffff" stroke-width="5" stroke-linecap="butt"/><path d="M246.70707,138.71004h4.1167v33.96301l-4.1167,0.22223z" fill="#539fc1" stroke="#ffffff" stroke-width="0" stroke-linecap="butt"/><path d="M230.00451,138.77225h4.15613v34.06082h-4.15613z" fill="#539fc1" stroke="#ffffff" stroke-width="0" stroke-linecap="butt"/><path d="M237.96567,138.77225h4.15614v34.06082h-4.15614z" fill="#539fc1" stroke="#ffffff" stroke-width="0" stroke-linecap="butt"/><path d="M224.88177,167.49935v-4.76153h30.33376c0,0 0,1.47883 0,2.24931c0,0.81427 0.11233,2.5122 -0.05807,2.5122c-1.76451,0 -30.2757,0 -30.2757,0z" fill="#539fc1" stroke="#ffffff" stroke-width="0" stroke-linecap="butt"/><path d="M224.88177,157.94459v-4.76154h30.33376v4.76154z" fill="#539fc1" stroke="#ffffff" stroke-width="0" stroke-linecap="butt"/><path d="M224.88176,148.59388c0,0 0,-1.58077 0,-2.37307c0,-0.79486 -0.13624,-2.38846 0.11059,-2.38846c2.09892,0 30.22318,0 30.22318,0v4.76153z" fill="#539fc1" stroke="#ffffff" stroke-width="0" stroke-linecap="butt"/><path d="M317.42327,120.62649c1.07791,0 1.95173,0.87382 1.95173,1.95173v21.3232c0,1.07791 -0.87382,1.95173 -1.95173,1.95173h-21.32319c-1.07791,0 -1.95173,-0.87382 -1.95173,-1.95173v-21.3232c0,-1.07791 0.87382,-1.95173 1.95173,-1.95173z" fill="#539fc1" stroke-opacity="0.50196" stroke="#000000" stroke-width="7.5" stroke-linecap="butt"/><path d="M317.42327,120.62649c1.07792,0 1.95173,0.87383 1.95173,1.95174v21.32318c0,1.07791 -0.87381,1.95173 -1.95173,1.95173h-21.3232c-1.07792,0 -1.95173,-0.87381 -1.95173,-1.95173v-21.32318c0,-1.07791 0.87381,-1.95174 1.95173,-1.95174z" fill="#4a8eab" stroke-opacity="0.50196" stroke="#000000" stroke-width="0" stroke-linecap="butt"/></g></g></svg>
