<svg xmlns="http://www.w3.org/2000/svg" width="309.297" height="159.655" viewBox="0 0 309.297 159.655"><defs><linearGradient x1="240" y1="105.176" x2="240" y2="254.824" gradientUnits="userSpaceOnUse" id="a"><stop offset="0" stop-color="#362459"/><stop offset="1" stop-color="#6242a6"/></linearGradient></defs><g stroke-miterlimit="10"><path d="M4.656 139.03V16.53c0-6.04 7.79-11.695 16.793-11.695h266.5c10.527 0 16.693 7.611 16.693 15.195v118.5c0 9.961-7.998 16.295-17.193 16.295h-263c-12.406 0-19.793-6.112-19.793-15.795" fill="#96f"/><g fill-opacity=".102"><path d="M6.056 111.722c.053-.251-.09-.665.227-.766 12.48-4.874 14.65-5.464 27.234-16.024 21.823-18.56 5.668-12.288 38.431-35.518 11.675-8.315 13.018-11.24 16.01-14.4 3.73-4.045 15.945-13.075 20.005-17.375 5.76-6.231 10.683-9.928 30.877-18.4 3.178-1.376 1.923-3.955-3.967-2.332-6.525 1.936-11.33 2.172-15.624 3.45-2.765.76-4.136 1.664-9.69 3.37C84.44 21.332 88.3 19.342 74.433 29.616c-8.404 6.446-10.124 6.07-13.74 8.376-16.078 9.818-31.09 37.956-42.104 50.672-3.373 3.902-7.55 7.223-12.407 9.053-.176-1.095-.11-10.647-.109-10.805-.178-1.837 10.815-7.544 14.852-10.283 4.965-3.504 9.413-9.89 11.542-13.78 4.888-8.696 2.374-12.223 12.604-24.447C56.034 25.46 69.601 20.938 69.839 20.83c-3.975.246-7.658.123-10.206 2.383-.899.762-1.57 2.345-4.496 3.21-7.492 2.135-17.864 6.59-23.417 12.746-6.719 7.502-6.162 22.508-15.606 24.12-3.173.516-3.273 1.69-9.92 6.74-.194-1.063-.248-19.04.09-20.493 1.96-7.828 10.106-15.45 16.933-19.692 12.207-7.458 17.513-7.007 25.003-13.247 11.56-9.833 3.102-2.89 13.57-10.661 5.223-3.896 16.417.362 9.677 3.234-.747.268-2.245 5.866-2.245 5.866s3.46-4.446 4.135-4.63c3.917-1.255 6.372-2.74 10.42-3.411 12.471-2.103 89.917-4.713 73.824 3.263-29.979 13.887-24.638 12.364-38.096 23.317-3.908 3.19-3.815 4.714-12.033 11.538-2.747 2.303-18.028 13.667-18.183 13.77-4.382 3.037-6.26 3.154-11.534 3.947-5.357.849-7.006 3.123-9.152 4.56-18.15 12.648-16.082 28.084-41.1 41.816-9.727 5.36-19.812 7.198-21.333 7.278-.135-1.584-.08-3.175-.114-4.762"/><path d="M138.869 155.213c-5.406 6.084-30.616 4.502-28.776-.912 1.27-3.737 2.227-6.93 3.01-8.037 4.41-5.952 8.045-7.82 12.145-12.012 7.132-7.41 6.004-9.997 20.428-23.872-9.735 3.268-8.569 2.592-17.545 7.935-7.685 4.682-8.958 4.482-20.968 14.135-21.047 16.743-12.686 12.068-31.537 19.148-3.946 1.482-41.189 6.398-39.219 3.2 3.067-4.98 4.56-9.64 7.454-12.52 5.258-4.952 11.986-12.033 18.876-14.365.447-.149.9-.275 1.327-.465-5.463-.519-14.477 5.5-18.837 8.783-6.663 4.962-10.733 8.165-20.327 9.817-8.949 1.556-14.989.167-18.839-.023q.005-2.468 0-4.936c1.287-.397 2.653-.436 3.96-.76 3.14-.759 10.658-3.097 23.53-4.845 5.974-.857 13.547-.9 18.172-5.753 3.001-3.164 5.082-8.414 8.921-12.164 4.051-4.092 8.171-6.154 14.713-9.95 3.598-2.037 4.663-4.797 6-7.787 6.362-13.823 15.765-15.209 18.555-23.026.924-2.678 2.49-8.492 5.437-16.582-1.212 1.085-18.652 20.392-21.604 22.912-3.348 2.904-13.358 8.071-21.05 14.104-10.762 8.698-10.062 19.05-31.78 29.18-3.124 1.46-11.959 5.155-15.206 4.045 3.743-4.023 9.835-6.28 13.03-7.613 6.268-2.743 11.366-7.255 18.684-16.03 15.892-19.048 12.195-13.15 18.305-19.695 7.868-8.312 14.558-19.44 24.778-25.474 4.867-2.9 8.973-3.17 13.827-7.87 2.715-2.49 6.112-6.245 13.038-8.52 7.546-2.53 16.455-3.018 27.62-11.628 7.381-5.565 15.734-16.234 26.691-21.978 3.173-1.686 6.82-2.626 15.66-7.112 9.67-4.81 104.371.52 101.23 4.453-4.305 5.061-8.287 10.388-12.037 15.87-2.036 2.995-3.559 6.321-4.557 9.801 11.568-19.93 18.8-19.762 31.188-18.749.161 1.174-.023 2.355.067 3.534.055 4.162.133 3.138-1.373 4.208-14.359 9.275-32.138 20.607-29.794 39.215.093.728.182 1.467.408 2.171.42-4.988 1.946-9.466 6.23-14.302 10.554-12.048 20.703-9.063 24.468-15.238.15 2.923.01 14.594.07 20.706-.044.317.096.85-.354.902-5.384 1.12-10.203 3.883-15.005 6.443-5.644 3.084-8.384 3.81-16.677 8.352-11.922 6.217-16.768 5.323-23.672 6.537-7.418 1.31-17.334 4.485-22.84 9.637-8.149 7.935-7.98 3.576-26.117 6.9-7.389 1.525-12.786 1.612-17.374 2.778-18.5 4.942-29.869 14.815-31.047 17.11 7.284-4.527 10.54-5.046 16.44-7.173 7.293-2.465 8.708-3.439 19.523-5.615 4.442-.956 13.982-3.21 18.964-.666-1.66 2.63-5.792 1.706-9.494 2.576-5.307 1.202-11.896 4.193-17.8 6.696-6.933 2.988-12.349 6.891-16.842 9.664-26.643 16.752-31.348 15.093-36.746 24.61 5.03-3.2 25.87-11.655 30.333-12.702 7.44-2.296 5.81-2.827 8.038-5.5 3.915-4.882 9.981-6.46 13.812-7.62 17.91-5.193 27.411-3.986 37.523-3.999 18.218.39 22.211 4.166 37.92-3.443 8.546-3.785 14.665 2.238 24.575-9.59 3.71-4.454 6.805-11.208 11.831-15.768 6.736-5.872 9.773-4.76 14.948-4.922.075 1.512.081 14.844-.015 15.512-1.225.081-2.468-.046-3.678.225-8.097 1.768-23.073 7.141-26.607 14.67 5.078-3.609 3.805-3.406 14.84-6.416 5.45-1.432 6.798-.147 12.717-.065.937.033 1.864-.144 2.8-.125-.01 3.185.125 3.71-.347 3.783-6.459 1.546-11.594 6.728-17.02 10.012-27.13 16.177-31.645 20.777-31.445 24.33 2.982-4.428 12.401-6.38 21.634-12.458 5.907-3.749 26.935-12.948 27.09-13.007.036 2.89.017 5.78.01 8.67-10.246-1.139-12.717 12.7-19.475 22.7-.318.476-1.982 2.377-.522 2.855 1.723.566 6.718-.358 7.798-.834.505-.247 1.101-.3 1.563-.63.575-.583.895-5.638 5.19-8.893 1.561-1.16 3.594-1.158 5.451-1.21.171 2.536.013 5.082.08 7.622-.028.4-4.477 4.508-5.749 6.364-3.558 5.191-81.352-2.9-80.264-3.447 10.832-5.447 21.626-6.423 31.066-13.466 9.565-7.07 10.82-5.724 19.065-16.655.507-.693 1.016-1.403 1.313-2.213-1.03-.189-42.759 5.011-42.914 5.031-8.664 1.147-11.523 3.144-16.208 3.63-12.963 1.468-28.044 2.31-42.183 7.11-13.876 4.704-21.496 12.815-28.5 20.698M274.598 5.745c-6.05-.187-12.234 4.166-16.774 7.84-7.652 6.2-9.564 9.434-21.524 15.715-18.932 10.02-40.26 10.704-45.65 9.642 2.268-6.72 9.985-8.763 15.675-11.25 4.34-1.983 9.098-1.242 12.384-1.74.771-.1 10.51-1.973 14.236-3.725 5.228-2.47 14.312-13.662 15.99-22.228-1.447 1.179-.477 1.458-8.12 6.22-13.065 7.875-17.888 7.559-25.589 9.869-24.36 7.02-25.57 9.697-34.62 19.717-8.243 8.813-10.874 12.36-13.977 15.477-4.436 4.386-7.245 6.256-13.972 12.383-12.453 10.973-12.43 11.851-15.478 15.995.442-.124.774-.452 1.14-.704 12.373-8.768 32.241-15.923 41.633-21.665 15.705-9.41 36.421-4.997 50.391-11.594 15.237-7.04 30.268-28.788 36.811-34.875 2.036-2.083 4.725-3.307 7.178-4.805zm-26.036 36.838c-1.162 1.142-2.34 2.297-3.765 3.114-26.85 15.598-26.715 4.087-39.127 11.83-2.112 1.277-5.524 4.086-11.44 4.95-5.22.643-16.913 3.488-24.594 8.398-4.678 3.057-8.355 5.968-13.93 7.567 4.87.444 10.637-3.763 18.06-5.74 11.651-3.065 19.088-1.925 21.385-2.14 9.082-.41 12.757-9.064 24.795-8.474 5.354.16 10.052 1.702 16.615-2.293 3.428-2.073 7.6-5.904 9.15-9.317 1.16-2.52 1.81-5.236 2.97-7.756.183-.174.191-.435.233-.665-.125.16-.177.395-.387.477zm-71.987 49.996c4.504-.944 10.346-10.792 24.99-11.857 2.861-.272 19.1-.513 19.15-.52 9.414-.951 12.202-11.71 33.21-14.587 3.432-.348 8.275.99 10.526-.602.221-.07.045-.298-.029-.405-2.617-3.732-2.109-11.654-2.632-18.164.022-6.05 3.526-12.483 6.282-17.822 3.008-5.994 7.474-9.797 10.815-13.034 10.656-10.145 9.008-12.495 14.598-14.39-11.333-.258-18.103 8.933-24.202 16.26-1.932 2.31-3.602 4.824-5.145 7.405-1.843 2.986-4.378 5.43-6.673 8.05-9.513 10.392-.237 24.488-22.163 32.578-15.663 5.779-41.789 3.983-55.29 19.756-1.736 2.087-3.189 4.58-3.438 7.332m-1.11-14.994c1.091-.487 2.082-1.16 3.068-1.826-1.249.061-2.242.97-3.068 1.826m-27.068 22.46c3.934-2.478 12.75-9.827 18.211-13.752 4.884-3.645 1.75-.657 8.06-8.09-13.463 6.581-18.239 1.806-25.563 6.41-6.766 4.11-4.875 8.773-27.776 15.223-11.163 3.068-11.893 4.335-14.71 5.75.461-.963 1.146-1.797 1.673-2.723 3.863-6.17 3.06-6.668 10.937-17.036 3.036-4.02 17.787-22.214 21.791-25.9 10.178-9.568 15.866-6.23 23.285-21.817 1.325-2.585 2.443-5.934 6.717-10.2 25.568-23.917 48.666-20.167 55.966-24.927-2.07-.294-15.992-.947-28.779 3.103-16.587 5.131-30.708 19.187-43.585 28.367-8.199 6.026-10.9 12.065-19.934 16.633-3.904 2.124-11.225 4.155-15.923 9.221-6.287 6.411-9.473 24.077-14.519 29.683-1.246 1.498-3.569 2.752-6.213 6.615-6.115 9.496-15.987 9.422-23.367 20.112-4.154 5.875-5.459 13.47-12.306 24.235-2.032 3.158-5.708 8.218-8.778 10.358a1.7 1.7 0 0 0 .431-.192c10.482-6.383 14.504-9.523 24.12-14.373 22.898-11.246 41.462-30.254 55.895-32.696 2.663-.529 7.791.1 14.367-4.004m130.04 37.56c-11.33 6.791-32.36 8.758-51.274 17.177-4.58 2.04 46.552.986 47.551-.54 2.345-3.583 5.185-6.854 7.655-10.348 2.24-3.146 3.118-7.046 5.475-10.12-3.383.552-6.45 2.174-9.407 3.83M6.207 32.737c-.222-1.102-.136-10.187-.112-11.262 5.938-6.432 6.591-7.292 8.385-8.522C19.525 9.22 25.694 7.594 31.16 4.63c18.072-9.987 16.237.525 12.191 2.438-8.797 4.16-15.629 4.194-25.403 12.436-7.408 6.28-8.097 7.777-11.742 13.233"/><path d="M303.181 66.399c.004.157.074 6.24-.017 6.767-4.792.03-11.458 4.047-15.363 6.836-8.484 6.016-9.85 9.541-13.418 10.35-2.1.575-4.97-.985-12.329 3.765-5.976 3.837-10.082 8.44-18.537 9.38-8.36.89-9.916.164-13.286.246.021.03.063.087.083.117-.284-.143-.605-.064-.908-.05-4.112.422-4.52-.756-7.396-1.765 15.728-.994 26.291-13.22 36.178-18.474 5.635-2.926 10.767-3.116 15.192-4.826 3.492-1.297 7.751-4.424 10.136-5.693 5.664-3.102 7.806-3.013 16.77-5.71.975-.287 1.912-.692 2.895-.944m-63.255 64.732c-.044.353.055.011-4.939 3.678-5.144 3.776-6.077 2.91-29.687 9.373-5.89 1.624-6.678 2.781-12.003 5.424-3.138 1.47-5.94 2.598-8.396 4.454-1.666 1.258-24.95 6.352-21.833.835 3.077-5.44 7.484-11.273 22.947-15.84 10.871-3.198 28.21-4.635 31.788-4.675l.08-.068c8.985-.244 21.317-2.873 23.14-3.692 1.198-.742 2.508-1.349 3.89-1.652-1.168.79-3.927 1.81-4.768 2.08l.048.187z"/></g><path d="M90.351 118.171c0-6.399 5.916-12.995 13.12-12.995h272.61c8.613 0 13.568 4.643 13.568 12.246v125.705c0 6.04-4.86 11.697-13.32 11.697H103.72c-7.328 0-13.369-4.523-13.369-11.947z" fill="none" stroke="url(#a)" stroke-width="10" transform="translate(-85.351 -100.17)"/><path d="M28.094 131.768v-23.023q0-.773 3.752-.773 3.758 0 3.758.773v18.137h5.704q.665 0 .925 1.742.108.846.108 1.735 0 .888-.108 1.814-.297 1.778-.961 1.778h-11.4q-.816 0-1.301-.665a2.54 2.54 0 0 1-.477-1.518m17.892 0q-2.313-2.55-2.313-7.07 0-4.517 2.313-7.069t6.238-2.552 6.217 2.552 2.292 7.07-2.292 7.07q-2.292 2.55-6.217 2.551-3.925 0-6.238-2.552m6.253-10.51c-1.393 0-7.803 1.135-7.803 3.405s6.41 3.404 7.803 3.404q2.096 0 2.096-3.404t-2.096-3.405m12.734 10.51q-2.314-2.55-2.314-7.07 0-4.517 2.314-7.069t6.238-2.552 6.216 2.552 2.292 7.07-2.292 7.07q-2.291 2.55-6.216 2.551-3.925 0-6.238-2.552m6.252-10.51c-1.392 0-7.089 1.135-7.089 3.405s5.697 3.404 7.09 3.404q2.096 0 2.096-3.404t-2.097-3.405m11.122-12.918q0-.592 3.368-.592 3.153.108 3.152.484v14.211l3.658-6.773q.26-.555 3.144-.556 2.892 0 3.709.368l-4.815 7.85 5.552 10.395q.072.151-1.388.239-1.46.094-2.422.094-3.556 0-3.816-.333l-3.665-8.211v8.175q0 .484-3.239.484t-3.238-.448zm19.693 18.947q3 1.815 4.735 1.814 1.113 0 1.113-.774 0-.556-1.923-1.445-4.626-1.887-4.626-6.18 0-2.74 1.995-4.179 2.002-1.446 4.792-1.446 2.798 0 4.735.593 1.945.593 1.945 1.554 0 .81-.795 2.147-.795 1.33-1.092 1.439a7 7 0 0 0-3.44-.882q-.999 0-.998.701 0 .441.383.759.39.31 1.424.773a23 23 0 0 1 1.72.839q.687.369 1.54 1.034 1.778 1.402 1.778 3.665 0 2.956-1.966 4.792-1.96 1.83-5.92 1.829-2.625 0-4.771-.89-2.147-.888-2.147-2.442 0-1.035.499-2.176.498-1.15 1.019-1.525m35.048-8.957q.702 0 .701 2.595 0 .774-.166 1.83-.166 1.055-.607 1.055h-4.699v3.7h6.81q.628 0 .845 1.627.117.708.116 1.504 0 .795-.224 2.053-.225 1.257-.737 1.257h-12.658q-1.41 0-1.41-1.149v-23.797q0-.96.854-.961h13.25q.773 0 .773 3.275t-.773 3.274h-6.846v3.737zm17.133-2.776q.152-.296 1.85-.296 5.553 0 5.408.412l-3.375 9.361c3.036 5.677 3.41 8.516 3.41 8.516q0 .216-2.218.368-2.22.145-3.145.145-2.334 0-2.48-.477l-2.001-6.18-2.292 6.44q-.08.253-2.118.253-2.031 0-3.621-.145-1.59-.144-1.446-.368l1.9-8.801c-2.911-6.092-2.08-8.866-2.08-8.895q0-.217 1.127-.398a15.6 15.6 0 0 1 2.551-.187q1.425 0 2.718.13 1.302.122 1.446.347l1.966 6zm17.47 25.134q0 .26-3.166.26-3.158 0-3.158-.26v-19.061h-1.258q-.89 0-1.222-1.627-.116-.52-.116-1.33 0-.817.52-1.93.739-1.626 2.372-1.626 1.07 0 1.973.498.912.499 1.258.926.354.426.354.498 2.48-1.922 5.364-1.922 2.891 0 4.959 2.24 2.074 2.234 2.074 6.918t-2.074 7.258q-2.067 2.565-5.248 2.566-1.446 0-2.631-.145zm1.519-19.098q-.63 0-1.222.405v6.55q.63.079 1.02.079h.606q1.518-.152 1.518-3.89 0-3.143-1.922-3.144m13.399-1.077q-1.034-1.85-1.034-3.014t.629-1.496q2.103-.926 5.783-.926 3.686 0 5.204 1.72 1.518 1.721 1.518 5.09v5.848h1.258q.63 0 .983.744.354.738.354 2.031 0 1.295-.65 2.552-.651 1.258-1.757 1.258-2.003 0-3.224-1.07a3.06 3.06 0 0 1-.845-1.077q-1.707 2.147-5.3 2.147-2.695 0-4.546-1.923-1.85-1.923-1.85-4.554 0-6.029 7.214-6.029h2.038v-.375q0-.961-.318-1.237-.31-.274-1.46-.274-1.41 0-3.997.585m2.963 6.817q0 .81.441 1.236t1.128.426 1.243-.556v-2.848h-1.04q-1.772 0-1.772 1.742m21.57 6.397q0 .26-2.66.26-3.7-.108-3.7-.404V121.59h-.962q-.96 0-1.258-1.626a6 6 0 0 1-.08-.961q0-1.15.449-2.3.664-1.625 2.067-1.626 1.41 0 2.516.665 1.113.666 1.489 1.33 2.328-1.995 5.544-1.995 3.225 0 4.663 1.742 1.446 1.736 1.446 5.697v11.103q0 .44-3.167.44-3.159 0-3.158-.44V122.92q0-1.85-1.294-1.85-.377 0-1.041.318-.666.31-.853.463zm22.027-25.459q0-.557 2.92-.557.999 0 2.314.13t1.315.348v19.51h1.294q.925 0 1.222 1.662.072.485.072 1.316 0 .83-.513 2.017-.745 1.626-2.371 1.626-1.222 0-2.169-.477-.939-.484-1.272-1.005l-.332-.477q-2.04 1.959-5.111 1.959-3.072 0-5.255-2.552-2.183-2.55-2.183-7.12 0-4.575 2.291-7.07 2.3-2.5 5.74-2.5a9.7 9.7 0 0 1 2.038.223zm-1.221 12.73q-2.076 0-2.075 3.737 0 1.887.593 2.725.592.831 1.315.831t1.388-.629v-6.296q-.63-.368-1.221-.368m26.758 11.956q-2.334 1.365-6 1.366-3.664 0-6.18-2.494-2.515-2.501-2.515-6.925 0-4.425 2.421-7.12 2.43-2.704 6.13-2.704t5.718 1.887q2.016 1.887 2.017 4.59 0 5.993-6.882 5.993h-2.559q0 1.113.607 1.54.615.426 1.8.426 2.595 0 4.923-1.186.036-.036.332.514.89 1.597.89 2.689 0 1.09-.702 1.424m-4.626-10.699q0-1.554-1.518-1.554-.701 0-1.207.427-.5.426-.499 1.236v1.15h2.002q1.222 0 1.222-1.259m17.987-13.987q0-.557 2.92-.557.999 0 2.314.13t1.315.348v19.51h1.294q.925 0 1.222 1.662.072.485.072 1.316 0 .83-.513 2.017-.744 1.626-2.371 1.626-1.222 0-2.169-.477-.939-.484-1.272-1.005l-.332-.477q-2.04 1.959-5.111 1.959-3.072 0-5.255-2.552-2.184-2.55-2.183-7.12 0-4.575 2.291-7.07 2.3-2.5 5.74-2.5a9.7 9.7 0 0 1 2.038.223zm-1.221 12.73q-2.075 0-2.075 3.737 0 1.887.593 2.725.592.831 1.315.831t1.388-.629v-6.296q-.63-.368-1.221-.368" fill="none" stroke-opacity=".502" stroke="#000" stroke-width="7.5" stroke-linecap="round" stroke-linejoin="round"/><path d="M28.094 131.768v-23.023q0-.773 3.752-.773 3.758 0 3.758.773v18.137h5.704q.665 0 .925 1.742.108.846.108 1.735 0 .888-.108 1.814-.297 1.778-.961 1.778h-11.4q-.816 0-1.301-.665a2.54 2.54 0 0 1-.477-1.518m17.892 0q-2.313-2.55-2.313-7.07 0-4.517 2.313-7.069t6.238-2.552 6.217 2.552 2.292 7.07-2.292 7.07q-2.292 2.55-6.217 2.551-3.925 0-6.238-2.552m6.253-10.51q-2.09 0-2.09 3.405t2.09 3.404q2.096 0 2.096-3.404t-2.096-3.405m12.734 10.51q-2.314-2.55-2.314-7.07 0-4.517 2.314-7.069t6.238-2.552 6.216 2.552 2.292 7.07-2.292 7.07q-2.291 2.55-6.216 2.551-3.925 0-6.238-2.552m6.252-10.51q-2.089 0-2.089 3.405t2.09 3.404q2.096 0 2.096-3.404t-2.097-3.405m11.122-12.918q0-.592 3.368-.592 3.153.108 3.152.484v14.211l3.658-6.773q.26-.555 3.144-.556 2.892 0 3.709.368l-4.815 7.85 5.552 10.395q.072.151-1.388.239-1.46.094-2.422.094-3.556 0-3.816-.333l-3.665-8.211v8.175q0 .484-3.239.484t-3.238-.448zm19.693 18.947q3 1.815 4.735 1.814 1.113 0 1.113-.774 0-.556-1.923-1.445-4.626-1.887-4.626-6.18 0-2.74 1.995-4.179 2.002-1.446 4.792-1.446 2.798 0 4.735.593 1.945.593 1.945 1.554 0 .81-.795 2.147-.795 1.33-1.092 1.439a7 7 0 0 0-3.44-.882q-.999 0-.998.701 0 .441.383.759.39.31 1.424.773a23 23 0 0 1 1.72.839q.687.369 1.54 1.034 1.778 1.402 1.778 3.665 0 2.956-1.966 4.792-1.96 1.83-5.92 1.829-2.625 0-4.771-.89-2.147-.888-2.147-2.442 0-1.035.499-2.176.498-1.15 1.019-1.525m35.048-8.957q.702 0 .701 2.595 0 .774-.166 1.83-.166 1.055-.607 1.055h-4.699v3.7h6.81q.628 0 .845 1.627.117.708.116 1.504 0 .795-.224 2.053-.225 1.257-.737 1.257h-12.658q-1.41 0-1.41-1.149v-23.797q0-.96.854-.961h13.25q.773 0 .773 3.275t-.773 3.274h-6.846v3.737zm17.133-2.776q.152-.296 1.85-.296 5.553 0 5.408.412l-4.518 9.361 4.554 8.516q0 .216-2.22.368-2.218.145-3.144.145-2.334 0-2.48-.477l-2.001-6.18-2.292 6.44q-.08.253-2.118.253-2.031 0-3.621-.145-1.59-.144-1.446-.368l4.185-8.516q-4.365-9.137-4.366-9.18 0-.217 1.128-.398a15.6 15.6 0 0 1 2.551-.187q1.425 0 2.718.13 1.302.122 1.446.347l1.966 6zm17.47 25.134q0 .26-3.166.26-3.158 0-3.158-.26v-19.061h-1.258q-.89 0-1.222-1.627-.116-.52-.116-1.33 0-.817.52-1.93.739-1.626 2.372-1.626 1.07 0 1.973.498.912.499 1.258.926.354.426.354.498 2.48-1.922 5.364-1.922 2.891 0 4.959 2.24 2.074 2.234 2.074 6.918t-2.074 7.258q-2.067 2.565-5.248 2.566-1.446 0-2.631-.145zm1.519-19.098q-.63 0-1.222.405v6.55q.63.079 1.02.079h.606q1.518-.152 1.518-3.89 0-3.143-1.922-3.144m13.399-1.077q-1.034-1.85-1.034-3.014t.629-1.496q2.103-.926 5.783-.926 3.686 0 5.204 1.72 1.518 1.721 1.518 5.09v5.848h1.258q.63 0 .983.744.354.738.354 2.031 0 1.295-.65 2.552-.651 1.258-1.757 1.258-2.003 0-3.224-1.07a3.06 3.06 0 0 1-.845-1.077q-1.707 2.147-5.3 2.147-2.695 0-4.546-1.923-1.85-1.923-1.85-4.554 0-6.029 7.214-6.029h2.038v-.375q0-.961-.318-1.237-.31-.274-1.46-.274-1.41 0-3.997.585m2.963 6.817q0 .81.441 1.236t1.128.426 1.243-.556v-2.848h-1.04q-1.772 0-1.772 1.742m21.57 6.397q0 .26-2.66.26-3.7-.108-3.7-.404V121.59h-.962q-.96 0-1.258-1.626a6 6 0 0 1-.08-.961q0-1.15.449-2.3.664-1.625 2.067-1.626 1.41 0 2.516.665 1.113.666 1.489 1.33 2.328-1.995 5.544-1.995 3.225 0 4.663 1.742 1.446 1.736 1.446 5.697v11.103q0 .44-3.167.44-3.159 0-3.158-.44V122.92q0-1.85-1.294-1.85-.377 0-1.041.318-.666.31-.853.463zm22.027-25.459q0-.557 2.92-.557.999 0 2.314.13t1.315.348v19.51h1.294q.925 0 1.222 1.662.072.485.072 1.316 0 .83-.513 2.017-.745 1.626-2.371 1.626-1.222 0-2.169-.477-.939-.484-1.272-1.005l-.332-.477q-2.04 1.959-5.111 1.959-3.072 0-5.255-2.552-2.183-2.55-2.183-7.12 0-4.575 2.291-7.07 2.3-2.5 5.74-2.5a9.7 9.7 0 0 1 2.038.223zm-1.221 12.73q-2.076 0-2.075 3.737 0 1.887.593 2.725.592.831 1.315.831t1.388-.629v-6.296q-.63-.368-1.221-.368m26.758 11.956q-2.334 1.365-6 1.366-3.664 0-6.18-2.494-2.515-2.501-2.515-6.925 0-4.425 2.421-7.12 2.43-2.704 6.13-2.704t5.718 1.887q2.016 1.887 2.017 4.59 0 5.993-6.882 5.993h-2.559q0 1.113.607 1.54.615.426 1.8.426 2.595 0 4.923-1.186.036-.036.332.514.89 1.597.89 2.689 0 1.09-.702 1.424m-4.626-10.699q0-1.554-1.518-1.554-.701 0-1.207.427-.5.426-.499 1.236v1.15h2.002q1.222 0 1.222-1.259m17.987-13.987q0-.557 2.92-.557.999 0 2.314.13t1.315.348v19.51h1.294q.925 0 1.222 1.662.072.485.072 1.316 0 .83-.513 2.017-.744 1.626-2.371 1.626-1.222 0-2.169-.477-.939-.484-1.272-1.005l-.332-.477q-2.04 1.959-5.111 1.959-3.072 0-5.255-2.552-2.184-2.55-2.183-7.12 0-4.575 2.291-7.07 2.3-2.5 5.74-2.5a9.7 9.7 0 0 1 2.038.223zm-1.221 12.73q-2.075 0-2.075 3.737 0 1.887.593 2.725.592.831 1.315.831t1.388-.629v-6.296q-.63-.368-1.221-.368" fill="#fff"/><path d="m175.18 75.645-8.173-6.674c-1.073.84-2.482 1.33-4.108 1.33-4.269-.005-8.425-3.399-9.282-7.58a8 8 0 0 1-.113-.72 8.2 8.2 0 0 1-2.547-.172c-3.989-.884-7.186-4.387-7.578-8.1a8 8 0 0 1-.732.034c-4.269-.004-8.425-3.397-9.282-7.578-.327-1.594-.128-3.072.48-4.29l-.787-.644c-.659-.537-.837-1.41-.4-1.946.439-.537 1.33-.536 1.988.001l.787.643c1.073-.84 2.481-1.33 4.108-1.329 4.269.004 8.424 3.397 9.282 7.58q.075.365.113.722a8.2 8.2 0 0 1 2.551.173c3.988.884 7.184 4.384 7.578 8.094q.356-.033.728-.033c4.269.004 8.426 3.398 9.283 7.579.327 1.593.128 3.072-.48 4.291l8.172 6.673c.659.538.837 1.41.4 1.947-.22.268-1.658.267-1.988 0z" fill="none" stroke-opacity=".502" stroke="#000" stroke-width="6" stroke-linejoin="round"/><path d="m175.18 75.645-8.173-6.674c-1.073.84-2.482 1.33-4.108 1.33-4.269-.005-8.425-3.399-9.282-7.58a8 8 0 0 1-.113-.72 8.2 8.2 0 0 1-2.547-.172c-3.989-.884-7.186-4.387-7.578-8.1a8 8 0 0 1-.732.034c-4.269-.004-8.425-3.397-9.282-7.578-.327-1.594-.128-3.072.48-4.29l-.787-.644c-.659-.537-.837-1.41-.4-1.946.439-.537 1.33-.536 1.988.001l.787.643c1.073-.84 2.481-1.33 4.108-1.329 4.269.004 8.424 3.397 9.282 7.58q.075.365.113.722a8.2 8.2 0 0 1 2.551.173c3.988.884 7.184 4.384 7.578 8.094q.356-.033.728-.033c4.269.004 8.426 3.398 9.283 7.579.327 1.593.128 3.072-.48 4.291l8.172 6.673c.659.538.837 1.41.4 1.947-.22.268-.552.403-.911.403-.36 0-.747-.136-1.077-.404" fill="#fff"/><path d="m126.385 82.966-10.719-52.262c-.649-3.165.667-6.288 2.877-6.286l56.666.053c3.893.003 7.036 3.558 7.751 7.044l10.927 53.28c.693 3.38-2.285 5.45-5.677 5.446l-53.333-.05c-4.296-.004-7.587-2.813-8.492-7.225zm64.59 3.99-12.141-59.194-60.426-.057 12.14 59.195z" fill="none" stroke-opacity=".502" stroke="#000" stroke-width="6.5"/><path d="M112.336 26.608a4.723 4.723 0 1 1 9.445 0 4.723 4.723 0 0 1-9.445 0zm63.153-.244a4.723 4.723 0 1 1 9.445 0 4.723 4.723 0 0 1-9.445 0zm-50.473 61.935a4.722 4.722 0 1 1 9.444 0 4.722 4.722 0 0 1-9.444 0zm62.665 0a4.723 4.723 0 1 1 9.445 0 4.723 4.723 0 0 1-9.445 0z" fill="none" stroke-opacity=".502" stroke="#000" stroke-width="9"/><path d="m127.866 90.185-13.49-65.771 67.14.063 13.49 65.77zm63.108-3.229-12.14-59.194-60.426-.057 12.14 59.195z" fill="#fff"/><path d="M112.336 26.608a4.723 4.723 0 1 1 9.445 0 4.723 4.723 0 0 1-9.445 0zm63.153-.244a4.723 4.723 0 1 1 9.445 0 4.723 4.723 0 0 1-9.445 0zm-50.473 61.935a4.722 4.722 0 1 1 9.444 0 4.722 4.722 0 0 1-9.444 0zm62.665 0a4.723 4.723 0 1 1 9.445 0 4.723 4.723 0 0 1-9.445 0z" fill="#fff" stroke="#fff" stroke-width="2.5"/><path d="m73.329 61.37-5.705-4.334-10.338 13.528c-.306.464-.508.913-.556 1.34-.217 2.665-1.864 4.892-3.895 5.854-.697.306-1.33 1.077-1.549 1.792l-1.797 5.778c-.106.383-.077.59-.07.642l.934.663c.103-.014.303-.094.548-.232l5.039-3.27c.675-.46 1.25-1.276 1.365-1.977.332-2.206 2.09-4.395 4.15-5.15.8-.32 1.23-.642 1.536-1.105zm5.42-6.272.471.358 2 1.519a2.71 2.71 0 0 1 .515 3.777l-1.751 2.241c-.798 1.11-2.337 1.425-3.493.686L66.109 77.267c-.753 1.051-1.756 1.82-2.808 2.227-1.207.428-2.02 1.435-2.114 2.29-.285 1.778-1.516 3.58-3.111 4.64l-5.09 3.276c-.683.41-1.432.722-2.105.814-1.035.14-2.016-.094-2.781-.675l-1.176-.894c-1.301-1.035-1.762-2.87-1.18-4.793l1.803-5.726c.544-1.813 2.003-3.488 3.641-4.238.793-.371 1.554-1.37 1.603-2.168.151-1.602.624-2.773 1.378-3.824l10.382-13.587c-1.021-.915-1.174-2.423-.33-3.592l1.75-2.24a2.713 2.713 0 0 1 3.78-.516l1.882 1.43.588.447 3.89-5.115a4.07 4.07 0 0 1 5.747-.782 4.08 4.08 0 0 1 1.579 2.683 4.2 4.2 0 0 1-.796 3.06z" fill="none" stroke-opacity=".502" stroke="#000" stroke-width="7"/><path d="m73.329 61.37-5.705-4.334-10.338 13.528c-.306.464-.508.913-.556 1.34-.217 2.665-1.864 4.892-3.895 5.854-.697.306-1.33 1.077-1.549 1.792l-1.797 5.778c-.106.383-.077.59-.07.642l.934.663c.103-.014.303-.094.548-.232l5.039-3.27c.675-.46 1.25-1.276 1.365-1.977.332-2.206 2.09-4.395 4.15-5.15.8-.32 1.23-.642 1.536-1.105zm5.42-6.272.471.358 2 1.519a2.71 2.71 0 0 1 .515 3.777l-1.751 2.241c-.798 1.11-2.337 1.425-3.493.686L66.109 77.267c-.753 1.051-1.756 1.82-2.808 2.227-1.207.428-2.02 1.435-2.114 2.29-.285 1.778-1.516 3.58-3.111 4.64l-5.09 3.276c-.683.41-1.432.722-2.105.814-1.035.14-2.016-.094-2.781-.675l-1.176-.894c-1.301-1.035-1.762-2.87-1.18-4.793l1.803-5.726c.544-1.813 2.003-3.488 3.641-4.238.793-.371 1.554-1.37 1.603-2.168.151-1.602.624-2.773 1.378-3.824l10.382-13.587c-1.021-.915-1.174-2.423-.33-3.592l1.75-2.24a2.713 2.713 0 0 1 3.78-.516l1.882 1.43.588.447 3.89-5.115a4.07 4.07 0 0 1 5.747-.782 4.08 4.08 0 0 1 1.579 2.683 4.2 4.2 0 0 1-.796 3.06z" fill="#fff" fill-rule="evenodd"/><g fill="#fff"><path d="m85.629 82.077-3.913-.257a.52.52 0 0 1-.274-.936l8.452-6.251.073-.044a.52.52 0 0 1 .698.224l4.696 9.155a.518.518 0 0 1-.66.715l-3.081-1.286a11 11 0 0 1-.977 2.049c-1.096 1.823-2.829 3.686-5.016 4.903-2.208 1.23-4.875 1.803-7.816 1.026-1.072-.283-2.178-.746-3.307-1.421a.52.52 0 0 1 .285-.98c3.84.38 6.327-.585 7.98-2.09 1.478-1.346 2.315-3.143 2.861-4.807z" stroke-opacity=".502" stroke="#000" stroke-width="6"/><path d="m85.629 82.077-3.913-.257a.52.52 0 0 1-.274-.936l8.452-6.251.073-.044a.52.52 0 0 1 .698.224l4.696 9.155a.518.518 0 0 1-.66.714l-3.081-1.285a11 11 0 0 1-.977 2.049c-1.096 1.823-2.829 3.686-5.016 4.903-2.208 1.23-4.875 1.803-7.816 1.026-1.071-.283-2.178-.746-3.307-1.421a.52.52 0 0 1 .285-.98c3.84.38 6.327-.585 7.98-2.09 1.478-1.346 2.315-3.143 2.86-4.807"/></g><g fill="#fff"><path d="m39.886 55.648 3.913.257a.52.52 0 0 1 .274.936l-8.452 6.251-.072.044a.52.52 0 0 1-.699-.224l-4.695-9.155a.518.518 0 0 1 .66-.715l3.08 1.286c.227-.655.557-1.35.977-2.049 1.096-1.822 2.83-3.686 5.016-4.903 2.208-1.23 4.875-1.803 7.816-1.025 1.072.282 2.178.745 3.307 1.42a.52.52 0 0 1-.285.98c-3.84-.38-6.327.585-7.98 2.09-1.478 1.346-2.315 3.143-2.86 4.807z" stroke-opacity=".502" stroke="#000" stroke-width="6"/><path d="m39.886 55.648 3.913.257a.52.52 0 0 1 .274.936l-8.452 6.251-.072.044a.52.52 0 0 1-.699-.224l-4.695-9.155a.518.518 0 0 1 .66-.714l3.08 1.285c.227-.655.557-1.35.977-2.049 1.096-1.822 2.83-3.686 5.016-4.903 2.208-1.23 4.875-1.803 7.816-1.025 1.072.282 2.178.745 3.307 1.42a.52.52 0 0 1-.285.98c-3.84-.38-6.327.585-7.98 2.09-1.478 1.346-2.315 3.143-2.86 4.807"/></g><path d="M252.584 67.835c.34.154.675.262.964.374-.004-.046-.054-.088-.059-.133-.817-1.313-2.558-3.56-5.41-6.259a1.8 1.8 0 0 1-.452-.374 70 70 0 0 0-2.122-1.841 45 45 0 0 0-3.548-2.682l-1.472 2.215c.872.892 1.933 1.812 3.09 2.77 3.825 3.166 6.975 5.052 8.958 5.888l.05.042m-10.915 2.2c1.228-.806 2.495-1.708 3.98-2.26a55 55 0 0 1-4.295-3.215c-.654-.542-1.61-1.333-2.68-2.345a38 38 0 0 0-1.505 2.866c-.277.534-6.092 2.847-6.692 2.901-.276.026 7.531-.603 7.237-.76-.876-.43-4.05-2.838-3.66-3.66.356-.68 1.106-2.136 2.062-3.888-1.182-1.234-2.327-2.563-3.145-3.875l-8.79 13.753c1.023 1.017 3.41 2.695 8.119 3.328 4.24.584 6.74-1.078 9.369-2.845m-2.63-15.022c-1.522-.879-2.692-1.466-3.505-1.715.444.792 1.245 1.921 2.486 3.288.328-.493.697-1.035 1.02-1.573m10.194-5.002c-1.476.135-3.28 1.78-5.204 4.13 1.543 1.107 2.893 2.14 3.699 2.806l.754.625c1.535-3.054 2.58-6.387 1.934-7.346-.113-.22-.675-.262-1.183-.215m12.098 24.98c.898 1.675 1.434 3.476 1.875 5.24.511 2.034-.743 4.09-2.79 4.602-2 .506-4.067-.739-4.579-2.773a4 4 0 0 1-.096-1.055l-.004-.046c.071-1.255.046-2.548-.206-3.774-.159-1.234-.633-2.347-1.287-3.397-.054-.088-.113-.221-.214-.304-.084.1-.121.196-.21.25l-16.422 15.238c-.424.455-.914.684-1.56.743-3.045.279-8.341-3.723-10.757-5.723-2.721-2.295-8.55-7.543-7.388-10.61l-.005-.045a1.24 1.24 0 0 1 .235-.484l.126-.15 2.52-3.977c.042-.05.042-.05.089-.054l11.277-17.589.037-.096a.6.6 0 0 1 .122-.196c.038-.096.126-.15.168-.2.121-.196.344-.31.52-.418 1.837-1.278 5.22.124 8.37 2.01 2.378-2.992 5.091-5.368 7.72-5.608l.047-.004c2.583-.236 3.845.85 4.44 1.768 1.955 3.058-.637 8.8-2.184 11.716 1.577 1.474 2.923 2.97 3.93 4.312 1.265 1.641 2.78 3.954 2.15 5.723.197.12.394.242.55.412 1.417 1.258 2.67 2.763 3.526 4.488" fill="none" stroke-opacity=".502" stroke="#000" stroke-width="6.5" stroke-linejoin="round"/><path d="M252.584 67.835c.34.154.675.262.964.374-.004-.046-.054-.088-.059-.133-.817-1.313-2.558-3.56-5.41-6.259a1.8 1.8 0 0 1-.452-.374 70 70 0 0 0-2.122-1.841 45 45 0 0 0-3.548-2.682l-1.472 2.215c.872.892 1.933 1.812 3.09 2.77 3.825 3.166 6.975 5.052 8.958 5.888zm-10.915 2.2c1.228-.806 2.495-1.708 3.98-2.26a55 55 0 0 1-4.295-3.215c-.654-.542-1.61-1.333-2.68-2.345a38 38 0 0 0-1.505 2.866 1.77 1.77 0 0 1-1.4.96 1.64 1.64 0 0 1-.902-.194 1.727 1.727 0 0 1-.814-2.285c.357-.68 1.107-2.136 2.063-3.888-1.182-1.234-2.327-2.563-3.145-3.876l-8.79 13.754c1.023 1.017 3.41 2.695 8.119 3.328 4.24.584 6.74-1.078 9.369-2.845m-2.63-15.022c-1.522-.879-2.692-1.466-3.505-1.715.444.792 1.245 1.921 2.486 3.288.328-.493.697-1.035 1.02-1.573m10.194-5.002c-1.476.135-3.28 1.78-5.204 4.13 1.543 1.107 2.893 2.14 3.699 2.806l.754.625c1.535-3.054 2.58-6.387 1.934-7.346-.113-.22-.675-.262-1.183-.215m12.098 24.98c.898 1.675 1.434 3.476 1.875 5.24.511 2.034-.743 4.09-2.79 4.602-2 .506-4.067-.739-4.579-2.773a4 4 0 0 1-.096-1.055l-.004-.046c.071-1.255.046-2.548-.206-3.774-.159-1.234-.633-2.347-1.287-3.397-.054-.088-.113-.221-.214-.304-.084.1-.121.196-.21.25l-16.422 15.238c-.424.455-.914.684-1.56.743-3.045.279-8.341-3.723-10.757-5.723-2.721-2.295-8.55-7.543-7.388-10.61l-.005-.045a1.24 1.24 0 0 1 .235-.484l.126-.15 2.52-3.977c.042-.05.042-.05.089-.054l11.277-17.589.037-.096c.038-.096.08-.146.122-.196.038-.096.126-.15.168-.2.121-.196.344-.31.52-.418 1.837-1.278 5.22.124 8.37 2.01 2.378-2.992 5.091-5.368 7.72-5.608l.047-.004c2.583-.236 3.845.85 4.44 1.768 1.955 3.058-.637 8.8-2.184 11.716 1.577 1.474 2.923 2.97 3.93 4.312 1.266 1.641 2.78 3.954 2.15 5.723.197.12.394.242.55.412 1.417 1.258 2.67 2.763 3.526 4.488" fill="#fff" fill-rule="evenodd"/><path d="M269.019 58.322a2.58 2.58 0 0 0 2.184-1.374l.98-1.853c.464-.876 1.788-.574 1.826.416l.083 2.095a2.58 2.58 0 0 0 1.373 2.184l1.853.98c.876.465.574 1.789-.416 1.828l-2.095.082a2.58 2.58 0 0 0-2.183 1.373l-.981 1.852c-.464.876-1.787.575-1.827-.415l-.081-2.095a2.58 2.58 0 0 0-1.375-2.183l-1.853-.98c-.876-.465-.574-1.789.416-1.828z" fill="none" stroke-opacity=".502" stroke="#000" stroke-width="5"/><path d="M269.019 58.322a2.58 2.58 0 0 0 2.184-1.374l.98-1.853c.464-.876 1.788-.574 1.826.416l.083 2.095a2.58 2.58 0 0 0 1.373 2.184l1.853.98c.876.465.574 1.789-.416 1.828l-2.095.082a2.58 2.58 0 0 0-2.183 1.373l-.981 1.852c-.464.876-1.787.575-1.827-.415l-.081-2.095a2.58 2.58 0 0 0-1.375-2.183l-1.853-.98c-.876-.465-.574-1.789.416-1.828z" fill="#fff"/><path d="M261.282 39.015a2.05 2.05 0 0 0 1.144-1.696l.117-1.659c.056-.784 1.113-.99 1.458-.283l.732 1.492c.32.657.967 1.093 1.696 1.145l1.658.117c.784.056.99 1.112.284 1.459l-1.493.73a2.05 2.05 0 0 0-1.143 1.696l-.118 1.658c-.056.784-1.112.99-1.458.284l-.73-1.493a2.05 2.05 0 0 0-1.698-1.143l-1.658-.117c-.784-.056-.99-1.113-.284-1.459z" fill="none" stroke-opacity=".502" stroke="#000" stroke-width="4.5"/><path d="M261.282 39.015a2.05 2.05 0 0 0 1.144-1.696l.117-1.659c.056-.784 1.113-.99 1.458-.283l.732 1.492c.32.657.967 1.093 1.696 1.145l1.658.117c.784.056.99 1.112.284 1.459l-1.493.73a2.05 2.05 0 0 0-1.143 1.696l-.118 1.658c-.056.784-1.112.99-1.458.284l-.73-1.493a2.05 2.05 0 0 0-1.698-1.143l-1.658-.117c-.784-.056-.99-1.113-.284-1.459z" fill="#fff"/></g></svg>
