<svg version="1.1" xmlns="http://www.w3.org/2000/svg" xmlns:xlink="http://www.w3.org/1999/xlink" width="309.2973" height="159.64866" viewBox="0,0,309.2973,159.64866"><defs><linearGradient x1="240" y1="105.17573" x2="240" y2="254.82432" gradientUnits="userSpaceOnUse" id="color-1"><stop offset="0" stop-color="#735600"/><stop offset="1" stop-color="#b38600"/></linearGradient></defs><g transform="translate(-85.35135,-100.17567)"><g fill-rule="nonzero" stroke-linejoin="miter" stroke-miterlimit="10" stroke-dasharray="" stroke-dashoffset="0" style="mix-blend-mode: normal"><path d="M90.25088,255.2497c0,0 0,-120.79799 0,-140.04964c0,-5.0007 4.64456,-9.44948 10.54911,-9.44948c30.90219,0 288.94914,0 288.94914,0v149.49913z" fill="#ffbf00" stroke="none" stroke-width="0" stroke-linecap="butt"/><g fill="#ffcc33" stroke="none" stroke-width="0" stroke-linecap="butt"><path d="M239.98575,184.87515l25.76426,-14.875l25.76425,14.875v29.75l-25.76425,14.875l-25.76426,-14.875z"/><path d="M316.48575,229.37515l25.76426,-14.875l25.76425,14.875v29.75h-51.52851z"/><path d="M316.48575,140.37515l25.76426,-14.875l25.76425,14.875v29.75l-25.76425,14.875l-25.76426,-14.875z"/><path d="M240.48575,104.87515h51.52851v21.25l-25.76425,14.875l-25.76426,-14.875z"/><path d="M163.48575,140.37515l25.76426,-14.875l25.76426,14.875v29.75l-25.76426,14.875l-25.76426,-14.875z"/><path d="M163.48575,229.37515l25.76426,-14.875l25.76426,14.875v29.75h-51.52852z"/><path d="M86.98575,184.87515l25.76426,-14.875l25.76425,14.875v29.75l-25.76425,14.875l-25.76426,-14.875z"/><path d="M97.48575,105.37515l40.52851,-0.5v21.25l-25.76425,14.875c0,0 -13.92612,-8.04026 -18.6726,-10.78063c-2.92511,-1.68882 3.90834,-24.84437 3.90834,-24.84437z"/></g><path d="M188.48575,184.87515l25.76426,-14.875l25.76425,14.875v29.75l-25.76425,14.875l-25.76426,-14.875z" fill="#e6ac00" stroke="none" stroke-width="0" stroke-linecap="butt"/><path d="M213.98575,229.37515l25.76426,-14.875l25.76425,14.875v29.75h-51.52851z" fill="#ffbf00" stroke="none" stroke-width="0" stroke-linecap="butt"/><path d="M264.98575,229.37515l25.76426,-14.875l25.76425,14.875v29.75h-51.52851z" fill="#e6ac00" stroke="none" stroke-width="0" stroke-linecap="butt"/><path d="M264.98575,140.37515l25.76426,-14.875l25.76425,14.875v29.75l-25.76425,14.875l-25.76426,-14.875z" fill="#e6ac00" stroke="none" stroke-width="0" stroke-linecap="butt"/><path d="M188.98575,104.87515h51.52851v21.25l-25.76425,14.875l-25.76426,-14.875z" fill="#e6ac00" stroke="none" stroke-width="0" stroke-linecap="butt"/><path d="M214.48575,140.87515l25.76426,-14.875l25.76425,14.875v29.75l-25.76425,14.875l-25.76426,-14.875z" fill="#ffbf00" stroke="none" stroke-width="0" stroke-linecap="butt"/><path d="M111.98575,140.37515l25.76426,-14.875l25.76426,14.875v29.75l-25.76426,14.875l-25.76426,-14.875z" fill="#e6ac00" stroke="none" stroke-width="0" stroke-linecap="butt"/><path d="M111.98575,229.37515l25.76426,-14.875l25.76426,14.875v29.75h-51.52852z" fill="#e6ac00" stroke="none" stroke-width="0" stroke-linecap="butt"/><path d="M341.48575,184.87515l25.76426,-14.875l25.76425,14.875v29.75l-25.76425,14.875l-25.76426,-14.875z" fill="#e6ac00" stroke="none" stroke-width="0" stroke-linecap="butt"/><path d="M341.98575,104.87515h41.52851c0,0 5.81571,23.66581 2.88286,25.35908c-4.74725,2.74083 -18.64711,10.76592 -18.64711,10.76592l-25.76426,-14.875z" fill="#e6ac00" stroke="none" stroke-width="0" stroke-linecap="butt"/><path d="M90.35135,117.67133c0,-6.39897 5.91545,-12.49566 13.1192,-12.49566c28.93252,0 219.72832,0 272.60996,0c8.61359,0 13.56814,4.64378 13.56814,12.24625c0,30.59212 0,109.0924 0,125.70487c0,6.03964 -4.85913,11.69754 -13.31873,11.69754c-52.46667,0 -243.42599,0 -272.60996,0c-7.3279,0 -13.36861,-4.5235 -13.36861,-11.94695c0,-30.16113 0,-108.19342 0,-125.20604z" fill="none" stroke="url(#color-1)" stroke-width="10" stroke-linecap="butt"/><path d="M155.0503,231.82502c-2.75355,0 -4.13033,-0.30796 -4.13033,-0.92389c0,0 -0.55324,-10.61498 -0.73037,-14.01365c-0.10129,-1.94337 -0.97951,-2.1192 -1.54075,-0.25318c-1.02696,3.41444 -4.35914,14.49327 -4.35914,14.49327c-0.12077,0.37439 -1.17147,0.56158 -3.15209,0.56158c-1.98063,0 -3.00114,-0.1721 -3.06152,-0.51629c0,0 -3.70515,-12.08627 -4.73421,-15.44306c-0.49784,-1.62397 -1.18085,-1.54826 -1.23902,0.10209c-0.11602,3.29206 -0.52118,14.78845 -0.52118,14.78845c-0.03019,0.46497 -0.61894,0.78199 -1.76626,0.95106c-1.14128,0.16908 -2.09234,0.25362 -2.85319,0.25362c-0.75481,0 -1.48547,-0.04529 -2.19197,-0.13587c-1.48547,-0.21738 -2.21311,-0.60384 -2.18292,-1.15939l1.06881,-30.14417c0,-0.74273 1.88401,-1.1141 5.65203,-1.1141c1.11712,0 2.4788,0.08454 4.08504,0.25362c1.60624,0.16908 2.50296,0.5012 2.69015,0.99635l5.19009,14.61014l4.54698,-14.65542c0.27777,-0.80312 2.41238,-1.20468 6.40382,-1.20468c1.14128,0 2.50598,0.08454 4.0941,0.25362c1.59416,0.16908 2.39124,0.471 2.39124,0.90578l1.3496,30.42495c0,0.33816 -0.60384,0.58573 -1.81155,0.74273c-1.20166,0.15096 -2.26746,0.22644 -3.19739,0.22644zM174.43238,232.24168c-3.06152,0 -5.64297,-1.04164 -7.74437,-3.12492c-2.1014,-2.08932 -3.1521,-4.98176 -3.1521,-8.67732c0,-3.69556 1.01144,-6.66952 3.03434,-8.92188c2.02894,-2.2584 4.58926,-3.3876 7.68097,-3.3876c3.09171,0 5.47994,0.78803 7.16467,2.36407c1.68474,1.57605 2.52711,3.49327 2.52711,5.75167c0,5.00591 -2.87433,7.50887 -8.62297,7.50887h-3.20644c0,0.92993 0.25362,1.57303 0.76085,1.9293c0.51327,0.35627 1.26506,0.53441 2.25538,0.53441c2.16782,0 6.3374,-1.3013 6.58498,-0.84237c0.74273,1.33451 1.1141,2.45767 1.1141,3.36948c0,0.91181 -0.29287,1.50661 -0.8786,1.78438c0,0 -4.4564,1.71191 -7.51792,1.71191zM176.15336,217.12431c0,-1.29828 -0.63404,-1.94742 -1.90213,-1.94742c-0.58573,0 -1.08995,0.17814 -1.51264,0.53441c-0.41666,0.35627 -0.62498,0.87256 -0.62498,1.54887v1.44018h2.509c1.02051,0 1.53076,-0.52535 1.53076,-1.57605zM193.86412,225.70199c0.92993,0 1.39489,-0.32306 1.39489,-0.96918c0,-0.46497 -0.80312,-1.06882 -2.40936,-1.81155c-3.86464,-1.57605 -5.79695,-4.1575 -5.79695,-7.74437c0,-2.28859 0.83332,-4.03371 2.49994,-5.23537c1.67266,-1.2077 3.67442,-1.81155 6.00528,-1.81155c2.3369,0 4.31451,0.24758 5.93282,0.74273c1.62436,0.49516 2.43654,1.1443 2.43654,1.94742c0,0.67631 -0.33212,1.57303 -0.99635,2.69015c-0.66424,1.11108 -1.12014,1.71191 -1.36772,1.80249c-1.32847,-0.7367 -2.76563,-1.10504 -4.31149,-1.10504c-0.83331,0 -1.24996,0.29287 -1.24996,0.8786c0,0.36835 0.16002,0.68537 0.48006,0.95106c0.32608,0.25965 0.92087,0.58272 1.78438,0.96918c0.86954,0.38646 1.58812,0.73669 2.15574,1.0507c0.57366,0.30796 1.21675,0.73971 1.9293,1.29526c1.48547,1.17147 2.22821,2.70222 2.22821,4.59227c0,2.46975 -0.82124,4.47151 -2.46371,6.00529c-1.63643,1.52774 -4.1092,2.29161 -7.41829,2.29161c-2.19197,0 -4.18468,-0.37136 -5.97811,-1.1141c-1.79344,-0.74273 -2.69015,-1.76324 -2.69015,-3.06152c0,-0.86351 0.20833,-1.7723 0.62498,-2.72638c0.41666,-0.96012 0.84236,-1.59718 1.27714,-1.91118c0,0 4.48358,2.27348 5.93281,2.27348zM214.73314,225.70199c0.92993,0 1.39489,-0.32306 1.39489,-0.96918c0,-0.46497 -0.80312,-1.06882 -2.40936,-1.81155c-3.86464,-1.57605 -5.79695,-4.1575 -5.79695,-7.74437c0,-2.28859 0.83331,-4.03371 2.49993,-5.23537c1.67266,-1.2077 3.67442,-1.81155 6.00528,-1.81155c2.3369,0 4.31451,0.24758 5.93282,0.74273c1.62436,0.49516 2.43653,1.1443 2.43653,1.94742c0,0.67631 -0.33211,1.57303 -0.99635,2.69015c-0.66424,1.11108 -1.12014,1.71191 -1.36772,1.80249c-1.32847,-0.7367 -2.76563,-1.10504 -4.31149,-1.10504c-0.83331,0 -1.24997,0.29287 -1.24997,0.8786c0,0.36835 0.16002,0.68537 0.48006,0.95106c0.32608,0.25965 0.92087,0.58272 1.78437,0.96918c0.86954,0.38646 1.58812,0.73669 2.15574,1.0507c0.57366,0.30796 1.21676,0.73971 1.9293,1.29526c1.48547,1.17147 2.2282,2.70222 2.2282,4.59227c0,2.46975 -0.82123,4.47151 -2.4637,6.00529c-1.63643,1.52774 -4.1092,2.29161 -7.41829,2.29161c-2.19197,0 -4.18467,-0.37136 -5.97811,-1.1141c-1.79344,-0.74273 -2.69015,-1.76324 -2.69015,-3.06152c0,-0.86351 0.20833,-1.7723 0.62498,-2.72638c0.41666,-0.96012 0.84237,-1.59718 1.27714,-1.91118c0,0 4.48361,2.27348 5.93285,2.27348zM231.61675,214.94139c-0.86351,-1.54585 -1.29526,-2.80488 -1.29526,-3.77708c0,-0.9722 0.26267,-1.59718 0.78802,-1.87495c1.7572,-0.77293 4.1726,-1.15939 7.24619,-1.15939c3.07963,0 5.25349,0.71858 6.52158,2.15574c1.26809,1.43716 1.90212,3.56271 1.90212,6.37665v7.32772h1.57605c0.52535,0 0.93597,0.31098 1.23185,0.93295c0.29589,0.61593 0.44383,1.46433 0.44383,2.54522c0,1.08089 -0.27173,2.14669 -0.8152,3.19739c-0.54347,1.0507 -1.27714,1.57605 -2.20103,1.57605c-1.67266,0 -3.01925,-0.44685 -4.03975,-1.34055c-0.45893,-0.37439 -0.81218,-0.82425 -1.05976,-1.3496c-1.42509,1.79344 -3.63819,2.69015 -6.63932,2.69015c-2.25236,0 -4.15147,-0.80312 -5.69732,-2.40936c-1.54585,-1.60624 -2.31878,-3.50837 -2.31878,-5.70638c0,-5.0361 3.01321,-7.55416 9.03963,-7.55416h2.55428v-0.471c0,-0.80312 -0.13284,-1.31942 -0.39854,-1.54888c-0.25965,-0.22946 -0.86955,-0.34419 -1.82967,-0.34419c-1.17751,0 -2.84715,0.24456 -5.00893,0.73368zM235.33043,223.48284c0,0.67631 0.18417,1.1926 0.55252,1.54887c0.36835,0.35627 0.83935,0.53441 1.41301,0.53441c0.57366,0 1.09296,-0.23248 1.55793,-0.69745v-3.56875h-1.30432c-1.47943,0 -2.21915,0.72764 -2.21915,2.18292zM261.19967,231.77973c-2.99509,0 -5.31387,-0.96616 -6.95634,-2.89848c-1.63643,-1.93232 -2.45465,-4.79155 -2.45465,-8.57768c0,-3.78613 1.07485,-6.75405 3.22456,-8.90376c2.14971,-2.14971 5.00893,-3.22455 8.57768,-3.22455c3.57479,0 6.52157,0.78802 8.84035,2.36407v23.09724c0,2.28859 -0.92993,4.04277 -2.78979,5.26255c-1.85382,1.21978 -4.23299,1.82967 -7.1375,1.82967c-2.90451,0 -5.50107,-0.37137 -7.78966,-1.1141c-0.314,-0.74273 -0.471,-1.40697 -0.471,-1.9927c0,-1.98063 0.32608,-3.43289 0.97823,-4.35678c2.0712,0.89369 4.28129,1.34055 6.63027,1.34055c1.70285,0 2.55429,-0.60083 2.55429,-1.80249v-1.39489c-1.32847,0.24758 -2.39728,0.37136 -3.20644,0.37136zM263.3373,215.72941c-2.0712,0 -3.1068,1.56397 -3.1068,4.69191c0,1.9444 0.40156,3.20946 1.20468,3.79519c0.52535,0.40458 1.0507,0.60687 1.57605,0.60687c0.52535,0 0.99031,-0.04529 1.39489,-0.13587v-8.81319c-0.37439,-0.09661 -0.73066,-0.14492 -1.06882,-0.14492zM286.61495,232.24168c-3.06152,0 -5.64297,-1.04164 -7.74437,-3.12492c-2.1014,-2.08932 -3.1521,-4.98176 -3.1521,-8.67732c0,-3.69556 1.01144,-6.66952 3.03434,-8.92188c2.02894,-2.2584 4.58926,-3.3876 7.68097,-3.3876c3.09171,0 5.47994,0.78803 7.16467,2.36407c1.68474,1.57605 2.52711,3.49327 2.52711,5.75167c0,5.00591 -2.87433,7.50887 -8.62297,7.50887h-3.20644c0,0.92993 0.25362,1.57303 0.76085,1.9293c0.51327,0.35627 1.26506,0.53441 2.25538,0.53441c2.16782,0 6.3374,-1.3013 6.58498,-0.84237c0.74273,1.33451 1.1141,2.45767 1.1141,3.36948c0,0.91181 -0.29287,1.50661 -0.8786,1.78438c0,0 -4.97439,1.71191 -7.51792,1.71191zM288.33593,217.12431c0,-1.29828 -0.63404,-1.94742 -1.90213,-1.94742c-0.58573,0 -1.08995,0.17814 -1.51264,0.53441c-0.41666,0.35627 -0.62498,0.87256 -0.62498,1.54887v1.44018h2.509c1.02051,0 1.53076,-0.52535 1.53076,-1.57605zM306.04668,225.70199c0.92993,0 1.39489,-0.32306 1.39489,-0.96918c0,-0.46497 -0.80312,-1.06882 -2.40936,-1.81155c-3.86464,-1.57605 -5.79695,-4.1575 -5.79695,-7.74437c0,-2.28859 0.83332,-4.03371 2.49994,-5.23537c1.67266,-1.2077 3.67442,-1.81155 6.00528,-1.81155c2.3369,0 4.31451,0.24758 5.93282,0.74273c1.62436,0.49516 2.43654,1.1443 2.43654,1.94742c0,0.67631 -0.33212,1.57303 -0.99635,2.69015c-0.66424,1.11108 -1.12014,1.71191 -1.36772,1.80249c-1.32847,-0.7367 -2.76563,-1.10504 -4.31149,-1.10504c-0.83331,0 -1.24996,0.29287 -1.24996,0.8786c0,0.36835 0.16002,0.68537 0.48006,0.95106c0.32608,0.25965 0.92087,0.58272 1.78438,0.96918c0.86954,0.38646 1.58812,0.73669 2.15574,1.0507c0.57366,0.30796 1.21676,0.73971 1.9293,1.29526c1.48547,1.17147 2.2282,2.70222 2.2282,4.59227c0,2.46975 -0.82124,4.47151 -2.46371,6.00529c-1.63643,1.52774 -4.1092,2.29161 -7.41829,2.29161c-2.19197,0 -4.18467,-0.37136 -5.97811,-1.1141c-1.79344,-0.74273 -2.69015,-1.76324 -2.69015,-3.06152c0,-0.86351 0.20833,-1.7723 0.62498,-2.72638c0.41666,-0.96012 0.84236,-1.59718 1.27714,-1.91118c0,0 4.48359,2.27348 5.93282,2.27348z" fill="none" stroke-opacity="0.50196" stroke="#000000" stroke-width="8" stroke-linecap="square"/><path d="M346.01562,202.16852v8.43381h8.50092c1.29005,0 2.16625,0.85009 2.62858,2.55028c0.17896,0.67112 0.26845,1.32733 0.26845,1.96863c0,0.63384 -0.08949,1.28633 -0.26845,1.95745c-0.46233,1.69273 -1.33852,2.53909 -2.62858,2.53909h-8.50092v8.61277c0,1.29005 -0.84263,2.16625 -2.5279,2.62858c-0.6413,0.17896 -1.32734,0.26845 -2.05812,0.26845l-1.81204,-0.24608c-1.74493,-0.47725 -2.61739,-1.36089 -2.61739,-2.65095v-8.61277h-8.54566c-1.29005,0 -2.16625,-0.84264 -2.62858,-2.52791c-0.18642,-0.67858 -0.27964,-1.3348 -0.27964,-1.96863c0,-0.6413 0.09321,-1.30124 0.27964,-1.97982c0.46233,-1.69273 1.33852,-2.53909 2.62858,-2.53909h8.54566v-8.43381c0,-1.29005 0.84636,-2.16624 2.53909,-2.62857c0.6413,-0.17896 1.32361,-0.26845 2.04693,-0.26845l1.82323,0.24608c1.73747,0.47725 2.6062,1.36089 2.6062,2.65094z" fill="none" stroke-opacity="0.50196" stroke="#000000" stroke-width="8" stroke-linecap="square"/><path d="M155.0503,231.82502c-2.75355,0 -4.13033,-0.30796 -4.13033,-0.92389l-0.96918,-18.59554l-5.66109,18.82199c-0.12077,0.37439 -1.17147,0.56158 -3.15209,0.56158c-1.98063,0 -3.00113,-0.1721 -3.06152,-0.51629l-5.84224,-19.05749l-0.65216,18.50497c-0.03019,0.46497 -0.61895,0.78199 -1.76626,0.95106c-1.14128,0.16908 -2.09234,0.25362 -2.85319,0.25362c-0.75481,0 -1.48547,-0.04529 -2.19197,-0.13587c-1.48547,-0.21739 -2.21311,-0.60385 -2.18292,-1.15939l1.06881,-30.14417c0,-0.74273 1.88401,-1.1141 5.65203,-1.1141c1.11712,0 2.4788,0.08454 4.08504,0.25362c1.60624,0.16908 2.50296,0.5012 2.69015,0.99635l5.19009,14.61014l4.54699,-14.65543c0.27777,-0.80312 2.41238,-1.20468 6.40382,-1.20468c1.14128,0 2.50597,0.08454 4.0941,0.25362c1.59416,0.16908 2.39124,0.471 2.39124,0.90577l1.3496,30.42496c0,0.33816 -0.60385,0.58573 -1.81155,0.74273c-1.20166,0.15096 -2.26746,0.22644 -3.19738,0.22644zM181.95031,230.52977c-1.95043,1.14128 -4.45641,1.71191 -7.51793,1.71191c-3.06152,0 -5.64297,-1.04164 -7.74437,-3.12492c-2.1014,-2.08932 -3.15209,-4.98176 -3.15209,-8.67732c0,-3.69556 1.01145,-6.66952 3.03434,-8.92188c2.02893,-2.2584 4.58926,-3.3876 7.68097,-3.3876c3.09171,0 5.47993,0.78802 7.16467,2.36407c1.68474,1.57605 2.52711,3.49327 2.52711,5.75167c0,5.00591 -2.87432,7.50887 -8.62297,7.50887h-3.20644c0,0.92993 0.25362,1.57303 0.76085,1.9293c0.51327,0.35627 1.26506,0.53441 2.25538,0.53441c2.16782,0 4.22393,-0.49516 6.16832,-1.48547c0.03019,-0.03019 0.16908,0.18418 0.41666,0.6431c0.74273,1.33451 1.1141,2.45767 1.1141,3.36948c0,0.91181 -0.29287,1.50661 -0.8786,1.78438zM176.15336,217.12431c0,-1.29828 -0.63404,-1.94741 -1.90213,-1.94741c-0.58573,0 -1.08995,0.17813 -1.51264,0.53441c-0.41666,0.35627 -0.62498,0.87256 -0.62498,1.54887v1.44018h2.50899c1.0205,0 1.53076,-0.52535 1.53076,-1.57605zM187.9313,223.4285c2.50597,1.51566 4.48358,2.27349 5.93282,2.27349c0.92993,0 1.39489,-0.32306 1.39489,-0.96918c0,-0.46497 -0.80312,-1.06881 -2.40936,-1.81155c-3.86464,-1.57605 -5.79695,-4.1575 -5.79695,-7.74437c0,-2.28859 0.83331,-4.03372 2.49994,-5.23537c1.67266,-1.2077 3.67442,-1.81155 6.00528,-1.81155c2.3369,0 4.31451,0.24758 5.93282,0.74273c1.62436,0.49516 2.43653,1.1443 2.43653,1.94741c0,0.67631 -0.33212,1.57303 -0.99635,2.69015c-0.66424,1.11108 -1.12014,1.71191 -1.36772,1.80249c-1.32847,-0.7367 -2.76563,-1.10504 -4.31149,-1.10504c-0.83331,0 -1.24997,0.29287 -1.24997,0.8786c0,0.36835 0.16002,0.68537 0.48006,0.95106c0.32608,0.25965 0.92087,0.58272 1.78438,0.96918c0.86954,0.38646 1.58813,0.7367 2.15574,1.0507c0.57366,0.30796 1.21676,0.73971 1.9293,1.29526c1.48547,1.17147 2.2282,2.70223 2.2282,4.59228c0,2.46974 -0.82123,4.4715 -2.46371,6.00528c-1.63643,1.52774 -4.10919,2.29161 -7.41829,2.29161c-2.19197,0 -4.18468,-0.37137 -5.97811,-1.1141c-1.79343,-0.74273 -2.69015,-1.76324 -2.69015,-3.06152c0,-0.86351 0.20833,-1.7723 0.62498,-2.72638c0.41666,-0.96012 0.84237,-1.59718 1.27714,-1.91118zM208.80032,223.4285c2.50597,1.51566 4.48358,2.27349 5.93282,2.27349c0.92993,0 1.39489,-0.32306 1.39489,-0.96918c0,-0.46497 -0.80312,-1.06881 -2.40936,-1.81155c-3.86464,-1.57605 -5.79695,-4.1575 -5.79695,-7.74437c0,-2.28859 0.83331,-4.03372 2.49994,-5.23537c1.67266,-1.2077 3.67442,-1.81155 6.00528,-1.81155c2.3369,0 4.31451,0.24758 5.93282,0.74273c1.62436,0.49516 2.43653,1.1443 2.43653,1.94741c0,0.67631 -0.33212,1.57303 -0.99635,2.69015c-0.66424,1.11108 -1.12014,1.71191 -1.36772,1.80249c-1.32847,-0.7367 -2.76563,-1.10504 -4.31149,-1.10504c-0.83331,0 -1.24997,0.29287 -1.24997,0.8786c0,0.36835 0.16002,0.68537 0.48006,0.95106c0.32608,0.25965 0.92087,0.58272 1.78438,0.96918c0.86954,0.38646 1.58813,0.7367 2.15574,1.0507c0.57366,0.30796 1.21676,0.73971 1.9293,1.29526c1.48547,1.17147 2.2282,2.70223 2.2282,4.59228c0,2.46974 -0.82123,4.4715 -2.46371,6.00528c-1.63643,1.52774 -4.10919,2.29161 -7.41829,2.29161c-2.19197,0 -4.18468,-0.37137 -5.97811,-1.1141c-1.79343,-0.74273 -2.69015,-1.76324 -2.69015,-3.06152c0,-0.86351 0.20833,-1.7723 0.62498,-2.72638c0.41666,-0.96012 0.84237,-1.59718 1.27714,-1.91118zM231.61675,214.94139c-0.86351,-1.54585 -1.29526,-2.80488 -1.29526,-3.77708c0,-0.9722 0.26267,-1.59718 0.78802,-1.87495c1.7572,-0.77293 4.1726,-1.15939 7.24619,-1.15939c3.07963,0 5.25349,0.71858 6.52157,2.15574c1.26808,1.43716 1.90213,3.56271 1.90213,6.37665v7.32771h1.57605c0.52535,0 0.93597,0.31098 1.23185,0.93295c0.29589,0.61593 0.44383,1.46433 0.44383,2.54523c0,1.08089 -0.27173,2.14668 -0.8152,3.19738c-0.54346,1.0507 -1.27714,1.57605 -2.20103,1.57605c-1.67266,0 -3.01925,-0.44685 -4.03975,-1.34055c-0.45892,-0.37439 -0.81218,-0.82425 -1.05976,-1.3496c-1.42509,1.79343 -3.63819,2.69015 -6.63932,2.69015c-2.25236,0 -4.15147,-0.80312 -5.69732,-2.40936c-1.54585,-1.60624 -2.31878,-3.50837 -2.31878,-5.70638c0,-5.0361 3.01321,-7.55416 9.03963,-7.55416h2.55428v-0.471c0,-0.80312 -0.13285,-1.31941 -0.39854,-1.54887c-0.25965,-0.22946 -0.86954,-0.34419 -1.82966,-0.34419c-1.17751,0 -2.84715,0.24456 -5.00893,0.73368zM235.33043,223.48284c0,0.67631 0.18418,1.1926 0.55252,1.54887c0.36835,0.35627 0.83935,0.53441 1.41301,0.53441c0.57366,0 1.09297,-0.23248 1.55793,-0.69745v-3.56875h-1.30431c-1.47943,0 -2.21915,0.72764 -2.21915,2.18292zM261.19967,231.77973c-2.99509,0 -5.31387,-0.96616 -6.95635,-2.89848c-1.63643,-1.93232 -2.45465,-4.79155 -2.45465,-8.57768c0,-3.78614 1.07485,-6.75406 3.22456,-8.90376c2.14971,-2.14971 5.00893,-3.22456 8.57768,-3.22456c3.57479,0 6.52157,0.78802 8.84036,2.36407v23.09724c0,2.28859 -0.92993,4.04277 -2.78978,5.26255c-1.85382,1.21977 -4.23299,1.82966 -7.1375,1.82966c-2.90452,0 -5.50107,-0.37137 -7.78966,-1.1141c-0.314,-0.74273 -0.471,-1.40697 -0.471,-1.9927c0,-1.98063 0.32608,-3.43288 0.97824,-4.35677c2.0712,0.8937 4.28129,1.34055 6.63027,1.34055c1.70286,0 2.55428,-0.60083 2.55428,-1.80249v-1.39489c-1.32847,0.24758 -2.39728,0.37137 -3.20644,0.37137zM263.3373,215.72941c-2.0712,0 -3.10681,1.56397 -3.10681,4.69191c0,1.94439 0.40156,3.20946 1.20468,3.79519c0.52535,0.40458 1.0507,0.60687 1.57605,0.60687c0.52535,0 0.99031,-0.04529 1.39489,-0.13587v-8.81318c-0.37439,-0.09661 -0.73066,-0.14492 -1.06881,-0.14492zM294.13288,230.52977c-1.95043,1.14128 -4.45641,1.71191 -7.51793,1.71191c-3.06152,0 -5.64297,-1.04164 -7.74437,-3.12492c-2.1014,-2.08932 -3.15209,-4.98176 -3.15209,-8.67732c0,-3.69556 1.01145,-6.66952 3.03434,-8.92188c2.02893,-2.2584 4.58926,-3.3876 7.68097,-3.3876c3.09171,0 5.47993,0.78802 7.16467,2.36407c1.68474,1.57605 2.52711,3.49327 2.52711,5.75167c0,5.00591 -2.87432,7.50887 -8.62297,7.50887h-3.20644c0,0.92993 0.25362,1.57303 0.76085,1.9293c0.51327,0.35627 1.26506,0.53441 2.25538,0.53441c2.16782,0 4.22393,-0.49516 6.16832,-1.48547c0.03019,-0.03019 0.16908,0.18418 0.41666,0.6431c0.74273,1.33451 1.1141,2.45767 1.1141,3.36948c0,0.91181 -0.29287,1.50661 -0.8786,1.78438zM288.33593,217.12431c0,-1.29828 -0.63404,-1.94741 -1.90213,-1.94741c-0.58573,0 -1.08995,0.17813 -1.51264,0.53441c-0.41666,0.35627 -0.62498,0.87256 -0.62498,1.54887v1.44018h2.50899c1.0205,0 1.53076,-0.52535 1.53076,-1.57605zM300.11386,223.4285c2.50597,1.51566 4.48358,2.27349 5.93282,2.27349c0.92993,0 1.39489,-0.32306 1.39489,-0.96918c0,-0.46497 -0.80312,-1.06881 -2.40936,-1.81155c-3.86464,-1.57605 -5.79695,-4.1575 -5.79695,-7.74437c0,-2.28859 0.83331,-4.03372 2.49994,-5.23537c1.67266,-1.2077 3.67442,-1.81155 6.00528,-1.81155c2.3369,0 4.31451,0.24758 5.93282,0.74273c1.62436,0.49516 2.43653,1.1443 2.43653,1.94741c0,0.67631 -0.33212,1.57303 -0.99635,2.69015c-0.66424,1.11108 -1.12014,1.71191 -1.36772,1.80249c-1.32847,-0.7367 -2.76563,-1.10504 -4.31149,-1.10504c-0.83331,0 -1.24997,0.29287 -1.24997,0.8786c0,0.36835 0.16002,0.68537 0.48006,0.95106c0.32608,0.25965 0.92087,0.58272 1.78438,0.96918c0.86954,0.38646 1.58813,0.7367 2.15574,1.0507c0.57366,0.30796 1.21676,0.73971 1.9293,1.29526c1.48547,1.17147 2.2282,2.70223 2.2282,4.59228c0,2.46974 -0.82123,4.4715 -2.46371,6.00528c-1.63643,1.52774 -4.10919,2.29161 -7.41829,2.29161c-2.19197,0 -4.18468,-0.37137 -5.97811,-1.1141c-1.79343,-0.74273 -2.69015,-1.76324 -2.69015,-3.06152c0,-0.86351 0.20833,-1.7723 0.62498,-2.72638c0.41666,-0.96012 0.84237,-1.59718 1.27714,-1.91118z" fill="#ffffff" stroke="none" stroke-width="1" stroke-linecap="square"/><path d="M346.01562,202.16852v8.43381h8.50092c1.29005,0 2.16624,0.85009 2.62857,2.55028c0.17897,0.67113 0.26845,1.32734 0.26845,1.96863c0,0.63384 -0.08948,1.28632 -0.26845,1.95745c-0.46233,1.69273 -1.33852,2.53909 -2.62857,2.53909h-8.50092v8.61277c0,1.29005 -0.84264,2.16624 -2.52791,2.62857c-0.6413,0.17897 -1.32734,0.26845 -2.05812,0.26845l-1.81204,-0.24608c-1.74493,-0.47724 -2.61739,-1.36089 -2.61739,-2.65094v-8.61277h-8.54566c-1.29005,0 -2.16624,-0.84264 -2.62857,-2.52791c-0.18642,-0.67858 -0.27964,-1.33479 -0.27964,-1.96863c0,-0.6413 0.09321,-1.30124 0.27964,-1.97982c0.46233,-1.69273 1.33852,-2.53909 2.62857,-2.53909h8.54566v-8.43381c0,-1.29005 0.84636,-2.16624 2.53909,-2.62857c0.6413,-0.17897 1.32361,-0.26845 2.04693,-0.26845l1.82322,0.24608c1.73747,0.47724 2.6062,1.36089 2.6062,2.65094z" fill="#ffffff" stroke="none" stroke-width="1" stroke-linecap="square"/><path d="M199.66023,157.5c0,-22.27903 18.06072,-40.33978 40.33978,-40.33978c22.27904,0 40.33977,18.06073 40.33977,40.33978c0,22.27903 -18.06073,40.33978 -40.33977,40.33978c-22.27903,0 -40.33978,-18.06072 -40.33978,-40.33978z" fill-opacity="0.50196" fill="#000000" stroke="#cc9900" stroke-width="0" stroke-linecap="butt"/><path d="M205.25173,157.5c0,-19.19094 15.55733,-34.74828 34.74828,-34.74828c19.19094,0 34.74827,15.55733 34.74827,34.74828c0,19.19094 -15.55733,34.74828 -34.74827,34.74828c-19.19094,0 -34.74828,-15.55733 -34.74828,-34.74828z" fill="#ffbf00" stroke="#cc9900" stroke-width="4" stroke-linecap="butt"/><path d="M215.51271,155.89873c-0.21504,-10.5815 5.8616,-13.97036 10.43852,-13.97036c5.56964,0 17.89934,-0.32146 27.3913,0c4.63493,0.15696 11.36807,3.67112 11.1449,13.97036c-0.21121,9.74713 -7.73257,12.71459 -11.22337,12.71459c-3.17763,0 -8.49107,0 -14.51976,0c-1.59396,0 -6.05898,8.41356 -13.34247,8.16245c-5.16577,-0.1781 2.93647,-8.16245 0.86334,-8.16245c-6.14759,0 -10.60279,-5.35004 -10.75247,-12.71459z" fill="#ffffff" stroke="none" stroke-width="0" stroke-linecap="butt"/><path d="M247.9009,172.61969v-3.69837h-3.69836c-1.78196,0 -3.22652,-1.32103 -3.22652,-2.9506c0,-1.62957 1.44456,-2.95061 3.22652,-2.95061h3.69836v-3.69836c0,-1.78196 1.32103,-3.22652 2.95061,-3.22652c1.62957,0 2.9506,1.44456 2.9506,3.22652v3.69836h3.69837c1.78195,0 3.22651,1.32102 3.22651,2.95061c0,1.62957 -1.44456,2.95061 -3.22651,2.95061h-3.69837v3.69836c0,1.78196 -1.32103,3.22652 -2.9506,3.22652c-1.62957,0 -2.95061,-1.44456 -2.95061,-3.22652z" fill="none" stroke="#ffbf00" stroke-width="6" stroke-linecap="butt"/><path d="M247.9009,172.61969v-3.69837h-3.69836c-1.78196,0 -3.22652,-1.32103 -3.22652,-2.9506c0,-1.62957 1.44456,-2.9506 3.22652,-2.9506h3.69836v-3.69836c0,-1.78196 1.32103,-3.22652 2.9506,-3.22652c1.62957,0 2.95059,1.44456 2.95059,3.22652v3.69836h3.69837c1.78195,0 3.22651,1.32103 3.22651,2.9506c0,1.62957 -1.44456,2.9506 -3.22651,2.9506h-3.69837v3.69837c0,1.78196 -1.32102,3.22651 -2.95059,3.22651c-1.62957,0 -2.9506,-1.44456 -2.9506,-3.22651z" fill="#ffffff" stroke="none" stroke-width="0" stroke-linecap="butt"/></g></g></svg>
