<svg version="1.1" xmlns="http://www.w3.org/2000/svg" xmlns:xlink="http://www.w3.org/1999/xlink" width="309.2973" height="159.64866" viewBox="0,0,309.2973,159.64866"><defs><linearGradient x1="240" y1="105.17568" x2="240" y2="254.82433" gradientUnits="userSpaceOnUse" id="color-1"><stop offset="0" stop-color="#053300"/><stop offset="1" stop-color="#0b6700"/></linearGradient></defs><g transform="translate(-85.35135,-100.17568)"><g fill-rule="nonzero" stroke-linejoin="miter" stroke-miterlimit="10" stroke-dasharray="" stroke-dashoffset="0" style="mix-blend-mode: normal"><path d="M93.17919,253.32434v-146.64866h293.64163v146.64866z" fill="#0e8e00" stroke="none" stroke-width="0" stroke-linecap="butt"/><g fill="#35b300" stroke="none" stroke-width="0" stroke-linecap="butt"><g><path d="M88.91152,226.63103l1.57564,-22.6551l31.45444,2.10616l-1.57564,22.65511z"/><path d="M127.32942,229.22149l1.57564,-22.6551l49.45443,3.4395l-1.57564,22.65511z"/><path d="M182.91764,233.08758l1.57564,-22.6551l49.45443,3.43949l-1.57564,22.65511z"/><path d="M85.37625,197.12461l1.57564,-22.6551l49.45443,3.4395l-1.57564,22.6551z"/><path d="M141.79414,201.04841l1.57564,-22.6551l49.45444,3.4395l-1.57564,22.6551z"/><path d="M197.38237,204.9145l1.57564,-22.6551l49.45443,3.4395l-1.57563,22.6551z"/><path d="M86.4179,244.88619l1.57563,-12.6551l19.45444,2.43949l-1.57564,22.65511z"/><path d="M112.83581,254.80999l1.57564,-19.6551l49.45443,3.43949l-1.57564,16.6551z"/><path d="M168.42402,254.67608l1.57563,-15.6551l49.45444,3.43949l-1.57564,13.65511z"/></g><g><path d="M296.42432,240.98184l1.57563,-22.6551l49.45443,3.43949l-1.57564,22.65511z"/><path d="M352.84222,244.90564l1.57564,-22.6551c0,0 22.87384,1.59085 31.93282,2.22089c6.71039,0.4667 5.49964,23.14718 -1.08272,22.68939c-9.08314,-0.63172 -32.42574,-2.25517 -32.42574,-2.25517z"/><path d="M240.00643,237.05804l1.57564,-22.6551l49.45443,3.4395l-1.57564,22.6551z"/><path d="M310.88905,212.80876l1.57563,-22.65511l49.45444,3.4395l-1.57564,22.6551z"/><path d="M367.30695,216.73255l1.57564,-22.6551l18.83484,1.30994c0,0 8.49023,23.35517 -0.37748,22.73843c-7.31732,-0.50891 -20.03299,-1.39327 -20.03299,-1.39327z"/><path d="M254.47115,208.88496l1.57564,-22.6551l49.45443,3.4395l-1.57563,22.6551z"/><path d="M281.9307,255.57034l1.57563,-8.6551l49.45444,3.43949z"/><path d="M225.51281,255.64654l1.57564,-12.6551l49.45443,3.4395l-1.57563,9.6551z"/></g><g><path d="M95.24731,116.45761c11.45561,0.79672 32.76905,2.27904 32.76905,2.27904l-1.57563,22.65511c0,0 -20.467,-1.42346 -31.6055,-2.19813c-1.52815,-0.10628 -1.26775,-22.85286 0.41209,-22.73603z"/><path d="M133.40419,141.87606l1.57564,-22.6551l49.45443,3.4395l-1.57564,22.6551z"/><path d="M188.99241,145.74216l1.57564,-22.6551l49.45443,3.4395l-1.57564,22.6551z"/><path d="M91.45102,109.77919l51.03008,-7.2156l-1.57564,10.6551z"/><path d="M147.86891,113.70298l1.57564,-10.1551l49.45443,-0.56051l-1.57564,14.15511z"/><path d="M203.45714,117.56907l1.57563,-13.6551l49.45443,-0.06051l-1.57563,17.15511z"/><path d="M94.74304,146.01906c8.32904,0.57927 18.77971,1.30611 18.77971,1.30611l-1.57564,22.6551c0,0 -9.87157,-0.68656 -17.68538,-1.23c-1.62995,-0.11336 -1.52485,-22.87073 0.48131,-22.73121z"/><path d="M118.91058,170.46456l1.57564,-22.6551l49.45443,3.4395l-1.57564,22.6551z"/><path d="M174.49879,174.33066l1.57563,-22.65511l49.45444,3.4395l-1.57564,22.6551z"/></g><g><path d="M302.49909,153.63642l1.57564,-22.65511l49.45443,3.4395l-1.57563,22.65511z"/><path d="M358.91699,157.56021l1.57563,-22.65511c0,0 16.97259,1.18042 25.30979,1.76027c8.14303,0.56634 8.31923,23.34328 0.5831,22.80524c-8.64707,-0.60139 -27.46852,-1.9104 -27.46852,-1.9104z"/><path d="M246.0812,149.71261l1.57564,-22.6551l49.45443,3.4395l-1.57564,22.6551z"/><path d="M316.96382,125.46334l1.57563,-22.65511l49.45444,3.4395l-1.57564,22.6551z"/><path d="M373.38172,129.38713l1.57564,-22.6551c0,0 5.0672,0.35242 9.22625,0.64168c8.68455,0.604 12.76624,23.65256 3.63786,23.01769c-5.86203,-0.4077 -14.43975,-1.00427 -14.43975,-1.00427z"/><path d="M260.54593,121.53953l1.57563,-17.15511l49.45443,-0.0605l-1.57563,20.6551z"/><path d="M288.00547,182.22492l1.57564,-22.6551l49.45443,3.43949l-1.57564,22.6551z"/><path d="M344.42338,186.14871l1.57563,-22.6551c0,0 34.06252,2.36901 42.28469,2.94085c3.38569,0.23547 3.93158,23.03812 2.11048,22.91147c-6.61546,-0.46009 -45.9708,-3.19721 -45.9708,-3.19721z"/><path d="M231.58758,178.30111l1.57564,-22.6551l49.45444,3.4395l-1.57564,22.6551z"/></g></g><path d="M90.35135,117.67134c0,-6.39897 5.91545,-12.49566 13.1192,-12.49566c28.93252,0 219.72832,0 272.60996,0c8.61359,0 13.56814,4.64378 13.56814,12.24625c0,30.59212 0,109.0924 0,125.70487c0,6.03964 -4.85913,11.69754 -13.31873,11.69754c-52.46667,0 -243.42599,0 -272.60996,0c-7.3279,0 -13.36861,-4.5235 -13.36861,-11.94695c0,-30.16113 0,-108.19342 0,-125.20604z" fill="none" stroke="url(#color-1)" stroke-width="10" stroke-linecap="butt"/><path d="M174.31881,182.10371c-0.28037,-12.26735 -0.89066,-38.97043 -1.05289,-46.06832c-0.0774,-3.38691 2.45953,-7.44699 6.4793,-8.13943c7.676,-1.32226 20.33115,-4.97234 33.56956,-4.87597c22.42105,0.16321 29.87484,5.46743 52.18683,5.93326c15.24663,0.31832 28.59827,-1.18913 35.34186,-2.1415c2.97341,-0.41992 4.70917,1.32684 4.7851,4.64918c0.2795,12.22942 0.9503,41.57972 1.10598,48.39109c0.06308,2.75973 -2.21115,6.21717 -6.26104,7.15351c-7.26499,1.67968 -20.04554,3.93107 -34.75153,3.40024c-19.5341,-0.70512 -43.14208,-8.20436 -54.36622,-7.94783c-10.08463,0.23048 -23.32736,2.8187 -30.89532,4.4831c-3.66504,0.80604 -6.05445,-1.02321 -6.14163,-4.83733z" fill="none" stroke-opacity="0.50588" stroke="#000000" stroke-width="12.5" stroke-linecap="butt"/><path d="M174.31881,182.10371c-0.28037,-12.26735 -0.89067,-38.97043 -1.05289,-46.06832c-0.07741,-3.38691 2.45952,-7.44699 6.4793,-8.13943c7.676,-1.32226 20.33114,-4.97234 33.56955,-4.87597c22.42105,0.16321 29.87484,5.46744 52.18684,5.93326c15.24663,0.31832 28.59827,-1.18913 35.34186,-2.1415c2.97341,-0.41992 4.70917,1.32684 4.7851,4.64917c0.2795,12.22942 0.9503,41.57972 1.10598,48.3911c0.06308,2.75973 -2.21115,6.21717 -6.26104,7.15351c-7.26499,1.67968 -20.04554,3.93107 -34.75153,3.40024c-19.5341,-0.70511 -43.14208,-8.20436 -54.36623,-7.94783c-10.08463,0.23048 -23.32735,2.8187 -30.89531,4.4831c-3.66504,0.80604 -6.05446,-1.02321 -6.14163,-4.83733z" fill="#3bc600" stroke="#ffffff" stroke-width="0" stroke-linecap="butt"/><path d="M174.31881,182.58027c-0.28037,-11.56981 -0.89066,-11.20419 -1.05289,-17.89849c-0.0774,-3.19433 2.45953,-7.02355 6.4793,-7.67661c7.676,-1.24707 20.33115,-4.6896 33.56956,-4.59872c22.42105,0.15393 29.87484,5.15656 52.18683,5.5959c15.24663,0.30022 28.59827,-1.12152 35.34186,-2.01973c2.97341,-0.39604 4.70917,1.25139 4.7851,4.38482c0.2795,11.53404 0.9503,13.66511 1.10598,20.08918c0.06308,2.6028 -2.21115,5.86366 -6.26104,6.74677c-7.26499,1.58417 -20.04554,3.70755 -34.75153,3.2069c-19.5341,-0.66502 -43.14208,-7.73785 -54.36622,-7.49591c-10.08463,0.21738 -23.32736,2.65842 -30.89532,4.22818c-3.66504,0.76021 -6.05445,-0.96503 -6.14163,-4.56228z" fill="#35b300" stroke="#ffffff" stroke-width="0" stroke-linecap="butt"/><path d="M174.31881,182.10371c-0.28037,-12.26735 -0.89066,-38.97043 -1.05289,-46.06832c-0.0774,-3.38691 2.45953,-7.44699 6.4793,-8.13943c7.676,-1.32226 20.33115,-4.97234 33.56956,-4.87597c22.42105,0.16321 29.87484,5.46743 52.18683,5.93326c15.24663,0.31832 28.59827,-1.18913 35.34186,-2.1415c2.97341,-0.41992 4.70917,1.32684 4.7851,4.64918c0.2795,12.22942 0.9503,41.57972 1.10598,48.39109c0.06308,2.75973 -2.21115,6.21717 -6.26104,7.15351c-7.26499,1.67968 -20.04554,3.93107 -34.75153,3.40024c-19.5341,-0.70512 -43.14208,-8.20436 -54.36622,-7.94783c-10.08463,0.23048 -23.32736,2.8187 -30.89532,4.4831c-3.66504,0.80604 -6.05445,-1.02321 -6.14163,-4.83733z" fill="none" stroke="#ffffff" stroke-width="5" stroke-linecap="butt"/><path d="M136.49587,235.131c-2.41108,0 -3.61662,-0.26966 -3.61662,-0.80898c0,0 -0.48445,-9.28593 -0.6398,-12.26372c-0.089,-1.70588 -0.83411,-1.9485 -1.31323,-0.35473c-0.89532,2.97826 -3.8526,12.81559 -3.8526,12.81559c-0.10877,0.32631 -1.02879,0.48947 -2.76006,0.48947c-1.73127,0 -2.62409,-0.14956 -2.67848,-0.44868c0,0 -3.20615,-10.45298 -4.11343,-13.411c-0.44859,-1.46254 -1.06252,-1.6626 -1.10965,-0.32503c-0.09984,2.83342 -0.46698,13.25336 -0.46698,13.25336c-0.02719,0.40336 -0.54159,0.67982 -1.54318,0.82938c-1.0016,0.14956 -1.83324,0.22434 -2.49493,0.22434c-0.66169,0 -1.30525,-0.04079 -1.93068,-0.12237c-1.29618,-0.19035 -1.93068,-0.52799 -1.90349,-1.01293l0.93135,-26.39728c0,-0.64809 1.65195,-0.97214 4.95586,-0.97214c0.9744,0 2.16408,0.07478 3.56904,0.22434c1.40949,0.14956 2.19581,0.43961 2.35896,0.87017c0,0 2.58279,7.26578 3.41487,9.60655c0.47931,1.34836 1.72024,1.2927 2.14657,-0.08322c0.72902,-2.3528 2.96346,-9.56412 2.96346,-9.56412c0.24473,-0.70248 2.11196,-1.05372 5.60169,-1.05372c1.0016,0 2.20034,0.07478 3.59623,0.22434c1.39589,0.14956 2.09384,0.41242 2.09384,0.78859l1.17608,26.64202c0,0.29459 -0.52799,0.50986 -1.58397,0.64583c-1.05598,0.13596 -1.9896,0.20394 -2.80084,0.20394zM146.4587,232.69726c-1.69048,-1.87176 -2.53572,-4.45733 -2.53572,-7.75671c0,-3.30391 0.84524,-5.88948 2.53572,-7.75671c1.69501,-1.86723 3.97693,-2.80084 6.84575,-2.80084c2.86883,0 5.14168,0.93362 6.81856,2.80084c1.68141,1.86723 2.52212,4.4528 2.52212,7.75671c0,3.29938 -0.84071,5.88495 -2.52212,7.75671c-1.67688,1.86723 -3.94973,2.80084 -6.81856,2.80084c-2.86883,0 -5.15074,-0.93362 -6.84575,-2.80084zM153.32485,221.16077c-1.52732,0 -5.50752,-0.00455 -5.50752,2.48811c0,2.48813 3.9802,4.98307 5.50752,4.98307c1.53185,0 2.29778,-1.24406 2.29778,-3.73219c0,-2.49266 -0.76593,-3.73899 -2.29778,-3.73899zM174.01271,234.84548c0,0.19035 -0.9744,0.28552 -2.92321,0.28552c-2.70567,-0.08158 -4.05851,-0.23114 -4.05851,-0.44868v-13.15445h-1.06051c-0.70248,0 -1.16249,-0.59597 -1.38003,-1.78792c-0.05439,-0.34897 -0.08158,-0.70021 -0.08158,-1.05372c0,-0.83844 0.16316,-1.67688 0.48947,-2.51532c0.48947,-1.19195 1.2486,-1.78792 2.27739,-1.78792c1.02879,0 1.94881,0.24473 2.76006,0.7342c0.81125,0.48494 1.35284,0.96987 1.62476,1.45481c1.70407,-1.45934 3.73219,-2.18901 6.08436,-2.18901c2.3567,0 4.06304,0.63676 5.11902,1.91028c1.05598,1.26899 1.58397,3.3515 1.58397,6.24752v12.18231c0,0.32631 -1.15796,0.48947 -3.47386,0.48947c-2.31138,0 -3.46706,-0.16316 -3.46706,-0.48947v-11.73364c0,-1.3551 -0.4736,-2.03265 -1.42082,-2.03265c-0.27193,0 -0.65262,0.11557 -1.14209,0.34671c-0.48494,0.23114 -0.79539,0.40109 -0.93135,0.50986zM196.67186,235.4981c-2.67848,0 -4.94,-0.91322 -6.78457,-2.73966c-1.84004,-1.83097 -2.76006,-4.36216 -2.76006,-7.59355c0,-3.23593 0.88603,-5.84189 2.65808,-7.81789c1.77659,-1.976 4.01772,-2.964 6.72339,-2.964c2.70567,0 4.79497,0.69115 6.26791,2.07344c1.47747,1.37776 2.2162,3.05464 2.2162,5.03064c0,4.38708 -2.51759,6.58063 -7.55276,6.58063h-2.80084c0,0.81125 0.22207,1.37323 0.66622,1.68595c0.44868,0.30818 1.1081,0.46228 1.97827,0.46228c1.89442,0 3.69367,-0.43282 5.39774,-1.29845c0.02719,-0.02719 4.01969,1.46612 4.01969,2.26378c0,0.79765 -2.93651,2.56972 -3.44864,2.81446c0,0 -3.90215,1.50237 -6.58063,1.50237zM199.01046,221.8066c-0.51213,0 -2.56001,-2.34539 -2.92711,-2.03268c-0.3671,0.30818 -3.71574,6.01254 -3.71574,6.01254c0.89283,0 7.75322,-3.97985 6.64285,-3.97985zM206.21569,214.98803c0,-0.29459 1.23727,-0.44188 3.7118,-0.44188c2.47906,0 3.75939,0.1337 3.84096,0.40109l2.92321,9.58541l2.80084,-9.66699c0.10877,-0.21301 0.94721,-0.31951 2.51532,-0.31951c3.60303,0 5.32296,0.17449 5.15981,0.52346l-9.54463,27.16547c-0.02719,0.16316 -0.76593,0.24473 -2.2162,0.24473c-1.44574,0 -2.79178,-0.04759 -4.03811,-0.14276c-1.2418,-0.09517 -1.83777,-0.21074 -1.78792,-0.34671l3.53505,-8.5249zM250.55626,207.47606c0,-0.53932 1.4684,-0.80898 4.40521,-0.80898c2.93681,0 4.40521,0.26966 4.40521,0.80898v18.64057c0,2.76006 -0.988,5.01478 -2.964,6.76418c-1.976,1.74486 -4.70433,2.61729 -8.18499,2.61729c-3.47613,0 -6.30417,-0.89962 -8.48411,-2.69887c-2.17994,-1.80378 -3.26992,-4.23526 -3.26992,-7.29443v-17.98795c0,-0.53932 1.4684,-0.80898 4.40521,-0.80898c2.93681,0 4.40521,0.26966 4.40521,0.80898v18.31426c0,0.54385 0.28552,0.97667 0.85657,1.29845c0.59371,0.32631 1.21461,0.48947 1.8627,0.48947c0.65262,0 1.2418,-0.14729 1.76752,-0.44188c0.53026,-0.29912 0.79539,-0.7478 0.79539,-1.34604zM271.91643,234.84548c0,0.32631 -1.13756,0.48947 -3.41268,0.48947c-2.70566,-0.10877 -4.05849,-0.28552 -4.05849,-0.53026v-14.37132h-2.07344c-0.54385,0 -0.81578,-0.93362 -0.81578,-2.80084c0,-0.48947 0.04759,-1.08544 0.14276,-1.78792c0.09517,-0.70701 0.29232,-1.06051 0.59144,-1.06051h2.15502v-3.56904c0,-0.54385 1.14209,-0.81578 3.42626,-0.81578c2.28872,0 3.43307,0.21754 3.43307,0.65262v2.5969l0.04079,1.13529h3.45347c0.45774,0 0.68661,0.94948 0.68661,2.84843c0,1.89442 -0.22887,2.84163 -0.68661,2.84163h-2.88242zM284.94894,234.84548c0,0.21754 -1.23953,0.32631 -3.7186,0.32631c-2.47453,0 -3.7118,-0.09517 -3.7118,-0.28552v-19.93902c0,-0.18582 1.23727,-0.27872 3.7118,-0.27872c2.47906,0 3.7186,0.07931 3.7186,0.23794zM284.94894,212.5135c0,0.19035 -1.23953,0.28552 -3.7186,0.28552c-2.47453,0 -3.7118,-0.08158 -3.7118,-0.24473v-5.84642c0,-0.27193 1.23727,-0.40789 3.7118,-0.40789c2.47906,0 3.7186,0.08158 3.7186,0.24473zM295.99346,234.7639c0,0.24473 -1.38003,0.3671 -4.14008,0.3671c-2.16635,-0.02719 -3.24952,-0.13596 -3.24952,-0.32631v-27.64814c0,-0.40789 1.31205,-0.61183 3.93614,-0.61183c2.30231,0.08158 3.45347,0.21754 3.45347,0.40789zM307.07894,234.84548c0,0.21754 -1.23953,0.32631 -3.7186,0.32631c-2.47453,0 -3.7118,-0.09517 -3.7118,-0.28552v-19.93902c0,-0.18582 1.23727,-0.27872 3.7118,-0.27872c2.47906,0 3.7186,0.07931 3.7186,0.23794zM307.07894,212.5135c0,0.19035 -1.23953,0.28552 -3.7186,0.28552c-2.47453,0 -3.7118,-0.08158 -3.7118,-0.24473v-5.84642c0,-0.27193 1.23727,-0.40789 3.7118,-0.40789c2.47906,0 3.7186,0.08158 3.7186,0.24473zM320.07453,234.84548c0,0.32631 -1.13756,0.48947 -3.41268,0.48947c-2.70567,-0.10877 -4.05851,-0.28552 -4.05851,-0.53026v-14.37132h-2.07344c-0.54385,0 -0.81578,-0.93362 -0.81578,-2.80084c0,-0.48947 0.04759,-1.08544 0.14276,-1.78792c0.09517,-0.70701 0.29232,-1.06051 0.59144,-1.06051h2.15502v-3.56904c0,-0.54385 1.14209,-0.81578 3.42628,-0.81578c2.28872,0 3.43307,0.21754 3.43307,0.65262v2.5969l0.04079,1.13529h3.45347c0.45774,0 0.68661,0.94948 0.68661,2.84843c0,1.89442 -0.22887,2.84163 -0.68661,2.84163h-2.88242zM333.10707,234.84548c0,0.21754 -1.23953,0.32631 -3.7186,0.32631c-2.47453,0 -3.7118,-0.09517 -3.7118,-0.28552v-19.93902c0,-0.18582 1.23727,-0.27872 3.7118,-0.27872c2.47906,0 3.7186,0.07931 3.7186,0.23794zM333.10707,212.5135c0,0.19035 -1.23953,0.28552 -3.7186,0.28552c-2.47453,0 -3.7118,-0.08158 -3.7118,-0.24473v-5.84642c0,-0.27193 1.23727,-0.40789 3.7118,-0.40789c2.47906,0 3.7186,0.08158 3.7186,0.24473zM345.53162,235.4981c-2.67848,0 -4.94,-0.91322 -6.78457,-2.73966c-1.84004,-1.83097 -2.76006,-4.36216 -2.76006,-7.59355c0,-3.23593 0.88603,-5.84189 2.65808,-7.81789c1.77659,-1.976 4.01772,-2.964 6.72339,-2.964c2.70567,0 4.79497,0.69115 6.26791,2.07344c1.47747,1.37776 2.2162,3.05464 2.2162,5.03064c0,4.38708 -2.51759,6.58063 -7.55276,6.58063h-2.80084c0,0.81125 0.22207,1.37323 0.66622,1.68595c0.44868,0.30818 1.1081,0.46228 1.97827,0.46228c1.89442,0 3.69367,-0.43282 5.39774,-1.29845c0.02719,-0.02719 0.14956,0.16316 0.3671,0.57105c0.64809,1.16475 0.97214,2.14595 0.97214,2.94361c0,0.79765 -0.25606,1.31884 -0.76819,1.56358c0,0 -3.90215,1.50237 -6.58063,1.50237zM348.40631,221.9853c-0.51213,0 -2.56001,-2.70279 -2.92711,-2.39008c-0.3671,0.30818 -1.98022,4.04687 -1.98022,4.04687c0,0 6.0177,-1.6568 4.90733,-1.6568zM362.54664,229.77404c0.81125,0 1.21687,-0.28552 1.21687,-0.85657c0,-0.40336 -0.70474,-0.93135 -2.11423,-1.58397c-3.38096,-1.37776 -5.07143,-3.63702 -5.07143,-6.77777c0,-2.00319 0.72967,-3.53278 2.18901,-4.58876c1.46387,-1.05598 3.2178,-1.58397 5.26178,-1.58397c2.04398,0 3.77525,0.21754 5.1938,0.65262c1.42308,0.43055 2.13462,0.99706 2.13462,1.69954c0,0.59824 -0.29232,1.38456 -0.87696,2.35896c-0.58011,0.9744 -0.97894,1.50239 -1.19648,1.58397c-1.16475,-0.65262 -2.42241,-0.97894 -3.77298,-0.97894c-0.72967,0 -1.0945,0.25833 -1.0945,0.77499c0,0.32178 0.14049,0.59824 0.42149,0.82938c0.28552,0.23114 0.80672,0.51666 1.56358,0.85657c0.75686,0.33538 1.38456,0.63903 1.88309,0.91095c0.50306,0.27193 1.06731,0.65036 1.69274,1.13529c1.30072,1.02879 1.95107,2.37029 1.95107,4.02451c0,2.16182 -0.71834,3.91348 -2.15502,5.25498c-1.43668,1.34151 -3.60303,2.01226 -6.49905,2.01226c-1.92161,0 -3.66874,-0.32405 -5.24139,-0.97214c-1.56811,-0.65262 -2.35217,-1.54772 -2.35217,-2.68528c0,-0.75686 0.18355,-1.55451 0.55065,-2.39295c0.3671,-0.83844 0.73873,-1.39362 1.1149,-1.66555c0,0 3.92708,1.99188 5.20061,1.99188z" fill="none" stroke-opacity="0.50588" stroke="#000000" stroke-width="8" stroke-linecap="square"/><path d="M136.49587,235.131c-2.41108,0 -3.61662,-0.26966 -3.61662,-0.80898l-0.84977,-16.28841l-4.95586,16.48555c-0.10877,0.32631 -1.02879,0.48947 -2.76006,0.48947c-1.73127,0 -2.62409,-0.14956 -2.67848,-0.44868l-5.11902,-16.6895l-0.57105,16.20683c-0.02719,0.40336 -0.54159,0.67982 -1.54318,0.82938c-1.0016,0.14956 -1.83324,0.22434 -2.49493,0.22434c-0.66169,0 -1.30525,-0.04079 -1.93068,-0.12237c-1.29618,-0.19035 -1.93068,-0.52799 -1.90349,-1.01293l0.93135,-26.39728c0,-0.64809 1.65195,-0.97214 4.95586,-0.97214c0.9744,0 2.16408,0.07478 3.56904,0.22434c1.40949,0.14956 2.19581,0.43961 2.35896,0.87017l4.54797,12.79415l3.97693,-12.83494c0.24473,-0.70248 2.11196,-1.05372 5.60169,-1.05372c1.0016,0 2.20034,0.07478 3.59623,0.22434c1.39589,0.14956 2.09384,0.41242 2.09384,0.78859l1.17608,26.64202c0,0.29459 -0.52799,0.50986 -1.58397,0.64583c-1.05598,0.13596 -1.9896,0.20394 -2.80084,0.20394zM146.4587,232.69726c-1.69048,-1.87176 -2.53572,-4.45733 -2.53572,-7.75671c0,-3.30391 0.84524,-5.88948 2.53572,-7.75671c1.69501,-1.86723 3.97693,-2.80084 6.84575,-2.80084c2.86883,0 5.14168,0.93362 6.81856,2.80084c1.68141,1.86723 2.52212,4.4528 2.52212,7.75671c0,3.29938 -0.84071,5.88495 -2.52212,7.75671c-1.67688,1.86723 -3.94973,2.80084 -6.81856,2.80084c-2.86883,0 -5.15074,-0.93362 -6.84575,-2.80084zM153.32485,221.16077c-1.52732,0 -2.29098,1.24633 -2.29098,3.73899c0,2.48813 0.76366,3.73219 2.29098,3.73219c1.53185,0 2.29778,-1.24406 2.29778,-3.73219c0,-2.49266 -0.76593,-3.73899 -2.29778,-3.73899zM174.01271,234.84548c0,0.19035 -0.9744,0.28552 -2.92321,0.28552c-2.70567,-0.08158 -4.05851,-0.23114 -4.05851,-0.44868v-13.15445h-1.06051c-0.70248,0 -1.16249,-0.59597 -1.38003,-1.78792c-0.05439,-0.34897 -0.08158,-0.70021 -0.08158,-1.05372c0,-0.83844 0.16316,-1.67688 0.48947,-2.51532c0.48947,-1.19195 1.2486,-1.78792 2.27739,-1.78792c1.02879,0 1.94881,0.24473 2.76006,0.7342c0.81125,0.48494 1.35284,0.96987 1.62476,1.45481c1.70407,-1.45934 3.73219,-2.18901 6.08436,-2.18901c2.3567,0 4.06304,0.63676 5.11902,1.91028c1.05598,1.26899 1.58397,3.3515 1.58397,6.24752v12.18231c0,0.32631 -1.15796,0.48947 -3.47386,0.48947c-2.31138,0 -3.46706,-0.16316 -3.46706,-0.48947v-11.73364c0,-1.3551 -0.4736,-2.03265 -1.42082,-2.03265c-0.27193,0 -0.65262,0.11557 -1.14209,0.34671c-0.48494,0.23114 -0.79539,0.40109 -0.93135,0.50986zM203.25249,233.99571c-1.70861,1.0016 -3.90215,1.50239 -6.58063,1.50239c-2.67848,0 -4.94,-0.91322 -6.78457,-2.73966c-1.84004,-1.83097 -2.76006,-4.36216 -2.76006,-7.59355c0,-3.23593 0.88603,-5.84189 2.65808,-7.81789c1.77659,-1.976 4.01772,-2.964 6.72339,-2.964c2.70567,0 4.79497,0.69115 6.26791,2.07344c1.47747,1.37776 2.2162,3.05464 2.2162,5.03064c0,4.38708 -2.51759,6.58063 -7.55276,6.58063h-2.80084c0,0.81125 0.22207,1.37323 0.66622,1.68595c0.44868,0.30818 1.1081,0.46228 1.97827,0.46228c1.89442,0 3.69367,-0.43282 5.39774,-1.29845c0.02719,-0.02719 0.14956,0.16316 0.3671,0.57105c0.64809,1.16475 0.97214,2.14595 0.97214,2.94361c0,0.79765 -0.25606,1.31884 -0.76819,1.56358zM198.17426,222.26207c0,-1.13756 -0.55518,-1.70634 -1.66555,-1.70634c-0.51213,0 -0.95174,0.15636 -1.31884,0.46907c-0.3671,0.30818 -0.55065,0.75913 -0.55065,1.35284v1.26446h2.19581c0.89283,0 1.33924,-0.46001 1.33924,-1.38003zM206.21569,214.98803c0,-0.29459 1.23727,-0.44188 3.7118,-0.44188c2.47906,0 3.75939,0.1337 3.84096,0.40109l2.92321,9.58541l2.80084,-9.66699c0.10877,-0.21301 0.94721,-0.31951 2.51532,-0.31951c3.60303,0 5.32296,0.17449 5.15981,0.52346l-9.54463,27.16547c-0.02719,0.16316 -0.76593,0.24473 -2.2162,0.24473c-1.44574,0 -2.79178,-0.04759 -4.03811,-0.14276c-1.2418,-0.09517 -1.83777,-0.21074 -1.78792,-0.34671l3.53505,-8.5249zM250.55626,207.47606c0,-0.53932 1.4684,-0.80898 4.40521,-0.80898c2.93681,0 4.40521,0.26966 4.40521,0.80898v18.64057c0,2.76006 -0.988,5.01478 -2.964,6.76418c-1.976,1.74486 -4.70433,2.61729 -8.18499,2.61729c-3.47613,0 -6.30417,-0.89962 -8.48411,-2.69887c-2.17994,-1.80378 -3.26992,-4.23526 -3.26992,-7.29443v-17.98795c0,-0.53932 1.4684,-0.80898 4.40521,-0.80898c2.93681,0 4.40521,0.26966 4.40521,0.80898v18.31426c0,0.54385 0.28552,0.97667 0.85657,1.29845c0.59371,0.32631 1.21461,0.48947 1.8627,0.48947c0.65262,0 1.2418,-0.14729 1.76752,-0.44188c0.53026,-0.29912 0.79539,-0.7478 0.79539,-1.34604zM271.91643,234.84548c0,0.32631 -1.13756,0.48947 -3.41268,0.48947c-2.70566,-0.10877 -4.05849,-0.28552 -4.05849,-0.53026v-14.37132h-2.07344c-0.54385,0 -0.81578,-0.93362 -0.81578,-2.80084c0,-0.48947 0.04759,-1.08544 0.14276,-1.78792c0.09517,-0.70701 0.29232,-1.06051 0.59144,-1.06051h2.15502v-3.56904c0,-0.54385 1.14209,-0.81578 3.42626,-0.81578c2.28872,0 3.43307,0.21754 3.43307,0.65262v2.5969l0.04079,1.13529h3.45347c0.45774,0 0.68661,0.94948 0.68661,2.84843c0,1.89442 -0.22887,2.84163 -0.68661,2.84163h-2.88242zM284.94894,234.84548c0,0.21754 -1.23953,0.32631 -3.7186,0.32631c-2.47453,0 -3.7118,-0.09517 -3.7118,-0.28552v-19.93902c0,-0.18582 1.23727,-0.27872 3.7118,-0.27872c2.47906,0 3.7186,0.07931 3.7186,0.23794zM284.94894,212.5135c0,0.19035 -1.23953,0.28552 -3.7186,0.28552c-2.47453,0 -3.7118,-0.08158 -3.7118,-0.24473v-5.84642c0,-0.27193 1.23727,-0.40789 3.7118,-0.40789c2.47906,0 3.7186,0.08158 3.7186,0.24473zM295.99346,234.7639c0,0.24473 -1.38003,0.3671 -4.14008,0.3671c-2.16635,-0.02719 -3.24952,-0.13596 -3.24952,-0.32631v-27.64814c0,-0.40789 1.31205,-0.61183 3.93614,-0.61183c2.30231,0.08158 3.45347,0.21754 3.45347,0.40789zM307.07894,234.84548c0,0.21754 -1.23953,0.32631 -3.7186,0.32631c-2.47453,0 -3.7118,-0.09517 -3.7118,-0.28552v-19.93902c0,-0.18582 1.23727,-0.27872 3.7118,-0.27872c2.47906,0 3.7186,0.07931 3.7186,0.23794zM307.07894,212.5135c0,0.19035 -1.23953,0.28552 -3.7186,0.28552c-2.47453,0 -3.7118,-0.08158 -3.7118,-0.24473v-5.84642c0,-0.27193 1.23727,-0.40789 3.7118,-0.40789c2.47906,0 3.7186,0.08158 3.7186,0.24473zM320.07453,234.84548c0,0.32631 -1.13756,0.48947 -3.41268,0.48947c-2.70567,-0.10877 -4.05851,-0.28552 -4.05851,-0.53026v-14.37132h-2.07344c-0.54385,0 -0.81578,-0.93362 -0.81578,-2.80084c0,-0.48947 0.04759,-1.08544 0.14276,-1.78792c0.09517,-0.70701 0.29232,-1.06051 0.59144,-1.06051h2.15502v-3.56904c0,-0.54385 1.14209,-0.81578 3.42628,-0.81578c2.28872,0 3.43307,0.21754 3.43307,0.65262v2.5969l0.04079,1.13529h3.45347c0.45774,0 0.68661,0.94948 0.68661,2.84843c0,1.89442 -0.22887,2.84163 -0.68661,2.84163h-2.88242zM333.10707,234.84548c0,0.21754 -1.23953,0.32631 -3.7186,0.32631c-2.47453,0 -3.7118,-0.09517 -3.7118,-0.28552v-19.93902c0,-0.18582 1.23727,-0.27872 3.7118,-0.27872c2.47906,0 3.7186,0.07931 3.7186,0.23794zM333.10707,212.5135c0,0.19035 -1.23953,0.28552 -3.7186,0.28552c-2.47453,0 -3.7118,-0.08158 -3.7118,-0.24473v-5.84642c0,-0.27193 1.23727,-0.40789 3.7118,-0.40789c2.47906,0 3.7186,0.08158 3.7186,0.24473zM352.11225,233.99571c-1.70861,1.0016 -3.90215,1.50239 -6.58063,1.50239c-2.67848,0 -4.94,-0.91322 -6.78457,-2.73966c-1.84004,-1.83097 -2.76006,-4.36216 -2.76006,-7.59355c0,-3.23593 0.88603,-5.84189 2.65808,-7.81789c1.77659,-1.976 4.01772,-2.964 6.72339,-2.964c2.70567,0 4.79497,0.69115 6.26791,2.07344c1.47747,1.37776 2.2162,3.05464 2.2162,5.03064c0,4.38708 -2.51759,6.58063 -7.55276,6.58063h-2.80084c0,0.81125 0.22207,1.37323 0.66622,1.68595c0.44868,0.30818 1.1081,0.46228 1.97827,0.46228c1.89442,0 3.69367,-0.43282 5.39774,-1.29845c0.02719,-0.02719 0.14956,0.16316 0.3671,0.57105c0.64809,1.16475 0.97214,2.14595 0.97214,2.94361c0,0.79765 -0.25606,1.31884 -0.76819,1.56358zM347.03402,222.26207c0,-1.13756 -0.55518,-1.70634 -1.66555,-1.70634c-0.51213,0 -0.95174,0.15636 -1.31884,0.46907c-0.3671,0.30818 -0.55065,0.75913 -0.55065,1.35284v1.26446h2.19581c0.89283,0 1.33924,-0.46001 1.33924,-1.38003zM357.34604,227.78218c2.19354,1.32791 3.92707,1.99186 5.2006,1.99186c0.81125,0 1.21687,-0.28552 1.21687,-0.85657c0,-0.40336 -0.70474,-0.93135 -2.11423,-1.58397c-3.38096,-1.37776 -5.07143,-3.63702 -5.07143,-6.77777c0,-2.00319 0.72967,-3.53278 2.18901,-4.58876c1.46387,-1.05598 3.2178,-1.58397 5.26178,-1.58397c2.04398,0 3.77525,0.21754 5.1938,0.65262c1.42308,0.43055 2.13462,0.99706 2.13462,1.69954c0,0.59824 -0.29232,1.38456 -0.87696,2.35896c-0.58011,0.9744 -0.97894,1.50239 -1.19648,1.58397c-1.16475,-0.65262 -2.42241,-0.97894 -3.77298,-0.97894c-0.72967,0 -1.0945,0.25833 -1.0945,0.77499c0,0.32178 0.14049,0.59824 0.42149,0.82938c0.28552,0.23114 0.80672,0.51666 1.56358,0.85657c0.75686,0.33538 1.38456,0.63903 1.88309,0.91095c0.50306,0.27193 1.06731,0.65036 1.69274,1.13529c1.30072,1.02879 1.95107,2.37029 1.95107,4.02451c0,2.16182 -0.71834,3.91348 -2.15502,5.25498c-1.43668,1.34151 -3.60303,2.01226 -6.49905,2.01226c-1.92161,0 -3.66874,-0.32405 -5.24139,-0.97214c-1.56811,-0.65262 -2.35217,-1.54772 -2.35217,-2.68528c0,-0.75686 0.18355,-1.55451 0.55065,-2.39295c0.3671,-0.83844 0.73873,-1.39362 1.1149,-1.66555z" fill="#ffffff" stroke="none" stroke-width="1" stroke-linecap="square"/><path d="M238.37109,170.9606c-2.90521,-0.43278 -5.76537,-1.38849 -8.27174,-2.76564c-1.70601,-0.93632 -2.02905,-3.15772 -0.90803,-4.6595c1.12029,-1.50258 3.2554,-1.71762 4.94605,-0.7551c1.58707,0.90426 3.15895,1.51918 4.77785,1.85683l0.23235,-5.06732c-6.72676,-1.87254 -10.08236,-4.35494 -9.84232,-9.58999l0.00391,-0.08517c0.22844,-4.98215 4.01799,-8.27782 10.50049,-8.44654c0,0 0.02468,-0.53833 0.05519,-1.20357c0.03038,-0.66263 1.03831,-1.1568 2.25108,-1.10119c1.21277,0.05561 2.16918,0.6683 2.13715,1.36684l-0.0581,1.2671c2.13428,0.33284 4.04576,0.96671 5.77394,1.83884c1.73549,0.87677 2.15161,3.09398 1.12351,4.61171c-1.02738,1.51868 -2.96043,1.86832 -4.5026,1.09837c-0.95823,-0.47898 -1.94373,-0.85956 -2.89938,-1.14005l-0.22457,4.89775c6.64154,1.86955 9.911,3.54621 9.69615,9.07543c-0.21485,5.52922 -4.38126,8.81178 -10.40187,9.0861c0,0 -0.04244,0.92565 -0.0948,2.06753c-0.05243,1.14341 -1.07884,2.02395 -2.29085,1.96838c-1.21277,-0.05561 -2.15265,-1.04553 -2.10019,-2.21001zM242.87262,165.07301c1.9528,-0.12298 2.87205,-0.79929 2.92819,-2.02373l0.00391,-0.08517c0.05224,-1.13927 -0.55122,-1.80266 -2.71911,-2.53611zM239.52809,152.18342l0.20911,-4.5606c-2.07603,0.07366 -2.91765,0.88163 -2.96798,1.97916l-0.00386,0.08425c-0.05032,1.09753 0.51247,1.75906 2.76272,2.4972z" fill="#ffffff" stroke-opacity="0.50588" stroke="#000000" stroke-width="7.5" stroke-linecap="butt"/><path d="M238.27444,173.07142l0.09679,-2.11081c-2.90521,-0.43278 -5.76537,-1.38849 -8.27174,-2.76564c-1.70601,-0.93632 -2.02906,-3.15772 -0.90803,-4.6595c1.12029,-1.50258 3.25539,-1.71763 4.94605,-0.7551c1.58707,0.90426 3.15896,1.51918 4.77785,1.85683l0.23235,-5.06732c-6.72676,-1.87254 -10.08237,-4.35493 -9.84233,-9.58999l0.00391,-0.08517c0.22844,-4.98215 4.018,-8.27782 10.50049,-8.44654c0,0 0.02468,-0.53833 0.05519,-1.20357c0.03038,-0.66263 1.03831,-1.1568 2.25108,-1.10119c1.21277,0.05561 2.16919,0.66829 2.13716,1.36683l-0.0581,1.2671c2.13428,0.33284 4.04576,0.96671 5.77394,1.83884c1.7355,0.87678 2.15161,3.09398 1.12351,4.61171c-1.02738,1.51868 -2.96043,1.86832 -4.50261,1.09837c-0.95823,-0.47898 -1.94374,-0.85957 -2.89938,-1.14005l-0.22457,4.89775c6.64155,1.86955 9.90912,4.4308 9.66904,9.66662l-0.00386,0.08424c-0.23621,5.15157 -4.35029,8.13634 -10.3709,8.41066c0,0 -0.04244,0.92565 -0.0948,2.06753c-0.05243,1.14341 -1.07885,2.02395 -2.29085,1.96837c-1.21277,-0.05561 -2.15265,-1.04553 -2.10018,-2.21001zM242.87276,165.07301c1.9528,-0.12298 2.87205,-0.7993 2.9282,-2.02373l0.00391,-0.08517c0.05224,-1.13927 -0.55123,-1.80266 -2.71912,-2.5361zM239.52823,152.18343l0.20911,-4.5606c-2.07603,0.07366 -2.91765,0.88163 -2.96798,1.97916l-0.00386,0.08425c-0.05032,1.09752 0.51247,1.75906 2.76272,2.4972z" fill="#ffffff" stroke="none" stroke-width="1" stroke-linecap="butt"/></g></g></svg>
