<svg version="1.1" xmlns="http://www.w3.org/2000/svg" xmlns:xlink="http://www.w3.org/1999/xlink" width="309.2973" height="159.64866" viewBox="0,0,309.2973,159.64866"><defs><linearGradient x1="240" y1="105.17573" x2="240" y2="254.82438" gradientUnits="userSpaceOnUse" id="color-1"><stop offset="0" stop-color="#234d23"/><stop offset="1" stop-color="#3b803b"/></linearGradient></defs><g transform="translate(-85.35135,-100.17572)"><g fill-rule="nonzero" stroke-linejoin="miter" stroke-miterlimit="10" stroke-dasharray="" stroke-dashoffset="0" style="mix-blend-mode: normal"><path d="M93.17919,243.20001c0,-28.87538 0,-110.57843 0,-126.5c0,-5.2585 4.44582,-10.02432 10.12081,-10.02432c26.5461,0 227.62485,0 274,0c6.09773,0 9.52082,4.49915 9.52082,9.52432c0,15.38871 0,95.25537 0,125.5c0,7.23 -4.15572,11.62434 -9.52082,11.62434c-25.5393,0 -222.31215,0 -272.5,0c-7.40669,0 -11.62081,-3.79179 -11.62081,-10.12434z" fill="#50ad50" stroke="none" stroke-width="0" stroke-linecap="butt"/><path d="M218.96835,199.19839c-3.6006,0 -5.54654,-0.57852 -5.83783,-1.73557l-2.05113,-8.02247h-9.87942l-1.79625,7.70691c-0.25083,1.28651 -2.24127,1.92976 -5.97133,1.92976c-1.99044,0 -3.46305,-0.11328 -4.41781,-0.33983c-0.94667,-0.22655 -1.42001,-0.40456 -1.42001,-0.53402l10.99599,-42.06635c0,-0.33174 2.83598,-0.49761 8.50793,-0.49761c5.68006,0 8.52009,0.16587 8.52009,0.49761l10.75325,42.12703c0,0.29128 -0.95476,0.52188 -2.8643,0.6918c-1.90144,0.16183 -3.4145,0.24274 -4.53918,0.24274zM202.75349,181.5514h6.52963l-2.80361,-12.86507h-0.36411zM230.4692,155.76057c0,-0.49356 1.79221,-0.74035 5.37663,-0.74035c3.58442,0 5.37663,0.26701 5.37663,0.80103v12.06403c1.78007,-0.33174 3.0423,-0.49761 3.7867,-0.49761c8.69808,0 13.04712,4.99229 13.04712,14.97688c0,5.55059 -1.33505,9.82681 -4.00516,12.82867c-2.67011,3.00185 -6.46085,4.50277 -11.37223,4.50277c-4.91138,0 -8.98127,-1.09636 -12.20968,-3.28909zM243.27358,177.08503c-0.70394,0 -1.38765,0.22655 -2.05113,0.67966v11.86984c0.57448,0.24274 1.18132,0.36411 1.82053,0.36411c0.6473,0 1.30269,-0.24678 1.96617,-0.74035c1.15705,-0.82531 1.73557,-2.75102 1.73557,-5.77714c0,-4.26408 -1.15705,-6.39612 -3.47114,-6.39612zM272.66174,183.66321c0,4.0618 1.53329,6.0927 4.59987,6.0927c1.99044,0 3.64915,-0.39243 4.97611,-1.17727c0.61493,0 1.12064,1.06805 1.51711,3.20414c0.39647,2.128 0.59471,3.57632 0.59471,4.34499c0,0.76867 -0.10518,1.27437 -0.31556,1.51711c-2.19272,1.36742 -5.19457,2.05113 -9.00555,2.05113c-3.81097,0 -7.05556,-1.41596 -9.73376,-4.2479c-2.67011,-2.84003 -4.00516,-6.71574 -4.00516,-11.62712c0,-4.91138 1.31483,-8.87609 3.94448,-11.89412c2.62965,-3.02612 6.12911,-4.53918 10.49838,-4.53918c4.37736,0 7.41562,1.05591 9.11478,3.16772c0.3722,0.45311 0.5583,1.12468 0.5583,2.01472c0,0.89004 -0.16587,1.97831 -0.49761,3.26481c-0.74439,2.65392 -1.71939,4.18721 -2.92498,4.59987c-0.16183,0.04046 -0.40052,0.06068 -0.71607,0.06068c-0.30747,0 -0.6918,-0.24678 -1.153,-0.74035c-1.61015,-1.61825 -2.90475,-2.42737 -3.88379,-2.42737c-0.97095,0 -1.80839,0.49761 -2.51233,1.49283c-0.70394,0.99522 -1.05591,2.60942 -1.05591,4.8426z" fill="#59c059" stroke="none" stroke-width="1" stroke-linecap="square"/><path d="M355.37171,209.20001c-2.20914,0 -4,-1.79086 -4,-4v-6.5h-6.5c-2.20914,0 -4,-1.79086 -4,-4v-4.5c0,-2.20914 1.79086,-4 4,-4h6.5v-6.5c0,-2.20914 1.79086,-4 4,-4h4.5c2.20914,0 4,1.79086 4,4v6.5h6.5c2.20914,0 4,1.79086 4,4v4.5c0,2.20914 -1.79086,4 -4,4h-6.5v6.5c0,2.20914 -1.79086,4 -4,4z" fill="#479a47" stroke="none" stroke-width="NaN" stroke-linecap="butt"/><path d="M328.37475,205.88508c-1.5621,1.5621 -4.09475,1.5621 -5.65685,0l-4.5962,-4.5962l-4.5962,4.5962c-1.5621,1.5621 -4.09475,1.5621 -5.65685,0l-3.18198,-3.18198c-1.5621,-1.5621 -1.5621,-4.09476 0,-5.65686l4.5962,-4.59619l-4.5962,-4.59619c-1.5621,-1.5621 -1.5621,-4.09475 0,-5.65686l3.18198,-3.18198c1.5621,-1.5621 4.09475,-1.5621 5.65685,0l4.5962,4.59619l4.5962,-4.59619c1.5621,-1.5621 4.09475,-1.5621 5.65685,0l3.18198,3.18198c1.5621,1.5621 1.5621,4.09475 0,5.65686l-4.5962,4.59619l4.5962,4.59619c1.5621,1.5621 1.5621,4.09476 0,5.65686z" fill="#479a47" stroke="none" stroke-width="NaN" stroke-linecap="butt"/><path d="M315.8,245.70001c-2.20914,0 -4,-1.79086 -4,-4v-6.5h-6.5c-2.20914,0 -4,-1.79086 -4,-4v-4.5c0,-2.20914 1.79086,-4 4,-4h6.5v-6.5c0,-2.20914 1.79086,-4 4,-4h4.5c2.20914,0 4,1.79086 4,4v6.5h6.5c2.20914,0 4,1.79086 4,4v4.5c0,2.20914 -1.79086,4 -4,4h-6.5v6.5c0,2.20914 -1.79086,4 -4,4z" fill="#479a47" stroke="none" stroke-width="NaN" stroke-linecap="butt"/><path d="M344.11497,239.20307c-1.5621,-1.5621 -1.5621,-4.09476 0,-5.65686l4.5962,-4.59619l-4.5962,-4.59619c-1.5621,-1.5621 -1.5621,-4.09476 0,-5.65686l3.18198,-3.18198c1.5621,-1.5621 4.09476,-1.5621 5.65686,0l4.59619,4.5962l4.5962,-4.5962c1.5621,-1.5621 4.09476,-1.5621 5.65686,0l3.18198,3.18198c1.5621,1.5621 1.5621,4.09476 0,5.65686l-4.5962,4.59619l4.5962,4.59619c1.5621,1.5621 1.5621,4.09476 0,5.65686l-3.18198,3.18198c-1.5621,1.5621 -4.09476,1.5621 -5.65686,0l-4.5962,-4.5962l-4.59619,4.5962c-1.5621,1.5621 -4.09476,1.5621 -5.65686,0z" fill="#479a47" stroke="none" stroke-width="NaN" stroke-linecap="butt"/><path d="M90.35135,117.67139c0,-6.39897 5.91545,-12.49566 13.1192,-12.49566c28.93252,0 219.72832,0 272.60996,0c8.61359,0 13.56814,4.64378 13.56814,12.24625c0,30.59212 0,109.0924 0,125.70487c0,6.03964 -4.85913,11.69754 -13.31873,11.69754c-52.46667,0 -243.42599,0 -272.60996,0c-7.3279,0 -13.36861,-4.5235 -13.36861,-11.94695c0,-30.16113 0,-108.19342 0,-125.20604z" fill="none" stroke="url(#color-1)" stroke-width="10" stroke-linecap="butt"/><path d="M132.80351,234.63249c-2.36084,0 -3.54126,-0.26404 -3.54126,-0.79212c0,0 -0.5584,-10.71404 -0.69944,-13.42012c-0.06116,-1.1734 -0.7485,-0.47196 -1.22063,1.09778c-0.87777,2.91843 -3.76458,12.51648 -3.76458,12.51648c-0.10354,0.32099 -1.0044,0.48149 -2.70254,0.48149c-1.69814,0 -2.57311,-0.14756 -2.62488,-0.44266c0,0 -3.45591,-11.27323 -4.2874,-13.98558c-0.34113,-1.11275 -0.78383,-0.58858 -0.83358,0.82304c-0.09942,2.82114 -0.44718,12.68883 -0.44718,12.68883c-0.02589,0.39865 -0.53067,0.67045 -1.51435,0.81542c-0.9785,0.14497 -1.79393,0.21744 -2.44626,0.21744c-0.64716,0 -1.27361,-0.03882 -1.87935,-0.11648c-1.27361,-0.18638 -1.89747,-0.51773 -1.87159,-0.99404l0.91638,-25.84497c0,-0.63681 1.61531,-0.95521 4.84593,-0.95521c0.9578,0 2.12528,0.07248 3.50243,0.21744c1.37716,0.14497 2.14598,0.42972 2.30648,0.85425c0,0 3.15518,8.88185 3.87389,10.90502c0.27713,0.78012 0.75285,1.05134 0.9339,0.46782c0.56942,-1.83532 3.54058,-11.41166 3.54058,-11.41166c0.23816,-0.68857 2.06832,-1.03287 5.4905,-1.03287c0.97851,0 2.14857,0.07248 3.51019,0.21744c1.3668,0.14497 2.05021,0.40383 2.05021,0.77659l1.15712,26.08572c0,0.28993 -0.51773,0.50219 -1.55318,0.6368c-1.03028,0.12943 -1.94406,0.19414 -2.74137,0.19414zM142.56399,232.24837c-1.65673,-1.82758 -2.48509,-4.35926 -2.48509,-7.59507c0,-3.2358 0.82836,-5.76749 2.48509,-7.59507c1.65673,-1.82758 3.89073,-2.74137 6.70199,-2.74137c2.81126,0 5.03749,0.91378 6.67869,2.74137c1.6412,1.82758 2.4618,4.35927 2.4618,7.59507c0,3.2358 -0.8206,5.76748 -2.4618,7.59507c-1.6412,1.82758 -3.86742,2.74137 -6.67869,2.74137c-2.81126,0 -5.04526,-0.91379 -6.70199,-2.74137zM149.28151,220.95672c-1.49624,0 -7.74435,0.96925 -7.74435,3.40775c0,2.4385 6.24811,3.90775 7.74435,3.90775c1.50141,0 2.25212,-1.21925 2.25212,-3.65775c0,-2.4385 -0.75071,-3.65775 -2.25212,-3.65775zM169.94318,234.55486c0,0.18638 -1.2063,0.27957 -3.61891,0.27957c-2.41261,-0.05695 -3.61892,-0.16308 -3.61892,-0.3184v-13.20206h-1.0717c-0.42453,0 -0.76365,-0.25887 -1.01734,-0.77659c-0.25368,-0.51773 -0.38053,-1.15971 -0.38053,-1.92595c0,-2.86303 0.84907,-4.29455 2.54722,-4.29455c1.19078,0 2.18482,0.36499 2.98212,1.09499c0.7973,0.72482 2.49804,0.53068 3.4403,-0.11648c0.94226,-0.65233 1.90265,-0.97851 2.88116,-0.97851c1.53765,0 2.46698,0.39606 2.78797,1.18819c0.07766,0.21227 0.11648,0.52549 0.11648,0.93967c0,0.40901 -0.12685,1.14418 -0.38053,2.20552c-0.24851,1.06134 -0.50737,1.83016 -0.77659,2.30648c-0.26404,0.47631 -0.42195,0.71446 -0.47372,0.71446c-0.05177,0 -0.2977,-0.09837 -0.73777,-0.29511c-0.43489,-0.20192 -0.82577,-0.30287 -1.17265,-0.30287c-1.00439,0 -1.50659,0.79471 -1.50659,2.38413zM185.56446,234.98977c-2.62488,0 -4.83816,-0.89308 -6.63986,-2.67924c-1.80169,-1.79134 -2.70254,-4.27125 -2.70254,-7.43975c0,-3.1685 0.86719,-5.7183 2.60158,-7.64943c1.73956,-1.93631 3.93473,-2.90445 6.58549,-2.90445c2.65077,0 4.69838,0.67563 6.14284,2.0269c1.44446,1.35127 2.16669,2.99505 2.16669,4.93136c0,4.29197 -2.46438,6.43795 -7.39315,6.43795h-2.74913c0,0.7973 0.21744,1.34868 0.65233,1.65414c0.44007,0.30546 1.08464,0.45819 1.93372,0.45819c1.85864,0 3.62151,-0.42453 5.28859,-1.27361c0.02588,-0.02588 0.14496,0.15791 0.35723,0.55138c0.63681,1.14418 0.95521,2.10715 0.95521,2.88892c0,0.78177 -0.2511,1.29173 -0.7533,1.52988c0,0 -3.82082,1.46776 -6.4457,1.46776zM187.03998,222.02845c0,-1.11311 -0.54362,-1.66968 -1.63085,-1.66968c-0.5022,0 -0.9345,0.15273 -1.29691,0.45819c-0.35723,0.30546 -0.53584,0.74811 -0.53584,1.32797v1.23479h2.15116c0.87496,0 1.31244,-0.45042 1.31244,-1.35127zM215.80398,234.98977c-3.72246,0 -6.75635,-1.21925 -9.10165,-3.65775c-2.3453,-2.4385 -3.51796,-5.99529 -3.51796,-10.67037c0,-4.68026 1.18559,-8.2267 3.55679,-10.63931c2.3712,-2.41261 5.43097,-3.61891 9.17932,-3.61891c3.75352,0 6.78224,1.18559 9.08613,3.55679c2.30907,2.3712 3.46359,5.96422 3.46359,10.77909c0,4.80969 -1.18042,8.38719 -3.54126,10.7325c-2.35566,2.3453 -5.39731,3.51796 -9.12495,3.51796zM215.82728,214.03732c-1.27361,0 -2.34272,0.58503 -3.20732,1.75509c-0.85942,1.16489 0.71086,3.30091 0.71086,5.40806c0,2.10716 -1.5884,3.22505 -0.76522,4.3537c0.82318,1.12347 1.90265,1.6852 3.23838,1.6852c1.34091,0 2.42814,-0.5695 3.26169,-1.70851c0.83354,-1.14418 1.25032,-2.77502 1.25032,-4.89253c0,-2.12268 -0.42972,-3.75353 -1.28914,-4.89253c-0.85942,-1.139 -1.92595,-1.7085 -3.19956,-1.7085zM239.99882,241.83154c0,0.18638 -1.13382,0.27958 -3.40147,0.27958c-2.26247,0 -3.3937,-0.0932 -3.3937,-0.27958v-20.47872h-1.35127c-0.63681,0 -1.07429,-0.58244 -1.31244,-1.74733c-0.08283,-0.37276 -0.12426,-0.84907 -0.12426,-1.42893c0,-0.58504 0.18638,-1.2762 0.55915,-2.0735c0.52808,-1.16489 1.37716,-1.74733 2.54722,-1.74733c0.76623,0 1.47293,0.17862 2.12009,0.53585c0.65233,0.35723 1.10276,0.68858 1.35127,0.99404c0.25368,0.30546 0.38053,0.48407 0.38053,0.53584c1.7758,-1.37715 3.69658,-2.06573 5.76231,-2.06573c2.07091,0 3.84672,0.80248 5.32742,2.40743c1.48588,1.59978 2.22882,4.07711 2.22882,7.43198c0,3.35487 -0.74294,5.95387 -2.22882,7.79698c-1.4807,1.83793 -3.36005,2.7569 -5.63805,2.7569c-1.03546,0 -1.97772,-0.05177 -2.8268,-0.15532zM241.62966,221.31399c-0.45042,0 -0.88791,0.14496 -1.31244,0.43489v7.03592c0.45042,0.05695 0.81542,0.08543 1.095,0.08543c0.27957,0 0.49702,0 0.65233,0c1.08723,-0.10872 1.63084,-1.50141 1.63084,-4.17806c0,-2.25212 -0.68858,-3.37818 -2.06573,-3.37818zM262.10526,234.98977c-2.62488,0 -4.83817,-0.89308 -6.63986,-2.67924c-1.80169,-1.79134 -2.70254,-4.27125 -2.70254,-7.43975c0,-3.1685 0.8672,-5.7183 2.60159,-7.64943c1.73957,-1.93631 3.93473,-2.90445 6.5855,-2.90445c2.65076,0 4.69838,0.67563 6.14284,2.0269c1.44446,1.35127 2.16669,2.99505 2.16669,4.93136c0,4.29197 -2.46438,6.43795 -7.39315,6.43795h-2.74913c0,0.7973 0.21744,1.34868 0.65233,1.65414c0.44007,0.30546 1.08464,0.45819 1.93372,0.45819c1.85865,0 3.62151,-0.42453 5.28859,-1.27361c0.02589,-0.02588 0.14496,0.15791 0.35723,0.55138c0.6368,1.14418 0.95521,2.10715 0.95521,2.88892c0,0.78177 -0.2511,1.29173 -0.75329,1.52988c0,0 -3.82085,1.46776 -6.44573,1.46776zM263.58079,222.02845c0,-1.11311 -0.54361,-1.66968 -1.63084,-1.66968c-0.50219,0 -0.9345,0.15273 -1.29691,0.45819c-0.35723,0.30546 -0.53584,0.74811 -0.53584,1.32797v1.23479h2.15116c0.87496,0 1.31244,-0.45042 1.31244,-1.35127zM281.55358,234.55486c0,0.18638 -1.20631,0.27957 -3.61892,0.27957c-2.41261,-0.05695 -3.61892,-0.16308 -3.61892,-0.3184v-13.20206h-1.0717c-0.42453,0 -0.76365,-0.25887 -1.01734,-0.77659c-0.25369,-0.51773 -0.38053,-1.15971 -0.38053,-1.92595c0,-2.86303 0.84907,-4.29455 2.54722,-4.29455c1.19077,0 2.18482,0.36499 2.98212,1.09499c0.7973,0.72482 2.49803,0.53068 3.4403,-0.11648c0.94227,-0.65233 1.90265,-0.97851 2.88115,-0.97851c1.53765,0 2.46698,0.39606 2.78797,1.18819c0.07766,0.21227 0.11649,0.52549 0.11649,0.93967c0,0.40901 -0.12685,1.14418 -0.38053,2.20552c-0.24851,1.06134 -0.50737,1.83016 -0.77659,2.30648c-0.26404,0.47631 -0.42195,0.71446 -0.47372,0.71446c-0.05177,0 -0.29769,-0.09837 -0.73776,-0.29511c-0.43489,-0.20192 -0.82578,-0.30287 -1.17266,-0.30287c-1.00439,0 -1.50658,0.79471 -1.50658,2.38413zM291.09416,220.15685c-0.74035,-1.32538 -1.11052,-2.40484 -1.11052,-3.23839c0,-0.83354 0.22521,-1.36939 0.67563,-1.60755c1.50659,-0.66269 3.57749,-0.99403 6.21273,-0.99403c2.64041,0 4.50423,0.6161 5.59146,1.84829c1.08723,1.23219 1.63084,3.0546 1.63084,5.46721v6.28263h1.35127c0.45042,0 0.80248,0.26663 1.05617,0.79989c0.25369,0.52808 0.38053,1.25548 0.38053,2.18222c0,0.92674 -0.23298,1.84052 -0.69894,2.74137c-0.46596,0.90085 -1.09499,1.35127 -1.88711,1.35127c-1.4341,0 -2.58864,-0.38312 -3.4636,-1.14935c-0.39347,-0.32099 -0.69634,-0.7067 -0.90861,-1.15713c-1.22184,1.53765 -3.11931,2.30648 -5.69242,2.30648c-1.93113,0 -3.55938,-0.68858 -4.88476,-2.06573c-1.32538,-1.37715 -1.98808,-3.00799 -1.98808,-4.89253c0,-4.31785 2.58346,-6.47678 7.75038,-6.47678h2.18999v-0.40383c0,-0.68857 -0.1139,-1.13124 -0.3417,-1.32797c-0.22262,-0.19673 -0.74553,-0.29511 -1.56872,-0.29511c-1.00957,0 -2.44108,0.20968 -4.29455,0.62904zM294.27818,227.48009c0,0.57986 0.1579,1.02251 0.47372,1.32797c0.31581,0.30546 0.71965,0.45819 1.21149,0.45819c0.49184,0 0.93709,-0.19932 1.33574,-0.59797v-3.05978h-1.11829c-1.26844,0 -1.90265,0.62386 -1.90265,1.87159zM318.29069,234.35295c0,0.32099 -1.11311,0.48148 -3.33934,0.48148c-2.65076,-0.10872 -3.97615,-0.28216 -3.97615,-0.52032v-14.07184h-2.0269c-0.53326,0 -0.79989,-0.91638 -0.79989,-2.74913c0,-0.47631 0.0466,-1.05876 0.13979,-1.74734c0.09319,-0.68857 0.28734,-1.03286 0.58245,-1.03286h2.10456v-3.50243c0,-0.52808 1.11829,-0.79212 3.35487,-0.79212c2.24176,0 3.36264,0.21228 3.36264,0.63681v2.54722l0.03883,1.11052h3.38594c0.45042,0 0.67563,0.92932 0.67563,2.78796c0,1.85347 -0.22521,2.7802 -0.67563,2.7802h-2.8268zM325.50647,232.24837c-1.65673,-1.82758 -2.4851,-4.35926 -2.4851,-7.59507c0,-3.2358 0.82837,-5.76749 2.4851,-7.59507c1.65673,-1.82758 3.89073,-2.74137 6.70199,-2.74137c2.81126,0 5.03749,0.91378 6.67869,2.74137c1.6412,1.82758 2.46179,4.35927 2.46179,7.59507c0,3.2358 -0.82059,5.76748 -2.46179,7.59507c-1.6412,1.82758 -3.86743,2.74137 -6.67869,2.74137c-2.81126,0 -5.04526,-0.91379 -6.70199,-2.74137zM332.22399,220.95672c-1.49624,0 -6.61935,1.21925 -6.61935,3.65775c0,2.4385 5.12312,3.65775 6.61935,3.65775c1.50141,0 2.25211,-1.21925 2.25211,-3.65775c0,-2.4385 -0.7507,-3.65775 -2.25211,-3.65775zM352.88566,234.55486c0,0.18638 -1.2063,0.27957 -3.61891,0.27957c-2.41261,-0.05695 -3.61892,-0.16308 -3.61892,-0.3184v-13.20206h-1.0717c-0.42453,0 -0.76365,-0.25887 -1.01734,-0.77659c-0.25369,-0.51773 -0.38053,-1.15971 -0.38053,-1.92595c0,-2.86303 0.84907,-4.29455 2.54722,-4.29455c1.19077,0 2.18482,0.36499 2.98212,1.09499c0.7973,0.72482 2.49803,0.53068 3.4403,-0.11648c0.94227,-0.65233 1.90265,-0.97851 2.88116,-0.97851c1.53765,0 2.46697,0.39606 2.78796,1.18819c0.07766,0.21227 0.11649,0.52549 0.11649,0.93967c0,0.40901 -0.12685,1.14418 -0.38053,2.20552c-0.24851,1.06134 -0.50737,1.83016 -0.77659,2.30648c-0.26404,0.47631 -0.42195,0.71446 -0.47372,0.71446c-0.05177,0 -0.29769,-0.09837 -0.73776,-0.29511c-0.43489,-0.20192 -0.82578,-0.30287 -1.17266,-0.30287c-1.00439,0 -1.50659,0.79471 -1.50659,2.38413zM360.75657,227.43353c2.14857,1.2995 3.84413,1.94925 5.08668,1.94925c0.7973,0 1.19595,-0.27698 1.19595,-0.83095c0,-0.39865 -0.68858,-0.91638 -2.06574,-1.55319c-3.31345,-1.35127 -4.97019,-3.56455 -4.97019,-6.63986c0,-1.96219 0.71447,-3.45842 2.14339,-4.4887c1.4341,-1.03546 3.15037,-1.55318 5.1488,-1.55318c2.0036,0 3.69916,0.21227 5.08667,0.63681c1.39269,0.42453 2.08904,0.9811 2.08904,1.66967c0,0.57986 -0.28475,1.34868 -0.85425,2.30648c-0.5695,0.95262 -0.96039,1.46775 -1.17266,1.54541c-1.139,-0.63163 -2.3712,-0.94744 -3.69657,-0.94744c-0.71447,0 -1.0717,0.2511 -1.0717,0.75329c0,0.31581 0.1372,0.58762 0.4116,0.81542c0.27958,0.22262 0.78954,0.49961 1.52988,0.83095c0.74553,0.33134 1.36163,0.63163 1.84829,0.90085c0.49184,0.26404 1.04322,0.63421 1.65414,1.11052c1.27361,1.00439 1.91042,2.31683 1.91042,3.93732c0,2.1175 -0.70411,3.83377 -2.11233,5.1488c-1.40304,1.30985 -3.52314,1.96478 -6.36029,1.96478c-1.87935,0 -3.58785,-0.3184 -5.1255,-0.95521c-1.53765,-0.63681 -2.30648,-1.51176 -2.30648,-2.62488c0,-0.74035 0.17862,-1.51953 0.53585,-2.33754c0.35723,-0.82318 0.72223,-1.36939 1.09499,-1.63861z" fill="none" stroke-opacity="0.50196" stroke="#000000" stroke-width="8" stroke-linecap="square"/><path d="M132.80351,234.63249c-2.36084,0 -3.54126,-0.26404 -3.54126,-0.79212l-0.83096,-15.94343l-4.85369,16.13757c-0.10354,0.32099 -1.0044,0.48149 -2.70254,0.48149c-1.69814,0 -2.57311,-0.14756 -2.62488,-0.44266l-5.00902,-16.33949l-0.55915,15.86577c-0.02589,0.39865 -0.53067,0.67045 -1.51435,0.81542c-0.9785,0.14497 -1.79393,0.21744 -2.44626,0.21744c-0.64716,0 -1.27361,-0.03882 -1.87935,-0.11648c-1.27361,-0.18638 -1.89747,-0.51773 -1.87159,-0.99404l0.91638,-25.84497c0,-0.63681 1.61531,-0.95521 4.84593,-0.95521c0.9578,0 2.12528,0.07248 3.50243,0.21744c1.37716,0.14497 2.14598,0.42972 2.30648,0.85425l4.44987,12.52642l3.89849,-12.56525c0.23816,-0.68857 2.06832,-1.03287 5.4905,-1.03287c0.97851,0 2.14857,0.07248 3.51019,0.21744c1.3668,0.14497 2.05021,0.40383 2.05021,0.77659l1.15712,26.08572c0,0.28993 -0.51773,0.50219 -1.55318,0.6368c-1.03028,0.12943 -1.94406,0.19414 -2.74137,0.19414zM142.56399,232.24837c-1.65673,-1.82758 -2.48509,-4.35926 -2.48509,-7.59507c0,-3.2358 0.82836,-5.76749 2.48509,-7.59507c1.65673,-1.82758 3.89073,-2.74137 6.70199,-2.74137c2.81126,0 5.03749,0.91378 6.67869,2.74137c1.6412,1.82758 2.4618,4.35927 2.4618,7.59507c0,3.2358 -0.8206,5.76748 -2.4618,7.59507c-1.6412,1.82758 -3.86742,2.74137 -6.67869,2.74137c-2.81126,0 -5.04526,-0.91379 -6.70199,-2.74137zM149.28151,220.95672c-1.49624,0 -2.24435,1.21925 -2.24435,3.65775c0,2.4385 0.74811,3.65775 2.24435,3.65775c1.50141,0 2.25212,-1.21925 2.25212,-3.65775c0,-2.4385 -0.75071,-3.65775 -2.25212,-3.65775zM169.94318,234.55486c0,0.18638 -1.2063,0.27957 -3.61891,0.27957c-2.41261,-0.05695 -3.61892,-0.16308 -3.61892,-0.3184v-13.20206h-1.0717c-0.42453,0 -0.76365,-0.25887 -1.01734,-0.77659c-0.25368,-0.51773 -0.38053,-1.15971 -0.38053,-1.92595c0,-2.86303 0.84907,-4.29455 2.54722,-4.29455c1.19078,0 2.18482,0.36499 2.98212,1.09499c0.7973,0.72482 1.19595,1.55319 1.19595,2.4851c0.55397,-1.08723 1.30209,-1.95442 2.24435,-2.60158c0.94226,-0.65233 1.90265,-0.97851 2.88116,-0.97851c1.53765,0 2.46698,0.39606 2.78797,1.18819c0.07766,0.21227 0.11648,0.52549 0.11648,0.93967c0,0.40901 -0.12685,1.14418 -0.38053,2.20552c-0.24851,1.06134 -0.50737,1.83016 -0.77659,2.30648c-0.26404,0.47631 -0.42195,0.71446 -0.47372,0.71446c-0.05177,0 -0.2977,-0.09837 -0.73777,-0.29511c-0.43489,-0.20192 -0.82577,-0.30287 -1.17265,-0.30287c-1.00439,0 -1.50659,0.79471 -1.50659,2.38413zM192.01017,233.52201c-1.67226,0.97851 -3.82083,1.46776 -6.44571,1.46776c-2.62488,0 -4.83816,-0.89308 -6.63986,-2.67924c-1.80169,-1.79134 -2.70254,-4.27125 -2.70254,-7.43975c0,-3.1685 0.86719,-5.7183 2.60158,-7.64943c1.73956,-1.93631 3.93473,-2.90445 6.58549,-2.90445c2.65077,0 4.69838,0.67563 6.14284,2.0269c1.44446,1.35127 2.16669,2.99505 2.16669,4.93136c0,4.29197 -2.46438,6.43795 -7.39315,6.43795h-2.74913c0,0.7973 0.21744,1.34868 0.65233,1.65414c0.44007,0.30546 1.08464,0.45819 1.93372,0.45819c1.85864,0 3.62151,-0.42453 5.28859,-1.27361c0.02588,-0.02588 0.14496,0.15791 0.35723,0.55138c0.63681,1.14418 0.95521,2.10715 0.95521,2.88892c0,0.78177 -0.2511,1.29173 -0.7533,1.52988zM187.03998,222.02845c0,-1.11311 -0.54362,-1.66968 -1.63085,-1.66968c-0.5022,0 -0.9345,0.15273 -1.29691,0.45819c-0.35723,0.30546 -0.53584,0.74811 -0.53584,1.32797v1.23479h2.15116c0.87496,0 1.31244,-0.45042 1.31244,-1.35127zM215.80398,234.98977c-3.72246,0 -6.75635,-1.21925 -9.10165,-3.65775c-2.3453,-2.4385 -3.51796,-5.99529 -3.51796,-10.67037c0,-4.68026 1.18559,-8.2267 3.55679,-10.63931c2.3712,-2.41261 5.43097,-3.61891 9.17932,-3.61891c3.75352,0 6.78224,1.18559 9.08613,3.55679c2.30907,2.3712 3.46359,5.96422 3.46359,10.77909c0,4.80969 -1.18042,8.38719 -3.54126,10.7325c-2.35566,2.3453 -5.39731,3.51796 -9.12495,3.51796zM215.82728,214.03732c-1.27361,0 -2.34272,0.58503 -3.20732,1.75509c-0.85942,1.16489 -1.28914,2.80091 -1.28914,4.90806c0,2.10716 0.4116,3.72505 1.23478,4.8537c0.82318,1.12347 1.90265,1.6852 3.23838,1.6852c1.34091,0 2.42814,-0.5695 3.26169,-1.70851c0.83354,-1.14418 1.25032,-2.77502 1.25032,-4.89253c0,-2.12268 -0.42972,-3.75353 -1.28914,-4.89253c-0.85942,-1.139 -1.92595,-1.7085 -3.19956,-1.7085zM239.99882,241.83154c0,0.18638 -1.13382,0.27958 -3.40147,0.27958c-2.26247,0 -3.3937,-0.0932 -3.3937,-0.27958v-20.47872h-1.35127c-0.63681,0 -1.07429,-0.58244 -1.31244,-1.74733c-0.08283,-0.37276 -0.12426,-0.84907 -0.12426,-1.42893c0,-0.58504 0.18638,-1.2762 0.55915,-2.0735c0.52808,-1.16489 1.37716,-1.74733 2.54722,-1.74733c0.76623,0 1.47293,0.17862 2.12009,0.53585c0.65233,0.35723 1.10276,0.68858 1.35127,0.99404c0.25368,0.30546 0.38053,0.48407 0.38053,0.53584c1.7758,-1.37715 3.69658,-2.06573 5.76231,-2.06573c2.07091,0 3.84672,0.80248 5.32742,2.40743c1.48588,1.59978 2.22882,4.07711 2.22882,7.43198c0,3.35487 -0.74294,5.95387 -2.22882,7.79698c-1.4807,1.83793 -3.36005,2.7569 -5.63805,2.7569c-1.03546,0 -1.97772,-0.05177 -2.8268,-0.15532zM241.62966,221.31399c-0.45042,0 -0.88791,0.14496 -1.31244,0.43489v7.03592c0.45042,0.05695 0.81542,0.08543 1.095,0.08543c0.27957,0 0.49702,0 0.65233,0c1.08723,-0.10872 1.63084,-1.50141 1.63084,-4.17806c0,-2.25212 -0.68858,-3.37818 -2.06573,-3.37818zM268.55097,233.52201c-1.67226,0.97851 -3.82083,1.46776 -6.44571,1.46776c-2.62488,0 -4.83817,-0.89308 -6.63986,-2.67924c-1.80169,-1.79134 -2.70254,-4.27125 -2.70254,-7.43975c0,-3.1685 0.8672,-5.7183 2.60159,-7.64943c1.73957,-1.93631 3.93473,-2.90445 6.5855,-2.90445c2.65076,0 4.69838,0.67563 6.14284,2.0269c1.44446,1.35127 2.16669,2.99505 2.16669,4.93136c0,4.29197 -2.46438,6.43795 -7.39315,6.43795h-2.74913c0,0.7973 0.21744,1.34868 0.65233,1.65414c0.44007,0.30546 1.08464,0.45819 1.93372,0.45819c1.85865,0 3.62151,-0.42453 5.28859,-1.27361c0.02589,-0.02588 0.14496,0.15791 0.35723,0.55138c0.6368,1.14418 0.95521,2.10715 0.95521,2.88892c0,0.78177 -0.2511,1.29173 -0.75329,1.52988zM263.58079,222.02845c0,-1.11311 -0.54361,-1.66968 -1.63084,-1.66968c-0.50219,0 -0.9345,0.15273 -1.29691,0.45819c-0.35723,0.30546 -0.53584,0.74811 -0.53584,1.32797v1.23479h2.15116c0.87496,0 1.31244,-0.45042 1.31244,-1.35127zM281.55358,234.55486c0,0.18638 -1.20631,0.27957 -3.61892,0.27957c-2.41261,-0.05695 -3.61892,-0.16308 -3.61892,-0.3184v-13.20206h-1.0717c-0.42453,0 -0.76365,-0.25887 -1.01734,-0.77659c-0.25369,-0.51773 -0.38053,-1.15971 -0.38053,-1.92595c0,-2.86303 0.84907,-4.29455 2.54722,-4.29455c1.19077,0 2.18482,0.36499 2.98212,1.09499c0.7973,0.72482 1.19595,1.55319 1.19595,2.4851c0.55397,-1.08723 1.30208,-1.95442 2.24435,-2.60158c0.94227,-0.65233 1.90265,-0.97851 2.88115,-0.97851c1.53765,0 2.46698,0.39606 2.78797,1.18819c0.07766,0.21227 0.11649,0.52549 0.11649,0.93967c0,0.40901 -0.12685,1.14418 -0.38053,2.20552c-0.24851,1.06134 -0.50737,1.83016 -0.77659,2.30648c-0.26404,0.47631 -0.42195,0.71446 -0.47372,0.71446c-0.05177,0 -0.29769,-0.09837 -0.73776,-0.29511c-0.43489,-0.20192 -0.82578,-0.30287 -1.17266,-0.30287c-1.00439,0 -1.50658,0.79471 -1.50658,2.38413zM291.09416,220.15685c-0.74035,-1.32538 -1.11052,-2.40484 -1.11052,-3.23839c0,-0.83354 0.22521,-1.36939 0.67563,-1.60755c1.50659,-0.66269 3.57749,-0.99403 6.21273,-0.99403c2.64041,0 4.50423,0.6161 5.59146,1.84829c1.08723,1.23219 1.63084,3.0546 1.63084,5.46721v6.28263h1.35127c0.45042,0 0.80248,0.26663 1.05617,0.79989c0.25369,0.52808 0.38053,1.25548 0.38053,2.18222c0,0.92674 -0.23298,1.84052 -0.69894,2.74137c-0.46596,0.90085 -1.09499,1.35127 -1.88711,1.35127c-1.4341,0 -2.58864,-0.38312 -3.4636,-1.14935c-0.39347,-0.32099 -0.69634,-0.7067 -0.90861,-1.15713c-1.22184,1.53765 -3.11931,2.30648 -5.69242,2.30648c-1.93113,0 -3.55938,-0.68858 -4.88476,-2.06573c-1.32538,-1.37715 -1.98808,-3.00799 -1.98808,-4.89253c0,-4.31785 2.58346,-6.47678 7.75038,-6.47678h2.18999v-0.40383c0,-0.68857 -0.1139,-1.13124 -0.3417,-1.32797c-0.22262,-0.19673 -0.74553,-0.29511 -1.56872,-0.29511c-1.00957,0 -2.44108,0.20968 -4.29455,0.62904zM294.27818,227.48009c0,0.57986 0.1579,1.02251 0.47372,1.32797c0.31581,0.30546 0.71965,0.45819 1.21149,0.45819c0.49184,0 0.93709,-0.19932 1.33574,-0.59797v-3.05978h-1.11829c-1.26844,0 -1.90265,0.62386 -1.90265,1.87159zM318.29069,234.35295c0,0.32099 -1.11311,0.48148 -3.33934,0.48148c-2.65076,-0.10872 -3.97615,-0.28216 -3.97615,-0.52032v-14.07184h-2.0269c-0.53326,0 -0.79989,-0.91638 -0.79989,-2.74913c0,-0.47631 0.0466,-1.05876 0.13979,-1.74734c0.09319,-0.68857 0.28734,-1.03286 0.58245,-1.03286h2.10456v-3.50243c0,-0.52808 1.11829,-0.79212 3.35487,-0.79212c2.24176,0 3.36264,0.21228 3.36264,0.63681v2.54722l0.03883,1.11052h3.38594c0.45042,0 0.67563,0.92932 0.67563,2.78796c0,1.85347 -0.22521,2.7802 -0.67563,2.7802h-2.8268zM325.50647,232.24837c-1.65673,-1.82758 -2.4851,-4.35926 -2.4851,-7.59507c0,-3.2358 0.82837,-5.76749 2.4851,-7.59507c1.65673,-1.82758 3.89073,-2.74137 6.70199,-2.74137c2.81126,0 5.03749,0.91378 6.67869,2.74137c1.6412,1.82758 2.46179,4.35927 2.46179,7.59507c0,3.2358 -0.82059,5.76748 -2.46179,7.59507c-1.6412,1.82758 -3.86743,2.74137 -6.67869,2.74137c-2.81126,0 -5.04526,-0.91379 -6.70199,-2.74137zM332.22399,220.95672c-1.49624,0 -2.24435,1.21925 -2.24435,3.65775c0,2.4385 0.74812,3.65775 2.24435,3.65775c1.50141,0 2.25211,-1.21925 2.25211,-3.65775c0,-2.4385 -0.7507,-3.65775 -2.25211,-3.65775zM352.88566,234.55486c0,0.18638 -1.2063,0.27957 -3.61891,0.27957c-2.41261,-0.05695 -3.61892,-0.16308 -3.61892,-0.3184v-13.20206h-1.0717c-0.42453,0 -0.76365,-0.25887 -1.01734,-0.77659c-0.25369,-0.51773 -0.38053,-1.15971 -0.38053,-1.92595c0,-2.86303 0.84907,-4.29455 2.54722,-4.29455c1.19077,0 2.18482,0.36499 2.98212,1.09499c0.7973,0.72482 1.19595,1.55319 1.19595,2.4851c0.55397,-1.08723 1.30208,-1.95442 2.24435,-2.60158c0.94227,-0.65233 1.90265,-0.97851 2.88116,-0.97851c1.53765,0 2.46697,0.39606 2.78796,1.18819c0.07766,0.21227 0.11649,0.52549 0.11649,0.93967c0,0.40901 -0.12685,1.14418 -0.38053,2.20552c-0.24851,1.06134 -0.50737,1.83016 -0.77659,2.30648c-0.26404,0.47631 -0.42195,0.71446 -0.47372,0.71446c-0.05177,0 -0.29769,-0.09837 -0.73776,-0.29511c-0.43489,-0.20192 -0.82578,-0.30287 -1.17266,-0.30287c-1.00439,0 -1.50659,0.79471 -1.50659,2.38413zM360.75657,227.43353c2.14857,1.2995 3.84413,1.94925 5.08668,1.94925c0.7973,0 1.19595,-0.27698 1.19595,-0.83095c0,-0.39865 -0.68858,-0.91638 -2.06574,-1.55319c-3.31345,-1.35127 -4.97019,-3.56455 -4.97019,-6.63986c0,-1.96219 0.71447,-3.45842 2.14339,-4.4887c1.4341,-1.03546 3.15037,-1.55318 5.1488,-1.55318c2.0036,0 3.69916,0.21227 5.08667,0.63681c1.39269,0.42453 2.08904,0.9811 2.08904,1.66967c0,0.57986 -0.28475,1.34868 -0.85425,2.30648c-0.5695,0.95262 -0.96039,1.46775 -1.17266,1.54541c-1.139,-0.63163 -2.3712,-0.94744 -3.69657,-0.94744c-0.71447,0 -1.0717,0.2511 -1.0717,0.75329c0,0.31581 0.1372,0.58762 0.4116,0.81542c0.27958,0.22262 0.78954,0.49961 1.52988,0.83095c0.74553,0.33134 1.36163,0.63163 1.84829,0.90085c0.49184,0.26404 1.04322,0.63421 1.65414,1.11052c1.27361,1.00439 1.91042,2.31683 1.91042,3.93732c0,2.1175 -0.70411,3.83377 -2.11233,5.1488c-1.40304,1.30985 -3.52314,1.96478 -6.36029,1.96478c-1.87935,0 -3.58785,-0.3184 -5.1255,-0.95521c-1.53765,-0.63681 -2.30648,-1.51176 -2.30648,-2.62488c0,-0.74035 0.17862,-1.51953 0.53585,-2.33754c0.35723,-0.82318 0.72223,-1.36939 1.09499,-1.63861z" fill="#ffffff" stroke="none" stroke-width="1" stroke-linecap="square"/><path d="M116.3,150.20001c-2.20914,0 -4,-1.79086 -4,-4v-6.5h-6.5c-2.20914,0 -4,-1.79086 -4,-4v-4.5c0,-2.20914 1.79086,-4 4,-4h6.5v-6.5c0,-2.20914 1.79086,-4 4,-4h4.5c2.20914,0 4,1.79086 4,4v6.5h6.5c2.20914,0 4,1.79086 4,4v4.5c0,2.20914 -1.79086,4 -4,4h-6.5v6.5c0,2.20914 -1.79086,4 -4,4z" fill="#479a47" stroke="none" stroke-width="NaN" stroke-linecap="butt"/><path d="M144.61498,143.70305c-1.5621,-1.5621 -1.5621,-4.09476 0,-5.65685l4.59619,-4.59619l-4.59619,-4.59619c-1.5621,-1.5621 -1.5621,-4.09476 0,-5.65685l3.18198,-3.18198c1.5621,-1.5621 4.09476,-1.5621 5.65685,0l4.59619,4.59619l4.59619,-4.59619c1.5621,-1.5621 4.09476,-1.5621 5.65685,0l3.18198,3.18198c1.5621,1.5621 1.5621,4.09476 0,5.65685l-4.59619,4.59619l4.59619,4.59619c1.5621,1.5621 1.5621,4.09476 0,5.65685l-3.18198,3.18198c-1.5621,1.5621 -4.09476,1.5621 -5.65685,0l-4.59619,-4.59619l-4.59619,4.59619c-1.5621,1.5621 -4.09476,1.5621 -5.65685,0z" fill="#479a47" stroke="none" stroke-width="NaN" stroke-linecap="butt"/><path d="M155.87171,186.70001c-2.20914,0 -4,-1.79086 -4,-4v-6.5h-6.5c-2.20914,0 -4,-1.79086 -4,-4v-4.5c0,-2.20914 1.79086,-4 4,-4h6.5v-6.5c0,-2.20914 1.79086,-4 4,-4h4.5c2.20914,0 4,1.79086 4,4v6.5h6.5c2.20914,0 4,1.79086 4,4v4.5c0,2.20914 -1.79086,4 -4,4h-6.5v6.5c0,2.20914 -1.79086,4 -4,4z" fill="#479a47" stroke="none" stroke-width="NaN" stroke-linecap="butt"/><path d="M128.87476,183.38508c-1.5621,1.5621 -4.09476,1.5621 -5.65686,0l-4.59619,-4.5962l-4.59619,4.5962c-1.5621,1.5621 -4.09476,1.5621 -5.65686,0l-3.18198,-3.18198c-1.5621,-1.5621 -1.5621,-4.09476 0,-5.65686l4.5962,-4.59619l-4.5962,-4.59619c-1.5621,-1.5621 -1.5621,-4.09475 0,-5.65686l3.18198,-3.18198c1.5621,-1.5621 4.09476,-1.5621 5.65686,0l4.59619,4.59619l4.59619,-4.59619c1.5621,-1.5621 4.09476,-1.5621 5.65686,0l3.18198,3.18198c1.5621,1.5621 1.5621,4.09475 0,5.65686l-4.5962,4.59619l4.5962,4.59619c1.5621,1.5621 1.5621,4.09476 0,5.65686z" fill="#479a47" stroke="none" stroke-width="NaN" stroke-linecap="butt"/><path d="M214.12815,148.11698c0,0.49967 -1.49326,0.7495 -4.47977,0.7495c-2.98652,0 -4.47977,-0.24983 -4.47977,-0.7495v-21.74414l-4.76407,0.04307c-0.87872,0 -1.31809,-1.41285 -1.31809,-4.23856c0,-0.97062 0.09476,-1.90965 0.28429,-2.81709c0.18953,-0.91318 0.51977,-1.36978 0.99072,-1.36978h12.08677c0.49967,0 0.90457,0.11199 1.21471,0.33598c0.31014,0.21825 0.46521,0.48818 0.46521,0.80981zM230.41659,149.30584c-3.6872,0 -6.69956,-1.35255 -9.03708,-4.05764c-2.33752,-2.7051 -3.50628,-6.65936 -3.50628,-11.86279c0,-5.20343 1.17451,-9.13472 3.52351,-11.79387c2.35475,-2.66489 5.39296,-3.99734 9.11462,-3.99734c3.72166,0 6.72828,1.32383 9.01985,3.97149c2.29158,2.64766 3.43736,6.63351 3.43736,11.95755c0,5.3183 -1.16876,9.2783 -3.50628,11.88002c-2.33752,2.60171 -5.35276,3.90257 -9.0457,3.90257zM230.4252,126.0627c-1.13143,0 -2.08769,0.64038 -2.86878,1.92113c-0.78109,1.27501 -1.17163,3.08989 -1.17163,5.44465c0,2.35475 0.37332,4.15815 1.11994,5.41019c0.75237,1.2463 1.72299,1.86944 2.91185,1.86944c1.19461,0 2.16522,-0.63176 2.91185,-1.89529c0.75237,-1.26927 1.12856,-3.07841 1.12856,-5.42742c0,-2.35475 -0.39055,-4.16389 -1.17163,-5.42742c-0.77535,-1.26353 -1.72873,-1.89529 -2.86016,-1.89529zM274.50994,141.81083h-17.41943c-0.53413,0 -0.91606,-0.42787 -1.14579,-1.28363c-0.12061,-0.43649 -0.18091,-0.86149 -0.18091,-1.27501c0,-0.41352 0.0603,-0.84139 0.18091,-1.28363c0.22973,-0.85001 0.61166,-1.27501 1.14579,-1.27501h17.41943c0.52838,0 0.91031,0.42501 1.14579,1.27501c0.12061,0.44224 0.18091,0.87011 0.18091,1.28363c0,0.41352 -0.0603,0.83852 -0.18091,1.27501c-0.23548,0.85575 -0.6174,1.28363 -1.14579,1.28363zM274.50994,131.92948h-17.41943c-0.53413,0 -0.91606,-0.42787 -1.14579,-1.28363c-0.12061,-0.43649 -0.18091,-0.86149 -0.18091,-1.27501c0,-0.41352 0.0603,-0.84139 0.18091,-1.28363c0.22973,-0.85001 0.61166,-1.27501 1.14579,-1.27501h17.41943c0.52838,0 0.91031,0.42501 1.14579,1.27501c0.12061,0.44224 0.18091,0.87011 0.18091,1.28363c0,0.41352 -0.0603,0.83852 -0.18091,1.27501c-0.23548,0.85575 -0.6174,1.28363 -1.14579,1.28363zM301.89821,126.94143c0.12061,-0.23548 0.85575,-0.35321 2.20543,-0.35321c4.41085,0 6.55885,0.16368 6.44398,0.49105l-5.38434,11.15636c3.61828,6.76561 5.42742,10.14842 5.42742,10.14842c0,0.1723 -0.8816,0.31875 -2.64479,0.43936c-1.76319,0.11487 -3.01236,0.1723 -3.7475,0.1723c-1.85509,0 -2.84006,-0.18953 -2.95493,-0.56859l-2.38634,-7.36579l-2.73094,7.67593c-0.06318,0.20102 -0.90457,0.30152 -2.52418,0.30152c-1.61387,0 -3.05256,-0.05743 -4.31609,-0.1723c-1.26353,-0.11487 -1.83786,-0.26132 -1.72299,-0.43936l4.98806,-10.14842c-3.46895,-7.25953 -5.20343,-10.90653 -5.20343,-10.94099c0,-0.1723 0.44798,-0.33024 1.34393,-0.47382c0.89595,-0.14933 1.90965,-0.22399 3.04108,-0.22399c1.13143,0 2.21117,0.05169 3.23922,0.15507c1.03379,0.09764 1.60812,0.23548 1.72299,0.41352l2.34327,7.15041zM335.11226,123.54714v7.40886h7.46055c0.52838,0 0.91031,0.42787 1.14579,1.28363c0.11487,0.44224 0.1723,0.87011 0.1723,1.28363c0,0.40778 -0.05743,0.83278 -0.1723,1.27501c-0.23548,0.85001 -0.6174,1.27501 -1.14579,1.27501h-7.46055v7.5467c0,0.52838 -0.42501,0.91031 -1.27501,1.14579c-0.41352,0.11487 -0.84139,0.1723 -1.28363,0.1723l-1.27501,-0.1723c-0.85575,-0.23548 -1.28363,-0.6174 -1.28363,-1.14579v-7.5467h-7.49501c-0.52838,0 -0.91031,-0.42501 -1.14579,-1.27501c-0.12061,-0.44224 -0.18091,-0.86724 -0.18091,-1.27501c0,-0.41352 0.0603,-0.84139 0.18091,-1.28363c0.23548,-0.85575 0.6174,-1.28363 1.14579,-1.28363h7.49501v-7.40886c0,-0.52838 0.42787,-0.91031 1.28363,-1.14579c0.41352,-0.11487 0.83852,-0.1723 1.27501,-0.1723l1.28363,0.1723c0.85001,0.23548 1.27501,0.6174 1.27501,1.14579zM373.22304,117.99049c0.56284,0 0.84427,1.22045 0.84427,3.66135c0,0.76386 -0.06892,1.66843 -0.20676,2.71371c-0.1321,1.04528 -0.37332,1.56792 -0.72366,1.56792h-8.59772l-0.05169,3.21338h1.45593c3.14733,0 5.49347,0.91318 7.03841,2.73955c1.54495,1.82063 2.31742,4.23281 2.31742,7.23656c0,2.99801 -1.05964,5.44466 -3.17892,7.33995c-2.11354,1.89529 -4.83299,2.84293 -8.15836,2.84293c-3.32537,0 -5.75191,-0.47095 -7.27963,-1.41285c-0.23548,-0.37906 -0.35321,-0.97349 -0.35321,-1.78329c0,-0.80981 0.11774,-1.9556 0.35321,-3.43737c0.23548,-1.48751 0.55997,-2.23127 0.97349,-2.23127c0.02872,0 0.11774,0.0603 0.26706,0.18091c2.08482,0.85001 3.67858,1.27501 4.7813,1.27501c1.10271,0 2.01303,-0.30152 2.73094,-0.90457c0.72366,-0.60305 1.08548,-1.37552 1.08548,-2.31742c0,-2.34901 -1.26353,-3.52351 -3.79058,-3.52351l-3.79919,0.04307c-0.29291,0.05743 -0.58582,-0.06605 -0.87872,-0.37044c-0.29291,-0.31014 -0.43936,-0.71791 -0.43936,-1.22332v-13.80115c0,-1.20609 0.43936,-1.80914 1.31809,-1.80914h14.2922z" fill="#59c059" stroke="none" stroke-width="1" stroke-linecap="square"/><path d="M202.889,121.40922h74.22201v74.22201h-74.22201z" fill-opacity="0" fill="#000000" stroke="none" stroke-width="1" stroke-linecap="butt"/><path d="M205.77562,159.52023c0,-19.17775 15.54664,-34.72439 34.72439,-34.72439c19.17775,0 34.72439,15.54664 34.72439,34.72439c0,19.17775 -15.54664,34.72439 -34.72439,34.72439c-19.17775,0 -34.72439,-15.54664 -34.72439,-34.72439z" fill="none" stroke-opacity="0.50196" stroke="#000000" stroke-width="15" stroke-linecap="butt"/><path d="M204.7369,159.52023c0,-19.75142 16.01169,-35.76311 35.76311,-35.76311c19.75142,0 35.76311,16.01169 35.76311,35.76311c0,19.75142 -16.01169,35.76311 -35.76311,35.76311c-19.75142,0 -35.76311,-16.01169 -35.76311,-35.76311z" fill="#59c059" stroke="#479a47" stroke-width="4.5" stroke-linecap="butt"/><path d="M245.94896,137.5482c-3.12184,-0.28381 -5.87474,2.015 -6.15855,5.16524l-0.70951,8.20194h8.00328v5.67608h-8.51413l-1.24875,14.38888c-0.25659,2.99851 -1.69737,5.77116 -4.00362,7.70459c-2.30626,1.93342 -5.28783,2.86819 -8.28509,2.59751c-3.56906,-0.30265 -6.78695,-2.26914 -8.68441,-5.30714l4.25707,-4.25707c0.68113,2.10015 2.55424,3.71782 4.90981,3.9165c3.12184,0.28381 5.87475,-2.015 6.15855,-5.16523l1.22036,-13.87802h-8.51413v-5.67608h8.99659l0.76628,-8.71278c0.53922,-6.24368 6.04503,-10.8697 12.28872,-10.30209c3.71782,0.31218 6.83968,2.38396 8.68442,5.30714l-4.25707,4.25707c-0.68113,-2.10015 -2.55424,-3.71782 -4.90981,-3.9165z" fill="#ffffff" stroke="none" stroke-width="1" stroke-linecap="butt"/><path d="M253.62089,181.04541c-1.38245,0 -2.50315,-1.1207 -2.50315,-2.50315v-5.08607h-5.08607c-1.38245,0 -2.50315,-1.1207 -2.50315,-2.50315v-2.30184c0,-1.38245 1.1207,-2.50315 2.50315,-2.50315h5.08607v-5.08607c0,-1.38245 1.1207,-2.50315 2.50315,-2.50315h2.30184c1.38245,0 2.50315,1.1207 2.50315,2.50315v5.08607h5.08607c1.38245,0 2.50315,1.1207 2.50315,2.50315v2.30184c0,1.38245 -1.1207,2.50315 -2.50315,2.50315h-5.08607v5.08607c0,1.38245 -1.1207,2.50315 -2.50315,2.50315z" fill="#ffffff" stroke="none" stroke-width="0" stroke-linecap="butt"/></g></g></svg>
