<svg xmlns="http://www.w3.org/2000/svg" width="309.297" height="159.649" viewBox="0 0 309.297 159.649"><defs><linearGradient x1="240" y1="105.176" x2="240" y2="254.824" gradientUnits="userSpaceOnUse" id="a"><stop offset="0" stop-color="#234d23"/><stop offset="1" stop-color="#3b803b"/></linearGradient></defs><g stroke-miterlimit="10" style="mix-blend-mode:normal"><path d="M7.829 143.024v-126.5c0-5.258 4.445-10.024 10.12-10.024h274c6.098 0 9.52 4.499 9.52 9.524v125.5c0 7.23-4.155 11.624-9.52 11.624h-272.5c-7.407 0-11.62-3.791-11.62-10.124" fill="#50ad50"/><path d="M133.617 99.022q-5.4 0-5.837-1.735l-2.052-8.023h-9.879l-1.796 7.707q-.377 1.93-5.972 1.93-2.986 0-4.417-.34-1.42-.339-1.42-.534l10.996-42.066q0-.498 8.507-.498 8.52 0 8.52.498l10.754 42.127q0 .437-2.864.692-2.853.242-4.54.242m-16.215-17.647h6.53l-2.803-12.865h-.365zm27.716-25.79q0-.74 5.377-.74t5.376.8v12.064q2.67-.497 3.787-.497 13.047 0 13.047 14.977 0 8.325-4.005 12.828t-11.372 4.503-12.21-3.29zm12.805 21.324q-1.056 0-2.052.68v11.87a4.6 4.6 0 0 0 1.821.364q.971 0 1.966-.74 1.736-1.239 1.736-5.778 0-6.396-3.471-6.396m29.388 6.578q0 6.093 4.6 6.093 2.985 0 4.976-1.177.922 0 1.517 3.204.594 3.192.595 4.345 0 1.152-.316 1.517-3.29 2.05-9.006 2.051-5.716 0-9.733-4.248-4.005-4.26-4.005-11.627t3.944-11.894q3.946-4.54 10.498-4.54 6.567 0 9.115 3.168.558.68.558 2.015t-.497 3.265q-1.118 3.98-2.925 4.6-.242.06-.716.06-.462 0-1.153-.74-2.415-2.427-3.884-2.427-1.456 0-2.512 1.493t-1.056 4.842" fill="#59c059"/><path d="M270.021 109.024a4 4 0 0 1-4-4v-6.5h-6.5a4 4 0 0 1-4-4v-4.5a4 4 0 0 1 4-4h6.5v-6.5a4 4 0 0 1 4-4h4.5a4 4 0 0 1 4 4v6.5h6.5a4 4 0 0 1 4 4v4.5a4 4 0 0 1-4 4h-6.5v6.5a4 4 0 0 1-4 4zm-26.997-3.315a4 4 0 0 1-5.657 0l-4.596-4.596-4.597 4.596a4 4 0 0 1-5.656 0l-3.182-3.182a4 4 0 0 1 0-5.657l4.596-4.596-4.596-4.596a4 4 0 0 1 0-5.657l3.182-3.182a4 4 0 0 1 5.656 0l4.597 4.596 4.596-4.596a4 4 0 0 1 5.657 0l3.182 3.182a4 4 0 0 1 0 5.657l-4.596 4.596 4.596 4.596a4 4 0 0 1 0 5.657zm-12.575 39.815a4 4 0 0 1-4-4v-6.5h-6.5a4 4 0 0 1-4-4v-4.5a4 4 0 0 1 4-4h6.5v-6.5a4 4 0 0 1 4-4h4.5a4 4 0 0 1 4 4v6.5h6.5a4 4 0 0 1 4 4v4.5a4 4 0 0 1-4 4h-6.5v6.5a4 4 0 0 1-4 4zm28.315-6.497a4 4 0 0 1 0-5.657l4.596-4.596-4.596-4.596a4 4 0 0 1 0-5.657l3.182-3.182a4 4 0 0 1 5.657 0l4.596 4.596 4.596-4.596a4 4 0 0 1 5.657 0l3.182 3.182a4 4 0 0 1 0 5.657l-4.596 4.596 4.596 4.596a4 4 0 0 1 0 5.657l-3.182 3.182a4 4 0 0 1-5.657 0l-4.596-4.596-4.596 4.596a4 4 0 0 1-5.657 0z" fill="#479a47"/><path d="M90.351 117.671c0-6.399 5.916-12.495 13.12-12.495h272.61c8.613 0 13.568 4.644 13.568 12.246v125.705c0 6.04-4.86 11.697-13.32 11.697H103.72c-7.328 0-13.369-4.523-13.369-11.947z" fill="none" stroke="url(#a)" stroke-width="10" transform="translate(-85.351 -100.176)"/><path d="M47.453 134.456q-3.542 0-3.542-.792l-.7-13.42c-.06-1.173-.748-.472-1.22 1.098l-3.764 12.517q-.156.48-2.703.481-2.547 0-2.625-.443l-4.287-13.985c-.341-1.113-.784-.589-.834.823l-.447 12.689q-.039.597-1.514.815-1.468.217-2.447.217-.97 0-1.879-.116-1.91-.28-1.872-.994l.917-25.845q0-.955 4.846-.955 1.437 0 3.502.217 2.065.218 2.307.854l3.874 10.906c.277.78.752 1.05.933.467l3.541-11.411q.357-1.033 5.49-1.033 1.47 0 3.51.217 2.052.218 2.051.777l1.157 26.086q0 .435-1.553.636-1.545.194-2.741.194zm9.76-2.384q-2.485-2.74-2.485-7.595 0-4.853 2.485-7.595 2.485-2.74 6.702-2.741 4.216 0 6.679 2.741 2.46 2.742 2.461 7.595 0 4.854-2.461 7.595-2.463 2.742-6.679 2.742t-6.702-2.742zm6.718-11.291c-1.497 0-7.745.969-7.745 3.407s6.248 3.908 7.745 3.908q2.251 0 2.252-3.658t-2.252-3.657zm20.661 13.598q0 .28-3.619.28-3.619-.087-3.619-.319v-13.202h-1.071q-.637 0-1.018-.777-.38-.776-.38-1.926 0-4.294 2.547-4.294 1.786 0 2.982 1.095c.797.725 2.498.53 3.44-.117q1.414-.978 2.882-.978 2.306 0 2.788 1.188.116.319.116.94 0 .613-.38 2.205-.374 1.592-.777 2.307-.396.714-.474.714t-.738-.295q-.651-.303-1.172-.303-1.507 0-1.507 2.384zm15.621.435q-3.936 0-6.64-2.68-2.702-2.685-2.702-7.44 0-4.752 2.602-7.649 2.61-2.904 6.585-2.904t6.143 2.027 2.167 4.931q0 6.438-7.393 6.438h-2.75q0 1.196.653 1.654.66.458 1.933.458 2.79 0 5.289-1.273.039-.039.357.551.955 1.716.955 2.89 0 1.17-.753 1.529s-3.82 1.468-6.446 1.468zm1.476-12.962q0-1.67-1.63-1.67-.754 0-1.298.459-.536.458-.536 1.328v1.235h2.152q1.312 0 1.312-1.352zm28.764 12.962q-5.583 0-9.102-3.658-3.518-3.657-3.518-10.67 0-7.02 3.557-10.64 3.557-3.619 9.18-3.619 5.63 0 9.086 3.557 3.463 3.556 3.463 10.78 0 7.214-3.541 10.732-3.534 3.518-9.125 3.518zm.023-20.953q-1.91 0-3.207 1.755c-.86 1.165.71 3.301.71 5.408s-1.588 3.226-.764 4.354q1.234 1.685 3.238 1.685 2.01 0 3.262-1.708 1.25-1.716 1.25-4.893 0-3.183-1.29-4.892-1.288-1.71-3.199-1.709zm24.173 27.795q0 .28-3.402.28-3.393 0-3.393-.28v-20.48h-1.352q-.955 0-1.312-1.747-.124-.559-.124-1.428 0-.878.559-2.074.792-1.747 2.547-1.747 1.15 0 2.12.536.978.535 1.351.994.38.458.38.535 2.666-2.065 5.763-2.065 3.107 0 5.328 2.407 2.228 2.4 2.228 7.432t-2.228 7.797q-2.221 2.757-5.638 2.757-1.554 0-2.827-.155zm1.63-20.518q-.675 0-1.312.435v7.036q.676.085 1.095.085h.653q1.63-.162 1.63-4.178 0-3.378-2.065-3.378zm20.476 13.676q-3.937 0-6.64-2.68-2.702-2.685-2.702-7.44 0-4.752 2.601-7.649 2.61-2.904 6.586-2.904 3.975 0 6.143 2.027 2.166 2.027 2.166 4.931 0 6.438-7.393 6.438h-2.749q0 1.196.653 1.654.66.458 1.933.458 2.788 0 5.289-1.273.039-.039.357.551.955 1.716.955 2.89 0 1.17-.753 1.529s-3.82 1.468-6.446 1.468zm1.476-12.962q0-1.67-1.631-1.67-.753 0-1.297.459-.536.458-.536 1.328v1.235h2.151q1.313 0 1.313-1.352zm17.973 12.527q0 .28-3.62.28-3.618-.087-3.618-.319v-13.202h-1.072q-.637 0-1.017-.777-.38-.776-.38-1.926 0-4.294 2.546-4.294 1.786 0 2.983 1.095c.797.725 2.498.53 3.44-.117q1.413-.978 2.881-.978 2.307 0 2.788 1.188.117.319.116.94 0 .613-.38 2.205-.373 1.592-.777 2.307-.396.714-.473.714-.078 0-.738-.295-.653-.303-1.173-.303-1.506 0-1.506 2.384zm9.54-14.398q-1.11-1.989-1.11-3.239t.675-1.607q2.26-.994 6.213-.994 3.96 0 5.591 1.848t1.631 5.467v6.283h1.352q.675 0 1.056.8.38.792.38 2.182t-.699 2.741-1.887 1.352q-2.15 0-3.463-1.15a3.3 3.3 0 0 1-.909-1.157q-1.833 2.307-5.692 2.307-2.898 0-4.885-2.066-1.988-2.066-1.988-4.893 0-6.476 7.75-6.476h2.19v-.404q0-1.033-.342-1.328-.333-.295-1.568-.295-1.514 0-4.295.629zm3.184 7.323q0 .87.474 1.328t1.211.458 1.336-.598v-3.06h-1.118q-1.903 0-1.903 1.872zm24.013 6.873q0 .48-3.34.481-3.975-.162-3.976-.52v-14.072h-2.027q-.8 0-.8-2.749 0-.714.14-1.747t.583-1.033h2.104v-3.502q0-.793 3.355-.793 3.363 0 3.363.637v2.547l.039 1.11h3.385q.675 0 .676 2.789 0 2.78-.676 2.78h-2.826zm7.215-2.105q-2.484-2.74-2.485-7.595 0-4.853 2.485-7.595 2.486-2.74 6.702-2.741 4.218 0 6.68 2.741 2.46 2.742 2.46 7.595 0 4.854-2.46 7.595-2.462 2.742-6.68 2.742-4.216 0-6.702-2.742zm6.718-11.291c-1.496 0-6.62 1.219-6.62 3.657 0 2.439 5.124 3.658 6.62 3.658q2.252 0 2.252-3.658t-2.252-3.657zm20.662 13.598q0 .28-3.62.28-3.618-.087-3.618-.319v-13.202h-1.072q-.637 0-1.017-.777-.38-.776-.38-1.926 0-4.294 2.546-4.294 1.786 0 2.983 1.095c.797.725 2.498.53 3.44-.117q1.413-.978 2.881-.978 2.307 0 2.788 1.188.117.319.117.94 0 .613-.381 2.205-.373 1.592-.777 2.307-.396.714-.473.714-.078 0-.738-.295-.652-.303-1.173-.303-1.506 0-1.506 2.384zm7.87-7.121q3.224 1.949 5.087 1.949 1.197 0 1.196-.831 0-.599-2.066-1.553-4.97-2.028-4.97-6.64 0-2.943 2.144-4.489 2.151-1.553 5.148-1.553 3.006 0 5.087.637 2.09.636 2.09 1.67 0 .87-.855 2.306-.854 1.429-1.173 1.545a7.5 7.5 0 0 0-3.696-.947q-1.072 0-1.072.753 0 .474.412.816.42.334 1.53.83 1.117.498 1.848.901.738.397 1.654 1.11 1.91 1.508 1.91 3.938 0 3.177-2.112 5.149-2.105 1.965-6.36 1.965-2.82 0-5.126-.955t-2.306-2.625q0-1.11.536-2.338.536-1.235 1.095-1.638z" fill="none" stroke-opacity=".502" stroke="#000" stroke-width="8" stroke-linecap="square"/><path d="M47.453 134.456q-3.542 0-3.542-.792l-.83-15.943-4.854 16.138q-.156.48-2.703.481-2.547 0-2.625-.443l-5.009-16.34-.559 15.867q-.038.597-1.514.815-1.468.217-2.447.217-.97 0-1.879-.116-1.91-.28-1.872-.994l.917-25.845q0-.955 4.846-.955 1.437 0 3.502.217 2.066.218 2.307.854l4.45 12.527 3.898-12.565q.357-1.033 5.49-1.033 1.47 0 3.51.217 2.051.218 2.05.777l1.158 26.086q0 .435-1.553.636-1.545.194-2.741.194m9.76-2.384q-2.485-2.74-2.485-7.595 0-4.853 2.485-7.595 2.485-2.74 6.702-2.741 4.216 0 6.679 2.741 2.46 2.742 2.461 7.595 0 4.854-2.461 7.595-2.463 2.742-6.679 2.742t-6.702-2.742m6.718-11.291q-2.245 0-2.245 3.657t2.245 3.658q2.251 0 2.252-3.658t-2.252-3.657m20.661 13.598q0 .28-3.619.28-3.619-.087-3.619-.319v-13.202h-1.071q-.637 0-1.018-.777-.38-.776-.38-1.926 0-4.294 2.547-4.294 1.786 0 2.982 1.095 1.196 1.087 1.196 2.485.831-1.63 2.244-2.602 1.414-.978 2.882-.978 2.306 0 2.788 1.188.116.319.116.94 0 .613-.38 2.205-.374 1.592-.777 2.307-.396.714-.474.714t-.738-.295q-.651-.303-1.172-.303-1.507 0-1.507 2.384zm22.067-1.033q-2.507 1.468-6.446 1.468-3.936 0-6.64-2.68-2.702-2.685-2.702-7.44 0-4.752 2.602-7.649 2.61-2.904 6.585-2.904t6.143 2.027 2.167 4.931q0 6.438-7.393 6.438h-2.75q0 1.196.653 1.654.66.458 1.933.458 2.79 0 5.289-1.273.039-.039.357.551.955 1.716.955 2.89 0 1.17-.753 1.529m-4.97-11.494q0-1.67-1.63-1.67-.754 0-1.298.459-.536.458-.536 1.328v1.235h2.152q1.312 0 1.312-1.352m28.764 12.962q-5.583 0-9.102-3.658-3.518-3.657-3.518-10.67 0-7.02 3.557-10.64 3.557-3.619 9.18-3.619 5.63 0 9.086 3.557 3.463 3.556 3.463 10.78 0 7.214-3.541 10.732-3.534 3.518-9.125 3.518m.023-20.953q-1.91 0-3.207 1.755-1.29 1.747-1.29 4.908t1.236 4.854q1.234 1.685 3.238 1.685 2.01 0 3.262-1.708 1.25-1.716 1.25-4.893 0-3.183-1.29-4.892-1.288-1.71-3.199-1.709m24.173 27.795q0 .28-3.402.28-3.393 0-3.393-.28v-20.48h-1.352q-.955 0-1.312-1.747-.124-.559-.124-1.428 0-.878.559-2.074.792-1.747 2.547-1.747 1.15 0 2.12.536.978.535 1.351.994.38.458.38.535 2.666-2.065 5.763-2.065 3.107 0 5.328 2.407 2.228 2.4 2.228 7.432t-2.228 7.797q-2.221 2.757-5.638 2.757-1.554 0-2.827-.155zm1.63-20.518q-.675 0-1.312.435v7.036q.676.085 1.095.085h.653q1.63-.162 1.63-4.178 0-3.378-2.065-3.378m26.922 12.208q-2.508 1.468-6.446 1.468t-6.64-2.68q-2.702-2.685-2.702-7.44 0-4.752 2.601-7.649 2.61-2.904 6.586-2.904 3.975 0 6.143 2.027 2.166 2.027 2.166 4.931 0 6.438-7.393 6.438h-2.749q0 1.196.653 1.654.66.458 1.933.458 2.788 0 5.289-1.273.039-.039.357.551.955 1.716.955 2.89 0 1.17-.753 1.529m-4.97-11.494q0-1.67-1.631-1.67-.753 0-1.297.459-.536.458-.536 1.328v1.235h2.151q1.313 0 1.313-1.352m17.973 12.527q0 .28-3.62.28-3.618-.087-3.618-.319v-13.202h-1.072q-.637 0-1.017-.777-.38-.776-.38-1.926 0-4.294 2.546-4.294 1.786 0 2.983 1.095 1.195 1.087 1.195 2.485.831-1.63 2.245-2.602 1.413-.978 2.881-.978 2.307 0 2.788 1.188.117.319.116.94 0 .613-.38 2.205-.373 1.592-.777 2.307-.396.714-.473.714-.078 0-.738-.295-.653-.303-1.173-.303-1.506 0-1.506 2.384zm9.54-14.398q-1.11-1.989-1.11-3.239t.675-1.607q2.26-.994 6.213-.994 3.96 0 5.591 1.848t1.631 5.467v6.283h1.352q.675 0 1.056.8.38.792.38 2.182t-.699 2.741-1.887 1.352q-2.15 0-3.463-1.15a3.3 3.3 0 0 1-.909-1.157q-1.833 2.307-5.692 2.307-2.898 0-4.885-2.066-1.988-2.066-1.988-4.893 0-6.476 7.75-6.476h2.19v-.404q0-1.033-.342-1.328-.333-.295-1.568-.295-1.514 0-4.295.629m3.184 7.323q0 .87.474 1.328t1.211.458 1.336-.598v-3.06h-1.118q-1.903 0-1.903 1.872m24.013 6.873q0 .48-3.34.481-3.975-.162-3.976-.52v-14.072h-2.027q-.8 0-.8-2.749 0-.714.14-1.747t.583-1.033h2.104v-3.502q0-.793 3.355-.793 3.363 0 3.363.637v2.547l.039 1.11h3.385q.675 0 .676 2.789 0 2.78-.676 2.78h-2.826zm7.215-2.105q-2.484-2.74-2.485-7.595 0-4.853 2.485-7.595 2.486-2.74 6.702-2.741 4.218 0 6.68 2.741 2.46 2.742 2.46 7.595 0 4.854-2.46 7.595-2.462 2.742-6.68 2.742-4.216 0-6.702-2.742m6.718-11.291q-2.244 0-2.244 3.657t2.244 3.658q2.252 0 2.252-3.658t-2.252-3.657m20.662 13.598q0 .28-3.62.28-3.618-.087-3.618-.319v-13.202h-1.072q-.637 0-1.017-.777-.38-.776-.38-1.926 0-4.294 2.546-4.294 1.786 0 2.983 1.095 1.196 1.087 1.196 2.485.831-1.63 2.244-2.602 1.413-.978 2.881-.978 2.307 0 2.788 1.188.117.319.117.94 0 .613-.381 2.205-.373 1.592-.777 2.307-.396.714-.473.714-.078 0-.738-.295-.652-.303-1.173-.303-1.506 0-1.506 2.384zm7.87-7.121q3.224 1.949 5.087 1.949 1.197 0 1.196-.831 0-.599-2.066-1.553-4.97-2.028-4.97-6.64 0-2.943 2.144-4.489 2.151-1.553 5.148-1.553 3.006 0 5.087.637 2.09.636 2.09 1.67 0 .87-.855 2.306-.854 1.429-1.173 1.545a7.5 7.5 0 0 0-3.696-.947q-1.072 0-1.072.753 0 .474.412.816.42.334 1.53.83 1.117.498 1.848.901.738.397 1.654 1.11 1.91 1.508 1.91 3.938 0 3.177-2.112 5.149-2.105 1.965-6.36 1.965-2.82 0-5.126-.955t-2.306-2.625q0-1.11.536-2.338.536-1.235 1.095-1.638" fill="#fff"/><path d="M30.949 50.024a4 4 0 0 1-4-4v-6.5h-6.5a4 4 0 0 1-4-4v-4.5a4 4 0 0 1 4-4h6.5v-6.5a4 4 0 0 1 4-4h4.5a4 4 0 0 1 4 4v6.5h6.5a4 4 0 0 1 4 4v4.5a4 4 0 0 1-4 4h-6.5v6.5a4 4 0 0 1-4 4zm28.315-6.497a4 4 0 0 1 0-5.657l4.596-4.596-4.596-4.596a4 4 0 0 1 0-5.657l3.182-3.182a4 4 0 0 1 5.657 0l4.596 4.596 4.596-4.596a4 4 0 0 1 5.657 0l3.182 3.182a4 4 0 0 1 0 5.657l-4.596 4.596 4.596 4.596a4 4 0 0 1 0 5.657l-3.182 3.182a4 4 0 0 1-5.657 0l-4.596-4.596-4.596 4.596a4 4 0 0 1-5.657 0zm11.257 42.997a4 4 0 0 1-4-4v-6.5h-6.5a4 4 0 0 1-4-4v-4.5a4 4 0 0 1 4-4h6.5v-6.5a4 4 0 0 1 4-4h4.5a4 4 0 0 1 4 4v6.5h6.5a4 4 0 0 1 4 4v4.5a4 4 0 0 1-4 4h-6.5v6.5a4 4 0 0 1-4 4zm-26.997-3.315a4 4 0 0 1-5.657 0l-4.596-4.596-4.596 4.596a4 4 0 0 1-5.657 0l-3.182-3.182a4 4 0 0 1 0-5.657l4.596-4.596-4.596-4.596a4 4 0 0 1 0-5.657l3.182-3.182a4 4 0 0 1 5.657 0l4.596 4.596 4.596-4.596a4 4 0 0 1 5.657 0l3.182 3.182a4 4 0 0 1 0 5.657l-4.596 4.596 4.596 4.596a4 4 0 0 1 0 5.657z" fill="#479a47"/><path d="M128.777 47.941q0 .75-4.48.75t-4.48-.75V26.197l-4.763.043q-1.32 0-1.319-4.239 0-1.456.285-2.817.285-1.37.99-1.37h12.087q.75 0 1.215.336.465.328.465.81zm16.289 1.189q-5.532 0-9.037-4.058-3.507-4.058-3.507-11.863t3.524-11.793q3.532-3.998 9.114-3.998t9.02 3.972 3.438 11.957q0 7.978-3.507 11.88-3.505 3.903-9.045 3.903m.008-23.243q-1.696 0-2.869 1.92-1.17 1.913-1.171 5.445 0 3.533 1.12 5.41 1.128 1.87 2.912 1.87 1.791 0 2.911-1.895 1.13-1.905 1.129-5.428 0-3.531-1.172-5.427-1.162-1.896-2.86-1.895m44.085 15.748h-17.42q-.801 0-1.145-1.284a4.8 4.8 0 0 1-.181-1.275q0-.62.18-1.283.345-1.275 1.147-1.275h17.419q.792 0 1.146 1.275.18.663.18 1.283 0 .621-.18 1.275-.354 1.284-1.146 1.284m0-9.882h-17.42q-.801 0-1.145-1.283a4.8 4.8 0 0 1-.181-1.275q0-.621.18-1.284.345-1.275 1.147-1.275h17.419q.792 0 1.146 1.275.18.663.18 1.284 0 .62-.18 1.275-.354 1.284-1.146 1.283m27.388-4.988q.18-.353 2.206-.353 6.615 0 6.444.491l-5.385 11.157 5.428 10.148q0 .258-2.645.44-2.644.171-3.748.172-2.783 0-2.955-.569l-2.386-7.366-2.73 7.676q-.096.302-2.525.302-2.421 0-4.316-.173-1.896-.17-1.723-.439l4.988-10.148q-5.203-10.89-5.203-10.941 0-.259 1.344-.474 1.344-.225 3.04-.224a32 32 0 0 1 3.24.155q1.55.146 1.723.413l2.343 7.15zm33.214-3.394v7.409h7.46q.794 0 1.147 1.284a5 5 0 0 1 .172 1.283q0 .612-.172 1.275-.354 1.275-1.146 1.275h-7.46v7.547q0 .792-1.276 1.146a4.8 4.8 0 0 1-1.283.172l-1.275-.172q-1.284-.354-1.284-1.146v-7.547h-7.495q-.792 0-1.146-1.275a4.8 4.8 0 0 1-.18-1.275q0-.62.18-1.283.354-1.284 1.146-1.284h7.495v-7.409q0-.792 1.284-1.146a4.7 4.7 0 0 1 1.275-.172l1.283.172q1.275.354 1.275 1.146m38.111-5.557q.844 0 .844 3.662 0 1.145-.206 2.714-.2 1.567-.724 1.567h-8.598l-.052 3.214h1.456q4.722 0 7.039 2.74 2.317 2.73 2.317 7.236 0 4.497-3.179 7.34-3.17 2.843-8.158 2.843t-7.28-1.413q-.353-.57-.353-1.783 0-1.215.353-3.438.354-2.23.974-2.23.043 0 .267.18 3.127 1.275 4.781 1.275t2.731-.905q1.086-.904 1.086-2.317 0-3.524-3.791-3.524l-3.8.044q-.438.086-.878-.37-.44-.467-.44-1.224V19.624q0-1.81 1.319-1.81z" fill="#59c059"/><path d="M117.538 21.234h74.222v74.221h-74.222z" fill="none"/><path d="M120.425 59.344c0-19.178 15.546-34.724 34.724-34.724s34.724 15.546 34.724 34.724-15.546 34.725-34.724 34.725-34.724-15.547-34.724-34.725z" fill="none" stroke-opacity=".502" stroke="#000" stroke-width="15"/><path d="M119.386 59.344c0-19.751 16.012-35.763 35.763-35.763s35.763 16.012 35.763 35.763c0 19.752-16.012 35.763-35.763 35.763s-35.763-16.011-35.763-35.763z" fill="#59c059" stroke="#479a47" stroke-width="4.5"/><path d="M160.598 37.372c-3.122-.284-5.875 2.015-6.159 5.165l-.71 8.202h8.004v5.676h-8.514l-1.249 14.39a11.31 11.31 0 0 1-12.288 10.301 11.37 11.37 0 0 1-8.685-5.307l4.257-4.257c.681 2.1 2.554 3.718 4.91 3.917 3.122.284 5.875-2.015 6.159-5.165l1.22-13.879h-8.514v-5.676h8.996l.767-8.712c.539-6.244 6.045-10.87 12.288-10.302 3.718.312 6.84 2.383 8.685 5.307l-4.257 4.257c-.681-2.1-2.554-3.718-4.91-3.917m7.671 43.497a2.503 2.503 0 0 1-2.502-2.503V73.28h-5.086a2.503 2.503 0 0 1-2.503-2.503v-2.302a2.503 2.503 0 0 1 2.503-2.503h5.086v-5.086a2.503 2.503 0 0 1 2.503-2.503h2.302a2.503 2.503 0 0 1 2.503 2.503v5.086h5.086a2.503 2.503 0 0 1 2.503 2.503v2.302a2.503 2.503 0 0 1-2.503 2.503h-5.086v5.086a2.503 2.503 0 0 1-2.503 2.503z" fill="#fff"/></g></svg>