<svg version="1.1" xmlns="http://www.w3.org/2000/svg" xmlns:xlink="http://www.w3.org/1999/xlink" width="309.2973" height="159.64866" viewBox="0,0,309.2973,159.64866"><defs><linearGradient x1="240.00002" y1="105.17568" x2="240.00002" y2="254.82434" gradientUnits="userSpaceOnUse" id="color-1"><stop offset="0" stop-color="#002859"/><stop offset="1" stop-color="#003da6"/></linearGradient></defs><g transform="translate(-85.35136,-100.17568)"><g data-paper-data="{&quot;isPaintingLayer&quot;:true}" fill-rule="nonzero" stroke-linejoin="miter" stroke-miterlimit="10" stroke-dasharray="" stroke-dashoffset="0" style="mix-blend-mode: normal"><path d="M385.50002,107v146h-291v-146z" data-paper-data="{&quot;index&quot;:null}" fill="#005fff" stroke="none" stroke-width="0" stroke-linecap="butt"/><path d="M384.76416,107c0.52562,0 0.72988,101.09232 0.72988,101.09232c0,0 -48.77546,7.3393 -69.95355,5.32787c-21.17809,-2.01143 -32.81657,-19.29351 -51.09508,-16.82466c-18.2785,2.46885 -19.89419,24.16807 -36.8243,28.6998c-16.9301,4.53173 -25.46242,-9.49881 -43.98858,-7.06838c-18.52616,2.43043 -23.85478,17.53498 -43.54923,18.55235c-19.69445,1.01737 -45.57731,0.07309 -45.57731,-13.94824c0,-40.73237 0,-115.83105 0,-115.83105c0,0 229.91025,0 290.25817,0z" data-paper-data="{&quot;index&quot;:null}" fill="#006bff" stroke="none" stroke-width="0" stroke-linecap="butt"/><path d="M379.94674,107c4.33546,0 10.23492,72.63097 -26.37694,82.10439c-16.48813,4.26635 -26.93444,-14.13034 -40.42304,-16.06793c-13.48859,-1.93759 -18.20304,1.1849 -34.47118,5.30966c-16.26814,4.12476 -23.46705,-11.26514 -41.79331,-4.88163c-18.32627,6.38351 -24.76828,27.84813 -37.30291,32.43291c-12.53463,4.58478 -19.9638,-9.10341 -33.11884,-6.67482c-13.15505,2.42859 -7.52229,17.87449 -27.10547,17.793c-19.58317,-0.08149 -44.85503,-6.96516 -44.85503,-18.09244c0,-32.32507 0,-91.92314 0,-91.92314c0,0 231.6313,0 285.44672,0z" data-paper-data="{&quot;index&quot;:null}" fill="#0077ff" stroke="none" stroke-width="0" stroke-linecap="butt"/><path d="M368.50002,107c6.86658,0 -2.51343,29.50757 -37.09389,44.86027c-7.4823,3.32192 -41.06171,-2.41606 -57.117,-1.71485c-29.34758,1.28175 -45.79706,7.6897 -60.12439,14.3795c-25.17273,11.7538 -26.03069,16.6951 -49.03045,22.87677c-18.03939,4.84847 -39.29596,-8.02645 -52.94341,-10.296c-12.10526,-2.01308 -17.69085,7.08981 -17.69085,2.93383c0,-25.68458 0,-73.03951 0,-73.03951c0,0 223.72018,0 274,0z" data-paper-data="{&quot;index&quot;:null}" fill="#0084ff" stroke="none" stroke-width="0" stroke-linecap="butt"/><path d="M335.50002,107c6.86658,0 -11.01343,14.34458 -45.59389,23.51785c-21.15925,5.61299 -53.57597,4.66951 -75.74139,10.85343c-25.17273,7.02292 -29.53069,15.35288 -52.53045,19.04645c-34.04028,5.46658 -67.13426,-4.49367 -67.13426,-9.77644c0,-15.34661 0,-43.6413 0,-43.6413c0,0 190.72018,0 241,0z" data-paper-data="{&quot;index&quot;:null}" fill="#0090ff" stroke="none" stroke-width="0" stroke-linecap="butt"/><g data-paper-data="{&quot;index&quot;:null}" stroke="none" stroke-width="1" stroke-linecap="butt"><path d="M382.40529,160.30838l-12.89993,0.47359l6.0394,-11.40869z" fill="#99dfff"/><path d="M368.1231,167.24364l-12.49596,-3.23783l9.05167,-9.20325z" fill="#66cfff"/><path d="M352.8371,169.8235l-10.95369,-6.83003l11.39159,-6.07158z" fill="#33beff"/><path d="M342.01666,168.6747l-12.87167,-0.97607l7.28073,-10.65944z" fill="#33beff"/><path d="M331.74769,173.88464l-12.50037,3.22078l3.46043,-12.43615z" fill="#33beff"/><path d="M323.56333,182.07964l-10.50805,7.49756l-1.23955,-12.84897z" fill="#33beff"/><path d="M316.38128,197.25612l-12.45971,3.37462l3.30687,-12.47786z" fill="#66cfff"/><path d="M305.47727,208.57194l-12.89994,0.47358l6.0394,-11.40869z" fill="#33beff"/><path d="M291.19508,215.5072l-12.49597,-3.23784l9.05167,-9.20324z" fill="#66cfff"/><path d="M275.90907,218.08706l-10.95369,-6.83003l11.39159,-6.07158z" fill="#99dfff"/><path d="M265.08864,216.93825l-12.87167,-0.97606l7.28073,-10.65943z" fill="#33beff"/><path d="M254.81966,222.1482l-12.50035,3.22078l3.46043,-12.43616z" fill="#66cfff"/><path d="M246.6353,230.34321l-10.50805,7.49756l-1.23954,-12.84898z" fill="#33beff"/><path d="M365.32075,174.95231l12.89993,-0.47359l-6.0394,11.40869z" data-paper-data="{&quot;index&quot;:null}" fill="#33beff"/><path d="M374.93711,167.53129l12.2249,-4.14538l-2.52196,12.65986z" data-paper-data="{&quot;index&quot;:null}" fill="#33beff"/><path d="M240.77069,249.54484l10.42338,-7.61482l1.38342,12.83428z" data-paper-data="{&quot;index&quot;:null}" fill="#33beff"/><path d="M248.20775,234.42525l12.76545,-1.91726l-4.72188,12.01401z" data-paper-data="{&quot;index&quot;:null}" fill="#33beff"/><path d="M261.04659,225.39395l12.70288,2.29552l-8.33904,9.85357z" data-paper-data="{&quot;index&quot;:null}" fill="#33beff"/><path d="M276.64348,220.83414l11.02952,6.70687l-11.32284,6.19884z" data-paper-data="{&quot;index&quot;:null}" fill="#66cfff"/><path d="M288.92594,221.67494l12.67361,2.45193l-8.45986,9.75003z" data-paper-data="{&quot;index&quot;:null}" fill="#33beff"/><path d="M301.21216,218.04783l12.89993,-0.47358l-6.0394,11.40868z" data-paper-data="{&quot;index&quot;:null}" fill="#66cfff"/><path d="M310.82852,210.62681l12.22492,-4.14539l-2.52198,12.65987z" data-paper-data="{&quot;index&quot;:null}" fill="#33beff"/><path d="M317.69871,201.28128l10.42339,-7.61482l1.38341,12.83429z" data-paper-data="{&quot;index&quot;:null}" fill="#33beff"/><path d="M325.13577,186.16169l12.76545,-1.91726l-4.72188,12.01401z" data-paper-data="{&quot;index&quot;:null}" fill="#99dfff"/><path d="M337.97462,177.13038l12.70288,2.29552l-8.33904,9.85357z" data-paper-data="{&quot;index&quot;:null}" fill="#66cfff"/><path d="M353.57151,172.57058l11.02952,6.70687l-11.32285,6.19884z" data-paper-data="{&quot;index&quot;:null}" fill="#99dfff"/></g><g stroke="none" stroke-width="1" stroke-linecap="butt"><path d="M98.67304,178.40096l11.30796,0.52977l-6.11241,9.52833z" fill="#99dfff"/><path d="M111.66163,173.38495l10.68344,3.74364l-8.58353,7.38063z" fill="#33beff"/><path d="M125.20886,172.24857l9.07287,6.77007l-10.39931,4.47269z" fill="#66cfff"/><path d="M134.58086,174.04404l11.17722,1.79456l-7.14241,8.78275z" fill="#33beff"/><path d="M143.93608,170.24223l11.15974,-1.90025l-3.9338,10.61488z" fill="#33beff"/><path d="M151.6879,163.67926l9.73149,-5.78349l0.14333,11.31946z" fill="#33beff"/><path d="M159.07449,150.94183l11.13546,-2.03766l-3.80266,10.66257z" fill="#33beff"/><path d="M169.43133,141.85051l11.30796,0.52976l-6.11241,9.52833z" fill="#99dfff"/><path d="M182.41992,136.8345l10.68344,3.74364l-8.58353,7.38063z" fill="#66cfff"/><path d="M195.96715,135.69813l9.07286,6.77006l-10.39931,4.47269z" fill="#33beff"/><path d="M205.33915,137.4936l11.17721,1.79455l-7.1424,8.78275z" fill="#33beff"/><path d="M214.69437,133.69178l11.15973,-1.90025l-3.9338,10.61489z" fill="#33beff"/><path d="M222.44619,127.12881l9.73148,-5.78348l0.14334,11.31946z" fill="#66cfff"/><path d="M114.67451,166.8533l-11.30796,-0.52977l6.11242,-9.52833z" data-paper-data="{&quot;index&quot;:null}" fill="#66cfff"/><path d="M105.72787,172.63512l-10.98664,2.72842l3.13004,-10.87904z" data-paper-data="{&quot;index&quot;:null}" fill="#33beff"/><path d="M228.97592,110.7774l-9.66608,5.89216l-0.27014,-11.31713z" data-paper-data="{&quot;index&quot;:null}" fill="#33beff"/><path d="M221.37063,123.44647l-11.29603,0.7417l5.0053,-10.15369z" data-paper-data="{&quot;index&quot;:null}" fill="#33beff"/><path d="M209.49005,130.3998l-10.9332,-2.93529l8.00833,-8.00107z" data-paper-data="{&quot;index&quot;:null}" fill="#66cfff"/><path d="M195.5263,133.24371l-9.14814,-6.66798l10.34854,-4.58893z" data-paper-data="{&quot;index&quot;:null}" fill="#99dfff"/><path d="M184.8541,131.61047l-10.89617,-3.06984l8.10634,-7.90176z" data-paper-data="{&quot;index&quot;:null}" fill="#33beff"/><path d="M173.85178,133.88147l-11.30796,-0.52977l6.11241,-9.52832z" data-paper-data="{&quot;index&quot;:null}" fill="#33beff"/><path d="M164.90515,139.6633l-10.98665,2.72842l3.13004,-10.87904z" data-paper-data="{&quot;index&quot;:null}" fill="#66cfff"/><path d="M158.21762,147.32785l-9.66607,5.89216l-0.27015,-11.31714z" data-paper-data="{&quot;index&quot;:null}" fill="#33beff"/><path d="M150.61234,159.99692l-11.29604,0.7417l5.0053,-10.15369z" data-paper-data="{&quot;index&quot;:null}" fill="#66cfff"/><path d="M138.73176,166.95024l-10.93319,-2.93529l8.00833,-8.00107z" data-paper-data="{&quot;index&quot;:null}" fill="#99dfff"/><path d="M124.76801,169.79416l-9.14814,-6.66798l10.34854,-4.58893z" data-paper-data="{&quot;index&quot;:null}" fill="#33beff"/></g><path d="M90.35136,117.67134c0,-6.39897 5.91545,-12.49566 13.1192,-12.49566c28.93252,0 219.72832,0 272.60996,0c8.61359,0 13.56814,4.64378 13.56814,12.24625c0,30.59212 0,109.0924 0,125.70487c0,6.03964 -4.85913,11.69754 -13.31873,11.69754c-52.46667,0 -243.42599,0 -272.60996,0c-7.3279,0 -13.36861,-4.5235 -13.36861,-11.94695c0,-30.16113 0,-108.19342 0,-125.20604z" fill="none" stroke="url(#color-1)" stroke-width="10" stroke-linecap="butt"/><g><path d="M285.62604,193.93774c1.46738,1.11871 1.26481,3.85159 -0.45244,6.10405c-1.53444,2.01267 -3.75903,2.96077 -5.26214,2.34171c-0.15479,-0.06375 -65.52404,-49.85905 -65.53412,-49.86673c-1.46738,-1.11871 -1.2648,-3.85158 0.45244,-6.10405c1.71725,-2.25247 4.2989,-3.17158 5.76628,-2.05287c0.07423,0.05659 64.95576,49.52129 65.02998,49.57789z" fill="none" stroke-opacity="0.50196" stroke="#000000" stroke-width="6" stroke-linecap="butt"/><g><path d="M221.69609,158.09651l6.2187,-8.15692l49.82334,37.98456l-6.21872,8.15693z" fill="#000000" stroke="none" stroke-width="0.5" stroke-linecap="butt"/><path d="M214.82979,146.41271c1.71725,-2.25247 4.2989,-3.17157 5.76628,-2.05286c1.46738,1.11871 1.2648,3.85159 -0.45245,6.10405c-1.71725,2.25247 -4.2989,3.17157 -5.76628,2.05286c-1.46738,-1.11871 -1.2648,-3.85158 0.45245,-6.10405z" fill="#ffffff" stroke="none" stroke-width="0" stroke-linecap="butt"/><path d="M214.59779,152.68486l6.21872,-8.15693l10.69218,8.15156c0,0 -0.04751,2.32685 -1.8426,4.93171c-1.63967,2.37933 -4.37611,3.2252 -4.37611,3.2252z" fill="#ffffff" stroke="none" stroke-width="0" stroke-linecap="butt"/><path d="M220.37494,144.36875c0,0 2.90569,1.92141 -0.11598,5.94345c-3.02268,4.02338 -5.89218,1.85823 -5.89218,1.85823" fill="none" stroke="#999999" stroke-width="0.75" stroke-linecap="round"/><path d="M279.40731,202.09465c-1.46738,-1.11871 -1.26479,-3.85158 0.45245,-6.10406c1.71725,-2.25246 4.29889,-3.17156 5.76627,-2.05286c1.46738,1.11871 1.26481,3.85159 -0.45244,6.10405c-1.71725,2.25246 -4.29889,3.17156 -5.76627,2.05285z" data-paper-data="{&quot;index&quot;:null}" fill="#ffffff" stroke="none" stroke-width="0" stroke-linecap="butt"/><path d="M268.49466,193.77505c0,0 2.73646,-0.84588 4.59657,-3.05713c2.03644,-2.42086 1.62214,-5.09978 1.62214,-5.09978l10.69218,8.15156l-6.21872,8.15691z" data-paper-data="{&quot;index&quot;:null}" fill="#ffffff" stroke="none" stroke-width="0" stroke-linecap="butt"/></g></g><path d="M115.85176,234.50128v-25.65119c0,-0.89679 0.40716,-1.34517 1.22148,-1.34517h6.96556c3.9067,0 6.72332,0.80659 8.4499,2.41978c1.73172,1.60803 2.59759,3.94277 2.59759,7.00421c0,2.53059 -0.81948,4.85245 -2.45843,6.96556c-0.81433,1.05141 -2.01519,1.89408 -3.60261,2.52801c-1.58227,0.63393 -3.42738,0.9509 -5.53534,0.9509v7.08925c0,0.31439 -0.49478,0.53086 -1.48434,0.64939c-0.98956,0.11855 -1.84254,0.17781 -2.55894,0.17781c0,0 -3.59487,-0.26285 -3.59487,-0.78855zM123.48992,214.39318v6.25432h0.51024c0.92256,0 1.7008,-0.28862 2.33474,-0.86587c0.63393,-0.5824 0.9509,-1.40187 0.9509,-2.45843c0,-1.05656 -0.21904,-1.80904 -0.65713,-2.25743c-0.43293,-0.4484 -1.20345,-0.67258 -2.31154,-0.67258zM139.87479,220.84073c-0.73701,-1.31941 -1.10553,-2.394 -1.10553,-3.2238c0,-0.82978 0.22419,-1.36322 0.67259,-1.6003c1.4998,-0.65971 3.56138,-0.98956 6.18474,-0.98956c2.62852,0 4.48393,0.61332 5.56626,1.83996c1.08233,1.22664 1.6235,3.04083 1.6235,5.44257v6.25432h1.34518c0.4484,0 0.79886,0.26544 1.0514,0.79628c0.25255,0.5257 0.37882,1.24983 0.37882,2.17239c0,0.92256 -0.23192,1.83223 -0.69578,2.72901c-0.46385,0.89679 -1.09006,1.34518 -1.87861,1.34518c-1.42764,0 -2.57698,-0.38139 -3.44799,-1.14418c-0.3917,-0.31954 -0.69321,-0.70351 -0.90452,-1.15191c-1.21633,1.53073 -3.10525,2.29609 -5.66676,2.29609c-1.92243,0 -3.54334,-0.68547 -4.86275,-2.05643c-1.31941,-1.37095 -1.97911,-2.99445 -1.97911,-4.87048c0,-4.29839 2.57181,-6.44759 7.71546,-6.44759h2.18012v-0.40201c0,-0.68547 -0.11338,-1.12614 -0.34016,-1.32199c-0.22162,-0.19585 -0.74217,-0.29377 -1.56165,-0.29377c-1.00502,0 -2.43009,0.20873 -4.2752,0.62621zM143.04447,228.13102c0,0.57724 0.1572,1.0179 0.47159,1.32199c0.31439,0.30409 0.7164,0.45612 1.20602,0.45612c0.48962,0 0.93286,-0.19842 1.32972,-0.59528v-3.04598h-1.11325c-1.26271,0 -1.89408,0.62105 -1.89408,1.86315zM166.51582,235.17389c0,0.18554 -1.20086,0.27831 -3.60261,0.27831c-2.40174,-0.0567 -3.60261,-0.16235 -3.60261,-0.31697v-13.14256h-1.06686c-0.42262,0 -0.76021,-0.2577 -1.01275,-0.7731c-0.25255,-0.51539 -0.37882,-1.15448 -0.37882,-1.91726c0,-2.85013 0.84525,-4.2752 2.53574,-4.2752c1.18541,0 2.17497,0.36336 2.96868,1.09006c0.7937,0.72156 1.19056,1.54618 1.19056,2.47389c0.55147,-1.08233 1.29622,-1.94562 2.23424,-2.58986c0.93802,-0.64939 1.89408,-0.9741 2.86817,-0.9741c1.53072,0 2.45585,0.39428 2.7754,1.18283c0.07731,0.21131 0.11596,0.52313 0.11596,0.93544c0,0.40716 -0.12627,1.13902 -0.37881,2.19558c-0.24739,1.05656 -0.50509,1.82191 -0.7731,2.29608c-0.26285,0.47416 -0.42005,0.71124 -0.47159,0.71124c-0.05154,0 -0.29635,-0.09792 -0.73443,-0.29378c-0.43293,-0.20101 -0.82205,-0.30151 -1.16737,-0.30151c-0.99987,0 -1.4998,0.79113 -1.4998,2.37339zM182.62336,234.97289c0,0.31954 -1.1081,0.47932 -3.3243,0.47932c-2.63882,-0.10824 -3.95823,-0.28089 -3.95823,-0.51797v-14.00843h-2.01777c-0.53086,0 -0.79628,-0.91225 -0.79628,-2.73674c0,-0.47416 0.04639,-1.05399 0.13916,-1.73946c0.09277,-0.68547 0.28604,-1.02821 0.57982,-1.02821h2.09508v-3.48664c0,-0.5257 1.11325,-0.78855 3.33975,-0.78855c2.23166,0 3.34749,0.21131 3.34749,0.63393v2.53574l0.03865,1.10553h3.37068c0.4484,0 0.67259,0.92513 0.67259,2.7754c0,1.84511 -0.22419,2.76767 -0.67259,2.76767h-2.81405zM195.3265,234.97289c0,0.21131 -1.2086,0.31697 -3.6258,0.31697c-2.41205,0 -3.61807,-0.09277 -3.61807,-0.27831v-19.43553c0,-0.18039 1.20602,-0.27058 3.61807,-0.27058c2.4172,0 3.6258,0.07731 3.6258,0.23193zM195.3265,213.20262c0,0.18554 -1.2086,0.27831 -3.6258,0.27831c-2.41205,0 -3.61807,-0.07988 -3.61807,-0.23966v-5.69769c0,-0.26285 1.20602,-0.39428 3.61807,-0.39428c2.4172,0 3.6258,0.07988 3.6258,0.23966zM205.38255,225.39427c0,2.58728 0.97667,3.88092 2.93002,3.88092c1.26787,0 2.32443,-0.24997 3.16968,-0.7499c0.3917,0 0.71382,0.68032 0.96636,2.04096c0.25255,1.35549 0.37882,2.27804 0.37882,2.76766c0,0.48962 -0.067,0.81175 -0.20101,0.96637c-1.39672,0.87102 -3.30883,1.30652 -5.73635,1.30652c-2.42751,0 -4.49424,-0.90194 -6.2002,-2.70582c-1.7008,-1.80904 -2.5512,-4.27777 -2.5512,-7.40622c0,-3.12845 0.83751,-5.65388 2.51255,-7.5763c1.67504,-1.92757 3.90412,-2.89137 6.68725,-2.89137c2.78828,0 4.72359,0.67259 5.80592,2.01777c0.23708,0.28862 0.35562,0.7164 0.35562,1.28333c0,0.56694 -0.10566,1.26014 -0.31697,2.07962c-0.47416,1.69049 -1.09521,2.66717 -1.86315,2.93002c-0.10308,0.02577 -0.25512,0.03865 -0.45612,0.03865c-0.19585,0 -0.44067,-0.1572 -0.73444,-0.47159c-1.02563,-1.03079 -1.85027,-1.54619 -2.47389,-1.54619c-0.61847,0 -1.15191,0.31697 -1.6003,0.9509c-0.4484,0.63393 -0.67259,1.66215 -0.67259,3.08464zM222.87668,234.89558c0,0.23708 -1.34518,0.35562 -4.03554,0.35562c-2.11312,-0.02577 -3.16968,-0.13143 -3.16968,-0.31697v-26.95772c0,-0.3917 1.28076,-0.58755 3.84227,-0.58755c2.24196,0.07731 3.36295,0.20874 3.36295,0.39428zM234.98824,235.60682c-2.61305,0 -4.81636,-0.88905 -6.60994,-2.66717c-1.79357,-1.78326 -2.69036,-4.252 -2.69036,-7.40622c0,-3.15422 0.86329,-5.69253 2.58986,-7.61496c1.73172,-1.92757 3.917,-2.89137 6.55582,-2.89137c2.63882,0 4.67721,0.67259 6.11516,2.01777c1.43795,1.34518 2.15692,2.98156 2.15692,4.90913c0,4.27262 -2.45328,6.40893 -7.35984,6.40893h-2.73674c0,0.7937 0.21647,1.34261 0.64939,1.64668c0.43809,0.30409 1.07975,0.45612 1.925,0.45612c1.85027,0 3.60519,-0.42262 5.26476,-1.26787c0.02577,-0.02577 0.14431,0.1572 0.35562,0.54889c0.63393,1.13902 0.9509,2.09765 0.9509,2.8759c0,0.77825 -0.24997,1.28591 -0.7499,1.52299c0,0 -3.8036,1.46118 -6.41665,1.46118zM236.45712,222.70391c0,-1.1081 -0.54117,-1.66215 -1.6235,-1.66215c-0.49993,0 -0.93029,0.15204 -1.29106,0.45612c-0.35562,0.30409 -0.53344,0.74474 -0.53344,1.32199v1.22922h2.14147c0.87102,0 1.30652,-0.4484 1.30652,-1.34518zM266.18153,218.50603c0.49993,0 0.7499,0.92514 0.7499,2.77541c0,0.55147 0.77407,1.20345 0.65553,1.95593c-0.11855,0.75248 -1.16834,1.12871 -1.48273,1.12871h-5.0251v3.95823h7.28253c0.4484,0 0.7499,0.57982 0.90452,1.73946c0.08246,0.50508 0.12369,1.0411 0.12369,1.60803c0,0.56694 -0.07988,1.29879 -0.23966,2.19558c-0.15977,0.89679 -0.42263,1.34518 -0.78856,1.34518h-13.53684c-1.00502,0 -1.50753,-0.40974 -1.50753,-1.22922v-25.45019c0,-0.68547 0.30409,-1.02821 0.91225,-1.02821h14.17078c0.55147,0 0.82721,1.16738 0.82721,3.50211c0,2.33474 -0.27573,3.50211 -0.82721,3.50211h-7.32118v3.99688zM280.90242,234.97289c0,0.18554 -0.94833,0.27831 -2.84498,0.27831c-2.63882,-0.07731 -3.95823,-0.22162 -3.95823,-0.43293v-12.8256h-1.02821c-0.68547,0 -1.13386,-0.57982 -1.34517,-1.73945c-0.0567,-0.34532 -0.08504,-0.68805 -0.08504,-1.02821c0,-0.81948 0.15977,-1.63895 0.47932,-2.45843c0.47416,-1.15963 1.21117,-1.73946 2.21104,-1.73946c1.00502,0 1.90181,0.23708 2.69036,0.71124c0.7937,0.47416 1.32457,0.94833 1.59258,1.42249c1.65957,-1.42249 3.63611,-2.13373 5.92962,-2.13373c2.29866,0 3.96081,0.62105 4.98644,1.86315c1.03079,1.23695 1.54619,3.2676 1.54619,6.09196v11.87469c0,0.31439 -1.12871,0.47159 -3.38614,0.47159c-2.25228,0 -3.37841,-0.1572 -3.37841,-0.47159v-11.44176c0,-1.31941 -0.46128,-1.97911 -1.38384,-1.97911c-0.26801,0 -0.63908,0.11338 -1.11325,0.34016c-0.47416,0.22162 -0.77825,0.38655 -0.91225,0.49478zM301.72264,235.21255c-2.55636,0 -4.53547,-0.82463 -5.93735,-2.4739c-1.39671,-1.64926 -2.09506,-4.08965 -2.09506,-7.32118c0,-3.23153 0.91739,-5.76469 2.75219,-7.5995c1.8348,-1.8348 4.2752,-2.75221 7.32118,-2.75221c3.05114,0 5.56626,0.67259 7.54538,2.01778v19.71384c0,1.95335 -0.7937,3.45057 -2.38113,4.49166c-1.58227,1.0411 -3.61292,1.56165 -6.09196,1.56165c-2.47905,0 -4.69525,-0.31697 -6.6486,-0.9509c-0.26801,-0.63393 -0.40201,-1.20087 -0.40201,-1.7008c0,-1.69049 0.27831,-2.93002 0.83494,-3.71857c1.7678,0.76278 3.65415,1.14418 5.65904,1.14418c1.45341,0 2.18012,-0.51282 2.18012,-1.53846v-1.19056c-1.13387,0.21131 -2.04612,0.31697 -2.73674,0.31697zM303.54712,221.51335c-1.7678,0 -2.65171,1.33487 -2.65171,4.00462c0,1.65957 0.34274,2.73932 1.02821,3.23926c0.4484,0.34532 0.89679,0.51797 1.34518,0.51797c0.4484,0 0.84525,-0.03865 1.19056,-0.11597v-7.52219c-0.31954,-0.08246 -0.62362,-0.12369 -0.91225,-0.12369zM322.10845,234.97289c0,0.21131 -1.2086,0.31697 -3.6258,0.31697c-2.41205,0 -3.61807,-0.09277 -3.61807,-0.27831v-19.43553c0,-0.18039 1.20602,-0.27058 3.61807,-0.27058c2.4172,0 3.6258,0.07731 3.6258,0.23193zM322.10845,213.20262c0,0.18554 -1.2086,0.27831 -3.6258,0.27831c-2.41205,0 -3.61807,-0.07988 -3.61807,-0.23966v-5.69769c0,-0.26285 1.20602,-0.39428 3.61807,-0.39428c2.4172,0 3.6258,0.07988 3.6258,0.23966zM333.94263,234.97289c0,0.18554 -0.94833,0.27831 -2.84498,0.27831c-2.63882,-0.07731 -3.95823,-0.22162 -3.95823,-0.43293v-12.8256h-1.02821c-0.68547,0 -1.13387,-0.57982 -1.34518,-1.73945c-0.0567,-0.34532 -0.08504,-0.68805 -0.08504,-1.02821c0,-0.81948 0.15978,-1.63895 0.47932,-2.45843c0.47416,-1.15963 1.21117,-1.73946 2.21104,-1.73946c1.00502,0 1.90181,0.23708 2.69036,0.71124c0.7937,0.47416 1.32457,0.94833 1.59257,1.42249c1.65957,-1.42249 3.63611,-2.13373 5.92962,-2.13373c2.29866,0 3.96081,0.62105 4.98645,1.86315c1.03079,1.23695 1.54618,3.2676 1.54618,6.09196v11.87469c0,0.31439 -1.12871,0.47159 -3.38614,0.47159c-2.25228,0 -3.37841,-0.1572 -3.37841,-0.47159v-11.44176c0,-1.31941 -0.46128,-1.97911 -1.38384,-1.97911c-0.26801,0 -0.63908,0.11338 -1.11325,0.34016c-0.47416,0.22162 -0.77825,0.38655 -0.91225,0.49478zM356.0308,235.60682c-2.61305,0 -4.81636,-0.88905 -6.60993,-2.66717c-1.79357,-1.78326 -2.69037,-4.252 -2.69037,-7.40622c0,-3.15422 0.86329,-5.69253 2.58986,-7.61496c1.73172,-1.92757 3.917,-2.89137 6.55582,-2.89137c2.63882,0 4.67721,0.67259 6.11516,2.01777c1.43795,1.34518 2.15692,2.98156 2.15692,4.90913c0,4.27262 -2.45328,6.40893 -7.35983,6.40893h-2.73674c0,0.7937 0.21647,1.34261 0.64939,1.64668c0.43809,0.30409 1.07975,0.45612 1.925,0.45612c1.85027,0 3.60519,-0.42262 5.26476,-1.26787c0.02577,-0.02577 0.14431,0.1572 0.35562,0.54889c0.63393,1.13902 0.9509,2.09765 0.9509,2.8759c0,0.77825 -0.24997,1.28591 -0.7499,1.52299c0,0 -3.80361,1.46118 -6.41666,1.46118zM357.49966,222.70391c0,-1.1081 -0.54116,-1.66215 -1.62349,-1.66215c-0.49993,0 -0.9303,0.15204 -1.29107,0.45612c-0.35562,0.30409 -0.53344,0.74474 -0.53344,1.32199v1.22922h2.14147c0.87102,0 1.30652,-0.4484 1.30652,-1.34518z" fill="none" stroke-opacity="0.50196" stroke="#000000" stroke-width="7.5" stroke-linecap="round"/><path d="M119.44664,235.28986c-2.39658,0 -3.59488,-0.26285 -3.59488,-0.78855v-25.65119c0,-0.89679 0.40716,-1.34518 1.22148,-1.34518h6.96556c3.90669,0 6.72332,0.80659 8.44989,2.41978c1.73172,1.60803 2.59759,3.94277 2.59759,7.00421c0,2.53059 -0.81948,4.85244 -2.45843,6.96556c-0.81433,1.05141 -2.01519,1.89408 -3.60261,2.52801c-1.58226,0.63394 -3.42738,0.9509 -5.53534,0.9509v7.08925c0,0.31439 -0.49478,0.53086 -1.48434,0.64939c-0.98956,0.11854 -1.84254,0.17781 -2.55894,0.17781zM123.48992,214.39318v6.25432h0.51024c0.92256,0 1.7008,-0.28862 2.33474,-0.86587c0.63394,-0.5824 0.9509,-1.40187 0.9509,-2.45843c0,-1.05656 -0.21904,-1.80904 -0.65713,-2.25743c-0.43293,-0.44839 -1.20345,-0.67259 -2.31154,-0.67259zM139.87479,220.84073c-0.73701,-1.31941 -1.10553,-2.39401 -1.10553,-3.2238c0,-0.82978 0.22419,-1.36322 0.67259,-1.6003c1.4998,-0.65971 3.56138,-0.98956 6.18473,-0.98956c2.62851,0 4.48393,0.61332 5.56626,1.83996c1.08233,1.22664 1.6235,3.04083 1.6235,5.44257v6.25432h1.34518c0.44839,0 0.79886,0.26543 1.05141,0.79628c0.25255,0.5257 0.37882,1.24984 0.37882,2.17239c0,0.92256 -0.23193,1.83223 -0.69578,2.72901c-0.46385,0.89679 -1.09006,1.34518 -1.87861,1.34518c-1.42764,0 -2.57697,-0.38139 -3.44799,-1.14418c-0.3917,-0.31954 -0.6932,-0.70351 -0.90452,-1.15191c-1.21633,1.53073 -3.10525,2.29608 -5.66676,2.29608c-1.92242,0 -3.54334,-0.68548 -4.86275,-2.05643c-1.31941,-1.37095 -1.97911,-2.99445 -1.97911,-4.87048c0,-4.29839 2.57182,-6.44759 7.71546,-6.44759h2.18012v-0.40201c0,-0.68548 -0.11339,-1.12613 -0.34016,-1.32199c-0.22162,-0.19585 -0.74217,-0.29378 -1.56165,-0.29378c-1.00502,0 -2.43009,0.20874 -4.2752,0.62621zM143.04447,228.13102c0,0.57724 0.1572,1.0179 0.47159,1.32199c0.31439,0.30409 0.7164,0.45612 1.20602,0.45612c0.48963,0 0.93286,-0.19843 1.32972,-0.59528v-3.04599h-1.11325c-1.26271,0 -1.89408,0.62105 -1.89408,1.86316zM166.51582,235.17389c0,0.18554 -1.20087,0.27831 -3.60261,0.27831c-2.40174,-0.0567 -3.60261,-0.16235 -3.60261,-0.31696v-13.14256h-1.06687c-0.42262,0 -0.76021,-0.2577 -1.01275,-0.7731c-0.25255,-0.51539 -0.37882,-1.15449 -0.37882,-1.91727c0,-2.85013 0.84525,-4.2752 2.53574,-4.2752c1.18541,0 2.17497,0.36335 2.96867,1.09006c0.7937,0.72156 1.19056,1.54618 1.19056,2.4739c0.55147,-1.08233 1.29622,-1.94562 2.23424,-2.58986c0.93802,-0.64939 1.89408,-0.97409 2.86817,-0.97409c1.53072,0 2.45584,0.39428 2.7754,1.18283c0.07731,0.21131 0.11597,0.52313 0.11597,0.93544c0,0.40716 -0.12627,1.13902 -0.37882,2.19558c-0.24739,1.05656 -0.50508,1.82192 -0.7731,2.29608c-0.26285,0.47416 -0.42005,0.71124 -0.47159,0.71124c-0.05154,0 -0.29636,-0.09792 -0.73444,-0.29378c-0.43293,-0.20101 -0.82205,-0.30151 -1.16736,-0.30151c-0.99987,0 -1.4998,0.79113 -1.4998,2.37339zM182.62336,234.97289c0,0.31954 -1.1081,0.47932 -3.3243,0.47932c-2.63882,-0.10824 -3.95823,-0.28089 -3.95823,-0.51797v-14.00843h-2.01777c-0.53086,0 -0.79628,-0.91225 -0.79628,-2.73674c0,-0.47416 0.04639,-1.05399 0.13916,-1.73945c0.09277,-0.68548 0.28604,-1.02821 0.57982,-1.02821h2.09508v-3.48664c0,-0.5257 1.11325,-0.78855 3.33975,-0.78855c2.23166,0 3.34749,0.21131 3.34749,0.63394v2.53574l0.03865,1.10553h3.37068c0.44839,0 0.67259,0.92513 0.67259,2.7754c0,1.84511 -0.22419,2.76767 -0.67259,2.76767h-2.81406zM195.3265,234.97289c0,0.21131 -1.2086,0.31696 -3.6258,0.31696c-2.41205,0 -3.61807,-0.09277 -3.61807,-0.27831v-19.43553c0,-0.18039 1.20602,-0.27058 3.61807,-0.27058c2.4172,0 3.6258,0.07731 3.6258,0.23193zM195.3265,213.20262c0,0.18554 -1.2086,0.27831 -3.6258,0.27831c-2.41205,0 -3.61807,-0.07988 -3.61807,-0.23966v-5.69769c0,-0.26285 1.20602,-0.39428 3.61807,-0.39428c2.4172,0 3.6258,0.07988 3.6258,0.23966zM205.38255,225.39427c0,2.58728 0.97667,3.88092 2.93002,3.88092c1.26787,0 2.32443,-0.24997 3.16968,-0.7499c0.3917,0 0.71382,0.68032 0.96637,2.04096c0.25255,1.35549 0.37882,2.27804 0.37882,2.76767c0,0.48963 -0.067,0.81175 -0.20101,0.96637c-1.39672,0.87102 -3.30883,1.30652 -5.73635,1.30652c-2.42751,0 -4.49424,-0.90194 -6.2002,-2.70582c-1.7008,-1.80904 -2.5512,-4.27778 -2.5512,-7.40622c0,-3.12845 0.83751,-5.65388 2.51255,-7.5763c1.67504,-1.92757 3.90411,-2.89137 6.68725,-2.89137c2.78828,0 4.72359,0.67259 5.80592,2.01777c0.23708,0.28862 0.35562,0.7164 0.35562,1.28333c0,0.56694 -0.10566,1.26014 -0.31696,2.07962c-0.47416,1.69049 -1.09521,2.66717 -1.86316,2.93002c-0.10308,0.02577 -0.25512,0.03865 -0.45612,0.03865c-0.19585,0 -0.44067,-0.1572 -0.73444,-0.47159c-1.02563,-1.03079 -1.85027,-1.54618 -2.4739,-1.54618c-0.61847,0 -1.15191,0.31696 -1.6003,0.9509c-0.44839,0.63394 -0.67259,1.66215 -0.67259,3.08464zM222.87668,234.89558c0,0.23708 -1.34518,0.35562 -4.03554,0.35562c-2.11312,-0.02577 -3.16968,-0.13142 -3.16968,-0.31696v-26.95772c0,-0.3917 1.28076,-0.58755 3.84227,-0.58755c2.24197,0.07731 3.36295,0.20874 3.36295,0.39428zM241.40491,234.14568c-1.66473,0.97409 -3.80362,1.46114 -6.41666,1.46114c-2.61305,0 -4.81636,-0.88905 -6.60993,-2.66717c-1.79357,-1.78326 -2.69036,-4.252 -2.69036,-7.40622c0,-3.15421 0.86329,-5.69254 2.58986,-7.61496c1.73172,-1.92757 3.917,-2.89137 6.55582,-2.89137c2.63882,0 4.67721,0.67259 6.11516,2.01777c1.43796,1.34518 2.15692,2.98156 2.15692,4.90913c0,4.27262 -2.45328,6.40893 -7.35983,6.40893h-2.73674c0,0.7937 0.21646,1.34261 0.64939,1.64668c0.43809,0.30409 1.07975,0.45612 1.925,0.45612c1.85027,0 3.60519,-0.42262 5.26476,-1.26787c0.02577,-0.02577 0.14431,0.1572 0.35562,0.54889c0.63394,1.13902 0.9509,2.09766 0.9509,2.8759c0,0.77825 -0.24997,1.28591 -0.7499,1.52299zM236.45712,222.70391c0,-1.1081 -0.54117,-1.66215 -1.6235,-1.66215c-0.49993,0 -0.93029,0.15204 -1.29107,0.45612c-0.35562,0.30409 -0.53344,0.74474 -0.53344,1.32199v1.22922h2.14147c0.87102,0 1.30652,-0.44839 1.30652,-1.34518zM266.18153,218.50603c0.49993,0 0.7499,0.92513 0.7499,2.7754c0,0.55147 -0.05927,1.20345 -0.17781,1.95593c-0.11854,0.75248 -0.33501,1.12871 -0.64939,1.12871h-5.0251v3.95823h7.28253c0.44839,0 0.7499,0.57982 0.90452,1.73945c0.08246,0.50508 0.12369,1.0411 0.12369,1.60803c0,0.56694 -0.07988,1.2988 -0.23966,2.19558c-0.15978,0.89679 -0.42262,1.34518 -0.78855,1.34518h-13.53684c-1.00502,0 -1.50753,-0.40974 -1.50753,-1.22922v-25.45019c0,-0.68548 0.30409,-1.02821 0.91225,-1.02821h14.17078c0.55147,0 0.82721,1.16737 0.82721,3.50211c0,2.33474 -0.27573,3.50211 -0.82721,3.50211h-7.32118v3.99689zM280.90242,234.97289c0,0.18554 -0.94833,0.27831 -2.84498,0.27831c-2.63882,-0.07731 -3.95823,-0.22162 -3.95823,-0.43293v-12.8256h-1.02821c-0.68548,0 -1.13387,-0.57982 -1.34518,-1.73945c-0.0567,-0.34532 -0.08504,-0.68805 -0.08504,-1.02821c0,-0.81948 0.15978,-1.63895 0.47932,-2.45843c0.47416,-1.15964 1.21117,-1.73945 2.21104,-1.73945c1.00502,0 1.90181,0.23708 2.69036,0.71124c0.7937,0.47416 1.32457,0.94833 1.59257,1.42249c1.65957,-1.42249 3.63611,-2.13373 5.92962,-2.13373c2.29866,0 3.96081,0.62105 4.98645,1.86316c1.03079,1.23695 1.54618,3.2676 1.54618,6.09196v11.87469c0,0.31439 -1.12871,0.47159 -3.38614,0.47159c-2.25227,0 -3.37842,-0.1572 -3.37842,-0.47159v-11.44176c0,-1.31941 -0.46127,-1.97911 -1.38384,-1.97911c-0.268,0 -0.63909,0.11339 -1.11325,0.34016c-0.47416,0.22162 -0.77825,0.38655 -0.91225,0.49478zM301.72264,235.21255c-2.55636,0 -4.53547,-0.82463 -5.93735,-2.4739c-1.39671,-1.64926 -2.09506,-4.08966 -2.09506,-7.32118c0,-3.23153 0.9174,-5.76469 2.75219,-7.59949c1.8348,-1.8348 4.2752,-2.75221 7.32118,-2.75221c3.05114,0 5.56626,0.67259 7.54538,2.01777v19.71384c0,1.95335 -0.7937,3.45057 -2.38113,4.49166c-1.58226,1.0411 -3.61292,1.56165 -6.09196,1.56165c-2.47905,0 -4.69525,-0.31696 -6.64859,-0.9509c-0.268,-0.63394 -0.40201,-1.20087 -0.40201,-1.7008c0,-1.69049 0.27831,-2.93002 0.83494,-3.71857c1.76781,0.76278 3.65415,1.14418 5.65903,1.14418c1.45341,0 2.18012,-0.51282 2.18012,-1.53845v-1.19056c-1.13387,0.21131 -2.04612,0.31696 -2.73674,0.31696zM303.54712,221.51335c-1.76781,0 -2.65171,1.33487 -2.65171,4.00461c0,1.65957 0.34274,2.73932 1.02821,3.23926c0.44839,0.34532 0.89679,0.51797 1.34518,0.51797c0.44839,0 0.84525,-0.03865 1.19056,-0.11597v-7.52219c-0.31954,-0.08246 -0.62363,-0.12369 -0.91225,-0.12369zM322.10845,234.97289c0,0.21131 -1.2086,0.31696 -3.6258,0.31696c-2.41205,0 -3.61807,-0.09277 -3.61807,-0.27831v-19.43553c0,-0.18039 1.20602,-0.27058 3.61807,-0.27058c2.4172,0 3.6258,0.07731 3.6258,0.23193zM322.10845,213.20262c0,0.18554 -1.2086,0.27831 -3.6258,0.27831c-2.41205,0 -3.61807,-0.07988 -3.61807,-0.23966v-5.69769c0,-0.26285 1.20602,-0.39428 3.61807,-0.39428c2.4172,0 3.6258,0.07988 3.6258,0.23966zM333.94263,234.97289c0,0.18554 -0.94833,0.27831 -2.84498,0.27831c-2.63882,-0.07731 -3.95823,-0.22162 -3.95823,-0.43293v-12.8256h-1.02821c-0.68548,0 -1.13387,-0.57982 -1.34518,-1.73945c-0.0567,-0.34532 -0.08504,-0.68805 -0.08504,-1.02821c0,-0.81948 0.15978,-1.63895 0.47932,-2.45843c0.47416,-1.15964 1.21117,-1.73945 2.21104,-1.73945c1.00502,0 1.90181,0.23708 2.69036,0.71124c0.7937,0.47416 1.32457,0.94833 1.59257,1.42249c1.65957,-1.42249 3.63611,-2.13373 5.92962,-2.13373c2.29866,0 3.96081,0.62105 4.98645,1.86316c1.03079,1.23695 1.54618,3.2676 1.54618,6.09196v11.87469c0,0.31439 -1.12871,0.47159 -3.38614,0.47159c-2.25227,0 -3.37842,-0.1572 -3.37842,-0.47159v-11.44176c0,-1.31941 -0.46127,-1.97911 -1.38384,-1.97911c-0.268,0 -0.63909,0.11339 -1.11325,0.34016c-0.47416,0.22162 -0.77825,0.38655 -0.91225,0.49478zM362.44745,234.14568c-1.66473,0.97409 -3.80362,1.46114 -6.41666,1.46114c-2.61305,0 -4.81636,-0.88905 -6.60993,-2.66717c-1.79357,-1.78326 -2.69036,-4.252 -2.69036,-7.40622c0,-3.15421 0.86329,-5.69254 2.58986,-7.61496c1.73172,-1.92757 3.917,-2.89137 6.55582,-2.89137c2.63882,0 4.67721,0.67259 6.11516,2.01777c1.43796,1.34518 2.15692,2.98156 2.15692,4.90913c0,4.27262 -2.45328,6.40893 -7.35983,6.40893h-2.73674c0,0.7937 0.21646,1.34261 0.64939,1.64668c0.43809,0.30409 1.07975,0.45612 1.925,0.45612c1.85027,0 3.60519,-0.42262 5.26476,-1.26787c0.02577,-0.02577 0.14431,0.1572 0.35562,0.54889c0.63394,1.13902 0.9509,2.09766 0.9509,2.8759c0,0.77825 -0.24997,1.28591 -0.7499,1.52299zM357.49969,222.70391c0,-1.1081 -0.54117,-1.66215 -1.6235,-1.66215c-0.49993,0 -0.93029,0.15204 -1.29107,0.45612c-0.35562,0.30409 -0.53344,0.74474 -0.53344,1.32199v1.22922h2.14147c0.87102,0 1.30652,-0.44839 1.30652,-1.34518z" fill="#ffffff" stroke="none" stroke-width="1" stroke-linecap="round"/><path d="" fill="#ffffff" stroke="none" stroke-width="1" stroke-linecap="butt"/><path d="" fill="#ffffff" stroke="none" stroke-width="1" stroke-linecap="butt"/><g stroke-linecap="butt"><path d="M197.96844,126.4745c1.60442,-0.06126 3.05437,-0.97357 3.80394,-2.39346l1.70726,-3.2271c0.80879,-1.52545 3.11447,-0.99971 3.18102,0.72457l0.14432,3.6484c0.06067,1.60401 0.97199,3.05398 2.39102,3.80424l3.22634,1.70709c1.52545,0.80879 1.00048,3.11464 -0.72428,3.18347l-3.64869,0.14187c-1.60305,0.06187 -3.05163,0.97331 -3.80117,2.39166l-1.70938,3.22586c-0.80726,1.52579 -3.11236,1.00096 -3.18118,-0.72381l-0.14186,-3.64867c-0.06215,-1.6037 -0.97458,-3.05263 -2.39396,-3.80166l-3.2271,-1.70726c-1.52545,-0.80879 -0.99972,-3.11447 0.72506,-3.18331z" fill="none" stroke-opacity="0.50196" stroke="#000000" stroke-width="5.5"/><path d="M197.96844,126.4745c1.60442,-0.06126 3.05437,-0.97357 3.80394,-2.39346l1.70726,-3.2271c0.80879,-1.52545 3.11447,-0.99971 3.18102,0.72457l0.14432,3.6484c0.06067,1.60401 0.97199,3.05398 2.39102,3.80424l3.22634,1.70709c1.52545,0.80879 1.00048,3.11464 -0.72428,3.18347l-3.64869,0.14187c-1.60305,0.06187 -3.05163,0.97331 -3.80117,2.39166l-1.70938,3.22586c-0.80726,1.52579 -3.11236,1.00096 -3.18118,-0.72381l-0.14186,-3.64867c-0.06215,-1.6037 -0.97458,-3.05263 -2.39396,-3.80166l-3.2271,-1.70726c-1.52545,-0.80879 -0.99972,-3.11447 0.72506,-3.18331z" fill="#ffffff" stroke="none" stroke-width="1"/></g><g stroke-linecap="butt"><path d="M197.17304,170.92296c0.57031,-0.74166 0.70176,-1.73116 0.34486,-2.59599l-0.80979,-1.9672c-0.38213,-0.93069 0.71243,-1.76783 1.50976,-1.15524l1.68836,1.29459c0.74124,0.57041 1.73039,0.70232 2.59521,0.34606l1.96683,-0.80949c0.93069,-0.38213 1.76818,0.71215 1.15644,1.51054l-1.2958,1.68757c-0.56952,0.74126 -0.70085,1.72983 -0.34464,2.59408l0.80843,1.96768c0.38284,0.93012 -0.71108,1.76735 -1.50947,1.15561l-1.68756,-1.2958c-0.74166,-0.56963 -1.73075,-0.70065 -2.59514,-0.34378l-1.9672,0.80978c-0.93069,0.38213 -1.76783,-0.71243 -1.15609,-1.51082z" fill="none" stroke-opacity="0.50196" stroke="#000000" stroke-width="4"/><path d="M197.17304,170.92296c0.57031,-0.74166 0.70176,-1.73116 0.34486,-2.59599l-0.80979,-1.9672c-0.38213,-0.93069 0.71243,-1.76783 1.50976,-1.15524l1.68836,1.29459c0.74124,0.57041 1.73039,0.70232 2.59521,0.34606l1.96683,-0.80949c0.93069,-0.38213 1.76818,0.71215 1.15644,1.51054l-1.2958,1.68757c-0.56952,0.74126 -0.70085,1.72983 -0.34464,2.59408l0.80843,1.96768c0.38284,0.93012 -0.71108,1.76735 -1.50947,1.15561l-1.68756,-1.2958c-0.74166,-0.56963 -1.73075,-0.70065 -2.59514,-0.34378l-1.9672,0.80978c-0.93069,0.38213 -1.76783,-0.71243 -1.15609,-1.51082z" fill="#ffffff" stroke="none" stroke-width="1"/></g><g stroke-linecap="butt"><path d="M237.80079,131.92423c0.93406,-0.05312 1.76887,-0.60039 2.19012,-1.43576l0.95956,-1.89865c0.45462,-0.89751 1.8036,-0.61626 1.86111,0.38756l0.12373,2.12396c0.05279,0.93382 0.59945,1.76865 1.43433,2.19033l1.89819,0.95947c0.89751,0.45462 0.61673,1.80367 -0.38736,1.86253l-2.12415,0.12231c-0.93324,0.05346 -1.76728,0.60021 -2.18853,1.43469l-0.9608,1.89794c-0.45373,0.89767 -1.80236,0.61697 -1.86121,-0.3871l-0.1223,-2.12415c-0.05364,-0.93363 -0.60096,-1.76784 -1.43603,-2.18879l-1.89863,-0.95956c-0.89751,-0.45462 -0.61628,-1.8036 0.38781,-1.86244z" fill="none" stroke-opacity="0.50196" stroke="#000000" stroke-width="4.5"/><path d="M237.80079,131.92423c0.93406,-0.05312 1.76887,-0.60039 2.19012,-1.43576l0.95956,-1.89865c0.45462,-0.89751 1.8036,-0.61626 1.86111,0.38756l0.12373,2.12396c0.05279,0.93382 0.59945,1.76865 1.43433,2.19033l1.89819,0.95947c0.89751,0.45462 0.61673,1.80367 -0.38736,1.86253l-2.12415,0.12231c-0.93324,0.05346 -1.76728,0.60021 -2.18853,1.43469l-0.9608,1.89794c-0.45373,0.89767 -1.80236,0.61697 -1.86121,-0.3871l-0.1223,-2.12415c-0.05364,-0.93363 -0.60096,-1.76784 -1.43603,-2.18879l-1.89863,-0.95956c-0.89751,-0.45462 -0.61628,-1.8036 0.38781,-1.86244z" fill="#ffffff" stroke="none" stroke-width="1"/></g></g></g></svg>
