<svg version="1.1" xmlns="http://www.w3.org/2000/svg" xmlns:xlink="http://www.w3.org/1999/xlink" width="309.2973" height="159.64866" viewBox="0,0,309.2973,159.64866"><defs><linearGradient x1="240" y1="105.17586" x2="240" y2="254.82448" gradientUnits="userSpaceOnUse" id="color-1"><stop offset="0" stop-color="#001436"/><stop offset="1" stop-color="#002f7f"/></linearGradient><linearGradient x1="238.65316" y1="144.6142" x2="238.65316" y2="163.44714" gradientUnits="userSpaceOnUse" id="color-2"><stop offset="0" stop-color="#ffffff"/><stop offset="1" stop-color="#0090ff"/></linearGradient><linearGradient x1="241.34685" y1="166.74801" x2="241.34685" y2="185.28493" gradientUnits="userSpaceOnUse" id="color-3"><stop offset="0" stop-color="#0090ff"/><stop offset="1" stop-color="#ffffff"/></linearGradient><linearGradient x1="219.66463" y1="166.29639" x2="237.46151" y2="166.29639" gradientUnits="userSpaceOnUse" id="color-4"><stop offset="0" stop-color="#ffffff"/><stop offset="1" stop-color="#0090ff"/></linearGradient><linearGradient x1="242.8345" y1="163.60271" x2="260.33537" y2="163.60271" gradientUnits="userSpaceOnUse" id="color-5"><stop offset="0" stop-color="#0090ff"/><stop offset="1" stop-color="#ffffff"/></linearGradient><linearGradient x1="245.55477" y1="153.2209" x2="255.62729" y2="155.17191" gradientUnits="userSpaceOnUse" id="color-6"><stop offset="0" stop-color="#0090ff"/><stop offset="1" stop-color="#ffffff"/></linearGradient><linearGradient x1="224.37271" y1="174.72722" x2="234.44524" y2="176.67822" gradientUnits="userSpaceOnUse" id="color-7"><stop offset="0" stop-color="#ffffff"/><stop offset="1" stop-color="#0090ff"/></linearGradient><linearGradient x1="221.90503" y1="154.02927" x2="236.06092" y2="156.30919" gradientUnits="userSpaceOnUse" id="color-8"><stop offset="0" stop-color="#ffffff"/><stop offset="1" stop-color="#0090ff"/></linearGradient><linearGradient x1="244.39051" y1="173.85531" x2="258.14104" y2="176.06996" gradientUnits="userSpaceOnUse" id="color-9"><stop offset="0" stop-color="#0090ff"/><stop offset="1" stop-color="#ffffff"/></linearGradient></defs><g transform="translate(-85.35135,-100.17581)"><g fill-rule="nonzero" stroke-linejoin="miter" stroke-miterlimit="10" stroke-dasharray="" stroke-dashoffset="0" style="mix-blend-mode: normal"><path d="M389.64865,107.75016v145.00001h-73.02289c0,0 -43.86442,-19.80666 -48.68193,-39.49998c-4.81751,-19.69332 29.43031,-28.37628 27.08932,-52.94139c-2.34099,-24.56511 -37.1432,-52.55864 -37.1432,-52.55864z" fill="#0090ff" stroke="none" stroke-width="0" stroke-linecap="butt"/><path d="M223.12065,251.75016l-10,-145.00001l128.24551,0.5c0,0 -30.20576,9.87814 -32.5335,31.49998c-2.32774,21.62184 21.40697,19.71783 24.60318,42.16301c3.19621,22.44518 -27.02389,22.84269 -24.14506,40.27839c2.87883,17.4357 36.00617,31.55864 36.00617,31.55864z" fill="#0076ff" stroke="none" stroke-width="0" stroke-linecap="butt"/><path d="M242.84439,136.80874c2.7137,15.09234 -18.18449,21.18467 -17.04929,35.9414c1.1352,14.75673 24.89262,24.27235 26.91183,44.76691c2.0192,20.49455 -18.98065,35.73307 -18.98065,35.73307h-86.14532v-145.00001l66.86829,1.39964c0,0 25.68144,12.06665 28.39514,27.159z" fill="#005eff" stroke="none" stroke-width="0" stroke-linecap="butt"/><path d="M90.35135,252.25016v-145l99.41072,0.5c0,0 -38.18981,14.9875 -38.79517,35.50141c-0.60536,20.51391 25.00666,16.16223 24.71474,36.99857c-0.29192,20.83634 -25.82407,18.25039 -25.81369,41.44139c0.01039,23.19099 37.84727,31.55864 37.84727,31.55864z" fill="#0052de" stroke="none" stroke-width="0" stroke-linecap="butt"/><path d="M90.35135,117.67148c0,-6.39897 5.91545,-12.49566 13.1192,-12.49566c28.93252,0 219.72832,0 272.60996,0c8.61359,0 13.56814,4.64378 13.56814,12.24625c0,30.59212 0,109.0924 0,125.70487c0,6.03964 -4.85913,11.69754 -13.31873,11.69754c-52.46667,0 -243.42599,0 -272.60996,0c-7.3279,0 -13.36861,-4.5235 -13.36861,-11.94695c0,-30.16113 0,-108.19342 0,-125.20604z" fill="none" stroke="url(#color-1)" stroke-width="10" stroke-linecap="butt"/><g stroke="none" stroke-width="0" stroke-linecap="butt"><path d="M132.75189,197.36475c-3.33066,0 -6.03069,-2.70003 -6.03069,-6.03069v-52.668c0,-3.33066 2.70003,-6.03069 6.03069,-6.03069h52.668c3.33066,0 6.03069,2.70003 6.03069,6.03069v52.668c0,3.33066 -2.70003,6.03069 -6.03069,6.03069z" fill="#1b79ec"/><path d="M147.47851,202.81343c-3.22992,0.81294 -6.50731,-1.14643 -7.32025,-4.37635l-12.85506,-51.0751c-0.81293,-3.22992 1.14642,-6.50731 4.37634,-7.32025l51.07511,-12.85506c3.22992,-0.81294 6.50732,1.14643 7.32025,4.37635l12.85505,51.0751c0.81294,3.22992 -1.14642,6.50731 -4.37634,7.32025z" fill="#1c82ff"/><path d="M162.11135,205.73462c-2.97741,1.49273 -6.6012,0.28914 -8.09393,-2.68827l-23.60471,-47.08222c-1.49273,-2.97741 -0.28914,-6.6012 2.68827,-8.09393l47.08222,-23.60471c2.97741,-1.49273 6.6012,-0.28914 8.09393,2.68827l23.60472,47.08222c1.49273,2.97741 0.28915,6.6012 -2.68826,8.09393z" fill="#3590ff"/><path d="M177.35837,206.72437c-2.57438,2.11325 -6.37446,1.73942 -8.48771,-0.83496l-33.41704,-40.70896c-2.11325,-2.57438 -1.73943,-6.37447 0.83495,-8.48771l40.70897,-33.41704c2.57438,-2.11325 6.37447,-1.73942 8.48771,0.83496l33.41704,40.70896c2.11325,2.57438 1.73943,6.37447 -0.83495,8.48771z" fill="#4e9eff"/><path d="M191.48643,205.8954c-2.1151,2.57285 -5.91547,2.94394 -8.48831,0.82883l-40.68484,-33.4464c-2.57285,-2.1151 -2.94394,-5.91547 -0.82883,-8.48831l33.44641,-40.68484c2.1151,-2.57285 5.91547,-2.94394 8.48832,-0.82883l40.68484,33.44641c2.57285,2.1151 2.94394,5.91547 0.82883,8.48832z" fill="#6aadff"/><path d="M204.25611,203.9288c-1.65383,2.89103 -5.33818,3.894 -8.22922,2.24017l-45.71633,-26.15215c-2.89103,-1.65383 -3.894,-5.33819 -2.24017,-8.22922l26.15215,-45.71633c1.65383,-2.89103 5.33818,-3.894 8.22922,-2.24017l45.71633,26.15215c2.89103,1.65383 3.894,5.33819 2.24017,8.22922z" fill="#82baff"/><path d="M216.69394,200.80462c-1.13759,3.13036 -4.59746,4.74581 -7.72782,3.60823l-49.50069,-17.98889c-3.13036,-1.13759 -4.74581,-4.59746 -3.60823,-7.72782l17.98889,-49.50069c1.13759,-3.13036 4.59746,-4.74581 7.72782,-3.60823l49.50069,17.98889c3.13036,1.13759 4.74581,4.59746 3.60822,7.72782z" fill="#9bc8ff"/><path d="M225.04107,199.31255c-0.9285,3.19861 -4.27421,5.03891 -7.47282,4.1104l-50.58005,-14.68254c-3.19861,-0.9285 -5.0389,-4.2742 -4.1104,-7.47281l14.68254,-50.58005c0.9285,-3.19861 4.27421,-5.0389 7.47282,-4.1104l50.58005,14.68254c3.19861,0.9285 5.03891,4.2742 4.1104,7.47281z" fill="#b4d6ff"/><path d="M233.68098,197.35206c-0.67566,3.26139 -3.8673,5.35756 -7.12869,4.6819l-51.57289,-10.68432c-3.26139,-0.67566 -5.35756,-3.86729 -4.6819,-7.12869l10.68432,-51.5729c0.67566,-3.26139 3.86729,-5.35756 7.12869,-4.6819l51.5729,10.68432c3.26139,0.67566 5.35756,3.86729 4.6819,7.12869z" fill="#d0e5ff"/><path d="M241.27504,196.01324c-0.514,3.29075 -3.59838,5.54176 -6.88913,5.02776l-52.03705,-8.12801c-3.29075,-0.514 -5.54175,-3.59838 -5.02775,-6.88913l8.12801,-52.03704c0.514,-3.29075 3.59838,-5.54176 6.88913,-5.02776l52.03704,8.12801c3.29075,0.514 5.54176,3.59838 5.02776,6.88913z" fill="#e8f2ff"/><path d="M248.8159,194.58437c-0.34944,3.31226 -3.31787,5.71411 -6.63014,5.36468l-52.37731,-5.52586c-3.31226,-0.34944 -5.71411,-3.31786 -5.36468,-6.63013l5.52586,-52.37732c0.34944,-3.31226 3.31787,-5.71411 6.63013,-5.36468l52.37732,5.52586c3.31226,0.34944 5.71411,3.31786 5.36468,6.63013z" fill="#ffffff"/></g><g stroke="none" stroke-width="0" stroke-linecap="butt"><path d="M294.58011,197.36475c-3.33066,0 -6.03069,-2.70003 -6.03069,-6.03069v-52.668c0,-3.33066 2.70003,-6.03069 6.03069,-6.03069h52.668c3.33066,0 6.03069,2.70003 6.03069,6.03069v52.668c0,3.33066 -2.70002,6.03069 -6.03069,6.03069z" fill="#1b79ec"/><path d="M281.44639,189.95835c-3.22992,-0.81294 -5.18928,-4.09033 -4.37634,-7.32025l12.85505,-51.0751c0.81293,-3.22992 4.09033,-5.18928 7.32025,-4.37635l51.07511,12.85506c3.22992,0.81294 5.18928,4.09033 4.37634,7.32025l-12.85505,51.0751c-0.81293,3.22992 -4.09034,5.18928 -7.32025,4.37635z" fill="#1c82ff"/><path d="M270.80643,182.1299c-2.97741,-1.49273 -4.18099,-5.11652 -2.68826,-8.09393l23.60472,-47.08222c1.49273,-2.97741 5.11651,-4.18099 8.09392,-2.68827l47.08223,23.60472c2.97741,1.49273 4.18099,5.11652 2.68827,8.09393l-23.60472,47.08222c-1.49273,2.97741 -5.11652,4.18099 -8.09393,2.68827z" fill="#3590ff"/><path d="M261.93267,173.30735c-2.57437,-2.11325 -2.94819,-5.91334 -0.83495,-8.48771l33.41704,-40.70896c2.11325,-2.57438 5.91334,-2.9482 8.48771,-0.83496l40.70897,33.41704c2.57437,2.11325 2.94819,5.91334 0.83495,8.48771l-33.41704,40.70896c-2.11325,2.57438 -5.91333,2.9482 -8.48771,0.83496z" fill="#4e9eff"/><path d="M255.06717,165.21058c-2.1151,-2.57285 -1.74402,-6.37321 0.82883,-8.48831l40.68484,-33.4464c2.57285,-2.1151 6.37321,-1.74402 8.48832,0.82883l33.44641,40.68484c2.11511,2.57285 1.74402,6.37321 -0.82883,8.48832l-40.68484,33.44641c-2.57285,2.1151 -6.37321,1.74402 -8.48831,-0.82883z" fill="#6aadff"/><path d="M249.59174,158.21247c-1.65383,-2.89103 -0.65086,-6.57539 2.24017,-8.22922l45.71633,-26.15215c2.89103,-1.65383 6.57539,-0.65086 8.22921,2.24017l26.15216,45.71633c1.65382,2.89103 0.65086,6.57539 -2.24018,8.22922l-45.71633,26.15215c-2.89103,1.65383 -6.57539,0.65086 -8.22921,-2.24017z" fill="#82baff"/><path d="M245.31718,151.3039c-1.13759,-3.13036 0.47786,-6.59023 3.60822,-7.72782l49.50069,-17.98889c3.13036,-1.13759 6.59023,0.47787 7.72782,3.60823l17.98889,49.50069c1.13759,3.13036 -0.47787,6.59023 -3.60823,7.72782l-49.50069,17.98889c-3.13036,1.13759 -6.59023,-0.47787 -7.72782,-3.60823z" fill="#9bc8ff"/><path d="M240.2764,148.73245c-0.9285,-3.19861 0.91179,-6.54431 4.1104,-7.47281l50.58004,-14.68254c3.19861,-0.9285 6.54432,0.91179 7.47282,4.1104l14.68254,50.58005c0.9285,3.19861 -0.9118,6.54431 -4.11041,7.47281l-50.58004,14.68254c-3.19861,0.9285 -6.54432,-0.91179 -7.47282,-4.1104z" fill="#b4d6ff"/><path d="M235.63471,145.7791c-0.67566,-3.26139 1.4205,-6.45303 4.6819,-7.12869l51.57289,-10.68432c3.26139,-0.67566 6.45303,1.42051 7.12869,4.6819l10.68432,51.5729c0.67566,3.26139 -1.4205,6.45303 -4.6819,7.12869l-51.5729,10.68432c-3.26139,0.67566 -6.45303,-1.42051 -7.12869,-4.6819z" fill="#d0e5ff"/><path d="M230.59696,143.97618c-0.514,-3.29075 1.73701,-6.37513 5.02776,-6.88913l52.03704,-8.12801c3.29075,-0.514 6.37513,1.73701 6.88913,5.02776l8.12801,52.03704c0.514,3.29075 -1.73701,6.37513 -5.02776,6.88913l-52.03705,8.12801c-3.29075,0.514 -6.37512,-1.73701 -6.88913,-5.02776z" fill="#e8f2ff"/><path d="M225.65825,142.20702c-0.34944,-3.31226 2.05241,-6.28069 5.36468,-6.63013l52.37732,-5.52586c3.31227,-0.34944 6.28069,2.05241 6.63013,5.36468l5.52585,52.37732c0.34944,3.31226 -2.05241,6.28069 -5.36467,6.63013l-52.37731,5.52586c-3.31226,0.34944 -6.2807,-2.05241 -6.63014,-5.36468z" fill="#ffffff"/></g><path d="M195.04836,164.94957c0,-24.8261 20.12554,-44.95164 44.95164,-44.95164c24.8261,0 44.95164,20.12554 44.95164,44.95164c0,24.8261 -20.12554,44.95164 -44.95164,44.95164c-24.8261,0 -44.95164,-20.12554 -44.95164,-44.95164z" fill-opacity="0.54118" fill="#000000" stroke="none" stroke-width="0" stroke-linecap="butt"/><path d="M198.63212,164.94957c0,-22.84685 18.52103,-41.36788 41.36788,-41.36788c22.84685,0 41.36788,18.52103 41.36788,41.36788c0,22.84685 -18.52103,41.36788 -41.36788,41.36788c-22.84685,0 -41.36788,-18.52103 -41.36788,-41.36788z" fill="#ffffff" stroke="none" stroke-width="0" stroke-linecap="butt"/><path d="M344.78421,117.28134c0.45587,0 0.82543,0.36955 0.82543,0.82542v2.54506c0,0.45587 -0.36956,0.82542 -0.82543,0.82542h-2.54505c-0.45587,0 -0.82542,-0.36955 -0.82542,-0.82542v-2.54506c0,-0.45587 0.36955,-0.82542 0.82542,-0.82542z" fill="#ffffff" stroke="none" stroke-width="0" stroke-linecap="butt"/><path d="M338.52475,124.36623c0.45587,0 0.82542,0.36955 0.82542,0.82542v2.54506c0,0.45587 -0.36955,0.82542 -0.82542,0.82542h-2.54505c-0.45587,0 -0.82542,-0.36955 -0.82542,-0.82542v-2.54506c0,-0.45587 0.36955,-0.82542 0.82542,-0.82542z" fill-opacity="0.9098" fill="#ffffff" stroke="none" stroke-width="0" stroke-linecap="butt"/><path d="M344.45269,133.23953c0.41103,0 0.74424,0.3332 0.74424,0.74423v2.29472c0,0.41103 -0.33321,0.74424 -0.74424,0.74424h-2.29472c-0.41103,0 -0.74424,-0.3332 -0.74424,-0.74424v-2.29472c0,-0.41103 0.33321,-0.74423 0.74424,-0.74423z" fill-opacity="0.84706" fill="#ffffff" stroke="none" stroke-width="0" stroke-linecap="butt"/><path d="M338.74351,140.53078c0.41103,0 0.74423,0.3332 0.74423,0.74424v2.29472c0,0.41103 -0.3332,0.74424 -0.74423,0.74424h-2.29473c-0.41103,0 -0.74424,-0.33321 -0.74424,-0.74424v-2.29472c0,-0.41103 0.33321,-0.74424 0.74424,-0.74424z" fill-opacity="0.81569" fill="#ffffff" stroke="none" stroke-width="0" stroke-linecap="butt"/><path d="M344.27114,148.50987c0.32135,0 0.58185,0.26051 0.58185,0.58186v1.79405c0,0.32135 -0.2605,0.58185 -0.58185,0.58185h-1.79406c-0.32135,0 -0.58186,-0.2605 -0.58186,-0.58185v-1.79405c0,-0.32135 0.26051,-0.58186 0.58186,-0.58186z" fill-opacity="0.68627" fill="#ffffff" stroke="none" stroke-width="0" stroke-linecap="butt"/><path d="M338.65668,156.07626c0.26903,0 0.48714,0.2181 0.48714,0.48714v1.502c0,0.26904 -0.21811,0.48713 -0.48714,0.48713h-1.502c-0.26903,0 -0.48714,-0.2181 -0.48714,-0.48713v-1.502c0,-0.26904 0.21811,-0.48714 0.48714,-0.48714z" fill-opacity="0.54118" fill="#ffffff" stroke="none" stroke-width="0" stroke-linecap="butt"/><path d="M346.3271,162.67965c0.24662,0 0.44654,0.19993 0.44654,0.44654v1.37683c0,0.24661 -0.19992,0.44655 -0.44654,0.44655h-1.37683c-0.24662,0 -0.44655,-0.19993 -0.44655,-0.44655v-1.37683c0,-0.24661 0.19993,-0.44654 0.44655,-0.44654z" fill-opacity="0.41961" fill="#ffffff" stroke="none" stroke-width="0" stroke-linecap="butt"/><path d="M137.25733,117.28134c0.45924,0 0.83152,0.37229 0.83152,0.83152v2.56387c0,0.45924 -0.37229,0.83152 -0.83152,0.83152h-2.56387c-0.45924,0 -0.83152,-0.37229 -0.83152,-0.83152v-2.56387c0,-0.45924 0.37229,-0.83152 0.83152,-0.83152z" fill="#ffffff" stroke="none" stroke-width="0" stroke-linecap="butt"/><path d="M143.56307,124.41861c0.45924,0 0.83152,0.37229 0.83152,0.83152v2.56387c0,0.45924 -0.37229,0.83152 -0.83152,0.83152h-2.56388c-0.45924,0 -0.83152,-0.37229 -0.83152,-0.83152v-2.56387c0,-0.45924 0.37229,-0.83152 0.83152,-0.83152z" fill-opacity="0.9098" fill="#ffffff" stroke="none" stroke-width="0" stroke-linecap="butt"/><path d="M137.33912,133.35752c0.41406,0 0.74974,0.33567 0.74974,0.74974v2.31169c0,0.41406 -0.33567,0.74973 -0.74974,0.74973h-2.31169c-0.41406,0 -0.74973,-0.33567 -0.74973,-0.74973v-2.31169c0,-0.41406 0.33567,-0.74974 0.74973,-0.74974z" fill-opacity="0.84706" fill="#ffffff" stroke="none" stroke-width="0" stroke-linecap="butt"/><path d="M143.09051,140.70267c0.41406,0 0.74974,0.33567 0.74974,0.74973v2.31169c0,0.41406 -0.33568,0.74974 -0.74974,0.74974h-2.31169c-0.41406,0 -0.74974,-0.33567 -0.74974,-0.74974v-2.31169c0,-0.41406 0.33567,-0.74973 0.74974,-0.74973z" fill-opacity="0.81569" fill="#ffffff" stroke="none" stroke-width="0" stroke-linecap="butt"/><path d="M137.01764,148.74076c0.32372,0 0.58616,0.26244 0.58616,0.58616v1.80732c0,0.32372 -0.26244,0.58615 -0.58616,0.58615h-1.80732c-0.32372,0 -0.58616,-0.26243 -0.58616,-0.58615v-1.80732c0,-0.32372 0.26243,-0.58616 0.58616,-0.58616z" fill-opacity="0.68627" fill="#ffffff" stroke="none" stroke-width="0" stroke-linecap="butt"/><path d="M142.37939,156.36309c0.27103,0 0.49074,0.21971 0.49074,0.49074v1.5131c0,0.27103 -0.21971,0.49074 -0.49074,0.49074h-1.5131c-0.27103,0 -0.49074,-0.21971 -0.49074,-0.49074v-1.5131c0,-0.27103 0.21971,-0.49074 0.49074,-0.49074z" fill-opacity="0.54118" fill="#ffffff" stroke="none" stroke-width="0" stroke-linecap="butt"/><path d="M137.70831,163.0153c0.24844,0 0.44985,0.2014 0.44985,0.44984v1.38701c0,0.24844 -0.20141,0.44985 -0.44985,0.44985h-1.38701c-0.24844,0 -0.44984,-0.20141 -0.44984,-0.44985v-1.38701c0,-0.24844 0.2014,-0.44984 0.44984,-0.44984z" fill-opacity="0.41961" fill="#ffffff" stroke="none" stroke-width="0" stroke-linecap="butt"/><g stroke-linecap="butt"><path d="M202.0288,164.94957c0,-20.97091 17.00028,-37.9712 37.9712,-37.9712c20.97091,0 37.9712,17.00028 37.9712,37.9712c0,20.97091 -17.00028,37.9712 -37.9712,37.9712c-20.97091,0 -37.9712,-17.00028 -37.9712,-37.9712z" fill="#0090ff" stroke="none" stroke-width="0"/><path d="M236.92559,144.6142h4.92518c0,0 -2.68043,5.20259 -3.21256,10.06226c-0.59292,5.41478 1.0931,8.77069 0.85916,8.77069c-0.42941,0 -3.44809,-3.36306 -3.96712,-8.78085c-0.46521,-4.85593 1.39537,-10.0521 1.39537,-10.0521z" fill="url(#color-2)" stroke="#ffffff" stroke-width="0"/><path d="M243.07441,185.28493h-4.92517c0,0 2.68043,-5.20259 3.21257,-10.06226c0.59292,-5.41478 -0.64908,-8.47467 -0.41514,-8.47467c0.42941,0 3.00408,3.06705 3.52311,8.48482c0.46521,4.85593 -1.39537,10.0521 -1.39537,10.0521z" fill="url(#color-3)" stroke="#ffffff" stroke-width="0"/><path d="M219.66463,168.02398v-4.92517c0,0 5.20259,2.68043 10.06225,3.21257c5.41478,0.59292 7.73463,-0.50106 7.73463,-0.26712c0,0.42941 -2.32701,2.85606 -7.74478,3.3751c-4.85593,0.46521 -10.0521,-1.39537 -10.0521,-1.39537z" fill="url(#color-4)" stroke="#ffffff" stroke-width="0"/><path d="M260.33537,161.87515v4.92518c0,0 -5.20259,-2.68043 -10.06226,-3.21256c-5.41478,-0.59292 -7.43861,0.35306 -7.43861,0.11912c0,-0.42941 2.03099,-2.70805 7.44877,-3.22708c4.85593,-0.46521 10.0521,1.39537 10.0521,1.39537z" fill="url(#color-5)" stroke="#ffffff" stroke-width="0"/><path d="M253.94359,147.82933l2.60118,2.60587c0,0 -4.16829,1.32951 -7.02055,3.61454c-3.17807,2.54606 -5.08109,6.07024 -5.20465,5.94647c-0.22679,-0.22719 0.97619,-4.46026 3.56857,-7.59623c2.32354,-2.81075 6.05544,-4.57064 6.05544,-4.57064z" fill="url(#color-6)" stroke="#ffffff" stroke-width="0"/><path d="M226.05641,182.06979l-2.60119,-2.60587c0,0 4.16829,-1.32951 7.02055,-3.61454c3.17807,-2.54606 5.08109,-6.07024 5.20465,-5.94647c0.22679,0.22719 -0.97619,4.46026 -3.56857,7.59623c-2.32354,2.81075 -6.05544,4.57064 -6.05544,4.57064z" fill="url(#color-7)" stroke="#ffffff" stroke-width="0"/><path d="M222.21846,152.08314l2.53633,-2.81689c0,0 1.5952,4.21222 4.10059,7.01917c2.79157,3.12758 6.5188,4.89077 6.39833,5.02458c-0.22114,0.24559 -4.63873,-0.75909 -8.00465,-3.25224c-3.01685,-2.2346 -5.03059,-5.97462 -5.03059,-5.97462z" fill="url(#color-8)" stroke="#ffffff" stroke-width="0"/><path d="M257.83657,177.96036l-2.4637,2.73622c0,0 -1.54952,-4.0916 -3.98316,-6.81817c-2.71163,-3.03802 -6.33213,-4.75073 -6.21511,-4.8807c0.2148,-0.23856 4.5059,0.73735 7.77543,3.15912c2.93046,2.17061 4.88654,5.80352 4.88654,5.80352z" fill="url(#color-9)" stroke="#ffffff" stroke-width="0"/><path d="M235.712,144.41007c0,-2.43902 1.97721,-4.41623 4.41622,-4.41623c2.43902,0 4.41623,1.97721 4.41623,4.41623c0,2.43902 -1.97721,4.41622 -4.41623,4.41622c-2.43902,0 -4.41622,-1.97721 -4.41622,-4.41622z" fill="#ffffff" stroke="#ffffff" stroke-width="1.5"/><path d="M244.288,185.48907c0,2.43902 -1.97721,4.41622 -4.41623,4.41622c-2.43902,0 -4.41622,-1.97721 -4.41622,-4.41622c0,-2.43902 1.97721,-4.41623 4.41622,-4.41623c2.43902,0 4.41623,1.97721 4.41623,4.41623z" fill="#ffffff" stroke="#ffffff" stroke-width="1.5"/><path d="M219.4605,169.23757c-2.43902,0 -4.41623,-1.97721 -4.41623,-4.41623c0,-2.43902 1.97721,-4.41622 4.41623,-4.41622c2.43902,0 4.41622,1.97721 4.41622,4.41622c0,2.43902 -1.97721,4.41623 -4.41622,4.41623z" fill="#ffffff" stroke="#ffffff" stroke-width="1.5"/><path d="M260.53951,160.66154c2.43902,0 4.41622,1.97721 4.41622,4.41622c0,2.43902 -1.97721,4.41623 -4.41622,4.41623c-2.43902,0 -4.41623,-1.97721 -4.41623,-4.41623c0,-2.43902 1.97722,-4.41622 4.41623,-4.41622z" fill="#ffffff" stroke="#ffffff" stroke-width="1.5"/><path d="M253.41064,147.07942c1.29047,-1.28815 3.38084,-1.28626 4.66898,0.0042c1.28814,1.29047 1.28626,3.38084 -0.0042,4.66898c-1.29047,1.28815 -3.38084,1.28626 -4.66898,-0.0042c-1.28814,-1.29047 -1.28626,-3.38084 0.0042,-4.66898z" fill="#ffffff" stroke="#ffffff" stroke-width="1.5"/><path d="M226.58935,182.8197c-1.29047,1.28815 -3.38084,1.28626 -4.66898,-0.0042c-1.28815,-1.29047 -1.28626,-3.38084 0.0042,-4.66898c1.29047,-1.28815 3.38083,-1.28626 4.66898,0.0042c1.28815,1.29047 1.28626,3.38084 -0.0042,4.66898z" fill="#ffffff" stroke="#ffffff" stroke-width="1.5"/><path d="M221.47674,152.6721c-1.39496,-1.25602 -1.50759,-3.40507 -0.25156,-4.80004c1.25602,-1.39496 3.40507,-1.50759 4.80003,-0.25156c1.39496,1.25602 1.5076,3.40507 0.25156,4.80003c-1.25602,1.39496 -3.40507,1.5076 -4.80004,0.25157z" fill="#ffffff" stroke="#ffffff" stroke-width="1.5"/><path d="M258.55704,177.38825c1.35501,1.22006 1.46442,3.30756 0.24437,4.66258c-1.22006,1.35501 -3.30756,1.46442 -4.66258,0.24437c-1.35501,-1.22006 -1.46442,-3.30756 -0.24437,-4.66257c1.22006,-1.35501 3.30756,-1.46442 4.66258,-0.24437z" fill="#ffffff" stroke="#ffffff" stroke-width="1.5"/></g><path d="M145.6216,240.83988c-2.10423,0 -3.15635,-0.23079 -3.15635,-0.69236v-22.52207c0,-0.78739 0.3575,-1.18109 1.07249,-1.18109h6.11585c3.43013,0 5.90316,0.7082 7.41912,2.1246c1.52048,1.41187 2.28072,3.4618 2.28072,6.14979c0,2.22189 -0.71951,4.2605 -2.15854,6.11585c-0.71499,0.92315 -1.76936,1.66303 -3.16313,2.21963c-1.38924,0.5566 -3.00929,0.83491 -4.8601,0.83491v6.22446c0,0.27604 -0.43442,0.46609 -1.30326,0.57018c-0.86884,0.10408 -1.61777,0.15612 -2.24678,0.15612zM149.17165,222.49233v5.49137h0.448c0.81001,0 1.49332,-0.25342 2.04993,-0.76024c0.5566,-0.51136 0.8349,-1.23086 0.8349,-2.15854c0,-0.92767 -0.19232,-1.58836 -0.57697,-1.98205c-0.38012,-0.3937 -1.05664,-0.59054 -2.02956,-0.59054zM163.55779,228.1534c-0.64711,-1.15846 -0.97066,-2.10197 -0.97066,-2.83053c0,-0.72857 0.19685,-1.19693 0.59054,-1.40509c1.31684,-0.57923 3.12694,-0.86884 5.43027,-0.86884c2.30787,0 3.93696,0.53851 4.88726,1.61551c0.9503,1.077 1.42545,2.66988 1.42545,4.77864v5.49137h1.18108c0.3937,0 0.70141,0.23305 0.92315,0.69915c0.22173,0.46158 0.33261,1.09736 0.33261,1.90738c0,0.81002 -0.20363,1.60873 -0.61091,2.39612c-0.40727,0.78739 -0.95708,1.18108 -1.64944,1.18108c-1.25349,0 -2.26262,-0.33487 -3.02739,-1.0046c-0.34392,-0.28056 -0.60865,-0.61769 -0.79418,-1.01139c-1.06796,1.344 -2.72645,2.01599 -4.97549,2.01599c-1.68791,0 -3.1111,-0.60185 -4.26955,-1.80557c-1.15846,-1.20371 -1.73768,-2.62917 -1.73768,-4.27635c0,-3.77404 2.25809,-5.66106 6.77426,-5.66106h1.91418v-0.35297c0,-0.60186 -0.09956,-0.98877 -0.29866,-1.16072c-0.19459,-0.17196 -0.65163,-0.25794 -1.37114,-0.25794c-0.88242,0 -2.13365,0.18327 -3.75368,0.54981zM166.3408,234.55434c0,0.50682 0.13802,0.89373 0.41406,1.16072c0.27604,0.26699 0.62902,0.40049 1.05891,0.40049c0.4299,0 0.81906,-0.17422 1.16751,-0.52266v-2.67441h-0.97745c-1.10868,0 -1.66302,0.5453 -1.66302,1.63587zM186.94897,240.73806c0,0.16291 -1.05437,0.24436 -3.16313,0.24436c-2.10876,-0.04978 -3.16314,-0.14255 -3.16314,-0.2783v-11.53933h-0.93672c-0.37107,0 -0.66747,-0.22627 -0.88921,-0.67879c-0.22174,-0.45252 -0.33261,-1.01365 -0.33261,-1.68338c0,-2.50245 0.74215,-3.75368 2.22642,-3.75368c1.04081,0 1.90964,0.31903 2.60653,0.95709c0.69689,0.63353 2.18342,0.46384 3.00701,-0.10181c0.8236,-0.57018 1.66303,-0.85527 2.51829,-0.85527c1.344,0 2.15627,0.34618 2.43684,1.03854c0.06788,0.18553 0.10182,0.45931 0.10182,0.82133c0,0.35749 -0.11087,1.00007 -0.3326,1.92774c-0.21721,0.92767 -0.44347,1.59967 -0.67878,2.016c-0.23078,0.41633 -0.36881,0.62449 -0.41406,0.62449c-0.04525,0 -0.26019,-0.08598 -0.64484,-0.25794c-0.38012,-0.17649 -0.72178,-0.26472 -1.02497,-0.26472c-0.87789,0 -1.31684,0.69463 -1.31684,2.08387zM201.09156,240.56158c0,0.28056 -0.97293,0.42084 -2.91877,0.42084c-2.31692,-0.09503 -3.47538,-0.24663 -3.47538,-0.45478v-12.29958h-1.77163c-0.46609,0 -0.69915,-0.80096 -0.69915,-2.4029c0,-0.41633 0.04073,-0.92541 0.12218,-1.52726c0.08145,-0.60186 0.25115,-0.90278 0.50909,-0.90278h1.83951v-3.06132c0,-0.46158 0.97745,-0.69235 2.93235,-0.69235c1.95942,0 2.93914,0.18554 2.93914,0.5566v2.22642l0.03394,0.97066h2.9595c0.3937,0 0.59055,0.81227 0.59055,2.43684c0,1.62003 -0.19684,2.43005 -0.59054,2.43005h-2.47078zM212.24507,240.56158c0,0.18553 -1.06117,0.2783 -3.1835,0.2783c-2.11781,0 -3.17671,-0.08145 -3.17671,-0.24436v-17.06465c0,-0.15839 1.0589,-0.23757 3.17671,-0.23757c2.12233,0 3.1835,0.06788 3.1835,0.20363zM212.24507,221.44701c0,0.16291 -1.06117,0.24436 -3.1835,0.24436c-2.11781,0 -3.17671,-0.07014 -3.17671,-0.21042v-5.00264c0,-0.23078 1.0589,-0.34618 3.17671,-0.34618c2.12233,0 3.1835,0.07014 3.1835,0.21043zM223.64702,235.55894c1.1132,0 2.04087,-0.21947 2.78301,-0.65842c0.34392,0 0.62674,0.59733 0.84849,1.79199c0.22173,1.19013 0.33261,2.00015 0.33261,2.43005c0,0.4299 -0.05882,0.71273 -0.17648,0.84849c-1.22634,0.76476 -2.9052,1.14714 -5.03659,1.14714c-2.13138,0 -3.946,-0.79191 -5.44385,-2.37574c-1.49332,-1.58836 -2.23999,-3.75594 -2.23999,-6.50276c0,-2.74681 0.73535,-4.96419 2.20605,-6.65209c1.4707,-1.69244 3.42786,-2.53865 5.87149,-2.53865c2.44815,0 4.14738,0.59054 5.09768,1.77163c0.20816,0.25341 0.31224,0.62901 0.31224,1.12679c0,0.49778 -0.09277,1.10642 -0.2783,1.82593c-0.41633,1.48427 -0.96161,2.34181 -1.63586,2.57259c-0.09051,0.02263 -0.224,0.03394 -0.40048,0.03394c-0.17196,0 -0.38691,-0.13802 -0.64485,-0.41405c-0.90052,-0.90505 -1.62456,-1.35756 -2.17211,-1.35756c-0.54303,0 -1.01139,0.2783 -1.40508,0.8349c-0.3937,0.5566 -0.59054,1.45939 -0.59054,2.70836c0,0 0.85751,3.40747 2.57258,3.40747zM236.43448,240.4937c0,0.20816 -1.18108,0.31224 -3.54325,0.31224c-1.85534,-0.02263 -2.78302,-0.11539 -2.78302,-0.2783v-23.66922c0,-0.34392 1.12452,-0.51587 3.37357,-0.51587c1.96848,0.06788 2.95271,0.18327 2.95271,0.34618zM247.06858,241.11818c-2.29429,0 -4.22883,-0.7806 -5.80361,-2.3418c-1.57478,-1.56573 -2.36217,-3.73332 -2.36217,-6.50276c0,-2.76944 0.75798,-4.99812 2.27393,-6.68603c1.52048,-1.69244 3.43917,-2.53865 5.75609,-2.53865c2.31692,0 4.10665,0.59054 5.36919,1.77163c1.26254,1.18108 1.89381,2.61784 1.89381,4.31028c0,3.75142 -2.15401,5.62713 -6.46203,5.62713h-2.4029c0,0.69689 0.19006,1.17882 0.57018,1.44581c0.38465,0.26699 0.94803,0.40049 1.69017,0.40049c1.62456,0 3.1654,-0.37107 4.62253,-1.11321c0.02263,-0.02263 0.1267,0.13802 0.31224,0.48194c0.5566,1.00008 0.83491,1.84177 0.83491,2.52508c0,0.6833 -0.21948,1.12905 -0.65842,1.33721c0,0 -3.33964,1.28288 -5.63393,1.28288zM248.35827,229.78927c0,-0.97293 -0.47516,-1.45938 -1.42545,-1.45938c-0.43894,0 -0.8168,0.1335 -1.13357,0.40049c-0.31224,0.26699 -0.46836,0.6539 -0.46836,1.16072v1.07927h1.88023c0.76476,0 1.14714,-0.3937 1.14714,-1.18108zM273.62178,240.2154c0,0.46158 -1.14714,0.69236 -3.44143,0.69236c-2.29429,0 -3.44143,-0.23078 -3.44143,-0.69236v-17.44476h-4.16774c-0.39369,0 -0.67199,-0.53397 -0.8349,-1.60193c-0.06788,-0.50682 -0.10181,-1.02722 -0.10181,-1.5612c0,-0.53397 0.03394,-1.05439 0.10182,-1.56121c0.16291,-1.06796 0.44121,-1.60193 0.8349,-1.60193h15.11654c0.39369,0 0.67199,0.53397 0.8349,1.60193c0.06788,0.50682 0.10182,1.02724 0.10182,1.56121c0,0.53397 -0.03393,1.05438 -0.10181,1.5612c-0.16291,1.06796 -0.44121,1.60193 -0.8349,1.60193h-4.06592zM280.72891,238.72207c-1.44808,-1.59741 -2.1721,-3.81025 -2.1721,-6.63851c0,-2.82826 0.72403,-5.04111 2.1721,-6.63852c1.44807,-1.59741 3.40072,-2.39611 5.85793,-2.39611c2.4572,0 4.40304,0.79871 5.83754,2.39612c1.4345,1.59741 2.15175,3.81025 2.15175,6.63851c0,2.82826 -0.71724,5.04111 -2.15175,6.63851c-1.4345,1.59741 -3.38034,2.39611 -5.83754,2.39611c-2.45721,0 -4.40986,-0.7987 -5.85793,-2.39611zM286.60041,228.85255c-1.30779,0 -1.96168,1.0657 -1.96168,3.19708c0,2.13138 0.65389,3.19708 1.96168,3.19708c1.31232,0 9.15197,-1.06569 9.15197,-3.19707c0,-2.13138 -7.83965,-3.19707 -9.15197,-3.19707zM298.55757,238.72207c-1.44808,-1.59741 -2.17211,-3.81025 -2.17211,-6.63851c0,-2.82826 0.72403,-5.04111 2.17211,-6.63852c1.44807,-1.59741 3.40071,-2.39611 5.85791,-2.39611c2.4572,0 4.40305,0.79871 5.83755,2.39612c1.4345,1.59741 2.15175,3.81025 2.15175,6.63851c0,2.82826 -0.71724,5.04111 -2.15175,6.63851c-1.4345,1.59741 -3.38035,2.39611 -5.83755,2.39611c-2.4572,0 -4.40984,-0.7987 -5.85791,-2.39611zM304.42905,228.85255c-1.30779,0 -1.96168,1.0657 -1.96168,3.19708c0,2.13138 0.65389,3.19708 1.96169,3.19708c1.31232,0 10.63092,-1.06569 10.63092,-3.19707c0,-2.13138 -9.31861,-3.19707 -10.63092,-3.19707zM321.19882,240.4937c0,0.20816 -1.18108,0.31224 -3.54325,0.31224c-1.85534,-0.02263 -2.78302,-0.11539 -2.78302,-0.2783v-23.66922c0,-0.34392 1.12451,-0.51587 3.37356,-0.51587c1.96848,0.06788 2.95272,0.18327 2.95272,0.34618zM329.50471,236.21736c0.69689,0 1.04533,-0.2421 1.04533,-0.72629c0,-0.34844 -0.60186,-0.80097 -1.80557,-1.35757c-2.89615,-1.18108 -4.34422,-3.11562 -4.34422,-5.80361c0,-1.71506 0.62448,-3.02285 1.87344,-3.92337c1.25349,-0.90505 2.7536,-1.35757 4.50035,-1.35757c1.75126,0 3.23327,0.18554 4.44604,0.5566c1.21729,0.37106 1.82593,0.85753 1.82593,1.45939c0,0.50682 -0.24889,1.17882 -0.74666,2.01599c-0.49778,0.83264 -0.83943,1.2829 -1.02496,1.35079c-0.99556,-0.55208 -2.07256,-0.82812 -3.23101,-0.82812c-0.62448,0 -0.93673,0.21947 -0.93673,0.65842c0,0.27604 0.11991,0.51361 0.35976,0.71273c0.24436,0.19458 0.6901,0.43668 1.33721,0.7263c0.65163,0.28961 1.19013,0.55208 1.61551,0.78739c0.42989,0.23078 0.91183,0.55434 1.44581,0.97066c1.1132,0.8779 1.66981,2.02504 1.66981,3.44144c0,1.85082 -0.61543,3.35094 -1.84629,4.50035c-1.22634,1.14488 -3.07942,1.71733 -5.55925,1.71733c-1.64266,0 -3.13598,-0.2783 -4.47998,-0.8349c-1.344,-0.5566 -2.01599,-1.32136 -2.01599,-2.29429c0,-0.64711 0.15613,-1.32815 0.46837,-2.04314c0.31224,-0.71951 0.63127,-1.19692 0.95709,-1.43223c0,0 3.35996,1.70371 4.44601,1.70371z" fill="none" stroke-opacity="0.5098" stroke="#000000" stroke-width="7.5" stroke-linecap="square"/><path d="M145.6216,240.83988c-2.10423,0 -3.15635,-0.23079 -3.15635,-0.69236v-22.52207c0,-0.78739 0.3575,-1.18109 1.07249,-1.18109h6.11585c3.43013,0 5.90316,0.7082 7.41912,2.1246c1.52048,1.41187 2.28072,3.4618 2.28072,6.14979c0,2.22189 -0.71951,4.2605 -2.15854,6.11585c-0.71499,0.92315 -1.76936,1.66303 -3.16313,2.21963c-1.38924,0.5566 -3.00929,0.83491 -4.8601,0.83491v6.22446c0,0.27604 -0.43442,0.46609 -1.30326,0.57018c-0.86884,0.10408 -1.61777,0.15612 -2.24678,0.15612zM149.17165,222.49233v5.49137h0.448c0.81001,0 1.49332,-0.25342 2.04993,-0.76024c0.5566,-0.51136 0.8349,-1.23086 0.8349,-2.15854c0,-0.92767 -0.19232,-1.58836 -0.57697,-1.98205c-0.38012,-0.3937 -1.05664,-0.59054 -2.02956,-0.59054zM163.55779,228.1534c-0.64711,-1.15846 -0.97066,-2.10197 -0.97066,-2.83053c0,-0.72857 0.19685,-1.19693 0.59054,-1.40509c1.31684,-0.57923 3.12694,-0.86884 5.43027,-0.86884c2.30787,0 3.93696,0.53851 4.88726,1.61551c0.9503,1.077 1.42545,2.66988 1.42545,4.77864v5.49137h1.18108c0.3937,0 0.70141,0.23305 0.92315,0.69915c0.22173,0.46158 0.33261,1.09736 0.33261,1.90738c0,0.81002 -0.20363,1.60873 -0.61091,2.39612c-0.40727,0.78739 -0.95708,1.18108 -1.64944,1.18108c-1.25349,0 -2.26262,-0.33487 -3.02739,-1.0046c-0.34392,-0.28056 -0.60865,-0.61769 -0.79418,-1.01139c-1.06796,1.344 -2.72645,2.01599 -4.97549,2.01599c-1.68791,0 -3.1111,-0.60185 -4.26955,-1.80557c-1.15846,-1.20371 -1.73768,-2.62917 -1.73768,-4.27635c0,-3.77404 2.25809,-5.66106 6.77426,-5.66106h1.91418v-0.35297c0,-0.60186 -0.09956,-0.98877 -0.29866,-1.16072c-0.19459,-0.17196 -0.65163,-0.25794 -1.37114,-0.25794c-0.88242,0 -2.13365,0.18327 -3.75368,0.54981zM166.3408,234.55434c0,0.50682 0.13802,0.89373 0.41406,1.16072c0.27604,0.26699 0.62902,0.40049 1.05891,0.40049c0.4299,0 0.81906,-0.17422 1.16751,-0.52266v-2.67441h-0.97745c-1.10868,0 -1.66302,0.5453 -1.66302,1.63587zM186.94897,240.73806c0,0.16291 -1.05437,0.24436 -3.16313,0.24436c-2.10876,-0.04978 -3.16314,-0.14255 -3.16314,-0.2783v-11.53933h-0.93672c-0.37107,0 -0.66747,-0.22627 -0.88921,-0.67879c-0.22174,-0.45252 -0.33261,-1.01365 -0.33261,-1.68338c0,-2.50245 0.74215,-3.75368 2.22642,-3.75368c1.04081,0 1.90964,0.31903 2.60653,0.95709c0.69689,0.63353 1.04532,1.35757 1.04532,2.17211c0.4842,-0.9503 1.13809,-1.70827 1.96169,-2.27392c0.8236,-0.57018 1.66303,-0.85527 2.51829,-0.85527c1.344,0 2.15627,0.34618 2.43684,1.03854c0.06788,0.18553 0.10182,0.45931 0.10182,0.82133c0,0.35749 -0.11087,1.00007 -0.3326,1.92774c-0.21721,0.92767 -0.44347,1.59967 -0.67878,2.016c-0.23078,0.41633 -0.36881,0.62449 -0.41406,0.62449c-0.04525,0 -0.26019,-0.08598 -0.64484,-0.25794c-0.38012,-0.17649 -0.72178,-0.26472 -1.02497,-0.26472c-0.87789,0 -1.31684,0.69463 -1.31684,2.08387zM201.09156,240.56158c0,0.28056 -0.97293,0.42084 -2.91877,0.42084c-2.31692,-0.09503 -3.47538,-0.24663 -3.47538,-0.45478v-12.29958h-1.77163c-0.46609,0 -0.69915,-0.80096 -0.69915,-2.4029c0,-0.41633 0.04073,-0.92541 0.12218,-1.52726c0.08145,-0.60186 0.25115,-0.90278 0.50909,-0.90278h1.83951v-3.06132c0,-0.46158 0.97745,-0.69235 2.93235,-0.69235c1.95942,0 2.93914,0.18554 2.93914,0.5566v2.22642l0.03394,0.97066h2.9595c0.3937,0 0.59055,0.81227 0.59055,2.43684c0,1.62003 -0.19684,2.43005 -0.59054,2.43005h-2.47078zM212.24507,240.56158c0,0.18553 -1.06117,0.2783 -3.1835,0.2783c-2.11781,0 -3.17671,-0.08145 -3.17671,-0.24436v-17.06465c0,-0.15839 1.0589,-0.23757 3.17671,-0.23757c2.12233,0 3.1835,0.06788 3.1835,0.20363zM212.24507,221.44701c0,0.16291 -1.06117,0.24436 -3.1835,0.24436c-2.11781,0 -3.17671,-0.07014 -3.17671,-0.21042v-5.00264c0,-0.23078 1.0589,-0.34618 3.17671,-0.34618c2.12233,0 3.1835,0.07014 3.1835,0.21043zM221.07442,232.15144c0,2.27167 0.85753,3.4075 2.5726,3.4075c1.1132,0 2.04087,-0.21947 2.78301,-0.65842c0.34392,0 0.62674,0.59733 0.84849,1.79199c0.22173,1.19013 0.33261,2.00015 0.33261,2.43005c0,0.4299 -0.05882,0.71273 -0.17648,0.84849c-1.22634,0.76476 -2.9052,1.14714 -5.03659,1.14714c-2.13138,0 -3.946,-0.79191 -5.44385,-2.37574c-1.49332,-1.58836 -2.23999,-3.75594 -2.23999,-6.50276c0,-2.74681 0.73535,-4.96419 2.20605,-6.65209c1.4707,-1.69244 3.42786,-2.53865 5.87149,-2.53865c2.44815,0 4.14738,0.59054 5.09768,1.77163c0.20816,0.25341 0.31224,0.62901 0.31224,1.12679c0,0.49778 -0.09277,1.10642 -0.2783,1.82593c-0.41633,1.48427 -0.96161,2.34181 -1.63586,2.57259c-0.09051,0.02263 -0.224,0.03394 -0.40048,0.03394c-0.17196,0 -0.38691,-0.13802 -0.64485,-0.41405c-0.90052,-0.90505 -1.62456,-1.35756 -2.17211,-1.35756c-0.54303,0 -1.01139,0.2783 -1.40508,0.8349c-0.3937,0.5566 -0.59054,1.45939 -0.59054,2.70836zM236.43448,240.4937c0,0.20816 -1.18108,0.31224 -3.54325,0.31224c-1.85534,-0.02263 -2.78302,-0.11539 -2.78302,-0.2783v-23.66922c0,-0.34392 1.12452,-0.51587 3.37357,-0.51587c1.96848,0.06788 2.95271,0.18327 2.95271,0.34618zM252.7025,239.83528c-1.46165,0.85527 -3.33963,1.2829 -5.63392,1.2829c-2.29429,0 -4.22883,-0.7806 -5.80361,-2.3418c-1.57478,-1.56573 -2.36217,-3.73332 -2.36217,-6.50276c0,-2.76944 0.75798,-4.99812 2.27393,-6.68603c1.52048,-1.69244 3.43917,-2.53865 5.75609,-2.53865c2.31692,0 4.10665,0.59054 5.36919,1.77163c1.26254,1.18108 1.89381,2.61784 1.89381,4.31028c0,3.75142 -2.15401,5.62713 -6.46203,5.62713h-2.4029c0,0.69689 0.19006,1.17882 0.57018,1.44581c0.38465,0.26699 0.94803,0.40049 1.69017,0.40049c1.62456,0 3.1654,-0.37107 4.62253,-1.11321c0.02263,-0.02263 0.1267,0.13802 0.31224,0.48194c0.5566,1.00008 0.83491,1.84177 0.83491,2.52508c0,0.6833 -0.21948,1.12905 -0.65842,1.33721zM248.35827,229.78927c0,-0.97293 -0.47516,-1.45938 -1.42545,-1.45938c-0.43894,0 -0.8168,0.1335 -1.13357,0.40049c-0.31224,0.26699 -0.46836,0.6539 -0.46836,1.16072v1.07927h1.88023c0.76476,0 1.14714,-0.3937 1.14714,-1.18108zM273.62178,240.2154c0,0.46158 -1.14714,0.69236 -3.44143,0.69236c-2.29429,0 -3.44143,-0.23078 -3.44143,-0.69236v-17.44476h-4.16774c-0.39369,0 -0.67199,-0.53397 -0.8349,-1.60193c-0.06788,-0.50682 -0.10181,-1.02722 -0.10181,-1.5612c0,-0.53397 0.03394,-1.05439 0.10182,-1.56121c0.16291,-1.06796 0.44121,-1.60193 0.8349,-1.60193h15.11654c0.39369,0 0.67199,0.53397 0.8349,1.60193c0.06788,0.50682 0.10182,1.02724 0.10182,1.56121c0,0.53397 -0.03393,1.05438 -0.10181,1.5612c-0.16291,1.06796 -0.44121,1.60193 -0.8349,1.60193h-4.06592zM280.72891,238.72207c-1.44808,-1.59741 -2.1721,-3.81025 -2.1721,-6.63851c0,-2.82826 0.72403,-5.04111 2.1721,-6.63852c1.44807,-1.59741 3.40072,-2.39611 5.85793,-2.39611c2.4572,0 4.40304,0.79871 5.83754,2.39612c1.4345,1.59741 2.15175,3.81025 2.15175,6.63851c0,2.82826 -0.71724,5.04111 -2.15175,6.63851c-1.4345,1.59741 -3.38034,2.39611 -5.83754,2.39611c-2.45721,0 -4.40986,-0.7987 -5.85793,-2.39611zM286.60041,228.85255c-1.30779,0 -1.96168,1.0657 -1.96168,3.19708c0,2.13138 0.65389,3.19708 1.96168,3.19708c1.31232,0 1.96848,-1.06569 1.96848,-3.19707c0,-2.13138 -0.65616,-3.19707 -1.96848,-3.19707zM298.55757,238.72207c-1.44808,-1.59741 -2.17211,-3.81025 -2.17211,-6.63851c0,-2.82826 0.72403,-5.04111 2.17211,-6.63852c1.44807,-1.59741 3.40071,-2.39611 5.85791,-2.39611c2.4572,0 4.40305,0.79871 5.83755,2.39612c1.4345,1.59741 2.15175,3.81025 2.15175,6.63851c0,2.82826 -0.71724,5.04111 -2.15175,6.63851c-1.4345,1.59741 -3.38035,2.39611 -5.83755,2.39611c-2.4572,0 -4.40984,-0.7987 -5.85791,-2.39611zM304.42905,228.85255c-1.30779,0 -1.96168,1.0657 -1.96168,3.19708c0,2.13138 0.65389,3.19708 1.96169,3.19708c1.31232,0 1.96847,-1.06569 1.96847,-3.19707c0,-2.13138 -0.65616,-3.19707 -1.96847,-3.19707zM321.19882,240.4937c0,0.20816 -1.18108,0.31224 -3.54325,0.31224c-1.85534,-0.02263 -2.78302,-0.11539 -2.78302,-0.2783v-23.66922c0,-0.34392 1.12451,-0.51587 3.37356,-0.51587c1.96848,0.06788 2.95272,0.18327 2.95272,0.34618zM325.05867,234.51361c1.87797,1.13583 3.35999,1.70375 4.44604,1.70375c0.69689,0 1.04533,-0.2421 1.04533,-0.72629c0,-0.34844 -0.60186,-0.80097 -1.80557,-1.35757c-2.89615,-1.18108 -4.34422,-3.11562 -4.34422,-5.80361c0,-1.71506 0.62448,-3.02285 1.87344,-3.92337c1.25349,-0.90505 2.7536,-1.35757 4.50035,-1.35757c1.75126,0 3.23327,0.18554 4.44604,0.5566c1.21729,0.37106 1.82593,0.85753 1.82593,1.45939c0,0.50682 -0.24889,1.17882 -0.74666,2.01599c-0.49778,0.83264 -0.83943,1.2829 -1.02496,1.35079c-0.99556,-0.55208 -2.07256,-0.82812 -3.23101,-0.82812c-0.62448,0 -0.93673,0.21947 -0.93673,0.65842c0,0.27604 0.11991,0.51361 0.35976,0.71273c0.24436,0.19458 0.6901,0.43668 1.33721,0.7263c0.65163,0.28961 1.19013,0.55208 1.61551,0.78739c0.42989,0.23078 0.91183,0.55434 1.44581,0.97066c1.1132,0.8779 1.66981,2.02504 1.66981,3.44144c0,1.85082 -0.61543,3.35094 -1.84629,4.50035c-1.22634,1.14488 -3.07942,1.71733 -5.55925,1.71733c-1.64266,0 -3.13598,-0.2783 -4.47998,-0.8349c-1.344,-0.5566 -2.01599,-1.32136 -2.01599,-2.29429c0,-0.64711 0.15613,-1.32815 0.46837,-2.04314c0.31224,-0.71951 0.63127,-1.19692 0.95709,-1.43223z" fill="#ffffff" stroke="none" stroke-width="1" stroke-linecap="square"/><g stroke="none" stroke-width="0" stroke-linecap="butt"><path d="M104.67623,239.27084c-0.76467,0 -1.38456,-0.61989 -1.38456,-1.38456v-4.26906c0,-0.76467 0.61989,-1.38456 1.38456,-1.38456h4.26906c0.76467,0 1.38456,0.61989 1.38456,1.38456v4.26906c0,0.76467 -0.61989,1.38456 -1.38456,1.38456z" fill="#ffffff"/><path d="M115.17581,227.3867c-0.76467,0 -1.38456,-0.61989 -1.38456,-1.38456v-4.26906c0,-0.76467 0.61989,-1.38456 1.38456,-1.38456h4.26906c0.76467,0 1.38456,0.61989 1.38456,1.38456v4.26906c0,0.76467 -0.61989,1.38456 -1.38456,1.38456z" fill-opacity="0.9098" fill="#ffffff"/><path d="M105.23232,212.50268c-0.68945,0 -1.24837,-0.55892 -1.24837,-1.24837v-3.84915c0,-0.68946 0.55892,-1.24837 1.24837,-1.24837h3.84915c0.68945,0 1.24838,0.55891 1.24838,1.24837v3.84915c0,0.68946 -0.55892,1.24837 -1.24838,1.24837z" fill-opacity="0.84706" fill="#ffffff"/><path d="M114.80886,200.2724c-0.68945,0 -1.24837,-0.55892 -1.24837,-1.24838v-3.84915c0,-0.68946 0.55891,-1.24837 1.24837,-1.24837h3.84916c0.68945,0 1.24837,0.55892 1.24837,1.24837v3.84915c0,0.68946 -0.55892,1.24838 -1.24837,1.24838z" fill-opacity="0.81569" fill="#ffffff"/><path d="M105.53685,186.88832c-0.53903,0 -0.97599,-0.43697 -0.97599,-0.976v-3.00933c0,-0.53903 0.43697,-0.976 0.97599,-0.976h3.00934c0.53903,0 0.97601,0.43697 0.97601,0.976v3.00933c0,0.53903 -0.43698,0.976 -0.97601,0.976z" fill-opacity="0.68627" fill="#ffffff"/><path d="M114.95451,174.19652c-0.45128,0 -0.81712,-0.36584 -0.81712,-0.81712v-2.51944c0,-0.45128 0.36584,-0.81712 0.81712,-0.81712h2.51944c0.45128,0 0.81712,0.36584 0.81712,0.81712v2.51944c0,0.45128 -0.36584,0.81712 -0.81712,0.81712z" fill-opacity="0.54118" fill="#ffffff"/><path d="M107.38671,163.12004c-0.41367,0 -0.74902,-0.33535 -0.74902,-0.74902v-2.30948c0,-0.41367 0.33535,-0.74903 0.74902,-0.74903h2.30949c0.41367,0 0.74903,0.33536 0.74903,0.74903v2.30948c0,0.41367 -0.33536,0.74902 -0.74903,0.74902z" fill-opacity="0.41961" fill="#ffffff"/><path d="M370.17581,239.27084c-0.76467,0 -1.38456,-0.61989 -1.38456,-1.38456v-4.26906c0,-0.76467 0.61989,-1.38456 1.38456,-1.38456h4.26906c0.76467,0 1.38456,0.61989 1.38456,1.38456v4.26906c0,0.76467 -0.61989,1.38456 -1.38456,1.38456z" fill="#ffffff"/><path d="M359.67623,227.3867c-0.76467,0 -1.38456,-0.61989 -1.38456,-1.38456v-4.26906c0,-0.76467 0.61989,-1.38456 1.38456,-1.38456h4.26906c0.76467,0 1.38456,0.61989 1.38456,1.38456v4.26906c0,0.76467 -0.61989,1.38456 -1.38456,1.38456z" fill-opacity="0.9098" fill="#ffffff"/><path d="M370.03962,212.50268c-0.68946,0 -1.24838,-0.55892 -1.24838,-1.24837v-3.84915c0,-0.68946 0.55892,-1.24837 1.24838,-1.24837h3.84915c0.68946,0 1.24837,0.55891 1.24837,1.24837v3.84915c0,0.68946 -0.55892,1.24837 -1.24837,1.24837z" fill-opacity="0.84706" fill="#ffffff"/><path d="M360.46308,200.2724c-0.68946,0 -1.24838,-0.55892 -1.24838,-1.24838v-3.84915c0,-0.68946 0.55892,-1.24837 1.24838,-1.24837h3.84915c0.68946,0 1.24837,0.55892 1.24837,1.24837v3.84915c0,0.68946 -0.55892,1.24838 -1.24837,1.24838z" fill-opacity="0.81569" fill="#ffffff"/><path d="M370.57491,186.88832c-0.53903,0 -0.976,-0.43697 -0.976,-0.976v-3.00933c0,-0.53903 0.43697,-0.976 0.976,-0.976h3.00934c0.53903,0 0.976,0.43697 0.976,0.976v3.00933c0,0.53903 -0.43696,0.976 -0.976,0.976z" fill-opacity="0.68627" fill="#ffffff"/><path d="M361.64715,174.19652c-0.45128,0 -0.81712,-0.36584 -0.81712,-0.81712v-2.51944c0,-0.45128 0.36584,-0.81712 0.81712,-0.81712h2.51944c0.45128,0 0.81712,0.36584 0.81712,0.81712v2.51944c0,0.45128 -0.36584,0.81712 -0.81712,0.81712z" fill-opacity="0.54118" fill="#ffffff"/><path d="M369.42489,163.12004c-0.41367,0 -0.74903,-0.33535 -0.74903,-0.74902v-2.30948c0,-0.41367 0.33536,-0.74903 0.74903,-0.74903h2.30949c0.41367,0 0.74902,0.33536 0.74902,0.74903v2.30948c0,0.41367 -0.33535,0.74902 -0.74902,0.74902z" fill-opacity="0.41961" fill="#ffffff"/></g></g></g></svg>
