<svg version="1.1" xmlns="http://www.w3.org/2000/svg" xmlns:xlink="http://www.w3.org/1999/xlink" width="309.2973" height="159.64866" viewBox="0,0,309.2973,159.64866"><defs><linearGradient x1="239.5" y1="105.17567" x2="239.5" y2="254.82433" gradientUnits="userSpaceOnUse" id="color-1"><stop offset="0" stop-color="#5d4000"/><stop offset="1" stop-color="#7c5500"/></linearGradient></defs><g transform="translate(-84.85135,-100.17567)"><g fill-rule="nonzero" stroke-linejoin="miter" stroke-miterlimit="10" stroke-dasharray="" stroke-dashoffset="0" style="mix-blend-mode: normal"><path d="M93.18354,106.64538h287.71778c0.44166,0.02358 0.88427,0.02358 1.32592,0h4.51741v146.78056c0,0 -283.63979,-0.09816 -284.53557,0c0,0 -7.59737,-4.80965 -9.02553,-6.79252z" fill="#ab7916" stroke="none" stroke-width="1" stroke-linecap="butt"/><path d="M301.64099,213.43602c3.2121,-17.56195 0.54284,-34.88475 -7.80285,-50.41321c-2.49406,-4.65993 -7.8811,-11.76647 -11.78466,-15.55347c-7.99204,-7.76386 -17.25774,-13.23727 -27.50485,-16.30495c-3.17861,-0.94852 -10.55172,-2.24605 -14.01854,-2.46391c-21.60015,-1.38859 -41.52431,7.464 -53.33719,23.67933c-10.5466,14.48703 -13.13926,33.47539 -6.87354,50.20986c1.54667,4.09788 2.43652,5.76087 5.41913,10.05493c3.00747,4.32985 4.30486,5.81585 7.61587,8.63519c9.81174,8.43616 22.9377,11.94443 35.52132,9.51669c15.19101,-2.9126 26.53016,-14.502 27.93739,-28.4762c1.03681,-10.26879 -2.67095,-19.31092 -10.03349,-24.48829c-4.22059,-2.98327 -9.86847,-4.12639 -14.96593,-3.02596c-2.28083,0.49676 -4.65306,1.58747 -6.05656,2.77452c-0.57651,0.50653 -1.00292,0.96186 -0.94774,1.00311c0.03728,0.05367 0.96026,-0.03041 2.02638,-0.21392c2.62678,-0.41876 5.36795,0.09094 7.78664,1.43467c2.46143,1.3671 3.58035,2.36702 5.54637,5.00656c1.61805,2.13857 1.75624,2.41391 2.4856,4.53318c2.88013,8.42342 -1.42528,17.46138 -10.50611,21.99172c-5.08837,2.52641 -9.60782,3.19884 -14.68509,2.18986c-6.84278,-1.37412 -12.12507,-4.89309 -16.23163,-10.76711c-2.62221,-3.7752 -4.23499,-7.85369 -5.06501,-12.71458c-1.91618,-11.42708 1.89794,-22.77618 10.52361,-31.20768c1.80356,-1.75669 2.48195,-2.30747 5.60361,-4.34312c2.5188,-1.64344 4.1266,-2.57453 5.52967,-3.15122c8.49939,-3.64905 16.99606,-4.59076 26.19529,-2.91715c12.20632,2.18426 22.9265,9.14067 30.20904,19.62535c4.85917,6.99575 7.70042,14.33217 8.93043,23.05297c2.39585,16.92918 -3.0375,34.30993 -14.68919,46.93866c-3.6354,3.93088 -4.87788,5.00609 -10.2579,8.71646c-5.34969,3.71584 -6.89835,4.57933 -11.70099,6.56246c-19.42125,7.9728 -42.41214,6.22399 -60.59065,-4.59661c-22.02328,-13.11006 -35.29336,-36.83559 -35.67523,-63.81048c-0.2348,-17.36926 5.11809,-34.21668 15.39385,-48.32991c5.54066,-7.64141 11.51542,-13.4359 19.59015,-19.07104c8.58814,-5.96522 16.74555,-9.80111 26.63523,-12.47959c19.91704,-5.42605 40.88348,-3.99515 60.273,4.1011c3.71,1.56081 11.18923,5.56965 14.52553,7.81442c8.08625,5.41736 14.74607,11.45416 20.95622,18.94383c2.85181,3.45658 8.58294,12.12774 10.54112,15.93979c4.60737,9.0008 7.85935,18.22689 9.61775,27.40293c3.40292,17.76807 2.25651,35.59274 -3.3384,52.74089c-2.67279,8.16367 -6.38837,15.91301 -10.99673,23.09186c-0.58134,-0.0679 -31.42426,-0.78098 -33.32197,-1.11933c11.57521,-11.66031 18.68982,-25.04554 21.52101,-40.51258z" fill="#ce9519" stroke="none" stroke-width="1" stroke-linecap="butt"/><path d="M161.53511,111.58344c-20.30036,19.53782 -31.31994,46.28917 -30.64969,74.44298c0.12527,5.29736 0.42531,8.66969 1.22651,13.60365c1.67503,10.50709 4.74413,19.96631 9.45938,29.23699c4.11983,8.08961 10.32143,16.58314 16.76239,23.02953c-3.05776,-0.08293 -30.71672,3.10345 -31.96022,3.36675c-3.33174,-4.73147 -6.34543,-9.74439 -9.01696,-15.01437c-8.77828,-17.29685 -13.47772,-37.77163 -13.25501,-57.76626c0.30781,-27.72101 9.40339,-54.00034 25.78279,-75.48266c10.53925,0 35.21837,-0.1568 37.14805,-0.28508c-1.95982,1.60449 -3.81134,3.24074 -5.49723,4.86847z" fill="#ce9519" stroke="none" stroke-width="1" stroke-linecap="butt"/><path d="M345.88571,227.87445c6.54622,-27.46365 3.15698,-57.81359 -9.24839,-82.77632c-3.25621,-6.59728 -9.03757,-15.68445 -13.26434,-20.89145c-4.2086,-5.18969 -8.76749,-9.932 -13.62959,-14.20666c11.93038,0 24.46319,0 36.39758,0c1.09481,1.47667 2.27961,3.14545 3.72244,5.22271c5.51783,7.94403 8.89972,13.84396 12.60887,22.00983c16.41008,36.10071 17.68931,77.14372 4.3674,113.77253c-4.5349,0.06723 -28.39988,-1.00507 -28.39988,-1.00507c3.14092,-6.99023 5.56856,-14.23929 7.4459,-22.12557z" fill="#ce9519" stroke="none" stroke-width="1" stroke-linecap="butt"/><path d="M89.85135,117.67133c0,-6.39897 5.91545,-12.49566 13.1192,-12.49566c28.93252,0 219.72832,0 272.60996,0c8.61359,0 13.56814,4.64378 13.56814,12.24625c0,30.59212 0,109.0924 0,125.70487c0,6.03964 -4.85913,11.69754 -13.31873,11.69754c-52.46667,0 -243.42599,0 -272.60996,0c-7.3279,0 -13.36861,-4.5235 -13.36861,-11.94695c0,-30.16113 0,-108.19342 0,-125.20604z" fill="none" stroke="url(#color-1)" stroke-width="10" stroke-linecap="butt"/><path d="M213.38275,189.68212l0.6004,-56.6771l14.72205,0.15595l-0.60036,56.67394zM251.21954,190.12402l0.60041,-56.67709l14.72548,0.15599l-0.60036,56.67393z" fill="none" stroke-opacity="0.50196" stroke="#000000" stroke-width="12.5" stroke-linecap="butt"/><path d="M213.38275,189.68212l0.6004,-56.6771l14.72205,0.15595l-0.60036,56.67394zM251.21954,190.12402l0.60041,-56.67709l14.72548,0.15599l-0.60036,56.67393z" fill="#ffae00" stroke="#d89400" stroke-width="5" stroke-linecap="butt"/><path d="M113.7589,237.22533c-2.60503,0 -3.90755,-0.28571 -3.90755,-0.85714v-27.88225c0,-0.97479 0.44257,-1.46218 1.32773,-1.46218h7.5714c4.24648,0 7.30809,0.87675 9.18484,2.63024c1.88235,1.74789 2.82352,4.2857 2.82352,7.61342c0,2.75069 -0.89075,5.27449 -2.67226,7.5714c-0.88515,1.14285 -2.19047,2.05882 -3.91595,2.74789c-1.71988,0.68907 -3.72548,1.03361 -6.01678,1.03361v7.70585c0,0.34173 -0.53781,0.57703 -1.61344,0.70588c-1.07563,0.12885 -2.00279,0.19328 -2.7815,0.19328zM118.15384,214.51113v6.79829h0.55462c1.0028,0 1.84873,-0.31373 2.53781,-0.94117c0.68907,-0.63305 1.03361,-1.5238 1.03361,-2.67226c0,-1.14845 -0.2381,-1.96638 -0.71428,-2.45377c-0.47059,-0.48739 -1.30812,-0.73109 -2.5126,-0.73109zM135.96383,221.5195c-0.80112,-1.43417 -1.20168,-2.60223 -1.20168,-3.50419c0,-0.90196 0.2437,-1.48179 0.73109,-1.73949c1.63025,-0.71709 3.87113,-1.07563 6.72266,-1.07563c2.85713,0 4.87393,0.66667 6.05041,1.99999c1.17647,1.33333 1.7647,3.30531 1.7647,5.91594v6.79829h1.46218c0.48739,0 0.86834,0.28852 1.14285,0.86554c0.27451,0.57143 0.41176,1.35854 0.41176,2.36134c0,1.0028 -0.2521,1.99159 -0.7563,2.96638c-0.5042,0.97479 -1.18487,1.46218 -2.04201,1.46218c-1.55182,0 -2.80112,-0.41457 -3.74789,-1.24369c-0.42577,-0.34734 -0.7535,-0.7647 -0.98319,-1.2521c-1.32212,1.66386 -3.37534,2.49579 -6.15964,2.49579c-2.08963,0 -3.85153,-0.74509 -5.28569,-2.23529c-1.43417,-1.49019 -2.15125,-3.25489 -2.15125,-5.2941c0,-4.67225 2.79551,-7.00838 8.38652,-7.00838h2.36974v-0.43697c0,-0.74509 -0.12325,-1.22408 -0.36975,-1.43697c-0.24089,-0.21289 -0.80672,-0.31933 -1.69747,-0.31933c-1.09243,0 -2.64145,0.22689 -4.64704,0.68067zM139.4092,229.44384c0,0.62745 0.17087,1.10644 0.5126,1.43697c0.34173,0.33053 0.77871,0.4958 1.31092,0.4958c0.53221,0 1.014,-0.21568 1.44537,-0.64706v-3.31091h-1.21008c-1.37254,0 -2.05882,0.67507 -2.05882,2.0252zM155.28341,215.88927c0,-0.31933 1.23249,-0.47899 3.69747,-0.47899c2.46498,0 3.69747,0.15966 3.69747,0.47899v12.56298c0,1.43417 0.45938,2.15125 1.37815,2.15125c0.68907,0 1.46498,-0.30252 2.32772,-0.90756v-13.80667c0,-0.28571 1.21848,-0.42857 3.65545,-0.42857c2.43697,0 3.65545,0.14286 3.65545,0.42857v14.10919h1.11764c0.97479,0 1.46218,0.93277 1.46218,2.79831c0,0.94677 -0.19888,1.90756 -0.59664,2.88234c-0.57703,1.2605 -1.35294,1.89075 -2.32772,1.89075c-1.92156,0 -3.34172,-0.78711 -4.26049,-2.36134l-0.04202,0.04202c-1.74789,1.54621 -3.62744,2.31932 -5.63863,2.31932c-2.7787,0 -4.82911,-0.69467 -6.15124,-2.08403c-1.31652,-1.38935 -1.97478,-3.69186 -1.97478,-6.90754zM179.80666,229.39342c2.32492,1.40616 4.15965,2.10924 5.50418,2.10924c0.86274,0 1.29411,-0.29972 1.29411,-0.89916c0,-0.43137 -0.74509,-0.99159 -2.23529,-1.68067c-3.58542,-1.46218 -5.37813,-3.85713 -5.37813,-7.18485c0,-2.12324 0.77311,-3.74228 2.31932,-4.85712c1.55181,-1.12044 3.40895,-1.68067 5.57141,-1.68067c2.16806,0 4.00279,0.22969 5.50418,0.68907c1.507,0.45938 2.2605,1.06162 2.2605,1.80672c0,0.62745 -0.30812,1.45938 -0.92437,2.49579c-0.61625,1.03081 -1.03921,1.58823 -1.2689,1.67226c-1.23249,-0.68347 -2.56582,-1.02521 -3.99998,-1.02521c-0.77311,0 -1.15966,0.27171 -1.15966,0.81512c0,0.34173 0.14846,0.63585 0.44538,0.88235c0.30252,0.24089 0.85434,0.54062 1.65546,0.89916c0.80672,0.35854 1.47338,0.68347 1.99999,0.97479c0.53221,0.28571 1.12885,0.68627 1.78991,1.20168c1.37815,1.08683 2.06722,2.50699 2.06722,4.26049c0,2.29131 -0.7619,4.14844 -2.28571,5.57141c-1.5182,1.41736 -3.81231,2.12604 -6.88233,2.12604c-2.03361,0 -3.88234,-0.34454 -5.5462,-1.03361c-1.66386,-0.68907 -2.49579,-1.63585 -2.49579,-2.84033c0,-0.80112 0.19328,-1.64425 0.57983,-2.5294c0.38655,-0.89075 0.78151,-1.48179 1.18487,-1.7731zM214.5292,235.98163c-1.80952,1.05882 -4.13444,1.58823 -6.97476,1.58823c-2.84033,0 -5.23527,-0.96638 -7.18485,-2.89915c-1.94957,-1.93837 -2.92436,-4.62183 -2.92436,-8.05039c0,-3.42856 0.93837,-6.18765 2.81512,-8.27728c1.88235,-2.09523 4.25769,-3.14285 7.12602,-3.14285c2.86834,0 5.08401,0.73109 6.64703,2.19327c1.56302,1.46218 2.34453,3.24088 2.34453,5.33611c0,4.64424 -2.66666,6.96636 -7.99997,6.96636h-2.97478c0,0.86274 0.23529,1.45938 0.70588,1.78991c0.47619,0.33053 1.17366,0.4958 2.09243,0.4958c2.0112,0 3.91875,-0.45938 5.72267,-1.37815c0.02801,-0.02801 0.15686,0.17087 0.38655,0.59664c0.68907,1.23809 1.03361,2.2801 1.03361,3.12604c0,0.84593 -0.27171,1.39775 -0.81512,1.65546zM209.15107,223.54471c0,-1.20448 -0.58823,-1.80672 -1.7647,-1.80672c-0.54341,0 -1.0112,0.16526 -1.40336,0.4958c-0.38655,0.33053 -0.57983,0.80952 -0.57983,1.43697v1.33613h2.32772c0.94677,0 1.42016,-0.48739 1.42016,-1.46218zM241.54485,207.8809c0,-0.57143 1.55462,-0.85714 4.66385,-0.85714c3.11483,0 4.67225,0.28571 4.67225,0.85714v19.74782c0,2.92996 -1.04761,5.31931 -3.14285,7.16804c-2.08963,1.84873 -4.97757,2.7731 -8.66382,2.7731c-3.68626,0 -6.68345,-0.95238 -8.99156,-2.85713c-2.30811,-1.91036 -3.46217,-4.48458 -3.46217,-7.72266v-19.05875c0,-0.57703 1.55462,-0.86554 4.66385,-0.86554c3.11483,0 4.67225,0.28852 4.67225,0.86554v19.40329c0,0.57143 0.29972,1.02801 0.89916,1.36974c0.63305,0.34734 1.29411,0.52101 1.98319,0.52101c0.68907,0 1.31092,-0.15686 1.86554,-0.47059c0.56021,-0.31933 0.84032,-0.79271 0.84032,-1.42016v-19.45371zM264.17804,236.88079c0,0.34734 -1.20448,0.52101 -3.61343,0.52101c-2.86834,-0.11765 -4.3025,-0.30532 -4.3025,-0.56302v-15.22683h-2.19327c-0.57703,0 -0.86554,-0.99159 -0.86554,-2.97478c0,-0.51541 0.05042,-1.14565 0.15126,-1.89075c0.10084,-0.74509 0.31092,-1.11764 0.63025,-1.11764h2.2773v-3.7899c0,-0.57143 1.21008,-0.85714 3.63024,-0.85714c2.42576,0 3.63864,0.22969 3.63864,0.68907v2.75629l0.04202,1.20168h3.66385c0.48739,0 0.73109,1.0056 0.73109,3.0168c0,2.00559 -0.2437,3.00839 -0.73109,3.00839h-3.05881zM277.98604,236.88079c0,0.22969 -1.31372,0.34454 -3.94116,0.34454c-2.62184,0 -3.93276,-0.10084 -3.93276,-0.30252v-21.12597c0,-0.19608 1.31092,-0.29412 3.93276,-0.29412c2.62744,0 3.94116,0.08403 3.94116,0.2521zM277.98604,213.21701c0,0.20168 -1.31372,0.30252 -3.94116,0.30252c-2.62184,0 -3.93276,-0.08684 -3.93276,-0.2605v-6.19325c0,-0.28571 1.31092,-0.42857 3.93276,-0.42857c2.62744,0 3.94116,0.08684 3.94116,0.2605zM289.68985,236.79676c0,0.2577 -1.46218,0.38655 -4.38654,0.38655c-2.29691,-0.02801 -3.44537,-0.14286 -3.44537,-0.34454v-29.30241c0,-0.42577 1.39215,-0.63865 4.17645,-0.63865c2.43697,0.08403 3.65545,0.22689 3.65545,0.42857zM301.43468,236.88079c0,0.22969 -1.31372,0.34454 -3.94116,0.34454c-2.62184,0 -3.93276,-0.10084 -3.93276,-0.30252v-21.12597c0,-0.19608 1.31092,-0.29412 3.93276,-0.29412c2.62744,0 3.94116,0.08403 3.94116,0.2521zM301.43468,213.21701c0,0.20168 -1.31372,0.30252 -3.94116,0.30252c-2.62184,0 -3.93276,-0.08684 -3.93276,-0.2605v-6.19325c0,-0.28571 1.31092,-0.42857 3.93276,-0.42857c2.62744,0 3.94116,0.08684 3.94116,0.2605zM315.2057,236.88079c0,0.34734 -1.20448,0.52101 -3.61343,0.52101c-2.86834,-0.11765 -4.3025,-0.30532 -4.3025,-0.56302v-15.22683h-2.19327c-0.57703,0 -0.86554,-0.99159 -0.86554,-2.97478c0,-0.51541 0.05042,-1.14565 0.15126,-1.89075c0.10084,-0.74509 0.31092,-1.11764 0.63025,-1.11764h2.2773v-3.7899c0,-0.57143 1.21008,-0.85714 3.63024,-0.85714c2.42576,0 3.63864,0.22969 3.63864,0.68907v2.75629l0.04202,1.20168h3.66385c0.48739,0 0.73109,1.0056 0.73109,3.0168c0,2.00559 -0.2437,3.00839 -0.73109,3.00839h-3.05881zM329.01373,236.88079c0,0.22969 -1.31372,0.34454 -3.94116,0.34454c-2.62184,0 -3.93276,-0.10084 -3.93276,-0.30252v-21.12597c0,-0.19608 1.31092,-0.29412 3.93276,-0.29412c2.62744,0 3.94116,0.08403 3.94116,0.2521zM329.01373,213.21701c0,0.20168 -1.31372,0.30252 -3.94116,0.30252c-2.62184,0 -3.93276,-0.08684 -3.93276,-0.2605v-6.19325c0,-0.28571 1.31092,-0.42857 3.93276,-0.42857c2.62744,0 3.94116,0.08684 3.94116,0.2605zM349.15447,235.98163c-1.80952,1.05882 -4.13444,1.58823 -6.97476,1.58823c-2.84033,0 -5.23527,-0.96638 -7.18485,-2.89915c-1.94957,-1.93837 -2.92436,-4.62183 -2.92436,-8.05039c0,-3.42856 0.93837,-6.18765 2.81512,-8.27728c1.88235,-2.09523 4.25769,-3.14285 7.12602,-3.14285c2.86834,0 5.08401,0.73109 6.64703,2.19327c1.56302,1.46218 2.34453,3.24088 2.34453,5.33611c0,4.64424 -2.66666,6.96636 -7.99997,6.96636h-2.97478c0,0.86274 0.23529,1.45938 0.70588,1.78991c0.47619,0.33053 1.17366,0.4958 2.09243,0.4958c2.0112,0 5.87953,-1.20728 6.10922,-0.78151c0.68907,1.23809 1.03361,2.2801 1.03361,3.12604c0,0.84593 -0.27171,1.39775 -0.81512,1.65546zM343.77634,223.54471c0,-1.20448 -0.58823,-1.80672 -1.7647,-1.80672c-0.54341,0 -1.0112,0.16526 -1.40336,0.4958c-0.38655,0.33053 -0.57983,0.80952 -0.57983,1.43697v1.33613h2.32772c0.94677,0 1.42016,-0.48739 1.42016,-1.46218zM354.70332,229.39342c2.32492,1.40616 4.15965,2.10924 5.50418,2.10924c0.86274,0 1.29411,-0.29972 1.29411,-0.89916c0,-0.43137 -0.74509,-0.99159 -2.23529,-1.68067c-3.58542,-1.46218 -5.37813,-3.85713 -5.37813,-7.18485c0,-2.12324 0.77311,-3.74228 2.31932,-4.85712c1.55181,-1.12044 3.40895,-1.68067 5.57141,-1.68067c2.16806,0 4.00279,0.22969 5.50418,0.68907c1.507,0.45938 2.2605,1.06162 2.2605,1.80672c0,0.62745 -0.30812,1.45938 -0.92437,2.49579c-0.61625,1.03081 -1.03921,1.58823 -1.2689,1.67226c-1.23249,-0.68347 -2.56582,-1.02521 -3.99998,-1.02521c-0.77311,0 -1.15966,0.27171 -1.15966,0.81512c0,0.34173 0.14846,0.63585 0.44538,0.88235c0.30252,0.24089 0.85434,0.54062 1.65546,0.89916c0.80672,0.35854 1.47338,0.68347 1.99999,0.97479c0.53221,0.28571 1.12885,0.68627 1.78991,1.20168c1.37815,1.08683 2.06722,2.50699 2.06722,4.26049c0,2.29131 -0.7619,4.14844 -2.28571,5.57141c-1.5182,1.41736 -3.81231,2.12604 -6.88233,2.12604c-2.03361,0 -3.88234,-0.34454 -5.5462,-1.03361c-1.66386,-0.68907 -2.49579,-1.63585 -2.49579,-2.84033c0,-0.80112 0.19328,-1.64425 0.57983,-2.5294c0.38655,-0.89075 0.78151,-1.48179 1.18487,-1.7731z" fill="none" stroke-opacity="0.51765" stroke="#000000" stroke-width="7.5" stroke-linecap="square"/><path d="M113.7589,237.22533c-2.60503,0 -3.90755,-0.28571 -3.90755,-0.85714v-27.88225c0,-0.97479 0.44257,-1.46218 1.32773,-1.46218h7.5714c4.24648,0 7.30809,0.87675 9.18484,2.63024c1.88235,1.74789 2.82352,4.2857 2.82352,7.61342c0,2.75069 -0.89075,5.27449 -2.67226,7.5714c-0.88515,1.14285 -2.19047,2.05882 -3.91595,2.74789c-1.71988,0.68907 -3.72548,1.03361 -6.01678,1.03361v7.70585c0,0.34173 -0.53781,0.57703 -1.61344,0.70588c-1.07563,0.12885 -2.00279,0.19328 -2.7815,0.19328zM118.15384,214.51113v6.79829h0.55462c1.0028,0 1.84873,-0.31373 2.53781,-0.94117c0.68907,-0.63305 1.03361,-1.5238 1.03361,-2.67226c0,-1.14845 -0.2381,-1.96638 -0.71428,-2.45377c-0.47059,-0.48739 -1.30812,-0.73109 -2.5126,-0.73109zM135.96383,221.5195c-0.80112,-1.43417 -1.20168,-2.60223 -1.20168,-3.50419c0,-0.90196 0.2437,-1.48179 0.73109,-1.73949c1.63025,-0.71709 3.87113,-1.07563 6.72266,-1.07563c2.85713,0 4.87393,0.66667 6.05041,1.99999c1.17647,1.33333 1.7647,3.30531 1.7647,5.91594v6.79829h1.46218c0.48739,0 0.86834,0.28852 1.14285,0.86554c0.27451,0.57143 0.41176,1.35854 0.41176,2.36134c0,1.0028 -0.2521,1.99159 -0.7563,2.96638c-0.5042,0.97479 -1.18487,1.46218 -2.04201,1.46218c-1.55182,0 -2.80112,-0.41457 -3.74789,-1.24369c-0.42577,-0.34734 -0.7535,-0.7647 -0.98319,-1.2521c-1.32212,1.66386 -3.37534,2.49579 -6.15964,2.49579c-2.08963,0 -3.85153,-0.74509 -5.28569,-2.23529c-1.43417,-1.49019 -2.15125,-3.25489 -2.15125,-5.2941c0,-4.67225 2.79551,-7.00838 8.38652,-7.00838h2.36974v-0.43697c0,-0.74509 -0.12325,-1.22408 -0.36975,-1.43697c-0.24089,-0.21289 -0.80672,-0.31933 -1.69747,-0.31933c-1.09243,0 -2.64145,0.22689 -4.64704,0.68067zM139.4092,229.44384c0,0.62745 0.17087,1.10644 0.5126,1.43697c0.34173,0.33053 0.77871,0.4958 1.31092,0.4958c0.53221,0 1.014,-0.21568 1.44537,-0.64706v-3.31091h-1.21008c-1.37254,0 -2.05882,0.67507 -2.05882,2.0252zM155.28341,215.88927c0,-0.31933 1.23249,-0.47899 3.69747,-0.47899c2.46498,0 3.69747,0.15966 3.69747,0.47899v12.56298c0,1.43417 0.45938,2.15125 1.37815,2.15125c0.68907,0 1.46498,-0.30252 2.32772,-0.90756v-13.80667c0,-0.28571 1.21848,-0.42857 3.65545,-0.42857c2.43697,0 3.65545,0.14286 3.65545,0.42857v14.10919h1.11764c0.97479,0 1.46218,0.93277 1.46218,2.79831c0,0.94677 -0.19888,1.90756 -0.59664,2.88234c-0.57703,1.2605 -1.35294,1.89075 -2.32772,1.89075c-1.92156,0 -3.34172,-0.78711 -4.26049,-2.36134l-0.04202,0.04202c-1.74789,1.54621 -3.62744,2.31932 -5.63863,2.31932c-2.7787,0 -4.82911,-0.69467 -6.15124,-2.08403c-1.31652,-1.38935 -1.97478,-3.69186 -1.97478,-6.90754zM179.80666,229.39342c2.32492,1.40616 4.15965,2.10924 5.50418,2.10924c0.86274,0 1.29411,-0.29972 1.29411,-0.89916c0,-0.43137 -0.74509,-0.99159 -2.23529,-1.68067c-3.58542,-1.46218 -5.37813,-3.85713 -5.37813,-7.18485c0,-2.12324 0.77311,-3.74228 2.31932,-4.85712c1.55181,-1.12044 3.40895,-1.68067 5.57141,-1.68067c2.16806,0 4.00279,0.22969 5.50418,0.68907c1.507,0.45938 2.2605,1.06162 2.2605,1.80672c0,0.62745 -0.30812,1.45938 -0.92437,2.49579c-0.61625,1.03081 -1.03921,1.58823 -1.2689,1.67226c-1.23249,-0.68347 -2.56582,-1.02521 -3.99998,-1.02521c-0.77311,0 -1.15966,0.27171 -1.15966,0.81512c0,0.34173 0.14846,0.63585 0.44538,0.88235c0.30252,0.24089 0.85434,0.54062 1.65546,0.89916c0.80672,0.35854 1.47338,0.68347 1.99999,0.97479c0.53221,0.28571 1.12885,0.68627 1.78991,1.20168c1.37815,1.08683 2.06722,2.50699 2.06722,4.26049c0,2.29131 -0.7619,4.14844 -2.28571,5.57141c-1.5182,1.41736 -3.81231,2.12604 -6.88233,2.12604c-2.03361,0 -3.88234,-0.34454 -5.5462,-1.03361c-1.66386,-0.68907 -2.49579,-1.63585 -2.49579,-2.84033c0,-0.80112 0.19328,-1.64425 0.57983,-2.5294c0.38655,-0.89075 0.78151,-1.48179 1.18487,-1.7731zM214.5292,235.98163c-1.80952,1.05882 -4.13444,1.58823 -6.97476,1.58823c-2.84033,0 -5.23527,-0.96638 -7.18485,-2.89915c-1.94957,-1.93837 -2.92436,-4.62183 -2.92436,-8.05039c0,-3.42856 0.93837,-6.18765 2.81512,-8.27728c1.88235,-2.09523 4.25769,-3.14285 7.12602,-3.14285c2.86834,0 5.08401,0.73109 6.64703,2.19327c1.56302,1.46218 2.34453,3.24088 2.34453,5.33611c0,4.64424 -2.66666,6.96636 -7.99997,6.96636h-2.97478c0,0.86274 0.23529,1.45938 0.70588,1.78991c0.47619,0.33053 1.17366,0.4958 2.09243,0.4958c2.0112,0 3.91875,-0.45938 5.72267,-1.37815c0.02801,-0.02801 0.15686,0.17087 0.38655,0.59664c0.68907,1.23809 1.03361,2.2801 1.03361,3.12604c0,0.84593 -0.27171,1.39775 -0.81512,1.65546zM209.15107,223.54471c0,-1.20448 -0.58823,-1.80672 -1.7647,-1.80672c-0.54341,0 -1.0112,0.16526 -1.40336,0.4958c-0.38655,0.33053 -0.57983,0.80952 -0.57983,1.43697v1.33613h2.32772c0.94677,0 1.42016,-0.48739 1.42016,-1.46218zM241.54485,207.8809c0,-0.57143 1.55462,-0.85714 4.66385,-0.85714c3.11483,0 4.67225,0.28571 4.67225,0.85714v19.74782c0,2.92996 -1.04761,5.31931 -3.14285,7.16804c-2.08963,1.84873 -4.97757,2.7731 -8.66382,2.7731c-3.68626,0 -6.68345,-0.95238 -8.99156,-2.85713c-2.30811,-1.91036 -3.46217,-4.48458 -3.46217,-7.72266v-19.05875c0,-0.57703 1.55462,-0.86554 4.66385,-0.86554c3.11483,0 4.67225,0.28852 4.67225,0.86554v19.40329c0,0.57143 0.29972,1.02801 0.89916,1.36974c0.63305,0.34734 1.29411,0.52101 1.98319,0.52101c0.68907,0 1.31092,-0.15686 1.86554,-0.47059c0.56021,-0.31933 0.84032,-0.79271 0.84032,-1.42016v-19.45371zM264.17804,236.88079c0,0.34734 -1.20448,0.52101 -3.61343,0.52101c-2.86834,-0.11765 -4.3025,-0.30532 -4.3025,-0.56302v-15.22683h-2.19327c-0.57703,0 -0.86554,-0.99159 -0.86554,-2.97478c0,-0.51541 0.05042,-1.14565 0.15126,-1.89075c0.10084,-0.74509 0.31092,-1.11764 0.63025,-1.11764h2.2773v-3.7899c0,-0.57143 1.21008,-0.85714 3.63024,-0.85714c2.42576,0 3.63864,0.22969 3.63864,0.68907v2.75629l0.04202,1.20168h3.66385c0.48739,0 0.73109,1.0056 0.73109,3.0168c0,2.00559 -0.2437,3.00839 -0.73109,3.00839h-3.05881zM277.98604,236.88079c0,0.22969 -1.31372,0.34454 -3.94116,0.34454c-2.62184,0 -3.93276,-0.10084 -3.93276,-0.30252v-21.12597c0,-0.19608 1.31092,-0.29412 3.93276,-0.29412c2.62744,0 3.94116,0.08403 3.94116,0.2521zM277.98604,213.21701c0,0.20168 -1.31372,0.30252 -3.94116,0.30252c-2.62184,0 -3.93276,-0.08684 -3.93276,-0.2605v-6.19325c0,-0.28571 1.31092,-0.42857 3.93276,-0.42857c2.62744,0 3.94116,0.08684 3.94116,0.2605zM289.68985,236.79676c0,0.2577 -1.46218,0.38655 -4.38654,0.38655c-2.29691,-0.02801 -3.44537,-0.14286 -3.44537,-0.34454v-29.30241c0,-0.42577 1.39215,-0.63865 4.17645,-0.63865c2.43697,0.08403 3.65545,0.22689 3.65545,0.42857zM301.43468,236.88079c0,0.22969 -1.31372,0.34454 -3.94116,0.34454c-2.62184,0 -3.93276,-0.10084 -3.93276,-0.30252v-21.12597c0,-0.19608 1.31092,-0.29412 3.93276,-0.29412c2.62744,0 3.94116,0.08403 3.94116,0.2521zM301.43468,213.21701c0,0.20168 -1.31372,0.30252 -3.94116,0.30252c-2.62184,0 -3.93276,-0.08684 -3.93276,-0.2605v-6.19325c0,-0.28571 1.31092,-0.42857 3.93276,-0.42857c2.62744,0 3.94116,0.08684 3.94116,0.2605zM315.2057,236.88079c0,0.34734 -1.20448,0.52101 -3.61343,0.52101c-2.86834,-0.11765 -4.3025,-0.30532 -4.3025,-0.56302v-15.22683h-2.19327c-0.57703,0 -0.86554,-0.99159 -0.86554,-2.97478c0,-0.51541 0.05042,-1.14565 0.15126,-1.89075c0.10084,-0.74509 0.31092,-1.11764 0.63025,-1.11764h2.2773v-3.7899c0,-0.57143 1.21008,-0.85714 3.63024,-0.85714c2.42576,0 3.63864,0.22969 3.63864,0.68907v2.75629l0.04202,1.20168h3.66385c0.48739,0 0.73109,1.0056 0.73109,3.0168c0,2.00559 -0.2437,3.00839 -0.73109,3.00839h-3.05881zM329.01373,236.88079c0,0.22969 -1.31372,0.34454 -3.94116,0.34454c-2.62184,0 -3.93276,-0.10084 -3.93276,-0.30252v-21.12597c0,-0.19608 1.31092,-0.29412 3.93276,-0.29412c2.62744,0 3.94116,0.08403 3.94116,0.2521zM329.01373,213.21701c0,0.20168 -1.31372,0.30252 -3.94116,0.30252c-2.62184,0 -3.93276,-0.08684 -3.93276,-0.2605v-6.19325c0,-0.28571 1.31092,-0.42857 3.93276,-0.42857c2.62744,0 3.94116,0.08684 3.94116,0.2605zM349.15447,235.98163c-1.80952,1.05882 -4.13444,1.58823 -6.97476,1.58823c-2.84033,0 -5.23527,-0.96638 -7.18485,-2.89915c-1.94957,-1.93837 -2.92436,-4.62183 -2.92436,-8.05039c0,-3.42856 0.93837,-6.18765 2.81512,-8.27728c1.88235,-2.09523 4.25769,-3.14285 7.12602,-3.14285c2.86834,0 5.08401,0.73109 6.64703,2.19327c1.56302,1.46218 2.34453,3.24088 2.34453,5.33611c0,4.64424 -2.66666,6.96636 -7.99997,6.96636h-2.97478c0,0.86274 0.23529,1.45938 0.70588,1.78991c0.47619,0.33053 1.17366,0.4958 2.09243,0.4958c2.0112,0 3.91875,-0.45938 5.72267,-1.37815c0.02801,-0.02801 0.15686,0.17087 0.38655,0.59664c0.68907,1.23809 1.03361,2.2801 1.03361,3.12604c0,0.84593 -0.27171,1.39775 -0.81512,1.65546zM343.77634,223.54471c0,-1.20448 -0.58823,-1.80672 -1.7647,-1.80672c-0.54341,0 -1.0112,0.16526 -1.40336,0.4958c-0.38655,0.33053 -0.57983,0.80952 -0.57983,1.43697v1.33613h2.32772c0.94677,0 1.42016,-0.48739 1.42016,-1.46218zM354.70332,229.39342c2.32492,1.40616 4.15965,2.10924 5.50418,2.10924c0.86274,0 1.29411,-0.29972 1.29411,-0.89916c0,-0.43137 -0.74509,-0.99159 -2.23529,-1.68067c-3.58542,-1.46218 -5.37813,-3.85713 -5.37813,-7.18485c0,-2.12324 0.77311,-3.74228 2.31932,-4.85712c1.55181,-1.12044 3.40895,-1.68067 5.57141,-1.68067c2.16806,0 4.00279,0.22969 5.50418,0.68907c1.507,0.45938 2.2605,1.06162 2.2605,1.80672c0,0.62745 -0.30812,1.45938 -0.92437,2.49579c-0.61625,1.03081 -1.03921,1.58823 -1.2689,1.67226c-1.23249,-0.68347 -2.56582,-1.02521 -3.99998,-1.02521c-0.77311,0 -1.15966,0.27171 -1.15966,0.81512c0,0.34173 0.14846,0.63585 0.44538,0.88235c0.30252,0.24089 0.85434,0.54062 1.65546,0.89916c0.80672,0.35854 1.47338,0.68347 1.99999,0.97479c0.53221,0.28571 1.12885,0.68627 1.78991,1.20168c1.37815,1.08683 2.06722,2.50699 2.06722,4.26049c0,2.29131 -0.7619,4.14844 -2.28571,5.57141c-1.5182,1.41736 -3.81231,2.12604 -6.88233,2.12604c-2.03361,0 -3.88234,-0.34454 -5.5462,-1.03361c-1.66386,-0.68907 -2.49579,-1.63585 -2.49579,-2.84033c0,-0.80112 0.19328,-1.64425 0.57983,-2.5294c0.38655,-0.89075 0.78151,-1.48179 1.18487,-1.7731z" fill="#ffffff" stroke="none" stroke-width="1" stroke-linecap="square"/></g></g></svg>
