<svg xmlns="http://www.w3.org/2000/svg" width="309.298" height="159.648" viewBox="0 0 309.298 159.648"><defs><linearGradient x1="240" y1="105.178" x2="240" y2="254.827" gradientUnits="userSpaceOnUse" id="a"><stop offset="0" stop-color="#075942"/><stop offset="1" stop-color="#0b8a66"/></linearGradient></defs><g stroke-miterlimit="10"><path d="M4.656 139.025v-122.5c0-6.04 7.79-11.696 16.792-11.696h266.5c10.527 0 16.693 7.611 16.693 15.195v118.5c0 9.961-7.998 16.295-17.193 16.295h-263c-12.405 0-19.792-6.112-19.792-15.795" fill="#0fbd8c"/><path d="M231.523 47.732s-10.465 2.58-15.901 6.505c-5.437 3.924-9.609 12.595-9.609 12.595s-6.794-4.356-9.85-6.55c-2.8-2.012-7.785-6.114-7.785-6.114s2.6-6.319 5.417-9.545 6.76-4.403 6.76-4.403 5.237.338 7.396 2.485 2.162 7.016 2.162 7.016 3.42-3.399 6.295-4.501 4.861-1.16 4.861-1.16z" fill="#27d6a4"/><path d="M216.276 45.386c-2.714 1.131-6.163 4.335-6.163 4.335s-.576-4.747-2.593-6.816-6.832-2.852-6.832-2.852 7.432-.037 11.74.78c4.307.816 10.254 3.67 10.254 3.67s-3.692-.248-6.406.883" fill="#1da37d"/><path d="M174.131 83.785s.758 7.082 1.32 10.286c.359 2.051 1.72 7.07 1.72 7.07l-20.744-2.777s-3.72-.818-4.618-2.703c-.898-1.886-2.148-11.504-2.148-11.504z" fill="#27d6a4"/><path d="m183.206 101.663-2.867 1.387s-14.582-2.32-19.462-3.325c-3-.617-7.034-2.125-7.034-2.125s14.437 2.318 19.752 3.053c4.216.584 9.611 1.01 9.611 1.01" fill="#1da37d"/><path d="M234.796 98.954s-5.645 5.748-7.64 9.115c-1.98 3.34-4.287 11.008-4.287 11.008l-21.199-10.745s4.043-10.885 6.591-15.605c2.183-4.043 7.774-11 7.774-11zm36.699-24.462s-3.788 4.639-4.94 6.883c-1.16 2.256-1.992 6.617-1.992 6.617s-7.868-1.03-11.284-1.863c-3.02-.736-8.17-2.877-8.17-2.877s-1.215-6.6.156-10.615c1.389-4.066 8.122-13.631 8.122-13.631z" fill="#27d6a4"/><path d="M264.696 82.53s-.226 1.905-.188 2.88c.04 1.03.422 3.145.422 3.145l-14.453-3.344s8.01.731 9.719.177c2.065-.67 4.5-2.858 4.5-2.858" fill="#1da37d"/><path d="M245.548 127.655c4.768-4.158 24.14-11.227 24.14-11.227s-8.988 7.226-11.614 11.592c-2.225 3.7-3.14 12.938-3.14 12.938l-15.384 1.756s1.231-10.9 5.999-15.059" fill="#27d6a4"/><path d="m270.067 115.779 7.831-1.65s-4.447 4.385-6.445 6.462c-1.127 1.17-4.511 4.926-4.511 4.926l-6.743-.744s3.161-3.76 4.73-5.194c1.582-1.448 5.138-3.8 5.138-3.8m-76.783 9.179c5.627.778 15.12 7.797 15.12 7.797l-13.777 9.596s-5.239-6.561-8.067-8.943c-2.597-2.187-8.268-4.813-8.268-4.813s9.364-4.414 14.992-3.637" fill="#1da37d"/><path d="m177.019 126.814 8.473-.753-9.493 4.935s-3.3-1.079-5.188-1.465c-1.478-.302-5.22-.664-5.22-.664zM59.841 102.632s9.212-2.272 13.997-5.726 8.458-11.087 8.458-11.087 5.98 3.835 8.67 5.766c2.465 1.77 6.852 5.382 6.852 5.382s-2.288 5.562-4.768 8.402-5.95 3.875-5.95 3.875-4.61-.298-6.51-2.187c-1.9-1.89-1.903-6.176-1.903-6.176s-3.01 2.992-5.541 3.962c-2.53.97-4.279 1.021-4.279 1.021z" fill="#27d6a4"/><path d="M73.262 104.697c2.39-.996 5.425-3.816 5.425-3.816s.507 4.178 2.283 6c1.775 1.82 6.013 2.51 6.013 2.51s-6.542.033-10.333-.686-9.026-3.232-9.026-3.232 3.25.22 5.638-.776" fill="#1da37d"/><path d="M110.359 70.897s-.667-6.234-1.161-9.054c-.316-1.806-1.514-6.224-1.514-6.224l18.259 2.445s3.275.72 4.065 2.38 1.89 10.126 1.89 10.126z" fill="#27d6a4"/><path d="m102.371 55.16 2.524-1.22s12.835 2.042 17.13 2.926c2.64.543 6.192 1.871 6.192 1.871s-12.707-2.04-17.386-2.688c-3.71-.513-8.46-.889-8.46-.889" fill="#1da37d"/><path d="M56.961 57.545s4.968-5.06 6.724-8.023c1.743-2.941 3.774-9.69 3.774-9.69l18.66 9.458s-3.559 9.582-5.802 13.736c-1.921 3.559-6.843 9.682-6.843 9.682zM24.657 79.078s3.335-4.084 4.349-6.06c1.02-1.986 1.753-5.824 1.753-5.824s6.925.907 9.932 1.64c2.658.647 7.192 2.532 7.192 2.532s1.069 5.809-.138 9.343c-1.222 3.58-7.149 12-7.149 12z" fill="#27d6a4"/><path d="M30.642 72.002s.199-1.677.166-2.535c-.036-.907-.372-2.769-.372-2.769l12.722 2.943s-7.05-.643-8.555-.155c-1.818.59-3.961 2.516-3.961 2.516" fill="#1da37d"/><path d="M47.496 32.282c-4.197 3.66-21.248 9.882-21.248 9.882s7.911-6.36 10.222-10.203c1.96-3.258 2.764-11.39 2.764-11.39l13.542-1.545s-1.084 9.595-5.28 13.255" fill="#27d6a4"/><path d="m25.914 42.735-6.893 1.452s3.915-3.86 5.673-5.688c.992-1.03 3.971-4.335 3.971-4.335l5.935.654s-2.782 3.31-4.163 4.572c-1.393 1.274-4.523 3.345-4.523 3.345m67.586-8.08c-4.953-.684-13.308-6.863-13.308-6.863l12.126-8.447s4.611 5.776 7.1 7.873c2.287 1.925 7.278 4.236 7.278 4.236S98.454 35.34 93.5 34.655" fill="#1da37d"/><path d="m107.817 33.022-7.458.662 8.356-4.343s2.904.95 4.567 1.29c1.3.265 4.594.584 4.594.584z" fill="#27d6a4"/><path d="M122.821 80.995a5.09 5.09 0 0 1-4.002-5.98l8.651-43.677a5.09 5.09 0 0 1 5.98-4.003l21.121 4.184 12.198 18.786-6.52 32.916a5.09 5.09 0 0 1-5.98 4.003z" fill="none" stroke-opacity=".502" stroke="#000" stroke-width="7.5"/><path d="M122.821 80.995a5.09 5.09 0 0 1-4.002-5.98l8.651-43.677a5.09 5.09 0 0 1 5.98-4.003l21.121 4.184 12.198 18.786-6.52 32.916a5.09 5.09 0 0 1-5.98 4.003z" fill="#fff"/><path d="m151.42 46.924 3.103-15.664 12.56 18.767z" fill="#b3b3b3"/><path d="M90.352 118.174c0-6.4 5.915-12.996 13.12-12.996h272.61c8.613 0 13.568 4.644 13.568 12.247V243.13c0 6.04-4.86 11.697-13.32 11.697H103.72c-7.327 0-13.368-4.523-13.368-11.947z" fill="none" stroke="url(#a)" stroke-width="10" transform="translate(-85.352 -100.178)"/><g fill="#fff"><path d="m207.462 43.799-1.62 5.19a.721.721 0 0 1-1.35.065l-5.675-13.426-.035-.113a.72.72 0 0 1 .529-.868l13.867-3.35a.718.718 0 0 1 .749 1.122l-2.736 3.734c.88.576 1.7 1.24 2.444 1.984 2.1 2.07 4.047 5.012 4.976 8.356.939 3.376.843 7.157-1.16 10.868-.731 1.353-1.715 2.693-2.992 3.995a.721.721 0 0 1-1.228-.703c1.762-5.052 1.27-8.718-.22-11.436-1.334-2.43-3.483-4.142-5.548-5.42z" stroke-opacity=".502" stroke="#000" stroke-width="6"/><path d="m207.462 43.799-1.62 5.19a.721.721 0 0 1-1.35.065l-5.675-13.426-.035-.113a.72.72 0 0 1 .529-.868l13.867-3.35a.718.718 0 0 1 .747 1.122l-2.734 3.734c.88.576 1.7 1.24 2.444 1.984 2.1 2.07 4.047 5.012 4.976 8.356.939 3.376.843 7.157-1.16 10.868-.73 1.352-1.715 2.693-2.992 3.995a.721.721 0 0 1-1.228-.703c1.762-5.052 1.27-8.718-.22-11.436-1.334-2.43-3.483-4.142-5.549-5.418"/></g><path d="M230.97 88.023a3.41 3.41 0 0 0 2.887-1.817l1.296-2.45c.614-1.158 2.365-.759 2.415.55l.11 2.77a3.41 3.41 0 0 0 1.815 2.889l2.45 1.295c1.159.615.76 2.366-.55 2.418l-2.77.108a3.41 3.41 0 0 0-2.887 1.816l-1.297 2.449c-.613 1.158-2.363.76-2.416-.55l-.107-2.77a3.41 3.41 0 0 0-1.818-2.886l-2.45-1.296c-1.159-.615-.76-2.366.55-2.417z" fill="none" stroke-opacity=".502" stroke="#000" stroke-width="5"/><path d="M230.97 88.023a3.41 3.41 0 0 0 2.887-1.817l1.296-2.45c.614-1.158 2.365-.759 2.415.55l.11 2.77a3.41 3.41 0 0 0 1.815 2.889l2.45 1.295c1.159.615.76 2.366-.55 2.418l-2.77.108a3.41 3.41 0 0 0-2.887 1.816l-1.297 2.449c-.613 1.158-2.363.76-2.416-.55l-.107-2.77a3.41 3.41 0 0 0-1.818-2.886l-2.45-1.296c-1.159-.615-.76-2.366.55-2.417z" fill="#fff"/><path d="M72.213 134.814q-3.348 0-3.348-.735v-23.895q0-1.254 1.138-1.253h6.488q5.46 0 7.872 2.254 2.42 2.247 2.42 6.525 0 3.536-2.29 6.489-1.14 1.469-3.357 2.355-2.21.885-5.156.885v6.604q0 .44-1.383.605a21 21 0 0 1-2.384.166m3.767-19.466v5.826h.475q1.29 0 2.175-.807.886-.814.886-2.29t-.612-2.103q-.605-.627-2.153-.626zm27.064 18.4q-2.326 1.36-5.977 1.361t-6.158-2.484q-2.505-2.492-2.506-6.9t2.413-7.093q2.419-2.694 6.107-2.694 3.687 0 5.696 1.88t2.01 4.573q0 5.97-6.856 5.97h-2.55q0 1.109.605 1.534.612.425 1.793.425 2.586 0 4.905-1.181.036-.036.331.511.885 1.591.886 2.68 0 1.086-.699 1.418m-4.609-10.659q0-1.548-1.512-1.548-.699 0-1.203.425-.497.425-.497 1.231v1.146h1.995q1.217 0 1.217-1.254m16.293 11.43q0 .26-2.65.259-3.688-.108-3.688-.403v-11.948h-.958q-.957 0-1.253-1.62a6 6 0 0 1-.079-.958q0-1.146.447-2.29.662-1.62 2.06-1.62 1.403 0 2.505.662 1.11.662 1.484 1.325 2.319-1.988 5.524-1.988 3.212 0 4.645 1.736 1.44 1.728 1.44 5.675v11.062q0 .44-3.154.439-3.147 0-3.147-.44v-10.658q0-1.844-1.29-1.844-.374 0-1.036.317-.663.31-.85.461zm22.935.295q-3.349 0-3.349-.735v-23.895q0-1.254 1.138-1.253h6.489q5.46 0 7.871 2.254 2.42 2.247 2.42 6.525 0 3.536-2.29 6.489-1.137 1.469-3.356 2.355-2.211.885-5.156.885v6.604q0 .44-1.383.605a21 21 0 0 1-2.384.166m3.767-19.466v5.826h.475q1.29 0 2.175-.807.885-.814.886-2.29 0-1.476-.612-2.103-.606-.627-2.154-.626zm15.263 6.006q-1.03-1.844-1.03-3.003t.627-1.491q2.095-.922 5.761-.922 3.673 0 5.185 1.714 1.513 1.714 1.513 5.07v5.826h1.253q.627 0 .98.742.352.734.352 2.024t-.648 2.542q-.648 1.254-1.75 1.253-1.995 0-3.212-1.066a3.05 3.05 0 0 1-.843-1.073q-1.7 2.14-5.278 2.14-2.686-.001-4.53-1.916-1.844-1.917-1.844-4.538 0-6.006 7.187-6.006h2.031v-.374q0-.959-.317-1.232-.31-.273-1.454-.274-1.405 0-3.983.584m2.953 6.791q0 .807.44 1.232.438.425 1.123.425.684 0 1.238-.555v-2.838h-1.037q-1.764 0-1.764 1.736m21.713 13.309q0 .26-3.154.26-3.147 0-3.147-.26v-18.991h-1.253q-.886 0-1.217-1.62-.116-.519-.116-1.326 0-.813.519-1.922.735-1.62 2.362-1.62 1.065 0 1.966.496.908.497 1.253.922.353.425.353.497 2.47-1.916 5.344-1.916 2.88 0 4.94 2.233 2.067 2.224 2.067 6.892 0 4.666-2.067 7.23-2.06 2.557-5.228 2.557-1.44 0-2.622-.144zm1.513-19.027q-.627 0-1.217.403v6.525q.626.08 1.015.08h.605q1.512-.153 1.512-3.875 0-3.133-1.915-3.133m24.965 11.321q-2.326 1.36-5.977 1.361t-6.158-2.484q-2.506-2.492-2.506-6.9t2.413-7.093q2.42-2.694 6.107-2.694t5.696 1.88 2.01 4.573q0 5.97-6.856 5.97h-2.55q0 1.109.605 1.534.612.425 1.793.425 2.586 0 4.905-1.181.036-.036.331.511.886 1.591.886 2.68 0 1.086-.699 1.418m-4.609-10.659q0-1.548-1.512-1.548-.699 0-1.203.425-.497.425-.497 1.231v1.146h1.995q1.217 0 1.217-1.254m16.667 11.617q0 .26-3.356.26-3.356-.08-3.356-.296v-12.243h-.993q-.591 0-.944-.72t-.353-1.786q0-3.983 2.362-3.983 1.657 0 2.766 1.016 1.11 1.008 1.109 2.304.77-1.512 2.081-2.412 1.311-.908 2.672-.908 2.139 0 2.586 1.102.108.295.108.871 0 .57-.353 2.046-.345 1.476-.72 2.139-.368.662-.44.662t-.684-.273q-.605-.281-1.087-.281-1.398 0-1.398 2.21zm7.3-6.604q2.988 1.808 4.717 1.808 1.11 0 1.109-.771 0-.555-1.916-1.44-4.61-1.88-4.609-6.158 0-2.73 1.988-4.163 1.995-1.44 4.774-1.44 2.787 0 4.718.59 1.937.59 1.937 1.549 0 .806-.792 2.139-.791 1.325-1.088 1.433a6.95 6.95 0 0 0-3.428-.878q-.994 0-.994.698 0 .44.382.756.39.31 1.419.77 1.037.462 1.714.836.684.367 1.534 1.03 1.77 1.398 1.771 3.651 0 2.946-1.958 4.775-1.953 1.822-5.899 1.822-2.614 0-4.753-.886t-2.139-2.434q0-1.03.497-2.168.497-1.145 1.016-1.52" fill="none" stroke-opacity=".502" stroke="#000" stroke-width="7.5" stroke-linecap="round" stroke-linejoin="round"/><path d="M72.213 134.814q-3.348 0-3.348-.735v-23.895q0-1.254 1.138-1.253h6.488q5.46 0 7.872 2.254 2.42 2.247 2.42 6.525 0 3.536-2.29 6.489-1.14 1.469-3.357 2.355-2.21.885-5.156.885v6.604q0 .44-1.383.605a21 21 0 0 1-2.384.166m3.767-19.466v5.826h.475q1.29 0 2.175-.807.886-.814.886-2.29t-.612-2.103q-.605-.627-2.153-.626zm27.064 18.4q-2.326 1.36-5.977 1.361t-6.158-2.484q-2.505-2.492-2.506-6.9t2.413-7.093q2.42-2.694 6.107-2.694t5.696 1.88 2.01 4.573q0 5.97-6.856 5.97h-2.55q0 1.109.605 1.534.612.425 1.793.425 2.586 0 4.905-1.181.036-.036.331.511.885 1.591.886 2.68 0 1.086-.699 1.418m-4.609-10.659q0-1.548-1.512-1.548-.699 0-1.203.425-.497.425-.497 1.231v1.146h1.995q1.217 0 1.217-1.254m16.293 11.43q0 .26-2.65.259-3.688-.108-3.688-.403v-11.948h-.958q-.957 0-1.253-1.62a6 6 0 0 1-.079-.958q0-1.146.447-2.29.662-1.62 2.06-1.62 1.403 0 2.505.662 1.11.662 1.484 1.325 2.319-1.988 5.524-1.988 3.212 0 4.645 1.736 1.44 1.728 1.44 5.675v11.062q0 .44-3.154.439-3.147 0-3.147-.44v-10.658q0-1.844-1.29-1.844-.374 0-1.036.317-.663.31-.85.461zm22.935.295q-3.349 0-3.349-.735v-23.895q0-1.254 1.138-1.253h6.489q5.46 0 7.871 2.254 2.42 2.247 2.42 6.525 0 3.536-2.29 6.489-1.137 1.469-3.356 2.355-2.211.885-5.156.885v6.604q0 .44-1.383.605a21 21 0 0 1-2.384.166m3.767-19.466v5.826h.475q1.29 0 2.175-.807.885-.814.886-2.29 0-1.476-.612-2.103-.606-.627-2.154-.626zm15.263 6.006q-1.03-1.844-1.03-3.003t.627-1.491q2.095-.922 5.761-.922 3.673 0 5.185 1.714 1.513 1.714 1.513 5.07v5.826h1.253q.627 0 .98.742.352.734.352 2.024t-.648 2.542q-.648 1.254-1.75 1.253-1.995 0-3.212-1.066a3.05 3.05 0 0 1-.843-1.073q-1.7 2.14-5.278 2.14-2.686-.001-4.53-1.916-1.844-1.917-1.844-4.538 0-6.006 7.187-6.006h2.031v-.374q0-.959-.317-1.232-.31-.273-1.454-.274-1.405 0-3.983.584m2.953 6.791q0 .807.44 1.232.438.425 1.123.425.684 0 1.238-.555v-2.838h-1.037q-1.764 0-1.764 1.736m21.713 13.309q0 .26-3.154.26-3.147 0-3.147-.26v-18.991h-1.253q-.886 0-1.217-1.62-.116-.519-.116-1.326 0-.813.519-1.922.735-1.62 2.362-1.62 1.065 0 1.966.496.908.497 1.253.922.353.425.353.497 2.47-1.916 5.344-1.916 2.88 0 4.94 2.233 2.067 2.224 2.067 6.892 0 4.666-2.067 7.23-2.06 2.557-5.228 2.557-1.44 0-2.622-.144zm1.513-19.027q-.627 0-1.217.403v6.525q.626.08 1.015.08h.605q1.512-.153 1.512-3.875 0-3.133-1.915-3.133m24.965 11.321q-2.325 1.36-5.977 1.361-3.651 0-6.158-2.484-2.505-2.492-2.506-6.9t2.413-7.093q2.42-2.694 6.107-2.694t5.696 1.88 2.01 4.573q0 5.97-6.856 5.97h-2.55q0 1.109.605 1.534.612.425 1.793.425 2.586 0 4.905-1.181.036-.036.331.511.885 1.591.886 2.68 0 1.086-.699 1.418m-4.609-10.659q0-1.548-1.512-1.548-.699 0-1.203.425-.497.425-.497 1.231v1.146h1.995q1.217 0 1.217-1.254m16.667 11.617q0 .26-3.356.26-3.356-.08-3.356-.296v-12.243h-.993q-.591 0-.944-.72t-.353-1.786q0-3.983 2.362-3.983 1.657 0 2.766 1.016 1.11 1.008 1.109 2.304.77-1.512 2.081-2.412 1.311-.908 2.672-.908 2.139 0 2.586 1.102.108.295.108.871 0 .57-.353 2.046-.345 1.476-.72 2.139-.368.662-.44.662t-.684-.273q-.605-.281-1.087-.281-1.398 0-1.398 2.21zm7.3-6.604q2.988 1.808 4.717 1.808 1.11 0 1.109-.771 0-.555-1.916-1.44-4.61-1.88-4.609-6.158 0-2.73 1.988-4.163 1.995-1.44 4.774-1.44 2.787 0 4.718.59 1.937.59 1.937 1.549 0 .806-.792 2.139-.791 1.325-1.088 1.433a6.95 6.95 0 0 0-3.428-.878q-.994 0-.994.698 0 .44.382.756.39.31 1.419.77 1.037.462 1.714.836.684.367 1.534 1.03 1.77 1.398 1.771 3.651 0 2.946-1.958 4.775-1.953 1.822-5.899 1.822-2.614 0-4.753-.886t-2.139-2.434q0-1.03.497-2.168.497-1.145 1.016-1.52" fill="#fff"/><path d="M146.972 91.781a5.89 5.89 0 0 1-6.84-4.76l-9.103-50.746a5.89 5.89 0 0 1 4.759-6.84l24.54-4.402 21.08 15.108 6.86 38.245a5.89 5.89 0 0 1-4.759 6.84z" fill="none" stroke-opacity=".502" stroke="#000" stroke-width="7.5"/><path d="M146.972 91.781a5.89 5.89 0 0 1-6.84-4.76l-9.103-50.746a5.89 5.89 0 0 1 4.759-6.84l24.54-4.402 21.08 15.108 6.86 38.245a5.89 5.89 0 0 1-4.759 6.84z" fill="#fff"/><path d="m163.43 42.974-3.265-18.2 21.464 14.935z" fill="#b3b3b3"/><path d="m153.336 81.142-3.675 2.688.74-4.48c.505-3.06 1.546-5.88 3.1-8.4l14.453-23.445c.62-1.003 2.452-1.003 4.096.003 1.642 1.004 2.474 2.631 1.855 3.634l-14.453 23.447c-1.553 2.52-3.608 4.723-6.116 6.554" fill="#fff" fill-rule="evenodd" stroke="#575e75" stroke-width="1.5" stroke-linecap="round" stroke-linejoin="round"/><path d="M156.256 58.936s3.024 1.532 3.824-2.485c1.732-8.693 6.554-7.431 6.554-7.431" fill="none" stroke="#575e75" stroke-width="1.5" stroke-linecap="round" stroke-linejoin="round"/><path d="M173.993 50.017c.107.445.066.871-.147 1.218l-6.832 11.08c.204-.343.24-.735.137-1.17-.201-.84-.939-1.769-2.01-2.432-1.621-.992-3.438-1.006-4.073-.031l6.831-11.082c.618-1.001 2.452-1.003 4.098-.005 1.07.662 1.796 1.583 1.997 2.422m-19.156 29.925q-.727.633-1.504 1.203l-3.676 2.686.743-4.48c.11-.64.237-1.261.397-1.88.705.018 1.534.268 2.32.748s1.383 1.103 1.72 1.724" fill="#b3b3b3" fill-rule="evenodd" stroke="#575e75" stroke-width="1.5" stroke-linecap="round" stroke-linejoin="round"/><path d="M260.698 49.028s3.496 6.206 5.277 8.927c1.14 1.743 4.374 5.816 4.374 5.816l-20.154 5.644s-3.74.719-5.31-.658-6.518-9.72-6.518-9.72z" fill="#27d6a4"/><path d="m276.1 61.865-2.087 2.407s-14.312 3.63-19.192 4.636c-2.999.618-7.301.826-7.301.826s14.178-3.575 19.351-4.999c4.103-1.13 9.229-2.87 9.229-2.87" fill="#1da37d"/><path d="M157.648 57.996a.893.893 0 1 1-1.075-.66.89.89 0 0 1 1.077.661z" fill="#575e75" fill-rule="evenodd" stroke="#575e75" stroke-linecap="round" stroke-linejoin="round"/><g fill="#fff"><path d="m95.591 76.067 2.358-4.899a.721.721 0 0 1 1.346.133l3.66 14.109.019.116a.72.72 0 0 1-.65.782l-14.207 1.296a.718.718 0 0 1-.578-1.22l3.25-3.296a15.3 15.3 0 0 1-2.128-2.318c-1.777-2.354-3.275-5.548-3.707-8.991-.438-3.477.207-7.204 2.73-10.584.92-1.232 2.088-2.414 3.541-3.516a.721.721 0 0 1 1.113.874c-2.478 4.741-2.526 8.44-1.447 11.346.965 2.598 2.843 4.605 4.7 6.17z" stroke-opacity=".502" stroke="#000" stroke-width="6"/><path d="m95.591 76.067 2.358-4.899a.721.721 0 0 1 1.346.133l3.66 14.109.019.116a.72.72 0 0 1-.65.782l-14.207 1.296a.718.718 0 0 1-.576-1.22l3.249-3.296a15.3 15.3 0 0 1-2.13-2.318c-1.776-2.354-3.274-5.548-3.706-8.991-.438-3.477.207-7.204 2.73-10.584.92-1.23 2.088-2.414 3.541-3.516a.721.721 0 0 1 1.113.874c-2.478 4.741-2.526 8.44-1.447 11.346.965 2.598 2.843 4.605 4.7 6.168"/></g><path d="M68.827 27.069c-.462-1.226.995-2.275 2.012-1.447l2.148 1.752a3.41 3.41 0 0 0 3.366.552l2.594-.98c1.226-.46 2.274.996 1.446 2.012l-1.751 2.148a3.41 3.41 0 0 0-.55 3.366l.98 2.594c.461 1.226-.996 2.275-2.013 1.447l-2.148-1.752a3.41 3.41 0 0 0-3.366-.549l-2.595.977c-1.225.464-2.275-.994-1.447-2.01l1.753-2.147a3.41 3.41 0 0 0 .55-3.368z" fill="none" stroke-opacity=".502" stroke="#000" stroke-width="5"/><path d="M68.827 27.069c-.462-1.226.995-2.275 2.012-1.447l2.148 1.752a3.41 3.41 0 0 0 3.366.552l2.594-.98c1.226-.46 2.274.996 1.446 2.012l-1.751 2.148a3.41 3.41 0 0 0-.55 3.366l.98 2.594c.461 1.226-.996 2.275-2.013 1.447l-2.148-1.752a3.41 3.41 0 0 0-3.366-.549l-2.595.977c-1.225.464-2.275-.994-1.447-2.01l1.753-2.147a3.41 3.41 0 0 0 .55-3.368z" fill="#fff"/><path d="M53.408 47.579c.113-.885 1.325-1.05 1.671-.228l.732 1.74a2.33 2.33 0 0 0 1.849 1.407l1.871.239c.886.114 1.05 1.324.228 1.67l-1.739.733a2.33 2.33 0 0 0-1.405 1.848l-.239 1.872c-.115.885-1.325 1.05-1.672.228l-.731-1.74a2.33 2.33 0 0 0-1.85-1.404l-1.872-.241c-.885-.113-1.05-1.324-.228-1.67l1.74-.733a2.33 2.33 0 0 0 1.405-1.849z" fill="none" stroke-opacity=".502" stroke="#000" stroke-width="4.5"/><path d="M53.408 47.579c.113-.885 1.325-1.05 1.671-.228l.732 1.74a2.33 2.33 0 0 0 1.849 1.407l1.871.239c.886.114 1.05 1.324.228 1.67l-1.739.733a2.33 2.33 0 0 0-1.405 1.848l-.239 1.872c-.115.885-1.325 1.05-1.672.228l-.731-1.74a2.33 2.33 0 0 0-1.85-1.404l-1.872-.241c-.885-.113-1.05-1.324-.228-1.67l1.74-.733a2.33 2.33 0 0 0 1.405-1.849z" fill="#fff"/><path d="M51.975 124.948c-5.22 3.994-17.165 4.895-17.165 4.895s4.21-5.88 5.575-9.564c1.488-4.01 3.016-13.605 3.016-13.605l19.343 1.797s-5.548 12.482-10.769 16.477" fill="#1da37d"/><path d="M21.87 136.817s3.56-2.499 4.875-3.647c1.68-1.467 4.386-4.435 4.386-4.435l12.372-.451-8.958 4.078zm219.268-99.883c-6.036-3.33-9.86-14.658-9.86-14.658l16.793-1.675s3.102 9.63 6.325 13.059c3.803 4.045 15.041 9.672 15.041 9.672s-22.263-3.067-28.3-6.398" fill="#27d6a4"/><path d="M263.642 41.072c-2-1.166-6.234-4.443-6.234-4.443l7.01-2.346s4.47 3.22 5.94 4.207c2.607 1.752 8.355 5.399 8.355 5.399l-8.722.046s-4.33-1.686-6.35-2.863" fill="#1da37d"/><path d="M242.72 64.996a2.33 2.33 0 0 0 1.157-2.014l-.003-1.888c0-.892 1.18-1.211 1.627-.44l.951 1.63a2.33 2.33 0 0 0 2.014 1.158l1.887-.003c.892 0 1.211 1.178.44 1.629l-1.63.948a2.33 2.33 0 0 0-1.156 2.014l.002 1.887c0 .892-1.179 1.212-1.628.44l-.948-1.63a2.33 2.33 0 0 0-2.016-1.156l-1.887.003c-.892 0-1.212-1.18-.44-1.629z" fill="none" stroke-opacity=".502" stroke="#000" stroke-width="4.5"/><path d="M242.72 64.996a2.33 2.33 0 0 0 1.157-2.014l-.003-1.888c0-.892 1.18-1.211 1.627-.44l.951 1.63a2.33 2.33 0 0 0 2.014 1.158l1.887-.003c.892 0 1.211 1.178.44 1.629l-1.63.948a2.33 2.33 0 0 0-1.156 2.014l.002 1.887c0 .892-1.179 1.212-1.628.44l-.948-1.63a2.33 2.33 0 0 0-2.016-1.156l-1.887.003c-.892 0-1.212-1.18-.44-1.629z" fill="#fff"/></g></svg>
