<svg version="1.1" xmlns="http://www.w3.org/2000/svg" xmlns:xlink="http://www.w3.org/1999/xlink" width="309.2973" height="159.64866" viewBox="0,0,309.2973,159.64866"><defs><linearGradient x1="239.5" y1="105.17567" x2="239.5" y2="254.82433" gradientUnits="userSpaceOnUse" id="color-1"><stop offset="0" stop-color="#402828"/><stop offset="1" stop-color="#5a3939"/></linearGradient></defs><g transform="translate(-84.85135,-100.17567)"><g fill-rule="nonzero" stroke-linejoin="miter" stroke-miterlimit="10" stroke-dasharray="" stroke-dashoffset="0" style="mix-blend-mode: normal"><path d="M90,242.2c0,-30.26667 0,-105.50114 0,-123c0,-7.10114 8.84158,-14.08341 18.8,-14.08341c31.99355,0 204.87771,0 262.5,0c11.74384,0 18.7,7.54915 18.7,15.08341c0,18.0442 0,93.67993 0,123c0,7.26259 -5.45532,11.68346 -12.2,11.68346c-27.41304,0 -210.48251,0 -269.5,0c-11.50863,0 -18.3,-4.82665 -18.3,-12.68346z" fill="#b67373" stroke="none" stroke-width="0" stroke-linecap="butt"/><path d="M90,245.2c0,-13.04928 0,-73.50147 0,-73.50147l24.80001,-41l37.5124,60.41827l28.8913,-38.59559l39.71306,32.90759l42.34211,-45.73534l27.0822,29.34393l41.91845,-44.82127l27.45747,58.8688l30.28301,-33.88639c0,0 0,74.93088 0,92.00147c0,6.58338 -6.45885,13.68346 -14.20001,13.68346c-29.90122,0 -220.17623,0 -272.5,0c-8.44812,0 -13.3,-4.947 -13.3,-9.68346z" fill="#9a6161" stroke="none" stroke-width="0" stroke-linecap="butt"/><path d="M90,246.2c0,-8.29542 0,-38.71794 0,-38.71794l21.78301,-21.30141l29.95747,32.59639l28.41845,-27.89694l17.64182,16.97819l29.94038,-32.13942l25.84211,38.51305l40.71306,-39.25959l32.8913,33.81074l31.0124,-27.59857l41.80001,36.38916c0,0 0,20.77729 0,27.62634c0,4.05494 -5.45533,9.68345 -12.20001,9.68345c-23.32631,0 -207.78602,0.00001 -268.5,0.00001c-12.11264,0 -19.3,-4.75494 -19.3,-8.68346z" fill="#8a5757" stroke="none" stroke-width="0" stroke-linecap="butt"/><path d="M196.84911,178.84738l19.04056,-26.90119c2.49397,-3.52357 6.53749,-3.52357 9.03146,0l3.45883,4.88675l16.30093,-23.03053c2.93087,-4.14082 7.68271,-4.14082 10.61358,0c0,0 23.0383,35.4495 27.43106,42.20874c1.38876,2.13692 0.67136,4.93205 -2.51896,5.9339c-6.08337,1.91036 -16.23885,4.86988 -23.87733,5.93391c-11.64434,1.62205 -28.1462,1.87678 -32.92722,0.67073c-0.05821,-0.01468 -0.11611,-0.02947 -0.17367,-0.04434c-0.68534,0.04948 -1.35526,0.07542 -2.00358,0.07542c-10.0306,0 -26.86961,-6.20984 -24.37565,-9.73342z" fill="#ffffff" stroke-opacity="0.51373" stroke="#000000" stroke-width="7.5" stroke-linecap="butt"/><path d="M196.84911,178.84738l19.04056,-26.90119c2.49397,-3.52357 6.53749,-3.52357 9.03146,0l3.45883,4.88675l16.30093,-23.03053c2.93087,-4.14082 7.68271,-4.14082 10.61358,0c0,0 23.0383,35.4495 27.43106,42.20874c1.38876,2.13692 0.67136,4.93205 -2.51896,5.9339c-6.08337,1.91036 -16.23885,4.86988 -23.87733,5.93391c-11.64434,1.62205 -28.1462,1.87678 -32.92722,0.67073c-0.05821,-0.01468 -0.11611,-0.02947 -0.17367,-0.04434c-0.68534,0.04948 -1.35526,0.07542 -2.00358,0.07542c-10.0306,0 -26.86961,-6.20984 -24.37565,-9.73342z" fill="#ffffff" stroke="none" stroke-width="0" stroke-linecap="butt"/><path d="M223.68419,150.51378l3.2098,-2.21236c0,0 3.92139,4.68677 6.56209,8.8137c3.10334,4.84995 5.96661,14.58339 5.96661,14.58339c0,0 -8.42663,-11.43646 -11.31016,-15.31782c-2.13277,-2.8708 -4.42834,-5.86693 -4.42834,-5.86693z" fill="#5a3939" stroke="#825252" stroke-width="0" stroke-linecap="butt"/><path d="M130.3209,241.93474c-2.74508,0 -4.11762,-0.30106 -4.11762,-0.90321v-29.38121c0,-1.02719 0.46637,-1.54078 1.39911,-1.54078h7.97845c4.47477,0 7.70097,0.92387 9.67861,2.77164c1.98353,1.84186 2.97531,4.5161 2.97531,8.02272c0,2.89856 -0.93864,5.55804 -2.81591,7.97844c-0.93274,1.20429 -2.30822,2.1695 -4.12647,2.89562c-1.81234,0.72612 -3.92576,1.08918 -6.34025,1.08918v8.12012c0,0.36011 -0.56672,0.60805 -1.70018,0.74383c-1.13345,0.13578 -2.11046,0.20368 -2.93103,0.20368zM134.95212,217.99942v7.16377h0.58444c1.05671,0 1.94812,-0.33059 2.67424,-0.99177c0.72612,-0.66709 1.08918,-1.60573 1.08918,-2.81592c0,-1.2102 -0.2509,-2.07209 -0.75268,-2.58569c-0.49588,-0.5136 -1.37844,-0.77039 -2.64767,-0.77039zM160.87981,242.29781c-2.99302,0 -5.51672,-1.01834 -7.57111,-3.05501c-2.05438,-2.04257 -3.08157,-4.8703 -3.08157,-8.48317c0,-3.61288 0.98882,-6.52031 2.96646,-8.72227c1.98354,-2.20787 4.48658,-3.31181 7.50912,-3.31181c3.02254,0 5.35734,0.7704 7.00438,2.31118c1.64704,1.54079 2.47057,3.41512 2.47057,5.62299c0,4.89391 -2.81002,7.34088 -8.43005,7.34088h-3.1347c0,0.90912 0.24794,1.53783 0.74382,1.88613c0.50179,0.3483 1.23675,0.52245 2.20492,0.52245c2.11933,0 4.12943,-0.48408 6.03033,-1.45224c0.02952,-0.02952 0.16529,0.18006 0.40734,0.62872c0.72612,1.30465 1.08918,2.40268 1.08918,3.29409c0,0.89141 -0.28632,1.47289 -0.85895,1.74445c0,0 -4.35672,1.6736 -7.34974,1.6736zM162.56227,227.51865c0,-1.26923 -0.61986,-1.90385 -1.85957,-1.90385c-0.57262,0 -1.06556,0.17415 -1.47879,0.52246c-0.40733,0.3483 -0.611,0.85305 -0.611,1.51423v1.40796h2.45286c0.99767,0 1.49651,-0.5136 1.49651,-1.54079zM183.05577,241.80192c0,0.21252 -1.37549,0.31878 -4.12647,0.31878c-2.75098,-0.06494 -4.12647,-0.18596 -4.12647,-0.36306v-15.05365h-1.222c-0.48407,0 -0.87075,-0.29518 -1.16001,-0.88552c-0.28926,-0.59034 -0.4339,-1.32236 -0.4339,-2.19606c0,-3.26458 0.96816,-4.89686 2.90447,-4.89686c1.35779,0 2.49123,0.41619 3.40035,1.24857c0.90912,0.82647 1.36368,1.77101 1.36368,2.83362c0.63166,-1.23971 1.4847,-2.22853 2.55912,-2.96645c1.07442,-0.74383 2.16951,-1.11575 3.28525,-1.11575c1.75331,0 2.81296,0.45161 3.17898,1.35483c0.08856,0.24203 0.13283,0.59919 0.13283,1.07147c0,0.46636 -0.14464,1.30465 -0.4339,2.51485c-0.28337,1.21019 -0.57853,2.08685 -0.8855,2.62997c-0.30107,0.54311 -0.48113,0.81467 -0.54016,0.81467c-0.05903,0 -0.33944,-0.11217 -0.84123,-0.33649c-0.49588,-0.23023 -0.9416,-0.34535 -1.33712,-0.34535c-1.14526,0 -1.71788,0.90617 -1.71788,2.71851zM199.32716,241.48313c0,0.27155 -1.54079,0.40733 -4.62236,0.40733c-2.4204,-0.02952 -3.63058,-0.15053 -3.63058,-0.36305v-30.87771c0,-0.44866 1.46698,-0.67299 4.40098,-0.67299c2.56797,0.08856 3.85197,0.23909 3.85197,0.45162zM211.70339,241.57168c0,0.24203 -1.38434,0.36306 -4.15303,0.36306c-2.76279,0 -4.14419,-0.10626 -4.14419,-0.31878v-22.26171c0,-0.20663 1.3814,-0.30992 4.14419,-0.30992c2.7687,0 4.15304,0.08855 4.15304,0.26565zM211.70339,216.63574c0,0.21252 -1.38434,0.31878 -4.15303,0.31878c-2.76279,0 -4.14419,-0.0915 -4.14419,-0.27451v-6.52621c0,-0.30107 1.3814,-0.45161 4.14419,-0.45161c2.7687,0 4.15304,0.09151 4.15304,0.27451zM225.2584,241.57168c0,0.21252 -1.08622,0.31878 -3.25868,0.31878c-3.02254,-0.08856 -4.53381,-0.25385 -4.53381,-0.49588v-14.69059h-1.17773c-0.78514,0 -1.29874,-0.66413 -1.54079,-1.9924c-0.06494,-0.39553 -0.0974,-0.78811 -0.0974,-1.17773c0,-0.93864 0.18299,-1.87728 0.54901,-2.81592c0.54312,-1.32826 1.3873,-1.99239 2.53256,-1.99239c1.15116,0 2.17835,0.27155 3.08157,0.81467c0.90912,0.54311 1.51718,1.08623 1.82415,1.62934c1.90089,-1.62933 4.16484,-2.44401 6.79185,-2.44401c2.63292,0 4.53676,0.71137 5.71154,2.13408c1.18069,1.41682 1.77102,3.74275 1.77102,6.97781v13.60142c0,0.36011 -1.29284,0.54017 -3.87853,0.54017c-2.57979,0 -3.86968,-0.18005 -3.86968,-0.54015v-13.10555c0,-1.51128 -0.52836,-2.2669 -1.58506,-2.2669c-0.30697,0 -0.73201,0.12987 -1.27513,0.38962c-0.54312,0.25384 -0.8914,0.44276 -1.0449,0.56673zM274.36588,240.84557c0,0.63756 -1.42272,0.95635 -4.26816,0.95635c-2.83953,0 -4.38031,-0.22728 -4.62236,-0.68184l-7.57109,-14.14158v14.09731c0,0.54311 -1.3991,0.81467 -4.19731,0.81467c-2.79231,0 -4.18846,-0.27156 -4.18846,-0.81467v-30.3287c0,-0.45457 1.19249,-0.68184 3.57746,-0.68184c0.93864,0 2.03373,0.08265 3.28525,0.24794c1.25743,0.16529 2.0219,0.47522 2.29346,0.92979l7.25231,13.96449v-14.23899c0,-0.57263 1.405,-0.85894 4.21502,-0.85894c2.81592,0 4.22388,0.28631 4.22388,0.85894zM280.64199,239.17196c-1.88909,-2.0839 -2.83363,-4.97067 -2.83363,-8.66028c0,-3.68963 0.94454,-6.57638 2.83363,-8.66028c1.88909,-2.0839 4.4364,-3.12584 7.64195,-3.12584c3.20554,0 5.744,1.04194 7.61538,3.12584c1.87138,2.0839 2.80707,4.97066 2.80707,8.66028c0,3.68962 -0.93569,6.57638 -2.80706,8.66028c-1.87138,2.0839 -4.40983,3.12586 -7.61538,3.12586c-3.20554,0 -5.75286,-1.04194 -7.64194,-3.12584zM285.74253,230.4674c0,2.7805 0.85304,4.17075 2.55912,4.17075c1.71199,0 2.56797,-1.39025 2.56797,-4.17075c0,-2.7805 -0.85598,-4.17074 -2.56797,-4.17074c0,0 -2.55912,1.39024 -2.55912,4.17074zM310.22295,241.57168c0,0.24203 -1.38435,0.36306 -4.15304,0.36306c-2.76279,0 -4.14418,-0.10626 -4.14418,-0.31878v-22.26171c0,-0.20663 1.38139,-0.30992 4.14418,-0.30992c2.76869,0 4.15304,0.08855 4.15304,0.26565zM310.22295,216.63574c0,0.21252 -1.38435,0.31878 -4.15304,0.31878c-2.76279,0 -4.14418,-0.0915 -4.14418,-0.27451v-6.52621c0,-0.30107 1.38139,-0.45161 4.14418,-0.45161c2.76869,0 4.15304,0.09151 4.15304,0.27451zM321.05944,235.90443c0.90912,0 1.36369,-0.31582 1.36369,-0.94749c0,-0.45457 -0.78515,-1.0449 -2.35546,-1.77102c-3.77817,-1.54079 -5.66726,-4.06448 -5.66726,-7.5711c0,-2.23739 0.81467,-3.94347 2.44401,-5.11825c1.63524,-1.18069 3.59222,-1.77102 5.87093,-1.77102c2.28461,0 4.21798,0.24204 5.80009,0.72612c1.58801,0.48407 2.38202,1.1187 2.38202,1.90385c0,0.66118 -0.32468,1.53784 -0.97406,2.62996c-0.64938,1.08622 -1.09508,1.67361 -1.33712,1.76217c-1.29874,-0.72022 -2.70376,-1.08032 -4.21503,-1.08032c-0.81467,0 -1.222,0.28632 -1.222,0.85895c0,0.36011 0.15644,0.67004 0.46933,0.92979c0.31878,0.25384 0.90026,0.56967 1.74446,0.9475c0.85009,0.37781 1.55259,0.72021 2.10751,1.02719c0.56083,0.30107 1.18954,0.72317 1.88614,1.26629c1.45223,1.14526 2.17835,2.64177 2.17835,4.48953c0,2.41449 -0.80286,4.37147 -2.40859,5.87093c-1.59981,1.49355 -4.01725,2.24034 -7.25231,2.24034c-2.14293,0 -4.09106,-0.36305 -5.84437,-1.08917c-1.75331,-0.72612 -2.62996,-1.72379 -2.62996,-2.99302c0,-0.84419 0.20368,-1.73264 0.61101,-2.66538c0.40733,-0.93864 0.82352,-1.56145 1.24857,-1.86842c0,0 4.38324,2.22259 5.80005,2.22259zM344.49886,242.29781c-2.99302,0 -5.51672,-1.01834 -7.5711,-3.05501c-2.05439,-2.04257 -3.08157,-4.8703 -3.08157,-8.48317c0,-3.61288 0.98882,-6.52031 2.96646,-8.72227c1.98354,-2.20787 4.48658,-3.31181 7.50912,-3.31181c3.02254,0 5.35734,0.7704 7.00438,2.31118c1.64704,1.54079 2.47057,3.41512 2.47057,5.62299c0,4.89391 -2.81001,7.34088 -8.43005,7.34088h-3.13471c0,0.90912 0.24795,1.53783 0.74383,1.88613c0.50179,0.3483 1.23675,0.52245 2.20492,0.52245c2.11933,0 4.12943,-0.48408 6.03033,-1.45224c0.02952,-0.02952 0.1653,0.18006 0.40733,0.62872c0.72612,1.30465 1.08919,2.40268 1.08919,3.29409c0,0.89141 -0.28632,1.47289 -0.85894,1.74445c0,0 -4.35673,1.6736 -7.34975,1.6736zM346.18133,227.51865c0,-1.26923 -0.61986,-1.90385 -1.85957,-1.90385c-0.57263,0 -1.06556,0.17415 -1.4788,0.52246c-0.40733,0.3483 -0.611,0.85305 -0.611,1.51423v1.40796h2.45286c0.99768,0 1.49651,-0.5136 1.49651,-1.54079z" fill="none" stroke-opacity="0.5098" stroke="#000000" stroke-width="8" stroke-linecap="square"/><path d="M130.3209,241.93474c-2.74508,0 -4.11762,-0.30106 -4.11762,-0.90321v-29.38121c0,-1.02719 0.46637,-1.54078 1.39911,-1.54078h7.97845c4.47477,0 7.70097,0.92387 9.67861,2.77164c1.98353,1.84186 2.97531,4.5161 2.97531,8.02272c0,2.89856 -0.93864,5.55804 -2.81591,7.97844c-0.93274,1.20429 -2.30822,2.1695 -4.12647,2.89562c-1.81234,0.72612 -3.92576,1.08918 -6.34025,1.08918v8.12012c0,0.36011 -0.56672,0.60805 -1.70018,0.74383c-1.13345,0.13578 -2.11046,0.20368 -2.93103,0.20368zM134.95212,217.99942v7.16377h0.58444c1.05671,0 1.94812,-0.33059 2.67424,-0.99177c0.72612,-0.66709 1.08918,-1.60573 1.08918,-2.81592c0,-1.2102 -0.2509,-2.07209 -0.75268,-2.58569c-0.49588,-0.5136 -1.37844,-0.77039 -2.64767,-0.77039zM168.22953,240.62419c-1.90679,1.11574 -4.3567,1.67362 -7.34973,1.67362c-2.99302,0 -5.51672,-1.01834 -7.57111,-3.05501c-2.05438,-2.04257 -3.08157,-4.8703 -3.08157,-8.48317c0,-3.61288 0.98882,-6.52031 2.96646,-8.72227c1.98354,-2.20787 4.48658,-3.31181 7.50912,-3.31181c3.02254,0 5.35734,0.7704 7.00438,2.31118c1.64704,1.54079 2.47057,3.41512 2.47057,5.62299c0,4.89391 -2.81002,7.34088 -8.43005,7.34088h-3.1347c0,0.90912 0.24794,1.53783 0.74382,1.88613c0.50179,0.3483 1.23675,0.52245 2.20492,0.52245c2.11933,0 4.12943,-0.48408 6.03033,-1.45224c0.02952,-0.02952 0.16529,0.18006 0.40734,0.62872c0.72612,1.30465 1.08918,2.40268 1.08918,3.29409c0,0.89141 -0.28632,1.47289 -0.85895,1.74445zM162.56227,227.51865c0,-1.26923 -0.61986,-1.90385 -1.85957,-1.90385c-0.57262,0 -1.06556,0.17415 -1.47879,0.52246c-0.40733,0.3483 -0.611,0.85305 -0.611,1.51423v1.40796h2.45286c0.99767,0 1.49651,-0.5136 1.49651,-1.54079zM183.05577,241.80192c0,0.21252 -1.37549,0.31878 -4.12647,0.31878c-2.75098,-0.06494 -4.12647,-0.18596 -4.12647,-0.36306v-15.05365h-1.222c-0.48407,0 -0.87075,-0.29518 -1.16001,-0.88552c-0.28926,-0.59034 -0.4339,-1.32236 -0.4339,-2.19606c0,-3.26458 0.96816,-4.89686 2.90447,-4.89686c1.35779,0 2.49123,0.41619 3.40035,1.24857c0.90912,0.82647 1.36368,1.77101 1.36368,2.83362c0.63166,-1.23971 1.4847,-2.22853 2.55912,-2.96645c1.07442,-0.74383 2.16951,-1.11575 3.28525,-1.11575c1.75331,0 2.81296,0.45161 3.17898,1.35483c0.08856,0.24203 0.13283,0.59919 0.13283,1.07147c0,0.46636 -0.14464,1.30465 -0.4339,2.51485c-0.28337,1.21019 -0.57853,2.08685 -0.8855,2.62997c-0.30107,0.54311 -0.48113,0.81467 -0.54016,0.81467c-0.05903,0 -0.33944,-0.11217 -0.84123,-0.33649c-0.49588,-0.23023 -0.9416,-0.34535 -1.33712,-0.34535c-1.14526,0 -1.71788,0.90617 -1.71788,2.71851zM199.32716,241.48313c0,0.27155 -1.54079,0.40733 -4.62236,0.40733c-2.4204,-0.02952 -3.63058,-0.15053 -3.63058,-0.36305v-30.87771c0,-0.44866 1.46698,-0.67299 4.40098,-0.67299c2.56797,0.08856 3.85197,0.23909 3.85197,0.45162zM211.70339,241.57168c0,0.24203 -1.38434,0.36306 -4.15303,0.36306c-2.76279,0 -4.14419,-0.10626 -4.14419,-0.31878v-22.26171c0,-0.20663 1.3814,-0.30992 4.14419,-0.30992c2.7687,0 4.15304,0.08855 4.15304,0.26565zM211.70339,216.63574c0,0.21252 -1.38434,0.31878 -4.15303,0.31878c-2.76279,0 -4.14419,-0.0915 -4.14419,-0.27451v-6.52621c0,-0.30107 1.3814,-0.45161 4.14419,-0.45161c2.7687,0 4.15304,0.09151 4.15304,0.27451zM225.2584,241.57168c0,0.21252 -1.08622,0.31878 -3.25868,0.31878c-3.02254,-0.08856 -4.53381,-0.25385 -4.53381,-0.49588v-14.69059h-1.17773c-0.78514,0 -1.29874,-0.66413 -1.54079,-1.9924c-0.06494,-0.39553 -0.0974,-0.78811 -0.0974,-1.17773c0,-0.93864 0.18299,-1.87728 0.54901,-2.81592c0.54312,-1.32826 1.3873,-1.99239 2.53256,-1.99239c1.15116,0 2.17835,0.27155 3.08157,0.81467c0.90912,0.54311 1.51718,1.08623 1.82415,1.62934c1.90089,-1.62933 4.16484,-2.44401 6.79185,-2.44401c2.63292,0 4.53676,0.71137 5.71154,2.13408c1.18069,1.41682 1.77102,3.74275 1.77102,6.97781v13.60142c0,0.36011 -1.29284,0.54017 -3.87853,0.54017c-2.57979,0 -3.86968,-0.18005 -3.86968,-0.54015v-13.10555c0,-1.51128 -0.52836,-2.2669 -1.58506,-2.2669c-0.30697,0 -0.73201,0.12987 -1.27513,0.38962c-0.54312,0.25384 -0.8914,0.44276 -1.0449,0.56673zM274.36588,240.84557c0,0.63756 -1.42272,0.95635 -4.26816,0.95635c-2.83953,0 -4.38031,-0.22728 -4.62236,-0.68184l-7.57109,-14.14158v14.09731c0,0.54311 -1.3991,0.81467 -4.19731,0.81467c-2.79231,0 -4.18846,-0.27156 -4.18846,-0.81467v-30.3287c0,-0.45457 1.19249,-0.68184 3.57746,-0.68184c0.93864,0 2.03373,0.08265 3.28525,0.24794c1.25743,0.16529 2.0219,0.47522 2.29346,0.92979l7.25231,13.96449v-14.23899c0,-0.57263 1.405,-0.85894 4.21502,-0.85894c2.81592,0 4.22388,0.28631 4.22388,0.85894zM280.64199,239.17196c-1.88909,-2.0839 -2.83363,-4.97067 -2.83363,-8.66028c0,-3.68963 0.94454,-6.57638 2.83363,-8.66028c1.88909,-2.0839 4.4364,-3.12584 7.64195,-3.12584c3.20554,0 5.744,1.04194 7.61538,3.12584c1.87138,2.0839 2.80707,4.97066 2.80707,8.66028c0,3.68962 -0.93569,6.57638 -2.80706,8.66028c-1.87138,2.0839 -4.40983,3.12586 -7.61538,3.12586c-3.20554,0 -5.75286,-1.04194 -7.64194,-3.12584zM288.30164,226.29665c-1.70607,0 -2.55912,1.39025 -2.55912,4.17075c0,2.7805 0.85304,4.17075 2.55912,4.17075c1.71199,0 2.56797,-1.39025 2.56797,-4.17075c0,-2.7805 -0.85598,-4.17074 -2.56797,-4.17074zM310.22295,241.57168c0,0.24203 -1.38435,0.36306 -4.15304,0.36306c-2.76279,0 -4.14418,-0.10626 -4.14418,-0.31878v-22.26171c0,-0.20663 1.38139,-0.30992 4.14418,-0.30992c2.76869,0 4.15304,0.08855 4.15304,0.26565zM310.22295,216.63574c0,0.21252 -1.38435,0.31878 -4.15304,0.31878c-2.76279,0 -4.14418,-0.0915 -4.14418,-0.27451v-6.52621c0,-0.30107 1.38139,-0.45161 4.14418,-0.45161c2.76869,0 4.15304,0.09151 4.15304,0.27451zM321.05944,235.90443c0.90912,0 1.36369,-0.31582 1.36369,-0.94749c0,-0.45457 -0.78515,-1.0449 -2.35546,-1.77102c-3.77817,-1.54079 -5.66726,-4.06448 -5.66726,-7.5711c0,-2.23739 0.81467,-3.94347 2.44401,-5.11825c1.63524,-1.18069 3.59222,-1.77102 5.87093,-1.77102c2.28461,0 4.21798,0.24204 5.80009,0.72612c1.58801,0.48407 2.38202,1.1187 2.38202,1.90385c0,0.66118 -0.32468,1.53784 -0.97406,2.62996c-0.64938,1.08622 -1.09508,1.67361 -1.33712,1.76217c-1.29874,-0.72022 -2.70376,-1.08032 -4.21503,-1.08032c-0.81467,0 -1.222,0.28632 -1.222,0.85895c0,0.36011 0.15644,0.67004 0.46933,0.92979c0.31878,0.25384 0.90026,0.56967 1.74446,0.9475c0.85009,0.37781 1.55259,0.72021 2.10751,1.02719c0.56083,0.30107 1.18954,0.72317 1.88614,1.26629c1.45223,1.14526 2.17835,2.64177 2.17835,4.48953c0,2.41449 -0.80286,4.37147 -2.40859,5.87093c-1.59981,1.49355 -4.01725,2.24034 -7.25231,2.24034c-2.14293,0 -4.09106,-0.36305 -5.84437,-1.08917c-1.75331,-0.72612 -2.62996,-1.72379 -2.62996,-2.99302c0,-0.84419 0.20368,-1.73264 0.61101,-2.66538c0.40733,-0.93864 0.82352,-1.56145 1.24857,-1.86842c0,0 4.38324,2.22259 5.80005,2.22259zM351.84858,240.62419c-1.90679,1.11574 -4.3567,1.67362 -7.34972,1.67362c-2.99302,0 -5.51672,-1.01834 -7.5711,-3.05501c-2.05439,-2.04257 -3.08157,-4.8703 -3.08157,-8.48317c0,-3.61288 0.98882,-6.52031 2.96646,-8.72227c1.98354,-2.20787 4.48658,-3.31181 7.50912,-3.31181c3.02254,0 5.35734,0.7704 7.00438,2.31118c1.64704,1.54079 2.47057,3.41512 2.47057,5.62299c0,4.89391 -2.81001,7.34088 -8.43005,7.34088h-3.13471c0,0.90912 0.24795,1.53783 0.74383,1.88613c0.50179,0.3483 1.23675,0.52245 2.20492,0.52245c2.11933,0 4.12943,-0.48408 6.03033,-1.45224c0.02952,-0.02952 0.1653,0.18006 0.40733,0.62872c0.72612,1.30465 1.08919,2.40268 1.08919,3.29409c0,0.89141 -0.28632,1.47289 -0.85894,1.74445zM346.18133,227.51865c0,-1.26923 -0.61986,-1.90385 -1.85957,-1.90385c-0.57263,0 -1.06556,0.17415 -1.4788,0.52246c-0.40733,0.3483 -0.611,0.85305 -0.611,1.51423v1.40796h2.45286c0.99768,0 1.49651,-0.5136 1.49651,-1.54079z" fill="#ffffff" stroke="none" stroke-width="1" stroke-linecap="square"/><path d="M89.85135,117.67133c0,-6.39897 5.91545,-12.49566 13.1192,-12.49566c28.93252,0 219.72832,0 272.60996,0c8.61359,0 13.56814,4.64378 13.56814,12.24625c0,30.59212 0,109.0924 0,125.70487c0,6.03964 -4.85913,11.69754 -13.31873,11.69754c-52.46667,0 -243.42599,0 -272.60996,0c-7.3279,0 -13.36861,-4.5235 -13.36861,-11.94695c0,-30.16113 0,-108.19342 0,-125.20604z" fill="none" stroke="url(#color-1)" stroke-width="10" stroke-linecap="butt"/></g></g></svg>
