<svg xmlns="http://www.w3.org/2000/svg" width="309.297" height="159.649" viewBox="0 0 309.297 159.649"><defs><linearGradient x1="240" y1="105.176" x2="240" y2="254.824" gradientUnits="userSpaceOnUse" id="a"><stop offset="0" stop-color="#430766"/><stop offset="1" stop-color="#6f0ca8"/></linearGradient></defs><g stroke-miterlimit="10"><path d="M4.899 154.574V5.074h299.5v149.5z" fill="#860ecc"/><path d="m117.258 120.094 30.414-23.082v15.22l-30.436 21.478-28.702-23.443V96.521zm147.751 0 30.414-23.082v15.22l-30.436 21.478-28.701-23.443V96.521zM161.375 60.627V46.881l28.701-23.443 30.436 21.479v15.22l-30.414-23.084zm-147.5 0V46.881l28.701-23.443 30.436 21.479v15.22L42.598 37.053z" fill="#c766ff"/><path d="M13.875 154.377v-26.583l29.028-24.25 30.11 23.583v27.25z" fill="#a812ff"/><path d="M13.875 113.127V99.381l28.701-23.443 30.436 21.479v15.22L42.598 89.553z" fill="#b433ff"/><path d="M13.875 87.127V73.381l28.701-23.443 30.436 21.479v15.22L42.598 63.553z" fill="#be4dff"/><path d="M147.672 4.938v23.583l-30.11 23.583-29.028-24.25V4.938z" fill="#a812ff"/><path d="m117.258 66.094 30.414-23.082v15.22L117.236 79.71 88.534 56.267V42.521z" fill="#b433ff"/><path d="m117.258 92.094 30.414-23.082v15.22l-30.436 21.478-28.702-23.443V68.521z" fill="#be4dff"/><path d="M161.626 154.377v-26.583l29.029-24.25 30.109 23.583v27.25z" fill="#a812ff"/><path d="M161.626 113.127V99.381l28.701-23.443 30.437 21.479v15.22l-30.415-23.085z" fill="#b433ff"/><path d="M161.626 87.127V73.381l28.701-23.443 30.437 21.479v15.22l-30.415-23.085z" fill="#be4dff"/><path d="M295.423 4.938v23.583l-30.109 23.583-29.028-24.25V4.938z" fill="#a812ff"/><path d="m265.009 66.094 30.414-23.082v15.22L264.987 79.71l-28.701-23.443V42.521z" fill="#b433ff"/><path d="m265.009 92.094 30.414-23.082v15.22l-30.436 21.478-28.701-23.443V68.521z" fill="#be4dff"/><path d="M28.81 134.75q-3.757 0-3.757-.824v-26.807q0-1.406 1.277-1.406h7.28q6.123 0 8.83 2.529 2.715 2.52 2.715 7.32 0 3.965-2.57 7.28-1.275 1.648-3.764 2.641-2.48.994-5.785.994v7.409q0 .492-1.551.678a23 23 0 0 1-2.675.186zm4.226-21.838v6.536h.533q1.447 0 2.44-.905.994-.913.994-2.57t-.687-2.359q-.678-.702-2.416-.702zm16.315 19.317q-2.585-2.852-2.585-7.901 0-5.05 2.585-7.902t6.973-2.852 6.948 2.852q2.561 2.851 2.561 7.902 0 5.05-2.56 7.901-2.562 2.853-6.95 2.852-4.386 0-6.972-2.852zm6.989-11.747q-2.335 0-2.335 3.805t2.335 3.806q2.343 0 2.343-3.806t-2.343-3.805zm21.326 21.717q0 .291-3.539.291-3.53 0-3.53-.29v-21.306h-1.406q-.994 0-1.366-1.818-.129-.582-.129-1.486 0-.914.582-2.158.825-1.818 2.65-1.818 1.195 0 2.206.558 1.017.558 1.405 1.034.396.477.396.558 2.772-2.15 5.995-2.15 3.232 0 5.543 2.505 2.319 2.496 2.318 7.732 0 5.235-2.318 8.112-2.31 2.868-5.866 2.868a24 24 0 0 1-2.94-.162zm1.697-21.345q-.703 0-1.366.452v7.32q.703.09 1.14.089h.678q1.697-.17 1.697-4.347 0-3.514-2.15-3.514zm12.164-6.617q0-.46 3.555-.461 3.555 0 3.555.46v12.08q0 2.067 1.325 2.068.995 0 2.238-.873v-13.274q0-.412 3.515-.412 3.514 0 3.514.412v13.565h1.075q1.406 0 1.406 2.69 0 1.365-.574 2.772-.832 1.818-2.238 1.817-2.772 0-4.096-2.27l-.04.04q-2.521 2.23-5.422 2.23-4.008 0-5.914-2.003-1.899-2.004-1.899-6.642zm31.601 27.962q0 .291-3.539.291-3.53 0-3.53-.29v-21.306h-1.406q-.994 0-1.366-1.818-.129-.582-.129-1.486 0-.914.582-2.158.824-1.818 2.65-1.818 1.196 0 2.205.558 1.02.558 1.406 1.034.396.477.396.558 2.772-2.15 5.995-2.15 3.232 0 5.543 2.505 2.318 2.496 2.318 7.732 0 5.235-2.318 8.112-2.31 2.868-5.866 2.868a24 24 0 0 1-2.941-.162zm1.697-21.345q-.703 0-1.366.452v7.32q.703.09 1.14.089h.678q1.697-.17 1.697-4.347 0-3.514-2.15-3.514zm23.948 13.896q-3.757 0-3.757-.824v-26.807q0-1.406 1.277-1.406h7.28q6.124 0 8.83 2.529 2.715 2.52 2.715 7.32 0 3.965-2.57 7.28-1.275 1.648-3.764 2.641-2.48.994-5.785.994v7.409q0 .492-1.551.678a23 23 0 0 1-2.675.186zm4.226-21.838v6.536h.533q1.447 0 2.44-.905.994-.913.994-2.57t-.687-2.359q-.678-.702-2.416-.702zm22.456 21.467q0 .37-3.458.371-3.45 0-3.45-.573v-28.343q0-.283 1.284-.404a22 22 0 0 1 2.15-.13q3.474 0 3.474.744v8.273q2.319-.702 3.522-.703 3.144 0 4.961 1.681 1.818 1.673 1.818 6.221v12.822q0 .372-3.224.372-3.644-.121-3.644-.412v-12.16q0-2.028-1.317-2.028-.913 0-2.116.865zm15.618-2.15q-2.585-2.852-2.585-7.901 0-5.05 2.585-7.902t6.973-2.852q4.386 0 6.948 2.852 2.56 2.851 2.561 7.902 0 5.05-2.561 7.901-2.561 2.853-6.948 2.852-4.388 0-6.973-2.852zm6.989-11.747q-2.335 0-2.335 3.805t2.335 3.806q2.343 0 2.343-3.806t-2.343-3.805zm28.072 13.072q-2.61 1.527-6.706 1.527-4.095 0-6.908-2.787-2.811-2.796-2.811-7.74t2.706-7.958q2.715-3.022 6.852-3.022 4.136 0 6.39 2.109 2.255 2.109 2.255 5.13 0 6.698-7.692 6.698h-2.86q0 1.244.679 1.721.686.477 2.011.477a11.96 11.96 0 0 0 5.502-1.325q.04-.04.372.573.994 1.785.994 3.006t-.784 1.591zm-5.17-11.957q0-1.737-1.697-1.737-.784 0-1.35.477-.557.476-.557 1.381v1.285h2.238q1.365 0 1.365-1.406zm18.278 12.822q0 .29-2.974.29-4.136-.12-4.136-.452v-13.403h-1.075q-1.074 0-1.406-1.818-.089-.542-.089-1.075 0-1.284.501-2.57.744-1.817 2.311-1.817 1.576 0 2.812.743 1.244.744 1.664 1.487 2.601-2.23 6.197-2.23 3.604 0 5.211 1.947 1.616 1.94 1.616 6.367v12.41q0 .492-3.539.493-3.53 0-3.53-.493V122.34q0-2.068-1.447-2.068-.42 0-1.163.355-.743.348-.953.517zm21.718 0q0 .33-3.79.331-3.78 0-3.78-.29v-20.312q0-.283 3.78-.283 3.79 0 3.79.242zm0-22.752q0 .291-3.79.291-3.78 0-3.78-.25v-5.955q0-.412 3.78-.412 3.79 0 3.79.25zm16.133 2.44q.17-.33 2.068-.331 6.205 0 6.043.46l-5.05 10.463 5.09 9.518q0 .243-2.48.412-2.48.162-3.514.162-2.61 0-2.771-.534l-2.238-6.908-2.562 7.2q-.088.282-2.367.282-2.27 0-4.048-.162-1.777-.161-1.615-.412l4.678-9.517q-4.88-10.212-4.88-10.261 0-.243 1.26-.444 1.26-.21 2.852-.21t3.038.145q1.454.137 1.616.388l2.197 6.706z" fill="none" stroke-opacity=".502" stroke="#000" stroke-width="7.5" stroke-linecap="square" stroke-linejoin="round"/><path d="M28.81 134.75q-3.757 0-3.757-.824v-26.807q0-1.406 1.277-1.406h7.28q6.123 0 8.83 2.529 2.715 2.52 2.715 7.32 0 3.965-2.57 7.28-1.275 1.648-3.764 2.641-2.48.994-5.785.994v7.409q0 .492-1.551.678a23 23 0 0 1-2.675.186m4.226-21.838v6.536h.533q1.447 0 2.44-.905.994-.913.994-2.57t-.687-2.359q-.678-.702-2.416-.702zm16.315 19.317q-2.585-2.852-2.585-7.901 0-5.05 2.585-7.902t6.973-2.852 6.948 2.852q2.561 2.851 2.561 7.902 0 5.05-2.56 7.901-2.561 2.853-6.95 2.852-4.386 0-6.972-2.852m6.989-11.747q-2.335 0-2.335 3.805t2.335 3.806q2.343 0 2.343-3.806t-2.343-3.805m21.326 21.717q0 .291-3.539.291-3.53 0-3.53-.29v-21.306h-1.406q-.994 0-1.366-1.818-.129-.582-.129-1.486 0-.914.582-2.158.825-1.818 2.65-1.818 1.195 0 2.206.558 1.018.558 1.405 1.034.396.477.396.558 2.772-2.15 5.995-2.15 3.232 0 5.543 2.505 2.318 2.496 2.318 7.732 0 5.235-2.318 8.112-2.31 2.868-5.866 2.868a24 24 0 0 1-2.94-.162zm1.697-21.345q-.703 0-1.366.452v7.32q.703.09 1.14.089h.678q1.697-.17 1.697-4.347 0-3.514-2.15-3.514m12.164-6.617q0-.46 3.555-.461 3.555 0 3.555.46v12.08q0 2.067 1.325 2.068.995 0 2.238-.873v-13.274q0-.412 3.515-.412 3.514 0 3.514.412v13.565h1.075q1.406 0 1.406 2.69 0 1.365-.574 2.772-.832 1.818-2.238 1.817-2.772 0-4.096-2.27l-.04.04q-2.521 2.23-5.422 2.23-4.008 0-5.914-2.003-1.899-2.004-1.899-6.641zm31.601 27.962q0 .291-3.539.291-3.53 0-3.53-.29v-21.306h-1.406q-.994 0-1.366-1.818-.129-.582-.129-1.486 0-.914.582-2.158.824-1.818 2.65-1.818 1.196 0 2.205.558 1.02.558 1.406 1.034.396.477.396.558 2.772-2.15 5.995-2.15 3.232 0 5.543 2.505 2.318 2.496 2.318 7.732 0 5.235-2.318 8.112-2.31 2.868-5.866 2.868a24 24 0 0 1-2.941-.162zm1.697-21.345q-.703 0-1.366.452v7.32q.703.09 1.14.089h.678q1.697-.17 1.697-4.347 0-3.514-2.15-3.514m23.948 13.896q-3.757 0-3.757-.824v-26.807q0-1.406 1.277-1.406h7.28q6.124 0 8.83 2.529 2.715 2.52 2.715 7.32 0 3.965-2.57 7.28-1.275 1.648-3.764 2.641-2.48.994-5.785.994v7.409q0 .492-1.551.678a23 23 0 0 1-2.675.186m4.226-21.838v6.536h.533q1.447 0 2.44-.905.994-.913.994-2.57t-.687-2.359q-.678-.702-2.416-.702zm22.456 21.467q0 .37-3.458.371-3.45 0-3.45-.573v-28.343q0-.283 1.284-.404a22 22 0 0 1 2.15-.13q3.474 0 3.474.744v8.273q2.319-.703 3.522-.703 3.144 0 4.961 1.681 1.818 1.673 1.818 6.221v12.822q0 .372-3.224.372-3.644-.121-3.644-.412v-12.16q0-2.028-1.317-2.028-.913 0-2.116.865zm15.618-2.15q-2.585-2.852-2.585-7.901 0-5.05 2.585-7.902t6.973-2.852q4.386 0 6.948 2.852 2.56 2.851 2.561 7.902 0 5.05-2.561 7.901-2.561 2.853-6.948 2.852-4.388 0-6.973-2.852m6.989-11.747q-2.335 0-2.335 3.805t2.335 3.806q2.343 0 2.343-3.806t-2.343-3.805m28.072 13.072q-2.61 1.527-6.706 1.527-4.095 0-6.908-2.787-2.811-2.796-2.811-7.74t2.706-7.958q2.715-3.022 6.852-3.022 4.136 0 6.39 2.109 2.255 2.109 2.255 5.13 0 6.698-7.692 6.698h-2.86q0 1.244.679 1.721.686.477 2.011.477a11.96 11.96 0 0 0 5.502-1.325q.04-.04.372.573.994 1.785.994 3.006t-.784 1.591m-5.17-11.957q0-1.737-1.697-1.737-.784 0-1.35.477-.557.476-.557 1.381v1.285h2.238q1.365 0 1.365-1.406m18.278 12.822q0 .29-2.974.29-4.136-.12-4.136-.452v-13.403h-1.075q-1.074 0-1.406-1.818-.089-.542-.089-1.075 0-1.284.501-2.57.744-1.817 2.311-1.817 1.576 0 2.812.743 1.245.744 1.664 1.487 2.601-2.23 6.197-2.23 3.604 0 5.211 1.947 1.616 1.94 1.616 6.367v12.41q0 .492-3.539.493-3.53 0-3.53-.493V122.34q0-2.068-1.447-2.068-.42 0-1.163.355-.743.348-.953.517zm21.718 0q0 .33-3.79.331-3.78 0-3.78-.29v-20.312q0-.283 3.78-.283 3.79 0 3.79.242zm0-22.752q0 .291-3.79.291-3.78 0-3.78-.25v-5.955q0-.412 3.78-.412 3.79 0 3.79.25zm16.133 2.44q.17-.33 2.068-.331 6.205 0 6.043.46l-5.05 10.463 5.09 9.518q0 .243-2.48.412-2.48.162-3.514.162-2.61 0-2.771-.534l-2.238-6.908-2.562 7.2q-.088.282-2.367.282-2.27 0-4.048-.162-1.777-.161-1.615-.412l4.678-9.517q-4.88-10.212-4.88-10.261 0-.243 1.26-.444 1.26-.21 2.852-.21t3.038.145q1.454.137 1.616.388l2.197 6.706z" fill="#fff"/><g fill="#fff" fill-rule="evenodd"><path d="M75.782 28.684a5.19 5.19 0 0 0 1.737-4.882l-.758-4.141c-.356-1.96 2.107-3.13 3.398-1.615l2.734 3.201a5.19 5.19 0 0 0 4.88 1.739l4.141-.757c1.96-.357 3.13 2.106 1.616 3.4l-3.202 2.732a5.19 5.19 0 0 0-1.736 4.878l.755 4.143c.358 1.958-2.104 3.128-3.398 1.614l-2.732-3.202a5.19 5.19 0 0 0-4.881-1.734l-4.141.757c-1.959.356-3.13-2.107-1.616-3.4z" stroke-opacity=".502" stroke="#000" stroke-width="5"/><path d="M75.782 28.684a5.19 5.19 0 0 0 1.737-4.882l-.758-4.141c-.356-1.96 2.107-3.13 3.398-1.615l2.734 3.201a5.19 5.19 0 0 0 4.88 1.739l4.141-.757c1.96-.357 3.13 2.106 1.616 3.4l-3.202 2.732a5.19 5.19 0 0 0-1.736 4.878l.755 4.143c.358 1.958-2.104 3.128-3.398 1.614l-2.732-3.202a5.19 5.19 0 0 0-4.881-1.734l-4.141.757c-1.959.356-3.13-2.107-1.616-3.4z"/></g><g fill="#fff" fill-rule="evenodd"><path d="M64.872 51.068a3.91 3.91 0 0 0 3.864-.572l2.487-1.969c1.178-.93 2.828.295 2.277 1.69l-1.163 2.952a3.91 3.91 0 0 0 .57 3.862l1.968 2.488c.93 1.177-.294 2.827-1.69 2.278l-2.951-1.164a3.91 3.91 0 0 0-3.86.57l-2.49 1.968c-1.176.931-2.826-.293-2.277-1.69l1.165-2.95a3.91 3.91 0 0 0-.573-3.862l-1.969-2.488c-.93-1.177.295-2.827 1.691-2.278z" stroke-opacity=".502" stroke="#000" stroke-width="4"/><path d="M64.872 51.068a3.91 3.91 0 0 0 3.864-.572l2.487-1.969c1.178-.93 2.828.295 2.277 1.69l-1.163 2.952a3.91 3.91 0 0 0 .57 3.862l1.968 2.488c.93 1.177-.294 2.827-1.69 2.278l-2.951-1.164a3.91 3.91 0 0 0-3.86.57l-2.49 1.968c-1.176.931-2.826-.293-2.277-1.69l1.165-2.95a3.91 3.91 0 0 0-.573-3.862l-1.969-2.488c-.93-1.177.295-2.827 1.691-2.278z"/></g><g fill="#fff" fill-rule="evenodd"><path d="M227.885 91.362a5.19 5.19 0 0 0-1.082 5.068l1.293 4.006c.61 1.895-1.678 3.378-3.156 2.045l-3.13-2.815a5.19 5.19 0 0 0-5.066-1.084l-4.006 1.294c-1.896.61-3.379-1.679-2.048-3.16l2.817-3.127a5.19 5.19 0 0 0 1.081-5.064l-1.291-4.008c-.612-1.894 1.676-3.377 3.157-2.046l3.128 2.816a5.19 5.19 0 0 0 5.066 1.08l4.007-1.293c1.895-.61 3.378 1.678 2.047 3.159z" stroke-opacity=".502" stroke="#000" stroke-width="5"/><path d="M227.885 91.362a5.19 5.19 0 0 0-1.082 5.068l1.293 4.006c.61 1.895-1.678 3.378-3.156 2.045l-3.13-2.815a5.19 5.19 0 0 0-5.066-1.084l-4.006 1.294c-1.896.61-3.379-1.679-2.048-3.16l2.817-3.127a5.19 5.19 0 0 0 1.081-5.064l-1.291-4.008c-.612-1.894 1.676-3.377 3.157-2.046l3.128 2.816a5.19 5.19 0 0 0 5.066 1.08l4.007-1.293c1.895-.61 3.378 1.678 2.047 3.159z"/></g><g fill="#fff" fill-rule="evenodd"><path d="M236.915 71.41a3.91 3.91 0 0 0-3.331-2.039l-3.172-.083c-1.5-.041-1.98-2.039-.664-2.756l2.785-1.52a3.91 3.91 0 0 0 2.039-3.33l.083-3.171c.042-1.5 2.04-1.981 2.759-.665l1.518 2.786a3.91 3.91 0 0 0 3.329 2.036l3.172.086c1.5.039 1.98 2.036.664 2.756l-2.785 1.518a3.91 3.91 0 0 0-2.037 3.331l-.083 3.172c-.041 1.5-2.039 1.98-2.758.664z" stroke-opacity=".502" stroke="#000" stroke-width="4"/><path d="M236.915 71.41a3.91 3.91 0 0 0-3.331-2.039l-3.172-.083c-1.5-.041-1.98-2.039-.664-2.756l2.785-1.52a3.91 3.91 0 0 0 2.039-3.33l.083-3.171c.042-1.5 2.04-1.981 2.759-.665l1.518 2.786a3.91 3.91 0 0 0 3.329 2.036l3.172.086c1.5.039 1.98 2.036.664 2.756l-2.785 1.518a3.91 3.91 0 0 0-2.037 3.331l-.083 3.172c-.041 1.5-2.039 1.98-2.758.664z"/></g><path d="M192.193 56.809a7.249 7.249 0 1 1 14.498 0 7.249 7.249 0 0 1-14.498 0z" fill="none" stroke-opacity=".502" stroke="#000" stroke-width="5"/><path d="M192.193 56.809a7.249 7.249 0 1 1 14.498 0 7.249 7.249 0 0 1-14.498 0" fill="#b940ff"/><path d="M123.037 90.571a9.47 9.47 0 0 1-9.471-9.471V30.6c0-5.231 4.24-9.471 9.47-9.471h65.725c5.231 0 9.471 4.24 9.471 9.47v50.5c0 5.231-4.24 9.472-9.47 9.472zm63.516-4.09a7.18 7.18 0 0 0 7.18-7.18V32.398a7.18 7.18 0 0 0-7.18-7.18h-61.308a7.18 7.18 0 0 0-7.18 7.18v46.904a7.18 7.18 0 0 0 7.18 7.179z" fill-opacity=".502"/><path d="M123.737 87.71c-4.12 0-7.466-3.348-7.466-7.468V31.457c0-4.12 3.346-7.468 7.466-7.468h64.324c4.12 0 7.466 3.349 7.466 7.468v48.785c0 4.12-3.346 7.468-7.466 7.468z" fill="#fff"/><path d="m153.332 64.096-2.934.462-.138 3.711-2.408 1.391-1.1-4.732-3.155-1.948 1.45-2.54 3.412 1.53 3.41-1.099-2.579-3.449-2.049 1.525-3.755-.666 1.879-2.736-6.45 1.747-1.949-3.083 6.142-1.393-7.672-.581-1.407-4.154 7.843.935-7.895-3.033.739-5.166 7.227 4.523-6.154-7.427 2.512-4.081 9.47 11.284-.286 5.777 4.069.778 4.088-8.534 6.1 1.207-.222 3.351-2.21-.789-.177 2.828 1.399 1.937 3.625-.838-.124-5.102 5.352-5.843 4.037-5.646 2.494 3-5.953 8.57 6.992-5.38.143 5.664-7.164 3.24 7.887-1.166-1.235 4.595-7.722.114 6.946 1.189-2.977 3.618-6.782-2.222 1.789 2.58-3.584 1.16-1.738-1.695-2.803 3.775 3.16.535 3.892-1.752 1.193 2.926-3.295 1.524-.74 4.982-2.734-.863.03-3.86-3-.482.327 2.06 3.277 4.974-2.158 2.546-2.266-2.304.572 4.092-2.437 2.206-2.24-2.256.4-4.037-2.118 2.405-1.954-2.774 3.33-5.002z" fill="#a812ff"/><path d="M182.274 30.35c0-6.835 5.54-12.375 12.375-12.375s12.375 5.54 12.375 12.375c0 6.834-5.54 12.375-12.375 12.375-6.834 0-12.375-5.54-12.375-12.375z" fill="none" stroke-opacity=".502" stroke="#000" stroke-width="5"/><path d="M182.274 30.35c0-6.835 5.54-12.375 12.375-12.375s12.375 5.54 12.375 12.375c0 6.834-5.54 12.375-12.375 12.375-6.834 0-12.375-5.54-12.375-12.375" fill="#b026ff"/><path d="M105.986 99.007a6.71 6.71 0 0 1-6.712-6.712V80.969a6.71 6.71 0 0 1 6.712-6.712h30.915a6.71 6.71 0 0 1 6.712 6.712v11.326a6.71 6.71 0 0 1-6.712 6.712z" fill="none" stroke-opacity=".502" stroke="#000" stroke-width="5"/><path d="M105.986 99.007a6.71 6.71 0 0 1-6.712-6.712V80.969a6.71 6.71 0 0 1 6.712-6.712h30.915a6.71 6.71 0 0 1 6.712 6.712v11.326a6.71 6.71 0 0 1-6.712 6.712z" fill="#b940ff"/><path d="M188.799 35.725a1.79 1.79 0 0 1 0-2.53l2.846-2.845-2.846-2.846a1.79 1.79 0 0 1 0-2.53l.475-.474a1.79 1.79 0 0 1 2.53 0l2.845 2.846 2.846-2.846a1.79 1.79 0 0 1 2.53 0l.474.474a1.79 1.79 0 0 1 0 2.53l-2.846 2.846 2.846 2.845a1.79 1.79 0 0 1 0 2.53l-.474.474a1.79 1.79 0 0 1-2.53 0l-2.846-2.845-2.846 2.845a1.79 1.79 0 0 1-2.53 0zM106.855 80.94c-.562 0-1.018-.55-1.018-1.23s.456-1.23 1.018-1.23h7.06c.563 0 1.018.55 1.018 1.23s-.455 1.23-1.017 1.23h-2.031v11.384h2.03c.563 0 1.018.55 1.018 1.23s-.455 1.231-1.017 1.231h-7.061c-.562 0-1.018-.55-1.018-1.23s.456-1.231 1.018-1.231h2.03V80.941zm12.277 13.844c-.66 0-1.195-.56-1.195-1.252 0-.691.535-1.252 1.195-1.252h6.723c.66 0 1.195.56 1.195 1.252 0 .691-.535 1.252-1.195 1.252z" fill="#fff"/><path d="M90.351 117.671c0-6.399 5.916-12.495 13.12-12.495h272.61c8.613 0 13.568 4.643 13.568 12.246v125.705c0 6.04-4.86 11.697-13.32 11.697H103.72c-7.328 0-13.369-4.523-13.369-11.947z" fill="none" stroke="url(#a)" stroke-width="10" transform="translate(-85.351 -100.176)"/></g></svg>
