<svg version="1.1" xmlns="http://www.w3.org/2000/svg" xmlns:xlink="http://www.w3.org/1999/xlink" width="309.2973" height="159.64866" viewBox="0,0,309.2973,159.64866"><defs><linearGradient x1="240" y1="105.17574" x2="240" y2="254.82439" gradientUnits="userSpaceOnUse" id="color-1"><stop offset="0" stop-color="#2b3319"/><stop offset="1" stop-color="#4b582c"/></linearGradient></defs><g transform="translate(-85.35135,-100.17573)"><g fill-rule="nonzero" stroke-linejoin="miter" stroke-miterlimit="10" stroke-dasharray="" stroke-dashoffset="0" style="mix-blend-mode: normal"><path d="M93.17919,253.32439v-146.64866h293.64163v146.64866z" fill="#7b9149" stroke="none" stroke-width="0" stroke-linecap="butt"/><path d="M177.463,253.4375l17.53701,-30.375l17.53701,30.375z" fill="#9bb65b" stroke="none" stroke-width="0" stroke-linecap="butt"/><path d="M222.463,253.4375l17.53701,-30.375l17.53701,30.375z" fill="#63743a" stroke="none" stroke-width="0" stroke-linecap="butt"/><path d="M190.03703,220.5625l-17.53701,30.375l-17.53701,-30.375z" fill="#9bb65b" stroke="none" stroke-width="0" stroke-linecap="butt"/><path d="M235.03703,220.5625l-17.53701,30.375l-17.53701,-30.375z" fill="#63743a" stroke="none" stroke-width="0" stroke-linecap="butt"/><path d="M212.53702,182.5625l-17.53701,30.375l-17.53701,-30.375z" fill="#9bb65b" stroke="none" stroke-width="0" stroke-linecap="butt"/><path d="M167.53702,182.5625l-17.53701,30.375l-17.53701,-30.375z" fill="#63743a" stroke="none" stroke-width="0" stroke-linecap="butt"/><path d="M154.96301,215.4375l17.53701,-30.375l17.53701,30.375z" fill="#63743a" stroke="none" stroke-width="0" stroke-linecap="butt"/><path d="M199.96301,215.4375l17.53701,-30.375l17.53701,30.375z" fill="#9bb65b" stroke="none" stroke-width="0" stroke-linecap="butt"/><path d="M91.34354,246.7162c3.16567,-5.48309 13.65646,-23.6537 13.65646,-23.6537l17.53701,30.375c0,0 -14.10268,0 -20.33701,0c-5.30702,0 -12.54395,-3.79848 -10.85646,-6.7213z" fill="#63743a" stroke="none" stroke-width="0" stroke-linecap="butt"/><path d="M132.463,253.4375l17.53701,-30.375l17.53701,30.375z" fill="#9bb65b" stroke="none" stroke-width="0" stroke-linecap="butt"/><path d="M100.03703,220.5625c0,0 -6.44767,11.16769 -9.47913,16.41834c-2.79498,4.84105 -6.82464,-16.41834 -0.35789,-16.41834c4.03737,0 9.83702,0 9.83702,0z" fill="#9bb65b" stroke="none" stroke-width="0" stroke-linecap="butt"/><path d="M145.03703,220.5625l-17.53701,30.375l-17.53701,-30.375z" fill="#63743a" stroke="none" stroke-width="0" stroke-linecap="butt"/><path d="M122.53702,182.5625l-17.53701,30.375l-17.53701,-30.375z" fill="#9bb65b" stroke="none" stroke-width="0" stroke-linecap="butt"/><path d="M88.17497,194.89181c3.23336,5.60034 11.86206,20.54569 11.86206,20.54569c0,0 -5.56755,0 -9.50369,0c-6.45643,0 -4.59479,-24.4193 -2.35837,-20.54569z" fill="#9bb65b" stroke="none" stroke-width="0" stroke-linecap="butt"/><path d="M109.96301,215.4375l17.53701,-30.375l17.53701,30.375z" fill="#63743a" stroke="none" stroke-width="0" stroke-linecap="butt"/><path d="M357.463,253.4375l17.53701,-30.375c0,0 10.2587,17.7686 13.44546,23.28823c1.75795,3.04485 -9.71551,7.08677 -15.91213,7.08677c-5.3785,0 -15.07034,0 -15.07034,0z" fill="#9bb65b" stroke="none" stroke-width="0" stroke-linecap="butt"/><path d="M370.03703,220.5625l-17.53701,30.375l-17.53701,-30.375z" fill="#9bb65b" stroke="none" stroke-width="0" stroke-linecap="butt"/><path d="M390.24149,238.36536c-3.12894,-5.41949 -10.27848,-17.80286 -10.27848,-17.80286c0,0 6.317,0 10.57033,0c6.47591,0 2.33755,22.35712 -0.29185,17.80286z" fill="#9bb65b" stroke="none" stroke-width="0" stroke-linecap="butt"/><path d="M392.53702,182.5625l-17.53701,30.375l-17.53701,-30.375z" fill="#9bb65b" stroke="none" stroke-width="0" stroke-linecap="butt"/><path d="M347.53702,182.5625l-17.53701,30.375l-17.53701,-30.375z" fill="#63743a" stroke="none" stroke-width="0" stroke-linecap="butt"/><path d="M334.96301,215.4375l17.53701,-30.375l17.53701,30.375z" fill="#63743a" stroke="none" stroke-width="0" stroke-linecap="butt"/><path d="M379.96301,215.4375c0,0 5.95781,-10.31922 8.90265,-15.41985c2.90013,-5.02319 6.77959,15.41985 0.33434,15.41985c-3.85375,0 -9.23699,0 -9.23699,0z" fill="#9bb65b" stroke="none" stroke-width="0" stroke-linecap="butt"/><path d="M267.46299,253.4375l17.53701,-30.375l17.53701,30.375z" fill="#9bb65b" stroke="none" stroke-width="0" stroke-linecap="butt"/><path d="M312.46299,253.4375l17.53701,-30.375l17.53701,30.375z" fill="#9bb65b" stroke="none" stroke-width="0" stroke-linecap="butt"/><path d="M280.03703,220.5625l-17.53701,30.375l-17.53701,-30.375z" fill="#9bb65b" stroke="none" stroke-width="0" stroke-linecap="butt"/><path d="M325.03703,220.5625l-17.53701,30.375l-17.53701,-30.375z" fill="#63743a" stroke="none" stroke-width="0" stroke-linecap="butt"/><path d="M302.53702,182.5625l-17.53701,30.375l-17.53701,-30.375z" fill="#9bb65b" stroke="none" stroke-width="0" stroke-linecap="butt"/><path d="M257.53702,182.5625l-17.53701,30.375l-17.53701,-30.375z" fill="#9bb65b" stroke="none" stroke-width="0" stroke-linecap="butt"/><path d="M244.96301,215.4375l17.53701,-30.375l17.53701,30.375z" fill="#9bb65b" stroke="none" stroke-width="0" stroke-linecap="butt"/><path d="M289.96301,215.4375l17.53701,-30.375l17.53701,30.375z" fill="#63743a" stroke="none" stroke-width="0" stroke-linecap="butt"/><path d="M177.463,177.4375l17.53701,-30.375l17.53701,30.375z" fill="#9bb65b" stroke="none" stroke-width="0" stroke-linecap="butt"/><path d="M222.463,177.4375l17.53701,-30.375l17.53701,30.375z" fill="#63743a" stroke="none" stroke-width="0" stroke-linecap="butt"/><path d="M190.03703,144.5625l-17.53701,30.375l-17.53701,-30.375z" fill="#63743a" stroke="none" stroke-width="0" stroke-linecap="butt"/><path d="M235.03703,144.5625l-17.53701,30.375l-17.53701,-30.375z" fill="#63743a" stroke="none" stroke-width="0" stroke-linecap="butt"/><path d="M212.53702,106.5625l-17.53701,30.375l-17.53701,-30.375z" fill="#63743a" stroke="none" stroke-width="0" stroke-linecap="butt"/><path d="M167.53702,106.5625l-17.53701,30.375l-17.53701,-30.375z" fill="#63743a" stroke="none" stroke-width="0" stroke-linecap="butt"/><path d="M154.96301,139.4375l17.53701,-30.375l17.53701,30.375z" fill="#9bb65b" stroke="none" stroke-width="0" stroke-linecap="butt"/><path d="M199.96301,139.4375l17.53701,-30.375l17.53701,30.375z" fill="#63743a" stroke="none" stroke-width="0" stroke-linecap="butt"/><path d="M87.463,177.4375l17.53701,-30.375l17.53701,30.375z" fill="#9bb65b" stroke="none" stroke-width="0" stroke-linecap="butt"/><path d="M132.463,177.4375l17.53701,-30.375l17.53701,30.375z" fill="#9bb65b" stroke="none" stroke-width="0" stroke-linecap="butt"/><path d="M100.03703,144.5625c0,0 -5.24505,9.08471 -8.03575,13.91834c-3.03452,5.25595 -8.60775,-13.91834 -2.1346,-13.91834c4.13668,0 10.17036,0 10.17036,0z" fill="#9bb65b" stroke="none" stroke-width="0" stroke-linecap="butt"/><path d="M145.03703,144.5625l-17.53701,30.375l-17.53701,-30.375z" fill="#9bb65b" stroke="none" stroke-width="0" stroke-linecap="butt"/><path d="M122.53702,106.5625l-17.53701,30.375c0,0 -10.61594,-18.38736 -13.76867,-23.84804c-1.64936,-2.85677 3.39064,-6.52696 7.96867,-6.52696c6.45539,0 23.33701,0 23.33701,0z" fill="#9bb65b" stroke="none" stroke-width="0" stroke-linecap="butt"/><path d="M89.92935,121.93048c3.11043,5.38742 10.10768,17.50702 10.10768,17.50702c0,0 -6.03368,0 -10.17036,0c-6.47315,0 -2.60399,-22.12582 0.06267,-17.50702z" fill="#9bb65b" stroke="none" stroke-width="0" stroke-linecap="butt"/><path d="M109.96301,139.4375l17.53701,-30.375l17.53701,30.375z" fill="#63743a" stroke="none" stroke-width="0" stroke-linecap="butt"/><path d="M357.463,177.4375l17.53701,-30.375l17.53701,30.375z" fill="#9bb65b" stroke="none" stroke-width="0" stroke-linecap="butt"/><path d="M370.03703,144.5625l-17.53701,30.375l-17.53701,-30.375z" fill="#63743a" stroke="none" stroke-width="0" stroke-linecap="butt"/><path d="M389.06446,160.32669c-2.9762,-5.15493 -9.10145,-15.76418 -9.10145,-15.76418c0,0 6.08069,0 10.23699,0c6.47397,0 1.72971,20.72696 -1.13554,15.76418z" fill="#9bb65b" stroke="none" stroke-width="0" stroke-linecap="butt"/><path d="M389.30169,112.16626c-3.07316,5.32287 -14.30168,24.77124 -14.30168,24.77124l-17.53701,-30.375c0,0 14.16209,0 20.40368,0c5.2925,0 12.89669,3.07206 11.43502,5.60376z" fill="#63743a" stroke="none" stroke-width="0" stroke-linecap="butt"/><path d="M347.53702,106.5625l-17.53701,30.375l-17.53701,-30.375z" fill="#9bb65b" stroke="none" stroke-width="0" stroke-linecap="butt"/><path d="M334.96299,139.4375l17.53701,-30.375l17.53701,30.375z" fill="#9bb65b" stroke="none" stroke-width="0" stroke-linecap="butt"/><path d="M379.96301,139.4375c0,0 7.87635,-13.64225 11.0737,-19.18022c2.4427,-4.23089 5.29829,19.18022 -1.17003,19.18022c-4.05738,0 -9.90366,0 -9.90366,0z" fill="#9bb65b" stroke="none" stroke-width="0" stroke-linecap="butt"/><path d="M267.46299,177.4375l17.53701,-30.375l17.53701,30.375z" fill="#9bb65b" stroke="none" stroke-width="0" stroke-linecap="butt"/><path d="M312.46299,177.4375l17.53701,-30.375l17.53701,30.375z" fill="#63743a" stroke="none" stroke-width="0" stroke-linecap="butt"/><path d="M280.03703,144.5625l-17.53701,30.375l-17.53701,-30.375z" fill="#63743a" stroke="none" stroke-width="0" stroke-linecap="butt"/><path d="M325.03703,144.5625l-17.53701,30.375l-17.53701,-30.375z" fill="#9bb65b" stroke="none" stroke-width="0" stroke-linecap="butt"/><path d="M302.53702,106.5625l-17.53701,30.375l-17.53701,-30.375z" fill="#9bb65b" stroke="none" stroke-width="0" stroke-linecap="butt"/><path d="M257.53702,106.5625l-17.53701,30.375l-17.53701,-30.375z" fill="#9bb65b" stroke="none" stroke-width="0" stroke-linecap="butt"/><path d="M244.96301,139.4375l17.53701,-30.375l17.53701,30.375z" fill="#63743a" stroke="none" stroke-width="0" stroke-linecap="butt"/><path d="M289.96299,139.4375l17.53701,-30.375l17.53701,30.375z" fill="#9bb65b" stroke="none" stroke-width="0" stroke-linecap="butt"/><path d="M90.35135,117.6714c0,-6.39897 5.91545,-12.49566 13.1192,-12.49566c28.93252,0 219.72832,0 272.60996,0c8.61359,0 13.56814,4.64378 13.56814,12.24625c0,30.59212 0,109.0924 0,125.70487c0,6.03964 -4.85913,11.69754 -13.31873,11.69754c-52.46667,0 -243.42599,0 -272.60996,0c-7.3279,0 -13.36861,-4.5235 -13.36861,-11.94695c0,-30.16113 0,-108.19342 0,-125.20604z" fill="none" stroke="url(#color-1)" stroke-width="10" stroke-linecap="butt"/><g fill="#ffffff" stroke-opacity="0.50588" stroke="#000000" stroke-width="8.5" stroke-linecap="butt"><path d=""/><path d=""/></g><path d="M153.29257,233.19612c0,0.48425 -1.43002,0.72637 -4.29008,0.72637c-2.89032,0 -4.33547,-0.22699 -4.33547,-0.68096v-29.46304c0,-1.05424 0.55738,-1.58135 1.67215,-1.58135h8.62555c7.92439,0 11.88661,3.08703 11.88661,9.26111c0,1.87138 -0.36065,3.56876 -1.08197,5.0921c-0.72132,1.51829 -1.74528,2.7289 -3.0719,3.63181l5.68983,9.4881c-0.23707,0.72637 -1.01893,1.55613 -2.34555,2.4893c-1.80581,1.29636 -3.29636,1.94453 -4.47165,1.94453c-1.17529,0 -2.05046,-0.42119 -2.62549,-1.26355l-4.24468,-9.89668h-1.40732zM153.29257,210.19465v6.77938h0.22699c2.86509,0 4.29763,-1.19042 4.29763,-3.57128c0,-1.0845 -0.27995,-1.88904 -0.83985,-2.41364c-0.55485,-0.52963 -1.46533,-0.79445 -2.73143,-0.79445zM188.18874,232.61352c-1.90166,1.11476 -4.34303,1.67214 -7.32414,1.67214c-2.98111,0 -5.49815,-1.0164 -7.55113,-3.0492c-2.04793,-2.03785 -3.0719,-4.85501 -3.0719,-8.45152c0,-3.60155 0.98613,-6.50194 2.95841,-8.70121c1.97732,-2.19926 4.47166,-3.29889 7.48304,-3.29889c3.01137,0 5.33674,0.76923 6.9761,2.30771c1.6444,1.53343 2.4666,3.39977 2.4666,5.59904c0,4.88277 -2.80204,7.32414 -8.40611,7.32414h-3.1173c0,0.90291 0.24716,1.52839 0.7415,1.87643c0.49937,0.34301 1.23331,0.51451 2.20178,0.51451c2.10847,0 4.11101,-0.48172 6.00762,-1.44515c0.03026,-0.03026 0.16646,0.18159 0.40857,0.63557c0.72133,1.29636 1.08198,2.38841 1.08198,3.27619c0,0.88778 -0.28499,1.46786 -0.85498,1.74024zM182.53674,219.55414c0,-1.26608 -0.61791,-1.89914 -1.85374,-1.89914c-0.57,0 -1.05928,0.17403 -1.46785,0.52208c-0.40857,0.34301 -0.61286,0.84488 -0.61286,1.50568v1.40732h2.4439c0.99371,0 1.49055,-0.51199 1.49055,-1.53596zM200.47546,222.62604c0,2.95084 1.11476,4.42627 3.34429,4.42627c1.44768,0 2.65324,-0.28499 3.61667,-0.85498c0.45397,0 0.82221,0.77679 1.10468,2.33041c0.28752,1.54856 0.43128,2.60279 0.43128,3.1627c0,0.55486 -0.07566,0.92308 -0.22699,1.10468c-1.59396,0.99371 -3.77809,1.49055 -6.55239,1.49055c-2.76925,0 -5.1274,-1.03153 -7.07446,-3.0946c-1.942,-2.06812 -2.91301,-4.8853 -2.91301,-8.45153c0,-3.57128 0.95587,-6.45655 2.86762,-8.6558c1.9168,-2.19926 4.4641,-3.29889 7.64192,-3.29889c3.17783,0 5.38466,0.7667 6.62049,2.30013c0.27239,0.33292 0.40857,0.82474 0.40857,1.47542c0,0.64566 -0.12106,1.43507 -0.36318,2.36824c-0.53973,1.92687 -1.24843,3.04164 -2.12611,3.34429c-0.12106,0.03026 -0.29508,0.04539 -0.52207,0.04539c-0.22195,0 -0.49938,-0.18159 -0.8323,-0.54477c-1.17529,-1.17529 -2.11856,-1.76294 -2.82978,-1.76294c-0.70619,0 -1.31652,0.36318 -1.83103,1.08954c-0.50946,0.72133 -0.76419,1.89661 -0.76419,3.52589zM214.18972,231.16835c-1.88146,-2.08324 -2.82221,-4.96095 -2.82221,-8.6331c0,-3.6772 0.94074,-6.55492 2.82222,-8.63311c1.88652,-2.0782 4.42627,-3.11729 7.61922,-3.11729c3.19297,0 5.72262,1.0391 7.58897,3.11729c1.87138,2.0782 2.80709,4.95591 2.80709,8.63313c0,3.67217 -0.93569,6.54987 -2.80709,8.63311c-1.86635,2.0782 -4.39599,3.11729 -7.58896,3.11729c-3.19297,0 -5.73271,-1.0391 -7.61922,-3.11729zM221.83165,218.32841c-1.69989,0 -2.54983,1.38715 -2.54983,4.16145c0,2.76925 0.84994,4.15388 2.54983,4.15388c1.70494,0 2.55741,-1.38462 2.55741,-4.15387c0,-2.7743 -0.85246,-4.16145 -2.55741,-4.16145zM245.31092,233.78629c0,0.21185 -1.37202,0.31779 -4.11604,0.31779c-2.73898,-0.06053 -4.10848,-0.18159 -4.10848,-0.36318v-15.00391h-1.21817c-0.48425,0 -0.87011,-0.29255 -1.15763,-0.87769c-0.28752,-0.59017 -0.43128,-1.32157 -0.43128,-2.19422c0,-3.25349 0.96595,-4.88024 2.89789,-4.88024c1.35689,0 2.48678,0.41362 3.38969,1.24087c0.90291,0.82726 1.35437,1.76798 1.35437,2.82222c0.63052,-1.23582 1.48046,-2.22196 2.54983,-2.9584c1.06937,-0.73646 2.16143,-1.10466 3.27619,-1.10466c1.75033,0 2.80709,0.45144 3.17027,1.35436c0.08576,0.24212 0.12861,0.59773 0.12861,1.06685c0,0.46407 -0.14375,1.29888 -0.43128,2.50443c-0.28248,1.20556 -0.57504,2.08073 -0.87769,2.6255c-0.30265,0.53973 -0.48425,0.80959 -0.54477,0.80959c-0.05549,0 -0.33292,-0.11349 -0.83229,-0.34048c-0.49937,-0.22699 -0.94326,-0.34048 -1.33166,-0.34048c-1.14504,0 -1.71754,0.90542 -1.71754,2.71629zM264.74346,202.46952c0,-0.45397 1.19042,-0.68096 3.57128,-0.68096c0.81211,0 1.75284,0.05296 2.8222,0.1589c1.06936,0.10594 1.60404,0.24968 1.60404,0.43128v23.81861h1.58136c0.75662,0 1.25347,0.67592 1.49055,2.02776c0.06053,0.39344 0.09079,0.93065 0.09079,1.61162c0,0.67593 -0.20932,1.4956 -0.62799,2.45904c-0.6053,1.32661 -1.57126,1.98993 -2.89789,1.98993c-0.99371,0 -1.8739,-0.19672 -2.6406,-0.59017c-0.7667,-0.39344 -1.28627,-0.7995 -1.55865,-1.21817l-0.40859,-0.59017c-1.65449,1.59901 -3.73269,2.39851 -6.2346,2.39851c-2.50191,0 -4.64317,-1.0391 -6.42375,-3.1173c-1.77555,-2.08324 -2.66333,-4.98364 -2.66333,-8.70121c0,-3.7226 0.93317,-6.60031 2.79951,-8.6331c1.87138,-2.03279 4.20685,-3.04921 7.00636,-3.04921c0.81716,0 1.64692,0.09079 2.48931,0.27239zM263.2529,218.01063c-1.68981,0 -2.53469,1.52335 -2.53469,4.57003c0,1.53343 0.2396,2.64063 0.7188,3.32159c0.48425,0.67593 1.01892,1.01388 1.60405,1.01388c0.59017,0 1.15763,-0.25473 1.70242,-0.76419v-7.68734c-0.51451,-0.30265 -1.01136,-0.45397 -1.49055,-0.45397zM287.115,233.5593c0,0.24212 -1.37959,0.36318 -4.13874,0.36318c-2.75412,0 -4.13117,-0.10594 -4.13117,-0.31779v-22.19186c0,-0.20681 1.37707,-0.31021 4.13117,-0.31021c2.75916,0 4.13875,0.08828 4.13875,0.26483zM287.115,208.70413c0,0.21185 -1.37959,0.31778 -4.13874,0.31778c-2.75412,0 -4.13117,-0.09079 -4.13117,-0.27239v-6.50698c0,-0.30265 1.37707,-0.45397 4.13117,-0.45397c2.75916,0 4.13875,0.09079 4.13875,0.27239zM300.62555,233.5593c0,0.21185 -1.0845,0.31778 -3.2535,0.31778c-3.01138,-0.09079 -4.51706,-0.25726 -4.51706,-0.49938v-14.64072h-1.18034c-0.78184,0 -1.29383,-0.66332 -1.53595,-1.98993c-0.06053,-0.38841 -0.09079,-0.77932 -0.09079,-1.17276c0,-0.93317 0.18159,-1.86635 0.54477,-2.79951c0.54477,-1.32661 1.38967,-1.98992 2.5347,-1.98992c1.14502,0 2.169,0.27238 3.07191,0.81716c0.90292,0.53973 1.50568,1.07945 1.80833,1.61919c1.89662,-1.62422 4.15388,-2.43633 6.77181,-2.43633c2.62297,0 4.5221,0.7087 5.69739,2.12611c1.17529,1.41236 1.76294,3.73017 1.76294,6.9534v13.55875c0,0.36318 -1.28878,0.54478 -3.86635,0.54478c-2.57253,0 -3.8588,-0.1816 -3.8588,-0.54478v-13.05937c0,-1.50821 -0.52712,-2.26231 -1.58135,-2.26231c-0.30265,0 -0.72637,0.12863 -1.27113,0.38589c-0.53973,0.25726 -0.88526,0.44641 -1.03657,0.56748zM324.39972,233.83168c-2.92562,0 -5.18793,-0.94074 -6.78693,-2.82222c-1.59396,-1.88652 -2.39094,-4.67342 -2.39094,-8.36072c0,-3.69235 1.04666,-6.58517 3.14,-8.6785c2.09838,-2.09333 4.88529,-3.14 8.36072,-3.14c3.48047,0 6.35061,0.76671 8.61042,2.30014v22.50964c0,2.22952 -0.90291,3.9395 -2.70872,5.12993c-1.80581,1.19043 -4.12613,1.78564 -6.96096,1.78564c-2.82978,0 -5.35944,-0.36318 -7.58897,-1.08954c-0.30265,-0.72133 -0.45397,-1.36696 -0.45397,-1.93697c0,-1.93192 0.31526,-3.34934 0.94579,-4.25224c2.01768,0.87264 4.17154,1.30897 6.4616,1.30897c1.65954,0 2.48931,-0.58766 2.48931,-1.76294v-1.35436c-1.29636,0.24212 -2.33546,0.36318 -3.1173,0.36318zM326.48044,218.19221c-2.02272,0 -3.03408,1.52335 -3.03408,4.57003c0,1.89661 0.39345,3.12991 1.18034,3.69991c0.50946,0.39344 1.01892,0.59017 1.52838,0.59017c0.51451,0 0.96847,-0.0454 1.36193,-0.13619v-8.58771c-0.36318,-0.09079 -0.7087,-0.13619 -1.03657,-0.13619z" fill="none" stroke-opacity="0.50588" stroke="#000000" stroke-width="7.5" stroke-linecap="square"/><path d="M153.29256,233.19612c0,0.48424 -1.43002,0.72637 -4.29007,0.72637c-2.89032,0 -4.33547,-0.22699 -4.33547,-0.68096v-29.46303c0,-1.05424 0.55738,-1.58135 1.67215,-1.58135h8.62555c7.92441,0 11.88661,3.08703 11.88661,9.26111c0,1.8714 -0.36065,3.56875 -1.08197,5.0921c-0.72132,1.5183 -1.74528,2.7289 -3.0719,3.63181l5.68983,9.4881c-0.23707,0.72637 -1.01892,1.55612 -2.34554,2.48931c-1.80581,1.29636 -3.29637,1.94453 -4.47166,1.94453c-1.17529,0 -2.05045,-0.42119 -2.62549,-1.26357l-4.24468,-9.89668h-1.40732zM153.29256,210.19465v6.77938h0.22699c2.86509,0 4.29764,-1.19043 4.29764,-3.57128c0,-1.0845 -0.27995,-1.88904 -0.83985,-2.41364c-0.55486,-0.52963 -1.46533,-0.79445 -2.73142,-0.79445zM188.18873,232.61352c-1.90166,1.11477 -4.34303,1.67215 -7.32414,1.67215c-2.98111,0 -5.49815,-1.0164 -7.55113,-3.04921c-2.04793,-2.03785 -3.0719,-4.85502 -3.0719,-8.45152c0,-3.60154 0.98615,-6.50194 2.95841,-8.70121c1.97732,-2.19926 4.47166,-3.29889 7.48304,-3.29889c3.01137,0 5.33674,0.76923 6.9761,2.30771c1.6444,1.53343 2.4666,3.39977 2.4666,5.59904c0,4.88277 -2.80204,7.32414 -8.40612,7.32414h-3.1173c0,0.90292 0.24717,1.52839 0.7415,1.87643c0.49938,0.34301 1.23331,0.51451 2.20178,0.51451c2.10847,0 4.11101,-0.48172 6.00762,-1.44515c0.03026,-0.03026 0.16646,0.18159 0.40857,0.63557c0.72132,1.29636 1.08198,2.38842 1.08198,3.27619c0,0.88778 -0.28499,1.46786 -0.85498,1.74024zM182.53674,219.55413c0,-1.26609 -0.61791,-1.89913 -1.85374,-1.89913c-0.56999,0 -1.05928,0.17403 -1.46786,0.52207c-0.40857,0.34301 -0.61286,0.8449 -0.61286,1.50568v1.40732h2.4439c0.99371,0 1.49055,-0.51198 1.49055,-1.53595zM200.47545,222.62604c0,2.95085 1.11477,4.42627 3.34429,4.42627c1.44768,0 2.65324,-0.28499 3.61668,-0.85498c0.45397,0 0.8222,0.7768 1.10468,2.33041c0.28752,1.54856 0.43128,2.60279 0.43128,3.16269c0,0.55486 -0.07566,0.92308 -0.22699,1.10468c-1.59396,0.99371 -3.77809,1.49055 -6.55239,1.49055c-2.76925,0 -5.1274,-1.03153 -7.07446,-3.0946c-1.942,-2.06811 -2.91301,-4.88529 -2.91301,-8.45152c0,-3.57128 0.95587,-6.45655 2.86762,-8.6558c1.91679,-2.19926 4.4641,-3.29889 7.64193,-3.29889c3.17783,0 5.38466,0.76671 6.62049,2.30014c0.27239,0.33291 0.40857,0.82473 0.40857,1.47542c0,0.64566 -0.12106,1.43507 -0.36318,2.36824c-0.53973,1.92687 -1.24843,3.04164 -2.12611,3.34429c-0.12106,0.03026 -0.29508,0.0454 -0.52207,0.0454c-0.22195,0 -0.49938,-0.18159 -0.83229,-0.54477c-1.17529,-1.17529 -2.11855,-1.76293 -2.82978,-1.76293c-0.70619,0 -1.31653,0.36318 -1.83104,1.08954c-0.50946,0.72132 -0.76419,1.89661 -0.76419,3.52588zM214.18972,231.16835c-1.88147,-2.08325 -2.82222,-4.96095 -2.82222,-8.63311c0,-3.6772 0.94074,-6.55491 2.82222,-8.63311c1.88652,-2.0782 4.42627,-3.1173 7.61922,-3.1173c3.19297,0 5.72262,1.03911 7.58897,3.1173c1.8714,2.0782 2.80709,4.95591 2.80709,8.63311c0,3.67217 -0.93569,6.54986 -2.80708,8.63311c-1.86634,2.0782 -4.396,3.1173 -7.58897,3.1173c-3.19297,0 -5.73271,-1.03911 -7.61922,-3.1173zM221.83165,218.32841c-1.69989,0 -2.54983,1.38715 -2.54983,4.16145c0,2.76925 0.84994,4.15388 2.54983,4.15388c1.70494,0 2.5574,-1.38462 2.5574,-4.15388c0,-2.7743 -0.85246,-4.16145 -2.5574,-4.16145zM245.31092,233.78629c0,0.21185 -1.37202,0.31778 -4.11604,0.31778c-2.73899,-0.06053 -4.10848,-0.18159 -4.10848,-0.36318v-15.00391h-1.21817c-0.48424,0 -0.87011,-0.29255 -1.15763,-0.87769c-0.28752,-0.59017 -0.43128,-1.32157 -0.43128,-2.19421c0,-3.2535 0.96597,-4.88024 2.89789,-4.88024c1.35689,0 2.48678,0.41362 3.38968,1.24087c0.90292,0.82726 1.35436,1.76798 1.35436,2.82222c0.63052,-1.23582 1.48046,-2.22195 2.54983,-2.9584c1.06937,-0.73646 2.16143,-1.10468 3.27619,-1.10468c1.75033,0 2.80709,0.45145 3.17027,1.35436c0.08576,0.24212 0.12863,0.59773 0.12863,1.06685c0,0.46407 -0.14376,1.29888 -0.43128,2.50444c-0.28247,1.20556 -0.57504,2.08073 -0.87769,2.62549c-0.30265,0.53973 -0.48424,0.80959 -0.54477,0.80959c-0.05548,0 -0.33291,-0.11349 -0.83229,-0.34048c-0.49938,-0.22699 -0.94326,-0.34048 -1.33166,-0.34048c-1.14504,0 -1.71754,0.90544 -1.71754,2.7163zM264.74346,202.46952c0,-0.45397 1.19042,-0.68096 3.57128,-0.68096c0.81211,0 1.75285,0.05296 2.8222,0.15889c1.06937,0.10593 1.60405,0.2497 1.60405,0.43128v23.81861h1.58135c0.75662,0 1.25347,0.67593 1.49055,2.02776c0.06053,0.39344 0.09079,0.93065 0.09079,1.61162c0,0.67593 -0.20932,1.4956 -0.62799,2.45904c-0.6053,1.32661 -1.57126,1.98993 -2.89789,1.98993c-0.99371,0 -1.8739,-0.19673 -2.64061,-0.59017c-0.7667,-0.39344 -1.28626,-0.7995 -1.55865,-1.21817l-0.40857,-0.59017c-1.65449,1.59901 -3.73269,2.39851 -6.23461,2.39851c-2.50191,0 -4.64317,-1.03911 -6.42375,-3.1173c-1.77555,-2.08325 -2.66333,-4.98364 -2.66333,-8.70121c0,-3.7226 0.93317,-6.60031 2.79952,-8.63311c1.8714,-2.0328 4.20684,-3.04921 7.00636,-3.04921c0.81716,0 1.64692,0.09079 2.48931,0.27239zM263.2529,218.01063c-1.6898,0 -2.5347,1.52335 -2.5347,4.57003c0,1.53343 0.2396,2.64063 0.7188,3.32159c0.48424,0.67593 1.01892,1.01388 1.60405,1.01388c0.59017,0 1.15764,-0.25473 1.70242,-0.76419v-7.68732c-0.51451,-0.30265 -1.01135,-0.45397 -1.49055,-0.45397zM287.115,233.5593c0,0.24212 -1.37959,0.36318 -4.13874,0.36318c-2.75412,0 -4.13117,-0.10593 -4.13117,-0.31778v-22.19186c0,-0.20681 1.37706,-0.31021 4.13117,-0.31021c2.75916,0 4.13875,0.08828 4.13875,0.26483zM287.115,208.7041c0,0.21185 -1.37959,0.31778 -4.13874,0.31778c-2.75412,0 -4.13117,-0.09079 -4.13117,-0.27239v-6.50698c0,-0.30265 1.37706,-0.45397 4.13117,-0.45397c2.75916,0 4.13875,0.09079 4.13875,0.27239zM300.62555,233.5593c0,0.21185 -1.0845,0.31778 -3.2535,0.31778c-3.01137,-0.09079 -4.51705,-0.25725 -4.51705,-0.49938v-14.64072h-1.18034c-0.78185,0 -1.29383,-0.66331 -1.53595,-1.98992c-0.06053,-0.38841 -0.09079,-0.77932 -0.09079,-1.17277c0,-0.93317 0.18159,-1.86634 0.54477,-2.79952c0.54477,-1.32661 1.38967,-1.98992 2.5347,-1.98992c1.14504,0 2.169,0.27239 3.0719,0.81716c0.90291,0.53973 1.50568,1.07945 1.80833,1.61919c1.89661,-1.62422 4.15388,-2.43634 6.77181,-2.43634c2.62297,0 4.5221,0.7087 5.6974,2.12612c1.17529,1.41236 1.76294,3.73017 1.76294,6.95341v13.55875c0,0.36318 -1.28879,0.54477 -3.86636,0.54477c-2.57254,0 -3.8588,-0.18159 -3.8588,-0.54477v-13.05937c0,-1.50821 -0.52712,-2.26231 -1.58135,-2.26231c-0.30265,0 -0.72637,0.12863 -1.27113,0.38588c-0.53972,0.25725 -0.88526,0.44641 -1.03658,0.56748zM324.39972,233.83168c-2.92562,0 -5.18793,-0.94074 -6.78694,-2.82222c-1.59396,-1.88652 -2.39094,-4.67342 -2.39094,-8.36072c0,-3.69235 1.04666,-6.58517 3.14,-8.6785c2.09838,-2.09333 4.88529,-3.14 8.36072,-3.14c3.48048,0 6.35061,0.76671 8.61042,2.30014v22.50964c0,2.22952 -0.90291,3.9395 -2.70872,5.12993c-1.80581,1.19043 -4.12614,1.78564 -6.96096,1.78564c-2.82978,0 -5.35944,-0.36318 -7.58897,-1.08954c-0.30265,-0.72132 -0.45397,-1.36697 -0.45397,-1.93697c0,-1.93193 0.31526,-3.34933 0.94579,-4.25224c2.01768,0.87264 4.17154,1.30897 6.4616,1.30897c1.65953,0 2.48931,-0.58764 2.48931,-1.76293v-1.35436c-1.29636,0.24212 -2.33546,0.36318 -3.1173,0.36318zM326.48044,218.19221c-2.02271,0 -3.03407,1.52335 -3.03407,4.57003c0,1.89661 0.39344,3.12992 1.18034,3.69991c0.50946,0.39344 1.01892,0.59017 1.52839,0.59017c0.51451,0 0.96848,-0.0454 1.36193,-0.13619v-8.58771c-0.36318,-0.09079 -0.7087,-0.13619 -1.03658,-0.13619z" fill="#ffffff" stroke="none" stroke-width="1" stroke-linecap="square"/><g fill="none" stroke-opacity="0.49804" stroke="#000000" stroke-width="10" stroke-linecap="butt"><path d="M262.31617,162.02183c0,11.62411 -9.99129,21.0473 -22.31617,21.0473c-12.32488,0 -22.31617,-9.4232 -22.31617,-21.0473c0,-1.00239 1.86346,-1.00872 3.38589,-1.00872c0.5772,0 2.60811,1.00873 2.60811,1.00873c0,8.50193 7.30768,15.3941 16.32217,15.3941c9.01448,0 16.32216,-6.89218 16.32216,-15.3941c0,-0.5841 1.8052,-1.14613 3.1448,-1.14613c1.3396,0 2.84921,-0.18969 2.84921,1.14611z"/><path d=""/></g><path d="M237.73066,192.85803c-2.20148,0 -3.98613,-1.34574 -3.98613,-3.00577v-7.86195c0,-1.66005 12.51093,-1.66004 12.51093,0v7.86195c0,1.66005 -1.78465,3.00577 -3.98613,3.00577z" fill="#ffffff" stroke-opacity="0.50588" stroke="#000000" stroke-width="8.5" stroke-linecap="butt"/><g fill="#ffffff" stroke="#ffffff" stroke-width="1.5" stroke-linecap="butt"><path d="M262.31617,162.02183c0,11.62411 -9.99129,21.0473 -22.31617,21.0473c-12.32488,0 -22.31617,-9.4232 -22.31617,-21.0473c0,-1.00239 1.86346,-1.00872 3.38589,-1.00872c0.5772,0 2.60811,1.00873 2.60811,1.00873c0,8.50193 7.30768,15.3941 16.32217,15.3941c9.01448,0 16.32216,-6.89218 16.32216,-15.3941c0,-0.5841 1.8052,-1.14613 3.1448,-1.14613c1.3396,0 2.84921,-0.18969 2.84921,1.14611z"/><path d=""/></g><path d="M237.73066,192.85803c-2.20148,0 -3.98613,-1.34574 -3.98613,-3.00577v-7.86195c0,-1.66005 1.78465,-3.00577 3.98613,-3.00577h4.53867c2.20148,0 3.98613,1.34574 3.98613,3.00577v7.86195c0,1.66005 -1.78465,3.00577 -3.98613,3.00577z" fill="#ffffff" stroke="#ffffff" stroke-width="1" stroke-linecap="butt"/><path d="M239.59282,169.75834c-4.85647,0 -6.75756,-4.15917 -6.95177,-4.49997c-0.51749,-0.90809 -0.56672,-3.32889 -0.42036,-4.97131c0.14464,-1.62308 0.48188,-2.47331 0.48188,-2.47331l-3.82339,-1.87534v-15.89311c0,-6.68305 4.97896,-12.10075 11.12082,-12.10075v0c6.14186,0 11.12082,5.4177 11.12082,12.10075v16.25505l-1.06346,0.91394l-2.15109,3.64911c0,0 0.2346,3.80527 -1.31814,5.76392c-2.7894,3.51859 -6.21727,3.13101 -6.99532,3.13101z" fill="#ffffff" stroke-opacity="0.50588" stroke="#000000" stroke-width="8" stroke-linecap="butt"/><path d="M239.99999,170.64055c-6.14186,0 -11.12082,-5.4177 -11.12082,-12.10075v-18.49451c0,-6.68305 4.97896,-12.10075 11.12082,-12.10075v0c6.14186,0 11.12082,5.4177 11.12082,12.10075v18.49451c0,6.68305 -4.97896,12.10075 -11.12082,12.10075z" fill="#ffffff" stroke="#000000" stroke-width="0" stroke-linecap="butt"/></g></g></svg>
