<svg version="1.1" xmlns="http://www.w3.org/2000/svg" xmlns:xlink="http://www.w3.org/1999/xlink" width="309.2973" height="159.64866" viewBox="0,0,309.2973,159.64866"><defs><linearGradient x1="240" y1="105.17567" x2="240" y2="254.82433" gradientUnits="userSpaceOnUse" id="color-1"><stop offset="0" stop-color="#1f3244"/><stop offset="1" stop-color="#314e6a"/></linearGradient></defs><g transform="translate(-85.35135,-100.17567)"><g stroke-miterlimit="10" stroke-dasharray="" stroke-dashoffset="0" style="mix-blend-mode: normal"><path d="M90,235.95c0,-33.26576 0,-99.98497 0,-116.5c0,-7.26221 8.84158,-14.45 18.8,-14.45c32.87609,0 214.52285,0 267,0c8.9994,0 14.2,7.47153 14.2,14.95c0,17.01229 0,85.63683 0,118c0,10.3958 -11.20576,17.05 -23.2,17.05c-35.02256,0 -208.63813,0 -261.5,0c-9.6707,0 -15.3,-7.51319 -15.3,-19.05z" fill="#5386b5" fill-rule="nonzero" stroke="none" stroke-width="NaN" stroke-linecap="butt" stroke-linejoin="miter"/><g fill-rule="nonzero" stroke="none" stroke-width="0" stroke-linecap="butt" stroke-linejoin="miter"><path d="M107.14833,208.01297c-2.53262,0 -4.58571,-2.05309 -4.58571,-4.58571v-15.13285c0,-2.53262 2.05309,-4.58571 4.58571,-4.58571h15.13285c2.53262,0 4.58571,2.05309 4.58571,4.58571v15.13285c0,2.53262 -2.05309,4.58571 -4.58571,4.58571z" fill="#41688d"/><path d="M100.98076,233.67691c-1.76397,-1.76397 -1.76397,-4.62393 0,-6.3879l10.54004,-10.54004c1.76397,-1.76397 4.62393,-1.76397 6.3879,0l10.54005,10.54004c1.76397,1.76397 1.76397,4.62393 0,6.3879l-10.54005,10.54005c-1.76397,1.76397 -4.62393,1.76397 -6.3879,0z" fill="#3c5f83"/><path d="M157.66709,221.23564c2.53263,0 4.58572,2.05308 4.58572,4.58571v15.13285c0,2.53263 -2.05309,4.58571 -4.58572,4.58571h-15.13284c-2.53263,0 -4.58571,-2.05309 -4.58571,-4.58571v-15.13285c0,-2.53263 2.05309,-4.58571 4.58571,-4.58571z" fill="#41688d"/><path d="M146.90671,185.03167c1.76397,-1.76397 4.62393,-1.76397 6.3879,0l10.54005,10.54004c1.76397,1.76397 1.76397,4.62393 0,6.3879l-10.54005,10.54005c-1.76397,1.76397 -4.62393,1.76397 -6.3879,0l-10.54004,-10.54005c-1.76397,-1.76397 -1.76397,-4.62393 0,-6.3879z" fill="#48749d"/><path d="M178.87652,208.01297c-2.53263,0 -4.58571,-2.05309 -4.58571,-4.58572v-15.13284c0,-2.53263 2.05308,-4.58571 4.58571,-4.58571h15.13285c2.53263,0 4.58571,2.05308 4.58571,4.58571v15.13284c0,2.53263 -2.05308,4.58572 -4.58571,4.58572z" fill="#3c5f83"/><path d="M172.70897,233.67691c-1.76397,-1.76397 -1.76397,-4.62393 0,-6.3879l10.54004,-10.54004c1.76397,-1.76397 4.62394,-1.76397 6.38791,0l10.54004,10.54004c1.76397,1.76397 1.76397,4.62393 0,6.3879l-10.54004,10.54005c-1.76397,1.76397 -4.62394,1.76397 -6.38791,0z" fill="#41688d"/><path d="M229.39528,221.23564c2.53263,0 4.58571,2.05309 4.58571,4.58572v15.13284c0,2.53263 -2.05308,4.58571 -4.58571,4.58571h-15.13285c-2.53263,0 -4.58571,-2.05308 -4.58571,-4.58571v-15.13284c0,-2.53263 2.05308,-4.58572 4.58571,-4.58572z" fill="#41688d"/><path d="M218.63491,185.03167c1.76397,-1.76397 4.62393,-1.76397 6.3879,0l10.54005,10.54005c1.76397,1.76397 1.76397,4.62393 0,6.3879l-10.54005,10.54004c-1.76397,1.76397 -4.62393,1.76397 -6.3879,0l-10.54003,-10.54004c-1.76397,-1.76397 -1.76397,-4.62393 0,-6.3879z" fill="#41688d"/><path d="M250.60472,208.01297c-2.53263,0 -4.58572,-2.05309 -4.58572,-4.58572v-15.13284c0,-2.53263 2.05309,-4.58571 4.58572,-4.58571h15.13284c2.53263,0 4.58571,2.05308 4.58571,4.58571v15.13284c0,2.53263 -2.05308,4.58572 -4.58571,4.58572z" fill="#41688d"/><path d="M244.43716,233.67691c-1.76397,-1.76397 -1.76397,-4.62393 0,-6.3879l10.54004,-10.54004c1.76397,-1.76397 4.62393,-1.76397 6.3879,0l10.54005,10.54004c1.76397,1.76397 1.76397,4.62393 0,6.3879l-10.54005,10.54005c-1.76397,1.76397 -4.62393,1.76397 -6.3879,0z" fill="#41688d"/><path d="M301.12348,221.23564c2.53263,0 4.58571,2.05309 4.58571,4.58572v15.13284c0,2.53263 -2.05308,4.58571 -4.58571,4.58571h-15.13285c-2.53263,0 -4.58571,-2.05308 -4.58571,-4.58571v-15.13284c0,-2.53263 2.05309,-4.58572 4.58571,-4.58572z" fill="#41688d"/><path d="M290.3631,185.03167c1.76397,-1.76397 4.62393,-1.76397 6.3879,0l10.54005,10.54005c1.76397,1.76397 1.76397,4.62393 0,6.3879l-10.54005,10.54004c-1.76397,1.76397 -4.62393,1.76397 -6.3879,0l-10.54003,-10.54004c-1.76397,-1.76397 -1.76397,-4.62393 0,-6.3879z" fill="#48749d"/><path d="M322.33291,208.01297c-2.53263,0 -4.58571,-2.05309 -4.58571,-4.58572v-15.13284c0,-2.53263 2.05308,-4.58571 4.58571,-4.58571h15.13284c2.53263,0 4.58571,2.05308 4.58571,4.58571v15.13284c0,2.53263 -2.05308,4.58572 -4.58571,4.58572z" fill="#48749d"/><path d="M316.16535,233.67691c-1.76397,-1.76397 -1.76397,-4.62393 0,-6.3879l10.54004,-10.54004c1.76397,-1.76397 4.62394,-1.76397 6.38791,0l10.54004,10.54004c1.76397,1.76397 1.76397,4.62393 0,6.3879l-10.54004,10.54005c-1.76397,1.76397 -4.62394,1.76397 -6.38791,0z" fill="#365675"/><path d="M372.85167,221.23564c2.53263,0 4.58571,2.05309 4.58571,4.58572v15.13284c0,2.53263 -2.05309,4.58571 -4.58571,4.58571h-15.13284c-2.53263,0 -4.58571,-2.05308 -4.58571,-4.58571v-15.13284c0,-2.53263 2.05308,-4.58572 4.58571,-4.58572z" fill="#365675"/><path d="M362.0913,185.03167c1.76397,-1.76397 4.62394,-1.76397 6.38791,0l10.54005,10.54005c1.76397,1.76397 1.76397,4.62393 0,6.3879l-10.54005,10.54004c-1.76397,1.76397 -4.62394,1.76397 -6.38791,0l-10.54003,-10.54004c-1.76397,-1.76397 -1.76397,-4.62393 0,-6.3879z" fill="#3c5f83"/></g><g fill-rule="nonzero" stroke="none" stroke-width="0" stroke-linecap="butt" stroke-linejoin="miter"><path d="M107.14833,139.76436c-2.53262,0 -4.58571,-2.05309 -4.58571,-4.58571v-15.13285c0,-2.53262 2.05309,-4.58571 4.58571,-4.58571h15.13285c2.53262,0 4.58571,2.05309 4.58571,4.58571v15.13285c0,2.53262 -2.05309,4.58571 -4.58571,4.58571z" fill="#3c5f83"/><path d="M100.98076,165.42829c-1.76397,-1.76397 -1.76397,-4.62393 0,-6.3879l10.54004,-10.54004c1.76397,-1.76397 4.62393,-1.76397 6.3879,0l10.54005,10.54004c1.76397,1.76397 1.76397,4.62393 0,6.3879l-10.54005,10.54005c-1.76397,1.76397 -4.62393,1.76397 -6.3879,0z" fill="#48749d"/><path d="M157.66709,152.98703c2.53263,0 4.58572,2.05308 4.58572,4.58571v15.13285c0,2.53263 -2.05309,4.58571 -4.58572,4.58571h-15.13284c-2.53263,0 -4.58571,-2.05309 -4.58571,-4.58571v-15.13285c0,-2.53263 2.05309,-4.58571 4.58571,-4.58571z" fill="#48749d"/><path d="M146.90671,116.78306c1.76397,-1.76397 4.62393,-1.76397 6.3879,0l10.54005,10.54004c1.76397,1.76397 1.76397,4.62393 0,6.3879l-10.54005,10.54005c-1.76397,1.76397 -4.62393,1.76397 -6.3879,0l-10.54004,-10.54005c-1.76397,-1.76397 -1.76397,-4.62393 0,-6.3879z" fill="#48749d"/><path d="M178.87652,139.76436c-2.53263,0 -4.58571,-2.05309 -4.58571,-4.58572v-15.13284c0,-2.53263 2.05308,-4.58571 4.58571,-4.58571h15.13285c2.53263,0 4.58571,2.05309 4.58571,4.58571v15.13284c0,2.53263 -2.05308,4.58572 -4.58571,4.58572z" fill="#41688d"/><path d="M172.70897,165.42829c-1.76397,-1.76397 -1.76397,-4.62393 0,-6.3879l10.54004,-10.54004c1.76397,-1.76397 4.62394,-1.76397 6.38791,0l10.54004,10.54004c1.76397,1.76397 1.76397,4.62393 0,6.3879l-10.54004,10.54005c-1.76397,1.76397 -4.62394,1.76397 -6.38791,0z" fill="#41688d"/><path d="M229.39528,152.98703c2.53263,0 4.58571,2.05309 4.58571,4.58572v15.13284c0,2.53263 -2.05308,4.58571 -4.58571,4.58571h-15.13285c-2.53263,0 -4.58571,-2.05308 -4.58571,-4.58571v-15.13284c0,-2.53263 2.05308,-4.58572 4.58571,-4.58572z" fill="#48749d"/><path d="M218.63491,116.78306c1.76397,-1.76397 4.62393,-1.76397 6.3879,0l10.54005,10.54005c1.76397,1.76397 1.76397,4.62393 0,6.3879l-10.54005,10.54004c-1.76397,1.76397 -4.62393,1.76397 -6.3879,0l-10.54003,-10.54004c-1.76397,-1.76397 -1.76397,-4.62393 0,-6.3879z" fill="#41688d"/><path d="M250.60472,139.76436c-2.53263,0 -4.58572,-2.05309 -4.58572,-4.58572v-15.13284c0,-2.53263 2.05309,-4.58571 4.58572,-4.58571h15.13284c2.53263,0 4.58571,2.05309 4.58571,4.58571v15.13284c0,2.53263 -2.05308,4.58572 -4.58571,4.58572z" fill="#3c5f83"/><path d="M244.43716,165.42829c-1.76397,-1.76397 -1.76397,-4.62393 0,-6.3879l10.54004,-10.54004c1.76397,-1.76397 4.62393,-1.76397 6.3879,0l10.54005,10.54004c1.76397,1.76397 1.76397,4.62393 0,6.3879l-10.54005,10.54005c-1.76397,1.76397 -4.62393,1.76397 -6.3879,0z" fill="#48749d"/><path d="M301.12348,152.98703c2.53263,0 4.58571,2.05309 4.58571,4.58572v15.13284c0,2.53263 -2.05308,4.58571 -4.58571,4.58571h-15.13285c-2.53263,0 -4.58571,-2.05308 -4.58571,-4.58571v-15.13284c0,-2.53263 2.05309,-4.58572 4.58571,-4.58572z" fill="#41688d"/><path d="M290.3631,116.78306c1.76397,-1.76397 4.62393,-1.76397 6.3879,0l10.54005,10.54005c1.76397,1.76397 1.76397,4.62393 0,6.3879l-10.54005,10.54004c-1.76397,1.76397 -4.62393,1.76397 -6.3879,0l-10.54003,-10.54004c-1.76397,-1.76397 -1.76397,-4.62393 0,-6.3879z" fill="#41688d"/><path d="M322.33291,139.76436c-2.53263,0 -4.58571,-2.05309 -4.58571,-4.58572v-15.13284c0,-2.53263 2.05308,-4.58571 4.58571,-4.58571h15.13284c2.53263,0 4.58571,2.05309 4.58571,4.58571v15.13284c0,2.53263 -2.05308,4.58572 -4.58571,4.58572z" fill="#3c5f83"/><path d="M316.16535,165.42829c-1.76397,-1.76397 -1.76397,-4.62393 0,-6.3879l10.54004,-10.54004c1.76397,-1.76397 4.62394,-1.76397 6.38791,0l10.54004,10.54004c1.76397,1.76397 1.76397,4.62393 0,6.3879l-10.54004,10.54005c-1.76397,1.76397 -4.62394,1.76397 -6.38791,0z" fill="#41688d"/><path d="M372.85167,152.98703c2.53263,0 4.58571,2.05309 4.58571,4.58572v15.13284c0,2.53263 -2.05309,4.58571 -4.58571,4.58571h-15.13284c-2.53263,0 -4.58571,-2.05308 -4.58571,-4.58571v-15.13284c0,-2.53263 2.05308,-4.58572 4.58571,-4.58572z" fill="#48749d"/><path d="M362.0913,116.78306c1.76397,-1.76397 4.62394,-1.76397 6.38791,0l10.54005,10.54005c1.76397,1.76397 1.76397,4.62393 0,6.3879l-10.54005,10.54004c-1.76397,1.76397 -4.62394,1.76397 -6.38791,0l-10.54003,-10.54004c-1.76397,-1.76397 -1.76397,-4.62393 0,-6.3879z" fill="#48749d"/></g><path d="M239.87966,194.47359l-5.84655,2.44866l2.45279,-5.82866c1.67556,-3.97841 3.99904,-7.4602 6.91957,-10.36972l27.16926,-27.06884c1.16381,-1.15831 3.64549,-0.56402 5.54665,1.33025c1.89841,1.89154 2.49819,4.36496 1.33438,5.52327l-27.16926,27.07021c-2.92052,2.9109 -6.41607,5.2275 -10.40685,6.8948" fill="none" fill-rule="evenodd" stroke-opacity="0.51373" stroke="#000000" stroke-width="9" stroke-linecap="round" stroke-linejoin="round"/><path d="M251.02937,165.34539c0,0 3.59873,3.05396 5.98412,-2.12677c5.16147,-11.21162 11.28316,-7.94029 11.28316,-7.94029" fill="none" fill-rule="evenodd" stroke-opacity="0.51373" stroke="#000000" stroke-width="9" stroke-linecap="round" stroke-linejoin="round"/><path d="M253.21942,164.52274c0,0.68784 -0.55576,1.24497 -1.2436,1.24497c-0.68784,0 -1.24496,-0.55715 -1.24496,-1.24359c0,-0.68784 0.55989,-1.24222 1.24635,-1.24222c0.68784,0 1.24359,0.55576 1.24359,1.24359z" fill="none" fill-rule="evenodd" stroke-opacity="0.51373" stroke="#000000" stroke-width="9" stroke-linecap="round" stroke-linejoin="round"/><path d="M256.70405,144.22031c-3.36374,0 -6.09059,-2.72685 -6.09059,-6.09059v-6.74337c0,-3.36374 2.72685,-6.09059 6.09059,-6.09059h6.74336c3.36374,0 6.09059,2.72685 6.09059,6.09059v6.74337c0,3.36374 -2.72685,6.09059 -6.09059,6.09059z" fill="none" fill-rule="nonzero" stroke-opacity="0.51373" stroke="#000000" stroke-width="7.5" stroke-linecap="butt" stroke-linejoin="miter"/><path d="M232.37249,144.22031c-3.36374,0 -6.09059,-2.72685 -6.09059,-6.09059v-6.74337c0,-3.36374 2.72685,-6.09059 6.09059,-6.09059h6.74336c3.36374,0 6.09059,2.72685 6.09059,6.09059v6.74337c0,3.36374 -2.72685,6.09059 -6.09059,6.09059z" fill="none" fill-rule="nonzero" stroke-opacity="0.51373" stroke="#000000" stroke-width="7.5" stroke-linecap="butt" stroke-linejoin="miter"/><path d="M208.04092,144.22031c-3.36374,0 -6.09059,-2.72685 -6.09059,-6.09059v-6.74337c0,-3.36374 2.72685,-6.09059 6.09059,-6.09059h6.74337c3.36374,0 6.09059,2.72685 6.09059,6.09059v6.74337c0,3.36374 -2.72684,6.09059 -6.09059,6.09059z" fill="none" fill-rule="nonzero" stroke-opacity="0.51373" stroke="#000000" stroke-width="7.5" stroke-linecap="butt" stroke-linejoin="miter"/><path d="M208.04092,168.55186c-3.36374,0 -6.09059,-2.72685 -6.09059,-6.09059v-6.74337c0,-3.36374 2.72685,-6.09059 6.09059,-6.09059h6.74337c3.36374,0 6.09059,2.72685 6.09059,6.09059v6.74337c0,3.36374 -2.72684,6.09059 -6.09059,6.09059z" fill="none" fill-rule="nonzero" stroke-opacity="0.51373" stroke="#000000" stroke-width="7.5" stroke-linecap="butt" stroke-linejoin="miter"/><path d="M208.04092,192.88342c-3.36374,0 -6.09059,-2.72685 -6.09059,-6.09059v-6.74337c0,-3.36374 2.72685,-6.09059 6.09059,-6.09059h6.74337c3.36374,0 6.09059,2.72684 6.09059,6.09059v6.74337c0,3.36374 -2.72684,6.09059 -6.09059,6.09059z" fill="none" fill-rule="nonzero" stroke-opacity="0.51373" stroke="#000000" stroke-width="7.5" stroke-linecap="butt" stroke-linejoin="miter"/><path d="M232.37249,168.55186c-3.36374,0 -6.09059,-2.72685 -6.09059,-6.09059v-6.74337c0,-3.36374 2.72685,-6.09059 6.09059,-6.09059h6.74336c3.36374,0 6.09059,2.72685 6.09059,6.09059v6.74337c0,3.36374 -2.72685,6.09059 -6.09059,6.09059z" fill="none" fill-rule="nonzero" stroke-opacity="0.51373" stroke="#000000" stroke-width="7.5" stroke-linecap="butt" stroke-linejoin="miter"/><path d="M113.16526,237.43887c0,0.39592 -1.17328,0.59388 -3.51982,0.59388c-2.37551,0 -3.56328,-0.1859 -3.56328,-0.55767v-24.17522c0,-0.86426 0.45627,-1.29639 1.36882,-1.29639h7.0831c6.5037,0 9.75555,2.53484 9.75555,7.60454c0,1.53056 -0.29694,2.92111 -0.89082,4.17164c-0.59389,1.2457 -1.434,2.24032 -2.52036,2.98388l4.67135,7.78561c-0.19796,0.59388 -0.84012,1.27467 -1.92648,2.04237c-1.48227,1.06222 -2.70625,1.59333 -3.67191,1.59333c-0.96566,0 -1.68266,-0.34763 -2.15099,-1.04291l-3.48361,-8.11876h-1.15154v8.4157zM113.16526,218.5651v5.56218h0.1883c2.34654,0 3.51982,-0.97531 3.51982,-2.92593c0,-0.89323 -0.22934,-1.55471 -0.68804,-1.98443c-0.45868,-0.43455 -1.20707,-0.65182 -2.24515,-0.65182zM135.78187,238.32969c-2.44794,0 -4.51203,-0.83287 -6.19227,-2.49864c-1.68024,-1.67059 -2.52036,-3.98334 -2.52036,-6.93825c0,-2.95491 0.80873,-5.33283 2.42621,-7.13379c1.62231,-1.80578 3.6695,-2.70866 6.14158,-2.70866c2.47208,0 4.38166,0.63008 5.72876,1.89026c1.34709,1.26018 2.02063,2.79317 2.02063,4.59895c0,4.00265 -2.29826,6.00397 -6.89479,6.00397h-2.56382c0,0.74355 0.2028,1.25776 0.60836,1.54263c0.4104,0.28487 1.01152,0.42731 1.80336,0.42731c1.73336,0 5.06728,-1.0405 5.26524,-0.67355c0.59388,1.06706 0.89082,1.96511 0.89082,2.69419c0,0.72908 -0.23417,1.20465 -0.70251,1.42676c0,0 -3.56327,1.36883 -6.01121,1.36883zM137.15794,226.24208c0,-1.03809 -0.50697,-1.55713 -1.52091,-1.55713c-0.46835,0 -0.87151,0.14243 -1.20949,0.4273c-0.33316,0.28487 -0.49974,0.69769 -0.49974,1.23846v1.15155h2.00616c0.81598,0 1.22397,-0.42006 1.22397,-1.26018zM153.54261,237.7358c0,0.17382 -0.8884,0.26073 -2.66521,0.26073c-2.47208,-0.07243 -3.70812,-0.20762 -3.70812,-0.40557v-12.01519h-0.96324c-0.64215,0 -1.06222,-0.54318 -1.26018,-1.62955c-0.05311,-0.32349 -0.07967,-0.64457 -0.07967,-0.96324c0,-0.7677 0.14968,-1.53539 0.44903,-2.3031c0.4442,-1.08636 1.13465,-1.62955 2.07134,-1.62955c0.94151,0 1.78164,0.2221 2.52036,0.6663c0.74355,0.4442 1.24086,0.8884 1.49194,1.3326c1.55471,-1.33261 3.40635,-1.9989 5.55494,-1.9989c2.15341,0 3.71054,0.58181 4.67136,1.74543c0.96566,1.15878 1.44848,3.06114 1.44848,5.70703v11.12436c0,0.29452 -1.05739,0.44178 -3.17219,0.44178c-2.10996,0 -3.16494,-0.14727 -3.16494,-0.44178v-10.71879c0,-1.23604 -0.43213,-1.85407 -1.2964,-1.85407c-0.25108,0 -0.59871,0.10622 -1.04291,0.31867c-0.4442,0.20762 -0.72907,0.36213 -0.85461,0.46352zM175.61113,212.22799c0,-0.37177 0.97531,-0.55767 2.92594,-0.55767c0.6663,0 1.43883,0.04346 2.31758,0.13037c0.87875,0.0869 1.31813,0.20279 1.31813,0.34763v19.54731h1.29639c0.61803,0 1.02601,0.55525 1.22397,1.66575c0.04828,0.32349 0.07243,0.76287 0.07243,1.31812c0,0.55525 -0.1714,1.22879 -0.51421,2.02063c-0.49731,1.08636 -1.28915,1.62955 -2.37551,1.62955c-0.81598,0 -1.54023,-0.15933 -2.17274,-0.478c-0.62768,-0.32349 -1.05257,-0.65906 -1.27467,-1.0067l-0.33316,-0.478c-1.36158,1.30846 -3.06837,1.96269 -5.12039,1.96269c-2.05202,0 -3.80709,-0.8522 -5.26525,-2.55658c-1.45814,-1.70439 -2.18721,-4.08232 -2.18721,-7.13379c0,-3.0563 0.76529,-5.41733 2.29585,-7.08309c1.53539,-1.67059 3.45222,-2.50588 5.75049,-2.50588c0.6663,0 1.34708,0.07484 2.04236,0.22452zM174.38716,224.9819c-1.38572,0 -2.07858,1.24811 -2.07858,3.74434c0,1.26018 0.19797,2.17031 0.59389,2.73039c0.39592,0.55525 0.8353,0.83287 1.31812,0.83287c0.48282,0 0.94634,-0.21003 1.39054,-0.63008v-6.30816c-0.42006,-0.24624 -0.82805,-0.36936 -1.22397,-0.36936zM195.18595,238.32969c-2.44794,0 -4.51203,-0.83287 -6.19227,-2.49864c-1.68024,-1.67059 -2.52036,-3.98334 -2.52036,-6.93825c0,-2.95491 0.80873,-5.33283 2.42621,-7.13379c1.62231,-1.80578 3.6695,-2.70866 6.14158,-2.70866c2.47208,0 4.38166,0.63008 5.72876,1.89026c1.34709,1.26018 2.02063,2.79317 2.02063,4.59895c0,4.00265 -2.29826,6.00397 -6.89479,6.00397h-2.56382c0,0.74355 0.2028,1.25776 0.60836,1.54263c0.4104,0.28487 1.01152,0.42731 1.80336,0.42731c1.73336,0 5.06728,-1.0405 5.26524,-0.67355c0.59388,1.06706 0.89082,1.96511 0.89082,2.69419c0,0.72908 -0.23417,1.20465 -0.70251,1.42676c0,0 -3.56327,1.36883 -6.01121,1.36883zM196.56201,226.24208c0,-1.03809 -0.50696,-1.55713 -1.52091,-1.55713c-0.46835,0 -0.87151,0.14243 -1.20949,0.4273c-0.33316,0.28487 -0.49974,0.69769 -0.49974,1.23846v1.15155h2.00616c0.81598,0 1.22397,-0.42006 1.22397,-1.26018zM213.32328,237.92412c0,0.17382 -1.12499,0.26072 -3.37497,0.26072c-2.24999,-0.05311 -3.37496,-0.15208 -3.37496,-0.29694v-12.31213h-0.99946c-0.39592,0 -0.71218,-0.24141 -0.94876,-0.72425c-0.23658,-0.48282 -0.35488,-1.08154 -0.35488,-1.79612c0,-2.67004 0.79184,-4.00506 2.37552,-4.00506c1.11051,0 2.03754,0.34038 2.78109,1.02117c0.74355,0.67596 1.11533,1.44848 1.11533,2.31758c0.51663,-1.01394 1.21431,-1.82268 2.09306,-2.42621c0.87875,-0.60836 1.77439,-0.91255 2.68694,-0.91255c1.43401,0 2.30068,0.36937 2.60003,1.10809c0.07243,0.19796 0.10864,0.49007 0.10864,0.87633c0,0.38144 -0.1183,1.06706 -0.35488,2.05684c-0.23176,0.9898 -0.47317,1.70679 -0.72425,2.151c-0.24624,0.4442 -0.3935,0.6663 -0.44178,0.6663c-0.04828,0 -0.27763,-0.09173 -0.68804,-0.2752c-0.40557,-0.1883 -0.77011,-0.28245 -1.0936,-0.28245c-0.93669,0 -1.40503,0.74114 -1.40503,2.22342zM227.89153,238.32969c-2.44794,0 -4.51202,-0.83287 -6.19227,-2.49864c-1.68024,-1.67059 -2.52037,-3.98334 -2.52037,-6.93825c0,-2.95491 0.80874,-5.33283 2.42622,-7.13379c1.62231,-1.80578 3.6695,-2.70866 6.14158,-2.70866c2.47208,0 4.38166,0.63008 5.72876,1.89026c1.34709,1.26018 2.02064,2.79317 2.02064,4.59895c0,4.00265 -2.29826,6.00397 -6.89479,6.00397h-2.56382c0,0.74355 0.2028,1.25776 0.60836,1.54263c0.4104,0.28487 1.01152,0.42731 1.80336,0.42731c1.73336,0 5.06728,-1.0405 5.26525,-0.67355c0.59388,1.06706 0.89082,1.96511 0.89082,2.69419c0,0.72908 -0.23417,1.20465 -0.70251,1.42676c0,0 -3.56329,1.36883 -6.01123,1.36883zM229.2676,226.24208c0,-1.03809 -0.50697,-1.55713 -1.52091,-1.55713c-0.46835,0 -0.87151,0.14243 -1.20949,0.4273c-0.33316,0.28487 -0.49973,0.69769 -0.49973,1.23846v1.15155h2.00616c0.81598,0 1.22397,-0.42006 1.22397,-1.26018zM246.02888,237.92412c0,0.17382 -1.12499,0.26072 -3.37497,0.26072c-2.24999,-0.05311 -3.37496,-0.15208 -3.37496,-0.29694v-12.31213h-0.99946c-0.39592,0 -0.71218,-0.24141 -0.94876,-0.72425c-0.23658,-0.48282 -0.35488,-1.08154 -0.35488,-1.79612c0,-2.67004 0.79183,-4.00506 2.37551,-4.00506c1.11051,0 2.03755,0.34038 2.7811,1.02117c0.74355,0.67596 1.11533,1.44848 1.11533,2.31758c0.51663,-1.01394 1.21431,-1.82268 2.09306,-2.42621c0.87875,-0.60836 1.77439,-0.91255 2.68694,-0.91255c1.43401,0 2.30068,0.36937 2.60003,1.10809c0.07243,0.19796 0.10864,0.49007 0.10864,0.87633c0,0.38144 -0.1183,1.06706 -0.35488,2.05684c-0.23176,0.9898 -0.47318,1.70679 -0.72425,2.151c-0.24624,0.4442 -0.3935,0.6663 -0.44178,0.6663c-0.04828,0 -0.27763,-0.09173 -0.68803,-0.2752c-0.40557,-0.1883 -0.77011,-0.28245 -1.0936,-0.28245c-0.93669,0 -1.40503,0.74114 -1.40503,2.22342zM275.11502,212.43077c1.37123,0.50697 2.05685,1.19258 2.05685,2.05684c0,0.86426 -0.32832,1.93373 -0.98497,3.2084c-0.65182,1.27467 -1.19983,1.91201 -1.64403,1.91201c-0.12554,0 -0.26797,-0.06761 -0.4273,-0.2028c-0.15934,-0.14002 -0.53111,-0.28969 -1.11533,-0.44902c-0.5794,-0.15933 -1.07913,-0.23901 -1.49919,-0.23901c-1.434,0 -2.59037,0.50697 -3.46912,1.52091c-0.87391,1.01394 -1.31088,2.56623 -1.31088,4.65688c0,2.08581 0.44903,3.6357 1.34709,4.64964c0.90288,1.01394 2.04719,1.52091 3.43292,1.52091c0.56974,0 1.20707,-0.07967 1.91201,-0.23901c0.70493,-0.16416 1.20465,-0.3935 1.49918,-0.68803c0.04829,-0.05311 0.14726,-0.07968 0.29694,-0.07968c0.14968,0 0.42731,0.28005 0.83288,0.84013c0.41041,0.55525 0.78701,1.28433 1.12982,2.18721c0.34764,0.90288 0.52145,1.60057 0.52145,2.09306c0,0.96566 -0.74114,1.73336 -2.22342,2.3031c-1.48228,0.56491 -3.23737,0.84736 -5.26525,0.84736c-3.26392,0 -5.94603,-1.14914 -8.04634,-3.4474c-2.10031,-2.29826 -3.15045,-5.54287 -3.15045,-9.73382c0,-4.19095 1.08154,-7.48384 3.24461,-9.87867c2.16306,-2.39966 4.86208,-3.59949 8.09703,-3.59949c0,0 3.39428,0.2535 4.76551,0.76047zM281.97588,235.77311c-1.54505,-1.70439 -2.31757,-4.06541 -2.31757,-7.08309c0,-3.01768 0.77252,-5.37871 2.31757,-7.0831c1.54505,-1.70439 3.62846,-2.55657 6.25022,-2.55657c2.62176,0 4.69792,0.85219 6.22848,2.55657c1.53057,1.70439 2.29585,4.06542 2.29585,7.0831c0,3.01768 -0.76528,5.37871 -2.29585,7.08309c-1.53057,1.70439 -3.60672,2.55658 -6.22848,2.55658c-2.62176,0 -4.70517,-0.8522 -6.25022,-2.55658zM288.24058,225.24262c-1.39537,0 -6.49446,0.4035 -6.49446,2.67762c0,2.27412 5.09909,4.14475 6.49446,4.14475c1.4002,0 2.10031,-1.13706 2.10031,-3.41118c0,-2.27412 -0.7001,-3.41118 -2.10031,-3.41118zM307.13288,237.7358c0,0.17382 -0.8884,0.26073 -2.66521,0.26073c-2.47208,-0.07243 -3.70813,-0.20762 -3.70813,-0.40557v-12.01519h-0.96324c-0.64215,0 -1.06221,-0.54318 -1.26018,-1.62955c-0.05311,-0.32349 -0.07968,-0.64457 -0.07968,-0.96324c0,-0.7677 0.14968,-1.53539 0.44903,-2.3031c0.44421,-1.08636 1.13464,-1.62955 2.07133,-1.62955c0.94151,0 1.78164,0.2221 2.52036,0.6663c0.74355,0.4442 1.24087,0.8884 1.49195,1.3326c1.55471,-1.33261 3.40635,-1.9989 5.55494,-1.9989c2.15342,0 3.71055,0.58181 4.67137,1.74543c0.96566,1.15878 1.44848,3.06114 1.44848,5.70703v11.12436c0,0.29452 -1.05739,0.44178 -3.17219,0.44178c-2.10996,0 -3.16494,-0.14727 -3.16494,-0.44178v-10.71879c0,-1.23604 -0.43213,-1.85407 -1.2964,-1.85407c-0.25107,0 -0.59871,0.10622 -1.04292,0.31867c-0.44421,0.20762 -0.72907,0.36213 -0.85461,0.46352zM328.3468,237.7358c0,0.29935 -1.03809,0.44903 -3.11425,0.44903c-2.47208,-0.1014 -3.70812,-0.26314 -3.70812,-0.48524v-13.12328h-1.89027c-0.49732,0 -0.74597,-0.85461 -0.74597,-2.56382c0,-0.4442 0.04346,-0.98738 0.13037,-1.62955c0.08691,-0.64215 0.26798,-0.96325 0.54318,-0.96325h1.96269v-3.26634c0,-0.49249 1.04291,-0.73873 3.12872,-0.73873c2.09065,0 3.13598,0.19796 3.13598,0.59388v2.37552l0.03622,1.03566h3.15769c0.42006,0 0.63008,0.86667 0.63008,2.60003c0,1.72853 -0.21003,2.59279 -0.63008,2.59279h-2.63624zM341.58709,237.92412c0,0.17382 -1.12499,0.26072 -3.37497,0.26072c-2.24996,-0.05311 -3.37494,-0.15208 -3.37494,-0.29694v-12.31213h-0.99946c-0.39592,0 -0.71218,-0.24141 -0.94876,-0.72425c-0.23659,-0.48282 -0.35487,-1.08154 -0.35487,-1.79612c0,-2.67004 0.79183,-4.00506 2.37551,-4.00506c1.1105,0 2.03753,0.34038 2.78107,1.02117c0.74355,0.67596 1.11533,1.44848 1.11533,2.31758c0.51663,-1.01394 1.21431,-1.82268 2.09306,-2.42621c0.87875,-0.60836 1.77439,-0.91255 2.68694,-0.91255c1.434,0 2.30068,0.36937 2.60003,1.10809c0.07243,0.19796 0.10864,0.49007 0.10864,0.87633c0,0.38144 -0.1183,1.06706 -0.35488,2.05684c-0.23176,0.9898 -0.47317,1.70679 -0.72425,2.151c-0.24624,0.4442 -0.3935,0.6663 -0.44178,0.6663c-0.04829,0 -0.27762,-0.09173 -0.68803,-0.2752c-0.40557,-0.1883 -0.77012,-0.28245 -1.09361,-0.28245c-0.93669,0 -1.40503,0.74114 -1.40503,2.22342zM349.7603,235.77311c-1.54505,-1.70439 -2.31758,-4.06541 -2.31758,-7.08309c0,-3.01768 0.77252,-5.37871 2.31758,-7.0831c1.54505,-1.70439 3.62846,-2.55657 6.25021,-2.55657c2.62176,0 4.69792,0.85219 6.22849,2.55657c1.53057,1.70439 2.29585,4.06542 2.29585,7.0831c0,3.01768 -0.76529,5.37871 -2.29585,7.08309c-1.53057,1.70439 -3.60672,2.55658 -6.22849,2.55658c-2.62176,0 -4.70516,-0.8522 -6.25021,-2.55658zM356.025,225.24262c-1.39537,0 -6.00542,0.15898 -6.00542,2.43309c0,2.27412 4.61005,4.38927 6.00542,4.38927c1.4002,0 2.10031,-1.13706 2.10031,-3.41118c0,-2.27412 -0.7001,-3.41118 -2.10031,-3.41118zM373.91784,237.66339c0,0.2221 -1.26018,0.33315 -3.78054,0.33315c-1.9796,-0.02415 -2.9694,-0.12312 -2.9694,-0.29694v-25.25435c0,-0.36695 1.19983,-0.55043 3.59949,-0.55043c2.10031,0.07243 3.15045,0.19555 3.15045,0.36937z" fill="none" fill-rule="nonzero" stroke-opacity="0.52549" stroke="#000000" stroke-width="7.5" stroke-linecap="square" stroke-linejoin="miter"/><path d="M113.16526,237.43887c0,0.39592 -1.17328,0.59388 -3.51982,0.59388c-2.37551,0 -3.56328,-0.1859 -3.56328,-0.55767v-24.17522c0,-0.86426 0.45627,-1.29639 1.36882,-1.29639h7.0831c6.5037,0 9.75555,2.53484 9.75555,7.60454c0,1.53056 -0.29694,2.92111 -0.89082,4.17164c-0.59389,1.2457 -1.434,2.24032 -2.52036,2.98388l4.67135,7.78561c-0.19796,0.59388 -0.84012,1.27467 -1.92648,2.04237c-1.48227,1.06222 -2.70625,1.59333 -3.67191,1.59333c-0.96566,0 -1.68266,-0.34763 -2.15099,-1.04291l-3.48361,-8.11876h-1.15154v8.4157zM113.16526,218.5651v5.56218h0.1883c2.34654,0 3.51982,-0.97531 3.51982,-2.92593c0,-0.89323 -0.22934,-1.55471 -0.68804,-1.98443c-0.45868,-0.43455 -1.20707,-0.65182 -2.24515,-0.65182zM141.79309,236.96087c-1.55953,0.91255 -3.56328,1.36882 -6.01122,1.36882c-2.44794,0 -4.51203,-0.83287 -6.19227,-2.49864c-1.68024,-1.67059 -2.52036,-3.98334 -2.52036,-6.93825c0,-2.95491 0.80873,-5.33283 2.42621,-7.13379c1.62231,-1.80578 3.6695,-2.70866 6.14158,-2.70866c2.47208,0 4.38166,0.63008 5.72876,1.89026c1.34709,1.26018 2.02063,2.79317 2.02063,4.59895c0,4.00265 -2.29826,6.00397 -6.89479,6.00397h-2.56382c0,0.74355 0.2028,1.25776 0.60836,1.54263c0.4104,0.28487 1.01152,0.42731 1.80336,0.42731c1.73336,0 3.37739,-0.39592 4.93209,-1.18776c0.02415,-0.02415 0.13519,0.14726 0.33315,0.51421c0.59388,1.06706 0.89082,1.96511 0.89082,2.69419c0,0.72908 -0.23417,1.20465 -0.70251,1.42676zM137.15794,226.24208c0,-1.03809 -0.50697,-1.55713 -1.52091,-1.55713c-0.46835,0 -0.87151,0.14243 -1.20949,0.4273c-0.33316,0.28487 -0.49974,0.69769 -0.49974,1.23846v1.15155h2.00616c0.81598,0 1.22397,-0.42006 1.22397,-1.26018zM153.54261,237.7358c0,0.17382 -0.8884,0.26073 -2.66521,0.26073c-2.47208,-0.07243 -3.70812,-0.20762 -3.70812,-0.40557v-12.01519h-0.96324c-0.64215,0 -1.06222,-0.54318 -1.26018,-1.62955c-0.05311,-0.32349 -0.07967,-0.64457 -0.07967,-0.96324c0,-0.7677 0.14968,-1.53539 0.44903,-2.3031c0.4442,-1.08636 1.13465,-1.62955 2.07134,-1.62955c0.94151,0 1.78164,0.2221 2.52036,0.6663c0.74355,0.4442 1.24086,0.8884 1.49194,1.3326c1.55471,-1.33261 3.40635,-1.9989 5.55494,-1.9989c2.15341,0 3.71054,0.58181 4.67136,1.74543c0.96566,1.15878 1.44848,3.06114 1.44848,5.70703v11.12436c0,0.29452 -1.05739,0.44178 -3.17219,0.44178c-2.10996,0 -3.16494,-0.14727 -3.16494,-0.44178v-10.71879c0,-1.23604 -0.43213,-1.85407 -1.2964,-1.85407c-0.25108,0 -0.59871,0.10622 -1.04291,0.31867c-0.4442,0.20762 -0.72907,0.36213 -0.85461,0.46352zM175.61113,212.22799c0,-0.37177 0.97531,-0.55767 2.92594,-0.55767c0.6663,0 1.43883,0.04346 2.31758,0.13037c0.87875,0.0869 1.31813,0.20279 1.31813,0.34763v19.54731h1.29639c0.61803,0 1.02601,0.55525 1.22397,1.66575c0.04828,0.32349 0.07243,0.76287 0.07243,1.31812c0,0.55525 -0.1714,1.22879 -0.51421,2.02063c-0.49731,1.08636 -1.28915,1.62955 -2.37551,1.62955c-0.81598,0 -1.54023,-0.15933 -2.17274,-0.478c-0.62768,-0.32349 -1.05257,-0.65906 -1.27467,-1.0067l-0.33316,-0.478c-1.36158,1.30846 -3.06837,1.96269 -5.12039,1.96269c-2.05202,0 -3.80709,-0.8522 -5.26525,-2.55658c-1.45814,-1.70439 -2.18721,-4.08232 -2.18721,-7.13379c0,-3.0563 0.76529,-5.41733 2.29585,-7.08309c1.53539,-1.67059 3.45222,-2.50588 5.75049,-2.50588c0.6663,0 1.34708,0.07484 2.04236,0.22452zM174.38716,224.9819c-1.38572,0 -2.07858,1.24811 -2.07858,3.74434c0,1.26018 0.19797,2.17031 0.59389,2.73039c0.39592,0.55525 0.8353,0.83287 1.31812,0.83287c0.48282,0 0.94634,-0.21003 1.39054,-0.63008v-6.30816c-0.42006,-0.24624 -0.82805,-0.36936 -1.22397,-0.36936zM201.19715,236.96087c-1.55953,0.91255 -3.56327,1.36882 -6.01121,1.36882c-2.44794,0 -4.51203,-0.83287 -6.19227,-2.49864c-1.68024,-1.67059 -2.52036,-3.98334 -2.52036,-6.93825c0,-2.95491 0.80873,-5.33283 2.42621,-7.13379c1.62231,-1.80578 3.6695,-2.70866 6.14158,-2.70866c2.47208,0 4.38166,0.63008 5.72876,1.89026c1.34709,1.26018 2.02063,2.79317 2.02063,4.59895c0,4.00265 -2.29826,6.00397 -6.89479,6.00397h-2.56382c0,0.74355 0.2028,1.25776 0.60836,1.54263c0.4104,0.28487 1.01152,0.42731 1.80336,0.42731c1.73336,0 3.37739,-0.39592 4.93209,-1.18776c0.02415,-0.02415 0.13519,0.14726 0.33315,0.51421c0.59388,1.06706 0.89082,1.96511 0.89082,2.69419c0,0.72908 -0.23417,1.20465 -0.70251,1.42676zM196.56201,226.24208c0,-1.03809 -0.50696,-1.55713 -1.52091,-1.55713c-0.46835,0 -0.87151,0.14243 -1.20949,0.4273c-0.33316,0.28487 -0.49974,0.69769 -0.49974,1.23846v1.15155h2.00616c0.81598,0 1.22397,-0.42006 1.22397,-1.26018zM213.32328,237.92412c0,0.17382 -1.12499,0.26072 -3.37497,0.26072c-2.24999,-0.05311 -3.37496,-0.15208 -3.37496,-0.29694v-12.31213h-0.99946c-0.39592,0 -0.71218,-0.24141 -0.94876,-0.72425c-0.23658,-0.48282 -0.35488,-1.08154 -0.35488,-1.79612c0,-2.67004 0.79184,-4.00506 2.37552,-4.00506c1.11051,0 2.03754,0.34038 2.78109,1.02117c0.74355,0.67596 1.11533,1.44848 1.11533,2.31758c0.51663,-1.01394 1.21431,-1.82268 2.09306,-2.42621c0.87875,-0.60836 1.77439,-0.91255 2.68694,-0.91255c1.43401,0 2.30068,0.36937 2.60003,1.10809c0.07243,0.19796 0.10864,0.49007 0.10864,0.87633c0,0.38144 -0.1183,1.06706 -0.35488,2.05684c-0.23176,0.9898 -0.47317,1.70679 -0.72425,2.151c-0.24624,0.4442 -0.3935,0.6663 -0.44178,0.6663c-0.04828,0 -0.27763,-0.09173 -0.68804,-0.2752c-0.40557,-0.1883 -0.77011,-0.28245 -1.0936,-0.28245c-0.93669,0 -1.40503,0.74114 -1.40503,2.22342zM233.90275,236.96087c-1.55953,0.91255 -3.56328,1.36882 -6.01122,1.36882c-2.44794,0 -4.51202,-0.83287 -6.19227,-2.49864c-1.68024,-1.67059 -2.52037,-3.98334 -2.52037,-6.93825c0,-2.95491 0.80874,-5.33283 2.42622,-7.13379c1.62231,-1.80578 3.6695,-2.70866 6.14158,-2.70866c2.47208,0 4.38166,0.63008 5.72876,1.89026c1.34709,1.26018 2.02064,2.79317 2.02064,4.59895c0,4.00265 -2.29826,6.00397 -6.89479,6.00397h-2.56382c0,0.74355 0.2028,1.25776 0.60836,1.54263c0.4104,0.28487 1.01152,0.42731 1.80336,0.42731c1.73336,0 3.37738,-0.39592 4.93209,-1.18776c0.02415,-0.02415 0.13519,0.14726 0.33316,0.51421c0.59388,1.06706 0.89082,1.96511 0.89082,2.69419c0,0.72908 -0.23417,1.20465 -0.70251,1.42676zM229.2676,226.24208c0,-1.03809 -0.50697,-1.55713 -1.52091,-1.55713c-0.46835,0 -0.87151,0.14243 -1.20949,0.4273c-0.33316,0.28487 -0.49973,0.69769 -0.49973,1.23846v1.15155h2.00616c0.81598,0 1.22397,-0.42006 1.22397,-1.26018zM246.02888,237.92412c0,0.17382 -1.12499,0.26072 -3.37497,0.26072c-2.24999,-0.05311 -3.37496,-0.15208 -3.37496,-0.29694v-12.31213h-0.99946c-0.39592,0 -0.71218,-0.24141 -0.94876,-0.72425c-0.23658,-0.48282 -0.35488,-1.08154 -0.35488,-1.79612c0,-2.67004 0.79183,-4.00506 2.37551,-4.00506c1.11051,0 2.03755,0.34038 2.7811,1.02117c0.74355,0.67596 1.11533,1.44848 1.11533,2.31758c0.51663,-1.01394 1.21431,-1.82268 2.09306,-2.42621c0.87875,-0.60836 1.77439,-0.91255 2.68694,-0.91255c1.43401,0 2.30068,0.36937 2.60003,1.10809c0.07243,0.19796 0.10864,0.49007 0.10864,0.87633c0,0.38144 -0.1183,1.06706 -0.35488,2.05684c-0.23176,0.9898 -0.47318,1.70679 -0.72425,2.151c-0.24624,0.4442 -0.3935,0.6663 -0.44178,0.6663c-0.04828,0 -0.27763,-0.09173 -0.68803,-0.2752c-0.40557,-0.1883 -0.77011,-0.28245 -1.0936,-0.28245c-0.93669,0 -1.40503,0.74114 -1.40503,2.22342zM270.34951,211.67032c1.80578,0 3.39428,0.25348 4.76551,0.76045c1.37123,0.50697 2.05685,1.19258 2.05685,2.05684c0,0.86426 -0.32832,1.93373 -0.98497,3.2084c-0.65182,1.27467 -1.19983,1.91201 -1.64403,1.91201c-0.12554,0 -0.26797,-0.06761 -0.4273,-0.2028c-0.15934,-0.14002 -0.53111,-0.28969 -1.11533,-0.44902c-0.5794,-0.15933 -1.07913,-0.23901 -1.49919,-0.23901c-1.434,0 -2.59037,0.50697 -3.46912,1.52091c-0.87391,1.01394 -1.31088,2.56623 -1.31088,4.65688c0,2.08581 0.44903,3.6357 1.34709,4.64964c0.90288,1.01394 2.04719,1.52091 3.43292,1.52091c0.56974,0 1.20707,-0.07967 1.91201,-0.23901c0.70493,-0.16416 1.20465,-0.3935 1.49918,-0.68803c0.04829,-0.05311 0.14726,-0.07968 0.29694,-0.07968c0.14968,0 0.42731,0.28005 0.83288,0.84013c0.41041,0.55525 0.78701,1.28433 1.12982,2.18721c0.34764,0.90288 0.52145,1.60057 0.52145,2.09306c0,0.96566 -0.74114,1.73336 -2.22342,2.3031c-1.48228,0.56491 -3.23737,0.84736 -5.26525,0.84736c-3.26392,0 -5.94603,-1.14914 -8.04634,-3.4474c-2.10031,-2.29826 -3.15045,-5.54287 -3.15045,-9.73382c0,-4.19095 1.08154,-7.48384 3.24461,-9.87867c2.16306,-2.39966 4.86208,-3.59949 8.09703,-3.59949zM281.97588,235.77311c-1.54505,-1.70439 -2.31757,-4.06541 -2.31757,-7.08309c0,-3.01768 0.77252,-5.37871 2.31757,-7.0831c1.54505,-1.70439 3.62846,-2.55657 6.25022,-2.55657c2.62176,0 4.69792,0.85219 6.22848,2.55657c1.53057,1.70439 2.29585,4.06542 2.29585,7.0831c0,3.01768 -0.76528,5.37871 -2.29585,7.08309c-1.53057,1.70439 -3.60672,2.55658 -6.22848,2.55658c-2.62176,0 -4.70517,-0.8522 -6.25022,-2.55658zM288.24058,225.24262c-1.39537,0 -2.09306,1.13707 -2.09306,3.41118c0,2.27412 0.69769,3.41118 2.09306,3.41118c1.4002,0 2.10031,-1.13706 2.10031,-3.41118c0,-2.27412 -0.7001,-3.41118 -2.10031,-3.41118zM307.13288,237.7358c0,0.17382 -0.8884,0.26073 -2.66521,0.26073c-2.47208,-0.07243 -3.70813,-0.20762 -3.70813,-0.40557v-12.01519h-0.96324c-0.64215,0 -1.06221,-0.54318 -1.26018,-1.62955c-0.05311,-0.32349 -0.07968,-0.64457 -0.07968,-0.96324c0,-0.7677 0.14968,-1.53539 0.44903,-2.3031c0.44421,-1.08636 1.13464,-1.62955 2.07133,-1.62955c0.94151,0 1.78164,0.2221 2.52036,0.6663c0.74355,0.4442 1.24087,0.8884 1.49195,1.3326c1.55471,-1.33261 3.40635,-1.9989 5.55494,-1.9989c2.15342,0 3.71055,0.58181 4.67137,1.74543c0.96566,1.15878 1.44848,3.06114 1.44848,5.70703v11.12436c0,0.29452 -1.05739,0.44178 -3.17219,0.44178c-2.10996,0 -3.16494,-0.14727 -3.16494,-0.44178v-10.71879c0,-1.23604 -0.43213,-1.85407 -1.2964,-1.85407c-0.25107,0 -0.59871,0.10622 -1.04292,0.31867c-0.44421,0.20762 -0.72907,0.36213 -0.85461,0.46352zM328.3468,237.7358c0,0.29935 -1.03809,0.44903 -3.11425,0.44903c-2.47208,-0.1014 -3.70812,-0.26314 -3.70812,-0.48524v-13.12328h-1.89027c-0.49732,0 -0.74597,-0.85461 -0.74597,-2.56382c0,-0.4442 0.04346,-0.98738 0.13037,-1.62955c0.08691,-0.64215 0.26798,-0.96325 0.54318,-0.96325h1.96269v-3.26634c0,-0.49249 1.04291,-0.73873 3.12872,-0.73873c2.09065,0 3.13598,0.19796 3.13598,0.59388v2.37552l0.03622,1.03566h3.15769c0.42006,0 0.63008,0.86667 0.63008,2.60003c0,1.72853 -0.21003,2.59279 -0.63008,2.59279h-2.63624zM341.58709,237.92412c0,0.17382 -1.12499,0.26072 -3.37497,0.26072c-2.24996,-0.05311 -3.37494,-0.15208 -3.37494,-0.29694v-12.31213h-0.99946c-0.39592,0 -0.71218,-0.24141 -0.94876,-0.72425c-0.23659,-0.48282 -0.35487,-1.08154 -0.35487,-1.79612c0,-2.67004 0.79183,-4.00506 2.37551,-4.00506c1.1105,0 2.03753,0.34038 2.78107,1.02117c0.74355,0.67596 1.11533,1.44848 1.11533,2.31758c0.51663,-1.01394 1.21431,-1.82268 2.09306,-2.42621c0.87875,-0.60836 1.77439,-0.91255 2.68694,-0.91255c1.434,0 2.30068,0.36937 2.60003,1.10809c0.07243,0.19796 0.10864,0.49007 0.10864,0.87633c0,0.38144 -0.1183,1.06706 -0.35488,2.05684c-0.23176,0.9898 -0.47317,1.70679 -0.72425,2.151c-0.24624,0.4442 -0.3935,0.6663 -0.44178,0.6663c-0.04829,0 -0.27762,-0.09173 -0.68803,-0.2752c-0.40557,-0.1883 -0.77012,-0.28245 -1.09361,-0.28245c-0.93669,0 -1.40503,0.74114 -1.40503,2.22342zM349.7603,235.77311c-1.54505,-1.70439 -2.31758,-4.06541 -2.31758,-7.08309c0,-3.01768 0.77252,-5.37871 2.31758,-7.0831c1.54505,-1.70439 3.62846,-2.55657 6.25021,-2.55657c2.62176,0 4.69792,0.85219 6.22849,2.55657c1.53057,1.70439 2.29585,4.06542 2.29585,7.0831c0,3.01768 -0.76529,5.37871 -2.29585,7.08309c-1.53057,1.70439 -3.60672,2.55658 -6.22849,2.55658c-2.62176,0 -4.70516,-0.8522 -6.25021,-2.55658zM356.025,225.24262c-1.39537,0 -2.09306,1.13707 -2.09306,3.41118c0,2.27412 0.69769,3.41118 2.09306,3.41118c1.4002,0 2.10031,-1.13706 2.10031,-3.41118c0,-2.27412 -0.7001,-3.41118 -2.10031,-3.41118zM373.91784,237.66339c0,0.2221 -1.26018,0.33315 -3.78054,0.33315c-1.9796,-0.02415 -2.9694,-0.12312 -2.9694,-0.29694v-25.25435c0,-0.36695 1.19983,-0.55043 3.59949,-0.55043c2.10031,0.07243 3.15045,0.19555 3.15045,0.36937z" fill="#ffffff" fill-rule="nonzero" stroke="none" stroke-width="1" stroke-linecap="square" stroke-linejoin="miter"/><path d="M239.87966,194.47359l-5.84655,2.44866l2.45279,-5.82866c1.67556,-3.97841 3.99904,-7.4602 6.91957,-10.36972l27.16926,-27.06884c1.16381,-1.15831 3.64549,-0.56402 5.54665,1.33025c1.89841,1.89154 2.49819,4.36496 1.33438,5.52327l-27.16926,27.07021c-2.92052,2.9109 -6.41607,5.2275 -10.40685,6.8948" fill="#ffffff" fill-rule="evenodd" stroke="#ffffff" stroke-width="2" stroke-linecap="round" stroke-linejoin="round"/><path d="M251.02937,165.34539c0,0 3.59873,3.05396 5.98412,-2.12677c5.16147,-11.21162 11.28316,-7.94029 11.28316,-7.94029" fill="none" fill-rule="evenodd" stroke="#ffffff" stroke-width="2" stroke-linecap="round" stroke-linejoin="round"/><path d="M253.21942,164.52274c0,0.68784 -0.55576,1.24497 -1.2436,1.24497c-0.68784,0 -1.24496,-0.55715 -1.24496,-1.24359c0,-0.68784 0.55989,-1.24222 1.24635,-1.24222c0.68784,0 1.24359,0.55576 1.24359,1.24359z" fill="#ffffff" fill-rule="evenodd" stroke="#ffffff" stroke-width="2" stroke-linecap="round" stroke-linejoin="round"/><path d="M256.70405,144.22031c-3.36374,0 -6.09059,-2.72685 -6.09059,-6.09059v-6.74337c0,-3.36374 2.72685,-6.09059 6.09059,-6.09059h6.74336c3.36374,0 6.09059,2.72685 6.09059,6.09059v6.74337c0,3.36374 -2.72685,6.09059 -6.09059,6.09059z" fill="#ffffff" fill-rule="nonzero" stroke="none" stroke-width="0" stroke-linecap="butt" stroke-linejoin="miter"/><path d="M232.37249,144.22031c-3.36374,0 -6.09059,-2.72685 -6.09059,-6.09059v-6.74337c0,-3.36374 2.72685,-6.09059 6.09059,-6.09059h6.74336c3.36374,0 6.09059,2.72685 6.09059,6.09059v6.74337c0,3.36374 -2.72685,6.09059 -6.09059,6.09059z" fill="#ffffff" fill-rule="nonzero" stroke="none" stroke-width="0" stroke-linecap="butt" stroke-linejoin="miter"/><path d="M208.04092,144.22031c-3.36374,0 -6.09059,-2.72685 -6.09059,-6.09059v-6.74337c0,-3.36374 2.72685,-6.09059 6.09059,-6.09059h6.74337c3.36374,0 6.09059,2.72685 6.09059,6.09059v6.74337c0,3.36374 -2.72684,6.09059 -6.09059,6.09059z" fill="#ffffff" fill-rule="nonzero" stroke="none" stroke-width="0" stroke-linecap="butt" stroke-linejoin="miter"/><path d="M208.04092,168.55186c-3.36374,0 -6.09059,-2.72685 -6.09059,-6.09059v-6.74337c0,-3.36374 2.72685,-6.09059 6.09059,-6.09059h6.74337c3.36374,0 6.09059,2.72685 6.09059,6.09059v6.74337c0,3.36374 -2.72684,6.09059 -6.09059,6.09059z" fill="#ffffff" fill-rule="nonzero" stroke="none" stroke-width="0" stroke-linecap="butt" stroke-linejoin="miter"/><path d="M208.04092,192.88342c-3.36374,0 -6.09059,-2.72685 -6.09059,-6.09059v-6.74337c0,-3.36374 2.72685,-6.09059 6.09059,-6.09059h6.74337c3.36374,0 6.09059,2.72684 6.09059,6.09059v6.74337c0,3.36374 -2.72684,6.09059 -6.09059,6.09059z" fill="#ffffff" fill-rule="nonzero" stroke="none" stroke-width="0" stroke-linecap="butt" stroke-linejoin="miter"/><path d="M232.37249,168.55186c-3.36374,0 -6.09059,-2.72685 -6.09059,-6.09059v-6.74337c0,-3.36374 2.72685,-6.09059 6.09059,-6.09059h6.74336c3.36374,0 6.09059,2.72685 6.09059,6.09059v6.74337c0,3.36374 -2.72685,6.09059 -6.09059,6.09059z" fill="#ffffff" fill-rule="nonzero" stroke="none" stroke-width="0" stroke-linecap="butt" stroke-linejoin="miter"/><path d="M90.35135,117.67133c0,-6.39897 5.91545,-12.49566 13.1192,-12.49566c28.93252,0 219.72832,0 272.60996,0c8.61359,0 13.56814,4.64378 13.56814,12.24625c0,30.59212 0,109.0924 0,125.70487c0,6.03964 -4.85913,11.69754 -13.31873,11.69754c-52.46667,0 -243.42599,0 -272.60996,0c-7.3279,0 -13.36861,-4.5235 -13.36861,-11.94695c0,-30.16113 0,-108.19342 0,-125.20604z" fill="none" fill-rule="nonzero" stroke="url(#color-1)" stroke-width="10" stroke-linecap="butt" stroke-linejoin="miter"/></g></g></svg>
