<svg xmlns="http://www.w3.org/2000/svg" width="309.297" height="159.649" viewBox="0 0 309.297 159.649"><defs><linearGradient x1="240" y1="105.176" x2="240" y2="254.824" gradientUnits="userSpaceOnUse" id="a"><stop offset="0" stop-color="#20414d"/><stop offset="1" stop-color="#34687d"/></linearGradient></defs><g stroke-miterlimit="10"><path d="M4.899 154.574V14.524c0-5 4.645-9.45 10.55-9.45h288.95v149.5z" fill="#4a93b0"/><path d="M131.273 63.69a3.584 3.584 0 0 1-3.583 3.583L98.942 38.525a3.584 3.584 0 0 1 3.583-3.583h25.165a3.584 3.584 0 0 1 3.583 3.583zm37.821 38.074a3.584 3.584 0 0 1-3.583 3.584L136.763 76.6a3.584 3.584 0 0 1 3.583-3.583h25.165a3.584 3.584 0 0 1 3.583 3.583zm5.295-25.164a3.584 3.584 0 0 1 3.584-3.583h25.165a3.584 3.584 0 0 1 3.583 3.583l-28.748 28.748a3.584 3.584 0 0 1-3.583-3.583zm-37.626-38.075a3.584 3.584 0 0 1 3.583-3.583l28.748 28.748a3.584 3.584 0 0 1-3.583 3.583h-25.165a3.584 3.584 0 0 1-3.583-3.583zm69.51 25.165a3.584 3.584 0 0 1-3.583 3.583h-25.165a3.584 3.584 0 0 1-3.583-3.583l28.748-28.748a3.584 3.584 0 0 1 3.583 3.583z" fill="#3d7f99"/><path d="M47.742 15.561a4 4 0 0 1 4 4v28.09a4 4 0 0 1-4 4h-28.09a4 4 0 0 1-4-4v-28.09a4 4 0 0 1 4-4zm0 41.667a4 4 0 0 1 4 4l-32.09 32.09a4 4 0 0 1-4-4v-28.09a4 4 0 0 1 4-4zm166.161 32.584c9.965 0 18.044 8.08 18.044 18.045s-8.079 18.045-18.044 18.045-18.045-8.08-18.045-18.045 8.079-18.045 18.045-18.045M89.742 15.561a4 4 0 0 1 4 4l-32.09 32.09a4 4 0 0 1-4-4v-28.09a4 4 0 0 1 4-4zm170.911 127.756a4 4 0 0 1-4-4v-28.089a4 4 0 0 1 4-4h28.089a4 4 0 0 1 4 4v28.09a4 4 0 0 1-4 4zm0-41.666a4 4 0 0 1-4-4l32.089-32.09a4 4 0 0 1 4 4v28.09a4 4 0 0 1-4 4zm-42 41.666a4 4 0 0 1-4-4l32.089-32.089a4 4 0 0 1 4 4v28.09a4 4 0 0 1-4 4zm-6-103.309V24.591c0-.767.399-1.423.875-1.658l15.934-7.882c.773-.383 1.72-.372 2.527.027l15.8 7.816c.514.254.953.865.953 1.53v15.5c0 .674-.433 1.507-1.16 1.867l-15.634 7.733c-.655.324-1.961.268-2.713-.104l-15.5-7.668c-.68-.336-1.082-1.11-1.082-1.744m20.4 31.037V55.629c0-.767.399-1.423.875-1.659l15.934-7.882c.773-.382 1.72-.371 2.527.028l15.8 7.816c.514.254.953.864.953 1.53v15.5c0 .674-.433 1.507-1.16 1.866l-15.634 7.734c-.655.324-1.961.267-2.713-.105l-15.5-7.667c-.68-.337-1.082-1.11-1.082-1.745m21.6-31.037V24.591c0-.767.399-1.423.875-1.658l15.934-7.882c.773-.383 1.72-.372 2.527.027l15.8 7.816c.514.254.953.865.953 1.53v15.5c0 .674-.433 1.507-1.16 1.867l-15.634 7.733c-.655.324-1.961.268-2.713-.104l-15.5-7.668c-.68-.336-1.082-1.11-1.082-1.744M17.734 117.794l15.501-7.669c.752-.371 2.058-.428 2.713-.104l15.634 7.733c.727.36 1.16 1.193 1.16 1.867v15.5c0 .666-.439 1.276-.953 1.53l-15.8 7.816c-.807.399-1.754.41-2.527.028-3.642-1.802-14.196-7.022-15.934-7.883-.476-.235-.875-.891-.875-1.658v-15.417c0-.635.401-1.408 1.081-1.744m20.4-31.037 15.501-7.668c.752-.372 2.058-.429 2.713-.105l15.634 7.734c.727.36 1.16 1.193 1.16 1.866v15.5c0 .666-.439 1.276-.953 1.53l-15.8 7.816c-.807.4-1.754.41-2.527.028l-15.934-7.882c-.476-.235-.875-.892-.875-1.658V88.5c0-.635.401-1.408 1.081-1.744m21.6 31.038 15.501-7.669c.752-.371 2.058-.428 2.713-.104l15.634 7.733c.727.36 1.16 1.193 1.16 1.867v15.5c0 .666-.439 1.276-.953 1.53l-15.8 7.816c-.807.399-1.754.41-2.527.028-3.642-1.802-14.196-7.022-15.934-7.883-.476-.235-.875-.891-.875-1.658v-15.417c0-.635.401-1.408 1.081-1.744m20.4-31.037 15.501-7.668c.752-.372 2.058-.429 2.713-.105l15.634 7.734c.727.36 1.16 1.193 1.16 1.866v15.5c0 .666-.439 1.276-.953 1.53l-15.8 7.816c-.807.4-1.754.41-2.527.028l-15.934-7.882c-.476-.235-.875-.892-.875-1.658V88.5c0-.635.401-1.408 1.081-1.744m20 31 15.501-7.668c.752-.372 2.058-.429 2.713-.105l15.634 7.734c.727.36 1.16 1.193 1.16 1.866v15.5c0 .666-.439 1.276-.953 1.53l-15.8 7.816c-.807.4-1.754.41-2.527.028l-15.934-7.882c-.476-.235-.875-.892-.875-1.658V119.5c0-.635.401-1.408 1.081-1.744m83.475.384c6.814 0 12.338 5.524 12.338 12.339 0 6.814-5.524 12.338-12.338 12.338-6.815 0-12.339-5.524-12.339-12.338 0-6.815 5.524-12.34 12.339-12.34m-26.96-4.499c5.71 0 10.339 4.629 10.339 10.339s-4.63 10.338-10.339 10.338-10.339-4.629-10.339-10.338c0-5.71 4.63-10.34 10.339-10.34m-15.248-17.424a8.587 8.587 0 1 1 0 17.173 8.587 8.587 0 0 1 0-17.173m-23.054-25.75a5.086 5.086 0 1 1 0 10.173 5.086 5.086 0 0 1 0-10.173m-14.196-10.75a7.086 7.086 0 1 1 0 14.173 7.086 7.086 0 0 1 0-14.173m-19.75-5.011a8.587 8.587 0 1 1 0 17.174 8.587 8.587 0 0 1 0-17.173m53.557 25.747a6.545 6.545 0 1 1 0 13.09 6.545 6.545 0 0 1 0-13.09" fill="#3d7f99"/><path d="M90.351 117.671c0-6.399 5.916-12.495 13.12-12.495h272.61c8.613 0 13.568 4.643 13.568 12.246v125.705c0 6.04-4.86 11.697-13.32 11.697H103.72c-7.328 0-13.369-4.523-13.369-11.947z" fill="none" stroke="url(#a)" stroke-width="10" transform="translate(-85.351 -100.176)"/><path d="M64.259 134.281q0 .633-3.758.634-3.804 0-3.804-.596v-25.807q0-1.383 1.462-1.384h7.56q10.416 0 10.415 8.118 0 2.45-.951 4.453-.95 1.995-2.69 3.186l4.986 8.31q-.317.952-2.056 2.181-2.375 1.701-3.92 1.701-1.546 0-2.296-1.113l-3.72-8.667h-1.228zm0-20.148v5.938h.2q3.758 0 3.758-3.124 0-1.43-.734-2.118-.735-.696-2.397-.696zm22.836 20.465q0 .317-3.626.317-3.618 0-3.618-.279V115.2q0-.27 3.618-.27 3.626 0 3.626.231zm0-21.772q0 .279-3.626.279-3.618 0-3.618-.24v-5.698q0-.394 3.618-.394 3.626 0 3.626.24zm10.846 22.011q-3.835 0-5.938-2.474-2.095-2.474-2.095-7.321 0-4.848 2.752-7.6 2.753-2.752 7.322-2.752 4.577 0 7.545 2.017v19.715q0 2.93-2.38 4.492-2.374 1.562-6.093 1.562-3.72 0-6.65-.951-.4-.95-.401-1.7 0-2.537.835-3.72 2.651 1.145 5.66 1.145 2.18 0 2.18-1.539v-1.19q-1.701.316-2.737.316zm1.824-13.7q-2.652 0-2.652 4.005 0 2.49 1.029 3.24.672.518 1.345.518t1.19-.116v-7.523a3.7 3.7 0 0 0-.912-.124zm18.563 13.46q-.001.318-3.626.318-3.62 0-3.619-.279V115.2q0-.27 3.619-.27 3.626 0 3.626.231zm0-21.77q-.001.278-3.626.278-3.62 0-3.619-.24v-5.698q0-.394 3.619-.394 3.626 0 3.626.24zm13.582-5.46q0-.594 3.123-.594 1.067 0 2.474.139 1.407.14 1.407.37v20.868h1.384q.99 0 1.307 1.778.077.517.077 1.407t-.549 2.157q-.795 1.74-2.536 1.74-1.305 0-2.32-.51-1.005-.519-1.36-1.075l-.356-.51q-2.18 2.094-5.466 2.095-3.285 0-5.62-2.73-2.335-2.728-2.335-7.615 0-4.893 2.45-7.561 2.46-2.675 6.14-2.675 1.065 0 2.18.24zm-1.307 13.616q-2.22 0-2.219 3.997 0 2.018.634 2.915.634.889 1.407.889t1.485-.673v-6.734q-.673-.394-1.307-.394zm13.853-13.739q0-.471 3.425-.471t3.425.51v7.685q1.701-.317 2.412-.317 8.311 0 8.311 9.54 0 5.304-2.551 8.172-2.551 2.87-7.244 2.869t-7.778-2.095zm8.157 13.584q-.673 0-1.307.433v7.561a2.95 2.95 0 0 0 1.16.232q.619 0 1.252-.471 1.106-.79 1.106-3.68 0-4.075-2.211-4.075zm13.95 11.675q-2.474-2.73-2.474-7.562t2.474-7.561 6.672-2.73 6.65 2.73q2.45 2.73 2.45 7.561 0 4.832-2.45 7.562-2.452 2.729-6.65 2.729t-6.672-2.73zm6.688-11.242c-1.49 0-6.624 1.517-6.624 3.944s5.134 3.34 6.624 3.34q2.242 0 2.242-3.642t-2.242-3.642zm21.915-13.893q0-.595 3.123-.595 1.067 0 2.474.139 1.407.14 1.407.37v20.868h1.384q.99 0 1.307 1.778.077.517.077 1.407t-.549 2.157q-.795 1.74-2.536 1.74-1.305 0-2.32-.51-1.005-.519-1.36-1.075l-.356-.51q-2.18 2.094-5.466 2.095-3.286 0-5.62-2.73-2.335-2.728-2.335-7.615 0-4.893 2.45-7.561 2.46-2.675 6.14-2.675 1.065 0 2.18.24zm-1.307 13.615q-2.22 0-2.219 3.997 0 2.018.634 2.915.634.889 1.407.889t1.485-.673v-6.734q-.673-.394-1.307-.394zm20.896 13.615q0 .317-3.626.317-3.618 0-3.618-.279V115.2q0-.27 3.618-.27 3.626 0 3.626.231zm0-21.772q0 .279-3.626.279-3.618 0-3.618-.24v-5.698q0-.394 3.618-.394 3.626 0 3.626.24zm18.53 20.944q-2.496 1.462-6.417 1.462t-6.61-2.668q-2.69-2.675-2.69-7.406 0-4.732 2.59-7.616 2.597-2.89 6.556-2.891t6.115 2.018q2.157 2.017 2.157 4.91 0 6.408-7.36 6.408h-2.737q0 1.191.65 1.647.657.456 1.925.456 2.775 0 5.265-1.268.039-.038.355.55.951 1.708.951 2.875t-.75 1.523zm-4.948-11.442q0-1.662-1.623-1.662-.75 0-1.291.456-.534.456-.534 1.322v1.23h2.142q1.306-.001 1.306-1.346zm10.053 5.381q3.209 1.94 5.065 1.94 1.19 0 1.19-.827 0-.594-2.056-1.546-4.949-2.018-4.948-6.61 0-2.93 2.133-4.469 2.142-1.546 5.126-1.546 2.993 0 5.064.634 2.08.634 2.08 1.662 0 .866-.85 2.296-.851 1.423-1.168 1.539a7.47 7.47 0 0 0-3.68-.943q-1.067 0-1.067.75 0 .471.41.811.417.333 1.523.828 1.114.494 1.84.896.735.395 1.647 1.106 1.902 1.5 1.902 3.92 0 3.162-2.103 5.126-2.096 1.956-6.332 1.956-2.806 0-5.103-.951t-2.296-2.613q0-1.106.533-2.328.535-1.23 1.09-1.63z" fill="none" stroke-opacity=".502" stroke="#000" stroke-width="7.5" stroke-linecap="square" stroke-linejoin="round"/><path d="M64.259 134.281q0 .633-3.758.634-3.804 0-3.804-.596v-25.807q0-1.383 1.462-1.384h7.56q10.416 0 10.415 8.118 0 2.45-.951 4.453-.95 1.995-2.69 3.186l4.986 8.31q-.317.952-2.056 2.181-2.375 1.701-3.92 1.701-1.546 0-2.296-1.113l-3.72-8.667h-1.228zm0-20.148v5.938h.2q3.758 0 3.758-3.124 0-1.43-.734-2.118-.735-.696-2.397-.696zm22.836 20.465q0 .317-3.626.317-3.618 0-3.618-.279V115.2q0-.27 3.618-.27 3.626 0 3.626.231zm0-21.772q0 .279-3.626.279-3.618 0-3.618-.24v-5.698q0-.394 3.618-.394 3.626 0 3.626.24zm10.846 22.011q-3.835 0-5.938-2.474-2.095-2.474-2.095-7.321 0-4.848 2.752-7.6 2.753-2.752 7.322-2.752 4.577 0 7.545 2.017v19.715q0 2.93-2.38 4.492-2.375 1.562-6.093 1.562-3.72 0-6.65-.951-.4-.95-.401-1.7 0-2.537.835-3.72 2.651 1.145 5.66 1.145 2.18 0 2.18-1.539v-1.19q-1.701.316-2.737.316m1.824-13.7q-2.652 0-2.652 4.005 0 2.49 1.029 3.24.672.518 1.345.518t1.19-.116v-7.523a3.7 3.7 0 0 0-.912-.124m18.563 13.46q-.001.318-3.626.318-3.62 0-3.619-.279V115.2q0-.27 3.619-.27 3.626 0 3.626.231zm0-21.77q-.001.278-3.626.278-3.62 0-3.619-.24v-5.698q0-.394 3.619-.394 3.626 0 3.626.24zm13.582-5.46q0-.594 3.123-.594 1.067 0 2.474.139 1.407.14 1.407.37v20.868h1.384q.99 0 1.307 1.778.077.517.077 1.407t-.549 2.157q-.796 1.74-2.536 1.74-1.305 0-2.32-.51-1.005-.519-1.36-1.075l-.356-.51q-2.18 2.094-5.466 2.095-3.285 0-5.62-2.73-2.335-2.728-2.335-7.615 0-4.893 2.45-7.561 2.46-2.675 6.14-2.675 1.065 0 2.18.24zm-1.307 13.616q-2.22 0-2.219 3.997 0 2.018.634 2.915.634.889 1.407.889t1.485-.673v-6.734q-.673-.394-1.307-.394m13.853-13.739q0-.471 3.425-.471t3.425.51v7.685q1.701-.317 2.412-.317 8.311 0 8.311 9.54 0 5.304-2.551 8.172-2.551 2.87-7.244 2.869t-7.778-2.095zm8.157 13.584q-.673 0-1.307.433v7.561a2.95 2.95 0 0 0 1.16.232q.619 0 1.252-.471 1.106-.79 1.106-3.68 0-4.075-2.211-4.075m13.95 11.675q-2.474-2.73-2.474-7.562t2.474-7.561 6.672-2.73 6.65 2.73q2.45 2.73 2.45 7.561 0 4.832-2.45 7.562-2.452 2.729-6.65 2.729t-6.672-2.73m6.688-11.242q-2.235 0-2.235 3.642 0 3.64 2.235 3.641 2.242 0 2.242-3.641t-2.242-3.642m21.915-13.893q0-.595 3.123-.595 1.067 0 2.474.139 1.407.14 1.407.37v20.868h1.384q.99 0 1.307 1.778.077.517.077 1.407t-.549 2.157q-.795 1.74-2.536 1.74-1.305 0-2.32-.51-1.005-.519-1.36-1.075l-.356-.51q-2.18 2.094-5.466 2.095-3.286 0-5.62-2.73-2.335-2.728-2.335-7.615 0-4.893 2.45-7.561 2.46-2.675 6.14-2.675 1.065 0 2.18.24zm-1.307 13.615q-2.22 0-2.219 3.997 0 2.018.634 2.915.634.889 1.407.889t1.485-.673v-6.734q-.673-.394-1.307-.394m20.896 13.615q0 .317-3.626.317-3.618 0-3.618-.279v-19.436q0-.27 3.618-.27 3.626 0 3.626.231zm0-21.772q0 .279-3.626.279-3.618 0-3.618-.24v-5.698q0-.394 3.618-.394 3.626 0 3.626.24zm18.53 20.944q-2.496 1.462-6.417 1.462t-6.61-2.668q-2.69-2.675-2.69-7.406 0-4.732 2.59-7.616 2.597-2.89 6.556-2.891t6.115 2.018q2.157 2.017 2.157 4.91 0 6.408-7.36 6.408h-2.737q0 1.191.65 1.647.657.456 1.925.456 2.775 0 5.265-1.268.038-.038.355.55.951 1.708.951 2.875t-.75 1.523m-4.948-11.442q0-1.662-1.623-1.662-.75 0-1.291.456-.534.456-.534 1.322v1.23h2.142q1.306-.001 1.306-1.346m10.053 5.381q3.209 1.94 5.065 1.94 1.19 0 1.19-.827 0-.594-2.056-1.546-4.949-2.018-4.948-6.61 0-2.93 2.133-4.469 2.142-1.546 5.126-1.546 2.992 0 5.064.634 2.08.634 2.08 1.662 0 .866-.85 2.296-.851 1.423-1.168 1.539a7.47 7.47 0 0 0-3.68-.943q-1.067 0-1.067.75 0 .471.41.811.417.333 1.523.828 1.114.495 1.84.896.735.395 1.647 1.106 1.902 1.5 1.902 3.92 0 3.162-2.103 5.126-2.096 1.956-6.332 1.956-2.806 0-5.103-.951t-2.296-2.613q0-1.106.533-2.328.535-1.23 1.09-1.63" fill="#fff"/><path d="M131.318 89.792a4.9 4.9 0 0 1-4.903-4.902V50.463a4.9 4.9 0 0 1 4.903-4.903l39.329 39.33a4.9 4.9 0 0 1-4.903 4.902zm22.011-43.868c0-9.565 7.754-17.318 17.318-17.318s17.317 7.753 17.317 17.317-7.753 17.317-17.317 17.317-17.318-7.753-17.318-17.317z" fill="none" stroke-opacity=".502" stroke="#000" stroke-width="6" stroke-linejoin="round"/><path d="M131.318 89.792a4.9 4.9 0 0 1-4.903-4.902V50.463a4.903 4.903 0 0 1 4.903-4.903l39.329 39.33a4.9 4.9 0 0 1-4.903 4.902zm22.011-43.868c0-9.565 7.754-17.318 17.318-17.318s17.317 7.753 17.317 17.317-7.753 17.317-17.317 17.317-17.318-7.753-17.318-17.317" fill="#fff"/><path d="m147.87 50.175-6.116-13.249.94 12.059-5.213-22.607 7.683 12.785.905-12.318z" fill="none" stroke-opacity=".502" stroke="#000" stroke-width="6" stroke-linejoin="round"/><path d="m147.87 50.175-6.116-13.249.94 12.059-5.213-22.607 7.683 12.785.905-12.318z" fill="#fff"/><path d="m168.079 74.044 14.048-3.953-12.057-.97 23.146-1.588-13.835 5.574 12.021 2.833z" fill="none" stroke-opacity=".502" stroke="#000" stroke-width="6" stroke-linejoin="round"/><path d="m168.079 74.044 14.048-3.953-12.057-.97 23.146-1.588-13.835 5.574 12.021 2.833z" fill="#fff"/><g fill-rule="evenodd"><path d="M76.281 36.012a5.32 5.32 0 0 0 1.883-4.97l-.69-4.262c-.324-2.016 2.225-3.164 3.517-1.584l2.737 3.339a5.32 5.32 0 0 0 4.967 1.884l4.262-.69c2.016-.324 3.164 2.226 1.586 3.52l-3.34 2.734a5.32 5.32 0 0 0-1.882 4.966l.687 4.263c.327 2.015-2.222 3.163-3.517 1.585l-2.734-3.34a5.32 5.32 0 0 0-4.97-1.88l-4.261.69c-2.015.323-3.164-2.226-1.586-3.52z" fill="none" stroke-opacity=".502" stroke="#000" stroke-width="5.5"/><path d="M76.281 36.012a5.32 5.32 0 0 0 1.883-4.97l-.69-4.262c-.324-2.016 2.225-3.164 3.517-1.584l2.737 3.339a5.32 5.32 0 0 0 4.967 1.884l4.262-.69c2.016-.324 3.164 2.226 1.586 3.52l-3.34 2.734a5.32 5.32 0 0 0-1.882 4.966l.687 4.263c.327 2.015-2.222 3.163-3.517 1.585l-2.734-3.34a5.32 5.32 0 0 0-4.97-1.88l-4.261.69c-2.015.323-3.164-2.226-1.586-3.52z" fill="#fff"/></g><g fill-rule="evenodd"><path d="M223.785 87.463a3.29 3.29 0 0 0 1.109-3.099l-.477-2.63c-.223-1.244 1.342-1.984 2.16-1.021l1.732 2.036a3.29 3.29 0 0 0 3.097 1.11l2.63-.477c1.245-.224 1.985 1.342 1.022 2.161l-2.036 1.731a3.3 3.3 0 0 0-1.108 3.096l.475 2.631c.225 1.244-1.34 1.984-2.16 1.022l-1.73-2.037a3.29 3.29 0 0 0-3.098-1.107l-2.631.476c-1.244.224-1.984-1.341-1.022-2.16z" fill="none" stroke-opacity=".502" stroke="#000" stroke-width="5.5"/><path d="M223.785 87.463a3.29 3.29 0 0 0 1.109-3.099l-.477-2.63c-.223-1.244 1.342-1.984 2.16-1.021l1.732 2.036a3.29 3.29 0 0 0 3.097 1.11l2.63-.477c1.245-.224 1.985 1.342 1.022 2.161l-2.036 1.731a3.3 3.3 0 0 0-1.108 3.096l.475 2.631c.225 1.244-1.34 1.984-2.16 1.022l-1.73-2.037a3.29 3.29 0 0 0-3.098-1.107l-2.631.476c-1.244.224-1.984-1.341-1.022-2.16z" fill="#fff"/></g><g fill-rule="evenodd"><path d="M238.859 67.366a4.7 4.7 0 0 0-.588-4.667l-2.306-3.046c-1.089-1.442.429-3.396 2.094-2.696l3.524 1.476a4.71 4.71 0 0 0 4.665-.585l3.047-2.306c1.442-1.09 3.396.429 2.698 2.095l-1.478 3.523a4.71 4.71 0 0 0 .587 4.663l2.304 3.048c1.09 1.44-.427 3.395-2.093 2.697l-3.523-1.479a4.71 4.71 0 0 0-4.665.59l-3.046 2.306c-1.442 1.088-3.397-.43-2.699-2.096z" fill="none" stroke-opacity=".502" stroke="#000" stroke-width="5.5"/><path d="M238.859 67.366a4.7 4.7 0 0 0-.588-4.667l-2.306-3.046c-1.089-1.442.429-3.396 2.094-2.696l3.524 1.476a4.71 4.71 0 0 0 4.665-.585l3.047-2.306c1.442-1.09 3.396.429 2.698 2.095l-1.478 3.523a4.71 4.71 0 0 0 .587 4.663l2.304 3.048c1.09 1.44-.427 3.395-2.093 2.697l-3.523-1.479a4.71 4.71 0 0 0-4.665.59l-3.046 2.306c-1.442 1.088-3.397-.43-2.699-2.096z" fill="#fff"/></g><g fill-rule="evenodd"><path d="M61.649 66.157a3.4 3.4 0 0 0-1.422-3.091l-2.254-1.6c-1.065-.757-.444-2.436.857-2.315l2.752.25a3.4 3.4 0 0 0 3.09-1.419l1.6-2.254c.757-1.065 2.436-.444 2.318.858l-.253 2.752a3.4 3.4 0 0 0 1.42 3.088l2.254 1.601c1.066.756.445 2.435-.857 2.316l-2.752-.252a3.4 3.4 0 0 0-3.09 1.422l-1.599 2.254c-.757 1.065-2.436.444-2.318-.858z" fill="none" stroke-opacity=".502" stroke="#000" stroke-width="5.5"/><path d="M61.649 66.157a3.4 3.4 0 0 0-1.422-3.091l-2.254-1.6c-1.065-.757-.444-2.436.857-2.315l2.752.25a3.4 3.4 0 0 0 3.09-1.419l1.6-2.254c.757-1.065 2.436-.444 2.318.858l-.253 2.752a3.4 3.4 0 0 0 1.42 3.088l2.254 1.601c1.066.756.445 2.435-.857 2.316l-2.752-.252a3.4 3.4 0 0 0-3.09 1.422l-1.599 2.254c-.757 1.065-2.436.444-2.318-.858z" fill="#fff"/></g></g></svg>
