<svg xmlns="http://www.w3.org/2000/svg" width="309.297" height="159.649" viewBox="0 0 309.297 159.649"><defs><linearGradient x1="240" y1="106.676" x2="240" y2="253.324" gradientUnits="userSpaceOnUse" id="a"><stop offset="0" stop-color="#435b67"/><stop offset="1" stop-color="#7b9cbb"/></linearGradient><linearGradient x1="240" y1="105.176" x2="240" y2="254.824" gradientUnits="userSpaceOnUse" id="b"><stop offset="0" stop-color="#2b3b43"/><stop offset="1" stop-color="#46596a"/></linearGradient></defs><g stroke-miterlimit="10" style="mix-blend-mode:normal"><path d="M93.18 253.324V106.676h293.64v146.648z" fill="url(#a)" transform="translate(-85.351 -100.176)"/><path d="m83.994 38.347-3.635.974a28 28 0 0 1-1.134 8.19l3.315 1.918a3.85 3.85 0 0 1 1.802 2.353 3.86 3.86 0 0 1-.385 2.937l-3.19 5.517c-1.033 1.793-3.502 2.452-5.287 1.418l-3.448-1.977a28 28 0 0 1-6.47 4.892l1.043 3.89c.552 2.062-.642 4.2-2.704 4.752l-6.157 1.65c-2.063.552-4.14-.71-4.692-2.772l-1.042-3.888a28 28 0 0 1-8.065-1l-1.997 3.436c-1.032 1.792-3.502 2.452-5.296 1.42l-5.517-3.184a3.9 3.9 0 0 1-1.805-2.35 3.84 3.84 0 0 1 .386-2.937l1.91-3.325a28 28 0 0 1-5.075-6.525l-3.636.974a3.85 3.85 0 0 1-4.726-2.718l-1.648-6.152c-.553-2.064.678-4.132 2.743-4.685l3.636-.974a28.1 28.1 0 0 1 1.125-8.203l-3.317-1.929a3.85 3.85 0 0 1-1.804-2.356 3.85 3.85 0 0 1 .385-2.942l3.189-5.52a3.85 3.85 0 0 1 2.35-1.801 3.86 3.86 0 0 1 2.937.385l3.46 1.976a28.2 28.2 0 0 1 6.484-4.9l-1.04-3.883c-.553-2.063.624-4.16 2.687-4.713l6.157-1.65a3.837 3.837 0 0 1 4.709 2.732l1.04 3.886c2.808-.062 5.47.3 8.052 1.003l1.986-3.429a3.84 3.84 0 0 1 2.354-1.805c1-.268 2.045-.13 2.939.384l5.52 3.184a3.86 3.86 0 0 1 1.803 2.35c.267 1 .128 2.042-.387 2.937l-1.902 3.34a28.2 28.2 0 0 1 5.077 6.54l3.636-.973c2.063-.553 4.193.614 4.746 2.678l1.648 6.152c.553 2.058-.697 4.17-2.76 4.723m-35.5-10.322c-6.529 1.749-10.418 8.413-8.686 14.878 1.733 6.47 8.431 10.29 14.96 8.54 6.532-1.75 10.426-8.406 8.693-14.876-1.734-6.467-8.435-10.292-14.966-8.542" fill-opacity=".251"/><path d="m59.369 91.85-2.332 1.055c.33 1.886.37 3.775.142 5.622l2.436.923c.658.248 1.18.739 1.47 1.38.289.64.312 1.359.065 2.014l-1.532 4.056c-.496 1.317-2.08 2.032-3.393 1.534l-2.533-.946a19 19 0 0 1-3.803 3.997l1.129 2.496c.598 1.323.033 2.89-1.29 3.488l-3.951 1.786c-1.324.599-2.857-.018-3.456-1.342l-1.128-2.495a19.1 19.1 0 0 1-5.524.219l-.961 2.526c-.495 1.317-2.08 2.033-3.398 1.538l-4.055-1.53a2.65 2.65 0 0 1-1.47-1.378 2.6 2.6 0 0 1-.066-2.013l.915-2.443a19 19 0 0 1-4.126-3.82l-2.334 1.055a2.62 2.62 0 0 1-3.471-1.303l-1.785-3.948c-.6-1.324 0-2.848 1.324-3.447l2.333-1.055a19.1 19.1 0 0 1-.149-5.63l-2.44-.93a2.62 2.62 0 0 1-1.47-1.382 2.62 2.62 0 0 1-.067-2.017l1.532-4.057a2.62 2.62 0 0 1 1.379-1.469 2.62 2.62 0 0 1 2.014-.065l2.54.945a19.2 19.2 0 0 1 3.812-4.004l-1.127-2.492c-.598-1.324-.04-2.862 1.284-3.46l3.951-1.787a2.61 2.61 0 0 1 3.462 1.314l1.128 2.494a19 19 0 0 1 5.515-.215l.955-2.52a2.6 2.6 0 0 1 1.38-1.472 2.62 2.62 0 0 1 2.016-.066l4.056 1.528a2.62 2.62 0 0 1 1.47 1.378c.29.641.311 1.357.064 2.015l-.909 2.45a19.2 19.2 0 0 1 4.13 3.832l2.333-1.055c1.324-.599 2.883-.05 3.481 1.274l1.785 3.948c.599 1.32-.007 2.876-1.331 3.474m-24.968-3.012c-4.19 1.894-6.065 6.796-4.19 10.945 1.878 4.152 6.795 5.977 10.985 4.082 4.191-1.895 6.07-6.793 4.194-10.945-1.878-4.149-6.798-5.977-10.989-4.082m39.702 34.135-1.286 1.717a16 16 0 0 1 2.377 4.07l2.162-.307a2.2 2.2 0 0 1 1.637.42 2.2 2.2 0 0 1 .862 1.452l.515 3.597c.168 1.167-.706 2.333-1.87 2.498l-2.243.329a16 16 0 0 1-1.176 4.472l1.837 1.376c.975.73 1.193 2.109.463 3.083l-2.179 2.909c-.73.974-2.105 1.14-3.08.411l-1.836-1.376a16 16 0 0 1-3.968 2.394l.316 2.244c.169 1.167-.706 2.333-1.873 2.502l-3.596.517a2.22 2.22 0 0 1-1.637-.418 2.2 2.2 0 0 1-.862-1.452l-.315-2.163a16 16 0 0 1-4.574-1.137l-1.287 1.718a2.194 2.194 0 0 1-3.076.447l-2.906-2.177c-.975-.73-1.152-2.091-.421-3.066l1.286-1.718a16 16 0 0 1-2.385-4.074l-2.167.304a2.2 2.2 0 0 1-1.639-.42 2.2 2.2 0 0 1-.864-1.454l-.516-3.598a2.2 2.2 0 0 1 .419-1.636 2.2 2.2 0 0 1 1.452-.862l2.247-.333a16 16 0 0 1 1.18-4.481l-1.834-1.374c-.974-.73-1.186-2.085-.456-3.06l2.179-2.909a2.19 2.19 0 0 1 3.073-.434l1.835 1.375a16 16 0 0 1 3.963-2.388l-.318-2.236a2.2 2.2 0 0 1 .419-1.639c.353-.472.87-.779 1.453-.863l3.596-.518a2.2 2.2 0 0 1 1.636.418 2.2 2.2 0 0 1 .862 1.453l.323 2.167c1.553.15 3.099.531 4.581 1.143l1.287-1.718c.73-.974 2.095-1.202 3.07-.471l2.907 2.177c.973.727 1.157 2.115.427 3.089m-19.55 7.881c-2.31 3.085-1.705 7.442 1.35 9.73 3.056 2.29 7.404 1.642 9.715-1.443s1.71-7.442-1.346-9.731-7.407-1.641-9.718 1.444m72.501-57.207-2.458 2.849a28 28 0 0 1 3.668 7.41l3.82-.278a3.85 3.85 0 0 1 2.814.931 3.86 3.86 0 0 1 1.333 2.646l.466 6.355c.154 2.064-1.516 3.998-3.574 4.146l-3.963.305a28 28 0 0 1-2.598 7.683l3.05 2.63c1.616 1.395 1.831 3.833.437 5.45l-4.163 4.827c-1.395 1.617-3.822 1.743-5.439.348l-3.048-2.63a28 28 0 0 1-7.23 3.71l.281 3.965c.155 2.062-1.517 3.997-3.58 4.152l-6.353.47a3.9 3.9 0 0 1-2.814-.928 3.84 3.84 0 0 1-1.333-2.644l-.29-3.824a28 28 0 0 1-7.867-2.541l-2.459 2.85a3.85 3.85 0 0 1-5.436.412l-4.823-4.16c-1.618-1.396-1.762-3.798-.367-5.417l2.459-2.85a28.1 28.1 0 0 1-3.683-7.416l-3.828.27a3.85 3.85 0 0 1-2.817-.932 3.86 3.86 0 0 1-1.336-2.65l-.468-6.357a3.85 3.85 0 0 1 .93-2.811 3.86 3.86 0 0 1 2.645-1.334l3.972-.312a28.2 28.2 0 0 1 2.606-7.698l-3.044-2.626c-1.618-1.395-1.824-3.791-.43-5.408l4.164-4.827a3.837 3.837 0 0 1 5.43-.39l3.045 2.628a28 28 0 0 1 7.222-3.7L91.71 62a3.84 3.84 0 0 1 .93-2.817 3.86 3.86 0 0 1 2.646-1.335l6.356-.472a3.86 3.86 0 0 1 2.812.928 3.86 3.86 0 0 1 1.333 2.647l.304 3.83a28.2 28.2 0 0 1 7.877 2.554l2.459-2.851c1.395-1.617 3.812-1.85 5.43-.454l4.823 4.16c1.615 1.39 1.77 3.84.375 5.457m-35.158 11.43c-4.415 5.12-3.883 12.817 1.186 17.189 5.072 4.374 12.758 3.766 17.173-1.353 4.416-5.12 3.892-12.815-1.18-17.19-5.07-4.371-12.763-3.765-17.179 1.355" fill-opacity=".251"/><path d="m140.485 32.686-2.332 1.054c.33 1.887.37 3.775.142 5.622l2.436.923c.658.248 1.18.74 1.47 1.38.289.64.312 1.36.065 2.015l-1.532 4.055c-.496 1.317-2.08 2.032-3.393 1.535l-2.533-.947a19 19 0 0 1-3.803 3.997l1.129 2.496c.598 1.324.033 2.89-1.29 3.489l-3.951 1.786c-1.324.598-2.857-.019-3.456-1.343l-1.128-2.495a19.1 19.1 0 0 1-5.524.219l-.961 2.527c-.495 1.316-2.08 2.032-3.398 1.537l-4.055-1.529a2.65 2.65 0 0 1-1.47-1.379 2.6 2.6 0 0 1-.066-2.013l.915-2.442a19 19 0 0 1-4.126-3.82l-2.334 1.054a2.62 2.62 0 0 1-3.471-1.303l-1.785-3.947c-.6-1.325 0-2.849 1.324-3.448l2.333-1.055a19.1 19.1 0 0 1-.149-5.63l-2.44-.93a2.62 2.62 0 0 1-1.47-1.381 2.62 2.62 0 0 1-.067-2.018l1.532-4.057a2.62 2.62 0 0 1 1.379-1.468 2.62 2.62 0 0 1 2.014-.066l2.54.945a19.2 19.2 0 0 1 3.812-4.004l-1.127-2.492c-.598-1.324-.04-2.862 1.284-3.46l3.951-1.786a2.61 2.61 0 0 1 3.462 1.314l1.128 2.493a19 19 0 0 1 5.515-.215l.955-2.52a2.6 2.6 0 0 1 1.38-1.472 2.62 2.62 0 0 1 2.016-.066l4.056 1.528a2.62 2.62 0 0 1 1.47 1.379c.29.64.311 1.356.064 2.014l-.909 2.451a19.2 19.2 0 0 1 4.13 3.831l2.333-1.055c1.324-.598 2.883-.05 3.481 1.274l1.785 3.948c.599 1.32-.008 2.876-1.331 3.475m-24.968-3.013c-4.19 1.894-6.065 6.797-4.19 10.945 1.878 4.152 6.795 5.977 10.985 4.083 4.191-1.895 6.07-6.793 4.194-10.945-1.878-4.15-6.798-5.978-10.989-4.083m50.342 28.731-1.287 1.718a16 16 0 0 1 2.377 4.07l2.162-.307a2.2 2.2 0 0 1 1.637.42 2.2 2.2 0 0 1 .862 1.452l.515 3.597c.168 1.167-.706 2.333-1.87 2.498l-2.243.329a16 16 0 0 1-1.176 4.472l1.837 1.376c.975.73 1.193 2.109.463 3.083l-2.179 2.909c-.73.974-2.105 1.14-3.08.41l-1.836-1.375a16 16 0 0 1-3.968 2.394l.316 2.244c.169 1.166-.706 2.333-1.873 2.502l-3.596.517a2.22 2.22 0 0 1-1.637-.418 2.2 2.2 0 0 1-.861-1.452l-.316-2.163a16 16 0 0 1-4.574-1.137l-1.287 1.718a2.194 2.194 0 0 1-3.076.447l-2.906-2.177c-.975-.73-1.152-2.091-.421-3.067l1.286-1.717a16 16 0 0 1-2.385-4.074l-2.167.304a2.2 2.2 0 0 1-1.639-.42 2.2 2.2 0 0 1-.864-1.454l-.516-3.598a2.2 2.2 0 0 1 .42-1.636 2.2 2.2 0 0 1 1.451-.862l2.247-.333a16 16 0 0 1 1.18-4.481l-1.834-1.375c-.974-.73-1.186-2.085-.456-3.059l2.179-2.909a2.19 2.19 0 0 1 3.073-.434l1.835 1.374a16 16 0 0 1 3.963-2.387l-.318-2.236a2.2 2.2 0 0 1 .419-1.64 2.2 2.2 0 0 1 1.453-.862l3.596-.518a2.2 2.2 0 0 1 1.636.418c.472.353.777.87.862 1.453l.323 2.167c1.553.15 3.1.531 4.581 1.143l1.287-1.718c.73-.974 2.096-1.202 3.07-.471l2.907 2.177c.973.727 1.157 2.114.427 3.089m-19.55 7.882c-2.31 3.085-1.706 7.442 1.348 9.73 3.057 2.29 7.405 1.642 9.716-1.443s1.71-7.442-1.346-9.731-7.407-1.641-9.718 1.444m90.023-7.721 2.084-3.133a28 28 0 0 1-4.56-6.895l-3.757.75a3.85 3.85 0 0 1-2.907-.575 3.86 3.86 0 0 1-1.652-2.459l-1.253-6.248c-.408-2.028 1.008-4.155 3.03-4.558l3.896-.795a28 28 0 0 1 1.622-7.947l-3.352-2.23c-1.778-1.183-2.295-3.576-1.112-5.354l3.53-5.307c1.184-1.778 3.576-2.204 5.354-1.021l3.35 2.23a28 28 0 0 1 6.714-4.58l-.772-3.899c-.41-2.026 1.008-4.154 3.036-4.565l6.245-1.257a3.9 3.9 0 0 1 2.908.572 3.84 3.84 0 0 1 1.651 2.458l.764 3.757c2.733.11 5.465.615 8.122 1.544l2.085-3.134a3.85 3.85 0 0 1 5.342-1.084l5.303 3.528c1.78 1.184 2.221 3.55 1.038 5.329l-2.086 3.134a28.1 28.1 0 0 1 4.577 6.9l3.765-.744a3.85 3.85 0 0 1 2.91.575 3.86 3.86 0 0 1 1.656 2.463l1.255 6.25a3.85 3.85 0 0 1-.574 2.905 3.86 3.86 0 0 1-2.458 1.652l-3.902.803a28.2 28.2 0 0 1-1.63 7.963l3.348 2.227c1.778 1.183 2.28 3.535 1.098 5.313l-3.531 5.307a3.837 3.837 0 0 1-5.34 1.062l-3.348-2.228a28 28 0 0 1-6.706 4.568l.776 3.885a3.84 3.84 0 0 1-.574 2.91 3.86 3.86 0 0 1-2.46 1.654l-6.246 1.26a3.86 3.86 0 0 1-2.906-.573 3.86 3.86 0 0 1-1.652-2.46l-.778-3.763a28.2 28.2 0 0 1-8.134-1.554l-2.085 3.134c-1.183 1.778-3.552 2.31-5.332 1.126l-5.302-3.528c-1.775-1.179-2.233-3.59-1.05-5.368m33.464-15.713c3.744-5.628 2.259-13.2-3.314-16.908-5.576-3.71-13.127-2.15-16.872 3.478-3.745 5.63-2.268 13.2 3.308 16.91 5.575 3.707 13.132 2.149 16.878-3.48m-96.082 10.875-.37-2.533a19 19 0 0 1-5.443-1.415l-1.559 2.088c-.42.563-1.036.93-1.732 1.03a2.63 2.63 0 0 1-1.954-.492l-3.475-2.592c-1.13-.84-1.38-2.56-.54-3.684l1.61-2.173a19 19 0 0 1-2.793-4.759l-2.71.396c-1.438.21-2.787-.766-2.997-2.203l-.627-4.29c-.21-1.438.807-2.74 2.244-2.95l2.71-.397c.18-1.9.634-3.68 1.314-5.37l-2.164-1.62c-1.129-.84-1.379-2.561-.54-3.691l2.589-3.476a2.65 2.65 0 0 1 1.731-1.033 2.6 2.6 0 0 1 1.953.493l2.095 1.554a19 19 0 0 1 4.811-2.912l-.37-2.534a2.62 2.62 0 0 1 2.21-2.977l4.287-.627c1.439-.21 2.738.786 2.948 2.225l.37 2.533c1.904.202 3.741.684 5.453 1.41l1.567-2.088a2.62 2.62 0 0 1 1.734-1.032 2.62 2.62 0 0 1 1.957.493l3.477 2.591c.564.421.93 1.036 1.031 1.73a2.62 2.62 0 0 1-.493 1.955l-1.609 2.18c1.135 1.425 2.078 3 2.797 4.77l2.706-.395c1.437-.21 2.761.751 2.971 2.189l.627 4.29a2.61 2.61 0 0 1-2.218 2.965l-2.708.395a19 19 0 0 1-1.315 5.36l2.159 1.614c.565.42.931 1.036 1.033 1.733a2.62 2.62 0 0 1-.492 1.955l-2.589 3.478a2.62 2.62 0 0 1-1.73 1.032 2.62 2.62 0 0 1-1.954-.494l-2.105-1.55a19.2 19.2 0 0 1-4.822 2.912l.37 2.534c.21 1.438-.747 2.784-2.185 2.994l-4.288.627c-1.434.21-2.762-.802-2.972-2.239m9.786-23.167c-.665-4.55-4.859-7.705-9.364-7.047-4.509.658-7.62 4.881-6.955 9.431.665 4.551 4.854 7.71 9.362 7.051 4.507-.659 7.622-4.883 6.957-9.435m62.265 123.067-1.296-1.71a16 16 0 0 1-4.568 1.162l-.301 2.163a2.2 2.2 0 0 1-.855 1.457 2.2 2.2 0 0 1-1.634.428l-3.599-.498c-1.169-.16-2.048-1.322-1.885-2.487l.303-2.246a16 16 0 0 1-3.974-2.365l-1.83 1.387c-.97.735-2.356.564-3.091-.407l-2.195-2.896c-.735-.97-.516-2.339.455-3.074l1.83-1.386a16 16 0 0 1-1.207-4.474l-2.244-.315c-1.168-.16-2.047-1.323-1.888-2.491l.496-3.599a2.22 2.22 0 0 1 .853-1.458 2.2 2.2 0 0 1 1.633-.428l2.166.294a16 16 0 0 1 2.356-4.083l-1.296-1.71a2.194 2.194 0 0 1 .419-3.08l2.894-2.193c.971-.736 2.328-.53 3.064.441l1.296 1.711a16 16 0 0 1 4.573-1.169l.306-2.166c.08-.585.386-1.103.856-1.46a2.2 2.2 0 0 1 1.637-.429l3.6.497c.584.082 1.1.385 1.456.854a2.2 2.2 0 0 1 .429 1.634l-.3 2.252a16 16 0 0 1 3.981 2.371l1.827-1.384a2.175 2.175 0 0 1 3.067.406l2.194 2.896c.735.97.54 2.339-.43 3.074l-1.828 1.385a16 16 0 0 1 1.201 4.467l2.238.312a2.2 2.2 0 0 1 1.459.855c.356.47.508 1.052.429 1.634l-.495 3.6a2.2 2.2 0 0 1-.853 1.457 2.2 2.2 0 0 1-1.634.428l-2.173-.287a16 16 0 0 1-2.362 4.087l1.296 1.71c.735.971.577 2.347-.395 3.083l-2.894 2.192c-.968.735-2.352.529-3.087-.442m-2.18-20.965c-2.328-3.072-6.683-3.693-9.725-1.389-3.044 2.307-3.621 6.665-1.294 9.737s6.68 3.698 9.725 1.392c3.042-2.306 3.621-6.667 1.293-9.74" fill-opacity=".251"/><path d="m204.308 114.261-.483-3.732a28 28 0 0 1-7.966-2.21l-2.342 3.03a3.85 3.85 0 0 1-2.572 1.474 3.86 3.86 0 0 1-2.86-.771l-5.045-3.894c-1.64-1.262-1.965-3.797-.704-5.428l2.418-3.156a28 28 0 0 1-3.99-7.061l-3.994.517c-2.117.274-4.077-1.193-4.351-3.311l-.818-6.321c-.274-2.118 1.252-4.01 3.37-4.283l3.991-.517a28 28 0 0 1 2.061-7.86l-3.14-2.436c-1.64-1.26-1.966-3.797-.705-5.437l3.888-5.046a3.9 3.9 0 0 1 2.57-1.477 3.84 3.84 0 0 1 2.858.771l3.042 2.335a28 28 0 0 1 7.142-4.164l-.483-3.733a3.85 3.85 0 0 1 3.32-4.324l6.317-.817c2.12-.274 4.005 1.221 4.28 3.34l.482 3.734a28.1 28.1 0 0 1 7.981 2.204l2.353-3.032a3.85 3.85 0 0 1 2.574-1.476 3.86 3.86 0 0 1 2.865.772l5.048 3.893a3.85 3.85 0 0 1 1.474 2.569 3.86 3.86 0 0 1-.772 2.86L229.7 64.44a28.2 28.2 0 0 1 3.995 7.078l3.987-.516c2.118-.274 4.041 1.171 4.315 3.29l.818 6.32a3.837 3.837 0 0 1-3.333 4.305l-3.989.516a28 28 0 0 1-2.062 7.847l3.134 2.424a3.84 3.84 0 0 1 1.477 2.572 3.86 3.86 0 0 1-.77 2.862l-3.889 5.05a3.86 3.86 0 0 1-2.568 1.474 3.86 3.86 0 0 1-2.86-.773l-3.057-2.329a28.2 28.2 0 0 1-7.157 4.164l.482 3.734c.274 2.117-1.165 4.074-3.284 4.348l-6.317.817c-2.113.275-4.04-1.244-4.314-3.362m14.942-33.815c-.868-6.704-6.956-11.444-13.594-10.585-6.643.86-11.318 6.991-10.45 13.695.867 6.706 6.948 11.45 13.591 10.59 6.64-.86 11.32-6.995 10.453-13.7m55.837 38.488-1.37-2.16a19 19 0 0 1-5.548.928l-.572 2.542a2.62 2.62 0 0 1-1.16 1.648c-.594.376-1.302.5-1.986.347l-4.23-.949c-1.373-.307-2.303-1.775-1.995-3.144l.583-2.64a19 19 0 0 1-4.49-3.206l-2.314 1.468c-1.227.778-2.857.437-3.635-.79l-2.322-3.661c-.778-1.227-.382-2.831.845-3.61l2.312-1.466a19.1 19.1 0 0 1-.99-5.439l-2.637-.598c-1.373-.305-2.304-1.775-1.999-3.149l.946-4.229a2.65 2.65 0 0 1 1.16-1.65 2.6 2.6 0 0 1 1.983-.346l2.547.564a19 19 0 0 1 3.205-4.621l-1.372-2.162a2.62 2.62 0 0 1 .804-3.62l3.658-2.321c1.228-.779 2.82-.4 3.599.828l1.372 2.162a19.1 19.1 0 0 1 5.553-.936l.579-2.546a2.62 2.62 0 0 1 1.162-1.65 2.62 2.62 0 0 1 1.988-.348l4.232.947a2.62 2.62 0 0 1 1.647 1.16c.376.593.5 1.299.347 1.985l-.58 2.647a19.2 19.2 0 0 1 4.5 3.214l2.309-1.465c1.227-.778 2.828-.44 3.606.787l2.322 3.661a2.61 2.61 0 0 1-.816 3.612l-2.31 1.466c.61 1.81.917 3.61.985 5.43l2.63.593a2.6 2.6 0 0 1 1.65 1.16c.377.595.5 1.301.348 1.986l-.945 4.231a2.62 2.62 0 0 1-1.159 1.648c-.594.377-1.3.499-1.985.347l-2.555-.557a19.2 19.2 0 0 1-3.214 4.626l1.372 2.162c.778 1.227.453 2.847-.774 3.626l-3.659 2.32c-1.223.778-2.849.396-3.627-.831m-.516-25.142c-2.462-3.884-7.58-5.054-11.424-2.615-3.848 2.44-4.966 7.565-2.503 11.448s7.577 5.059 11.425 2.618c3.845-2.44 4.966-7.567 2.502-11.451m-109.076 42.475-1.38-2.155c-1.82.6-3.683.911-5.543.953l-.56 2.544a2.62 2.62 0 0 1-1.154 1.654c-.592.379-1.3.505-1.984.356l-4.234-.93c-1.375-.3-2.312-1.765-2.01-3.135l.572-2.643a19 19 0 0 1-4.506-3.185l-2.306 1.478c-1.223.783-2.855.45-3.639-.773l-2.338-3.65c-.784-1.224-.395-2.83.828-3.614l2.306-1.477a19.1 19.1 0 0 1-1.015-5.434l-2.64-.586c-1.374-.3-2.311-1.765-2.012-3.14l.927-4.234a2.65 2.65 0 0 1 1.151-1.654 2.6 2.6 0 0 1 1.983-.356l2.549.553a19 19 0 0 1 3.184-4.636l-1.382-2.156a2.62 2.62 0 0 1 .788-3.624l3.648-2.337c1.224-.784 2.818-.412 3.602.812l1.381 2.156c1.818-.6 3.69-.918 5.55-.962l.567-2.548a2.62 2.62 0 0 1 1.155-1.655c.592-.38 1.3-.508 1.986-.357l4.236.928c.687.152 1.273.56 1.652 1.152.38.592.506 1.297.357 1.984l-.568 2.65c1.62.83 3.13 1.877 4.513 3.193l2.303-1.475c1.223-.784 2.826-.453 3.61.77l2.338 3.65a2.61 2.61 0 0 1-.8 3.617l-2.303 1.476a19 19 0 0 1 1.01 5.426l2.632.58c.689.15 1.275.56 1.656 1.154.38.592.506 1.298.356 1.984l-.925 4.235a2.62 2.62 0 0 1-1.151 1.653 2.62 2.62 0 0 1-1.984.356l-2.557-.545a19.2 19.2 0 0 1-3.194 4.64l1.382 2.156c.783 1.223.466 2.845-.758 3.629l-3.648 2.337c-1.22.783-2.847.408-3.63-.815m-.629-25.14c-2.48-3.873-7.602-5.02-11.436-2.564-3.837 2.458-4.932 7.587-2.451 11.46 2.48 3.872 7.6 5.024 11.436 2.566 3.834-2.457 4.932-7.59 2.451-11.463" fill-opacity=".251"/><path d="M90.351 117.671c0-6.399 5.916-12.495 13.12-12.495h272.61c8.613 0 13.568 4.643 13.568 12.246v125.705c0 6.04-4.86 11.697-13.32 11.697H103.72c-7.328 0-13.369-4.523-13.369-11.947z" fill="none" stroke="url(#b)" stroke-width="10" transform="translate(-85.351 -100.176)"/><g fill="#fff" stroke-opacity=".506" stroke="#000" stroke-width="8.5" transform="translate(-85.351 -100.176)"/><path d="M30.639 137.266q0 .643-3.798.643-3.837 0-3.837-.603v-26.078q0-1.4 1.48-1.4h7.635q10.52 0 10.52 8.197 0 2.486-.957 4.508-.958 2.015-2.72 3.214l5.037 8.398q-.315.965-2.076 2.204-2.398 1.72-3.958 1.72t-2.324-1.118l-3.757-8.76h-1.246zm0-20.359v6h.2q3.804 0 3.804-3.16 0-1.44-.743-2.137-.737-.703-2.418-.703zm15.564 1.159q0-.435 3.435-.436 3.443 0 3.443.436v11.68q0 2.002 1.279 2.002.964 0 2.163-.837v-12.845q0-.396 3.395-.395 3.403 0 3.403.395v13.12h1.044q1.36 0 1.36 2.604 0 1.32-.563 2.68-.797 1.76-2.156 1.76-2.685 0-3.965-2.203l-.04.04q-2.437 2.163-5.237 2.163-3.885 0-5.726-1.942-1.835-1.941-1.835-6.422zm30.32 19.522q0 .28-2.88.28-3.998-.12-3.998-.441v-12.959H68.6q-1.038 0-1.36-1.761a7 7 0 0 1-.08-1.038q0-1.239.482-2.478.723-1.761 2.244-1.762 1.52 0 2.719.724 1.198.716 1.6 1.433 2.519-2.157 5.994-2.157 3.483 0 5.043 1.882 1.56 1.875 1.56 6.155v12.001q0 .482-3.422.482-3.415 0-3.415-.482v-11.56q0-2.002-1.4-2.002-.402 0-1.125.342-.717.342-.918.502zm22.884 0q0 .482-3.362.482-3.998-.161-3.998-.523V123.39h-2.043q-.803 0-.803-2.76 0-.723.14-1.76.14-1.045.583-1.045h2.123v-3.516q0-.804 3.375-.804 3.382 0 3.382.643v2.558l.04 1.119h3.403q.675 0 .676 2.806 0 2.799-.676 2.799h-2.84zm12.839 0q0 .321-3.664.321-3.656 0-3.656-.281v-19.644q0-.274 3.657-.274 3.663 0 3.663.234zm0-22q0 .28-3.664.281-3.656 0-3.656-.241v-5.76q0-.4 3.657-.401 3.663 0 3.663.24zm21.722 22.04q0 .28-3.422.281-3.422 0-3.422-.362v-11.64q0-2.002-1.32-2.002-.675 0-1.8.884v12.799q0 .4-3.423.401-3.415 0-3.415-.442v-13.079h-.998q-1.326 0-1.326-2.76 0-1.237.482-2.517.643-1.762 2.083-1.762t2.779.764q1.34.756 1.62 1.433 2.479-2.197 5.499-2.197t4.862 1.876q2.157-1.875 5.197-1.876 6.603 0 6.603 8.037v12.162q0 .28-3.422.281-3.422 0-3.422-.362v-11.64q0-2.001-1.32-2.002-.716 0-1.835.884zm28.521-.878q-2.525 1.48-6.482 1.48-3.959 0-6.684-2.698-2.72-2.706-2.719-7.481 0-4.782 2.619-7.702 2.625-2.92 6.623-2.92t6.175 2.043q2.183 2.036 2.183 4.956 0 6.483-7.44 6.483h-2.76q0 1.198.657 1.66.663.456 1.948.456c1.867 0 5.465-1.119 5.68-.717q.957 1.721.957 2.9 0 1.18-.757 1.54zm-5.002-11.559q0-1.68-1.641-1.68-.757 0-1.3.461-.542.456-.542 1.333v1.246h2.163q1.32 0 1.32-1.36zm30.041-4.246q.757 0 .757 2.806 0 .838-.18 1.976-.175 1.14-.657 1.139h-5.083v4.004h7.36q.682 0 .924 1.762.12.756.12 1.62 0 .857-.24 2.217-.242 1.36-.804 1.36h-13.676q-1.52 0-1.52-1.24v-25.723q0-1.038.917-1.038h14.318q.844 0 .844 3.543 0 3.536-.844 3.536h-7.4v4.038zm4.96-3q-.12-.315 3.738-.315 3.864 0 3.864.195l1.766 8.34c.413 1.954 1.537 2.632 1.812.923l1.458-9.063q.12-.354 3.965-.354 3.877 0 3.757.314l-5.64 19.562q-.28.402-4.76.402-4.481 0-4.803-.603zm37.524 18.805q-2.524 1.48-6.483 1.48t-6.684-2.698q-2.719-2.706-2.719-7.481 0-4.782 2.619-7.702 2.625-2.92 6.623-2.92t6.175 2.043q2.183 2.036 2.183 4.956 0 6.483-7.44 6.483h-2.76q0 1.198.657 1.66.663.456 1.949.456c1.866 0 5.465-1.119 5.679-.717q.957 1.721.958 2.9 0 1.18-.757 1.54zm-5.003-11.559q0-1.68-1.64-1.68-.757 0-1.3.461-.543.456-.542 1.333v1.246h2.163q1.32 0 1.32-1.36zm17.68 12.397q0 .28-2.88.28-3.998-.12-3.998-.441v-12.959h-1.045q-1.038 0-1.36-1.761a7 7 0 0 1-.08-1.038q0-1.239.482-2.478.723-1.761 2.244-1.762 1.52 0 2.719.724 1.198.716 1.6 1.433 2.518-2.157 5.994-2.157 3.483 0 5.043 1.882 1.56 1.875 1.56 6.155v12.001q0 .482-3.422.482-3.415 0-3.415-.482v-11.56q0-2.002-1.4-2.002-.402 0-1.125.342-.717.342-.918.502zm22.884 0q0 .482-3.362.482-3.998-.161-3.998-.523V123.39h-2.043q-.803 0-.803-2.76 0-.723.14-1.76.14-1.045.583-1.045h2.123v-3.516q0-.804 3.375-.804 3.382 0 3.382.643v2.558l.04 1.119h3.403q.675 0 .676 2.806 0 2.799-.676 2.799h-2.84zm6.356-6.959q3.241 1.963 5.123 1.963 1.2 0 1.199-.844 0-.597-2.083-1.56-4.995-2.037-4.996-6.678 0-2.96 2.157-4.52 2.163-1.56 5.183-1.56t5.117.642q2.103.637 2.103 1.675 0 .884-.864 2.323-.858 1.44-1.179 1.56a7.5 7.5 0 0 0-3.717-.963q-1.078 0-1.078.763 0 .476.415.817.422.342 1.54.844 1.118.496 1.856.897.743.401 1.667 1.119 1.922 1.52 1.922 3.964 0 3.195-2.123 5.177t-6.402 1.982q-2.84 0-5.164-.957-2.316-.965-2.317-2.646 0-1.118.543-2.357.541-1.24 1.098-1.64z" fill="none" stroke-opacity=".506" stroke="#000" stroke-width="8.5" stroke-linecap="square"/><path d="M30.639 137.266q0 .643-3.798.643-3.837 0-3.837-.603v-26.078q0-1.4 1.48-1.4h7.635q10.52 0 10.52 8.197 0 2.486-.957 4.508-.958 2.015-2.72 3.214l5.037 8.398q-.315.965-2.076 2.204-2.398 1.72-3.958 1.72t-2.324-1.118l-3.757-8.76h-1.246zm0-20.359v6h.2q3.804 0 3.804-3.16 0-1.44-.743-2.137-.737-.703-2.418-.703zm15.564 1.159q0-.435 3.435-.436 3.443 0 3.443.436v11.68q0 2.002 1.279 2.002.964 0 2.163-.837v-12.845q0-.396 3.395-.395 3.403 0 3.403.395v13.12h1.044q1.36 0 1.36 2.604 0 1.32-.563 2.68-.797 1.76-2.156 1.76-2.685 0-3.965-2.203l-.04.04q-2.437 2.163-5.237 2.163-3.885 0-5.726-1.942-1.835-1.941-1.835-6.422zm30.32 19.522q0 .28-2.88.28-3.998-.12-3.998-.441v-12.959H68.6q-1.038 0-1.36-1.761a7 7 0 0 1-.08-1.038q0-1.239.482-2.478.723-1.761 2.244-1.762 1.52 0 2.719.724 1.198.716 1.6 1.433 2.519-2.157 5.994-2.157 3.483 0 5.043 1.882 1.56 1.875 1.56 6.155v12.001q0 .482-3.422.482-3.415 0-3.415-.482v-11.56q0-2.002-1.4-2.002-.402 0-1.125.342-.717.342-.918.502zm22.884 0q0 .482-3.362.482-3.998-.161-3.998-.523V123.39h-2.043q-.803 0-.803-2.76 0-.723.14-1.76.14-1.045.583-1.045h2.123v-3.516q0-.804 3.375-.804 3.382 0 3.382.643v2.558l.04 1.119h3.403q.675 0 .676 2.806 0 2.799-.676 2.799h-2.84zm12.839 0q0 .321-3.664.321-3.656 0-3.656-.281v-19.644q0-.274 3.657-.274 3.663 0 3.663.234zm0-22q0 .28-3.664.281-3.656 0-3.656-.241v-5.76q0-.4 3.657-.401 3.663 0 3.663.24zm21.722 22.04q0 .28-3.422.281-3.422 0-3.422-.362v-11.64q0-2.002-1.32-2.002-.675 0-1.8.884v12.799q0 .4-3.423.401-3.415 0-3.415-.442v-13.079h-.998q-1.326 0-1.326-2.76 0-1.237.482-2.517.643-1.762 2.083-1.762t2.779.764q1.34.756 1.62 1.433 2.479-2.197 5.499-2.197t4.862 1.876q2.157-1.875 5.197-1.876 6.603 0 6.603 8.037v12.162q0 .28-3.422.281-3.422 0-3.422-.362v-11.64q0-2.001-1.32-2.002-.716 0-1.835.884zm28.521-.878q-2.525 1.48-6.482 1.48-3.959 0-6.684-2.698-2.72-2.706-2.719-7.481 0-4.782 2.619-7.702 2.625-2.92 6.623-2.92t6.175 2.043q2.183 2.036 2.183 4.956 0 6.483-7.44 6.483h-2.76q0 1.198.657 1.66.663.456 1.948.456 2.8 0 5.318-1.28.04-.04.361.563.958 1.721.958 2.9 0 1.18-.757 1.54m-5.002-11.559q0-1.68-1.641-1.68-.757 0-1.3.461-.542.456-.542 1.333v1.246h2.163q1.32 0 1.32-1.36m30.041-4.246q.757 0 .757 2.806 0 .838-.18 1.976-.175 1.14-.657 1.139h-5.083v4.004h7.36q.682 0 .924 1.762.12.756.12 1.62 0 .857-.24 2.217-.242 1.36-.804 1.36h-13.676q-1.52 0-1.52-1.24v-25.723q0-1.038.917-1.038h14.318q.844 0 .844 3.543 0 3.536-.844 3.536h-7.4v4.038zm4.96-3q-.12-.315 3.738-.315 3.864 0 3.864.195l2.88 13.601 2.156-13.4q.12-.355 3.965-.355 3.877 0 3.757.314l-5.64 19.562q-.28.402-4.76.402-4.481 0-4.803-.603zm37.524 18.805q-2.524 1.48-6.483 1.48t-6.684-2.698q-2.719-2.706-2.719-7.481 0-4.782 2.619-7.702 2.625-2.92 6.623-2.92t6.175 2.043q2.183 2.036 2.183 4.956 0 6.483-7.44 6.483h-2.76q0 1.198.657 1.66.663.456 1.949.456 2.799 0 5.317-1.28.04-.04.362.563.957 1.721.958 2.9 0 1.18-.757 1.54m-5.003-11.559q0-1.68-1.64-1.68-.757 0-1.3.461-.543.456-.542 1.333v1.246h2.163q1.32 0 1.32-1.36m17.68 12.397q0 .28-2.88.28-3.998-.12-3.998-.441v-12.959h-1.045q-1.038 0-1.36-1.761a7 7 0 0 1-.08-1.038q0-1.239.482-2.478.723-1.761 2.244-1.762 1.52 0 2.719.724 1.198.716 1.6 1.433 2.518-2.157 5.994-2.157 3.483 0 5.043 1.882 1.56 1.875 1.56 6.155v12.001q0 .482-3.422.482-3.415 0-3.415-.482v-11.56q0-2.002-1.4-2.002-.402 0-1.125.342-.717.342-.918.502zm22.884 0q0 .482-3.362.482-3.998-.161-3.998-.523V123.39h-2.043q-.803 0-.803-2.76 0-.723.14-1.76.14-1.045.583-1.045h2.123v-3.516q0-.804 3.375-.804 3.382 0 3.382.643v2.558l.04 1.119h3.403q.675 0 .676 2.806 0 2.799-.676 2.799h-2.84zm6.356-6.959q3.241 1.963 5.123 1.963 1.2 0 1.199-.844 0-.597-2.083-1.56-4.995-2.037-4.996-6.678 0-2.96 2.157-4.52 2.163-1.56 5.183-1.56t5.117.642q2.103.637 2.103 1.675 0 .884-.864 2.323-.858 1.44-1.179 1.56a7.5 7.5 0 0 0-3.717-.963q-1.078 0-1.078.763 0 .476.415.817.422.342 1.54.844 1.118.496 1.856.897.743.401 1.667 1.119 1.922 1.52 1.922 3.964 0 3.195-2.123 5.177t-6.402 1.982q-2.84 0-5.164-.957-2.316-.965-2.317-2.646 0-1.118.543-2.357.541-1.24 1.098-1.64" fill="#fff"/><path d="M179.172 25.799 189.77 59.5c.21.669.153 1.422-.298 1.857-3.102 5.09-7.862 8.645-13.346 10.37-5.483 1.724-11.463 1.4-16.878-.865-4.402-1.848-9.229-2.241-13.776-.811-4.145 1.304-7.737 3.903-10.24 7.629l7.024 22.334a2.513 2.513 0 0 1-1.65 3.164 2.513 2.513 0 0 1-3.164-1.65l-17.916-56.972c-.337-1.07.122-1.949.664-2.56 3.186-4.823 7.68-8.293 13.029-9.976 5.483-1.724 11.597-1.442 17.012.823 4.402 1.848 9.186 2.107 13.733.677s8.322-4.38 10.874-8.416c.634-.787 1.528-1.215 2.457-1.066s1.582.825 1.877 1.76z" fill="none" stroke-opacity=".424" stroke="#000" stroke-width="10.5" stroke-linejoin="round"/><path d="M179.172 25.799 189.77 59.5c.21.669.153 1.422-.298 1.857-3.102 5.09-7.862 8.645-13.346 10.37-5.483 1.724-11.463 1.4-16.878-.865-4.402-1.848-9.229-2.241-13.776-.811-4.145 1.304-7.737 3.903-10.24 7.629l7.024 22.334a2.513 2.513 0 0 1-1.65 3.164 2.513 2.513 0 0 1-3.164-1.65l-17.916-56.972c-.337-1.07.122-1.949.664-2.56 3.186-4.823 7.68-8.293 13.029-9.976 5.483-1.724 11.597-1.442 17.012.823 4.402 1.848 9.186 2.107 13.733.677s8.322-4.38 10.874-8.416c.634-.787 1.528-1.215 2.457-1.066s1.582.825 1.877 1.76" fill="#fff"/></g></svg>
