<svg xmlns="http://www.w3.org/2000/svg" width="309.297" height="159.649" viewBox="0 0 309.297 159.649"><defs><linearGradient x1="321.949" y1="147.071" x2="321.949" y2="174.494" gradientUnits="userSpaceOnUse" id="a"><stop offset="0" stop-color="#9d2626"/><stop offset="1" stop-color="#9d2626" stop-opacity="0"/></linearGradient><linearGradient x1="159.651" y1="147.071" x2="159.651" y2="174.494" gradientUnits="userSpaceOnUse" id="b"><stop offset="0" stop-color="#9d2626"/><stop offset="1" stop-color="#9d2626" stop-opacity="0"/></linearGradient><linearGradient x1="366.075" y1="193.216" x2="313.6" y2="193.216" gradientUnits="userSpaceOnUse" id="c"><stop offset="0" stop-color="#9d2626"/><stop offset="1" stop-color="#9d2626" stop-opacity="0"/></linearGradient><linearGradient x1="113.075" y1="193.216" x2="165.55" y2="193.216" gradientUnits="userSpaceOnUse" id="d"><stop offset="0" stop-color="#9d2626"/><stop offset="1" stop-color="#9d2626" stop-opacity="0"/></linearGradient><linearGradient x1="128.8" y1="143.571" x2="128.8" y2="170.994" gradientUnits="userSpaceOnUse" id="e"><stop offset="0" stop-color="#9d2626"/><stop offset="1" stop-color="#9d2626" stop-opacity="0"/></linearGradient><linearGradient x1="350.8" y1="143.571" x2="350.8" y2="170.994" gradientUnits="userSpaceOnUse" id="f"><stop offset="0" stop-color="#9d2626"/><stop offset="1" stop-color="#9d2626" stop-opacity="0"/></linearGradient><linearGradient x1="94.5" y1="204.13" x2="124.976" y2="204.13" gradientUnits="userSpaceOnUse" id="g"><stop offset="0" stop-color="#c43131"/><stop offset="1" stop-color="#c43131" stop-opacity="0"/></linearGradient><linearGradient x1="354.5" y1="204.13" x2="384.976" y2="204.13" gradientUnits="userSpaceOnUse" id="h"><stop offset="0" stop-color="#c43131" stop-opacity="0"/><stop offset="1" stop-color="#c43131"/></linearGradient><linearGradient x1="142.075" y1="108.392" x2="142.075" y2="138.868" gradientUnits="userSpaceOnUse" id="i"><stop offset="0" stop-color="#c43131"/><stop offset="1" stop-color="#c43131" stop-opacity="0"/></linearGradient><linearGradient x1="97.075" y1="108.392" x2="97.075" y2="138.868" gradientUnits="userSpaceOnUse" id="j"><stop offset="0" stop-color="#c43131"/><stop offset="1" stop-color="#c43131" stop-opacity="0"/></linearGradient><linearGradient x1="240.575" y1="108.392" x2="240.575" y2="138.868" gradientUnits="userSpaceOnUse" id="k"><stop offset="0" stop-color="#c43131"/><stop offset="1" stop-color="#c43131" stop-opacity="0"/></linearGradient><linearGradient x1="191.575" y1="108.392" x2="191.575" y2="138.868" gradientUnits="userSpaceOnUse" id="l"><stop offset="0" stop-color="#c43131"/><stop offset="1" stop-color="#c43131" stop-opacity="0"/></linearGradient><linearGradient x1="340.075" y1="108.392" x2="340.075" y2="138.868" gradientUnits="userSpaceOnUse" id="m"><stop offset="0" stop-color="#c43131"/><stop offset="1" stop-color="#c43131" stop-opacity="0"/></linearGradient><linearGradient x1="291.075" y1="108.392" x2="291.075" y2="138.868" gradientUnits="userSpaceOnUse" id="n"><stop offset="0" stop-color="#c43131"/><stop offset="1" stop-color="#c43131" stop-opacity="0"/></linearGradient><linearGradient x1="383.575" y1="108.392" x2="383.575" y2="138.868" gradientUnits="userSpaceOnUse" id="o"><stop offset="0" stop-color="#c43131"/><stop offset="1" stop-color="#c43131" stop-opacity="0"/></linearGradient><linearGradient x1="240" y1="105.176" x2="240" y2="254.824" gradientUnits="userSpaceOnUse" id="p"><stop offset="0" stop-color="#660f0f"/><stop offset="1" stop-color="#a42727"/></linearGradient></defs><g stroke-miterlimit="10"><path d="M300.149 6.824v146h-291v-146z" fill="#b92c2c"/><path d="M256.155 155.774h-26.22c-6.276 0 6.696-48.764 6.696-48.764s-18.41-20.523-25.994-34.843c-9.12-17.22-12.938-61.393-12.938-61.393h55.877c7.573 0 14.184 5 14.184 15.5v118c0 9.458-4.97 11.5-11.605 11.5" fill="#a62828"/><path d="M259.594 155.774h-26.22c-6.276 0 6.696-48.764 6.696-48.764s-18.41-20.523-25.994-34.843c-9.12-17.22-12.938-61.393-12.938-61.393h55.877c7.573 0 14.184 5 14.184 15.5v118c0 9.458-4.97 11.5-11.605 11.5" fill="#d93636"/><path d="M300.243 174.494s-2.947-6.783-4.417-10.86c-1.77-4.908-5.469-16.563-5.469-16.563h63.184v27.423z" fill="url(#a)" transform="translate(-85.351 -100.176)"/><path d="M43.138 144.274v-118c0-10.5 6.61-15.5 14.184-15.5h55.877s-3.818 44.173-12.938 61.393c-7.584 14.32-25.994 34.843-25.994 34.843s12.972 48.764 6.695 48.764h-26.22c-6.634 0-11.604-2.042-11.604-11.5" fill="#a82828"/><path d="M39.699 144.274v-118c0-10.5 6.611-15.5 14.184-15.5h55.877s-3.818 44.173-12.938 61.393c-7.584 14.32-25.994 34.843-25.994 34.843s12.972 48.764 6.696 48.764h-26.22c-6.635 0-11.605-2.042-11.605-11.5" fill="#d93636"/><path d="M128.059 174.494V147.07h63.184s-3.7 11.655-5.469 16.564c-1.47 4.076-4.417 10.859-4.417 10.859z" fill="url(#b)" transform="translate(-85.351 -100.176)"/><path d="M7.199 140.774v-118c0-10.5 7.69-15.5 16.5-15.5h65s-4.441 44.173-15.05 61.393C64.826 82.987 43.41 103.51 43.41 103.51s15.09 48.764 7.789 48.764h-30.5c-7.718 0-13.5-2.042-13.5-11.5m281 11.5h-30.5c-7.301 0 7.789-48.764 7.789-48.764s-21.416-20.523-30.239-34.843c-10.609-17.22-15.05-61.393-15.05-61.393h65c8.81 0 16.5 5 16.5 15.5v118c0 9.458-5.782 11.5-13.5 11.5" fill="#b32b2b"/><path d="M313.6 254.716v-123h52.475v123z" fill="url(#c)" transform="translate(-85.351 -100.176)"/><path d="M113.075 254.716v-123h52.475v123z" fill="url(#d)" transform="translate(-85.351 -100.176)"/><path d="M292.199 152.274h-30.5c-7.301 0 7.789-48.764 7.789-48.764s-21.416-20.523-30.239-34.843c-10.609-17.22-15.05-61.393-15.05-61.393h65c8.81 0 16.5 5 16.5 15.5v118c0 9.458-5.782 11.5-13.5 11.5m-289-11.5v-118c0-10.5 7.69-15.5 16.5-15.5h65s-4.441 44.173-15.05 61.393C60.826 82.987 39.41 103.51 39.41 103.51s15.09 48.764 7.789 48.764h-30.5c-7.718 0-13.5-2.042-13.5-11.5" fill="#fa3e3e"/><path d="M92.05 170.994V143.57h73.5s-4.303 11.655-6.362 16.564c-1.71 4.076-5.138 10.859-5.138 10.859z" fill="url(#e)" transform="translate(-85.351 -100.176)"/><path d="M325.55 170.994s-3.429-6.783-5.138-10.86c-2.059-4.908-6.362-16.563-6.362-16.563h73.5v27.423z" fill="url(#f)" transform="translate(-85.351 -100.176)"/><path d="M14.319 9.233h277.8c7.757 0 12.179 5.226 12.179 9.145v29.593q-6.205 0-12.408 4.422-12.41 8.844-24.82 0-6.204-4.422-12.41-4.422-6.202 0-12.408 4.422-12.41 8.844-24.82 0-6.204-4.422-12.407-4.422-6.206 0-12.411 4.422-12.408 8.844-24.82 0-6.201-4.422-12.407-4.422t-12.411 4.422q-12.408 8.844-24.817 0-6.204-4.422-12.41-4.422t-12.408 4.422q-12.41 8.844-24.82 0-6.204-4.422-12.41-4.422-6.203 0-12.408 4.422-12.408 8.844-24.82 0C14.747 49.445 11.337 47.971 5 47.971V16.949c0-3.432 4.05-7.716 9.319-7.716" fill="#b32b2b"/><path d="M14.319 6.171h277.8c7.757 0 12.179 5.227 12.179 9.146v29.592q-6.205 0-12.408 4.423-12.41 8.844-24.82 0-6.204-4.423-12.41-4.423-6.202 0-12.408 4.423-12.41 8.844-24.82 0-6.204-4.423-12.407-4.423-6.206 0-12.411 4.423-12.408 8.844-24.82 0-6.201-4.423-12.407-4.423t-12.411 4.423q-12.408 8.844-24.817 0-6.204-4.423-12.41-4.423t-12.408 4.423q-12.41 8.844-24.82 0-6.204-4.423-12.41-4.423-6.203 0-12.408 4.423-12.408 8.844-24.82 0C14.747 46.383 11.337 44.909 5 44.909V13.888c0-3.432 4.05-7.717 9.319-7.717" fill="#fa3e3e"/><g stroke-width="0"><path d="M94.5 206.486V201.7s30.367-.49 30.475 2.464c.117 3.175-30.475 2.322-30.475 2.322" fill="url(#g)" transform="translate(-85.351 -100.176)"/><path d="M354.5 204.164c.11-2.954 30.476-2.464 30.476-2.464v4.786s-30.592.853-30.476-2.322" fill="url(#h)" transform="translate(-85.351 -100.176)"/><path d="M139.72 108.392h4.785s.49 30.367-2.465 30.475c-3.174.117-2.32-30.475-2.32-30.475" fill="url(#i)" transform="translate(-85.351 -100.176)"/><path d="M94.719 108.392h4.786s.49 30.367-2.465 30.475c-3.174.117-2.321-30.475-2.321-30.475" fill="url(#j)" transform="translate(-85.351 -100.176)"/><path d="M238.22 108.392h4.785s.49 30.367-2.465 30.475c-3.174.117-2.32-30.475-2.32-30.475" fill="url(#k)" transform="translate(-85.351 -100.176)"/><path d="M189.22 108.392h4.785s.49 30.367-2.465 30.475c-3.174.117-2.32-30.475-2.32-30.475" fill="url(#l)" transform="translate(-85.351 -100.176)"/><path d="M337.719 108.392h4.786s.49 30.367-2.465 30.475c-3.174.117-2.321-30.475-2.321-30.475" fill="url(#m)" transform="translate(-85.351 -100.176)"/><path d="M288.719 108.392h4.786s.49 30.367-2.465 30.475c-3.174.117-2.321-30.475-2.321-30.475" fill="url(#n)" transform="translate(-85.351 -100.176)"/><path d="M381.219 108.392h4.786s.49 30.367-2.465 30.475c-3.174.117-2.321-30.475-2.321-30.475" fill="url(#o)" transform="translate(-85.351 -100.176)"/></g><path d="M90.351 117.671c0-6.399 5.916-12.495 13.12-12.495h272.61c8.613 0 13.568 4.643 13.568 12.246v125.705c0 6.04-4.86 11.697-13.32 11.697H103.72c-7.328 0-13.369-4.523-13.369-11.947z" fill="none" stroke="url(#p)" stroke-width="10" transform="translate(-85.351 -100.176)"/><path d="M56.234 58.79a4.5 4.5 0 0 0 3.804-2.393l1.707-3.228c.809-1.525 3.115-1 3.181.725l.144 3.648a4.5 4.5 0 0 0 2.391 3.805l3.227 1.707c1.525.809 1 3.114-.725 3.183l-3.648.142a4.5 4.5 0 0 0-3.801 2.392l-1.71 3.226c-.807 1.525-3.112 1-3.181-.724l-.142-3.649a4.5 4.5 0 0 0-2.394-3.802l-3.227-1.707c-1.525-.809-1-3.114.725-3.183z" fill="none" stroke-opacity=".502" stroke="#000" stroke-width="5.5"/><path d="M56.234 58.79a4.5 4.5 0 0 0 3.804-2.393l1.707-3.228c.809-1.525 3.115-1 3.181.725l.144 3.648a4.5 4.5 0 0 0 2.391 3.805l3.227 1.707c1.525.809 1 3.114-.725 3.183l-3.648.142a4.5 4.5 0 0 0-3.801 2.392l-1.71 3.226c-.807 1.525-3.112 1-3.181-.724l-.142-3.649a4.5 4.5 0 0 0-2.394-3.802l-3.227-1.707c-1.525-.809-1-3.114.725-3.183z" fill="#fff"/><path d="M78.621 35.785a2.62 2.62 0 0 0 .345-2.596l-.81-1.967c-.382-.93.713-1.768 1.51-1.155l1.688 1.294a2.62 2.62 0 0 0 2.595.346l1.967-.81c.931-.381 1.769.713 1.157 1.511l-1.296 1.688a2.62 2.62 0 0 0-.345 2.594l.809 1.968c.383.93-.711 1.767-1.51 1.155l-1.687-1.295a2.62 2.62 0 0 0-2.595-.344l-1.968.81c-.93.382-1.767-.713-1.156-1.511z" fill="none" stroke-opacity=".502" stroke="#000" stroke-width="4"/><path d="M78.621 35.785a2.62 2.62 0 0 0 .345-2.596l-.81-1.967c-.382-.93.713-1.768 1.51-1.155l1.688 1.294a2.62 2.62 0 0 0 2.595.346l1.967-.81c.931-.381 1.769.713 1.157 1.511l-1.296 1.688a2.62 2.62 0 0 0-.345 2.594l.809 1.968c.383.93-.711 1.767-1.51 1.155l-1.687-1.295a2.62 2.62 0 0 0-2.595-.344l-1.968.81c-.93.382-1.767-.713-1.156-1.511z" fill="#fff"/><path d="M97.285 128.49q.783.62 2.7 1.693 1.927 1.072 3.676 1.072 1.757 0 1.757-1.362 0-.621-.5-1.096-.491-.476-1.813-1.088a55 55 0 0 1-1.983-.968q-.66-.354-1.757-1.16-1.088-.807-1.669-1.677-1.644-2.346-1.644-5.98 0-3.636 2.7-6.127 2.7-2.499 7.077-2.499 2.975 0 5.49.645 2.514.637 2.595 1.669v.242q0 1.45-.91 3.66-.904 2.2-1.274 2.45-2.644-1.363-4.732-1.363-2.08 0-2.08 1.483 0 .911 1.532 1.613.33.168.943.459.621.282 1.427.677a17 17 0 0 1 1.733.991q.927.597 2.007 1.588 2.184 2.064 2.184 5.45 0 4.416-2.434 7.221t-7.512 2.886q-2.475 0-4.482-.411-1.999-.411-3.49-1.604-1.483-1.2-1.483-2.894 0-1.692.62-3.361.621-1.677 1.322-2.209zm27.404-.169q0 4.047 3.055 4.046 1.982 0 3.304-.781.613 0 1.008 2.128.395 2.12.395 2.885 0 .766-.21 1.008-2.185 1.362-5.98 1.362-3.797 0-6.465-2.821-2.66-2.829-2.66-7.722t2.62-7.9q2.619-3.014 6.972-3.014 4.36 0 6.053 2.104.371.45.371 1.338 0 .887-.33 2.168-.742 2.644-1.943 3.055a2 2 0 0 1-.475.04q-.307 0-.766-.491-1.605-1.612-2.58-1.612-.966 0-1.668.991-.701.992-.701 3.216zm26.332 9.125q-2.604 1.523-6.69 1.523t-6.892-2.78q-2.805-2.79-2.805-7.723t2.7-7.94q2.708-3.014 6.836-3.014 4.126 0 6.376 2.104 2.248 2.104 2.248 5.118 0 6.682-7.673 6.682h-2.853q0 1.242.677 1.717.684.476 2.007.476 2.894 0 5.489-1.322.04-.04.37.572.993 1.782.992 2.999 0 1.216-.782 1.588zm-5.159-11.93q0-1.733-1.692-1.733-.782 0-1.346.476-.556.475-.556 1.378v1.282h2.232q1.362 0 1.362-1.403zm18.236 12.792q0 .29-2.966.29-4.127-.12-4.127-.451v-13.373h-1.072q-1.073 0-1.403-1.814a6.6 6.6 0 0 1-.089-1.072q0-1.282.5-2.563.741-1.815 2.305-1.814 1.572 0 2.805.742 1.242.74 1.66 1.483 2.596-2.225 6.183-2.225 3.595 0 5.2 1.943 1.611 1.935 1.611 6.351v12.381q0 .492-3.53.492-3.523 0-3.523-.492v-11.93q0-2.063-1.442-2.063-.42 0-1.161.355-.742.346-.951.516zm29.72-.862q-2.604 1.523-6.69 1.523t-6.892-2.78q-2.805-2.79-2.805-7.723t2.7-7.94q2.708-3.014 6.835-3.014 4.128 0 6.376 2.104 2.25 2.104 2.249 5.118 0 6.682-7.674 6.682h-2.853q0 1.242.677 1.717.685.476 2.007.476 2.894 0 5.49-1.322.04-.04.37.572.991 1.782.991 2.999 0 1.216-.781 1.588zm-5.16-11.93q0-1.733-1.692-1.733-.782 0-1.346.476-.555.475-.556 1.378v1.282h2.233q1.362 0 1.362-1.403zm10.482 5.61q3.345 2.023 5.28 2.023 1.24 0 1.24-.862 0-.62-2.143-1.612-5.16-2.104-5.159-6.892 0-3.056 2.225-4.659 2.233-1.612 5.344-1.612 3.12 0 5.28.661 2.168.66 2.168 1.733 0 .903-.887 2.394-.886 1.483-1.217 1.604a7.8 7.8 0 0 0-3.837-.983q-1.112 0-1.112.782 0 .491.427.846.435.345 1.588.862 1.16.516 1.918.935.766.411 1.717 1.153 1.983 1.564 1.983 4.087 0 3.296-2.192 5.344-2.185 2.04-6.602 2.039-2.925 0-5.32-.991-2.394-.992-2.394-2.725 0-1.152.557-2.426.556-1.281 1.136-1.7z" fill="none" stroke-opacity=".502" stroke="#000" stroke-width="7.5" stroke-linecap="square" stroke-linejoin="round"/><path d="M97.285 128.49q.783.62 2.7 1.693 1.927 1.072 3.676 1.072 1.757 0 1.757-1.362 0-.621-.5-1.096-.491-.476-1.813-1.088a55 55 0 0 1-1.983-.968q-.66-.354-1.757-1.16-1.088-.807-1.669-1.677-1.644-2.346-1.644-5.98 0-3.636 2.7-6.127 2.7-2.499 7.077-2.499 2.975 0 5.49.645 2.514.637 2.595 1.669v.242q0 1.45-.91 3.66-.904 2.2-1.274 2.45-2.644-1.363-4.732-1.363-2.08 0-2.08 1.483 0 .912 1.532 1.612.33.17.943.46.621.282 1.427.677a17 17 0 0 1 1.733.991q.927.597 2.007 1.588 2.184 2.064 2.184 5.45 0 4.416-2.434 7.221t-7.512 2.886q-2.475 0-4.482-.411-2-.411-3.49-1.604-1.483-1.2-1.483-2.894 0-1.692.62-3.361.621-1.677 1.322-2.209m27.404-.169q0 4.047 3.055 4.046 1.982 0 3.304-.781.613 0 1.008 2.128.395 2.12.395 2.885 0 .766-.21 1.008-2.185 1.362-5.98 1.362-3.797 0-6.465-2.821-2.66-2.829-2.66-7.722t2.62-7.9q2.619-3.014 6.972-3.014 4.36 0 6.053 2.104.371.45.371 1.338 0 .887-.33 2.168-.742 2.644-1.943 3.055a2 2 0 0 1-.475.04q-.307 0-.766-.491-1.605-1.612-2.58-1.612-.966 0-1.668.991-.701.992-.701 3.216m26.332 9.125q-2.604 1.523-6.69 1.523t-6.892-2.78q-2.805-2.79-2.805-7.723t2.7-7.94q2.708-3.014 6.836-3.014 4.126 0 6.376 2.104 2.248 2.103 2.248 5.118 0 6.682-7.673 6.682h-2.853q0 1.242.677 1.717.684.476 2.007.476 2.894 0 5.489-1.322.04-.04.37.572.993 1.782.992 2.999 0 1.216-.782 1.588m-5.159-11.93q0-1.733-1.692-1.733-.782 0-1.346.476-.556.475-.556 1.378v1.282h2.232q1.362 0 1.362-1.403m18.236 12.792q0 .29-2.966.29-4.127-.12-4.127-.451v-13.373h-1.072q-1.073 0-1.403-1.814a6.6 6.6 0 0 1-.089-1.072q0-1.282.5-2.563.742-1.815 2.305-1.814 1.572 0 2.805.742 1.242.74 1.66 1.483 2.596-2.225 6.183-2.225 3.595 0 5.2 1.943 1.611 1.935 1.611 6.351v12.381q0 .492-3.53.492-3.522 0-3.523-.492v-11.93q0-2.063-1.442-2.063-.42 0-1.161.355-.742.346-.951.516zm29.72-.862q-2.604 1.523-6.69 1.523t-6.892-2.78q-2.805-2.79-2.805-7.723t2.7-7.94q2.708-3.014 6.835-3.014 4.128 0 6.376 2.104 2.25 2.103 2.249 5.118 0 6.682-7.674 6.682h-2.853q0 1.242.677 1.717.685.476 2.007.476 2.894 0 5.49-1.322.04-.04.37.572.991 1.782.991 2.999 0 1.216-.781 1.588m-5.16-11.93q0-1.733-1.692-1.733-.782 0-1.346.476-.555.475-.556 1.378v1.282h2.233q1.362 0 1.362-1.403m10.482 5.61q3.345 2.023 5.28 2.023 1.24 0 1.24-.862 0-.62-2.143-1.612-5.16-2.104-5.159-6.892 0-3.055 2.225-4.659 2.232-1.612 5.344-1.612 3.12 0 5.28.661 2.168.66 2.168 1.733 0 .903-.887 2.394-.886 1.483-1.217 1.604a7.8 7.8 0 0 0-3.837-.983q-1.112 0-1.112.782 0 .491.427.846.435.345 1.588.862 1.16.516 1.918.935.766.411 1.717 1.153 1.983 1.564 1.983 4.087 0 3.296-2.192 5.344-2.185 2.04-6.602 2.039-2.925 0-5.32-.991-2.394-.992-2.394-2.725 0-1.152.557-2.426.556-1.281 1.136-1.7" fill="#fff"/><path d="M252.101 71.827a4.73 4.73 0 0 0-3.11 3.567l-.742 3.772c-.353 1.783-2.837 1.953-3.427.234l-1.252-3.634a4.73 4.73 0 0 0-3.565-3.11l-3.77-.743c-1.784-.353-1.954-2.837-.236-3.43l3.636-1.25a4.73 4.73 0 0 0 3.107-3.564l.745-3.77c.35-1.784 2.834-1.954 3.427-.236l1.25 3.636a4.73 4.73 0 0 0 3.566 3.107l3.772.742c1.783.353 1.953 2.837.234 3.43z" fill="none" stroke-opacity=".502" stroke="#000" stroke-width="5.5"/><path d="M252.101 71.827a4.73 4.73 0 0 0-3.11 3.567l-.742 3.772c-.353 1.783-2.837 1.953-3.427.234l-1.252-3.634a4.73 4.73 0 0 0-3.565-3.11l-3.77-.743c-1.784-.353-1.954-2.837-.236-3.43l3.636-1.25a4.73 4.73 0 0 0 3.107-3.564l.745-3.77c.35-1.784 2.834-1.954 3.427-.236l1.25 3.636a4.73 4.73 0 0 0 3.566 3.107l3.772.742c1.783.353 1.953 2.837.234 3.43z" fill="#fff"/><path d="M227.549 97.334c-.35.92-.182 1.958.44 2.722l1.414 1.738c.667.822-.182 1.998-1.172 1.623l-2.095-.794a2.76 2.76 0 0 0-2.722.439l-1.737 1.413c-.823.667-1.999-.182-1.624-1.173l.794-2.094c.35-.92.182-1.957-.44-2.72l-1.411-1.739c-.668-.821.18-1.997 1.171-1.623l2.095.795c.92.35 1.957.181 2.72-.44l1.738-1.414c.823-.668 1.999.182 1.624 1.173z" fill="none" stroke-opacity=".502" stroke="#000" stroke-width="4"/><path d="M227.549 97.334c-.35.92-.182 1.958.44 2.722l1.414 1.738c.667.822-.182 1.998-1.172 1.623l-2.095-.794a2.76 2.76 0 0 0-2.722.439l-1.737 1.413c-.823.667-1.999-.182-1.624-1.173l.794-2.094c.35-.92.182-1.957-.44-2.72l-1.411-1.739c-.668-.821.18-1.997 1.171-1.623l2.095.795c.92.35 1.957.181 2.72-.44l1.738-1.414c.823-.668 1.999.182 1.624 1.173z" fill="#fff"/><path d="M136.138 102.357a4.91 4.91 0 0 1-5.698-3.971l-6.39-35.775 53.609-9.576a4.91 4.91 0 0 1 5.698 3.971l5.526 30.94a4.91 4.91 0 0 1-3.97 5.699z" fill="none" stroke-opacity=".502" stroke="#000" stroke-width="6.5"/><path d="M136.138 102.357a4.91 4.91 0 0 1-5.698-3.971l-6.39-35.775 53.609-9.576a4.91 4.91 0 0 1 5.698 3.971l5.526 30.94a4.91 4.91 0 0 1-3.97 5.699z" fill="#fff"/><path d="m126.113 74.161-2.063-11.55 53.609-9.576a4.91 4.91 0 0 1 5.698 3.971l1.205 6.747zm28.278 2.945 9.807 3.545c1.905.689 2.384 3.417.832 4.725l-7.769 6.548c-1.836 1.548-3.561.909-3.992-1.504l-1.949-10.91c-.298-1.672.93-3.177 3.07-2.404" fill="#e23838"/><path d="m126.687 77.194-.512-3.124 58.344-10.375.512 3.123z" fill="#e23838"/><path d="m146.987 58.638-2.549 12.207-7.834 1.399 2.548-12.206zm15.52-2.772-2.548 12.206-7.834 1.4 2.548-12.207z" fill="#fff"/><path d="m123.129 61.727-3.149-5.833c-1.283-2.377-.418-5.333 1.932-6.602l43.506-23.501c2.35-1.27 5.297-.372 6.58 2.004l.827 1.53c1.283 2.376.419 5.332-1.932 6.602z" fill="none" stroke-opacity=".502" stroke="#000" stroke-width="6.5"/><path d="m123.129 61.727-3.149-5.833c-1.283-2.377-.418-5.333 1.932-6.602l43.506-23.501c2.35-1.27 5.297-.372 6.58 2.004l.827 1.53c1.283 2.376.419 5.332-1.932 6.602z" fill="#e23838"/><path d="m136.652 54.481-9.552-7.932 6.973-3.768 9.552 7.933zm13.813-7.464-9.552-7.933 6.972-3.767 9.553 7.932zm13.907-7.505-9.552-7.933 6.972-3.768 9.552 7.933zm13.757 13.564-2.549 12.206-7.834 1.4 2.548-12.207zm-58.479 1.463c3.135-1.834 10.204.483 11.745 5.582s-1.045 10.704-5.782 11.739c-.219.048-2.273-9.915-2.273-9.915s-3.862-7.305-3.69-7.406" fill="#fff"/></g></svg>
