<svg version="1.1" xmlns="http://www.w3.org/2000/svg" xmlns:xlink="http://www.w3.org/1999/xlink" width="309.2973" height="159.64866" viewBox="0,0,309.2973,159.64866"><defs><linearGradient x1="325" y1="125.17575" x2="325" y2="274.82437" gradientUnits="userSpaceOnUse" id="color-1"><stop offset="0" stop-color="#b46e1d"/><stop offset="1" stop-color="#ff9b29"/></linearGradient></defs><g transform="translate(-170.35135,-120.17573)"><g fill-rule="nonzero" stroke-miterlimit="10" stroke-dasharray="" stroke-dashoffset="0" style="mix-blend-mode: normal"><path d="M175.17568,274.82433v-149.64865h299.64865v149.64865z" fill="#4e97fe" stroke="none" stroke-width="0" stroke-linecap="butt" stroke-linejoin="miter"/><path d="M275.3298,274.83333l49.87363,-49.87363v49.87363z" fill="#1878ff" stroke="none" stroke-width="0" stroke-linecap="butt" stroke-linejoin="miter"/><path d="M325.20344,274.83333l49.87363,-49.87363v49.87363z" fill="#1878ff" stroke="none" stroke-width="0" stroke-linecap="butt" stroke-linejoin="miter"/><path d="M225.45617,274.83333l49.87363,-49.87363v49.87363z" fill="#1878ff" stroke="none" stroke-width="0" stroke-linecap="butt" stroke-linejoin="miter"/><path d="M175.88297,274.83333l49.87363,-49.87363v49.87363z" fill="#1878ff" stroke="none" stroke-width="0" stroke-linecap="butt" stroke-linejoin="miter"/><path d="M275.32981,224.83333l49.87363,-49.87363v49.87363z" fill="#1878ff" stroke="none" stroke-width="0" stroke-linecap="butt" stroke-linejoin="miter"/><path d="M325.20344,224.83333l49.87363,-49.87363v49.87363z" fill="#1878ff" stroke="none" stroke-width="0" stroke-linecap="butt" stroke-linejoin="miter"/><path d="M375.07707,274.40655l99.44684,-99.44684v99.44684z" fill="#1878ff" stroke="none" stroke-width="0" stroke-linecap="butt" stroke-linejoin="miter"/><path d="M175.88297,224.83333l99.44684,-99.44682v99.44682z" fill="#1878ff" stroke="none" stroke-width="0" stroke-linecap="butt" stroke-linejoin="miter"/><g fill="#1878ff" stroke="none" stroke-width="0" stroke-linecap="butt" stroke-linejoin="miter"><path d="M275.32981,175.33336l49.87363,-49.87364v49.87364z"/><path d="M325.20344,175.33336l49.87363,-49.87364v49.87364z"/><path d="M375.07707,175.33336l49.87363,-49.87364v49.87364z"/><path d="M424.9507,175.33336l49.87363,-49.87364v49.87364z"/></g><path d="M175.35135,262.32872c0,-17.01262 0,-95.04491 0,-125.20604c0,-7.42345 6.04071,-11.94695 13.36861,-11.94695c29.18397,0 220.14329,0 272.60996,0c8.4596,0 13.31873,5.6579 13.31873,11.69754c0,16.61247 0,95.11275 0,125.70487c0,7.60247 -4.95455,12.24625 -13.56814,12.24625c-52.88164,0 -243.67744,0 -272.60996,0c-7.20375,0 -13.1192,-6.09669 -13.1192,-12.49566z" fill="none" stroke="url(#color-1)" stroke-width="10" stroke-linecap="butt" stroke-linejoin="miter"/><path d="M314.45238,220.42393c0,-0.61238 1.66603,-0.91857 4.99809,-0.91857c3.33806,0 5.00709,0.30619 5.00709,0.91857v21.16308c0,3.13995 -1.1227,5.70052 -3.36808,7.68175c-2.23939,1.98122 -5.33429,2.97184 -9.28474,2.97184c-3.95045,0 -7.16243,-1.02063 -9.63596,-3.06189c-2.47353,-2.04727 -3.71029,-4.80596 -3.71029,-8.27611v-20.42462c0,-0.61838 1.66603,-0.92757 4.99809,-0.92757c3.33807,0 5.0071,0.30919 5.0071,0.92757v20.79386c0,0.61238 0.3212,1.10168 0.9636,1.46791c0.67841,0.37223 1.38686,0.55834 2.12532,0.55834c0.73845,0 1.40487,-0.1681 1.99923,-0.50431c0.60037,-0.34221 0.90055,-0.84953 0.90055,-1.52194zM338.70759,251.50214c0,0.37223 -1.2908,0.55835 -3.87239,0.55835c-3.0739,-0.12608 -4.61085,-0.32721 -4.61085,-0.60337v-16.31808h-2.35045c-0.61838,0 -0.92757,-1.06265 -0.92757,-3.18797c0,-0.55234 0.05403,-1.22776 0.1621,-2.02625c0.10807,-0.7985 0.33321,-1.19773 0.67542,-1.19773h2.44051v-4.06151c0,-0.61238 1.2968,-0.91856 3.8904,-0.91856c2.59961,0 3.89941,0.24615 3.89941,0.73845v2.95382l0.04503,1.2878h3.92642c0.52233,0 0.78349,1.07766 0.78349,3.233c0,2.14933 -0.26116,3.224 -0.78348,3.224h-3.27803zM353.50516,251.50214c0,0.24615 -1.40787,0.36924 -4.22361,0.36924c-2.80973,0 -4.21461,-0.10807 -4.21461,-0.32421v-22.63999c0,-0.21013 1.40487,-0.3152 4.21461,-0.3152c2.81574,0 4.22361,0.09006 4.22361,0.27017zM353.50516,226.14247c0,0.21614 -1.40787,0.3242 -4.22361,0.3242c-2.80973,0 -4.21461,-0.09305 -4.21461,-0.27917v-6.6371c0,-0.30619 1.40487,-0.45928 4.21461,-0.45928c2.81574,0 4.22361,0.09306 4.22361,0.27918zM366.04773,251.41209c0,0.27618 -1.56696,0.41426 -4.70089,0.41426c-2.46152,-0.03001 -3.69228,-0.15309 -3.69228,-0.36923v-31.4024c0,-0.45629 1.49192,-0.68443 4.47577,-0.68443c2.6116,0.09006 3.9174,0.24316 3.9174,0.45929zM378.63428,251.50214c0,0.24615 -1.40787,0.36924 -4.22361,0.36924c-2.80973,0 -4.21461,-0.10807 -4.21461,-0.32421v-22.63999c0,-0.21013 1.40487,-0.3152 4.21461,-0.3152c2.81574,0 4.22361,0.09006 4.22361,0.27017zM378.63428,226.14247c0,0.21614 -1.40787,0.3242 -4.22361,0.3242c-2.80973,0 -4.21461,-0.09305 -4.21461,-0.27917v-6.6371c0,-0.30619 1.40487,-0.45928 4.21461,-0.45928c2.81574,0 4.22361,0.09306 4.22361,0.27918zM393.39222,251.50214c0,0.37223 -1.29079,0.55835 -3.87239,0.55835c-3.0739,-0.12608 -4.61085,-0.32721 -4.61085,-0.60337v-16.31808h-2.35045c-0.61838,0 -0.92757,-1.06265 -0.92757,-3.18797c0,-0.55234 0.05404,-1.22776 0.1621,-2.02625c0.10807,-0.7985 0.33321,-1.19773 0.67542,-1.19773h2.44051v-4.06151c0,-0.61238 1.2968,-0.91856 3.8904,-0.91856c2.59961,0 3.89941,0.24615 3.89941,0.73845v2.95382l0.04503,1.2878h3.92642c0.52233,0 0.78348,1.07766 0.78348,3.233c0,2.14933 -0.26115,3.224 -0.78348,3.224h-3.27803zM408.18981,251.50214c0,0.24615 -1.40787,0.36924 -4.22361,0.36924c-2.80973,0 -4.21461,-0.10807 -4.21461,-0.32421v-22.63999c0,-0.21013 1.40487,-0.3152 4.21461,-0.3152c2.81574,0 4.22361,0.09006 4.22361,0.27017zM408.18981,226.14247c0,0.21614 -1.40787,0.3242 -4.22361,0.3242c-2.80973,0 -4.21461,-0.09305 -4.21461,-0.27917v-6.6371c0,-0.30619 1.40487,-0.45928 4.21461,-0.45928c2.81574,0 4.22361,0.09306 4.22361,0.27918zM429.77397,250.53855c-1.93919,1.1347 -4.43074,1.70205 -7.47462,1.70205c-3.04388,0 -5.61046,-1.03564 -7.69975,-3.10692c-2.08929,-2.07728 -3.13394,-4.95306 -3.13394,-8.62733c0,-3.67427 1.00562,-6.6311 3.01686,-8.87048c2.01725,-2.24538 4.56282,-3.36809 7.63672,-3.36809c3.0739,0 5.44837,0.78348 7.1234,2.35045c1.67503,1.56697 2.51256,3.47315 2.51256,5.71854c0,4.97708 -2.85776,7.46561 -8.5733,7.46561h-3.18797c0,0.92458 0.25216,1.56396 0.75646,1.91819c0.51031,0.35422 1.25778,0.53133 2.24239,0.53133c2.15533,0 4.1996,-0.49231 6.1328,-1.47691c0.03001,-0.03001 0.1681,0.18311 0.41425,0.6394c0.73845,1.32682 1.10769,2.44351 1.10769,3.35008c0,0.90656 -0.29118,1.49792 -0.87354,1.77409zM424.01041,237.21031c0,-1.2908 -0.63039,-1.93619 -1.89117,-1.93619c-0.58236,0 -1.08367,0.17711 -1.50393,0.53133c-0.41426,0.35422 -0.62138,0.86753 -0.62138,1.53995v1.43189h2.49454c1.01463,0 1.52195,-0.52232 1.52195,-1.56697zM435.72049,243.47818c2.49154,1.50693 4.45776,2.2604 5.89865,2.2604c0.92458,0 1.38686,-0.3212 1.38686,-0.9636c0,-0.46229 -0.7985,-1.06266 -2.39548,-1.80111c-3.84238,-1.56697 -5.76356,-4.13356 -5.76356,-7.69976c0,-2.27541 0.82851,-4.01047 2.48553,-5.20521c1.66303,-1.20074 3.65326,-1.80112 5.9707,-1.80112c2.32344,0 4.28965,0.24616 5.89865,0.73846c1.615,0.4923 2.4225,1.1377 2.4225,1.9362c0,0.67242 -0.33021,1.56396 -0.99061,2.67466c-0.66041,1.10468 -1.11369,1.70206 -1.35984,1.79211c-1.32082,-0.73245 -2.7497,-1.09868 -4.28665,-1.09868c-0.82851,0 -1.24277,0.29119 -1.24277,0.87355c0,0.36623 0.1591,0.68142 0.4773,0.94558c0.3242,0.25816 0.91557,0.57936 1.7741,0.9636c0.86453,0.38424 1.57898,0.73245 2.14333,1.04465c0.57035,0.30619 1.20974,0.73546 1.91818,1.2878c1.47692,1.16472 2.21537,2.68666 2.21537,4.56583c0,2.45552 -0.81651,4.44574 -2.44952,5.97069c-1.62701,1.51894 -4.08553,2.27841 -7.37556,2.27841c-2.17935,0 -4.16057,-0.36923 -5.94367,-1.10769c-1.7831,-0.73845 -2.67465,-1.75308 -2.67465,-3.04388c0,-0.85853 0.20713,-1.76209 0.62139,-2.71067c0.41426,-0.95459 0.83752,-1.58798 1.26979,-1.90017z" fill="none" stroke-opacity="0.50196" stroke="#000000" stroke-width="10" stroke-linecap="square" stroke-linejoin="miter"/><path d="M314.45238,220.42393c0,-0.61238 1.66603,-0.91857 4.99809,-0.91857c3.33807,0 5.00709,0.30619 5.00709,0.91857v21.16308c0,3.13994 -1.1227,5.70053 -3.36808,7.68175c-2.23939,1.98122 -5.3343,2.97184 -9.28474,2.97184c-3.95044,0 -7.16243,-1.02063 -9.63596,-3.06189c-2.47353,-2.04726 -3.71029,-4.80597 -3.71029,-8.27611v-20.42462c0,-0.61838 1.66603,-0.92757 4.99809,-0.92757c3.33807,0 5.00709,0.30919 5.00709,0.92758v20.79386c0,0.61238 0.3212,1.10168 0.9636,1.46791c0.67842,0.37223 1.38686,0.55835 2.12531,0.55835c0.73846,0 1.40487,-0.16811 1.99924,-0.50431c0.60037,-0.34221 0.90056,-0.84953 0.90056,-1.52194zM338.70759,251.50214c0,0.37223 -1.2908,0.55835 -3.87239,0.55835c-3.0739,-0.12608 -4.61085,-0.3272 -4.61085,-0.60337v-16.31809h-2.35045c-0.61838,0 -0.92757,-1.06266 -0.92757,-3.18797c0,-0.55234 0.05403,-1.22776 0.1621,-2.02625c0.10807,-0.7985 0.33321,-1.19774 0.67542,-1.19774h2.44051v-4.06151c0,-0.61238 1.2968,-0.91857 3.8904,-0.91857c2.59961,0 3.89941,0.24615 3.89941,0.73846v2.95383l0.04503,1.2878h3.92643c0.52232,0 0.78349,1.07767 0.78349,3.233c0,2.14933 -0.26116,3.22399 -0.78348,3.22399h-3.27803zM353.50516,251.50214c0,0.24615 -1.40787,0.36923 -4.22361,0.36923c-2.80974,0 -4.21461,-0.10807 -4.21461,-0.3242v-22.63999c0,-0.21013 1.40487,-0.31519 4.21461,-0.31519c2.81574,0 4.22361,0.09006 4.22361,0.27017zM353.50516,226.14247c0,0.21613 -1.40787,0.3242 -4.22361,0.3242c-2.80974,0 -4.21461,-0.09306 -4.21461,-0.27917v-6.6371c0,-0.30619 1.40487,-0.45928 4.21461,-0.45928c2.81574,0 4.22361,0.09306 4.22361,0.27918zM366.04773,251.41209c0,0.27617 -1.56696,0.41426 -4.70089,0.41426c-2.46152,-0.03002 -3.69228,-0.15309 -3.69228,-0.36923v-31.40241c0,-0.45628 1.49192,-0.68442 4.47577,-0.68442c2.6116,0.09006 3.9174,0.24315 3.9174,0.45929zM378.63427,251.50214c0,0.24615 -1.40787,0.36923 -4.22361,0.36923c-2.80974,0 -4.21461,-0.10807 -4.21461,-0.3242v-22.63999c0,-0.21013 1.40487,-0.31519 4.21461,-0.31519c2.81574,0 4.22361,0.09006 4.22361,0.27017zM378.63427,226.14247c0,0.21613 -1.40787,0.3242 -4.22361,0.3242c-2.80974,0 -4.21461,-0.09306 -4.21461,-0.27917v-6.6371c0,-0.30619 1.40487,-0.45928 4.21461,-0.45928c2.81574,0 4.22361,0.09306 4.22361,0.27918zM393.39222,251.50214c0,0.37223 -1.2908,0.55835 -3.87239,0.55835c-3.0739,-0.12608 -4.61085,-0.3272 -4.61085,-0.60337v-16.31809h-2.35045c-0.61838,0 -0.92757,-1.06266 -0.92757,-3.18797c0,-0.55234 0.05403,-1.22776 0.1621,-2.02625c0.10807,-0.7985 0.33321,-1.19774 0.67542,-1.19774h2.44051v-4.06151c0,-0.61238 1.2968,-0.91857 3.8904,-0.91857c2.59961,0 3.89941,0.24615 3.89941,0.73846v2.95383l0.04503,1.2878h3.92643c0.52232,0 0.78349,1.07767 0.78349,3.233c0,2.14933 -0.26116,3.22399 -0.78348,3.22399h-3.27803zM408.18981,251.50214c0,0.24615 -1.40787,0.36923 -4.22361,0.36923c-2.80974,0 -4.21461,-0.10807 -4.21461,-0.3242v-22.63999c0,-0.21013 1.40487,-0.31519 4.21461,-0.31519c2.81574,0 4.22361,0.09006 4.22361,0.27017zM408.18981,226.14247c0,0.21613 -1.40787,0.3242 -4.22361,0.3242c-2.80974,0 -4.21461,-0.09306 -4.21461,-0.27917v-6.6371c0,-0.30619 1.40487,-0.45928 4.21461,-0.45928c2.81574,0 4.22361,0.09306 4.22361,0.27918zM429.77397,250.53854c-1.9392,1.1347 -4.43074,1.70205 -7.47462,1.70205c-3.04388,0 -5.61046,-1.03564 -7.69976,-3.10692c-2.08929,-2.07729 -3.13394,-4.95306 -3.13394,-8.62733c0,-3.67427 1.00562,-6.6311 3.01687,-8.87048c2.01725,-2.24539 4.56282,-3.36808 7.63672,-3.36808c3.0739,0 5.44837,0.78349 7.12341,2.35046c1.67504,1.56697 2.51256,3.47315 2.51256,5.71854c0,4.97708 -2.85776,7.46562 -8.5733,7.46562h-3.18797c0,0.92457 0.25216,1.56397 0.75647,1.91819c0.51032,0.35422 1.25778,0.53133 2.24239,0.53133c2.15533,0 4.1996,-0.49231 6.13279,-1.47691c0.03002,-0.03002 0.16811,0.18311 0.41426,0.6394c0.73846,1.32682 1.10769,2.44351 1.10769,3.35007c0,0.90656 -0.29118,1.49793 -0.87354,1.7741zM424.0104,237.21031c0,-1.2908 -0.63039,-1.93619 -1.89117,-1.93619c-0.58236,0 -1.08367,0.17711 -1.50393,0.53133c-0.41426,0.35422 -0.62138,0.86754 -0.62138,1.53995v1.43189h2.49454c1.01463,0 1.52194,-0.52232 1.52194,-1.56697zM435.72049,243.47818c2.49154,1.50693 4.45776,2.2604 5.89865,2.2604c0.92457,0 1.38686,-0.3212 1.38686,-0.96359c0,-0.46228 -0.7985,-1.06266 -2.39548,-1.80111c-3.84238,-1.56697 -5.76356,-4.13355 -5.76356,-7.69976c0,-2.27541 0.82851,-4.01048 2.48554,-5.20522c1.66303,-1.20074 3.65326,-1.80111 5.97069,-1.80111c2.32344,0 4.28965,0.24615 5.89865,0.73846c1.615,0.49231 2.4225,1.1377 2.4225,1.9362c0,0.67242 -0.33021,1.56397 -0.99061,2.67466c-0.66041,1.10468 -1.11369,1.70205 -1.35984,1.79211c-1.32082,-0.73245 -2.7497,-1.09868 -4.28665,-1.09868c-0.82851,0 -1.24277,0.29118 -1.24277,0.87354c0,0.36623 0.1591,0.68142 0.4773,0.94559c0.3242,0.25816 0.91556,0.57936 1.7741,0.9636c0.86453,0.38424 1.57897,0.73245 2.14332,1.04465c0.57035,0.30619 1.20975,0.73545 1.91819,1.2878c1.47691,1.16472 2.21537,2.68666 2.21537,4.56582c0,2.45552 -0.81651,4.44575 -2.44951,5.97069c-1.62701,1.51894 -4.08552,2.27841 -7.37556,2.27841c-2.17935,0 -4.16057,-0.36923 -5.94367,-1.10768c-1.7831,-0.73846 -2.67465,-1.75309 -2.67465,-3.04388c0,-0.85853 0.20713,-1.76209 0.62139,-2.71067c0.41426,-0.95459 0.83752,-1.58798 1.26979,-1.90017z" fill="#ffffff" stroke="none" stroke-width="1" stroke-linecap="square" stroke-linejoin="miter"/><path d="M246.04883,218.59242l5.19601,0.81905c4.88345,5.02305 7.63094,16.12542 1.8086,19.66725c-0.4225,0.2582 -8.39441,-1.23291 -8.90956,-1.05996" fill="#faa51f" stroke="#8e5322" stroke-width="2.5" stroke-linecap="round" stroke-linejoin="round"/><path d="M256.08628,233.3305c-2.45346,10.47478 -6.93048,14.62813 -11.48656,12.6997c-1.94325,-0.803 -3.16504,-6.48203 1.84689,-11.74475" fill="#faa51f" stroke="#8e5322" stroke-width="2.5" stroke-linecap="round" stroke-linejoin="round"/><path d="M232.45347,237.46656c0.86477,0.86477 2.59553,2.34845 -1.23538,5.93105c-3.82844,3.5826 -12.4761,2.47076 -13.4644,2.22369c-3.70614,-0.74123 -8.40058,-1.85307 -13.09626,-4.81798c-13.58918,-8.39935 -9.88304,-24.7076 -4.5709,-26.19005c5.31214,-1.48122 5.06506,9.01951 10.25365,16.67763c2.34722,3.4603 5.55921,5.31337 8.40059,6.54875c3.95322,1.85307 12.84795,-1.11184 13.71272,-0.37309z" fill="#faa51f" stroke="none" stroke-width="1" stroke-linecap="butt" stroke-linejoin="miter"/><path d="M205.15158,219.92663c1.35768,3.45907 3.95322,9.63596 3.95322,9.63596c0,0 -4.81798,-1.97784 -7.90643,-0.37061c-3.08845,1.60476 -1.48245,7.16397 -3.08845,5.43444c-1.11184,-1.97537 -2.84138,-5.18859 -3.08845,-9.75826c-0.12231,-4.57091 2.71784,-10.13012 5.31214,-10.37719c2.71784,0 3.70614,2.22244 4.81798,5.43567z" fill="#ffffff" stroke="none" stroke-width="1" stroke-linecap="butt" stroke-linejoin="miter"/><path d="M232.45347,237.46656c0.86477,0.86477 2.59553,2.34845 -1.23538,5.93105c-3.82844,3.5826 -12.4761,2.47076 -13.4644,2.22369c-3.70614,-0.74123 -8.40058,-1.85307 -13.09626,-4.81798c-13.58918,-8.39935 -9.88304,-24.7076 -4.5709,-26.19005c5.31214,-1.48122 5.06506,9.01951 10.25365,16.67763c2.34722,3.4603 5.55921,5.31337 8.40059,6.54875c3.95322,1.85307 12.84795,-1.11184 13.71272,-0.37309z" fill="none" stroke="#8e5322" stroke-width="2.5" stroke-linecap="round" stroke-linejoin="round"/><path d="M248.88402,240.55624c0,0 -2.10014,6.79459 -1.11184,17.66717c0.37061,4.69444 9.14181,-0.61769 8.52412,8.52288c-0.24707,2.59553 -11.61257,2.34723 -14.20687,1.36016c-2.34722,-0.86476 -2.96491,-1.72953 -2.59553,-4.20029c1.36015,-9.01827 -3.21199,-19.39546 -3.21199,-19.39546" fill="#faa51f" stroke="#8e5322" stroke-width="2.5" stroke-linecap="round" stroke-linejoin="round"/><path d="M246.78388,260.57063c1.85307,-0.37061 3.45907,-0.12354 3.45907,-0.12354" fill="#faa51f" stroke="#8e5322" stroke-width="2.5" stroke-linecap="round" stroke-linejoin="round"/><path d="M249.87233,227.09184c0,8.27704 2.10014,20.38376 -12.60088,20.38376c-14.70102,0 -13.3421,-11.11841 -13.3421,-19.39546c0,-8.27704 5.06506,-10.50073 13.3421,-10.50073c8.27704,0 12.60088,1.23538 12.60088,9.51243z" fill="#faa51f" stroke="#8e5322" stroke-width="2.5" stroke-linecap="round" stroke-linejoin="round"/><path d="M246.66034,230.6732c0,5.18859 1.11184,12.97149 -6.79459,12.97149c-7.90519,0 -7.2875,-7.04043 -7.2875,-12.22903c0,-5.18859 2.71783,-6.67105 7.2875,-6.67105c4.57091,-0.00124 6.79459,0.74123 6.79459,5.92859z" fill="#ffffff" stroke="none" stroke-width="1" stroke-linecap="butt" stroke-linejoin="miter"/><path d="M236.40545,247.84375c0,0 -1.85307,11.24195 -1.48246,16.43055c0.24707,2.59553 -0.73999,3.95445 -3.33429,4.4486c-2.71784,0.49415 -12.10672,0.74123 -12.23026,-2.34722c-0.49415,-9.38765 6.42397,-3.5826 7.1652,-8.27704c1.606,-10.7478 -1.60599,-17.54239 -1.60599,-17.54239" fill="#faa51f" stroke="#8e5322" stroke-width="2.5" stroke-linecap="round" stroke-linejoin="round"/><path d="M223.55874,260.32232c0,0 1.97661,-0.24584 3.70614,0.24707" fill="#faa51f" stroke="#8e5322" stroke-width="2.5" stroke-linecap="round" stroke-linejoin="round"/><path d="M226.09127,237.03664c-0.20507,-0.11489 -9.59766,2.40899 -9.77185,2.26074c-4.11999,-3.50725 0.41385,-15.93392 8.47471,-22.33566l9.75826,1.72953" fill="#faa51f" stroke="#8e5322" stroke-width="2.5" stroke-linecap="round" stroke-linejoin="round"/><path d="M227.75903,226.59645c-1.43921,3.87292 -3.80744,8.56736 -3.80744,8.56736" fill="#faa51f" stroke="#8e5322" stroke-width="2.5" stroke-linecap="round" stroke-linejoin="round"/><path d="M222.89657,234.99703l1.48122,0.37185" fill="none" stroke="#8e5322" stroke-width="1.4" stroke-linecap="round" stroke-linejoin="round"/><path d="M240.73052,160.25655l8.89473,-8.64766l3.45907,13.83625c0,0 7.65936,5.68399 10.00657,9.63596c3.82968,6.54875 3.95198,11.85965 3.95198,11.85965c0,0 8.52535,2.5943 10.00781,9.38889c1.48246,6.79459 -3.82968,19.76608 -26.31235,24.21344c-22.48391,4.44736 -40.52169,-1.60599 -49.04458,-15.31871c-8.40059,-13.58918 4.94152,-29.89619 4.19906,-28.90789l-2.71784,-22.60745l15.56579,10.13011c0,0 5.31089,-2.10014 10.99488,-2.34722c2.09891,-0.12354 5.92982,0.12354 7.78289,0.24707z" fill="#faa51f" stroke="none" stroke-width="1" stroke-linecap="butt" stroke-linejoin="miter"/><path d="M266.54996,187.55968c0,0 8.1535,1.97661 9.63596,8.7712c1.85307,6.79459 -4.20153,19.64255 -25.44883,23.47222c-4.81798,0.86477 -9.14181,1.72953 -15.9364,1.72953c-10.50073,0.12231 -21.98976,-6.42397 -21.125,-20.13669c0.49292,-7.90643 10.50073,-7.28874 10.50073,-7.28874l8.7712,-2.22368c0,0 8.7712,1.97537 13.95979,0.86477c5.18859,-1.11184 5.1886,-5.1886 5.1886,-5.1886l10.87134,-3.21322l2.96491,2.47076z" fill="#ffffff" stroke="none" stroke-width="1" stroke-linecap="butt" stroke-linejoin="miter"/><path d="M285.69834,188.54799c0,0 -2.22244,1.97661 -5.43567,3.08845c-2.71907,0.9883 -8.15351,1.85307 -8.15351,1.85307" fill="none" stroke="#8e5322" stroke-width="2.5" stroke-linecap="round" stroke-linejoin="round"/><path d="M284.95588,202.38424c0,0 -2.22368,0.24708 -5.55921,-0.12477c-3.45783,-0.24584 -6.66982,-1.606 -6.66982,-1.606" fill="none" stroke="#8e5322" stroke-width="2.5" stroke-linecap="round" stroke-linejoin="round"/><path d="M222.32336,166.43469l-6.42397,-4.44737" fill="none" stroke="#8e5322" stroke-width="2.5" stroke-linecap="round" stroke-linejoin="round"/><path d="M240.73052,160.25655l8.89473,-8.64766l3.45907,13.83625c0,0 7.65936,5.68399 10.00657,9.63596c3.82968,6.54875 3.95198,11.85965 3.95198,11.85965c0,0 8.52535,2.5943 10.00781,9.38889c1.48246,6.79459 -3.82968,19.76608 -26.31235,24.21344c-22.48391,4.44736 -40.52169,-1.60599 -49.04458,-15.31871c-8.40059,-13.58918 4.94152,-29.89619 4.19906,-28.90789l-2.71784,-22.60745l15.56579,10.13011c0,0 5.31089,-2.10014 10.99488,-2.34722c2.09891,-0.12354 5.92982,0.12354 7.78289,0.24707z" fill="none" stroke="#8e5322" stroke-width="2.5" stroke-linecap="round" stroke-linejoin="round"/><path d="M200.95129,199.66517c0,0 -4.32383,0.61769 -6.54752,0.74123c-2.22368,0.12354 -7.1652,-0.37062 -7.1652,-0.37062" fill="none" stroke="#8e5322" stroke-width="2.5" stroke-linecap="round" stroke-linejoin="round"/><path d="M186.2515,188.17737c0,0 2.71784,0.49292 7.65936,2.71784c4.44613,1.97661 7.28751,4.07675 7.28751,4.07675" fill="none" stroke="#8e5322" stroke-width="2.5" stroke-linecap="round" stroke-linejoin="round"/><path d="M260.37306,175.20588c3.45907,5.31214 3.58137,11.48904 0.24707,13.58918c-3.33553,2.22368 -8.89473,-0.37062 -12.3538,-5.80629c-3.4603,-5.31214 -3.5826,-11.48904 -0.24708,-13.58918c3.33552,-2.10014 8.89474,0.49415 12.3538,5.80629z" fill="#ffffff" stroke="#8e5322" stroke-width="2.5" stroke-linecap="round" stroke-linejoin="round"/><path d="M260.24951,179.65202c0.37185,1.23538 -0.24584,2.47075 -1.48122,2.84137c-1.11184,0.37185 -2.34722,-0.37062 -2.71784,-1.7283c-0.37061,-1.23538 0.24707,-2.47076 1.48246,-2.84137c1.23415,-0.24707 2.34598,0.49292 2.7166,1.7283" fill="#414142" stroke="none" stroke-width="1" stroke-linecap="butt" stroke-linejoin="miter"/><path d="M231.71224,179.03433c3.45907,5.31214 3.08845,11.7361 -0.86477,14.33164c-3.95321,2.5943 -10.00657,0.37061 -13.4644,-5.06629c-3.4603,-5.31214 -3.08845,-11.7361 0.86353,-14.3304c3.95322,-2.46953 10.00657,-0.24584 13.46564,5.06506z" fill="#ffffff" stroke="#8e5322" stroke-width="2.5" stroke-linecap="round" stroke-linejoin="round"/><path d="M231.34163,183.85354c0,1.23538 -0.98831,2.34598 -2.10015,2.34598c-1.23538,0 -2.10014,-0.9883 -2.10014,-2.34598c0,-1.23538 0.9883,-2.34722 2.10014,-2.34722c1.11184,0 2.10015,0.98707 2.10015,2.34722" fill="#414142" stroke="none" stroke-width="1" stroke-linecap="butt" stroke-linejoin="miter"/><path d="M245.30142,191.26582c2.10014,-0.24707 4.94152,-1.85307 5.31213,0.49292c0,0.98954 -1.97661,5.06629 -4.19906,5.18859c-2.47076,0.12477 -6.79459,-2.96367 -6.67105,-4.81674c0.12354,-1.85307 3.7049,-0.61769 5.55797,-0.86477z" fill="#5f4b43" stroke="#8e5322" stroke-width="2.5" stroke-linecap="round" stroke-linejoin="round"/><path d="M243.81773,211.77189c-6.66981,1.36015 -9.75827,-1.48246 -9.75827,-1.48246" fill="#ffffff" stroke="#8e5322" stroke-width="2.5" stroke-linecap="round" stroke-linejoin="round"/><path d="M225.3278,236.01622c6.37332,3.48995 6.14354,8.81567 4.53508,10.16965c-3.75679,3.22063 -9.28142,0.62634 -14.80232,-8.60936" fill="#faa51f" stroke="#8e5322" stroke-width="2.5" stroke-linecap="round" stroke-linejoin="round"/><g stroke-linecap="butt" stroke-linejoin="miter"><path d="M440.93196,200.95286c-1.86286,0.23286 -3.02714,0.23286 -3.49286,0.46571c-0.93143,0.46571 -3.02714,0.93143 -5.58857,0.93143c-3.26,0 -6.28714,-1.16429 -8.84857,-3.02714h-1.86285c-0.69857,0 -1.16429,0 -1.86286,-0.23286c-2.56142,0.93143 -4.89,0.93143 -6.28714,0.93143h-0.46571c-3.26,0.23286 -6.51999,-0.46571 -9.31428,-1.86285c-1.39714,0.46571 -2.56143,0.69857 -3.95857,0.69857l-8.61571,0.23286c-3.95857,0 -7.45142,-1.39714 -10.2457,-3.95857c-1.16429,0 -2.32857,-0.23286 -3.26,-0.46572c-1.39714,1.63 -3.26,3.02714 -5.58857,4.19143c-4.42428,2.09572 -9.31427,2.32857 -13.97141,0.46571c-0.46571,-0.23286 -1.16429,-0.46571 -1.63,-0.69857l-5.35571,0.69857h-1.63c-0.69857,0.23286 -1.16429,0.69857 -1.63,0.93143c-3.49286,1.63 -6.75285,1.63 -8.14999,1.63h-1.16429c-3.95857,0 -7.91714,-1.16428 -10.94428,-3.26c-0.93143,0.23286 -2.09571,0.46571 -3.02714,0.46571c-2.09571,1.39714 -4.65714,2.32857 -7.45142,2.56143h-0.93143c-7.68428,0 -13.97142,-5.82143 -14.66999,-13.50571v-0.23286c0,-1.16429 -0.23286,-3.72571 0,-6.51999c0,-1.39714 0.23286,-3.49286 0.23286,-3.95857c0,-1.86285 0.46572,-3.72571 1.16429,-5.58856c-0.46571,-1.86285 -0.23286,-3.72572 0,-5.58857v-0.69857c0.23286,-1.63 0.69857,-4.89 2.32856,-8.15c3.02714,-5.58856 8.61571,-9.08142 14.90285,-9.08142c2.09571,-1.16429 4.19142,-1.63 6.51999,-1.63h0.69857c4.65714,0.23286 8.84857,2.56143 11.40999,6.28714c2.09571,-1.86285 4.65714,-3.02714 7.45143,-3.49286c5.58857,-0.69857 10.2457,-0.93143 14.20427,-0.23286c2.09571,-1.86285 4.88999,-3.26 7.68428,-3.49285l6.05428,-0.93143h1.86285c3.49286,0 6.9857,1.39714 9.77999,3.72571h0.46571l8.84857,-0.23286c3.72571,0 6.98571,-0.23286 7.68428,-0.23286h1.16429c3.26,0 6.75286,1.16428 9.31428,3.26c2.56142,-1.86285 5.58857,-2.79429 8.84857,-2.79429h3.02714c2.32857,-1.39714 4.88999,-2.32857 7.68428,-2.32857l7.45142,-0.23286h0.23286c7.91713,0 14.43713,6.51999 14.66998,14.43713c0,3.72571 -1.16429,6.98571 -3.49286,9.78v6.75285c2.09571,2.32857 3.26,5.35572 3.49286,8.61571c0.46571,7.91714 -5.58857,14.66999 -13.73856,15.36856z" fill="none" stroke-opacity="0.50196" stroke="#000000" stroke-width="10"/><path d="M440.93196,200.95286c-1.86286,0.23286 -3.02714,0.23286 -3.49285,0.46571c-0.93143,0.46571 -3.02714,0.93143 -5.58857,0.93143c-3.26,0 -6.28714,-1.16428 -8.84856,-3.02714h-1.86286c-0.69857,0 -1.16428,0 -1.86286,-0.23286c-2.56143,0.93143 -4.89,0.93143 -6.28714,0.93143h-0.46571c-3.26,0.23286 -6.51999,-0.46571 -9.31428,-1.86286c-1.39714,0.46571 -2.56143,0.69857 -3.95857,0.69857l-8.61571,0.23286c-3.95857,0 -7.45142,-1.39714 -10.24571,-3.95857c-1.16428,0 -2.32857,-0.23286 -3.26,-0.46571c-1.39714,1.63 -3.26,3.02714 -5.58857,4.19143c-4.42428,2.09571 -9.31428,2.32857 -13.97142,0.46571c-0.46571,-0.23286 -1.16428,-0.46571 -1.63,-0.69857l-5.35571,0.69857h-1.63c-0.69857,0.23286 -1.16428,0.69857 -1.63,0.93143c-3.49285,1.63 -6.75285,1.63 -8.14999,1.63h-1.16428c-3.95857,0 -7.91714,-1.16428 -10.94428,-3.26c-0.93143,0.23286 -2.09571,0.46571 -3.02714,0.46571c-2.09571,1.39714 -4.65714,2.32857 -7.45142,2.56143h-0.93143c-7.68428,0 -13.97142,-5.82142 -14.66999,-13.5057v-0.23286c0,-1.16428 -0.23286,-3.72571 0,-6.51999c0,-1.39714 0.23286,-3.49285 0.23286,-3.95857c0,-1.86286 0.46571,-3.72571 1.16428,-5.58857c-0.46571,-1.86286 -0.23286,-3.72571 0,-5.58857v-0.69857c0.23286,-1.63 0.69857,-4.89 2.32857,-8.14999c3.02714,-5.58857 8.61571,-9.08142 14.90285,-9.08142c2.09571,-1.16428 4.19143,-1.63 6.51999,-1.63h0.69857c4.65714,0.23286 8.84856,2.56143 11.40999,6.28714c2.09571,-1.86286 4.65714,-3.02714 7.45142,-3.49285c5.58857,-0.69857 10.24571,-0.93143 14.20427,-0.23286c2.09571,-1.86286 4.89,-3.26 7.68428,-3.49285l6.05428,-0.93143h1.86286c3.49285,0 6.98571,1.39714 9.77999,3.72571h0.46571l8.84856,-0.23286c3.72571,0 6.98571,-0.23286 7.68428,-0.23286h1.16428c3.26,0 6.75285,1.16428 9.31428,3.26c2.56143,-1.86286 5.58857,-2.79428 8.84856,-2.79428h3.02714c2.32857,-1.39714 4.89,-2.32857 7.68428,-2.32857l7.45142,-0.23286h0.23286c7.91714,0 14.43713,6.51999 14.66999,14.43713c0,3.72571 -1.16428,6.98571 -3.49285,9.77999v6.75285c2.09571,2.32857 3.26,5.35571 3.49285,8.61571c0.46571,7.91714 -5.58857,14.66999 -13.73856,15.36856z" fill="#ffffff" stroke="none" stroke-width="1"/><path d="M440.46625,192.57001c-3.02714,0.23286 -4.89,0.46571 -5.35571,0.69857l-0.23286,0.23286c-0.69857,0.23286 -1.63,0.69857 -2.79428,0.69857c-1.39714,0 -3.02714,-0.46571 -4.19143,-1.63c-0.46571,-0.46571 -0.93143,-0.93143 -1.16428,-1.39714h-5.35571c-0.93143,0 -1.86286,-0.23286 -2.56143,-0.69857c-0.23286,0.23286 -0.69857,0.23286 -0.93143,0.46571c-1.86286,0.93143 -3.49285,0.93143 -4.65714,0.93143h-1.16428c-3.49285,0 -6.28714,-1.16428 -8.14999,-3.26c-1.16428,1.16428 -2.79428,1.86286 -4.42428,1.86286l-8.61571,0.23286c-3.02714,0 -5.82142,-2.32857 -6.28714,-5.12285c-1.16428,0.69857 -2.32857,1.16428 -3.72571,1.16428c-1.39714,0 -2.79428,-0.46571 -3.95857,-1.16428c-0.23286,-0.23286 -0.46571,-0.46571 -0.69857,-0.46571c-0.69857,0.46571 -1.63,0.46571 -2.56143,0.46571h-0.69857c-0.93143,2.79428 -2.56143,4.65714 -5.12285,5.82142c-1.16428,0.46571 -2.56143,0.93143 -3.72571,0.93143c-1.16428,0 -2.56143,-0.23286 -3.72571,-0.69857c-1.16428,-0.46571 -2.09571,-1.16428 -2.79428,-1.86286c-0.46571,0.23286 -0.93143,0.23286 -1.39714,0.46571l-6.75285,0.93143h-0.93143c-0.69857,0 -1.16428,0 -1.86286,-0.23286c-0.93143,0.93143 -2.09571,1.39714 -3.02714,1.86286c-1.86286,0.93143 -3.49285,0.93143 -4.65714,0.93143h-1.16428c-4.19143,0 -7.45142,-1.86286 -9.31428,-4.42428c-1.86286,1.16428 -4.19143,1.86286 -6.28714,1.86286h-1.39714c0,0.23286 -0.23286,0.23286 -0.23286,0.46571c-1.16428,1.16428 -2.79428,2.09571 -4.42428,2.09571h-0.46571c-3.26,0 -6.05428,-2.56143 -6.28714,-6.05428v-0.23286c0,-1.16428 -0.23286,-3.26 0,-5.58857c0,-1.63 0.23286,-4.19143 0.23286,-4.19143c0,-1.63 0.69857,-3.02714 1.63,-4.19143c-0.93143,-1.86286 -1.16428,-3.95857 -0.69857,-6.28714v-0.46571c0.23286,-1.39714 0.46571,-3.49285 1.39714,-5.58857c1.63,-3.02714 4.65714,-4.65714 8.14999,-4.65714h1.63c1.16428,-0.93143 2.56143,-1.63 4.19143,-1.63c3.49285,0 6.28714,3.02714 6.28714,6.51999v2.56143c1.16428,-0.46571 2.56143,-0.69857 3.95857,-0.69857c0.69857,0 1.16428,0 1.86286,0.23286c0.93143,-1.16428 2.32857,-1.86286 3.72571,-2.09571c0.23286,-0.46571 0.46571,-0.69857 0.69857,-1.16428c0.93143,-1.39714 2.56143,-2.32857 4.19143,-2.56143c1.39714,-0.23286 4.19143,-0.46571 7.45142,-0.46571c3.72571,0 6.75285,0.46571 9.08142,1.63c0.69857,-2.56143 2.56143,-4.42428 5.35571,-4.89l6.05428,-0.93143h0.93143c1.86286,0 3.49285,0.69857 4.65714,2.09571c0.46571,0.46571 1.16428,1.39714 1.39714,2.09571l0.23286,0.69857c1.16428,-0.69857 2.32857,-1.16428 3.72571,-1.16428l9.08142,-0.23286c4.42428,0 8.38285,-0.23286 8.38285,-0.46571h0.46571c1.63,0 3.49285,0.69857 4.65714,1.86286c0.93143,0.93143 1.63,2.09571 1.86286,3.49285h0.46571c0.69857,0 1.16428,0 1.86286,0.23286c0.93143,-1.16428 2.32857,-1.86286 3.72571,-2.09571c1.16428,-1.63 3.26,-3.02714 5.58857,-3.02714h6.05428c1.16428,-1.39714 2.79428,-2.32857 4.89,-2.32857h7.45142c3.49285,0 6.28714,2.79428 6.51999,6.28714c0,2.56143 -1.39714,4.89 -3.49285,5.82142v14.20427c1.86286,0.93143 3.26,3.02714 3.49285,5.35571c0.23286,3.49285 -2.56143,6.51999 -6.05428,6.75285z" fill="#f9a83a" stroke="none" stroke-width="1"/><path d="M378.99201,172.31145l-4.65714,0.69857l1.63,-8.38285z" fill="#f9a83a" stroke="none" stroke-width="1"/><path d="M320.31205,172.77717c2.79428,0.46571 8.61571,1.39714 8.61571,7.21857c0,1.63 -0.93143,3.49285 -2.32857,4.65714c-1.63,1.39714 -3.72571,2.09571 -5.82142,1.63c-1.63,-0.23286 -3.02714,-0.93143 -3.95857,-1.63v2.56143c0,0.69857 -0.69857,1.39714 -1.39714,1.39714c-0.69857,0 -1.39714,-0.69857 -1.39714,-1.39714c0,-0.23286 -0.23286,-2.32857 0,-5.12285c0.23286,-1.63 0.23286,-4.42428 0.23286,-4.42428c0,-0.69857 0.69857,-1.39714 1.39714,-1.39714c0.69857,0 1.39714,0.69857 1.39714,1.39714v0.46571c0,0.69857 0.23286,1.86286 0.46571,2.79428c0.46571,0.93143 1.86286,1.63 2.32857,1.86286c0.46571,0 0.69857,0.23286 1.16428,0.23286c1.39714,0.23286 2.79428,0 3.72571,-0.93143c0.93143,-0.69857 1.39714,-1.63 1.39714,-2.56143c0,-2.32857 -2.56143,-3.02714 -6.28714,-3.72571c-3.49285,-0.69857 -4.89,-3.49285 -4.42428,-7.91714v-0.46571c0.23286,-2.32857 0.69857,-6.28714 5.12285,-5.58857c1.63,0 3.02714,1.16428 4.19143,2.32857v-2.56143c0,-0.69857 0.69857,-1.39714 1.39714,-1.39714c0.69857,0 1.39714,0.69857 1.39714,1.39714c0,0.23286 -0.46571,9.08142 -0.46571,9.08142c-0.23286,0.69857 -0.93143,1.39714 -1.63,1.16428c-0.69857,-0.23286 -1.16428,-0.69857 -1.16428,-1.16428v-0.93143c-0.23286,-0.69857 -0.23286,-1.39714 -0.69857,-2.32857c-0.46571,-1.39714 -1.39714,-2.09571 -1.86286,-2.56143c-0.46571,-0.46571 -0.93143,-0.69857 -1.39714,-0.69857c-1.39714,0 -1.63,0.69857 -2.09571,3.49285v0.46571c-0.46571,3.26 0.46571,4.42428 2.09571,4.65714M359.43202,168.8186c0.69857,-0.93143 1.16428,-1.86286 1.16428,-2.32857v-0.46571c-0.69857,-1.16428 -3.95857,-1.39714 -7.68428,-1.39714v6.51999c1.39714,-0.23286 2.79428,-0.46571 3.72571,-0.93143l0.69857,-0.23286c0.23286,0 0.93143,-0.23286 1.16428,-0.46571c0.46571,-0.23286 0.69857,-0.46571 0.93143,-0.69857M367.58202,181.39287c0.69857,0.23286 1.16428,0.93143 0.23286,1.39714c-0.46571,2.09571 -1.39714,2.79428 -2.56143,3.49285c-1.39714,0.69857 -2.56143,0.23286 -3.49285,0c-1.16428,-0.46571 -1.86286,-1.63 -2.09571,-2.09571c-0.46571,-1.16428 -0.69857,-3.95857 -0.69857,-4.65714c-0.23286,-3.49285 -0.69857,-4.89 -1.16428,-5.58857c-0.23286,-0.46571 -0.69857,-0.69857 -1.16428,-0.69857h-0.46571c-1.16428,0.46571 -2.32857,0.69857 -3.72571,0.93143v8.14999l2.09571,-0.23286c0.69857,-0.23286 1.63,0.46571 1.63,1.16428c0.23286,0.69857 -0.46571,1.63 -1.16428,1.63l-6.75285,0.93143c-0.69857,0.23286 -1.63,-0.46571 -1.63,-1.16428c-0.23286,-0.69857 0.46571,-1.63 1.16428,-1.63l1.86286,-0.23286v-8.14999h-0.69857c-0.69857,0 -1.39714,-0.69857 -1.39714,-1.39714c0,-0.69857 0.69857,-1.39714 1.39714,-1.39714h0.69857v-6.51999c-0.69857,0 -1.39714,0.23286 -2.09571,0.23286c-0.69857,0.23286 -1.63,-0.46571 -1.63,-1.16428c-0.23286,-0.69857 0.46571,-1.63 1.16428,-1.63c3.26,-0.46571 13.27285,-1.63 15.60142,2.32857c0.93143,1.63 0.46571,3.49285 -1.16428,5.82142c0,0 -0.69857,0.69857 -1.39714,1.16428c1.16428,1.16428 2.09571,3.49285 2.09571,7.68428c0,1.16428 0.23286,3.02714 0.46571,3.49285c0.23286,0.23286 0.46571,0.69857 0.46571,0.69857c0.69857,0.23286 1.16428,0.46571 1.39714,0.23286c0.23286,-0.23286 0.69857,-0.23286 1.16428,-1.86286c0.23286,-0.69857 1.16428,-1.16428 1.86286,-0.93143M418.34484,176.96859c0.69857,0 1.39714,0.46571 1.39714,0.93143v2.32857c-0.23286,0.46571 -0.46571,2.09571 -0.93143,3.02714c-0.46571,0.69857 -0.69857,1.16428 -1.16428,1.63c-0.69857,0.69857 -1.39714,1.16428 -2.09571,1.39714c-0.93143,0.46571 -1.86286,0.46571 -2.79428,0.46571h-0.69857c-5.12285,0 -6.75285,-4.19143 -6.98571,-6.28714v-6.51999c0.23286,-3.49285 1.39714,-5.58857 3.02714,-6.75285c2.09571,-1.39714 4.89,-0.23286 5.58857,0.23286c0.69857,0.46571 1.39714,0.69857 1.86286,1.16428v-2.56143c0,-0.69857 0.69857,-1.39714 1.39714,-1.39714c0.69857,0 1.39714,0.69857 1.39714,1.39714v6.28714c0,0.69857 -0.23286,1.16428 -0.93143,1.39714c-0.69857,0 -1.39714,-0.23286 -1.63,-0.69857c-0.23286,0 -1.39714,-2.09571 -3.26,-2.79428c-1.63,-0.46571 -2.56143,-0.69857 -3.26,-0.23286c-0.93143,0.69857 -1.39714,2.32857 -1.63,4.65714v6.05428c0,0.69857 0.46571,3.72571 4.19143,3.49285h0.93143c0.93143,0 1.16428,0 1.63,-0.23286c0.46571,-0.23286 0.93143,-0.46571 1.16428,-0.69857c0.46571,-0.46571 0.69857,-0.69857 0.93143,-1.16428c0.23286,-0.23286 0.46571,-1.16428 0.46571,-1.86286v-1.86286c0,-0.69857 0.69857,-1.39714 1.39714,-1.39714M441.39767,186.28287c0,0.69857 -0.46571,1.39714 -1.16428,1.86286c-3.26,0.23286 -6.05428,0.46571 -6.75285,0.93143c-0.93143,0.23286 -1.63,0.46571 -2.09571,0c-0.69857,-0.46571 -0.69857,-1.39714 -0.23286,-1.86286c0.69857,-0.93143 2.09571,-0.93143 3.95857,-1.39714v-10.71142l-8.38285,1.39714v7.21857h2.32857c0.69857,0 1.39714,0.69857 1.39714,1.39714c0,0.69857 -0.69857,1.39714 -1.39714,1.39714l-7.68428,-0.23286c-0.69857,0 -1.39714,-0.69857 -1.39714,-1.39714c0,-0.69857 0.69857,-1.39714 1.39714,-1.39714h2.32857v-18.86141h-2.32857c-0.69857,0 -1.39714,-0.69857 -1.39714,-1.39714c0,-0.69857 0.69857,-1.39714 1.39714,-1.39714h7.45142c0.69857,0 1.39714,0.69857 1.39714,1.39714c0,0.69857 -0.69857,1.39714 -1.39714,1.39714h-2.32857v8.84856l8.38285,-1.39714v-9.77999h-2.32857c-0.69857,0 -1.39714,-0.69857 -1.39714,-1.39714c0,-0.69857 0.69857,-1.39714 1.39714,-1.39714l7.45142,-0.23286c0.69857,0 1.39714,0.69857 1.39714,1.39714c0,0.69857 -0.69857,1.39714 -1.39714,1.39714h-2.09571c0.23286,15.83427 0.23286,20.72427 0.23286,23.05284c0.69857,-0.23286 1.39714,-0.23286 1.86286,-0.23286c0.69857,0 1.39714,0.69857 1.39714,1.39714" fill="#ffffff" stroke="none" stroke-width="1"/><path d="M378.99201,172.31145l-3.02714,-7.68428l-1.63,8.38285zM386.67629,175.33859c0.69857,-0.23286 1.39714,0.23286 1.63,0.69857c0.23286,0.69857 -0.23286,1.63 -0.93143,1.86286c-2.56143,0.93143 -5.12285,2.09571 -5.82142,3.02714c-0.46571,0.46571 -1.39714,0.69857 -2.09571,0.23286c-0.46571,-0.46571 -0.69857,-1.16428 -0.23286,-1.86286c0.69857,-0.69857 1.16428,-0.93143 2.32857,-1.63l-1.39714,-3.49285l-6.51999,1.16428l-0.23286,2.09571c0.93143,0 1.39714,0.69857 1.39714,1.39714c0,0.93143 -0.69857,1.39714 -1.39714,1.39714l-6.98571,-0.23286c-0.93143,0 -1.39714,-0.69857 -1.39714,-1.39714c0,-0.93143 0.69857,-1.39714 1.39714,-1.39714l4.19143,0.23286c0.69857,-3.26 2.79428,-13.73856 3.26,-16.29999c-1.86286,0.23286 -4.19143,0.46571 -4.19143,0.46571c-0.93143,0.23286 -1.63,-0.46571 -1.63,-1.16428c-0.23286,-0.93143 0.46571,-1.63 1.16428,-1.63l6.05428,-0.69857c0.46571,0 0.93143,0.23286 1.16428,0.46571c0.23286,0 0.46571,0.46571 0.46571,0.69857l5.35571,12.80713l1.86286,4.42428c1.39714,-0.69857 2.09571,-0.93143 2.56143,-1.16428" fill="#ffffff" stroke="none" stroke-width="1"/><path d="M403.44199,161.13432c0.46571,0 0.93143,0.23286 0.93143,0.69857c0.46571,0.46571 0.46571,0.69857 0.46571,1.16428c-0.23286,1.86286 -0.23286,5.12285 -0.23286,5.12285c0,0.46571 -0.23286,1.16428 -0.69857,1.39714c-0.69857,0.46571 -1.39714,0.23286 -1.86286,-0.46571c0,-0.23286 -0.23286,-0.69857 -0.23286,-2.09571v-2.79428c-1.39714,0 -3.49285,0.23286 -5.82142,0.23286v18.3957h2.79428c0.69857,0 1.39714,0.69857 1.39714,1.39714c0,0.69857 -0.69857,1.39714 -1.39714,1.39714l-8.61571,0.23286c-0.69857,0 -1.39714,-0.69857 -1.39714,-1.39714c0,-0.69857 0.69857,-1.39714 1.39714,-1.39714h3.02714v-18.3957h-6.05428c0.46571,1.86286 0.93143,5.58857 0.93143,5.58857c0,0.69857 -0.46571,1.39714 -1.16428,1.39714c-0.69857,0.23286 -1.63,-0.46571 -1.63,-1.16428l-1.16428,-6.98571c-0.23286,-0.46571 0,-0.93143 0.23286,-1.16428c0.46571,-0.23286 0.69857,-0.46571 1.16428,-0.46571l9.08142,-0.23286c4.65714,-0.23286 8.84856,-0.46571 8.84856,-0.46571M344.06346,178.36573c0.69857,0 1.39714,0.69857 1.39714,1.16428v2.32857c-0.23286,0.46571 -0.46571,2.09571 -0.93143,3.02714c-0.46571,0.69857 -0.69857,1.16428 -1.16428,1.63c-0.69857,0.69857 -1.39714,1.16428 -2.09571,1.39714c-0.93143,0.46571 -1.86286,0.46571 -2.79428,0.46571h-0.69857c-5.35571,0 -6.98571,-4.19143 -7.21857,-6.28714v-6.51999c0.23286,-3.49285 1.39714,-5.58857 3.02714,-6.75285c2.32857,-1.16428 4.89,-0.23286 5.82142,0.23286c0.69857,0.23286 1.39714,0.69857 1.86286,1.16428v-2.56143c0,-0.69857 0.69857,-1.39714 1.39714,-1.39714c0.69857,0 1.39714,0.69857 1.39714,1.39714v6.28714c0,0.69857 -0.23286,1.16428 -0.93143,1.39714c-0.69857,0 -1.39714,-0.23286 -1.63,-0.69857c0,0 -1.39714,-2.09571 -3.26,-2.79428c-1.63,-0.46571 -2.56143,-0.69857 -3.26,-0.23286c-0.93143,0.69857 -1.39714,2.32857 -1.63,4.65714v6.05428c0,0.69857 0.46571,3.49285 4.19143,3.49285h0.93143c0.93143,0 1.16428,0 1.63,-0.23286c0.46571,-0.23286 0.93143,-0.46571 1.16428,-0.69857c0.46571,-0.46571 0.69857,-0.69857 0.93143,-1.16428c0.23286,-0.46571 0.46571,-1.39714 0.46571,-1.86286v-2.09571c0,-0.69857 0.69857,-1.39714 1.39714,-1.39714" fill="#ffffff" stroke="none" stroke-width="1"/></g></g></g></svg>
