<svg version="1.1" xmlns="http://www.w3.org/2000/svg" xmlns:xlink="http://www.w3.org/1999/xlink" width="309.2973" height="159.64866" viewBox="0,0,309.2973,159.64866"><defs><linearGradient x1="240.00007" y1="104.50006" x2="240.00007" y2="255.00006" gradientUnits="userSpaceOnUse" id="color-1"><stop offset="0" stop-color="#005c63"/><stop offset="1" stop-color="#008069"/></linearGradient><linearGradient x1="233.11507" y1="114.65391" x2="233.11507" y2="191.21019" gradientUnits="userSpaceOnUse" id="color-2"><stop offset="0" stop-color="#114a3f" stop-opacity="0.67843"/><stop offset="1" stop-color="#17484a" stop-opacity="0.64706"/></linearGradient><linearGradient x1="168.39787" y1="105.00004" x2="168.39787" y2="159.72889" gradientUnits="userSpaceOnUse" id="color-3"><stop offset="0" stop-color="#114a3f" stop-opacity="0.67843"/><stop offset="1" stop-color="#17484a" stop-opacity="0.64706"/></linearGradient><linearGradient x1="120.71955" y1="166.57762" x2="120.71955" y2="243.12346" gradientUnits="userSpaceOnUse" id="color-4"><stop offset="0" stop-color="#114a3f" stop-opacity="0.67843"/><stop offset="1" stop-color="#17484a" stop-opacity="0.64706"/></linearGradient><linearGradient x1="175.39886" y1="159.6884" x2="175.39886" y2="213.03692" gradientUnits="userSpaceOnUse" id="color-5"><stop offset="0" stop-color="#114a3f" stop-opacity="0.67843"/><stop offset="1" stop-color="#17484a" stop-opacity="0.64706"/></linearGradient><linearGradient x1="304.11582" y1="131.57762" x2="304.11582" y2="208.12346" gradientUnits="userSpaceOnUse" id="color-6"><stop offset="0" stop-color="#114a3f" stop-opacity="0.67843"/><stop offset="1" stop-color="#17484a" stop-opacity="0.64706"/></linearGradient><linearGradient x1="361.19616" y1="164.66984" x2="361.19616" y2="255.00003" gradientUnits="userSpaceOnUse" id="color-7"><stop offset="0" stop-color="#114a3f" stop-opacity="0.67843"/><stop offset="1" stop-color="#17484a" stop-opacity="0.64706"/></linearGradient><linearGradient x1="300.36206" y1="209.25807" x2="300.36206" y2="255.00003" gradientUnits="userSpaceOnUse" id="color-8"><stop offset="0" stop-color="#114a3f" stop-opacity="0.67843"/><stop offset="1" stop-color="#17484a" stop-opacity="0.64706"/></linearGradient><linearGradient x1="231.6568" y1="191.22477" x2="231.6568" y2="255.00006" gradientUnits="userSpaceOnUse" id="color-9"><stop offset="0" stop-color="#114a3f" stop-opacity="0.67843"/><stop offset="1" stop-color="#17484a" stop-opacity="0.64706"/></linearGradient><linearGradient x1="114.05781" y1="112.60267" x2="114.05781" y2="164.02975" gradientUnits="userSpaceOnUse" id="color-10"><stop offset="0" stop-color="#114a3f" stop-opacity="0.67843"/><stop offset="1" stop-color="#17484a" stop-opacity="0.64706"/></linearGradient><linearGradient x1="344.61587" y1="105.00006" x2="344.61587" y2="144.33909" gradientUnits="userSpaceOnUse" id="color-11"><stop offset="0" stop-color="#114a3f" stop-opacity="0.67843"/><stop offset="1" stop-color="#17484a" stop-opacity="0.64706"/></linearGradient><linearGradient x1="240.00007" y1="105.17572" x2="240.00007" y2="254.82437" gradientUnits="userSpaceOnUse" id="color-12"><stop offset="0" stop-color="#042426"/><stop offset="1" stop-color="#024739"/></linearGradient></defs><g transform="translate(-85.35141,-100.17571)"><g stroke-linejoin="miter" stroke-miterlimit="10" stroke-dasharray="" stroke-dashoffset="0" style="mix-blend-mode: normal"><path d="M90.05098,243.20005c0,-31.31695 0,-115.15535 0,-130c0,-4.40691 5.72892,-8.69999 12.74909,-8.69999c29.11644,0 226.65243,0.38188 275.99653,0.47816c7.11823,0.01389 11.15257,3.81492 11.15257,8.22183c0,15.0056 0,100.50922 0,131c0,6.74675 -5.67901,10.80001 -12.6491,10.80001c-29.10924,0 -227.81686,0 -276.5,0c-6.86705,0 -10.74909,-4.45575 -10.74909,-11.80001z" fill="url(#color-1)" fill-rule="nonzero" stroke="#000000" stroke-width="0" stroke-linecap="butt"/><g fill-rule="nonzero" stroke="#000000" stroke-width="0" stroke-linecap="butt"><path d="M194.83691,156.34751v-6.86928c0,-2.30475 1.89342,-4.11491 4.1965,-4.11491h4.05996c0.75437,-2.93756 1.93173,-5.71025 3.46379,-8.23148l-2.91424,-2.94754c-0.78601,-0.78934 -1.22231,-1.8368 -1.22231,-2.95254c0.00333,-1.11407 0.43464,-2.16487 1.22231,-2.95088l4.86262,-4.85762c0.78768,-0.78601 1.83847,-1.22064 2.95421,-1.22064c1.11741,0 2.16653,0.43297 2.95587,1.22398l3.02582,3.01748c2.49459,-1.45379 5.1657,-2.57286 8.10825,-3.29226v-4.33805c0,-2.30309 1.84014,-4.15987 4.14322,-4.15987h6.87428c2.30309,0 4.11491,1.85679 4.11491,4.15987v4.33639c2.94089,0.72107 5.62865,1.84013 8.12324,3.29393l3.05246,-3.02415c0.78934,-0.78601 1.83847,-1.22064 2.95254,-1.22064c1.11408,0 2.16153,0.43296 2.95088,1.22064l4.86262,4.86095c0.78768,0.78768 1.22232,1.84181 1.22232,2.95754c0,1.11574 -0.43297,2.16986 -1.22232,2.95754l-2.91757,2.93589c1.53206,2.51957 2.70941,5.2906 3.46212,8.23148h4.05996c2.30475,0 4.16487,1.81016 4.16487,4.11491v6.86928c0,2.29808 -1.86012,4.14988 -4.16487,4.14988h-4.05996c-0.7527,2.94089 -1.93173,5.69526 -3.46544,8.21483l2.91757,2.93089c0.78934,0.78768 1.22065,1.8368 1.22065,2.95087c0,1.09909 -0.44462,2.17486 -1.22398,2.95254l-4.8593,4.85763c-1.58035,1.57536 -4.33805,1.57701 -5.91341,-0.00167l-3.03914,-3.02248c-2.49459,1.45379 -5.18235,2.57452 -8.12324,3.29226v4.34139c0,2.30308 -1.81182,4.19651 -4.11491,4.19651h-6.87428c-2.30308,0 -4.14322,-1.89343 -4.14322,-4.19651v-4.34305c-2.94255,-0.7194 -5.61365,-1.83847 -8.10492,-3.29059l-3.0408,3.02249c-1.57036,1.57536 -4.3264,1.57702 -5.90342,-0.00166l-4.86262,-4.85762c-0.78434,-0.78601 -1.22065,-1.83847 -1.22065,-2.95254c0,-1.11574 0.43297,-2.16653 1.22065,-2.95421l2.91757,-2.92424c-1.53539,-2.51957 -2.71274,-5.27394 -3.46711,-8.21483h-4.05829c-2.30309,0 -4.19484,-1.85179 -4.19317,-4.14987zM219.92437,152.91199c0,7.22398 5.91508,13.07245 13.20734,13.07245c7.2906,0 13.20235,-5.84847 13.20235,-13.07245c0,-7.21899 -5.91174,-13.07578 -13.20235,-13.07578c-7.29226,0 -13.20567,5.85512 -13.20734,13.07578z" fill="url(#color-2)"/><path d="M181.91614,107.22835c2.00344,1.28413 3.82762,2.82347 5.46052,4.71206l3.18256,-1.62923c1.68962,-0.86496 3.74294,-0.21232 4.6079,1.47731l2.58175,5.04323c0.86496,1.68963 0.18322,3.71621 -1.50642,4.58116l-3.18134,1.6286c0.5755,2.42836 0.76395,4.82048 0.63428,7.19661l3.36503,1.10363c0.8731,0.28389 1.58598,0.89033 2.00439,1.70766c0.41841,0.81733 0.49416,1.7484 0.21274,2.62331l-1.73994,5.39302c-0.28204,0.8737 -0.89215,1.58846 -1.7107,2.0075c-0.81854,0.41904 -1.7545,0.49728 -2.62883,0.21402l-3.24963,-1.03782c-1.27306,2.07024 -2.86381,3.97471 -4.73867,5.63142l1.52479,2.97854c0.86559,1.69085 0.23619,3.73534 -1.45466,4.60093l-5.03956,2.57988c-1.68597,0.86309 -3.74311,0.19391 -4.6087,-1.49694l-1.52479,-2.97854c-2.44024,0.55229 -4.90375,0.72176 -7.32822,0.54284l-1.05447,3.24119c-0.28142,0.87491 -0.88911,1.58535 -1.70644,2.00376c-0.80633,0.41278 -1.76254,0.49061 -2.62578,0.21093l-5.38873,-1.74059c-1.74927,-0.56776 -2.78619,-2.59028 -2.21966,-4.33893l1.07601,-3.36477c-2.00344,-1.28413 -3.83509,-2.83507 -5.46615,-4.72305l-3.18501,1.63049c-1.68963,0.86496 -3.75918,0.24685 -4.62414,-1.44278l-2.58176,-5.04323c-0.86496,-1.68963 -0.16697,-3.75073 1.52266,-4.61569l3.18623,-1.63111c-0.57735,-2.42895 -0.75954,-4.80886 -0.62984,-7.18192l-3.35944,-1.0957c-1.74552,-0.56043 -2.78181,-2.58173 -2.21591,-4.33159l1.7375,-5.39177c0.28207,-0.87063 0.89033,-1.58599 1.70766,-2.0044c0.81855,-0.41904 1.75206,-0.49604 2.62576,-0.21399l3.24107,1.04219c1.27181,-2.07269 2.85034,-3.97089 4.72457,-5.62883l-1.52416,-2.97732c-0.24768,-0.48382 -0.3713,-0.99993 -0.382,-1.51039h32.99547zM163.4307,118.99044c-5.29979,2.7131 -7.36894,9.24911 -4.6302,14.59899c2.73811,5.34866 9.24903,7.48925 14.54882,4.77615c5.29613,-2.71122 7.37263,-9.24792 4.63452,-14.59658c-2.73874,-5.34988 -9.25516,-7.48919 -14.55313,-4.77856z" fill="url(#color-3)"/><path d="M137.79736,175.36921l4.85199,4.86264c1.62791,1.63148 1.56617,4.25025 -0.06414,5.87699l-2.87396,2.86767c1.54089,2.61228 2.6659,5.40662 3.36222,8.27349l4.14488,0.02809c1.11394,0.00358 2.16264,0.43688 2.95073,1.22669c0.78455,0.79099 1.22145,1.83946 1.21904,2.95223l-0.01105,6.87325c-0.00239,1.11276 -0.43923,2.16264 -1.22904,2.95072c-0.79098,0.78925 -1.83946,1.22379 -2.95694,1.2214l-4.27327,0.00121c-0.73901,2.79112 -1.8394,5.46998 -3.41424,8.05765l3.06411,3.07082c1.62674,1.6303 1.63565,4.24444 0.00534,5.87118l-4.86617,4.85552c-1.63031,1.62674 -4.22438,1.59211 -5.85111,-0.0382l-3.06293,-3.06964c-2.59111,1.56681 -5.28415,2.6731 -8.07689,3.406l-0.02472,4.29678c-0.00358,1.11394 -0.43923,2.16264 -1.22787,2.94955c-0.78863,0.78691 -1.83592,1.22027 -2.95105,1.22022l-6.87561,-0.00635c-1.11395,-0.00122 -2.16618,-0.44042 -2.95426,-1.23023c-0.78808,-0.78981 -1.22615,-1.84182 -1.22375,-2.95695l-0.00842,-4.13903c-2.86417,-0.70141 -5.65486,-1.83137 -8.26493,-3.3815l-2.87396,2.86767c-1.16345,1.1609 -2.81704,1.51046 -4.26042,1.02382v-60.9628c1.46911,-0.50863 3.17092,-0.16007 4.34495,1.01655l3.06764,3.07436c2.59111,-1.56916 5.27237,-2.66369 8.06157,-3.39541l0.01765,-4.28737c-0.0011,-2.22436 1.94867,-4.17221 4.18009,-4.1686l6.87324,0.004c1.11041,0.0024 2.16265,0.43923 2.94956,1.22786c0.78808,0.78981 1.22379,1.83946 1.22258,2.95341l0.00019,4.13078c2.86653,0.69906 5.64546,1.81723 8.25671,3.36619l2.87278,-2.8665c1.63031,-1.62674 4.27743,-1.65211 5.89946,-0.02416zM122.46504,195.52119c-5.10253,-5.11372 -13.42066,-5.07572 -18.58272,0.07504c-5.16087,5.14959 -5.21472,13.46525 -0.11219,18.57897c5.099,5.11019 13.42066,5.08043 18.58152,-0.06915c5.16205,-5.15076 5.21238,-13.47232 0.11337,-18.58486z" fill="url(#color-4)"/><path d="M197.23867,201.69526l-3.07698,3.64162c-1.03238,1.22181 -2.84696,1.33331 -4.0679,0.30169l-2.15231,-1.81858c-1.71575,1.21938 -3.58187,2.1619 -5.52341,2.81222l0.22463,2.86796c0.06312,0.77053 -0.17478,1.52126 -0.67455,2.11275c-0.50079,0.58911 -1.20013,0.95297 -1.96979,1.01683l-4.75371,0.39705c-0.76966,0.06386 -1.52139,-0.17641 -2.11289,-0.67618c-0.59237,-0.50052 -0.9546,-1.2 -1.01874,-1.9729l-0.25245,-2.95502c-1.97366,-0.34671 -3.89096,-0.94994 -5.77315,-1.88663l-1.94315,2.29973c-1.03163,1.22093 -2.83886,1.38101 -4.05979,0.34939l-3.64427,-3.07921c-1.22093,-1.03162 -1.34972,-2.82755 -0.31809,-4.04848l1.94241,-2.29885c-1.23606,-1.69958 -2.15967,-3.49677 -2.83093,-5.38488l-2.97281,0.2359c-0.77053,0.06312 -1.5214,-0.1764 -2.112,-0.67543c-0.5906,-0.49903 -0.95195,-1.19776 -1.01758,-1.9689l-0.40044,-4.75507c-0.06475,-0.7704 0.17701,-1.52391 0.67679,-2.1154c0.49977,-0.59149 1.20148,-0.95637 1.97277,-1.02036l2.86177,-0.24953c0.3164,-2.02196 0.93349,-4.01834 1.85178,-5.91456l-2.15231,-1.81859c-1.22181,-1.03238 -1.3971,-2.8252 -0.36473,-4.04701l3.07698,-3.64162c1.02939,-1.21829 2.84498,-1.36677 4.06679,-0.3344l2.15231,1.81858c1.71635,-1.22189 3.57516,-2.15395 5.51683,-2.80265l-0.23386,-2.86063c-0.06563,-0.77114 0.17566,-1.52051 0.67469,-2.11112c0.49232,-0.58266 1.2099,-0.9538 1.97141,-1.01698l4.75195,-0.39855c1.54345,-0.12725 3.00614,1.10713 3.13414,2.6497l0.25727,2.96364c1.97366,0.34671 3.90054,0.95651 5.78109,1.89333l1.94465,-2.3015c1.03163,-1.22093 2.84026,-1.41312 4.06119,-0.3815l3.64426,3.07921c1.22093,1.03162 1.34832,2.85965 0.3167,4.08058l-1.9454,2.30238c1.23769,1.69944 2.15247,3.48917 2.8227,5.3749l2.96589,-0.24024c1.53815,-0.13173 2.99995,1.10191 3.12884,2.64522l0.40193,4.7533c0.06373,0.76802 -0.1764,1.5214 -0.67543,2.11201c-0.49977,0.59149 -1.19999,0.9546 -1.97039,1.01934l-2.85655,0.24336c-0.31464,2.02345 -0.92426,4.011 -1.84167,5.90796l2.15143,1.81784c1.22093,1.03162 1.39434,2.86069 0.36407,4.07823zM182.40018,192.27905c3.23586,-3.82966 2.71981,-9.57967 -1.14604,-12.8461c-3.86497,-3.26569 -9.61868,-2.81331 -12.85454,1.01635c-3.23362,3.82701 -2.72307,9.57993 1.1419,12.84563c3.86585,3.26644 9.62343,2.81127 12.85868,-1.01587z" fill="url(#color-5)"/><path d="M328.79738,140.36919l4.852,4.86264c1.62792,1.63148 1.56617,4.25025 -0.06414,5.87699l-2.87396,2.86767c1.54089,2.61228 2.6659,5.40662 3.36221,8.27349l4.14488,0.02809c1.11394,0.00358 2.16264,0.43688 2.95073,1.22669c0.78455,0.79099 1.22144,1.83946 1.21904,2.95223l-0.01105,6.87325c-0.0024,1.11276 -0.43923,2.16264 -1.22904,2.95072c-0.79099,0.78925 -1.83947,1.22379 -2.95695,1.2214l-4.27326,0.00121c-0.73901,2.79112 -1.83941,5.46998 -3.41424,8.05765l3.06411,3.07082c1.62674,1.6303 1.63565,4.24444 0.00534,5.87118l-4.86616,4.85552c-1.63031,1.62674 -4.22437,1.5921 -5.85111,-0.0382l-3.06294,-3.06964c-2.5911,1.56681 -5.28415,2.6731 -8.07689,3.406l-0.02472,4.29678c-0.00358,1.11394 -0.43923,2.16264 -1.22787,2.94955c-0.78863,0.7869 -1.83592,1.22027 -2.95105,1.22022l-6.87561,-0.00635c-1.11395,-0.00122 -2.16617,-0.44042 -2.95425,-1.23022c-0.78808,-0.78981 -1.22615,-1.84182 -1.22376,-2.95694l-0.00842,-4.13904c-2.86417,-0.70141 -5.65486,-1.83137 -8.26493,-3.3815l-2.87396,2.86768c-1.63148,1.62792 -4.2268,1.6604 -5.85471,0.02892l-4.852,-4.86264c-1.62321,-1.62677 -1.61445,-4.25147 0.01704,-5.87939l2.87396,-2.86768c-1.54441,-2.61346 -2.65532,-5.39601 -3.34928,-8.26288l-4.13548,-0.01395c-1.11513,-0.00005 -2.16147,-0.43805 -2.94837,-1.22669c-0.77632,-0.77802 -1.22143,-1.85359 -1.21905,-2.95458l0.0087,-6.87089c0.00598,-2.23141 1.95692,-4.18045 4.18716,-4.17565l4.28623,-0.00708c0.73901,-2.79112 1.85002,-5.48292 3.42485,-8.06823l-3.06646,-3.07318c-1.62674,-1.6303 -1.68157,-4.25037 -0.05127,-5.87712l4.86617,-4.85553c1.63031,-1.62674 4.27029,-1.58617 5.89703,0.04414l3.06763,3.07436c2.59111,-1.56917 5.27238,-2.66369 8.06157,-3.39542l0.01765,-4.28737c-0.0011,-2.22436 1.94867,-4.17221 4.18009,-4.1686l6.87324,0.004c1.11041,0.00239 2.16265,0.43923 2.94956,1.22786c0.78808,0.78981 1.22379,1.83947 1.22258,2.95341l0.00019,4.13079c2.86652,0.69906 5.64545,1.81722 8.25671,3.36618l2.87278,-2.86649c1.63031,-1.62674 4.27742,-1.65211 5.89946,-0.02416zM313.46506,160.52114c-5.10253,-5.11372 -13.42067,-5.07572 -18.58272,0.07504c-5.16088,5.14959 -5.21472,13.46525 -0.11219,18.57897c5.09901,5.11019 13.42066,5.08043 18.58152,-0.06915c5.16205,-5.15076 5.21238,-13.47232 0.11338,-18.58486z" fill="url(#color-6)"/><path d="M383.70008,255.00003c-2.60215,0 -8.43913,0 -8.43913,0c-3.23722,-0.609 -6.28686,-1.59813 -9.19022,-2.91375l-2.39435,2.91375h-11.69337l-4.25635,-3.46331c-1.13737,-0.92579 -1.84818,-2.24794 -1.99804,-3.70916c-0.14986,-1.46122 0.2756,-2.89991 1.20356,-4.03751l3.42667,-4.23684c-2.34487,-3.09398 -4.25897,-6.56491 -5.63975,-10.31533l-5.31711,0.5453c-3.01841,0.30956 -5.69763,-1.81127 -6.00719,-4.82968l-0.92264,-8.99634c-0.30866,-3.00968 1.87872,-5.68471 4.89713,-5.99427l5.31711,-0.54531c0.59078,-3.95262 1.76493,-7.71823 3.43516,-11.22399l-4.21465,-3.44657c-1.13956,-0.92557 -1.84532,-2.24161 -1.99495,-3.70066c-0.14762,-1.43941 0.29019,-2.90802 1.20641,-4.03119l5.71152,-7.01444c1.85811,-2.27542 5.46951,-2.648 7.7447,-0.79206l4.38615,3.5502c3.07177,-2.23901 6.44127,-4.06777 10.19639,-5.40275l-0.58311,-5.68569c-0.30934,-3.01622 1.80921,-5.73929 4.82543,-6.04863l9.00288,-0.9233c3.01623,-0.30934 5.68047,1.92323 5.98981,4.93946l0.58332,5.68787c0.32661,0.04522 0.65115,0.09427 0.97369,0.14708v24.0308c-2.63851,-1.12754 -5.59801,-1.62086 -8.66231,-1.3066c-9.54812,0.97922 -16.50489,9.43267 -15.53462,18.89354c0.96961,9.45433 9.49854,16.33064 19.04666,15.35142c1.82366,-0.18703 3.55279,-0.64691 5.15027,-1.33446c0,0 0.00001,14.38934 0.00002,18.69243c0,2.2696 -4.00989,5.19999 -6.24908,5.19999z" fill="url(#color-7)"/><path d="M328.88407,252.08478l-1.57778,2.91525h-46.57862c-0.60834,-0.77728 -1.16479,-1.58503 -1.67434,-2.42162l-3.33081,0.97464c-0.86285,0.25487 -1.77516,0.16027 -2.56651,-0.26801c-0.79135,-0.42829 -1.36893,-1.13851 -1.62681,-2.00147l-1.58529,-5.3222c-0.25669,-0.86232 -0.16018,-1.77817 0.26875,-2.5707c0.42893,-0.79253 1.14171,-1.37484 2.00521,-1.63089l3.20107,-0.9638c-0.11964,-2.37868 0.10934,-4.7996 0.70526,-7.17794l-2.88387,-1.56079c-1.6371,-0.88603 -2.26249,-2.8869 -1.37647,-4.52401l2.64079,-4.87939c0.88347,-1.63237 2.91663,-2.23264 4.55374,-1.34662l2.88387,1.56079c1.66524,-1.7996 3.5616,-3.30283 5.61964,-4.50291l-0.94567,-3.20349c-0.25788,-0.86295 -0.16091,-1.77398 0.26737,-2.56533c0.42253,-0.7807 1.15192,-1.37391 2.00448,-1.62671l5.31909,-1.58238c1.72818,-0.51146 3.68767,0.54752 4.19977,2.27451l0.9968,3.31528c2.33085,-0.07364 4.67087,0.16355 7.03576,0.7843l1.66898,-3.08378c0.88539,-1.63592 2.90026,-2.28433 4.53619,-1.39894l4.88294,2.64272c1.63592,0.88539 2.21511,2.93774 1.32972,4.57366l-1.66962,3.08495c1.81358,1.64222 3.28071,3.46399 4.49206,5.45319l3.32189,-0.97794c1.72108,-0.51531 3.67939,0.54303 4.19268,2.27067l1.58657,5.31983c0.25496,0.85985 0.16027,1.77516 -0.26801,2.56651c-0.42893,0.79253 -1.14043,1.37247 -2.00275,1.62917l-3.19658,0.95552c0.12201,2.37996 -0.10057,4.78906 -0.69531,7.16803l2.88268,1.56015c1.63592,0.88538 2.26779,2.928 1.38314,4.55974zM309.74325,244.88056c2.77715,-5.13134 0.82392,-11.55958 -4.35592,-14.36298c-5.17865,-2.80276 -11.62623,-0.92117 -14.40338,4.21017c-2.77524,5.12779 -0.82757,11.56066 4.35108,14.36343c5.17983,2.8034 11.63116,0.91772 14.40822,-4.21062z" fill="url(#color-8)"/><path d="M213.61483,253.51314c-2.33558,-1.71149 -4.43408,-3.71931 -6.2738,-6.13674l-3.98858,1.73708c-2.11755,0.92222 -4.56158,-0.02617 -5.4838,-2.14372l-2.75265,-6.32048c-0.92221,-2.11754 0.05948,-4.52692 2.17703,-5.44913l3.98704,-1.73641c-0.51463,-2.9927 -0.56197,-5.91204 -0.2242,-8.7878l-4.00281,-1.59559c-1.03877,-0.41101 -1.85848,-1.20158 -2.30459,-2.2259c-0.44611,-1.02432 -0.46745,-2.16078 -0.0593,-3.20193l2.52222,-6.41734c0.40882,-1.03964 1.20398,-1.86135 2.22983,-2.30813c1.02585,-0.44678 2.16843,-0.47078 3.20872,-0.06043l3.86764,1.50692c1.70312,-2.41754 3.77947,-4.60964 6.18203,-6.47932l-1.62572,-3.73289c-0.92289,-2.11908 -0.0034,-4.55417 2.11568,-5.47706l6.31589,-2.75065c2.11295,-0.92022 4.5604,0.04854 5.48329,2.16762l1.62572,3.73288c3.00537,-0.48555 6.00996,-0.50443 8.9407,-0.10317l1.5265,-3.85614c0.40815,-1.04116 1.20006,-1.85781 2.22438,-2.30392c1.01054,-0.4401 2.17768,-0.46206 3.20479,-0.05691l6.41209,2.5227c2.08126,0.82223 3.18705,3.3571 2.36636,5.4377l-1.56204,4.00458c2.33558,1.71149 4.44227,3.73396 6.2798,6.15052l3.99165,-1.73841c2.11754,-0.92221 4.58394,-0.01453 5.50615,2.10301l2.75265,6.32048c0.92222,2.11755 -0.08184,4.56762 -2.19938,5.48983l-3.99318,1.73908c0.51683,2.99356 0.5575,5.89759 0.21993,8.76963l3.99661,1.58555c2.07726,0.81303 3.18239,3.34637 2.36237,5.42851l-2.51917,6.41601c-0.40861,1.0359 -1.20158,1.85848 -2.2259,2.30459c-1.02585,0.44677 -2.16536,0.46945 -3.205,0.06063l-3.85693,-1.51158c-1.70178,2.4206 -3.76281,4.60603 -6.1647,6.47724l0.83879,1.92601h-38.47844zM236.95628,240.63173c6.64202,-2.89268 9.65077,-10.67312 6.73075,-17.37791c-2.91935,-6.70326 -10.66388,-9.79687 -17.3059,-6.90419c-6.63743,2.89068 -9.65517,10.67139 -6.73581,17.37466c2.92002,6.70479 10.67134,9.79726 17.31097,6.90745z" fill="url(#color-9)"/><path d="M124.88878,161.87735l-4.39284,1.85262c-1.47386,0.62158 -3.14209,-0.10105 -3.76322,-1.57384l-1.09496,-2.59629c-2.08198,0.30983 -4.17263,0.30473 -6.19812,0.00496l-1.09896,2.65856c-0.29279,0.71553 -0.84496,1.27704 -1.55847,1.57794c-0.71333,0.29833 -1.50163,0.30591 -2.2167,0.01418l-4.41783,-1.7995c-0.71508,-0.29173 -1.27642,-0.84647 -1.57733,-1.55998c-0.30136,-0.71456 -0.30742,-1.50225 -0.01447,-2.22036l1.1136,-2.74877c-1.60246,-1.20318 -3.03849,-2.60952 -4.29213,-4.29723l-2.77414,1.16996c-0.86386,0.36433 -1.80027,0.28239 -2.55226,-0.14484v-10.17696l1.24418,-0.52472c-0.33203,-2.07513 -0.34128,-4.09573 -0.08438,-6.08308l-1.15979,-0.47803v-10.35569c0.05537,-0.02757 0.11181,-0.05349 0.16927,-0.07772c0.7135,-0.30091 1.50437,-0.30832 2.22097,-0.01598l2.66433,1.07396c1.19804,-1.65926 2.65256,-3.15949 4.33022,-4.43399l-1.09496,-2.59629c-0.62158,-1.47386 0.03433,-3.15158 1.50819,-3.77316l4.39283,-1.85262c1.4696,-0.61979 3.15547,0.07031 3.77705,1.54417l1.09496,2.59629c2.08366,-0.3118 4.16303,-0.30067 6.18791,0.00061l1.08742,-2.65621c0.29083,-0.71721 0.84541,-1.27597 1.55784,-1.57644c0.70285,-0.29642 1.51071,-0.30221 2.21821,-0.01357l4.41694,1.79738c1.43363,0.58575 2.17844,2.34882 1.59376,3.78201l-1.1132,2.75865c1.60246,1.20318 3.04404,2.61972 4.29617,4.30681l2.77627,-1.17086c1.4728,-0.62114 3.17226,0.02686 3.79339,1.49965l1.85397,4.39602c0.62113,1.47279 -0.09341,3.16019 -1.5662,3.78133l-2.77734,1.17131c0.33355,2.07575 0.3383,4.0857 0.08157,6.07047l2.75294,1.1294c1.43095,0.57936 2.1753,2.34136 1.59107,3.77562l-1.79496,4.41967c-0.29111,0.71356 -0.84647,1.27642 -1.55891,1.57689c-0.7135,0.30091 -1.50224,0.30743 -2.21839,0.01614l-2.65688,-1.07709c-1.19714,1.66138 -2.64101,3.15713 -4.31822,4.43269l1.09451,2.59523c0.62113,1.47279 -0.05286,3.18198 -1.52291,3.80069zM115.92584,146.76074c4.61966,-1.94828 6.76441,-7.30822 4.79771,-11.97154c-1.96625,-4.66226 -7.30066,-6.86544 -11.92032,-4.91716c-4.61647,1.94693 -6.76743,7.30699 -4.80118,11.96924c1.9667,4.66332 7.30581,6.86577 11.92379,4.91945z" fill="url(#color-10)"/><path d="M385.43089,110.84101l4.21251,3.46883c0.10562,0.08634 0.20758,0.17602 0.30576,0.26883v8.06043l-5.22873,6.41703c-0.92602,1.1352 -2.2438,1.84555 -3.70502,1.99541c-1.4634,0.15008 -2.89554,-0.27605 -4.03554,-1.20597l-4.36804,-3.54543c-3.07177,2.23901 -6.41968,4.06336 -10.17676,5.40074l0.58266,5.68132c0.30933,3.01622 -1.85121,5.69512 -4.86744,6.00446l-9.00288,0.9233c-3.01622,0.30934 -5.63847,-1.87905 -5.94781,-4.89528l-0.58244,-5.67914c-3.94837,-0.54934 -7.61869,-1.65392 -11.08099,-3.22282l-3.59146,4.37055c-0.92819,1.13542 -2.2438,1.84554 -3.70284,1.99518c-1.45905,0.14963 -2.889,-0.27671 -4.02856,-1.20227l-7.02121,-5.71302c-1.13737,-0.92579 -1.84818,-2.24794 -1.99804,-3.70916c-0.14986,-1.46123 0.2756,-2.8999 1.20356,-4.03751l3.42667,-4.23684c-2.34487,-3.09398 -4.25897,-6.56491 -5.63975,-10.31534l-5.31711,0.5453c-2.44208,0.25045 -4.66215,-1.08999 -5.58484,-3.20955h36.05258c3.58004,4.10586 9.0622,6.47015 14.92916,5.86845c4.58577,-0.4703 8.57387,-2.66591 11.37382,-5.86845c0,0 14.8016,0 19.56192,0c2.73647,0 5.12131,3.96808 4.23079,5.84099z" fill="url(#color-11)"/></g><path d="M150.30001,133.2c0,0 20.07734,-1.2825 26.12379,7.67273c6.04646,8.95523 -4.90642,42.8961 14.16382,50.49608c19.07,7.59989 31.6456,-27.97485 31.6456,-27.97485l11.76679,0.60604c0,0 39.59772,31.6935 56.3,27.2c24.52359,-6.5977 -0.54248,-27.37805 9.85436,-44.80805c10.39684,-17.43 24.14564,-11.19195 24.14564,-11.19195" fill="none" fill-rule="nonzero" stroke-opacity="0.51373" stroke="#000000" stroke-width="9.5" stroke-linecap="round"/><path d="M150.30001,133.2c0,0 20.07734,-1.2825 26.12379,7.67273c6.04646,8.95523 -4.93494,42.96805 14.16382,50.49608c19.09876,7.52803 29.71239,-25.16881 29.71239,-25.16881l14.9684,-0.31777c0,0 38.49471,29.26316 55.0316,25.31777c24.70228,-5.8935 -0.54248,-27.37805 9.85436,-44.80805c10.39684,-17.43 24.14564,-11.19195 24.14564,-11.19195" fill="none" fill-rule="nonzero" stroke="#ffffff" stroke-width="3.5" stroke-linecap="round"/><path d="M90.35142,117.67138c0,-6.39897 5.91545,-12.49566 13.1192,-12.49566c28.93252,0 219.72832,0 272.60996,0c8.61359,0 13.56814,4.64378 13.56814,12.24625c0,30.59212 0,109.0924 0,125.70487c0,6.03964 -4.85913,11.69754 -13.31873,11.69754c-52.46667,0 -243.42599,0 -272.60996,0c-7.3279,0 -13.36861,-4.5235 -13.36861,-11.94695c0,-30.16113 0,-108.19342 0,-125.20604z" fill="none" fill-rule="nonzero" stroke="url(#color-12)" stroke-width="10" stroke-linecap="butt"/><path d="M120.55877,224.16647c0.52555,0.41719 1.43308,0.98609 2.72257,1.70669c1.29492,0.7206 2.53023,1.08091 3.70595,1.08091c1.18114,0 1.7717,-0.45783 1.7717,-1.37348c0,-0.41719 -0.16796,-0.78562 -0.50388,-1.10528c-0.3305,-0.31966 -0.94003,-0.68538 -1.82859,-1.09715c-0.88856,-0.41719 -1.55498,-0.74227 -1.99926,-0.97525c-0.44428,-0.23839 -1.03484,-0.6285 -1.7717,-1.1703c-0.73144,-0.54181 -1.2922,-1.10528 -1.6823,-1.69043c-1.10528,-1.57665 -1.65793,-3.58675 -1.65793,-6.03029c0,-2.44354 0.90752,-4.5024 2.72257,-6.17658c1.81505,-1.6796 4.19357,-2.51939 7.13557,-2.51939c1.99926,0 3.84411,0.21672 5.53454,0.65016c1.69043,0.42802 2.56274,0.9888 2.61692,1.68231c0,0.08127 0,0.16254 0,0.24381c0,0.97525 -0.30612,2.20515 -0.91836,3.6897c-0.60682,1.47913 -1.03485,2.30267 -1.28408,2.47063c-1.77712,-0.91565 -3.36732,-1.37348 -4.7706,-1.37348c-1.39785,0 -2.09679,0.49847 -2.09679,1.49538c0,0.61224 0.51472,1.15404 1.54415,1.62542c0.22214,0.11378 0.5391,0.26819 0.95087,0.46324c0.41719,0.18964 0.89668,0.41719 1.43849,0.68267c0.54181,0.26549 1.12425,0.59869 1.74732,0.99963c0.62308,0.40094 1.29762,0.93462 2.02364,1.60103c1.46829,1.38702 2.20244,3.21833 2.20244,5.49391c0,2.9691 -0.81813,5.39638 -2.45437,7.28186c-1.63626,1.88548 -4.16106,2.85531 -7.57444,2.90949c-1.66334,0 -3.16956,-0.13816 -4.51865,-0.41448c-1.34368,-0.27632 -2.51669,-0.81542 -3.51903,-1.61729c-0.99692,-0.80729 -1.49538,-1.77983 -1.49538,-2.91762c0,-1.13779 0.2086,-2.26746 0.62579,-3.38899c0.41719,-1.12696 0.86147,-1.86923 1.33284,-2.22682zM148.18849,223.9958c0,2.71986 1.02673,4.0798 3.08017,4.0798c1.33284,0 2.44354,-0.26278 3.3321,-0.78833c0.41177,0 0.7504,0.71518 1.01588,2.14554c0.26549,1.42495 0.39823,2.39478 0.39823,2.9095c0,0.51471 -0.07043,0.85334 -0.2113,1.01588c-1.46829,0.91565 -3.4784,1.37347 -6.03029,1.37347c-2.5519,0 -4.72454,-0.94815 -6.51792,-2.84447c-1.78796,-1.90174 -2.68193,-4.49698 -2.68193,-7.78574c0,-3.28876 0.88044,-5.9436 2.6413,-7.96454c1.76086,-2.02635 4.10417,-3.03952 7.02992,-3.03952c2.93116,0 4.96564,0.70706 6.10343,2.12117c0.24923,0.30341 0.37385,0.75311 0.37385,1.34909c0,0.59599 -0.11107,1.32471 -0.33321,2.18618c-0.49846,1.77712 -1.15134,2.80384 -1.95863,3.08016c-0.10836,0.02709 -0.26819,0.04064 -0.4795,0.04064c-0.20588,0 -0.46324,-0.16525 -0.77207,-0.49575c-1.07819,-1.08361 -1.94508,-1.62542 -2.60066,-1.62542c-0.65016,0 -1.21094,0.33322 -1.68231,0.99964c-0.47137,0.66642 -0.70706,1.74732 -0.70706,3.2427zM168.12327,234.27656c0,0.19505 -1.26241,0.29258 -3.78722,0.29258c-2.52481,-0.0596 -3.78722,-0.17067 -3.78722,-0.33321v-13.81603h-1.12154c-0.44428,0 -0.79916,-0.2709 -1.06465,-0.8127c-0.26549,-0.54181 -0.39822,-1.21365 -0.39822,-2.01552c0,-2.99618 0.88856,-4.49427 2.66568,-4.49427c1.24615,0 2.28642,0.38197 3.1208,1.14592c0.83438,0.75853 1.25157,1.62542 1.25157,2.60067c0.57973,-1.13779 1.36264,-2.04532 2.34873,-2.72258c0.98609,-0.68267 1.99113,-1.02401 3.01514,-1.02401c1.60916,0 2.5817,0.41449 2.91762,1.24345c0.08127,0.22214 0.1219,0.54993 0.1219,0.98337c0,0.42802 -0.13274,1.19739 -0.39822,2.30809c-0.26006,1.1107 -0.53097,1.91528 -0.81271,2.41374c-0.27632,0.49846 -0.44157,0.7477 -0.49575,0.7477c-0.05418,0 -0.31154,-0.10295 -0.77208,-0.30883c-0.45512,-0.21131 -0.86417,-0.31696 -1.22718,-0.31696c-1.05111,0 -1.57666,0.83167 -1.57666,2.49501zM183.09756,234.06525c0,0.22214 -1.27053,0.33321 -3.8116,0.33321c-2.53565,0 -3.80347,-0.09752 -3.80347,-0.29257v-20.43147c0,-0.18964 1.26782,-0.28445 3.80347,-0.28445c2.54107,0 3.8116,0.08127 3.8116,0.24381zM183.09756,211.1794c0,0.19505 -1.27053,0.29257 -3.8116,0.29257c-2.53565,0 -3.80347,-0.08398 -3.80347,-0.25194v-5.98965c0,-0.27632 1.26782,-0.41448 3.80347,-0.41448c2.54107,0 3.8116,0.08397 3.8116,0.25193zM195.79009,241.89163c0,0.19505 -1.18655,0.29257 -3.55966,0.29257c-2.36769,0 -3.55154,-0.09752 -3.55154,-0.29257v-21.4311h-1.41411c-0.66642,0 -1.12424,-0.60953 -1.37347,-1.8286c-0.08669,-0.3901 -0.13003,-0.88856 -0.13003,-1.49538c0,-0.61224 0.19505,-1.33555 0.58515,-2.16993c0.55264,-1.21906 1.4412,-1.82859 2.66568,-1.82859c0.80187,0 1.54144,0.18693 2.21869,0.56077c0.68267,0.37384 1.15405,0.7206 1.41411,1.04027c0.26549,0.31966 0.39822,0.50659 0.39822,0.56077c1.85839,-1.4412 3.86849,-2.1618 6.03029,-2.1618c2.16722,0 4.02561,0.8398 5.57518,2.51939c1.55498,1.67418 2.33247,4.26672 2.33247,7.77762c0,3.5109 -0.77749,6.23076 -2.33247,8.15958c-1.54956,1.92341 -3.51631,2.88511 -5.90026,2.88511c-1.08361,0 -2.06969,-0.05418 -2.95826,-0.16254zM197.49678,220.41989c-0.47137,0 -0.9292,0.15171 -1.37348,0.45512v7.36313c0.47137,0.0596 0.85334,0.0894 1.14592,0.0894c0.29257,0 0.52013,0 0.68267,0c1.13779,-0.11378 1.70669,-1.57124 1.70669,-4.37237c0,-2.35685 -0.7206,-3.53528 -2.1618,-3.53528zM219.50977,234.06525c0,0.33592 -1.16488,0.50388 -3.49464,0.50388c-2.77405,-0.11378 -4.16107,-0.29529 -4.16107,-0.54452v-14.72626h-2.12116c-0.55806,0 -0.83709,-0.959 -0.83709,-2.87699c0,-0.49846 0.04877,-1.10799 0.14629,-1.82859c0.09752,-0.7206 0.3007,-1.08091 0.60953,-1.08091h2.20244v-3.66531c0,-0.55264 1.1703,-0.82896 3.5109,-0.82896c2.34601,0 3.51902,0.22214 3.51902,0.66642v2.66568l0.04064,1.16217h3.54341c0.47137,0 0.70705,0.97254 0.70705,2.91762c0,1.93966 -0.23568,2.90949 -0.70705,2.90949h-2.95826zM245.18092,204.81589c2.02634,0 3.80887,0.28444 5.3476,0.85334c1.53873,0.56889 2.30809,1.33826 2.30809,2.30809c0,0.96983 -0.36843,2.16993 -1.10528,3.60029c-0.73144,1.43036 -1.34639,2.14555 -1.84485,2.14555c-0.14087,0 -0.3007,-0.07586 -0.47949,-0.22756c-0.1788,-0.15713 -0.59599,-0.32508 -1.25157,-0.50387c-0.65016,-0.1788 -1.21093,-0.26819 -1.6823,-0.26819c-1.60915,0 -2.90677,0.56889 -3.89285,1.70668c-0.98066,1.13779 -1.47101,2.87969 -1.47101,5.22571c0,2.3406 0.50388,4.0798 1.51164,5.21759c1.01317,1.13779 2.29725,1.70669 3.85222,1.70669c0.63933,0 1.35451,-0.0894 2.14554,-0.26819c0.79103,-0.18421 1.3518,-0.44158 1.6823,-0.77208c0.05418,-0.0596 0.16525,-0.08939 0.33321,-0.08939c0.16796,0 0.4795,0.31424 0.93462,0.94274c0.46053,0.62308 0.88314,1.4412 1.26782,2.45437c0.3901,1.01317 0.58515,1.79609 0.58515,2.34873c0,1.08361 -0.83167,1.94508 -2.49501,2.58441c-1.66334,0.63391 -3.6328,0.95086 -5.90837,0.95086c-3.6626,0 -6.67233,-1.28949 -9.02918,-3.86848c-2.35685,-2.57899 -3.53528,-6.21993 -3.53528,-10.9228c0,-4.70287 1.21364,-8.39798 3.64093,-11.08533c2.42729,-2.69278 5.45598,-4.03915 9.08607,-4.03915zM258.2274,231.86281c-1.73377,-1.91258 -2.60066,-4.562 -2.60066,-7.94828c0,-3.38628 0.86689,-6.03571 2.60066,-7.94828c1.73377,-1.91258 4.07167,-2.86886 7.01367,-2.86886c2.942,0 5.27176,0.95628 6.98928,2.86886c1.71753,1.91258 2.57629,4.562 2.57629,7.94828c0,3.38628 -0.85876,6.03571 -2.57629,7.94828c-1.71753,1.91258 -4.04728,2.86885 -6.98928,2.86885c-2.942,0 -5.2799,-0.95628 -7.01367,-2.86885zM265.25734,220.04604c-1.56581,0 -2.34873,1.27596 -2.34873,3.82785c0,2.5519 0.78291,3.82785 2.34873,3.82785c1.57124,0 2.35685,-1.27596 2.35685,-3.82785c0,-2.5519 -0.78562,-3.82785 -2.35685,-3.82785zM286.45732,234.06525c0,0.19505 -0.99692,0.29257 -2.99077,0.29257c-2.77405,-0.08127 -4.16107,-0.23298 -4.16107,-0.45512v-13.48282h-1.0809c-0.7206,0 -1.19197,-0.60953 -1.41411,-1.82859c-0.0596,-0.36301 -0.0894,-0.72331 -0.0894,-1.0809c0,-0.86147 0.16796,-1.72294 0.50388,-2.58441c0.49846,-1.21906 1.27324,-1.8286 2.32434,-1.8286c1.05652,0 1.99926,0.24923 2.82822,0.74769c0.83438,0.49846 1.39244,0.99693 1.67418,1.49538c1.74461,-1.49538 3.82244,-2.24308 6.23347,-2.24308c2.41645,0 4.16377,0.65287 5.24196,1.95862c1.08361,1.30033 1.62541,3.43505 1.62541,6.40414v12.48319c0,0.3305 -1.18655,0.49575 -3.55966,0.49575c-2.36769,0 -3.55154,-0.16525 -3.55154,-0.49575v-12.02808c0,-1.38702 -0.48492,-2.08053 -1.45475,-2.08053c-0.28174,0 -0.67184,0.1192 -1.1703,0.35759c-0.49846,0.23298 -0.81813,0.40635 -0.959,0.52013zM310.26248,234.06525c0,0.33592 -1.16488,0.50388 -3.49464,0.50388c-2.77405,-0.11378 -4.16107,-0.29529 -4.16107,-0.54452v-14.72626h-2.12117c-0.55806,0 -0.83709,-0.959 -0.83709,-2.87699c0,-0.49846 0.04877,-1.10799 0.14629,-1.82859c0.09753,-0.7206 0.3007,-1.08091 0.60953,-1.08091h2.20243v-3.66531c0,-0.55264 1.1703,-0.82896 3.5109,-0.82896c2.34602,0 3.51902,0.22214 3.51902,0.66642v2.66568l0.04064,1.16217h3.54341c0.47137,0 0.70705,0.97254 0.70705,2.91762c0,1.93966 -0.23568,2.90949 -0.70705,2.90949h-2.95826zM325.12005,234.27656c0,0.19505 -1.26241,0.29258 -3.78722,0.29258c-2.52481,-0.0596 -3.78722,-0.17067 -3.78722,-0.33321v-13.81603h-1.12153c-0.44428,0 -0.79916,-0.2709 -1.06465,-0.8127c-0.26549,-0.54181 -0.39823,-1.21365 -0.39823,-2.01552c0,-2.99618 0.88856,-4.49427 2.66568,-4.49427c1.24615,0 2.28642,0.38197 3.1208,1.14592c0.83438,0.75853 1.25157,1.62542 1.25157,2.60067c0.57973,-1.13779 1.36264,-2.04532 2.34873,-2.72258c0.98609,-0.68267 1.99114,-1.02401 3.01515,-1.02401c1.60916,0 2.5817,0.41449 2.91762,1.24345c0.08127,0.22214 0.12191,0.54993 0.12191,0.98337c0,0.42802 -0.13274,1.19739 -0.39823,2.30809c-0.26006,1.1107 -0.53096,1.91528 -0.8127,2.41374c-0.27632,0.49846 -0.44158,0.7477 -0.49576,0.7477c-0.05418,0 -0.31153,-0.10295 -0.77207,-0.30883c-0.45511,-0.21131 -0.86418,-0.31696 -1.22719,-0.31696c-1.05111,0 -1.57665,0.83167 -1.57665,2.49501zM334.29161,231.86281c-1.73377,-1.91258 -2.60066,-4.562 -2.60066,-7.94828c0,-3.38628 0.86689,-6.03571 2.60066,-7.94828c1.73377,-1.91258 4.07167,-2.86886 7.01367,-2.86886c2.942,0 5.27176,0.95628 6.98928,2.86886c1.71753,1.91258 2.57628,4.562 2.57628,7.94828c0,3.38628 -0.85876,6.03571 -2.57628,7.94828c-1.71753,1.91258 -4.04728,2.86885 -6.98928,2.86885c-2.942,0 -5.2799,-0.95628 -7.01367,-2.86885zM341.32154,220.04604c-1.56581,0 -2.34873,1.27596 -2.34873,3.82785c0,2.5519 0.78291,3.82785 2.34873,3.82785c1.57124,0 2.35685,-1.27596 2.35685,-3.82785c0,-2.5519 -0.78562,-3.82785 -2.35685,-3.82785zM361.39996,233.98398c0,0.24923 -1.41411,0.37385 -4.24233,0.37385c-2.2214,-0.02709 -3.33211,-0.13816 -3.33211,-0.33321v-28.33912c0,-0.41177 1.34638,-0.61766 4.03916,-0.61766c2.35685,0.08127 3.53528,0.21944 3.53528,0.41449z" fill="none" fill-rule="nonzero" stroke-opacity="0.50588" stroke="#000000" stroke-width="7.5" stroke-linecap="square"/><path d="M120.55877,224.16647c0.52555,0.41719 1.43308,0.98609 2.72257,1.70669c1.29492,0.7206 2.53023,1.0809 3.70595,1.0809c1.18114,0 1.7717,-0.45783 1.7717,-1.37348c0,-0.41719 -0.16796,-0.78562 -0.50388,-1.10528c-0.3305,-0.31967 -0.94003,-0.68538 -1.82859,-1.09716c-0.88856,-0.41719 -1.55498,-0.74227 -1.99926,-0.97525c-0.44428,-0.2384 -1.03485,-0.62849 -1.7717,-1.1703c-0.73144,-0.5418 -1.29221,-1.10528 -1.68231,-1.69043c-1.10528,-1.57665 -1.65792,-3.58675 -1.65792,-6.03029c0,-2.44354 0.90752,-4.5024 2.72257,-6.17658c1.81505,-1.6796 4.19357,-2.51939 7.13557,-2.51939c1.99926,0 3.84411,0.21672 5.53454,0.65017c1.69043,0.42803 2.56274,0.98879 2.61692,1.68231c0,0.08127 0,0.16254 0,0.24381c0,0.97525 -0.30612,2.20515 -0.91836,3.68969c-0.60682,1.47913 -1.03485,2.30267 -1.28408,2.47063c-1.77712,-0.91565 -3.36732,-1.37348 -4.77059,-1.37348c-1.39786,0 -2.09679,0.49846 -2.09679,1.49538c0,0.61224 0.51472,1.15405 1.54414,1.62542c0.22214,0.11378 0.5391,0.26819 0.95087,0.46324c0.41719,0.18963 0.89669,0.41719 1.43849,0.68267c0.5418,0.26548 1.12425,0.59869 1.74732,0.99963c0.62308,0.40094 1.29762,0.93461 2.02364,1.60103c1.46829,1.38702 2.20244,3.21832 2.20244,5.4939c0,2.96909 -0.81812,5.39638 -2.45437,7.28186c-1.63625,1.88548 -4.16106,2.85531 -7.57444,2.90949c-1.66334,0 -3.16956,-0.13816 -4.51866,-0.41448c-1.34368,-0.27632 -2.51668,-0.81542 -3.51902,-1.61729c-0.99692,-0.80729 -1.49538,-1.77983 -1.49538,-2.91762c0,-1.13779 0.20859,-2.26745 0.62578,-3.38899c0.41719,-1.12695 0.86147,-1.86923 1.33284,-2.22682zM148.18849,223.9958c0,2.71986 1.02672,4.07979 3.08016,4.07979c1.33284,0 2.44354,-0.26278 3.3321,-0.78833c0.41177,0 0.7504,0.71518 1.01588,2.14555c0.26548,1.42495 0.39823,2.39478 0.39823,2.90949c0,0.51472 -0.07043,0.85334 -0.2113,1.01588c-1.46829,0.91565 -3.47839,1.37348 -6.03029,1.37348c-2.5519,0 -4.72454,-0.94816 -6.51792,-2.84448c-1.78796,-1.90174 -2.68194,-4.49698 -2.68194,-7.78574c0,-3.28876 0.88043,-5.9436 2.6413,-7.96454c1.76087,-2.02635 4.10417,-3.03953 7.02992,-3.03953c2.93117,0 4.96564,0.70706 6.10344,2.12117c0.24923,0.30341 0.37385,0.75311 0.37385,1.34909c0,0.59599 -0.11107,1.32471 -0.33321,2.18618c-0.49846,1.77712 -1.15134,2.80384 -1.95863,3.08016c-0.10836,0.02709 -0.26819,0.04064 -0.4795,0.04064c-0.20589,0 -0.46324,-0.16525 -0.77207,-0.49575c-1.07819,-1.08361 -1.94508,-1.62542 -2.60066,-1.62542c-0.65017,0 -1.21093,0.33321 -1.68231,0.99963c-0.47137,0.66642 -0.70706,1.74732 -0.70706,3.2427zM168.12327,234.27656c0,0.19505 -1.26241,0.29257 -3.78722,0.29257c-2.52481,-0.0596 -3.78722,-0.17067 -3.78722,-0.33321v-13.81603h-1.12154c-0.44428,0 -0.79916,-0.2709 -1.06465,-0.81271c-0.26548,-0.5418 -0.39823,-1.21364 -0.39823,-2.01552c0,-2.99618 0.88856,-4.49427 2.66568,-4.49427c1.24615,0 2.28642,0.38197 3.1208,1.14592c0.83438,0.75853 1.25157,1.62542 1.25157,2.60066c0.57973,-1.13779 1.36264,-2.04531 2.34873,-2.72257c0.98609,-0.68267 1.99113,-1.02401 3.01515,-1.02401c1.60916,0 2.5817,0.41448 2.91762,1.24344c0.08127,0.22214 0.12191,0.54993 0.12191,0.98338c0,0.42803 -0.13274,1.19739 -0.39823,2.30809c-0.26007,1.1107 -0.53097,1.91528 -0.81271,2.41374c-0.27632,0.49846 -0.44157,0.74769 -0.49575,0.74769c-0.05418,0 -0.31154,-0.10294 -0.77207,-0.30883c-0.45512,-0.2113 -0.86418,-0.31696 -1.22719,-0.31696c-1.0511,0 -1.57665,0.83167 -1.57665,2.49501zM183.09756,234.06525c0,0.22214 -1.27053,0.33321 -3.8116,0.33321c-2.53565,0 -3.80347,-0.09752 -3.80347,-0.29257v-20.43147c0,-0.18963 1.26782,-0.28445 3.80347,-0.28445c2.54107,0 3.8116,0.08127 3.8116,0.24381zM183.09756,211.1794c0,0.19505 -1.27053,0.29257 -3.8116,0.29257c-2.53565,0 -3.80347,-0.08398 -3.80347,-0.25194v-5.98966c0,-0.27632 1.26782,-0.41448 3.80347,-0.41448c2.54107,0 3.8116,0.08398 3.8116,0.25194zM195.79009,241.89163c0,0.19505 -1.18655,0.29257 -3.55966,0.29257c-2.36769,0 -3.55153,-0.09752 -3.55153,-0.29257v-21.4311h-1.41411c-0.66642,0 -1.12425,-0.60953 -1.37348,-1.82859c-0.08669,-0.3901 -0.13003,-0.88856 -0.13003,-1.49538c0,-0.61224 0.19505,-1.33555 0.58515,-2.16993c0.55264,-1.21906 1.4412,-1.82859 2.66568,-1.82859c0.80187,0 1.54143,0.18692 2.21869,0.56077c0.68267,0.37385 1.15405,0.7206 1.41411,1.04027c0.26548,0.31967 0.39823,0.50659 0.39823,0.56077c1.85839,-1.4412 3.86849,-2.1618 6.03029,-2.1618c2.16722,0 4.02561,0.8398 5.57518,2.51939c1.55498,1.67418 2.33247,4.26672 2.33247,7.77761c0,3.5109 -0.77749,6.23076 -2.33247,8.15959c-1.54956,1.92341 -3.51631,2.88511 -5.90026,2.88511c-1.08361,0 -2.06969,-0.05418 -2.95826,-0.16254zM197.49678,220.41989c-0.47137,0 -0.9292,0.1517 -1.37348,0.45512v7.36313c0.47137,0.0596 0.85334,0.0894 1.14592,0.0894c0.29257,0 0.52013,0 0.68267,0c1.13779,-0.11378 1.70669,-1.57124 1.70669,-4.37237c0,-2.35685 -0.7206,-3.53528 -2.1618,-3.53528zM219.50975,234.06525c0,0.33592 -1.16488,0.50388 -3.49464,0.50388c-2.77404,-0.11378 -4.16106,-0.29528 -4.16106,-0.54451v-14.72627h-2.12117c-0.55806,0 -0.83709,-0.959 -0.83709,-2.87699c0,-0.49846 0.04876,-1.10799 0.14629,-1.82859c0.09752,-0.7206 0.3007,-1.0809 0.60953,-1.0809h2.20244v-3.66531c0,-0.55264 1.1703,-0.82896 3.5109,-0.82896c2.34602,0 3.51902,0.22214 3.51902,0.66642v2.66568l0.04064,1.16217h3.54341c0.47137,0 0.70706,0.97254 0.70706,2.91762c0,1.93966 -0.23569,2.90949 -0.70706,2.90949h-2.95826zM245.18092,204.81589c2.02634,0 3.80887,0.28445 5.3476,0.85334c1.53873,0.5689 2.30809,1.33826 2.30809,2.30809c0,0.96983 -0.36843,2.16993 -1.10528,3.6003c-0.73144,1.43037 -1.34639,2.14555 -1.84485,2.14555c-0.14087,0 -0.3007,-0.07585 -0.4795,-0.22756c-0.1788,-0.15712 -0.59599,-0.32508 -1.25157,-0.50388c-0.65017,-0.1788 -1.21093,-0.26819 -1.68231,-0.26819c-1.60915,0 -2.90677,0.5689 -3.89285,1.70669c-0.98067,1.13779 -1.471,2.8797 -1.471,5.22571c0,2.3406 0.50388,4.07979 1.51164,5.21758c1.01317,1.13779 2.29725,1.70669 3.85222,1.70669c0.63933,0 1.35451,-0.0894 2.14555,-0.26819c0.79104,-0.18421 1.3518,-0.44157 1.68231,-0.77207c0.05418,-0.0596 0.16525,-0.0894 0.33321,-0.0894c0.16796,0 0.4795,0.31425 0.93461,0.94274c0.46053,0.62308 0.88314,1.4412 1.26782,2.45438c0.3901,1.01317 0.58515,1.79608 0.58515,2.34873c0,1.08361 -0.83167,1.94508 -2.49501,2.58441c-1.66334,0.63391 -3.6328,0.95087 -5.90837,0.95087c-3.6626,0 -6.67233,-1.2895 -9.02918,-3.86849c-2.35685,-2.57899 -3.53528,-6.21992 -3.53528,-10.92279c0,-4.70287 1.21364,-8.39798 3.64093,-11.08533c2.42729,-2.69277 5.45598,-4.03916 9.08607,-4.03916zM258.2274,231.86281c-1.73378,-1.91257 -2.60066,-4.562 -2.60066,-7.94828c0,-3.38628 0.86689,-6.03571 2.60066,-7.94828c1.73378,-1.91257 4.07167,-2.86886 7.01367,-2.86886c2.942,0 5.27176,0.95629 6.98929,2.86886c1.71752,1.91257 2.57628,4.562 2.57628,7.94828c0,3.38628 -0.85876,6.03571 -2.57628,7.94828c-1.71752,1.91257 -4.04728,2.86886 -6.98929,2.86886c-2.942,0 -5.27989,-0.95629 -7.01367,-2.86886zM265.25734,220.04604c-1.56582,0 -2.34873,1.27595 -2.34873,3.82785c0,2.5519 0.78291,3.82785 2.34873,3.82785c1.57124,0 2.35685,-1.27595 2.35685,-3.82785c0,-2.5519 -0.78562,-3.82785 -2.35685,-3.82785zM286.45731,234.06525c0,0.19505 -0.99692,0.29257 -2.99076,0.29257c-2.77404,-0.08127 -4.16106,-0.23298 -4.16106,-0.45512v-13.48282h-1.0809c-0.7206,0 -1.19197,-0.60953 -1.41411,-1.82859c-0.0596,-0.36301 -0.0894,-0.72331 -0.0894,-1.0809c0,-0.86147 0.16796,-1.72294 0.50388,-2.58441c0.49846,-1.21906 1.27324,-1.82859 2.32434,-1.82859c1.05652,0 1.99926,0.24923 2.82822,0.74769c0.83438,0.49846 1.39244,0.99692 1.67418,1.49538c1.74461,-1.49538 3.82244,-2.24307 6.23347,-2.24307c2.41645,0 4.16377,0.65288 5.24197,1.95863c1.08361,1.30033 1.62542,3.43504 1.62542,6.40414v12.48319c0,0.3305 -1.18655,0.49575 -3.55966,0.49575c-2.36769,0 -3.55153,-0.16525 -3.55153,-0.49575v-12.02808c0,-1.38702 -0.48491,-2.08053 -1.45475,-2.08053c-0.28174,0 -0.67184,0.1192 -1.1703,0.35759c-0.49846,0.23298 -0.81812,0.40635 -0.959,0.52013zM310.26248,234.06525c0,0.33592 -1.16488,0.50388 -3.49464,0.50388c-2.77404,-0.11378 -4.16106,-0.29528 -4.16106,-0.54451v-14.72627h-2.12117c-0.55806,0 -0.83709,-0.959 -0.83709,-2.87699c0,-0.49846 0.04876,-1.10799 0.14629,-1.82859c0.09752,-0.7206 0.3007,-1.0809 0.60953,-1.0809h2.20244v-3.66531c0,-0.55264 1.1703,-0.82896 3.5109,-0.82896c2.34602,0 3.51902,0.22214 3.51902,0.66642v2.66568l0.04064,1.16217h3.54341c0.47137,0 0.70706,0.97254 0.70706,2.91762c0,1.93966 -0.23569,2.90949 -0.70706,2.90949h-2.95826zM325.12005,234.27656c0,0.19505 -1.26241,0.29257 -3.78722,0.29257c-2.52481,-0.0596 -3.78722,-0.17067 -3.78722,-0.33321v-13.81603h-1.12154c-0.44428,0 -0.79916,-0.2709 -1.06465,-0.81271c-0.26548,-0.5418 -0.39823,-1.21364 -0.39823,-2.01552c0,-2.99618 0.88856,-4.49427 2.66568,-4.49427c1.24615,0 2.28642,0.38197 3.1208,1.14592c0.83438,0.75853 1.25157,1.62542 1.25157,2.60066c0.57973,-1.13779 1.36264,-2.04531 2.34873,-2.72257c0.98609,-0.68267 1.99113,-1.02401 3.01515,-1.02401c1.60916,0 2.5817,0.41448 2.91762,1.24344c0.08127,0.22214 0.12191,0.54993 0.12191,0.98338c0,0.42803 -0.13274,1.19739 -0.39823,2.30809c-0.26007,1.1107 -0.53097,1.91528 -0.81271,2.41374c-0.27632,0.49846 -0.44157,0.74769 -0.49575,0.74769c-0.05418,0 -0.31154,-0.10294 -0.77207,-0.30883c-0.45512,-0.2113 -0.86418,-0.31696 -1.22719,-0.31696c-1.0511,0 -1.57665,0.83167 -1.57665,2.49501zM334.29161,231.86281c-1.73378,-1.91257 -2.60066,-4.562 -2.60066,-7.94828c0,-3.38628 0.86689,-6.03571 2.60066,-7.94828c1.73378,-1.91257 4.07167,-2.86886 7.01367,-2.86886c2.942,0 5.27176,0.95629 6.98929,2.86886c1.71752,1.91257 2.57628,4.562 2.57628,7.94828c0,3.38628 -0.85876,6.03571 -2.57628,7.94828c-1.71752,1.91257 -4.04728,2.86886 -6.98929,2.86886c-2.942,0 -5.27989,-0.95629 -7.01367,-2.86886zM341.32153,220.04604c-1.56582,0 -2.34873,1.27595 -2.34873,3.82785c0,2.5519 0.78291,3.82785 2.34873,3.82785c1.57124,0 2.35685,-1.27595 2.35685,-3.82785c0,-2.5519 -0.78562,-3.82785 -2.35685,-3.82785zM361.39996,233.98398c0,0.24923 -1.41411,0.37385 -4.24233,0.37385c-2.2214,-0.02709 -3.3321,-0.13816 -3.3321,-0.33321v-28.33912c0,-0.41177 1.34639,-0.61766 4.03916,-0.61766c2.35685,0.08127 3.53528,0.21943 3.53528,0.41448z" fill="#ffffff" fill-rule="nonzero" stroke="none" stroke-width="1" stroke-linecap="square"/><path d="M281.90157,160.56782c0.21241,2.07515 -1.00642,3.90173 -2.72065,4.0772l-32.91162,3.36869c-0.82605,0.08455 -1.57482,0.55623 -2.0801,1.32212l-3.79804,5.69174c-0.50605,0.75836 -1.25404,1.23757 -2.08011,1.32212l-16.06141,1.64398c-0.82605,0.08455 -1.65563,-0.2332 -2.31104,-0.87267l-4.86614,-4.80491c-0.65618,-0.64701 -1.48499,-0.95722 -2.30482,-0.87331l-8.09283,0.82835c-1.71422,0.17545 -3.27784,-1.36632 -3.49024,-3.44147l-3.086,-30.14978c-0.21242,-2.07515 1.00642,-3.90173 2.72065,-4.0772l8.03072,-0.822c0.82605,-0.08455 1.65562,0.2332 2.3048,0.87331l4.93596,4.87376c0.65542,0.63948 1.48498,0.95723 2.31104,0.87267l16.06141,-1.64398c0.82605,-0.08455 1.57406,-0.56378 2.08011,-1.32212l3.84624,-5.77267c0.51227,-0.75899 1.26023,-1.23822 2.08629,-1.32277l32.84951,-3.36235c1.71421,-0.17545 3.27783,1.36632 3.49024,3.44147zM260.14498,133.52816l-12.0547,1.23387c-7.76726,0.79503 -13.41935,7.73611 -12.62432,15.50336c0.79503,7.76724 7.7361,13.41933 15.50336,12.62431l12.41884,-2.69036c4.14463,-0.42424 -0.91786,-3.71859 0.30029,-6.35096c0.55646,-1.20246 4.54322,3.48268 6.60547,2.32427c1.88371,-1.05812 1.89026,-7.92671 1.71326,-9.65606c-0.79503,-7.76726 -4.09492,-13.78347 -11.86217,-12.98844zM259.8385,147.77072c0.56732,5.54826 -3.47018,10.506 -9.01835,11.0739c-3.58955,0.36742 -7.10242,-1.20821 -9.21521,-4.13327c-2.11275,-2.92507 -2.50442,-6.75516 -1.02738,-10.0473c1.47704,-3.29217 4.59833,-5.54613 8.18794,-5.91284c3.30208,-0.3373 12.03868,-0.86416 14.12127,1.40824c0.88154,0.96189 5.04055,7.7197 3.84837,9.5154c-0.34382,0.51788 -5.21424,-5.72146 -6.78294,-6.39834c-1.7332,-0.74785 -0.15924,4.0488 -0.1137,4.49416z" fill="none" fill-rule="evenodd" stroke-opacity="0.50588" stroke="#000000" stroke-width="8" stroke-linecap="butt"/><path d="M281.90157,160.56782c0.21241,2.07515 -1.00642,3.90173 -2.72065,4.0772l-32.91162,3.36869c-0.82605,0.08455 -1.57482,0.55623 -2.0801,1.32212l-3.79804,5.69174c-0.50605,0.75836 -1.25404,1.23757 -2.08011,1.32212l-16.06141,1.64398c-0.82605,0.08455 -1.65563,-0.2332 -2.31104,-0.87267l-4.86614,-4.80491c-0.65618,-0.64701 -1.48499,-0.95722 -2.30482,-0.87331l-8.09283,0.82835c-1.71422,0.17545 -3.27784,-1.36632 -3.49024,-3.44147l-3.086,-30.14978c-0.21242,-2.07515 1.00642,-3.90173 2.72065,-4.0772l8.03072,-0.822c0.82605,-0.08455 1.65562,0.2332 2.3048,0.87331l4.93596,4.87376c0.65542,0.63948 1.48498,0.95723 2.31104,0.87267l16.06141,-1.64398c0.82605,-0.08455 1.57406,-0.56378 2.08011,-1.32212l3.84624,-5.77267c0.51227,-0.75899 1.26023,-1.23822 2.08629,-1.32277l32.84951,-3.36235c1.71421,-0.17545 3.27783,1.36632 3.49024,3.44147zM260.14498,133.52816l-12.0547,1.23387c-7.76726,0.79503 -13.41935,7.73611 -12.62432,15.50336c0.79503,7.76724 7.7361,13.41933 15.50336,12.62431l12.05471,-1.23388c7.76725,-0.79503 13.41935,-7.73609 12.62433,-15.50334c-0.79503,-7.76726 -7.73611,-13.41935 -15.50336,-12.62432zM259.8385,147.77072c0.56732,5.54826 -3.47018,10.506 -9.01835,11.0739c-3.58955,0.36742 -7.10242,-1.20821 -9.21521,-4.13327c-2.11275,-2.92507 -2.50442,-6.75516 -1.02738,-10.0473c1.47704,-3.29217 4.59833,-5.54613 8.18794,-5.91284c5.54829,-0.56673 10.50566,3.47124 11.073,9.01947z" fill="#ffffff" fill-rule="evenodd" stroke="none" stroke-width="1" stroke-linecap="butt"/><g fill-rule="nonzero" stroke-linecap="butt"><g fill="none"><path d="M320.55514,130.06062c4.05594,-6.41058 14.11171,-9.35698 20.98595,-6.149l16.83247,-4.93202c0.48292,-0.1415 0.98912,0.13529 1.13062,0.61821l2.56209,8.74414c0.1415,0.48292 -0.13528,0.98913 -0.6182,1.13063l-27.32544,8.00652c-0.43721,0.12811 -0.59176,0.41076 -0.74631,0.69342l-0.61821,1.13062c-0.15455,0.28266 -0.3091,0.56531 -0.74631,0.69342l-2.62324,0.76862c-0.43721,0.12811 -0.71986,-0.02645 -1.00252,-0.181l-1.13062,-0.61821c-0.28266,-0.15455 -0.56532,-0.30911 -1.00252,-0.181l-1.74883,0.51242c-0.48293,0.1415 -0.98913,-0.13527 -1.13062,-0.61821z" stroke-opacity="0.50588" stroke="#000000" stroke-width="6.5"/><g stroke="none" stroke-width="1" font-family="sans-serif" font-weight="normal" font-size="12" text-anchor="start"/></g><g fill="none"><g stroke="none" stroke-width="1" font-family="sans-serif" font-weight="normal" font-size="12" text-anchor="start"/><g stroke-opacity="0.50588" stroke="#000000" stroke-width="6.5"><g><path d="M328.53411,158.76898c-0.14149,-0.48293 0.13528,-0.98912 0.61821,-1.13062l1.74883,-0.51242c0.43721,-0.12811 0.71986,0.02645 1.00251,0.181l1.13062,0.61821c0.28266,0.15455 0.56531,0.30911 1.00251,0.181l2.62325,-0.76863c0.43721,-0.12811 0.59176,-0.41076 0.74631,-0.69342l0.6182,-1.13063c0.15455,-0.28266 0.3091,-0.56531 0.74631,-0.69342l29.73008,-8.7111c0.48292,-0.1415 0.98913,0.13528 1.13062,0.61821l2.56209,8.74414c0.1415,0.48292 -0.13528,0.98913 -0.61821,1.13062l-29.73009,8.7111c-0.43721,0.12811 -0.59175,0.41076 -0.74631,0.69341l-0.61821,1.13062c-0.15455,0.28266 -0.3091,0.56531 -0.74631,0.69341l-2.62324,0.76863c-0.43721,0.12811 -0.71987,-0.02645 -1.00252,-0.181l-1.13062,-0.61821c-0.28266,-0.15455 -0.56531,-0.3091 -1.00252,-0.181l-1.74883,0.51242c-0.48293,0.1415 -0.98913,-0.13528 -1.13062,-0.61821z"/></g><g><path d="M332.38507,172.22938c-0.14149,-0.48293 0.13527,-0.98913 0.61821,-1.13062l1.74883,-0.51242c0.43721,-0.12811 0.71987,0.02644 1.00252,0.181l1.13062,0.61821c0.28266,0.15455 0.56531,0.3091 1.00252,0.181l2.62325,-0.76863c0.43721,-0.12811 0.59176,-0.41076 0.74631,-0.69342l0.61821,-1.13062c0.15455,-0.28266 0.3091,-0.56531 0.74631,-0.69342l14.64643,-4.29149c0.48293,-0.14149 0.98913,0.13528 1.13062,0.61821l2.56208,8.74414c0.1415,0.48292 -0.13528,0.98912 -0.61821,1.13062l-14.64644,4.2915c-0.43721,0.12811 -0.59176,0.41076 -0.74631,0.69342l-0.61821,1.13062c-0.15455,0.28266 -0.3091,0.56531 -0.74631,0.69342l-2.62325,0.76863c-0.43721,0.12811 -0.71987,-0.02644 -1.00252,-0.181l-1.13062,-0.61821c-0.28266,-0.15455 -0.56531,-0.30911 -1.00252,-0.181l-1.74883,0.51242c-0.48293,0.1415 -0.98913,-0.13528 -1.13063,-0.6182z"/></g></g></g><path d="M324.68735,144.88088c-0.1415,-0.48293 0.13527,-0.98913 0.61821,-1.13062l1.74883,-0.51242c0.43721,-0.12811 0.71987,0.02645 1.00252,0.181l1.13062,0.61821c0.28266,0.15455 0.56531,0.3091 1.00252,0.181l2.62325,-0.76863c0.43721,-0.12811 0.59176,-0.41076 0.74631,-0.69342l0.61821,-1.13062c0.15455,-0.28266 0.3091,-0.56531 0.74631,-0.69342l13.33481,-3.90718c0.48292,-0.1415 0.98913,0.13527 1.13062,0.61821l2.56208,8.74414c0.1415,0.48293 -0.13528,0.98912 -0.61821,1.13062l-13.33482,3.90718c-0.43721,0.12811 -0.59176,0.41076 -0.74631,0.69342l-0.61821,1.13063c-0.15455,0.28266 -0.3091,0.56531 -0.74631,0.69342l-2.62324,0.76862c-0.43721,0.12811 -0.71987,-0.02645 -1.00252,-0.181l-1.13062,-0.61821c-0.28266,-0.15455 -0.56531,-0.3091 -1.00252,-0.181l-1.74883,0.51242c-0.48293,0.1415 -0.98913,-0.13528 -1.13062,-0.61821z" fill="none" stroke-opacity="0.50588" stroke="#000000" stroke-width="6.5"/><g><path d="M320.55514,130.06062c4.05594,-6.41058 14.11171,-9.35698 20.98595,-6.149l16.83247,-4.93202c0.48292,-0.1415 0.98912,0.13529 1.13062,0.61821l2.56209,8.74414c0.1415,0.48292 -0.13528,0.98913 -0.61821,1.13062l-27.32544,8.00652c-0.43721,0.12811 -0.59176,0.41076 -0.74631,0.69342l-0.61821,1.13062c-0.15455,0.28266 -0.3091,0.56531 -0.74631,0.69342l-2.62324,0.76863c-0.43721,0.12811 -0.71987,-0.02645 -1.00252,-0.181l-1.13062,-0.61821c-0.28266,-0.15455 -0.56531,-0.3091 -1.00252,-0.181l-1.74883,0.51242c-0.48292,0.1415 -0.98913,-0.13528 -1.13062,-0.61821z" fill="#ffffff" stroke-opacity="0.50588" stroke="#000000" stroke-width="0"/><g fill="none" stroke="none" stroke-width="1" font-family="sans-serif" font-weight="normal" font-size="12" text-anchor="start"/></g><g><g fill="none" stroke="none" stroke-width="1" font-family="sans-serif" font-weight="normal" font-size="12" text-anchor="start"/><g fill="#ffffff" stroke-opacity="0.50588" stroke="#000000" stroke-width="0"><g><path d="M328.53411,158.76898c-0.14149,-0.48293 0.13529,-0.98912 0.61821,-1.13062l1.74883,-0.51242c0.43721,-0.12811 0.71986,0.02645 1.00251,0.181l1.13063,0.6182c0.28266,0.15455 0.56531,0.30911 1.00251,0.181l2.62325,-0.76863c0.43721,-0.12811 0.59176,-0.41076 0.74631,-0.69342l0.6182,-1.13063c0.15455,-0.28266 0.3091,-0.56531 0.74631,-0.69342l29.73008,-8.7111c0.48292,-0.1415 0.98913,0.13529 1.13063,0.6182l2.56208,8.74414c0.1415,0.48292 -0.13528,0.98913 -0.61821,1.13062l-29.73009,8.7111c-0.43721,0.12811 -0.59176,0.41076 -0.74631,0.69342l-0.61821,1.13062c-0.15455,0.28266 -0.3091,0.56531 -0.74631,0.69342l-2.62324,0.76863c-0.43721,0.12811 -0.71986,-0.02645 -1.00251,-0.181l-1.13062,-0.61821c-0.28266,-0.15455 -0.56531,-0.3091 -1.00252,-0.181l-1.74883,0.51242c-0.48293,0.14149 -0.98913,-0.13529 -1.13062,-0.61821z"/></g><g><path d="M332.38507,172.22938c-0.14149,-0.48293 0.13528,-0.98913 0.61821,-1.13062l1.74883,-0.51242c0.43721,-0.12811 0.71987,0.02644 1.00252,0.181l1.13062,0.61821c0.28266,0.15455 0.56531,0.3091 1.00252,0.181l2.62325,-0.76863c0.43721,-0.12811 0.59176,-0.41076 0.74631,-0.69342l0.61821,-1.13062c0.15455,-0.28266 0.3091,-0.56531 0.74631,-0.69342l14.64643,-4.29149c0.48293,-0.14149 0.98913,0.13528 1.13062,0.61821l2.56209,8.74414c0.1415,0.48292 -0.13528,0.98913 -0.61821,1.13062l-14.64644,4.29149c-0.43721,0.12811 -0.59175,0.41077 -0.7463,0.69342l-0.61821,1.13062c-0.15455,0.28266 -0.3091,0.56531 -0.74631,0.69342l-2.62325,0.76863c-0.43721,0.12811 -0.71987,-0.02645 -1.00252,-0.181l-1.13062,-0.61821c-0.28266,-0.15455 -0.56531,-0.3091 -1.00252,-0.181l-1.74883,0.51242c-0.48293,0.14149 -0.98912,-0.13528 -1.13062,-0.61821z"/></g></g></g><path d="M324.68735,144.88088c-0.14149,-0.48293 0.13528,-0.98913 0.61821,-1.13062l1.74883,-0.51242c0.43721,-0.12811 0.71987,0.02645 1.00252,0.181l1.13062,0.61821c0.28266,0.15455 0.56531,0.3091 1.00252,0.181l2.62325,-0.76863c0.43721,-0.12811 0.59176,-0.41076 0.74631,-0.69342l0.61821,-1.13062c0.15455,-0.28266 0.3091,-0.56531 0.74631,-0.69342l13.33482,-3.90718c0.48292,-0.1415 0.98912,0.13528 1.13062,0.61821l2.56209,8.74414c0.1415,0.48292 -0.13528,0.98912 -0.61821,1.13062l-13.33481,3.90718c-0.43721,0.12811 -0.59175,0.41076 -0.74631,0.69341l-0.61821,1.13062c-0.15455,0.28266 -0.3091,0.56531 -0.74631,0.69342l-2.62325,0.76863c-0.43721,0.12811 -0.71986,-0.02645 -1.00252,-0.181l-1.13062,-0.61821c-0.28266,-0.15455 -0.56532,-0.30911 -1.00252,-0.181l-1.74882,0.51242c-0.48292,0.1415 -0.98913,-0.13529 -1.13062,-0.61821z" fill="#ffffff" stroke-opacity="0.50588" stroke="#000000" stroke-width="0"/></g><g fill-rule="nonzero" stroke-linecap="butt"><g fill="none"><path d="M116.8368,122.84488c6.01604,-4.12263 16.01652,-2.90785 20.87058,2.5352l16.73994,2.03345c0.48027,0.05834 0.82231,0.49497 0.76398,0.97524l-1.05634,8.69608c-0.05835,0.48027 -0.49498,0.82231 -0.97525,0.76397l-27.17523,-3.30105c-0.4348,-0.05282 -0.67862,0.13818 -0.92243,0.32918l-0.97524,0.76397c-0.2438,0.19099 -0.48762,0.382 -0.92242,0.32917l-2.60882,-0.3169c-0.4348,-0.05282 -0.6258,-0.29663 -0.81679,-0.54044l-0.76396,-0.97524c-0.191,-0.24381 -0.382,-0.48762 -0.81679,-0.54044l-1.73922,-0.21126c-0.48027,-0.05834 -0.82232,-0.49497 -0.76398,-0.97525z" stroke-opacity="0.50588" stroke="#000000" stroke-width="7"/><g stroke="none" stroke-width="1" font-family="sans-serif" font-weight="normal" font-size="12" text-anchor="start"/></g><g fill="none"><path d="M115.05229,137.08899c0.05835,-0.48027 0.49497,-0.82231 0.97525,-0.76397l1.73922,0.21127c0.4348,0.05282 0.62579,0.29663 0.81679,0.54044l0.76397,0.97525c0.191,0.24381 0.38199,0.48762 0.81679,0.54044l2.60883,0.3169c0.4348,0.05282 0.67861,-0.13818 0.92242,-0.32917l0.97525,-0.76397c0.2438,-0.19099 0.48762,-0.382 0.92242,-0.32918l23.47941,2.85211c0.48027,0.05834 0.82232,0.49497 0.76398,0.97524l-1.05634,8.69608c-0.05835,0.48027 -0.49498,0.82231 -0.97525,0.76397l-18.69656,-2.27112c-0.4348,-0.05282 -0.67862,0.13818 -0.92243,0.32917l-0.97524,0.76397c-0.2438,0.19099 -0.48763,0.38199 -0.92243,0.32917l-2.60882,-0.3169c-0.4348,-0.05282 -0.6258,-0.29663 -0.81679,-0.54044l-0.76397,-0.97524c-0.191,-0.24381 -0.38199,-0.48762 -0.81679,-0.54044l-3.04363,-0.36972c-0.48027,-0.05834 -0.9169,0.28371 -0.97525,0.76398l-3.01056,24.78381c-0.05835,0.48028 0.2837,0.9169 0.76398,0.97524l3.04363,0.36972c0.4348,0.05282 0.6258,0.29663 0.81679,0.54045l0.76397,0.97524c0.191,0.24381 0.38198,0.48762 0.81678,0.54044l2.60883,0.3169c0.4348,0.05282 0.67862,-0.13817 0.92243,-0.32917l0.97524,-0.76398c0.2438,-0.19099 0.48763,-0.38198 0.92243,-0.32916l18.69656,2.27112c0.48027,0.05834 0.82233,0.49497 0.76398,0.97524l-0.6338,5.21764c-0.05835,0.48028 -0.49497,0.82232 -0.97524,0.76397l-23.4794,-2.8521c-0.4348,-0.05282 -0.67862,0.13818 -0.92242,0.32917l-0.97525,0.76397c-0.2438,0.19099 -0.48763,0.382 -0.92243,0.32918l-2.60882,-0.3169c-0.4348,-0.05282 -0.62579,-0.29663 -0.81679,-0.54045l-0.76397,-0.97523c-0.191,-0.24381 -0.38199,-0.48763 -0.81679,-0.54045l-1.73922,-0.21126c-0.48027,-0.05834 -0.82231,-0.49497 -0.76397,-0.97525z" stroke-opacity="0.50588" stroke="#000000" stroke-width="7"/><g stroke="none" stroke-width="1" font-family="sans-serif" font-weight="normal" font-size="12" text-anchor="start"/><g stroke-opacity="0.50588" stroke="#000000" stroke-width="7"><g><path d="M118.35625,149.84447c0.05835,-0.48027 0.49497,-0.82231 0.97525,-0.76397l1.73922,0.21127c0.4348,0.05282 0.62579,0.29662 0.81679,0.54044l0.76398,0.97524c0.191,0.24381 0.38199,0.48763 0.81679,0.54045l2.60882,0.3169c0.4348,0.05282 0.67862,-0.13818 0.92243,-0.32918l0.97524,-0.76396c0.2438,-0.19099 0.48762,-0.382 0.92242,-0.32918l29.56665,3.59154c0.48027,0.05834 0.82232,0.49497 0.76398,0.97523l-1.05634,8.69607c-0.05835,0.48028 -0.49497,0.82232 -0.97524,0.76398l-29.56666,-3.59154c-0.4348,-0.05282 -0.67862,0.13817 -0.92243,0.32917l-0.97524,0.76398c-0.2438,0.19099 -0.48763,0.38199 -0.92243,0.32917l-2.60882,-0.3169c-0.4348,-0.05282 -0.62579,-0.29663 -0.81679,-0.54044l-0.76398,-0.97525c-0.191,-0.24381 -0.382,-0.48763 -0.81679,-0.54045l-1.7392,-0.21126c-0.48027,-0.05834 -0.82232,-0.49497 -0.76398,-0.97525z"/></g><g><path d="M116.85098,162.23639c0.05835,-0.48028 0.49497,-0.82232 0.97524,-0.76398l1.73921,0.21126c0.4348,0.05282 0.6258,0.29663 0.81679,0.54045l0.76397,0.97525c0.191,0.24381 0.38199,0.48762 0.81679,0.54044l2.60882,0.3169c0.4348,0.05282 0.67862,-0.13818 0.92242,-0.32917l0.97525,-0.76397c0.2438,-0.19099 0.48762,-0.382 0.92242,-0.32918l14.56593,1.76936c0.48027,0.05834 0.82232,0.49497 0.76397,0.97525l-1.05633,8.69607c-0.05835,0.48028 -0.49497,0.82232 -0.97524,0.76397l-14.56593,-1.76937c-0.4348,-0.05282 -0.67862,0.13818 -0.92242,0.32917l-0.97525,0.76397c-0.2438,0.19099 -0.48762,0.382 -0.92242,0.32918l-2.60883,-0.31691c-0.4348,-0.05282 -0.6258,-0.29663 -0.81679,-0.54044l-0.76397,-0.97525c-0.191,-0.24381 -0.38199,-0.48762 -0.81679,-0.54044l-1.73922,-0.21127c-0.48027,-0.05834 -0.82232,-0.49497 -0.76398,-0.97524z"/></g></g></g><g fill="none" stroke-opacity="0.50588" stroke="#000000" stroke-width="7"><path d="M109.28012,183.96079c0.05835,-0.48028 0.49497,-0.82231 0.97524,-0.76397l1.73921,0.21127c0.4348,0.05282 0.6258,0.29662 0.81679,0.54044l0.76397,0.97525c0.191,0.24381 0.38199,0.48763 0.81679,0.54045l2.60882,0.31689c0.4348,0.05282 0.67862,-0.13817 0.92243,-0.32917l0.97525,-0.76398c0.2438,-0.19099 0.48762,-0.38198 0.92242,-0.32916l13.26152,1.61091c0.48027,0.05834 0.82231,0.49497 0.76397,0.97523l-1.05633,8.69608c-0.05835,0.48028 -0.49497,0.82231 -0.97524,0.76397l-13.26151,-1.61091c-0.4348,-0.05282 -0.67862,0.13817 -0.92242,0.32917l-0.97525,0.76397c-0.2438,0.19099 -0.48762,0.38199 -0.92242,0.32917l-2.60882,-0.3169c-0.4348,-0.05282 -0.6258,-0.29663 -0.81679,-0.54045l-0.76397,-0.97524c-0.191,-0.24381 -0.38199,-0.48762 -0.81679,-0.54044l-1.73922,-0.21126c-0.48027,-0.05834 -0.82232,-0.49497 -0.76397,-0.97523z"/></g><g><path d="M116.8368,122.84488c6.01604,-4.12263 16.01652,-2.90785 20.87058,2.5352l16.73994,2.03345c0.48027,0.05834 0.82231,0.49497 0.76398,0.97524l-1.05634,8.69608c-0.05835,0.48027 -0.49498,0.82231 -0.97525,0.76397l-27.17523,-3.30105c-0.4348,-0.05282 -0.67862,0.13818 -0.92243,0.32918l-0.97524,0.76397c-0.2438,0.19099 -0.48762,0.382 -0.92242,0.32917l-2.60882,-0.3169c-0.4348,-0.05282 -0.6258,-0.29663 -0.81679,-0.54044l-0.76396,-0.97524c-0.191,-0.24381 -0.382,-0.48762 -0.81679,-0.54044l-1.73922,-0.21126c-0.48027,-0.05834 -0.82232,-0.49497 -0.76398,-0.97525z" fill="#ffffff" stroke-opacity="0.50588" stroke="#000000" stroke-width="0"/><g fill="none" stroke="none" stroke-width="1" font-family="sans-serif" font-weight="normal" font-size="12" text-anchor="start"/></g><g><path d="M115.05229,137.08899c0.05835,-0.48027 0.49497,-0.82231 0.97525,-0.76397l1.73922,0.21127c0.4348,0.05282 0.62579,0.29663 0.81679,0.54044l0.76397,0.97525c0.191,0.24381 0.38199,0.48762 0.81679,0.54044l2.60883,0.3169c0.4348,0.05282 0.67861,-0.13818 0.92242,-0.32917l0.97525,-0.76397c0.2438,-0.19099 0.48762,-0.382 0.92242,-0.32918l23.47941,2.85211c0.48027,0.05834 0.82232,0.49497 0.76398,0.97524l-1.05634,8.69608c-0.05835,0.48027 -0.49498,0.82231 -0.97525,0.76397l-18.69656,-2.27112c-0.4348,-0.05282 -0.67862,0.13818 -0.92243,0.32917l-0.97524,0.76397c-0.2438,0.19099 -0.48763,0.38199 -0.92243,0.32917l-2.60882,-0.3169c-0.4348,-0.05282 -0.6258,-0.29663 -0.81679,-0.54044l-0.76397,-0.97524c-0.191,-0.24381 -0.38199,-0.48762 -0.81679,-0.54044l-3.04363,-0.36972c-0.48027,-0.05834 -0.9169,0.28371 -0.97525,0.76398l-3.01056,24.78381c-0.05835,0.48028 0.2837,0.9169 0.76398,0.97524l3.04363,0.36972c0.4348,0.05282 0.6258,0.29663 0.81679,0.54045l0.76397,0.97524c0.191,0.24381 0.38198,0.48762 0.81678,0.54044l2.60883,0.3169c0.4348,0.05282 0.67862,-0.13817 0.92243,-0.32917l0.97524,-0.76398c0.2438,-0.19099 0.48763,-0.38198 0.92243,-0.32916l18.69656,2.27112c0.48027,0.05834 0.82233,0.49497 0.76398,0.97524l-0.6338,5.21764c-0.05835,0.48028 -0.49497,0.82232 -0.97524,0.76397l-23.4794,-2.8521c-0.4348,-0.05282 -0.67862,0.13818 -0.92242,0.32917l-0.97525,0.76397c-0.2438,0.19099 -0.48763,0.382 -0.92243,0.32918l-2.60882,-0.3169c-0.4348,-0.05282 -0.62579,-0.29663 -0.81679,-0.54045l-0.76397,-0.97523c-0.191,-0.24381 -0.38199,-0.48763 -0.81679,-0.54045l-1.73922,-0.21126c-0.48027,-0.05834 -0.82231,-0.49497 -0.76397,-0.97525z" fill="#ffffff" stroke-opacity="0.50588" stroke="#000000" stroke-width="0"/><g fill="none" stroke="none" stroke-width="1" font-family="sans-serif" font-weight="normal" font-size="12" text-anchor="start"/><g fill="#ffffff" stroke-opacity="0.50588" stroke="#000000" stroke-width="0"><g><path d="M118.35625,149.84447c0.05835,-0.48027 0.49497,-0.82231 0.97525,-0.76397l1.73922,0.21127c0.4348,0.05282 0.62579,0.29662 0.81679,0.54044l0.76398,0.97524c0.191,0.24381 0.38199,0.48763 0.81679,0.54045l2.60882,0.3169c0.4348,0.05282 0.67862,-0.13818 0.92243,-0.32918l0.97524,-0.76396c0.2438,-0.19099 0.48762,-0.382 0.92242,-0.32918l29.56665,3.59154c0.48027,0.05834 0.82232,0.49497 0.76398,0.97523l-1.05634,8.69607c-0.05835,0.48028 -0.49497,0.82232 -0.97524,0.76398l-29.56666,-3.59154c-0.4348,-0.05282 -0.67862,0.13817 -0.92243,0.32917l-0.97524,0.76398c-0.2438,0.19099 -0.48763,0.38199 -0.92243,0.32917l-2.60882,-0.3169c-0.4348,-0.05282 -0.62579,-0.29663 -0.81679,-0.54044l-0.76398,-0.97525c-0.191,-0.24381 -0.382,-0.48763 -0.81679,-0.54045l-1.7392,-0.21126c-0.48027,-0.05834 -0.82232,-0.49497 -0.76398,-0.97525z"/></g><g><path d="M116.85098,162.23639c0.05835,-0.48028 0.49497,-0.82232 0.97524,-0.76398l1.73921,0.21126c0.4348,0.05282 0.6258,0.29663 0.81679,0.54045l0.76397,0.97525c0.191,0.24381 0.38199,0.48762 0.81679,0.54044l2.60882,0.3169c0.4348,0.05282 0.67862,-0.13818 0.92242,-0.32917l0.97525,-0.76397c0.2438,-0.19099 0.48762,-0.382 0.92242,-0.32918l14.56593,1.76936c0.48027,0.05834 0.82232,0.49497 0.76397,0.97525l-1.05633,8.69607c-0.05835,0.48028 -0.49497,0.82232 -0.97524,0.76397l-14.56593,-1.76937c-0.4348,-0.05282 -0.67862,0.13818 -0.92242,0.32917l-0.97525,0.76397c-0.2438,0.19099 -0.48762,0.382 -0.92242,0.32918l-2.60883,-0.31691c-0.4348,-0.05282 -0.6258,-0.29663 -0.81679,-0.54044l-0.76397,-0.97525c-0.191,-0.24381 -0.38199,-0.48762 -0.81679,-0.54044l-1.73922,-0.21127c-0.48027,-0.05834 -0.82232,-0.49497 -0.76398,-0.97524z"/></g></g></g><g fill="#ffffff" stroke-opacity="0.50588" stroke="#000000" stroke-width="0"><path d="M109.28012,183.96079c0.05835,-0.48028 0.49497,-0.82231 0.97524,-0.76397l1.73921,0.21127c0.4348,0.05282 0.6258,0.29662 0.81679,0.54044l0.76397,0.97525c0.191,0.24381 0.38199,0.48763 0.81679,0.54045l2.60882,0.31689c0.4348,0.05282 0.67862,-0.13817 0.92243,-0.32917l0.97525,-0.76398c0.2438,-0.19099 0.48762,-0.38198 0.92242,-0.32916l13.26152,1.61091c0.48027,0.05834 0.82231,0.49497 0.76397,0.97523l-1.05633,8.69608c-0.05835,0.48028 -0.49497,0.82231 -0.97524,0.76397l-13.26151,-1.61091c-0.4348,-0.05282 -0.67862,0.13817 -0.92242,0.32917l-0.97525,0.76397c-0.2438,0.19099 -0.48762,0.38199 -0.92242,0.32917l-2.60882,-0.3169c-0.4348,-0.05282 -0.6258,-0.29663 -0.81679,-0.54045l-0.76397,-0.97524c-0.191,-0.24381 -0.38199,-0.48762 -0.81679,-0.54044l-1.73922,-0.21126c-0.48027,-0.05834 -0.82232,-0.49497 -0.76397,-0.97523z"/></g></g></g></g></svg>
