<svg version="1.1" xmlns="http://www.w3.org/2000/svg" xmlns:xlink="http://www.w3.org/1999/xlink" width="309.2973" height="159.64866" viewBox="0,0,309.2973,159.64866"><defs><linearGradient x1="325.00001" y1="125.17563" x2="325.00001" y2="274.82429" gradientUnits="userSpaceOnUse" id="color-1"><stop offset="0" stop-color="#9f3518"/><stop offset="1" stop-color="#e54d27"/></linearGradient><linearGradient x1="213.48636" y1="171.32736" x2="213.48636" y2="187.39493" gradientUnits="userSpaceOnUse" id="color-2"><stop offset="0" stop-color="#000000" stop-opacity="0"/><stop offset="1" stop-color="#000000" stop-opacity="0"/></linearGradient><linearGradient x1="424.10165" y1="144.3627" x2="417.9887" y2="159.222" gradientUnits="userSpaceOnUse" id="color-3"><stop offset="0" stop-color="#000000" stop-opacity="0"/><stop offset="1" stop-color="#000000" stop-opacity="0"/></linearGradient><linearGradient x1="248.64556" y1="219.35553" x2="253.11643" y2="230.22327" gradientUnits="userSpaceOnUse" id="color-4"><stop offset="0" stop-color="#000000" stop-opacity="0"/><stop offset="1" stop-color="#000000" stop-opacity="0"/></linearGradient><linearGradient x1="373.64556" y1="202.35553" x2="378.11643" y2="213.22327" gradientUnits="userSpaceOnUse" id="color-5"><stop offset="0" stop-color="#000000" stop-opacity="0"/><stop offset="1" stop-color="#000000" stop-opacity="0"/></linearGradient><linearGradient x1="268.14812" y1="142.66595" x2="270.54658" y2="154.17003" gradientUnits="userSpaceOnUse" id="color-6"><stop offset="0" stop-color="#000000" stop-opacity="0"/><stop offset="1" stop-color="#000000" stop-opacity="0"/></linearGradient><linearGradient x1="422.18847" y1="238.23969" x2="423.40964" y2="247.57056" gradientUnits="userSpaceOnUse" id="color-7"><stop offset="0" stop-color="#000000" stop-opacity="0"/><stop offset="1" stop-color="#000000" stop-opacity="0"/></linearGradient></defs><g transform="translate(-170.35135,-120.17564)"><g fill-rule="nonzero" stroke-linejoin="miter" stroke-miterlimit="10" stroke-dasharray="" stroke-dashoffset="0" style="mix-blend-mode: normal"><path d="M177.50901,273.65904v-147.31805h294.98198v147.31805z" fill="#6b3000" stroke="none" stroke-width="0" stroke-linecap="butt"/><g fill="#7f3900" stroke="none" stroke-width="0" stroke-linecap="butt"><path d="M175.35135,174.28524v-22.04122c0,0 22.4619,-16.73501 40.07981,-16.73501c17.6179,0 34.04516,16.73501 60.37998,16.73501c19.21243,0 36.63687,-16.73501 62.46205,-16.73501c25.82517,0 42.82589,16.73501 62.46205,16.73501c45.62844,0 73.91342,-16.73501 73.91342,-16.73501v22.04122c0,0 -34.51173,16.73501 -73.3929,16.73501c-27.13485,0 -36.1969,-16.73501 -61.94153,-16.73501c-25.74464,0 -43.98363,16.73501 -63.50308,16.73501c-26.33481,0 -35.20971,-16.73501 -60.37998,-16.73501c-25.17027,0 -40.07981,16.73501 -40.07981,16.73501z"/><path d="M175.35135,220.00038v-22.04122c0,0 22.4619,-16.73501 40.07981,-16.73501c17.61791,0 34.04516,16.73501 60.37998,16.73501c19.21243,0 36.63687,-16.73501 62.46205,-16.73501c25.82517,0 42.82589,16.73501 62.46205,16.73501c45.62844,0 73.91342,-16.73501 73.91342,-16.73501v22.04122c0,0 -34.51173,16.73501 -73.3929,16.73501c-27.13485,0 -36.1969,-16.73501 -61.94153,-16.73501c-25.74464,0 -43.98363,16.73501 -63.50308,16.73501c-26.33481,0 -35.20971,-16.73501 -60.37998,-16.73501c-25.17026,0 -40.07981,16.73501 -40.07981,16.73501z"/><path d="M175.35135,264.491v-22.04122c0,0 22.4619,-16.73501 40.07981,-16.73501c17.61791,0 34.04516,16.73501 60.37998,16.73501c19.21243,0 36.63687,-16.73501 62.46205,-16.73501c25.82517,0 42.82589,16.73501 62.46205,16.73501c45.62844,0 73.91342,-16.73501 73.91342,-16.73501v22.04122c0,0 -34.51173,16.73501 -73.3929,16.73501c-27.13485,0 -36.1969,-16.73501 -61.94153,-16.73501c-25.74464,0 -43.98363,16.73501 -63.50308,16.73501c-26.33481,0 -35.20971,-16.73501 -60.37998,-16.73501c-25.17026,0 -40.07981,16.73501 -40.07981,16.73501z"/></g><path d="M195.12527,239.70071c-1.60853,-1.9138 0.30527,-3.52233 0.30527,-3.52233l2.80161,-2.35473c3.1242,-2.61419 5.16244,-4.77505 9.17982,-6.15154c0.50736,-0.17384 1.19073,-0.58037 1.24848,-1.12629c0.18749,-1.77238 0.48067,-3.54859 1.0091,-5.25072c0.21433,-0.69038 2.66497,-5.48257 3.40105,-6.15578c7.57247,-6.92568 19.41341,-5.27535 27.27756,-11.88855c2.76371,-2.32409 4.59092,-7.38231 5.86972,-10.58706c0,0 -3.94394,-6.78644 -4.98555,-8.42552c-0.693,-1.09052 -1.63151,-2.06919 -2.04353,-3.29381c-1.88458,-5.60143 1.20144,-13.52991 -3.88152,-18.04916c-0.78843,-0.701 -1.78048,-1.13272 -2.65497,-1.7229c-0.74196,-0.50074 -2.87997,-2.5394 -5.1629,-2.89896c-2.28293,-0.35956 -4.2135,1.12255 -5.34394,1.24417l-2.17793,0.89585c0,0 -2.3212,0.92848 -3.24967,-1.39271c-0.92847,-2.32119 1.39272,-3.24966 1.39272,-3.24966l2.82206,-1.10415c1.34747,-0.15061 2.69495,-0.30122 4.04242,-0.45183c-0.19368,-0.59613 -0.46421,-1.1237 -0.84567,-1.5094c-4.66725,-4.71911 -9.46954,-4.61343 -15.59033,-4.61343h-1.5c0,0 -2.5,0 -2.5,-2.5c0,-2.5 2.5,-2.5 2.5,-2.5h1.5c7.88406,0 18.80672,0.89488 21.40489,10.3331c0.08692,0.31573 0.15512,0.63503 0.20967,0.95692c0.58582,0.07207 1.164,0.18073 1.7282,0.35631c5.62348,1.75009 9.77381,7.34395 11.0922,12.80137c1.22674,5.07807 -0.44888,9.52602 2.4642,13.99452c1.18186,1.81291 1.75326,4.41632 3.71888,5.32172c1.8064,0.83205 3.87638,-0.27248 5.52379,-0.65892c6.19382,-1.4529 12.02169,-2.60501 18.35817,-2.60501c0,0 0.0605,0 0.16269,0.00941c3.04082,-3.36948 7.54908,-6.29928 10.85302,-8.53014c0.93341,-2.65742 2.726,-4.88677 2.48681,-7.86719c-0.60557,-7.54578 -4.66468,-14.0685 -6.88009,-21.1388c-0.59115,-1.88661 -2.65906,-8.27791 -2.57425,-9.66096c-0.68051,-0.11594 -1.36254,-0.2257 -2.03846,-0.36088l-0.00971,0.04855c0,0 -2.5,0 -2.5,-2.5c0,-2.5 2.5,-2.5 2.5,-2.5l0.99029,0.04855c2.22483,0.44496 6.53166,0.61213 8.23452,2.27204c0.07939,0.07738 0.15652,0.15661 0.23161,0.23751l0.04357,-0.0581l1.97672,1.48254c0.62045,0.45492 1.02328,1.18914 1.02328,2.01746c0,1.38071 -1.11929,2.5 -2.5,2.5c-0.18573,0 -0.36673,-0.02025 -0.54091,-0.05867l-2.44938,-0.48988l0.05417,-0.27082c-0.33305,-0.22963 -0.65309,-0.4448 -0.56522,-0.20592c0.38031,1.0339 1.3914,1.73274 1.86981,2.72505c1.58679,3.2913 2.14014,7.05639 3.70018,10.41053c2.72688,5.8629 5.60511,13.57761 3.82409,20.11417c-0.60775,2.23054 -1.99054,4.17444 -2.90843,6.29626c-3.29579,2.62725 -6.87512,5.09266 -9.93499,7.99508c-0.95332,0.90427 -2.1107,1.69369 -2.70905,2.86352c-0.32281,0.63114 0.1463,1.41192 0.15974,2.12069c0.02907,1.53295 -0.20738,3.07636 -0.03228,4.59954c0.51175,4.45154 3.97723,7.8025 8.10667,8.96734c1.41996,0.40054 2.95024,-0.06688 4.42561,-0.06688c2.11111,0 4.28631,0.60956 6.33267,0.09071c1.71808,-0.43562 3.09501,-1.74909 4.73886,-2.4119c0,0 2.32119,-0.92848 3.24967,1.39271c0.92847,2.32119 -1.39272,3.24966 -1.39272,3.24966c-1.81695,0.72003 -3.36399,2.11844 -5.26114,2.5881c-0.46898,0.1161 -6.86265,0.09072 -7.66733,0.09072c-0.60757,0 -5.25547,0.01812 -5.57438,-0.06688c-6.09011,-1.62322 -11.04347,-6.63765 -11.89333,-13.03267c-0.23715,-1.78449 -0.05701,-3.60044 -0.03229,-5.40045c0.01087,-0.79148 -0.13862,-1.62823 -0.12988,-2.42652c-4.95291,0.27374 -9.61839,1.27645 -14.59155,2.40059c-2.09825,0.47429 -4.95737,3.4544 -4.95737,3.4544c-1.56223,3.89685 -3.79998,9.5722 -7.13028,12.41294c-0.22735,0.19394 -9.08004,5.11962 -9.51876,5.29662c-5.61444,2.26511 -12.82009,2.12445 -17.52419,6.36183c-3.73788,3.36702 -1.22788,4.42926 -3.69424,8.70963c-2.46636,4.28037 -3.2287,4.81133 -4.32663,5.21058c-2.75222,1.00082 -5.0631,3.31982 -7.21696,5.139l-2.80161,2.35473c0,0 -1.9138,1.60853 -3.52233,-0.30527z" fill="#e7a55c" stroke="#6b3000" stroke-width="2.5" stroke-linecap="butt"/><path d="M457.97122,227.09218c2.56785,0 2.56785,2.5 2.56785,2.5l-0.04986,1.99029c-0.99431,4.3834 -3.29744,3.13723 -6.28208,4.43407c-2.98464,1.29684 -5.21963,0.56348 -5.21963,0.56348c-0.58959,-0.12617 -1.15343,-0.27876 -1.69245,-0.45646c-0.47332,0.12213 -0.92811,0.27048 -1.25032,0.60663c-0.47737,0.49801 -0.34352,1.32125 -0.48128,1.9891c-0.6932,3.36077 -0.88111,8.11802 -2.17923,11.35639c-0.31607,0.7885 -2.06113,3.40971 -2.88113,4.11525c-1.3105,1.12758 -2.68968,2.04375 -4.43849,2.02253c-1.27992,-0.01553 -2.1722,-0.4618 -3.25829,-1.12127l-0.78861,-0.73224c0,0 -1.81574,-1.76777 0,-3.53553c1.81574,-1.76776 4.30192,1.81313 4.97407,0.24734c0.32488,-0.75682 1.3497,-2.20474 1.67085,-2.96307c1.84919,-4.3664 0.08542,-10.82161 3.50232,-14.65451c0.06173,-0.06924 0.12607,-0.13534 0.1928,-0.19859c-2.58988,-2.39204 -4.14105,-5.77605 -4.97609,-9.71144c-0.93079,-4.38665 -0.49307,-9.00561 -1.43312,-13.41111c-0.26712,-1.25183 -0.21398,-2.69259 -1.01409,-3.70644c-0.88834,-1.12563 -2.51802,-4.28155 -7.59458,-6.01221c-5.07655,-1.73066 -8.80747,-0.03732 -10.78943,-0.25511c-1.90276,-0.24284 -3.87743,-0.16861 -5.70826,-0.72852c-1.14684,-0.35073 -2.01428,-1.27814 -3.00775,-1.93704c-5.16708,-3.42696 -9.73349,-7.68739 -14.41203,-11.71449c-0.57591,-0.49572 -5.95933,-5.90662 -6.9785,-6.46076c-3.54827,-1.92929 -8.94217,-0.05529 -12.33157,1.1223c-4.44244,1.54344 -7.82536,4.69022 -11.6378,7.31043c-3.55473,2.44309 -8.23434,4.896 -10.81223,8.341c0,0 -1.54071,2 -3.59499,0.5c-2.05428,-1.5 -0.51357,-3.5 -0.51357,-3.5c3.10188,-3.94213 7.80874,-6.57376 11.95913,-9.42584c7.74554,-5.32261 19.01482,-13.95167 29.26758,-8.80044c2.20064,1.10566 6.1296,5.52041 8.04335,7.16714c1.27942,1.10091 2.74241,1.98716 4.02715,3.08218c3.55237,3.02779 6.04095,5.61007 9.90678,8.26752c0.64395,0.44267 1.1431,1.15647 1.90001,1.37086c1.44522,0.40936 2.99518,0.29326 4.49277,0.4399c4.67376,0.56112 10.58155,0.49395 14.59326,-2.33242c4.71296,-3.32043 6.18085,-9.14852 11.43195,-12.27209c0.99477,-0.59173 2.24529,-0.61151 3.36795,-0.91727l2.07409,-0.5049c0,0 2.49119,-0.60634 3.11398,1.81902c0.62279,2.42535 -1.86839,3.0317 -1.86839,3.0317l-2.03446,0.4951c-6.65553,1.46898 -7.84429,8.79311 -12.99011,12.3385c-0.66186,0.45601 -1.34965,0.86035 -2.05865,1.21748c0.77812,0.54049 1.08321,1.60474 1.81194,2.22707c1.39608,1.19225 3.42733,1.72137 4.50078,3.19671c2.56376,3.52361 2.52183,10.25455 2.89858,14.35291c0.41051,4.46555 1.02045,11.2315 5.75853,13.26514c0.25151,0.04183 0.50988,0.12625 0.75928,0.27377c0.31206,0.09244 0.63989,0.16633 0.98435,0.22013l2.31482,-0.01216c0,0 2.10811,1.04832 3.20465,0.43828c1.09654,-0.61004 0.39034,-2.43828 0.39034,-2.43828c0,0 -0.00001,-2.5 2.56784,-2.5z" fill="#e7a55c" stroke="#6b3000" stroke-width="2.5" stroke-linecap="butt"/><path d="M175.35136,137.6713c0,-6.39897 5.91545,-12.49566 13.1192,-12.49566c28.93252,0 219.72832,0 272.60996,0c8.61359,0 13.56814,4.64378 13.56814,12.24625c0,30.59212 0,109.0924 0,125.70487c0,6.03964 -4.85913,11.69754 -13.31873,11.69754c-52.46667,0 -243.42599,0 -272.60996,0c-7.3279,0 -13.36861,-4.5235 -13.36861,-11.94695c0,-30.16113 0,-108.19342 0,-125.20604z" fill="none" stroke="url(#color-1)" stroke-width="10" stroke-linecap="butt"/><path d="M329.87045,168.19189c0.647,-1.13225 0.86921,-2.6922 1.77238,-3.56655c0.13774,-0.13334 0.29132,-0.25075 0.46466,-0.34826c0.21997,-0.12374 0.45449,-0.21585 0.69728,-0.28725c0.48007,-0.17597 0.9987,-0.27201 1.53975,-0.27201c0.92729,-0.12037 8.39566,-3.88991 7.02577,-6.09074c-2.82223,-4.53412 -12.08959,-5.93923 -12.90599,-11.65248c-0.52832,-3.69727 1.56567,-7.02337 5.88022,-6.16146c2.34498,0.46846 11.31806,4.38802 10.22246,5.42175c-0.96923,0.91449 -9.79975,-1.63187 -8.67967,0.87759c1.12009,2.50946 8.26231,3.85569 11.34454,9.63856c3.08223,5.78287 2.64937,7.86871 -1.82369,12.12958c-2.37588,2.26318 -5.25001,4.82898 -8.82447,4.7853c-0.67496,-0.00825 -4.01955,0.23986 -4.5099,-0.61824z" fill="none" stroke-opacity="0.5098" stroke="#000000" stroke-width="10" stroke-linecap="butt"/><path d="M342.64916,201.63552c-1.18965,2.21818 -2.48945,4.30484 -3.87174,6.24302c-2.01421,2.82419 -1.11001,7.3017 -3.38892,9.44269c-2.4147,2.26855 -8.0235,2.15545 -10.5375,3.53536c-2.75668,1.51312 -5.51185,4.423 -8.13126,4.70993c-2.74226,0.30039 -5.33574,-2.08499 -7.62642,-3.31352c-1.58337,-0.8492 -4.89231,-0.90856 -5.98745,-2.36827c-1.22734,-1.63592 -0.17814,-4.74271 -0.78667,-6.98653c-0.80028,-2.9509 -1.06287,-6.35485 -0.78103,-10.02083c0.27226,-3.54134 -1.75975,-7.32718 -0.46533,-11.18535c0.97839,-2.91619 5.06281,-5.8737 6.63126,-8.79818c2.25452,-4.20369 4.90464,-7.93508 7.76209,-11.0785c1.14639,-1.26112 0.0763,-2.42759 1.27727,-3.49197c0.80109,-0.70997 3.86147,-1.37451 4.67783,-1.9914c5.70645,-4.31215 11.6978,-6.29612 16.74161,-5.19469c0.53247,0.11627 -6.77359,9.21805 -11.39915,18.68603c-4.75464,9.73218 -7.57692,19.44092 -7.07974,19.70757c0.50688,0.27185 3.83688,-8.5825 9.64794,-17.92108c5.48479,-8.81423 14.21426,-17.74885 14.60104,-17.37324c0.99594,0.96722 4.37504,2.11482 5.07413,3.41468c1.09073,2.02809 -0.71214,4.42685 -0.35021,7.08957c0.70508,5.18736 0.02001,11.37649 -2.08309,17.77823c-0.53656,1.63324 0.52199,4.68648 -0.19962,6.33428c-0.61232,1.39826 -2.97882,1.39088 -3.72501,2.7822z" fill="none" stroke-opacity="0.5098" stroke="#000000" stroke-width="10" stroke-linecap="butt"/><g><path d="M330.10577,168.19189c0.647,-1.13225 0.8692,-2.6922 1.77237,-3.56655c0.13774,-0.13334 0.29132,-0.25074 0.46466,-0.34825c0.21997,-0.12373 0.45449,-0.21585 0.69728,-0.28725c0.48008,-0.17596 0.9987,-0.27201 1.53975,-0.27201c0.92729,-0.12037 8.39566,-3.88991 7.02577,-6.09074c-2.82223,-4.53412 -12.08959,-5.93923 -12.90599,-11.65247c-0.52832,-3.69727 1.56567,-7.02338 5.88022,-6.16146c2.34498,0.46846 11.31806,4.38802 10.22246,5.42175c-0.96923,0.91449 -9.79976,-1.63186 -8.67967,0.8776c1.12009,2.50946 8.26232,3.85569 11.34454,9.63856c3.08223,5.78287 2.64937,7.86871 -1.82369,12.12958c-2.37588,2.26318 -5.25001,4.82898 -8.82447,4.7853c-0.67496,-0.00825 -4.01955,0.23985 -4.5099,-0.61824z" fill="#ffe166" stroke="none" stroke-width="0.5" stroke-linecap="butt"/><path d="M342.88448,201.63552c-2.77533,5.17477 -3.9003,11.03999 -7.5234,14.56756c-7.97279,7.76256 -19.39769,9.60826 -26.03245,6.04991c-7.91313,-4.24396 -11.4429,-17.98238 -6.95165,-31.51783c0.98568,-2.97059 3.96382,-4.86067 5.56242,-7.84135c7.63357,-14.23326 19.80247,-23.05198 29.19846,-21.9658c1.53737,0.17772 -6.28013,11.58863 -4.92324,12.31635c1.80955,0.9705 12.58227,-8.58937 13.75376,-6.83259c5.07574,7.6116 4.13299,21.7674 -3.0839,35.22376z" fill="#8b3900" stroke="none" stroke-width="0" stroke-linecap="butt"/><path d="M302.03375,203.90828c-0.48987,-0.17971 -0.24729,-5.56663 -0.20353,-6.13157c0.59309,-7.65765 4.47748,-18.94293 12.06922,-24.59484c2.01715,-1.50173 9.64239,-8.15227 11.49893,-9.86601c0.58449,-0.53954 9.66718,-2.72537 9.66718,-0.7486c0,0.7909 -0.25652,1.52188 -0.6909,2.11429l-1.3024,1.82335c-3.26216,5.75324 -4.30022,12.76828 -7.95403,18.11019c0,0 -3.08272,-8.53469 -4.21556,-7.58716c-2.59828,2.17325 -6.3604,6.33425 -7.26465,6.9851c-1.25242,0.90147 -7.00657,21.58181 -11.60424,19.89525z" fill="#ad4800" stroke="none" stroke-width="0.5" stroke-linecap="butt"/><path d="M340.85362,167.24036c3.20138,-1.60069 5.64577,-0.64916 5.64577,-0.64916c2.17109,4.42321 1.75623,7.91688 2.05834,12.62754c0.24628,3.84015 -1.20633,7.77967 -1.70728,11.62775c-0.86412,6.63778 -4.52747,11.99445 -7.75678,17.6499c-1.83041,3.19849 -2.10776,7.66269 -5.09786,10.02464c-2.69904,2.13203 -20.66201,8.08235 -20.26972,4.78712c0.12484,-1.04867 0.4554,-4.68693 4.70103,-7.48254c2.53701,-1.67054 8.28011,-1.59372 11.196,-4.49699c1.74571,-1.73816 0.25885,-6.25998 2.00232,-8.93101c2.35105,-3.60184 7.81421,-5.44932 8.93702,-7.76998c2.06303,-4.26391 -2.878,-8.94851 -3.12907,-13.22029c-0.43942,-7.47645 2.46296,-13.68833 3.42025,-14.16698z" fill="#ad4800" stroke="none" stroke-width="0.5" stroke-linecap="butt"/><path d="M342.88448,201.63552c-1.18965,2.21818 -2.48945,4.30485 -3.87175,6.24302c-2.01421,2.82419 -1.11002,7.3017 -3.38892,9.44269c-2.4147,2.26856 -8.0235,2.15544 -10.53749,3.53536c-2.75669,1.51312 -5.51185,4.42301 -8.13126,4.70994c-2.74226,0.30039 -5.33574,-2.08499 -7.62642,-3.31352c-1.58337,-0.8492 -4.89231,-0.90856 -5.98745,-2.36827c-1.22734,-1.63592 -0.17814,-4.74271 -0.78667,-6.98654c-0.80028,-2.9509 -1.06288,-6.35484 -0.78103,-10.02083c0.27226,-3.54134 -1.75975,-7.32718 -0.46533,-11.18536c0.97839,-2.91619 5.06281,-5.8737 6.63126,-8.79818c2.25452,-4.20369 4.90464,-7.93507 7.76209,-11.0785c1.14639,-1.26112 0.0763,-2.42759 1.27727,-3.49197c0.80109,-0.70997 3.86147,-1.37451 4.67783,-1.99141c5.70645,-4.31215 11.6978,-6.29612 16.74161,-5.19468c0.53248,0.11627 -6.77359,9.21805 -11.39915,18.68602c-4.75464,9.73218 -7.57692,19.44092 -7.07974,19.70757c0.50688,0.27185 3.83688,-8.58251 9.64793,-17.92108c5.48479,-8.81423 14.21426,-17.74885 14.60103,-17.37324c0.99594,0.96722 4.37503,2.11482 5.07412,3.41469c1.09073,2.02808 -0.71214,4.42685 -0.35021,7.08957c0.70508,5.18736 0.02001,11.37649 -2.08309,17.77823c-0.53656,1.63324 0.52199,4.68647 -0.19962,6.33428c-0.61232,1.39826 -2.97882,1.39089 -3.72501,2.78221z" fill="none" stroke="#652a00" stroke-width="5" stroke-linecap="butt"/><path d="M310.11271,211.78276c0,0 -2.49496,-7.47195 -2.24985,-12.37418c0.24511,-4.90223 2.84007,-5.5311 4.4997,-9.28064c1.65964,-3.74954 3.09355,-7.87448 3.09355,-7.87448" fill="none" stroke="#652a00" stroke-width="2.5" stroke-linecap="round"/><path d="M344.25006,172.63823c0,0 -0.66621,3.12196 -1.04911,6.09475c-0.38289,2.97279 1.00116,4.34897 -0.70271,7.50652c-1.70387,3.15755 -4.12559,7.44603 -4.12559,7.44603" fill="none" stroke="#652a00" stroke-width="2.5" stroke-linecap="round"/><path d="M332.78849,193.55285c0,0 -3.73976,2.542 -4.91647,5.29871c-1.17671,2.7567 0.62474,6.98842 -1.87342,9.56379c-2.49816,2.57536 -4.58845,3.79403 -4.58845,3.79403" fill="none" stroke="#652a00" stroke-width="2.5" stroke-linecap="round"/></g><path d="M274.62659,250.74552c1.40022,0.7792 2.73599,1.1688 4.00732,1.1688c1.27719,0 1.91578,-0.49506 1.91578,-1.48517c0,-0.45111 -0.18162,-0.84951 -0.54485,-1.19517c-0.35738,-0.34566 -1.01648,-0.74112 -1.9773,-1.18637c-0.96082,-0.45111 -1.68143,-0.80263 -2.16184,-1.05456c-0.48041,-0.25778 -1.119,-0.6796 -1.91578,-1.26547c-0.79092,-0.58587 -1.39729,-1.19517 -1.81911,-1.8279c-1.19517,-1.70487 -1.79275,-3.87843 -1.79275,-6.52069c0,-2.64226 0.98132,-4.86854 2.94398,-6.67886c1.96265,-1.81619 4.5346,-2.72428 7.71585,-2.72428c2.16184,0 4.15672,0.23435 5.98462,0.70304c1.8279,0.46284 2.77115,1.06921 2.82973,1.81911c0,0.08788 0,0.17576 0,0.26364c0,1.05456 -0.33102,2.38447 -0.99304,3.98975c-0.65617,1.59941 -1.119,2.48992 -1.3885,2.67155c-1.92164,-0.99011 -3.64115,-1.48517 -5.15854,-1.48517c-1.51153,0 -2.2673,0.539 -2.2673,1.61699c0,0.66203 0.55657,1.24789 1.66972,1.75759c0.2402,0.12303 0.58293,0.29001 1.02819,0.50092c0.45111,0.20505 0.96961,0.45111 1.55548,0.73819c0.58587,0.28708 1.21567,0.64738 1.88942,1.08093c0.67375,0.43354 1.40315,1.01062 2.18821,1.73124c1.5877,1.49982 2.38155,3.48004 2.38155,5.94068c0,3.21054 -0.88466,5.83522 -2.65397,7.87403c-1.76931,2.03881 -4.49945,3.08751 -8.1904,3.1461c-1.79861,0 -3.42731,-0.1494 -4.88612,-0.44819c-1.45295,-0.29879 -2.72134,-0.88173 -3.8052,-1.74881c-1.07799,-0.87294 -1.61699,-1.92457 -1.61699,-3.15488c0,-1.23032 0.22556,-2.45185 0.67668,-3.66459c0.45111,-1.2186 0.93153,-2.02124 1.44123,-2.40791c0,0 1.54957,1.06624 2.94394,1.84544zM303.89688,260.32443c-2.97034,0 -5.47491,-1.01061 -7.51372,-3.03185c-2.03881,-2.0271 -3.05822,-4.83339 -3.05822,-8.41889c0,-3.5855 0.98133,-6.47089 2.94398,-8.65616c1.96851,-2.19114 4.45258,-3.28671 7.45221,-3.28671c2.99963,0 5.31674,0.76456 6.9513,2.29366c1.63456,1.52911 2.45185,3.38923 2.45185,5.58038c0,4.85683 -2.78872,7.28524 -8.36616,7.28524h-3.11094c0,0.90223 0.24606,1.52618 0.73819,1.87184c0.49799,0.34566 1.22739,0.51849 2.18821,0.51849c2.10325,0 4.09813,-0.48041 5.98462,-1.44123c0.02929,-0.02929 0.16404,0.17869 0.40425,0.62395c0.72062,1.29476 1.08092,2.38447 1.08092,3.26913c0,0.88466 -0.28414,1.46173 -0.85243,1.73124c0,0 -4.65975,1.6609 -7.29405,1.6609zM305.5666,245.65727c0,-1.25961 -0.61516,-1.88941 -1.84548,-1.88941c-0.56829,0 -1.05749,0.17283 -1.46759,0.51849c-0.40425,0.34566 -0.60637,0.84658 -0.60637,1.50275v1.39729h2.43428c0.99011,0 1.48517,-0.5097 1.48517,-1.52911zM333.05821,258.6635c-1.89234,1.10729 -4.32368,1.66093 -7.29403,1.66093c-2.97034,0 -5.47491,-1.01061 -7.51372,-3.03185c-2.03881,-2.0271 -3.05822,-4.83339 -3.05822,-8.41889c0,-3.5855 0.98132,-6.47089 2.94398,-8.65616c1.96851,-2.19114 4.45258,-3.28671 7.45221,-3.28671c2.99963,0 5.31673,0.76456 6.9513,2.29366c1.63456,1.52911 2.45185,3.38923 2.45185,5.58038c0,4.85683 -2.78872,7.28524 -8.36616,7.28524h-3.11095c0,0.90223 0.24607,1.52618 0.73819,1.87184c0.49799,0.34566 1.22738,0.51849 2.18821,0.51849c2.10325,0 4.09813,-0.48041 5.98462,-1.44123c0.02929,-0.02929 0.16404,0.17869 0.40425,0.62395c0.72062,1.29476 1.08093,2.38447 1.08093,3.26913c0,0.88466 -0.28414,1.46173 -0.85243,1.73124zM327.43389,245.65727c0,-1.25961 -0.61516,-1.88941 -1.84548,-1.88941c-0.56829,0 -1.05748,0.17283 -1.46759,0.51849c-0.40425,0.34566 -0.60637,0.84658 -0.60637,1.50275v1.39729h2.43428c0.99011,0 1.48517,-0.5097 1.48517,-1.52911zM349.30119,228.65252c0,-0.45111 1.18345,-0.67667 3.55035,-0.67667c0.8085,0 1.74588,0.05273 2.81215,0.15818c1.06628,0.10546 1.59941,0.24607 1.59941,0.42183v23.71877h1.57305c0.7499,0 1.24496,0.67375 1.48517,2.02124c0.05859,0.39253 0.08788,0.92566 0.08788,1.59941c0,0.67375 -0.20798,1.49103 -0.62394,2.45185c-0.60344,1.3182 -1.56426,1.9773 -2.88246,1.9773c-0.99011,0 -1.86891,-0.19333 -2.63639,-0.58c-0.76163,-0.39253 -1.27719,-0.79971 -1.54669,-1.22153l-0.40425,-0.58c-1.65214,1.5877 -3.72317,2.38155 -6.2131,2.38155c-2.48993,0 -4.61955,-1.03406 -6.38886,-3.10216c-1.76931,-2.0681 -2.65397,-4.95349 -2.65397,-8.65616c0,-3.70853 0.9286,-6.57341 2.78579,-8.59465c1.86305,-2.0271 4.18894,-3.04064 6.97766,-3.04064c0.8085,0 1.63456,0.09081 2.47821,0.27243zM347.81602,244.12816c-1.68143,0 -2.52215,1.51447 -2.52215,4.54339c0,1.52911 0.2402,2.63346 0.72062,3.31307c0.48041,0.67375 1.01354,1.01062 1.59941,1.01062c0.58587,0 1.1483,-0.25485 1.68729,-0.76455l3.66768,-4.17969c-0.5097,-0.29879 -4.67243,-3.92282 -5.15284,-3.92282zM364.28292,251.77371c2.43135,1.47052 4.35005,2.20578 5.75613,2.20578c0.90223,0 1.35335,-0.31344 1.35335,-0.94031c0,-0.45111 -0.77921,-1.03698 -2.33761,-1.75759c-3.74954,-1.52911 -5.62431,-4.03368 -5.62431,-7.51372c0,-2.22043 0.8085,-3.91359 2.42549,-5.07946c1.62285,-1.17173 3.56499,-1.7576 5.82643,-1.7576c2.2673,0 4.18601,0.2402 5.75613,0.72062c1.57598,0.48041 2.36397,1.11022 2.36397,1.88942c0,0.65617 -0.32223,1.52618 -0.96668,2.61003c-0.64445,1.07799 -1.08678,1.66093 -1.32698,1.74881c-1.28891,-0.71475 -2.68326,-1.07213 -4.18308,-1.07213c-0.8085,0 -1.21275,0.28415 -1.21275,0.85244c0,0.35738 0.15525,0.66495 0.46577,0.92274c0.31637,0.25193 0.89345,0.56536 1.73124,0.94032c0.84365,0.37496 1.54082,0.71475 2.09154,1.01941c0.55657,0.29879 1.18052,0.71768 1.87185,1.25668c1.44123,1.13658 2.16184,2.62175 2.16184,4.45551c0,2.39619 -0.79678,4.33833 -2.39034,5.82643c-1.5877,1.48224 -3.98681,2.22337 -7.19735,2.22337c-2.12669,0 -4.06005,-0.3603 -5.80007,-1.08092c-1.74002,-0.72062 -2.61003,-1.71073 -2.61003,-2.97034c0,-0.83778 0.20213,-1.71952 0.60637,-2.64518c0.40425,-0.93153 0.81729,-1.54962 1.23911,-1.85426z" fill="none" stroke-opacity="0.50196" stroke="#000000" stroke-width="10" stroke-linecap="square"/><path d="M271.68261,248.90004c0.56829,0.45111 1.54961,1.06628 2.94398,1.84548c1.40022,0.7792 2.73599,1.1688 4.00732,1.1688c1.27719,0 1.91578,-0.49506 1.91578,-1.48517c0,-0.45111 -0.18162,-0.84951 -0.54485,-1.19517c-0.35738,-0.34566 -1.01648,-0.74112 -1.9773,-1.18637c-0.96082,-0.45111 -1.68143,-0.80263 -2.16184,-1.05456c-0.48041,-0.25778 -1.119,-0.6796 -1.91578,-1.26547c-0.79092,-0.58587 -1.39729,-1.19517 -1.81911,-1.8279c-1.19517,-1.70487 -1.79275,-3.87843 -1.79275,-6.52069c0,-2.64226 0.98132,-4.86854 2.94398,-6.67886c1.96265,-1.81619 4.5346,-2.72428 7.71585,-2.72428c2.16184,0 4.15672,0.23435 5.98462,0.70304c1.8279,0.46284 2.77115,1.06921 2.82973,1.81911c0,0.08788 0,0.17576 0,0.26364c0,1.05456 -0.33102,2.38447 -0.99304,3.98975c-0.65617,1.59941 -1.119,2.48992 -1.3885,2.67155c-1.92164,-0.99011 -3.64115,-1.48517 -5.15854,-1.48517c-1.51153,0 -2.2673,0.539 -2.2673,1.61699c0,0.66203 0.55657,1.24789 1.66972,1.75759c0.2402,0.12303 0.58293,0.29001 1.02819,0.50092c0.45111,0.20505 0.96961,0.45111 1.55548,0.73819c0.58587,0.28708 1.21567,0.64738 1.88942,1.08093c0.67375,0.43354 1.40315,1.01062 2.18821,1.73124c1.5877,1.49982 2.38155,3.48004 2.38155,5.94068c0,3.21054 -0.88466,5.83522 -2.65397,7.87403c-1.76931,2.03881 -4.49945,3.08751 -8.1904,3.1461c-1.79861,0 -3.42731,-0.1494 -4.88612,-0.44819c-1.45295,-0.29879 -2.72134,-0.88173 -3.8052,-1.74881c-1.07799,-0.87294 -1.61699,-1.92457 -1.61699,-3.15488c0,-1.23032 0.22556,-2.45185 0.67668,-3.66459c0.45111,-1.2186 0.93153,-2.02124 1.44123,-2.40791zM311.19091,258.6635c-1.89234,1.10729 -4.32369,1.66093 -7.29403,1.66093c-2.97034,0 -5.47491,-1.01061 -7.51372,-3.03185c-2.03881,-2.0271 -3.05822,-4.83339 -3.05822,-8.41889c0,-3.5855 0.98133,-6.47089 2.94398,-8.65616c1.96851,-2.19114 4.45258,-3.28671 7.45221,-3.28671c2.99963,0 5.31674,0.76456 6.9513,2.29366c1.63456,1.52911 2.45185,3.38923 2.45185,5.58038c0,4.85683 -2.78872,7.28524 -8.36616,7.28524h-3.11094c0,0.90223 0.24606,1.52618 0.73819,1.87184c0.49799,0.34566 1.22739,0.51849 2.18821,0.51849c2.10325,0 4.09813,-0.48041 5.98462,-1.44123c0.02929,-0.02929 0.16404,0.17869 0.40425,0.62395c0.72062,1.29476 1.08092,2.38447 1.08092,3.26913c0,0.88466 -0.28414,1.46173 -0.85243,1.73124zM305.5666,245.65727c0,-1.25961 -0.61516,-1.88941 -1.84548,-1.88941c-0.56829,0 -1.05749,0.17283 -1.46759,0.51849c-0.40425,0.34566 -0.60637,0.84658 -0.60637,1.50275v1.39729h2.43428c0.99011,0 1.48517,-0.5097 1.48517,-1.52911zM333.05821,258.6635c-1.89234,1.10729 -4.32368,1.66093 -7.29403,1.66093c-2.97034,0 -5.47491,-1.01061 -7.51372,-3.03185c-2.03881,-2.0271 -3.05822,-4.83339 -3.05822,-8.41889c0,-3.5855 0.98132,-6.47089 2.94398,-8.65616c1.96851,-2.19114 4.45258,-3.28671 7.45221,-3.28671c2.99963,0 5.31673,0.76456 6.9513,2.29366c1.63456,1.52911 2.45185,3.38923 2.45185,5.58038c0,4.85683 -2.78872,7.28524 -8.36616,7.28524h-3.11095c0,0.90223 0.24607,1.52618 0.73819,1.87184c0.49799,0.34566 1.22738,0.51849 2.18821,0.51849c2.10325,0 4.09813,-0.48041 5.98462,-1.44123c0.02929,-0.02929 0.16404,0.17869 0.40425,0.62395c0.72062,1.29476 1.08093,2.38447 1.08093,3.26913c0,0.88466 -0.28414,1.46173 -0.85243,1.73124zM327.43389,245.65727c0,-1.25961 -0.61516,-1.88941 -1.84548,-1.88941c-0.56829,0 -1.05748,0.17283 -1.46759,0.51849c-0.40425,0.34566 -0.60637,0.84658 -0.60637,1.50275v1.39729h2.43428c0.99011,0 1.48517,-0.5097 1.48517,-1.52911zM349.30119,228.65252c0,-0.45111 1.18345,-0.67667 3.55035,-0.67667c0.8085,0 1.74588,0.05273 2.81215,0.15818c1.06628,0.10546 1.59941,0.24607 1.59941,0.42183v23.71877h1.57305c0.7499,0 1.24496,0.67375 1.48517,2.02124c0.05859,0.39253 0.08788,0.92566 0.08788,1.59941c0,0.67375 -0.20798,1.49103 -0.62394,2.45185c-0.60344,1.3182 -1.56426,1.9773 -2.88246,1.9773c-0.99011,0 -1.86891,-0.19333 -2.63639,-0.58c-0.76163,-0.39253 -1.27719,-0.79971 -1.54669,-1.22153l-0.40425,-0.58c-1.65214,1.5877 -3.72317,2.38155 -6.2131,2.38155c-2.48993,0 -4.61955,-1.03406 -6.38886,-3.10216c-1.76931,-2.0681 -2.65397,-4.95349 -2.65397,-8.65616c0,-3.70853 0.9286,-6.57341 2.78579,-8.59465c1.86305,-2.0271 4.18894,-3.04064 6.97766,-3.04064c0.8085,0 1.63456,0.09081 2.47821,0.27243zM347.81602,244.12816c-1.68143,0 -2.52215,1.51447 -2.52215,4.54339c0,1.52911 0.2402,2.63346 0.72062,3.31307c0.48041,0.67375 1.01354,1.01062 1.59941,1.01062c0.58587,0 1.1483,-0.25485 1.68729,-0.76455v-7.65434c-0.5097,-0.29879 -1.00476,-0.44818 -1.48516,-0.44818zM364.28292,251.77371c2.43135,1.47052 4.35005,2.20578 5.75613,2.20578c0.90223,0 1.35335,-0.31344 1.35335,-0.94031c0,-0.45111 -0.77921,-1.03698 -2.33761,-1.75759c-3.74954,-1.52911 -5.62431,-4.03368 -5.62431,-7.51372c0,-2.22043 0.8085,-3.91359 2.42549,-5.07946c1.62285,-1.17173 3.56499,-1.7576 5.82643,-1.7576c2.2673,0 4.18601,0.2402 5.75613,0.72062c1.57598,0.48041 2.36397,1.11022 2.36397,1.88942c0,0.65617 -0.32223,1.52618 -0.96668,2.61003c-0.64445,1.07799 -1.08678,1.66093 -1.32698,1.74881c-1.28891,-0.71475 -2.68326,-1.07213 -4.18308,-1.07213c-0.8085,0 -1.21275,0.28415 -1.21275,0.85244c0,0.35738 0.15525,0.66495 0.46577,0.92274c0.31637,0.25193 0.89345,0.56536 1.73124,0.94032c0.84365,0.37496 1.54082,0.71475 2.09154,1.01941c0.55657,0.29879 1.18052,0.71768 1.87185,1.25668c1.44123,1.13658 2.16184,2.62175 2.16184,4.45551c0,2.39619 -0.79678,4.33833 -2.39034,5.82643c-1.5877,1.48224 -3.98681,2.22337 -7.19735,2.22337c-2.12669,0 -4.06005,-0.3603 -5.80007,-1.08092c-1.74002,-0.72062 -2.61003,-1.71073 -2.61003,-2.97034c0,-0.83778 0.20213,-1.71952 0.60637,-2.64518c0.40425,-0.93153 0.81729,-1.54962 1.23911,-1.85426z" fill="#ffffff" stroke="none" stroke-width="1" stroke-linecap="square"/><path d="M203.68906,187.39493l4.23243,-7.28919l13.21757,-2.96984l5.75,7.98605l-8.77838,7.44595z" fill="#5d5d5d" stroke="url(#color-2)" stroke-width="0" stroke-linecap="butt"/><path d="M411.74406,162.24663l-5.28542,-10.22577l8.35591,-5.19791l11.09373,7.77517l1.14096,8.35128z" fill="#5d5d5d" stroke="url(#color-3)" stroke-width="0" stroke-linecap="butt"/><path d="M246.48976,232.9494l0.83447,-6.10793l8.1137,-5.68657l6.11132,3.80163l-3.86563,7.47889z" fill="#5d5d5d" stroke="url(#color-4)" stroke-width="0" stroke-linecap="butt"/><path d="M371.48976,215.9494l0.83447,-6.10793l8.1137,-5.68657l6.11132,3.80163l-3.86563,7.47889z" fill="#5d5d5d" stroke="url(#color-5)" stroke-width="0" stroke-linecap="butt"/><path d="M268.00783,158.56407l-7.39664,-4.02078l2.92479,-6.57619l9.90685,0.15332l4.11842,4.58714z" fill="#5d5d5d" stroke="url(#color-6)" stroke-width="0" stroke-linecap="butt"/><path d="M421.11733,250.9261l-5.66375,-3.65689l2.73222,-5.07473l7.90151,0.7201l3.01189,3.91135z" fill="#5d5d5d" stroke="url(#color-7)" stroke-width="0" stroke-linecap="butt"/><path d="M246.97187,192.3918c0,-1.38071 0.31929,-2.9 1.7,-2.9c1.38071,0 2.25,0.36929 2.25,1.75c0,1.38071 -0.86929,3.25 -2.25,3.25c-1.38071,0 -1.7,-0.71929 -1.7,-2.1z" fill="#e7a55c" stroke="none" stroke-width="0.5" stroke-linecap="butt"/></g></g></svg>
