<svg version="1.1" xmlns="http://www.w3.org/2000/svg" xmlns:xlink="http://www.w3.org/1999/xlink" width="309.2973" height="159.64866" viewBox="0,0,309.2973,159.64866"><defs><linearGradient x1="299.97135" y1="143.76833" x2="299.97135" y2="217.75723" gradientUnits="userSpaceOnUse" id="color-1"><stop offset="0" stop-color="#0004e2"/><stop offset="1" stop-color="#00066f"/></linearGradient><radialGradient cx="300.10518" cy="201.13167" r="72.52454" gradientUnits="userSpaceOnUse" id="color-2"><stop offset="0" stop-color="#004bff"/><stop offset="1" stop-color="#004bff" stop-opacity="0"/></radialGradient><radialGradient cx="269.68214" cy="187.15974" r="3.31408" gradientUnits="userSpaceOnUse" id="color-3"><stop offset="0" stop-color="#00f3ff"/><stop offset="1" stop-color="#00f3ff" stop-opacity="0.57647"/></radialGradient><radialGradient cx="267.60121" cy="178.29648" r="2.15801" gradientUnits="userSpaceOnUse" id="color-4"><stop offset="0" stop-color="#00f3ff"/><stop offset="1" stop-color="#00f3ff" stop-opacity="0.57647"/></radialGradient><radialGradient cx="270.99236" cy="173.20974" r="1.38729" gradientUnits="userSpaceOnUse" id="color-5"><stop offset="0" stop-color="#00f3ff"/><stop offset="1" stop-color="#00f3ff" stop-opacity="0.57647"/></radialGradient><radialGradient cx="317.38957" cy="162.26556" r="2.15801" gradientUnits="userSpaceOnUse" id="color-6"><stop offset="0" stop-color="#00f3ff"/><stop offset="1" stop-color="#00f3ff" stop-opacity="0.57647"/></radialGradient><radialGradient cx="324.32603" cy="168.89373" r="3.69945" gradientUnits="userSpaceOnUse" id="color-7"><stop offset="0" stop-color="#00f3ff"/><stop offset="1" stop-color="#00f3ff" stop-opacity="0.57647"/></radialGradient><radialGradient cx="317.08128" cy="154.71252" r="1.38729" gradientUnits="userSpaceOnUse" id="color-8"><stop offset="0" stop-color="#00f3ff"/><stop offset="1" stop-color="#00f3ff" stop-opacity="0.57647"/></radialGradient><radialGradient cx="327.87133" cy="176.44676" r="2.15801" gradientUnits="userSpaceOnUse" id="color-9"><stop offset="0" stop-color="#00f3ff"/><stop offset="1" stop-color="#00f3ff" stop-opacity="0.57647"/></radialGradient><radialGradient cx="293.57439" cy="150.31943" r="3.15994" gradientUnits="userSpaceOnUse" id="color-10"><stop offset="0" stop-color="#00f3ff"/><stop offset="1" stop-color="#00f3ff" stop-opacity="0.57647"/></radialGradient><radialGradient cx="299.97135" cy="147.77606" r="2.00387" gradientUnits="userSpaceOnUse" id="color-11"><stop offset="0" stop-color="#00f3ff"/><stop offset="1" stop-color="#00f3ff" stop-opacity="0.57647"/></radialGradient><radialGradient cx="304.16902" cy="210.36221" r="3.15994" gradientUnits="userSpaceOnUse" id="color-12"><stop offset="0" stop-color="#00f3ff"/><stop offset="1" stop-color="#00f3ff" stop-opacity="0.57647"/></radialGradient><radialGradient cx="285.27559" cy="159.40609" r="58.52123" gradientUnits="userSpaceOnUse" id="color-13"><stop offset="0" stop-color="#40a7ff"/><stop offset="1" stop-color="#40a7ff" stop-opacity="0"/></radialGradient><radialGradient cx="287.61853" cy="189.04864" r="0.88938" gradientUnits="userSpaceOnUse" id="color-14"><stop offset="0" stop-color="#71bdff"/><stop offset="1" stop-color="#71bdff" stop-opacity="0"/></radialGradient><radialGradient cx="288.43989" cy="154.61296" r="0.4447" gradientUnits="userSpaceOnUse" id="color-15"><stop offset="0" stop-color="#71bdff"/><stop offset="1" stop-color="#71bdff" stop-opacity="0"/></radialGradient><linearGradient x1="307.7899" y1="165.88236" x2="301.2063" y2="195.52233" gradientUnits="userSpaceOnUse" id="color-16"><stop offset="0" stop-color="#1c688f"/><stop offset="1" stop-color="#323232"/></linearGradient><linearGradient x1="305.83885" y1="166.76694" x2="299.25526" y2="196.40691" gradientUnits="userSpaceOnUse" id="color-17"><stop offset="0" stop-color="#1c688f"/><stop offset="1" stop-color="#323232"/></linearGradient><radialGradient cx="285.10575" cy="189.74654" r="3.55959" gradientUnits="userSpaceOnUse" id="color-18"><stop offset="0" stop-color="#1d538f"/><stop offset="1" stop-color="#1d538f" stop-opacity="0"/></radialGradient><radialGradient cx="287.24242" cy="191.81135" r="3.55959" gradientUnits="userSpaceOnUse" id="color-19"><stop offset="0" stop-color="#1d538f"/><stop offset="1" stop-color="#1d538f" stop-opacity="0"/></radialGradient><radialGradient cx="291.1691" cy="193.83221" r="4.24653" gradientUnits="userSpaceOnUse" id="color-20"><stop offset="0" stop-color="#1d538f"/><stop offset="1" stop-color="#1d538f" stop-opacity="0"/></radialGradient><radialGradient cx="295.85047" cy="194.56255" r="4.24653" gradientUnits="userSpaceOnUse" id="color-21"><stop offset="0" stop-color="#1d538f"/><stop offset="1" stop-color="#1d538f" stop-opacity="0"/></radialGradient><radialGradient cx="300.16025" cy="196.21008" r="4.24653" gradientUnits="userSpaceOnUse" id="color-22"><stop offset="0" stop-color="#1d538f"/><stop offset="1" stop-color="#1d538f" stop-opacity="0"/></radialGradient><radialGradient cx="304.93708" cy="195.81281" r="4.24653" gradientUnits="userSpaceOnUse" id="color-23"><stop offset="0" stop-color="#1d538f"/><stop offset="1" stop-color="#1d538f" stop-opacity="0"/></radialGradient><radialGradient cx="317.51893" cy="191.76066" r="4.24653" gradientUnits="userSpaceOnUse" id="color-24"><stop offset="0" stop-color="#1d538f"/><stop offset="1" stop-color="#1d538f" stop-opacity="0"/></radialGradient><radialGradient cx="302.64233" cy="196.24651" r="4.24653" gradientUnits="userSpaceOnUse" id="color-25"><stop offset="0" stop-color="#275ac4"/><stop offset="1" stop-color="#275ac4" stop-opacity="0"/></radialGradient><radialGradient cx="298.39158" cy="195.95345" r="4.24653" gradientUnits="userSpaceOnUse" id="color-26"><stop offset="0" stop-color="#275ac4"/><stop offset="1" stop-color="#275ac4" stop-opacity="0"/></radialGradient><radialGradient cx="294.54527" cy="194.98649" r="4.24653" gradientUnits="userSpaceOnUse" id="color-27"><stop offset="0" stop-color="#275ac4"/><stop offset="1" stop-color="#275ac4" stop-opacity="0"/></radialGradient><radialGradient cx="291.32359" cy="194.05906" r="4.24653" gradientUnits="userSpaceOnUse" id="color-28"><stop offset="0" stop-color="#275ac4"/><stop offset="1" stop-color="#275ac4" stop-opacity="0"/></radialGradient><radialGradient cx="287.83911" cy="191.18537" r="4.24653" gradientUnits="userSpaceOnUse" id="color-29"><stop offset="0" stop-color="#275ac4"/><stop offset="1" stop-color="#275ac4" stop-opacity="0"/></radialGradient><radialGradient cx="284.46962" cy="189.16316" r="4.24653" gradientUnits="userSpaceOnUse" id="color-30"><stop offset="0" stop-color="#275ac4"/><stop offset="1" stop-color="#275ac4" stop-opacity="0"/></radialGradient><radialGradient cx="318.43611" cy="192.13225" r="4.24653" gradientUnits="userSpaceOnUse" id="color-31"><stop offset="0" stop-color="#275ac4"/><stop offset="1" stop-color="#275ac4" stop-opacity="0"/></radialGradient><radialGradient cx="302.02079" cy="198.06445" r="4.24653" gradientUnits="userSpaceOnUse" id="color-32"><stop offset="0" stop-color="#003cff"/><stop offset="1" stop-color="#003cff" stop-opacity="0"/></radialGradient><radialGradient cx="298.62152" cy="197.65643" r="4.24653" gradientUnits="userSpaceOnUse" id="color-33"><stop offset="0" stop-color="#003cff"/><stop offset="1" stop-color="#003cff" stop-opacity="0"/></radialGradient><radialGradient cx="295.65954" cy="196.81777" r="4.24653" gradientUnits="userSpaceOnUse" id="color-34"><stop offset="0" stop-color="#003cff"/><stop offset="1" stop-color="#003cff" stop-opacity="0"/></radialGradient><radialGradient cx="290.67895" cy="196.62326" r="4.24653" gradientUnits="userSpaceOnUse" id="color-35"><stop offset="0" stop-color="#003cff"/><stop offset="1" stop-color="#003cff" stop-opacity="0"/></radialGradient><radialGradient cx="285.57117" cy="193.19562" r="4.24653" gradientUnits="userSpaceOnUse" id="color-36"><stop offset="0" stop-color="#003cff"/><stop offset="1" stop-color="#003cff" stop-opacity="0"/></radialGradient><radialGradient cx="321.06601" cy="193.26345" r="4.24653" gradientUnits="userSpaceOnUse" id="color-37"><stop offset="0" stop-color="#003cff"/><stop offset="1" stop-color="#003cff" stop-opacity="0"/></radialGradient><radialGradient cx="306.49337" cy="195.65032" r="4.24653" gradientUnits="userSpaceOnUse" id="color-38"><stop offset="0" stop-color="#275ac4"/><stop offset="1" stop-color="#275ac4" stop-opacity="0"/></radialGradient><radialGradient cx="306.45531" cy="197.42506" r="4.24653" gradientUnits="userSpaceOnUse" id="color-39"><stop offset="0" stop-color="#003cff"/><stop offset="1" stop-color="#003cff" stop-opacity="0"/></radialGradient><radialGradient cx="310.44496" cy="194.00372" r="4.24653" gradientUnits="userSpaceOnUse" id="color-40"><stop offset="0" stop-color="#275ac4"/><stop offset="1" stop-color="#275ac4" stop-opacity="0"/></radialGradient><radialGradient cx="311.05684" cy="195.78345" r="4.24653" gradientUnits="userSpaceOnUse" id="color-41"><stop offset="0" stop-color="#003cff"/><stop offset="1" stop-color="#003cff" stop-opacity="0"/></radialGradient><radialGradient cx="313.56788" cy="192.29568" r="4.24653" gradientUnits="userSpaceOnUse" id="color-42"><stop offset="0" stop-color="#275ac4"/><stop offset="1" stop-color="#275ac4" stop-opacity="0"/></radialGradient><radialGradient cx="316.20377" cy="195.54009" r="4.24653" gradientUnits="userSpaceOnUse" id="color-43"><stop offset="0" stop-color="#003cff"/><stop offset="1" stop-color="#003cff" stop-opacity="0"/></radialGradient><radialGradient cx="295.65954" cy="208.71935" r="2.15801" gradientUnits="userSpaceOnUse" id="color-44"><stop offset="0" stop-color="#00f3ff"/><stop offset="1" stop-color="#00f3ff" stop-opacity="0.57647"/></radialGradient><linearGradient x1="300" y1="274.82435" x2="300" y2="125.17569" gradientUnits="userSpaceOnUse" id="color-45"><stop offset="0" stop-color="#0053ff"/><stop offset="1" stop-color="#0035a2"/></linearGradient></defs><g transform="translate(-145.35135,-120.17568)"><g fill-rule="nonzero" stroke-linejoin="miter" stroke-miterlimit="10" stroke-dasharray="" stroke-dashoffset="0" style="mix-blend-mode: normal"><path d="M153.17919,273.32433v-146.64866h293.64163v146.64866z" fill="#00ffff" stroke="none" stroke-width="0" stroke-linecap="butt"/><path d="M150.17568,244.49699v-95.02194c0,0 59.83788,13.07872 98.62433,12.39917c38.78645,-0.67955 76.93957,-14.02551 132.5,-16.44854c57.88425,-2.52437 68.52432,11.04937 68.52432,11.04937v88.02194z" fill="#00d9ff" stroke="none" stroke-width="0" stroke-linecap="butt"/><path d="M150.17568,272.69449v-88.02194c0,0 49.54286,-9.30497 81.52432,-8.54937c31.98146,0.7556 81.62574,15.57297 134.5,15.94854c52.87426,0.37557 83.62432,-14.39917 83.62432,-14.39917v95.02194z" fill="#008fff" stroke="none" stroke-width="0" stroke-linecap="butt"/><path d="M150.17568,274.82432v-68.95409c0,0 50.51766,18.47317 84.12433,18.46607c33.60667,-0.0071 123.77266,-18.51563 149,-18.51563c37.23924,0 66.52432,7.07501 66.52432,7.07501v61.92863z" fill="#0037ff" stroke="none" stroke-width="0" stroke-linecap="butt"/><path d="M218.70933,248.10053c1.02181,0.5714 1.99987,0.85709 2.93418,0.85709c0.9343,0 1.40145,-0.36291 1.40145,-1.08873c0,-0.32945 -0.13256,-0.6203 -0.39766,-0.87253c-0.26253,-0.25224 -0.74512,-0.54308 -1.44778,-0.87253c-0.70266,-0.32945 -1.23029,-0.58684 -1.58291,-0.77215c-0.35004,-0.18789 -0.81719,-0.49546 -1.40145,-0.92272c-0.58169,-0.42983 -1.02568,-0.87511 -1.33197,-1.33582c-0.87767,-1.25345 -1.31652,-2.84538 -1.31652,-4.77576c0,-1.93295 0.71811,-3.56348 2.1543,-4.89158c1.43878,-1.33068 3.32283,-1.99602 5.65216,-1.99602c1.58034,0 3.0397,0.17117 4.3781,0.51348c1.34097,0.33975 2.03334,0.78374 2.07709,1.33197c0,0.06692 0,0.13255 0,0.1969c0,0.76958 -0.24194,1.74249 -0.72582,2.91873c-0.48131,1.17367 -0.82105,1.82614 -1.01924,1.9574c-1.40532,-0.72582 -2.66264,-1.08873 -3.77197,-1.08873c-1.10932,0 -1.66399,0.39637 -1.66399,1.18911c0,0.48131 0.40666,0.90856 1.22,1.28177c0.17503,0.09008 0.42726,0.21235 0.75671,0.36677c0.32945,0.15186 0.70781,0.33202 1.13507,0.54051c0.42983,0.20847 0.89183,0.4723 1.38601,0.79146c0.49418,0.31916 1.02696,0.74127 1.59835,1.26633c1.16338,1.09903 1.74506,2.54938 1.74506,4.35107c0,2.34991 -0.64861,4.27129 -1.94582,5.76411c-1.29465,1.49282 -3.29194,2.26111 -5.99189,2.30487c-1.31781,0 -2.5095,-0.10939 -3.57507,-0.32817c-1.06557,-0.21878 -1.99473,-0.64604 -2.78746,-1.28177c-0.79017,-0.63832 -1.18526,-1.40789 -1.18526,-2.30873c0,-0.90084 0.16473,-1.79525 0.49418,-2.68322c0.32945,-0.89054 2.1929,-0.98451 3.21214,-0.41312zM238.52671,254.55572c0,0.19819 -0.91757,0.29728 -2.75272,0.29728c-1.83257,0 -2.74886,-0.15314 -2.74886,-0.45943v-22.57c0,-0.15186 0.33975,-0.25996 1.01924,-0.3243c0.68207,-0.06692 1.25346,-0.10038 1.71418,-0.10038c1.84544,0 2.76817,0.19691 2.76817,0.5907v6.59032c1.23029,-0.3732 2.16332,-0.55982 2.79906,-0.55982c1.67042,0 2.98823,0.44528 3.95342,1.33582c0.96776,0.88798 1.45164,2.54038 1.45164,4.95722v10.21171c0,0.19818 -0.85709,0.29727 -2.57126,0.29727c-1.93295,-0.06691 -2.89943,-0.17759 -2.89943,-0.33202v-9.68665c0,-1.07587 -0.35133,-1.6138 -1.05399,-1.6138c-0.48388,0 -1.0437,0.23165 -1.67943,0.69494zM251.60709,242.83059c-0.61515,-1.09903 -0.92272,-1.99472 -0.92272,-2.68708c0,-0.69236 0.1866,-1.13763 0.55981,-1.33582c1.25088,-0.54822 2.96892,-0.82234 5.15411,-0.82234c2.18519,0 3.7282,0.5109 4.62905,1.53272c0.90085,1.02181 1.35126,2.53137 1.35126,4.52866v5.20431h1.11962c0.3732,0 0.66406,0.22007 0.87254,0.66019c0.20848,0.44012 0.31272,1.04497 0.31272,1.81456c0,0.767 -0.19175,1.52372 -0.57525,2.27013c-0.38351,0.74642 -0.90471,1.11962 -1.56361,1.11962c-1.18653,0 -2.14272,-0.31787 -2.86854,-0.95361c-0.32945,-0.26511 -0.58168,-0.58426 -0.75671,-0.95747c-1.01152,1.27405 -2.58156,1.91108 -4.71013,1.91108c-1.6035,0 -2.95477,-0.5701 -4.05379,-1.71032c-1.09903,-1.14279 -1.64855,-2.49405 -1.64855,-4.0538c0,-3.58021 2.14144,-5.37032 6.42431,-5.37032h1.81456v-0.32816c0,-0.57139 -0.09394,-0.93945 -0.28183,-1.10418c-0.18531,-0.16473 -0.61901,-0.24709 -1.30108,-0.24709c-0.83392,0 -2.01917,0.17631 -3.55575,0.52892zM254.24013,248.89199c0,0.48131 0.13127,0.84937 0.3938,1.10418c0.26511,0.25224 0.60099,0.37835 1.00766,0.37835c0.40667,0 0.77472,-0.16472 1.10417,-0.49417v-2.53652h-0.92272c-1.05528,0 -1.58291,0.51605 -1.58291,1.54817zM273.77776,254.75262c0,0.15443 -0.99994,0.23164 -2.99982,0.23164c-1.99731,-0.04375 -2.99595,-0.13126 -2.99595,-0.26253v-10.93753h-0.89183c-0.35004,0 -0.6293,-0.21363 -0.83778,-0.64089c-0.20848,-0.42984 -0.31273,-0.96262 -0.31273,-1.59836c0,-2.37308 0.70266,-3.55962 2.10798,-3.55962c0.98835,0 1.81198,0.30243 2.47089,0.90728c0.6589,0.60228 0.98835,1.28821 0.98835,2.05779c0.46072,-0.90085 1.08101,-1.62023 1.86089,-2.15817c0.77987,-0.53793 1.57519,-0.80689 2.38594,-0.80689c1.27405,0 2.04363,0.32946 2.30873,0.98836c0.06435,0.17502 0.09652,0.43369 0.09652,0.77601c0,0.33975 -0.10424,0.94975 -0.31272,1.83c-0.20848,0.87768 -0.42211,1.51471 -0.64089,1.91108c-0.21878,0.3938 -0.35133,0.59069 -0.39766,0.59069c-0.04376,0 -0.24709,-0.08236 -0.61,-0.24709c-0.36033,-0.16472 -0.68336,-0.24708 -0.96905,-0.24708c-0.83392,0 -1.25088,0.6589 -1.25088,1.97671zM279.60777,231.98958c0,-0.35004 0.99865,-0.52506 2.99595,-0.52506c1.8686,0.06435 2.80291,0.20719 2.80291,0.42854v12.64785l3.26234,-6.02665c0.15186,-0.32945 1.08359,-0.49417 2.79519,-0.49417c1.71417,0 2.8132,0.10939 3.29709,0.32816l-4.28158,6.98412l4.94177,9.25811c0.04375,0.08751 -0.36805,0.15829 -1.23545,0.21234c-0.86738,0.05663 -1.58677,0.08493 -2.15817,0.08493c-2.10798,0 -3.23918,-0.09909 -3.39362,-0.29728l-3.26234,-7.31614v7.28139c0,0.28569 -0.96133,0.42854 -2.88399,0.42854c-1.92009,0 -2.88013,-0.13126 -2.88013,-0.39379zM303.85601,254.59047c0,0.26254 -0.92273,0.3938 -2.76817,0.3938c-2.19548,-0.08751 -3.29323,-0.23036 -3.29323,-0.42854v-11.65949h-1.68329c-0.43755,0 -0.65633,-0.758 -0.65633,-2.27399c0,-0.39637 0.03732,-0.88025 0.11196,-1.45165c0.07722,-0.57139 0.23679,-0.85709 0.47873,-0.85709h1.74892v-2.89557c0,-0.44013 0.92787,-0.66019 2.78361,-0.66019c1.85574,0 2.78361,0.17502 2.78361,0.52507v2.11183l0.03089,0.91886h2.79905c0.3732,0 0.55981,0.76958 0.55981,2.30874c0,1.53658 -0.1866,2.30487 -0.55981,2.30487h-2.33576zM314.43119,254.59047c0,0.17502 -1.00509,0.26253 -3.01526,0.26253c-2.01016,0 -3.01525,-0.07721 -3.01525,-0.23164v-16.17273c0,-0.15443 1.00508,-0.23165 3.01525,-0.23165c2.01017,0 3.01526,0.06563 3.01526,0.1969zM314.43119,236.47193c0,0.15186 -1.00509,0.22778 -3.01526,0.22778c-2.01016,0 -3.01525,-0.06563 -3.01525,-0.1969v-4.74487c0,-0.21878 1.00508,-0.32816 3.01525,-0.32816c2.01017,0 3.01526,0.06563 3.01526,0.1969zM323.39012,254.52484c0,0.19818 -1.11962,0.29727 -3.35886,0.29727c-1.75793,-0.02317 -2.6369,-0.11196 -2.6369,-0.26639v-22.43488c0,-0.32945 1.06557,-0.49418 3.19671,-0.49418c1.86604,0.06692 2.79906,0.17759 2.79906,0.33202zM332.38561,254.59047c0,0.17502 -1.00508,0.26253 -3.01525,0.26253c-2.01017,0 -3.01526,-0.07721 -3.01526,-0.23164v-16.17273c0,-0.15443 1.00508,-0.23165 3.01526,-0.23165c2.01017,0 3.01525,0.06563 3.01525,0.1969zM332.38561,236.47193c0,0.15186 -1.00508,0.22778 -3.01525,0.22778c-2.01017,0 -3.01526,-0.06563 -3.01526,-0.1969v-4.74487c0,-0.21878 1.00508,-0.32816 3.01526,-0.32816c2.01017,0 3.01525,0.06563 3.01525,0.1969zM342.92747,254.59047c0,0.26254 -0.92272,0.3938 -2.76817,0.3938c-2.19549,-0.08751 -3.29324,-0.23036 -3.29324,-0.42854v-11.65949h-1.68329c-0.43755,0 -0.65633,-0.758 -0.65633,-2.27399c0,-0.39637 0.03732,-0.88025 0.11197,-1.45165c0.07722,-0.57139 0.2368,-0.85709 0.47874,-0.85709h1.74892v-2.89557c0,-0.44013 0.92787,-0.66019 2.78362,-0.66019c1.85574,0 2.7836,0.17502 2.7836,0.52507v2.11183l0.03089,0.91886h2.79905c0.37321,0 0.55981,0.76958 0.55981,2.30874c0,1.53658 -0.1866,2.30487 -0.55981,2.30487h-2.33575zM353.50263,254.59047c0,0.17502 -1.00509,0.26253 -3.01526,0.26253c-2.01017,0 -3.01526,-0.07721 -3.01526,-0.23164v-16.17273c0,-0.15443 1.00509,-0.23165 3.01526,-0.23165c2.01017,0 3.01526,0.06563 3.01526,0.1969zM353.50263,236.47193c0,0.15186 -1.00509,0.22778 -3.01526,0.22778c-2.01017,0 -3.01526,-0.06563 -3.01526,-0.1969v-4.74487c0,-0.21878 1.00509,-0.32816 3.01526,-0.32816c2.01017,0 3.01526,0.06563 3.01526,0.1969zM363.5812,255.11554c-2.1749,0 -4.00875,-0.74126 -5.50158,-2.2238c-1.49283,-1.48253 -2.23924,-3.53517 -2.23924,-6.15791c0,-2.62531 0.71939,-4.73973 2.15817,-6.34323c1.43877,-1.6035 3.25591,-2.40526 5.45139,-2.40526c2.19548,0 3.89165,0.56109 5.08848,1.6833c1.19683,1.11962 1.79525,2.47989 1.79525,4.08082c0,3.55962 -2.04234,5.33943 -6.12703,5.33943h-2.27399c0,0.65891 0.18145,1.11447 0.54437,1.36671c0.36291,0.25224 0.89569,0.37835 1.59835,0.37835c1.53658,0 2.99724,-0.35133 4.38196,-1.05398c0.02317,-0.02316 0.12225,0.12998 0.29727,0.45943c0.52764,0.9446 0.79146,1.7412 0.79146,2.38981c0,0.64861 -0.20977,1.07201 -0.6293,1.27019c0,0 -3.16069,1.21613 -5.33557,1.21613zM364.80121,244.37876c0,-0.92401 -0.45042,-1.38602 -1.35126,-1.38602c-0.41697,0 -0.77473,0.12612 -1.0733,0.37835c-0.29599,0.25224 -0.44399,0.62029 -0.44399,1.10417v1.0231h1.77981c0.72582,0 1.08873,-0.37321 1.08873,-1.11962zM373.16762,248.85724c1.77852,1.07587 3.18383,1.6138 4.21595,1.6138c0.65891,0 0.98836,-0.23035 0.98836,-0.69107c0,-0.32946 -0.5701,-0.758 -1.71031,-1.28564c-2.74629,-1.11962 -4.11943,-2.95349 -4.11943,-5.50158c0,-1.62409 0.59327,-2.86468 1.77981,-3.72177c1.18654,-0.85709 2.60858,-1.28564 4.26614,-1.28564c1.65755,0 3.06287,0.17631 4.21595,0.52892c1.15309,0.35004 1.72962,0.81076 1.72962,1.38216c0,0.48388 -0.23679,1.1209 -0.71038,1.91108c-0.47102,0.79016 -0.79402,1.21871 -0.96905,1.28563c-0.94459,-0.52764 -1.96641,-0.79146 -3.06544,-0.79146c-0.59199,0 -0.88798,0.20848 -0.88798,0.62544c0,0.26511 0.11453,0.49161 0.34361,0.67949c0.23164,0.18532 0.65505,0.41568 1.27019,0.69108c0.61515,0.27283 1.12605,0.51991 1.53272,0.74126c0.40667,0.21877 0.86224,0.52506 1.36671,0.91886c1.05528,0.83393 1.58291,1.92137 1.58291,3.26234c0,1.75793 -0.58297,3.17998 -1.74892,4.26614c-1.16337,1.08616 -2.92002,1.62924 -5.26994,1.62924c-1.55975,0 -2.97665,-0.26253 -4.2507,-0.78759c-1.27404,-0.52764 -1.91107,-1.25346 -1.91107,-2.17747c0,-0.61515 0.148,-1.26247 0.44398,-1.94196c0.29856,-0.68206 0.60099,-1.13248 0.90728,-1.35126z" fill="none" stroke-opacity="0.59608" stroke="#020081" stroke-width="7.5" stroke-linecap="square"/><path d="M218.70933,248.10053c1.02181,0.5714 1.99987,0.85709 2.93418,0.85709c0.9343,0 1.40145,-0.36291 1.40145,-1.08873c0,-0.32945 -0.13256,-0.6203 -0.39766,-0.87253c-0.26253,-0.25224 -0.74512,-0.54308 -1.44778,-0.87253c-0.70266,-0.32945 -1.23029,-0.58684 -1.58291,-0.77215c-0.35004,-0.18789 -0.81719,-0.49546 -1.40145,-0.92272c-0.58169,-0.42983 -1.02568,-0.87511 -1.33197,-1.33582c-0.87767,-1.25345 -1.31652,-2.84538 -1.31652,-4.77576c0,-1.93295 0.71811,-3.56348 2.1543,-4.89158c1.43878,-1.33068 3.32283,-1.99602 5.65216,-1.99602c1.58034,0 3.0397,0.17117 4.3781,0.51348c1.34097,0.33975 2.03334,0.78374 2.07709,1.33197c0,0.06692 0,0.13255 0,0.1969c0,0.76958 -0.24194,1.74249 -0.72582,2.91873c-0.48131,1.17367 -0.82105,1.82614 -1.01924,1.9574c-1.40532,-0.72582 -2.66264,-1.08873 -3.77197,-1.08873c-1.10932,0 -1.66399,0.39637 -1.66399,1.18911c0,0.48131 0.40666,0.90856 1.22,1.28177c0.17503,0.09008 0.42726,0.21235 0.75671,0.36677c0.32945,0.15186 0.70781,0.33202 1.13507,0.54051c0.42983,0.20847 0.89183,0.4723 1.38601,0.79146c0.49418,0.31916 1.02696,0.74127 1.59835,1.26633c1.16338,1.09903 1.74506,2.54938 1.74506,4.35107c0,2.34991 -0.64861,4.27129 -1.94582,5.76411c-1.29465,1.49282 -3.29194,2.26111 -5.99189,2.30487c-1.31781,0 -2.5095,-0.10939 -3.57507,-0.32817c-1.06557,-0.21878 -1.99473,-0.64604 -2.78746,-1.28177c-0.79017,-0.63832 -1.18526,-1.40789 -1.18526,-2.30873c0,-0.90084 0.16473,-1.79525 0.49418,-2.68322c0.32945,-0.89054 0.68207,-1.47867 1.05785,-1.76437c0,0 1.13505,0.77985 2.15429,1.35125zM238.52671,254.55572c0,0.19819 -0.91757,0.29728 -2.75272,0.29728c-1.83257,0 -2.74886,-0.15314 -2.74886,-0.45943v-22.57c0,-0.15186 0.33975,-0.25996 1.01924,-0.3243c0.68207,-0.06692 1.25346,-0.10038 1.71418,-0.10038c1.84544,0 2.76817,0.19691 2.76817,0.5907v6.59032c1.23029,-0.3732 2.16332,-0.55982 2.79906,-0.55982c1.67042,0 2.98823,0.44528 3.95342,1.33582c0.96776,0.88798 1.45164,2.54038 1.45164,4.95722v10.21171c0,0.19818 -0.85709,0.29727 -2.57126,0.29727c-1.93295,-0.06691 -2.89943,-0.17759 -2.89943,-0.33202v-9.68665c0,-1.07587 -0.35133,-1.6138 -1.05399,-1.6138c-0.48388,0 -1.0437,0.23165 -1.67943,0.69494zM251.60709,242.83059c-0.61515,-1.09903 -0.92272,-1.99472 -0.92272,-2.68708c0,-0.69236 0.1866,-1.13763 0.55981,-1.33582c1.25088,-0.54822 2.96892,-0.82234 5.15411,-0.82234c2.18519,0 3.7282,0.5109 4.62905,1.53272c0.90085,1.02181 1.35126,2.53137 1.35126,4.52866v5.20431h1.11962c0.3732,0 0.66406,0.22007 0.87254,0.66019c0.20848,0.44012 0.31272,1.04497 0.31272,1.81456c0,0.767 -0.19175,1.52372 -0.57525,2.27013c-0.38351,0.74642 -0.90471,1.11962 -1.56361,1.11962c-1.18653,0 -2.14272,-0.31787 -2.86854,-0.95361c-0.32945,-0.26511 -0.58168,-0.58426 -0.75671,-0.95747c-1.01152,1.27405 -2.58156,1.91108 -4.71013,1.91108c-1.6035,0 -2.95477,-0.5701 -4.05379,-1.71032c-1.09903,-1.14279 -1.64855,-2.49405 -1.64855,-4.0538c0,-3.58021 2.14144,-5.37032 6.42431,-5.37032h1.81456v-0.32816c0,-0.57139 -0.09394,-0.93945 -0.28183,-1.10418c-0.18531,-0.16473 -0.61901,-0.24709 -1.30108,-0.24709c-0.83392,0 -2.01917,0.17631 -3.55575,0.52892zM254.24013,248.89199c0,0.48131 0.13127,0.84937 0.3938,1.10418c0.26511,0.25224 0.60099,0.37835 1.00766,0.37835c0.40667,0 0.77472,-0.16472 1.10417,-0.49417v-2.53652h-0.92272c-1.05528,0 -1.58291,0.51605 -1.58291,1.54817zM273.77776,254.75262c0,0.15443 -0.99994,0.23164 -2.99982,0.23164c-1.99731,-0.04375 -2.99595,-0.13126 -2.99595,-0.26253v-10.93753h-0.89183c-0.35004,0 -0.6293,-0.21363 -0.83778,-0.64089c-0.20848,-0.42984 -0.31273,-0.96262 -0.31273,-1.59836c0,-2.37308 0.70266,-3.55962 2.10798,-3.55962c0.98835,0 1.81198,0.30243 2.47089,0.90728c0.6589,0.60228 0.98835,1.28821 0.98835,2.05779c0.46072,-0.90085 1.08101,-1.62023 1.86089,-2.15817c0.77987,-0.53793 1.57519,-0.80689 2.38594,-0.80689c1.27405,0 2.04363,0.32946 2.30873,0.98836c0.06435,0.17502 0.09652,0.43369 0.09652,0.77601c0,0.33975 -0.10424,0.94975 -0.31272,1.83c-0.20848,0.87768 -0.42211,1.51471 -0.64089,1.91108c-0.21878,0.3938 -0.35133,0.59069 -0.39766,0.59069c-0.04376,0 -0.24709,-0.08236 -0.61,-0.24709c-0.36033,-0.16472 -0.68336,-0.24708 -0.96905,-0.24708c-0.83392,0 -1.25088,0.6589 -1.25088,1.97671zM279.60777,231.98958c0,-0.35004 0.99865,-0.52506 2.99595,-0.52506c1.8686,0.06435 2.80291,0.20719 2.80291,0.42854v12.64785l3.26234,-6.02665c0.15186,-0.32945 1.08359,-0.49417 2.79519,-0.49417c1.71417,0 2.8132,0.10939 3.29709,0.32816l-4.28158,6.98412l4.94177,9.25811c0.04375,0.08751 -0.36805,0.15829 -1.23545,0.21234c-0.86738,0.05663 -1.58677,0.08493 -2.15817,0.08493c-2.10798,0 -3.23918,-0.09909 -3.39362,-0.29728l-3.26234,-7.31614v7.28139c0,0.28569 -0.96133,0.42854 -2.88399,0.42854c-1.92009,0 -2.88013,-0.13126 -2.88013,-0.39379zM303.85601,254.59047c0,0.26254 -0.92273,0.3938 -2.76817,0.3938c-2.19548,-0.08751 -3.29323,-0.23036 -3.29323,-0.42854v-11.65949h-1.68329c-0.43755,0 -0.65633,-0.758 -0.65633,-2.27399c0,-0.39637 0.03732,-0.88025 0.11196,-1.45165c0.07722,-0.57139 0.23679,-0.85709 0.47873,-0.85709h1.74892v-2.89557c0,-0.44013 0.92787,-0.66019 2.78361,-0.66019c1.85574,0 2.78361,0.17502 2.78361,0.52507v2.11183l0.03089,0.91886h2.79905c0.3732,0 0.55981,0.76958 0.55981,2.30874c0,1.53658 -0.1866,2.30487 -0.55981,2.30487h-2.33576zM314.43119,254.59047c0,0.17502 -1.00509,0.26253 -3.01526,0.26253c-2.01016,0 -3.01525,-0.07721 -3.01525,-0.23164v-16.17273c0,-0.15443 1.00508,-0.23165 3.01525,-0.23165c2.01017,0 3.01526,0.06563 3.01526,0.1969zM314.43119,236.47193c0,0.15186 -1.00509,0.22778 -3.01526,0.22778c-2.01016,0 -3.01525,-0.06563 -3.01525,-0.1969v-4.74487c0,-0.21878 1.00508,-0.32816 3.01525,-0.32816c2.01017,0 3.01526,0.06563 3.01526,0.1969zM323.39012,254.52484c0,0.19818 -1.11962,0.29727 -3.35886,0.29727c-1.75793,-0.02317 -2.6369,-0.11196 -2.6369,-0.26639v-22.43488c0,-0.32945 1.06557,-0.49418 3.19671,-0.49418c1.86604,0.06692 2.79906,0.17759 2.79906,0.33202zM332.38561,254.59047c0,0.17502 -1.00508,0.26253 -3.01525,0.26253c-2.01017,0 -3.01526,-0.07721 -3.01526,-0.23164v-16.17273c0,-0.15443 1.00508,-0.23165 3.01526,-0.23165c2.01017,0 3.01525,0.06563 3.01525,0.1969zM332.38561,236.47193c0,0.15186 -1.00508,0.22778 -3.01525,0.22778c-2.01017,0 -3.01526,-0.06563 -3.01526,-0.1969v-4.74487c0,-0.21878 1.00508,-0.32816 3.01526,-0.32816c2.01017,0 3.01525,0.06563 3.01525,0.1969zM342.92747,254.59047c0,0.26254 -0.92272,0.3938 -2.76817,0.3938c-2.19549,-0.08751 -3.29324,-0.23036 -3.29324,-0.42854v-11.65949h-1.68329c-0.43755,0 -0.65633,-0.758 -0.65633,-2.27399c0,-0.39637 0.03732,-0.88025 0.11197,-1.45165c0.07722,-0.57139 0.2368,-0.85709 0.47874,-0.85709h1.74892v-2.89557c0,-0.44013 0.92787,-0.66019 2.78362,-0.66019c1.85574,0 2.7836,0.17502 2.7836,0.52507v2.11183l0.03089,0.91886h2.79905c0.37321,0 0.55981,0.76958 0.55981,2.30874c0,1.53658 -0.1866,2.30487 -0.55981,2.30487h-2.33575zM353.50263,254.59047c0,0.17502 -1.00509,0.26253 -3.01526,0.26253c-2.01017,0 -3.01526,-0.07721 -3.01526,-0.23164v-16.17273c0,-0.15443 1.00509,-0.23165 3.01526,-0.23165c2.01017,0 3.01526,0.06563 3.01526,0.1969zM353.50263,236.47193c0,0.15186 -1.00509,0.22778 -3.01526,0.22778c-2.01017,0 -3.01526,-0.06563 -3.01526,-0.1969v-4.74487c0,-0.21878 1.00509,-0.32816 3.01526,-0.32816c2.01017,0 3.01526,0.06563 3.01526,0.1969zM368.91677,253.8994c-1.38216,0.81076 -3.16068,1.21614 -5.33557,1.21614c-2.1749,0 -4.00875,-0.74126 -5.50158,-2.2238c-1.49283,-1.48253 -2.23924,-3.53517 -2.23924,-6.15791c0,-2.62531 0.71939,-4.73973 2.15817,-6.34323c1.43877,-1.6035 3.25591,-2.40526 5.45139,-2.40526c2.19548,0 3.89165,0.56109 5.08848,1.6833c1.19683,1.11962 1.79525,2.47989 1.79525,4.08082c0,3.55962 -2.04234,5.33943 -6.12703,5.33943h-2.27399c0,0.65891 0.18145,1.11447 0.54437,1.36671c0.36291,0.25224 0.89569,0.37835 1.59835,0.37835c1.53658,0 2.99724,-0.35133 4.38196,-1.05398c0.02317,-0.02316 0.12225,0.12998 0.29727,0.45943c0.52764,0.9446 0.79146,1.7412 0.79146,2.38981c0,0.64861 -0.20977,1.07201 -0.6293,1.27019zM364.80121,244.37876c0,-0.92401 -0.45042,-1.38602 -1.35126,-1.38602c-0.41697,0 -0.77473,0.12612 -1.0733,0.37835c-0.29599,0.25224 -0.44399,0.62029 -0.44399,1.10417v1.0231h1.77981c0.72582,0 1.08873,-0.37321 1.08873,-1.11962zM373.16762,248.85724c1.77852,1.07587 3.18383,1.6138 4.21595,1.6138c0.65891,0 0.98836,-0.23035 0.98836,-0.69107c0,-0.32946 -0.5701,-0.758 -1.71031,-1.28564c-2.74629,-1.11962 -4.11943,-2.95349 -4.11943,-5.50158c0,-1.62409 0.59327,-2.86468 1.77981,-3.72177c1.18654,-0.85709 2.60858,-1.28564 4.26614,-1.28564c1.65755,0 3.06287,0.17631 4.21595,0.52892c1.15309,0.35004 1.72962,0.81076 1.72962,1.38216c0,0.48388 -0.23679,1.1209 -0.71038,1.91108c-0.47102,0.79016 -0.79402,1.21871 -0.96905,1.28563c-0.94459,-0.52764 -1.96641,-0.79146 -3.06544,-0.79146c-0.59199,0 -0.88798,0.20848 -0.88798,0.62544c0,0.26511 0.11453,0.49161 0.34361,0.67949c0.23164,0.18532 0.65505,0.41568 1.27019,0.69108c0.61515,0.27283 1.12605,0.51991 1.53272,0.74126c0.40667,0.21877 0.86224,0.52506 1.36671,0.91886c1.05528,0.83393 1.58291,1.92137 1.58291,3.26234c0,1.75793 -0.58297,3.17998 -1.74892,4.26614c-1.16337,1.08616 -2.92002,1.62924 -5.26994,1.62924c-1.55975,0 -2.97665,-0.26253 -4.2507,-0.78759c-1.27404,-0.52764 -1.91107,-1.25346 -1.91107,-2.17747c0,-0.61515 0.148,-1.26247 0.44398,-1.94196c0.29856,-0.68206 0.60099,-1.13248 0.90728,-1.35126z" fill="#ffffff" stroke="none" stroke-width="1" stroke-linecap="square"/><path d="M263.14952,180.70559c0,-20.43147 16.51345,-36.99445 36.8838,-36.99445c20.37036,0 36.88381,16.56297 36.88381,36.99445c0,20.43147 -16.51344,36.99445 -36.88381,36.99445c-20.37036,0 -36.8838,-16.56298 -36.8838,-36.99445z" fill="none" stroke-opacity="0.59608" stroke="#020081" stroke-width="11.25" stroke-linecap="butt"/><path d="M262.9769,180.76278c0,-20.43147 16.56298,-36.99445 36.99445,-36.99445c20.43147,0 36.99445,16.56298 36.99445,36.99445c0,20.43147 -16.56298,36.99444 -36.99445,36.99444c-20.43147,0 -36.99445,-16.56297 -36.99445,-36.99444z" fill="url(#color-1)" stroke="#00ffff" stroke-width="3.75" stroke-linecap="butt"/><path d="M300.29238,218.2114c-22.59163,0 -43.18971,-29.13164 -36.12255,-32.44266c16.65609,-7.80352 19.53695,-2.28562 35.39853,-2.28562c13.37869,0 18.07693,-5.56312 34.01608,-0.34157c10.97615,3.59572 -10.70042,35.06984 -33.29205,35.06984z" fill="url(#color-2)" stroke="none" stroke-width="NaN" stroke-linecap="butt"/><path d="M266.36806,187.15974c0,-1.83032 1.48377,-3.31408 3.31408,-3.31408c1.83032,0 3.31408,1.48377 3.31408,3.31408c0,1.83032 -1.48376,3.31409 -3.31408,3.31409c-1.83032,0 -3.31408,-1.48377 -3.31408,-3.31409z" fill="url(#color-3)" stroke="none" stroke-width="0" stroke-linecap="butt"/><path d="M265.4432,178.29648c0,-1.19183 0.96617,-2.15801 2.158,-2.15801c1.19184,0 2.15801,0.96617 2.15801,2.15801c0,1.19183 -0.96618,2.15801 -2.15801,2.15801c-1.19183,0 -2.158,-0.96617 -2.158,-2.15801z" fill="url(#color-4)" stroke="none" stroke-width="0" stroke-linecap="butt"/><path d="M269.60507,173.20974c0,-0.76618 0.62111,-1.3873 1.38729,-1.3873c0.76618,0 1.38729,0.62112 1.38729,1.3873c0,0.76618 -0.62111,1.38729 -1.38729,1.38729c-0.76618,0 -1.38729,-0.62111 -1.38729,-1.38729z" fill="url(#color-5)" stroke="none" stroke-width="0" stroke-linecap="butt"/><path d="M315.23156,162.26556c0,-1.19183 0.96617,-2.15801 2.15801,-2.15801c1.19183,0 2.15801,0.96618 2.15801,2.15801c0,1.19184 -0.96617,2.15801 -2.15801,2.15801c-1.19184,0 -2.15801,-0.96618 -2.15801,-2.15801z" fill="url(#color-6)" stroke="none" stroke-width="0" stroke-linecap="butt"/><path d="M320.62659,168.89373c0,-2.04315 1.65629,-3.69945 3.69944,-3.69945c2.04315,0 3.69945,1.6563 3.69945,3.69945c0,2.04315 -1.6563,3.69945 -3.69945,3.69945c-2.04315,0 -3.69944,-1.65629 -3.69944,-3.69945z" fill="url(#color-7)" stroke="none" stroke-width="0" stroke-linecap="butt"/><path d="M315.69399,154.71252c0,-0.76618 0.62112,-1.3873 1.3873,-1.3873c0.76618,0 1.38729,0.62112 1.38729,1.3873c0,0.76618 -0.62111,1.38729 -1.38729,1.38729c-0.76618,0 -1.3873,-0.62111 -1.3873,-1.38729z" fill="url(#color-8)" stroke="none" stroke-width="0" stroke-linecap="butt"/><path d="M325.71332,176.44676c0,-1.19183 0.96618,-2.15801 2.15801,-2.15801c1.19183,0 2.15801,0.96618 2.15801,2.15801c0,1.19184 -0.96617,2.15801 -2.15801,2.15801c-1.19184,0 -2.15801,-0.96617 -2.15801,-2.15801z" fill="url(#color-9)" stroke="none" stroke-width="0" stroke-linecap="butt"/><path d="M290.41445,150.31943c0,-1.74519 1.41476,-3.15994 3.15994,-3.15994c1.74519,0 3.15994,1.41475 3.15994,3.15994c0,1.74519 -1.41476,3.15994 -3.15994,3.15994c-1.74518,0 -3.15994,-1.41476 -3.15994,-3.15994z" fill="url(#color-10)" stroke="none" stroke-width="0" stroke-linecap="butt"/><path d="M297.96749,147.77606c0,-1.1067 0.89716,-2.00387 2.00386,-2.00387c1.10671,0 2.00387,0.89717 2.00387,2.00387c0,1.10671 -0.89716,2.00387 -2.00387,2.00387c-1.1067,0 -2.00386,-0.89716 -2.00386,-2.00387z" fill="url(#color-11)" stroke="none" stroke-width="0" stroke-linecap="butt"/><path d="M301.00907,210.36221c0,-1.74519 1.41475,-3.15994 3.15994,-3.15994c1.74519,0 3.15994,1.41475 3.15994,3.15994c0,1.74519 -1.41476,3.15994 -3.15994,3.15994c-1.74519,0 -3.15994,-1.41476 -3.15994,-3.15994z" fill="url(#color-12)" stroke="none" stroke-width="0" stroke-linecap="butt"/><path d="M329.36679,201.84129c-0.00123,-0.00055 -0.00245,-0.0011 -0.00368,-0.00165c0.00168,-0.002 0.00337,-0.00401 0.00506,-0.00601z" fill="url(#color-13)" stroke="none" stroke-width="0" stroke-linecap="butt"/><path d="M286.97447,189.49342c-0.23307,-0.44854 -0.07186,-1.00835 0.36007,-1.25038c0.43193,-0.24203 0.97103,-0.07463 1.20411,0.37391c0.23308,0.44854 0.07186,1.00836 -0.36007,1.2504c-0.43194,0.24203 -0.97103,0.07462 -1.20411,-0.37392z" fill="url(#color-14)" stroke="none" stroke-width="0.5" stroke-linecap="butt"/><path d="M288.08261,154.89705c-0.11654,-0.22427 -0.03593,-0.50418 0.18003,-0.62519c0.21597,-0.12102 0.48551,-0.03731 0.60205,0.18696c0.11654,0.22427 0.03593,0.50418 -0.18004,0.62519c-0.21597,0.12102 -0.48552,0.03731 -0.60205,-0.18695z" fill="url(#color-15)" stroke="none" stroke-width="0.5" stroke-linecap="butt"/><path d="M288.44165,189.58894c0,0 5.54459,-6.12308 6.50881,-10.46409c1.00963,-4.54541 -2.47343,-15.41577 -2.47343,-15.41577c0,0 13.60315,3.94749 17.9636,10.16547c4.36045,6.21798 5.25336,15.46588 5.25336,15.46588c0,0 -0.21267,3.62555 -1.75264,4.68738c-2.93134,2.02119 -8.59672,2.07719 -12.18972,1.57547c-5.48057,-0.76529 -13.30998,-6.01432 -13.30998,-6.01432z" fill="url(#color-16)" stroke="#000000" stroke-width="1.25" stroke-linecap="round"/><path d="M286.4906,190.47352c0,0 5.54458,-6.12308 6.50881,-10.46409c1.00962,-4.54541 -0.581,-16.22341 -0.581,-16.22341c0,0 11.71073,4.75514 16.07118,10.97312c4.36045,6.21799 5.31886,19.529 5.31886,19.529c0,0 -8.5273,2.96502 -14.00787,2.19973c-5.48057,-0.76529 -13.30998,-6.01432 -13.30998,-6.01432z" fill="url(#color-17)" stroke="#000000" stroke-width="1.25" stroke-linecap="round"/><path d="M288.57251,189.27845c0.26306,1.94823 -1.07581,3.73716 -2.99045,3.99567c-1.91464,0.25852 -3.68,-1.11126 -3.94306,-3.05948c-0.26306,-1.94823 1.07581,-3.73715 2.99045,-3.99567c1.91464,-0.25852 3.68,1.11126 3.94306,3.05948z" fill="url(#color-18)" stroke="#000000" stroke-width="0" stroke-linecap="butt"/><path d="M290.70917,191.34325c0.26306,1.94823 -1.07581,3.73715 -2.99046,3.99566c-1.91464,0.25852 -3.68001,-1.11125 -3.94306,-3.05948c-0.26306,-1.94823 1.07581,-3.73715 2.99045,-3.99567c1.91464,-0.25852 3.68001,1.11126 3.94306,3.05949z" fill="url(#color-19)" stroke="#000000" stroke-width="0" stroke-linecap="butt"/><path d="M295.30488,193.27377c0.31382,2.3242 -1.28342,4.45836 -3.56756,4.76677c-2.28412,0.30841 -4.39018,-1.32571 -4.70401,-3.64991c-0.31382,-2.3242 1.28343,-4.45835 3.56756,-4.76677c2.28413,-0.30841 4.39018,1.32571 4.704,3.64991z" fill="url(#color-20)" stroke="#000000" stroke-width="0" stroke-linecap="butt"/><path d="M299.98625,194.00413c0.31382,2.3242 -1.28343,4.45835 -3.56756,4.76677c-2.28414,0.30842 -4.39019,-1.32572 -4.70401,-3.64991c-0.31382,-2.3242 1.28342,-4.45835 3.56756,-4.76677c2.28414,-0.30841 4.39018,1.32571 4.704,3.64991z" fill="url(#color-21)" stroke="#000000" stroke-width="0" stroke-linecap="butt"/><path d="M304.29603,195.65165c0.31382,2.3242 -1.28343,4.45835 -3.56756,4.76677c-2.28414,0.30842 -4.39018,-1.32571 -4.704,-3.64991c-0.31382,-2.3242 1.28342,-4.45835 3.56756,-4.76676c2.28414,-0.30842 4.39018,1.32571 4.704,3.64991z" fill="url(#color-22)" stroke="#000000" stroke-width="0" stroke-linecap="butt"/><path d="M309.07286,195.25438c0.31382,2.3242 -1.28343,4.45835 -3.56756,4.76676c-2.28413,0.30841 -4.39018,-1.32571 -4.704,-3.64991c-0.31382,-2.3242 1.28343,-4.45836 3.56755,-4.76677c2.28414,-0.30842 4.39018,1.32571 4.70401,3.64991z" fill="url(#color-23)" stroke="#000000" stroke-width="0" stroke-linecap="butt"/><path d="M321.6547,191.20224c0.31382,2.3242 -1.28342,4.45835 -3.56756,4.76677c-2.28414,0.30841 -4.39018,-1.32571 -4.704,-3.64991c-0.31382,-2.3242 1.28342,-4.45836 3.56756,-4.76676c2.28414,-0.30842 4.39018,1.32571 4.704,3.64991z" fill="url(#color-24)" stroke="#000000" stroke-width="0" stroke-linecap="butt"/><path d="M306.77812,195.68809c0.31382,2.3242 -1.28343,4.45835 -3.56756,4.76677c-2.28414,0.30841 -4.39018,-1.32571 -4.70401,-3.64991c-0.31382,-2.3242 1.28343,-4.45836 3.56756,-4.76676c2.28414,-0.30841 4.39018,1.32571 4.704,3.64991z" fill="url(#color-25)" stroke="#000000" stroke-width="0" stroke-linecap="butt"/><path d="M302.52736,195.39502c0.31382,2.3242 -1.28343,4.45835 -3.56756,4.76677c-2.28413,0.30841 -4.39018,-1.32571 -4.70401,-3.64991c-0.31382,-2.3242 1.28343,-4.45835 3.56756,-4.76676c2.28414,-0.30841 4.39018,1.32571 4.704,3.64991z" fill="url(#color-26)" stroke="#000000" stroke-width="0" stroke-linecap="butt"/><path d="M298.68106,194.42807c0.31382,2.3242 -1.28342,4.45835 -3.56755,4.76677c-2.28413,0.30842 -4.39019,-1.32571 -4.70402,-3.64991c-0.31382,-2.3242 1.28343,-4.45836 3.56757,-4.76677c2.28414,-0.30842 4.39018,1.32571 4.704,3.64991z" fill="url(#color-27)" stroke="#000000" stroke-width="0" stroke-linecap="butt"/><path d="M295.45937,193.50063c0.31382,2.3242 -1.28342,4.45835 -3.56756,4.76677c-2.28413,0.30842 -4.39018,-1.32571 -4.70401,-3.64991c-0.31382,-2.3242 1.28342,-4.45836 3.56756,-4.76677c2.28414,-0.30841 4.39018,1.32571 4.704,3.64991z" fill="url(#color-28)" stroke="#000000" stroke-width="0" stroke-linecap="butt"/><path d="M291.9749,190.62695c0.31382,2.3242 -1.28343,4.45835 -3.56756,4.76677c-2.28413,0.30841 -4.39018,-1.32571 -4.70401,-3.64992c-0.31382,-2.3242 1.28343,-4.45835 3.56756,-4.76677c2.28414,-0.30841 4.39018,1.32571 4.70401,3.64991z" fill="url(#color-29)" stroke="#000000" stroke-width="0" stroke-linecap="butt"/><path d="M288.6054,188.60474c0.31382,2.3242 -1.28342,4.45835 -3.56755,4.76677c-2.28413,0.30841 -4.39019,-1.32571 -4.70401,-3.64992c-0.31382,-2.3242 1.28343,-4.45835 3.56756,-4.76677c2.28414,-0.30841 4.39018,1.32571 4.704,3.64991z" fill="url(#color-30)" stroke="#000000" stroke-width="0" stroke-linecap="butt"/><path d="M322.57189,191.57382c0.31382,2.3242 -1.28342,4.45835 -3.56756,4.76677c-2.28414,0.30841 -4.39018,-1.32571 -4.70401,-3.64991c-0.31382,-2.3242 1.28343,-4.45835 3.56756,-4.76677c2.28414,-0.30842 4.39018,1.32571 4.704,3.64991z" fill="url(#color-31)" stroke="#000000" stroke-width="0" stroke-linecap="butt"/><path d="M306.15657,197.50602c0.31382,2.3242 -1.28343,4.45836 -3.56756,4.76677c-2.28413,0.30842 -4.39018,-1.32571 -4.70401,-3.64991c-0.31382,-2.3242 1.28343,-4.45835 3.56756,-4.76677c2.28414,-0.30841 4.39019,1.32571 4.70401,3.64991z" fill="url(#color-32)" stroke="#000000" stroke-width="0" stroke-linecap="butt"/><path d="M302.7573,197.098c0.31382,2.3242 -1.28342,4.45835 -3.56755,4.76677c-2.28414,0.30842 -4.39018,-1.32571 -4.70401,-3.64991c-0.31382,-2.3242 1.28342,-4.45835 3.56756,-4.76676c2.28414,-0.30841 4.39018,1.32571 4.704,3.64991z" fill="url(#color-33)" stroke="#000000" stroke-width="0" stroke-linecap="butt"/><path d="M299.79532,196.25934c0.31382,2.3242 -1.28342,4.45836 -3.56756,4.76677c-2.28413,0.30842 -4.39018,-1.32571 -4.70401,-3.64991c-0.31382,-2.3242 1.28342,-4.45835 3.56756,-4.76676c2.28414,-0.30841 4.39019,1.32571 4.70401,3.64991z" fill="url(#color-34)" stroke="#000000" stroke-width="0" stroke-linecap="butt"/><path d="M294.81473,196.06484c0.31382,2.3242 -1.28343,4.45835 -3.56756,4.76677c-2.28413,0.30841 -4.39018,-1.32571 -4.704,-3.64991c-0.31382,-2.3242 1.28342,-4.45835 3.56756,-4.76677c2.28414,-0.30842 4.39018,1.32571 4.70401,3.64991z" fill="url(#color-35)" stroke="#000000" stroke-width="0" stroke-linecap="butt"/><path d="M289.70695,192.6372c0.31382,2.3242 -1.28343,4.45835 -3.56756,4.76677c-2.28413,0.30842 -4.39018,-1.32571 -4.70401,-3.64991c-0.31382,-2.3242 1.28343,-4.45836 3.56756,-4.76677c2.28414,-0.30841 4.39018,1.32571 4.70401,3.64991z" fill="url(#color-36)" stroke="#000000" stroke-width="0" stroke-linecap="butt"/><path d="M325.2018,192.70503c0.31382,2.3242 -1.28343,4.45835 -3.56756,4.76677c-2.28414,0.30841 -4.39018,-1.32571 -4.704,-3.64991c-0.31382,-2.3242 1.28343,-4.45836 3.56755,-4.76676c2.28414,-0.30842 4.39018,1.32571 4.70401,3.64991z" fill="url(#color-37)" stroke="#000000" stroke-width="0" stroke-linecap="butt"/><path d="M310.62915,195.0919c0.31382,2.3242 -1.28343,4.45835 -3.56756,4.76677c-2.28413,0.30842 -4.39018,-1.32571 -4.704,-3.64991c-0.31382,-2.3242 1.28342,-4.45836 3.56755,-4.76676c2.28414,-0.30841 4.39019,1.32571 4.70401,3.64991z" fill="url(#color-38)" stroke="#000000" stroke-width="0" stroke-linecap="butt"/><path d="M310.59108,196.86664c0.31382,2.3242 -1.28343,4.45835 -3.56757,4.76677c-2.28413,0.30842 -4.39018,-1.32571 -4.70401,-3.64991c-0.31382,-2.3242 1.28342,-4.45835 3.56756,-4.76677c2.28413,-0.30842 4.39018,1.32571 4.70401,3.64992z" fill="url(#color-39)" stroke="#000000" stroke-width="0" stroke-linecap="butt"/><path d="M314.58074,193.44529c0.31382,2.3242 -1.28343,4.45835 -3.56756,4.76677c-2.28413,0.30841 -4.39018,-1.32572 -4.70401,-3.64991c-0.31382,-2.3242 1.28343,-4.45835 3.56756,-4.76677c2.28414,-0.30841 4.39018,1.32571 4.704,3.64991z" fill="url(#color-40)" stroke="#000000" stroke-width="0" stroke-linecap="butt"/><path d="M315.19262,195.22503c0.31382,2.3242 -1.28342,4.45835 -3.56756,4.76677c-2.28414,0.30841 -4.39018,-1.32571 -4.70401,-3.64991c-0.31382,-2.3242 1.28343,-4.45835 3.56756,-4.76677c2.28413,-0.30841 4.39018,1.32571 4.70401,3.64992z" fill="url(#color-41)" stroke="#000000" stroke-width="0" stroke-linecap="butt"/><path d="M317.12611,190.11496c1.2255,1.99964 0.6259,4.597 -1.33926,5.80137c-1.96516,1.20438 -4.5517,0.55969 -5.7772,-1.43995c-1.2255,-1.99964 -0.6259,-4.597 1.33926,-5.80137c1.96516,-1.20438 4.5517,-0.55969 5.77721,1.43994z" fill="url(#color-42)" stroke="#000000" stroke-width="0" stroke-linecap="butt"/><path d="M319.762,193.35938c1.2255,1.99964 0.6259,4.597 -1.33926,5.80137c-1.96516,1.20438 -4.5517,0.55969 -5.77721,-1.43995c-1.2255,-1.99964 -0.6259,-4.597 1.33926,-5.80138c1.96516,-1.20438 4.5517,-0.55969 5.77721,1.43995z" fill="url(#color-43)" stroke="#000000" stroke-width="0" stroke-linecap="butt"/><path d="M290.68092,156.07699c-0.02418,5.78887 -4.73658,10.46207 -10.52545,10.43789c-4.28291,-0.01789 -7.95514,-2.60203 -9.56612,-6.28973c0.47704,-0.26497 0.87654,-0.6529 1.15553,-1.12113c0.8677,-0.49104 1.08395,-1.87768 1.58504,-2.66214c1.10637,-1.73205 2.26351,-3.75569 3.58857,-5.18925c1.49745,-1.62005 6.1959,-3.25274 8.46022,-3.91289c0.12764,-0.03722 0.2898,-0.08284 0.4734,-0.13492c2.91722,1.8718 4.84437,5.14939 4.82881,8.87217z" fill="#00ffff" stroke="none" stroke-width="0" stroke-linecap="butt"/><path d="M310.72536,203.90385c0.35838,-5.77781 5.33274,-10.17113 11.11055,-9.81276c4.27473,0.26514 7.79163,3.05701 9.187,6.83156c-0.49154,0.23699 -0.91277,0.60119 -1.21834,1.05254c-0.8946,0.44012 -1.19056,1.81197 -1.7361,2.56619c-1.20453,1.66528 -2.47657,3.61873 -3.88219,4.97339c-1.58848,1.53089 -6.37337,2.88958 -8.67202,3.41789c-0.12957,0.02978 -0.2941,0.06597 -0.48041,0.10736c-2.80429,-2.03712 -4.53897,-5.42051 -4.3085,-9.13618z" fill="#00ffff" stroke="none" stroke-width="0" stroke-linecap="butt"/><path d="M262.9769,180.76278c0,-20.43147 16.56298,-36.99445 36.99445,-36.99445c20.43147,0 36.99445,16.56298 36.99445,36.99445c0,20.43147 -16.56298,36.99444 -36.99445,36.99444c-20.43147,0 -36.99445,-16.56297 -36.99445,-36.99444z" fill="none" stroke="#00ffff" stroke-width="3.75" stroke-linecap="butt"/><path d="M277.97655,158.64693c0.20042,0.1352 0.5416,0.31498 1.02353,0.53934c0.48309,0.22427 0.93657,0.32044 1.36042,0.28849c0.42385,-0.03195 0.62337,-0.21257 0.59855,-0.54184c-0.01127,-0.14945 -0.08134,-0.27687 -0.21024,-0.38224c-0.12772,-0.10545 -0.35661,-0.22089 -0.68664,-0.34632c-0.33003,-0.12543 -0.5782,-0.22415 -0.7445,-0.29616c-0.16522,-0.07327 -0.38767,-0.19683 -0.66734,-0.37067c-0.27859,-0.17511 -0.49523,-0.36192 -0.64994,-0.56045c-0.44104,-0.53863 -0.69456,-1.24581 -0.76057,-2.12154c-0.0661,-0.8769 0.20391,-1.64116 0.81004,-2.29277c0.60721,-0.65288 1.43917,-1.01914 2.49588,-1.0988c0.71694,-0.05405 1.38485,-0.0263 2.00373,0.08322c0.61996,0.10827 0.94923,0.28601 0.98784,0.53323c0.00229,0.03036 0.00453,0.06013 0.00674,0.08933c0.02632,0.34912 -0.05017,0.79877 -0.22947,1.34893c-0.17822,0.5489 -0.31003,0.85652 -0.39546,0.92285c-0.66236,-0.28121 -1.24516,-0.40285 -1.74841,-0.36492c-0.50326,0.03794 -0.74132,0.23672 -0.71422,0.59635c0.01646,0.21834 0.21556,0.39827 0.59729,0.53976c0.08247,0.03489 0.20109,0.08172 0.35583,0.14051c0.15465,0.05763 0.33245,0.12642 0.53341,0.20638c0.20212,0.07988 0.42074,0.18377 0.65584,0.31165c0.2351,0.12789 0.49123,0.30117 0.76841,0.51982c0.56536,0.4588 0.87884,1.09687 0.94045,1.91422c0.08036,1.06605 -0.14819,1.95988 -0.68562,2.68148c-0.53627,0.72151 -1.41609,1.13835 -2.63946,1.25053c-0.59783,0.04507 -1.14219,0.03619 -1.63308,-0.02662c-0.49088,-0.06281 -0.92701,-0.22486 -1.30839,-0.48616c-0.38029,-0.26256 -0.58585,-0.59817 -0.61665,-1.00684c-0.0308,-0.40868 0.01334,-0.82007 0.13243,-1.23417c0.11901,-0.41527 0.25886,-0.69414 0.41957,-0.83659z" fill="#000000" stroke="#001c7b" stroke-width="2.5" stroke-linecap="square"/><path d="M277.97655,158.64693c0.20042,0.1352 0.5416,0.31498 1.02353,0.53934c0.48309,0.22427 0.93657,0.32044 1.36042,0.28849c0.42385,-0.03195 0.62337,-0.21257 0.59855,-0.54184c-0.01127,-0.14945 -0.08134,-0.27687 -0.21024,-0.38224c-0.12772,-0.10545 -0.35661,-0.22089 -0.68664,-0.34632c-0.33003,-0.12543 -0.5782,-0.22415 -0.7445,-0.29616c-0.16522,-0.07327 -0.38767,-0.19683 -0.66734,-0.37067c-0.27859,-0.17511 -0.49523,-0.36192 -0.64994,-0.56045c-0.44104,-0.53863 -0.69456,-1.24581 -0.76057,-2.12154c-0.0661,-0.8769 0.20391,-1.64116 0.81004,-2.29277c0.60721,-0.65288 1.43917,-1.01914 2.49588,-1.0988c0.71694,-0.05405 1.38485,-0.0263 2.00373,0.08322c0.61996,0.10827 0.94923,0.28601 0.98784,0.53323c0.00229,0.03036 0.00453,0.06013 0.00674,0.08933c0.02632,0.34912 -0.05017,0.79877 -0.22947,1.34893c-0.17822,0.5489 -0.31003,0.85652 -0.39546,0.92285c-0.66236,-0.28121 -1.24516,-0.40285 -1.74841,-0.36492c-0.50326,0.03794 -0.74132,0.23672 -0.71422,0.59635c0.01646,0.21834 0.21556,0.39827 0.59729,0.53976c0.08247,0.03489 0.20109,0.08172 0.35583,0.14051c0.15465,0.05763 0.33245,0.12642 0.53341,0.20638c0.20212,0.07988 0.42074,0.18377 0.65584,0.31165c0.2351,0.12789 0.49123,0.30117 0.76841,0.51982c0.56536,0.4588 0.87884,1.09687 0.94045,1.91422c0.08036,1.06605 -0.14819,1.95988 -0.68562,2.68148c-0.53627,0.72151 -1.41609,1.13835 -2.63946,1.25053c-0.59783,0.04507 -1.14219,0.03619 -1.63308,-0.02662c-0.49088,-0.06281 -0.92701,-0.22486 -1.30839,-0.48616c-0.38029,-0.26256 -0.58585,-0.59817 -0.61665,-1.00684c-0.0308,-0.40868 0.01334,-0.82007 0.13243,-1.23417c0.11901,-0.41527 0.25886,-0.69414 0.41957,-0.83659z" fill="#ffffff" stroke="none" stroke-width="1" stroke-linecap="square"/><path d="M316.63528,208.27025l0.97534,-9.94731c0.03411,-0.34783 0.20948,-0.50622 0.52612,-0.47518l2.70227,0.26496c1.51485,0.14853 2.57689,0.56811 3.18609,1.25875c0.60932,0.68943 0.85576,1.62786 0.73933,2.81528c-0.09632,0.98231 -0.50188,1.85197 -1.21669,2.60896c-0.35795,0.37783 -0.85603,0.65958 -1.49424,0.84525c-0.63809,0.18446 -1.36674,0.23653 -2.18593,0.15621l-0.26955,2.74905c-0.012,0.12234 -0.2122,0.18808 -0.60059,0.19722c-0.38828,0.00795 -0.72036,-0.00161 -0.99621,-0.02865c0,0 -1.38605,-0.23945 -1.36595,-0.44454zM320.36116,200.76325l-0.23779,2.42521l0.1997,0.01958c0.35862,0.03516 0.67193,-0.04794 0.93992,-0.24932c0.26799,-0.20138 0.42203,-0.50657 0.46213,-0.91557c0.0401,-0.409 -0.01588,-0.70874 -0.16794,-0.89924c-0.15207,-0.1905 -0.44279,-0.3068 -0.87218,-0.3489z" fill="#000000" stroke="#001c7b" stroke-width="2.5" stroke-linecap="square"/><path d="M318.00123,208.71479c-0.93075,-0.09126 -1.38606,-0.23944 -1.36595,-0.44454l0.97534,-9.94731c0.03411,-0.34783 0.20948,-0.50622 0.52612,-0.47517l2.70227,0.26496c1.51485,0.14853 2.57689,0.56811 3.18609,1.25875c0.60932,0.68944 0.85576,1.62786 0.73933,2.81528c-0.09631,0.98232 -0.50188,1.85197 -1.21669,2.60896c-0.35795,0.37783 -0.85603,0.65958 -1.49423,0.84524c-0.63809,0.18446 -1.36674,0.23654 -2.18593,0.15622l-0.26955,2.74905c-0.012,0.12234 -0.2122,0.18808 -0.60059,0.19722c-0.38828,0.00795 -0.72036,-0.00161 -0.99622,-0.02866zM320.36116,200.76325l-0.23779,2.42521l0.1997,0.01958c0.35862,0.03516 0.67193,-0.04794 0.93992,-0.24932c0.26799,-0.20138 0.42203,-0.50657 0.46213,-0.91557c0.0401,-0.409 -0.01588,-0.70874 -0.16794,-0.89924c-0.15207,-0.1905 -0.44279,-0.3068 -0.87218,-0.3489z" fill="#ffffff" stroke="none" stroke-width="1" stroke-linecap="square"/><path d="M293.50153,208.71935c0,-1.19183 0.96617,-2.15801 2.15801,-2.15801c1.19184,0 2.15801,0.96617 2.15801,2.15801c0,1.19183 -0.96617,2.15801 -2.15801,2.15801c-1.19184,0 -2.15801,-0.96618 -2.15801,-2.15801z" fill="url(#color-44)" stroke="none" stroke-width="0" stroke-linecap="butt"/><path d="M150.35135,137.67134c0,-6.39897 5.91545,-12.49566 13.1192,-12.49566c28.93252,0 219.72832,0 272.60996,0c8.61359,0 13.56814,4.64378 13.56814,12.24625c0,30.59212 0,109.0924 0,125.70487c0,6.03964 -4.85913,11.69754 -13.31873,11.69754c-52.46667,0 -243.42599,0 -272.60996,0c-7.3279,0 -13.36861,-4.5235 -13.36861,-11.94695c0,-30.16113 0,-108.19342 0,-125.20604z" fill="none" stroke="url(#color-45)" stroke-width="10" stroke-linecap="butt"/></g></g></svg>
