<svg xmlns="http://www.w3.org/2000/svg" width="309.297" height="159.649" viewBox="0 0 309.297 159.649"><defs><linearGradient x1="300" y1="125.176" x2="300" y2="274.824" gradientUnits="userSpaceOnUse" id="a"><stop offset="0" stop-color="#2bb39a"/><stop offset="1" stop-color="#c7fff5"/></linearGradient></defs><g stroke-miterlimit="10" style="mix-blend-mode:normal"><path d="M6.271 154.014V5.634h296.756v148.38z" fill="#196657"/><path d="M204.013 154.614h-18.356v-22.436h17.44v-22.436h-17.44V86.746h17.712V64.03h-17.72m.008-57.784v12.496h17.44v22.436h-17.44v22.435m-62.644.417h-17.72v22.716h17.712v22.996h-17.44v22.436h17.44v22.435h-18.356M123.005 6.246v12.496h-17.44v22.436h17.44v22.435" data-paper-data="{&quot;index&quot;:null}" fill="none" stroke="#30c9ad" stroke-width="7.5" stroke-linecap="round"/><path d="m233.641 5.414-9.98 12.4 19.977 24.801-19.978 24.8 19.978 24.817-19.978 24.8 19.978 24.801-9.997 12.4m-157.984.001-9.997-12.4 19.978-24.801-19.978-24.8 19.978-24.817-19.978-24.8 19.978-24.801-9.981-12.4" fill="none" stroke="#28a58c" stroke-width="12.5"/><path d="m270.784 152.492.126-.11.125-.11.125-.109.124-.11.124-.11.123-.109.122-.11.121-.11.12-.11.12-.109.12-.11.118-.11.117-.109.116-.11.116-.11.114-.109.114-.11.112-.11.112-.11.11-.109.11-.11.108-.11.107-.109.106-.11.105-.11.104-.109.103-.11.101-.11.1-.11.1-.109.097-.11.097-.11.095-.109.094-.11.092-.11.092-.109.09-.11.088-.11.087-.11.085-.109.085-.11.082-.11.081-.109.08-.11.078-.11.077-.109.075-.11.074-.11.072-.11.07-.109.07-.11.066-.11.066-.109.064-.11.062-.11.061-.109.06-.11.056-.11.056-.11.054-.109.052-.11.05-.11.05-.109.046-.11.046-.11.043-.11.042-.109.04-.11.038-.11.036-.109.035-.11.033-.11.03-.109.03-.11.027-.11.025-.11.024-.109.021-.11.02-.11.018-.109.017-.11.014-.11.012-.109.01-.11.01-.11.006-.11.005-.109.004-.11v-.219l-.002-.11-.005-.11-.006-.109-.008-.11-.01-.11-.012-.11-.014-.109-.015-.11-.018-.11-.02-.109-.02-.11-.023-.11-.025-.109-.027-.11-.028-.11-.03-.11-.033-.109-.034-.11-.036-.11-.037-.109-.04-.11-.04-.11-.044-.109-.044-.11-.047-.11-.048-.11-.05-.109-.052-.11-.053-.11-.055-.109-.057-.11-.058-.11-.06-.109-.062-.11-.064-.11-.065-.11-.067-.109-.068-.11-.07-.11-.072-.109-.073-.11-.074-.11-.077-.109-.077-.11-.08-.11-.08-.11-.083-.109-.083-.11-.085-.11-.087-.109-.088-.11-.09-.11-.09-.109-.092-.11-.094-.11-.094-.11-.096-.109-.098-.11-.098-.11-.1-.109-.101-.11-.103-.11-.103-.109-.105-.11-.106-.11-.107-.11-.108-.109-.109-.11-.11-.11-.111-.109-.112-.11-.114-.11-.114-.109-.115-.11-.116-.11-.117-.11-.118-.109-.118-.11-.12-.11-.12-.109-.121-.11-.122-.11-.123-.109-.123-.11-.124-.11-.125-.11-.125-.109-.126-.11-.127-.11-.127-.109-.127-.11-.128-.11-.129-.109-.13-.11-.129-.11-.13-.11-.13-.109-.13-.11-.131-.11-.132-.109-.131-.11-.132-.11-.132-.109-.133-.11-.132-.11-.133-.11-.132-.109-.133-.11-.133-.11-.133-.109-.133-.11-.133-.11-.133-.109-.133-.11-.132-.11-.133-.11-.132-.109-.133-.11-.132-.11-.132-.109-.132-.11-.13-.11-.132-.109-.13-.11-.131-.11-.13-.11-.13-.109-.13-.11-.128-.11-.128-.109-.128-.11-.127-.11-.127-.109-.126-.11-.126-.11-.125-.11-.124-.109-.124-.11-.122-.11-.123-.109-.12-.11-.122-.11-.12-.109-.118-.11-.119-.11-.117-.11-.116-.109-.116-.11-.114-.11-.114-.109-.112-.11-.112-.11-.11-.109-.11-.11-.108-.11-.108-.11-.106-.109-.105-.11-.104-.11-.103-.109-.101-.11-.1-.11-.1-.109-.097-.11-.097-.11-.095-.11-.094-.109-.093-.11-.091-.11-.09-.109-.088-.11-.087-.11-.086-.109-.084-.11-.083-.11-.081-.11-.08-.109-.078-.11-.077-.11-.075-.109-.074-.11-.072-.11-.07-.109-.07-.11-.067-.11-.066-.11-.064-.109-.062-.11-.061-.11-.06-.109-.057-.11-.055-.11-.054-.109-.053-.11-.05-.11-.05-.11-.046-.109-.045-.11-.044-.11-.042-.109-.04-.11-.038-.11-.037-.109-.034-.11-.033-.11-.031-.11-.03-.109-.027-.11-.025-.11-.024-.109-.022-.11-.02-.11-.018-.109-.016-.11-.014-.11-.013-.11-.01-.109-.01-.11-.006-.11-.005-.109-.004-.11v-.219l.002-.11.004-.11.007-.11.008-.109.01-.11.011-.11.014-.109.015-.11.018-.11.019-.109.021-.11.023-.11.025-.11.026-.109.029-.11.03-.11.032-.109.034-.11.036-.11.037-.109.04-.11.04-.11.043-.11.045-.109.046-.11.048-.11.05-.109.052-.11.053-.11.055-.109.057-.11.058-.11.06-.11.062-.109.063-.11.065-.11.067-.109.068-.11.07-.11.072-.109.073-.11.074-.11.076-.11.078-.109.08-.11.08-.11.082-.109.084-.11.085-.11.086-.109.088-.11.09-.11.09-.11.092-.109.094-.11.094-.11.096-.109.098-.11.098-.11.1-.109.101-.11.102-.11.104-.11.104-.109.106-.11.107-.11.108-.109.109-.11.11-.11.111-.109.112-.11.113-.11.115-.11.115-.109.116-.11.117-.11.117-.109.119-.11.12-.11.12-.109.12-.11.123-.11.122-.11.124-.109.124-.11.124-.11.125-.109.126-.11.127-.11.127-.109.127-.11.129-.11.128-.11.13-.109.129-.11.13-.11.13-.109.13-.11.132-.11.13-.109.132-.11.132-.11.132-.11.133-.109.132-.11.133-.11.132-.109.133-.11.133-.11.133-.109.133-.11.133-.11.133-.11.133-.109.132-.11.133-.11.132-.109.133-.11.132-.11.132-.109.132-.11.131-.11.131-.11.13-.109.131-.11.13-.11.13-.109.13-.11.128-.11.129-.109.127-.11.128-.11.126-.11.127-.109.125-.11.125-.11.124-.109.124-.11.123-.11.122-.109.122-.11.12-.11.12-.11.12-.109.117-.11.118-.11.116-.109.116-.11.114-.11.114-.109.112-.11.112-.11.11-.11.11-.109.109-.11.107-.11.106-.109.105-.11.104-.11.103-.109.102-.11.1-.11.1-.11.097-.109.097-.11.095-.11.094-.109.093-.11.091-.11.09-.109.089-.11.087-.11.086-.11.084-.109.083-.11.081-.11.08-.109.078-.11.077-.11.076-.109.073-.11.072-.11.071-.11.07-.109.067-.11.065-.11.065-.109.062-.11.06-.11.06-.109.058-.11.055-.11.055-.11.052-.109.05-.11.05-.11.047-.109.045-.11.044-.11.042-.11.04-.109.038-.11.037-.11.034-.109.033-.11.031-.11.03-.109.027-.11.026-.11.023-.11.022-.109.02-.11.019-.11.016-.109.015-.11.012-.11.011-.109.009-.11.007-.11.005-.11.003-.109.002-.11v-.11l-.003-.109-.004-.11-.006-.11-.008-.109-.01-.11-.012-.11-.013-.11-.016-.109-.017-.11-.019-.11-.02-.109-.024-.11-.024-.11-.027-.109-.028-.11-.03-.11-.032-.11-.034-.109-.036-.11-.037-.11-.04-.109-.04-.11-.043-.11-.044-.109-.047-.11-.048-.11-.05-.11-.05-.109-.054-.11-.055-.11-.057-.109-.058-.11-.06-.11-.062-.109-.063-.11-.065-.11-.066-.11-.069-.109-.07-.11-.07-.11-.074-.109-.074-.11-.076-.11-.078-.109-.079-.11-.08-.11-.083-.11-.083-.109-.085-.11-.087-.11-.087-.109-.09-.11-.09-.11-.092-.109-.094-.11-.094-.11-.096-.11-.097-.109-.099-.11-.1-.11-.1-.109-.103-.11-.103-.11-.105-.109-.105-.11-.107-.11-.108-.11-.11-.109-.11-.11-.11-.11-.112-.109-.113-.11-.115-.11-.115-.109-.116-.11-.116-.11-.118-.11-.119-.109-.12-.11-.12-.11-.12-.109-.122-.11-.123-.11-.123-.109-.124-.11-.125-.11-.125-.11-.126-.109-.126-.11-.127-.11-.128-.109-.128-.11-.128-.11-.13-.109-.129-.11-.13-.11-.13-.11-.13-.109-.132-.11-.13-.11-.132-.109-.132-.11-.132-.11-.133-.109-.132-.11-.133-.11-.132-.11-.133-.109-.133-.11-.133-.11-.133-.109-.133-.11-.133-.11-.133-.109-.132-.11-.133-.11-.132-.11-.133-.109-.132-.11-.132-.11-.132-.109-.131-.11-.131-.11-.131-.109-.13-.11-.13-.11-.13-.11-.13-.109-.128-.11-.129-.11-.128-.109-.127-.11-.127-.11-.126-.109-.126-.11-.125-.11-.124-.11-.124-.109-.122-.11-.123-.11-.121-.109-.12-.11-.12-.11-.12-.109-.118-.11-.118-.11-.116-.11-.116-.109-.114-.11-.114-.11-.113-.109-.111-.11-.11-.11-.11-.11-.109-.109-.107-.11-.107-.11-.105-.109-.104-.11-.103-.11-.102-.109-.1-.11-.1-.11-.097-.11-.097-.109-.095-.11-.094-.11-.093-.109-.092-.11-.09-.11-.088-.109-.087-.11-.086-.11-.085-.11-.082-.109-.082-.11-.08-.11-.078-.109-.077-.11-.076-.11-.074-.109-.072-.11-.07-.11-.07-.11-.067-.109-.066-.11-.064-.11-.063-.109-.06-.11-.06-.11-.058-.109-.056-.11-.054-.11-.052-.11-.051-.109-.05-.11-.046-.11-.046-.109-.044-.11-.042-.11-.04-.109-.038-.11-.037-.11-.035-.11-.033-.109-.03-.11-.03-.11-.028-.109-.026-.11-.023-.11-.022-.109-.02-.11-.019-.11-.016-.11-.015-.109-.013-.11-.01-.11-.01-.109-.007-.11-.005-.11-.003-.109-.002-.11v-.11l.003-.11.004-.109.006-.11.008-.11.01-.109.01-.11.014-.11.016-.109.017-.11.019-.11.02-.11.023-.109.025-.11.026-.11.028-.109.03-.11.032-.11.034-.109.035-.11.038-.11.039-.11.04-.109.043-.11.045-.11.046-.109.048-.11.05-.11.05-.109.054-.11.055-.11.056-.11.059-.109.06-.11.061-.11.063-.109.065-.11.067-.11.068-.109.07-.11.07-.11.074-.11.074-.109.076-.11.078-.11.079-.109.08-.11.082-.11.084-.109.084-.11.087-.11.088-.11.089-.109.09-.11.092-.11.093-.109.095-.11.096-.11.097-.109.098-.11.1-.11.101-.11.102-.109.103-.11.105-.11.106-.109.106-.11.108-.11.11-.109.11-.11.11-.11.112-.11.113-.109.114-.11.115-.11.116-.109.117-.11.118-.11.118-.109.12-.11.12-.11.12-.11.123-.109.122-.11.123-.11.124-.109.125-.11.125-.11.126-.109.126-.11.127-.11.128-.11.128-.109.128-.11.13-.11.129-.109.13-.11.13-.11.13-.109.131-.11.132-.11.131-.11.132-.109.132-.11.132-.11.133-.109.132-.11.133-.11.133-.109.133-.11.133-.11.133-.11.132-.109.133-.11.133-.11.133-.109.133-.11.132-.11.133-.11.132-.109.132-.11.131-.11.132-.109.131-.11.13-.11.131-.109.13-.11.13-.11.13-.11.128-.109.129-.11.128-.11.127-.109.127-.11.126-.11.126-.109.125-.11.124-.11.124-.11.123-.109.122-.11.121-.11.121-.109.12-.11.12-.11.118-.109.117-.11.117-.11.115-.11.115-.109.114-.11.112-.11.112-.109.11-.11.11-.11.109-.109.108-.11.106-.11.105-.11.104-.109.103-.11.102-.11.1-.109.1-.11.098-.11.097-.109.095-.11.094-.11.093-.11.091-.109.09-.11.09-.11.087-.109.085-.11.085-.11.083-.109.081-.11.08-.11.079-.11.077-.109.075-.11.074-.11.073-.109.07-.11.07-.11.067-.109.066-.11.065-.11.062-.11.061-.109.06-.11.057-.11.056-.109.055-.11.052-.11.051-.109.05-.11.047-.11.045-.11.044-.109.042-.11.04-.11.039-.109.037-.11.035-.11.033-.109.031-.11.03-.11.027-.11.026-.109.024-.11.022-.11.02-.109.019-.11.016-.11.015-.109.013-.11.01-.11.01-.11.007-.109.006-.11.003-.11.002-.109v-.11l-.003-.11-.004-.109-.006-.11-.007-.11-.01-.11-.011-.109-.014-.11-.015-.11-.017-.109-.019-.11-.02-.11-.023-.109-.025-.11-.026-.11-.028-.11-.03-.109-.032-.11-.033-.11-.036-.109-.037-.11-.039-.11-.04-.109-.043-.11-.045-.11-.046-.11-.048-.109-.05-.11-.05-.11-.054-.109-.054-.11-.057-.11-.058-.109-.06-.11-.061-.11-.063-.11-.065-.109-.066-.11-.068-.11-.07-.109-.071-.11-.073-.11-.074-.109-.076-.11-.078-.11-.079-.11-.08-.109-.082-.11-.083-.11-.085-.109-.087-.11-.087-.11-.09-.11-.09-.109-.092-.11-.093-.11-.094-.109-.096-.11-.097-.11-.098-.109-.1-.11-.1-.11-.103-.11-.103-.109-.105-.11-.105-.11-.107-.109-.108-.11-.109-.11-.11-.109-.11-.11-.113-.11-.113-.11-.113-.109-.115-.11-.116-.11-.117-.109-.118-.11-.118-.11-.12-.109-.12-.11-.12-.11-.122-.11-.123-.109-.123-.11-.124-.11-.124-.109-.126-.11-.125-.11-.127-.109-.127-.11-.127-.11-.128-.11-.129-.109-.129-.11-.13-.11-.129-.109-.13-.11-.13-.11-.132-.109-.131-.11-.132-.11-.131-.11-.132-.109-.133-.11-.132-.11-.133-.109-.132-.11-.133-.11-.133-.109-.133-.11-.133-.11-.133-.11-.133-.109-.132-.11-.133-.11-.133-.109-.132-.11-.133-.11-.132-.109-.132-.11-.132-.11-.131-.11-.131-.109-.131-.11-.13-.11-.13-.109-.13-.11-.13-.11-.129-.109-.128-.11-.128-.11-.128-.11-.126-.109-.127-.11-.125-.11-.125-.109-.125-.11-.123-.11-.123-.109-.123-.11-.121-.11-.121-.11-.12-.109-.12-.11-.118-.11-.117-.109-.117-.11-.115-.11-.115-.109-.114-.11-.113-.11-.111-.11-.111-.109-.11-.11-.109-.11-.107-.109-.107-.11-.105-.11-.104-.109-.103-.11-.102-.11-.1-.11-.1-.109-.098-.11-.097-.11-.095-.109-.094-.11-.093-.11-.092-.109-.09-.11-.089-.11-.087-.11-.086-.109-.085-.11-.083-.11-.081-.109-.08-.11-.08-.11-.076-.109-.076-.11-.074-.11-.072-.11-.071-.109-.07-.11-.067-.11-.066-.109-.065-.11-.062-.11-.061-.109-.06-.11-.058-.11-.056-.11-.054-.109-.053-.11-.05-.11-.05-.109-.047-.11-.046-.11-.044-.109-.042-.11-.04-.11-.04-.11-.036-.109-.035-.11-.033-.11-.032-.109-.03-.11-.027-.11-.026-.109-.024-.11-.022-.11-.02-.11-.02-.109-.016-.11-.015-.11-.013-.109-.01-.11-.01-.11-.007-.109-.006-.11-.003-.11-.002-.11v-.109l.002-.11.004-.11.006-.109.008-.11.01-.11.01-.109.014-.11.015-.11.017-.11.019-.109.02-.11.023-.11.024-.109.026-.11.028-.11.03-.11.032-.109.033-.11.036-.11.037-.109.039-.11.04-.11.043-.109.044-.11.046-.11.048-.11.05-.109.05-.11.053-.11.055-.109.056-.11.058-.11.06-.109.062-.11.063-.11.064-.11.067-.109.068-.11.07-.11.07-.109.073-.11.074-.11.076-.109.077-.11.08-.11.08-.11.081-.109.084-.11.084-.11.087-.109.087-.11.09-.11.09-.109.091-.11.093-.11.095-.11.096-.109.097-.11.098-.11.1-.109.1-.11.102-.11.103-.109.105-.11.105-.11.107-.11.108-.109.108-.11.11-.11.111-.109.112-.11.113-.11.114-.109.115-.11.116-.11.117-.11.117-.109.119-.11.119-.11.12-.109.12-.11.123-.11.122-.109.123-.11.124-.11.124-.11.126-.109.125-.11.127-.11.127-.109.127-.11.128-.11.129-.109.129-.11.129-.11.13-.11.13-.109.13-.11.131-.11.132-.109.131-.11.132-.11.132-.109.132-.11.133-.11.132-.11.133-.109.133-.11.133-.11.132-.109.133-.11.133-.11.133-.109.133-.11.133-.11.133-.11.132-.109.133-.11.132-.11.132-.109.131-.11m-229.082 0 .131.11.132.11.133.109.132.11.132.11.133.11.133.109.133.11.133.11.133.109.133.11.132.11.133.109.133.11.133.11.132.11.133.109.132.11.132.11.132.109.131.11.132.11.13.109.131.11.13.11.13.11.13.109.128.11.129.11.128.109.127.11.127.11.127.109.125.11.126.11.124.11.124.109.123.11.122.11.122.109.121.11.12.11.12.109.118.11.118.11.116.11.116.109.115.11.114.11.113.109.112.11.11.11.11.109.11.11.107.11.107.11.105.109.105.11.103.11.102.109.1.11.1.11.098.109.097.11.096.11.095.11.093.109.091.11.09.11.09.109.087.11.087.11.084.109.084.11.082.11.08.11.079.109.077.11.076.11.074.109.073.11.071.11.07.109.067.11.067.11.064.11.064.109.06.11.06.11.059.109.056.11.055.11.053.109.05.11.05.11.048.11.046.109.044.11.043.11.04.109.04.11.036.11.036.109.033.11.032.11.03.11.028.109.026.11.024.11.023.109.02.11.02.11.016.109.015.11.014.11.011.11.01.109.007.11.006.11.004.109.002.11v.11l-.002.109-.003.11-.006.11-.007.11-.01.109-.01.11-.013.11-.015.109-.017.11-.018.11-.02.109-.023.11-.024.11-.026.11-.028.109-.03.11-.03.11-.034.109-.035.11-.037.11-.038.109-.04.11-.043.11-.044.11-.045.109-.048.11-.05.11-.05.109-.053.11-.054.11-.056.109-.058.11-.06.11-.06.11-.063.109-.065.11-.066.11-.068.109-.069.11-.07.11-.073.109-.074.11-.076.11-.077.11-.078.109-.08.11-.082.11-.083.109-.085.11-.086.11-.087.109-.089.11-.09.11-.092.11-.092.109-.095.11-.095.11-.097.109-.098.11-.1.11-.1.109-.102.11-.103.11-.104.11-.105.109-.107.11-.107.11-.109.109-.11.11-.11.11-.112.109-.113.11-.114.11-.115.11-.115.109-.117.11-.117.11-.119.109-.119.11-.12.11-.12.109-.122.11-.122.11-.123.11-.124.109-.125.11-.125.11-.125.109-.127.11-.126.11-.128.109-.128.11-.128.11-.129.11-.13.109-.13.11-.13.11-.13.109-.13.11-.132.11-.131.109-.132.11-.132.11-.132.11-.132.109-.133.11-.133.11-.132.109-.133.11-.133.11-.133.109-.133.11-.133.11-.133.11-.133.109-.132.11-.133.11-.132.109-.133.11-.132.11-.131.109-.132.11-.131.11-.131.11-.13.109-.13.11-.13.11-.13.109-.13.11-.128.11-.128.109-.127.11-.127.11-.127.11-.125.109-.126.11-.124.11-.124.109-.123.11-.123.11-.121.109-.121.11-.12.11-.12.11-.118.109-.118.11-.117.11-.116.109-.114.11-.114.11-.113.109-.112.11-.111.11-.11.11-.11.109-.107.11-.107.11-.105.109-.105.11-.103.11-.102.109-.1.11-.1.11-.099.11-.097.109-.096.11-.094.11-.093.109-.092.11-.09.11-.09.109-.087.11-.087.11-.085.11-.083.109-.082.11-.08.11-.08.109-.077.11-.076.11-.074.109-.073.11-.07.11-.07.11-.069.109-.066.11-.065.11-.063.109-.061.11-.06.11-.058.109-.057.11-.054.11-.054.11-.05.109-.05.11-.048.11-.046.109-.045.11-.042.11-.041.109-.039.11-.037.11-.036.11-.033.109-.032.11-.03.11-.028.109-.026.11-.025.11-.022.109-.021.11-.019.11-.017.11-.015.109-.014.11-.011.11-.01.109-.007.11-.006.11-.004.109-.002.11v.11l.001.11.004.109.005.11.007.11.01.109.01.11.013.11.015.109.016.11.019.11.02.11.022.109.024.11.026.11.028.109.029.11.031.11.033.109.035.11.037.11.039.11.04.109.042.11.044.11.045.109.048.11.049.11.05.109.053.11.055.11.056.11.057.109.06.11.06.11.063.109.065.11.066.11.067.109.07.11.07.11.073.11.074.109.075.11.077.11.079.109.08.11.081.11.083.109.085.11.085.11.088.11.088.109.09.11.092.11.093.109.094.11.095.11.097.109.098.11.1.11.1.11.102.109.103.11.104.11.105.109.106.11.108.11.109.109.11.11.11.11.112.11.112.109.114.11.115.11.115.109.117.11.117.11.119.109.119.11.12.11.12.11.122.109.122.11.123.11.124.109.124.11.125.11.126.109.126.11.127.11.127.11.128.109.129.11.128.11.13.109.13.11.13.11.13.109.131.11.131.11.132.11.131.109.132.11.132.11.133.109.132.11.133.11.133.109.133.11.133.11.132.11.133.109.133.11.133.11.133.109.133.11.132.11.133.109.132.11.132.11.132.11.131.109.132.11.13.11.131.109.13.11.13.11.13.109.129.11.128.11.128.11.128.109.127.11.126.11.126.109.125.11.125.11.124.109.123.11.122.11.122.11.121.109.12.11.12.11.118.109.118.11.117.11.116.109.115.11.114.11.113.11.112.109.11.11.11.11.11.109.108.11.106.11.106.109.105.11.103.11.102.11.1.109.1.11.099.11.097.109.096.11.095.11.093.109.092.11.09.11.09.11.087.109.087.11.084.11.084.109.082.11.08.11.08.109.077.11.076.11.074.11.073.109.071.11.07.11.068.109.067.11.065.11.063.109.061.11.06.11.059.11.056.109.055.11.053.11.051.109.05.11.048.11.046.109.045.11.042.11.041.11.04.109.037.11.035.11.034.109.032.11.03.11.028.109.026.11.025.11.022.11.021.109.02.11.016.11.016.109.013.11.012.11.01.109.007.11.006.11.004.11.003.109v.11l-.002.11-.003.109-.005.11-.007.11-.01.109-.01.11-.013.11-.015.11-.016.109-.018.11-.02.11-.023.109-.023.11-.026.11-.028.109-.03.11-.03.11-.033.11-.035.109-.037.11-.038.11-.04.109-.042.11-.044.11-.046.109-.047.11-.049.11-.05.11-.053.109-.054.11-.056.11-.058.109-.06.11-.06.11-.063.109-.064.11-.066.11-.067.11-.07.109-.07.11-.072.11-.074.109-.076.11-.077.11-.078.109-.08.11-.082.11-.082.11-.085.109-.086.11-.087.11-.088.109-.09.11-.092.11-.093.109-.094.11-.095.11-.097.11-.098.109-.099.11-.1.11-.102.109-.103.11-.104.11-.105.109-.106.11-.108.11-.108.11-.11.109-.11.11-.112.11-.113.109-.114.11-.114.11-.116.109-.116.11-.118.11-.118.11-.12.109-.12.11-.12.11-.121.109-.122.11-.123.11-.124.109-.124.11-.125.11-.126.11-.126.109-.127.11-.127.11-.128.109-.129.11-.128.11-.13.109-.13.11-.13.11-.13.11-.13.109-.132.11-.131.11-.132.109-.132.11-.132.11-.133.109-.132.11-.133.11-.132.11-.133.109-.133.11-.133.11-.133.109-.133.11-.133.11-.133.109-.132.11-.133.11-.132.11-.133.109-.132.11-.131.11-.132.109-.131.11-.131.11-.13.109-.131.11-.13.11-.13.11-.129.109-.128.11-.128.11-.128.109-.127.11-.126.11-.126.109-.125.11-.125.11-.124.11-.123.109-.123.11-.121.11-.121.109-.12.11-.12.11-.119.109-.117.11-.117.11-.116.11-.115.109-.114.11-.114.11-.112.109-.11.11-.11.11-.11.109-.108.11-.107.11-.105.11-.105.109-.103.11-.102.11-.101.109-.1.11-.098.11-.098.109-.096.11-.094.11-.094.11-.092.109-.09.11-.09.11-.087.109-.087.11-.085.11-.083.109-.082.11-.08.11-.08.11-.078.109-.076.11-.074.11-.073.109-.071.11-.07.11-.068.109-.067.11-.065.11-.063.11-.062.109-.06.11-.058.11-.057.109-.055.11-.053.11-.051.109-.05.11-.048.11-.047.11-.044.109-.043.11-.04.11-.04.109-.037.11-.036.11-.034.109-.032.11-.03.11-.028.11-.027.109-.024.11-.023.11-.021.109-.02.11-.016.11-.016.109-.013.11-.012.11-.01.11-.008.109-.006.11-.004.11-.002.109v.22l.004.109.005.11.007.11.01.11.01.109.013.11.014.11.016.109.019.11.02.11.022.109.023.11.026.11.027.11.03.109.03.11.034.11.034.109.037.11.038.11.04.109.042.11.044.11.045.11.048.109.048.11.051.11.053.109.054.11.055.11.058.109.06.11.06.11.063.11.064.109.066.11.067.11.069.109.07.11.073.11.074.109.075.11.077.11.078.11.08.109.081.11.083.11.085.109.085.11.087.11.089.109.09.11.091.11.093.11.094.109.095.11.097.11.098.109.099.11.1.11.102.109.103.11.104.11.105.11.106.109.107.11.109.11.11.109.11.11.112.11.112.109.114.11.115.11.115.11.117.109.117.11.118.11.12.109.119.11.12.11.122.109.122.11.123.11.124.11.124.109.125.11.126.11.126.109.126.11.128.11.128.109.128.11.129.11.129.11.13.109.13.11.13.11.131.109.131.11.132.11.131.109.132.11.132.11.133.11.132.109.133.11.133.11.132.109.133.11.133.11.133.109.133.11.133.11.133.11.133.109.132.11.133.11.132.109.132.11.132.11.131.109.132.11.13.11.131.11.13.109.13.11.13.11.129.109.129.11.128.11.127.109.127.11.127.11.126.11.125.109.125.11.124.11.123.109.122.11.122.11.121.109.12.11.12.11.119.11.118.109.116.11.116.11.116.109.114.11.113.11.112.109.111.11.11.11.11.11.107.109.107.11.106.11.104.109.104.11.102.11.101.109.1.11.099.11.097.11.096.109.095.11.093.11.092.109.09.11.09.11.088.109.086.11.085.11.084.11.082.109.08.11.08.11.078.109.076.11.074.11.073.109.072.11.07.11.068.11.067.109.065.11.063.11.062.109.06.11.058.11.057.109.055.11.053.11.052.11.05.109.048.11.046.11.045.109.043.11.04.11.04.109.038.11.035.11.034.11.032.109.03.11.029.11.026.109.025.11.023.11.021.109.02.11.017.11.015.11.014.109.012.11.01.11.008.109.006.11.004.11.002.109.001.11-.001.11-.004.11-.005.109-.007.11-.008.11-.011.109-.013.11-.014.11-.016.109-.018.11-.02.11-.022.11-.024.109-.025.11-.028.11-.029.109-.03.11-.034.11-.034.109-.037.11-.038.11-.04.11-.042.109-.043.11-.046.11-.047.109-.049.11-.05.11-.053.109-.054.11-.055.11-.058.11-.059.109-.06.11-.063.11-.064.109-.066.11-.067.11-.07.109-.07.11-.072.11-.073.11-.076.109-.076.11-.079.11-.08.109-.08.11-.084.11-.084.109-.085.11-.088.11-.088.11-.09.109-.091.11-.093.11-.094.109-.095.11-.096.11-.098.109-.1.11-.1.11-.101.11-.103.109-.104.11-.105.11-.106.109-.108.11-.108.11-.11.109-.11.11-.112.11-.112.11-.114.109-.114.11-.116.11-.116.109-.117.11-.119.11-.119.109-.12.11-.12.11-.121.11-.122.109-.123.11-.124.11-.124.109-.125.11-.126.11-.126.109-.127.11-.127.11-.128.11-.128.109-.129.11-.129.11-.13.109-.13.11-.13.11-.13.109-.132.11-.131.11-.132.11-.132.109-.132.11-.132.11-.133.109-.133.11-.132.11-.133.109-.133.11-.133.11-.133.11-.133.109-.133.11-.133.11-.132.109-.133.11-.132.11-.133.109-.132.11-.132.11-.131.11-.131.109-.131.11-.131.11-.13.109-.13.11-.13.11-.129.109-.129.11-.128.11-.127.11-.127.109-.127.11-.126.11-.125.109-.125.11-.124.11-.123.109-.123.11-.122.11-.12.11-.121.109-.12.11-.118.11-.118.109-.117.11-.116.11-.115.109-.114.11-.114.11-.112.11-.111.109-.11.11-.11.11-.107.109-.107.11-.106.11-.105.109-.103.11-.102.11-.102.11-.1.109-.098.11-.097.11-.097.109-.094.11-.094.11-.092.109-.09.11-.09.11-.088.11-.087.109-.085.11-.083.11-.083.109-.08.11-.08.11-.077.109-.077.11-.074.11-.073.11-.072.109-.07.11-.068.11-.067.109-.065.11-.064.11-.061.109-.06.11-.06.11-.056.11-.055.109-.053.11-.052.11-.05.109-.048.11-.047.11-.044.109-.043.11-.042.11-.039.11-.037.109-.036.11-.034.11-.032.109-.03.11-.03.11-.026.109-.025.11-.023.11-.02.11-.02.109-.018.11-.015.11-.014.109-.012.11-.01.11-.008.109-.006.11-.005.11-.002.11v.219l.004.11.005.109.006.11.01.11.01.109.012.11.014.11.017.11.018.109.02.11.021.11.024.109.025.11.027.11.03.109.03.11.033.11.035.11.036.109.038.11.04.11.042.109.043.11.046.11.047.109.048.11.05.11.053.11.054.109.056.11.057.11.059.109.06.11.063.11.064.109.066.11.067.11.069.11.07.109.072.11.074.11.075.109.077.11.078.11.08.109.08.11.083.11.085.11.085.109.087.11.089.11.09.109.09.11.093.11.094.109.095.11.097.11.097.11.1.109.1.11.101.11.103.109.104.11.105.11.106.109.107.11.108.11.11.11.11.109.112.11.112.11.114.109.114.11.116.11.116.109.117.11.118.11.12.11.12.109.12.11.121.11.122.109.123.11.124.11.124.109.125.11.125.11.126.11" fill="none" stroke="#228c77" stroke-width="12.5" stroke-linecap="round" stroke-linejoin="round"/><path d="M150.351 137.671c0-6.399 5.916-12.495 13.12-12.495h272.61c8.613 0 13.568 4.643 13.568 12.246v125.705c0 6.04-4.86 11.697-13.32 11.697H163.72c-7.328 0-13.369-4.523-13.369-11.947z" fill="none" stroke="url(#a)" stroke-width="10" transform="translate(-145.351 -120.176)"/><path d="M25.434 127.003q.862.684 2.977 1.866 2.124 1.182 4.053 1.182 1.937 0 1.937-1.502 0-.684-.551-1.208-.542-.525-2-1.2-1.457-.685-2.186-1.066-.729-.392-1.937-1.28-1.2-.89-1.84-1.849-1.812-2.586-1.813-6.593 0-4.008 2.978-6.754 2.976-2.755 7.802-2.755 3.28 0 6.052.71 2.772.703 2.862 1.84v.267q0 1.6-1.005 4.034-.995 2.427-1.404 2.702-2.915-1.502-5.216-1.502-2.293 0-2.293 1.635 0 1.004 1.688 1.778.365.186 1.04.506.684.31 1.573.747.89.435 1.91 1.093 1.023.657 2.214 1.75 2.408 2.276 2.408 6.008 0 4.869-2.684 7.962t-8.282 3.182q-2.73 0-4.941-.453-2.204-.454-3.848-1.769-1.636-1.324-1.636-3.19 0-1.867.685-3.706.684-1.848 1.457-2.435zm24.73 8.416q-2.844-3.138-2.844-8.691t2.844-8.692q2.843-3.137 7.669-3.137t7.642 3.137 2.817 8.692-2.817 8.69-7.642 3.138q-4.826 0-7.67-3.137zm7.687-12.922c-1.713 0-7.969 1.196-7.969 3.986s6.256 4.386 7.969 4.386q2.577 0 2.577-4.186 0-4.185-2.577-4.186zm13.45-6.87q0-.506 3.91-.506t3.91.507v13.286q0 2.275 1.458 2.275 1.094 0 2.462-.96v-14.601q0-.453 3.865-.453 3.867 0 3.866.453v14.92h1.182q1.546 0 1.546 2.96 0 1.501-.63 3.048-.915 2-2.462 2-3.048 0-4.506-2.497l-.044.044q-2.773 2.453-5.963 2.453-4.408 0-6.505-2.204-2.09-2.204-2.089-7.305zm34.483 22.2q0 .32-3.27.32-4.55-.133-4.55-.498v-14.743h-1.182q-1.182 0-1.546-2a7 7 0 0 1-.098-1.181q0-1.413.55-2.826.819-2 2.543-2 1.733 0 3.092.818 1.369.817 1.83 1.635 2.862-2.453 6.817-2.453 3.963 0 5.732 2.142 1.777 2.133 1.777 7.003v13.65q0 .542-3.892.542-3.885 0-3.884-.542v-13.153q0-2.274-1.59-2.275-.462 0-1.28.391-.818.382-1.049.57zm30.67-31.983q1.226 0 2.843.16 1.618.159 1.618.426v23.986h1.59q1.139 0 1.502 2.043.09.596.09 1.618t-.632 2.48q-.915 1.999-2.915 1.999-1.501 0-2.666-.587-1.155-.595-1.564-1.235l-.409-.587q-2.505 2.409-6.283 2.409-3.776 0-6.46-3.137t-2.684-8.754q0-5.625 2.817-8.69 2.826-3.075 7.056-3.076 1.227 0 2.506.276v-8.647s1.197-.684 3.59-.684zm-5.093 16.334c-1.7 0-8.35 1.531-8.35 4.594 0 1.546 6.043 2.663 6.529 3.35q.728 1.022 1.617 1.022.888 0 1.706-.773v-7.74q-.773-.453-1.502-.453zm23.163-15.472q-.143-.498 4.594-.498 5.226 0 5.368.862l1.964 16.872c.13 1.115.58 1.029.872-.15l4.21-16.944q.232-.684 3.555-.684t3.546.63l4.103 16.913c.304 1.25.822 1.236.993-.02l2.28-16.706q.09-.498 2.089-.675 2-.187 3.234-.187 4.773 0 4.64.631l-5.51 30.17q-.178.685-2.595 1.005-2.41.31-3.91.31-5.644 0-5.91-1.27l-3.102-12.512-3.359 12.468q-.187.818-3.19 1.182a36 36 0 0 1-3.093.133l-2.915-.133q-3.004-.32-3.181-1.138zm46.406 14.876q-1.27-2.275-1.271-3.706 0-1.43.773-1.84 2.586-1.137 7.11-1.137 4.532 0 6.398 2.115t1.866 6.257v7.189h1.547q.773 0 1.208.915.436.907.436 2.497 0 1.591-.8 3.138-.8 1.545-2.16 1.546-2.46 0-3.963-1.315a3.76 3.76 0 0 1-1.04-1.325q-2.098 2.64-6.514 2.64-3.315 0-5.59-2.364t-2.275-5.599q0-7.41 8.87-7.411h2.505v-.462q0-1.182-.39-1.52-.383-.338-1.796-.338-1.733 0-4.914.72zm3.643 8.38q0 .996.542 1.52.543.525 1.387.524.844 0 1.528-.684v-3.501h-1.28q-2.176 0-2.177 2.141zm15.241-14.476q-.141-.365 4.248-.365 4.4 0 4.4.231l2.486 11.765c.335 1.583 1.133 1.544 1.39-.05l1.855-11.483q.134-.41 4.506-.41 4.407.001 4.274.356l-6.416 22.253q-.32.453-5.42.453-5.093 0-5.457-.675zm42.68 21.39q-2.871 1.68-7.377 1.68-4.505 0-7.598-3.066-3.092-3.075-3.092-8.514t2.977-8.753q2.985-3.324 7.536-3.324 4.55 0 7.029 2.32t2.48 5.643q0 7.367-8.46 7.367h-3.147q0 1.368.747 1.893.755.524 2.213.524 3.19 0 6.051-1.457.044-.045.41.63 1.092 1.965 1.092 3.307t-.862 1.75zm-5.688-13.152q0-1.91-1.866-1.91-.862 0-1.485.523-.613.525-.613 1.52v1.413h2.462q1.502 0 1.502-1.546zm11.555 6.185q3.69 2.23 5.821 2.23 1.37 0 1.369-.95 0-.684-2.364-1.778-5.688-2.32-5.688-7.598 0-3.367 2.453-5.136 2.462-1.778 5.892-1.778 3.44 0 5.82.729 2.392.73 2.391 1.91 0 .996-.977 2.64-.979 1.636-1.342 1.768a8.6 8.6 0 0 0-4.23-1.084q-1.227 0-1.227.862 0 .543.472.933.48.382 1.75.951 1.28.57 2.115 1.031.845.453 1.893 1.271 2.187 1.724 2.186 4.506 0 3.635-2.417 5.891-2.408 2.25-7.278 2.249-3.226 0-5.865-1.093t-2.64-3.004q0-1.27.613-2.675.615-1.413 1.253-1.875z" fill="none" stroke-opacity=".502" stroke="#000" stroke-width="10" stroke-linejoin="round"/><path d="M25.434 127.003q.862.684 2.977 1.866 2.124 1.182 4.053 1.182 1.937 0 1.937-1.502 0-.684-.551-1.208-.542-.525-2-1.2-1.457-.685-2.186-1.066-.729-.392-1.937-1.28-1.2-.89-1.84-1.849-1.812-2.586-1.813-6.593 0-4.008 2.978-6.754 2.976-2.755 7.802-2.755 3.28 0 6.052.71 2.772.703 2.862 1.84v.267q0 1.6-1.005 4.034-.995 2.427-1.404 2.702-2.915-1.502-5.216-1.502-2.293 0-2.293 1.635 0 1.004 1.688 1.778.365.186 1.04.506.684.31 1.573.747.89.435 1.91 1.093 1.023.657 2.214 1.75 2.408 2.276 2.408 6.008 0 4.869-2.684 7.962t-8.282 3.182q-2.73 0-4.941-.453-2.204-.454-3.848-1.769-1.636-1.324-1.636-3.19 0-1.867.685-3.706.684-1.848 1.457-2.435m24.73 8.416q-2.844-3.138-2.844-8.691t2.844-8.692q2.843-3.137 7.669-3.137t7.642 3.137 2.817 8.692-2.817 8.69-7.642 3.138q-4.826 0-7.67-3.137m7.687-12.922q-2.57 0-2.569 4.186 0 4.185 2.569 4.186 2.577 0 2.577-4.186 0-4.185-2.577-4.186m13.45-6.87q0-.506 3.91-.506t3.91.507v13.286q0 2.275 1.458 2.275 1.094 0 2.462-.96v-14.601q0-.453 3.865-.453 3.867 0 3.866.453v14.92h1.182q1.546 0 1.546 2.96 0 1.501-.63 3.048-.915 2-2.462 2-3.048 0-4.506-2.497l-.044.044q-2.773 2.453-5.963 2.453-4.408 0-6.505-2.204-2.09-2.204-2.089-7.305zm34.483 22.2q0 .32-3.27.32-4.55-.133-4.55-.498v-14.743h-1.182q-1.182 0-1.546-2a7 7 0 0 1-.098-1.181q0-1.413.55-2.826.819-2 2.543-2 1.733 0 3.092.818 1.369.817 1.83 1.635 2.862-2.453 6.817-2.453 3.963 0 5.732 2.142 1.777 2.133 1.777 7.003v13.65q0 .542-3.892.542-3.885 0-3.884-.542v-13.153q0-2.274-1.59-2.275-.462 0-1.28.391-.818.382-1.049.57zm27.08-31.3q0-.683 3.59-.683 1.226 0 2.843.16 1.618.159 1.618.426v23.986h1.59q1.139 0 1.502 2.043.09.596.09 1.618t-.632 2.48q-.915 1.999-2.915 1.999-1.501 0-2.666-.587-1.155-.595-1.564-1.235l-.409-.587q-2.506 2.409-6.282 2.409t-6.461-3.137q-2.685-3.138-2.684-8.754 0-5.625 2.817-8.69 2.826-3.075 7.056-3.076 1.227 0 2.506.276zm-1.503 15.65q-2.55 0-2.55 4.595 0 2.32.729 3.35.728 1.022 1.617 1.022.888 0 1.706-.773v-7.74q-.773-.453-1.502-.453m23.163-15.471q-.143-.498 4.594-.498 5.226 0 5.368.862l2.23 19.16 4.817-19.382q.231-.684 3.554-.684t3.546.63l4.737 19.525 2.64-19.338q.089-.498 2.088-.675 2-.187 3.234-.187 4.773 0 4.64.631l-5.51 30.17q-.178.685-2.595 1.005-2.41.31-3.91.31-5.644 0-5.91-1.27l-3.102-12.512-3.359 12.468q-.187.818-3.19 1.182a36 36 0 0 1-3.093.133l-2.915-.133q-3.003-.32-3.181-1.138zm46.406 14.876q-1.27-2.275-1.271-3.706 0-1.43.773-1.84 2.586-1.137 7.11-1.137 4.532 0 6.398 2.115t1.866 6.257v7.189h1.547q.773 0 1.208.915.436.907.436 2.497 0 1.591-.8 3.138-.8 1.545-2.16 1.546-2.46 0-3.963-1.315a3.76 3.76 0 0 1-1.04-1.325q-2.098 2.64-6.514 2.64-3.315 0-5.59-2.364t-2.275-5.599q0-7.41 8.87-7.411h2.505v-.462q0-1.182-.39-1.52-.383-.338-1.796-.338-1.733 0-4.914.72m3.643 8.38q0 .996.542 1.52.543.525 1.387.524.844 0 1.528-.684v-3.501h-1.28q-2.176 0-2.177 2.141m15.241-14.476q-.141-.365 4.248-.365 4.4 0 4.4.231l3.27 15.472 2.461-15.24q.134-.41 4.506-.41 4.407.001 4.274.356l-6.416 22.253q-.32.453-5.42.453-5.093 0-5.457-.675zm42.68 21.39q-2.871 1.68-7.377 1.68-4.505 0-7.598-3.066-3.092-3.075-3.092-8.514t2.977-8.753q2.985-3.324 7.536-3.324 4.55 0 7.029 2.32t2.48 5.643q0 7.367-8.46 7.367h-3.147q0 1.368.747 1.893.755.524 2.213.524 3.19 0 6.051-1.457.044-.045.41.63 1.092 1.965 1.092 3.307t-.862 1.75m-5.688-13.152q0-1.91-1.866-1.91-.862 0-1.485.523-.613.525-.613 1.52v1.413h2.462q1.502 0 1.502-1.546m11.555 6.185q3.69 2.23 5.821 2.23 1.37 0 1.369-.95 0-.684-2.364-1.778-5.688-2.32-5.688-7.598 0-3.367 2.453-5.136 2.462-1.778 5.892-1.778 3.44 0 5.82.729 2.392.73 2.391 1.91 0 .996-.977 2.64-.979 1.636-1.342 1.768a8.6 8.6 0 0 0-4.23-1.084q-1.227 0-1.227.862 0 .543.472.933.48.382 1.75.951 1.28.57 2.115 1.031.845.453 1.893 1.271 2.187 1.724 2.186 4.506 0 3.635-2.417 5.891-2.408 2.25-7.278 2.249-3.226 0-5.865-1.093t-2.64-3.004q0-1.27.613-2.675.615-1.413 1.253-1.875" fill="#fff"/><path d="M113.886 59.2c0-22.151 17.957-40.108 40.108-40.108s40.107 17.957 40.107 40.108-17.956 40.107-40.107 40.107c-22.15 0-40.108-17.956-40.108-40.107" fill-opacity=".51"/><path d="M118.433 59.2c0-19.64 15.921-35.561 35.56-35.561s35.562 15.921 35.562 35.56-15.921 35.562-35.561 35.562S118.433 78.84 118.433 59.2" fill="#fff"/><path d="M123.143 59.2c0-17.039 13.812-30.851 30.85-30.851 17.04 0 30.852 13.812 30.852 30.85 0 17.04-13.812 30.852-30.851 30.852S123.143 76.238 123.143 59.2" fill="#2bb39a"/><path d="m130.299 63.144 5.026-8.105 8.754 15.563 9.727-23.182 9.888 22.857 7.62-15.076 5.997 7.944" fill="none" stroke="#fff" stroke-width="5" stroke-linecap="round"/></g></svg>
