<svg version="1.1" xmlns="http://www.w3.org/2000/svg" xmlns:xlink="http://www.w3.org/1999/xlink" width="309.2973" height="159.64866" viewBox="0,0,309.2973,159.64866"><defs><linearGradient x1="240.00005" y1="105.24165" x2="240.00005" y2="254.75846" gradientUnits="userSpaceOnUse" id="color-1"><stop offset="0" stop-color="#ff7600"/><stop offset="1" stop-color="#ff2200"/></linearGradient><linearGradient x1="239.5" y1="105.17567" x2="239.5" y2="254.82433" gradientUnits="userSpaceOnUse" id="color-2"><stop offset="0" stop-color="#813a00"/><stop offset="1" stop-color="#bf1d00"/></linearGradient></defs><g transform="translate(-84.85135,-100.17567)"><g fill-rule="nonzero" stroke-linejoin="miter" stroke-miterlimit="10" stroke-dasharray="" stroke-dashoffset="0" style="mix-blend-mode: normal"><path d="M90.45987,241.41437c0,-30.34859 0,-103.28382 0,-121c0,-7.57086 8.90824,-15.17273 18.91971,-15.17273c32.47402,0 209.26441,0 264,0c10.19929,0 16.16064,6.48542 16.16064,16.67273c0,33.05596 0,105.08847 0,121c0,6.10531 -4.80511,11.84408 -13.16064,11.84408c-49.97571,0 -226.96485,0 -262.5,0c-12.08937,0 -23.41971,-5.10124 -23.41971,-13.34408z" fill="url(#color-1)" stroke="none" stroke-width="0" stroke-linecap="butt"/><path d="M380.89255,193.17607c2.65781,1.42404 7.2527,6.20115 5.00705,8.21635c-2.30602,-0.26943 -99.79001,-0.11854 -100.97902,-0.11854c-0.93576,0 0.44463,-8.59653 4.72695,-9.34092c3.33195,-0.5792 7.27661,2.33988 7.41652,2.13292c0.28938,-0.42335 3.92897,-10.90272 11.11155,-12.72858c7.64508,-1.88588 12.76271,0.0693 19.99149,5.14968c5.82272,-4.55543 10.46017,-12.7794 22.5883,-13.01032c12.08812,-0.18938 21.4578,16.48186 22.08101,18.0214c1.53246,0.11542 5.10926,0.10006 8.05616,1.67802z" fill-opacity="0.25098" fill="#ffffff" stroke="none" stroke-width="0" stroke-linecap="butt"/><path d="M302.89779,241.46759c1.99174,-1.0665 4.4092,-1.05611 5.44496,-1.13413c0.42121,-1.04054 6.75394,-12.30822 14.92401,-12.18022c8.1971,0.15608 11.33145,5.71445 15.26688,8.79336c4.88576,-3.4337 8.34463,-4.75516 13.51175,-3.48054c4.85453,1.23405 7.31444,8.3168 7.51002,8.60293c0.09456,0.13988 2.76066,-1.83306 5.01264,-1.44159c2.89431,0.50312 3.82729,6.3133 3.19483,6.3133c-0.80363,0 -66.69065,-0.10198 -68.24923,0.08012c-1.51778,-1.36203 1.5878,-4.59076 3.38415,-5.55323z" fill-opacity="0.34902" fill="#ffffff" stroke="none" stroke-width="0" stroke-linecap="butt"/><path d="M182.42729,248.02081c-1.80639,-0.21105 -78.16904,-0.09286 -79.10043,-0.09286c-0.73302,0 0.3483,-6.73397 3.70279,-7.31708c2.61003,-0.45371 5.70002,1.83291 5.80962,1.67079c0.22668,-0.33162 3.0777,-8.54048 8.70407,-9.97074c5.98866,-1.47728 9.99748,0.05428 15.66004,4.03392c4.56115,-3.56843 8.19383,-10.01055 17.69422,-10.19144c9.46905,-0.14835 16.80865,12.91082 17.29683,14.1168c1.20043,0.09041 4.00226,0.07838 6.31067,1.31444c2.08196,1.1155 5.6813,4.85758 3.9222,6.43616z" fill-opacity="0.34902" fill="#ffffff" stroke="none" stroke-width="0" stroke-linecap="butt"/><path d="M140.87027,140.91173c1.47267,-0.78856 3.26012,-0.78088 4.02594,-0.83856c0.31144,-0.76936 4.99379,-9.10055 11.03463,-9.0059c6.06084,0.1154 8.37833,4.22519 11.28815,6.5017c3.61247,-2.53884 6.16992,-3.51591 9.99042,-2.57346c3.58938,0.91244 5.40821,6.14934 5.55282,6.3609c0.06991,0.10343 2.0412,-1.35534 3.70629,-1.0659c2.14002,0.372 2.82985,4.66798 2.36222,4.66798c-0.59419,0 -49.31026,-0.0754 -50.46266,0.05924c-1.12223,-1.00706 1.17399,-3.39435 2.50219,-4.106z" fill-opacity="0.34902" fill="#ffffff" stroke="none" stroke-width="0" stroke-linecap="butt"/><path d="M102.94741,130.29562c2.59083,-1.3873 5.73545,-1.37379 7.08274,-1.47527c0.54791,-1.35352 8.78546,-16.01039 19.41298,-15.84389c10.6627,0.20302 14.73981,7.43329 19.85898,11.43829c6.35533,-4.46652 10.8546,-6.18546 17.57594,-4.52745c6.31472,1.60524 9.51454,10.8184 9.76895,11.1906c0.123,0.18195 3.59103,-2.38442 6.52039,-1.8752c3.76489,0.65445 4.97849,8.21226 4.1558,8.21226c-1.04534,0 -86.75043,-0.13266 -88.77781,0.10422c-1.97431,-1.77171 2.06538,-5.9716 4.40205,-7.22358z" fill-opacity="0.25098" fill="#ffffff" stroke="none" stroke-width="0" stroke-linecap="butt"/><path d="M103.89517,223.76441c2.83532,-1.87452 6.27668,-1.85627 7.75111,-1.99338c0.59962,-1.82888 9.61452,-21.63333 21.24492,-21.40835c11.6689,0.27432 16.13076,10.0439 21.733,15.45549c6.95506,-6.03519 11.87891,-8.35783 19.23451,-6.11751c6.91062,2.16901 10.4124,14.61789 10.69082,15.12079c0.13461,0.24586 3.9299,-3.22184 7.13569,-2.53378c4.12016,0.8843 5.4483,11.09647 4.54796,11.09647c-1.14399,0 -94.93677,-0.17924 -97.15548,0.14082c-2.16062,-2.39394 2.26029,-8.06887 4.81746,-9.76055z" fill-opacity="0.25098" fill="#ffffff" stroke="none" stroke-width="0" stroke-linecap="butt"/><path d="M347.45795,243.15834c-2.51686,-0.2571 -108.91388,-0.11312 -110.21161,-0.11312c-1.02132,0 0.48529,-8.20354 5.15913,-8.9139c3.63659,-0.55272 7.94192,2.23291 8.09462,2.03541c0.31583,-0.40399 4.28819,-10.40429 12.12748,-12.14668c8.34407,-1.79967 13.92961,0.06613 21.81932,4.91425c6.3551,-4.34718 11.41656,-12.19518 24.65357,-12.41555c13.19335,-0.18072 23.4197,15.72839 24.09989,17.19754c1.67257,0.11014 5.57639,0.09548 8.79273,1.6013c2.90082,1.35894 7.91582,5.91767 5.46485,7.84074z" fill-opacity="0.25098" fill="#ffffff" stroke="none" stroke-width="0" stroke-linecap="butt"/><path d="M240.99493,218.52083c-2.0129,-0.23517 -87.10523,-0.10348 -88.14311,-0.10348c-0.81681,0 0.38812,-7.50378 4.12609,-8.15355c2.90841,-0.50557 6.35164,2.04245 6.47377,1.8618c0.25259,-0.36953 3.42954,-9.51682 9.69911,-11.11059c6.67327,-1.64616 11.14038,0.06049 17.45027,4.49508c5.08257,-3.97637 9.13054,-11.15494 19.717,-11.35652c10.55154,-0.16531 18.73019,14.38678 19.27418,15.73062c1.33766,0.10075 4.45979,0.08733 7.0321,1.46471c2.31997,1.24302 6.33078,5.41289 4.37059,7.17193z" fill-opacity="0.34902" fill="#ffffff" stroke="none" stroke-width="0" stroke-linecap="butt"/><path d="M381.84589,137.88547c-2.16141,-0.22639 -93.53221,-0.09962 -94.64666,-0.09962c-0.87708,0 0.41675,-7.2235 4.43052,-7.849c3.123,-0.48669 6.8203,1.96616 6.95143,1.79225c0.27122,-0.35572 3.68259,-9.16134 10.41475,-10.69558c7.16566,-1.58467 11.96236,0.05823 18.73783,4.32717c5.45759,-3.82785 9.80422,-10.73829 21.1718,-10.93232c11.33008,-0.15914 20.11219,13.8494 20.69631,15.14304c1.43636,0.09698 4.78886,0.08407 7.55096,1.41c2.49115,1.1966 6.79789,5.21071 4.69306,6.90404z" fill-opacity="0.25098" fill="#ffffff" stroke="none" stroke-width="0" stroke-linecap="butt"/><path d="M303.93447,139.76585c1.8195,-0.97428 4.02793,-0.96479 4.97411,-1.03605c0.38479,-0.95056 6.1699,-11.24387 13.63345,-11.12693c7.48826,0.14258 10.35155,5.22029 13.94667,8.03294c4.46326,-3.13677 7.62302,-4.34395 12.34332,-3.17955c4.43473,1.12733 6.68192,7.5976 6.86059,7.85899c0.08638,0.12779 2.52193,-1.67454 4.57917,-1.31693c2.64402,0.45961 3.49632,5.76736 2.91855,5.76736c-0.73413,0 -60.92356,-0.09316 -62.34736,0.07319c-1.38653,-1.24424 1.45048,-4.19377 3.0915,-5.07302z" fill-opacity="0.34902" fill="#ffffff" stroke="none" stroke-width="0" stroke-linecap="butt"/><path d="M165.33515,182.41722c-1.46236,-0.17085 -63.28178,-0.07517 -64.03579,-0.07517c-0.59341,0 0.28197,-5.45149 2.99759,-5.92355c2.11295,-0.3673 4.61446,1.48383 4.70318,1.35259c0.18351,-0.26846 2.49155,-6.91395 7.04638,-8.07181c4.84812,-1.19593 8.09346,0.04394 12.67759,3.26566c3.69248,-2.88882 6.63331,-8.10404 14.32436,-8.25048c7.66568,-0.12009 13.60746,10.45197 14.00266,11.42826c0.9718,0.07319 3.24003,0.06345 5.10881,1.06411c1.68545,0.90305 4.59929,3.93246 3.17521,5.2104z" fill-opacity="0.45098" fill="#ffffff" stroke="none" stroke-width="0" stroke-linecap="butt"/><path d="M337.23272,207.31706c-1.87233,-0.15985 -81.02264,-0.07033 -81.98804,-0.07033c-0.75978,0 0.36101,-5.1005 3.83796,-5.54216c2.70531,-0.34365 5.90811,1.38829 6.0217,1.2655c0.23495,-0.25118 3.19005,-6.46878 9.02182,-7.5521c6.20729,-1.11893 10.36244,0.04111 16.23172,3.0554c4.72765,-2.70282 8.49293,-7.58226 18.34015,-7.71927c9.81472,-0.11237 17.42226,9.77901 17.92826,10.69244c1.24425,0.06848 4.14837,0.05936 6.54105,0.9956c2.15796,0.84491 5.88869,3.67927 4.06538,4.87492z" fill-opacity="0.34902" fill="#ffffff" stroke="none" stroke-width="0" stroke-linecap="butt"/><path d="M111.25002,230.10848c1.19069,0.66261 2.32657,0.99391 3.40766,0.99391c1.08607,0 1.6291,-0.42097 1.6291,-1.26292c0,-0.38361 -0.15444,-0.72239 -0.46332,-1.01632c-0.3039,-0.29394 -0.86437,-0.63022 -1.68141,-1.00885c-0.81704,-0.38361 -1.42982,-0.68253 -1.83835,-0.89676c-0.40852,-0.2192 -0.95155,-0.5779 -1.6291,-1.0761c-0.67257,-0.4982 -1.1882,-1.01632 -1.5469,-1.55437c-1.01632,-1.44975 -1.52448,-3.29806 -1.52448,-5.54493c0,-2.24687 0.83448,-4.14001 2.50344,-5.67944c1.66895,-1.54441 3.85604,-2.31661 6.56125,-2.31661c1.83835,0 3.53471,0.19928 5.08908,0.59784c1.55437,0.39357 2.35647,0.9092 2.40629,1.5469c0,0.07473 0,0.14946 0,0.22419c0,0.89676 -0.28148,2.02766 -0.84444,3.39272c-0.55798,1.36007 -0.95156,2.11733 -1.18073,2.27178c-1.63408,-0.84196 -3.09629,-1.26293 -4.38661,-1.26293c-1.28535,0 -1.92803,0.45834 -1.92803,1.37503c0,0.56296 0.47329,1.06116 1.41986,1.49459c0.20426,0.10462 0.49571,0.24661 0.87434,0.42596c0.38361,0.17436 0.82451,0.3836 1.32271,0.62772c0.4982,0.24412 1.03376,0.5505 1.60669,0.91917c0.57293,0.36866 1.19318,0.8594 1.86077,1.47217c1.35012,1.27539 2.02517,2.95929 2.02517,5.05172c0,2.73012 -0.75228,4.96204 -2.25683,6.69577c-1.50455,1.73372 -3.82615,2.62549 -6.96479,2.67531c-1.52947,0 -2.91445,-0.12704 -4.15496,-0.38112c-1.23552,-0.25408 -2.31412,-0.74979 -3.23578,-1.48711c-0.91669,-0.74231 -1.37502,-1.63657 -1.37502,-2.68278c0,-1.04621 0.1918,-2.08496 0.57542,-3.11622c0.38361,-1.03625 0.79214,-1.71877 1.22557,-2.04758c0,0 1.3177,0.90669 2.50341,1.56929zM129.54168,235.61605c-1.59423,-1.75863 -2.39134,-4.19482 -2.39134,-7.30855c0,-3.11373 0.79711,-5.54991 2.39134,-7.30855c1.59423,-1.75863 3.74395,-2.63795 6.44916,-2.63795c2.70521,0 4.84745,0.87931 6.42674,2.63796c1.57928,1.75863 2.36893,4.19481 2.36893,7.30854c0,3.11373 -0.78965,5.54991 -2.36893,7.30855c-1.57928,1.75863 -3.72152,2.63796 -6.42673,2.63796c-2.70521,0 -4.85493,-0.87932 -6.44916,-2.63795zM129.70325,227.27014c0,2.34651 4.86275,4.51976 6.30254,4.51976c1.44477,0 2.16716,-1.17325 2.16716,-3.51976c0,-2.34651 -0.72239,-3.51976 -2.16716,-3.51976c0,0 -6.30254,0.17325 -6.30254,2.51976zM147.31652,218.97379c0,-0.28397 1.09603,-0.42595 3.2881,-0.42595c2.19207,0 3.2881,0.14199 3.2881,0.42596v11.17206c0,1.27539 0.40852,1.91307 1.22556,1.91307c0.61278,0 1.30279,-0.26902 2.07001,-0.80707v-12.27806c0,-0.25408 1.08358,-0.38112 3.25074,-0.38112c2.16716,0 3.25073,0.12704 3.25073,0.38112v12.54709h0.99391c0.86686,0 1.30029,0.8295 1.30029,2.4885c0,0.84196 -0.17685,1.69636 -0.53057,2.56322c-0.51315,1.12095 -1.20315,1.68142 -2.07001,1.68142c-1.70881,0 -2.97174,-0.69997 -3.78878,-2.0999l-0.03736,0.03737c-1.55437,1.37502 -3.22583,2.06253 -5.01435,2.06253c-2.47106,0 -4.29445,-0.61777 -5.4702,-1.8533c-1.17076,-1.23552 -1.75614,-3.28312 -1.75614,-6.14276zM176.31366,237.64122c0,0.17935 -0.91669,0.26902 -2.75004,0.26902c-2.55077,-0.07473 -3.82615,-0.21422 -3.82615,-0.41849v-12.39762h-0.9939c-0.66261,0 -1.09604,-0.56046 -1.3003,-1.68141c-0.0548,-0.3338 -0.0822,-0.66509 -0.0822,-0.9939c0,-0.79214 0.15445,-1.58427 0.46332,-2.3764c0.45834,-1.12095 1.17076,-1.68141 2.13726,-1.68141c0.97149,0 1.83835,0.22917 2.60059,0.68751c0.76722,0.45834 1.28036,0.91668 1.53942,1.37502c1.6042,-1.37502 3.51478,-2.06253 5.73175,-2.06253c2.22195,0 3.82864,0.60033 4.82005,1.80098c0.99639,1.19567 1.49459,3.15857 1.49459,5.88868v11.47845c0,0.3039 -1.09105,0.45586 -3.27315,0.45586c-2.17711,0 -3.26567,-0.15195 -3.26567,-0.45585v-11.05997c0,-1.27538 -0.44589,-1.91308 -1.33766,-1.91308c-0.25906,0 -0.61777,0.10961 -1.07611,0.32881c-0.45834,0.21422 -0.75228,0.37365 -0.88181,0.47827v12.27806zM199.0846,211.32149c0,-0.38361 1.00635,-0.57541 3.01907,-0.57541c0.68751,0 1.48463,0.04484 2.39135,0.13451c0.90671,0.08967 1.36007,0.20924 1.36007,0.3587v20.1695h1.33766c0.63769,0 1.05867,0.57293 1.26293,1.71878c0.04982,0.3338 0.07473,0.78714 0.07473,1.36007c0,0.57293 -0.17685,1.26791 -0.53057,2.08496c-0.51315,1.12095 -1.33018,1.68142 -2.45113,1.68142c-0.84196,0 -1.58925,-0.16441 -2.24189,-0.49322c-0.64765,-0.3338 -1.08606,-0.68004 -1.31524,-1.03874l-0.34376,-0.49321c-1.40491,1.35011 -3.16603,2.02517 -5.28337,2.02517c-2.11733,0 -3.92829,-0.87931 -5.43284,-2.63795c-1.50455,-1.75863 -2.25683,-4.21226 -2.25683,-7.36086c0,-3.15358 0.78965,-5.58976 2.36893,-7.30854c1.58426,-1.72376 3.56211,-2.58564 5.93352,-2.58564c0.68751,0 1.38997,0.07722 2.10737,0.23166zM197.82167,224.48136c-1.42982,0 -2.14473,1.28784 -2.14473,3.86352c0,1.3003 0.20425,2.23939 0.61278,2.8173c0.40852,0.57293 0.86188,0.8594 1.36008,0.8594c0.4982,0 0.97647,-0.21672 1.43481,-0.65015v-6.50895c-0.43343,-0.25408 -0.85441,-0.38111 -1.26293,-0.38111zM227.06928,211.53074c1.41487,0.5231 2.12231,1.23054 2.12231,2.12231c0,0.89177 -0.33877,1.99528 -1.01632,3.31052c-0.67256,1.31524 -1.23801,1.97286 -1.69635,1.97286c-0.12953,0 -0.2765,-0.06975 -0.44091,-0.20924c-0.1644,-0.14447 -0.54801,-0.29892 -1.15084,-0.46332c-0.59784,-0.1644 -1.11346,-0.24661 -1.54689,-0.24661c-1.47965,0 -2.67283,0.52311 -3.57954,1.56932c-0.90174,1.04621 -1.35261,2.64792 -1.35261,4.80511c0,2.15221 0.46332,3.75142 1.38997,4.79763c0.93163,1.04621 2.11236,1.56932 3.54218,1.56932c0.58787,0 1.2455,-0.0822 1.97286,-0.2466c0.72736,-0.16939 1.243,-0.40604 1.5469,-0.70993c0.04982,-0.0548 0.7473,0.20676 1.16578,0.78466c0.42347,0.57293 0.81206,1.3252 1.16578,2.25683c0.3587,0.93163 0.53805,1.65152 0.53805,2.15968c0,0.99639 -0.76473,1.78852 -2.29419,2.3764c-1.52946,0.58289 -3.34041,0.87434 -5.43283,0.87434c-3.36781,0 -6.13529,-1.18571 -8.30245,-3.55713c-2.16716,-2.37142 -3.25073,-5.71929 -3.25073,-10.04364c0,-4.32435 1.11596,-7.72205 3.34789,-10.19311c2.23192,-2.47603 5.01683,-3.71406 8.35475,-3.71406c0,0 3.5023,0.26154 4.91718,0.78465zM239.44686,237.56649c0,0.22917 -1.3003,0.34375 -3.90088,0.34375c-2.04261,-0.02491 -3.06391,-0.12703 -3.06391,-0.30638v-26.05818c0,-0.37863 1.23802,-0.56794 3.71406,-0.56794c2.16716,0.07473 3.25073,0.20177 3.25073,0.38112zM244.55567,235.61605c-1.59423,-1.75863 -2.39135,-4.19482 -2.39135,-7.30855c0,-3.11373 0.79711,-5.54991 2.39135,-7.30855c1.59423,-1.75863 3.74395,-2.63795 6.44916,-2.63795c2.70521,0 4.84746,0.87931 6.42674,2.63796c1.57928,1.75863 2.36893,4.19481 2.36893,7.30854c0,3.11373 -0.78964,5.54991 -2.36892,7.30855c-1.57928,1.75863 -3.72153,2.63796 -6.42674,2.63796c-2.70521,0 -4.85492,-0.87932 -6.44915,-2.63795zM244.57437,228.12729c0,2.34651 5.00561,3.66261 6.4454,3.66261c1.44477,0 2.16716,-1.17325 2.16716,-3.51976c0,-2.34651 -0.72239,-3.51976 -2.16716,-3.51976c0,0 -6.4454,1.0304 -6.4454,3.3769zM262.33047,218.97379c0,-0.28397 1.09604,-0.42595 3.2881,-0.42595c2.19207,0 3.28809,0.14199 3.28809,0.42596v11.17206c0,1.27539 0.40852,1.91307 1.22556,1.91307c0.61278,0 1.30279,-0.26902 2.07001,-0.80707v-12.27806c0,-0.25408 1.08358,-0.38112 3.25074,-0.38112c2.16715,0 3.25073,0.12704 3.25073,0.38112v12.54709h0.99391c0.86686,0 1.3003,0.8295 1.3003,2.4885c0,0.84196 -0.17686,1.69636 -0.53058,2.56322c-0.51315,1.12095 -1.20315,1.68142 -2.07,1.68142c-1.70882,0 -2.97174,-0.69997 -3.78879,-2.0999l-0.03736,0.03737c-1.55437,1.37502 -3.22582,2.06253 -5.01434,2.06253c-2.47105,0 -4.29446,-0.61777 -5.4702,-1.8533c-1.17077,-1.23552 -1.75614,-3.28312 -1.75614,-6.14276zM293.01651,211.32149c0,-0.38361 1.00636,-0.57541 3.01907,-0.57541c0.68751,0 1.48462,0.04484 2.39134,0.13451c0.90672,0.08967 1.36008,0.20924 1.36008,0.3587v20.1695h1.33766c0.63769,0 1.05866,0.57293 1.26293,1.71878c0.04982,0.3338 0.07473,0.78714 0.07473,1.36007c0,0.57293 -0.17685,1.26791 -0.53057,2.08496c-0.51315,1.12095 -1.33018,1.68142 -2.45113,1.68142c-0.84195,0 -1.58925,-0.16441 -2.24189,-0.49322c-0.64765,-0.3338 -1.08607,-0.68004 -1.31524,-1.03874l-0.34375,-0.49321c-1.40492,1.35011 -3.16604,2.02517 -5.28338,2.02517c-2.11734,0 -3.92828,-0.87931 -5.43283,-2.63795c-1.50455,-1.75863 -2.25683,-4.21226 -2.25683,-7.36086c0,-3.15358 0.78964,-5.58976 2.36892,-7.30854c1.58427,-1.72376 3.56211,-2.58564 5.93353,-2.58564c0.68751,0 1.38997,0.07722 2.10737,0.23166zM291.75356,224.48136c-1.42982,0 -2.14474,1.28784 -2.14474,3.86352c0,1.3003 0.20426,2.23939 0.61278,2.8173c0.40852,0.57293 0.86188,0.8594 1.36008,0.8594c0.4982,0 0.97646,-0.21672 1.4348,-0.65015v-6.50895c-0.43343,-0.25408 -0.8544,-0.38111 -1.26292,-0.38111zM330.31667,237.94762c-2.21697,0 -3.41514,-0.35621 -3.59449,-1.06863l-1.26293,-4.93962h-6.08298l-1.106,4.74533c-0.15445,0.79214 -1.38,1.1882 -3.67669,1.1882c-1.22557,0 -2.13228,-0.06974 -2.72016,-0.20924c-0.58289,-0.1395 -0.87433,-0.2491 -0.87433,-0.32881l6.77049,-25.90124c0,-0.20426 1.74618,-0.30639 5.23854,-0.30639c3.49734,0 5.24602,0.10213 5.24602,0.3064l6.62103,25.93861c0,0.17935 -0.58787,0.32134 -1.76362,0.42596c-1.17077,0.09964 -2.10239,0.14946 -2.79488,0.14946zM320.33279,227.08194h4.02045l-1.72625,-7.92133h-0.22419zM340.72349,237.94762c-2.31662,0 -3.47492,-0.25408 -3.47492,-0.76224v-24.79525c0,-0.86686 0.39358,-1.3003 1.18073,-1.3003h6.73313c3.77633,0 6.49897,0.77968 8.16794,2.33903c1.67394,1.55437 2.51092,3.81121 2.51092,6.7705c0,2.44615 -0.79213,4.69052 -2.3764,6.73313c-0.78715,1.01632 -1.94795,1.83088 -3.48239,2.44366c-1.52947,0.61278 -3.31301,0.91917 -5.35064,0.91917v6.8527c0,0.3039 -0.47826,0.51314 -1.4348,0.62772c-0.95654,0.11459 -1.78105,0.17188 -2.47355,0.17188zM344.63186,217.74823v6.04562h0.49321c0.89177,0 1.64406,-0.27899 2.25684,-0.83697c0.61278,-0.56296 0.91917,-1.3551 0.91917,-2.3764c0,-1.02131 -0.21173,-1.74867 -0.6352,-2.1821c-0.41848,-0.43343 -1.16329,-0.65015 -2.23441,-0.65015zM361.73294,217.6735h-2.72016c-0.43343,0 -0.73733,-0.5505 -0.9117,-1.65152c-0.07972,-0.53307 -0.11957,-1.0786 -0.11957,-1.63658c0,-0.56296 0.03985,-1.11347 0.11957,-1.65152c0.17437,-1.09604 0.47827,-1.64405 0.9117,-1.64405h12.86095c0.43343,0 0.72488,0.54801 0.87434,1.64405c0.10462,0.53805 0.15693,1.08856 0.15693,1.65153c0,0.55798 -0.05231,1.1035 -0.15693,1.63658c-0.14946,1.10101 -0.4409,1.65152 -0.87433,1.65152h-2.56322v13.61571h2.67532c0.43343,0 0.73982,0.55051 0.91917,1.65153c0.09964,0.53307 0.14946,1.08109 0.14946,1.64405c0,0.55798 -0.04982,1.106 -0.14946,1.64405c-0.17935,1.09604 -0.48574,1.64405 -0.91917,1.64405h-12.89083c-0.43343,0 -0.72737,-0.54801 -0.88181,-1.64405c-0.10462,-0.53805 -0.15693,-1.08607 -0.15693,-1.64405c0,-0.56296 0.05231,-1.11098 0.15693,-1.64405c0.15445,-1.10101 1.73409,-4.36581 2.16752,-4.36581z" fill="none" stroke-opacity="0.50588" stroke="#000000" stroke-width="7.5" stroke-linecap="square"/><path d="M108.74658,228.53917c0.48325,0.38361 1.31773,0.90671 2.50344,1.56932c1.19069,0.66261 2.32657,0.99391 3.40766,0.99391c1.08607,0 1.6291,-0.42097 1.6291,-1.26292c0,-0.38361 -0.15444,-0.72239 -0.46332,-1.01632c-0.3039,-0.29394 -0.86437,-0.63022 -1.68141,-1.00885c-0.81704,-0.38361 -1.42982,-0.68253 -1.83835,-0.89676c-0.40852,-0.2192 -0.95155,-0.5779 -1.6291,-1.0761c-0.67257,-0.4982 -1.1882,-1.01632 -1.5469,-1.55437c-1.01632,-1.44975 -1.52448,-3.29806 -1.52448,-5.54493c0,-2.24687 0.83448,-4.14001 2.50344,-5.67944c1.66895,-1.54441 3.85604,-2.31661 6.56125,-2.31661c1.83835,0 3.53471,0.19928 5.08908,0.59784c1.55437,0.39357 2.35647,0.9092 2.40629,1.5469c0,0.07473 0,0.14946 0,0.22419c0,0.89676 -0.28148,2.02766 -0.84444,3.39272c-0.55798,1.36007 -0.95156,2.11733 -1.18073,2.27178c-1.63408,-0.84196 -3.09629,-1.26293 -4.38661,-1.26293c-1.28535,0 -1.92803,0.45834 -1.92803,1.37503c0,0.56296 0.47329,1.06116 1.41986,1.49459c0.20426,0.10462 0.49571,0.24661 0.87434,0.42596c0.38361,0.17436 0.82451,0.3836 1.32271,0.62772c0.4982,0.24412 1.03376,0.5505 1.60669,0.91917c0.57293,0.36866 1.19318,0.8594 1.86077,1.47217c1.35012,1.27539 2.02517,2.95929 2.02517,5.05172c0,2.73012 -0.75228,4.96204 -2.25683,6.69577c-1.50455,1.73372 -3.82615,2.62549 -6.96479,2.67531c-1.52947,0 -2.91445,-0.12704 -4.15496,-0.38112c-1.23552,-0.25408 -2.31412,-0.74979 -3.23578,-1.48711c-0.91669,-0.74231 -1.37502,-1.63657 -1.37502,-2.68278c0,-1.04621 0.1918,-2.08496 0.57542,-3.11622c0.38361,-1.03625 0.79214,-1.71877 1.22557,-2.04758zM129.54168,235.61605c-1.59423,-1.75863 -2.39134,-4.19482 -2.39134,-7.30855c0,-3.11373 0.79711,-5.54991 2.39134,-7.30855c1.59423,-1.75863 3.74395,-2.63795 6.44916,-2.63795c2.70521,0 4.84745,0.87931 6.42674,2.63796c1.57928,1.75863 2.36893,4.19481 2.36893,7.30854c0,3.11373 -0.78965,5.54991 -2.36893,7.30855c-1.57928,1.75863 -3.72152,2.63796 -6.42673,2.63796c-2.70521,0 -4.85493,-0.87932 -6.44916,-2.63795zM136.00579,224.75039c-1.43979,0 -2.15968,1.17325 -2.15968,3.51976c0,2.34651 0.7199,3.51976 2.15968,3.51976c1.44477,0 2.16716,-1.17325 2.16716,-3.51976c0,-2.34651 -0.72239,-3.51976 -2.16716,-3.51976zM147.31652,218.97379c0,-0.28397 1.09603,-0.42595 3.2881,-0.42595c2.19207,0 3.2881,0.14199 3.2881,0.42596v11.17206c0,1.27539 0.40852,1.91307 1.22556,1.91307c0.61278,0 1.30279,-0.26902 2.07001,-0.80707v-12.27806c0,-0.25408 1.08358,-0.38112 3.25074,-0.38112c2.16716,0 3.25073,0.12704 3.25073,0.38112v12.54709h0.99391c0.86686,0 1.30029,0.8295 1.30029,2.4885c0,0.84196 -0.17685,1.69636 -0.53057,2.56322c-0.51315,1.12095 -1.20315,1.68142 -2.07001,1.68142c-1.70881,0 -2.97174,-0.69997 -3.78878,-2.0999l-0.03736,0.03737c-1.55437,1.37502 -3.22583,2.06253 -5.01435,2.06253c-2.47106,0 -4.29445,-0.61777 -5.4702,-1.8533c-1.17076,-1.23552 -1.75614,-3.28312 -1.75614,-6.14276zM176.31366,237.64122c0,0.17935 -0.91669,0.26902 -2.75004,0.26902c-2.55077,-0.07473 -3.82615,-0.21422 -3.82615,-0.41849v-12.39762h-0.9939c-0.66261,0 -1.09604,-0.56046 -1.3003,-1.68141c-0.0548,-0.3338 -0.0822,-0.66509 -0.0822,-0.9939c0,-0.79214 0.15445,-1.58427 0.46332,-2.3764c0.45834,-1.12095 1.17076,-1.68141 2.13726,-1.68141c0.97149,0 1.83835,0.22917 2.60059,0.68751c0.76722,0.45834 1.28036,0.91668 1.53942,1.37502c1.6042,-1.37502 3.51478,-2.06253 5.73175,-2.06253c2.22195,0 3.82864,0.60033 4.82005,1.80098c0.99639,1.19567 1.49459,3.15857 1.49459,5.88868v11.47845c0,0.3039 -1.09105,0.45586 -3.27315,0.45586c-2.17711,0 -3.26567,-0.15195 -3.26567,-0.45585v-11.05997c0,-1.27538 -0.44589,-1.91308 -1.33766,-1.91308c-0.25906,0 -0.61777,0.10961 -1.07611,0.32881c-0.45834,0.21422 -0.75228,0.37365 -0.88181,0.47827v12.27806zM199.0846,211.32149c0,-0.38361 1.00635,-0.57541 3.01907,-0.57541c0.68751,0 1.48463,0.04484 2.39135,0.13451c0.90671,0.08967 1.36007,0.20924 1.36007,0.3587v20.1695h1.33766c0.63769,0 1.05867,0.57293 1.26293,1.71878c0.04982,0.3338 0.07473,0.78714 0.07473,1.36007c0,0.57293 -0.17685,1.26791 -0.53057,2.08496c-0.51315,1.12095 -1.33018,1.68142 -2.45113,1.68142c-0.84196,0 -1.58925,-0.16441 -2.24189,-0.49322c-0.64765,-0.3338 -1.08606,-0.68004 -1.31524,-1.03874l-0.34376,-0.49321c-1.40491,1.35011 -3.16603,2.02517 -5.28337,2.02517c-2.11733,0 -3.92829,-0.87931 -5.43284,-2.63795c-1.50455,-1.75863 -2.25683,-4.21226 -2.25683,-7.36086c0,-3.15358 0.78965,-5.58976 2.36893,-7.30854c1.58426,-1.72376 3.56211,-2.58564 5.93352,-2.58564c0.68751,0 1.38997,0.07722 2.10737,0.23166zM197.82167,224.48136c-1.42982,0 -2.14473,1.28784 -2.14473,3.86352c0,1.3003 0.20425,2.23939 0.61278,2.8173c0.40852,0.57293 0.86188,0.8594 1.36008,0.8594c0.4982,0 0.97647,-0.21672 1.43481,-0.65015v-6.50895c-0.43343,-0.25408 -0.85441,-0.38111 -1.26293,-0.38111zM222.15209,210.74607c1.86326,0 3.50233,0.26156 4.9172,0.78466c1.41487,0.5231 2.12231,1.23054 2.12231,2.12231c0,0.89177 -0.33877,1.99528 -1.01632,3.31052c-0.67256,1.31524 -1.23801,1.97286 -1.69635,1.97286c-0.12953,0 -0.2765,-0.06975 -0.44091,-0.20924c-0.1644,-0.14447 -0.54801,-0.29892 -1.15084,-0.46332c-0.59784,-0.1644 -1.11346,-0.24661 -1.54689,-0.24661c-1.47965,0 -2.67283,0.52311 -3.57954,1.56932c-0.90174,1.04621 -1.35261,2.64792 -1.35261,4.80511c0,2.15221 0.46332,3.75142 1.38997,4.79763c0.93163,1.04621 2.11236,1.56932 3.54218,1.56932c0.58787,0 1.2455,-0.0822 1.97286,-0.2466c0.72736,-0.16939 1.243,-0.40604 1.5469,-0.70993c0.04982,-0.0548 0.15195,-0.0822 0.3064,-0.0822c0.15445,0 0.4409,0.28896 0.85939,0.86686c0.42347,0.57293 0.81206,1.3252 1.16578,2.25683c0.3587,0.93163 0.53805,1.65152 0.53805,2.15968c0,0.99639 -0.76473,1.78852 -2.29419,2.3764c-1.52946,0.58289 -3.34041,0.87434 -5.43283,0.87434c-3.36781,0 -6.13529,-1.18571 -8.30245,-3.55713c-2.16716,-2.37142 -3.25073,-5.71929 -3.25073,-10.04364c0,-4.32435 1.11596,-7.72205 3.34789,-10.19311c2.23192,-2.47603 5.01683,-3.71406 8.35475,-3.71406zM239.44686,237.56649c0,0.22917 -1.3003,0.34375 -3.90088,0.34375c-2.04261,-0.02491 -3.06391,-0.12703 -3.06391,-0.30638v-26.05818c0,-0.37863 1.23802,-0.56794 3.71406,-0.56794c2.16716,0.07473 3.25073,0.20177 3.25073,0.38112zM244.55567,235.61605c-1.59423,-1.75863 -2.39135,-4.19482 -2.39135,-7.30855c0,-3.11373 0.79711,-5.54991 2.39135,-7.30855c1.59423,-1.75863 3.74395,-2.63795 6.44916,-2.63795c2.70521,0 4.84746,0.87931 6.42674,2.63796c1.57928,1.75863 2.36893,4.19481 2.36893,7.30854c0,3.11373 -0.78964,5.54991 -2.36892,7.30855c-1.57928,1.75863 -3.72153,2.63796 -6.42674,2.63796c-2.70521,0 -4.85492,-0.87932 -6.44915,-2.63795zM251.01978,224.75039c-1.43979,0 -2.15968,1.17325 -2.15968,3.51976c0,2.34651 0.7199,3.51976 2.15968,3.51976c1.44477,0 2.16716,-1.17325 2.16716,-3.51976c0,-2.34651 -0.72239,-3.51976 -2.16716,-3.51976zM262.33047,218.97379c0,-0.28397 1.09604,-0.42595 3.2881,-0.42595c2.19207,0 3.28809,0.14199 3.28809,0.42596v11.17206c0,1.27539 0.40852,1.91307 1.22556,1.91307c0.61278,0 1.30279,-0.26902 2.07001,-0.80707v-12.27806c0,-0.25408 1.08358,-0.38112 3.25074,-0.38112c2.16715,0 3.25073,0.12704 3.25073,0.38112v12.54709h0.99391c0.86686,0 1.3003,0.8295 1.3003,2.4885c0,0.84196 -0.17686,1.69636 -0.53058,2.56322c-0.51315,1.12095 -1.20315,1.68142 -2.07,1.68142c-1.70882,0 -2.97174,-0.69997 -3.78879,-2.0999l-0.03736,0.03737c-1.55437,1.37502 -3.22582,2.06253 -5.01434,2.06253c-2.47105,0 -4.29446,-0.61777 -5.4702,-1.8533c-1.17077,-1.23552 -1.75614,-3.28312 -1.75614,-6.14276zM293.01651,211.32149c0,-0.38361 1.00636,-0.57541 3.01907,-0.57541c0.68751,0 1.48462,0.04484 2.39134,0.13451c0.90672,0.08967 1.36008,0.20924 1.36008,0.3587v20.1695h1.33766c0.63769,0 1.05866,0.57293 1.26293,1.71878c0.04982,0.3338 0.07473,0.78714 0.07473,1.36007c0,0.57293 -0.17685,1.26791 -0.53057,2.08496c-0.51315,1.12095 -1.33018,1.68142 -2.45113,1.68142c-0.84195,0 -1.58925,-0.16441 -2.24189,-0.49322c-0.64765,-0.3338 -1.08607,-0.68004 -1.31524,-1.03874l-0.34375,-0.49321c-1.40492,1.35011 -3.16604,2.02517 -5.28338,2.02517c-2.11734,0 -3.92828,-0.87931 -5.43283,-2.63795c-1.50455,-1.75863 -2.25683,-4.21226 -2.25683,-7.36086c0,-3.15358 0.78964,-5.58976 2.36892,-7.30854c1.58427,-1.72376 3.56211,-2.58564 5.93353,-2.58564c0.68751,0 1.38997,0.07722 2.10737,0.23166zM291.75356,224.48136c-1.42982,0 -2.14474,1.28784 -2.14474,3.86352c0,1.3003 0.20426,2.23939 0.61278,2.8173c0.40852,0.57293 0.86188,0.8594 1.36008,0.8594c0.4982,0 0.97646,-0.21672 1.4348,-0.65015v-6.50895c-0.43343,-0.25408 -0.8544,-0.38111 -1.26292,-0.38111zM330.31667,237.94762c-2.21697,0 -3.41514,-0.35621 -3.59449,-1.06863l-1.26293,-4.93962h-6.08298l-1.106,4.74533c-0.15445,0.79214 -1.38,1.1882 -3.67669,1.1882c-1.22557,0 -2.13228,-0.06974 -2.72016,-0.20924c-0.58289,-0.1395 -0.87433,-0.2491 -0.87433,-0.32881l6.77049,-25.90124c0,-0.20426 1.74618,-0.30639 5.23854,-0.30639c3.49734,0 5.24602,0.10213 5.24602,0.3064l6.62103,25.93861c0,0.17935 -0.58787,0.32134 -1.76362,0.42596c-1.17077,0.09964 -2.10239,0.14946 -2.79488,0.14946zM320.33279,227.08194h4.02045l-1.72625,-7.92133h-0.22419zM340.72349,237.94762c-2.31662,0 -3.47492,-0.25408 -3.47492,-0.76224v-24.79525c0,-0.86686 0.39358,-1.3003 1.18073,-1.3003h6.73313c3.77633,0 6.49897,0.77968 8.16794,2.33903c1.67394,1.55437 2.51092,3.81121 2.51092,6.7705c0,2.44615 -0.79213,4.69052 -2.3764,6.73313c-0.78715,1.01632 -1.94795,1.83088 -3.48239,2.44366c-1.52947,0.61278 -3.31301,0.91917 -5.35064,0.91917v6.8527c0,0.3039 -0.47826,0.51314 -1.4348,0.62772c-0.95654,0.11459 -1.78105,0.17188 -2.47355,0.17188zM344.63186,217.74823v6.04562h0.49321c0.89177,0 1.64406,-0.27899 2.25684,-0.83697c0.61278,-0.56296 0.91917,-1.3551 0.91917,-2.3764c0,-1.02131 -0.21173,-1.74867 -0.6352,-2.1821c-0.41848,-0.43343 -1.16329,-0.65015 -2.23441,-0.65015zM361.73294,231.2892v-13.61572h-2.72016c-0.43343,0 -0.73733,-0.5505 -0.9117,-1.65152c-0.07972,-0.53307 -0.11957,-1.0786 -0.11957,-1.63658c0,-0.56296 0.03985,-1.11347 0.11957,-1.65152c0.17437,-1.09604 0.47827,-1.64405 0.9117,-1.64405h12.86095c0.43343,0 0.72488,0.54801 0.87434,1.64405c0.10462,0.53805 0.15693,1.08856 0.15693,1.65153c0,0.55798 -0.05231,1.1035 -0.15693,1.63658c-0.14946,1.10101 -0.4409,1.65152 -0.87433,1.65152h-2.56322v13.61571h2.67532c0.43343,0 0.73982,0.55051 0.91917,1.65153c0.09964,0.53307 0.14946,1.08109 0.14946,1.64405c0,0.55798 -0.04982,1.106 -0.14946,1.64405c-0.17935,1.09604 -0.48574,1.64405 -0.91917,1.64405h-12.89083c-0.43343,0 -0.72737,-0.54801 -0.88181,-1.64405c-0.10462,-0.53805 -0.15693,-1.08607 -0.15693,-1.64405c0,-0.56296 0.05231,-1.11098 0.15693,-1.64405c0.15445,-1.10101 0.44838,-1.65152 0.88181,-1.65152z" fill="#ffffff" stroke="none" stroke-width="1" stroke-linecap="square"/><path d="M228.74913,138.64891c0,0 0.59373,-0.75183 0.90246,-1.11885c1.88291,-5.9024 15.10589,-12.26535 24.89453,-12.01301c17.5961,0.45361 29.56294,11.12136 30.88257,23.85532c0.02525,0.38334 5.65151,-1.93441 13.94111,3.0757c8.79088,5.3131 9.50842,10.40724 9.18858,18.92053c-0.46076,12.26448 -12.09556,17.06105 -15.1463,17.70023c-3.52391,0.73833 -99.81845,-0.22267 -99.81845,-0.22267c0,0 -16.89525,-1.20149 -19.61212,-6.89588c-2.71687,-5.69439 -3.24982,-12.46167 -0.25849,-19.60497c5.74105,-13.70964 22.33303,-10.22205 22.33303,-10.22205c0,0 3.77782,-12.05938 19.33517,-15.00416c10.0119,-1.8951 13.3579,1.52981 13.3579,1.52981z" fill-opacity="0.50196" fill="#000000" stroke="none" stroke-width="0" stroke-linecap="butt"/><path d="M181.97829,158.54532c0.27567,0 0.49331,0.21764 0.53684,0.52233l1.4364,11.53475l-1.4364,11.2881c-0.04353,0.3047 -0.26117,0.52233 -0.53684,0.52233c-0.27567,0 -0.49331,-0.21764 -0.53684,-0.52233l-1.26229,-11.2881l1.26229,-11.53475c0.04353,-0.3047 0.26117,-0.52233 0.53684,-0.52233" fill="#ffffff" stroke="#000000" stroke-width="0" stroke-linecap="butt"/><path d="M177.23382,162.97064c0.26117,0 0.4788,0.20313 0.50782,0.4933l1.1172,7.13849l-1.1172,7.02242c-0.02901,0.29019 -0.24666,0.4933 -0.50782,0.4933c-0.27567,0 -0.4788,-0.20312 -0.52233,-0.4933l-0.94309,-7.00791l0.94309,-7.13849c0.04353,-0.3047 0.26116,-0.50782 0.52233,-0.50782" fill="#ffffff" stroke="#000000" stroke-width="0" stroke-linecap="butt"/><path d="M187.04197,156.28193c0.33371,0 0.59488,0.26116 0.63841,0.65291l1.36386,13.68211l-1.36386,13.1888c-0.02901,0.36273 -0.3047,0.6239 -0.63841,0.6239c-0.33371,0 -0.60938,-0.27567 -0.6384,-0.6384l-1.20426,-13.1888l1.20426,-13.68211c0.02901,-0.37724 0.30469,-0.6384 0.6384,-0.6384" fill="#ffffff" stroke="#000000" stroke-width="0" stroke-linecap="butt"/><path d="M192.12017,155.80312c0.39174,0 0.71095,0.3192 0.75447,0.72545l1.29132,14.07386l-1.29132,13.60957c-0.04353,0.42076 -0.36273,0.73997 -0.75447,0.73997c-0.39174,0 -0.72545,-0.3192 -0.75447,-0.73997l-1.13171,-13.60957l1.13171,-14.05934c0.02901,-0.42076 0.36273,-0.73997 0.75447,-0.73997" fill="#ffffff" stroke="#000000" stroke-width="0" stroke-linecap="butt"/><path d="M199.3312,170.61695l-1.21876,13.71113c-0.02901,0.49331 -0.39175,0.85603 -0.85604,0.85603c-0.46429,0 -0.84152,-0.37723 -0.87055,-0.85603l-1.07367,-13.71113l1.07367,-13.04371c0.02901,-0.49331 0.40626,-0.85603 0.87055,-0.85603c0.44978,0 0.82703,0.36273 0.85604,0.84152z" fill="#ffffff" stroke="#000000" stroke-width="0" stroke-linecap="butt"/><path d="M202.42166,148.41798c0.50782,0 0.94309,0.42076 0.97211,0.9576l1.13171,21.22686l-1.13171,13.71113v0c-0.02901,0.53683 -0.46429,0.9576 -0.97211,0.9576c-0.52233,0 -0.9431,-0.42077 -0.97211,-0.9576l-1.00113,-13.71113l1.00113,-21.22685c0.02901,-0.53683 0.44978,-0.9576 0.97211,-0.9576" fill="#ffffff" stroke="#000000" stroke-width="0" stroke-linecap="butt"/><path d="M207.55789,143.52839c0.56585,0 1.04466,0.47881 1.08818,1.05917l1.05917,26.08741l-1.05917,13.63858v0c-0.02901,0.60938 -0.50782,1.07367 -1.08818,1.07367c-0.59488,0 -1.05917,-0.4788 -1.08818,-1.07367l-0.94309,-13.62407l0.94309,-26.08741c0.02901,-0.60938 0.50783,-1.07368 1.08818,-1.07368" fill="#ffffff" stroke="#000000" stroke-width="0" stroke-linecap="butt"/><path d="M212.88273,141.17791c0.6384,0 1.16073,0.52233 1.18974,1.20426l0.98663,28.26379l-0.98663,13.49349v-0.01452c-0.02901,0.65291 -0.55135,1.17524 -1.18974,1.17524c-0.65291,0 -1.17524,-0.52233 -1.18975,-1.17524l-0.87055,-13.49349l0.87055,-28.26379c0.01451,-0.66743 0.53684,-1.18975 1.18975,-1.18975" fill="#ffffff" stroke="#000000" stroke-width="0" stroke-linecap="butt"/><path d="M220.39847,170.61695l-0.91408,13.40643c-0.02901,0.72545 -0.59487,1.29132 -1.30581,1.29132c-0.71096,0 -1.2768,-0.58037 -1.30581,-1.29132l-0.81251,-13.40643l0.81251,-29.20687c0.02901,-0.72545 0.59487,-1.29132 1.30581,-1.29132c0.71096,0 1.2768,0.56585 1.30581,1.29132z" fill="#ffffff" stroke="#000000" stroke-width="0" stroke-linecap="butt"/><path d="M223.51793,140.75716c0.76898,0 1.37837,0.60938 1.40739,1.39288l0.84152,28.4669l-0.84152,13.29036v-0.01451c-0.01451,0.78349 -0.6384,1.40739 -1.40739,1.40739c-0.76898,0 -1.39288,-0.60938 -1.40739,-1.39288l-0.73997,-13.27584l0.73997,-28.46691c0.01451,-0.798 0.6384,-1.40739 1.40739,-1.40739" fill="#ffffff" stroke="#000000" stroke-width="0" stroke-linecap="butt"/><path d="M228.90081,141.68572c0.82702,0 1.49444,0.66743 1.52346,1.50895l0.76898,27.42225l-0.76898,13.20331v-0.01452c-0.01451,0.84152 -0.69644,1.50895 -1.52346,1.50895c-0.84152,0 -1.50895,-0.66743 -1.52346,-1.50895l-0.68193,-13.18879l0.68193,-27.42224c0.01451,-0.84152 0.68193,-1.50895 1.52346,-1.50895" fill="#ffffff" stroke="#000000" stroke-width="0" stroke-linecap="butt"/><path d="M235.21228,136.63655c0.43527,0.3047 0.72545,0.798 0.75447,1.34934l0.68193,32.63102l-0.62389,11.81043l-0.07254,1.29132c-0.01451,0.44978 -0.20313,0.85604 -0.49331,1.14623c-0.3047,0.29019 -0.69643,0.4788 -1.14622,0.4788c-0.50782,0 -0.94309,-0.23215 -1.24779,-0.59488c-0.21764,-0.26117 -0.36273,-0.60938 -0.37724,-0.97211v-0.05804l-0.60938,-13.11624l0.60938,-32.31182v-0.3047c0.01451,-0.56585 0.3047,-1.07367 0.75448,-1.36386c0.24666,-0.1596 0.55135,-0.26117 0.87055,-0.26117c0.33371,0 0.6384,0.10156 0.89957,0.27567" fill="#ffffff" stroke="#000000" stroke-width="0" stroke-linecap="butt"/><path d="M240.60968,133.54611c0.49331,0.3047 0.84153,0.85604 0.85604,1.46542l0.76898,35.60541l-0.76898,12.91312v-0.01451c-0.01451,0.9576 -0.798,1.7411 -1.7411,1.7411c-0.94309,0 -1.7266,-0.78349 -1.7411,-1.72659l-0.34822,-6.36951l-0.36273,-6.54362l0.71095,-35.41678v-0.1741c0,-0.53683 0.26117,-1.01564 0.63841,-1.33484c0.3047,-0.24666 0.68193,-0.39175 1.1027,-0.39175c0.3192,0 0.62389,0.08706 0.88505,0.24666" fill="#ffffff" stroke="#000000" stroke-width="0" stroke-linecap="butt"/><path d="M288.44626,153.78634c8.73449,0 15.81495,7.06594 15.81495,15.78593c0,8.7345 -7.08045,15.72789 -15.80044,15.72789h-43.80306c-0.94309,-0.08706 -1.69758,-0.84152 -1.71208,-1.81364v-50.14355c0.01451,-0.91407 0.33371,-1.39287 1.52347,-1.85716c3.07593,-1.18974 6.54361,-1.88619 10.11286,-1.88619c14.55266,0 26.49367,11.17203 27.75597,25.40548c1.87167,-0.78349 3.94648,-1.21877 6.10834,-1.21877" fill="#ffffff" stroke="#000000" stroke-width="0" stroke-linecap="butt"/><path d="M89.85135,117.67133c0,-6.39897 5.91545,-12.49566 13.1192,-12.49566c28.93252,0 219.72832,0 272.60996,0c8.61359,0 13.56814,4.64378 13.56814,12.24625c0,30.59212 0,109.0924 0,125.70487c0,6.03964 -4.85913,11.69754 -13.31873,11.69754c-52.46667,0 -243.42599,0 -272.60996,0c-7.3279,0 -13.36861,-4.5235 -13.36861,-11.94695c0,-30.16113 0,-108.19342 0,-125.20604z" fill="none" stroke="url(#color-2)" stroke-width="10" stroke-linecap="butt"/></g></g></svg>
