<svg version="1.1" xmlns="http://www.w3.org/2000/svg" xmlns:xlink="http://www.w3.org/1999/xlink" width="309.2973" height="159.64866" viewBox="0,0,309.2973,159.64866"><defs><linearGradient x1="240" y1="105.17567" x2="240" y2="254.82433" gradientUnits="userSpaceOnUse" id="color-1"><stop offset="0" stop-color="#271942"/><stop offset="1" stop-color="#3c2767"/></linearGradient></defs><g transform="translate(-85.35135,-100.17567)"><g fill-rule="nonzero" stroke-linejoin="miter" stroke-miterlimit="10" stroke-dasharray="" stroke-dashoffset="0" style="mix-blend-mode: normal"><path d="M90.21947,245.26588c0,-28.85306 0,-113.64886 0,-130c0,-5.33257 2.76009,-10.15616 6.56917,-10.15616c21.92207,0 223.64734,0 279,0c8.87918,0 13.99194,9.40526 13.99194,12.15616c0,30.56989 0,109.39211 0,126c0,6.00713 -3.5962,11.6244 -9.99194,11.6244c-48.13369,0 -254.83064,0 -280.5,0c-5.13823,0 -9.06917,-3.58784 -9.06917,-9.6244z" fill="#9966ff" stroke="none" stroke-width="0" stroke-linecap="butt"/><g fill="#603ea3" stroke="none" stroke-linecap="butt"><path d="M389.71808,155.18628l-43.86109,-24.90726l43.86109,-24.90726z" stroke-width="NaN"/><path d="M389.71808,204.7636l-43.86109,-24.90726l43.86109,-24.90726z" stroke-width="NaN"/><path d="M389.71808,254.89179l-43.86109,-24.90726l43.86109,-24.90726z" stroke-width="NaN"/><path d="M347.52503,155.18628l-43.8611,-24.90726l43.8611,-24.90726z" stroke-width="NaN"/><path d="M347.52503,204.7636l-43.86109,-24.90726l43.86109,-24.90726z" stroke-width="NaN"/><path d="M347.52503,254.89179l-43.86109,-24.90726l43.86109,-24.90726z" stroke-width="NaN"/><path d="M304.31528,155.18628l-43.86109,-24.90726l43.86109,-24.90726z" stroke-width="NaN"/><path d="M304.31528,204.7636l-43.86108,-24.90726l43.86109,-24.90726z" stroke-width="NaN"/><path d="M304.31528,254.89179l-43.86108,-24.90726l43.86109,-24.90726z" stroke-width="NaN"/><path d="M262.12224,155.18628l-43.86109,-24.90726l43.86109,-24.90726z" stroke-width="NaN"/><path d="M262.12224,204.7636l-43.86109,-24.90726l43.86109,-24.90726z" stroke-width="NaN"/><path d="M262.12224,254.89179l-43.86109,-24.90726l43.86109,-24.90726z" stroke-width="NaN"/><path d="M219.42085,155.18628l-43.86109,-24.90726l43.86109,-24.90726z" stroke-width="NaN"/><path d="M219.42085,204.7636l-43.86108,-24.90726l43.86109,-24.90726z" stroke-width="NaN"/><path d="M219.42085,254.89179l-43.86108,-24.90726l43.86109,-24.90726z" stroke-width="NaN"/><path d="M177.22781,155.18628l-43.8611,-24.90726l43.8611,-24.90726z" stroke-width="NaN"/><path d="M177.22781,204.7636l-43.86109,-24.90726l43.86109,-24.90726z" stroke-width="NaN"/><path d="M177.22781,254.89179l-43.86109,-24.90726l43.86109,-24.90726z" stroke-width="NaN"/><path d="M134.01806,155.18628l-43.8611,-24.90726l43.8611,-24.90726z" stroke-width="NaN"/><path d="M134.01806,204.7636l-43.86109,-24.90726l43.86109,-24.90726z" stroke-width="NaN"/><path d="M134.01806,254.89179l-43.86109,-24.90726l43.86109,-24.90726z" stroke-width="NaN"/></g><path d="M95.70946,108.52483c7.04203,3.99894 38.30861,21.75418 38.30861,21.75418l-43.8611,24.90726c0,0 0,-34.73367 0,-42.92039c0,-3.28109 2.87151,-5.26349 5.55249,-3.74105z" fill="#774dcb" stroke="none" stroke-width="NaN" stroke-linecap="butt"/><path d="M90.15697,154.94907l43.86109,24.90726l-43.86109,24.90726z" fill="#774dcb" stroke="none" stroke-width="NaN" stroke-linecap="butt"/><path d="M90.15697,205.07726l43.86109,24.90726c0,0 -28.99961,16.46792 -36.53338,20.74609c-3.37405,1.91601 -7.32771,-0.51956 -7.32771,-4.46473c0,-8.6209 0,-41.18862 0,-41.18862z" fill="#774dcb" stroke="none" stroke-width="NaN" stroke-linecap="butt"/><path d="M132.35001,105.37175l43.8611,24.90726l-43.8611,24.90726z" fill="#774dcb" stroke="none" stroke-width="NaN" stroke-linecap="butt"/><path d="M132.35001,154.94907l43.86109,24.90726l-43.86109,24.90726z" fill="#774dcb" stroke="none" stroke-width="NaN" stroke-linecap="butt"/><path d="M132.35001,205.07726l43.86109,24.90726l-43.86109,24.90726z" fill="#774dcb" stroke="none" stroke-width="NaN" stroke-linecap="butt"/><path d="M175.55976,105.37175l43.86109,24.90726l-43.86109,24.90726z" fill="#774dcb" stroke="none" stroke-width="NaN" stroke-linecap="butt"/><path d="M175.55976,154.94907l43.86109,24.90726l-43.86108,24.90726z" fill="#774dcb" stroke="none" stroke-width="NaN" stroke-linecap="butt"/><path d="M175.55976,205.07726l43.86109,24.90726l-43.86108,24.90726z" fill="#774dcb" stroke="none" stroke-width="NaN" stroke-linecap="butt"/><path d="M217.7528,105.37175l43.86109,24.90726l-43.86109,24.90726z" fill="#774dcb" stroke="none" stroke-width="NaN" stroke-linecap="butt"/><path d="M217.7528,154.94907l43.86108,24.90726l-43.86108,24.90726z" fill="#774dcb" stroke="none" stroke-width="NaN" stroke-linecap="butt"/><path d="M217.7528,205.07726l43.86108,24.90726l-43.86108,24.90726z" fill="#774dcb" stroke="none" stroke-width="NaN" stroke-linecap="butt"/><path d="M260.45419,105.37175l43.86109,24.90726l-43.86109,24.90726z" fill="#774dcb" stroke="none" stroke-width="NaN" stroke-linecap="butt"/><path d="M260.45419,154.94907l43.86109,24.90726l-43.86108,24.90726z" fill="#774dcb" stroke="none" stroke-width="NaN" stroke-linecap="butt"/><path d="M260.45419,205.07726l43.86109,24.90726l-43.86108,24.90726z" fill="#774dcb" stroke="none" stroke-width="NaN" stroke-linecap="butt"/><path d="M302.64723,105.37175l43.86109,24.90726l-43.86109,24.90726z" fill="#774dcb" stroke="none" stroke-width="NaN" stroke-linecap="butt"/><path d="M302.64723,154.94907l43.86109,24.90726l-43.86109,24.90726z" fill="#774dcb" stroke="none" stroke-width="NaN" stroke-linecap="butt"/><path d="M302.64723,205.07726l43.86109,24.90726l-43.86109,24.90726z" fill="#774dcb" stroke="none" stroke-width="NaN" stroke-linecap="butt"/><path d="M345.85698,105.37175l43.86109,24.90726l-43.86109,24.90726z" fill="#774dcb" stroke="none" stroke-width="NaN" stroke-linecap="butt"/><path d="M345.85698,154.94907l43.86109,24.90726l-43.86109,24.90726z" fill="#774dcb" stroke="none" stroke-width="NaN" stroke-linecap="butt"/><path d="M345.85698,205.07726l43.86109,24.90726l-43.86109,24.90726z" fill="#774dcb" stroke="none" stroke-width="NaN" stroke-linecap="butt"/><path d="M109.50749,227.85477c1.28988,0.71918 2.52407,1.07877 3.7026,1.07877c1.17852,0 1.76778,-0.45703 1.76778,-1.37108c0,-0.41759 -0.16703,-0.78413 -0.5011,-1.09964c-0.33407,-0.32015 -0.94421,-0.68669 -1.83042,-1.09964c-0.88621,-0.41759 -1.55203,-0.7447 -1.99746,-0.98133c-0.44079,-0.23663 -1.03004,-0.62406 -1.76778,-1.16228c-0.7331,-0.54286 -1.29219,-1.10428 -1.6773,-1.68427c-1.10892,-1.58219 -1.66338,-3.59124 -1.66338,-6.02715c0,-2.44056 0.90709,-4.49832 2.72127,-6.1733c1.81418,-1.67962 4.18977,-2.51943 7.12679,-2.51943c1.99513,0 3.83714,0.21575 5.52604,0.64726c1.69354,0.42687 2.56816,0.98829 2.62383,1.68427c0,0.08353 0,0.16471 0,0.24359c0,0.97437 -0.30624,2.20392 -0.91869,3.68867c-0.60782,1.48011 -1.03468,2.30137 -1.2806,2.46376c-1.77706,-0.91405 -3.36621,-1.37108 -4.76744,-1.37108c-1.3966,0 -2.09489,0.49878 -2.09489,1.49635c0,0.61246 0.5127,1.15301 1.53811,1.62162c0.22271,0.11136 0.54053,0.26448 0.95349,0.45935c0.41759,0.19487 0.8955,0.42455 1.43372,0.68902c0.54286,0.25984 1.12515,0.59158 1.7469,0.99525c0.62638,0.40366 1.29915,0.93724 2.01833,1.60074c1.47083,1.38731 2.20624,3.21541 2.20624,5.48429c0,2.96486 -0.81893,5.3915 -2.45679,7.27992c-1.63322,1.88377 -4.15498,2.8535 -7.56526,2.90918c-1.66106,0 -3.16437,-0.1392 -4.50992,-0.41758c-1.34556,-0.27838 -2.51711,-0.81893 -3.51468,-1.62162c-0.99757,-0.80269 -1.49635,-1.77242 -1.49635,-2.90918c0,-1.13676 0.20648,-2.26656 0.61942,-3.38941c0.41759,-1.12285 0.86301,-1.86289 1.33627,-2.22016c0,0 1.43139,0.98133 2.72127,1.70514zM136.50903,243.85527c0,0.19487 -1.18548,0.29231 -3.55643,0.29231c-2.36632,0 -3.54948,-0.09743 -3.54948,-0.29231v-21.40822h-1.41282c-0.66814,0 -1.12748,-0.61014 -1.37804,-1.83042c-0.08352,-0.38511 -0.12528,-0.88157 -0.12528,-1.48939c0,-0.61246 0.19487,-1.33396 0.58463,-2.16449c0.55678,-1.22028 1.44298,-1.83041 2.65863,-1.83041c0.80733,0 1.5497,0.18791 2.22713,0.56374c0.67742,0.37119 1.14836,0.71685 1.41283,1.037c0.26447,0.31552 0.39671,0.5011 0.39671,0.55678c1.85593,-1.43835 3.86499,-2.15752 6.02715,-2.15752c2.16216,0 4.01811,0.83749 5.56781,2.51247c1.55435,1.67498 2.33152,4.26633 2.33152,7.77405c0,3.50771 -0.77718,6.22436 -2.33152,8.14989c-1.5497,1.92553 -3.517,2.8883 -5.90187,2.8883c-1.08109,0 -2.06474,-0.05568 -2.95094,-0.16703zM138.21418,222.40529c-0.47326,0 -0.93028,0.15312 -1.37107,0.45935v7.35647c0.46862,0.05568 0.84908,0.08352 1.14139,0.08352c0.29231,0 0.52199,0 0.68902,0c1.13212,-0.11136 1.69818,-1.56594 1.69818,-4.36377c0,-2.35704 -0.71918,-3.53556 -2.15753,-3.53556zM159.6225,236.70758c-2.74215,0 -5.05742,-0.93493 -6.94584,-2.80478c-1.88377,-1.87449 -2.82566,-4.46585 -2.82566,-7.77405c0,-3.31285 0.90709,-5.98076 2.72127,-8.00373c1.81882,-2.02296 4.11321,-3.03446 6.8832,-3.03446c2.76998,0 4.90895,0.70757 6.4169,2.12273c1.51259,1.41051 2.26888,3.12725 2.26888,5.15022c0,4.49137 -2.57744,6.73705 -7.7323,6.73705h-2.86741c0,0.83053 0.22736,1.40587 0.68206,1.72602c0.45935,0.31552 1.13444,0.47326 2.02528,0.47326c1.93946,0 3.78147,-0.44311 5.52605,-1.32931c0.02785,-0.02785 0.15311,0.16703 0.37582,0.58463c0.6635,1.19243 0.99525,2.19697 0.99525,3.01358c0,0.81661 -0.26215,1.35019 -0.78645,1.60074c0,0 -3.9949,1.53809 -6.73705,1.53809zM161.16062,223.15693c0,-1.1646 -0.56838,-1.7469 -1.70514,-1.7469c-0.5243,0 -0.97436,0.16007 -1.35019,0.48022c-0.37583,0.31552 -0.56374,0.77717 -0.56374,1.385v1.29452h2.24801c0.91405,0 1.37107,-0.47095 1.37107,-1.41284zM179.82587,236.70758c-2.74215,0 -5.05742,-0.93493 -6.94584,-2.80478c-1.88377,-1.87449 -2.82566,-4.46585 -2.82566,-7.77405c0,-3.31285 0.90709,-5.98076 2.72127,-8.00373c1.81882,-2.02296 4.11321,-3.03446 6.8832,-3.03446c2.76998,0 4.90895,0.70757 6.4169,2.12273c1.51259,1.41051 2.26888,3.12725 2.26888,5.15022c0,4.49137 -2.57743,6.73705 -7.73229,6.73705h-2.86741c0,0.83053 0.22735,1.40587 0.68205,1.72602c0.45935,0.31552 1.13444,0.47326 2.02529,0.47326c1.93946,0 3.78146,-0.44311 5.52604,-1.32931c0.02785,-0.02785 0.15312,0.16703 0.37583,0.58463c0.6635,1.19243 0.99525,2.19697 0.99525,3.01358c0,0.81661 -0.26215,1.35019 -0.78645,1.60074c0,0 -3.99489,1.53809 -6.73704,1.53809zM181.36398,223.15693c0,-1.1646 -0.56838,-1.7469 -1.70514,-1.7469c-0.5243,0 -0.97436,0.16007 -1.35019,0.48022c-0.37583,0.31552 -0.56374,0.77717 -0.56374,1.385v1.29452h2.248c0.91405,0 1.37108,-0.47095 1.37108,-1.41284zM197.86475,225.98261c0,2.7143 1.02541,4.07146 3.07621,4.07146c1.33163,0 2.44056,-0.26215 3.32676,-0.78645c0.41759,0 0.75629,0.71454 1.01613,2.1436c0.26447,1.42443 0.39671,2.39416 0.39671,2.90918c0,0.51038 -0.0696,0.84909 -0.2088,1.01613c-1.46618,0.91405 -3.47523,1.37107 -6.02715,1.37107c-2.54728,0 -4.7164,-0.94884 -6.50737,-2.84654c-1.78634,-1.90233 -2.67952,-4.49368 -2.67952,-7.77405c0,-3.28501 0.87925,-5.93899 2.63775,-7.96197c1.76314,-2.02296 4.10625,-3.03446 7.02936,-3.03446c2.9231,0 4.95302,0.70525 6.08978,2.11577c0.25055,0.30623 0.37583,0.75861 0.37583,1.35716c0,0.5939 -0.11135,1.32003 -0.33407,2.1784c-0.49647,1.77242 -1.14836,2.79783 -1.95569,3.07621c-0.11136,0.02785 -0.27143,0.04175 -0.48022,0.04175c-0.20415,0 -0.45935,-0.16703 -0.76558,-0.5011c-1.08109,-1.08109 -1.94872,-1.62162 -2.60295,-1.62162c-0.64957,0 -1.21099,0.33407 -1.68427,1.00221c-0.46862,0.6635 -0.70294,1.74458 -0.70294,3.24324zM215.616,235.9977c0,0.25055 -1.15764,0.37583 -3.47293,0.37583c-2.31064,0 -3.46596,-0.19488 -3.46596,-0.58463v-28.47237c0,-0.19487 0.42918,-0.33407 1.28755,-0.41759c0.85837,-0.08353 1.57986,-0.12528 2.16448,-0.12528c2.32456,0 3.48684,0.25056 3.48684,0.75166v8.30995c1.55435,-0.46862 2.73287,-0.70294 3.53556,-0.70294c2.10648,0 3.76987,0.56142 4.99015,1.68427c1.22028,1.12285 1.83041,3.20846 1.83041,6.25682v12.88251c0,0.25055 -1.08109,0.37583 -3.24325,0.37583c-2.44056,-0.08353 -3.66084,-0.22271 -3.66084,-0.41758v-12.22134c0,-1.35483 -0.44311,-2.03225 -1.32931,-2.03225c-0.61246,0 -1.32003,0.29 -2.12273,0.86997zM257.93413,214.71475c0,2.88134 -1.2458,5.07135 -3.73739,6.57001c1.35948,0.49647 2.49624,1.35483 3.41029,2.57511c0.91405,1.22028 1.37107,2.9463 1.37107,5.17807c0,2.23176 -0.82589,3.99954 -2.47768,5.30334c-1.64714,1.29915 -4.00882,1.94872 -7.08503,1.94872h-9.81327c-0.46862,0 -0.85604,-0.15775 -1.16227,-0.47325c-0.30623,-0.32015 -0.45935,-0.74469 -0.45935,-1.27363v-26.60716c0,-0.30159 0.04872,-0.50111 0.14616,-0.59854c0.09743,-0.09743 0.29926,-0.14615 0.60549,-0.14615h9.47919c6.48186,0 9.72278,2.50783 9.72278,7.5235zM245.96335,213.9283v5.44253h0.2088c2.65863,0 3.98794,-0.8862 3.98794,-2.65863c0,-0.96973 -0.25751,-1.67499 -0.77253,-2.11578c-0.51038,-0.44543 -1.35948,-0.66813 -2.54728,-0.66813zM245.96335,224.27746v5.40077h0.75166c1.19243,0 2.06473,-0.22039 2.61687,-0.66117c0.55214,-0.44543 0.82822,-1.153 0.82822,-2.12273c0,-0.96973 -0.25752,-1.64714 -0.77253,-2.03225c-0.51038,-0.38975 -1.35948,-0.58462 -2.54727,-0.58462zM261.8035,215.75176c0,-0.30159 1.19012,-0.45239 3.57036,-0.45239c2.38487,0 3.57731,0.1508 3.57731,0.45239v12.13782c0,1.38731 0.4431,2.08096 1.32931,2.08096c0.66814,0 1.41747,-0.29 2.24801,-0.86997v-13.34882c0,-0.27375 1.1762,-0.41062 3.5286,-0.41062c2.35704,0 3.53556,0.13687 3.53556,0.41062v13.63417h1.08572c0.94189,0 1.41282,0.90245 1.41282,2.70735c0,0.91405 -0.19488,1.84201 -0.58463,2.78391c-0.55214,1.22028 -1.29915,1.83041 -2.24104,1.83041c-1.86058,0 -3.23397,-0.76325 -4.12018,-2.28976l-0.04175,0.04175c-1.6889,1.49866 -3.50308,2.24801 -5.44254,2.24801c-2.6911,0 -4.67462,-0.67277 -5.95058,-2.01833c-1.27132,-1.34555 -1.90697,-3.57036 -1.90697,-6.67442zM284.83554,207.31653c0,-0.33407 1.19708,-0.50111 3.59123,-0.50111c2.39879,0 3.5982,0.18095 3.5982,0.54286v8.06637c1.19243,-0.22271 2.03688,-0.33408 2.53335,-0.33408c5.823,0 8.73449,3.33836 8.73449,10.0151c0,3.71651 -0.89549,6.57929 -2.68646,8.58834c-1.78634,2.00905 -4.32202,3.01358 -7.60703,3.01358c-3.28037,0 -6.00163,-0.73541 -8.1638,-2.20624zM293.39605,221.57708c-0.46862,0 -0.92565,0.15079 -1.37108,0.45238v7.94108c0.38975,0.16703 0.79805,0.25055 1.22492,0.25055c0.43151,0 0.86765,-0.16703 1.30844,-0.5011c0.77949,-0.55214 1.16924,-1.8397 1.16924,-3.86266c0,-2.85351 -0.77718,-4.28025 -2.33152,-4.28025zM306.45232,207.31653c0,-0.33407 1.19709,-0.50111 3.59124,-0.50111c2.39879,0 3.5982,0.18095 3.5982,0.54286v8.06637c1.19243,-0.22271 2.03688,-0.33408 2.53335,-0.33408c5.823,0 8.73449,3.33836 8.73449,10.0151c0,3.71651 -0.89549,6.57929 -2.68646,8.58834c-1.78634,2.00905 -4.322,3.01358 -7.60701,3.01358c-3.28037,0 -6.00164,-0.73541 -8.16381,-2.20624zM315.01282,221.57708c-0.46862,0 -0.92566,0.15079 -1.37108,0.45238v7.94108c0.38975,0.16703 0.79804,0.25055 1.22491,0.25055c0.43151,0 0.86765,-0.16703 1.30844,-0.5011c0.77949,-0.55214 1.16924,-1.8397 1.16924,-3.86266c0,-2.85351 -0.77717,-4.28025 -2.33151,-4.28025zM335.42555,235.95594c0,0.25055 -1.41283,0.37583 -4.23849,0.37583c-2.21784,-0.02785 -3.32676,-0.1392 -3.32676,-0.33407v-28.30534c0,-0.41759 1.34323,-0.62638 4.0297,-0.62638c2.35704,0.08353 3.53556,0.22271 3.53556,0.41759zM348.14559,236.70758c-2.74215,0 -5.05742,-0.93493 -6.94584,-2.80478c-1.88378,-1.87449 -2.82565,-4.46585 -2.82565,-7.77405c0,-3.31285 0.90709,-5.98076 2.72126,-8.00373c1.81881,-2.02296 4.11322,-3.03446 6.8832,-3.03446c2.76999,0 4.90894,0.70757 6.41689,2.12273c1.51259,1.41051 2.26888,3.12725 2.26888,5.15022c0,4.49137 -2.57744,6.73705 -7.7323,6.73705h-2.86741c0,0.83053 0.22735,1.40587 0.68205,1.72602c0.45935,0.31552 1.13445,0.47326 2.02529,0.47326c1.93946,0 3.78147,-0.44311 5.52605,-1.32931c0.02785,-0.02785 0.15311,0.16703 0.37582,0.58463c0.6635,1.19243 0.99525,2.19697 0.99525,3.01358c0,0.81661 -0.26215,1.35019 -0.78645,1.60074c0,0 -3.9949,1.53809 -6.73705,1.53809zM349.68371,223.15693c0,-1.1646 -0.56838,-1.7469 -1.70514,-1.7469c-0.5243,0 -0.97436,0.16007 -1.35019,0.48022c-0.37583,0.31552 -0.56374,0.77717 -0.56374,1.385v1.29452h2.248c0.91405,0 1.37108,-0.47095 1.37108,-1.41284zM360.24084,228.80827c2.24568,1.35948 4.02042,2.03921 5.32422,2.03921c0.83053,0 1.24579,-0.29231 1.24579,-0.87694c0,-0.41295 -0.7215,-0.95349 -2.16448,-1.62162c-3.46132,-1.41051 -5.19198,-3.72348 -5.19198,-6.93887c0,-2.0508 0.74701,-3.61675 2.24104,-4.69784c1.49866,-1.08109 3.29429,-1.62163 5.38686,-1.62163c2.09256,0 3.86498,0.22271 5.31725,0.66814c1.45691,0.44079 2.18537,1.02076 2.18537,1.73994c0,0.61246 -0.29926,1.41747 -0.8978,2.41504c-0.5939,0.99757 -1.00221,1.5381 -1.22492,1.62162c-1.19243,-0.66814 -2.48,-1.00221 -3.86266,-1.00221c-0.74701,0 -1.12052,0.26447 -1.12052,0.79341c0,0.32942 0.14384,0.61246 0.43151,0.84909c0.29231,0.23663 0.82589,0.52894 1.60074,0.87694c0.77485,0.34334 1.41747,0.65422 1.92786,0.93261c0.51502,0.27838 1.09268,0.66581 1.73298,1.16228c1.33163,1.05325 1.99745,2.42663 1.99745,4.12017c0,2.2132 -0.73541,4.0065 -2.20624,5.3799c-1.47083,1.37339 -3.68867,2.06009 -6.65353,2.06009c-1.96729,0 -3.75594,-0.33174 -5.36597,-0.99524c-1.60538,-0.66814 -2.40807,-1.58451 -2.40807,-2.7491c0,-0.77485 0.18791,-1.59146 0.56374,-2.44984c0.37583,-0.85837 0.75629,-1.42675 1.14139,-1.70513z" fill="none" stroke-opacity="0.50588" stroke="#000000" stroke-width="7.5" stroke-linecap="square"/><path d="M106.78622,226.14964c0.5243,0.41295 1.43139,0.98133 2.72127,1.70514c1.28988,0.71918 2.52407,1.07877 3.7026,1.07877c1.17852,0 1.76778,-0.45703 1.76778,-1.37108c0,-0.41759 -0.16703,-0.78413 -0.5011,-1.09964c-0.33407,-0.32015 -0.94421,-0.68669 -1.83042,-1.09964c-0.88621,-0.41759 -1.55203,-0.7447 -1.99746,-0.98133c-0.44079,-0.23663 -1.03004,-0.62406 -1.76778,-1.16228c-0.7331,-0.54286 -1.29219,-1.10428 -1.6773,-1.68427c-1.10892,-1.58219 -1.66338,-3.59124 -1.66338,-6.02715c0,-2.44056 0.90709,-4.49832 2.72127,-6.1733c1.81418,-1.67962 4.18977,-2.51943 7.12679,-2.51943c1.99513,0 3.83714,0.21575 5.52604,0.64726c1.69354,0.42687 2.56816,0.98829 2.62383,1.68427c0,0.08353 0,0.16471 0,0.24359c0,0.97437 -0.30624,2.20392 -0.91869,3.68867c-0.60782,1.48011 -1.03468,2.30137 -1.2806,2.46376c-1.77706,-0.91405 -3.36621,-1.37108 -4.76744,-1.37108c-1.3966,0 -2.09489,0.49878 -2.09489,1.49635c0,0.61246 0.5127,1.15301 1.53811,1.62162c0.22271,0.11136 0.54053,0.26448 0.95349,0.45935c0.41759,0.19487 0.8955,0.42455 1.43372,0.68902c0.54286,0.25984 1.12515,0.59158 1.7469,0.99525c0.62638,0.40366 1.29915,0.93724 2.01833,1.60074c1.47083,1.38731 2.20624,3.21541 2.20624,5.48429c0,2.96486 -0.81893,5.3915 -2.45679,7.27992c-1.63322,1.88377 -4.15498,2.8535 -7.56526,2.90918c-1.66106,0 -3.16437,-0.1392 -4.50992,-0.41758c-1.34556,-0.27838 -2.51711,-0.81893 -3.51468,-1.62162c-0.99757,-0.80269 -1.49635,-1.77242 -1.49635,-2.90918c0,-1.13676 0.20648,-2.26656 0.61942,-3.38941c0.41759,-1.12285 0.86301,-1.86289 1.33627,-2.22016zM136.50903,243.85527c0,0.19487 -1.18548,0.29231 -3.55643,0.29231c-2.36632,0 -3.54948,-0.09743 -3.54948,-0.29231v-21.40822h-1.41282c-0.66814,0 -1.12748,-0.61014 -1.37804,-1.83042c-0.08352,-0.38511 -0.12528,-0.88157 -0.12528,-1.48939c0,-0.61246 0.19487,-1.33396 0.58463,-2.16449c0.55678,-1.22028 1.44298,-1.83041 2.65863,-1.83041c0.80733,0 1.5497,0.18791 2.22713,0.56374c0.67742,0.37119 1.14836,0.71685 1.41283,1.037c0.26447,0.31552 0.39671,0.5011 0.39671,0.55678c1.85593,-1.43835 3.86499,-2.15752 6.02715,-2.15752c2.16216,0 4.01811,0.83749 5.56781,2.51247c1.55435,1.67498 2.33152,4.26633 2.33152,7.77405c0,3.50771 -0.77718,6.22436 -2.33152,8.14989c-1.5497,1.92553 -3.517,2.8883 -5.90187,2.8883c-1.08109,0 -2.06474,-0.05568 -2.95094,-0.16703zM138.21418,222.40529c-0.47326,0 -0.93028,0.15312 -1.37107,0.45935v7.35647c0.46862,0.05568 0.84908,0.08352 1.14139,0.08352c0.29231,0 0.52199,0 0.68902,0c1.13212,-0.11136 1.69818,-1.56594 1.69818,-4.36377c0,-2.35704 -0.71918,-3.53556 -2.15753,-3.53556zM166.35956,235.16948c-1.74921,1.02541 -3.9949,1.53811 -6.73705,1.53811c-2.74215,0 -5.05742,-0.93493 -6.94584,-2.80478c-1.88377,-1.87449 -2.82566,-4.46585 -2.82566,-7.77405c0,-3.31285 0.90709,-5.98076 2.72127,-8.00373c1.81882,-2.02296 4.11321,-3.03446 6.8832,-3.03446c2.76998,0 4.90895,0.70757 6.4169,2.12273c1.51259,1.41051 2.26888,3.12725 2.26888,5.15022c0,4.49137 -2.57744,6.73705 -7.7323,6.73705h-2.86741c0,0.83053 0.22736,1.40587 0.68206,1.72602c0.45935,0.31552 1.13444,0.47326 2.02528,0.47326c1.93946,0 3.78147,-0.44311 5.52605,-1.32931c0.02785,-0.02785 0.15311,0.16703 0.37582,0.58463c0.6635,1.19243 0.99525,2.19697 0.99525,3.01358c0,0.81661 -0.26215,1.35019 -0.78645,1.60074zM161.16062,223.15693c0,-1.1646 -0.56838,-1.7469 -1.70514,-1.7469c-0.5243,0 -0.97436,0.16007 -1.35019,0.48022c-0.37583,0.31552 -0.56374,0.77717 -0.56374,1.385v1.29452h2.24801c0.91405,0 1.37107,-0.47095 1.37107,-1.41284zM186.56291,235.16948c-1.74921,1.02541 -3.99489,1.53811 -6.73704,1.53811c-2.74215,0 -5.05742,-0.93493 -6.94584,-2.80478c-1.88377,-1.87449 -2.82566,-4.46585 -2.82566,-7.77405c0,-3.31285 0.90709,-5.98076 2.72127,-8.00373c1.81882,-2.02296 4.11321,-3.03446 6.8832,-3.03446c2.76998,0 4.90895,0.70757 6.4169,2.12273c1.51259,1.41051 2.26888,3.12725 2.26888,5.15022c0,4.49137 -2.57743,6.73705 -7.73229,6.73705h-2.86741c0,0.83053 0.22735,1.40587 0.68205,1.72602c0.45935,0.31552 1.13444,0.47326 2.02529,0.47326c1.93946,0 3.78146,-0.44311 5.52604,-1.32931c0.02785,-0.02785 0.15312,0.16703 0.37583,0.58463c0.6635,1.19243 0.99525,2.19697 0.99525,3.01358c0,0.81661 -0.26215,1.35019 -0.78645,1.60074zM181.36398,223.15693c0,-1.1646 -0.56838,-1.7469 -1.70514,-1.7469c-0.5243,0 -0.97436,0.16007 -1.35019,0.48022c-0.37583,0.31552 -0.56374,0.77717 -0.56374,1.385v1.29452h2.248c0.91405,0 1.37108,-0.47095 1.37108,-1.41284zM197.86475,225.98261c0,2.7143 1.02541,4.07146 3.07621,4.07146c1.33163,0 2.44056,-0.26215 3.32676,-0.78645c0.41759,0 0.75629,0.71454 1.01613,2.1436c0.26447,1.42443 0.39671,2.39416 0.39671,2.90918c0,0.51038 -0.0696,0.84909 -0.2088,1.01613c-1.46618,0.91405 -3.47523,1.37107 -6.02715,1.37107c-2.54728,0 -4.7164,-0.94884 -6.50737,-2.84654c-1.78634,-1.90233 -2.67952,-4.49368 -2.67952,-7.77405c0,-3.28501 0.87925,-5.93899 2.63775,-7.96197c1.76314,-2.02296 4.10625,-3.03446 7.02936,-3.03446c2.9231,0 4.95302,0.70525 6.08978,2.11577c0.25055,0.30623 0.37583,0.75861 0.37583,1.35716c0,0.5939 -0.11135,1.32003 -0.33407,2.1784c-0.49647,1.77242 -1.14836,2.79783 -1.95569,3.07621c-0.11136,0.02785 -0.27143,0.04175 -0.48022,0.04175c-0.20415,0 -0.45935,-0.16703 -0.76558,-0.5011c-1.08109,-1.08109 -1.94872,-1.62162 -2.60295,-1.62162c-0.64957,0 -1.21099,0.33407 -1.68427,1.00221c-0.46862,0.6635 -0.70294,1.74458 -0.70294,3.24324zM215.616,235.9977c0,0.25055 -1.15764,0.37583 -3.47293,0.37583c-2.31064,0 -3.46596,-0.19488 -3.46596,-0.58463v-28.47237c0,-0.19487 0.42918,-0.33407 1.28755,-0.41759c0.85837,-0.08353 1.57986,-0.12528 2.16448,-0.12528c2.32456,0 3.48684,0.25056 3.48684,0.75166v8.30995c1.55435,-0.46862 2.73287,-0.70294 3.53556,-0.70294c2.10648,0 3.76987,0.56142 4.99015,1.68427c1.22028,1.12285 1.83041,3.20846 1.83041,6.25682v12.88251c0,0.25055 -1.08109,0.37583 -3.24325,0.37583c-2.44056,-0.08353 -3.66084,-0.22271 -3.66084,-0.41758v-12.22134c0,-1.35483 -0.44311,-2.03225 -1.32931,-2.03225c-0.61246,0 -1.32003,0.29 -2.12273,0.86997zM257.93413,214.71475c0,2.88134 -1.2458,5.07135 -3.73739,6.57001c1.35948,0.49647 2.49624,1.35483 3.41029,2.57511c0.91405,1.22028 1.37107,2.9463 1.37107,5.17807c0,2.23176 -0.82589,3.99954 -2.47768,5.30334c-1.64714,1.29915 -4.00882,1.94872 -7.08503,1.94872h-9.81327c-0.46862,0 -0.85604,-0.15775 -1.16227,-0.47325c-0.30623,-0.32015 -0.45935,-0.74469 -0.45935,-1.27363v-26.60716c0,-0.30159 0.04872,-0.50111 0.14616,-0.59854c0.09743,-0.09743 0.29926,-0.14615 0.60549,-0.14615h9.47919c6.48186,0 9.72278,2.50783 9.72278,7.5235zM245.96335,213.9283v5.44253h0.2088c2.65863,0 3.98794,-0.8862 3.98794,-2.65863c0,-0.96973 -0.25751,-1.67499 -0.77253,-2.11578c-0.51038,-0.44543 -1.35948,-0.66813 -2.54728,-0.66813zM245.96335,224.27746v5.40077h0.75166c1.19243,0 2.06473,-0.22039 2.61687,-0.66117c0.55214,-0.44543 0.82822,-1.153 0.82822,-2.12273c0,-0.96973 -0.25752,-1.64714 -0.77253,-2.03225c-0.51038,-0.38975 -1.35948,-0.58462 -2.54727,-0.58462zM261.8035,215.75176c0,-0.30159 1.19012,-0.45239 3.57036,-0.45239c2.38487,0 3.57731,0.1508 3.57731,0.45239v12.13782c0,1.38731 0.4431,2.08096 1.32931,2.08096c0.66814,0 1.41747,-0.29 2.24801,-0.86997v-13.34882c0,-0.27375 1.1762,-0.41062 3.5286,-0.41062c2.35704,0 3.53556,0.13687 3.53556,0.41062v13.63417h1.08572c0.94189,0 1.41282,0.90245 1.41282,2.70735c0,0.91405 -0.19488,1.84201 -0.58463,2.78391c-0.55214,1.22028 -1.29915,1.83041 -2.24104,1.83041c-1.86058,0 -3.23397,-0.76325 -4.12018,-2.28976l-0.04175,0.04175c-1.6889,1.49866 -3.50308,2.24801 -5.44254,2.24801c-2.6911,0 -4.67462,-0.67277 -5.95058,-2.01833c-1.27132,-1.34555 -1.90697,-3.57036 -1.90697,-6.67442zM284.83554,207.31653c0,-0.33407 1.19708,-0.50111 3.59123,-0.50111c2.39879,0 3.5982,0.18095 3.5982,0.54286v8.06637c1.19243,-0.22271 2.03688,-0.33408 2.53335,-0.33408c5.823,0 8.73449,3.33836 8.73449,10.0151c0,3.71651 -0.89549,6.57929 -2.68646,8.58834c-1.78634,2.00905 -4.32202,3.01358 -7.60703,3.01358c-3.28037,0 -6.00163,-0.73541 -8.1638,-2.20624zM293.39605,221.57708c-0.46862,0 -0.92565,0.15079 -1.37108,0.45238v7.94108c0.38975,0.16703 0.79805,0.25055 1.22492,0.25055c0.43151,0 0.86765,-0.16703 1.30844,-0.5011c0.77949,-0.55214 1.16924,-1.8397 1.16924,-3.86266c0,-2.85351 -0.77718,-4.28025 -2.33152,-4.28025zM306.45232,207.31653c0,-0.33407 1.19709,-0.50111 3.59124,-0.50111c2.39879,0 3.5982,0.18095 3.5982,0.54286v8.06637c1.19243,-0.22271 2.03688,-0.33408 2.53335,-0.33408c5.823,0 8.73449,3.33836 8.73449,10.0151c0,3.71651 -0.89549,6.57929 -2.68646,8.58834c-1.78634,2.00905 -4.322,3.01358 -7.60701,3.01358c-3.28037,0 -6.00164,-0.73541 -8.16381,-2.20624zM315.01282,221.57708c-0.46862,0 -0.92566,0.15079 -1.37108,0.45238v7.94108c0.38975,0.16703 0.79804,0.25055 1.22491,0.25055c0.43151,0 0.86765,-0.16703 1.30844,-0.5011c0.77949,-0.55214 1.16924,-1.8397 1.16924,-3.86266c0,-2.85351 -0.77717,-4.28025 -2.33151,-4.28025zM335.42555,235.95594c0,0.25055 -1.41283,0.37583 -4.23849,0.37583c-2.21784,-0.02785 -3.32676,-0.1392 -3.32676,-0.33407v-28.30534c0,-0.41759 1.34323,-0.62638 4.0297,-0.62638c2.35704,0.08353 3.53556,0.22271 3.53556,0.41759zM354.88264,235.16948c-1.74921,1.02541 -3.9949,1.53811 -6.73705,1.53811c-2.74215,0 -5.05742,-0.93493 -6.94584,-2.80478c-1.88378,-1.87449 -2.82565,-4.46585 -2.82565,-7.77405c0,-3.31285 0.90709,-5.98076 2.72126,-8.00373c1.81881,-2.02296 4.11322,-3.03446 6.8832,-3.03446c2.76999,0 4.90894,0.70757 6.41689,2.12273c1.51259,1.41051 2.26888,3.12725 2.26888,5.15022c0,4.49137 -2.57744,6.73705 -7.7323,6.73705h-2.86741c0,0.83053 0.22735,1.40587 0.68205,1.72602c0.45935,0.31552 1.13445,0.47326 2.02529,0.47326c1.93946,0 3.78147,-0.44311 5.52605,-1.32931c0.02785,-0.02785 0.15311,0.16703 0.37582,0.58463c0.6635,1.19243 0.99525,2.19697 0.99525,3.01358c0,0.81661 -0.26215,1.35019 -0.78645,1.60074zM349.68371,223.15693c0,-1.1646 -0.56838,-1.7469 -1.70514,-1.7469c-0.5243,0 -0.97436,0.16007 -1.35019,0.48022c-0.37583,0.31552 -0.56374,0.77717 -0.56374,1.385v1.29452h2.248c0.91405,0 1.37108,-0.47095 1.37108,-1.41284zM360.24084,228.80827c2.24568,1.35948 4.02042,2.03921 5.32422,2.03921c0.83053,0 1.24579,-0.29231 1.24579,-0.87694c0,-0.41295 -0.7215,-0.95349 -2.16448,-1.62162c-3.46132,-1.41051 -5.19198,-3.72348 -5.19198,-6.93887c0,-2.0508 0.74701,-3.61675 2.24104,-4.69784c1.49866,-1.08109 3.29429,-1.62163 5.38686,-1.62163c2.09256,0 3.86498,0.22271 5.31725,0.66814c1.45691,0.44079 2.18537,1.02076 2.18537,1.73994c0,0.61246 -0.29926,1.41747 -0.8978,2.41504c-0.5939,0.99757 -1.00221,1.5381 -1.22492,1.62162c-1.19243,-0.66814 -2.48,-1.00221 -3.86266,-1.00221c-0.74701,0 -1.12052,0.26447 -1.12052,0.79341c0,0.32942 0.14384,0.61246 0.43151,0.84909c0.29231,0.23663 0.82589,0.52894 1.60074,0.87694c0.77485,0.34334 1.41747,0.65422 1.92786,0.93261c0.51502,0.27838 1.09268,0.66581 1.73298,1.16228c1.33163,1.05325 1.99745,2.42663 1.99745,4.12017c0,2.2132 -0.73541,4.0065 -2.20624,5.3799c-1.47083,1.37339 -3.68867,2.06009 -6.65353,2.06009c-1.96729,0 -3.75594,-0.33174 -5.36597,-0.99524c-1.60538,-0.66814 -2.40807,-1.58451 -2.40807,-2.7491c0,-0.77485 0.18791,-1.59146 0.56374,-2.44984c0.37583,-0.85837 0.75629,-1.42675 1.14139,-1.70513z" fill="#ffffff" stroke="none" stroke-width="1" stroke-linecap="square"/><path d="M206.80996,178.49782c-1.29095,-10.73466 6.36467,-20.48334 17.09932,-21.77429c10.73466,-1.29095 20.48334,6.36468 21.77429,17.09932c1.29095,10.73466 -6.36467,20.48335 -17.09932,21.7743c-10.73466,1.29095 -20.48333,-6.36468 -21.77429,-17.09933zM227.25354,188.54648c13.37254,-1.54108 13.95467,-11.56175 13.95467,-11.56175c0,0 -10.14216,4.01988 -15.14607,4.62166c-4.49564,0.54065 -13.51625,-1.17471 -13.51625,-1.17471c0,0 1.80784,9.6014 14.70766,8.1148zM232.92449,171.88239c1.45182,-0.1746 2.4872,-1.49307 2.31261,-2.94488c-0.1746,-1.45182 -1.92164,-6.91577 -3.37345,-6.74117c-1.45182,0.1746 -2.05864,5.92164 -1.88404,7.37345c0.1746,1.45182 1.49307,2.4872 2.94488,2.31261zM218.74518,173.58761c1.45182,-0.1746 2.48721,-1.49307 2.31261,-2.94488c-0.1746,-1.45182 -2.0645,-6.48721 -3.51631,-6.31261c-1.45182,0.1746 -1.91577,5.49307 -1.74118,6.94488c0.1746,1.45182 1.49307,2.48721 2.94487,2.31261z" fill="none" stroke-opacity="0.51373" stroke="#000000" stroke-width="7.5" stroke-linecap="butt"/><path d="M246.82768,142.18267c-1.21438,-14.74128 7.60917,-20.01908 14.47025,-20.43371c8.34924,-0.50456 26.80511,-2.06996 41.06123,-2.48143c6.96125,-0.20092 17.35089,4.09121 17.88457,18.47844c0.50507,13.61598 -10.51974,18.43683 -15.75266,18.75307c-4.76346,0.28787 -12.72863,0.76922 -21.76598,1.31537c-2.38944,0.1444 -8.37353,12.28546 -19.31307,12.59501c-7.75881,0.21955 3.71384,-11.65231 0.6061,-11.46449c-9.21562,0.55692 -16.34525,-6.50257 -17.19043,-16.76225z" fill="none" stroke-opacity="0.51373" stroke="#000000" stroke-width="7.5" stroke-linecap="butt"/><path d="M206.80996,178.49782c-1.29095,-10.73466 6.36467,-20.48334 17.09932,-21.77429c10.73466,-1.29095 20.48334,6.36468 21.77429,17.09932c1.29095,10.73466 -6.36467,20.48334 -17.09932,21.7743c-10.73466,1.29095 -20.48333,-6.36468 -21.77429,-17.09933zM227.96783,191.26077c13.37254,-1.54108 13.24039,-14.27603 13.24039,-14.27603l-28.66233,3.44695c0,0 2.52213,12.31569 15.42194,10.82908zM232.92449,171.88239c1.45182,-0.1746 2.4872,-1.49307 2.31261,-2.94488c-0.1746,-1.45182 -1.49307,-2.48721 -2.94488,-2.31261c-1.45182,0.1746 -2.48721,1.49307 -2.31261,2.94488c0.1746,1.45182 1.49307,2.4872 2.94488,2.31261zM218.74518,173.5876c1.45182,-0.1746 2.48721,-1.49307 2.31261,-2.94487c-0.1746,-1.45182 -1.49307,-2.48721 -2.94487,-2.31261c-1.45182,0.1746 -2.48721,1.49307 -2.31261,2.94488c0.1746,1.45182 1.49307,2.4872 2.94487,2.31261z" fill="#ffffff" stroke="none" stroke-width="NaN" stroke-linecap="butt"/><path d="M246.82768,142.18267c-1.21438,-14.74128 7.60918,-20.01908 14.47026,-20.43371c8.34924,-0.50456 26.80511,-2.06996 41.06123,-2.48143c6.96125,-0.20092 17.35089,4.09121 17.88457,18.47844c0.50507,13.61598 -10.51974,18.43683 -15.75266,18.75307c-4.76346,0.28787 -12.72863,0.76922 -21.76598,1.31537c-2.38944,0.1444 -8.37353,12.28546 -19.31307,12.59501c-7.75881,0.21955 3.71384,-11.65231 0.6061,-11.46449c-9.21562,0.55692 -16.34525,-6.50257 -17.19044,-16.76225z" fill="#ffffff" stroke="none" stroke-width="0" stroke-linecap="butt"/><path d="M193.13644,154.26889c-1.88856,-0.26647 4.53735,7.54334 -0.18981,7.03034c-6.66506,-0.7233 -9.72625,-8.42944 -11.1783,-8.63431c-5.49195,-0.77488 -10.33233,-1.45783 -13.22706,-1.86625c-3.18001,-0.44868 -9.67682,-3.93094 -8.70341,-12.22081c1.02855,-8.75943 7.58255,-10.87297 11.82359,-10.4103c8.68534,0.94752 19.87887,2.80478 24.95265,3.52066c4.16943,0.58828 9.29973,4.24208 7.83823,13.18446c-1.01718,6.22375 -5.71563,10.18638 -11.3159,9.39622z" fill="none" stroke-opacity="0.51373" stroke="#000000" stroke-width="7.5" stroke-linecap="butt"/><path d="M193.13644,154.26889c-1.88856,-0.26647 4.53735,7.54334 -0.18981,7.03034c-6.66506,-0.7233 -9.72625,-8.42944 -11.1783,-8.63431c-5.49195,-0.77488 -10.33233,-1.45783 -13.22706,-1.86625c-3.18001,-0.44868 -9.67682,-3.93094 -8.70341,-12.22081c1.02855,-8.75943 7.58255,-10.87297 11.82359,-10.4103c8.68534,0.94752 19.87887,2.80478 24.95265,3.52066c4.16943,0.58828 9.29974,4.24208 7.83824,13.18446c-1.01718,6.22375 -5.71563,10.18638 -11.31591,9.39622z" fill="#ffffff" stroke="none" stroke-width="0" stroke-linecap="butt"/><path d="M90.35135,117.67133c0,-6.39897 5.91545,-12.49566 13.1192,-12.49566c28.93252,0 219.72832,0 272.60996,0c8.61359,0 13.56814,4.64378 13.56814,12.24625c0,30.59212 0,109.0924 0,125.70487c0,6.03964 -4.85913,11.69754 -13.31873,11.69754c-52.46667,0 -243.42599,0 -272.60996,0c-7.3279,0 -13.36861,-4.5235 -13.36861,-11.94695c0,-30.16113 0,-108.19342 0,-125.20604z" fill="none" stroke="url(#color-1)" stroke-width="10" stroke-linecap="butt"/></g></g></svg>
