<svg xmlns="http://www.w3.org/2000/svg" width="309.297" height="159.649" viewBox="0 0 309.297 159.649"><defs><linearGradient x1="240" y1="254.824" x2="240" y2="105.176" gradientUnits="userSpaceOnUse" id="a"><stop offset="0" stop-color="#0b5023"/><stop offset="1" stop-color="#062a12"/></linearGradient></defs><g stroke-miterlimit="10" stroke-linejoin="round"><path d="M8.675 152.324v-145h291.948v145z" fill="#0f6a2f"/><path d="M28.899 57.324c0-17.768 3.685-34.676 10.333-50h230.834c6.648 15.324 10.333 32.232 10.333 50 0 37.933-16.796 71.944-43.357 95H72.256c-26.56-23.056-43.357-57.067-43.357-95" fill="#13863b"/><path d="M62.899 57.324c0-18.444 5.442-35.617 14.808-50h153.884c9.366 14.383 14.808 31.556 14.808 50 0 50.672-41.078 91.75-91.75 91.75s-91.75-41.078-91.75-91.75" fill="#169a44"/><path d="M88.293 57.324c0-19.946 8.8-37.836 22.73-50h87.252c13.93 12.164 22.73 30.054 22.73 50 0 36.647-29.709 66.356-66.356 66.356S88.293 93.971 88.293 57.324" fill="#19b450"/><path d="M90.351 117.671c0-6.399 5.916-12.495 13.12-12.495h272.61c8.613 0 13.568 4.643 13.568 12.246v125.705c0 6.04-4.86 11.697-13.32 11.697H103.72c-7.328 0-13.369-4.523-13.369-11.947z" fill="none" stroke="url(#a)" stroke-width="10" transform="translate(-85.351 -100.176)"/><path d="M189.906 57.324c0 19.463-15.794 35.257-35.257 35.257s-35.257-15.794-35.257-35.257 15.794-35.257 35.257-35.257 35.257 15.794 35.257 35.257z" fill="none" stroke-opacity=".506" stroke="#000" stroke-width="7.5"/><path d="M189.906 57.324c0 19.463-15.794 35.257-35.257 35.257s-35.257-15.794-35.257-35.257 15.794-35.257 35.257-35.257 35.257 15.794 35.257 35.257" fill="#1ed760"/><path d="M177.197 53.784c-.74 0-1.195-.185-1.834-.554-10.123-6.042-28.22-7.493-39.935-4.223-.512.142-1.151.37-1.834.37-1.876 0-3.312-1.464-3.312-3.355 0-1.934 1.194-3.028 2.473-3.398 5.005-1.464 10.606-2.16 16.705-2.16 10.378 0 21.254 2.16 29.2 6.795 1.11.64 1.835 1.52 1.835 3.213a3.294 3.294 0 0 1-3.298 3.312m-4.408 10.833c-.739 0-1.236-.327-1.748-.597-8.886-5.26-22.136-7.378-33.921-4.18-.682.185-1.052.37-1.692.37a2.76 2.76 0 0 1-2.758-2.758c0-1.521.74-2.53 2.204-2.943 3.952-1.109 7.99-1.933 13.904-1.933 9.226 0 18.14 2.289 25.163 6.468 1.151.683 1.606 1.564 1.606 2.8-.014 1.536-1.208 2.773-2.758 2.773m-3.824 9.326c-.597 0-.967-.185-1.521-.512-8.871-5.345-19.192-5.572-29.386-3.483-.554.143-1.28.37-1.692.37-1.379 0-2.246-1.095-2.246-2.246 0-1.465.867-2.161 1.934-2.389 11.643-2.573 23.542-2.345 33.693 3.725.867.555 1.38 1.052 1.38 2.346s-1.01 2.19-2.162 2.19"/><path d="M84.599 121.926q.878.692 3.038 1.904 2.16 1.205 4.134 1.205t1.974-1.531q0-.7-.56-1.228-.558-.537-2.043-1.228a56 56 0 0 1-2.23-1.096q-.739-.396-1.974-1.298-1.228-.91-1.873-1.88-1.857-2.65-1.857-6.73 0-4.088 3.038-6.893 3.038-2.814 7.958-2.814 3.342 0 6.17.723 2.837.716 2.93 1.88v.273q0 1.631-1.026 4.119-1.017 2.479-1.43 2.75-2.976-1.53-5.323-1.53-2.34 0-2.34 1.67 0 1.026 1.718 1.811.373.188 1.065.513.7.326 1.6.77.91.435 1.951 1.11 1.05.677 2.254 1.788 2.464 2.324 2.464 6.124 0 4.965-2.744 8.129-2.736 3.155-8.447 3.248-2.782 0-5.036-.466-2.253-.467-3.924-1.81-1.671-1.345-1.671-3.25 0-1.903.691-3.784.7-1.88 1.493-2.479zm33.188 19.77q0 .327-3.97.327-3.964 0-3.964-.327v-23.904h-1.578q-1.119 0-1.539-2.044-.14-.645-.14-1.663 0-1.026.653-2.417.933-2.044 2.969-2.044 1.351 0 2.487.63 1.134.621 1.577 1.158.444.529.443.621 3.11-2.409 6.73-2.409 3.622 0 6.217 2.806 2.604 2.805 2.604 8.68t-2.604 9.1q-2.595 3.225-6.59 3.225-1.81 0-3.295-.186zm1.904-23.95q-.793 0-1.53.512v8.214q.784.094 1.274.094h.77q1.895-.187 1.895-4.873 0-3.948-2.409-3.948zm15.893 12.767q-2.9-3.21-2.899-8.867 0-5.664 2.899-8.867 2.906-3.201 7.825-3.201t7.795 3.201q2.883 3.202 2.883 8.867 0 5.658-2.883 8.867-2.875 3.202-7.795 3.202t-7.825-3.202zm7.849-13.187q-2.62 0-2.62 4.274 0 4.266 2.62 4.266 2.626 0 2.626-4.266 0-4.274-2.626-4.274zm24.628 15.643q0 .56-3.901.56-4.64-.188-4.64-.606v-16.429h-2.37q-.932 0-.932-3.202 0-.839.163-2.044.163-1.212.676-1.212h2.463v-4.08q0-.932 3.917-.932 3.925 0 3.925.746v2.968l.046 1.298h3.948q.785 0 .785 3.256 0 3.249-.785 3.249h-3.295zm14.898 0q0 .373-4.25.373-4.244 0-4.244-.326v-22.793q0-.32 4.243-.32 4.251 0 4.251.273zm0-25.529q0 .327-4.25.327-4.244 0-4.244-.28v-6.683q0-.467 4.243-.467 4.251 0 4.251.28zm5.989 8.774h-2.277q-.7 0-.7-3.085 0-3.093.7-3.093h2.277v-1.018q0-4.92 2.06-6.8 2.067-1.88 5.781-1.88 3.715 0 6.544 1.344.373.14.373 1.002 0 .855-.793 2.76-.784 1.903-1.344 2.183-1.578-.98-3.249-.98-1.81 0-1.81 2.418v.971h3.854q.84 0 .84 2.976 0 3.249-1.073 3.249h-2.969v16.428q0 .56-4.11.56-4.104 0-4.104-.56zm13.972-5.945q0-.505 4.243-.505 4.252 0 4.39.459l3.342 10.957 3.202-11.05q.187-.366 2.876-.366 6.178 0 5.898.598l-10.91 31.055q-.047.28-2.534.28-2.48 0-4.616-.164-2.13-.163-2.044-.396l4.04-9.745z" fill="#fff" stroke-opacity=".506" stroke="#000" stroke-width="7.5" stroke-linecap="square"/><path d="M84.599 121.926q.878.692 3.038 1.904 2.16 1.205 4.134 1.205t1.974-1.531q0-.7-.56-1.228-.558-.537-2.043-1.228a56 56 0 0 1-2.23-1.096q-.739-.396-1.974-1.298-1.228-.91-1.873-1.88-1.857-2.65-1.857-6.73 0-4.088 3.038-6.893 3.038-2.814 7.958-2.814 3.342 0 6.17.723 2.837.716 2.93 1.88v.273q0 1.631-1.026 4.119-1.017 2.479-1.43 2.75-2.976-1.53-5.323-1.53-2.34 0-2.34 1.67 0 1.026 1.718 1.811.373.188 1.065.513.7.326 1.6.77.91.435 1.951 1.11 1.05.677 2.254 1.788 2.464 2.324 2.464 6.124 0 4.965-2.744 8.129-2.736 3.155-8.447 3.248-2.782 0-5.036-.466-2.253-.467-3.924-1.81-1.671-1.345-1.671-3.25 0-1.903.691-3.784.7-1.88 1.493-2.479m33.188 19.77q0 .327-3.97.327-3.964 0-3.964-.327v-23.904h-1.578q-1.119 0-1.539-2.044-.14-.645-.14-1.663 0-1.026.653-2.417.933-2.044 2.969-2.044 1.351 0 2.487.63 1.134.621 1.577 1.158.444.529.443.621 3.11-2.409 6.73-2.409 3.622 0 6.217 2.806 2.604 2.805 2.604 8.68t-2.604 9.1q-2.595 3.225-6.59 3.225-1.81 0-3.295-.186zm1.904-23.95q-.793 0-1.53.512v8.214q.784.094 1.274.094h.77q1.895-.187 1.895-4.873 0-3.948-2.409-3.948m15.893 12.767q-2.9-3.21-2.899-8.867 0-5.664 2.899-8.867 2.906-3.201 7.825-3.201t7.795 3.201q2.883 3.202 2.883 8.867 0 5.658-2.883 8.867-2.875 3.202-7.795 3.202t-7.825-3.202m7.849-13.187q-2.62 0-2.62 4.274 0 4.266 2.62 4.266 2.626 0 2.626-4.266 0-4.274-2.626-4.274m24.628 15.643q0 .56-3.901.56-4.64-.188-4.64-.606v-16.428h-2.37q-.932 0-.932-3.202 0-.839.163-2.044.163-1.212.676-1.212h2.463v-4.08q0-.932 3.917-.932 3.925 0 3.925.746v2.968l.046 1.298h3.948q.785 0 .785 3.256 0 3.249-.785 3.249h-3.295zm14.898 0q0 .373-4.25.373-4.244 0-4.244-.326v-22.793q0-.32 4.243-.32 4.251 0 4.251.273zm0-25.529q0 .327-4.25.327-4.244 0-4.244-.28v-6.683q0-.467 4.243-.467 4.251 0 4.251.28zm5.989 8.774h-2.277q-.7 0-.7-3.085 0-3.093.7-3.093h2.277v-1.018q0-4.92 2.06-6.8 2.067-1.88 5.781-1.88 3.715 0 6.544 1.344.373.14.373 1.002 0 .855-.793 2.76-.784 1.903-1.344 2.183-1.578-.98-3.249-.98-1.81 0-1.81 2.418v.971h3.854q.84 0 .84 2.976 0 3.249-1.073 3.249h-2.969v16.428q0 .56-4.11.56-4.104 0-4.104-.56zm13.972-5.945q0-.505 4.243-.505 4.252 0 4.39.459l3.342 10.957 3.202-11.05q.187-.366 2.876-.366 6.178 0 5.898.598l-10.91 31.055q-.047.28-2.534.28-2.48 0-4.616-.164-2.13-.163-2.044-.396l4.04-9.745z" fill="#fff"/><g fill-rule="evenodd"><path d="M226.259 76.739c-.195-.459-1.268-2.924-1.607-3.711a264 264 0 0 1-2.518-6.066c-1.696-4.232-2.058-6.142-1.086-6.866.472-.35 1.085-.32 1.992-.043.482.145 6.435 1.97 7.908 1.411 1.533-.587 2.591-.62 3.128.003.502.584.328 1.47-.275 2.43-1.199 1.904-3.583 3.493-5.638 3.39-.902-.047-1.389-.209-2.754-.792l-.113-.046c.18.606.659 1.752 1.586 3.797.602 1.326 4.194 9.102 5.324 11.564l.006.013c1.122 2.63-.913 5.34-4.399 6.08-3.42.728-7.058-.666-8.152-3.204-1.124-2.631.915-5.337 4.406-6.08.942-.2 1.91-.242 2.854-.132 0 0-.28-.852-.662-1.748z" fill="none" stroke-opacity=".506" stroke="#000" stroke-width="7.5"/><path d="M226.919 78.487c-.08-.328-.278-.852-.66-1.748-.195-.459-1.268-2.924-1.607-3.711a264 264 0 0 1-2.518-6.066c-1.696-4.232-2.058-6.142-1.086-6.866.472-.35 1.085-.32 1.992-.043.482.145 2.572.937 2.44.89 2.349.852 3.995 1.08 5.468.521 1.533-.587 2.591-.62 3.128.003.502.584.328 1.47-.275 2.43-1.199 1.904-3.583 3.493-5.638 3.39-.902-.047-1.389-.209-2.754-.792l-.113-.046c.18.606.659 1.752 1.586 3.797.602 1.326 4.194 9.102 5.324 11.564l.006.013c1.122 2.63-.913 5.34-4.399 6.08-3.42.728-7.058-.666-8.152-3.204-1.124-2.631.915-5.337 4.406-6.08.942-.2 1.91-.242 2.854-.132z" fill="#fff"/></g><g fill-rule="evenodd"><path d="M256.411 52.024c-.483-.55-3.108-3.489-3.94-4.429a395 395 0 0 1-6.288-7.287c-4.301-5.113-5.682-7.605-4.66-9.06.496-.704 1.363-.942 2.753-.973.737-.02 9.86-.21 11.654-1.663 1.865-1.52 3.322-2.052 4.355-1.431.968.582 1.132 1.894.731 3.507-.794 3.2-3.383 6.507-6.29 7.307-1.278.348-2.03.346-4.198.16l-.18-.012c.53.761 1.723 2.136 3.951 4.557 1.446 1.57 10.014 10.746 12.716 13.655l.015.015c2.767 3.147 1.177 7.852-3.335 10.482-4.426 2.58-10.13 2.309-12.816-.721-2.773-3.147-1.176-7.85 3.344-10.484a13 13 0 0 1 3.91-1.493s-.78-1.058-1.722-2.13z" fill="none" stroke-opacity=".506" stroke="#000" stroke-width="7.5"/><path d="M258.132 54.154c-.263-.42-.779-1.058-1.721-2.13-.483-.55-3.108-3.489-3.94-4.429a395 395 0 0 1-6.288-7.287c-4.301-5.113-5.682-7.605-4.66-9.06.496-.704 1.363-.942 2.753-.973.737-.02 4.01.124 3.804.12 3.66.107 6.056-.33 7.85-1.783 1.865-1.52 3.322-2.052 4.355-1.431.968.582 1.132 1.894.731 3.507-.794 3.2-3.383 6.507-6.29 7.307-1.278.348-2.03.346-4.198.16l-.18-.012c.53.761 1.723 2.136 3.951 4.557 1.446 1.57 10.014 10.746 12.716 13.655l.015.015c2.767 3.147 1.177 7.852-3.335 10.482-4.426 2.58-10.13 2.309-12.816-.721-2.773-3.147-1.176-7.85 3.344-10.484a13 13 0 0 1 3.91-1.493z" fill="#fff"/></g><g fill-rule="evenodd"><path d="M83.039 76.739c-.382.896-.662 1.748-.662 1.748a8.8 8.8 0 0 1 2.854.132c3.491.743 5.53 3.449 4.406 6.08-1.094 2.538-4.732 3.932-8.152 3.205-3.486-.74-5.52-3.45-4.4-6.08l.007-.014c1.13-2.462 4.722-10.238 5.324-11.564.927-2.045 1.406-3.19 1.586-3.797l-.113.046c-1.365.583-1.852.745-2.754.793-2.055.102-4.44-1.487-5.638-3.392-.603-.96-.777-1.845-.275-2.429.537-.623 1.595-.59 3.128-.003 1.473.56 7.426-1.266 7.908-1.41.907-.278 1.52-.308 1.992.042.972.724.61 2.634-1.086 6.866a270 270 0 0 1-2.517 6.066c-.34.787-1.413 3.252-1.608 3.71z" fill="none" stroke-opacity=".506" stroke="#000" stroke-width="7.5"/><path d="M82.377 78.487a8.8 8.8 0 0 1 2.854.132c3.491.743 5.53 3.449 4.406 6.08-1.094 2.538-4.732 3.932-8.152 3.205-3.486-.74-5.52-3.45-4.4-6.08l.007-.014c1.13-2.462 4.722-10.238 5.324-11.564.927-2.045 1.406-3.19 1.587-3.797l-.114.046c-1.365.583-1.852.745-2.754.793-2.055.102-4.44-1.487-5.637-3.392-.604-.96-.778-1.845-.276-2.429.537-.623 1.595-.59 3.128-.003 1.473.56 3.12.33 5.468-.521-.132.047 1.958-.745 2.44-.89.907-.277 1.52-.307 1.992.043.972.724.61 2.634-1.086 6.866a270 270 0 0 1-2.517 6.066c-.34.787-1.413 3.252-1.608 3.71-.382.897-.58 1.42-.66 1.75z" fill="#fff"/></g><g fill-rule="evenodd"><path d="M52.887 52.024a37 37 0 0 0-1.723 2.13c1.365.28 2.693.782 3.911 1.493 4.52 2.634 6.117 7.337 3.344 10.484-2.686 3.03-8.39 3.301-12.816.72-4.512-2.63-6.102-7.334-3.335-10.481l.015-.015c2.702-2.91 11.27-12.085 12.716-13.655 2.228-2.421 3.421-3.796 3.95-4.557l-.179.013c-2.168.185-2.92.187-4.197-.16-2.908-.801-5.497-4.107-6.291-7.308-.4-1.613-.237-2.925.73-3.507 1.034-.621 2.49-.09 4.356 1.43 1.794 1.454 10.917 1.644 11.654 1.664 1.39.03 2.257.27 2.753.973 1.022 1.455-.359 3.947-4.66 9.06a395 395 0 0 1-6.287 7.287c-.833.94-3.458 3.88-3.94 4.429z" fill="none" stroke-opacity=".506" stroke="#000" stroke-width="7.5"/><path d="M51.164 54.154c1.365.28 2.693.782 3.911 1.493 4.52 2.634 6.117 7.337 3.344 10.484-2.686 3.03-8.39 3.301-12.816.72-4.512-2.63-6.102-7.334-3.335-10.481l.015-.015c2.702-2.91 11.27-12.085 12.716-13.655 2.228-2.421 3.421-3.796 3.95-4.557l-.179.013c-2.168.185-2.92.187-4.197-.16-2.908-.801-5.497-4.107-6.291-7.308-.4-1.613-.237-2.925.73-3.507 1.034-.621 2.49-.09 4.356 1.43 1.794 1.454 4.19 1.891 7.85 1.783-.205.005 3.067-.139 3.804-.119 1.39.03 2.257.27 2.753.973 1.022 1.455-.359 3.947-4.66 9.06a395 395 0 0 1-6.287 7.287c-.833.94-3.458 3.88-3.94 4.429-.943 1.072-1.46 1.71-1.722 2.13z" fill="#fff"/></g></g></svg>