<svg version="1.1" xmlns="http://www.w3.org/2000/svg" xmlns:xlink="http://www.w3.org/1999/xlink" width="309.2973" height="159.64866" viewBox="0,0,309.2973,159.64866"><defs><linearGradient x1="240" y1="254.82435" x2="240" y2="105.1757" gradientUnits="userSpaceOnUse" id="color-1"><stop offset="0" stop-color="#0b5023"/><stop offset="1" stop-color="#062a12"/></linearGradient></defs><g transform="translate(-85.35135,-100.17569)"><g stroke-linejoin="miter" stroke-miterlimit="10" stroke-dasharray="" stroke-dashoffset="0" style="mix-blend-mode: normal"><path d="M94.02568,252.50001v-145h291.94865v145z" fill="#0f6a2f" fill-rule="nonzero" stroke="none" stroke-width="NaN" stroke-linecap="butt"/><g fill-rule="nonzero" stroke="none" stroke-linecap="butt"><path d="M114.25,157.5c0,-17.76826 3.68517,-34.6758 10.33289,-50h230.83421c6.64772,15.32421 10.3329,32.23174 10.3329,50c0,37.93343 -16.79623,71.94388 -43.35733,95h-164.78534c-26.5611,-23.05612 -43.35733,-57.06657 -43.35733,-95z" fill="#13863b" stroke-width="NaN"/><path d="M148.25,157.5c0,-18.44382 5.44217,-35.61656 14.80829,-50h153.88343c9.36612,14.38344 14.80829,31.55619 14.80829,50c0,50.67212 -41.07788,91.75 -91.75,91.75c-50.67212,0 -91.75,-41.07788 -91.75,-91.75z" fill="#169a44" stroke-width="NaN"/><path d="M173.64394,157.5c0,-19.94573 8.80025,-37.83604 22.72979,-50h87.25255c13.92955,12.16397 22.72979,30.05428 22.72979,50c0,36.64744 -29.70862,66.35607 -66.35606,66.35607c-36.64744,0 -66.35606,-29.70862 -66.35606,-66.35606z" fill="#19b450" stroke-width="NaN"/></g><path d="M90.35135,117.67136c0,-6.39897 5.91545,-12.49566 13.1192,-12.49566c28.93252,0 219.72832,0 272.60996,0c8.61359,0 13.56814,4.64378 13.56814,12.24625c0,30.59212 0,109.0924 0,125.70487c0,6.03964 -4.85913,11.69754 -13.31873,11.69754c-52.46667,0 -243.42599,0 -272.60996,0c-7.3279,0 -13.36861,-4.5235 -13.36861,-11.94695c0,-30.16113 0,-108.19342 0,-125.20604z" fill="none" fill-rule="nonzero" stroke="url(#color-1)" stroke-width="10" stroke-linecap="butt"/><path d="M275.25722,157.5c0,19.46256 -15.79467,35.25722 -35.25722,35.25722c-19.46256,0 -35.25722,-15.79467 -35.25722,-35.25722c0,-19.46256 15.79466,-35.25722 35.25722,-35.25722c19.46256,0 35.25722,15.79466 35.25722,35.25722z" fill="none" fill-rule="nonzero" stroke-opacity="0.50588" stroke="#000000" stroke-width="7.5" stroke-linecap="butt"/><path d="M275.25722,157.5c0,19.46256 -15.79467,35.25722 -35.25722,35.25722c-19.46256,0 -35.25722,-15.79467 -35.25722,-35.25722c0,-19.46256 15.79466,-35.25722 35.25722,-35.25722c19.46256,0 35.25722,15.79466 35.25722,35.25722z" fill="#1ed760" fill-rule="nonzero" stroke="none" stroke-width="1" stroke-linecap="butt"/><path d="M262.54757,153.96006c-0.73926,0 -1.1942,-0.18481 -1.83395,-0.55445c-10.12223,-6.04207 -28.21999,-7.49216 -39.93449,-4.22234c-0.5118,0.14217 -1.15154,0.36964 -1.83394,0.36964c-1.8766,0 -3.31248,-1.46431 -3.31248,-3.35512c0,-1.93346 1.1942,-3.02814 2.47369,-3.39777c5.00425,-1.46431 10.6056,-2.16092 16.70453,-2.16092c10.37814,0 21.25385,2.16092 29.20094,6.79555c1.1089,0.63975 1.83395,1.52117 1.83395,3.21296c0,1.93346 -1.56383,3.31248 -3.29825,3.31248zM258.14041,164.79314c-0.73926,0 -1.23684,-0.32698 -1.74864,-0.5971c-8.88538,-5.26015 -22.13528,-7.37842 -33.92086,-4.17969c-0.6824,0.18481 -1.05203,0.36963 -1.69177,0.36963c-1.52117,0 -2.75803,-1.23685 -2.75803,-2.75803c0,-1.52117 0.73926,-2.53056 2.20358,-2.94284c3.95222,-1.10889 7.98974,-1.93346 13.90385,-1.93346c9.22659,0 18.1404,2.28888 25.16341,6.46856c1.15154,0.6824 1.60648,1.56383 1.60648,2.80067c-0.01422,1.53539 -1.20842,2.77224 -2.75802,2.77224zM254.31614,174.11924c-0.5971,0 -0.96673,-0.18482 -1.52117,-0.5118c-8.87117,-5.34545 -19.19244,-5.57291 -29.38576,-3.48307c-0.55445,0.14217 -1.27949,0.36963 -1.69178,0.36963c-1.37902,0 -2.24622,-1.09468 -2.24622,-2.24623c0,-1.46431 0.86721,-2.16092 1.93345,-2.38839c11.64342,-2.57321 23.54273,-2.34574 33.6934,3.72475c0.86721,0.55445 1.37902,1.05203 1.37902,2.34574c0,1.29371 -1.00939,2.18936 -2.16093,2.18936z" fill="#000000" fill-rule="nonzero" stroke="none" stroke-width="1" stroke-linecap="butt"/><path d="M169.94959,222.10213c0.58544,0.4611 1.5983,1.09575 3.03858,1.90397c1.44028,0.80303 2.81839,1.20455 4.13433,1.20455c1.31594,0 1.97391,-0.51032 1.97391,-1.53095c0,-0.46628 -0.18651,-0.87556 -0.55954,-1.22787c-0.37303,-0.35748 -1.05431,-0.76677 -2.04386,-1.22787c-0.98954,-0.46628 -1.73299,-0.83153 -2.23036,-1.09575c-0.49219,-0.26423 -1.15015,-0.69682 -1.97391,-1.2978c-0.81858,-0.60616 -1.44287,-1.23305 -1.87288,-1.88066c-1.23823,-1.76667 -1.85734,-4.01 -1.85734,-6.72995c0,-2.72513 1.01286,-5.02285 3.03858,-6.89314c2.02572,-1.87547 4.67833,-2.81321 7.95782,-2.81321c2.22778,0 4.28458,0.24091 6.17041,0.72273c1.89102,0.47664 2.86761,1.10352 2.92978,1.88065c0,0.09325 0,0.18392 0,0.272c0,1.08798 -0.34194,2.46091 -1.02581,4.11879c-0.6787,1.65269 -1.15533,2.56971 -1.42992,2.75104c-1.98427,-1.02063 -3.75872,-1.53095 -5.32335,-1.53095c-1.55944,0 -2.33916,0.55694 -2.33916,1.67083c0,0.68388 0.57249,1.28745 1.71746,1.81072c0.24868,0.12434 0.60357,0.29531 1.06466,0.5129c0.46628,0.21759 0.99991,0.47405 1.60089,0.76936c0.60616,0.29013 1.25636,0.66056 1.95059,1.11129c0.69941,0.45074 1.45065,1.04654 2.25368,1.7874c1.64234,1.54908 2.4635,3.59034 2.4635,6.12378c0,3.31058 -0.91442,6.02017 -2.74327,8.12878c-1.82367,2.10343 -4.63947,3.18623 -8.44741,3.2484c-1.85475,0 -3.53334,-0.15543 -5.0358,-0.46628c-1.50245,-0.31085 -2.81062,-0.91443 -3.92451,-1.81072c-1.11389,-0.89629 -1.67083,-1.97909 -1.67083,-3.2484c0,-1.26932 0.23055,-2.53086 0.69165,-3.78463c0.46628,-1.25377 0.96364,-2.08011 1.49209,-2.47904zM203.13823,241.87233c0,0.21759 -1.32371,0.32639 -3.97114,0.32639c-2.64225,0 -3.96336,-0.1088 -3.96336,-0.32639v-23.90453h-1.57757c-0.74605,0 -1.25895,-0.68129 -1.53872,-2.04386c-0.09325,-0.43001 -0.13988,-0.98436 -0.13988,-1.66305c0,-0.68388 0.2176,-1.4895 0.65279,-2.41688c0.6217,-1.36257 1.61125,-2.04386 2.96864,-2.04386c0.90147,0 1.73041,0.20983 2.48682,0.62948c0.75641,0.41447 1.28226,0.80044 1.57757,1.15792c0.29531,0.3523 0.44296,0.55954 0.44296,0.62171c2.07235,-1.60607 4.31566,-2.40911 6.72995,-2.40911c2.41429,0 4.48663,0.93515 6.21704,2.80544c1.73559,1.87029 2.60339,4.76381 2.60339,8.68054c0,3.91673 -0.8678,6.95014 -2.60339,9.1002c-1.73041,2.15006 -3.9271,3.22509 -6.59007,3.22509c-1.20714,0 -2.30549,-0.06217 -3.29503,-0.18651zM205.0422,217.92116c-0.52845,0 -1.03877,0.17097 -1.53095,0.5129v8.21427c0.52327,0.06217 0.9481,0.09325 1.2745,0.09325c0.32639,0 0.58285,0 0.76936,0c1.26413,-0.12434 1.8962,-1.74854 1.8962,-4.8726c0,-2.63188 -0.80303,-3.94782 -2.4091,-3.94782zM220.93467,230.68942c-1.93247,-2.1397 -2.8987,-5.09538 -2.8987,-8.86705c0,-3.77686 0.96623,-6.73254 2.8987,-8.86706c1.93765,-2.13451 4.54621,-3.20178 7.8257,-3.20178c3.27949,0 5.87769,1.06726 7.79461,3.20178c1.9221,2.13451 2.88315,5.0902 2.88315,8.86706c0,3.77167 -0.96105,6.72735 -2.88315,8.86705c-1.91692,2.13451 -4.51512,3.20178 -7.79461,3.20178c-3.27949,0 -5.88806,-1.06726 -7.8257,-3.20178zM228.78368,217.50152c-1.74595,0 -2.61893,1.42474 -2.61893,4.27421c0,2.84429 0.87298,4.26645 2.61893,4.26645c1.75114,0 2.6267,-1.42215 2.6267,-4.26645c0,-2.84948 -0.87556,-4.27421 -2.6267,-4.27421zM253.41212,233.14516c0,0.37303 -1.3004,0.55953 -3.9012,0.55953c-3.09298,-0.12434 -4.63946,-0.3264 -4.63946,-0.60616v-16.42853h-2.37025c-0.6217,0 -0.93255,-1.06726 -0.93255,-3.20177c0,-0.55954 0.0544,-1.24082 0.1632,-2.04386c0.1088,-0.80821 0.33416,-1.21232 0.6761,-1.21232h2.46351v-4.07994c0,-0.6217 1.30557,-0.93255 3.91673,-0.93255c2.61634,0 3.92451,0.24868 3.92451,0.74604v2.96864l0.04663,1.29781h3.94782c0.52327,0 0.7849,1.08539 0.7849,3.25618c0,2.1656 -0.26163,3.2484 -0.7849,3.2484h-3.29504zM268.31023,233.14516c0,0.24868 -1.41697,0.37302 -4.2509,0.37302c-2.82876,0 -4.24313,-0.1088 -4.24313,-0.3264v-22.79323c0,-0.21241 1.41438,-0.31862 4.24313,-0.31862c2.83393,0 4.2509,0.09067 4.2509,0.272zM268.31023,207.61643c0,0.21759 -1.41697,0.3264 -4.2509,0.3264c-2.82876,0 -4.24313,-0.09326 -4.24313,-0.27977v-6.68332c0,-0.31085 1.41438,-0.46628 4.24313,-0.46628c2.83393,0 4.2509,0.09326 4.2509,0.27977zM274.299,216.39023h-2.27699c-0.46628,0 -0.69942,-1.02841 -0.69942,-3.08521c0,-2.06198 0.23314,-3.09297 0.69942,-3.09297h2.27699v-1.01804c0,-3.27949 0.68646,-5.54612 2.05939,-6.79989c1.37811,-1.25377 3.3054,-1.88066 5.78185,-1.88066c2.47645,0 4.6576,0.44815 6.54343,1.34444c0.24868,0.09325 0.37303,0.42742 0.37303,1.0025c0,0.5699 -0.26423,1.4895 -0.79268,2.75881c-0.52327,1.26932 -0.97141,1.99723 -1.34443,2.18374c-1.05172,-0.65279 -2.13451,-0.97919 -3.2484,-0.97919c-1.20715,0 -1.81072,0.80562 -1.81072,2.41687v0.97142h3.85457c0.55953,0 0.8393,0.99214 0.8393,2.97641c0,2.1656 -0.35748,3.2484 -1.07244,3.2484h-2.96864v16.42854c0,0.37303 -1.37034,0.55954 -4.11102,0.55954c-2.7355,0 -4.10325,-0.18651 -4.10325,-0.55954zM288.27086,210.44518c0,-0.33676 1.41437,-0.50513 4.24313,-0.50513c2.83393,0 4.29753,0.15284 4.39078,0.45851l3.34166,10.95754l3.20178,-11.05079c0.12434,-0.2435 1.0828,-0.36525 2.87538,-0.36525c4.11879,0 6.08493,0.19946 5.89842,0.59839l-10.91091,31.05413c-0.03109,0.18651 -0.87556,0.27976 -2.53344,0.27976c-1.65269,0 -3.19142,-0.05439 -4.61616,-0.1632c-1.41956,-0.1088 -2.10084,-0.24092 -2.04385,-0.39634l4.04107,-9.74521z" fill="#ffffff" fill-rule="nonzero" stroke-opacity="0.50588" stroke="#000000" stroke-width="7.5" stroke-linecap="square"/><path d="M169.94959,222.10213c0.58544,0.4611 1.5983,1.09575 3.03858,1.90397c1.44028,0.80303 2.81839,1.20455 4.13433,1.20455c1.31594,0 1.97391,-0.51032 1.97391,-1.53095c0,-0.46628 -0.18651,-0.87556 -0.55954,-1.22787c-0.37303,-0.35748 -1.05431,-0.76677 -2.04386,-1.22787c-0.98954,-0.46628 -1.73299,-0.83153 -2.23036,-1.09575c-0.49219,-0.26423 -1.15015,-0.69682 -1.97391,-1.2978c-0.81858,-0.60616 -1.44287,-1.23305 -1.87288,-1.88066c-1.23823,-1.76667 -1.85734,-4.01 -1.85734,-6.72995c0,-2.72513 1.01286,-5.02285 3.03858,-6.89314c2.02572,-1.87547 4.67833,-2.81321 7.95782,-2.81321c2.22778,0 4.28458,0.24091 6.17041,0.72273c1.89102,0.47664 2.86761,1.10352 2.92978,1.88065c0,0.09325 0,0.18392 0,0.272c0,1.08798 -0.34194,2.46091 -1.02581,4.11879c-0.6787,1.65269 -1.15533,2.56971 -1.42992,2.75104c-1.98427,-1.02063 -3.75872,-1.53095 -5.32335,-1.53095c-1.55944,0 -2.33916,0.55694 -2.33916,1.67083c0,0.68388 0.57249,1.28745 1.71746,1.81072c0.24868,0.12434 0.60357,0.29531 1.06466,0.5129c0.46628,0.21759 0.99991,0.47405 1.60089,0.76936c0.60616,0.29013 1.25636,0.66056 1.95059,1.11129c0.69941,0.45074 1.45065,1.04654 2.25368,1.7874c1.64234,1.54908 2.4635,3.59034 2.4635,6.12378c0,3.31058 -0.91442,6.02017 -2.74327,8.12878c-1.82367,2.10343 -4.63947,3.18623 -8.44741,3.2484c-1.85475,0 -3.53334,-0.15543 -5.0358,-0.46628c-1.50245,-0.31085 -2.81062,-0.91443 -3.92451,-1.81072c-1.11389,-0.89629 -1.67083,-1.97909 -1.67083,-3.2484c0,-1.26932 0.23055,-2.53086 0.69165,-3.78463c0.46628,-1.25377 0.96364,-2.08011 1.49209,-2.47904zM203.13823,241.87233c0,0.21759 -1.32371,0.32639 -3.97114,0.32639c-2.64225,0 -3.96336,-0.1088 -3.96336,-0.32639v-23.90453h-1.57757c-0.74605,0 -1.25895,-0.68129 -1.53872,-2.04386c-0.09325,-0.43001 -0.13988,-0.98436 -0.13988,-1.66305c0,-0.68388 0.2176,-1.4895 0.65279,-2.41688c0.6217,-1.36257 1.61125,-2.04386 2.96864,-2.04386c0.90147,0 1.73041,0.20983 2.48682,0.62948c0.75641,0.41447 1.28226,0.80044 1.57757,1.15792c0.29531,0.3523 0.44296,0.55954 0.44296,0.62171c2.07235,-1.60607 4.31566,-2.40911 6.72995,-2.40911c2.41429,0 4.48663,0.93515 6.21704,2.80544c1.73559,1.87029 2.60339,4.76381 2.60339,8.68054c0,3.91673 -0.8678,6.95014 -2.60339,9.1002c-1.73041,2.15006 -3.9271,3.22509 -6.59007,3.22509c-1.20714,0 -2.30549,-0.06217 -3.29503,-0.18651zM205.0422,217.92116c-0.52845,0 -1.03877,0.17097 -1.53095,0.5129v8.21427c0.52327,0.06217 0.9481,0.09325 1.2745,0.09325c0.32639,0 0.58285,0 0.76936,0c1.26413,-0.12434 1.8962,-1.74854 1.8962,-4.8726c0,-2.63188 -0.80303,-3.94782 -2.4091,-3.94782zM220.93467,230.68942c-1.93247,-2.1397 -2.8987,-5.09538 -2.8987,-8.86705c0,-3.77686 0.96623,-6.73254 2.8987,-8.86706c1.93765,-2.13451 4.54621,-3.20178 7.8257,-3.20178c3.27949,0 5.87769,1.06726 7.79461,3.20178c1.9221,2.13451 2.88315,5.0902 2.88315,8.86706c0,3.77167 -0.96105,6.72735 -2.88315,8.86705c-1.91692,2.13451 -4.51512,3.20178 -7.79461,3.20178c-3.27949,0 -5.88806,-1.06726 -7.8257,-3.20178zM228.78368,217.50152c-1.74595,0 -2.61893,1.42474 -2.61893,4.27421c0,2.84429 0.87298,4.26645 2.61893,4.26645c1.75114,0 2.6267,-1.42215 2.6267,-4.26645c0,-2.84948 -0.87556,-4.27421 -2.6267,-4.27421zM253.41212,233.14516c0,0.37303 -1.3004,0.55953 -3.9012,0.55953c-3.09298,-0.12434 -4.63946,-0.3264 -4.63946,-0.60616v-16.42853h-2.37025c-0.6217,0 -0.93255,-1.06726 -0.93255,-3.20177c0,-0.55954 0.0544,-1.24082 0.1632,-2.04386c0.1088,-0.80821 0.33416,-1.21232 0.6761,-1.21232h2.46351v-4.07994c0,-0.6217 1.30557,-0.93255 3.91673,-0.93255c2.61634,0 3.92451,0.24868 3.92451,0.74604v2.96864l0.04663,1.29781h3.94782c0.52327,0 0.7849,1.08539 0.7849,3.25618c0,2.1656 -0.26163,3.2484 -0.7849,3.2484h-3.29504zM268.31023,233.14516c0,0.24868 -1.41697,0.37302 -4.2509,0.37302c-2.82876,0 -4.24313,-0.1088 -4.24313,-0.3264v-22.79323c0,-0.21241 1.41438,-0.31862 4.24313,-0.31862c2.83393,0 4.2509,0.09067 4.2509,0.272zM268.31023,207.61643c0,0.21759 -1.41697,0.3264 -4.2509,0.3264c-2.82876,0 -4.24313,-0.09326 -4.24313,-0.27977v-6.68332c0,-0.31085 1.41438,-0.46628 4.24313,-0.46628c2.83393,0 4.2509,0.09326 4.2509,0.27977zM274.299,216.39023h-2.27699c-0.46628,0 -0.69942,-1.02841 -0.69942,-3.08521c0,-2.06198 0.23314,-3.09297 0.69942,-3.09297h2.27699v-1.01804c0,-3.27949 0.68646,-5.54612 2.05939,-6.79989c1.37811,-1.25377 3.3054,-1.88066 5.78185,-1.88066c2.47645,0 4.6576,0.44815 6.54343,1.34444c0.24868,0.09325 0.37303,0.42742 0.37303,1.0025c0,0.5699 -0.26423,1.4895 -0.79268,2.75881c-0.52327,1.26932 -0.97141,1.99723 -1.34443,2.18374c-1.05172,-0.65279 -2.13451,-0.97919 -3.2484,-0.97919c-1.20715,0 -1.81072,0.80562 -1.81072,2.41687v0.97142h3.85457c0.55953,0 0.8393,0.99214 0.8393,2.97641c0,2.1656 -0.35748,3.2484 -1.07244,3.2484h-2.96864v16.42854c0,0.37303 -1.37034,0.55954 -4.11102,0.55954c-2.7355,0 -4.10325,-0.18651 -4.10325,-0.55954zM288.27086,210.44518c0,-0.33676 1.41437,-0.50513 4.24313,-0.50513c2.83393,0 4.29753,0.15284 4.39078,0.45851l3.34166,10.95754l3.20178,-11.05079c0.12434,-0.2435 1.0828,-0.36525 2.87538,-0.36525c4.11879,0 6.08493,0.19946 5.89842,0.59839l-10.91091,31.05413c-0.03109,0.18651 -0.87556,0.27976 -2.53344,0.27976c-1.65269,0 -3.19142,-0.05439 -4.61616,-0.1632c-1.41956,-0.1088 -2.10084,-0.24092 -2.04385,-0.39634l4.04107,-9.74521z" fill="#ffffff" fill-rule="nonzero" stroke="none" stroke-width="1" stroke-linecap="square"/><g fill-rule="evenodd" stroke-linecap="butt"><path d="M311.61009,176.91489c-0.19536,-0.4587 -1.26851,-2.92421 -1.60758,-3.71122c-0.83918,-1.95303 -1.64051,-3.88148 -2.51793,-6.06562c-1.69542,-4.23193 -2.05779,-6.14167 -1.08515,-6.866c0.47144,-0.35031 1.08474,-0.31971 1.99181,-0.04271c0.48198,0.14442 6.43437,1.96985 7.9076,1.41099c1.53361,-0.58692 2.59112,-0.62029 3.12808,0.00288c0.50249,0.58373 0.3285,1.46891 -0.27539,2.42915c-1.19816,1.90429 -3.58215,3.49405 -5.63746,3.39149c-0.90181,-0.04758 -1.38859,-0.20945 -2.75434,-0.7924l-0.11322,-0.04662c0.18003,0.60659 0.65943,1.75199 1.58671,3.79722c0.60153,1.32606 4.19419,9.10217 5.32425,11.56428l0.006,0.01286c1.12124,2.63036 -0.91383,5.33998 -4.39932,6.08075c-3.41994,0.72684 -7.05792,-0.66725 -8.15175,-3.20448c-1.1248,-2.63179 0.91427,-5.3379 4.406,-6.07999c0.9416,-0.20012 1.90909,-0.24262 2.85359,-0.13235c0,0 -0.27998,-0.85177 -0.66189,-1.74821z" fill="none" stroke-opacity="0.50588" stroke="#000000" stroke-width="7.5"/><path d="M312.27094,178.66332c-0.08072,-0.32865 -0.27894,-0.85199 -0.66085,-1.74843c-0.19536,-0.4587 -1.26851,-2.92421 -1.60758,-3.71122c-0.83918,-1.95303 -1.64051,-3.88148 -2.51793,-6.06562c-1.69542,-4.23193 -2.05779,-6.14167 -1.08515,-6.866c0.47144,-0.35031 1.08474,-0.31971 1.99181,-0.04271c0.48198,0.14442 2.57186,0.93667 2.44007,0.88965c2.34824,0.85153 3.99429,1.08021 5.46753,0.52134c1.53361,-0.58692 2.59112,-0.62029 3.12808,0.00288c0.50249,0.58373 0.3285,1.46891 -0.27539,2.42915c-1.19816,1.90429 -3.58215,3.49405 -5.63746,3.39149c-0.90181,-0.04758 -1.38859,-0.20945 -2.75434,-0.7924l-0.11322,-0.04662c0.18003,0.60659 0.65943,1.75199 1.58671,3.79722c0.60153,1.32606 4.19419,9.10217 5.32425,11.56428l0.006,0.01286c1.12124,2.63036 -0.91383,5.33998 -4.39932,6.08075c-3.41994,0.72684 -7.05792,-0.66725 -8.15175,-3.20448c-1.1248,-2.63179 0.91427,-5.3379 4.406,-6.07999c0.9416,-0.20012 1.90909,-0.24262 2.85359,-0.13235z" fill="#ffffff" stroke-opacity="0.1" stroke="#000000" stroke-width="0"/></g><g fill-rule="evenodd" stroke-linecap="butt"><path d="M341.76155,152.19975c-0.48235,-0.54887 -3.1071,-3.48841 -3.94011,-4.42833c-2.064,-2.33353 -4.06403,-4.6502 -6.28728,-7.28788c-4.30123,-5.11283 -5.68168,-7.60483 -4.66011,-9.05923c0.49552,-0.70387 1.36323,-0.94261 2.75288,-0.97315c0.73713,-0.02008 9.85985,-0.20974 11.65412,-1.66346c1.86544,-1.52047 3.32212,-2.05202 4.3554,-1.43094c0.96721,0.582 1.13108,1.89393 0.731,3.50754c-0.79421,3.20028 -3.38329,6.50672 -6.29118,7.30681c-1.27708,0.34747 -2.0289,0.34545 -4.19736,0.16053l-0.17897,-0.01296c0.52885,0.76175 1.72158,2.13615 3.9505,4.5576c1.4456,1.56985 10.01348,10.74563 12.71589,13.65433l0.01425,0.01515c2.76732,3.14695 1.17763,7.85209 -3.33413,10.4821c-4.4269,2.58054 -10.13025,2.30892 -12.8167,-0.72096c-2.77294,-3.14729 -1.17606,-7.8494 3.34378,-10.48411c1.21884,-0.71049 2.54603,-1.21347 3.9113,-1.49325c0,0 -0.78045,-1.05717 -1.72327,-2.12976z" fill="none" stroke-opacity="0.50588" stroke="#000000" stroke-width="7.5"/><path d="M343.48347,154.3303c-0.26313,-0.42043 -0.77909,-1.05796 -1.72192,-2.13055c-0.48235,-0.54887 -3.1071,-3.48841 -3.94011,-4.42833c-2.064,-2.33353 -4.06403,-4.6502 -6.28728,-7.28788c-4.30123,-5.11283 -5.68168,-7.60483 -4.66011,-9.05923c0.49552,-0.70387 1.36323,-0.94261 2.75288,-0.97315c0.73713,-0.02008 4.00954,0.12398 3.80452,0.11899c3.65922,0.10806 6.05532,-0.32873 7.8496,-1.78245c1.86544,-1.52047 3.32212,-2.05202 4.3554,-1.43094c0.96721,0.582 1.13108,1.89393 0.731,3.50754c-0.79421,3.20028 -3.38329,6.50672 -6.29118,7.30681c-1.27708,0.34747 -2.0289,0.34545 -4.19736,0.16053l-0.17897,-0.01296c0.52885,0.76175 1.72158,2.13615 3.9505,4.5576c1.4456,1.56985 10.01348,10.74563 12.71589,13.65433l0.01425,0.01515c2.76732,3.14695 1.17763,7.85209 -3.33413,10.4821c-4.4269,2.58054 -10.13025,2.30892 -12.8167,-0.72096c-2.77294,-3.14729 -1.17606,-7.8494 3.34378,-10.48411c1.21884,-0.71049 2.54603,-1.21347 3.9113,-1.49325z" fill="#ffffff" stroke-opacity="0.1" stroke="#000000" stroke-width="0"/></g><g fill-rule="evenodd" stroke-linecap="butt"><path d="M168.38991,176.9149c-0.38191,0.89644 -0.6619,1.74821 -0.6619,1.74821c0.9445,-0.11027 1.91199,-0.06777 2.85359,0.13235c3.49173,0.7421 5.5308,3.44821 4.406,6.07999c-1.09384,2.53723 -4.73182,3.93132 -8.15175,3.20448c-3.48549,-0.74077 -5.52056,-3.45038 -4.39932,-6.08075l0.006,-0.01286c1.13006,-2.46211 4.72271,-10.23822 5.32425,-11.56429c0.92728,-2.04522 1.40668,-3.19062 1.58671,-3.79721l-0.11321,0.04662c-1.36575,0.58295 -1.85253,0.74483 -2.75434,0.7924c-2.0553,0.10255 -4.43929,-1.4872 -5.63745,-3.39149c-0.60388,-0.96024 -0.77789,-1.84542 -0.27539,-2.42915c0.53697,-0.62317 1.59447,-0.5898 3.12808,-0.00288c1.47323,0.55886 7.42562,-1.26657 7.9076,-1.41099c0.90707,-0.27699 1.52036,-0.3076 1.99181,0.04271c0.97264,0.72433 0.61027,2.63407 -1.08515,6.86601c-0.87743,2.18414 -1.67876,4.11258 -2.51794,6.06562c-0.33908,0.78701 -1.41222,3.25252 -1.60758,3.71123z" fill="none" stroke-opacity="0.50588" stroke="#000000" stroke-width="7.5"/><path d="M167.72802,178.66311c0.9445,-0.11027 1.91199,-0.06777 2.85359,0.13235c3.49173,0.7421 5.5308,3.44821 4.406,6.07999c-1.09384,2.53723 -4.73182,3.93132 -8.15175,3.20448c-3.48549,-0.74077 -5.52056,-3.45038 -4.39932,-6.08075l0.006,-0.01286c1.13006,-2.46211 4.72271,-10.23822 5.32425,-11.56429c0.92728,-2.04522 1.40668,-3.19062 1.58671,-3.79721l-0.11321,0.04662c-1.36575,0.58295 -1.85253,0.74483 -2.75434,0.7924c-2.0553,0.10255 -4.43929,-1.4872 -5.63745,-3.39149c-0.60388,-0.96024 -0.77789,-1.84542 -0.27539,-2.42915c0.53697,-0.62317 1.59447,-0.5898 3.12808,-0.00288c1.47323,0.55886 3.11929,0.33019 5.46753,-0.52134c-0.13179,0.04702 1.95809,-0.74523 2.44007,-0.88965c0.90707,-0.27699 1.52036,-0.3076 1.99181,0.04271c0.97264,0.72433 0.61027,2.63407 -1.08515,6.86601c-0.87743,2.18414 -1.67876,4.11258 -2.51794,6.06562c-0.33908,0.78701 -1.41222,3.25252 -1.60758,3.71123c-0.38191,0.89644 -0.58013,1.41978 -0.66085,1.74843z" fill="#ffffff" stroke-opacity="0.1" stroke="#000000" stroke-width="0"/></g><g fill-rule="evenodd" stroke-linecap="butt"><path d="M138.23845,152.19976c-0.94283,1.07259 -1.72327,2.12976 -1.72327,2.12976c1.36527,0.27978 2.69245,0.78276 3.91129,1.49325c4.51984,2.63471 6.11671,7.33683 3.34378,10.48412c-2.68645,3.02988 -8.3898,3.30151 -12.8167,0.72096c-4.51176,-2.63001 -6.10145,-7.33515 -3.33413,-10.4821l0.01425,-0.01514c2.70242,-2.9087 11.27029,-12.08447 12.71589,-13.65433c2.22892,-2.42144 3.42165,-3.79585 3.9505,-4.5576l-0.17898,0.01296c-2.16846,0.18491 -2.92028,0.18693 -4.19736,-0.16053c-2.90789,-0.80008 -5.49697,-4.10652 -6.29118,-7.30681c-0.40008,-1.61361 -0.23621,-2.92554 0.731,-3.50754c1.03329,-0.62108 2.48996,-0.08953 4.3554,1.43094c1.79427,1.45371 10.917,1.64337 11.65413,1.66346c1.38965,0.03054 2.25735,0.26928 2.75287,0.97316c1.02158,1.45441 -0.35887,3.94641 -4.6601,9.05924c-2.22325,2.63768 -4.22329,4.95435 -6.28729,7.28788c-0.833,0.93992 -3.45776,3.87946 -3.94011,4.42833z" fill="none" stroke-opacity="0.50588" stroke="#000000" stroke-width="7.5"/><path d="M136.51518,154.32952c1.36527,0.27978 2.69245,0.78276 3.91129,1.49325c4.51984,2.63471 6.11671,7.33683 3.34378,10.48412c-2.68645,3.02988 -8.3898,3.30151 -12.8167,0.72096c-4.51176,-2.63001 -6.10145,-7.33515 -3.33413,-10.4821l0.01425,-0.01514c2.70242,-2.9087 11.27029,-12.08447 12.71589,-13.65433c2.22892,-2.42144 3.42165,-3.79585 3.9505,-4.5576l-0.17898,0.01296c-2.16846,0.18491 -2.92028,0.18693 -4.19736,-0.16053c-2.90789,-0.80008 -5.49697,-4.10652 -6.29118,-7.30681c-0.40008,-1.61361 -0.23621,-2.92554 0.731,-3.50754c1.03329,-0.62108 2.48996,-0.08953 4.3554,1.43094c1.79428,1.45372 4.19038,1.89051 7.8496,1.78245c-0.20501,0.00499 3.0674,-0.13908 3.80453,-0.11899c1.38965,0.03054 2.25735,0.26928 2.75287,0.97316c1.02158,1.45441 -0.35887,3.94641 -4.6601,9.05924c-2.22325,2.63768 -4.22329,4.95435 -6.28729,7.28788c-0.833,0.93992 -3.45776,3.87946 -3.94011,4.42833c-0.94283,1.07259 -1.4588,1.71012 -1.72192,2.13054z" fill="#ffffff" stroke-opacity="0.1" stroke="#000000" stroke-width="0"/></g></g></g></svg>
