<svg version="1.1" xmlns="http://www.w3.org/2000/svg" xmlns:xlink="http://www.w3.org/1999/xlink" width="309.2973" height="159.64866" viewBox="0,0,309.2973,159.64866"><defs><linearGradient x1="240" y1="105.17567" x2="240" y2="254.82433" gradientUnits="userSpaceOnUse" id="color-1"><stop offset="0" stop-color="#190b44"/><stop offset="1" stop-color="#2c1378"/></linearGradient></defs><g transform="translate(-85.35135,-100.17567)"><g fill-rule="nonzero" stroke-linejoin="miter" stroke-miterlimit="10" stroke-dasharray="" stroke-dashoffset="0" style="mix-blend-mode: normal"><path d="M93.17919,253.32433v-146.64866h293.64163v146.64866z" fill="#4b21cc" stroke="none" stroke-width="0" stroke-linecap="butt"/><g fill="#391899" stroke="#391899" stroke-width="1" stroke-linecap="butt"><path d="M97.16978,162.99343c10.9878,-0.9504 20.44171,4.59779 20.96693,10.66999c0.52523,6.0722 -7.82051,13.33582 -18.80831,14.28623c-10.9878,0.9504 -13.14641,-24.00581 -2.15862,-24.95622zM98.87473,182.70459c7.31573,-0.63279 13.48636,-4.46846 13.13667,-8.51136c-0.34969,-4.0429 -7.0873,-6.76206 -14.40302,-6.12927c-7.31572,0.63279 -6.48636,3.66845 -6.13667,7.71135c0.34969,4.0429 0.0873,7.56206 7.40303,6.92928z"/><path d="M104.01508,179.15768c-0.79062,0.19884 -1.59273,-0.28088 -1.79157,-1.07149l-1.15985,-4.61166c-0.19884,-0.79062 0.28088,-1.59273 1.0715,-1.79157l28.22501,-7.09868c0.79062,-0.19884 1.59273,0.28088 1.79157,1.0715l1.15985,4.61166c0.19884,0.79062 -0.28089,1.59274 -1.0715,1.79157z"/><path d="M119.53406,172.03434c-1.94666,-5.77564 4.50003,-14.64125 14.95119,-18.16376c10.45117,-3.52251 20.94917,-0.36802 22.89582,5.40762c1.94665,5.77564 -4.44409,14.80725 -14.89525,18.32976c-10.45117,3.52251 -21.0051,0.20202 -22.95176,-5.57362zM140.80434,172.61907c6.95844,-2.3453 12.04665,-7.53175 10.75056,-11.37719c-1.29609,-3.84545 -8.48568,-4.89371 -15.44412,-2.54841c-6.95844,2.3453 -12.04666,7.53174 -10.75056,11.37719c1.29609,3.84545 8.48568,4.89371 15.44412,2.54841z"/><path d="M145.71141,167.66772c-0.67241,0.46095 -1.59118,0.28954 -2.05213,-0.38287l-2.68874,-3.92217c-0.46095,-0.67241 -0.28953,-1.59118 0.38288,-2.05213l24.00502,-16.45603c0.67241,-0.46095 1.59119,-0.28954 2.05214,0.38288l2.68873,3.92216c0.46095,0.67241 0.28954,1.59119 -0.38288,2.05214z"/><path d="M157.27237,155.36265c-3.29208,-5.1293 0.80647,-15.29595 10.08808,-21.25303c9.28161,-5.95708 20.23151,-5.44876 23.52358,-0.31946c3.29208,5.1293 -0.71186,15.44338 -9.99347,21.40045c-9.28161,5.95708 -20.32611,5.30134 -23.61819,0.17203zM178.04694,150.76002c6.17973,-3.96625 9.85479,-10.23388 7.66291,-13.64899c-2.19188,-3.41511 -9.42065,-2.68448 -15.60038,1.28177c-6.17973,3.96625 -9.85479,10.23387 -7.66291,13.64899c2.19188,3.41512 9.42065,2.68448 15.60039,-1.28177z"/><path d="M181.60342,144.76447c-0.54021,0.61056 -1.47309,0.6676 -2.08365,0.12739l-3.56141,-3.15104c-0.61056,-0.54021 -0.66759,-1.47309 -0.12738,-2.08365l19.28548,-21.79708c0.54021,-0.61056 1.4731,-0.6676 2.08365,-0.12739l3.5614,3.15103c0.61056,0.54021 0.6676,1.4731 0.12739,2.08366z"/><path d="M189.35117,130.55713c-4.4996,-4.1111 -3.15121,-14.98955 4.28793,-23.13167c7.43913,-8.14212 25.09154,-2.6563 25.25057,0.03324c0.29775,5.03544 -1.9085,11.55566 -6.75762,16.86301c-7.43913,8.14213 -18.28127,10.34652 -22.78087,6.23542zM208.24537,120.77062c4.95301,-5.42106 6.89405,-12.42259 3.8982,-15.15978c-2.99585,-2.73719 -9.79413,-0.17351 -14.74714,5.24755c-4.95301,5.42106 -6.89406,12.4226 -3.89821,15.15979c2.99585,2.73719 9.79414,0.17351 14.74715,-5.24755z"/><path d="M210.14175,114.06249c-0.36517,0.72888 -1.25207,1.02372 -1.98095,0.65855l-4.25154,-2.13005c-0.72887,-0.36517 -1.02371,-1.25207 -0.65853,-1.98095c0,0 1.78703,-3.56686 3.11938,-6.2262c2.37564,-4.74174 10.45764,-3.66642 8.05573,1.12772c-1.68041,3.35407 -4.28409,8.55093 -4.28409,8.55093z"/><path d="M384.94027,213.12714c-0.78687,-0.01548 -1.58437,-0.06379 -2.38953,-0.14724c-10.97006,-1.137 -19.2092,-8.36716 -18.58086,-14.42956c0.62834,-6.06241 10.19323,-11.62336 21.16329,-10.48637c1.08156,0.1121 0.97002,25.08604 -0.1929,25.06317zM384.59042,193.30056c-7.30392,-0.75701 -14.08675,1.84725 -14.50511,5.88362c-0.41836,4.03637 5.68621,7.97636 12.99012,8.73337c1.72978,0.17928 3.43032,0.17004 5.02402,-0.00211c5.13566,-0.55473 5.32344,-12.79292 -0.63118,-14.14222c-0.92874,-0.21045 -1.89238,-0.37054 -2.87786,-0.47268z" data-paper-data="{&quot;index&quot;:null}"/><path d="M378.87381,195.81537c0.81392,-0.0463 1.51128,0.57596 1.55759,1.38988l0.27012,4.7476c0.04631,0.81392 -0.57596,1.51128 -1.38988,1.55758l-29.057,1.65322c-0.81392,0.0463 -1.51127,-0.57596 -1.55758,-1.38988l-0.27012,-4.74759c-0.04631,-0.81392 0.57596,-1.51128 1.38988,-1.55759z" data-paper-data="{&quot;index&quot;:null}"/><path d="M362.2906,199.88694c0.82351,6.03899 -7.17821,13.53107 -18.1059,15.02122c-10.92769,1.49015 -20.64326,-3.58593 -21.46676,-9.62491c-0.82351,-6.03899 7.15454,-13.70463 18.08223,-15.19478c10.92769,-1.49015 20.66692,3.75948 21.49043,9.79847zM341.5115,195.30483c-7.27571,0.99215 -13.25004,5.12694 -12.70174,9.14773c0.54829,4.02078 7.41158,6.40497 14.68729,5.41281c7.27571,-0.99215 13.25004,-5.12693 12.70175,-9.14772c-0.54829,-4.02078 -7.41159,-6.40498 -14.68729,-5.41282z" data-paper-data="{&quot;index&quot;:null}"/><path d="M335.75937,199.24287c0.74722,-0.326 1.61723,0.01546 1.94323,0.76268l1.90154,4.35854c0.32599,0.74722 -0.01547,1.61723 -0.7627,1.94322l-26.67577,11.63811c-0.74722,0.326 -1.61724,-0.01547 -1.94324,-0.76269l-1.90153,-4.35853c-0.32599,-0.74722 0.01547,-1.61724 0.7627,-1.94324z" data-paper-data="{&quot;index&quot;:null}"/><path d="M322.08691,209.14915c2.26662,5.65774 -3.67417,14.87001 -13.91198,18.97149c-10.23781,4.10148 -20.8958,1.53903 -23.16241,-4.11871c-2.26662,-5.65774 3.60904,-15.03261 13.84685,-19.13409c10.23781,-4.10148 20.96093,-1.37643 23.22755,4.28131zM300.81721,209.75488c-6.81638,2.73078 -11.60658,8.19367 -10.09746,11.96062c1.50912,3.76694 8.74608,4.41148 15.56246,1.6807c6.81638,-2.73078 11.60658,-8.19368 10.09747,-11.96062c-1.50912,-3.76694 -8.74608,-4.41148 -15.56246,-1.6807z" data-paper-data="{&quot;index&quot;:null}"/><path d="M296.19471,214.97291c0.64558,-0.49784 1.5725,-0.37807 2.07033,0.2675l2.90388,3.76566c0.49784,0.64558 0.37807,1.57249 -0.26751,2.07033l-23.04714,17.77276c-0.64558,0.49784 -1.5725,0.37807 -2.07033,-0.2675l-2.90387,-3.76565c-0.49784,-0.64558 -0.37807,-1.5725 0.26751,-2.07034z" data-paper-data="{&quot;index&quot;:null}"/><path d="M285.90873,227.46589c3.64436,4.8853 0.27036,15.31481 -8.5697,21.90937c-8.84006,6.59456 -19.79863,6.85694 -23.44299,1.97165c-3.64436,-4.8853 -0.37509,-15.45523 8.46497,-22.04979c8.84006,-6.59456 19.90335,-6.71653 23.54772,-1.83123zM265.50895,233.51695c-5.88576,4.39069 -9.11129,10.90106 -6.68487,14.15372c2.42643,3.25266 9.586,2.01587 15.47175,-2.37482c5.88576,-4.39069 9.11129,-10.90106 6.68487,-14.15372c-2.42643,-3.25266 -9.586,-2.01587 -15.47175,2.37482z" data-paper-data="{&quot;index&quot;:null}"/><path d="M262.38256,239.7476c0.49597,-0.64701 1.42254,-0.76946 2.06955,-0.27349l3.77403,2.893c0.64701,0.49597 0.76944,1.42253 0.27347,2.06954c0,0 -5.287,6.89711 -8.10254,10.57009c-3.06526,3.99876 -11.83846,2.77474 -9.43198,-0.36459c3.24255,-4.23003 11.41748,-14.89455 11.41748,-14.89455z" data-paper-data="{&quot;index&quot;:null}"/><path d="M328.53538,117.0731c-7.59292,7.99891 -18.47508,9.99634 -22.89554,5.80025c-3.26375,-3.09809 -3.26987,-9.82386 0.00643,-16.35106c1.16115,-2.31329 30.63898,-5.55545 29.25633,-0.51909c-1.02337,3.72767 -3.13767,7.66765 -6.36722,11.06989zM314.05897,103.33146c-5.0554,5.32571 -7.1295,12.28899 -4.18634,15.08276c2.94316,2.79377 9.78905,0.36008 14.84445,-4.96563c5.0554,-5.32571 6.9295,-6.08899 3.98635,-8.88276c0,0 -9.58906,-6.56008 -14.64446,-1.23437z" data-paper-data="{&quot;index&quot;:null}"/><path d="M295.5933,132.90063c-0.64834,0.49423 -1.57458,0.36928 -2.06881,-0.27906l-2.88282,-3.78179c-0.49423,-0.64834 -0.36928,-1.57457 0.27906,-2.0688l23.14594,-17.64392c0.64834,-0.49423 1.57458,-0.36929 2.06881,0.27905l2.88282,3.7818c0.49423,0.64834 0.36928,1.57458 -0.27906,2.06881z" data-paper-data="{&quot;index&quot;:null}"/><path d="M293.54487,144.37102c-9.26952,5.97587 -20.31535,5.34252 -23.6178,0.21989c-3.30245,-5.12262 0.77549,-15.29756 10.04501,-21.27343c9.26952,-5.97587 20.22043,-5.48974 23.52288,-0.3671c3.30245,5.12263 -0.68057,15.44478 -9.95008,21.42065zM298.3275,126.28171c-2.19879,-3.41067 -9.42607,-2.6654 -15.59776,1.31336c-6.17169,3.97876 -9.83404,10.25381 -7.63525,13.66448c2.19879,3.41067 9.42608,2.6654 15.59776,-1.31336c6.17169,-3.97876 9.83403,-10.25381 7.63524,-13.66448z" data-paper-data="{&quot;index&quot;:null}"/><path d="M255.92998,149.20731c-0.7796,0.23841 -1.60485,-0.20033 -1.84326,-0.97993l-1.3906,-4.5474c-0.23841,-0.7796 0.20033,-1.60485 0.97993,-1.84325l27.83175,-8.51093c0.7796,-0.23841 1.60485,0.20032 1.84325,0.97992l1.3906,4.54741c0.23841,0.7796 -0.20033,1.60485 -0.97993,1.84325z" data-paper-data="{&quot;index&quot;:null}"/><path d="M252.07517,160.42485c-10.44401,3.54368 -21.00467,0.24459 -22.96301,-5.52711c-1.95835,-5.77168 4.47037,-14.65034 14.91438,-18.19402c10.44401,-3.54368 20.94837,-0.41045 22.90672,5.36124c1.95834,5.77169 -4.41408,14.81621 -14.85809,18.35989zM261.11108,144.04044c-1.30388,-3.84282 -8.49559,-4.87651 -15.44925,-2.51712c-6.95367,2.3594 -12.03136,7.55612 -10.72749,11.39894c1.30388,3.84282 8.49558,4.87652 15.44924,2.51712c6.95366,-2.3594 12.03137,-7.55613 10.7275,-11.39894z" data-paper-data="{&quot;index&quot;:null}"/><path d="M214.41277,155.97367c-0.81417,0.04177 -1.50804,-0.58439 -1.54981,-1.39856l-0.24363,-4.74902c-0.04177,-0.81417 0.58439,-1.50803 1.39855,-1.5498l29.06577,-1.49109c0.81417,-0.04177 1.50804,0.58438 1.54981,1.39855l0.24363,4.74904c0.04177,0.81417 -0.58439,1.50803 -1.39856,1.5498z" data-paper-data="{&quot;index&quot;:null}"/><path d="M208.46274,165.609c-11.00391,0.74088 -20.36217,-5.1612 -20.7716,-11.24231c-0.40944,-6.0811 8.08495,-13.00962 19.08886,-13.75051c11.00391,-0.74088 20.35039,4.98642 20.75982,11.06753c0.40943,6.08111 -8.07317,13.1844 -19.07708,13.92528zM221.40552,152.09674c-0.27261,-4.04883 -6.95717,-6.89587 -14.28362,-6.40259c-7.32646,0.49328 -13.56905,4.21068 -13.29644,8.25951c0.27261,4.04883 6.95717,6.89587 14.28363,6.40259c7.32646,-0.49328 13.56905,-4.21068 13.29644,-8.25951z" data-paper-data="{&quot;index&quot;:null}"/><path d="M173.20889,151.62919c-0.79755,-0.16885 -1.30723,-0.9523 -1.13838,-1.74985l0.9849,-4.65215c0.16885,-0.79755 0.95229,-1.30722 1.74985,-1.13837l28.47288,6.02802c0.79755,0.16885 1.30723,0.95227 1.13838,1.74982l-0.98491,4.65218c-0.16885,0.79755 -0.95228,1.30722 -1.74984,1.13837z" data-paper-data="{&quot;index&quot;:null}"/><path d="M247.43397,209.59186c-1.50344,5.90654 -11.73225,9.84737 -22.42027,7.12684c-10.68802,-2.72053 -17.78789,-11.07221 -16.28445,-16.97874c1.50344,-5.90654 11.77548,-10.01712 22.46349,-7.29659c10.68802,2.72053 17.74467,11.24195 16.24122,17.14849zM229.89408,197.54532c-7.11613,-1.81134 -14.20562,-0.22135 -15.20664,3.71124c-1.00101,3.93259 4.46555,8.71861 11.58168,10.52995c7.11613,1.81134 14.20564,0.22135 15.20665,-3.71124c1.00101,-3.93259 -4.46556,-8.7186 -11.58169,-10.52994z" data-paper-data="{&quot;index&quot;:null}"/><path d="M223.87248,199.20189c0.812,0.07258 1.41144,0.78965 1.33886,1.60165l-0.4233,4.7364c-0.07258,0.812 -0.78965,1.41143 -1.60165,1.33885l-28.98845,-2.59077c-0.812,-0.07258 -1.41143,-0.78965 -1.33885,-1.60165l0.4233,-4.73639c0.07258,-0.812 0.78966,-1.41144 1.60166,-1.33886z" data-paper-data="{&quot;index&quot;:null}"/><path d="M206.87342,200.81809c-0.06364,6.09455 -9.06999,12.34309 -20.09821,12.22793c-11.02822,-0.11516 -19.90214,-6.55041 -19.8385,-12.64495c0.06364,-6.09455 9.07183,-12.51825 20.10006,-12.40309c11.02822,0.11516 19.9003,6.72556 19.83666,12.82011zM186.98178,193.26233c-7.34264,-0.07667 -13.85486,3.14517 -13.89723,7.20294c-0.04237,4.05777 6.40115,7.41489 13.74379,7.49156c7.34264,0.07667 13.85485,-3.14516 13.89722,-7.20293c0.04237,-4.05777 -6.40114,-7.4149 -13.74378,-7.49157z" data-paper-data="{&quot;index&quot;:null}"/><path d="M180.71802,196.32184c0.7867,-0.21384 1.59779,0.25053 1.81163,1.03722l1.24736,4.58877c0.21384,0.7867 -0.25054,1.59778 -1.03723,1.81162l-28.08487,7.63429c-0.7867,0.21384 -1.59779,-0.25053 -1.81163,-1.03723l-1.24735,-4.58876c-0.21384,-0.7867 0.25053,-1.59779 1.03723,-1.81163z" data-paper-data="{&quot;index&quot;:null}"/><path d="M165.75007,204.13407c1.41958,5.92725 -5.79797,14.17745 -16.52347,16.7462c-10.7255,2.56875 -20.89744,-1.51668 -22.31701,-7.44393c-1.41958,-5.92725 5.75718,-14.3478 16.48269,-16.91655c10.7255,-2.56875 20.93822,1.68704 22.3578,7.61428zM144.61846,201.63963c-7.14109,1.71028 -12.67494,6.41833 -11.72978,10.36472c0.94516,3.94639 8.01141,5.63671 15.15249,3.92643c7.14109,-1.71028 12.67494,-6.41834 11.72978,-10.36473c-0.94516,-3.94639 -8.01141,-5.63671 -15.1525,-3.92642z" data-paper-data="{&quot;index&quot;:null}"/><path d="M139.28616,206.12981c0.71113,-0.39864 1.61076,-0.14533 2.0094,0.5658l2.32528,4.14799c0.39864,0.71113 0.14533,1.61076 -0.5658,2.0094l-25.38714,14.23149c-0.71112,0.39864 -1.61077,0.14533 -2.00941,-0.56579l-2.32527,-4.14798c-0.39863,-0.71113 -0.14532,-1.61077 0.5658,-2.00941z" data-paper-data="{&quot;index&quot;:null}"/><path d="M127.29242,216.99381c2.89503,5.36343 -1.96009,15.19127 -11.66534,20.42989c-9.70525,5.23862 -20.58544,3.90426 -23.48046,-1.45916c-2.89504,-5.36343 1.8769,-15.34543 11.58215,-20.58405c9.70525,-5.23862 20.66861,-3.75011 23.56365,1.61332zM106.22945,220.01332c-6.46179,3.4879 -10.59998,9.45987 -8.67246,13.03086c1.92751,3.571 9.19084,3.38873 15.65263,-0.09916c6.46179,-3.4879 10.59998,-9.45986 8.67247,-13.03086c-1.92751,-3.571 -9.19084,-3.38874 -15.65264,0.09916z" data-paper-data="{&quot;index&quot;:null}"/><path d="M102.23004,225.72296c0.5848,-0.56799 1.51933,-0.55436 2.08732,0.03044l3.3131,3.41118c0.56799,0.5848 0.55435,1.51932 -0.03045,2.08731c0,0 -10.89595,10.58269 -14.74989,14.32583c-2.48404,2.41262 -6.18738,-4.73503 -3.11534,-7.71875c3.75075,-3.64292 12.49526,-12.13601 12.49526,-12.13601z" data-paper-data="{&quot;index&quot;:null}"/><path d="M367.53252,140.54455c-10.61545,2.99117 -20.9886,-0.85713 -22.64161,-6.72357c-1.65301,-5.86643 5.23241,-14.39578 15.84786,-17.38695c10.61545,-2.99117 20.94107,0.68852 22.59409,6.55496c1.65301,5.86644 -5.18488,14.56438 -15.80034,17.55555zM377.41511,124.65646c-1.10059,-3.9059 -8.2282,-5.31527 -15.29602,-3.32373c-7.06782,1.99153 -12.41103,6.91488 -11.31044,10.82078c1.10059,3.9059 8.2282,5.31526 15.29602,3.32373c7.06782,-1.99153 12.41103,-6.91487 11.31044,-10.82077z" data-paper-data="{&quot;index&quot;:null}"/><path d="M337.51906,150.56203c-0.63966,0.50541 -1.56793,0.39655 -2.07334,-0.24312l-2.94801,-3.7312c-0.50541,-0.63967 -0.39655,-1.56792 0.24312,-2.07333l22.83628,-18.04291c0.63966,-0.50541 1.56794,-0.39655 2.07335,0.24312l2.948,3.7312c0.50541,0.63967 0.39655,1.56793 -0.24312,2.07334z" data-paper-data="{&quot;index&quot;:null}"/><path d="M342.9128,158.74754c-6.4164,8.97021 -16.91881,12.4503 -21.87604,8.90438c-4.95722,-3.54591 -4.91411,-14.50752 1.50229,-23.47773c6.4164,-8.97021 16.77633,-12.5522 21.73355,-9.00628c4.95722,3.54592 5.0566,14.60942 -1.3598,23.57963zM340.69567,140.16849c-3.30054,-2.36088 -9.74508,0.99427 -14.01715,6.96667c-4.27206,5.97241 -5.36539,13.15529 -2.06484,15.51617c3.30054,2.36088 9.74509,-0.99426 14.01716,-6.96667c4.27206,-5.97241 5.36537,-13.15529 2.06483,-15.51617z" data-paper-data="{&quot;index&quot;:null}"/><path d="M309.72445,177.09974c-0.63696,0.50882 -1.5658,0.40492 -2.07462,-0.23203l-2.96791,-3.71538c-0.50882,-0.63696 -0.40492,-1.5658 0.23203,-2.07461l22.73954,-18.16468c0.63696,-0.50882 1.56579,-0.40493 2.07461,0.23203l2.96792,3.71539c0.50882,0.63696 0.40492,1.56579 -0.23204,2.07461z" data-paper-data="{&quot;index&quot;:null}"/><path d="M310.27284,188.94846c-8.40423,7.14169 -19.43755,7.96476 -23.38428,3.32031c-3.94672,-4.64444 -1.24063,-15.26687 7.16359,-22.40857c8.40423,-7.14169 19.32412,-8.09823 23.27084,-3.45378c3.94672,4.64445 1.35407,15.40034 -7.05016,22.54204zM312.63793,170.38767c-2.62775,-3.0923 -9.69452,-1.40413 -15.2901,3.35083c-5.59557,4.75496 -8.40193,11.45672 -5.77419,14.54901c2.62775,3.0923 9.69452,1.40414 15.2901,-3.35083c5.59557,-4.75496 8.40193,-11.45672 5.77419,-14.54901z" data-paper-data="{&quot;index&quot;:null}"/><path d="M273.61915,198.68376c-0.74153,0.33874 -1.61727,0.0122 -1.95601,-0.72932l-1.97587,-4.32533c-0.33874,-0.74152 -0.01221,-1.61725 0.72932,-1.956l26.47264,-12.09304c0.74153,-0.33874 1.61726,-0.01221 1.956,0.72932l1.97588,4.32534c0.33874,0.74152 0.01221,1.61726 -0.72932,1.956z" data-paper-data="{&quot;index&quot;:null}"/><path d="M271.63683,209.83333c-9.95722,4.74223 -20.83154,2.70243 -23.45225,-2.80025c-2.6207,-5.50267 2.72415,-15.07301 12.68137,-19.81525c9.95722,-4.74223 20.7562,-2.86057 23.3769,2.6421c2.6207,5.50268 -2.64881,15.23116 -12.60602,19.97339zM278.69206,192.50358c-1.74489,-3.6637 -9.00814,-3.84819 -15.6377,-0.69079c-6.62956,3.15741 -11.06383,8.91295 -9.31895,12.57665c1.74489,3.6637 9.00815,3.84819 15.63771,0.69079c6.62956,-3.15741 11.06383,-8.91295 9.31894,-12.57665z" data-paper-data="{&quot;index&quot;:null}"/><path d="M233.71231,209.82282c-0.80367,0.13681 -1.5661,-0.4038 -1.70291,-1.20747l-0.79803,-4.68783c-0.13681,-0.80367 0.40379,-1.56609 1.20746,-1.7029l28.69122,-4.88426c0.80367,-0.13681 1.56609,0.40377 1.7029,1.20745l0.79805,4.68785c0.13681,0.80367 -0.40379,1.56608 -1.20746,1.70289z" data-paper-data="{&quot;index&quot;:null}"/><path d="M369.67385,130.74829c-0.80862,0.10369 -1.54818,-0.46779 -1.65186,-1.27641l-0.60477,-4.71666c-0.10368,-0.80862 0.46778,-1.54818 1.2764,-1.65187c0,0 14.11647,-1.81 19.43664,-2.49215c3.7059,-0.47517 4.25341,7.22523 0.38982,7.72062c-5.29832,0.67935 -18.84623,2.41647 -18.84623,2.41647z" data-paper-data="{&quot;index&quot;:null}"/></g><path d="M90.35135,117.67133c0,-6.39897 5.91545,-12.49566 13.1192,-12.49566c28.93252,0 219.72832,0 272.60996,0c8.61359,0 13.56814,4.64378 13.56814,12.24625c0,30.59212 0,109.0924 0,125.70487c0,6.03964 -4.85913,11.69754 -13.31873,11.69754c-52.46667,0 -243.42599,0 -272.60996,0c-7.3279,0 -13.36861,-4.5235 -13.36861,-11.94695c0,-30.16113 0,-108.19342 0,-125.20604z" fill="none" stroke="url(#color-1)" stroke-width="10" stroke-linecap="butt"/><g fill="none" stroke-opacity="0.50196" stroke="#000000" stroke-width="8" stroke-linecap="butt"><path d="M246.50944,166.28313c-3.56663,2.45181 -8.1157,3.44631 -12.65973,2.37333c-7.83122,-1.8492 -12.92891,-9.19721 -12.16958,-16.98943c-0.50045,0.0475 -1.00765,0.07179 -1.52053,0.07179c-8.77747,0 -15.89313,-7.11565 -15.89313,-15.89313c0,-3.34483 1.0333,-6.44833 2.79808,-9.00873l-1.34812,-1.34816c-1.12749,-1.12749 -1.12749,-2.95877 0,-4.08626c0.56375,-0.56374 1.30344,-0.84562 2.04314,-0.84562c0.7397,0 1.47939,0.28187 2.04314,0.84562l1.34813,1.34813c2.5604,-1.7648 5.66392,-2.79811 9.00876,-2.79811c8.77747,0 15.89313,7.11565 15.89313,15.89313c0,0.51219 -0.02423,1.01872 -0.07161,1.51851c1.68811,-0.1621 3.43115,-0.05464 5.17344,0.35677c3.08285,0.72796 5.74209,2.30806 7.78717,4.43196c0.26265,0.27278 10.23261,-9.94263 17.69311,-2.22045c1.70896,1.7689 0.1096,11.64465 -3.94988,15.48149c-2.10351,1.98815 -7.43463,-12.09259 -12.51705,-9.23915c-5.08242,2.85344 0.8788,15.37451 0.43146,16.0244l31.32732,31.32731c1.12749,1.12749 1.12749,2.95877 0,4.08626c0,0 0,0.00001 -0.00001,0.00001c-0.56492,0.56257 -1.30403,0.84738 -2.04313,0.84738h-0.00001c-0.73911,0 -2.04312,-0.84502 -2.04312,-0.84502v0z"/><path d="M245.82761,157.42744c2.5604,-1.7648 5.66392,-2.79811 9.00876,-2.79811c8.77747,0 15.89547,7.11801 15.89547,15.89313c0,3.34506 -1.03377,6.44909 -2.7992,9.01l-4.08738,4.08705c-2.5607,1.76496 -5.66432,2.79842 -9.00888,2.79842c-8.77747,0 -15.89313,-7.11801 -15.89313,-15.89547c0,-3.34454 1.03312,-6.4478 2.79762,-9.00806z"/><path d="M321.12065,180.86216h-0.00001c-0.4666,0.12978 -0.98321,0.07975 -1.43863,-0.17621c-0.90977,-0.51382 -1.23133,-1.66992 -0.71751,-2.5797l22.1808,-39.27342c-1.56372,-1.30652 -2.761,-3.08436 -3.34832,-5.19599c-1.54123,-5.5413 1.70151,-11.28291 7.24281,-12.82414c2.11163,-0.58732 4.25235,-0.47994 6.17863,0.18462l0.61437,-1.0878c0.51382,-0.90977 1.66992,-1.23133 2.5797,-0.71751c0.90977,0.51382 1.23133,1.66992 0.71751,2.5797l-0.61435,1.08782c1.5637,1.30652 2.76097,3.08436 3.34829,5.19597c1.54123,5.5413 -1.7015,11.28291 -7.2428,12.82414c-2.1115,0.58728 -4.25209,0.47995 -6.17828,-0.18451l-22.18073,39.27479c-0.25785,0.45435 -0.67486,0.76244 -1.14147,0.89222z"/><path d="M333.24096,152.8283c-0.96299,-0.80564 -1.79549,-1.80025 -2.43734,-2.96636c-2.77346,-5.03882 -0.93702,-11.37193 4.10181,-14.14538c2.68034,-1.47531 5.7269,-1.64621 8.4091,-0.72456l3.29883,1.85989c0.96304,0.80566 1.79558,1.80031 2.43746,2.96647c2.77346,5.03882 0.93702,11.37193 -4.10181,14.14538c-2.68028,1.47527 -5.72677,1.6462 -8.40893,0.72462z"/><path d="M325.34186,166.81447c-1.5642,-1.30674 -2.76187,-3.08483 -3.34923,-5.19659c-1.54082,-5.53981 1.70299,-11.28332 7.24429,-12.82455c2.11163,-0.58732 4.25235,-0.47994 6.17863,0.18462l3.29764,1.86254c1.5635,1.30649 2.76062,3.0842 3.34788,5.19563c1.54123,5.54129 -1.7011,11.28439 -7.24239,12.82562c-2.11145,0.58727 -4.25226,0.4798 -6.17876,-0.1848z"/><path d=""/><path d="M158.26807,198.76408v0.00001c-0.15477,0.45892 -0.48639,0.85819 -0.954,1.09115c-0.93618,0.46397 -2.07324,0.08049 -2.53721,-0.85569l-20.02875,-40.41334c-1.95934,0.55962 -4.10274,0.55131 -6.17959,-0.14913c-5.45003,-1.83807 -8.37815,-7.74633 -6.54009,-13.19637c0.70044,-2.07685 1.99193,-3.78749 3.62388,-5.0077l-0.55476,-1.11938c-0.46397,-0.93618 -0.08049,-2.07324 0.85569,-2.53721c0.93618,-0.46397 2.07324,-0.08049 2.53721,0.85569l0.55478,1.11938c1.95934,-0.55961 4.10272,-0.5513 6.17956,0.14914c5.45003,1.83807 8.37815,7.74633 6.54009,13.19636c-0.70039,2.07673 -1.99177,3.78728 -3.62358,5.00748l20.02993,40.41406c0.23101,0.46857 0.25161,0.98663 0.09684,1.44555z"/><path d="M141.88555,172.98789c-1.20749,0.34405 -2.498,0.47399 -3.82329,0.34985c-5.72661,-0.53639 -9.93412,-5.61356 -9.39772,-11.34017c0.28532,-3.0462 1.8555,-5.66255 4.12482,-7.36369l3.39191,-1.68415c1.20754,-0.34408 2.4981,-0.47403 3.82344,-0.34989c5.72661,0.53639 9.93412,5.61356 9.39773,11.34017c-0.28532,3.04613 -1.85543,5.66245 -4.12467,7.36358z"/><path d="M149.01825,187.38002c-1.95979,0.5599 -4.10361,0.55178 -6.1806,-0.1487c-5.44857,-1.83758 -8.37766,-7.74779 -6.53959,-13.19782c0.70044,-2.07685 1.99192,-3.78749 3.62388,-5.0077l3.39343,-1.68168c1.95919,-0.55946 4.10239,-0.55109 6.17905,0.14928c5.45003,1.83807 8.37961,7.74682 6.54154,13.19686c-0.70038,2.07668 -1.99199,3.78734 -3.6241,5.00771z"/><path d=""/><path d="M139.07908,162.42338c1.24654,-4.39506 8.99084,-7.13992 16.94379,-4.88426c7.95296,2.25565 13.10297,8.65766 11.85643,13.05272c-1.24654,4.39506 -9.02666,7.26623 -16.97962,5.01058c-7.95296,-2.25565 -13.06714,-8.78397 -11.8206,-13.17903zM151.97642,171.80604c5.29512,1.50182 10.63942,0.45459 11.46938,-2.47167c0.82996,-2.92625 -3.16872,-6.62339 -8.46384,-8.12521c-5.29512,-1.50182 -10.63942,-0.45459 -11.46937,2.47167c-0.82996,2.92625 3.16872,6.62339 8.46383,8.12521z"/><path d="M155.87727,170.28766c-0.58787,-0.16673 -0.92927,-0.77846 -0.76254,-1.36634l0.97257,-3.42906c0.16673,-0.58787 0.77846,-0.92927 1.36633,-0.76254l20.98709,5.95246c0.58787,0.16673 0.92927,0.77846 0.76254,1.36634l-0.97257,3.42906c-0.16673,0.58787 -0.77846,0.92927 -1.36634,0.76254z"/><path d="M170.29199,167.4438c3.07851,-3.37538 11.23333,-2.37186 17.34116,3.19878c6.10783,5.57064 7.85575,13.5989 4.77724,16.97428c-3.07851,3.37538 -11.32181,2.46887 -17.42964,-3.10177c-6.10783,-5.57064 -7.76727,-13.69591 -4.68876,-17.07129zM177.63992,181.59951c4.06662,3.70896 9.31589,5.15926 11.36558,2.91191c2.04969,-2.24734 0.1236,-7.3413 -3.94302,-11.05026c-4.06662,-3.70896 -9.31589,-5.15926 -11.36558,-2.91192c-2.04969,2.24734 -0.1236,7.34131 3.94302,11.05026z"/><path d="M184.11115,184.79137c-0.58457,-0.17797 -0.9142,-0.79612 -0.73623,-1.3807l1.03806,-3.40981c0.17797,-0.58457 0.79612,-0.9142 1.3807,-0.73623l20.86923,6.35334c0.58457,0.17797 0.9142,0.79612 0.73623,1.3807l-1.03806,3.4098c-0.17797,0.58457 -0.79612,0.91419 -1.3807,0.73623z"/><path d="M195.83935,192.74757c-1.64596,-4.2616 2.89265,-11.11063 10.60412,-14.08903c7.71147,-2.97841 15.6756,-0.95832 17.32156,3.30328c1.64596,4.2616 -2.84534,11.23311 -10.55681,14.21151c-7.71147,2.97841 -15.72291,0.83584 -17.36887,-3.42576zM211.78647,192.49224c5.13432,-1.98303 8.77557,-6.03268 7.67968,-8.87007c-1.09589,-2.83739 -6.51392,-3.38806 -11.64824,-1.40503c-5.13432,1.98303 -8.77557,6.03268 -7.67968,8.87007c1.09589,2.83739 6.51392,3.38806 11.64824,1.40503z"/><path d="M215.61328,188.24134c-0.48063,0.37735 -1.17615,0.29362 -1.55351,-0.187l-2.20107,-2.80351c-0.37735,-0.48063 -0.29362,-1.17615 0.187,-1.5535l17.15844,-13.47136c0.48063,-0.37735 1.17615,-0.29363 1.55351,0.187l2.20107,2.8035c0.37735,0.48063 0.29362,1.17615 -0.187,1.55351z"/><path d="M249.15819,168.93196c-1.22832,3.51688 -4.46123,7.32752 -9.1299,9.67513c-7.3855,3.71375 -15.56725,2.35993 -17.61958,-1.72153c-2.05234,-4.08146 1.79916,-11.33916 9.18466,-15.05291c2.77108,-1.39342 5.64596,-2.08994 8.26504,-2.20078zM238.25552,175.08161c4.9173,-2.47263 8.14773,-6.85698 6.78128,-9.57443c-1.36645,-2.71746 -6.81235,-2.73897 -11.72965,-0.26633c-4.9173,2.47263 -8.14773,6.85699 -6.78128,9.57444c1.36645,2.71746 6.81235,2.73896 11.72965,0.26633z"/><path d="M259.82253,148.18989c-0.49403,0.35962 -1.18605,0.25068 -1.54568,-0.24335l-2.09772,-2.88165c-0.35962,-0.49402 -0.25067,-1.18606 0.24335,-1.54568l17.63677,-12.83877c0.49403,-0.35962 1.18605,-0.25068 1.54567,0.24335l2.09772,2.88165c0.35962,0.49402 0.25068,1.18606 -0.24335,1.54568z"/><path d="M261.56789,142.1927c2.24233,2.05516 0.77921,7.30088 -2.93967,11.35843c-3.71888,4.05755 -8.81753,5.97117 -11.05986,3.91601c-2.24233,-2.05517 -0.7792,-7.30089 2.93967,-11.35844c3.71888,-4.05755 8.81753,-5.97117 11.05986,-3.91601z"/><path d="M285.63803,136.74428c-0.58636,-0.17197 -0.9223,-0.78672 -0.75034,-1.37308l1.00305,-3.42026c0.17197,-0.58636 0.78672,-0.9223 1.37308,-0.75034l20.93325,6.13909c0.58636,0.17197 0.9223,0.78671 0.75034,1.37307l-1.00305,3.42027c-0.17197,0.58636 -0.78672,0.9223 -1.37308,0.75034z"/><path d="M280.32442,143.00104c-8.23639,-0.70669 -14.49569,-6.14683 -14.10514,-10.69852c0.39054,-4.55169 7.47385,-8.71522 15.71024,-8.00853c8.23639,0.70669 14.50692,6.016 14.11638,10.5677c-0.39054,4.55169 -7.48508,8.84604 -15.72147,8.13935zM291.45438,134.46773c0.26002,-3.03053 -4.36716,-5.90237 -9.85099,-6.37289c-5.48383,-0.47052 -10.5326,1.57111 -10.79262,4.60164c-0.26002,3.03053 4.36716,5.90237 9.85099,6.37289c5.48383,0.47052 10.5326,-1.57111 10.79262,-4.60164z"/><path d="M314.86049,148.10801c-0.60561,-0.08143 -1.03055,-0.6384 -0.94912,-1.244l0.47498,-3.53252c0.08143,-0.6056 0.63839,-1.03054 1.244,-0.94911l21.62033,2.90703c0.60561,0.08143 1.03055,0.63839 0.94912,1.244l-0.47498,3.53253c-0.08143,0.6056 -0.63839,1.03055 -1.244,0.94912z"/><path d="M306.22706,150.38738c-6.95243,-4.47228 -9.9456,-12.20629 -7.47407,-16.04842c2.47154,-3.84213 10.67942,-4.21468 17.63184,0.25761c6.95243,4.47228 10.01664,12.09587 7.54511,15.938c-2.47154,3.84213 -10.75045,4.32511 -17.70288,-0.14718zM320.0542,148.04141c1.64555,-2.55811 -1.10424,-7.25884 -5.7332,-10.2365c-4.62896,-2.97767 -10.04673,-3.5309 -11.69228,-0.97279c-1.64555,2.55811 1.10424,7.25884 5.7332,10.2365c4.62896,2.97767 10.04673,3.5309 11.69228,0.97279z"/></g><g fill="#ffffff" stroke-opacity="0.50588" stroke="#000000" stroke-width="8.5" stroke-linecap="butt"><path d=""/><path d=""/></g><path d="M110.01672,227.21626c1.18771,0.66094 2.32075,0.99141 3.39913,0.99141c1.08335,0 1.62503,-0.41992 1.62503,-1.25976c0,-0.38266 -0.15405,-0.72057 -0.46216,-1.01378c-0.30314,-0.2932 -0.86221,-0.62864 -1.6772,-1.00632c-0.815,-0.38266 -1.42625,-0.68083 -1.83375,-0.89451c-0.4075,-0.21866 -0.94917,-0.57647 -1.62503,-1.07341c-0.67088,-0.49695 -1.18523,-1.01378 -1.54303,-1.55049c-1.01378,-1.44613 -1.52067,-3.28981 -1.52067,-5.53106c0,-2.24124 0.83239,-4.12965 2.49718,-5.66523c1.66478,-1.54054 3.84639,-2.31082 6.54483,-2.31082c1.83375,0 3.52587,0.19878 5.07635,0.59634c1.55049,0.39259 2.35057,0.90693 2.40026,1.54303c0,0.07454 0,0.14908 0,0.22363c0,0.89451 -0.28077,2.02259 -0.84233,3.38423c-0.55658,1.35668 -0.94918,2.11205 -1.17777,2.2661c-1.62999,-0.83984 -3.08854,-1.25977 -4.37565,-1.25977c-1.28213,0 -1.9232,0.4572 -1.9232,1.37158c0,0.56155 0.47211,1.0585 1.41631,1.49085c0.20375,0.10436 0.49446,0.24599 0.87215,0.42489c0.38265,0.17394 0.82246,0.38266 1.31941,0.62616c0.49695,0.2435 1.03117,0.54913 1.60266,0.91688c0.57149,0.36775 1.1902,0.85724 1.85611,1.46849c1.34673,1.27219 2.0201,2.95188 2.0201,5.03907c0,2.72329 -0.75039,4.94962 -2.25118,6.67901c-1.50079,1.72939 -3.81658,2.61893 -6.94737,2.66862c-1.52564,0 -2.90715,-0.12672 -4.14456,-0.38016c-1.23244,-0.25344 -2.30833,-0.74792 -3.22769,-1.4834c-0.91439,-0.74046 -1.37158,-1.63247 -1.37158,-2.67607c0,-1.0436 0.19133,-2.07973 0.57398,-3.10842c0.38265,-1.03365 0.79015,-1.71447 1.2225,-2.04246c0,0 1.31441,0.90442 2.49715,1.56536zM134.80745,241.90859c0,0.1789 -1.08831,0.26835 -3.26496,0.26835c-2.17167,0 -3.25751,-0.08945 -3.25751,-0.26835v-19.65686h-1.29704c-0.61125,0 -1.03117,-0.55906 -1.25976,-1.6772c-0.07951,-0.3578 -0.11927,-0.815 -0.11927,-1.37158c0,-0.56155 0.1789,-1.22498 0.53671,-1.99028c0.50689,-1.11814 1.32189,-1.67721 2.44499,-1.67721c0.73549,0 1.41383,0.17145 2.03502,0.51435c0.62616,0.34289 1.0585,0.66094 1.29704,0.95414c0.2435,0.2932 0.36526,0.46465 0.36526,0.51434c1.70453,-1.32189 3.54822,-1.98283 5.53106,-1.98283c1.98781,0 3.69234,0.77028 5.11362,2.31082c1.42624,1.53558 2.13938,3.91348 2.13938,7.13372c0,3.22024 -0.71313,5.71492 -2.13937,7.48407c-1.42128,1.76417 -3.2252,2.64627 -5.41179,2.64627c-0.9939,0 -1.89834,-0.04969 -2.71335,-0.14909zM136.37284,222.21446c-0.43235,0 -0.85227,0.13914 -1.25976,0.41744v6.75355c0.43235,0.05467 0.78269,0.082 1.05105,0.082c0.26836,0 0.47707,0 0.62616,0c1.0436,-0.10436 1.56539,-1.44115 1.56539,-4.01038c0,-2.16174 -0.66095,-3.2426 -1.98283,-3.2426zM156.14598,234.92396c0,0.1789 -1.15789,0.26836 -3.47368,0.26836c-2.31579,-0.05467 -3.47368,-0.15654 -3.47368,-0.30563v-12.67223h-1.02868c-0.4075,0 -0.733,-0.24848 -0.97651,-0.74543c-0.2435,-0.49695 -0.36526,-1.11317 -0.36526,-1.84865c0,-2.74813 0.815,-4.1222 2.445,-4.1222c1.14298,0 2.09713,0.35035 2.86243,1.05105c0.76531,0.69573 1.14796,1.49085 1.14796,2.38536c0.53174,-1.0436 1.24982,-1.87598 2.15427,-2.49717c0.90445,-0.62616 1.8263,-0.93923 2.76553,-0.93923c1.47594,0 2.36796,0.38016 2.67608,1.1405c0.07454,0.20375 0.11181,0.5044 0.11181,0.90197c0,0.39259 -0.12175,1.09826 -0.36525,2.11701c-0.23853,1.01874 -0.48701,1.75672 -0.74543,2.21391c-0.25344,0.45719 -0.40502,0.68579 -0.45471,0.68579c-0.04969,0 -0.28575,-0.09442 -0.70815,-0.28326c-0.41744,-0.19381 -0.79264,-0.29071 -1.12559,-0.29071c-0.96408,0 -1.44612,0.76282 -1.44612,2.28846zM169.88057,234.73015c0,0.20375 -1.16535,0.30563 -3.49604,0.30563c-2.32573,0 -3.48859,-0.08945 -3.48859,-0.26835v-18.73999c0,-0.17394 1.16286,-0.2609 3.48859,-0.2609c2.33069,0 3.49605,0.07454 3.49605,0.22363zM169.88057,213.73897c0,0.1789 -1.16535,0.26836 -3.49604,0.26836c-2.32573,0 -3.48859,-0.07703 -3.48859,-0.23108v-5.49378c0,-0.25344 1.16286,-0.38016 3.48859,-0.38016c2.33069,0 3.49605,0.07703 3.49605,0.23108zM182.0963,234.73015c0,0.30811 -1.06844,0.46217 -3.20533,0.46217c-2.54439,-0.10436 -3.81657,-0.27085 -3.81657,-0.49944v-13.5071h-1.94556c-0.51185,0 -0.76778,-0.87961 -0.76778,-2.63881c0,-0.45719 0.04472,-1.01626 0.13418,-1.6772c0.08945,-0.66094 0.27581,-0.99141 0.55907,-0.99141h2.0201v-3.36187c0,-0.50689 1.07342,-0.76033 3.22024,-0.76033c2.15179,0 3.22769,0.20375 3.22769,0.61125v2.445l0.03727,1.06596h3.25005c0.43235,0 0.64852,0.89203 0.64852,2.67608c0,1.77908 -0.21617,2.66862 -0.64852,2.66862h-2.71335zM195.60458,235.3414c-2.51954,0 -4.644,-0.85723 -6.37338,-2.57171c-1.72939,-1.71945 -2.59408,-4.09984 -2.59408,-7.14117c0,-3.04133 0.83239,-5.48881 2.49718,-7.34243c1.66975,-1.85859 3.77682,-2.78789 6.3212,-2.78789c2.54439,0 4.50982,0.64852 5.89631,1.94556c1.38649,1.29704 2.07974,2.87486 2.07974,4.73345c0,4.11971 -2.36549,6.17958 -7.09645,6.17958h-2.6388c0,0.7653 0.20872,1.29455 0.62616,1.58776c0.4224,0.2932 1.04111,0.43981 1.85611,0.43981c1.78405,0 3.47616,-0.4075 5.07634,-1.2225c0.02485,-0.02485 0.13915,0.15157 0.3429,0.52925c0.61125,1.09826 0.91688,2.02259 0.91688,2.77298c0,0.75039 -0.24102,1.23989 -0.72306,1.46849c0,0 -3.66751,1.40883 -6.18705,1.40883zM197.02089,222.90025c0,-1.06844 -0.52179,-1.60266 -1.56539,-1.60266c-0.48204,0 -0.897,0.1466 -1.24486,0.43981c-0.34289,0.2932 -0.51434,0.71809 -0.51434,1.27468v1.18523h2.06483c0.83984,0 1.25977,-0.43235 1.25977,-1.29704z" fill="none" stroke-opacity="0.5098" stroke="#000000" stroke-width="8.5" stroke-linecap="square"/><path d="M107.51954,225.65087c0.48204,0.38266 1.31443,0.90445 2.49718,1.56539c1.18771,0.66094 2.32075,0.99141 3.39913,0.99141c1.08335,0 1.62503,-0.41992 1.62503,-1.25976c0,-0.38266 -0.15405,-0.72057 -0.46216,-1.01378c-0.30314,-0.2932 -0.86221,-0.62864 -1.6772,-1.00632c-0.815,-0.38266 -1.42625,-0.68083 -1.83375,-0.89451c-0.4075,-0.21866 -0.94917,-0.57647 -1.62503,-1.07341c-0.67088,-0.49695 -1.18523,-1.01378 -1.54303,-1.55049c-1.01378,-1.44613 -1.52067,-3.28981 -1.52067,-5.53106c0,-2.24124 0.83239,-4.12965 2.49718,-5.66523c1.66478,-1.54054 3.84639,-2.31082 6.54483,-2.31082c1.83375,0 3.52587,0.19878 5.07635,0.59634c1.55049,0.39259 2.35057,0.90693 2.40026,1.54303c0,0.07454 0,0.14908 0,0.22363c0,0.89451 -0.28077,2.02259 -0.84233,3.38423c-0.55658,1.35668 -0.94918,2.11205 -1.17777,2.2661c-1.62999,-0.83984 -3.08854,-1.25977 -4.37565,-1.25977c-1.28213,0 -1.9232,0.4572 -1.9232,1.37158c0,0.56155 0.47211,1.0585 1.41631,1.49085c0.20375,0.10436 0.49446,0.24599 0.87215,0.42489c0.38265,0.17394 0.82246,0.38266 1.31941,0.62616c0.49695,0.2435 1.03117,0.54913 1.60266,0.91688c0.57149,0.36775 1.1902,0.85724 1.85611,1.46849c1.34673,1.27219 2.0201,2.95188 2.0201,5.03907c0,2.72329 -0.75039,4.94962 -2.25118,6.67901c-1.50079,1.72939 -3.81658,2.61893 -6.94737,2.66862c-1.52564,0 -2.90715,-0.12672 -4.14456,-0.38016c-1.23244,-0.25344 -2.30833,-0.74792 -3.22769,-1.4834c-0.91439,-0.74046 -1.37158,-1.63247 -1.37158,-2.67607c0,-1.0436 0.19133,-2.07973 0.57398,-3.10842c0.38265,-1.03365 0.79015,-1.71447 1.2225,-2.04246zM134.80745,241.90859c0,0.1789 -1.08831,0.26835 -3.26496,0.26835c-2.17167,0 -3.25751,-0.08945 -3.25751,-0.26835v-19.65686h-1.29704c-0.61125,0 -1.03117,-0.55906 -1.25976,-1.6772c-0.07951,-0.3578 -0.11927,-0.815 -0.11927,-1.37158c0,-0.56155 0.1789,-1.22498 0.53671,-1.99028c0.50689,-1.11814 1.32189,-1.67721 2.44499,-1.67721c0.73549,0 1.41383,0.17145 2.03502,0.51435c0.62616,0.34289 1.0585,0.66094 1.29704,0.95414c0.2435,0.2932 0.36526,0.46465 0.36526,0.51434c1.70453,-1.32189 3.54822,-1.98283 5.53106,-1.98283c1.98781,0 3.69234,0.77028 5.11362,2.31082c1.42624,1.53558 2.13938,3.91348 2.13938,7.13372c0,3.22024 -0.71313,5.71492 -2.13937,7.48407c-1.42128,1.76417 -3.2252,2.64627 -5.41179,2.64627c-0.9939,0 -1.89834,-0.04969 -2.71335,-0.14909zM136.37284,222.21446c-0.43235,0 -0.85227,0.13914 -1.25976,0.41744v6.75355c0.43235,0.05467 0.78269,0.082 1.05105,0.082c0.26836,0 0.47707,0 0.62616,0c1.0436,-0.10436 1.56539,-1.44115 1.56539,-4.01038c0,-2.16174 -0.66095,-3.2426 -1.98283,-3.2426zM156.14598,234.92396c0,0.1789 -1.15789,0.26836 -3.47368,0.26836c-2.31579,-0.05467 -3.47368,-0.15654 -3.47368,-0.30563v-12.67223h-1.02868c-0.4075,0 -0.733,-0.24848 -0.97651,-0.74543c-0.2435,-0.49695 -0.36526,-1.11317 -0.36526,-1.84865c0,-2.74813 0.815,-4.1222 2.445,-4.1222c1.14298,0 2.09713,0.35035 2.86243,1.05105c0.76531,0.69573 1.14796,1.49085 1.14796,2.38536c0.53174,-1.0436 1.24982,-1.87598 2.15427,-2.49717c0.90445,-0.62616 1.8263,-0.93923 2.76553,-0.93923c1.47594,0 2.36796,0.38016 2.67608,1.1405c0.07454,0.20375 0.11181,0.5044 0.11181,0.90197c0,0.39259 -0.12175,1.09826 -0.36525,2.11701c-0.23853,1.01874 -0.48701,1.75672 -0.74543,2.21391c-0.25344,0.45719 -0.40502,0.68579 -0.45471,0.68579c-0.04969,0 -0.28575,-0.09442 -0.70815,-0.28326c-0.41744,-0.19381 -0.79264,-0.29071 -1.12559,-0.29071c-0.96408,0 -1.44612,0.76282 -1.44612,2.28846zM169.88057,234.73015c0,0.20375 -1.16535,0.30563 -3.49604,0.30563c-2.32573,0 -3.48859,-0.08945 -3.48859,-0.26835v-18.73999c0,-0.17394 1.16286,-0.2609 3.48859,-0.2609c2.33069,0 3.49605,0.07454 3.49605,0.22363zM169.88057,213.73897c0,0.1789 -1.16535,0.26836 -3.49604,0.26836c-2.32573,0 -3.48859,-0.07703 -3.48859,-0.23108v-5.49378c0,-0.25344 1.16286,-0.38016 3.48859,-0.38016c2.33069,0 3.49605,0.07703 3.49605,0.23108zM182.0963,234.73015c0,0.30811 -1.06844,0.46217 -3.20533,0.46217c-2.54439,-0.10436 -3.81657,-0.27085 -3.81657,-0.49944v-13.5071h-1.94556c-0.51185,0 -0.76778,-0.87961 -0.76778,-2.63881c0,-0.45719 0.04472,-1.01626 0.13418,-1.6772c0.08945,-0.66094 0.27581,-0.99141 0.55907,-0.99141h2.0201v-3.36187c0,-0.50689 1.07342,-0.76033 3.22024,-0.76033c2.15179,0 3.22769,0.20375 3.22769,0.61125v2.445l0.03727,1.06596h3.25005c0.43235,0 0.64852,0.89203 0.64852,2.67608c0,1.77908 -0.21617,2.66862 -0.64852,2.66862h-2.71335zM201.79161,233.93254c-1.60515,0.93924 -3.66749,1.40885 -6.18703,1.40885c-2.51954,0 -4.644,-0.85723 -6.37338,-2.57171c-1.72939,-1.71945 -2.59408,-4.09984 -2.59408,-7.14117c0,-3.04133 0.83239,-5.48881 2.49718,-7.34243c1.66975,-1.85859 3.77682,-2.78789 6.3212,-2.78789c2.54439,0 4.50982,0.64852 5.89631,1.94556c1.38649,1.29704 2.07974,2.87486 2.07974,4.73345c0,4.11971 -2.36549,6.17958 -7.09645,6.17958h-2.6388c0,0.7653 0.20872,1.29455 0.62616,1.58776c0.4224,0.2932 1.04111,0.43981 1.85611,0.43981c1.78405,0 3.47616,-0.4075 5.07634,-1.2225c0.02485,-0.02485 0.13915,0.15157 0.3429,0.52925c0.61125,1.09826 0.91688,2.02259 0.91688,2.77298c0,0.75039 -0.24102,1.23989 -0.72306,1.46849zM197.02089,222.90025c0,-1.06844 -0.52179,-1.60266 -1.56539,-1.60266c-0.48204,0 -0.897,0.1466 -1.24486,0.43981c-0.34289,0.2932 -0.51434,0.71809 -0.51434,1.27468v1.18523h2.06483c0.83984,0 1.25977,-0.43235 1.25977,-1.29704z" fill="#ffffff" stroke="none" stroke-width="1" stroke-linecap="square"/><path d="M218.01913,234.16121v-24.62608c0,-0.86095 0.39089,-1.29142 1.17268,-1.29142h6.68719c3.75057,0 6.45463,0.77436 8.11221,2.32308c1.66252,1.54377 2.49378,3.78521 2.49378,6.72431c0,2.42946 -0.78673,4.65852 -2.36018,6.68719c-0.78178,1.00939 -1.93466,1.81838 -3.45864,2.42699c-1.51903,0.6086 -3.2904,0.9129 -5.31412,0.9129v6.80594c0,0.30182 -0.47501,0.50964 -1.42502,0.62345c-0.95001,0.11381 -1.7689,0.17071 -2.45667,0.17071c0,0 -3.45122,-0.25236 -3.45122,-0.75706zM225.35203,214.85667v6.00437h0.48985c0.88569,0 1.63283,-0.27709 2.24143,-0.83126c0.6086,-0.55913 0.91291,-1.34585 0.91291,-2.36018c0,-1.01433 -0.21029,-1.73674 -0.63086,-2.16721c-0.41563,-0.43047 -1.15535,-0.64571 -2.21916,-0.64571zM241.08212,221.0466c-0.70757,-1.26668 -1.06134,-2.29833 -1.06134,-3.09496c0,-0.79663 0.21524,-1.30874 0.64571,-1.53634c1.43986,-0.63334 3.41904,-0.95002 5.93757,-0.95002c2.52347,0 4.30474,0.58882 5.34382,1.76643c1.03908,1.17762 1.55861,2.91931 1.55861,5.22507v6.00437h1.29142c0.43047,0 0.76693,0.25482 1.00939,0.76446c0.24245,0.5047 0.36368,1.19988 0.36368,2.08557c0,0.88569 -0.22266,1.75901 -0.66798,2.61996c-0.44532,0.86095 -1.0465,1.29142 -1.80353,1.29142c-1.37059,0 -2.47399,-0.36616 -3.31019,-1.09846c-0.37605,-0.30678 -0.6655,-0.67539 -0.86837,-1.10587c-1.16772,1.46955 -2.98116,2.20432 -5.4403,2.20432c-1.84559,0 -3.40173,-0.65808 -4.66841,-1.97424c-1.26668,-1.31616 -1.90003,-2.87478 -1.90003,-4.67584c0,-4.12661 2.46904,-6.18992 7.40712,-6.18992h2.09299v-0.38594c0,-0.65808 -0.10885,-1.08113 -0.32656,-1.26915c-0.21276,-0.18803 -0.7125,-0.28203 -1.49924,-0.28203c-0.96486,0 -2.33297,0.20039 -4.10435,0.60118zM244.12512,228.04551c0,0.55417 0.15092,0.97722 0.45274,1.26916c0.30182,0.29194 0.68777,0.4379 1.15783,0.4379c0.47006,0 0.89558,-0.1905 1.27658,-0.57149v-2.92425h-1.06876c-1.21226,0 -1.81838,0.59623 -1.81838,1.7887zM266.65849,234.80692c0,0.17813 -1.15288,0.2672 -3.45863,0.2672c-2.30575,-0.05443 -3.45864,-0.15586 -3.45864,-0.3043v-12.61734h-1.02423c-0.40573,0 -0.72983,-0.2474 -0.97228,-0.7422c-0.24245,-0.4948 -0.36367,-1.10835 -0.36367,-1.84064c0,-2.73622 0.81147,-4.10435 2.43441,-4.10435c1.13804,0 2.08805,0.34884 2.85004,1.0465c0.76199,0.69272 1.14298,1.48439 1.14298,2.37503c0.52943,-1.03908 1.24442,-1.86786 2.14495,-2.48635c0.90053,-0.62345 1.81838,-0.93517 2.75355,-0.93517c1.46955,0 2.35771,0.37852 2.66449,1.13556c0.07422,0.20287 0.11133,0.50222 0.11133,0.89806c0,0.39089 -0.12122,1.09351 -0.36367,2.10784c-0.2375,1.01433 -0.4849,1.74911 -0.74219,2.20432c-0.25235,0.45522 -0.40327,0.68283 -0.45274,0.68283c-0.04948,0 -0.28451,-0.09401 -0.70508,-0.28204c-0.41563,-0.19297 -0.7892,-0.28945 -1.12071,-0.28945c-0.95991,0 -1.43986,0.75951 -1.43986,2.27854zM281.58792,235.22255c-2.50862,0 -4.62389,-0.85352 -6.34578,-2.56057c-1.72189,-1.712 -2.58284,-4.08208 -2.58284,-7.11024c0,-3.02816 0.82878,-5.46504 2.48635,-7.31063c1.66252,-1.85054 3.76046,-2.77582 6.29383,-2.77582c2.53336,0 4.49029,0.64572 5.87078,1.93714c1.38048,1.29142 2.07073,2.8624 2.07073,4.71295c0,4.10187 -2.35525,6.15281 -7.06571,6.15281h-2.62737c0,0.76199 0.20782,1.28895 0.62345,1.58088c0.42057,0.29194 1.0366,0.4379 1.84807,0.4379c1.77632,0 3.46111,-0.40573 5.05436,-1.2172c0.02474,-0.02474 0.13854,0.15091 0.34141,0.52696c0.6086,1.09351 0.9129,2.01383 0.9129,2.76097c0,0.74714 -0.23998,1.23452 -0.71993,1.46213c0,0 -3.65162,1.40273 -6.16025,1.40273zM282.99809,222.83529c0,-1.06382 -0.51954,-1.59572 -1.55861,-1.59572c-0.47996,0 -0.8931,0.14596 -1.23946,0.4379c-0.34141,0.29194 -0.51212,0.71498 -0.51212,1.26915v1.1801h2.05589c0.8362,0 1.25431,-0.43047 1.25431,-1.29142zM299.78893,234.61395c0,0.17813 -0.91043,0.26719 -2.73129,0.26719c-2.53337,-0.07422 -3.80004,-0.21276 -3.80004,-0.41563v-12.31304h-0.98712c-0.65808,0 -1.08855,-0.55664 -1.29142,-1.66994c-0.05443,-0.33151 -0.08164,-0.66055 -0.08164,-0.98712c0,-0.78673 0.15338,-1.57346 0.46016,-2.36019c0.45521,-1.11329 1.16277,-1.66993 2.12268,-1.66993c0.96486,0 1.82581,0.22761 2.58285,0.68282c0.76199,0.45522 1.27162,0.91043 1.52892,1.36564c1.59325,-1.36564 3.4908,-2.04846 5.69265,-2.04846c2.2068,0 3.80252,0.59623 4.78717,1.7887c0.9896,1.18751 1.48439,3.13701 1.48439,5.84851v11.40014c0,0.30182 -1.08361,0.45274 -3.25082,0.45274c-2.16227,0 -3.24339,-0.15091 -3.24339,-0.45273v-10.98451c0,-1.26668 -0.44285,-1.90002 -1.32853,-1.90002c-0.2573,0 -0.61355,0.10885 -1.06876,0.32657c-0.45522,0.21276 -0.74715,0.3711 -0.87579,0.475zM321.52874,234.61395c0,0.30678 -1.06382,0.46016 -3.19145,0.46016c-2.53336,-0.10391 -3.80004,-0.26967 -3.80004,-0.49727v-13.4486h-1.93713c-0.50964,0 -0.76446,-0.87579 -0.76446,-2.62738c0,-0.45522 0.04454,-1.01186 0.1336,-1.66994c0.08906,-0.65808 0.27461,-0.98712 0.55664,-0.98712h2.01136v-3.3473c0,-0.5047 1.06877,-0.75704 3.20629,-0.75704c2.14248,0 3.21371,0.20287 3.21371,0.6086v2.43441l0.03711,1.06134h3.23598c0.43047,0 0.64572,0.88816 0.64572,2.66449c0,1.77137 -0.21524,2.65706 -0.64571,2.65706h-2.7016zM333.72421,234.61395c0,0.20287 -1.1603,0.3043 -3.4809,0.3043c-2.31565,0 -3.47348,-0.08906 -3.47348,-0.26719v-18.65882c0,-0.17318 1.15783,-0.25977 3.47348,-0.25977c2.32059,0 3.4809,0.07422 3.4809,0.22266zM333.72421,213.71369c0,0.17813 -1.1603,0.26719 -3.4809,0.26719c-2.31565,0 -3.47348,-0.07669 -3.47348,-0.23008v-5.46998c0,-0.25235 1.15783,-0.37852 3.47348,-0.37852c2.32059,0 3.4809,0.07669 3.4809,0.23008zM345.08545,234.61395c0,0.17813 -0.91043,0.26719 -2.73128,0.26719c-2.53337,-0.07422 -3.80005,-0.21276 -3.80005,-0.41563v-12.31304h-0.98711c-0.65808,0 -1.08856,-0.55664 -1.29143,-1.66994c-0.05443,-0.33151 -0.08163,-0.66055 -0.08163,-0.98712c0,-0.78673 0.15338,-1.57346 0.46016,-2.36019c0.45521,-1.11329 1.16277,-1.66993 2.12268,-1.66993c0.96486,0 1.8258,0.22761 2.58284,0.68282c0.76199,0.45522 1.27163,0.91043 1.52893,1.36564c1.59325,-1.36564 3.4908,-2.04846 5.69265,-2.04846c2.2068,0 3.80252,0.59623 4.78717,1.7887c0.9896,1.18751 1.48439,3.13701 1.48439,5.84851v11.40014c0,0.30182 -1.08361,0.45274 -3.25082,0.45274c-2.16227,0 -3.2434,-0.15091 -3.2434,-0.45273v-10.98451c0,-1.26668 -0.44284,-1.90002 -1.32853,-1.90002c-0.2573,0 -0.61356,0.10885 -1.06877,0.32657c-0.45522,0.21276 -0.74714,0.3711 -0.87579,0.475zM365.07367,234.84403c-2.4542,0 -4.35423,-0.79168 -5.70007,-2.37503c-1.3409,-1.58335 -2.01135,-3.92621 -2.01135,-7.0286c0,-3.10238 0.88074,-5.53431 2.64222,-7.29579c1.76148,-1.76148 4.10435,-2.64222 7.0286,-2.64222c2.9292,0 5.34382,0.64571 7.24384,1.93713v18.92601c0,1.87528 -0.76199,3.31268 -2.28597,4.31217c-1.51903,0.99949 -3.46854,1.49924 -5.84851,1.49924c-2.37998,0 -6.76883,-1.06578 -6.76883,-1.54573c0,-1.62293 0.2672,-3.81292 0.80158,-4.56996c1.69715,0.7323 3.50811,1.09845 5.43288,1.09845c1.39533,0 2.09299,-0.49232 2.09299,-1.47697v-1.14298c-1.08856,0.20287 -1.96435,0.3043 -2.62737,0.3043zM366.82525,221.69231c-1.69716,0 -2.54573,1.28152 -2.54573,3.84458c0,1.59325 0.32904,2.62985 0.98713,3.1098c0.43047,0.33151 0.86094,0.49728 1.29142,0.49728c0.43047,0 0.81147,-0.0371 1.14298,-0.11133v-7.22157c-0.30678,-0.07917 -0.59871,-0.11875 -0.87579,-0.11875z" fill="none" stroke-opacity="0.5098" stroke="#000000" stroke-width="8.5" stroke-linecap="square"/><path d="M221.47034,234.91825c-2.30081,0 -3.45121,-0.25235 -3.45121,-0.75704v-24.62608c0,-0.86095 0.39089,-1.29142 1.17268,-1.29142h6.68719c3.75057,0 6.45463,0.77436 8.11221,2.32308c1.66252,1.54377 2.49378,3.78521 2.49378,6.72431c0,2.42946 -0.78673,4.65852 -2.36018,6.68719c-0.78178,1.00939 -1.93466,1.81838 -3.45864,2.42699c-1.51903,0.6086 -3.2904,0.9129 -5.31412,0.9129v6.80594c0,0.30182 -0.47501,0.50964 -1.42502,0.62345c-0.95001,0.11381 -1.7689,0.17071 -2.45667,0.17071zM225.35203,214.85667v6.00437h0.48985c0.88569,0 1.63283,-0.27709 2.24143,-0.83126c0.6086,-0.55913 0.91291,-1.34585 0.91291,-2.36018c0,-1.01433 -0.21029,-1.73674 -0.63086,-2.16721c-0.41563,-0.43047 -1.15535,-0.64571 -2.21916,-0.64571zM241.08212,221.0466c-0.70757,-1.26668 -1.06134,-2.29833 -1.06134,-3.09496c0,-0.79663 0.21524,-1.30874 0.64571,-1.53634c1.43986,-0.63334 3.41904,-0.95002 5.93757,-0.95002c2.52347,0 4.30474,0.58882 5.34382,1.76643c1.03908,1.17762 1.55861,2.91931 1.55861,5.22507v6.00437h1.29142c0.43047,0 0.76693,0.25482 1.00939,0.76446c0.24245,0.5047 0.36368,1.19988 0.36368,2.08557c0,0.88569 -0.22266,1.75901 -0.66798,2.61996c-0.44532,0.86095 -1.0465,1.29142 -1.80353,1.29142c-1.37059,0 -2.47399,-0.36616 -3.31019,-1.09846c-0.37605,-0.30678 -0.6655,-0.67539 -0.86837,-1.10587c-1.16772,1.46955 -2.98116,2.20432 -5.4403,2.20432c-1.84559,0 -3.40173,-0.65808 -4.66841,-1.97424c-1.26668,-1.31616 -1.90003,-2.87478 -1.90003,-4.67584c0,-4.12661 2.46904,-6.18992 7.40712,-6.18992h2.09299v-0.38594c0,-0.65808 -0.10885,-1.08113 -0.32656,-1.26915c-0.21276,-0.18803 -0.7125,-0.28203 -1.49924,-0.28203c-0.96486,0 -2.33297,0.20039 -4.10435,0.60118zM244.12512,228.04551c0,0.55417 0.15092,0.97722 0.45274,1.26916c0.30182,0.29194 0.68777,0.4379 1.15783,0.4379c0.47006,0 0.89558,-0.1905 1.27658,-0.57149v-2.92425h-1.06876c-1.21226,0 -1.81838,0.59623 -1.81838,1.7887zM266.65849,234.80692c0,0.17813 -1.15288,0.2672 -3.45863,0.2672c-2.30575,-0.05443 -3.45864,-0.15586 -3.45864,-0.3043v-12.61734h-1.02423c-0.40573,0 -0.72983,-0.2474 -0.97228,-0.7422c-0.24245,-0.4948 -0.36367,-1.10835 -0.36367,-1.84064c0,-2.73622 0.81147,-4.10435 2.43441,-4.10435c1.13804,0 2.08805,0.34884 2.85004,1.0465c0.76199,0.69272 1.14298,1.48439 1.14298,2.37503c0.52943,-1.03908 1.24442,-1.86786 2.14495,-2.48635c0.90053,-0.62345 1.81838,-0.93517 2.75355,-0.93517c1.46955,0 2.35771,0.37852 2.66449,1.13556c0.07422,0.20287 0.11133,0.50222 0.11133,0.89806c0,0.39089 -0.12122,1.09351 -0.36367,2.10784c-0.2375,1.01433 -0.4849,1.74911 -0.74219,2.20432c-0.25235,0.45522 -0.40327,0.68283 -0.45274,0.68283c-0.04948,0 -0.28451,-0.09401 -0.70508,-0.28204c-0.41563,-0.19297 -0.7892,-0.28945 -1.12071,-0.28945c-0.95991,0 -1.43986,0.75951 -1.43986,2.27854zM287.74815,233.8198c-1.5982,0.93517 -3.65161,1.40275 -6.16023,1.40275c-2.50862,0 -4.62389,-0.85352 -6.34578,-2.56057c-1.72189,-1.712 -2.58284,-4.08208 -2.58284,-7.11024c0,-3.02816 0.82878,-5.46504 2.48635,-7.31063c1.66252,-1.85054 3.76046,-2.77582 6.29383,-2.77582c2.53336,0 4.49029,0.64572 5.87078,1.93714c1.38048,1.29142 2.07073,2.8624 2.07073,4.71295c0,4.10187 -2.35525,6.15281 -7.06571,6.15281h-2.62737c0,0.76199 0.20782,1.28895 0.62345,1.58088c0.42057,0.29194 1.0366,0.4379 1.84807,0.4379c1.77632,0 3.46111,-0.40573 5.05436,-1.2172c0.02474,-0.02474 0.13854,0.15091 0.34141,0.52696c0.6086,1.09351 0.9129,2.01383 0.9129,2.76097c0,0.74714 -0.23998,1.23452 -0.71993,1.46213zM282.99809,222.83529c0,-1.06382 -0.51954,-1.59572 -1.55861,-1.59572c-0.47996,0 -0.8931,0.14596 -1.23946,0.4379c-0.34141,0.29194 -0.51212,0.71498 -0.51212,1.26915v1.1801h2.05589c0.8362,0 1.25431,-0.43047 1.25431,-1.29142zM299.78893,234.61395c0,0.17813 -0.91043,0.26719 -2.73129,0.26719c-2.53337,-0.07422 -3.80004,-0.21276 -3.80004,-0.41563v-12.31304h-0.98712c-0.65808,0 -1.08855,-0.55664 -1.29142,-1.66994c-0.05443,-0.33151 -0.08164,-0.66055 -0.08164,-0.98712c0,-0.78673 0.15338,-1.57346 0.46016,-2.36019c0.45521,-1.11329 1.16277,-1.66993 2.12268,-1.66993c0.96486,0 1.82581,0.22761 2.58285,0.68282c0.76199,0.45522 1.27162,0.91043 1.52892,1.36564c1.59325,-1.36564 3.4908,-2.04846 5.69265,-2.04846c2.2068,0 3.80252,0.59623 4.78717,1.7887c0.9896,1.18751 1.48439,3.13701 1.48439,5.84851v11.40014c0,0.30182 -1.08361,0.45274 -3.25082,0.45274c-2.16227,0 -3.24339,-0.15091 -3.24339,-0.45273v-10.98451c0,-1.26668 -0.44285,-1.90002 -1.32853,-1.90002c-0.2573,0 -0.61355,0.10885 -1.06876,0.32657c-0.45522,0.21276 -0.74715,0.3711 -0.87579,0.475zM321.52874,234.61395c0,0.30678 -1.06382,0.46016 -3.19145,0.46016c-2.53336,-0.10391 -3.80004,-0.26967 -3.80004,-0.49727v-13.4486h-1.93713c-0.50964,0 -0.76446,-0.87579 -0.76446,-2.62738c0,-0.45522 0.04454,-1.01186 0.1336,-1.66994c0.08906,-0.65808 0.27461,-0.98712 0.55664,-0.98712h2.01136v-3.3473c0,-0.5047 1.06877,-0.75704 3.20629,-0.75704c2.14248,0 3.21371,0.20287 3.21371,0.6086v2.43441l0.03711,1.06134h3.23598c0.43047,0 0.64572,0.88816 0.64572,2.66449c0,1.77137 -0.21524,2.65706 -0.64571,2.65706h-2.7016zM333.72421,234.61395c0,0.20287 -1.1603,0.3043 -3.4809,0.3043c-2.31565,0 -3.47348,-0.08906 -3.47348,-0.26719v-18.65882c0,-0.17318 1.15783,-0.25977 3.47348,-0.25977c2.32059,0 3.4809,0.07422 3.4809,0.22266zM333.72421,213.71369c0,0.17813 -1.1603,0.26719 -3.4809,0.26719c-2.31565,0 -3.47348,-0.07669 -3.47348,-0.23008v-5.46998c0,-0.25235 1.15783,-0.37852 3.47348,-0.37852c2.32059,0 3.4809,0.07669 3.4809,0.23008zM345.08545,234.61395c0,0.17813 -0.91043,0.26719 -2.73128,0.26719c-2.53337,-0.07422 -3.80005,-0.21276 -3.80005,-0.41563v-12.31304h-0.98711c-0.65808,0 -1.08856,-0.55664 -1.29143,-1.66994c-0.05443,-0.33151 -0.08163,-0.66055 -0.08163,-0.98712c0,-0.78673 0.15338,-1.57346 0.46016,-2.36019c0.45521,-1.11329 1.16277,-1.66993 2.12268,-1.66993c0.96486,0 1.8258,0.22761 2.58284,0.68282c0.76199,0.45522 1.27163,0.91043 1.52893,1.36564c1.59325,-1.36564 3.4908,-2.04846 5.69265,-2.04846c2.2068,0 3.80252,0.59623 4.78717,1.7887c0.9896,1.18751 1.48439,3.13701 1.48439,5.84851v11.40014c0,0.30182 -1.08361,0.45274 -3.25082,0.45274c-2.16227,0 -3.2434,-0.15091 -3.2434,-0.45273v-10.98451c0,-1.26668 -0.44284,-1.90002 -1.32853,-1.90002c-0.2573,0 -0.61356,0.10885 -1.06877,0.32657c-0.45522,0.21276 -0.74714,0.3711 -0.87579,0.475zM365.07367,234.84403c-2.4542,0 -4.35423,-0.79168 -5.70007,-2.37503c-1.3409,-1.58335 -2.01135,-3.92621 -2.01135,-7.0286c0,-3.10238 0.88074,-5.53431 2.64222,-7.29579c1.76148,-1.76148 4.10435,-2.64222 7.0286,-2.64222c2.9292,0 5.34382,0.64571 7.24384,1.93713v18.92601c0,1.87528 -0.76199,3.31268 -2.28597,4.31217c-1.51903,0.99949 -3.46854,1.49924 -5.84851,1.49924c-2.37998,0 -4.50761,-0.3043 -6.38289,-0.9129c-0.2573,-0.6086 -0.38595,-1.15288 -0.38595,-1.63283c0,-1.62293 0.2672,-2.81292 0.80158,-3.56996c1.69715,0.7323 3.50811,1.09845 5.43288,1.09845c1.39533,0 2.09299,-0.49232 2.09299,-1.47697v-1.14298c-1.08856,0.20287 -1.96435,0.3043 -2.62737,0.3043zM366.82525,221.69231c-1.69716,0 -2.54573,1.28152 -2.54573,3.84458c0,1.59325 0.32904,2.62985 0.98713,3.1098c0.43047,0.33151 0.86094,0.49728 1.29142,0.49728c0.43047,0 0.81147,-0.0371 1.14298,-0.11133v-7.22157c-0.30678,-0.07917 -0.59871,-0.11875 -0.87579,-0.11875z" fill="#ffffff" stroke="none" stroke-width="1" stroke-linecap="square"/><path d="M277.97697,197.61514l-48.67253,-48.67412c-2.56031,1.76461 -5.66366,2.79779 -9.0083,2.79779c-8.77747,0 -15.89313,-7.11565 -15.89313,-15.89313c0,-3.34483 1.0333,-6.44833 2.79808,-9.00873l-1.34811,-1.34816c-1.12749,-1.12749 -1.12749,-2.95877 0,-4.08626c1.12749,-1.12749 2.95877,-1.12749 4.08626,0l1.34813,1.34813c2.5604,-1.7648 5.66392,-2.79811 9.00876,-2.79811c8.77747,0 15.89313,7.11565 15.89313,15.89313c0,3.34484 -1.0333,6.44837 -2.79811,9.00876l48.67208,48.67208c1.12749,1.12749 1.12749,2.95877 0,4.08626c-0.56492,0.56257 -1.30403,0.84738 -2.04313,0.84738h-0.00001c-0.73911,0 -1.47821,-0.28245 -2.04313,-0.84502z" fill="#ffffff" stroke="none" stroke-width="1" stroke-linecap="butt"/><path d="M277.97697,197.61514l-31.33099,-31.33202c-3.56663,2.45181 -8.1157,3.44631 -12.65973,2.37333c-8.54261,-2.01718 -13.8325,-10.57758 -11.81531,-19.12018c0.46685,-1.97707 1.28417,-3.77992 2.37063,-5.35828l-18.6886,-18.6892c-1.12749,-1.12749 -1.12749,-2.95877 0,-4.08626c1.12749,-1.12749 2.95877,-1.12749 4.08626,0l18.69191,18.69191c3.56667,-2.45192 8.11583,-3.4465 12.65996,-2.37348c8.54261,2.01718 13.8325,10.57758 11.81531,19.12018c-0.46683,1.97699 -1.28411,3.77977 -2.3705,5.35808l31.32731,31.32731c1.12749,1.12749 1.12749,2.95877 0,4.08626c-0.56492,0.56257 -1.30403,0.84738 -2.04313,0.84738h-0.00001c-0.73911,0 -1.47821,-0.28245 -2.04313,-0.84502z" fill="#ffffff" stroke="none" stroke-width="1" stroke-linecap="butt"/><path d="M277.97697,197.61514l-13.99518,-13.99564c-2.5607,1.76496 -5.66432,2.79842 -9.00888,2.79842c-8.77747,0 -15.89313,-7.11801 -15.89313,-15.89547c0,-3.34454 1.03312,-6.4478 2.79762,-9.00806l-36.02442,-36.0256c-1.12749,-1.12749 -1.12749,-2.95877 0,-4.08626c1.12749,-1.12749 2.95877,-1.12749 4.08626,0l36.0249,36.0249c2.5604,-1.7648 5.66392,-2.79811 9.00876,-2.79811c8.77747,0 15.89547,7.11801 15.89547,15.89313c0,3.34506 -1.03378,6.4491 -2.79921,9.01001l13.99406,13.99406c1.12749,1.12749 1.12749,2.95877 0,4.08626c-0.56492,0.56257 -1.30403,0.84738 -2.04313,0.84738h-0.00001c-0.73911,0 -1.47821,-0.28245 -2.04313,-0.84502z" fill="#ffffff" stroke="none" stroke-width="1" stroke-linecap="butt"/><path d="M205.85298,125.48879c-1.12749,-1.12749 -1.12749,-2.95877 0,-4.08626c1.12749,-1.12749 2.95877,-1.12749 4.08626,0l72.12399,72.12399c0.56405,0.56405 0.84592,1.30422 0.84562,2.04431c0.0003,0.74008 -0.28157,1.48026 -0.84562,2.04431c-0.56492,0.56021 -1.30403,0.84502 -2.04313,0.84502h-0.00001c-0.73911,0 -1.47821,-0.28245 -2.04313,-0.84502l-17.70087,-17.70087c-0.01236,-0.01234 -0.02459,-0.02476 -0.03667,-0.03725z" fill="#ffffff" stroke="none" stroke-width="1" stroke-linecap="butt"/><path d="M321.25718,180.86215h-0.00001c-0.4666,0.12978 -0.98321,0.07975 -1.43863,-0.17621c-0.90977,-0.51382 -1.23133,-1.66992 -0.71751,-2.5797l22.1808,-39.27342c-1.56372,-1.30652 -2.761,-3.08436 -3.34832,-5.19599c-1.54123,-5.5413 1.70151,-11.28291 7.24281,-12.82414c2.11163,-0.58732 4.25235,-0.47994 6.17863,0.18462l0.61437,-1.0878c0.51382,-0.90977 1.66992,-1.23133 2.5797,-0.71751c0.90977,0.51382 1.23133,1.66992 0.71751,2.5797l-0.61435,1.08782c1.5637,1.30652 2.76097,3.08436 3.34829,5.19597c1.54123,5.5413 -1.7015,11.28291 -7.2428,12.82414c-2.1115,0.58728 -4.25209,0.47995 -6.17828,-0.18451l-22.18073,39.27479c-0.25785,0.45435 -0.67486,0.76244 -1.14147,0.89222z" fill="#ffffff" stroke="none" stroke-width="1" stroke-linecap="butt"/><path d="M321.25718,180.86215h-0.00001c-0.4666,0.12978 -0.98321,0.07975 -1.43863,-0.17621c-0.90977,-0.51382 -1.23133,-1.66992 -0.71751,-2.5797l14.27646,-25.27795c-0.96299,-0.80564 -1.79549,-1.80025 -2.43734,-2.96636c-2.77346,-5.03882 -0.93702,-11.37193 4.10181,-14.14538c2.68034,-1.47531 5.7269,-1.64621 8.4091,-0.72456l8.51827,-15.08248c0.51382,-0.90977 1.66992,-1.23133 2.5797,-0.71751c0.90977,0.51382 1.23133,1.66992 0.71751,2.5797l-8.51665,15.08018c0.96304,0.80566 1.79558,1.80031 2.43746,2.96647c2.77346,5.03882 0.93702,11.37193 -4.10181,14.14538c-2.68028,1.47527 -5.72677,1.6462 -8.40893,0.72462l-14.27795,25.28157c-0.25785,0.45435 -0.67486,0.76244 -1.14147,0.89222z" fill="#ffffff" stroke="none" stroke-width="1" stroke-linecap="butt"/><path d="M321.25718,180.86215h-0.00001c-0.4666,0.12978 -0.98321,0.07975 -1.43863,-0.17621c-0.90977,-0.51382 -1.23133,-1.66992 -0.71751,-2.5797l6.37736,-11.29178c-1.5642,-1.30674 -2.76187,-3.08483 -3.34923,-5.19659c-1.54082,-5.53981 1.70299,-11.28332 7.24429,-12.82455c2.11163,-0.58732 4.25235,-0.47994 6.17863,0.18462l16.41724,-29.06844c0.51382,-0.90977 1.66992,-1.23133 2.5797,-0.71751c0.90977,0.51382 1.23133,1.66992 0.71751,2.5797l-16.41681,29.06879c1.5635,1.30649 2.76062,3.0842 3.34788,5.19563c1.54123,5.54129 -1.7011,11.28439 -7.24239,12.82562c-2.11145,0.58727 -4.25226,0.4798 -6.17876,-0.1848l-6.3778,11.29298c-0.25785,0.45435 -0.67486,0.76244 -1.14147,0.89222z" fill="#ffffff" stroke="none" stroke-width="1" stroke-linecap="butt"/><path d="M330.48188,165.65716c-0.00544,0.01001 -0.01097,0.02 -0.01661,0.02996l-8.06663,14.2828c-0.25785,0.45435 -0.67486,0.76244 -1.14147,0.89222h-0.00001c-0.4666,0.12978 -0.98321,0.07975 -1.43822,-0.17472c-0.45513,-0.25705 -0.76305,-0.67484 -0.89281,-1.14211c-0.13014,-0.46717 -0.08216,-0.98394 0.17489,-1.43907l32.86829,-58.19673c0.51382,-0.90977 1.66992,-1.23133 2.5797,-0.71751c0.90977,0.51382 1.23133,1.66992 0.71751,2.5797z" fill="#ffffff" stroke="none" stroke-width="1" stroke-linecap="butt"/><path d="M158.4046,198.76407v0.00001c-0.15477,0.45892 -0.48639,0.85819 -0.954,1.09115c-0.93618,0.46397 -2.07324,0.08049 -2.53721,-0.85569l-20.02875,-40.41334c-1.95934,0.55962 -4.10274,0.55131 -6.17959,-0.14913c-5.45003,-1.83807 -8.37815,-7.74633 -6.54009,-13.19637c0.70044,-2.07685 1.99193,-3.78749 3.62388,-5.0077l-0.55476,-1.11938c-0.46397,-0.93618 -0.08049,-2.07324 0.85569,-2.53721c0.93618,-0.46397 2.07324,-0.08049 2.53721,0.85569l0.55478,1.11938c1.95934,-0.55961 4.10272,-0.5513 6.17956,0.14914c5.45003,1.83807 8.37815,7.74633 6.54009,13.19636c-0.70039,2.07673 -1.99177,3.78728 -3.62358,5.00748l20.02993,40.41406c0.23101,0.46857 0.25161,0.98663 0.09684,1.44555z" fill="#ffffff" stroke="none" stroke-width="1" stroke-linecap="butt"/><path d="M158.4046,198.76407v0.00001c-0.15477,0.45892 -0.48639,0.85819 -0.954,1.09115c-0.93618,0.46397 -2.07324,0.08049 -2.53721,-0.85569l-12.89131,-26.01166c-1.20749,0.34405 -2.498,0.47399 -3.82329,0.34985c-5.72661,-0.53639 -9.93412,-5.61356 -9.39772,-11.34017c0.28532,-3.0462 1.8555,-5.66255 4.12482,-7.36369l-7.6918,-15.52025c-0.46397,-0.93618 -0.08049,-2.07324 0.85569,-2.53721c0.93618,-0.46397 2.07324,-0.08049 2.53721,0.85569l7.69081,15.51762c1.20754,-0.34408 2.4981,-0.47403 3.82344,-0.34989c5.72661,0.53639 9.93412,5.61356 9.39773,11.34017c-0.28532,3.04613 -1.85543,5.66245 -4.12467,7.36358l12.89347,26.01493c0.23101,0.46857 0.25161,0.98663 0.09684,1.44555z" fill="#ffffff" stroke="none" stroke-width="1" stroke-linecap="butt"/><path d="M158.4046,198.76407v0.00001c-0.15477,0.45892 -0.48639,0.85819 -0.954,1.09115c-0.93618,0.46397 -2.07324,0.08049 -2.53721,-0.85569l-5.75861,-11.61953c-1.95979,0.5599 -4.10361,0.55178 -6.1806,-0.1487c-5.44857,-1.83758 -8.37766,-7.74779 -6.53959,-13.19782c0.70044,-2.07685 1.99192,-3.78749 3.62388,-5.0077l-14.82439,-29.91216c-0.46397,-0.93618 -0.08049,-2.07324 0.85569,-2.53721c0.93618,-0.46397 2.07324,-0.08049 2.53721,0.85569l14.82492,29.912c1.95919,-0.55946 4.10239,-0.55109 6.17905,0.14928c5.45003,1.83807 8.37961,7.74682 6.54154,13.19686c-0.70038,2.07668 -1.99199,3.78734 -3.6241,5.00771l5.75936,11.62056c0.23101,0.46857 0.25161,0.98663 0.09684,1.44555z" fill="#ffffff" stroke="none" stroke-width="1" stroke-linecap="butt"/><path d="M151.00833,182.59058c0.00523,0.01013 0.01038,0.02031 0.01545,0.03057l7.28398,14.69737c0.23101,0.46857 0.25161,0.98663 0.09684,1.44555v0.00001c-0.15477,0.45892 -0.48639,0.85819 -0.95254,1.09164c-0.46834,0.23211 -0.98695,0.25213 -1.44642,0.09696c-0.45959,-0.15479 -0.86015,-0.48481 -1.09225,-0.95315l-29.67931,-59.88592c-0.46397,-0.93618 -0.08049,-2.07324 0.85569,-2.53721c0.93618,-0.46397 2.07324,-0.08049 2.53721,0.85569z" fill="#ffffff" stroke="none" stroke-width="1" stroke-linecap="butt"/><path d="M139.21562,162.42337c1.24655,-4.39506 8.99083,-7.13992 16.94379,-4.88426c7.95296,2.25566 13.10297,8.65766 11.85643,13.05272c-1.24655,4.39506 -9.02666,7.26624 -16.97962,5.01058c-7.95296,-2.25566 -13.06714,-8.78398 -11.8206,-13.17903zM152.11296,171.80604c5.29512,1.50183 10.63942,0.45458 11.46937,-2.47167c0.82996,-2.92625 -3.16872,-6.62339 -8.46384,-8.12522c-5.29512,-1.50183 -10.63942,-0.45458 -11.46937,2.47167c-0.82996,2.92625 3.16872,6.62339 8.46384,8.12522z" fill="#ffffff" stroke="#ffffff" stroke-width="0.5" stroke-linecap="butt"/><path d="M156.0138,170.28766c-0.58787,-0.16674 -0.92927,-0.77847 -0.76254,-1.36634l0.97257,-3.42906c0.16674,-0.58787 0.77847,-0.92927 1.36634,-0.76254l20.98709,5.95246c0.58787,0.16674 0.92927,0.77847 0.76254,1.36634l-0.97257,3.42906c-0.16674,0.58787 -0.77847,0.92927 -1.36634,0.76254z" fill="#ffffff" stroke="#ffffff" stroke-width="0.5" stroke-linecap="butt"/><path d="M170.42853,167.4438c3.07851,-3.37538 11.23334,-2.37185 17.34117,3.19879c6.10783,5.57064 7.85575,13.5989 4.77724,16.97428c-3.07851,3.37538 -11.32182,2.46887 -17.42964,-3.10177c-6.10783,-5.57064 -7.76727,-13.69591 -4.68876,-17.07129zM177.77645,181.5995c4.06662,3.70896 9.31589,5.15926 11.36558,2.91192c2.04969,-2.24734 0.1236,-7.34131 -3.94301,-11.05026c-4.06662,-3.70896 -9.31589,-5.15926 -11.36558,-2.91192c-2.04969,2.24734 -0.1236,7.34131 3.94301,11.05026z" fill="#ffffff" stroke="#ffffff" stroke-width="0.5" stroke-linecap="butt"/><path d="M184.24768,184.79136c-0.58457,-0.17796 -0.91419,-0.79612 -0.73623,-1.38069l1.03807,-3.40981c0.17796,-0.58457 0.79612,-0.91419 1.38069,-0.73623l20.86923,6.35334c0.58457,0.17796 0.91419,0.79612 0.73623,1.38069l-1.03807,3.4098c-0.17796,0.58457 -0.79612,0.91419 -1.38069,0.73623z" fill="#ffffff" stroke="#ffffff" stroke-width="0.5" stroke-linecap="butt"/><path d="M195.97588,192.74756c-1.64596,-4.2616 2.89266,-11.11063 10.60412,-14.08903c7.71146,-2.9784 15.6756,-0.95832 17.32156,3.30328c1.64596,4.2616 -2.84535,11.23311 -10.55681,14.21152c-7.71146,2.9784 -15.72291,0.83584 -17.36887,-3.42576zM211.92301,192.49223c5.13433,-1.98303 8.77557,-6.03268 7.67968,-8.87007c-1.09588,-2.83739 -6.51392,-3.38806 -11.64824,-1.40503c-5.13433,1.98303 -8.77557,6.03268 -7.67968,8.87007c1.09588,2.83739 6.51392,3.38806 11.64824,1.40503z" fill="#ffffff" stroke="#ffffff" stroke-width="0.5" stroke-linecap="butt"/><path d="M215.74981,188.24134c-0.48063,0.37735 -1.17616,0.29362 -1.55351,-0.187l-2.20108,-2.80351c-0.37735,-0.48063 -0.29362,-1.17615 0.187,-1.5535l17.15844,-13.47136c0.48063,-0.37735 1.17616,-0.29362 1.55351,0.187l2.20107,2.8035c0.37735,0.48063 0.29362,1.17615 -0.187,1.5535z" fill="#ffffff" stroke="#ffffff" stroke-width="0.5" stroke-linecap="butt"/><path d="M222.54524,176.88557c-2.05234,-4.08146 1.79917,-11.33916 9.18467,-15.05291c7.3855,-3.71375 15.50826,-2.47723 17.5606,1.60423c2.05234,4.08146 -1.74018,11.45647 -9.12568,15.17022c-7.3855,3.71375 -15.56725,2.35993 -17.61959,-1.72153zM238.39206,175.08161c4.9173,-2.47263 8.14773,-6.85698 6.78128,-9.57444c-1.36645,-2.71745 -6.81235,-2.73896 -11.72965,-0.26633c-4.9173,2.47263 -8.14773,6.85698 -6.78128,9.57444c1.36645,2.71745 6.81235,2.73896 11.72965,0.26633z" fill="#ffffff" stroke="#ffffff" stroke-width="0.5" stroke-linecap="butt"/><path d="M259.95907,148.18988c-0.49403,0.35963 -1.18606,0.25068 -1.54568,-0.24335l-2.09772,-2.88165c-0.35963,-0.49403 -0.25068,-1.18605 0.24335,-1.54568l17.63676,-12.83878c0.49403,-0.35963 1.18605,-0.25068 1.54568,0.24335l2.09772,2.88166c0.35963,0.49403 0.25068,1.18606 -0.24335,1.54568z" fill="#ffffff" stroke="#ffffff" stroke-width="0.5" stroke-linecap="butt"/><path d="M261.67384,156.2174c-5.58554,6.0942 -13.71485,7.7338 -17.0827,4.64705c-3.36785,-3.08675 -2.34441,-11.23909 3.24113,-17.3333c5.58554,-6.0942 13.61805,-7.82252 16.9859,-4.73577c3.36785,3.08675 2.44121,11.32781 -3.14433,17.42202zM261.70442,142.19269c-2.24233,-2.05516 -7.34098,-0.14154 -11.05986,3.91601c-3.71887,4.05755 -5.182,9.30327 -2.93967,11.35843c2.24233,2.05516 7.34098,0.14154 11.05986,-3.91601c3.71887,-4.05755 5.182,-9.30327 2.93967,-11.35843z" fill="#ffffff" stroke="#ffffff" stroke-width="0.5" stroke-linecap="butt"/><path d="M285.77457,136.74428c-0.58636,-0.17196 -0.92231,-0.78672 -0.75034,-1.37308l1.00306,-3.42026c0.17196,-0.58636 0.78672,-0.9223 1.37308,-0.75033l20.93325,6.13909c0.58636,0.17196 0.9223,0.78671 0.75034,1.37307l-1.00306,3.42027c-0.17196,0.58636 -0.78671,0.92231 -1.37307,0.75034z" fill="#ffffff" stroke="#ffffff" stroke-width="0.5" stroke-linecap="butt"/><path d="M280.46095,143.00103c-8.23639,-0.70669 -14.49569,-6.14683 -14.10514,-10.69852c0.39055,-4.55169 7.47385,-8.71522 15.71024,-8.00853c8.23639,0.70669 14.50692,6.016 14.11638,10.5677c-0.39055,4.55169 -7.48508,8.84604 -15.72147,8.13935zM291.59091,134.46772c0.26002,-3.03053 -4.36716,-5.90237 -9.85099,-6.37289c-5.48383,-0.47052 -10.53259,1.57111 -10.79261,4.60164c-0.26002,3.03053 4.36716,5.90237 9.85099,6.37289c5.48383,0.47052 10.53259,-1.57111 10.79261,-4.60164z" fill="#ffffff" stroke="#ffffff" stroke-width="0.5" stroke-linecap="butt"/><path d="M314.99702,148.108c-0.60561,-0.08143 -1.03055,-0.6384 -0.94911,-1.244l0.47498,-3.53252c0.08143,-0.60561 0.63839,-1.03054 1.244,-0.94911l21.62033,2.90703c0.60561,0.08143 1.03054,0.63839 0.94911,1.24399l-0.47498,3.53253c-0.08143,0.60561 -0.63839,1.03055 -1.244,0.94912z" fill="#ffffff" stroke="#ffffff" stroke-width="0.5" stroke-linecap="butt"/><path d="M306.3636,150.38738c-6.95242,-4.47229 -9.9456,-12.20629 -7.47407,-16.04842c2.47153,-3.84213 10.67941,-4.21468 17.63184,0.2576c6.95242,4.47229 10.01664,12.09586 7.54511,15.93799c-2.47153,3.84213 -10.75045,4.32511 -17.70288,-0.14718zM320.19073,148.04141c1.64555,-2.55811 -1.10425,-7.25884 -5.7332,-10.23651c-4.62895,-2.97767 -10.04672,-3.5309 -11.69228,-0.97279c-1.64555,2.55811 1.10425,7.25884 5.7332,10.23651c4.62895,2.97767 10.04672,3.5309 11.69228,0.97279z" fill="#ffffff" stroke="#ffffff" stroke-width="0.5" stroke-linecap="butt"/></g></g></svg>
