<svg version="1.1" xmlns="http://www.w3.org/2000/svg" xmlns:xlink="http://www.w3.org/1999/xlink" width="309.2973" height="159.64866" viewBox="0,0,309.2973,159.64866"><defs><linearGradient x1="240.00005" y1="105.17574" x2="240.00005" y2="254.82439" gradientUnits="userSpaceOnUse" id="color-1"><stop offset="0" stop-color="#204d4d"/><stop offset="1" stop-color="#2e7373"/></linearGradient></defs><g transform="translate(-85.35139,-100.17573)"><g fill-rule="nonzero" stroke-linejoin="miter" stroke-miterlimit="10" stroke-dasharray="" stroke-dashoffset="0" style="mix-blend-mode: normal"><path d="M93.17922,253.32439v-146.64866h293.64163v146.64866z" fill="#3d9999" stroke="none" stroke-width="0" stroke-linecap="butt"/><g fill="none" stroke="#36b3b3" stroke-width="4" stroke-linecap="butt"><path d="M94.14987,237.71046c-3.22076,-9.73192 0,-10.87405 0,-21.7481c0,-17.84581 0,-17.84581 0,-35.69162c0,-17.84581 0,-17.84581 0,-35.69162c0,-15.86612 -8.54665,-24.86516 0,-31.72747c9.64288,-7.73794 20.38197,4.19733 36.37906,2.52697c2.98308,-0.30933 -1.39211,-5.95812 1.58128,-6.49112c15.21615,-2.71256 17.39889,0 34.79778,0c18.18953,0 18.18953,0 36.37906,0c18.18953,0 18.18953,0 36.37906,0c18.18953,0 18.18953,0 36.37906,0c9.8854,0 19.77081,-5.65831 19.77081,0c0,11.50222 3.96289,28.15355 -10.06972,32.41751c-1.47736,0.44891 -9.22573,-0.38071 -12.49984,3.51206c-2.51299,2.98782 -2.43012,9.07995 3.40508,9.99365c15.54069,2.43344 18.54847,-0.47589 35.77274,-4.02602c4.42854,-0.91371 5.87886,-1.92259 6.93142,-6.20558c4.10841,-16.66561 -5.20463,-25.27443 3.39053,-35.69162c6.13108,-7.42862 13.02855,0 26.05711,0c18.18953,0 26.17352,-7.83312 36.37906,0c7.98399,6.1342 3.52149,15.66624 0,27.93464c-1.60068,5.57741 -10.22979,11.63547 -10.73425,17.27475c-1.43576,16.08502 2.84532,18.26596 3.94349,21.41497c1.09817,3.14901 6.47547,6.48636 6.79076,9.36548c1.62493,14.96669 0,15.54251 0,31.08502c0,15.54251 1.78015,16.21827 0,31.08502c-0.35894,2.97906 -1.27569,4.22589 -4.27818,4.6066c-15.18704,1.92259 -16.05044,0 -32.10088,0c-18.18953,0 -18.18953,0 -36.37906,0c-15.58964,0 -9.98726,5.07297 -20.39168,-1.30869c-7.78512,-4.77316 8.777,-41.47114 -16.83623,-32.66021c-15.55222,5.34995 5.27254,29.42893 -2.13424,33.96891c-10.78275,6.61485 -16.70041,0 -33.39598,0c-18.18953,0 -18.18953,0 -36.37906,0c-18.18953,0 -18.18953,0 -36.37906,0c-18.18953,0 -18.18953,0 -36.37906,0c-12.28642,0 -14.18783,3.97843 -24.56799,0c-7.80937,-2.99334 -9.12387,-5.82963 -11.81107,-13.94353" data-paper-data="{&quot;index&quot;:null}"/><path d="M166.90798,216.93793c-4.0696,-0.12373 -7.47953,-2.77919 -7.47953,-3.94987c0,-1.29918 0.74213,-7.1526 3.35657,-10.62659c10.81671,-14.37183 10.81671,-9.30362 22.89941,-22.09074c6.10683,-6.46732 9.16267,-6.77665 17.60261,-6.77665c5.60723,0 10.24434,1.43242 10.49172,6.77665c0.72083,15.53533 3.29295,37.01301 -12.5532,37.3953c-17.98581,0.45685 -16.1523,-0.17608 -34.31758,-0.72811" data-paper-data="{&quot;index&quot;:null}"/><path d="M94.14987,223.77169c-2.45922,0 0,-3.90704 0,-7.80933c0,-17.84581 0,-17.84581 0,-35.69162c0,-17.84581 0,-17.84581 0,-35.69162c0,-3.46923 -1.93537,-6.93845 0,-6.93845c3.5991,0 5.56842,3.42164 11.07379,6.93845c12.68417,8.10914 12.73267,16.31821 25.30527,16.31821c12.20881,0 19.48947,-4.71605 24.25271,-16.31821c5.91281,-14.40038 -7.19335,-23.05203 -2.90062,-35.69162c1.77045,-5.20622 7.51349,0 15.02698,0c9.33729,0 10.13763,-2.64594 18.67943,0c9.64773,2.98858 9.08506,11.26904 17.69963,11.26904c7.67356,0 6.39786,-8.64213 14.88146,-11.26904c9.70593,-3.00761 10.7488,0 21.4976,0c18.18953,0 36.37906,-5.40133 36.37906,0c0,6.49588 -19.49433,10.54093 -36.37906,23.79442c-5.8546,4.59232 -3.32747,7.21923 -9.09476,11.89721c-12.42224,10.07931 -12.22821,13.64848 -27.28429,17.62214c-16.77317,4.42576 -21.5364,-6.40546 -36.37906,-0.82805c-9.19178,3.45495 -4.0308,11.05489 -11.69466,18.89752c-10.52567,10.76935 -12.64051,8.80393 -24.6844,18.32646c-10.53053,8.32329 -9.49251,9.76999 -20.46443,17.36516c-7.21761,4.99207 -10.41896,7.80933 -15.91463,7.80933" data-paper-data="{&quot;index&quot;:null}"/><path d="M130.52892,230.23901c14.49827,-6.63388 18.27199,-2.04632 36.37906,-1.07551c18.27199,0.98033 19.65439,8.48985 36.37906,4.98255c14.74079,-3.09327 19.95998,-5.50603 26.54701,-18.18369c7.40678,-14.25761 -1.77045,-18.45495 1.43576,-35.69162c1.70739,-9.17513 3.38568,-17.13198 8.39629,-17.13198c5.60723,0 10.7197,7.27633 12.83938,17.13198c3.56515,16.55615 -2.86667,18.00761 -1.46971,35.69162c1.42606,18.00761 10.90887,23.7849 7.11574,35.69162c-1.89171,5.93909 -9.24028,0 -18.48541,0c-18.18953,0 -18.18953,0 -36.37906,0c-18.18953,0 -18.18953,0 -36.37906,0c-18.18953,0 -18.18953,0 -36.37906,0c-6.37846,0 -12.75692,3.59296 -12.75692,0c0,-7.11453 2.6872,-16.80362 12.75692,-21.41497" data-paper-data="{&quot;index&quot;:null}"/><path d="M306.82671,215.96236c-4.26848,-18.63103 -17.61717,-20.22525 -15.95828,-35.69162c1.13988,-10.65514 11.12229,-7.87595 21.55581,-16.5514c11.03013,-9.17037 16.36088,-7.00032 21.36663,-19.14023c6.30085,-15.27601 -4.20057,-22.7427 1.24659,-35.69162c2.06148,-4.89689 6.88292,0 13.76584,0c18.18953,0 24.34002,-6.03426 36.37906,0c6.15049,3.08376 4.4916,11.28331 0,18.23604c-7.03814,10.89308 -16.1426,7.19067 -19.66409,18.88325c-4.4819,14.88103 -3.21591,17.96954 3.65731,34.26396c4.65652,11.05013 11.23385,8.3566 16.00679,18.99746c3.23046,7.20495 0,8.34708 0,16.69416c0,8.34708 3.47784,9.67005 0,16.69416c-5.35015,10.8217 -7.04784,13.45812 -17.65597,18.99746c-7.5814,3.95939 -9.36154,0 -18.72309,0c-18.18953,0 -18.18953,0 -36.37906,0c-2.59989,0 -4.84569,2.23192 -5.19493,0c-2.44952,-15.6139 3.50694,-18.63103 -0.40259,-35.69162" data-paper-data="{&quot;index&quot;:null}"/><path d="M346.5125,223.66699c-8.61941,0 -13.7918,0.26399 -15.643,-1.875c-3.23124,-3.7336 -2.78242,-8.35884 5.45686,-11.19289c8.9929,-3.09327 14.59528,7.77126 14.59528,9.40831c0,1.74175 -1.72679,3.65958 -4.40914,3.65958" data-paper-data="{&quot;index&quot;:null}"/><path d="M130.52892,250.06928c17.77238,-4.89213 18.24289,-8.91339 36.37906,-8.68496c18.24289,0.22843 18.18468,9.57487 36.37906,9.59391c18.18468,0.01904 20.91553,-9.78426 36.37906,-9.52252c4.51585,0.07614 3.5797,6.35311 3.5797,10.19829c0,1.25159 -1.78985,0 -3.5797,0c-18.18953,0 -18.18953,0 -36.37906,0c-18.18953,0 -18.18953,0 -36.37906,0c-18.18953,0 -18.18953,0 -36.37906,0c-0.4705,0 -0.94586,0.2665 -0.94586,0c0,-0.52824 0.05821,-1.34201 0.94586,-1.58471" data-paper-data="{&quot;index&quot;:null}"/><path d="M348.80328,242.50266c3.6088,0 5.35015,6.09613 5.35015,9.15133c0,1.51808 -2.6775,0 -5.35015,0c-6.06318,0 -12.12635,2.02253 -12.12635,0c0,-2.55076 6.99448,-9.15133 12.12635,-9.15133" data-paper-data="{&quot;index&quot;:null}"/><path d="M386.71211,226.26054c-3.58486,-1.34442 -7.54416,-5.65195 -7.59295,-8.55643c-0.11276,-6.7122 3.35329,-10.11272 6.83701,-11.68979" data-paper-data="{&quot;index&quot;:null}"/><path d="M94.14987,197.26471c-4.28788,0 0,-8.49461 0,-16.99397c0,-6.37214 -3.76887,-12.74905 0,-12.74905c7.6008,0 22.73934,5.63928 22.73934,12.74905c0,7.76174 -15.65755,16.99397 -22.73934,16.99397" data-paper-data="{&quot;index&quot;:null}"/><path d="M307.7095,180.27074c0,-2.31282 2.48833,-1.66085 4.71473,-3.62151c18.02946,-15.88515 25.83398,-12.71574 35.80185,-32.07011c7.48439,-14.52887 -1.17383,-18.54061 -0.89735,-35.69162c0.0097,-0.6948 0.73728,0 1.47456,0c18.18953,0 21.70132,-3.44543 36.37906,0c3.51179,0.82329 2.88607,5.65831 0,8.53268c-15.04638,14.97145 -22.80239,10.37912 -30.52931,27.63483c-6.33966,14.16719 2.57564,18.0552 2.39617,35.21573c-0.07761,7.28109 -1.53277,11.84962 -8.24592,13.19162c-15.59934,3.11707 -20.32377,0.88515 -36.37906,-4.26872c-4.4916,-1.44194 -4.71473,-4.96352 -4.71473,-8.92291" data-paper-data="{&quot;index&quot;:null}"/><path d="M186.85828,144.57911c0,-3.88325 8.75523,-8.76586 16.42878,-8.76586c5.43746,0 9.79324,4.76364 9.79324,8.76586c0,3.54061 -4.55951,6.32456 -9.79324,6.32456c-7.87728,0 -16.42878,-2.66022 -16.42878,-6.32456" data-paper-data="{&quot;index&quot;:null}"/></g><path d="M90.35139,117.6714c0,-6.39897 5.91545,-12.49566 13.1192,-12.49566c28.93252,0 219.72832,0 272.60996,0c8.61359,0 13.56814,4.64378 13.56814,12.24625c0,30.59212 0,109.0924 0,125.70487c0,6.03964 -4.85913,11.69754 -13.31873,11.69754c-52.46667,0 -243.42599,0 -272.60996,0c-7.3279,0 -13.36861,-4.5235 -13.36861,-11.94695c0,-30.16113 0,-108.19342 0,-125.20604z" fill="none" stroke="url(#color-1)" stroke-width="10" stroke-linecap="butt"/><path d="M157.66839,214.8748c-5.06354,0 -9.16834,-4.1048 -9.16834,-9.16834v-70.41282c0,-5.06354 4.1048,-9.16834 9.16834,-9.16834h164.66332c5.06354,0 9.16834,4.1048 9.16834,9.16834v70.41282c0,5.06354 -4.1048,9.16834 -9.16834,9.16834z" fill="none" stroke-opacity="0.50196" stroke="#000000" stroke-width="12.5" stroke-linecap="butt"/><path d="M157.66838,214.8748c-5.06354,0 -9.16833,-4.1048 -9.16833,-9.16834v-70.41282c0,-5.06354 4.1048,-9.16834 9.16833,-9.16834h164.66333c5.06354,0 9.16833,4.1048 9.16833,9.16834v70.41282c0,5.06354 -4.1048,9.16834 -9.16833,9.16834z" fill="#404040" stroke="#999999" stroke-width="3" stroke-linecap="butt"/><path d="M127.35922,220.72168c0.56908,0.45174 1.55178,1.06777 2.94808,1.84805c1.40217,0.78028 2.73981,1.17043 4.01291,1.17043c1.27897,0 1.91845,-0.49575 1.91845,-1.48724c0,-0.45174 -0.18187,-0.85068 -0.54561,-1.19683c-0.35788,-0.34615 -1.01789,-0.74215 -1.98005,-1.18803c-0.96216,-0.45174 -1.68378,-0.80375 -2.16486,-1.05603c-0.48108,-0.25814 -1.12056,-0.68055 -1.91845,-1.26723c-0.79202,-0.58668 -1.39924,-1.19684 -1.82165,-1.83045c-1.19683,-1.70725 -1.79525,-3.88384 -1.79525,-6.52978c0,-2.64594 0.9827,-4.87533 2.94808,-6.68818c1.96538,-1.81871 4.54092,-2.72807 7.72661,-2.72807c2.16486,0 4.16251,0.23467 5.99296,0.70402c1.83045,0.46348 2.77501,1.07069 2.83368,1.82165c0,0.088 0,0.17601 0,0.26401c0,1.05603 -0.33148,2.3878 -0.99443,3.99531c-0.65708,1.60164 -1.12056,2.4934 -1.39043,2.67527c-1.92432,-0.99149 -3.64623,-1.48724 -5.16574,-1.48724c-1.51364,0 -2.27047,0.53975 -2.27047,1.61925c0,0.66295 0.55736,1.24963 1.67205,1.76005c0.24054,0.12321 0.58374,0.29041 1.02962,0.50161c0.45174,0.20534 0.97096,0.45174 1.55764,0.73922c0.58668,0.28748 1.21737,0.64829 1.89206,1.08243c0.67469,0.43415 1.4051,1.01202 2.19126,1.73364c1.58991,1.5019 2.38486,3.48489 2.38486,5.94896c0,3.21502 -0.88589,5.84336 -2.65767,7.88502c-1.77178,2.04165 -4.50572,3.09182 -8.20182,3.15049c-1.80112,0 -3.4321,-0.14961 -4.89293,-0.44882c-1.45497,-0.29921 -2.72514,-0.88295 -3.8105,-1.75124c-1.07949,-0.87416 -1.61924,-1.92725 -1.61924,-3.15929c0,-1.23203 0.22587,-2.45526 0.67762,-3.6697c0.45175,-1.2203 0.93282,-2.02405 1.44324,-2.41126zM159.5744,239.91499c0,0.21121 -1.28483,0.3168 -3.8545,0.3168c-2.56381,0 -3.84571,-0.1056 -3.84571,-0.3168v-23.20623h-1.53124c-0.72162,0 -1.21736,-0.66002 -1.48724,-1.98005c-0.09387,-0.42241 -0.14081,-0.96216 -0.14081,-1.61924c0,-0.66295 0.2112,-1.44618 0.63361,-2.34967c0.59841,-1.32003 1.56058,-1.98005 2.88648,-1.98005c0.86829,0 1.66911,0.20241 2.40247,0.60722c0.73922,0.40481 1.24963,0.78028 1.53124,1.12643c0.28748,0.34615 0.43121,0.54855 0.43121,0.60722c2.01232,-1.56057 4.18891,-2.34087 6.52978,-2.34087c2.34673,0 4.35906,0.90936 6.03697,2.72807c1.68378,1.81285 2.52567,4.62013 2.52567,8.42183c0,3.8017 -0.84188,6.74685 -2.52567,8.83544c-1.67791,2.08272 -3.80757,3.12408 -6.38897,3.12408c-1.17336,0 -2.24113,-0.05867 -3.20329,-0.17601zM161.42245,216.66477c-0.51041,0 -1.00616,0.16427 -1.48724,0.49281v7.97302c0.51041,0.06454 0.92402,0.0968 1.24083,0.0968c0.31681,0 0.56322,0 0.73922,0c1.23203,-0.12321 1.84805,-1.70137 1.84805,-4.73452c0,-2.55207 -0.78029,-3.8281 -2.34086,-3.8281zM184.76595,231.66918c0,0.21121 -1.36697,0.31681 -4.10091,0.31681c-2.73394,-0.06454 -4.10091,-0.18481 -4.10091,-0.36081v-14.9604h-1.21443c-0.48108,0 -0.86536,-0.29335 -1.15283,-0.88003c-0.28748,-0.58668 -0.43121,-1.31417 -0.43121,-2.18246c0,-3.24436 0.96216,-4.86653 2.88648,-4.86653c1.34937,0 2.4758,0.41361 3.37929,1.24084c0.90349,0.82136 1.35524,1.76005 1.35524,2.81608c0.62775,-1.23203 1.4755,-2.21473 2.54327,-2.94808c1.06777,-0.73922 2.15605,-1.10883 3.26488,-1.10883c1.74245,0 2.79554,0.44881 3.15929,1.34644c0.088,0.24054 0.132,0.59548 0.132,1.06483c0,0.46348 -0.14373,1.29657 -0.43121,2.49927c-0.28161,1.2027 -0.57495,2.07392 -0.88002,2.61367c-0.29921,0.53975 -0.47815,0.80962 -0.53682,0.80962c-0.05866,0 -0.33734,-0.11147 -0.83602,-0.33441c-0.49282,-0.2288 -0.93577,-0.3432 -1.32884,-0.3432c-1.13816,0 -1.70723,0.90055 -1.70723,2.70167zM200.98054,231.44037c0,0.24054 -1.37577,0.36081 -4.12731,0.36081c-2.74568,0 -4.11851,-0.1056 -4.11851,-0.31681v-22.12379c0,-0.20534 1.37284,-0.30801 4.11851,-0.30801c2.75154,0 4.12731,0.088 4.12731,0.264zM200.98054,206.6589c0,0.21121 -1.37577,0.31681 -4.12731,0.31681c-2.74568,0 -4.11851,-0.09094 -4.11851,-0.27281v-6.48578c0,-0.29921 1.37284,-0.44881 4.11851,-0.44881c2.75154,0 4.12731,0.09093 4.12731,0.2728zM215.402,231.44037c0,0.36374 -1.26136,0.54561 -3.7841,0.54561c-3.00382,-0.12321 -4.50573,-0.31974 -4.50573,-0.58962v-15.94603h-2.29686c-0.60428,0 -0.90642,-1.03843 -0.90642,-3.11528c0,-0.53975 0.0528,-1.19977 0.1584,-1.98005c0.1056,-0.78028 0.32561,-1.17043 0.66002,-1.17043h2.38486v-3.96891c0,-0.59841 1.26723,-0.89763 3.8017,-0.89763c2.54033,0 3.8105,0.24054 3.8105,0.72162v2.88648l0.04401,1.25843h3.8369c0.51041,0 0.76562,1.0531 0.76562,3.15929c0,2.10032 -0.25521,3.15049 -0.76562,3.15049h-3.20328zM238.65362,230.49875c-1.89498,1.10883 -4.32972,1.66325 -7.3042,1.66325c-2.97448,0 -5.48255,-1.01203 -7.5242,-3.03609c-2.04165,-2.02992 -3.06248,-4.84013 -3.06248,-8.43062c0,-3.5905 0.9827,-6.47991 2.94808,-8.66824c1.97126,-2.1942 4.45879,-3.29129 7.4626,-3.29129c3.00382,0 5.32414,0.76563 6.96099,2.29686c1.63684,1.53124 2.45526,3.39396 2.45526,5.58815c0,4.8636 -2.79261,7.29539 -8.37783,7.29539h-3.11528c0,0.90349 0.24641,1.52831 0.73922,1.87445c0.49868,0.34615 1.2291,0.51921 2.19126,0.51921c2.10619,0 4.10384,-0.48108 5.99296,-1.44324c0.02934,-0.02934 0.16427,0.17894 0.40481,0.62482c0.72162,1.29657 1.08243,2.3878 1.08243,3.27369c0,0.88589 -0.28454,1.46377 -0.85362,1.73365zM233.02147,217.47439c0,-1.26137 -0.61602,-1.89205 -1.84805,-1.89205c-0.56908,0 -1.05897,0.17307 -1.46964,0.51922c-0.40481,0.34615 -0.60722,0.84776 -0.60722,1.50484v1.39924h2.43767c0.99149,0 1.48724,-0.51041 1.48724,-1.53124zM256.1298,231.80118c-2.72807,0 -4.09211,-0.29921 -4.09211,-0.89763v-29.19919c0,-1.02083 0.46348,-1.53124 1.39044,-1.53124h7.92902c4.44707,0 7.65329,0.91816 9.61867,2.75447c1.97125,1.83045 2.95688,4.48812 2.95688,7.97302c0,2.88061 -0.93282,5.52362 -2.79847,7.92901c-0.92696,1.19683 -2.29393,2.15606 -4.10091,2.87768c-1.80111,0.72162 -3.90145,1.08243 -6.30099,1.08243v8.06982c0,0.35788 -0.56321,0.60428 -1.68964,0.73922c-1.12643,0.13494 -2.09739,0.2024 -2.91288,0.2024zM260.73233,208.01412v7.11939h0.58081c1.05016,0 1.93606,-0.32854 2.65769,-0.98563c0.72162,-0.66295 1.08243,-1.59578 1.08243,-2.79847c0,-1.2027 -0.24934,-2.05926 -0.74802,-2.56967c-0.49282,-0.51041 -3.57291,-0.76562 -3.57291,-0.76562zM279.38354,215.35353c-0.83895,-1.5019 -1.25843,-2.72514 -1.25843,-3.6697c0,-0.94456 0.2552,-1.55177 0.76562,-1.82165c1.70725,-0.75096 4.05397,-1.12643 7.04019,-1.12643c2.99208,0 5.10414,0.69815 6.33617,2.09446c1.23203,1.39631 1.84805,3.46143 1.84805,6.19537v7.11939h1.53125c0.51042,0 0.90936,0.30214 1.19683,0.90642c0.28747,0.59841 0.43121,1.42271 0.43121,2.47287c0,1.05016 -0.26401,2.08565 -0.79202,3.10648c-0.52801,1.02083 -1.24083,1.53125 -2.13845,1.53125c-1.62511,0 -2.93342,-0.43415 -3.92491,-1.30244c-0.44588,-0.36374 -0.78908,-0.80082 -1.02963,-1.31124c-1.38457,1.74245 -3.53476,2.61367 -6.45058,2.61367c-2.18833,0 -4.03344,-0.78029 -5.53535,-2.34087c-1.50191,-1.56057 -2.25286,-3.40863 -2.25286,-5.54415c0,-4.89293 2.92755,-7.3394 8.78264,-7.3394h2.48167v-0.45761c0,-0.78028 -0.12907,-1.2819 -0.38721,-1.50484c-0.25227,-0.22294 -0.84483,-0.33441 -1.77765,-0.33441c-1.14403,0 -2.76621,0.23761 -4.86653,0.71282zM282.99163,223.65216c0,0.65708 0.17894,1.15869 0.53682,1.50484c0.35787,0.34615 0.81549,0.51922 1.37284,0.51922c0.55735,0 1.06189,-0.22588 1.51364,-0.67762v-3.4673h-1.26723c-1.43737,0 -2.15606,0.70695 -2.15606,2.12086zM309.25185,231.44037c0,0.21121 -1.0795,0.31681 -3.23849,0.31681c-3.00381,-0.088 -4.50572,-0.25227 -4.50572,-0.49281v-14.59959h-1.17043c-0.78028,0 -1.2907,-0.66002 -1.53124,-1.98006c-0.06453,-0.39308 -0.0968,-0.78322 -0.0968,-1.17043c0,-0.93283 0.18187,-1.86565 0.54561,-2.79847c0.53975,-1.32003 1.3787,-1.98006 2.51686,-1.98006c1.14403,0 2.16486,0.26988 3.06248,0.80963c0.90349,0.53975 1.50778,1.07949 1.81285,1.61924c1.88912,-1.61925 4.13905,-2.42887 6.74978,-2.42887c2.6166,0 4.50866,0.70695 5.67615,2.12086c1.17336,1.40804 1.76005,3.71957 1.76005,6.93459v13.51716c0,0.35788 -1.28484,0.53682 -3.85451,0.53682c-2.56381,0 -3.84571,-0.17894 -3.84571,-0.53682v-13.02435c0,-1.5019 -0.52508,-2.25286 -1.57524,-2.25286c-0.30507,0 -0.72748,0.12907 -1.26723,0.38721c-0.53975,0.25227 -0.88589,0.44001 -1.03843,0.56321zM341.69938,230.49875c-1.89499,1.10883 -4.32971,1.66325 -7.30419,1.66325c-2.97447,0 -5.48253,-1.01203 -7.52419,-3.03609c-2.04165,-2.02992 -3.06248,-4.84013 -3.06248,-8.43062c0,-3.5905 0.98269,-6.47991 2.94808,-8.66824c1.97125,-2.1942 4.45878,-3.29129 7.46258,-3.29129c3.00381,0 5.32414,0.76563 6.96099,2.29686c1.63684,1.53124 2.45526,3.39396 2.45526,5.58815c0,4.8636 -2.79261,7.29539 -8.37782,7.29539h-3.11528c0,0.90349 0.2464,1.52831 0.73922,1.87445c0.49868,0.34615 1.2291,0.51921 2.19126,0.51921c2.10619,0 4.10384,-0.48108 5.99296,-1.44324c0.02934,-0.02934 0.16427,0.17894 0.40481,0.62482c0.72162,1.29657 1.08243,2.3878 1.08243,3.27369c0,0.88589 -0.28454,1.46377 -0.85362,1.73365zM336.06723,217.47439c0,-1.26137 -0.61602,-1.89205 -1.84805,-1.89205c-0.56908,0 -1.05896,0.17307 -1.46964,0.51922c-0.40481,0.34615 -0.60721,0.84776 -0.60721,1.50484v1.39924h2.43766c0.99149,0 1.48724,-0.51041 1.48724,-1.53124zM354.76172,231.35236c0,0.26988 -1.53124,0.40481 -4.59373,0.40481c-2.4054,-0.02934 -3.60809,-0.1496 -3.60809,-0.36081v-30.68643c0,-0.44588 1.4579,-0.66882 4.37371,-0.66882c2.55207,0.088 3.82811,0.23761 3.82811,0.44882z" fill="#ffffff" stroke="none" stroke-width="1" stroke-linecap="square"/><path d="M163.05015,150.50005c-1.86864,0 -3.38346,-1.51482 -3.38346,-3.38345v-5.23308c0,-1.86864 1.51483,-3.38346 3.38346,-3.38346h5.23308c1.86864,0 3.38346,1.51483 3.38346,3.38346v5.23308c0,1.86864 -1.51483,3.38345 -3.38346,3.38345z" fill="none" stroke-opacity="0.50196" stroke="#000000" stroke-width="6" stroke-linecap="butt"/><path d="M163.05015,150.50005c-1.86864,0 -3.38346,-1.51482 -3.38346,-3.38346v-5.23308c0,-1.86864 1.51483,-3.38346 3.38346,-3.38346h5.23308c1.86864,0 3.38345,1.51483 3.38345,3.38346v5.23308c0,1.86864 -1.51482,3.38346 -3.38345,3.38346z" fill="#ff4d4d" stroke="#b33636" stroke-width="2" stroke-linecap="butt"/><path d="M163.05015,201.8334c-1.86864,0 -3.38346,-1.51482 -3.38346,-3.38345v-5.23308c0,-1.86864 1.51483,-3.38346 3.38346,-3.38346h5.23308c1.86864,0 3.38346,1.51483 3.38346,3.38346v5.23308c0,1.86864 -1.51483,3.38345 -3.38346,3.38345z" fill="none" stroke-opacity="0.50196" stroke="#000000" stroke-width="6" stroke-linecap="butt"/><path d="M183.3835,150.50005c-1.86864,0 -3.38346,-1.51482 -3.38346,-3.38345v-5.23308c0,-1.86864 1.51483,-3.38346 3.38346,-3.38346h5.23308c1.86864,0 3.38346,1.51483 3.38346,3.38346v5.23308c0,1.86864 -1.51482,3.38345 -3.38346,3.38345z" fill="none" stroke-opacity="0.50196" stroke="#000000" stroke-width="6" stroke-linecap="butt"/><path d="M183.3835,150.50005c-1.86864,0 -3.38346,-1.51482 -3.38346,-3.38346v-5.23308c0,-1.86864 1.51483,-3.38346 3.38346,-3.38346h5.23308c1.86864,0 3.38345,1.51483 3.38345,3.38346v5.23308c0,1.86864 -1.51482,3.38346 -3.38345,3.38346z" fill="#4dc1ff" stroke="#368cb3" stroke-width="2" stroke-linecap="butt"/><path d="M183.3835,201.8334c-1.86864,0 -3.38346,-1.51482 -3.38346,-3.38345v-5.23308c0,-1.86864 1.51483,-3.38346 3.38346,-3.38346h5.23308c1.86864,0 3.38346,1.51483 3.38346,3.38346v5.23308c0,1.86864 -1.51482,3.38345 -3.38346,3.38345z" fill="none" stroke-opacity="0.50196" stroke="#000000" stroke-width="6" stroke-linecap="butt"/><path d="M183.3835,201.8334c-1.86864,0 -3.38346,-1.51482 -3.38346,-3.38346v-5.23308c0,-1.86864 1.51483,-3.38346 3.38346,-3.38346h5.23308c1.86864,0 3.38345,1.51483 3.38345,3.38346v5.23308c0,1.86864 -1.51482,3.38346 -3.38345,3.38346z" fill="#4dc1ff" stroke="#368cb3" stroke-width="2" stroke-linecap="butt"/><path d="M183.3835,175.8334c-1.86864,0 -3.38346,-1.51482 -3.38346,-3.38345v-5.23308c0,-1.86864 1.51483,-3.38346 3.38346,-3.38346h5.23308c1.86864,0 3.38346,1.51483 3.38346,3.38346v5.23308c0,1.86864 -1.51482,3.38345 -3.38346,3.38345z" fill="none" stroke-opacity="0.50196" stroke="#000000" stroke-width="6" stroke-linecap="butt"/><path d="M183.3835,175.8334c-1.86864,0 -3.38346,-1.51482 -3.38346,-3.38346v-5.23308c0,-1.86864 1.51483,-3.38346 3.38346,-3.38346h5.23308c1.86864,0 3.38345,1.51483 3.38345,3.38346v5.23308c0,1.86864 -1.51482,3.38346 -3.38345,3.38346z" fill="#4dc1ff" stroke="#368cb3" stroke-width="2" stroke-linecap="butt"/><path d="M163.05015,201.8334c-1.86864,0 -3.38346,-1.51482 -3.38346,-3.38346v-5.23308c0,-1.86864 1.51483,-3.38346 3.38346,-3.38346h5.23308c1.86864,0 3.38345,1.51483 3.38345,3.38346v5.23308c0,1.86864 -1.51482,3.38346 -3.38345,3.38346z" fill="#ff4d4d" stroke="#b33636" stroke-width="2" stroke-linecap="butt"/><path d="M163.05015,175.8334c-1.86864,0 -3.38346,-1.51482 -3.38346,-3.38345v-5.23308c0,-1.86864 1.51483,-3.38346 3.38346,-3.38346h5.23308c1.86864,0 3.38346,1.51483 3.38346,3.38346v5.23308c0,1.86864 -1.51483,3.38345 -3.38346,3.38345z" fill="none" stroke-opacity="0.50196" stroke="#000000" stroke-width="6" stroke-linecap="butt"/><path d="M163.05015,175.8334c-1.86864,0 -3.38346,-1.51482 -3.38346,-3.38346v-5.23308c0,-1.86864 1.51483,-3.38346 3.38346,-3.38346h5.23308c1.86864,0 3.38345,1.51483 3.38345,3.38346v5.23308c0,1.86864 -1.51482,3.38346 -3.38345,3.38346z" fill="#ff4d4d" stroke="#b33636" stroke-width="2" stroke-linecap="butt"/><path d="M320.6667,144.50005h-60.33335" fill="none" stroke="#999999" stroke-width="3.5" stroke-linecap="round"/><path d="M320.6667,169.8334h-60.33334" fill="none" stroke="#999999" stroke-width="3.5" stroke-linecap="round"/><path d="M320.6667,195.8334h-60.33335" fill="none" stroke="#999999" stroke-width="3.5" stroke-linecap="round"/><path d="M246.16672,205.16661v-69.33312" fill="none" stroke="#666666" stroke-width="3" stroke-linecap="round"/><path d="M233.83338,205.16661v-69.33312" fill="none" stroke="#666666" stroke-width="3" stroke-linecap="round"/><path d="M265.33337,144.50005c0,-3.40575 2.76091,-6.16666 6.16667,-6.16666c3.40575,0 6.16667,2.76091 6.16667,6.16666c0,3.40575 -2.76091,6.16666 -6.16667,6.16666c-3.40575,0 -6.16667,-2.76091 -6.16667,-6.16666z" fill="#262626" stroke="#999999" stroke-width="2.5" stroke-linecap="butt"/><path d="M304.00003,169.8334c0,-3.40575 2.76092,-6.16666 6.16667,-6.16666c3.40575,0 6.16667,2.76091 6.16667,6.16666c0,3.40575 -2.76091,6.16666 -6.16667,6.16666c-3.40575,0 -6.16667,-2.76091 -6.16667,-6.16666z" fill="#262626" stroke="#999999" stroke-width="2.5" stroke-linecap="butt"/><path d="M279.00001,195.8334c0,-3.40575 2.76092,-6.16666 6.16667,-6.16666c3.40575,0 6.16666,2.76091 6.16666,6.16666c0,3.40575 -2.76091,6.16666 -6.16666,6.16666c-3.40575,0 -6.16667,-2.76091 -6.16667,-6.16666z" fill="#262626" stroke="#999999" stroke-width="2.5" stroke-linecap="butt"/><path d="M202.1532,196.04026c0,-4.78643 3.88017,-8.66659 8.66659,-8.66659c4.78643,0 8.66659,3.88016 8.66659,8.66659c0,4.78643 -3.88016,8.66659 -8.66659,8.66659c-4.78643,0 -8.66659,-3.88017 -8.66659,-8.66659z" fill-opacity="0.50196" fill="#000000" stroke="none" stroke-width="0" stroke-linecap="butt"/><path d="M203.46855,196.04026c0,-4.05998 3.29126,-7.35123 7.35124,-7.35123c4.05998,0 7.35124,3.29126 7.35124,7.35123c0,4.05998 -3.29126,7.35124 -7.35124,7.35124c-4.05998,0 -7.35124,-3.29127 -7.35124,-7.35124zM210.7844,201.74718c5.05464,0.02502 5.57636,-4.72875 5.57636,-4.72875h-10.84044c0,0 0.38811,4.70462 5.26408,4.72875zM213.50119,194.74477c0.54909,0 0.99423,-0.44513 0.99423,-0.99422c0,-0.54909 -0.44513,-0.99423 -0.99423,-0.99423c-0.54909,0 -0.99423,0.44513 -0.99423,0.99423c0,0.54909 0.44513,0.99422 0.99423,0.99422zM208.13839,194.74477c0.54909,0 0.99422,-0.44513 0.99422,-0.99422c0,-0.54909 -0.44513,-0.99423 -0.99422,-0.99423c-0.54909,0 -0.99423,0.44513 -0.99423,0.99423c0,0.54909 0.44513,0.99422 0.99423,0.99422z" fill="#ffffff" stroke="none" stroke-width="0" stroke-linecap="butt"/><path d="M130.30729,222.56971c1.40217,0.78028 2.73981,1.17043 4.01291,1.17043c1.27897,0 1.91845,-0.49575 1.91845,-1.48724c0,-0.45174 -0.18187,-0.85068 -0.54561,-1.19683c-0.35788,-0.34615 -1.01789,-0.74215 -1.98005,-1.18803c-0.96216,-0.45174 -1.68378,-0.80375 -2.16486,-1.05603c-0.48108,-0.25814 -1.12056,-0.68055 -1.91845,-1.26723c-0.79202,-0.58668 -1.39924,-1.19684 -1.82165,-1.83045c-1.19683,-1.70725 -1.79525,-3.88384 -1.79525,-6.52978c0,-2.64594 0.9827,-4.87533 2.94808,-6.68818c1.96538,-1.81871 4.54092,-2.72807 7.72661,-2.72807c2.16486,0 4.16251,0.23467 5.99296,0.70402c1.83045,0.46348 2.77501,1.07069 2.83368,1.82165c0,0.088 0,0.17601 0,0.26401c0,1.05603 -0.33148,2.3878 -0.99443,3.99531c-0.65708,1.60164 -1.12056,2.4934 -1.39043,2.67527c-1.92432,-0.99149 -3.64623,-1.48724 -5.16574,-1.48724c-1.51364,0 -2.27047,0.53975 -2.27047,1.61925c0,0.66295 0.55736,1.24963 1.67205,1.76005c0.24054,0.12321 0.58374,0.29041 1.02962,0.50161c0.45174,0.20534 0.97096,0.45174 1.55764,0.73922c0.58668,0.28748 1.21737,0.64829 1.89206,1.08243c0.67469,0.43415 1.4051,1.01202 2.19126,1.73364c1.58991,1.5019 2.38486,3.48489 2.38486,5.94896c0,3.21502 -0.88589,5.84336 -2.65767,7.88502c-1.77178,2.04165 -4.50572,3.09182 -8.20182,3.15049c-1.80112,0 -3.4321,-0.14961 -4.89293,-0.44882c-1.45497,-0.29921 -2.72514,-0.88295 -3.8105,-1.75124c-1.07949,-0.87416 -1.61924,-1.92725 -1.61924,-3.15929c0,-1.23203 0.22587,-2.45526 0.67762,-3.6697c0.45175,-1.2203 0.93282,-2.02405 1.44324,-2.41126c0,0 1.55176,1.06775 2.94806,1.84803zM159.5744,239.91499c0,0.21121 -1.28483,0.3168 -3.8545,0.3168c-2.56381,0 -3.84571,-0.1056 -3.84571,-0.3168v-23.20623h-1.53124c-0.72162,0 -1.21736,-0.66002 -1.48724,-1.98005c-0.09387,-0.42241 -0.14081,-0.96216 -0.14081,-1.61924c0,-0.66295 0.2112,-1.44618 0.63361,-2.34967c0.59841,-1.32003 1.56058,-1.98005 2.88648,-1.98005c0.86829,0 1.66911,0.20241 2.40247,0.60722c0.73922,0.40481 1.24963,0.78028 1.53124,1.12643c0.28748,0.34615 0.43121,0.54855 0.43121,0.60722c2.01232,-1.56057 4.18891,-2.34087 6.52978,-2.34087c2.34673,0 4.35906,0.90936 6.03697,2.72807c1.68378,1.81285 2.52567,4.62013 2.52567,8.42183c0,3.8017 -0.84188,6.74685 -2.52567,8.83544c-1.67791,2.08272 -3.80757,3.12408 -6.38897,3.12408c-1.17336,0 -2.24113,-0.05867 -3.20329,-0.17601zM161.42245,216.66475c-0.51041,0 -1.00616,0.16427 -1.48724,0.49281v7.97302c0.51041,0.06454 0.92402,0.0968 1.24083,0.0968c0.31681,0 0.56322,0 0.73922,0c1.23203,-0.12321 1.84805,-1.70137 1.84805,-4.73452c0,-2.55207 -0.78029,-3.8281 -2.34086,-3.8281zM184.76595,231.66918c0,0.21121 -1.36697,0.31681 -4.10091,0.31681c-2.73394,-0.06454 -4.10091,-0.18481 -4.10091,-0.36081v-14.9604h-1.21443c-0.48108,0 -0.86536,-0.29335 -1.15283,-0.88003c-0.28748,-0.58668 -0.43121,-1.31417 -0.43121,-2.18246c0,-3.24436 0.96216,-4.86653 2.88648,-4.86653c1.34937,0 2.4758,0.41361 3.37929,1.24084c0.90349,0.82136 1.35524,1.76005 1.35524,2.81608c0.62775,-1.23203 1.4755,-2.21473 2.54327,-2.94808c1.06777,-0.73922 2.15605,-1.10883 3.26488,-1.10883c1.74245,0 2.79554,0.44881 3.15929,1.34644c0.088,0.24054 0.132,0.59548 0.132,1.06483c0,0.46348 -0.14373,1.29657 -0.43121,2.49927c-0.28161,1.2027 -0.57495,2.07392 -0.88002,2.61367c-0.29921,0.53975 -0.47815,0.80962 -0.53682,0.80962c-0.05866,0 -0.33734,-0.11147 -0.83602,-0.33441c-0.49282,-0.2288 -0.93577,-0.3432 -1.32884,-0.3432c-1.13816,0 -1.70723,0.90055 -1.70723,2.70167zM200.98054,231.44036c0,0.24054 -1.37577,0.36081 -4.12731,0.36081c-2.74568,0 -4.11851,-0.1056 -4.11851,-0.31681v-22.12379c0,-0.20534 1.37284,-0.30801 4.11851,-0.30801c2.75154,0 4.12731,0.088 4.12731,0.264zM200.98054,206.65889c0,0.21121 -1.37577,0.31681 -4.12731,0.31681c-2.74568,0 -4.11851,-0.09094 -4.11851,-0.27281v-6.48578c0,-0.29921 1.37284,-0.44881 4.11851,-0.44881c2.75154,0 4.12731,0.09093 4.12731,0.2728zM215.402,231.44036c0,0.36374 -1.26136,0.54561 -3.7841,0.54561c-3.00382,-0.12321 -4.50573,-0.31974 -4.50573,-0.58962v-15.94603h-2.29686c-0.60428,0 -0.90642,-1.03843 -0.90642,-3.11528c0,-0.53975 0.0528,-1.19977 0.1584,-1.98005c0.1056,-0.78028 0.32561,-1.17043 0.66002,-1.17043h2.38486v-3.96891c0,-0.59841 1.26723,-0.89763 3.8017,-0.89763c2.54033,0 3.8105,0.24054 3.8105,0.72162v2.88648l0.04401,1.25843h3.8369c0.51041,0 0.76562,1.0531 0.76562,3.15929c0,2.10032 -0.25521,3.15049 -0.76562,3.15049h-3.20328zM231.34943,232.16197c-2.97448,0 -5.48255,-1.01203 -7.5242,-3.03609c-2.04165,-2.02992 -3.06248,-4.84013 -3.06248,-8.43062c0,-3.5905 0.9827,-6.47991 2.94808,-8.66824c1.97126,-2.1942 4.45879,-3.29129 7.4626,-3.29129c3.00382,0 5.32414,0.76563 6.96099,2.29686c1.63684,1.53124 2.45526,3.39396 2.45526,5.58815c0,4.8636 -2.79261,7.29539 -8.37783,7.29539h-3.11528c0,0.90349 0.24641,1.52831 0.73922,1.87445c0.49868,0.34615 1.2291,0.51921 2.19126,0.51921c2.10619,0 6.15723,-1.2643 6.39777,-0.81842c0.72162,1.29657 1.08243,2.3878 1.08243,3.27369c0,0.88589 -0.28454,1.46377 -0.85362,1.73365c0,0 -4.32972,1.66326 -7.3042,1.66326zM233.02147,217.47436c0,-1.26137 -0.61602,-1.89205 -1.84805,-1.89205c-0.56908,0 -1.05897,0.17307 -1.46964,0.51922c-0.40481,0.34615 -0.60722,0.84776 -0.60722,1.50484v1.39924h2.43767c0.99149,0 1.48724,-0.51041 1.48724,-1.53124zM252.03771,230.90353v-29.19919c0,-1.02083 0.46348,-1.53124 1.39044,-1.53124h7.92902c4.44707,0 7.65329,0.91816 9.61867,2.75447c1.97125,1.83045 2.95688,4.48812 2.95688,7.97302c0,2.88061 -0.93282,5.52362 -2.79847,7.92901c-0.92696,1.19683 -2.29393,2.15606 -4.10091,2.87768c-1.80111,0.72162 -3.90145,1.08243 -6.30099,1.08243v8.06982c0,0.35788 -0.56321,0.60428 -1.68964,0.73922c-1.12643,0.13494 -2.09739,0.2024 -2.91288,0.2024c0,0 -4.09212,-0.2992 -4.09212,-0.89762zM260.73233,208.01412v7.11939h0.58081c1.05016,0 1.93606,-0.32854 2.65769,-0.98563c0.72162,-0.66295 1.08243,-1.59578 1.08243,-2.79847c0,-1.2027 -0.24934,-2.05926 -0.74802,-2.56967c-0.49282,-0.51041 -3.57291,-0.76562 -3.57291,-0.76562zM279.38354,215.35351c-0.83895,-1.5019 -1.25843,-2.72514 -1.25843,-3.6697c0,-0.94456 0.2552,-1.55177 0.76562,-1.82165c1.70725,-0.75096 4.05397,-1.12643 7.04019,-1.12643c2.99208,0 5.10414,0.69815 6.33617,2.09446c1.23203,1.39631 1.84805,3.46143 1.84805,6.19537v7.11939h1.53125c0.51042,0 0.90936,0.30214 1.19683,0.90642c0.28747,0.59841 0.43121,1.42271 0.43121,2.47287c0,1.05016 -0.26401,2.08565 -0.79202,3.10648c-0.52801,1.02083 -1.24083,1.53125 -2.13845,1.53125c-1.62511,0 -2.93342,-0.43415 -3.92491,-1.30244c-0.44588,-0.36374 -0.78908,-0.80082 -1.02963,-1.31124c-1.38457,1.74245 -3.53476,2.61367 -6.45058,2.61367c-2.18833,0 -4.03344,-0.78029 -5.53535,-2.34087c-1.50191,-1.56057 -2.25286,-3.40863 -2.25286,-5.54415c0,-4.89293 2.92755,-7.3394 8.78264,-7.3394h2.48167v-0.45761c0,-0.78028 -0.12907,-1.2819 -0.38721,-1.50484c-0.25227,-0.22294 -0.84483,-0.33441 -1.77765,-0.33441c-1.14403,0 -2.76621,0.23761 -4.86653,0.71282zM282.99163,223.65215c0,0.65708 0.17894,1.15869 0.53682,1.50484c0.35787,0.34615 0.81549,0.51922 1.37284,0.51922c0.55735,0 1.06189,-0.22588 1.51364,-0.67762v-3.4673h-1.26723c-1.43737,0 -2.15606,0.70695 -2.15606,2.12086zM309.25185,231.44036c0,0.21121 -1.0795,0.31681 -3.23849,0.31681c-3.00381,-0.088 -4.50572,-0.25227 -4.50572,-0.49281v-14.59959h-1.17043c-0.78028,0 -1.2907,-0.66002 -1.53124,-1.98006c-0.06453,-0.39308 -0.0968,-0.78322 -0.0968,-1.17043c0,-0.93283 0.18187,-1.86565 0.54561,-2.79847c0.53975,-1.32003 1.3787,-1.98006 2.51686,-1.98006c1.14403,0 2.16486,0.26988 3.06248,0.80963c0.90349,0.53975 1.50778,1.07949 1.81285,1.61924c1.88912,-1.61925 4.13905,-2.42887 6.74978,-2.42887c2.6166,0 4.50866,0.70695 5.67615,2.12086c1.17336,1.40804 1.76005,3.71957 1.76005,6.93459v13.51716c0,0.35788 -1.28484,0.53682 -3.85451,0.53682c-2.56381,0 -3.84571,-0.17894 -3.84571,-0.53682v-13.02435c0,-1.5019 -0.52508,-2.25286 -1.57524,-2.25286c-0.30507,0 -0.72748,0.12907 -1.26723,0.38721c-0.53975,0.25227 -0.88589,0.44001 -1.03843,0.56321zM334.39518,232.16197c-2.97447,0 -5.48253,-1.01203 -7.52419,-3.03609c-2.04165,-2.02992 -3.06248,-4.84013 -3.06248,-8.43062c0,-3.5905 0.98269,-6.47991 2.94808,-8.66824c1.97125,-2.1942 4.45878,-3.29129 7.46258,-3.29129c3.00381,0 5.32414,0.76563 6.96099,2.29686c1.63684,1.53124 2.45526,3.39396 2.45526,5.58815c0,4.8636 -2.79261,7.29539 -8.37782,7.29539h-3.11528c0,0.90349 0.2464,1.52831 0.73922,1.87445c0.49868,0.34615 1.2291,0.51921 2.19126,0.51921c2.10619,0 4.10384,-0.48108 5.99296,-1.44324c0.02934,-0.02934 0.16427,0.17894 0.40481,0.62482c0.72162,1.29657 1.08243,2.3878 1.08243,3.27369c0,0.88589 -0.28454,1.46377 -0.85362,1.73365c0,0 -4.32972,1.66326 -7.3042,1.66326zM336.06723,217.47436c0,-1.26137 -0.61602,-1.89205 -1.84805,-1.89205c-0.56908,0 -1.05896,0.17307 -1.46964,0.51922c-0.40481,0.34615 -0.60721,0.84776 -0.60721,1.50484v1.39924h2.43766c0.99149,0 1.48724,-0.51041 1.48724,-1.53124zM354.76172,231.35233c0,0.26988 -1.53124,0.40481 -4.59373,0.40481c-2.4054,-0.02934 -3.60809,-0.1496 -3.60809,-0.36081v-30.68643c0,-0.44588 1.4579,-0.66882 4.37371,-0.66882c2.55207,0.088 3.82811,0.23761 3.82811,0.44882z" fill="none" stroke-opacity="0.50196" stroke="#000000" stroke-width="8" stroke-linecap="square"/><path d="M127.35922,220.72167c0.56908,0.45174 1.55178,1.06777 2.94808,1.84805c1.40217,0.78028 2.73981,1.17043 4.01291,1.17043c1.27897,0 1.91845,-0.49575 1.91845,-1.48724c0,-0.45174 -0.18187,-0.85068 -0.54561,-1.19683c-0.35788,-0.34615 -1.01789,-0.74215 -1.98005,-1.18803c-0.96216,-0.45174 -1.68378,-0.80375 -2.16486,-1.05603c-0.48108,-0.25814 -1.12056,-0.68055 -1.91845,-1.26723c-0.79202,-0.58668 -1.39924,-1.19684 -1.82165,-1.83045c-1.19683,-1.70725 -1.79525,-3.88384 -1.79525,-6.52978c0,-2.64594 0.9827,-4.87533 2.94808,-6.68818c1.96538,-1.81871 4.54092,-2.72807 7.72661,-2.72807c2.16486,0 4.16251,0.23467 5.99296,0.70402c1.83045,0.46348 2.77501,1.07069 2.83368,1.82165c0,0.088 0,0.17601 0,0.26401c0,1.05603 -0.33148,2.3878 -0.99443,3.99531c-0.65708,1.60164 -1.12056,2.4934 -1.39043,2.67527c-1.92432,-0.99149 -3.64623,-1.48724 -5.16574,-1.48724c-1.51364,0 -2.27047,0.53975 -2.27047,1.61925c0,0.66295 0.55736,1.24963 1.67205,1.76005c0.24054,0.12321 0.58374,0.29041 1.02962,0.50161c0.45174,0.20534 0.97096,0.45174 1.55764,0.73922c0.58668,0.28748 1.21737,0.64829 1.89206,1.08243c0.67469,0.43415 1.4051,1.01202 2.19126,1.73364c1.58991,1.5019 2.38486,3.48489 2.38486,5.94896c0,3.21502 -0.88589,5.84336 -2.65767,7.88502c-1.77178,2.04165 -4.50572,3.09182 -8.20182,3.15049c-1.80112,0 -3.4321,-0.14961 -4.89293,-0.44882c-1.45497,-0.29921 -2.72514,-0.88295 -3.8105,-1.75124c-1.07949,-0.87416 -1.61924,-1.92725 -1.61924,-3.15929c0,-1.23203 0.22587,-2.45526 0.67762,-3.6697c0.45175,-1.2203 0.93282,-2.02405 1.44324,-2.41126zM159.5744,239.91499c0,0.21121 -1.28483,0.3168 -3.8545,0.3168c-2.56381,0 -3.84571,-0.1056 -3.84571,-0.3168v-23.20623h-1.53124c-0.72162,0 -1.21736,-0.66002 -1.48724,-1.98005c-0.09387,-0.42241 -0.14081,-0.96216 -0.14081,-1.61924c0,-0.66295 0.2112,-1.44618 0.63361,-2.34967c0.59841,-1.32003 1.56058,-1.98005 2.88648,-1.98005c0.86829,0 1.66911,0.20241 2.40247,0.60722c0.73922,0.40481 1.24963,0.78028 1.53124,1.12643c0.28748,0.34615 0.43121,0.54855 0.43121,0.60722c2.01232,-1.56057 4.18891,-2.34087 6.52978,-2.34087c2.34673,0 4.35906,0.90936 6.03697,2.72807c1.68378,1.81285 2.52567,4.62013 2.52567,8.42183c0,3.8017 -0.84188,6.74685 -2.52567,8.83544c-1.67791,2.08272 -3.80757,3.12408 -6.38897,3.12408c-1.17336,0 -2.24113,-0.05867 -3.20329,-0.17601zM161.42245,216.66475c-0.51041,0 -1.00616,0.16427 -1.48724,0.49281v7.97302c0.51041,0.06454 0.92402,0.0968 1.24083,0.0968c0.31681,0 0.56322,0 0.73922,0c1.23203,-0.12321 1.84805,-1.70137 1.84805,-4.73452c0,-2.55207 -0.78029,-3.8281 -2.34086,-3.8281zM184.76595,231.66918c0,0.21121 -1.36697,0.31681 -4.10091,0.31681c-2.73394,-0.06454 -4.10091,-0.18481 -4.10091,-0.36081v-14.9604h-1.21443c-0.48108,0 -0.86536,-0.29335 -1.15283,-0.88003c-0.28748,-0.58668 -0.43121,-1.31417 -0.43121,-2.18246c0,-3.24436 0.96216,-4.86653 2.88648,-4.86653c1.34937,0 2.4758,0.41361 3.37929,1.24084c0.90349,0.82136 1.35524,1.76005 1.35524,2.81608c0.62775,-1.23203 1.4755,-2.21473 2.54327,-2.94808c1.06777,-0.73922 2.15605,-1.10883 3.26488,-1.10883c1.74245,0 2.79554,0.44881 3.15929,1.34644c0.088,0.24054 0.132,0.59548 0.132,1.06483c0,0.46348 -0.14373,1.29657 -0.43121,2.49927c-0.28161,1.2027 -0.57495,2.07392 -0.88002,2.61367c-0.29921,0.53975 -0.47815,0.80962 -0.53682,0.80962c-0.05866,0 -0.33734,-0.11147 -0.83602,-0.33441c-0.49282,-0.2288 -0.93577,-0.3432 -1.32884,-0.3432c-1.13816,0 -1.70723,0.90055 -1.70723,2.70167zM200.98054,231.44036c0,0.24054 -1.37577,0.36081 -4.12731,0.36081c-2.74568,0 -4.11851,-0.1056 -4.11851,-0.31681v-22.12379c0,-0.20534 1.37284,-0.30801 4.11851,-0.30801c2.75154,0 4.12731,0.088 4.12731,0.264zM200.98054,206.65889c0,0.21121 -1.37577,0.31681 -4.12731,0.31681c-2.74568,0 -4.11851,-0.09094 -4.11851,-0.27281v-6.48578c0,-0.29921 1.37284,-0.44881 4.11851,-0.44881c2.75154,0 4.12731,0.09093 4.12731,0.2728zM215.402,231.44036c0,0.36374 -1.26136,0.54561 -3.7841,0.54561c-3.00382,-0.12321 -4.50573,-0.31974 -4.50573,-0.58962v-15.94603h-2.29686c-0.60428,0 -0.90642,-1.03843 -0.90642,-3.11528c0,-0.53975 0.0528,-1.19977 0.1584,-1.98005c0.1056,-0.78028 0.32561,-1.17043 0.66002,-1.17043h2.38486v-3.96891c0,-0.59841 1.26723,-0.89763 3.8017,-0.89763c2.54033,0 3.8105,0.24054 3.8105,0.72162v2.88648l0.04401,1.25843h3.8369c0.51041,0 0.76562,1.0531 0.76562,3.15929c0,2.10032 -0.25521,3.15049 -0.76562,3.15049h-3.20328zM238.65362,230.49874c-1.89498,1.10883 -4.32972,1.66325 -7.3042,1.66325c-2.97448,0 -5.48255,-1.01203 -7.5242,-3.03609c-2.04165,-2.02992 -3.06248,-4.84013 -3.06248,-8.43062c0,-3.5905 0.9827,-6.47991 2.94808,-8.66824c1.97126,-2.1942 4.45879,-3.29129 7.4626,-3.29129c3.00382,0 5.32414,0.76563 6.96099,2.29686c1.63684,1.53124 2.45526,3.39396 2.45526,5.58815c0,4.8636 -2.79261,7.29539 -8.37783,7.29539h-3.11528c0,0.90349 0.24641,1.52831 0.73922,1.87445c0.49868,0.34615 1.2291,0.51921 2.19126,0.51921c2.10619,0 4.10384,-0.48108 5.99296,-1.44324c0.02934,-0.02934 0.16427,0.17894 0.40481,0.62482c0.72162,1.29657 1.08243,2.3878 1.08243,3.27369c0,0.88589 -0.28454,1.46377 -0.85362,1.73365zM233.02147,217.47436c0,-1.26137 -0.61602,-1.89205 -1.84805,-1.89205c-0.56908,0 -1.05897,0.17307 -1.46964,0.51922c-0.40481,0.34615 -0.60722,0.84776 -0.60722,1.50484v1.39924h2.43767c0.99149,0 1.48724,-0.51041 1.48724,-1.53124zM256.1298,231.80117c-2.72807,0 -4.09211,-0.29921 -4.09211,-0.89763v-29.19919c0,-1.02083 0.46348,-1.53124 1.39044,-1.53124h7.92902c4.44707,0 7.65329,0.91816 9.61867,2.75447c1.97125,1.83045 2.95688,4.48812 2.95688,7.97302c0,2.88061 -0.93282,5.52362 -2.79847,7.92901c-0.92696,1.19683 -2.29393,2.15606 -4.10091,2.87768c-1.80111,0.72162 -3.90145,1.08243 -6.30099,1.08243v8.06982c0,0.35788 -0.56321,0.60428 -1.68964,0.73922c-1.12643,0.13494 -2.09739,0.2024 -2.91288,0.2024zM260.73233,208.01412v7.11939h0.58081c1.05016,0 1.93606,-0.32854 2.65769,-0.98563c0.72162,-0.66295 1.08243,-1.59578 1.08243,-2.79847c0,-1.2027 -0.24934,-2.05926 -0.74802,-2.56967c-0.49282,-0.51041 -3.57291,-0.76562 -3.57291,-0.76562zM279.38354,215.35351c-0.83895,-1.5019 -1.25843,-2.72514 -1.25843,-3.6697c0,-0.94456 0.2552,-1.55177 0.76562,-1.82165c1.70725,-0.75096 4.05397,-1.12643 7.04019,-1.12643c2.99208,0 5.10414,0.69815 6.33617,2.09446c1.23203,1.39631 1.84805,3.46143 1.84805,6.19537v7.11939h1.53125c0.51042,0 0.90936,0.30214 1.19683,0.90642c0.28747,0.59841 0.43121,1.42271 0.43121,2.47287c0,1.05016 -0.26401,2.08565 -0.79202,3.10648c-0.52801,1.02083 -1.24083,1.53125 -2.13845,1.53125c-1.62511,0 -2.93342,-0.43415 -3.92491,-1.30244c-0.44588,-0.36374 -0.78908,-0.80082 -1.02963,-1.31124c-1.38457,1.74245 -3.53476,2.61367 -6.45058,2.61367c-2.18833,0 -4.03344,-0.78029 -5.53535,-2.34087c-1.50191,-1.56057 -2.25286,-3.40863 -2.25286,-5.54415c0,-4.89293 2.92755,-7.3394 8.78264,-7.3394h2.48167v-0.45761c0,-0.78028 -0.12907,-1.2819 -0.38721,-1.50484c-0.25227,-0.22294 -0.84483,-0.33441 -1.77765,-0.33441c-1.14403,0 -2.76621,0.23761 -4.86653,0.71282zM282.99163,223.65215c0,0.65708 0.17894,1.15869 0.53682,1.50484c0.35787,0.34615 0.81549,0.51922 1.37284,0.51922c0.55735,0 1.06189,-0.22588 1.51364,-0.67762v-3.4673h-1.26723c-1.43737,0 -2.15606,0.70695 -2.15606,2.12086zM309.25185,231.44036c0,0.21121 -1.0795,0.31681 -3.23849,0.31681c-3.00381,-0.088 -4.50572,-0.25227 -4.50572,-0.49281v-14.59959h-1.17043c-0.78028,0 -1.2907,-0.66002 -1.53124,-1.98006c-0.06453,-0.39308 -0.0968,-0.78322 -0.0968,-1.17043c0,-0.93283 0.18187,-1.86565 0.54561,-2.79847c0.53975,-1.32003 1.3787,-1.98006 2.51686,-1.98006c1.14403,0 2.16486,0.26988 3.06248,0.80963c0.90349,0.53975 1.50778,1.07949 1.81285,1.61924c1.88912,-1.61925 4.13905,-2.42887 6.74978,-2.42887c2.6166,0 4.50866,0.70695 5.67615,2.12086c1.17336,1.40804 1.76005,3.71957 1.76005,6.93459v13.51716c0,0.35788 -1.28484,0.53682 -3.85451,0.53682c-2.56381,0 -3.84571,-0.17894 -3.84571,-0.53682v-13.02435c0,-1.5019 -0.52508,-2.25286 -1.57524,-2.25286c-0.30507,0 -0.72748,0.12907 -1.26723,0.38721c-0.53975,0.25227 -0.88589,0.44001 -1.03843,0.56321zM341.69938,230.49874c-1.89499,1.10883 -4.32971,1.66325 -7.30419,1.66325c-2.97447,0 -5.48253,-1.01203 -7.52419,-3.03609c-2.04165,-2.02992 -3.06248,-4.84013 -3.06248,-8.43062c0,-3.5905 0.98269,-6.47991 2.94808,-8.66824c1.97125,-2.1942 4.45878,-3.29129 7.46258,-3.29129c3.00381,0 5.32414,0.76563 6.96099,2.29686c1.63684,1.53124 2.45526,3.39396 2.45526,5.58815c0,4.8636 -2.79261,7.29539 -8.37782,7.29539h-3.11528c0,0.90349 0.2464,1.52831 0.73922,1.87445c0.49868,0.34615 1.2291,0.51921 2.19126,0.51921c2.10619,0 4.10384,-0.48108 5.99296,-1.44324c0.02934,-0.02934 0.16427,0.17894 0.40481,0.62482c0.72162,1.29657 1.08243,2.3878 1.08243,3.27369c0,0.88589 -0.28454,1.46377 -0.85362,1.73365zM336.06723,217.47436c0,-1.26137 -0.61602,-1.89205 -1.84805,-1.89205c-0.56908,0 -1.05896,0.17307 -1.46964,0.51922c-0.40481,0.34615 -0.60721,0.84776 -0.60721,1.50484v1.39924h2.43766c0.99149,0 1.48724,-0.51041 1.48724,-1.53124zM354.76172,231.35233c0,0.26988 -1.53124,0.40481 -4.59373,0.40481c-2.4054,-0.02934 -3.60809,-0.1496 -3.60809,-0.36081v-30.68643c0,-0.44588 1.4579,-0.66882 4.37371,-0.66882c2.55207,0.088 3.82811,0.23761 3.82811,0.44882z" fill="#ffffff" stroke="none" stroke-width="1" stroke-linecap="square"/><path d="M218.57728,152.98008l-3.08991,-3.09001c-0.56536,0.38967 -1.25059,0.61785 -1.98902,0.61785c-1.93792,0 -3.50892,-1.57154 -3.50892,-3.50946c0,-0.11231 0.00527,-0.22339 0.01559,-0.33301c-0.37207,0.03551 -0.7562,0.0117 -1.14016,-0.07896c-1.72901,-0.40827 -2.85448,-2.03059 -2.68683,-3.75099c-0.11049,0.01049 -0.22247,0.01585 -0.33571,0.01585c-1.93794,0 -3.50894,-1.57101 -3.50894,-3.50892c0,-0.73849 0.22813,-1.4237 0.61777,-1.98899l-0.29765,-0.29765c-0.24892,-0.24892 -0.24892,-0.65323 0,-0.90218c0.24892,-0.24892 0.65325,-0.24892 0.90218,0l0.29765,0.29765c0.5653,-0.38964 1.2505,-0.61777 1.98899,-0.61777c1.93792,0 3.50893,1.57101 3.50893,3.50894c0,0.11308 -0.00535,0.22491 -0.01581,0.33525c0.37271,-0.03579 0.75754,-0.01207 1.14221,0.07877c1.72826,0.40809 2.85352,2.02918 2.68706,3.74875c0.10982,-0.01036 0.22112,-0.01566 0.33365,-0.01566c1.93794,0 3.50946,1.57154 3.50946,3.50892c0,0.73854 -0.22824,1.42386 -0.61801,1.98927l3.08966,3.08967c0.24892,0.24892 0.24892,0.65323 0,0.90218c-0.12473,0.1242 -0.28791,0.18707 -0.45109,0.18708h-0.00002c-0.16318,0 -0.32636,-0.06236 -0.45107,-0.18656z" fill="none" stroke-opacity="0.50196" stroke="#000000" stroke-width="3.5" stroke-linecap="butt"/><path d="M218.57728,152.98008l-3.08991,-3.09001c-0.56536,0.38967 -1.25059,0.61784 -1.98902,0.61784c-1.93792,0 -3.50893,-1.57154 -3.50893,-3.50946c0,-0.11231 0.00528,-0.22339 0.0156,-0.33301c-0.37207,0.03551 -0.7562,0.0117 -1.14017,-0.07896c-1.72901,-0.40827 -2.85448,-2.03059 -2.68683,-3.75099c-0.11049,0.01049 -0.22247,0.01585 -0.33571,0.01585c-1.93794,0 -3.50895,-1.57101 -3.50895,-3.50893c0,-0.73849 0.22813,-1.42369 0.61777,-1.98899l-0.29764,-0.29765c-0.24892,-0.24892 -0.24892,-0.65323 0,-0.90218c0.24892,-0.24892 0.65325,-0.24892 0.90218,0l0.29765,0.29765c0.56529,-0.38964 1.2505,-0.61777 1.98899,-0.61777c1.93792,0 3.50893,1.57101 3.50893,3.50895c0,0.11308 -0.00535,0.22491 -0.01581,0.33525c0.37271,-0.03579 0.75754,-0.01206 1.14221,0.07877c1.72826,0.40809 2.85352,2.02918 2.68706,3.74875c0.10982,-0.01036 0.22112,-0.01566 0.33365,-0.01566c1.93794,0 3.50946,1.57154 3.50946,3.50893c0,0.73854 -0.22824,1.42386 -0.61801,1.98927l3.08966,3.08966c0.24892,0.24892 0.24892,0.65323 0,0.90218c-0.12473,0.1242 -0.28791,0.18707 -0.45109,0.18708h-0.00002c-0.16318,0 -0.32636,-0.06236 -0.45107,-0.18656z" fill="#ffffff" stroke="none" stroke-width="1" stroke-linecap="butt"/><path d="M212.44836,164.48899c0.20084,0.261 0.59156,0.79382 0.80952,1.25714c0.66349,1.46918 1.09001,3.6493 0.85381,6.2584c-0.21782,2.40648 -1.26059,6.02774 -1.26059,6.02774c-0.00744,-0.00092 -0.01484,-0.00203 -0.02219,-0.00331c-0.02376,0.00099 -0.05394,-0.00805 -0.08731,-0.02344c-0.19789,-0.07139 -0.34475,-0.24585 -0.35227,-0.25489c-0.00012,-0.00011 -0.00021,-0.00019 -0.00027,-0.00024c0.05551,0.19502 0.23554,0.33201 0.27886,0.36267c0.94335,0.30595 2.18292,0.71327 1.76053,0.71327c-0.98848,0 -6.09543,0 -6.09543,0c-0.04739,0 -2.0536,-2.11248 -2.11682,-4.60625c-0.06322,-2.49377 0.61857,-4.89625 1.13742,-6.01042c0.60235,-1.29382 1.60934,-3.74872 1.68043,-4.04064c0.07109,-0.29181 0.00265,-1.47861 0.45885,-2.06834c0.31696,-0.40979 0.93722,-0.60746 1.34802,-0.60746c0,0 0.8651,-0.01006 1.34302,0.22191c0.47791,0.23198 0.47665,0.6565 0.71855,0.77876c0.25886,0.13096 0.62197,0.32164 1.22025,0.40503c0.59838,0.08339 2.24346,0.81579 0.58464,0.98266c-1.26157,0.06486 -2.22559,-0.03126 -2.41175,0.09005c-0.03752,0.16338 -0.03884,0.36955 0.15266,0.45547c0,0 0.00006,0.04109 0.00008,0.06189z" fill="none" stroke-opacity="0.50196" stroke="#000000" stroke-width="3.5" stroke-linecap="butt"/><path d="M212.44827,164.4271c0.00004,0.02045 0.00007,0.04109 0.00009,0.06189c0.20084,0.261 0.59156,0.79382 0.80952,1.25714c0.66349,1.46918 1.09002,3.6493 0.85382,6.2584c-0.21782,2.40648 -0.42331,3.95086 -1.12651,5.17568c-0.0964,0.16792 0.27667,0.3834 0.27667,0.3834c-0.15801,0 -0.36766,0.01936 -0.36766,0.01936c0.01574,0.19859 0.34397,0.25856 0.34397,0.25856c-0.39619,0.19401 -0.54898,-0.02121 -0.58155,-0.07936c0.05882,0.1464 0.19449,0.2701 0.19449,0.2701c-0.00744,-0.00092 -0.01484,-0.00202 -0.02219,-0.0033c-0.02376,0.00099 -0.05394,-0.00805 -0.08731,-0.02344c-0.19789,-0.07139 -0.34475,-0.24585 -0.35227,-0.25489c-0.00012,-0.00011 -0.00021,-0.00019 -0.00027,-0.00024c0.05551,0.19502 0.23554,0.33201 0.27886,0.36267c0.94335,0.30595 1.52201,0.71327 1.52201,0.71327h-5.85691c-0.04739,0 -2.0536,-2.11248 -2.11682,-4.60625c-0.06322,-2.49377 0.61857,-4.89625 1.13742,-6.01042c0.60235,-1.29382 1.60934,-3.74872 1.68043,-4.04064c0.07109,-0.29181 0.00265,-1.47861 0.45885,-2.06834c0.31696,-0.40979 0.93722,-0.60746 1.34802,-0.60746c0,0 0.8651,-0.01006 1.34302,0.22191c0.47791,0.23198 0.47665,0.6565 0.71855,0.77876c0.25886,0.13096 0.62198,0.32164 1.22026,0.40503c0.59838,0.08339 1.11381,0.24426 1.33295,0.47652c0.21923,0.23234 0.33175,0.48842 0.33175,0.48842c0,0 -0.27838,-0.43487 -1.9372,-0.26799c-1.26157,0.06486 -1.36845,0.25445 -1.55461,0.37575c-0.03752,0.16338 -0.03884,0.36955 0.15266,0.45547z" fill="#ffffff" stroke="none" stroke-width="0" stroke-linecap="butt"/></g></g></svg>
