<svg version="1.1" xmlns="http://www.w3.org/2000/svg" xmlns:xlink="http://www.w3.org/1999/xlink" width="309.2973" height="159.64866" viewBox="0,0,309.2973,159.64866"><defs><linearGradient x1="240" y1="105.17567" x2="240" y2="254.82432" gradientUnits="userSpaceOnUse" id="color-1"><stop offset="0" stop-color="#4d1a01"/><stop offset="1" stop-color="#822c01"/></linearGradient></defs><g transform="translate(-85.35135,-100.17567)"><g fill-rule="nonzero" stroke-linejoin="miter" stroke-miterlimit="10" stroke-dasharray="" stroke-dashoffset="0" style="mix-blend-mode: normal"><path d="M92.35135,253.94865v-147.89732h295.2973v147.89732z" fill="#ff661a" stroke="none" stroke-width="0" stroke-linecap="butt"/><path d="M105.51841,141.88878c-3.21757,0 -5.82591,-2.60835 -5.82591,-5.82591v-14.0793c0,-3.21757 2.60835,-5.82591 5.82591,-5.82591h14.0793c3.21757,0 5.82591,2.60835 5.82591,5.82591v14.0793c0,3.21757 -2.60835,5.82591 -5.82591,5.82591z" fill="#e74e02" stroke="none" stroke-width="0" stroke-linecap="butt"/><path d="M139.01743,141.88878c-3.21757,0 -5.82592,-2.60835 -5.82592,-5.82591v-14.0793c0,-3.21757 2.60836,-5.82591 5.82592,-5.82591h43.20889c3.21757,0 5.82592,2.60835 5.82592,5.82591v14.0793c0,3.21757 -2.60836,5.82591 -5.82592,5.82591z" fill="#e74e02" stroke="none" stroke-width="0" stroke-linecap="butt"/><path d="M105.51841,175.8733c-3.21757,0 -5.82591,-2.60836 -5.82591,-5.82592v-14.0793c0,-3.21757 2.60835,-5.82592 5.82591,-5.82592h14.0793c3.21757,0 5.82591,2.60836 5.82591,5.82592v14.0793c0,3.21757 -2.60835,5.82592 -5.82591,5.82592z" fill="#e74e02" stroke="none" stroke-width="0" stroke-linecap="butt"/><path d="M139.01743,175.8733c-3.21757,0 -5.82592,-2.60836 -5.82592,-5.82592v-14.0793c0,-3.21757 2.60836,-5.82592 5.82592,-5.82592h43.20889c3.21757,0 5.82592,2.60836 5.82592,5.82592v14.0793c0,3.21757 -2.60836,5.82592 -5.82592,5.82592z" fill="#e74e02" stroke="none" stroke-width="0" stroke-linecap="butt"/><path d="M105.51841,209.85782c-3.21757,0 -5.82591,-2.60836 -5.82591,-5.82592v-14.0793c0,-3.21757 2.60835,-5.82592 5.82591,-5.82592h14.0793c3.21757,0 5.82591,2.60836 5.82591,5.82592v14.0793c0,3.21757 -2.60835,5.82592 -5.82591,5.82592z" fill="#e74e02" stroke="none" stroke-width="0" stroke-linecap="butt"/><path d="M139.01743,209.85782c-3.21757,0 -5.82592,-2.60836 -5.82592,-5.82592v-14.0793c0,-3.21757 2.60836,-5.82592 5.82592,-5.82592h43.20889c3.21757,0 5.82592,2.60836 5.82592,5.82592v14.0793c0,3.21757 -2.60836,5.82592 -5.82592,5.82592z" fill="#e74e02" stroke="none" stroke-width="0" stroke-linecap="butt"/><path d="M105.51841,243.84234c-3.21757,0 -5.82591,-2.60836 -5.82591,-5.82592v-14.0793c0,-3.21757 2.60835,-5.82591 5.82591,-5.82591h14.0793c3.21757,0 5.82591,2.60835 5.82591,5.82591v14.0793c0,3.21757 -2.60835,5.82592 -5.82591,5.82592z" fill="#e74e02" stroke="none" stroke-width="0" stroke-linecap="butt"/><path d="M139.01743,243.84234c-3.21757,0 -5.82592,-2.60836 -5.82592,-5.82592v-14.0793c0,-3.21757 2.60836,-5.82591 5.82592,-5.82591h43.20889c3.21757,0 5.82592,2.60835 5.82592,5.82591v14.0793c0,3.21757 -2.60836,5.82592 -5.82592,5.82592z" fill="#e74e02" stroke="none" stroke-width="0" stroke-linecap="butt"/><path d="M201.64604,141.88878c-3.21757,0 -5.82592,-2.60835 -5.82592,-5.82591v-14.0793c0,-3.21757 2.60836,-5.82591 5.82592,-5.82591h14.0793c3.21757,0 5.82591,2.60835 5.82591,5.82591v14.0793c0,3.21757 -2.60835,5.82591 -5.82591,5.82591z" fill="#e74e02" stroke="none" stroke-width="0" stroke-linecap="butt"/><path d="M235.14507,141.88878c-3.21757,0 -5.82591,-2.60835 -5.82591,-5.82591v-14.0793c0,-3.21757 2.60835,-5.82591 5.82591,-5.82591h43.20889c3.21757,0 5.82591,2.60835 5.82591,5.82591v14.0793c0,3.21757 -2.60835,5.82591 -5.82591,5.82591z" fill="#e74e02" stroke="none" stroke-width="0" stroke-linecap="butt"/><path d="M201.64604,175.8733c-3.21757,0 -5.82592,-2.60836 -5.82592,-5.82592v-14.0793c0,-3.21757 2.60836,-5.82592 5.82592,-5.82592h14.0793c3.21757,0 5.82591,2.60836 5.82591,5.82592v14.0793c0,3.21757 -2.60835,5.82592 -5.82591,5.82592z" fill="#cc4602" stroke="none" stroke-width="0" stroke-linecap="butt"/><path d="M235.14507,175.8733c-3.21757,0 -5.82591,-2.60836 -5.82591,-5.82592v-14.0793c0,-3.21757 2.60835,-5.82592 5.82591,-5.82592h43.20889c3.21757,0 5.82591,2.60836 5.82591,5.82592v14.0793c0,3.21757 -2.60835,5.82592 -5.82591,5.82592z" fill="#cc4602" stroke="none" stroke-width="0" stroke-linecap="butt"/><path d="M201.64604,209.85782c-3.21757,0 -5.82592,-2.60836 -5.82592,-5.82592v-14.0793c0,-3.21757 2.60836,-5.82592 5.82592,-5.82592h14.0793c3.21757,0 5.82591,2.60836 5.82591,5.82592v14.0793c0,3.21757 -2.60835,5.82592 -5.82591,5.82592z" fill="#e74e02" stroke="none" stroke-width="0" stroke-linecap="butt"/><path d="M235.14507,209.85782c-3.21757,0 -5.82591,-2.60836 -5.82591,-5.82592v-14.0793c0,-3.21757 2.60835,-5.82592 5.82591,-5.82592h43.20889c3.21757,0 5.82591,2.60836 5.82591,5.82592v14.0793c0,3.21757 -2.60835,5.82592 -5.82591,5.82592z" fill="#e74e02" stroke="none" stroke-width="0" stroke-linecap="butt"/><path d="M201.64604,243.84234c-3.21757,0 -5.82592,-2.60836 -5.82592,-5.82592v-14.0793c0,-3.21757 2.60836,-5.82591 5.82592,-5.82591h14.0793c3.21757,0 5.82591,2.60835 5.82591,5.82591v14.0793c0,3.21757 -2.60835,5.82592 -5.82591,5.82592z" fill="#e74e02" stroke="none" stroke-width="0" stroke-linecap="butt"/><path d="M235.14507,243.84234c-3.21757,0 -5.82591,-2.60836 -5.82591,-5.82592v-14.0793c0,-3.21757 2.60835,-5.82591 5.82591,-5.82591h43.20889c3.21757,0 5.82591,2.60835 5.82591,5.82591v14.0793c0,3.21757 -2.60835,5.82592 -5.82591,5.82592z" fill="#e74e02" stroke="none" stroke-width="0" stroke-linecap="butt"/><path d="M297.77368,141.88878c-3.21757,0 -5.82592,-2.60835 -5.82592,-5.82591v-14.0793c0,-3.21757 2.60836,-5.82591 5.82592,-5.82591h14.0793c3.21757,0 5.82592,2.60835 5.82592,5.82591v14.0793c0,3.21757 -2.60836,5.82591 -5.82592,5.82591z" fill="#e74e02" stroke="none" stroke-width="0" stroke-linecap="butt"/><path d="M331.2727,141.88878c-3.21757,0 -5.82592,-2.60835 -5.82592,-5.82591v-14.0793c0,-3.21757 2.60836,-5.82591 5.82592,-5.82591h43.20889c3.21757,0 5.82592,2.60835 5.82592,5.82591v14.0793c0,3.21757 -2.60836,5.82591 -5.82592,5.82591z" fill="#e74e02" stroke="none" stroke-width="0" stroke-linecap="butt"/><path d="M297.77368,175.8733c-3.21757,0 -5.82592,-2.60836 -5.82592,-5.82592v-14.0793c0,-3.21757 2.60836,-5.82592 5.82592,-5.82592h14.0793c3.21757,0 5.82592,2.60836 5.82592,5.82592v14.0793c0,3.21757 -2.60836,5.82592 -5.82592,5.82592z" fill="#e74e02" stroke="none" stroke-width="0" stroke-linecap="butt"/><path d="M331.2727,175.8733c-3.21757,0 -5.82592,-2.60836 -5.82592,-5.82592v-14.0793c0,-3.21757 2.60836,-5.82592 5.82592,-5.82592h43.20889c3.21757,0 5.82592,2.60836 5.82592,5.82592v14.0793c0,3.21757 -2.60836,5.82592 -5.82592,5.82592z" fill="#e74e02" stroke="none" stroke-width="0" stroke-linecap="butt"/><path d="M297.77368,209.85782c-3.21757,0 -5.82592,-2.60836 -5.82592,-5.82592v-14.0793c0,-3.21757 2.60836,-5.82592 5.82592,-5.82592h14.0793c3.21757,0 5.82592,2.60836 5.82592,5.82592v14.0793c0,3.21757 -2.60836,5.82592 -5.82592,5.82592z" fill="#e74e02" stroke="none" stroke-width="0" stroke-linecap="butt"/><path d="M331.2727,209.85782c-3.21757,0 -5.82592,-2.60836 -5.82592,-5.82592v-14.0793c0,-3.21757 2.60836,-5.82592 5.82592,-5.82592h43.20889c3.21757,0 5.82592,2.60836 5.82592,5.82592v14.0793c0,3.21757 -2.60836,5.82592 -5.82592,5.82592z" fill="#e74e02" stroke="none" stroke-width="0" stroke-linecap="butt"/><path d="M297.77368,243.84234c-3.21757,0 -5.82592,-2.60836 -5.82592,-5.82592v-14.0793c0,-3.21757 2.60836,-5.82591 5.82592,-5.82591h14.0793c3.21757,0 5.82592,2.60835 5.82592,5.82591v14.0793c0,3.21757 -2.60836,5.82592 -5.82592,5.82592z" fill="#e74e02" stroke="none" stroke-width="0" stroke-linecap="butt"/><path d="M331.2727,243.84234c-3.21757,0 -5.82592,-2.60836 -5.82592,-5.82592v-14.0793c0,-3.21757 2.60836,-5.82591 5.82592,-5.82591h43.20889c3.21757,0 5.82592,2.60835 5.82592,5.82591v14.0793c0,3.21757 -2.60836,5.82592 -5.82592,5.82592z" fill="#e74e02" stroke="none" stroke-width="0" stroke-linecap="butt"/><path d="M310.59398,119.81154c0.062,0.31592 0.17524,77.1946 0.069,77.76765c-0.15958,0.86069 -0.37079,1.44024 -1.18457,1.50168c-0.68281,0.05155 -137.20042,0.31908 -138.07876,0.27104c-0.84666,-0.04632 -2.11939,-0.79284 -2.12919,-1.66457c-0.00894,-0.79572 -0.1165,-76.73133 0.07038,-77.56883c0.14026,-0.62857 1.06674,-1.02075 1.2969,-1.05144c0.21482,-0.03069 34.41908,-0.06954 75.98604,-0.0542c46.17826,0.01164 58.86261,-0.21658 62.29376,-0.13138c1.0916,0.0271 1.61445,0.61415 1.67645,0.93008z" fill="none" stroke-opacity="0.50196" stroke="#000000" stroke-width="7.5" stroke-linecap="butt"/><path d="M310.53341,120.33997c0.11707,5.96128 0.12957,77.93618 0.12957,77.93618l-0.8748,0.92087l-63.45604,0.00821l-76.01663,-0.00821l-0.89014,-0.89016l-0.00533,-14.71846l0.00532,-63.55438c0,0 0.98226,-0.93627 1.21241,-0.96696c0.21482,-0.03069 34.41908,-0.06954 75.98604,-0.0542c47.36666,0.01195 59.22665,0.03818 62.28776,0.12875c0.87264,0.02582 1.61426,0.81199 1.62185,1.19836z" fill="#e8f0fd" stroke="#cad1dd" stroke-width="1" stroke-linecap="butt"/><path d="M309.91773,187.42544c0.19947,0.01015 0.4143,0.03048 0.50635,0.04643c0.1381,0.02465 0.16683,10.75809 0.16683,10.75809c0,0 -0.58824,0.88382 -1.09066,0.89276c-4.80179,0.08546 -63.25879,0.49715 -63.25879,0.49715l-76.02211,-0.25376l-0.79705,-0.96723l-0.09298,-4.89126l0.00008,-6.00673l0.39895,-0.04353c0.23016,-0.02321 0.58308,-0.04499 0.81324,-0.04788c0.21482,-0.0029 34.4256,-0.02714 75.99254,-0.02569c60.86972,0.00145 63.10743,0.02571 63.38362,0.04167z" fill="#ffffff" stroke="#cad1dd" stroke-width="1" stroke-linecap="butt"/><path d="M246.53411,131.19884c-41.56695,0.00145 -75.77772,-0.0228 -75.99253,-0.02569c-0.23016,-0.0029 -0.58307,-0.02468 -0.81324,-0.04789l-0.39895,-0.04353l-0.00008,-6.00673l0.09297,-4.89126l0.79705,-0.96724l76.02212,-0.25376c0,0 58.21052,0.1652 63.01231,0.25066c0.50243,0.00894 1.33716,1.13925 1.33716,1.13925c0,0 -0.02874,10.73345 -0.16683,10.75809c-0.09206,0.01596 -0.30689,0.03629 -0.50635,0.04644c-0.27619,0.01596 -2.5139,0.04021 -63.38362,0.04166z" fill="#ffffff" stroke="#cad1dd" stroke-width="1" stroke-linecap="butt"/><path d="M228.57486,191.31649c0.01535,-0.01535 0.03069,1.07409 0.03069,2.42435v2.45505h-0.53703h-0.53704v-2.36298v-2.37833l0.50635,-0.06138c0.26085,-0.03068 0.50636,-0.07672 0.53704,-0.07672z" fill="#585e73" stroke="none" stroke-width="1" stroke-linecap="butt"/><path d="M244.05698,191.42391c0.39895,0.10741 0.41429,0.15344 0.36825,0.93598l-0.04604,0.81324l0.39895,-0.24551c0.21482,-0.1381 0.62912,-0.26085 0.92065,-0.26085c0.7979,0 1.05874,0.49101 1.13546,2.16351l0.06138,1.36561h-0.55239h-0.55239v-1.16615c0,-1.22753 -0.16878,-1.59577 -0.73652,-1.59577c-0.42963,0 -0.67514,0.73652 -0.61376,1.82594l0.04604,0.93598h-0.49102h-0.47567v-2.19418c0,-1.19683 0.03069,-2.28626 0.06138,-2.4397c0.06138,-0.18413 0.16879,-0.21482 0.47568,-0.1381z" fill="#585e73" stroke="none" stroke-width="1" stroke-linecap="butt"/><path d="M241.95485,191.71544c0.38361,0.06138 0.46033,0.1381 0.46033,0.50635c0,0.33757 0.07673,0.44497 0.30689,0.44497c0.23016,0 0.30688,0.10742 0.30688,0.38361c0,0.27619 -0.07672,0.38361 -0.30688,0.38361c-0.27619,0 -0.30689,0.1074 -0.30689,0.99736c0,0.88996 0.0307,0.99737 0.30689,0.99737c0.23016,0 0.30688,0.10741 0.30688,0.3836c0,0.35291 -0.06138,0.38361 -0.6291,0.38361c-0.9053,0 -1.05875,-0.23017 -1.05875,-1.59578c0,-0.93599 -0.04604,-1.16615 -0.23017,-1.16615c-0.1381,0 -0.23016,-0.1381 -0.23016,-0.38361c0,-0.24551 0.09206,-0.38361 0.23016,-0.38361c0.15344,0 0.23017,-0.15345 0.23017,-0.42963c0,-0.24551 0.03068,-0.47567 0.07672,-0.52169c0.04604,-0.03068 0.2762,-0.04604 0.53704,0z" fill="#585e73" stroke="none" stroke-width="1" stroke-linecap="butt"/><path d="M173.09649,192.4519c0.32223,0.06138 0.38361,0.18412 0.42963,0.72117c0.04604,0.62912 0.04604,0.62911 0.59841,0.58308c0.49102,-0.04604 0.56774,0 0.62912,0.33757c0.09206,0.42963 0.04604,0.44497 -0.75186,0.39895c-0.50635,-0.03068 -0.50635,-0.01534 -0.50635,0.67514c0,0.67513 -0.01535,0.70584 -0.42963,0.70584c-0.39895,0 -0.41429,-0.03069 -0.35291,-0.70584l0.04604,-0.70583l-0.70584,0.04604c-0.67513,0.06138 -0.70582,0.04604 -0.70582,-0.35291c0,-0.41429 0.03068,-0.42963 0.70582,-0.42963c0.69048,0 0.70584,0 0.67514,-0.50635c-0.01534,-0.26085 -0.03069,-0.56774 -0.01534,-0.6598c0.01534,-0.09206 0.18413,-0.1381 0.3836,-0.1074z" fill="#585e73" stroke="none" stroke-width="1" stroke-linecap="butt"/><path d="M232.42621,193.83292c0.24551,0.88996 0.1381,0.98202 -1.22752,0.98202c-0.65979,0 -1.21218,0.04604 -1.21218,0.09207c0,0.41429 1.24287,0.72117 1.45769,0.36825c0.04604,-0.09206 0.33757,-0.15344 0.62912,-0.15344c0.29154,0 0.52169,0.06138 0.52169,0.15344c0,0.07672 -0.06138,0.15344 -0.15344,0.15344c-0.07672,0 -0.15345,0.07672 -0.15345,0.16878c0,0.35291 -0.55239,0.58307 -1.39631,0.59841c-0.72118,0 -0.92064,-0.06137 -1.25821,-0.3836c-0.67513,-0.67513 -0.64446,-1.97938 0.06138,-2.6852c0.87462,-0.87462 2.40901,-0.47567 2.73124,0.70583zM230.18598,193.66413c-0.30689,0.33757 -0.24551,0.38361 0.56774,0.38361c0.78254,0 0.92064,-0.09206 0.58307,-0.42963c-0.24551,-0.24551 -0.92065,-0.23017 -1.15081,0.04604z" fill="#585e73" stroke="none" stroke-width="1" stroke-linecap="butt"/><path d="M233.05531,192.66677h0.42964c0.23016,0 0.50635,0.07673 0.61375,0.18414c0.1381,0.1381 0.23017,0.1381 0.36825,0c0.30689,-0.30689 1.21218,-0.21483 1.61112,0.15344c0.32223,0.29154 0.35291,0.46032 0.35291,1.76457v1.42699h-0.56774h-0.58307l0.04604,-1.15081c0.06138,-1.18149 -0.09207,-1.61112 -0.53704,-1.61112c-0.52169,0 -0.69048,0.42963 -0.62911,1.61112l0.04604,1.15081h-0.56773h-0.58307v-1.76457z" fill="#585e73" stroke="none" stroke-width="1" stroke-linecap="butt"/><path d="M238.3797,192.66677c0.32223,0 0.69048,0.09208 0.79789,0.18414c0.16879,0.15344 0.21483,0.15344 0.27619,0c0.04604,-0.09206 0.2455,-0.18414 0.44497,-0.18414h0.36825v2.04076c0,1.93334 -0.01534,2.07144 -0.33757,2.36298c-0.42963,0.38361 -1.18149,0.56774 -1.79525,0.42963c-0.49102,-0.10741 -1.2889,-0.7979 -1.19683,-1.05875c0.09206,-0.26085 0.93599,-0.18412 1.15081,0.09206c0.10741,0.15344 0.38361,0.2762 0.61376,0.2762c0.30689,0 0.46033,-0.1074 0.61375,-0.46032c0.19946,-0.42963 0.10742,-0.96668 -0.10741,-0.6598c-0.39895,0.61376 -1.77991,0.38361 -2.11748,-0.36826c-0.35291,-0.75186 -0.24551,-1.64181 0.2455,-2.17885c0.35291,-0.36826 0.56773,-0.47568 1.0434,-0.47568zM237.96541,194.12446c-0.07672,0.67513 0.01535,0.95133 0.38361,1.1508c0.36825,0.19946 0.42963,0.18413 0.7672,-0.19946c0.44497,-0.47567 0.47567,-0.75186 0.1381,-1.25822c-0.41429,-0.64446 -1.21218,-0.44497 -1.2889,0.30689z" fill="#585e73" stroke="none" stroke-width="1" stroke-linecap="butt"/><path d="M304.64068,193.11169h1.76456l-0.04604,0.39895l-0.04604,0.39895h-1.67249c-1.36562,0 -1.7032,-0.04604 -1.8106,-0.24551c-0.07672,-0.1381 -0.09206,-0.32223 -0.04604,-0.39895c0.06138,-0.09206 0.85927,-0.15344 1.85662,-0.15344z" fill="#585e73" stroke="none" stroke-width="1" stroke-linecap="butt"/><path d="M304.64068,194.49265h1.76456l-0.04604,0.4143l-0.04604,0.42963l-1.45769,0.04604c-1.82594,0.06138 -2.10213,-0.01535 -2.0561,-0.46032c0.01535,-0.19946 0.04604,-0.36826 0.04604,-0.39895c0.01535,-0.01535 0.81324,-0.0307 1.79526,-0.0307z" fill="#585e73" stroke="none" stroke-width="1" stroke-linecap="butt"/><path d="M175.72569,136.69628h0.50635l-0.04604,2.33229l-0.04604,2.34763l-0.49101,0.04604l-0.50635,0.04604v-1.53441v-1.54975h-0.62911c-0.58307,0 -0.61376,-0.01535 -0.56774,-0.41429c0.03069,-0.33757 0.1381,-0.44498 0.50635,-0.50636c0.27619,-0.04604 0.52169,-0.21482 0.61375,-0.42963c0.10741,-0.24551 0.2762,-0.33757 0.6598,-0.33757z" fill="#585e73" stroke="none" stroke-width="1" stroke-linecap="butt"/><path d="M175.37277,149.89214c0.42963,0.01534 0.88995,0.1074 1.05874,0.23017c0.30689,0.23016 0.70583,0.92064 0.70583,1.22752c0,0.47567 -0.53704,1.15081 -1.30424,1.6725c-0.46033,0.30689 -0.84392,0.62912 -0.84392,0.72118c0,0.09206 0.38361,0.1381 1.0434,0.12275c1.01271,-0.04604 1.02804,-0.03069 1.07408,0.36825l0.04604,0.41429h-1.84129c-1.68785,0 -2.14817,-0.10741 -1.7032,-0.38361c0.09206,-0.04604 0.15345,-0.21482 0.15345,-0.36825c0,-0.15344 0.27619,-0.52169 0.62911,-0.7979c1.51906,-1.25821 1.68784,-1.47303 1.53441,-1.85662c-0.09206,-0.24551 -0.26085,-0.36825 -0.58307,-0.39895c-0.42963,-0.04604 -0.47568,0 -0.56774,0.49101c-0.09206,0.49102 -0.16878,0.5524 -0.55239,0.5524c-0.41429,0 -0.46033,-0.04605 -0.46033,-0.50636c0,-0.32223 0.15344,-0.67513 0.42963,-0.99736c0.36825,-0.42963 0.50636,-0.49101 1.18149,-0.49101z" fill="#585e73" stroke="none" stroke-width="1" stroke-linecap="butt"/><path d="M176.49289,163.53297c0.42963,0.36825 0.50635,1.64182 0.09206,1.73388c-0.19946,0.03069 -0.16879,0.12275 0.15344,0.47567c0.39895,0.42963 0.56774,1.33494 0.24551,1.33494c-0.07672,0 -0.15344,0.1074 -0.15344,0.2455c0,0.1381 -0.1381,0.2762 -0.30689,0.32223c-0.16879,0.04604 -0.30689,0.1381 -0.30689,0.21482c0,0.26085 -1.6725,0.15344 -2.01007,-0.1381c-0.24551,-0.21482 -0.75186,-1.10477 -0.75186,-1.35028c0,-0.03069 0.27619,-0.06138 0.62911,-0.06138c0.38361,0 0.58308,0.06138 0.5217,0.15344c-0.16879,0.27619 0.23016,0.61376 0.72118,0.61376c0.32223,0 0.47568,-0.09207 0.56774,-0.35291c0.18413,-0.47567 0.04603,-0.70583 -0.50635,-0.84392c-0.65979,-0.16879 -0.64444,-0.65979 0.03069,-0.82858c0.49102,-0.12275 0.58307,-0.32223 0.39895,-0.7979c-0.1381,-0.35291 -0.98202,-0.32223 -0.98202,0.03069c0,0.38361 -0.29154,0.64446 -0.72117,0.64446c-0.29154,0 -0.35292,-0.07672 -0.35292,-0.46032c0,-0.27619 0.1381,-0.62911 0.35292,-0.84393c0.44497,-0.47567 1.84128,-0.53703 2.37833,-0.09206z" fill="#585e73" stroke="none" stroke-width="1" stroke-linecap="butt"/><path d="M176.01722,176.4373h0.50635v1.45769c0,1.31959 0.03069,1.47303 0.27619,1.427c0.18413,-0.03069 0.27619,0.07672 0.30689,0.36825c0.04604,0.35291 -0.01534,0.42963 -0.26085,0.42963c-0.26085,0 -0.32223,0.09207 -0.32223,0.53704c0,0.50635 -0.03069,0.53703 -0.53705,0.53703c-0.50635,0 -0.53703,-0.03069 -0.53703,-0.53703v-0.53704h-0.99737h-0.99736v-0.46032c0,-0.30689 0.15344,-0.62912 0.46033,-0.93599c0.24551,-0.26085 0.49101,-0.61376 0.53704,-0.7672c0.06138,-0.16879 0.1381,-0.29155 0.19946,-0.29155c0.06138,0 0.2762,-0.27619 0.49102,-0.61376c0.32223,-0.50635 0.46033,-0.61376 0.87461,-0.61376zM175.37277,178.09445c-0.19946,0.1381 -0.84392,1.04339 -0.84392,1.18149c0,0.04604 0.23016,0.07672 0.50635,0.04604c0.41429,-0.03069 0.47568,-0.10742 0.44498,-0.38361c-0.03069,-0.18413 0.03069,-0.47567 0.12275,-0.65979c0.16879,-0.30689 0.06138,-0.39895 -0.23016,-0.18414z" fill="#585e73" stroke="none" stroke-width="1" stroke-linecap="butt"/><path d="M245.05153,137.36651c0,0.27649 -0.27649,0.41473 -0.94006,0.41473c-0.58063,0 -0.99535,0.16589 -1.10595,0.41473c-0.1106,0.33178 0.08295,0.41473 0.82946,0.41473c0.74651,0 1.023,0.13824 1.27183,0.69121c0.66357,1.46537 -0.88475,2.82014 -2.43306,2.10128c-0.35943,-0.16589 -0.66357,-0.47003 -0.66357,-0.71886c0,-0.47003 0.69121,-0.58063 0.96769,-0.13825c0.27649,0.44238 1.16123,0.33178 1.35477,-0.16589c0.30414,-0.77416 -0.35943,-1.24418 -1.38242,-1.05064c-0.94006,0.16589 -0.94006,0.16589 -0.77416,-0.74651c0.08295,-0.52532 0.19354,-1.10595 0.27649,-1.29949c0.13825,-0.52532 2.59896,-0.44238 2.59896,0.08295z" fill="#5c6277" stroke="#585e73" stroke-width="0.2" stroke-linecap="butt"/><path d="M244.77504,150.63776c0.49767,0.58063 0.1106,0.88476 -0.58063,0.47003c-0.44238,-0.27649 -0.66358,-0.27649 -0.9677,-0.02766c-0.63592,0.52532 -0.47003,0.99535 0.38708,0.88475c1.023,-0.13825 1.52067,0.27649 1.52067,1.27183c0,1.60361 -1.43772,2.26718 -2.57131,1.13359c-0.69121,-0.69121 -0.74651,-2.62661 -0.1106,-3.53901c0.49767,-0.71886 1.79715,-0.82946 2.32247,-0.19354zM243.11613,152.84963c-0.44238,0.55297 -0.16589,1.24419 0.52532,1.24419c0.63592,0 0.88475,-0.49767 0.52532,-1.18888c-0.30414,-0.58063 -0.60827,-0.60827 -1.05064,-0.0553z" fill="#5c6277" stroke="#585e73" stroke-width="0.2" stroke-linecap="butt"/><path d="M243.53086,163.49429c1.7695,0 1.8248,0.11059 0.82946,2.04598c-0.38708,0.74651 -0.69121,1.65891 -0.69121,2.01834c0,0.44238 -0.1659,0.63592 -0.52532,0.63592c-0.44238,0 -0.49767,-0.13825 -0.33178,-0.91241c0.13825,-0.47003 0.41473,-1.27183 0.66358,-1.7695c0.60827,-1.18888 0.60827,-1.18889 -0.49767,-1.18889c-0.66357,0 -0.96769,-0.13825 -0.96769,-0.41473c0,-0.33178 0.35944,-0.41472 1.52067,-0.41472z" fill="#5c6277" stroke="#585e73" stroke-width="0.2" stroke-linecap="butt"/><path d="M244.85797,178.39679c-0.27649,0.41473 -0.24884,0.60827 0.0553,0.8571c1.35477,1.13359 -0.71886,2.7925 -2.37777,1.93539c-0.58063,-0.33178 -0.74652,-1.7695 -0.22119,-2.10129c0.22119,-0.1106 0.22119,-0.24884 0,-0.47003c-0.41473,-0.41473 -0.38708,-0.91241 0.13825,-1.43773c1.023,-1.023 3.12428,0.0553 2.40542,1.21653zM243.14377,177.56735c-0.52532,0.33178 -0.16589,1.18888 0.44237,1.07828c0.27649,-0.0553 0.49767,-0.33178 0.49767,-0.60827c0,-0.60827 -0.38708,-0.80181 -0.94005,-0.47003zM242.83965,180.111c0,0.63592 0.82946,0.91241 1.32713,0.41473c0.35943,-0.33178 0.35943,-0.49767 0.05529,-0.82946c-0.60827,-0.74651 -1.38242,-0.49767 -1.38242,0.41473z" fill="#5c6277" stroke="#585e73" stroke-width="0.2" stroke-linecap="butt"/><path d="M251.80794,193.16092c-0.27649,0.41473 -0.24884,0.60826 0.0553,0.85709c1.35477,1.13359 -0.71886,2.7925 -2.37777,1.9354c-0.58063,-0.33178 -0.74652,-1.76951 -0.22119,-2.10129c0.22119,-0.1106 0.22119,-0.24884 0,-0.47003c-0.41473,-0.41473 -0.38708,-0.9124 0.13825,-1.43772c1.023,-1.023 3.12428,0.0553 2.40542,1.21653zM250.09374,192.33147c-0.52532,0.33178 -0.1659,1.18888 0.44237,1.07829c0.27649,-0.0553 0.49767,-0.33178 0.49767,-0.60827c0,-0.60827 -0.38708,-0.80181 -0.94005,-0.47003zM249.78961,194.87513c0,0.63592 0.82946,0.91241 1.32713,0.41473c0.35943,-0.33178 0.35943,-0.49767 0.05529,-0.82945c-0.60827,-0.74651 -1.38242,-0.49768 -1.38242,0.41472z" fill="#5c6277" stroke="#585e73" stroke-width="0.2" stroke-linecap="butt"/><path d="M225.25982,123.95228c0,0.51466 -0.51466,0.48757 -1.11058,-0.05418c-0.54174,-0.48758 -1.43562,-0.32505 -1.2731,0.24379c0.08126,0.16252 0.48758,0.46048 0.94804,0.59592c1.73358,0.56884 2.22115,1.65233 1.11058,2.41077c-1.16476,0.81262 -3.19629,0.27087 -3.19629,-0.83971c0,-0.48758 0.70428,-0.46048 0.92098,0.05418c0.08126,0.24378 0.48757,0.4063 0.97514,0.4063c1.13767,0 1.00223,-0.78552 -0.1896,-1.19184c-0.48758,-0.16252 -1.0564,-0.48758 -1.2731,-0.70428c-0.59592,-0.56884 -0.24379,-1.54398 0.623,-1.84193c1.13767,-0.37922 2.46495,0.13544 2.46495,0.92098z" fill="#585e73" stroke="#5c6277" stroke-width="0.125" stroke-linecap="butt"/><path d="M232.16706,122.97713c0.32506,0 0.4063,0.4334 0.4063,2.30241c0,1.86902 -0.08126,2.30242 -0.4063,2.30242c-0.32506,0 -0.4063,-0.4334 -0.4063,-2.30242c0,-1.86902 0.08126,-2.30241 0.4063,-2.30241z" fill="#585e73" stroke="#5c6277" stroke-width="0.125" stroke-linecap="butt"/><path d="M234.06316,122.97713c0.2167,0 0.4063,0.10835 0.4063,0.27088c0,0.13543 -0.18961,0.27088 -0.4063,0.27088c-0.2167,0 -0.40631,-0.13544 -0.40631,-0.27088c0,-0.16252 0.18961,-0.27088 0.40631,-0.27088z" fill="#585e73" stroke="#5c6277" stroke-width="0.25" stroke-linecap="butt"/><path d="M245.1689,122.97713c0.32506,0 0.4063,0.4334 0.4063,2.24825v2.27533l-1.32727,0.02708c-1.76067,0.02708 -2.30242,-0.67719 -1.84193,-2.46495c0.18961,-0.73135 0.51465,-0.86679 1.76067,-0.75844c0.46048,0.02708 0.59592,-0.08126 0.59592,-0.65009c0,-0.4334 0.16252,-0.67719 0.4063,-0.67719zM243.32697,125.06285c-0.35214,0.35214 -0.18961,1.65232 0.24378,1.81484c0.59592,0.2167 0.59592,0.2167 0.92098,-0.37922c0.16252,-0.32505 0.2167,-0.81262 0.13543,-1.08349c-0.16252,-0.51466 -0.94805,-0.73135 -1.30019,-0.35214z" fill="#585e73" stroke="#5c6277" stroke-width="0.125" stroke-linecap="butt"/><path d="M248.55481,122.97713c0.48758,0 0.54174,0.18961 0.54174,1.8961v1.8961h1.0835c0.78552,0 1.08349,0.10836 1.08349,0.40631c0,0.32505 -0.35213,0.40631 -1.62523,0.40631h-1.62523v-2.30242c0,-2.1128 0.05418,-2.30241 0.54175,-2.30241z" fill="#585e73" stroke="#5c6277" stroke-width="0.125" stroke-linecap="butt"/><path d="M252.48245,122.97713c0.2167,0 0.4063,0.10835 0.4063,0.27088c0,0.13543 -0.18961,0.27088 -0.4063,0.27088c-0.2167,0 -0.40631,-0.13544 -0.40631,-0.27088c0,-0.16252 0.18961,-0.27088 0.40631,-0.27088z" fill="#585e73" stroke="#5c6277" stroke-width="0.25" stroke-linecap="butt"/><path d="M227.23719,123.78975c0.10835,0.37922 0.37922,0.54175 0.94805,0.54175c0.70427,0 0.8397,0.13544 1.00222,0.81262c0.27087,1.16474 0.59592,1.21892 0.94804,0.13542c0.16252,-0.51466 0.48758,-0.94804 0.70428,-0.94804c0.48758,0 0.48758,0.08126 -0.37922,2.30242c-0.65009,1.65232 -0.8397,1.89611 -1.4898,1.97737c-0.54174,0.05418 -0.73135,-0.02708 -0.73135,-0.35214c0,-0.24378 0.13542,-0.35213 0.27087,-0.27088c0.54174,0.32505 0.59592,-0.67718 0.13543,-2.00445c-0.37922,-1.02932 -0.59592,-1.2731 -0.97514,-1.19184c-0.65009,0.18961 -0.70427,1.65232 -0.10835,1.86902c0.56883,0.2167 0.51466,0.92098 -0.08126,0.92098c-0.75845,0 -1.13767,-0.56883 -1.13767,-1.65232c0,-0.56882 -0.16253,-1.0835 -0.32506,-1.16475c-0.27087,-0.13544 -0.27087,-0.1896 0,-0.32505c0.16252,-0.08126 0.32506,-0.37922 0.32506,-0.67718c0,-0.67718 0.70427,-0.67718 0.89388,0.02708z" fill="#585e73" stroke="#5c6277" stroke-width="0.125" stroke-linecap="butt"/><path d="M257.62901,123.248c0.2167,0 0.4063,0.18961 0.4063,0.40631c0,0.24378 0.1896,0.48758 0.4063,0.56882c0.2167,0.10835 0.4063,0.27088 0.4063,0.40631c0,0.13543 -0.1896,0.24378 -0.4063,0.24378c-0.27087,0 -0.4063,0.27087 -0.4063,0.81262c0,0.48758 0.16252,0.89389 0.4063,0.97515c0.56882,0.2167 0.51466,0.92097 -0.08126,0.92097c-0.75844,0 -1.13767,-0.56882 -1.13767,-1.65232c0,-0.56884 -0.16252,-1.0835 -0.32505,-1.16475c-0.27087,-0.13544 -0.27087,-0.1896 0,-0.32505c0.16252,-0.08126 0.32505,-0.37922 0.32505,-0.67718c0,-0.27088 0.1896,-0.51466 0.4063,-0.51466z" fill="#585e73" stroke="#5c6277" stroke-width="0.125" stroke-linecap="butt"/><path d="M239.99526,124.06062c0.59592,0 1.51688,0.8397 1.51688,1.38144c0,0.4334 -0.18961,0.51466 -1.08349,0.51466c-0.75845,0 -1.08349,0.10834 -1.08349,0.37922c0,0.54175 0.54174,0.67718 1.30019,0.35214c0.78552,-0.35214 1.13767,0.02708 0.48758,0.51466c-1.21892,0.86679 -2.68163,0.18961 -2.68163,-1.24602c0,-0.59592 0.18961,-1.0564 0.59592,-1.40853c0.35214,-0.27088 0.75844,-0.48758 0.94805,-0.48758zM239.85982,124.87323c-0.27087,0 -0.51466,0.10836 -0.51466,0.27088c0,0.13544 0.32505,0.27087 0.70427,0.27087c0.37922,0 0.62301,-0.10835 0.51466,-0.27087c-0.08126,-0.16252 -0.40631,-0.27088 -0.70428,-0.27088z" fill="#585e73" stroke="#5c6277" stroke-width="0.125" stroke-linecap="butt"/><path d="M256.03086,124.5211c0.46048,0.46048 0.46048,0.48758 0,0.56884c-0.24378,0.05418 -0.6501,-0.05418 -0.8668,-0.24378c-0.29796,-0.24378 -0.48758,-0.24378 -0.70428,-0.02708c-0.29796,0.29796 -0.16252,0.37922 1.62523,1.00222c0.4063,0.16252 0.4334,1.00222 0,1.43563c-0.46048,0.46048 -1.97737,0.4063 -2.38367,-0.08127c-0.48758,-0.59592 -0.10835,-0.83971 0.67718,-0.40631c0.54175,0.27088 0.75844,0.29797 1.00222,0.05418c0.24378,-0.24378 0.05418,-0.43339 -0.81262,-0.78552c-1.21892,-0.46048 -1.51688,-1.19184 -0.6501,-1.6794c0.70427,-0.4334 1.59815,-0.35214 2.11281,0.16252z" fill="#585e73" stroke="#5c6277" stroke-width="0.125" stroke-linecap="butt"/><path d="M261.73619,124.45685c0.67718,0.51466 0.22678,0.90395 -0.50459,0.44347c-0.37922,-0.2167 -0.6501,-0.24378 -0.81262,-0.08126c-0.1896,0.18961 0.02709,0.4334 0.70428,0.70428c0.75844,0.32505 0.97515,0.56882 0.97515,1.08349c0,0.78552 -0.8668,1.16474 -2.00445,0.86679c-0.83971,-0.2167 -1.16475,-0.97514 -0.4334,-0.97514c0.29796,0 0.54175,0.10836 0.54175,0.27088c0,0.13543 0.24378,0.27088 0.54175,0.27088c0.8668,0 0.623,-0.70428 -0.32506,-0.97515c-1.02932,-0.29796 -1.32727,-1.11057 -0.59592,-1.65232c0.51775,-0.38269 1.01677,-0.44734 1.55931,-0.17842c0.1103,0.05467 0.3538,0.22251 0.3538,0.22251z" fill="#585e73" stroke="#5c6277" stroke-width="0.125" stroke-linecap="butt"/><path d="M234.06316,124.3315c0.32506,0 0.4063,0.35214 0.4063,1.62523c0,1.2731 -0.08126,1.62523 -0.4063,1.62523c-0.32506,0 -0.40631,-0.35212 -0.40631,-1.62523c0,-1.2731 0.08126,-1.62523 0.40631,-1.62523z" fill="#585e73" stroke="#5c6277" stroke-width="0.125" stroke-linecap="butt"/><path d="M236.36557,124.3315c1.57105,0 1.65233,0.24378 0.62301,1.46271l-0.70428,0.8397l0.8397,0.08126c0.54174,0.05418 0.8668,0.24378 0.8668,0.48758c0,0.27088 -0.37922,0.37922 -1.4898,0.37922c-1.2731,0 -1.48981,-0.08126 -1.48981,-0.48758c0,-0.27088 0.29796,-0.78552 0.67718,-1.13767c0.37922,-0.35214 0.67718,-0.73136 0.67718,-0.8668c0,-0.10835 -0.29796,-0.2167 -0.67718,-0.2167c-0.37922,0 -0.67718,-0.13542 -0.67718,-0.27088c0,-0.16252 0.62301,-0.27087 1.35437,-0.27087z" fill="#585e73" stroke="#5c6277" stroke-width="0.125" stroke-linecap="butt"/><path d="M252.48245,124.3315c0.32506,0 0.4063,0.35214 0.4063,1.62523c0,1.2731 -0.08126,1.62523 -0.4063,1.62523c-0.32506,0 -0.40631,-0.35212 -0.40631,-1.62523c0,-1.2731 0.08126,-1.62523 0.40631,-1.62523z" fill="#585e73" stroke="#5c6277" stroke-width="0.125" stroke-linecap="butt"/><path d="M173.35114,228.03203c1.12247,0.62464 2.19329,0.93696 3.21243,0.93696c1.02384,0 1.53577,-0.39686 1.53577,-1.19057c0,-0.36164 -0.14559,-0.681 -0.43678,-0.95809c-0.28649,-0.2771 -0.81485,-0.59411 -1.58507,-0.95105c-0.77024,-0.36164 -1.34791,-0.64343 -1.73302,-0.84537c-0.38511,-0.20665 -0.89704,-0.5448 -1.53577,-1.01445c-0.63404,-0.46965 -1.12013,-0.95809 -1.45827,-1.46532c-0.95809,-1.36669 -1.43714,-3.10911 -1.43714,-5.22724c0,-2.11814 0.78667,-3.90282 2.36001,-5.35405c1.57334,-1.45592 3.63512,-2.18389 6.18533,-2.18389c1.73302,0 3.3322,0.18786 4.79751,0.56359c1.46532,0.37103 2.26843,1.59917 2.26843,1.66962c0,0.84537 -0.26536,1.91149 -0.79606,3.19834c-0.52601,1.28215 0.08895,3.968 -0.12709,4.11359c-1.54046,-0.79372 -3.90488,-3.16254 -5.12128,-3.16254c-1.2117,0 -1.81756,0.43209 -1.81756,1.29624c0,0.53071 0.44618,1.00036 1.33851,1.40896c0.19256,0.09863 0.46731,0.23248 0.82424,0.40155c0.36164,0.16438 0.77728,0.36164 1.24693,0.59177c0.46965,0.23013 0.97453,0.51896 1.51464,0.86651c0.5401,0.34755 1.12482,0.81015 1.75416,1.38783c1.27276,1.20231 1.90915,2.78974 1.90915,4.76228c0,2.5737 -0.70918,4.67775 -2.12753,6.31214c-1.41836,1.63439 -3.60694,2.47508 -6.56575,2.52204c-1.44183,0 -2.74747,-0.11976 -3.91691,-0.35928c-1.16474,-0.23952 -2.18153,-0.70683 -3.05039,-1.40191c-0.86416,-0.69979 -1.29624,-1.54281 -1.29624,-2.52908c0,-0.98627 0.18082,-1.9655 0.54245,-2.93768c0.36164,-0.97687 0.74675,-1.6203 1.15534,-1.93028c0,0 1.24221,0.85475 2.35998,1.47939zM197.32261,235.13319c0,0.29119 -1.00975,0.43678 -3.02926,0.43678c-2.40462,-0.09863 -3.60694,-0.25596 -3.60694,-0.472v-12.76518h-1.83869c-0.48374,0 -0.72561,-0.83129 -0.72561,-2.49386c0,-0.43209 0.04227,-0.96045 0.12681,-1.58507c0.08454,-0.62464 0.26066,-0.93696 0.52836,-0.93696h1.90915v-3.1772c0,-0.47905 1.01445,-0.71857 3.04335,-0.71857c2.0336,0 3.0504,0.19256 3.0504,0.57768v2.3107l0.03523,1.00741h3.07153c0.4086,0 0.6129,0.84302 0.6129,2.52908c0,1.68136 -0.2043,2.52204 -0.6129,2.52204h-2.5643zM201.03633,217.58222c0,-0.2677 1.09899,-0.40155 3.29697,-0.40155c2.20267,0 3.34158,0.11977 3.41673,0.35929l2.59248,8.51717l2.48681,-8.58761c0.09863,-0.19256 0.84537,-0.28883 2.24025,-0.28883c3.19834,0 4.80688,0.15733 4.66128,0.472l-8.55705,24.12844c-0.02349,0.14559 -0.67865,0.2184 -1.96551,0.2184c-1.28685,0 -2.48447,-0.04227 -3.59285,-0.12681c-1.10369,-0.08454 -1.63205,-0.18786 -1.58507,-0.30997l3.14198,-7.57316z" fill="none" stroke-opacity="0.50196" stroke="#000000" stroke-width="7.5" stroke-linecap="square"/><path d="M223.6035,228.6062l2.51973,-7.21387h8.30882v7.21387z" fill="none" stroke-opacity="0.50196" stroke="#000000" stroke-width="7.5" stroke-linecap="square"/><path d="M241.77949,233.22406v-22.43769c0,-0.50254 1.21875,-0.75379 3.65625,-0.75379c2.4422,0 3.6633,0.25127 3.6633,0.75379v17.67541h5.55835c0.43209,0 0.73266,0.56593 0.90173,1.6978c0.07045,0.5495 0.10568,1.11308 0.10568,1.69075c0,0.57768 -0.03522,1.16709 -0.10567,1.76825c-0.19256,1.15534 -0.50487,1.73302 -0.93696,1.73302h-11.10965c-0.53071,0 -0.9534,-0.21604 -1.26806,-0.64813c-0.30997,-0.43209 -0.46496,-0.92522 -0.46496,-1.47941zM264.24675,235.1332c0,0.19256 -1.10134,0.28884 -3.30401,0.28884c-2.19798,0 -3.29697,-0.08454 -3.29697,-0.25361v-17.71063c0,-0.16438 1.09899,-0.24656 3.29697,-0.24656c2.20267,0 3.30402,0.07045 3.30402,0.21135zM264.24675,215.29504c0,0.16908 -1.10134,0.25361 -3.30401,0.25361c-2.19798,0 -3.29697,-0.0728 -3.29697,-0.21839v-5.19201c0,-0.23952 1.09899,-0.35928 3.29697,-0.35928c2.20267,0 3.30402,0.0728 3.30402,0.2184zM268.25355,228.85628c1.94906,1.17883 3.48718,1.76825 4.61435,1.76825c0.72327,0 1.0849,-0.25127 1.0849,-0.75379c0,-0.36164 -0.62464,-0.83129 -1.87392,-1.40896c-3.00578,-1.22579 -4.50867,-3.23356 -4.50867,-6.02331c0,-1.77998 0.64813,-3.13729 1.94437,-4.0719c1.30093,-0.93931 2.85784,-1.40896 4.67071,-1.40896c1.81756,0 3.35567,0.19256 4.61435,0.57768c1.26337,0.38511 1.89506,0.89 1.89506,1.51464c0,0.52601 -0.25831,1.22345 -0.77493,2.0923c-0.51663,0.86416 -0.8712,1.33147 -1.06377,1.40192c-1.03323,-0.57298 -2.15102,-0.85946 -3.35333,-0.85946c-0.64813,0 -0.97218,0.22778 -0.97218,0.68334c0,0.28649 0.12446,0.53305 0.37338,0.7397c0.25361,0.20195 0.71622,0.45322 1.38783,0.75379c0.6763,0.30058 1.23519,0.57298 1.67666,0.8172c0.44618,0.23952 0.94636,0.57532 1.50055,1.00741c1.15534,0.91113 1.73302,2.1017 1.73302,3.57172c0,1.92088 -0.63873,3.47779 -1.91619,4.67071c-1.27276,1.18822 -3.19599,1.78234 -5.76969,1.78234c-1.70484,0 -3.2547,-0.28883 -4.64957,-0.86651c-1.39487,-0.57768 -2.0923,-1.37138 -2.0923,-2.38115c0,-0.67161 0.16204,-1.37843 0.48609,-2.12048c0.32406,-0.74675 0.65517,-1.24224 0.99332,-1.48645zM292.0227,235.1332c0,0.29119 -1.00975,0.43678 -3.02926,0.43678c-2.40463,-0.09863 -3.60694,-0.25596 -3.60694,-0.472v-12.76518l-2.40211,2.53538c-0.48374,0 -0.16219,-3.36668 -0.16219,-5.02925c0,-0.43209 0.04227,-0.96045 0.12681,-1.58507c0.08454,-0.62464 0.26066,-0.93696 0.52836,-0.93696h1.90915v-3.1772c0,-0.47905 1.01445,-0.71857 3.04335,-0.71857c2.0336,0 3.0504,0.19256 3.0504,0.57768v2.3107l0.03523,1.00741h3.07153c0.4086,0 0.6129,0.84302 0.6129,2.52908c0,1.68136 -0.2043,2.52204 -0.6129,2.52204h-2.5643zM302.37262,230.62453c0.72327,0 1.0849,-0.25127 1.0849,-0.75379c0,-0.36164 -0.62464,-0.83129 -1.87392,-1.40896c-3.00578,-1.22579 -4.50867,-3.23356 -4.50867,-6.02331c0,-1.77998 0.64813,-3.13729 1.94437,-4.0719c1.30093,-0.93931 2.85784,-1.40896 4.67071,-1.40896c1.81756,0 3.35567,0.19256 4.61435,0.57768c1.26337,0.38511 1.89506,0.89 1.89506,1.51464c0,0.52601 -0.25831,1.22345 -0.77493,2.0923c-0.51663,0.86416 -0.8712,1.33147 -1.06377,1.40192c-1.03323,-0.57298 -2.15102,-0.85946 -3.35333,-0.85946c-0.64813,0 -0.97218,0.22778 -0.97218,0.68334c0,0.28649 0.12446,0.53305 0.37338,0.7397c0.25361,0.20195 0.71622,0.45322 1.38783,0.75379c0.6763,0.30058 1.23519,0.57298 1.67666,0.8172c0.44618,0.23952 0.94636,0.57532 1.50055,1.00741c1.15534,0.91113 1.73302,2.1017 1.73302,3.57172c0,1.92088 -0.63873,3.47779 -1.91619,4.67071c-1.27276,1.18822 -3.19599,1.78234 -5.76969,1.78234c-1.70484,0 -3.2547,-0.28883 -4.64957,-0.86651c-1.39487,-0.57768 -2.0923,-1.37138 -2.0923,-2.38115c0,-0.67161 0.16204,-1.37843 0.48609,-2.12048c0.32406,-0.74675 -0.89424,-4.90446 -0.55608,-5.14867c0,0 5.03655,5.43042 6.16372,5.43042z" fill="none" stroke-opacity="0.50196" stroke="#000000" stroke-width="7.5" stroke-linecap="square"/><path d="M170.99113,226.55263c0.45556,0.36164 1.24224,0.85477 2.36001,1.47941c1.12247,0.62464 2.19329,0.93696 3.21243,0.93696c1.02384,0 1.53577,-0.39686 1.53577,-1.19057c0,-0.36164 -0.14559,-0.681 -0.43678,-0.95809c-0.28649,-0.2771 -0.81485,-0.59411 -1.58507,-0.95105c-0.77024,-0.36164 -1.34791,-0.64343 -1.73302,-0.84537c-0.38511,-0.20665 -0.89704,-0.5448 -1.53577,-1.01445c-0.63404,-0.46965 -1.12013,-0.95809 -1.45827,-1.46532c-0.95809,-1.36669 -1.43714,-3.10911 -1.43714,-5.22724c0,-2.11814 0.78667,-3.90282 2.36001,-5.35405c1.57334,-1.45592 3.63512,-2.18389 6.18533,-2.18389c1.73302,0 3.3322,0.18786 4.79751,0.56359c1.46532,0.37103 2.22147,0.85711 2.26843,1.45828c0,0.07045 0,0.1409 0,0.21135c0,0.84537 -0.26536,1.91149 -0.79606,3.19834c-0.52601,1.28215 -0.89704,1.99603 -1.11308,2.14162c-1.54046,-0.79372 -2.9189,-1.19057 -4.1353,-1.19057c-1.2117,0 -1.81756,0.43209 -1.81756,1.29624c0,0.53071 0.44618,1.00036 1.33851,1.40896c0.19256,0.09863 0.46731,0.23248 0.82424,0.40155c0.36164,0.16438 0.77728,0.36164 1.24693,0.59177c0.46965,0.23013 0.97453,0.51896 1.51464,0.86651c0.5401,0.34755 1.12482,0.81015 1.75416,1.38783c1.27276,1.20231 1.90915,2.78974 1.90915,4.76228c0,2.5737 -0.70918,4.67775 -2.12753,6.31214c-1.41836,1.63439 -3.60694,2.47508 -6.56575,2.52204c-1.44183,0 -2.74747,-0.11976 -3.91691,-0.35928c-1.16474,-0.23952 -2.18153,-0.70683 -3.05039,-1.40191c-0.86416,-0.69979 -1.29624,-1.54281 -1.29624,-2.52908c0,-0.98627 0.18082,-1.9655 0.54245,-2.93768c0.36164,-0.97687 0.74675,-1.6203 1.15534,-1.93028zM197.32261,235.13319c0,0.29119 -1.00975,0.43678 -3.02926,0.43678c-2.40462,-0.09863 -3.60694,-0.25596 -3.60694,-0.472v-12.76518h-1.83869c-0.48374,0 -0.72561,-0.83129 -0.72561,-2.49386c0,-0.43209 0.04227,-0.96045 0.12681,-1.58507c0.08454,-0.62464 0.26066,-0.93696 0.52836,-0.93696h1.90915v-3.1772c0,-0.47905 1.01445,-0.71857 3.04335,-0.71857c2.0336,0 3.0504,0.19256 3.0504,0.57768v2.3107l0.03523,1.00741h3.07153c0.4086,0 0.6129,0.84302 0.6129,2.52908c0,1.68136 -0.2043,2.52204 -0.6129,2.52204h-2.5643zM201.03633,217.50006c0,-0.2677 1.09899,-0.40155 3.29697,-0.40155c2.20267,0 3.34158,0.11977 3.41673,0.35929l2.59248,8.51717l2.48681,-8.58761c0.09863,-0.19256 0.84537,-0.28883 2.24025,-0.28883c3.19834,0 4.72472,0.15733 4.57912,0.472l-8.47489,24.12844c-0.02349,0.14559 -0.67865,0.2184 -1.96551,0.2184c-1.28685,0 -2.48447,-0.04227 -3.59285,-0.12681c-1.10369,-0.08454 -1.63205,-0.18786 -1.58507,-0.30997l3.14198,-7.57316z" fill="#ffffff" stroke="none" stroke-width="1" stroke-linecap="square"/><path d="M237.1709,228.6062h-14.11517c-0.80403,0 -1.35121,-0.67749 -1.64156,-2.03247c-0.1154,-0.53914 -0.17309,-1.06394 -0.17309,-1.57446c0,-0.51527 0.05769,-1.04248 0.17309,-1.58161c0.29034,-1.35021 0.83753,-2.02533 1.64156,-2.02533h14.11516c0.80403,0 1.35122,0.67511 1.64156,2.02533c0.1154,0.53914 0.17309,1.06634 0.17309,1.58161c0,0.51051 -0.0577,1.03532 -0.17309,1.57446c-0.29034,1.355 -0.83752,2.03247 -1.64156,2.03247z" fill="#ffffff" stroke="none" stroke-width="1" stroke-linecap="square"/><path d="M241.77949,233.22406v-22.43769c0,-0.50254 1.21875,-0.75379 3.65625,-0.75379c2.4422,0 3.6633,0.25127 3.6633,0.75379v17.67541h5.55835c0.43209,0 0.73266,0.56593 0.90173,1.6978c0.07045,0.5495 0.10568,1.11308 0.10568,1.69075c0,0.57768 -0.03522,1.16709 -0.10567,1.76825c-0.19256,1.15534 -0.50487,1.73302 -0.93696,1.73302h-11.10965c-0.53071,0 -0.9534,-0.21604 -1.26806,-0.64813c-0.30997,-0.43209 -0.46496,-0.92522 -0.46496,-1.47941zM264.24675,235.1332c0,0.19256 -1.10134,0.28884 -3.30401,0.28884c-2.19798,0 -3.29697,-0.08454 -3.29697,-0.25361v-17.71063c0,-0.16438 1.09899,-0.24656 3.29697,-0.24656c2.20267,0 3.30402,0.07045 3.30402,0.21135zM264.24675,215.29504c0,0.16908 -1.10134,0.25361 -3.30401,0.25361c-2.19798,0 -3.29697,-0.0728 -3.29697,-0.21839v-5.19201c0,-0.23952 1.09899,-0.35928 3.29697,-0.35928c2.20267,0 3.30402,0.0728 3.30402,0.2184zM268.25355,228.85628c1.94906,1.17883 3.48718,1.76825 4.61435,1.76825c0.72327,0 1.0849,-0.25127 1.0849,-0.75379c0,-0.36164 -0.62464,-0.83129 -1.87392,-1.40896c-3.00578,-1.22579 -4.50867,-3.23356 -4.50867,-6.02331c0,-1.77998 0.64813,-3.13729 1.94437,-4.0719c1.30093,-0.93931 2.85784,-1.40896 4.67071,-1.40896c1.81756,0 3.35567,0.19256 4.61435,0.57768c1.26337,0.38511 1.89506,0.89 1.89506,1.51464c0,0.52601 -0.25831,1.22345 -0.77493,2.0923c-0.51663,0.86416 -0.8712,1.33147 -1.06377,1.40192c-1.03323,-0.57298 -2.15102,-0.85946 -3.35333,-0.85946c-0.64813,0 -0.97218,0.22778 -0.97218,0.68334c0,0.28649 0.12446,0.53305 0.37338,0.7397c0.25361,0.20195 0.71622,0.45322 1.38783,0.75379c0.6763,0.30058 1.23519,0.57298 1.67666,0.8172c0.44618,0.23952 0.94636,0.57532 1.50055,1.00741c1.15534,0.91113 1.73302,2.1017 1.73302,3.57172c0,1.92088 -0.63873,3.47779 -1.91619,4.67071c-1.27276,1.18822 -3.19599,1.78234 -5.76969,1.78234c-1.70484,0 -3.2547,-0.28883 -4.64957,-0.86651c-1.39487,-0.57768 -2.0923,-1.37138 -2.0923,-2.38115c0,-0.67161 0.16204,-1.37843 0.48609,-2.12048c0.32406,-0.74675 0.65517,-1.24224 0.99332,-1.48645zM292.0227,235.1332c0,0.29119 -1.00975,0.43678 -3.02926,0.43678c-2.40463,-0.09863 -3.60694,-0.25596 -3.60694,-0.472v-12.76518h-1.83869c-0.48374,0 -0.72561,-0.83129 -0.72561,-2.49386c0,-0.43209 0.04227,-0.96045 0.12681,-1.58507c0.08454,-0.62464 0.26066,-0.93696 0.52836,-0.93696h1.90915v-3.1772c0,-0.47905 1.01445,-0.71857 3.04335,-0.71857c2.0336,0 3.0504,0.19256 3.0504,0.57768v2.3107l0.03523,1.00741h3.07153c0.4086,0 0.6129,0.84302 0.6129,2.52908c0,1.68136 -0.2043,2.52204 -0.6129,2.52204h-2.5643zM297.75827,228.85628c1.94906,1.17883 3.48718,1.76825 4.61435,1.76825c0.72327,0 1.0849,-0.25127 1.0849,-0.75379c0,-0.36164 -0.62464,-0.83129 -1.87392,-1.40896c-3.00578,-1.22579 -4.50867,-3.23356 -4.50867,-6.02331c0,-1.77998 0.64813,-3.13729 1.94437,-4.0719c1.30093,-0.93931 2.85784,-1.40896 4.67071,-1.40896c1.81756,0 3.35567,0.19256 4.61435,0.57768c1.26337,0.38511 1.89506,0.89 1.89506,1.51464c0,0.52601 -0.25831,1.22345 -0.77493,2.0923c-0.51663,0.86416 -0.8712,1.33147 -1.06377,1.40192c-1.03323,-0.57298 -2.15102,-0.85946 -3.35333,-0.85946c-0.64813,0 -0.97218,0.22778 -0.97218,0.68334c0,0.28649 0.12446,0.53305 0.37338,0.7397c0.25361,0.20195 0.71622,0.45322 1.38783,0.75379c0.6763,0.30058 1.23519,0.57298 1.67666,0.8172c0.44618,0.23952 0.94636,0.57532 1.50055,1.00741c1.15534,0.91113 1.73302,2.1017 1.73302,3.57172c0,1.92088 -0.63873,3.47779 -1.91619,4.67071c-1.27276,1.18822 -3.19599,1.78234 -5.76969,1.78234c-1.70484,0 -3.2547,-0.28883 -4.64957,-0.86651c-1.39487,-0.57768 -2.0923,-1.37138 -2.0923,-2.38115c0,-0.67161 0.16204,-1.37843 0.48609,-2.12048c0.32406,-0.74675 0.65517,-1.24224 0.99332,-1.48645z" fill="#ffffff" stroke="none" stroke-width="1" stroke-linecap="square"/><path d="M331.4759,149.9883c3.41169,0 13.74171,0 13.74171,0c0,0 0,-4.07349 0,-4.84261c0,-0.98387 0.82017,-2.77565 2.11867,-1.84465c4.2875,3.07406 14.71894,12.67417 17.12988,14.40276c1.08759,0.77978 0.94051,2.47501 -0.25286,3.33063c-2.34617,1.68216 -11.69118,10.19365 -16.16029,13.39791c-1.70491,1.22239 -2.83541,0.7465 -2.83541,-0.02263c0,-0.98387 0,-5.84108 0,-5.84108c0,0 -10.74248,0 -14.1288,0c-1.90078,0 -4.45153,-2.63196 -4.45153,-4.57164c0,-1.85049 0,-5.84484 0,-9.09662c0,-2.71482 2.81417,-4.91206 4.83863,-4.91206z" fill="none" stroke-opacity="0.50196" stroke="#000000" stroke-width="7.5" stroke-linecap="butt"/><path d="M158.14539,154.90035c0,3.25178 0,7.24613 0,9.09662c0,1.93968 -2.55077,4.57164 -4.45154,4.57164c-3.38632,0 -14.1288,0 -14.1288,0c0,0 0,4.8572 0,5.84108c0,0.76913 -1.13051,1.24502 -2.83541,0.02263c-4.46911,-3.20426 -13.8141,-11.71575 -16.16029,-13.39791c-1.19335,-0.85562 -1.34044,-2.55084 -0.25286,-3.33063c2.41094,-1.72859 12.84238,-11.32871 17.12987,-14.40276c1.2985,-0.93099 2.11868,0.86078 2.11868,1.84465c0,0.76913 0,4.84261 0,4.84261c0,0 10.33003,0 13.7417,0c2.02446,0 4.83863,2.19724 4.83863,4.91206z" fill="none" stroke-opacity="0.50196" stroke="#000000" stroke-width="7.5" stroke-linecap="butt"/><path d="M331.4759,149.98829c3.41168,0 13.7417,0 13.7417,0c0,0 0,-4.07349 0,-4.84261c0,-0.98388 0.82018,-2.77566 2.11867,-1.84465c4.2875,3.07406 14.71894,12.67417 17.12988,14.40276c1.08759,0.77978 0.94051,2.47501 -0.25286,3.33064c-2.34617,1.68216 -11.69118,10.19365 -16.16029,13.39791c-1.7049,1.22238 -2.83541,0.7465 -2.83541,-0.02263c0,-0.98388 0,-5.84108 0,-5.84108c0,0 -10.74248,0 -14.1288,0c-1.90078,0 -4.45154,-2.63196 -4.45154,-4.57164c0,-1.8505 0,-5.84484 0,-9.09662c0,-2.71482 2.81417,-4.91206 4.83863,-4.91206z" fill="#e8f0fd" stroke="none" stroke-width="0" stroke-linecap="butt"/><path d="M158.14539,154.90035c0,3.25178 0,7.24613 0,9.09662c0,1.93968 -2.55077,4.57164 -4.45153,4.57164c-3.38632,0 -14.1288,0 -14.1288,0c0,0 0,4.8572 0,5.84108c0,0.76913 -1.1305,1.24502 -2.83541,0.02263c-4.46911,-3.20426 -13.81411,-11.71575 -16.16029,-13.39791c-1.19336,-0.85562 -1.34044,-2.55084 -0.25286,-3.33063c2.41094,-1.72859 12.84238,-11.32871 17.12988,-14.40276c1.2985,-0.93099 2.11867,0.86078 2.11867,1.84465c0,0.76913 0,4.84261 0,4.84261c0,0 10.33003,0 13.74171,0c2.02446,0 4.83863,2.19724 4.83863,4.91206z" fill="#e8f0fd" stroke="none" stroke-width="0" stroke-linecap="butt"/><path d="M305.75686,159.70442c1.08226,0.74691 0.88162,0.70118 0.88162,5.83811v4.58818c0,0 -0.31407,0.6933 -0.52604,0.90527c-0.23737,0.23737 -0.8306,0.45138 -0.8306,0.45138h-54.82502l-0.50303,-0.3506c-1.0213,-0.68594 -1.03654,-0.76215 -1.05178,-5.6247c-0.01524,-4.19185 0,-4.39003 0.32011,-4.9845c0.16768,-0.33534 0.53351,-0.71642 0.79264,-0.83837c0.39417,-0.19709 47.14548,-0.22516 54.56993,-0.03619c0.17089,0.00435 1.17217,0.05142 1.17217,0.05142z" fill="#56f202" stroke="#349201" stroke-width="0.75" stroke-linecap="butt"/><path d="M306.6308,178.81511v4.58818c0,0 -0.39484,0.77406 -0.63611,1.01532c-0.20503,0.20502 -0.72055,0.34132 -0.72055,0.34132h-54.82503l-0.50303,-0.3506c-1.0213,-0.68594 -1.03653,-0.76215 -1.05178,-5.6247c-0.01524,-4.19185 0,-4.39002 0.32011,-4.9845c0.16768,-0.33534 0.53351,-0.71643 0.79265,-0.83837c0.39026,-0.19514 46.68064,-0.22459 54.79335,-0.04174c0.75951,0.01712 1.33747,0.2609 1.56068,0.80861c0.29905,0.73381 0.26969,2.14502 0.26969,5.08647z" fill="#ff661a" stroke="#cd5214" stroke-width="0.75" stroke-linecap="butt"/><path d="M305.75687,133.20615c1.08226,0.74691 0.88161,0.70118 0.88161,5.83811v4.58818c0,0 -0.31407,0.69329 -0.52604,0.90527c-0.23737,0.23737 -0.8306,0.45138 -0.8306,0.45138h-54.82502l-0.50303,-0.3506c-1.0213,-0.68594 -1.03654,-0.76215 -1.05178,-5.6247c-0.01524,-4.19185 0,-4.39003 0.32011,-4.9845c0.16768,-0.33534 0.53351,-0.71642 0.79264,-0.83837c0.39417,-0.19709 47.14548,-0.22516 54.56994,-0.03619c0.17089,0.00435 1.17217,0.05142 1.17217,0.05142z" fill="#026ce8" stroke="#014088" stroke-width="0.75" stroke-linecap="butt"/><path d="M306.6308,152.31684v4.58818c0,0 -0.39484,0.77405 -0.63611,1.01532c-0.20503,0.20502 -0.72055,0.34132 -0.72055,0.34132h-54.82503l-0.50303,-0.3506c-1.0213,-0.68594 -1.03653,-0.76215 -1.05178,-5.6247c-0.01524,-4.19185 0,-4.39002 0.32011,-4.9845c0.16768,-0.33534 0.53351,-0.71643 0.79265,-0.83837c0.39026,-0.19514 46.68064,-0.22459 54.79335,-0.04173c0.75951,0.01712 1.33747,0.2609 1.56068,0.8086c0.29906,0.73382 0.2697,2.14502 0.2697,5.08647z" fill="#ff661a" stroke="#cd5214" stroke-width="0.75" stroke-linecap="butt"/><path d="M237.7241,159.70442c1.08226,0.74691 0.88162,0.70118 0.88162,5.83811v4.58818c0,0 -0.31407,0.69329 -0.52604,0.90527c-0.23737,0.23737 -0.8306,0.45138 -0.8306,0.45138h-54.82502l-0.50303,-0.3506c-1.0213,-0.68594 -1.03654,-0.76215 -1.05178,-5.6247c-0.01524,-4.19185 0,-4.39003 0.32011,-4.9845c0.16768,-0.33534 0.53351,-0.71642 0.79264,-0.83837c0.39417,-0.19709 47.14548,-0.22516 54.56994,-0.03619c0.17089,0.00435 1.17217,0.05142 1.17217,0.05142z" fill="#ff661a" stroke="#cd5214" stroke-width="0.75" stroke-linecap="butt"/><path d="M238.59803,178.81511v4.58818c0,0 -0.39484,0.77405 -0.63611,1.01532c-0.20502,0.20502 -0.72055,0.34132 -0.72055,0.34132h-54.82503l-0.50303,-0.3506c-1.0213,-0.68594 -1.03653,-0.76215 -1.05178,-5.6247c-0.01524,-4.19185 0,-4.39002 0.32011,-4.9845c0.16768,-0.33534 0.53351,-0.71643 0.79265,-0.83837c0.39026,-0.19514 46.68064,-0.22459 54.79335,-0.04173c0.75952,0.01712 1.33747,0.2609 1.56068,0.8086c0.29905,0.73382 0.2697,2.14502 0.2697,5.08647z" fill="#ffd403" stroke="#b19402" stroke-width="0.75" stroke-linecap="butt"/><path d="M237.7241,133.20615c1.08226,0.74691 0.88162,0.70118 0.88162,5.83811v4.58818c0,0 -0.31407,0.69329 -0.52604,0.90527c-0.23737,0.23737 -0.8306,0.45138 -0.8306,0.45138h-54.82502l-0.50303,-0.3506c-1.0213,-0.68594 -1.03654,-0.76215 -1.05178,-5.6247c-0.01524,-4.19185 0,-4.39003 0.32011,-4.9845c0.16768,-0.33534 0.53351,-0.71642 0.79264,-0.83837c0.39417,-0.19709 47.14548,-0.22516 54.56994,-0.03619c0.17089,0.00435 1.17217,0.05142 1.17217,0.05142z" fill="#ff661a" stroke="#cd5214" stroke-width="0.75" stroke-linecap="butt"/><path d="M238.59803,152.31684v4.58818c0,0 -0.39484,0.77405 -0.63611,1.01532c-0.20502,0.20502 -0.72055,0.34132 -0.72055,0.34132h-54.82503l-0.50303,-0.3506c-1.0213,-0.68594 -1.03653,-0.76215 -1.05178,-5.6247c-0.01524,-4.19185 0,-4.39002 0.32011,-4.9845c0.16768,-0.33534 0.53351,-0.71643 0.79265,-0.83837c0.39026,-0.19514 46.68064,-0.22459 54.79335,-0.04173c0.75952,0.01712 1.33747,0.2609 1.56068,0.8086c0.29905,0.73382 0.2697,2.14502 0.2697,5.08647z" fill="#a902f1" stroke="#5f0187" stroke-width="0.75" stroke-linecap="butt"/><path d="M90.35135,118.17133c0,-6.39897 5.91545,-12.99566 13.1192,-12.99566c28.93252,0 219.72832,0 272.60996,0c8.61359,0 13.56814,4.64378 13.56814,12.24625c0,30.59212 0,109.0924 0,125.70487c0,6.03964 -4.85913,11.69754 -13.31873,11.69754c-52.46667,0 -243.42599,0 -272.60996,0c-7.3279,0 -13.36861,-4.5235 -13.36861,-11.94695c0,-30.16113 0,-124.70605 0,-124.70605z" fill="none" stroke="url(#color-1)" stroke-width="10" stroke-linecap="butt"/></g></g></svg>
