<svg xmlns="http://www.w3.org/2000/svg" width="309.297" height="159.649" viewBox="0 0 309.297 159.649"><defs><linearGradient x1="240" y1="105.176" x2="240" y2="254.824" gradientUnits="userSpaceOnUse" id="a"><stop offset="0" stop-color="#4d1a01"/><stop offset="1" stop-color="#822c01"/></linearGradient></defs><g stroke-miterlimit="10" style="mix-blend-mode:normal"><path d="M7 153.773V5.874h295.299v147.9z" fill="#ff661a"/><path d="M20.167 41.713a5.826 5.826 0 0 1-5.825-5.826v-14.08a5.826 5.826 0 0 1 5.825-5.825h14.08a5.826 5.826 0 0 1 5.826 5.826v14.079a5.826 5.826 0 0 1-5.826 5.826zm33.499 0a5.826 5.826 0 0 1-5.825-5.826v-14.08a5.826 5.826 0 0 1 5.825-5.825h43.21a5.826 5.826 0 0 1 5.825 5.826v14.079a5.826 5.826 0 0 1-5.826 5.826zM20.167 75.697a5.826 5.826 0 0 1-5.825-5.826V55.792a5.826 5.826 0 0 1 5.825-5.826h14.08a5.826 5.826 0 0 1 5.826 5.826v14.08a5.826 5.826 0 0 1-5.826 5.825zm33.499 0a5.826 5.826 0 0 1-5.825-5.826V55.792a5.826 5.826 0 0 1 5.825-5.826h43.21a5.826 5.826 0 0 1 5.825 5.826v14.08a5.826 5.826 0 0 1-5.826 5.825zm-33.499 33.985a5.826 5.826 0 0 1-5.825-5.826v-14.08a5.826 5.826 0 0 1 5.825-5.825h14.08a5.826 5.826 0 0 1 5.826 5.826v14.079a5.826 5.826 0 0 1-5.826 5.826zm33.499 0a5.826 5.826 0 0 1-5.825-5.826v-14.08a5.826 5.826 0 0 1 5.825-5.825h43.21a5.826 5.826 0 0 1 5.825 5.826v14.079a5.826 5.826 0 0 1-5.826 5.826zm-33.499 33.984a5.826 5.826 0 0 1-5.825-5.826v-14.079a5.826 5.826 0 0 1 5.825-5.826h14.08a5.826 5.826 0 0 1 5.826 5.826v14.08a5.826 5.826 0 0 1-5.826 5.825zm33.499 0a5.826 5.826 0 0 1-5.825-5.826v-14.079a5.826 5.826 0 0 1 5.825-5.826h43.21a5.826 5.826 0 0 1 5.825 5.826v14.08a5.826 5.826 0 0 1-5.826 5.825zm62.629-101.953a5.826 5.826 0 0 1-5.826-5.826v-14.08a5.826 5.826 0 0 1 5.826-5.825h14.08a5.826 5.826 0 0 1 5.825 5.826v14.079a5.826 5.826 0 0 1-5.826 5.826zm33.499 0a5.826 5.826 0 0 1-5.826-5.826v-14.08a5.826 5.826 0 0 1 5.826-5.825h43.209a5.826 5.826 0 0 1 5.826 5.826v14.079a5.826 5.826 0 0 1-5.826 5.826z" fill="#e74e02"/><path d="M116.295 75.697a5.826 5.826 0 0 1-5.826-5.826V55.792a5.826 5.826 0 0 1 5.826-5.826h14.08a5.826 5.826 0 0 1 5.825 5.826v14.08a5.826 5.826 0 0 1-5.826 5.825zm33.499 0a5.826 5.826 0 0 1-5.826-5.826V55.792a5.826 5.826 0 0 1 5.826-5.826h43.209a5.826 5.826 0 0 1 5.826 5.826v14.08a5.826 5.826 0 0 1-5.826 5.825z" fill="#cc4602"/><path d="M116.295 109.682a5.826 5.826 0 0 1-5.826-5.826v-14.08a5.826 5.826 0 0 1 5.826-5.825h14.08a5.826 5.826 0 0 1 5.825 5.826v14.079a5.826 5.826 0 0 1-5.826 5.826zm33.499 0a5.826 5.826 0 0 1-5.826-5.826v-14.08a5.826 5.826 0 0 1 5.826-5.825h43.209a5.826 5.826 0 0 1 5.826 5.826v14.079a5.826 5.826 0 0 1-5.826 5.826zm-33.499 33.984a5.826 5.826 0 0 1-5.826-5.826v-14.079a5.826 5.826 0 0 1 5.826-5.826h14.08a5.826 5.826 0 0 1 5.825 5.826v14.08a5.826 5.826 0 0 1-5.826 5.825zm33.499 0a5.826 5.826 0 0 1-5.826-5.826v-14.079a5.826 5.826 0 0 1 5.826-5.826h43.209a5.826 5.826 0 0 1 5.826 5.826v14.08a5.826 5.826 0 0 1-5.826 5.825zm62.629-101.953a5.826 5.826 0 0 1-5.826-5.826v-14.08a5.826 5.826 0 0 1 5.826-5.825h14.079a5.826 5.826 0 0 1 5.826 5.826v14.079a5.826 5.826 0 0 1-5.826 5.826zm33.499 0a5.826 5.826 0 0 1-5.826-5.826v-14.08a5.826 5.826 0 0 1 5.826-5.825h43.209a5.826 5.826 0 0 1 5.826 5.826v14.079a5.826 5.826 0 0 1-5.826 5.826zm-33.499 33.984a5.826 5.826 0 0 1-5.826-5.826V55.792a5.826 5.826 0 0 1 5.826-5.826h14.079a5.826 5.826 0 0 1 5.826 5.826v14.08a5.826 5.826 0 0 1-5.826 5.825zm33.499 0a5.826 5.826 0 0 1-5.826-5.826V55.792a5.826 5.826 0 0 1 5.826-5.826h43.209a5.826 5.826 0 0 1 5.826 5.826v14.08a5.826 5.826 0 0 1-5.826 5.825zm-33.499 33.985a5.826 5.826 0 0 1-5.826-5.826v-14.08a5.826 5.826 0 0 1 5.826-5.825h14.079a5.826 5.826 0 0 1 5.826 5.826v14.079a5.826 5.826 0 0 1-5.826 5.826zm33.499 0a5.826 5.826 0 0 1-5.826-5.826v-14.08a5.826 5.826 0 0 1 5.826-5.825h43.209a5.826 5.826 0 0 1 5.826 5.826v14.079a5.826 5.826 0 0 1-5.826 5.826zm-33.499 33.984a5.826 5.826 0 0 1-5.826-5.826v-14.079a5.826 5.826 0 0 1 5.826-5.826h14.079a5.826 5.826 0 0 1 5.826 5.826v14.08a5.826 5.826 0 0 1-5.826 5.825zm33.499 0a5.826 5.826 0 0 1-5.826-5.826v-14.079a5.826 5.826 0 0 1 5.826-5.826h43.209a5.826 5.826 0 0 1 5.826 5.826v14.08a5.826 5.826 0 0 1-5.826 5.825z" fill="#e74e02"/><path d="M225.243 19.636c.062.315.175 77.194.069 77.767-.16.86-.37 1.44-1.185 1.502-.682.051-137.2.319-138.078.27-.847-.045-2.12-.792-2.13-1.664-.008-.795-.116-76.731.07-77.568.141-.63 1.068-1.021 1.298-1.052.215-.03 34.419-.07 75.986-.054 46.178.012 58.862-.217 62.294-.132 1.091.028 1.614.615 1.676.93z" fill="none" stroke-opacity=".502" stroke="#000" stroke-width="7.5"/><path d="M225.182 20.164c.117 5.961.13 77.936.13 77.936l-.875.921-63.456.008-76.016-.008-.89-.89-.006-14.719.005-63.554s.983-.936 1.213-.967c.215-.03 34.419-.07 75.986-.054 47.366.012 59.226.038 62.288.129.872.025 1.614.812 1.621 1.198z" fill="#e8f0fd" stroke="#cad1dd"/><path d="M224.567 87.249c.2.01.414.03.506.047.138.025.167 10.758.167 10.758s-.588.884-1.09.893c-4.803.085-63.26.497-63.26.497l-76.022-.254-.797-.967-.093-4.891v-6.008l.4-.044c.23-.023.582-.045.813-.048.214-.002 34.425-.027 75.992-.025 60.87.001 63.108.026 63.384.041zm-63.384-56.226c-41.567.001-75.778-.023-75.992-.026-.23-.003-.583-.025-.814-.048l-.399-.043v-6.007l.093-4.891.797-.968 76.022-.253s58.211.165 63.013.25c.502.01 1.337 1.14 1.337 1.14s-.029 10.733-.167 10.758a5 5 0 0 1-.506.046c-.276.016-2.514.04-63.384.042z" fill="#fff" stroke="#cad1dd"/><path d="M143.224 91.14c.015-.015.03 1.075.03 2.425v2.455h-1.074v-4.741l.507-.062c.26-.03.506-.077.537-.077m15.482.108c.399.107.414.153.368.936l-.046.813.4-.245c.214-.138.628-.261.92-.261.798 0 1.059.49 1.135 2.163l.062 1.366h-1.105v-1.166c0-1.228-.169-1.596-.737-1.596-.43 0-.675.736-.613 1.826l.046.936h-.967v-2.194c0-1.197.03-2.287.061-2.44.062-.184.17-.215.476-.138m-2.102.291c.383.062.46.139.46.507 0 .337.077.445.307.445s.307.107.307.383c0 .277-.077.384-.307.384-.276 0-.307.107-.307.997s.03.998.307.998c.23 0 .307.107.307.383 0 .353-.061.384-.63.384-.904 0-1.058-.23-1.058-1.596 0-.936-.046-1.166-.23-1.166-.138 0-.23-.138-.23-.384 0-.245.092-.383.23-.383.153 0 .23-.154.23-.43 0-.245.03-.476.077-.522.046-.03.276-.046.537 0m-68.859.737c.323.061.384.184.43.721.046.63.046.63.599.583.49-.046.567 0 .629.338.092.43.046.445-.752.399-.507-.031-.507-.016-.507.675 0 .675-.015.706-.43.706-.398 0-.413-.031-.352-.706l.046-.706-.706.046c-.675.061-.706.046-.706-.353 0-.414.031-.43.706-.43.69 0 .706 0 .675-.506-.015-.26-.03-.568-.015-.66s.184-.138.383-.107m59.33 1.381c.246.89.138.982-1.227.982-.66 0-1.212.046-1.212.092 0 .414 1.242.721 1.457.368.046-.092.338-.153.63-.153.29 0 .521.061.521.153a.154.154 0 0 1-.153.154c-.077 0-.154.076-.154.168 0 .353-.552.584-1.396.599-.721 0-.92-.061-1.258-.384-.676-.675-.645-1.98.061-2.685.875-.875 2.409-.476 2.731.706m-2.24-.169c-.307.338-.246.384.568.384.782 0 .92-.092.583-.43-.246-.245-.92-.23-1.151.046m2.869-.997h.43c.23 0 .506.077.614.184.138.138.23.138.368 0 .307-.307 1.212-.215 1.611.153.322.292.353.46.353 1.765v1.427h-1.151l.046-1.15c.062-1.182-.092-1.612-.537-1.612-.522 0-.69.43-.629 1.611l.046 1.15h-1.151v-1.764zm5.325 0c.322 0 .69.092.798.184.168.153.214.153.276 0 .046-.092.245-.184.445-.184h.368v2.04c0 1.934-.015 2.072-.338 2.364-.43.383-1.181.567-1.795.43-.49-.108-1.289-.799-1.197-1.06.092-.26.936-.184 1.151.092.108.154.384.277.614.277.307 0 .46-.108.614-.46.2-.43.107-.967-.108-.66-.399.613-1.78.383-2.117-.369-.353-.752-.246-1.642.245-2.179.353-.368.568-.475 1.044-.475m-.415 1.457c-.076.676.016.952.384 1.151s.43.184.767-.2c.445-.475.476-.751.138-1.257-.414-.645-1.212-.445-1.289.306m66.675-1.012h1.765l-.046.399-.046.399h-1.672c-1.366 0-1.704-.046-1.81-.246-.078-.138-.093-.322-.047-.399.061-.092.86-.153 1.857-.153m-.001 1.381h1.765l-.046.414-.046.43-1.458.046c-1.825.061-2.102-.016-2.056-.46.016-.2.046-.369.046-.4.016-.015.814-.03 1.796-.03M90.375 36.52h.506l-.046 2.333-.046 2.347-.491.046-.506.046v-3.084h-.63c-.583 0-.613-.015-.567-.414.03-.338.138-.445.506-.507.276-.046.522-.214.614-.43.107-.245.276-.337.66-.337m-.353 13.196c.43.015.89.108 1.059.23.306.23.705.92.705 1.228 0 .476-.537 1.15-1.304 1.672-.46.307-.844.63-.844.722s.384.138 1.044.122c1.012-.046 1.028-.03 1.074.369l.046.414H89.96c-1.687 0-2.148-.108-1.703-.384.092-.046.154-.215.154-.368s.276-.522.629-.798c1.519-1.258 1.688-1.473 1.534-1.857-.092-.245-.26-.368-.583-.399-.43-.046-.476 0-.568.491s-.168.553-.552.553c-.414 0-.46-.046-.46-.506 0-.323.153-.676.43-.998.368-.43.506-.49 1.18-.49m1.121 13.64c.43.368.506 1.642.092 1.734-.2.03-.169.123.153.476.4.43.568 1.334.246 1.334-.077 0-.154.108-.154.246s-.138.276-.306.322c-.17.046-.307.138-.307.215 0 .26-1.673.153-2.01-.138-.246-.215-.752-1.105-.752-1.35 0-.031.276-.062.629-.062.383 0 .583.062.522.154-.17.276.23.613.72.613.323 0 .476-.092.568-.352.185-.476.047-.706-.506-.844-.66-.17-.644-.66.03-.829.492-.123.584-.322.4-.798-.138-.353-.982-.322-.982.03 0 .384-.292.645-.721.645-.292 0-.353-.076-.353-.46 0-.276.138-.63.353-.844.445-.476 1.84-.537 2.378-.092m-.476 12.904h.507v1.458c0 1.32.03 1.473.276 1.427.184-.03.276.077.307.368.046.353-.016.43-.261.43-.261 0-.322.092-.322.537 0 .506-.031.537-.537.537-.507 0-.538-.03-.538-.537v-.537h-1.994v-.46c0-.307.153-.63.46-.936.246-.261.491-.614.537-.768.062-.168.138-.291.2-.291.061 0 .276-.276.49-.614.323-.506.46-.614.875-.614m-.644 1.657c-.2.139-.844 1.044-.844 1.182 0 .046.23.077.506.046.414-.03.476-.107.445-.384-.03-.184.03-.475.123-.66.169-.306.061-.398-.23-.184" fill="#585e73"/><path d="M159.701 37.191c0 .276-.277.414-.94.414-.581 0-.996.166-1.106.415-.111.332.082.415.829.415.746 0 1.023.138 1.272.69.663 1.466-.885 2.821-2.433 2.102-.36-.166-.664-.47-.664-.719 0-.47.691-.58.968-.138.276.442 1.161.332 1.355-.166.304-.774-.36-1.244-1.383-1.05-.94.165-.94.165-.774-.747.083-.525.194-1.106.277-1.3.138-.525 2.599-.442 2.599.084zm-.277 13.271c.498.58.11.885-.58.47-.443-.277-.664-.277-.968-.028-.636.525-.47.995.387.885 1.023-.138 1.52.276 1.52 1.272 0 1.603-1.437 2.267-2.57 1.133-.692-.69-.747-2.626-.111-3.539.497-.719 1.797-.83 2.322-.193zm-1.659 2.212c-.442.553-.166 1.244.525 1.244.636 0 .885-.498.526-1.19-.304-.58-.609-.607-1.05-.054zm.414 10.644c1.77 0 1.826.11.83 2.046-.387.747-.69 1.66-.69 2.019 0 .442-.167.636-.526.636-.443 0-.498-.139-.332-.913.138-.47.415-1.272.664-1.77.608-1.188.608-1.188-.498-1.188-.664 0-.968-.139-.968-.415 0-.332.36-.415 1.52-.415zm1.328 14.903c-.277.415-.249.608.055.857 1.355 1.133-.719 2.792-2.378 1.935-.58-.331-.746-1.77-.22-2.101.22-.11.22-.249 0-.47-.415-.415-.388-.912.138-1.438 1.023-1.023 3.124.056 2.405 1.217zm-1.714-.83c-.526.332-.166 1.19.442 1.079a.65.65 0 0 0 .498-.609c0-.608-.387-.801-.94-.47zm-.304 2.544c0 .636.83.912 1.327.415.36-.332.36-.498.055-.83-.608-.746-1.382-.497-1.382.415zm8.968 13.049c-.277.416-.249.61.055.858 1.355 1.134-.719 2.793-2.378 1.935-.58-.331-.746-1.77-.22-2.1.22-.111.22-.25 0-.47-.415-.416-.388-.913.138-1.439 1.023-1.023 3.124.056 2.405 1.217zm-1.714-.829c-.526.332-.166 1.19.442 1.079a.65.65 0 0 0 .498-.609c0-.608-.387-.801-.94-.47zm-.304 2.544c0 .636.83.913 1.327.415.36-.332.36-.498.055-.83-.608-.746-1.382-.497-1.382.415z" fill="#5c6277" stroke="#585e73" stroke-width=".2"/><path d="M139.909 23.776c0 .515-.515.488-1.11-.054-.543-.487-1.436-.325-1.274.244.081.162.488.46.948.596 1.734.569 2.221 1.652 1.11 2.41-1.164.813-3.196.271-3.196-.84 0-.487.705-.46.921.055.082.244.488.406.976.406 1.137 0 1.002-.785-.19-1.191-.488-.163-1.056-.488-1.273-.705-.596-.569-.244-1.544.623-1.842 1.138-.379 2.465.136 2.465.921zm6.907-.975c.325 0 .406.434.406 2.303s-.08 2.302-.406 2.302c-.325 0-.406-.433-.406-2.302 0-1.87.081-2.303.406-2.303z" fill="#585e73" stroke="#5c6277" stroke-width=".125"/><path d="M148.712 22.801c.217 0 .406.108.406.271 0 .135-.19.27-.406.27s-.406-.135-.406-.27c0-.163.19-.27.406-.27z" fill="#585e73" stroke="#5c6277" stroke-width=".25"/><path d="M159.818 22.801c.325 0 .406.434.406 2.248v2.276l-1.327.027c-1.76.027-2.302-.677-1.842-2.465.19-.732.515-.867 1.76-.759.461.027.597-.08.597-.65 0-.433.162-.677.406-.677zm-1.842 2.086c-.352.352-.19 1.652.244 1.815.596.216.596.216.92-.38.163-.325.217-.812.136-1.083-.162-.515-.948-.731-1.3-.352zm5.228-2.086c.487 0 .542.19.542 1.896v1.896h1.083c.786 0 1.084.109 1.084.407 0 .325-.353.406-1.626.406h-1.625v-2.302c0-2.113.054-2.303.542-2.303z" fill="#585e73" stroke="#5c6277" stroke-width=".125"/><path d="M167.131 22.801c.217 0 .407.108.407.271 0 .135-.19.27-.407.27s-.406-.135-.406-.27c0-.163.19-.27.406-.27z" fill="#585e73" stroke="#5c6277" stroke-width=".25"/><path d="M141.886 23.614c.109.379.38.541.948.541.705 0 .84.136 1.002.813.271 1.165.596 1.219.948.136.163-.515.488-.949.705-.949.487 0 .487.082-.38 2.303-.65 1.652-.84 1.896-1.49 1.977-.541.054-.73-.027-.73-.352 0-.244.135-.352.27-.27.542.324.596-.678.136-2.005-.38-1.03-.596-1.273-.975-1.192-.65.19-.705 1.652-.109 1.869.569.217.515.921-.081.921-.758 0-1.138-.569-1.138-1.652 0-.57-.162-1.084-.325-1.165-.27-.136-.27-.19 0-.325.163-.081.325-.38.325-.677 0-.678.705-.678.894.027zm30.392-.542c.217 0 .406.19.406.406 0 .244.19.488.407.57.216.107.406.27.406.405 0 .136-.19.244-.406.244q-.407 0-.407.813c0 .487.163.894.407.975.568.217.514.921-.082.921-.758 0-1.137-.569-1.137-1.652 0-.57-.163-1.084-.325-1.165-.271-.136-.271-.19 0-.325.162-.081.325-.38.325-.677 0-.271.19-.515.406-.515zm-17.634.812c.596 0 1.517.84 1.517 1.382 0 .433-.19.515-1.083.515-.759 0-1.084.108-1.084.379 0 .542.542.677 1.3.352.786-.352 1.138.027.488.515-1.219.867-2.682.19-2.682-1.246 0-.596.19-1.057.596-1.409.352-.27.759-.487.948-.487zm-.135.813c-.271 0-.515.109-.515.271 0 .136.325.271.704.271.38 0 .623-.108.515-.27-.081-.163-.406-.272-.704-.272zm16.17-.352c.461.46.461.488 0 .569-.243.054-.65-.054-.866-.244-.298-.244-.488-.244-.704-.027-.298.298-.163.38 1.625 1.002.406.163.433 1.003 0 1.436-.46.46-1.977.406-2.384-.081-.487-.596-.108-.84.678-.407.541.271.758.298 1.002.055.244-.244.054-.434-.813-.786-1.219-.46-1.517-1.192-.65-1.68.704-.433 1.598-.352 2.113.163zm5.706-.064c.677.515.227.904-.504.443q-.57-.324-.813-.08c-.19.189.027.432.704.703.759.325.975.57.975 1.084 0 .785-.866 1.165-2.004.867-.84-.217-1.165-.976-.433-.976.298 0 .541.109.541.271 0 .136.244.271.542.271.867 0 .623-.704-.325-.975-1.03-.298-1.327-1.11-.596-1.652.518-.383 1.017-.448 1.56-.179.11.055.353.223.353.223zm-27.673-.125c.325 0 .406.352.406 1.625s-.08 1.625-.406 1.625c-.325 0-.406-.352-.406-1.625s.081-1.625.406-1.625zm2.303 0c1.57 0 1.652.243.623 1.462l-.705.84.84.081c.542.054.867.244.867.488 0 .27-.38.379-1.49.379-1.273 0-1.49-.081-1.49-.488 0-.27.298-.785.677-1.137s.678-.732.678-.867c0-.108-.298-.217-.678-.217-.379 0-.677-.135-.677-.27 0-.163.623-.272 1.355-.272zm16.116 0c.326 0 .407.352.407 1.625s-.082 1.625-.407 1.625-.406-.352-.406-1.625.081-1.625.406-1.625z" fill="#585e73" stroke="#5c6277" stroke-width=".125"/><path d="M88 127.856q1.684.937 3.213.937 1.535 0 1.535-1.19 0-.543-.436-.959-.43-.416-1.586-.95a48 48 0 0 1-1.733-.846q-.578-.31-1.535-1.015-.95-.705-1.459-1.465-1.437-2.05-1.437-5.227t2.36-5.354q2.36-2.184 6.186-2.184 2.6 0 4.797.564c1.465.37 2.269 1.599 2.269 1.67q0 1.267-.796 3.198c-.527 1.282.088 3.968-.128 4.113-1.54-.794-3.904-3.162-5.12-3.162q-1.819 0-1.818 1.296 0 .795 1.338 1.409.289.147.824.401.543.247 1.247.592t1.515.867 1.754 1.387q1.91 1.804 1.91 4.763 0 3.86-2.128 6.312-2.128 2.451-6.566 2.522-2.163 0-3.917-.36-1.748-.358-3.05-1.401-1.297-1.05-1.297-2.53t.543-2.937q.542-1.465 1.155-1.93s1.242.854 2.36 1.479zm23.972 7.101q0 .437-3.03.437-3.607-.148-3.607-.472v-12.765h-1.838q-.726 0-.726-2.494 0-.648.127-1.585.126-.937.528-.937h1.91v-3.177q0-.72 3.043-.719 3.05 0 3.05.578v2.31l.035 1.008h3.072q.613 0 .613 2.529 0 2.522-.613 2.522h-2.564zm3.713-17.55q0-.402 3.297-.402 3.304 0 3.417.359l2.593 8.517 2.486-8.587q.149-.29 2.24-.29c3.199 0 4.807.158 4.662.473l-8.557 24.128q-.036.219-1.966.219a47 47 0 0 1-3.593-.127q-1.655-.127-1.585-.31l3.142-7.573zm22.568 11.023 2.52-7.214h8.308v7.214zm18.176 4.618V110.61q0-.753 3.656-.753 3.663 0 3.663.753v17.676h5.558q.648 0 .902 1.698.105.825.106 1.69 0 .867-.106 1.769-.288 1.733-.937 1.733h-11.11a1.49 1.49 0 0 1-1.268-.649 2.47 2.47 0 0 1-.464-1.479zm22.467 1.91q0 .288-3.304.288-3.297 0-3.297-.254v-17.71q0-.247 3.297-.247 3.303 0 3.304.212zm0-19.839q0 .254-3.304.254-3.297 0-3.297-.219v-5.192q0-.36 3.297-.359 3.303 0 3.304.218zm4.007 13.561q2.924 1.77 4.614 1.769 1.085 0 1.085-.754 0-.543-1.874-1.41-4.509-1.838-4.509-6.023 0-2.67 1.945-4.071 1.95-1.41 4.67-1.41 2.727 0 4.615.578 1.895.578 1.895 1.515 0 .789-.775 2.092-.775 1.297-1.064 1.402a6.8 6.8 0 0 0-3.353-.86q-.973 0-.973.684 0 .43.374.74.38.303 1.388.754 1.014.45 1.676.817.67.36 1.5 1.007 1.734 1.367 1.734 3.572 0 2.881-1.916 4.67-1.91 1.783-5.77 1.783-2.558 0-4.65-.867-2.091-.866-2.092-2.38 0-1.009.486-2.121.486-1.12.994-1.487zm23.769 6.277q0 .437-3.03.437-3.607-.148-3.607-.472v-12.765l-2.402 2.535c-.483 0-.162-3.367-.162-5.03q0-.647.127-1.584t.528-.937h1.91v-3.177q0-.72 3.043-.719 3.05 0 3.05.578v2.31l.035 1.008h3.072q.613 0 .613 2.529 0 2.522-.613 2.522h-2.564zm10.35-4.508q1.085 0 1.085-.754 0-.543-1.874-1.41-4.51-1.838-4.51-6.023.001-2.67 1.945-4.071 1.951-1.41 4.671-1.41 2.727 0 4.614.578 1.895.578 1.895 1.515 0 .789-.775 2.092-.774 1.297-1.063 1.402a6.8 6.8 0 0 0-3.354-.86q-.972 0-.972.684 0 .43.374.74.38.303 1.387.754 1.015.45 1.677.817.669.36 1.5 1.007 1.734 1.367 1.734 3.572 0 2.881-1.917 4.67-1.909 1.783-5.77 1.783-2.556 0-4.649-.867-2.092-.866-2.092-2.38 0-1.009.486-2.121c.324-.747-.894-4.905-.556-5.149 0 0 5.036 5.43 6.164 5.43z" fill="none" stroke-opacity=".502" stroke="#000" stroke-width="7.5" stroke-linecap="square"/><path d="M85.64 126.377q.683.542 2.36 1.479 1.684.937 3.213.937 1.535 0 1.535-1.19 0-.543-.436-.959-.43-.416-1.586-.95a48 48 0 0 1-1.733-.846q-.578-.31-1.535-1.015-.95-.705-1.459-1.465-1.437-2.05-1.437-5.227t2.36-5.354q2.36-2.184 6.186-2.184 2.6 0 4.797.564 2.198.556 2.269 1.458v.211q0 1.269-.796 3.199-.79 1.923-1.114 2.141-2.31-1.19-4.135-1.19-1.817 0-1.817 1.296 0 .795 1.338 1.409.289.147.824.401.543.247 1.247.592.705.346 1.515.867t1.754 1.387q1.91 1.804 1.91 4.763 0 3.86-2.128 6.312-2.128 2.451-6.566 2.522-2.163 0-3.917-.36-1.748-.358-3.05-1.401-1.297-1.05-1.297-2.53t.543-2.937q.542-1.465 1.155-1.93m26.332 8.58q0 .437-3.03.437-3.607-.148-3.607-.472v-12.765h-1.838q-.726 0-.726-2.494 0-.648.127-1.585.126-.937.528-.937h1.91v-3.177q0-.72 3.043-.719 3.05 0 3.05.578v2.31l.035 1.008h3.072q.613 0 .613 2.529 0 2.522-.613 2.522h-2.564zm3.713-17.633q0-.402 3.297-.401 3.304 0 3.417.359l2.593 8.517 2.486-8.588q.149-.288 2.24-.288 4.798 0 4.58.472l-8.475 24.128q-.036.218-1.966.218a47 47 0 0 1-3.593-.126q-1.655-.127-1.585-.31l3.142-7.574zm36.134 11.106h-14.114q-1.206 0-1.642-2.032a7.5 7.5 0 0 1-.173-1.575q0-.772.173-1.581.435-2.026 1.642-2.026h14.115q1.206 0 1.641 2.026.174.808.174 1.581 0 .766-.174 1.575-.435 2.032-1.641 2.032m4.609 4.618V110.61q0-.753 3.656-.753 3.663 0 3.663.753v17.676h5.558q.648 0 .902 1.698.105.825.106 1.69 0 .867-.106 1.769-.288 1.733-.937 1.733h-11.11a1.49 1.49 0 0 1-1.268-.649 2.47 2.47 0 0 1-.464-1.479m22.467 1.91q0 .288-3.304.288-3.297 0-3.297-.254v-17.71q0-.247 3.297-.247 3.303 0 3.304.212zm0-19.839q0 .254-3.304.254-3.297 0-3.297-.219v-5.192q0-.36 3.297-.359 3.303 0 3.304.218zm4.007 13.561q2.924 1.77 4.614 1.769 1.085 0 1.085-.754 0-.543-1.874-1.41-4.509-1.838-4.509-6.023 0-2.67 1.945-4.071 1.95-1.41 4.67-1.41 2.727 0 4.615.578 1.895.578 1.895 1.515 0 .789-.775 2.092-.775 1.297-1.064 1.402a6.8 6.8 0 0 0-3.353-.86q-.973 0-.973.684 0 .43.374.74.38.303 1.388.754 1.014.45 1.676.817.67.36 1.5 1.007 1.734 1.367 1.734 3.572 0 2.881-1.916 4.67-1.91 1.783-5.77 1.783-2.558 0-4.65-.867-2.091-.866-2.092-2.38 0-1.009.486-2.121.486-1.12.994-1.487m23.769 6.277q0 .437-3.03.437-3.607-.148-3.607-.472v-12.765h-1.838q-.726 0-.726-2.494 0-.648.127-1.585t.528-.937h1.91v-3.177q0-.72 3.043-.719 3.05 0 3.05.578v2.31l.035 1.008h3.072q.613 0 .613 2.529 0 2.522-.613 2.522h-2.564zm5.735-6.277q2.924 1.77 4.615 1.769 1.085 0 1.085-.754 0-.543-1.874-1.41-4.51-1.838-4.51-6.023.001-2.67 1.945-4.071 1.951-1.41 4.671-1.41 2.727 0 4.614.578 1.895.578 1.895 1.515 0 .789-.775 2.092-.774 1.297-1.063 1.402a6.8 6.8 0 0 0-3.354-.86q-.972 0-.972.684 0 .43.374.74.38.303 1.387.754 1.015.45 1.677.817.669.36 1.5 1.007 1.734 1.367 1.734 3.572 0 2.881-1.917 4.67-1.909 1.783-5.77 1.783-2.556 0-4.649-.867-2.092-.866-2.092-2.38 0-1.009.486-2.121.486-1.12.993-1.487" fill="#fff"/><path d="M246.125 49.812h13.742V44.97c0-.984.82-2.776 2.118-1.845 4.288 3.074 14.72 12.674 17.13 14.403 1.088.78.94 2.475-.253 3.33-2.346 1.683-11.69 10.194-16.16 13.398-1.705 1.223-2.835.747-2.835-.022v-5.841h-14.13c-1.9 0-4.45-2.632-4.45-4.572v-9.097c0-2.714 2.813-4.912 4.838-4.912zM72.794 54.724v9.097c0 1.94-2.55 4.572-4.451 4.572H54.214v5.84c0 .77-1.13 1.246-2.835.023-4.47-3.204-13.814-11.715-16.16-13.398-1.194-.855-1.341-2.55-.254-3.33 2.411-1.729 12.843-11.329 17.13-14.403 1.299-.931 2.119.86 2.119 1.845v4.842h13.742c2.024 0 4.838 2.198 4.838 4.912z" fill="none" stroke-opacity=".502" stroke="#000" stroke-width="7.5"/><path d="M246.125 49.812h13.742V44.97c0-.984.82-2.776 2.118-1.845 4.288 3.074 14.72 12.674 17.13 14.403 1.088.78.94 2.475-.253 3.33-2.346 1.683-11.69 10.194-16.16 13.398-1.705 1.223-2.835.747-2.835-.022v-5.841h-14.13c-1.9 0-4.45-2.632-4.45-4.572v-9.097c0-2.714 2.813-4.912 4.838-4.912M72.794 54.724v9.097c0 1.94-2.55 4.572-4.451 4.572H54.214v5.84c0 .77-1.13 1.246-2.835.023-4.47-3.204-13.814-11.715-16.16-13.398-1.194-.855-1.341-2.55-.254-3.33 2.411-1.729 12.843-11.329 17.13-14.403 1.299-.931 2.119.86 2.119 1.845v4.842h13.742c2.024 0 4.838 2.198 4.838 4.912" fill="#e8f0fd"/><path d="M220.406 59.528c1.082.747.881.702.881 5.839v4.588s-.314.693-.526.905c-.237.237-.83.451-.83.451h-54.825l-.503-.35c-1.022-.686-1.037-.762-1.052-5.625-.015-4.192 0-4.39.32-4.984.168-.336.534-.717.793-.839.394-.197 47.145-.225 54.57-.036.17.004 1.172.051 1.172.051z" fill="#56f202" stroke="#349201" stroke-width=".75"/><path d="M221.279 78.639v4.588s-.394.774-.635 1.016c-.205.205-.72.34-.72.34h-54.826l-.503-.35c-1.021-.686-1.036-.762-1.052-5.624-.015-4.192 0-4.39.32-4.985.168-.335.534-.716.793-.838.39-.195 46.68-.225 54.793-.042.76.017 1.338.26 1.561.809.3.733.27 2.145.27 5.086z" fill="#ff661a" stroke="#cd5214" stroke-width=".75"/><path d="M220.406 33.03c1.082.747.881.701.881 5.838v4.588s-.314.694-.526.906c-.237.237-.83.451-.83.451h-54.825l-.503-.35c-1.022-.686-1.037-.763-1.052-5.625-.015-4.192 0-4.39.32-4.985.168-.335.534-.716.793-.838.394-.197 47.145-.225 54.57-.036.17.004 1.172.051 1.172.051z" fill="#026ce8" stroke="#014088" stroke-width=".75"/><path d="M221.279 52.141v4.588s-.394.774-.635 1.015c-.205.205-.72.342-.72.342h-54.826l-.503-.35c-1.021-.687-1.036-.763-1.052-5.626-.015-4.191 0-4.39.32-4.984.168-.335.534-.717.793-.839.39-.195 46.68-.224 54.793-.041.76.017 1.338.26 1.561.808.3.734.27 2.145.27 5.087zm-68.906 7.387c1.082.747.882.702.882 5.839v4.588s-.314.693-.526.905c-.238.237-.83.451-.83.451H97.073l-.503-.35c-1.021-.686-1.037-.762-1.052-5.625-.015-4.192 0-4.39.32-4.984.168-.336.534-.717.793-.839.394-.197 47.145-.225 54.57-.036.17.004 1.172.051 1.172.051z" fill="#ff661a" stroke="#cd5214" stroke-width=".75"/><path d="M153.247 78.639v4.588s-.395.774-.636 1.016c-.205.205-.72.34-.72.34H97.065l-.503-.35c-1.021-.686-1.036-.762-1.051-5.624-.016-4.192 0-4.39.32-4.985.167-.335.533-.716.792-.838.39-.195 46.68-.225 54.794-.042.76.017 1.337.26 1.56.809.3.733.27 2.145.27 5.086z" fill="#ffd403" stroke="#b19402" stroke-width=".75"/><path d="M152.373 33.03c1.082.747.882.701.882 5.838v4.588s-.314.694-.526.906c-.238.237-.83.451-.83.451H97.073l-.503-.35c-1.021-.686-1.037-.763-1.052-5.625-.015-4.192 0-4.39.32-4.985.168-.335.534-.716.793-.838.394-.197 47.145-.225 54.57-.036.17.004 1.172.051 1.172.051z" fill="#ff661a" stroke="#cd5214" stroke-width=".75"/><path d="M153.247 52.141v4.588s-.395.774-.636 1.015c-.205.205-.72.342-.72.342H97.065l-.503-.35c-1.021-.687-1.036-.763-1.051-5.626-.016-4.191 0-4.39.32-4.984.167-.335.533-.717.792-.839.39-.195 46.68-.224 54.794-.041.76.017 1.337.26 1.56.808.3.734.27 2.145.27 5.087z" fill="#a902f1" stroke="#5f0187" stroke-width=".75"/><path d="M90.351 118.171c0-6.399 5.916-12.995 13.12-12.995h272.61c8.613 0 13.568 4.643 13.568 12.246v125.705c0 6.04-4.86 11.697-13.32 11.697H103.72c-7.328 0-13.369-4.523-13.369-11.947z" fill="none" stroke="url(#a)" stroke-width="10" transform="translate(-85.351 -100.176)"/></g></svg>