<svg version="1.1" xmlns="http://www.w3.org/2000/svg" xmlns:xlink="http://www.w3.org/1999/xlink" width="309.2973" height="159.64866" viewBox="0,0,309.2973,159.64866"><defs><linearGradient x1="240" y1="105.17566" x2="240" y2="254.82433" gradientUnits="userSpaceOnUse" id="color-1"><stop offset="0" stop-color="#991f1f"/><stop offset="1" stop-color="#660000"/></linearGradient></defs><g transform="translate(-85.35135,-100.17567)"><g fill-rule="nonzero" stroke-linejoin="miter" stroke-miterlimit="10" stroke-dasharray="" stroke-dashoffset="0" style="mix-blend-mode: normal"><path d="M91.39039,253.32425v-146.64851h297.21922v146.64852z" fill="#ff3333" stroke="none" stroke-width="1" stroke-linecap="butt"/><path d="M185.34562,197.75c-1.95819,0 -3.54562,-2.18956 -3.54562,-4.89051v-8.31387h-8.31387c-2.70095,0 -4.89051,-1.58743 -4.89051,-3.54562c0,-1.95819 2.18956,-3.54562 4.89051,-3.54562h8.31387v-8.31387c0,-2.70095 1.58743,-4.89051 3.54562,-4.89051c1.95819,0 3.54562,2.18956 3.54562,4.89051v8.31387h8.31387c2.70095,0 4.89051,1.58743 4.89051,3.54562c0,1.95819 -2.18956,3.54562 -4.89051,3.54562h-8.31387v8.31387c0,2.70095 -1.58743,4.89051 -3.54562,4.89051z" fill-opacity="0.2" fill="#000000" stroke="none" stroke-width="0" stroke-linecap="butt"/><path d="M296.34562,197.75c-1.95819,0 -3.54562,-2.18956 -3.54562,-4.89051v-8.31387h-8.31387c-2.70095,0 -4.89051,-1.58743 -4.89051,-3.54562c0,-1.95819 2.18956,-3.54562 4.89051,-3.54562h8.31387v-8.31387c0,-2.70095 1.58743,-4.89051 3.54562,-4.89051c1.95819,0 3.54562,2.18956 3.54562,4.89051v8.31387h8.31387c2.70095,0 4.89051,1.58743 4.89051,3.54562c0,1.95819 -2.18956,3.54562 -4.89051,3.54562h-8.31387v8.31387c0,2.70095 -1.58743,4.89051 -3.54562,4.89051z" fill-opacity="0.2" fill="#000000" stroke="none" stroke-width="0" stroke-linecap="butt"/><path d="M154.18421,191.40808c5.23217,0 9.47368,4.24152 9.47368,9.47369v32.21052c0,5.23217 -4.24152,9.47368 -9.47368,9.47368h-32.21053c-5.23217,0 -9.47369,-4.24152 -9.47369,-9.47368v-32.21052c0,-5.23217 4.24151,-9.47369 9.47369,-9.47369z" fill-opacity="0.2" fill="#000000" stroke="none" stroke-width="NaN" stroke-linecap="butt"/><path d="M185.34562,137.75c-1.95819,0 -3.54562,-2.18956 -3.54562,-4.89051v-23.71898c0,-2.70095 1.58743,-4.89051 3.54562,-4.89051v0c1.95819,0 3.54562,2.18956 3.54562,4.89051v23.71898c0,2.70095 -1.58743,4.89051 -3.54562,4.89051z" fill-opacity="0.2" fill="#000000" stroke="none" stroke-width="0" stroke-linecap="butt"/><path d="M154.11293,118l14.29824,24.76528l-14.29824,24.76529h-28.59649l-14.29825,-24.76529l14.29825,-24.76528z" fill-opacity="0.2" fill="#000000" stroke="none" stroke-width="0" stroke-linecap="butt"/><path d="M213,241.12424l27,-47.79852l27,47.79852z" fill-opacity="0.2" fill="#000000" stroke="none" stroke-width="0" stroke-linecap="butt"/><path d="M325.01019,167.53524l-10.31308,-31.61732l27,-19.54058l27,19.54058l-10.31308,31.61732z" fill-opacity="0.2" fill="#000000" stroke="none" stroke-width="0" stroke-linecap="butt"/><path d="M331.79771,241.59922l-13.99986,-13.99986v-19.7988l13.99986,-13.99986h19.7988l13.99986,13.99986v19.7988l-13.99986,13.99986z" fill-opacity="0.2" fill="#000000" stroke="none" stroke-width="0" stroke-linecap="butt"/><path d="M185.34562,255.75c-1.95819,0 -3.54562,-2.18956 -3.54562,-4.89051v-23.71898c0,-2.70095 1.58743,-4.89051 3.54562,-4.89051v0c1.95819,0 3.54562,2.18956 3.54562,4.89051v23.71898c0,2.70095 -1.58743,4.89051 -3.54562,4.89051z" fill-opacity="0.2" fill="#000000" stroke="none" stroke-width="0" stroke-linecap="butt"/><path d="M296.34562,137.75c-1.95819,0 -3.54562,-2.18956 -3.54562,-4.89051v-23.71898c0,-2.70095 1.58743,-4.89051 3.54562,-4.89051v0c1.95819,0 3.54562,2.18956 3.54562,4.89051v23.71898c0,2.70095 -1.58743,4.89051 -3.54562,4.89051z" fill-opacity="0.2" fill="#000000" stroke="none" stroke-width="0" stroke-linecap="butt"/><path d="M296.34562,255.75c-1.95819,0 -3.54562,-2.18956 -3.54562,-4.89051v-23.71898c0,-2.70095 1.58743,-4.89051 3.54562,-4.89051v0c1.95819,0 3.54562,2.18956 3.54562,4.89051v23.71898c0,2.70095 -1.58743,4.89051 -3.54562,4.89051z" fill-opacity="0.2" fill="#000000" stroke="none" stroke-width="0" stroke-linecap="butt"/><path d="M111.59562,181c0,-1.95819 2.18956,-3.54562 4.89051,-3.54562h23.71898c2.70095,0 4.89051,1.58743 4.89051,3.54562v0c0,1.95819 -2.18956,3.54562 -4.89051,3.54562h-23.71898c-2.70095,0 -4.89051,-1.58743 -4.89051,-3.54562z" fill-opacity="0.2" fill="#000000" stroke="none" stroke-width="0" stroke-linecap="butt"/><path d="M336.59562,181c0,-1.95819 2.18956,-3.54562 4.89051,-3.54562h23.71898c2.70095,0 4.89051,1.58743 4.89051,3.54562v0c0,1.95819 -2.18956,3.54562 -4.89051,3.54562h-23.71898c-2.70095,0 -4.89051,-1.58743 -4.89051,-3.54562z" fill-opacity="0.2" fill="#000000" stroke="none" stroke-width="0" stroke-linecap="butt"/><path d="M224.09562,181c0,-1.95819 2.18956,-3.54562 4.89051,-3.54562h23.71898c2.70095,0 4.89051,1.58743 4.89051,3.54562v0c0,1.95819 -2.18956,3.54562 -4.89051,3.54562h-23.71898c-2.70095,0 -4.89051,-1.58743 -4.89051,-3.54562z" fill-opacity="0.2" fill="#000000" stroke="none" stroke-width="0" stroke-linecap="butt"/><path d="M90.35135,118.17133c0,-6.39897 5.91545,-12.99566 13.1192,-12.99566c28.93252,0 219.72832,0 272.60996,0c8.61359,0 13.56814,4.64378 13.56814,12.24625c0,30.59212 0,109.0924 0,125.70487c0,6.03964 -4.85913,11.69754 -13.31873,11.69754c-52.46667,0 -243.42599,0 -272.60996,0c-7.3279,0 -13.36861,-4.5235 -13.36861,-11.94695c0,-30.16113 0,-124.70605 0,-124.70605z" fill="none" stroke="url(#color-1)" stroke-width="10" stroke-linecap="butt"/><path d="M107.94477,225.60508c0.4631,0.36763 1.26281,0.86894 2.3991,1.50393c1.14107,0.63499 2.22962,0.95248 3.26566,0.95248c1.04081,0 1.56122,-0.40343 1.56122,-1.21029c0,-0.36763 -0.148,-0.69227 -0.44401,-0.97396c-0.29124,-0.28169 -0.82836,-0.60396 -1.61134,-0.96681c-0.78299,-0.36763 -1.37024,-0.65409 -1.76173,-0.85938c-0.3915,-0.21006 -0.9119,-0.55382 -1.56122,-1.03126c-0.64454,-0.47743 -1.13868,-0.97397 -1.48243,-1.4896c-0.97397,-1.38934 -1.46095,-3.16062 -1.46095,-5.31385c0,-2.15323 0.79969,-3.96748 2.39911,-5.44276c1.59941,-1.48004 3.69535,-2.22008 6.28781,-2.22008c1.76173,0 3.38741,0.19098 4.877,0.57293c1.48959,0.37717 2.25826,0.87132 2.30601,1.48244c0,0.07162 0,0.14323 0,0.21484c0,0.85938 -0.26976,1.94316 -0.80926,3.25134c-0.53472,1.30339 -0.9119,2.02911 -1.13152,2.17711c-1.56599,-0.80686 -2.96726,-1.2103 -4.20381,-1.2103c-1.23179,0 -1.84767,0.43924 -1.84767,1.31772c0,0.5395 0.45356,1.01694 1.36069,1.4323c0.19575,0.10026 0.47504,0.23633 0.83789,0.40821c0.36763,0.1671 0.79016,0.36763 1.26759,0.60156c0.47743,0.23395 0.99068,0.52757 1.53973,0.88086c0.54905,0.35331 1.14346,0.82358 1.78322,1.41082c1.29385,1.22224 1.94078,2.83597 1.94078,4.84119c0,2.61634 -0.72092,4.75525 -2.16278,6.41672c-1.44186,1.66147 -3.6667,2.51609 -6.67454,2.56383c-1.46573,0 -2.79298,-0.12175 -3.9818,-0.36523c-1.18404,-0.24349 -2.21769,-0.71855 -3.10094,-1.42515c-0.87848,-0.71138 -1.31772,-1.56837 -1.31772,-2.57098c0,-1.00261 0.18381,-1.99807 0.55143,-2.98636c0.36763,-0.99306 0.75912,-1.64714 1.17449,-1.96225zM125.03015,209.36275c0,-0.12413 0.53235,-0.2411 1.59703,-0.35091c1.06468,-0.10981 1.93838,-0.16472 2.62111,-0.16472c2.71183,0 4.12982,0.3533 4.25395,1.0599c0,0 1.70071,8.70843 2.2813,11.6813c0.35849,1.83564 1.40337,1.55676 1.7631,-0.39618c0.54874,-2.97906 2.07871,-11.28512 2.07871,-11.28512c0.148,-0.7066 1.66385,-1.0599 4.54756,-1.0599c0.7066,0 1.59702,0.05013 2.67126,0.1504c1.079,0.09548 1.6185,0.20291 1.6185,0.32227l-6.48834,24.27757c-0.10026,0.3915 -0.82119,0.64692 -2.16279,0.76628c-2.08162,0.21962 -3.97226,0.26259 -5.67192,0.12891c-1.69489,-0.13368 -2.59247,-0.3724 -2.69273,-0.71615zM164.26325,226.88699l-1.20694,-6.12728c0,-0.34375 1.63903,0.57233 2.34563,0.46251c0.71138,-0.10981 1.29862,-0.16472 1.76173,-0.16472l1.43229,0.10743c0.92622,0.148 1.38934,0.40583 1.38934,0.77345l-0.14323,11.47276c-0.49176,0.34375 -1.47767,0.68034 -2.95772,1.00977c-1.47528,0.32943 -3.16778,0.49415 -5.07752,0.49415c-3.54256,0 -6.40241,-1.14822 -8.57951,-3.44469c-2.17234,-2.29647 -3.25849,-5.66954 -3.25849,-10.11924c0,-3.79083 1.06229,-6.87029 3.18687,-9.23837c2.12459,-2.37286 5.07036,-3.55928 8.83732,-3.55928c1.70922,0 3.25372,0.16473 4.63351,0.49416c1.38456,0.32943 2.33227,0.77584 2.84313,1.33921c0.02865,0.19575 0.04297,0.56338 0.04297,1.10287c0,0.53473 -0.18382,1.29862 -0.55143,2.29169c-0.36763,0.98829 -0.78537,1.72831 -1.25326,2.22008c-0.46311,0.48699 -0.79971,0.73048 -1.00977,0.73048c-0.2053,0 -0.42491,-0.09072 -0.65886,-0.27214c-0.22917,-0.1862 -0.6875,-0.38194 -1.37501,-0.58724c-0.68274,-0.21006 -1.3416,-0.31511 -1.97658,-0.31511c-1.51347,0 -2.74048,0.48937 -3.68103,1.46812c-0.94054,0.97396 -1.41081,2.48982 -1.41081,4.54756c0,2.05297 0.4822,3.6118 1.44662,4.67648c0.96443,1.05991 2.07445,1.58987 3.33012,1.58987c1.26042,0 1.89065,-0.31749 1.89065,-0.95248zM183.71449,227.10901c1.14107,0.63499 2.22962,0.95248 3.26567,0.95248c1.04082,0 1.56122,-0.40343 1.56122,-1.21029c0,-0.36763 -0.14801,-0.69227 -0.44402,-0.97396c-0.29124,-0.28169 -0.82835,-0.60396 -1.61134,-0.96681c-0.78299,-0.36763 -1.37024,-0.65409 -1.76173,-0.85938c-0.3915,-0.21006 -0.9119,-0.55382 -1.56122,-1.03126c-0.64453,-0.47743 -1.13869,-0.97397 -1.48244,-1.4896c-0.97396,-1.38934 -1.46095,-3.16062 -1.46095,-5.31385c0,-2.15323 0.7997,-3.96748 2.39911,-5.44276c1.59941,-1.48004 3.69535,-2.22008 6.28781,-2.22008c1.76173,0 3.3874,0.19098 4.87699,0.57293c1.4896,0.37717 2.306,1.62566 2.306,1.69728c0,0.33218 -0.47828,2.44881 -0.80925,3.25134c-0.53473,1.30339 -0.9119,2.02911 -1.13152,2.17711c-1.56599,-0.80686 -2.96727,-1.2103 -4.20381,-1.2103c-1.23179,0 -1.84768,0.43924 -1.84768,1.31772c0,0.5395 0.45356,1.01694 1.36069,1.4323c0.19575,0.10026 0.47505,0.23633 0.8379,0.40821c0.36763,0.1671 0.79015,0.36763 1.26758,0.60156c0.47743,0.23395 0.99068,0.52757 1.53973,0.88086c0.54905,0.35331 1.14346,0.82358 1.78322,1.41082c1.29385,1.22224 1.94078,2.83597 1.94078,4.84119c0,2.61634 -0.72093,4.75525 -2.16278,6.41672c-1.44186,1.66147 -3.6667,2.51609 -6.67453,2.56383c-1.46573,0 -2.79299,-0.12175 -3.98181,-0.36523c-1.18404,-0.24349 -2.21769,-0.71855 -3.10094,-1.42515c-0.87848,-0.71138 -1.31772,-1.56837 -1.31772,-2.57098c0,-1.00261 0.8981,-3.56949 1.26572,-4.55778c0.36763,-0.99306 1.72302,0.4781 2.85931,1.11308zM207.53169,241.22437c0,0.17188 -1.04558,0.25781 -3.13674,0.25781c-2.08639,0 -3.12959,-0.08594 -3.12959,-0.25781v-18.88495h-1.24611c-0.58724,0 -0.99068,-0.5371 -1.2103,-1.61134c-0.07639,-0.34375 -0.11459,-0.78299 -0.11459,-1.31772c0,-0.5395 0.17188,-1.17687 0.51564,-1.91213c0.48699,-1.07423 1.26998,-1.61134 2.34898,-1.61134c0.7066,0 1.35831,0.16472 1.9551,0.49415c0.60156,0.32943 1.01694,0.63499 1.24612,0.91669c0.23395,0.28169 0.35091,0.4464 0.35091,0.49415c1.6376,-1.26997 3.40888,-1.90497 5.31384,-1.90497c1.90974,0 3.54735,0.74003 4.91281,2.22008c1.37024,1.47528 2.05536,3.7598 2.05536,6.85358c0,3.09378 -0.68513,5.4905 -2.05536,7.19017c-1.36547,1.69489 -3.09856,2.54235 -5.19926,2.54235c-0.95487,0 -1.8238,-0.04775 -2.6068,-0.14324zM207.82532,222.70467v6.48834c0.41537,0.05251 0.75196,0.07878 1.00977,0.07878c0.25781,0 0.45833,0 0.60156,0c1.00261,-0.10026 1.50392,-1.38456 1.50392,-3.8529c0,-2.07684 1.227,-6.33141 -0.04299,-6.33141c0,0 -2.68076,3.34982 -3.07226,3.6172zM228.03226,234.51402c0,0.17188 -1.11242,0.2578 -3.33727,0.2578c-2.22484,-0.05251 -3.33728,-0.1504 -3.33728,-0.29362v-12.17459h-0.98829c-0.3915,0 -0.70421,-0.23872 -0.93816,-0.71616c-0.23395,-0.47743 -0.35091,-1.06945 -0.35091,-1.77605c0,-2.64021 0.78299,-3.96033 2.34898,-3.96033c1.0981,0 2.01477,0.33659 2.75002,1.00978c0.73525,0.66842 1.10287,1.43231 1.10287,2.29169c0.51086,-1.00261 1.20075,-1.80232 2.06968,-2.39911c0.86894,-0.60156 1.75457,-0.90236 2.65693,-0.90236c1.41798,0 2.27498,0.36524 2.57099,1.09572c0.07162,0.19575 0.10742,0.48461 0.10742,0.86655c0,0.37717 -0.11697,1.05512 -0.35091,2.03387c-0.22917,0.97874 -0.46789,1.68773 -0.71616,2.12697c-0.24349,0.43924 -0.38911,0.65886 -0.43685,0.65886c-0.04774,0 -0.27454,-0.09072 -0.68035,-0.27214c-0.40105,-0.1862 -0.76152,-0.2793 -1.08139,-0.2793c-0.92622,0 -1.38934,0.73286 -1.38934,2.19858zM241.22751,234.32782c0,0.19575 -1.11959,0.29362 -3.35875,0.29362c-2.2344,0 -3.3516,-0.08594 -3.3516,-0.25781v-18.00408c0,-0.1671 1.1172,-0.25065 3.3516,-0.25065c2.23917,0 3.35875,0.07162 3.35875,0.21485zM241.22751,214.16097c0,0.17188 -1.11959,0.25781 -3.35875,0.25781c-2.2344,0 -3.3516,-0.07401 -3.3516,-0.22201v-5.27805c0,-0.24349 1.1172,-0.36524 3.3516,-0.36524c2.23917,0 3.35875,0.07401 3.35875,0.22201zM252.96351,234.32782c0,0.29601 -1.02649,0.44401 -3.07946,0.44401c-2.44447,-0.10026 -3.6667,-0.26021 -3.6667,-0.47983v-12.97668h-1.86916c-0.49176,0 -0.73764,-0.84506 -0.73764,-2.53518c0,-0.43924 0.04298,-0.97635 0.12891,-1.61135c0.08593,-0.63499 0.26498,-0.95248 0.53712,-0.95248h1.94077v-3.22985c0,-0.48699 1.03126,-0.73047 3.09378,-0.73047c2.06729,0 3.10094,0.19575 3.10094,0.58724v2.34898l0.03581,1.02409h3.12242c0.41537,0 0.62305,0.857 0.62305,2.57099c0,1.70922 -0.20768,2.56383 -0.62305,2.56383h-2.60679zM265.94132,234.91506c-2.4206,0 -4.46163,-0.82358 -6.12311,-2.47073c-1.66147,-1.65192 -2.49221,-3.93884 -2.49221,-6.86075c0,-2.92191 0.7997,-5.27327 2.39911,-7.0541c1.60417,-1.78561 3.62851,-2.67841 6.07297,-2.67841c2.44446,0 4.33272,0.62306 5.66477,1.86916c1.33204,1.24611 1.99807,2.76196 1.99807,4.54757c0,3.95794 -2.27259,5.9369 -6.81777,5.9369h-2.53518c0,0.73525 0.20052,1.24371 0.60156,1.5254c0.40582,0.28169 1.00023,0.42253 1.78322,0.42253c1.714,0 3.33965,-0.3915 4.87699,-1.17449c0.02387,-0.02388 0.13368,0.14561 0.32943,0.50846c0.58724,1.05513 0.88087,1.94316 0.88087,2.66409c0,0.72092 -0.23156,1.1912 -0.69467,1.41082c0,0 -3.52347,1.35354 -5.94407,1.35354zM267.30202,222.96248c0,-1.02649 -0.50131,-1.53973 -1.50392,-1.53973c-0.4631,0 -0.86177,0.14084 -1.19597,0.42253c-0.32943,0.28169 -0.49415,0.68989 -0.49415,1.22462c0,0 -10.1657,1.44064 -7.44793,3.00066c2.71778,1.56002 9.43167,-1.86198 9.43167,-1.86198c0.80686,0 1.2103,-0.41537 1.2103,-1.24611zM276.61429,227.9469c1.98135,1.19837 3.54494,1.79754 4.69079,1.79754c0.73525,0 1.10287,-0.25542 1.10287,-0.76628c0,-0.36763 -0.63498,-0.84507 -1.90497,-1.43231c-3.05559,-1.2461 -4.58338,-3.28714 -4.58338,-6.1231c0,-1.80947 0.65886,-3.18927 1.97658,-4.13935c1.3225,-0.95487 2.90519,-1.43231 4.74809,-1.43231c1.84767,0 3.41127,0.19575 4.69079,0.58724c1.2843,0.3915 1.92645,0.90474 1.92645,1.53973c0,0.53473 -0.26259,1.24372 -0.78776,2.12698c-0.52519,0.87848 -0.88564,1.35352 -1.08139,1.42514c-1.05036,-0.58247 -2.18665,-0.87371 -3.40889,-0.87371c-0.65886,0 -0.98829,0.23156 -0.98829,0.69467c0,0.29124 0.12652,0.5419 0.37956,0.75196c0.25781,0.2053 0.72809,0.46072 1.41082,0.76628c0.68751,0.30555 1.25566,0.58247 1.70445,0.83074c0.45357,0.24349 0.96202,0.58486 1.5254,1.0241c1.17449,0.92622 1.76173,2.13652 1.76173,3.63089c0,1.95272 -0.6493,3.53541 -1.94793,4.74809c-1.29385,1.20791 -3.24894,1.81187 -5.86529,1.81187c-1.73309,0 -3.30863,-0.29362 -4.72661,-0.88086c-1.41798,-0.58724 -2.12697,-1.39411 -2.12697,-2.4206c0,-0.68274 0.16472,-1.40127 0.49415,-2.15563c0.32943,-0.75912 0.66603,-1.26281 1.00977,-1.51107zM298.46407,234.29201c0,0.21962 -1.02171,0.32943 -3.06513,0.32943c-2.03864,0 -3.05797,-0.1695 -3.05797,-0.50847v-25.12262c0,-0.1671 0.37956,-0.28646 1.13869,-0.35808c0.75912,-0.07639 1.39411,-0.11458 1.90497,-0.11458c2.05297,0 3.07946,0.21962 3.07946,0.65886v7.3334c1.37024,-0.41537 2.41105,-0.62305 3.12242,-0.62305c1.85723,0 3.32294,0.49653 4.39718,1.4896c1.07423,0.98829 1.61135,2.82641 1.61135,5.51437v11.36535c0,0.21962 -0.95248,0.32943 -2.85744,0.32943c-2.15323,-0.07162 -3.22985,-0.19336 -3.22985,-0.36524v-10.77809c0,-1.19837 -0.38911,-1.79755 -1.16733,-1.79755c-0.53951,0 -1.16494,0.25543 -1.87632,0.76629zM318.63176,234.91506c-2.4206,0 -4.46163,-0.82358 -6.1231,-2.47073c-1.66147,-1.65192 -2.49221,-3.93884 -2.49221,-6.86075c0,-2.92191 0.7997,-5.27327 2.39911,-7.0541c1.60417,-1.78561 3.62851,-2.67841 6.07297,-2.67841c2.44446,0 4.33273,0.62306 5.66477,1.86916c1.33204,1.24611 1.99806,2.76196 1.99806,4.54757c0,3.95794 -2.27259,5.9369 -6.81776,5.9369h-2.53519c0,0.73525 0.20053,1.24371 0.60157,1.5254c0.40582,0.28169 1.00023,0.42253 1.78322,0.42253c1.714,0 3.33965,-0.3915 4.87699,-1.17449c0.02387,-0.02388 0.13368,0.14561 0.32943,0.50846c0.58724,1.05513 0.88087,1.94316 0.88087,2.66409c0,0.72092 -0.23156,1.1912 -0.69466,1.41082c0,0 -3.52348,1.35354 -5.94408,1.35354zM319.99246,222.96248c0,-1.02649 -0.50131,-1.53973 -1.50392,-1.53973c-0.4631,0 -0.86177,0.14084 -1.19597,0.42253c-0.32943,0.28169 -0.49415,0.68989 -0.49415,1.22462c0,0 -9.54686,1.84292 -6.94011,3.33921c2.60675,1.4963 8.92386,-2.20052 8.92386,-2.20052c0.80686,0 1.21029,-0.41537 1.21029,-1.24611zM336.45193,234.91506c-2.4206,0 -4.46163,-0.82358 -6.12311,-2.47073c-1.66147,-1.65192 -2.49221,-3.93884 -2.49221,-6.86075c0,-2.92191 0.7997,-5.27327 2.39911,-7.0541c1.60417,-1.78561 3.62851,-2.67841 6.07298,-2.67841c2.44446,0 4.33272,0.62306 5.66476,1.86916c1.33204,1.24611 1.99808,2.76196 1.99808,4.54757c0,3.95794 -2.2726,5.9369 -6.81777,5.9369h-2.53518c0,0.73525 0.20052,1.24371 0.60156,1.5254c0.40582,0.28169 1.00024,0.42253 1.78323,0.42253c1.714,0 3.33965,-0.3915 4.87699,-1.17449c0.02387,-0.02388 0.13369,0.14561 0.32943,0.50846c0.58724,1.05513 0.88086,1.94316 0.88086,2.66409c0,0.72092 -0.23156,1.1912 -0.69466,1.41082c0,0 -3.52347,1.35354 -5.94407,1.35354zM337.81263,222.96248c0,-1.02649 -0.50131,-1.53973 -1.50392,-1.53973c-0.4631,0 -0.86177,0.14084 -1.19597,0.42253c-0.32943,0.28169 -0.49415,0.68989 -0.49415,1.22462c0,0 -7.07455,1.8547 -5.07813,3.00066c1.99642,1.14596 7.06188,-1.86198 7.06188,-1.86198c0.80686,0 1.2103,-0.41537 1.2103,-1.24611zM354.78771,234.32782c0,0.29601 -1.02649,0.44401 -3.07946,0.44401c-2.44446,-0.10026 -3.6667,-0.26021 -3.6667,-0.47983v-12.97668h-1.86915c-0.49176,0 -0.73764,-0.84506 -0.73764,-2.53518c0,-0.43924 0.04298,-0.97635 0.12891,-1.61135c0.08593,-0.63499 0.26498,-0.95248 0.53711,-0.95248h1.94077v-3.22985c0,-0.48699 1.03126,-0.73047 3.09378,-0.73047c2.06729,0 3.10094,0.19575 3.10094,0.58724v2.34898l0.0358,1.02409h3.12243c0.41537,0 0.62306,0.857 0.62306,2.57099c0,1.70922 -0.20769,2.56383 -0.62306,2.56383h-2.60679zM360.61831,227.9469c1.98135,1.19837 3.54494,1.79754 4.69079,1.79754c0.73525,0 1.10287,-0.25542 1.10287,-0.76628c0,-0.36763 -0.63498,-0.84507 -1.90497,-1.43231c-3.05559,-1.2461 -4.58338,-3.28714 -4.58338,-6.1231c0,-1.80947 0.65886,-3.18927 1.97658,-4.13935c1.3225,-0.95487 2.90518,-1.43231 4.74808,-1.43231c1.84767,0 3.41129,0.19575 4.6908,0.58724c1.2843,0.3915 1.92645,0.90474 1.92645,1.53973c0,0.53473 -0.26259,1.24372 -0.78776,2.12698c-0.52519,0.87848 -0.88565,1.35352 -1.08139,1.42514c-1.05036,-0.58247 -2.18666,-0.87371 -3.40889,-0.87371c-0.65886,0 -0.98828,0.23156 -0.98828,0.69467c0,0.29124 0.12651,0.5419 0.37955,0.75196c0.25781,0.2053 0.72809,0.46072 1.41082,0.76628c0.68751,0.30555 1.25566,0.58247 1.70445,0.83074c0.45357,0.24349 0.96202,0.58486 1.5254,1.0241c1.17449,0.92622 1.76173,2.13652 1.76173,3.63089c0,1.95272 -0.6493,3.53541 -1.94793,4.74809c-1.29385,1.20791 -3.24894,1.81187 -5.86528,1.81187c-1.73309,0 -3.30863,-0.29362 -4.72661,-0.88086c-1.41798,-0.58724 -2.12698,-1.39411 -2.12698,-2.4206c0,-0.68274 0.16472,-1.40127 0.49415,-2.15563c0.32943,-0.75912 0.66602,-1.26281 1.00977,-1.51107z" fill="none" stroke-opacity="0.50196" stroke="#000000" stroke-width="7" stroke-linecap="square"/><path d="M107.94477,225.60508c0.4631,0.36763 1.26281,0.86894 2.3991,1.50393c1.14107,0.63499 2.22962,0.95248 3.26566,0.95248c1.04081,0 1.56122,-0.40343 1.56122,-1.21029c0,-0.36763 -0.148,-0.69227 -0.44401,-0.97396c-0.29124,-0.28169 -0.82836,-0.60396 -1.61134,-0.96681c-0.78299,-0.36763 -1.37024,-0.65409 -1.76173,-0.85938c-0.3915,-0.21006 -0.9119,-0.55382 -1.56122,-1.03126c-0.64454,-0.47743 -1.13868,-0.97397 -1.48243,-1.4896c-0.97397,-1.38934 -1.46095,-3.16062 -1.46095,-5.31385c0,-2.15323 0.79969,-3.96748 2.39911,-5.44276c1.59941,-1.48004 3.69535,-2.22008 6.28781,-2.22008c1.76173,0 3.38741,0.19098 4.877,0.57293c1.48959,0.37717 2.25826,0.87132 2.30601,1.48244c0,0.07162 0,0.14323 0,0.21484c0,0.85938 -0.26976,1.94316 -0.80926,3.25134c-0.53472,1.30339 -0.9119,2.02911 -1.13152,2.17711c-1.56599,-0.80686 -2.96726,-1.2103 -4.20381,-1.2103c-1.23179,0 -1.84767,0.43924 -1.84767,1.31772c0,0.5395 0.45356,1.01694 1.36069,1.4323c0.19575,0.10026 0.47504,0.23633 0.83789,0.40821c0.36763,0.1671 0.79016,0.36763 1.26759,0.60156c0.47743,0.23395 0.99068,0.52757 1.53973,0.88086c0.54905,0.35331 1.14346,0.82358 1.78322,1.41082c1.29385,1.22224 1.94078,2.83597 1.94078,4.84119c0,2.61634 -0.72092,4.75525 -2.16278,6.41672c-1.44186,1.66147 -3.6667,2.51609 -6.67454,2.56383c-1.46573,0 -2.79298,-0.12175 -3.9818,-0.36523c-1.18404,-0.24349 -2.21769,-0.71855 -3.10094,-1.42515c-0.87848,-0.71138 -1.31772,-1.56837 -1.31772,-2.57098c0,-1.00261 0.18381,-1.99807 0.55143,-2.98636c0.36763,-0.99306 0.75912,-1.64714 1.17449,-1.96225zM125.03015,209.36275c0,-0.12413 0.53235,-0.2411 1.59703,-0.35091c1.06468,-0.10981 1.93838,-0.16472 2.62111,-0.16472c2.71183,0 4.12982,0.3533 4.25395,1.0599l3.15107,16.13492l2.97204,-16.13492c0.148,-0.7066 1.66385,-1.0599 4.54756,-1.0599c0.7066,0 1.59702,0.05013 2.67126,0.1504c1.079,0.09548 1.6185,0.20291 1.6185,0.32227l-6.48834,24.27757c-0.10026,0.3915 -0.82119,0.64692 -2.16279,0.76628c-2.08162,0.21962 -3.97226,0.26259 -5.67192,0.12891c-1.69489,-0.13368 -2.59247,-0.3724 -2.69273,-0.71615zM164.26325,226.88699l0.07877,-4.98442c0,-0.34375 0.35332,-0.57053 1.05992,-0.68034c0.71138,-0.10981 1.29862,-0.16472 1.76173,-0.16472l1.43229,0.10743c0.92622,0.148 1.38934,0.40583 1.38934,0.77345l-0.14323,11.47276c-0.49176,0.34375 -1.47767,0.68034 -2.95772,1.00977c-1.47528,0.32943 -3.16778,0.49415 -5.07752,0.49415c-3.54256,0 -6.40241,-1.14822 -8.57951,-3.44469c-2.17234,-2.29647 -3.25849,-5.66954 -3.25849,-10.11924c0,-3.79083 1.06229,-6.87029 3.18687,-9.23837c2.12459,-2.37286 5.07036,-3.55928 8.83732,-3.55928c1.70922,0 3.25372,0.16473 4.63351,0.49416c1.38456,0.32943 2.33227,0.77584 2.84313,1.33921c0.02865,0.19575 0.04297,0.56338 0.04297,1.10287c0,0.53473 -0.18382,1.29862 -0.55143,2.29169c-0.36763,0.98829 -0.78537,1.72831 -1.25326,2.22008c-0.46311,0.48699 -0.79971,0.73048 -1.00977,0.73048c-0.2053,0 -0.42491,-0.09072 -0.65886,-0.27214c-0.22917,-0.1862 -0.6875,-0.38194 -1.37501,-0.58724c-0.68274,-0.21006 -1.3416,-0.31511 -1.97658,-0.31511c-1.51347,0 -2.74048,0.48937 -3.68103,1.46812c-0.94054,0.97396 -1.41081,2.48982 -1.41081,4.54756c0,2.05297 0.4822,3.6118 1.44662,4.67648c0.96443,1.05991 2.07445,1.58987 3.33012,1.58987c1.26042,0 1.89065,-0.31749 1.89065,-0.95248zM181.31538,225.60508c0.46311,0.36763 1.26281,0.86894 2.3991,1.50393c1.14107,0.63499 2.22962,0.95248 3.26567,0.95248c1.04082,0 1.56122,-0.40343 1.56122,-1.21029c0,-0.36763 -0.14801,-0.69227 -0.44402,-0.97396c-0.29124,-0.28169 -0.82835,-0.60396 -1.61134,-0.96681c-0.78299,-0.36763 -1.37024,-0.65409 -1.76173,-0.85938c-0.3915,-0.21006 -0.9119,-0.55382 -1.56122,-1.03126c-0.64453,-0.47743 -1.13869,-0.97397 -1.48244,-1.4896c-0.97396,-1.38934 -1.46095,-3.16062 -1.46095,-5.31385c0,-2.15323 0.7997,-3.96748 2.39911,-5.44276c1.59941,-1.48004 3.69535,-2.22008 6.28781,-2.22008c1.76173,0 3.3874,0.19098 4.87699,0.57293c1.4896,0.37717 2.25826,0.87132 2.306,1.48244c0,0.07162 0,0.14323 0,0.21484c0,0.85938 -0.26975,1.94316 -0.80925,3.25134c-0.53473,1.30339 -0.9119,2.02911 -1.13152,2.17711c-1.56599,-0.80686 -2.96727,-1.2103 -4.20381,-1.2103c-1.23179,0 -1.84768,0.43924 -1.84768,1.31772c0,0.5395 0.45356,1.01694 1.36069,1.4323c0.19575,0.10026 0.47505,0.23633 0.8379,0.40821c0.36763,0.1671 0.79015,0.36763 1.26758,0.60156c0.47743,0.23395 0.99068,0.52757 1.53973,0.88086c0.54905,0.35331 1.14346,0.82358 1.78322,1.41082c1.29385,1.22224 1.94078,2.83597 1.94078,4.84119c0,2.61634 -0.72093,4.75525 -2.16278,6.41672c-1.44186,1.66147 -3.6667,2.51609 -6.67453,2.56383c-1.46573,0 -2.79299,-0.12175 -3.98181,-0.36523c-1.18404,-0.24349 -2.21769,-0.71855 -3.10094,-1.42515c-0.87848,-0.71138 -1.31772,-1.56837 -1.31772,-2.57098c0,-1.00261 0.18382,-1.99807 0.55144,-2.98636c0.36763,-0.99306 0.75912,-1.64714 1.17449,-1.96225zM207.53169,241.22437c0,0.17188 -1.04558,0.25781 -3.13674,0.25781c-2.08639,0 -3.12959,-0.08594 -3.12959,-0.25781v-18.88495h-1.24611c-0.58724,0 -0.99068,-0.5371 -1.2103,-1.61134c-0.07639,-0.34375 -0.11459,-0.78299 -0.11459,-1.31772c0,-0.5395 0.17188,-1.17687 0.51564,-1.91213c0.48699,-1.07423 1.26998,-1.61134 2.34898,-1.61134c0.7066,0 1.35831,0.16472 1.9551,0.49415c0.60156,0.32943 1.01694,0.63499 1.24612,0.91669c0.23395,0.28169 0.35091,0.4464 0.35091,0.49415c1.6376,-1.26997 3.40888,-1.90497 5.31384,-1.90497c1.90974,0 3.54735,0.74003 4.91281,2.22008c1.37024,1.47528 2.05536,3.7598 2.05536,6.85358c0,3.09378 -0.68513,5.4905 -2.05536,7.19017c-1.36547,1.69489 -3.09856,2.54235 -5.19926,2.54235c-0.95487,0 -1.8238,-0.04775 -2.6068,-0.14324zM209.03561,222.30362c-0.41537,0 -0.81879,0.13367 -1.21029,0.40105v6.48834c0.41537,0.05251 0.75196,0.07878 1.00977,0.07878c0.25781,0 0.45833,0 0.60156,0c1.00261,-0.10026 1.50392,-1.38456 1.50392,-3.8529c0,-2.07684 -0.63499,-3.11526 -1.90497,-3.11526zM228.03226,234.51402c0,0.17188 -1.11242,0.2578 -3.33727,0.2578c-2.22484,-0.05251 -3.33728,-0.1504 -3.33728,-0.29362v-12.17459h-0.98829c-0.3915,0 -0.70421,-0.23872 -0.93816,-0.71616c-0.23395,-0.47743 -0.35091,-1.06945 -0.35091,-1.77605c0,-2.64021 0.78299,-3.96033 2.34898,-3.96033c1.0981,0 2.01477,0.33659 2.75002,1.00978c0.73525,0.66842 1.10287,1.43231 1.10287,2.29169c0.51086,-1.00261 1.20075,-1.80232 2.06968,-2.39911c0.86894,-0.60156 1.75457,-0.90236 2.65693,-0.90236c1.41798,0 2.27498,0.36524 2.57099,1.09572c0.07162,0.19575 0.10742,0.48461 0.10742,0.86655c0,0.37717 -0.11697,1.05512 -0.35091,2.03387c-0.22917,0.97874 -0.46789,1.68773 -0.71616,2.12697c-0.24349,0.43924 -0.38911,0.65886 -0.43685,0.65886c-0.04774,0 -0.27454,-0.09072 -0.68035,-0.27214c-0.40105,-0.1862 -0.76152,-0.2793 -1.08139,-0.2793c-0.92622,0 -1.38934,0.73286 -1.38934,2.19858zM241.22751,234.32782c0,0.19575 -1.11959,0.29362 -3.35875,0.29362c-2.2344,0 -3.3516,-0.08594 -3.3516,-0.25781v-18.00408c0,-0.1671 1.1172,-0.25065 3.3516,-0.25065c2.23917,0 3.35875,0.07162 3.35875,0.21485zM241.22751,214.16097c0,0.17188 -1.11959,0.25781 -3.35875,0.25781c-2.2344,0 -3.3516,-0.07401 -3.3516,-0.22201v-5.27805c0,-0.24349 1.1172,-0.36524 3.3516,-0.36524c2.23917,0 3.35875,0.07401 3.35875,0.22201zM252.96351,234.32782c0,0.29601 -1.02649,0.44401 -3.07946,0.44401c-2.44447,-0.10026 -3.6667,-0.26021 -3.6667,-0.47983v-12.97668h-1.86916c-0.49176,0 -0.73764,-0.84506 -0.73764,-2.53518c0,-0.43924 0.04298,-0.97635 0.12891,-1.61135c0.08593,-0.63499 0.26498,-0.95248 0.53712,-0.95248h1.94077v-3.22985c0,-0.48699 1.03126,-0.73047 3.09378,-0.73047c2.06729,0 3.10094,0.19575 3.10094,0.58724v2.34898l0.03581,1.02409h3.12242c0.41537,0 0.62305,0.857 0.62305,2.57099c0,1.70922 -0.20768,2.56383 -0.62305,2.56383h-2.60679zM271.88539,233.56154c-1.54212,0.90236 -3.52347,1.35352 -5.94407,1.35352c-2.4206,0 -4.46163,-0.82358 -6.12311,-2.47073c-1.66147,-1.65192 -2.49221,-3.93884 -2.49221,-6.86075c0,-2.92191 0.7997,-5.27327 2.39911,-7.0541c1.60417,-1.78561 3.62851,-2.67841 6.07297,-2.67841c2.44446,0 4.33272,0.62306 5.66477,1.86916c1.33204,1.24611 1.99807,2.76196 1.99807,4.54757c0,3.95794 -2.27259,5.9369 -6.81777,5.9369h-2.53518c0,0.73525 0.20052,1.24371 0.60156,1.5254c0.40582,0.28169 1.00023,0.42253 1.78322,0.42253c1.714,0 3.33965,-0.3915 4.87699,-1.17449c0.02387,-0.02388 0.13368,0.14561 0.32943,0.50846c0.58724,1.05513 0.88087,1.94316 0.88087,2.66409c0,0.72092 -0.23156,1.1912 -0.69467,1.41082zM267.30202,222.96248c0,-1.02649 -0.50131,-1.53973 -1.50392,-1.53973c-0.4631,0 -0.86177,0.14084 -1.19597,0.42253c-0.32943,0.28169 -0.49415,0.68989 -0.49415,1.22462v1.13869h1.98374c0.80686,0 1.2103,-0.41537 1.2103,-1.24611zM276.61429,227.9469c1.98135,1.19837 3.54494,1.79754 4.69079,1.79754c0.73525,0 1.10287,-0.25542 1.10287,-0.76628c0,-0.36763 -0.63498,-0.84507 -1.90497,-1.43231c-3.05559,-1.2461 -4.58338,-3.28714 -4.58338,-6.1231c0,-1.80947 0.65886,-3.18927 1.97658,-4.13935c1.3225,-0.95487 2.90519,-1.43231 4.74809,-1.43231c1.84767,0 3.41127,0.19575 4.69079,0.58724c1.2843,0.3915 1.92645,0.90474 1.92645,1.53973c0,0.53473 -0.26259,1.24372 -0.78776,2.12698c-0.52519,0.87848 -0.88564,1.35352 -1.08139,1.42514c-1.05036,-0.58247 -2.18665,-0.87371 -3.40889,-0.87371c-0.65886,0 -0.98829,0.23156 -0.98829,0.69467c0,0.29124 0.12652,0.5419 0.37956,0.75196c0.25781,0.2053 0.72809,0.46072 1.41082,0.76628c0.68751,0.30555 1.25566,0.58247 1.70445,0.83074c0.45357,0.24349 0.96202,0.58486 1.5254,1.0241c1.17449,0.92622 1.76173,2.13652 1.76173,3.63089c0,1.95272 -0.6493,3.53541 -1.94793,4.74809c-1.29385,1.20791 -3.24894,1.81187 -5.86529,1.81187c-1.73309,0 -3.30863,-0.29362 -4.72661,-0.88086c-1.41798,-0.58724 -2.12697,-1.39411 -2.12697,-2.4206c0,-0.68274 0.16472,-1.40127 0.49415,-2.15563c0.32943,-0.75912 0.66603,-1.26281 1.00977,-1.51107zM298.46407,234.29201c0,0.21962 -1.02171,0.32943 -3.06513,0.32943c-2.03864,0 -3.05797,-0.1695 -3.05797,-0.50847v-25.12262c0,-0.1671 0.37956,-0.28646 1.13869,-0.35808c0.75912,-0.07639 1.39411,-0.11458 1.90497,-0.11458c2.05297,0 3.07946,0.21962 3.07946,0.65886v7.3334c1.37024,-0.41537 2.41105,-0.62305 3.12242,-0.62305c1.85723,0 3.32294,0.49653 4.39718,1.4896c1.07423,0.98829 1.61135,2.82641 1.61135,5.51437v11.36535c0,0.21962 -0.95248,0.32943 -2.85744,0.32943c-2.15323,-0.07162 -3.22985,-0.19336 -3.22985,-0.36524v-10.77809c0,-1.19837 -0.38911,-1.79755 -1.16733,-1.79755c-0.53951,0 -1.16494,0.25543 -1.87632,0.76629zM324.57584,233.56154c-1.54212,0.90236 -3.52348,1.35352 -5.94408,1.35352c-2.4206,0 -4.46163,-0.82358 -6.1231,-2.47073c-1.66147,-1.65192 -2.49221,-3.93884 -2.49221,-6.86075c0,-2.92191 0.7997,-5.27327 2.39911,-7.0541c1.60417,-1.78561 3.62851,-2.67841 6.07297,-2.67841c2.44446,0 4.33273,0.62306 5.66477,1.86916c1.33204,1.24611 1.99806,2.76196 1.99806,4.54757c0,3.95794 -2.27259,5.9369 -6.81776,5.9369h-2.53519c0,0.73525 0.20053,1.24371 0.60157,1.5254c0.40582,0.28169 1.00023,0.42253 1.78322,0.42253c1.714,0 3.33965,-0.3915 4.87699,-1.17449c0.02387,-0.02388 0.13368,0.14561 0.32943,0.50846c0.58724,1.05513 0.88087,1.94316 0.88087,2.66409c0,0.72092 -0.23156,1.1912 -0.69466,1.41082zM319.99246,222.96248c0,-1.02649 -0.50131,-1.53973 -1.50392,-1.53973c-0.4631,0 -0.86177,0.14084 -1.19597,0.42253c-0.32943,0.28169 -0.49415,0.68989 -0.49415,1.22462v1.13869h1.98375c0.80686,0 1.21029,-0.41537 1.21029,-1.24611zM342.396,233.56154c-1.54212,0.90236 -3.52347,1.35352 -5.94407,1.35352c-2.4206,0 -4.46163,-0.82358 -6.12311,-2.47073c-1.66147,-1.65192 -2.49221,-3.93884 -2.49221,-6.86075c0,-2.92191 0.7997,-5.27327 2.39911,-7.0541c1.60417,-1.78561 3.62851,-2.67841 6.07298,-2.67841c2.44446,0 4.33272,0.62306 5.66476,1.86916c1.33204,1.24611 1.99808,2.76196 1.99808,4.54757c0,3.95794 -2.2726,5.9369 -6.81777,5.9369h-2.53518c0,0.73525 0.20052,1.24371 0.60156,1.5254c0.40582,0.28169 1.00024,0.42253 1.78323,0.42253c1.714,0 3.33965,-0.3915 4.87699,-1.17449c0.02387,-0.02388 0.13369,0.14561 0.32943,0.50846c0.58724,1.05513 0.88086,1.94316 0.88086,2.66409c0,0.72092 -0.23156,1.1912 -0.69466,1.41082zM337.81263,222.96248c0,-1.02649 -0.50131,-1.53973 -1.50392,-1.53973c-0.4631,0 -0.86177,0.14084 -1.19597,0.42253c-0.32943,0.28169 -0.49415,0.68989 -0.49415,1.22462v1.13869h1.98375c0.80686,0 1.2103,-0.41537 1.2103,-1.24611zM354.78771,234.32782c0,0.29601 -1.02649,0.44401 -3.07946,0.44401c-2.44446,-0.10026 -3.6667,-0.26021 -3.6667,-0.47983v-12.97668h-1.86915c-0.49176,0 -0.73764,-0.84506 -0.73764,-2.53518c0,-0.43924 0.04298,-0.97635 0.12891,-1.61135c0.08593,-0.63499 0.26498,-0.95248 0.53711,-0.95248h1.94077v-3.22985c0,-0.48699 1.03126,-0.73047 3.09378,-0.73047c2.06729,0 3.10094,0.19575 3.10094,0.58724v2.34898l0.0358,1.02409h3.12243c0.41537,0 0.62306,0.857 0.62306,2.57099c0,1.70922 -0.20769,2.56383 -0.62306,2.56383h-2.60679zM360.61831,227.9469c1.98135,1.19837 3.54494,1.79754 4.69079,1.79754c0.73525,0 1.10287,-0.25542 1.10287,-0.76628c0,-0.36763 -0.63498,-0.84507 -1.90497,-1.43231c-3.05559,-1.2461 -4.58338,-3.28714 -4.58338,-6.1231c0,-1.80947 0.65886,-3.18927 1.97658,-4.13935c1.3225,-0.95487 2.90518,-1.43231 4.74808,-1.43231c1.84767,0 3.41129,0.19575 4.6908,0.58724c1.2843,0.3915 1.92645,0.90474 1.92645,1.53973c0,0.53473 -0.26259,1.24372 -0.78776,2.12698c-0.52519,0.87848 -0.88565,1.35352 -1.08139,1.42514c-1.05036,-0.58247 -2.18666,-0.87371 -3.40889,-0.87371c-0.65886,0 -0.98828,0.23156 -0.98828,0.69467c0,0.29124 0.12651,0.5419 0.37955,0.75196c0.25781,0.2053 0.72809,0.46072 1.41082,0.76628c0.68751,0.30555 1.25566,0.58247 1.70445,0.83074c0.45357,0.24349 0.96202,0.58486 1.5254,1.0241c1.17449,0.92622 1.76173,2.13652 1.76173,3.63089c0,1.95272 -0.6493,3.53541 -1.94793,4.74809c-1.29385,1.20791 -3.24894,1.81187 -5.86528,1.81187c-1.73309,0 -3.30863,-0.29362 -4.72661,-0.88086c-1.41798,-0.58724 -2.12698,-1.39411 -2.12698,-2.4206c0,-0.68274 0.16472,-1.40127 0.49415,-2.15563c0.32943,-0.75912 0.66602,-1.26281 1.00977,-1.51107z" fill="#ffffff" stroke="none" stroke-width="1" stroke-linecap="square"/><path d="M199.53619,158c0,-22.34755 18.11627,-40.46382 40.46382,-40.46382c22.34755,0 40.46382,18.11627 40.46382,40.46382c0,22.34755 -18.11627,40.46382 -40.46382,40.46382c-22.34755,0 -40.46382,-18.11627 -40.46382,-40.46382z" fill-opacity="0.50196" fill="#000000" stroke="none" stroke-width="0" stroke-linecap="butt"/><path d="M203.7996,158c0,-19.99293 16.20748,-36.20041 36.20041,-36.20041c19.99293,0 36.20041,16.20748 36.20041,36.20041c0,19.99293 -16.20748,36.20041 -36.20041,36.20041c-19.99293,0 -36.20041,-16.20748 -36.20041,-36.20041z" fill="#cc2929" stroke="none" stroke-width="0" stroke-linecap="butt"/><path d="M208.27926,157.99998c0,-17.5579 14.23349,-31.79139 31.79139,-31.79139c17.5579,0 31.79139,14.23349 31.79139,31.79139c0,17.5579 -14.23349,31.79139 -31.79139,31.79139c-17.5579,0 -31.79139,-14.23349 -31.79139,-31.79139z" fill="#ff3333" stroke="none" stroke-width="0" stroke-linecap="butt"/><path d="M237.69651,155.99216v-3.4551" fill="none" stroke="#ffffff" stroke-width="2.5" stroke-linecap="round"/><path d="M237.69651,147.98439v-3.4551" fill="none" stroke="#ffffff" stroke-width="2.5" stroke-linecap="round"/><path d="M237.69651,139.97664v-3.4551" fill="none" stroke="#ffffff" stroke-width="2.5" stroke-linecap="round"/><path d="M237.68904,155.99962h-3.4551" fill="none" stroke="#ffffff" stroke-width="2.5" stroke-linecap="round"/><path d="M229.68129,155.99962h-3.4551" fill="none" stroke="#ffffff" stroke-width="2.5" stroke-linecap="round"/><path d="M218.21842,155.99962h3.4551" fill="none" stroke="#ffffff" stroke-width="2.5" stroke-linecap="round"/><path d="M241.08815,162.26426v-27.86276c0,0 5.48823,2.91441 6.11328,6.27601c0.62505,3.36159 -0.93253,21.58676 -0.93253,21.58676z" fill="#ffffff" stroke="#ffffff" stroke-width="0" stroke-linecap="butt"/><path d="M244.16213,164.68187c0,0 -18.22516,1.55759 -21.58676,0.93253c-3.36159,-0.62505 -6.27601,-6.11328 -6.27601,-6.11328h27.86276z" fill="#ffffff" stroke="#ffffff" stroke-width="0" stroke-linecap="butt"/><path d="M240.40609,162.50815c0,-2.289 1.8556,-4.14459 4.14459,-4.14459c2.289,0 4.14459,1.8556 4.14459,4.14459c0,2.289 -1.8556,4.14459 -4.14459,4.14459c-2.289,0 -4.14459,-1.8556 -4.14459,-4.14459z" fill="#ffffff" stroke="none" stroke-width="0" stroke-linecap="butt"/><path d="M263.70059,161.21296c0,3.31873 -4.36031,6.00909 -9.73904,6.00909c-5.37872,0 -9.73905,-2.69036 -9.73905,-6.00909c0,-3.31873 4.36032,-6.00909 9.73905,-6.00909c5.37872,0 9.73904,2.69036 9.73904,6.00909zM253.96155,157.78437c-3.43308,0 -6.21614,1.53503 -6.21614,3.42859c0,1.89356 2.78306,3.42858 6.21614,3.42858c3.43308,0 6.21614,-1.53502 6.21614,-3.42858c0,-1.89356 -2.78306,-3.42859 -6.21614,-3.42859z" fill="#ffffff" stroke="none" stroke-width="0" stroke-linecap="butt"/><path d="M243.64406,162.12035c3.31873,0 6.00909,4.36032 6.00909,9.73905c0,5.37872 -2.69036,9.73905 -6.00909,9.73905c-3.31873,0 -6.00909,-4.36032 -6.00909,-9.73905c0,-5.37872 2.69036,-9.73905 6.00909,-9.73905zM240.21548,171.8594c0,3.43308 1.53503,6.21614 3.42858,6.21614c1.89356,0 3.42858,-2.78306 3.42858,-6.21614c0,-3.43308 -1.53502,-6.21614 -3.42858,-6.21614c-1.89356,0 -3.42858,2.78306 -3.42858,6.21614z" fill="#ffffff" stroke="none" stroke-width="0" stroke-linecap="butt"/></g></g></svg>
