<svg xmlns="http://www.w3.org/2000/svg" width="309.297" height="159.649" viewBox="0 0 309.297 159.649"><defs><linearGradient x1="240" y1="105.176" x2="240" y2="254.824" gradientUnits="userSpaceOnUse" id="a"><stop offset="0" stop-color="#67390a"/><stop offset="1" stop-color="#864a0d"/></linearGradient></defs><g stroke-miterlimit="10"><path d="M4.656 139.024v-122.5c0-6.04 7.79-11.695 16.793-11.695h266.5c10.527 0 16.693 7.611 16.693 15.195v118.5c0 9.961-7.998 16.295-17.193 16.295h-263c-12.406 0-19.793-6.112-19.793-15.795" fill="#ff8c1a"/><path d="m229.646 154.821 74.996-74.997v64.5c0 4.986-4.918 10.497-9.509 10.497zm-75.087-74.997L225.554 8.83c2.156-2.156 3.752 2.176 3.752 7.744 0 12.76.25 63.25.25 63.25zm37.588 74.997 37.499-37.499v37.499zm0-37.499 37.499-37.498v37.498zM79.652 154.821l74.997-74.997v74.997zm-70.384-4.613 70.384-70.384v74.997H13.383c-4.269 0-6.563-2.164-4.115-4.613" fill="#db7816"/><path d="m154.559 154.821 37.5-37.499v37.499zm0-37.499 37.5-37.498v37.498zM267.144 79.83l37.498-37.498V79.83zm0-37.498 37.498-37.499v37.499zM229.556 79.83l37.499-37.498V79.83zm0-37.498 37.499-37.499v37.499zM117.262 79.824l37.499-37.498v37.498zm0-37.498 37.499-37.499v37.499zM79.675 79.824l37.498-37.498v37.498zm0-37.498 37.498-37.499v37.499z" fill="#db7816"/><path d="m42.305 79.83 37.498-37.498V79.83zm0-37.498L79.803 4.833v37.499zM4.717 79.83l37.499-37.498V79.83zm0-37.498L42.216 4.833v37.499z" fill="#db7816"/><path d="M90.351 118.171c0-6.399 5.916-12.995 13.12-12.995h272.61c8.613 0 13.568 4.643 13.568 12.246v125.705c0 6.04-4.86 11.697-13.32 11.697H103.72c-7.328 0-13.369-4.523-13.369-11.947z" fill="none" stroke="url(#a)" stroke-width="10" transform="translate(-85.351 -100.176)"/><g stroke-linecap="square" stroke-linejoin="round"><path d="M172.806 119.58q-.012-.143 1.205-.362 1.216-.22 2.002-.279 3.122-.236 3.326.567l3.353 12.2 1.346-12.555q.109-.826 3.428-1.077a23 23 0 0 1 2.06-.04q1.25.018 1.26.154l-3.572 19.008q-.081.46-1.616.713-2.377.434-4.345.428-1.962-.007-2.108-.394zm21.035 7.575q-.893-1.348-.96-2.232-.066-.886.393-1.174 1.545-.825 4.343-1.036 2.803-.212 4.056 1.01 1.254 1.22 1.447 3.781l.335 4.447.957-.073q.478-.036.79.51.312.54.386 1.524a4.2 4.2 0 0 1-.348 1.977q-.423.994-1.263 1.058-1.523.114-2.513-.629a2.3 2.3 0 0 1-.705-.77q-1.173 1.73-3.905 1.937-2.05.154-3.568-1.201-1.517-1.356-1.668-3.356-.346-4.584 5.139-4.998l1.55-.117-.022-.286q-.055-.732-.313-.922-.252-.19-1.126-.125-1.071.082-3.005.675zm2.644 5.012q.047.616.407.915t.881.26q.523-.04.914-.495l-.164-2.166-.791.06q-1.346.102-1.247 1.426zm17.064 3.747q.016.198-2.546.391-2.565.133-2.578-.032l-.706-9.343-.758.058q-.45.033-.762-.496-.31-.53-.372-1.342-.229-3.04 1.573-3.176 1.264-.095 2.17.616.903.705.979 1.695a4.9 4.9 0 0 1 1.449-1.962q.948-.768 1.986-.846 1.633-.124 2.037.692.099.219.133.659.033.434-.152 1.58-.178 1.147-.426 1.675-.241.526-.297.53t-.538-.169q-.478-.18-.846-.152-1.066.08-.939 1.768zm10.116-.908q.017.225-2.56.42-2.573.195-2.588-.003l-1.043-13.817q-.014-.192 2.557-.387 2.578-.195 2.59-.03zm-1.169-15.476q.015.197-2.563.392-2.571.195-2.585.024l-.306-4.05q-.02-.281 2.551-.475 2.578-.195 2.59-.024zm4.718 5.104q-.892-1.347-.96-2.232-.066-.885.393-1.174 1.546-.825 4.344-1.036 2.802-.21 4.055 1.01 1.254 1.22 1.447 3.782l.336 4.446.956-.072q.478-.037.79.51.312.54.386 1.523a4.2 4.2 0 0 1-.348 1.978q-.423.993-1.263 1.057-1.523.114-2.513-.628a2.3 2.3 0 0 1-.705-.77q-1.173 1.73-3.905 1.936-2.05.155-3.567-1.201t-1.669-3.356q-.346-4.584 5.139-4.998l1.55-.117-.022-.286q-.055-.73-.313-.921-.252-.192-1.126-.125-1.071.08-3.005.674zm2.644 5.013q.047.615.407.914t.882.26.913-.495l-.164-2.165-.791.06q-1.346.101-1.247 1.426zm9.562-15.386q-.026-.336 2.409-.52t2.462.18l.413 5.462q1.191-.316 1.697-.355 5.91-.445 6.42 6.336.285 3.771-1.374 5.946-1.66 2.176-4.996 2.428t-5.641-1.071zm6.527 9.218q-.478.036-.905.378l.406 5.375q.402.135.836.103.44-.034.865-.403c.496-.413 5.678-1.682 5.574-3.052-.145-1.93-5.728-2.48-6.776-2.4zm14.549 8.69q.02.253-2.85.47-2.256.142-2.27-.056l-1.448-19.164q-.03-.417 2.7-.624 2.397-.098 2.412.1zm13.131-1.528q-1.696 1.173-4.483 1.383t-4.842-1.54q-2.056-1.758-2.31-5.122-.255-3.363 1.432-5.552 1.692-2.195 4.505-2.408 2.814-.212 4.456 1.106 1.641 1.32 1.797 3.375.344 4.555-4.888 4.95l-1.946.148q.064.846.55 1.136.492.288 1.393.22a8.16 8.16 0 0 0 3.675-1.184q.026-.03.282.372.768 1.163.83 1.993.063.83-.45 1.123zm-4.131-7.868q-.09-1.182-1.244-1.095a1.38 1.38 0 0 0-.893.394q-.356.353-.308.968l.066.874 1.522-.115q.93-.07.857-1.026zm7.435 3.285q2.385 1.207 3.704 1.108.846-.064.802-.652-.031-.423-1.545-.99-3.626-1.168-3.872-4.432-.158-2.084 1.277-3.292 1.44-1.214 3.56-1.374 2.127-.161 3.634.179 1.513.338 1.568 1.07.045.615-.481 1.678-.528 1.057-.748 1.156a5.3 5.3 0 0 0-2.666-.473q-.758.057-.719.59.026.336.335.555.315.215 1.127.507.819.291 1.357.539.543.24 1.23.697 1.433.965 1.562 2.684.17 2.248-1.22 3.757-1.384 1.503-4.396 1.73-1.995.151-3.678-.401-1.683-.553-1.773-1.735-.06-.786.255-1.683.313-.902.687-1.218z" fill="none" stroke-opacity=".502" stroke="#000" stroke-width="6"/><path d="M172.806 119.58q-.012-.143 1.205-.362 1.215-.22 2.002-.279 3.122-.236 3.326.567l3.353 12.2 1.346-12.555q.109-.826 3.428-1.077a23 23 0 0 1 2.06-.04q1.25.018 1.26.154l-3.572 19.008q-.081.46-1.616.713-2.377.434-4.345.428-1.962-.007-2.108-.394zm21.035 7.575q-.893-1.348-.96-2.232-.066-.886.393-1.174 1.545-.825 4.343-1.036 2.803-.212 4.056 1.01 1.254 1.22 1.447 3.781l.335 4.447.957-.073q.478-.036.79.51.312.54.386 1.524a4.2 4.2 0 0 1-.348 1.977q-.423.994-1.263 1.058-1.523.114-2.513-.629a2.3 2.3 0 0 1-.705-.77q-1.173 1.73-3.905 1.937-2.05.154-3.568-1.201-1.517-1.356-1.668-3.356-.346-4.584 5.139-4.998l1.55-.117-.022-.286q-.055-.732-.313-.922-.252-.19-1.126-.125-1.071.082-3.005.675m2.644 5.012q.047.616.407.915t.881.26q.523-.04.914-.495l-.164-2.166-.791.06q-1.346.102-1.247 1.426m17.064 3.747q.016.198-2.546.391-2.565.133-2.578-.032l-.706-9.343-.758.058q-.45.033-.762-.496-.31-.53-.372-1.342-.229-3.04 1.573-3.176 1.264-.095 2.17.616.903.705.979 1.695a4.9 4.9 0 0 1 1.449-1.962q.948-.768 1.986-.846 1.633-.124 2.037.692.099.219.133.659.033.434-.152 1.58-.178 1.147-.426 1.675-.241.526-.297.53t-.538-.169q-.478-.18-.846-.152-1.066.08-.939 1.768zm10.116-.908q.017.225-2.56.42-2.573.195-2.588-.003l-1.043-13.817q-.014-.192 2.557-.387 2.578-.195 2.59-.03zm-1.169-15.476q.015.197-2.563.392-2.571.195-2.585.024l-.306-4.05q-.02-.281 2.551-.475 2.578-.195 2.59-.024zm4.718 5.104q-.892-1.347-.96-2.232-.066-.885.393-1.174 1.546-.825 4.344-1.036 2.802-.21 4.055 1.01 1.254 1.22 1.447 3.782l.336 4.446.956-.072q.478-.037.79.51.312.54.386 1.523a4.2 4.2 0 0 1-.348 1.978q-.423.993-1.263 1.057-1.523.114-2.513-.628a2.3 2.3 0 0 1-.705-.77q-1.173 1.73-3.905 1.936-2.05.155-3.567-1.201t-1.669-3.356q-.346-4.584 5.139-4.998l1.55-.117-.022-.286q-.055-.73-.313-.921-.252-.192-1.126-.125-1.071.08-3.005.674m2.644 5.013q.047.615.407.914t.882.26.913-.495l-.164-2.165-.791.06q-1.346.101-1.247 1.426m9.562-15.386q-.026-.336 2.409-.52t2.462.18l.413 5.462q1.191-.316 1.697-.355 5.91-.445 6.42 6.336.285 3.771-1.374 5.946-1.66 2.176-4.996 2.428t-5.641-1.071zm6.527 9.218q-.478.036-.905.378l.406 5.375q.402.135.836.103.44-.034.865-.403.744-.62.589-2.675-.22-2.897-1.79-2.778m14.549 8.69q.02.253-2.85.47-2.256.142-2.27-.056l-1.448-19.164q-.03-.417 2.7-.624 2.397-.098 2.412.1zm13.131-1.528q-1.696 1.173-4.483 1.383t-4.842-1.54q-2.056-1.758-2.31-5.122-.255-3.363 1.432-5.552 1.692-2.195 4.505-2.408 2.814-.212 4.456 1.106 1.641 1.32 1.797 3.375.344 4.555-4.888 4.95l-1.946.148q.064.846.55 1.136.492.288 1.393.22a8.16 8.16 0 0 0 3.675-1.184q.026-.03.282.372.768 1.163.83 1.993.063.83-.45 1.123m-4.131-7.868q-.09-1.182-1.244-1.095a1.38 1.38 0 0 0-.893.394q-.356.353-.308.968l.066.874 1.522-.115q.93-.07.857-1.026m7.435 3.285q2.385 1.207 3.704 1.108.846-.064.802-.652-.031-.423-1.545-.99-3.626-1.168-3.872-4.432-.158-2.084 1.277-3.292 1.44-1.214 3.56-1.374 2.127-.161 3.634.179 1.513.338 1.568 1.07.045.615-.481 1.678-.528 1.057-.748 1.156a5.3 5.3 0 0 0-2.666-.473q-.758.057-.719.59.026.336.335.555.315.215 1.127.507.819.291 1.357.539.543.24 1.23.697 1.433.965 1.562 2.684.17 2.248-1.22 3.757-1.384 1.503-4.396 1.73-1.995.151-3.678-.401-1.683-.553-1.773-1.735-.06-.786.255-1.683.313-.902.687-1.218" fill="#fff"/></g><g stroke-linecap="square" stroke-linejoin="round"><path d="M35.29 53.239q.052.712-3.493.976-3.546.263-3.6-.45l-1.33-17.976-4.295.318q-.61.046-.983-1.586a12 12 0 0 1-.224-1.601q-.061-.826-.014-1.617.129-1.67.738-1.714l15.576-1.154q.608-.045.982 1.587.164.775.224 1.6.062.826.015 1.617-.13 1.67-.738 1.714l-4.19.31zm19.275-1.822q-2.16 1.49-5.707 1.752t-6.159-1.97q-2.613-2.24-2.93-6.52t1.832-7.063q2.157-2.79 5.738-3.055 3.58-.265 5.667 1.415t2.28 4.297q.43 5.799-6.228 6.292l-2.476.183q.08 1.077.698 1.446.625.369 1.772.284a10.4 10.4 0 0 0 4.678-1.5q.032-.037.359.473.974 1.482 1.053 2.538t-.577 1.428zm-5.243-10.02q-.111-1.503-1.58-1.395-.68.05-1.138.5-.451.447-.394 1.231l.083 1.112 1.937-.143q1.182-.088 1.092-1.305zm25.39 9.315q.02.252-3.044.479t-3.087-.095l-.772-10.422q-.133-1.79-1.315-1.702-.61.045-1.55.909l.849 11.457q.026.356-3.037.583-3.065.228-3.093-.164l-.867-11.709-.896.067q-1.182.087-1.365-2.382a6.4 6.4 0 0 1 .267-2.291q.457-1.617 1.743-1.712t2.534.495q1.253.59 1.55 1.179 2.078-2.13 4.778-2.33 2.707-.201 4.475 1.356 1.813-1.823 4.534-2.024 5.91-.437 6.443 6.76l.806 10.882q.02.252-3.045.48-3.062.226-3.087-.096l-.772-10.42q-.132-1.792-1.315-1.704-.643.048-1.585.912zm20.19 5.241q.018.252-3.045.479-3.057.225-3.075-.025l-1.367-18.444-1.217.09q-.86.064-1.298-1.486-.15-.495-.208-1.279-.059-.79.366-1.904.596-1.627 2.177-1.744a3.9 3.9 0 0 1 1.945.341q.918.417 1.284.805.373.387.378.457 2.262-2.037 5.052-2.245 2.797-.207 4.959 1.813 2.167 2.013 2.503 6.545t-1.487 7.17q-1.816 2.632-4.894 2.86-1.4.103-2.556.049zm.1-18.587q-.609.045-1.154.479l.47 6.337q.615.03.992.004.378-.03.587-.044 1.458-.255 1.19-3.872-.225-3.042-2.086-2.904zm12.994 8.939q-2.421-2.303-2.745-6.675t1.731-7.006 5.853-2.916 6.198 2.023 2.724 6.676q.324 4.373-1.71 7.005-2.034 2.633-5.832 2.915-3.798.28-6.219-2.022zm5.297-10.618c-1.348.1-9.205 1.089-9.042 3.285.162 2.196 8.182 3.403 9.53 3.304q2.028-.15 1.784-3.445t-2.272-3.144zm19.515 10.868q.02.252-3.24.493-3.265.165-3.28-.045l-.882-11.89-.965.071q-.573.043-.968-.631-.395-.675-.471-1.71-.286-3.867 2.007-4.037 1.609-.12 2.76.787 1.149.9 1.242 2.159.639-1.526 1.848-2.493 1.207-.975 2.53-1.074 2.076-.153 2.59.884.126.28.167.839.04.552-.195 2.012-.23 1.458-.546 2.129-.309.669-.379.675-.07.005-.684-.217-.608-.229-1.076-.194-1.357.1-1.198 2.247zm7.632-13.604q-1.132-1.717-1.216-2.842t.501-1.493q1.97-1.046 5.53-1.31 3.566-.264 5.158 1.292 1.593 1.555 1.834 4.815l.419 5.658 1.217-.09q.608-.045 1.005.65.395.687.488 1.94t-.447 2.515q-.54 1.264-1.609 1.343-1.938.144-3.196-.804a3 3 0 0 1-.896-.981q-1.496 2.199-4.973 2.457-2.608.193-4.537-1.535-1.927-1.728-2.117-4.273-.432-5.834 6.548-6.35l1.973-.147-.027-.364q-.069-.93-.397-1.173-.32-.244-1.432-.16-1.365.1-3.826.852zm3.356 6.383q.058.784.516 1.165.456.38 1.121.331t1.163-.627l-.204-2.756-1.007.075q-1.713.127-1.589 1.812zm21.707 4.799q.019.252-3.24.493-3.265.165-3.281-.045l-.881-11.89-.965.071q-.574.042-.968-.631-.394-.675-.472-1.71-.285-3.867 2.008-4.037 1.608-.12 2.759.787 1.149.9 1.243 2.158.64-1.524 1.847-2.493 1.209-.975 2.53-1.073 2.077-.154 2.59.884.126.279.168.838.04.554-.196 2.012-.23 1.459-.545 2.13-.31.668-.38.674t-.683-.216q-.607-.23-1.077-.195-1.357.101-1.197 2.248zm3.771-18.065q-.03-.4 3.244-.641 3.28-.243 3.418.105l3.2 8.265 1.838-8.708q.126-.299 2.203-.452 4.763-.353 4.58.132l-6.638 24.578q-.02.22-1.936.362-1.916.141-3.576.138-1.653-.004-1.597-.191l2.563-7.75z" fill="none" stroke-opacity=".502" stroke="#000" stroke-width="6.5"/><path d="M35.29 53.239q.052.712-3.493.976-3.546.263-3.6-.45l-1.33-17.976-4.295.318q-.61.046-.983-1.586a12 12 0 0 1-.224-1.601q-.061-.826-.014-1.617.129-1.67.738-1.714l15.576-1.154q.608-.045.982 1.587.164.775.224 1.6.062.826.015 1.617-.13 1.67-.738 1.714l-4.19.31zm19.275-1.822q-2.16 1.49-5.707 1.752t-6.159-1.97q-2.613-2.24-2.93-6.52t1.832-7.063q2.157-2.79 5.738-3.055 3.58-.265 5.667 1.415t2.28 4.297q.43 5.799-6.228 6.292l-2.476.183q.08 1.077.698 1.446.625.369 1.772.284a10.4 10.4 0 0 0 4.678-1.5q.032-.037.359.473.974 1.482 1.053 2.538t-.577 1.428m-5.243-10.02q-.111-1.503-1.58-1.395-.68.05-1.138.5-.451.447-.394 1.231l.083 1.112 1.937-.143q1.182-.088 1.092-1.305m25.39 9.315q.02.252-3.044.479t-3.087-.095l-.772-10.422q-.133-1.79-1.315-1.702-.61.045-1.55.909l.849 11.457q.026.356-3.037.583-3.065.228-3.093-.164l-.867-11.709-.896.067q-1.182.087-1.365-2.382a6.4 6.4 0 0 1 .267-2.291q.457-1.617 1.743-1.712t2.534.495q1.253.59 1.55 1.179 2.078-2.13 4.778-2.33 2.707-.201 4.475 1.356 1.813-1.823 4.534-2.024 5.91-.437 6.443 6.76l.806 10.882q.02.252-3.045.48-3.062.226-3.087-.096l-.772-10.42q-.132-1.792-1.315-1.704-.643.048-1.585.912zm20.19 5.241q.018.252-3.045.479-3.057.225-3.075-.025l-1.367-18.444-1.217.09q-.86.064-1.298-1.486-.15-.495-.208-1.279-.059-.79.366-1.904.596-1.627 2.177-1.744a3.9 3.9 0 0 1 1.945.341q.918.417 1.284.805.373.387.378.457 2.262-2.037 5.052-2.245 2.797-.207 4.959 1.813 2.167 2.013 2.503 6.545t-1.487 7.17q-1.816 2.632-4.894 2.86-1.4.103-2.556.049zm.1-18.587q-.609.045-1.154.479l.47 6.337q.615.03.992.004.378-.03.587-.044 1.458-.255 1.19-3.872-.225-3.042-2.086-2.904m12.994 8.939q-2.421-2.303-2.745-6.675t1.731-7.006 5.853-2.916 6.198 2.023 2.724 6.676q.324 4.373-1.71 7.005-2.034 2.633-5.832 2.915-3.798.28-6.219-2.022m5.297-10.618q-2.022.15-1.778 3.444t2.266 3.145q2.028-.15 1.784-3.445t-2.272-3.144m19.515 10.868q.02.252-3.24.493-3.265.165-3.28-.045l-.882-11.89-.965.071q-.573.043-.968-.631-.395-.675-.471-1.71-.286-3.867 2.007-4.037 1.609-.12 2.76.787 1.149.9 1.242 2.159.639-1.526 1.848-2.493 1.207-.975 2.53-1.074 2.076-.153 2.59.884.126.28.167.839.04.552-.195 2.012-.23 1.458-.546 2.129-.309.669-.379.675-.07.005-.684-.217-.608-.229-1.076-.194-1.357.1-1.198 2.247zm7.632-13.604q-1.132-1.717-1.216-2.842t.501-1.493q1.97-1.046 5.53-1.31 3.566-.264 5.158 1.292 1.593 1.555 1.834 4.815l.419 5.658 1.217-.09q.608-.045 1.005.65.395.687.488 1.94t-.447 2.515q-.54 1.264-1.609 1.343-1.938.144-3.196-.804a3 3 0 0 1-.896-.981q-1.496 2.199-4.973 2.457-2.608.193-4.537-1.535-1.927-1.728-2.117-4.273-.432-5.834 6.548-6.35l1.973-.147-.027-.364q-.069-.93-.397-1.173-.32-.244-1.432-.16-1.365.1-3.826.852m3.356 6.383q.058.784.516 1.165.456.38 1.121.331t1.163-.627l-.204-2.756-1.007.075q-1.713.127-1.589 1.812m21.707 4.799q.019.252-3.24.493-3.265.165-3.281-.045l-.881-11.89-.965.071q-.574.042-.968-.631-.394-.675-.472-1.71-.285-3.867 2.008-4.037 1.608-.12 2.759.787 1.149.9 1.243 2.158.64-1.524 1.847-2.493 1.209-.975 2.53-1.073 2.077-.154 2.59.884.126.279.168.838.04.554-.196 2.012-.23 1.459-.545 2.13-.31.668-.38.674t-.683-.216q-.607-.23-1.077-.195-1.357.101-1.197 2.248zm3.771-18.065q-.03-.4 3.244-.641 3.28-.243 3.418.105l3.2 8.265 1.838-8.708q.126-.299 2.203-.452 4.763-.353 4.58.132l-6.638 24.578q-.02.22-1.936.362-1.916.141-3.576.138-1.653-.004-1.597-.191l2.563-7.75z" fill="#fff"/></g><g fill="#fff"><path d="M193.495 73.621c-2.877-.617-6.23-1.046-9.595-.554-3.765.55-7.608 2.266-10.923 6.192-.214.254-.665.368-1.071.27s-.653-.378-.586-.668c.185-1.54.646-2.913 1.324-4.129 1.858-3.34 5.334-5.494 9.267-6.763 3.895-1.256 8.24-1.637 11.89-1.438 1.399.076 2.703.237 3.847.468l1.288-3.82c.083-.25.386-.436.757-.468.372-.032.733.098.904.325l8.111 10.741c.226.299.053.666-.385.82l-.134.04-17.22 3.797c-.357.078-.748-.003-.979-.204s-.254-.48-.058-.697z" stroke-opacity=".502" stroke="#000" stroke-width="7"/><path d="M193.494 73.621c-2.876-.617-6.23-1.046-9.594-.554-3.765.55-7.608 2.266-10.923 6.192-.214.254-.665.368-1.071.27s-.653-.378-.586-.668c.185-1.54.646-2.913 1.324-4.129 1.858-3.34 5.334-5.494 9.267-6.763 3.895-1.256 8.24-1.637 11.89-1.438 1.399.076 2.703.237 3.847.468l1.288-3.82c.083-.249.386-.436.758-.468.371-.032.732.098.903.326l8.111 10.74c.226.299.053.666-.385.82l-.134.04-17.22 3.797c-.357.078-.748-.003-.979-.204s-.254-.48-.058-.697z"/></g><g fill="#fff" stroke-linejoin="round"><path d="m233.854 49.988 35.188 5.356a2.225 2.225 0 0 1 1.82 2.751l-8.209 32.051a5.19 5.19 0 0 1-5.809 3.844l-22.843-3.477a5.19 5.19 0 0 1-4.402-5.398l1.7-33.042a2.225 2.225 0 0 1 2.555-2.085zm15.888 28.67 2.231-14.661a2.225 2.225 0 1 0-4.398-.67l-2.232 14.661a2.225 2.225 0 1 0 4.399.67zm7.33 1.116 2.232-14.661a2.225 2.225 0 1 0-4.398-.67l-2.232 14.661a2.225 2.225 0 1 0 4.398.67zm-14.661-2.232 2.231-14.66a2.225 2.225 0 1 0-4.398-.67l-2.231 14.66a2.225 2.225 0 1 0 4.398.67zm-10.357-25.578 38.119 5.802zm.446-2.932 38.12 5.802a2.966 2.966 0 0 1-.894 5.864l-38.119-5.802a2.966 2.966 0 1 1 .893-5.864zm22.613 4.192.558-3.665a.74.74 0 0 0-.621-.845l-5.865-.893a.74.74 0 0 0-.845.622l-.558 3.665zm-5.259-9.801 5.865.892a5.19 5.19 0 0 1 4.35 5.913l-1.227 8.064-16.127-2.455 1.227-8.064a5.19 5.19 0 0 1 5.912-4.35z" stroke-opacity=".502" stroke="#000" stroke-width="7.5"/><path d="m233.854 49.988 35.188 5.356a2.225 2.225 0 0 1 1.82 2.751l-8.209 32.051a5.19 5.19 0 0 1-5.809 3.844l-22.843-3.477a5.19 5.19 0 0 1-4.402-5.398l1.7-33.042a2.225 2.225 0 0 1 2.555-2.085m15.888 28.67 2.231-14.661a2.225 2.225 0 1 0-4.398-.67l-2.232 14.661a2.225 2.225 0 1 0 4.399.67m7.33 1.116 2.232-14.661a2.225 2.225 0 1 0-4.398-.67l-2.232 14.661a2.225 2.225 0 1 0 4.398.67m-14.661-2.232 2.231-14.66a2.225 2.225 0 1 0-4.398-.67l-2.231 14.66a2.225 2.225 0 1 0 4.398.67m-10.357-25.578 38.119 5.802zm.446-2.932 38.12 5.802a2.966 2.966 0 0 1-.894 5.864l-38.119-5.802a2.966 2.966 0 1 1 .893-5.864m22.613 4.192.558-3.665a.74.74 0 0 0-.621-.845l-5.865-.893a.74.74 0 0 0-.845.622l-.558 3.665zm-5.259-9.801 5.865.892a5.19 5.19 0 0 1 4.35 5.913l-1.227 8.063-16.127-2.455 1.227-8.063a5.19 5.19 0 0 1 5.912-4.35"/></g><path d="m64.531 79.936 70.89 5.007c11.947.857 20.938 11.237 20.081 23.185s-11.237 20.938-23.185 20.081l-70.89-5.006c-11.947-.857-20.938-11.237-20.081-23.185s11.237-20.939 23.185-20.082z" fill="#ff791a" stroke-opacity=".502" stroke="#000" stroke-width="9"/><path d="m64.531 79.936 70.89 5.007c11.947.857 20.938 11.237 20.081 23.185s-11.237 20.938-23.185 20.081l-70.89-5.006c-11.947-.857-20.938-11.237-20.081-23.185s11.237-20.939 23.185-20.082z" fill="#ff791a" stroke="#cc6115" stroke-width="2.5"/><path d="m85.396 108.862-2.534-9.297 1.627.117 1.895 7.529 3.089-7.172 1.627.117-4.13 8.82zm14.243 1.265c-.493.087-.686.108-.998.085-.934-.067-1.356-.497-1.393-1.44-1.088.862-2.033 1.195-3.176 1.113-1.834-.132-2.902-1.252-2.784-2.897.085-1.176.678-1.934 1.766-2.308.57-.186.886-.233 2.947-.346 1.188-.07 1.516-.273 1.578-.895l.027-.381c.062-.865-.613-1.4-1.928-1.495-1.35-.097-2.043.358-2.244 1.457l-1.454-.105c.1-.897.31-1.404.759-1.841.67-.63 1.754-.936 3.087-.84 2.232.16 3.347 1.11 3.231 2.72l-.382 5.33c-.032.45.226.729.728.765.087.006.156.011.314-.012zm-2.188-4.906c-.5.19-.8.239-2.355.336-1.574.113-2.231.553-2.3 1.505-.066.917.554 1.501 1.678 1.582.849.06 1.578-.166 2.205-.66.461-.367.62-.652.656-1.136zm5.746-4.198-.118 1.645c.928-1.29 1.677-1.794 2.611-1.727.174.013.31.04.55.092l-.105 1.471c-1.986-.195-2.956.71-3.13 2.89l-.337 4.707-1.454-.104.65-9.07zm5.199 9.489-1.436-.103.65-9.069 1.436.103zm.774-10.8-1.453-.104.13-1.817 1.454.104zm9.713 11.795c-.493.087-.686.108-.997.085-.934-.067-1.356-.497-1.393-1.439-1.088.861-2.033 1.194-3.176 1.112-1.834-.132-2.902-1.252-2.784-2.896.084-1.177.678-1.935 1.766-2.31.57-.184.886-.231 2.947-.345 1.188-.07 1.515-.273 1.578-.895l.027-.38c.062-.866-.613-1.402-1.928-1.496-1.35-.097-2.044.358-2.244 1.457l-1.454-.104c.1-.898.31-1.405.758-1.842.672-.63 1.755-.935 3.087-.84 2.233.16 3.348 1.11 3.232 2.72l-.382 5.33c-.032.45.226.73.728.765.086.006.156.011.314-.012zm-2.187-4.906c-.5.19-.8.24-2.355.336-1.574.113-2.232.553-2.3 1.505-.066.917.553 1.501 1.678 1.582.848.06 1.578-.165 2.205-.66.46-.367.62-.651.655-1.136zm5.844-7.756-.342 4.776c.748-.973 1.664-1.376 2.91-1.287 2.405.172 3.746 2.095 3.535 5.037-.216 3.012-1.913 4.856-4.302 4.684-1.263-.09-2.144-.658-2.761-1.763l-.083 1.16-1.298-.094.905-12.616zm2.194 4.819c-1.54-.11-2.626 1.204-2.778 3.332s.734 3.584 2.274 3.695c1.575.112 2.749-1.213 2.897-3.272.155-2.163-.783-3.64-2.393-3.755m6.783 8.506-1.453-.105.904-12.616 1.454.105zm3.7-3.805c-.047.9.037 1.429.346 1.973.43.796 1.178 1.267 2.096 1.333 1.16.083 2.018-.482 2.501-1.647l1.454.104c-.505 1.947-2.026 3.02-4.102 2.872-2.562-.184-3.99-2.113-3.775-5.107s1.98-4.798 4.506-4.617c1.697.122 3.017 1.121 3.498 2.651.211.694.256 1.532.157 2.916zm5.207-.81c.117-1.626-.822-2.842-2.293-2.948-1.454-.104-2.553.913-2.795 2.583zm-86.163-5.528a10.43 10.43 0 0 1 5.535-8.514l.068-.998a2.555 2.555 0 0 1 2.725-2.374l5.886.406a2.555 2.555 0 0 1 2.374 2.725l-.069.998a10.441 10.441 0 1 1-16.518 7.757zm13.091-3.21c.329.023.525-.383.31-.64l-2.31-2.788a.37.37 0 0 0-.525-.036l-2.662 2.445c-.249.225-.116.656.22.679l1.176.08.242 3.863a1.29 1.29 0 0 0 .67 2.368l1.906 2.877-.89.774c-.252.221-.1.644.235.675l3.599.34a.37.37 0 0 0 .396-.345l.16-3.615c.016-.336-.387-.541-.635-.324l-.91.792-2.55-2.25a1.29 1.29 0 0 0-.41-1.174l.774-3.802z" fill="#fff"/></g></svg>
