<svg version="1.1" xmlns="http://www.w3.org/2000/svg" xmlns:xlink="http://www.w3.org/1999/xlink" width="309.2973" height="159.64866" viewBox="0,0,309.2973,159.64866"><defs><linearGradient x1="240" y1="108.17638" x2="240" y2="251.82368" gradientUnits="userSpaceOnUse" id="color-1"><stop offset="0" stop-color="#000000" stop-opacity="0"/><stop offset="1" stop-color="#000000" stop-opacity="0"/></linearGradient><linearGradient x1="240" y1="105.1759" x2="240" y2="254.82452" gradientUnits="userSpaceOnUse" id="color-2"><stop offset="0" stop-color="#054231"/><stop offset="1" stop-color="#08674c"/></linearGradient></defs><g transform="translate(-85.35135,-100.17585)"><g stroke-linejoin="miter" stroke-miterlimit="10" stroke-dasharray="" stroke-dashoffset="0" style="mix-blend-mode: normal"><path d="M92.56513,251.82368v-143.6473h294.86973v143.6473z" fill="#0fbd8c" fill-rule="nonzero" stroke="url(#color-1)" stroke-width="0" stroke-linecap="butt"/><path d="M127.80539,143.40594c-7.86065,0 -14.23296,-6.37231 -14.23296,-14.23296v0c0,-7.86065 6.37232,-14.23296 14.23296,-14.23296h29.88921c7.86065,0 14.23296,6.37231 14.23296,14.23296v0c0,7.86065 -6.37231,14.23296 -14.23296,14.23296z" fill="#11d9a1" fill-rule="nonzero" stroke="none" stroke-width="0" stroke-linecap="butt"/><path d="M191.61649,143.40594c-7.99166,0 -14.47018,-6.37231 -14.47018,-14.23296v0c0,-7.86065 6.47852,-14.23296 14.47018,-14.23296v0c7.99166,0 14.47018,6.37231 14.47018,14.23296v0c0,7.86065 -6.47852,14.23296 -14.47018,14.23296z" fill="#11d9a1" fill-rule="nonzero" stroke="none" stroke-width="0" stroke-linecap="butt"/><path d="M225.53838,143.40594c-7.86065,0 -14.23296,-6.37231 -14.23296,-14.23296v0c0,-7.86065 6.37231,-14.23296 14.23296,-14.23296h29.88922c7.86064,0 14.23296,6.37231 14.23296,14.23296v0c0,7.86065 -6.37232,14.23296 -14.23296,14.23296z" fill="#11d9a1" fill-rule="nonzero" stroke="none" stroke-width="0" stroke-linecap="butt"/><path d="M289.34948,143.40594c-7.99166,0 -14.47017,-6.37231 -14.47017,-14.23296v0c0,-7.86065 6.47851,-14.23296 14.47017,-14.23296v0c7.99166,0 14.47019,6.37231 14.47019,14.23296v0c0,7.86065 -6.47852,14.23296 -14.47019,14.23296z" fill="#11d9a1" fill-rule="nonzero" stroke="none" stroke-width="0" stroke-linecap="butt"/><path d="M322.79694,143.40594c-7.86064,0 -14.23297,-6.37231 -14.23297,-14.23296v0c0,-7.86065 6.37232,-14.23296 14.23297,-14.23296h29.88921c7.86064,0 14.23296,6.37231 14.23296,14.23296v0c0,7.86065 -6.37232,14.23296 -14.23296,14.23296z" fill="#11d9a1" fill-rule="nonzero" stroke="none" stroke-width="0" stroke-linecap="butt"/><path d="M176.80539,176.56003c-7.86065,0 -14.23296,-6.37232 -14.23296,-14.23296v0c0,-7.86065 6.37231,-14.23296 14.23296,-14.23296h29.88922c7.86065,0 14.23296,6.37231 14.23296,14.23296v0c0,7.86065 -6.37231,14.23296 -14.23296,14.23296z" fill="#11d9a1" fill-rule="nonzero" stroke="none" stroke-width="0" stroke-linecap="butt"/><path d="M240.61649,176.56003c-7.99166,0 -14.47018,-6.37232 -14.47018,-14.23296v0c0,-7.86065 6.47852,-14.23296 14.47018,-14.23296v0c7.99166,0 14.47018,6.37231 14.47018,14.23296v0c0,7.86065 -6.47852,14.23296 -14.47018,14.23296z" fill="#11d9a1" fill-rule="nonzero" stroke="none" stroke-width="0" stroke-linecap="butt"/><path d="M274.53838,176.56003c-7.86064,0 -14.23297,-6.37232 -14.23297,-14.23296v0c0,-7.86065 6.37232,-14.23296 14.23297,-14.23296h29.88921c7.86064,0 14.23296,6.37231 14.23296,14.23296v0c0,7.86065 -6.37232,14.23296 -14.23296,14.23296z" fill="#11d9a1" fill-rule="nonzero" stroke="none" stroke-width="0" stroke-linecap="butt"/><path d="M338.34948,176.56003c-7.99166,0 -14.47018,-6.37232 -14.47018,-14.23296v0c0,-7.86065 6.47852,-14.23296 14.47018,-14.23296v0c7.99166,0 14.47018,6.37231 14.47018,14.23296v0c0,7.86065 -6.47852,14.23296 -14.47018,14.23296z" fill="#11d9a1" fill-rule="nonzero" stroke="none" stroke-width="0" stroke-linecap="butt"/><path d="M127.80539,211.91587c-7.86065,0 -14.23296,-6.37232 -14.23296,-14.23296v0c0,-7.86065 6.37232,-14.23296 14.23296,-14.23296h29.88921c7.86065,0 14.23296,6.37231 14.23296,14.23296v0c0,7.86065 -6.37231,14.23296 -14.23296,14.23296z" fill="#11d9a1" fill-rule="nonzero" stroke="none" stroke-width="0" stroke-linecap="butt"/><path d="M191.61649,211.91587c-7.99166,0 -14.47018,-6.37232 -14.47018,-14.23296v0c0,-7.86065 6.47852,-14.23296 14.47018,-14.23296v0c7.99166,0 14.47018,6.37231 14.47018,14.23296v0c0,7.86065 -6.47852,14.23296 -14.47018,14.23296z" fill="#11d9a1" fill-rule="nonzero" stroke="none" stroke-width="0" stroke-linecap="butt"/><path d="M225.53838,211.91587c-7.86065,0 -14.23296,-6.37232 -14.23296,-14.23296v0c0,-7.86065 6.37231,-14.23296 14.23296,-14.23296h29.88922c7.86064,0 14.23296,6.37231 14.23296,14.23296v0c0,7.86065 -6.37232,14.23296 -14.23296,14.23296z" fill="#11d9a1" fill-rule="nonzero" stroke="none" stroke-width="0" stroke-linecap="butt"/><path d="M289.34948,211.91587c-7.99166,0 -14.47017,-6.37232 -14.47017,-14.23296v0c0,-7.86065 6.47851,-14.23296 14.47017,-14.23296v0c7.99166,0 14.47019,6.37231 14.47019,14.23296v0c0,7.86065 -6.47852,14.23296 -14.47019,14.23296z" fill="#11d9a1" fill-rule="nonzero" stroke="none" stroke-width="0" stroke-linecap="butt"/><path d="M322.79694,211.91587c-7.86064,0 -14.23297,-6.37232 -14.23297,-14.23296v0c0,-7.86065 6.37232,-14.23296 14.23297,-14.23296h29.88921c7.86064,0 14.23296,6.37231 14.23296,14.23296v0c0,7.86065 -6.37232,14.23296 -14.23296,14.23296z" fill="#11d9a1" fill-rule="nonzero" stroke="none" stroke-width="0" stroke-linecap="butt"/><path d="M89.80001,148.09411c5.41411,0 18.3946,0 18.3946,0c7.86065,0 14.23296,6.37231 14.23296,14.23296v0c0,7.86065 -6.37231,14.23296 -14.23296,14.23296c0,0 -12.5243,0 -17.8946,0c-4.39674,0 -4.77985,-28.46592 -0.5,-28.46592z" fill="#11d9a1" fill-rule="nonzero" stroke="none" stroke-width="0" stroke-linecap="butt"/><path d="M142.11649,176.56003c-7.99166,0 -14.47017,-6.37232 -14.47017,-14.23296v0c0,-7.86065 6.47852,-14.23296 14.47017,-14.23296v0c7.99166,0 14.47018,6.37231 14.47018,14.23296v0c0,7.86065 -6.47852,14.23296 -14.47018,14.23296z" fill="#11d9a1" fill-rule="nonzero" stroke="none" stroke-width="0" stroke-linecap="butt"/><path d="M371.80539,176.56003c-7.86064,0 -14.23296,-6.37232 -14.23296,-14.23296v0c0,-7.86065 6.37232,-14.23296 14.23296,-14.23296c0,0 11.28231,0 16.49462,0c4.69703,0 5.48662,28.46592 1,28.46592c-5.33035,0 -17.49462,0 -17.49462,0z" fill="#11d9a1" fill-rule="nonzero" stroke="none" stroke-width="0" stroke-linecap="butt"/><path d="M176.80539,245.06003c-7.86065,0 -14.23296,-6.37232 -14.23296,-14.23296v0c0,-7.86065 6.37231,-14.23296 14.23296,-14.23296h29.88922c7.86065,0 14.23296,6.37231 14.23296,14.23296v0c0,7.86065 -6.37231,14.23296 -14.23296,14.23296z" fill="#11d9a1" fill-rule="nonzero" stroke="none" stroke-width="0" stroke-linecap="butt"/><path d="M240.61649,245.06003c-7.99166,0 -14.47018,-6.37232 -14.47018,-14.23296v0c0,-7.86065 6.47852,-14.23296 14.47018,-14.23296v0c7.99166,0 14.47018,6.37231 14.47018,14.23296v0c0,7.86065 -6.47852,14.23296 -14.47018,14.23296z" fill="#11d9a1" fill-rule="nonzero" stroke="none" stroke-width="0" stroke-linecap="butt"/><path d="M274.53838,245.06003c-7.86064,0 -14.23297,-6.37232 -14.23297,-14.23296v0c0,-7.86065 6.37232,-14.23296 14.23297,-14.23296h29.88921c7.86064,0 14.23296,6.37231 14.23296,14.23296v0c0,7.86065 -6.37232,14.23296 -14.23296,14.23296z" fill="#11d9a1" fill-rule="nonzero" stroke="none" stroke-width="0" stroke-linecap="butt"/><path d="M338.34948,245.06003c-7.99166,0 -14.47018,-6.37232 -14.47018,-14.23296v0c0,-7.86065 6.47852,-14.23296 14.47018,-14.23296v0c7.99166,0 14.47018,6.37231 14.47018,14.23296v0c0,7.86065 -6.47852,14.23296 -14.47018,14.23296z" fill="#11d9a1" fill-rule="nonzero" stroke="none" stroke-width="0" stroke-linecap="butt"/><path d="M91.30001,216.59411c5.26255,0 16.8946,0 16.8946,0c7.86065,0 14.23296,6.37231 14.23296,14.23296v0c0,7.86065 -6.37231,14.23296 -14.23296,14.23296c0,0 -11.63205,0 -16.8946,0c-4.61535,0 -4.61535,-28.46592 0,-28.46592z" fill="#11d9a1" fill-rule="nonzero" stroke="none" stroke-width="0" stroke-linecap="butt"/><path d="M142.11649,245.06003c-7.99166,0 -14.47017,-6.37232 -14.47017,-14.23296v0c0,-7.86065 6.47852,-14.23296 14.47017,-14.23296v0c7.99166,0 14.47018,6.37231 14.47018,14.23296v0c0,7.86065 -6.47852,14.23296 -14.47018,14.23296z" fill="#11d9a1" fill-rule="nonzero" stroke="none" stroke-width="0" stroke-linecap="butt"/><path d="M371.80539,245.06003c-7.86064,0 -14.23296,-6.37232 -14.23296,-14.23296v0c0,-7.86065 6.37232,-14.23296 14.23296,-14.23296c0,0 11.72012,0 16.99462,0c4.5944,0 4.98662,28.46592 0.5,28.46592c-5.33035,0 -17.49462,0 -17.49462,0z" fill="#11d9a1" fill-rule="nonzero" stroke="none" stroke-width="0" stroke-linecap="butt"/><path d="M90.35135,117.67152c0,-6.39897 5.91545,-12.49566 13.1192,-12.49566c28.93252,0 219.72832,0 272.60996,0c8.61359,0 13.56814,4.64378 13.56814,12.24625c0,30.59212 0,109.0924 0,125.70487c0,6.03964 -4.85913,11.69754 -13.31873,11.69754c-52.46667,0 -243.42599,0 -272.60996,0c-7.3279,0 -13.36861,-4.5235 -13.36861,-11.94695c0,-30.16113 0,-108.19342 0,-125.20604z" fill="none" fill-rule="nonzero" stroke="url(#color-2)" stroke-width="10" stroke-linecap="butt"/><path d="M122.40536,235.68167c0,0.5853 -1.44374,0.87795 -4.33119,0.87795c-2.88258,0 -4.32388,-0.29265 -4.32388,-0.87795v-21.93396h-5.24571c-0.49263,0 -0.84137,-0.67065 -1.04622,-2.01196c-0.08779,-0.63896 -0.13169,-1.29253 -0.13169,-1.96075c0,-0.67309 0.0439,-1.32911 0.1317,-1.96805c0.20485,-1.34131 0.55359,-2.01196 1.04622,-2.01196h19.00749c0.4975,0 0.84868,0.67065 1.05354,2.01196c0.08779,0.63895 0.13169,1.29496 0.13169,1.96805c0,0.66822 -0.04389,1.32179 -0.13168,1.96075c-0.20486,1.34131 -0.55604,2.01196 -1.05354,2.01196h-5.1067zM145.95901,235.20612c-1.83882,1.07793 -4.1995,1.61688 -7.08208,1.61688c-2.88258,0 -5.31644,-0.98281 -7.30156,-2.94843c-1.98026,-1.97049 -2.97037,-4.69456 -2.97037,-8.17219c0,-3.48251 -3.3634,-5.72398 -1.45631,-7.85055c1.91196,-2.12657 8.64082,-3.75295 11.55266,-3.75295c2.91185,0 5.16035,0.74381 6.74554,2.23144c1.59005,1.48275 2.38509,3.28742 2.38509,5.41399c0,4.72139 -2.70944,7.08208 -8.1283,7.08208h-3.01427c0,0.87306 0.23899,1.47788 0.71699,1.81442c0.48288,0.33167 1.19254,0.4975 2.12902,0.4975c2.03878,0 5.97002,-1.22181 6.20414,-0.78284c0.69747,1.25351 1.04621,2.30948 1.04621,3.16791c0,0.85843 -0.27558,1.41934 -0.82673,1.68273zM140.49381,222.57837c0,-1.22425 -0.59749,-1.83637 -1.79247,-1.83637c-0.55116,0 -1.02427,0.16827 -1.41934,0.50482c-0.39507,0.33167 -0.59261,0.81698 -0.59261,1.45593v1.36082h2.36313c0.96086,0 1.44129,-0.49506 1.44129,-1.48519zM163.78774,214.66224c0.11706,-0.22925 0.84381,-0.34386 2.18023,-0.34386c4.37022,0 6.49679,0.15851 6.37973,0.47555l-2.13541,10.68671c3.58006,6.69677 2.1793,10.42052 2.1793,10.42052c0,0.17559 -0.87307,0.32191 -2.61919,0.43897c-1.74613,0.11706 -2.98501,0.17559 -3.71663,0.17559c-1.83392,0 -2.80942,-0.19022 -2.92648,-0.57066l-2.35581,-7.29425l-2.71431,7.60153c-0.05853,0.20486 -0.89013,0.30729 -2.49482,0.30729c-1.59981,0 -3.02647,-0.05853 -4.27998,-0.17559c-1.24863,-0.11706 -1.81685,-0.26338 -1.70467,-0.43897l3.81227,-10.05245c-3.43373,-7.19427 -4.02445,-10.80603 -4.02445,-10.83529c0,-0.17559 0.44385,-0.3341 1.33155,-0.47555c0.8877,-0.14632 1.89246,-0.21948 3.01427,-0.21948c1.12182,0 2.19243,0.05122 3.21182,0.15364c1.0194,0.09754 1.58761,0.23412 1.70467,0.40971l2.31192,7.08208zM185.07031,236.12065c0,0.35118 -1.22425,0.52677 -3.67273,0.52677c-2.91184,-0.11706 -4.36777,-0.30728 -4.36777,-0.57066v-15.46644h-2.23144c-0.5853,0 -0.87795,-1.00476 -0.87795,-3.01427c0,-0.52677 0.05121,-1.16815 0.15364,-1.92416c0.10243,-0.76089 0.3146,-1.14133 0.63651,-1.14133h2.31923v-3.841c0,-0.5853 1.22912,-0.87795 3.68737,-0.87795c2.46311,0 3.69468,0.23412 3.69468,0.70236v2.79479l0.04391,1.22181h3.71663c0.49263,0 0.73893,1.02183 0.73893,3.06549c0,2.03878 -0.2463,3.05818 -0.73893,3.05818h-3.10207zM209.36734,236.12065c0,0.35118 -1.22424,0.52677 -3.67272,0.52677c-2.91184,-0.11706 -4.36777,-0.30728 -4.36777,-0.57066v-15.46644h-2.23144c-0.5853,0 -0.87795,-1.00476 -0.87795,-3.01427c0,-0.52677 0.05122,-1.16815 0.15364,-1.92416c0.10243,-0.76089 0.3146,-1.14133 0.63651,-1.14133h2.31923v-3.841c0,-0.5853 1.22912,-0.87795 3.68737,-0.87795c2.46311,0 3.69468,0.23412 3.69468,0.70236v2.79479l0.04389,1.22181h3.71663c0.49263,0 0.73893,1.02183 0.73893,3.06549c0,2.03878 -0.24631,3.05818 -0.73893,3.05818h-3.10207zM217.29127,233.80873c-1.8193,-2.0144 -2.72894,-4.79698 -2.72894,-8.34778c0,-3.55567 0.90964,-6.33828 2.72894,-8.34779c1.82416,-2.00951 4.27998,-3.01427 7.36741,-3.01427c3.08744,0 5.53349,1.00475 7.33815,3.01427c1.80955,2.00951 2.71431,4.79212 2.71431,8.34779c0,3.5508 -0.90476,6.33338 -2.71431,8.34778c-1.80466,2.00951 -4.25071,3.01427 -7.33815,3.01427c-3.08743,0 -5.54324,-1.00476 -7.36741,-3.01427zM224.68064,221.39314c-1.6437,0 -2.46555,1.34131 -2.46555,4.02392c0,2.67774 0.82185,4.01659 2.46555,4.01659c1.64858,0 2.47288,-1.33886 2.47288,-4.01659c0,-2.6826 -0.82429,-4.02391 -2.47287,-4.02391zM254.13623,228.65081c1.23887,0 1.85832,-0.48043 1.85832,-1.44129c0,-0.43897 -0.17559,-0.82429 -0.52677,-1.15595c-0.35118,-0.33654 -0.99257,-0.72186 -1.92416,-1.15596c-0.93159,-0.43897 -1.63152,-0.78284 -2.09975,-1.03159c-0.46337,-0.24875 -1.0828,-0.65601 -1.85831,-1.2218c-0.77063,-0.57066 -1.35837,-1.16084 -1.7632,-1.77052c-1.16572,-1.66322 -1.74857,-3.77516 -1.74857,-6.33582c0,-2.56555 0.95355,-4.72871 2.86064,-6.48947c1.90709,-1.76565 4.40435,-2.64846 7.49178,-2.64846c2.09731,0 4.03368,0.22681 5.80907,0.68041c1.78028,0.44873 2.69967,1.0389 2.7582,1.77052c0,0.08779 0,0.17315 0,0.25607c0,1.02427 -0.32191,2.31679 -0.96574,3.87759c-0.63896,1.5559 -1.08767,2.41922 -1.34618,2.58994c-1.86807,-0.96087 -3.53859,-1.44129 -5.01159,-1.44129c-1.46812,0 -2.20218,0.52433 -2.20218,1.57299c0,0.64382 0.53895,1.21204 1.61688,1.70467c0.23412,0.11706 0.56822,0.27802 1.00232,0.48288c0.43897,0.20486 0.94136,0.44629 1.50715,0.72431c0.57067,0.27314 1.18278,0.62187 1.83637,1.04622c0.65846,0.42434 1.36569,0.98526 2.12169,1.68273c1.54616,1.45837 2.31923,3.38009 2.31923,5.76516c0,3.1167 -0.86088,5.66762 -2.58262,7.65275c-1.71686,1.98026 -4.36776,2.99965 -7.95271,3.05818c-1.74614,0 -3.32644,-0.14632 -4.7409,-0.43897c-1.41447,-0.29265 -2.64602,-0.86087 -3.69467,-1.70468c-1.04866,-0.8438 -1.57299,-1.86319 -1.57299,-3.05816c0,-1.19499 0.21704,-2.38264 0.65114,-3.563c0.43897,-1.18034 0.90721,-1.9583 1.40471,-2.33387c0,0 1.50468,1.03152 2.86062,1.79241c0,0 2.65335,1.134 3.89222,1.134zM278.62843,244.33674c0,0.20486 -1.2462,0.30728 -3.73858,0.30728c-2.48751,0 -3.73125,-0.10242 -3.73125,-0.30728v-22.50463h-1.48519c-0.70236,0 -1.18521,-0.64138 -1.4486,-1.92416c-0.0878,-0.40483 -0.13169,-0.92672 -0.13169,-1.56566c0,-0.64382 0.20485,-1.40227 0.61455,-2.27534c0.58529,-1.28277 1.51689,-1.92416 2.79478,-1.92416c0.84868,0 1.62907,0.19754 2.34118,0.59261c0.71211,0.3902 1.20717,0.75357 1.48519,1.09011c0.27802,0.33167 0.41703,0.52677 0.41703,0.5853c1.95099,-1.51202 4.06292,-2.26801 6.33582,-2.26801c2.2729,0 4.22389,0.88038 5.85296,2.64114c1.63396,1.76076 2.45093,4.48483 2.45093,8.17219c0,3.68737 -0.81697,6.54313 -2.45093,8.56727c-1.62907,2.02415 -3.69712,3.03623 -6.20414,3.03623c-1.13645,0 -2.17047,-0.05853 -3.10207,-0.17559zM280.42089,221.78822c-0.4975,0 -0.97792,0.16096 -1.44129,0.48288v7.73322c0.49263,0.05853 0.89257,0.08779 1.19986,0.08779c0.30728,0 0.54872,0 0.72431,0c1.1901,-0.11706 1.78515,-1.64614 1.78515,-4.58726c0,-2.47775 -0.75601,-3.71663 -2.26802,-3.71663zM310.00775,235.20612c-1.83882,1.07793 -4.1995,1.61688 -7.08209,1.61688c-2.88258,0 -5.31644,-0.98281 -7.30156,-2.94843c-1.98025,-1.97049 -2.97037,-4.69456 -2.97037,-8.17219c0,-3.48251 0.95355,-6.28706 2.86064,-8.41363c1.91197,-2.12657 4.32387,-3.18986 7.23572,-3.18986c2.91185,0 5.16036,0.74381 6.74554,2.23144c1.59006,1.48275 2.38509,3.28742 2.38509,5.41399c0,4.72139 -2.70943,7.08208 -8.1283,7.08208h-3.01427c0,0.87306 0.239,1.47788 0.71699,1.81442c0.48287,0.33167 1.19253,0.4975 2.129,0.4975c2.03878,0 5.97003,-1.22181 6.20415,-0.78284c0.69747,1.25351 1.04622,2.30948 1.04622,3.16791c0,0.85843 -0.27558,1.41934 -0.82673,1.68273zM304.54254,222.57837c0,-1.22425 -0.59749,-1.83637 -1.79247,-1.83637c-0.55115,0 -1.02425,0.16827 -1.41933,0.50482c-0.39507,0.33167 -0.59261,0.81698 -0.59261,1.45593v1.36082h2.36313c0.96086,0 1.44128,-0.49506 1.44128,-1.48519zM331.24582,235.20612c-1.8388,1.07793 -4.1995,1.61688 -7.08208,1.61688c-2.88258,0 -5.31644,-0.98281 -7.30156,-2.94843c-1.98025,-1.97049 -2.97037,-4.69456 -2.97037,-8.17219c0,-3.48251 0.95355,-6.28706 2.86064,-8.41363c1.91197,-2.12657 4.32387,-3.18986 7.23572,-3.18986c2.91185,0 5.16036,0.74381 6.74554,2.23144c1.59006,1.48275 2.38509,3.28742 2.38509,5.41399c0,4.72139 -2.70944,7.08208 -8.1283,7.08208h-3.01427c0,0.87306 0.23899,1.47788 0.71699,1.81442c0.48287,0.33167 1.19254,0.4975 2.12901,0.4975c2.03878,0 5.97001,-1.22181 6.20414,-0.78284c0.69748,1.25351 1.04622,2.30948 1.04622,3.16791c0,0.85843 -0.27558,1.41934 -0.82673,1.68273zM325.78062,222.57837c0,-1.22425 -0.59749,-1.83637 -1.79246,-1.83637c-0.55115,0 -1.02427,0.16827 -1.41934,0.50482c-0.39507,0.33167 -0.59261,0.81698 -0.59261,1.45593v1.36082h2.36313c0.96087,0 1.44129,-0.49506 1.44129,-1.48519zM346.36024,229.82872c1.39983,0 2.56555,-0.27558 3.49715,-0.82673c0.43897,0 0.79503,0.75113 1.06817,2.25339c0.27802,1.49738 0.41702,2.51677 0.41702,3.05817c0,0.53652 -0.07316,0.89258 -0.21948,1.06817c-1.54127,0.96087 -3.65322,1.44129 -6.33582,1.44129c-2.67773,0 -4.95794,-0.99745 -6.84065,-2.99232c-1.87781,-1.99975 -2.81673,-4.72383 -2.81673,-8.17219c0,-3.45325 0.92429,-6.24317 2.77284,-8.36974c1.85344,-2.12657 4.31657,-3.18986 7.38937,-3.18986c3.07281,0 5.20669,0.74137 6.40167,2.22413c0.26339,0.32191 0.39508,0.79746 0.39508,1.42666c0,0.62431 -0.11705,1.38763 -0.35117,2.28996c-0.52188,1.86319 -1.20717,2.94111 -2.05585,3.23377c-0.11706,0.02927 -0.47303,1.35774 -0.69252,1.35774c-0.21461,0 -0.29517,-1.48944 -0.61709,-1.84062c-1.13646,-1.13645 -2.04854,-1.70467 -2.73626,-1.70467c-0.68285,0 -1.27301,0.35118 -1.77051,1.05354c-0.49262,0.69749 -0.73894,1.83393 -0.73894,3.40935c0,0 1.07787,4.27996 3.23372,4.27996zM361.78684,236.07675c0,0.26338 -1.21693,0.39508 -3.65078,0.39508c-2.42898,0 -3.64346,-0.20486 -3.64346,-0.61456v-29.93058c0,-0.20486 0.45116,-0.35117 1.3535,-0.43897c0.90234,-0.08779 1.66078,-0.13169 2.27534,-0.13169c2.44362,0 3.66541,0.26338 3.66541,0.79015v8.73555c1.63395,-0.49263 2.87282,-0.73894 3.71663,-0.73894c2.21436,0 3.96293,0.59017 5.24571,1.77053c1.28278,1.18034 1.92416,3.37276 1.92416,6.57726v13.54229c0,0.26338 -1.13645,0.39508 -3.40934,0.39508c-2.56554,-0.08779 -3.84832,-0.23412 -3.84832,-0.43897v-12.84725c0,-1.42423 -0.46579,-2.13633 -1.3974,-2.13633c-0.64382,0 -1.38764,0.30484 -2.23144,0.91452z" fill="none" fill-rule="nonzero" stroke-opacity="0.50588" stroke="#000000" stroke-width="7.5" stroke-linecap="square"/><path d="M122.40536,235.68167c0,0.5853 -1.44374,0.87795 -4.33119,0.87795c-2.88258,0 -4.32388,-0.29265 -4.32388,-0.87795v-21.93396h-5.24571c-0.49263,0 -0.84137,-0.67065 -1.04622,-2.01196c-0.08779,-0.63896 -0.13169,-1.29253 -0.13169,-1.96075c0,-0.67309 0.0439,-1.32911 0.1317,-1.96805c0.20485,-1.34131 0.55359,-2.01196 1.04622,-2.01196h19.00749c0.4975,0 0.84868,0.67065 1.05354,2.01196c0.08779,0.63895 0.13169,1.29496 0.13169,1.96805c0,0.66822 -0.04389,1.32179 -0.13168,1.96075c-0.20486,1.34131 -0.55604,2.01196 -1.05354,2.01196h-5.1067zM145.95901,235.20612c-1.83882,1.07793 -4.1995,1.61688 -7.08208,1.61688c-2.88258,0 -5.31644,-0.98281 -7.30156,-2.94843c-1.98026,-1.97049 -2.97037,-4.69456 -2.97037,-8.17219c0,-3.48251 0.95353,-6.28706 2.86062,-8.41363c1.91196,-2.12657 4.32387,-3.18986 7.23572,-3.18986c2.91185,0 5.16035,0.74381 6.74554,2.23144c1.59005,1.48275 2.38509,3.28742 2.38509,5.41399c0,4.72139 -2.70944,7.08208 -8.1283,7.08208h-3.01427c0,0.87306 0.23899,1.47788 0.71699,1.81442c0.48288,0.33167 1.19254,0.4975 2.12902,0.4975c2.03878,0 3.97513,-0.4658 5.80907,-1.39739c0.02927,-0.02927 0.16096,0.17559 0.39508,0.61456c0.69747,1.25351 1.04621,2.30948 1.04621,3.16791c0,0.85843 -0.27558,1.41934 -0.82673,1.68273zM140.49381,222.57837c0,-1.22425 -0.59749,-1.83637 -1.79247,-1.83637c-0.55116,0 -1.02427,0.16827 -1.41934,0.50482c-0.39507,0.33167 -0.59261,0.81698 -0.59261,1.45593v1.36082h2.36313c0.96086,0 1.44129,-0.49506 1.44129,-1.48519zM163.78774,214.66224c0.11706,-0.22925 0.84381,-0.34386 2.18023,-0.34386c4.37022,0 6.49679,0.15851 6.37973,0.47555l-5.32619,11.0621c3.58006,6.69677 5.37009,10.04514 5.37009,10.04514c0,0.17559 -0.87307,0.32191 -2.61919,0.43897c-1.74613,0.11706 -2.98501,0.17559 -3.71663,0.17559c-1.83392,0 -2.80942,-0.19022 -2.92648,-0.57066l-2.35581,-7.29425l-2.71431,7.60153c-0.05853,0.20486 -0.89013,0.30729 -2.49482,0.30729c-1.59981,0 -3.02647,-0.05853 -4.27998,-0.17559c-1.24863,-0.11706 -1.81685,-0.26338 -1.70467,-0.43897l4.93843,-10.05245c-3.43373,-7.19427 -5.15061,-10.80603 -5.15061,-10.83529c0,-0.17559 0.44386,-0.3341 1.33156,-0.47555c0.8877,-0.14632 1.89246,-0.21948 3.01427,-0.21948c1.12182,0 2.19242,0.05122 3.21181,0.15364c1.0194,0.09754 1.58761,0.23412 1.70467,0.40971l2.31192,7.08208zM185.07031,236.12065c0,0.35118 -1.22425,0.52677 -3.67273,0.52677c-2.91184,-0.11706 -4.36777,-0.30728 -4.36777,-0.57066v-15.46644h-2.23144c-0.5853,0 -0.87795,-1.00476 -0.87795,-3.01427c0,-0.52677 0.05121,-1.16815 0.15364,-1.92416c0.10243,-0.76089 0.3146,-1.14133 0.63651,-1.14133h2.31923v-3.841c0,-0.5853 1.22912,-0.87795 3.68737,-0.87795c2.46311,0 3.69468,0.23412 3.69468,0.70236v2.79479l0.04391,1.22181h3.71663c0.49263,0 0.73893,1.02183 0.73893,3.06549c0,2.03878 -0.2463,3.05818 -0.73893,3.05818h-3.10207zM209.36734,236.12065c0,0.35118 -1.22424,0.52677 -3.67272,0.52677c-2.91184,-0.11706 -4.36777,-0.30728 -4.36777,-0.57066v-15.46644h-2.23144c-0.5853,0 -0.87795,-1.00476 -0.87795,-3.01427c0,-0.52677 0.05122,-1.16815 0.15364,-1.92416c0.10243,-0.76089 0.3146,-1.14133 0.63651,-1.14133h2.31923v-3.841c0,-0.5853 1.22912,-0.87795 3.68737,-0.87795c2.46311,0 3.69468,0.23412 3.69468,0.70236v2.79479l0.04389,1.22181h3.71663c0.49263,0 0.73893,1.02183 0.73893,3.06549c0,2.03878 -0.24631,3.05818 -0.73893,3.05818h-3.10207zM217.29127,233.80873c-1.8193,-2.0144 -2.72894,-4.79698 -2.72894,-8.34778c0,-3.55567 0.90964,-6.33828 2.72894,-8.34779c1.82416,-2.00951 4.27998,-3.01427 7.36741,-3.01427c3.08744,0 5.53349,1.00475 7.33815,3.01427c1.80955,2.00951 2.71431,4.79212 2.71431,8.34779c0,3.5508 -0.90476,6.33338 -2.71431,8.34778c-1.80466,2.00951 -4.25071,3.01427 -7.33815,3.01427c-3.08743,0 -5.54324,-1.00476 -7.36741,-3.01427zM224.68064,221.39314c-1.6437,0 -2.46555,1.34131 -2.46555,4.02392c0,2.67774 0.82185,4.01659 2.46555,4.01659c1.64858,0 2.47288,-1.33886 2.47288,-4.01659c0,-2.6826 -0.82429,-4.02391 -2.47287,-4.02391zM247.38337,225.72433c0.55116,0.4341 1.50469,1.03159 2.86063,1.79247c1.35594,0.75601 2.65335,1.13401 3.89222,1.13401c1.23887,0 1.85832,-0.48043 1.85832,-1.44129c0,-0.43897 -0.17559,-0.82429 -0.52677,-1.15595c-0.35118,-0.33654 -0.99257,-0.72186 -1.92416,-1.15596c-0.93159,-0.43897 -1.63152,-0.78284 -2.09975,-1.03159c-0.46337,-0.24875 -1.0828,-0.65601 -1.85831,-1.2218c-0.77063,-0.57066 -1.35837,-1.16084 -1.7632,-1.77052c-1.16572,-1.66322 -1.74857,-3.77516 -1.74857,-6.33582c0,-2.56555 0.95355,-4.72871 2.86064,-6.48947c1.90709,-1.76565 4.40435,-2.64846 7.49178,-2.64846c2.09731,0 4.03368,0.22681 5.80907,0.68041c1.78028,0.44873 2.69967,1.0389 2.7582,1.77052c0,0.08779 0,0.17315 0,0.25607c0,1.02427 -0.32191,2.31679 -0.96574,3.87759c-0.63896,1.5559 -1.08767,2.41922 -1.34618,2.58994c-1.86807,-0.96087 -3.53859,-1.44129 -5.01159,-1.44129c-1.46812,0 -2.20218,0.52433 -2.20218,1.57299c0,0.64382 0.53895,1.21204 1.61688,1.70467c0.23412,0.11706 0.56822,0.27802 1.00232,0.48288c0.43897,0.20486 0.94136,0.44629 1.50715,0.72431c0.57067,0.27314 1.18278,0.62187 1.83637,1.04622c0.65846,0.42434 1.36569,0.98526 2.12169,1.68273c1.54616,1.45837 2.31923,3.38009 2.31923,5.76516c0,3.1167 -0.86088,5.66762 -2.58262,7.65275c-1.71686,1.98026 -4.36776,2.99965 -7.95271,3.05818c-1.74614,0 -3.32644,-0.14632 -4.7409,-0.43897c-1.41447,-0.29265 -2.64602,-0.86087 -3.69467,-1.70468c-1.04866,-0.8438 -1.57299,-1.86319 -1.57299,-3.05816c0,-1.19499 0.21704,-2.38264 0.65114,-3.563c0.43897,-1.18034 0.90721,-1.9583 1.40471,-2.33387zM278.62843,244.33674c0,0.20486 -1.2462,0.30728 -3.73858,0.30728c-2.48751,0 -3.73125,-0.10242 -3.73125,-0.30728v-22.50463h-1.48519c-0.70236,0 -1.18521,-0.64138 -1.4486,-1.92416c-0.0878,-0.40483 -0.13169,-0.92672 -0.13169,-1.56566c0,-0.64382 0.20485,-1.40227 0.61455,-2.27534c0.58529,-1.28277 1.51689,-1.92416 2.79478,-1.92416c0.84868,0 1.62907,0.19754 2.34118,0.59261c0.71211,0.3902 1.20717,0.75357 1.48519,1.09011c0.27802,0.33167 0.41703,0.52677 0.41703,0.5853c1.95099,-1.51202 4.06292,-2.26801 6.33582,-2.26801c2.2729,0 4.22389,0.88038 5.85296,2.64114c1.63396,1.76076 2.45093,4.48483 2.45093,8.17219c0,3.68737 -0.81697,6.54313 -2.45093,8.56727c-1.62907,2.02415 -3.69712,3.03623 -6.20414,3.03623c-1.13645,0 -2.17047,-0.05853 -3.10207,-0.17559zM280.42089,221.78822c-0.4975,0 -0.97792,0.16096 -1.44129,0.48288v7.73322c0.49263,0.05853 0.89257,0.08779 1.19986,0.08779c0.30728,0 0.54872,0 0.72431,0c1.1901,-0.11706 1.78515,-1.64614 1.78515,-4.58726c0,-2.47775 -0.75601,-3.71663 -2.26802,-3.71663zM310.00775,235.20612c-1.83882,1.07793 -4.1995,1.61688 -7.08209,1.61688c-2.88258,0 -5.31644,-0.98281 -7.30156,-2.94843c-1.98025,-1.97049 -2.97037,-4.69456 -2.97037,-8.17219c0,-3.48251 0.95355,-6.28706 2.86064,-8.41363c1.91197,-2.12657 4.32387,-3.18986 7.23572,-3.18986c2.91185,0 5.16036,0.74381 6.74554,2.23144c1.59006,1.48275 2.38509,3.28742 2.38509,5.41399c0,4.72139 -2.70943,7.08208 -8.1283,7.08208h-3.01427c0,0.87306 0.239,1.47788 0.71699,1.81442c0.48287,0.33167 1.19253,0.4975 2.129,0.4975c2.03878,0 3.97514,-0.4658 5.80907,-1.39739c0.02927,-0.02927 0.16096,0.17559 0.39508,0.61456c0.69747,1.25351 1.04622,2.30948 1.04622,3.16791c0,0.85843 -0.27558,1.41934 -0.82673,1.68273zM304.54254,222.57837c0,-1.22425 -0.59749,-1.83637 -1.79247,-1.83637c-0.55115,0 -1.02425,0.16827 -1.41933,0.50482c-0.39507,0.33167 -0.59261,0.81698 -0.59261,1.45593v1.36082h2.36313c0.96086,0 1.44128,-0.49506 1.44128,-1.48519zM331.24582,235.20612c-1.8388,1.07793 -4.1995,1.61688 -7.08208,1.61688c-2.88258,0 -5.31644,-0.98281 -7.30156,-2.94843c-1.98025,-1.97049 -2.97037,-4.69456 -2.97037,-8.17219c0,-3.48251 0.95355,-6.28706 2.86064,-8.41363c1.91197,-2.12657 4.32387,-3.18986 7.23572,-3.18986c2.91185,0 5.16036,0.74381 6.74554,2.23144c1.59006,1.48275 2.38509,3.28742 2.38509,5.41399c0,4.72139 -2.70944,7.08208 -8.1283,7.08208h-3.01427c0,0.87306 0.23899,1.47788 0.71699,1.81442c0.48287,0.33167 1.19254,0.4975 2.12901,0.4975c2.03878,0 3.97513,-0.4658 5.80906,-1.39739c0.02927,-0.02927 0.16096,0.17559 0.39508,0.61456c0.69748,1.25351 1.04622,2.30948 1.04622,3.16791c0,0.85843 -0.27558,1.41934 -0.82673,1.68273zM325.78062,222.57837c0,-1.22425 -0.59749,-1.83637 -1.79246,-1.83637c-0.55115,0 -1.02427,0.16827 -1.41934,0.50482c-0.39507,0.33167 -0.59261,0.81698 -0.59261,1.45593v1.36082h2.36313c0.96087,0 1.44129,-0.49506 1.44129,-1.48519zM343.12647,225.54874c0,2.85333 1.07792,4.27998 3.23377,4.27998c1.39983,0 2.56555,-0.27558 3.49715,-0.82673c0.43897,0 0.79503,0.75113 1.06817,2.25339c0.27802,1.49738 0.41702,2.51677 0.41702,3.05817c0,0.53652 -0.07316,0.89258 -0.21948,1.06817c-1.54127,0.96087 -3.65322,1.44129 -6.33582,1.44129c-2.67773,0 -4.95794,-0.99745 -6.84065,-2.99232c-1.87781,-1.99975 -2.81673,-4.72383 -2.81673,-8.17219c0,-3.45325 0.92429,-6.24317 2.77284,-8.36974c1.85344,-2.12657 4.31657,-3.18986 7.38937,-3.18986c3.07281,0 5.20669,0.74137 6.40167,2.22413c0.26339,0.32191 0.39508,0.79746 0.39508,1.42666c0,0.62431 -0.11705,1.38763 -0.35117,2.28996c-0.52188,1.86319 -1.20717,2.94111 -2.05585,3.23377c-0.11706,0.02927 -0.28534,0.0439 -0.50482,0.0439c-0.21461,0 -0.48287,-0.17559 -0.80478,-0.52677c-1.13646,-1.13645 -2.04854,-1.70467 -2.73626,-1.70467c-0.68285,0 -1.27301,0.35117 -1.77051,1.05353c-0.49262,0.69749 -0.73893,1.83393 -0.73893,3.40936zM361.78684,236.07675c0,0.26338 -1.21693,0.39508 -3.65078,0.39508c-2.42898,0 -3.64346,-0.20486 -3.64346,-0.61456v-29.93058c0,-0.20486 0.45116,-0.35117 1.3535,-0.43897c0.90234,-0.08779 1.66078,-0.13169 2.27534,-0.13169c2.44362,0 3.66541,0.26338 3.66541,0.79015v8.73555c1.63395,-0.49263 2.87282,-0.73894 3.71663,-0.73894c2.21436,0 3.96293,0.59017 5.24571,1.77053c1.28278,1.18034 1.92416,3.37276 1.92416,6.57726v13.54229c0,0.26338 -1.13645,0.39508 -3.40934,0.39508c-2.56554,-0.08779 -3.84832,-0.23412 -3.84832,-0.43897v-12.84725c0,-1.42423 -0.46579,-2.13633 -1.3974,-2.13633c-0.64382,0 -1.38764,0.30484 -2.23144,0.91452z" fill="#ffffff" fill-rule="nonzero" stroke="none" stroke-width="1" stroke-linecap="square"/><path d="M254.79792,159.45002c-0.19735,-1.0176 -1.25813,-6.21249 -1.54799,-7.66797c-0.81203,-4.07039 -1.56237,-8.05857 -2.34767,-12.56684c-1.50482,-8.68146 -1.42464,-12.43733 0.70718,-13.41792c1.02788,-0.47283 2.1791,-0.16446 3.78259,0.71952c0.85108,0.46666 11.37656,6.31117 14.3903,5.84657c3.13709,-0.48721 5.14761,-0.12335 5.91235,1.27046c0.7154,1.30541 0.03084,2.91094 -1.5007,4.48155c-3.02607,3.11652 -8.17163,5.16817 -12.02206,4.15879c-1.68983,-0.45227 -2.54503,-0.95592 -4.8927,-2.60464l-0.1953,-0.13568c0.09662,1.21907 0.54271,3.57701 1.47397,7.81804c0.60439,2.74649 4.27598,18.88623 5.42103,23.9989l0.00411,0.02467c1.08544,5.42103 -3.85042,9.71139 -10.76393,9.71139c-6.76344,0 -13.08078,-4.08684 -14.1066,-9.30846c-1.08955,-5.4272 3.85043,-9.73195 10.75777,-9.73195c1.38147,0 2.7691,0.17474 4.1403,0.51394c0.46666,0.11718 0.89631,0.24258 1.30746,0.38443c0,0 -0.17268,-1.69189 -0.52011,-3.49479zM219.83773,171.69204c-0.18502,-0.94565 -1.22317,-6.03776 -1.54798,-7.6618c-0.80175,-4.02928 -1.54182,-7.99689 -2.32301,-12.47844c-1.50482,-8.68146 -1.42258,-12.43733 0.70718,-13.41587c1.03199,-0.47283 2.1791,-0.16857 3.78259,0.71952c0.85314,0.46666 11.37245,6.30911 14.38207,5.84452c3.13503,-0.49338 5.14762,-0.13157 5.91235,1.26224c0.71541,1.30541 0.03083,2.90889 -1.49659,4.48155c-3.03018,3.11858 -8.17574,5.16611 -12.02,4.14646c-1.68572,-0.45227 -2.54091,-0.95387 -4.88859,-2.60464l-0.1953,-0.13362c0.09662,1.21907 0.54271,3.57701 1.47397,7.81598c0.60439,2.74855 4.27187,18.8924 5.41898,24.00095l0.00617,0.02672c1.06283,5.42308 -3.87304,9.72784 -10.75983,9.72784c-6.75727,0 -13.07461,-4.09713 -14.12305,-9.33313c-1.069,-5.4272 3.87304,-9.72373 10.77216,-9.72373c1.86046,0 3.70653,0.30837 5.44776,0.89631c0,0 -0.18707,-1.72272 -0.54889,-3.57085z" fill="none" fill-rule="evenodd" stroke-opacity="0.50588" stroke="#000000" stroke-width="7.5" stroke-linecap="butt"/><path d="M255.32419,162.94891c-0.02056,-0.64139 -0.17884,-1.696 -0.52627,-3.4989c-0.19735,-1.0176 -1.25813,-6.21249 -1.54799,-7.66797c-0.81203,-4.07039 -1.56237,-8.05857 -2.34767,-12.56684c-1.50482,-8.68146 -1.42464,-12.43733 0.70718,-13.41792c1.02788,-0.47283 2.1791,-0.16446 3.78259,0.71952c0.85108,0.46666 4.48566,2.8061 4.25541,2.66426c4.09918,2.55325 7.12114,3.64691 10.13488,3.18231c3.13709,-0.48721 5.14761,-0.12335 5.91235,1.27046c0.7154,1.30541 0.03084,2.91094 -1.5007,4.48155c-3.02607,3.11652 -8.17163,5.16817 -12.02206,4.15879c-1.68983,-0.45227 -2.54503,-0.95592 -4.8927,-2.60464l-0.1953,-0.13568c0.09662,1.21907 0.54271,3.57701 1.47397,7.81804c0.60439,2.74649 4.27598,18.88623 5.42103,23.9989l0.00411,0.02467c1.08544,5.42103 -3.85042,9.71139 -10.76393,9.71139c-6.76344,0 -13.08078,-4.08684 -14.1066,-9.30846c-1.08955,-5.4272 3.85043,-9.73195 10.75777,-9.73195c1.38147,0 2.7691,0.17474 4.1403,0.51394c0.46666,0.11718 0.89631,0.24258 1.30746,0.38443zM220.38456,175.26289c-0.02056,-0.65373 -0.18501,-1.72272 -0.54683,-3.57085c-0.18502,-0.94565 -1.22317,-6.03776 -1.54798,-7.6618c-0.80175,-4.02928 -1.54182,-7.99689 -2.32301,-12.47844c-1.50482,-8.68146 -1.42258,-12.43733 0.70718,-13.41587c1.03199,-0.47283 2.1791,-0.16857 3.78259,0.71952c0.85314,0.46666 4.48566,2.80405 4.25541,2.66221c4.09712,2.55325 7.11703,3.64691 10.12666,3.18231c3.13503,-0.49338 5.14762,-0.13157 5.91235,1.26224c0.71541,1.30541 0.03083,2.90889 -1.49659,4.48155c-3.03018,3.11858 -8.17574,5.16611 -12.02,4.14646c-1.68572,-0.45227 -2.54091,-0.95387 -4.88859,-2.60464l-0.1953,-0.13362c0.09662,1.21907 0.54271,3.57701 1.47397,7.81598c0.60439,2.74855 4.27187,18.8924 5.41898,24.00095l0.00617,0.02672c1.06283,5.42308 -3.87304,9.72784 -10.75983,9.72784c-6.75727,0 -13.07461,-4.09713 -14.12305,-9.33313c-1.069,-5.4272 3.87304,-9.72373 10.77216,-9.72373c1.86046,0 3.70653,0.30837 5.44776,0.89631z" fill="#ffffff" fill-rule="evenodd" stroke-opacity="0.1" stroke="#000000" stroke-width="0" stroke-linecap="butt"/></g></g></svg>
