<svg version="1.1" xmlns="http://www.w3.org/2000/svg" xmlns:xlink="http://www.w3.org/1999/xlink" width="309.2973" height="159.64866" viewBox="0,0,309.2973,159.64866"><defs><linearGradient x1="240" y1="105.17567" x2="240" y2="254.82433" gradientUnits="userSpaceOnUse" id="color-1"><stop offset="0" stop-color="#530501"/><stop offset="1" stop-color="#720701"/></linearGradient></defs><g transform="translate(-85.35135,-100.17567)"><g fill-rule="nonzero" stroke-linejoin="miter" stroke-miterlimit="10" stroke-dasharray="" stroke-dashoffset="0" style="mix-blend-mode: normal"><path d="M90,240.5c0,-31.41937 0,-104.34889 0,-121.5c0,-7.06467 5.58892,-13.99664 12.46875,-13.99664c28.70985,0 224.65655,0 275.5,0c7.66421,0 12.03125,5.77949 12.03125,14.99664c0,32.12312 0,106.00089 0,122.5c0,6.40128 -4.74834,12.49665 -13.03125,12.49665c-52.23585,0 -245.04675,0 -274,0c-7.13022,0 -12.96875,-5.57476 -12.96875,-14.49666z" fill="#810801" stroke="#000000" stroke-width="0" stroke-linecap="butt"/><path d="M97.75,140.93795v-30.84385h30.84385v30.84385z" fill="#b30a02" stroke="none" stroke-width="NaN" stroke-linecap="butt"/><path d="M134.11812,140.93795v-30.84385h30.84385v30.84385z" fill="#c60b00" stroke="none" stroke-width="NaN" stroke-linecap="butt"/><path d="M170.02589,140.93795v-30.84385h30.84385v30.84385z" fill="#c60b00" stroke="none" stroke-width="NaN" stroke-linecap="butt"/><path d="M206.39401,140.93795v-30.84385h30.84385v30.84385z" fill="#c60b00" stroke="none" stroke-width="NaN" stroke-linecap="butt"/><path d="M242.76214,140.93795v-30.84385h30.84385v30.84385z" fill="#b30a02" stroke="none" stroke-width="NaN" stroke-linecap="butt"/><path d="M279.13026,140.93795v-30.84385h30.84385v30.84385z" fill="#c60b00" stroke="none" stroke-width="NaN" stroke-linecap="butt"/><path d="M315.03803,140.93795v-30.84385h30.84385v30.84385z" fill="#b30a02" stroke="none" stroke-width="NaN" stroke-linecap="butt"/><path d="M351.40615,140.93795v-30.84385h30.84385v30.84385z" fill="#b30a02" stroke="none" stroke-width="NaN" stroke-linecap="butt"/><path d="M97.75,177.42497v-30.84385h30.84385v30.84385z" fill="#c60b00" stroke="none" stroke-width="NaN" stroke-linecap="butt"/><path d="M134.11812,177.42497v-30.84385h30.84385v30.84385z" fill="#b30a02" stroke="none" stroke-width="NaN" stroke-linecap="butt"/><path d="M170.02589,177.42497v-30.84385h30.84385v30.84385z" fill="#b30a02" stroke="none" stroke-width="NaN" stroke-linecap="butt"/><path d="M206.39401,177.42497v-30.84385h30.84385v30.84385z" fill="#c60b00" stroke="none" stroke-width="NaN" stroke-linecap="butt"/><path d="M242.76214,177.42497v-30.84385h30.84385v30.84385z" fill="#c60b00" stroke="none" stroke-width="NaN" stroke-linecap="butt"/><path d="M279.13026,177.42497v-30.84385h30.84385v30.84385z" fill="#c60b00" stroke="none" stroke-width="NaN" stroke-linecap="butt"/><path d="M315.03802,177.42497v-30.84385h30.84385v30.84385z" fill="#b30a02" stroke="none" stroke-width="NaN" stroke-linecap="butt"/><path d="M351.40615,177.42497v-30.84385h30.84385v30.84385z" fill="#c60b00" stroke="none" stroke-width="NaN" stroke-linecap="butt"/><path d="M97.75,213.4189v-30.84385h30.84385v30.84385z" fill="#b30a02" stroke="none" stroke-width="NaN" stroke-linecap="butt"/><path d="M134.11812,213.4189v-30.84385h30.84385v30.84385z" fill="#b30a02" stroke="none" stroke-width="NaN" stroke-linecap="butt"/><path d="M170.02589,213.4189v-30.84385h30.84385v30.84385z" fill="#c60b00" stroke="none" stroke-width="NaN" stroke-linecap="butt"/><path d="M206.39401,213.4189v-30.84385h30.84385v30.84385z" fill="#c60b00" stroke="none" stroke-width="NaN" stroke-linecap="butt"/><path d="M242.76214,213.4189v-30.84385h30.84385v30.84385z" fill="#b30a02" stroke="none" stroke-width="NaN" stroke-linecap="butt"/><path d="M279.13026,213.4189v-30.84385h30.84385v30.84385z" fill="#b30a02" stroke="none" stroke-width="NaN" stroke-linecap="butt"/><path d="M315.03802,213.4189v-30.84385h30.84385v30.84385z" fill="#c60b00" stroke="none" stroke-width="NaN" stroke-linecap="butt"/><path d="M351.40615,213.4189v-30.84385h30.84385v30.84385z" fill="#b30a02" stroke="none" stroke-width="NaN" stroke-linecap="butt"/><path d="M97.75,249.90591v-30.84385h30.84385v30.84385z" fill="#b30a02" stroke="none" stroke-width="NaN" stroke-linecap="butt"/><path d="M134.11812,249.90591v-30.84385h30.84385v30.84385z" fill="#b30a02" stroke="none" stroke-width="NaN" stroke-linecap="butt"/><path d="M170.02589,249.90591v-30.84385h30.84385v30.84385z" fill="#c60b00" stroke="none" stroke-width="NaN" stroke-linecap="butt"/><path d="M206.39401,249.90591v-30.84385h30.84385v30.84385z" fill="#c60b00" stroke="none" stroke-width="NaN" stroke-linecap="butt"/><path d="M242.76214,249.90591v-30.84385h30.84385v30.84385z" fill="#c60b00" stroke="none" stroke-width="NaN" stroke-linecap="butt"/><path d="M279.13026,249.90591v-30.84385h30.84385v30.84385z" fill="#b30a02" stroke="none" stroke-width="NaN" stroke-linecap="butt"/><path d="M315.03802,249.90591v-30.84385h30.84385v30.84385z" fill="#b30a02" stroke="none" stroke-width="NaN" stroke-linecap="butt"/><path d="M351.40615,249.90591v-30.84385h30.84385v30.84385z" fill="#c60b00" stroke="none" stroke-width="NaN" stroke-linecap="butt"/><g fill="#ffffff" stroke="none" stroke-width="1" stroke-linecap="butt"><g><path d="M151.88937,137.20072c1.28188,0.46475 2.66455,1.93627 2.66455,1.93627h-6.93257"/><path d="M151.86935,112.92486c1.02417,1.13267 -0.16759,2.50888 -0.16759,2.50888c0,0 -0.4186,0.8331 0.11486,1.07243c0.0073,3.98589 -0.18621,12.25664 -0.18621,12.39563c0,0.19968 0.44691,8.338 0.49026,8.49409c0.07195,0.25867 0.32907,0.49309 0.32907,0.49309c-0.40341,-0.05002 -0.72623,-0.44321 -0.72623,-0.44321c0.09936,0.34945 0.45317,0.58041 0.45317,0.58041c-0.3042,-0.03671 -0.60839,-0.0135 -0.745,-0.01257c-0.12409,0.00045 -1.713,0.3993 -2.33376,1.12338h-3.74911c-0.07448,0 -3.22757,-3.32011 -3.32694,-7.2395c-0.09936,-3.91939 0.97217,-7.69529 1.78763,-9.44639c0.9467,-2.03346 2.52935,-5.89174 2.64108,-6.35054c0.11173,-0.45862 0.00417,-2.32389 0.72116,-3.25075c0.49815,-0.64405 1.47301,-0.95472 2.11864,-0.95472c0.64548,0 2.01019,0.40067 2.57896,1.02977"/><path d="M151.9898,116.78495c0,0 0.62433,0.84704 1.09925,1.85658c1.04279,2.30906 1.71315,5.7355 1.34192,9.83613c-0.34233,3.78219 -0.6653,6.20944 -1.7705,8.13445c-0.1515,0.26391 0.43484,0.60258 0.43484,0.60258c-0.24833,0 -0.57785,0.03042 -0.57785,0.03042c0.02473,0.31212 0.54061,0.40636 0.54061,0.40636c-0.71386,0.34957 -0.92495,-0.1462 -0.92495,-0.1462c0.11798,0.29028 0.28438,0.44065 0.28438,0.44065c-0.19873,0.01245 -0.69405,-0.43779 -0.69405,-0.43779c0,0.337 0.45317,0.58039 0.45317,0.58039c-2.95153,0.01919 -4.34499,-3.58236 -4.12154,-4.60584c0.22345,-1.02345 2.2843,-10.93433 2.41688,-13.13106c0.13243,-2.19688 1.51785,-3.56666 1.51785,-3.56666"/></g><g><path d="M150.78932,115.30268c-0.0292,0.0042 1.26192,-0.72301 1.35935,-1.3106c0.07448,-0.44935 -0.40967,-0.9456 -0.27932,-1.06722c0.08685,-0.08119 0.28096,0.35079 0.66113,0.54296c0.40684,0.20582 0.97754,0.50551 1.91783,0.63658c0.94044,0.13106 1.75054,0.38389 2.09496,0.74893c0.34457,0.36515 0.52139,0.76764 0.52139,0.76764c0,0 -0.43752,-0.68347 -3.04464,-0.4212c-2.0017,0.10291 -2.1538,0.40561 -2.45174,0.596c-0.29794,0.1902 0.05899,-0.61471 -0.77896,-0.49309"/></g></g><path d="M200.86975,158c0,-21.61104 17.51922,-39.13026 39.13026,-39.13026c21.61105,0 39.13026,17.51922 39.13026,39.13026c0,21.61104 -17.51921,39.13026 -39.13026,39.13026c-21.61104,0 -39.13026,-17.51922 -39.13026,-39.13026z" fill="none" stroke-opacity="0.50196" stroke="#000000" stroke-width="15" stroke-linecap="butt"/><path d="M101.75,173.42497v-22.84385h22.84385v22.84385z" fill="#ffffff" stroke="none" stroke-width="NaN" stroke-linecap="butt"/><g fill="#ffffff" stroke="none" stroke-width="1" stroke-linecap="butt"><path d="M343.07822,175.62399c-0.25647,0 -0.51294,-0.09801 -0.70896,-0.29322l-25.02683,-25.02763c-0.39122,-0.39122 -0.39122,-1.02666 0,-1.41792c0.39122,-0.39122 1.02669,-0.39122 1.41792,0l25.02683,25.02683c0.39122,0.39122 0.39122,1.02666 0,1.41792c-0.19605,0.19521 -0.45252,0.29402 -0.70899,0.29402z"/><path d="M327.86903,153.89695c0,3.04575 -2.4691,5.51485 -5.51485,5.51485c-3.04578,0 -5.51488,-2.4691 -5.51488,-5.51485c0,-3.04578 2.4691,-5.51488 5.51488,-5.51488c3.04575,0 5.51485,2.4691 5.51485,5.51488z"/><path d="M327.10459,165.2822c-2.96427,-0.69995 -4.79982,-3.67039 -4.09987,-6.63466c0.69995,-2.96424 3.67039,-4.79982 6.63463,-4.09987c2.96427,0.69995 4.79985,3.67039 4.09987,6.63466c-0.69995,2.96424 -3.67039,4.79982 -6.63463,4.09987z"/><path d="M339.90257,165.92967c0,3.04578 -2.4699,5.51568 -5.51568,5.51568c-3.04575,0 -5.51485,-2.46993 -5.51485,-5.51568c0,-3.04575 2.4691,-5.51485 5.51485,-5.51485c3.04578,0 5.51568,2.46993 5.51568,5.51485z"/></g><path d="M171.17566,240.38915c0,0.55584 -1.37434,0.83375 -4.12302,0.83375c-2.74867,0 -4.12302,-0.27792 -4.12302,-0.83375v-20.90486h-4.99744c-0.4711,0 -0.80325,-0.63888 -0.99643,-1.91663c-0.08473,-0.61345 -0.12709,-1.23876 -0.12709,-1.87595c0,-0.63718 0.04237,-1.26249 0.12709,-1.87594c0.19318,-1.27436 0.52533,-1.91153 0.99643,-1.91153h18.1189c0.4711,0 0.80325,0.63718 0.99643,1.91153c0.08473,0.61345 0.12709,1.23876 0.12709,1.87594c0,0.63718 -0.04237,1.2625 -0.12709,1.87595c-0.19318,1.27774 -0.52533,1.91663 -0.99643,1.91663h-4.87543zM186.96302,240.80602c0,0.2203 -1.27096,0.33045 -3.81291,0.33045c-2.53854,0 -3.80781,-0.0966 -3.80781,-0.28978v-20.4473c0,-0.19657 1.26927,-0.29486 3.80781,-0.29486c2.54194,0 3.81291,0.08474 3.81291,0.2542zM186.96302,217.89812c0,0.19657 -1.27096,0.29487 -3.81291,0.29487c-2.53854,0 -3.80781,-0.08474 -3.80781,-0.2542v-5.99388c0,-0.27792 1.26927,-0.41687 3.80781,-0.41687c2.54194,0 3.81291,0.08303 3.81291,0.2491zM198.29198,240.71959c0,0.2508 -1.4167,0.37621 -4.25011,0.37621c-2.21995,-0.02712 -3.32994,-0.13726 -3.32994,-0.33046v-28.36289c0,-0.41688 1.34553,-0.62532 4.0366,-0.62532c2.3623,0.08473 3.54345,0.2237 3.54345,0.41688zM211.0333,241.47199c-2.74867,0 -5.06692,-0.93712 -6.95473,-2.81137c-1.88781,-1.87425 -2.83172,-4.47041 -2.83172,-7.78848c0,-3.31806 0.90832,-5.9905 2.72495,-8.01727c1.82002,-2.02677 4.11794,-3.04014 6.89373,-3.04014c2.77918,0 4.92457,0.70836 6.43618,2.12506c1.51161,1.4167 2.2674,3.13844 2.2674,5.16521c0,4.49753 -2.5809,6.74629 -7.74273,6.74629h-2.87239c0,0.83375 0.22877,1.40992 0.68632,1.72851c0.45755,0.31859 1.13032,0.47788 2.0183,0.47788c1.94204,0 3.78918,-0.444 5.54142,-1.33197c0.02712,-0.02712 0.15082,0.16777 0.37112,0.58465c0.66768,1.19302 1.00152,2.19961 1.00152,3.01982c0,0.8168 -0.26435,1.35062 -0.79308,1.60142c0,0 -3.99761,1.54039 -6.74629,1.54039zM212.57371,227.893c0,-1.1659 -0.56939,-1.74886 -1.70817,-1.74886c-0.52534,0 -0.97611,0.16099 -1.35231,0.48298c-0.37281,0.31859 -0.55922,0.78292 -0.55922,1.39298v1.29131h2.24707c0.9151,0 1.37265,-0.47279 1.37265,-1.4184zM245.72768,232.35155l-0.66866,-6.41343c0,-0.38976 1.15162,0.10265 1.95488,-0.02274c0.80664,-0.12541 1.47432,-0.1881 2.00304,-0.1881l1.62176,0.12709c1.05744,0.16607 1.58616,0.45755 1.58616,0.87443l-0.16777,13.03503c-0.55584,0.38976 -1.67428,0.77275 -3.35535,1.14896c-1.67767,0.37281 -3.59938,0.55922 -5.7651,0.55922c-4.02642,0 -7.27501,-1.30486 -9.74577,-3.91458c-2.47075,-2.60971 -3.70614,-6.44125 -3.70614,-11.49462c0,-4.30434 1.20658,-7.80204 3.61971,-10.49311c2.41654,-2.69445 5.76341,-4.04167 10.04064,-4.04167c1.94204,0 3.69767,0.1881 5.26688,0.56431c1.56922,0.37281 2.64531,0.87781 3.22825,1.51499c0.02712,0.22368 0.04067,0.64057 0.04067,1.25063c0,0.61006 -0.20844,1.47771 -0.62532,2.60295c-0.41688,1.12523 -0.88968,1.96577 -1.41841,2.5216c-0.52534,0.55584 -0.90662,0.83376 -1.14387,0.83376c-0.23387,0 -0.48297,-0.10338 -0.74733,-0.31012c-0.26435,-0.21013 -0.7863,-0.43212 -1.56583,-0.66598c-0.77614,-0.23725 -1.52516,-0.35587 -2.24707,-0.35587c-1.72173,0 -3.11641,0.55583 -4.18402,1.6675c-1.06761,1.10828 -1.60142,2.82834 -1.60142,5.16013c0,2.33179 0.54736,4.10268 1.64209,5.31263c1.09811,1.20657 2.3623,1.80985 3.79256,1.80985c1.43026,0 2.14539,-0.36095 2.14539,-1.08286zM265.09331,241.01445c0,0.19318 -1.26419,0.28978 -3.79256,0.28978c-2.52498,-0.05423 -3.78749,-0.16439 -3.78749,-0.33045v-13.82811h-1.12354c-0.44738,0 -0.80326,-0.27114 -1.06761,-0.81342c-0.26097,-0.54228 -0.39145,-1.21504 -0.39145,-2.01829c0,-2.99947 0.88798,-4.49922 2.66395,-4.49922c1.25063,0 2.29113,0.38299 3.12149,1.14896c0.83375,0.76259 1.25064,1.62853 1.25064,2.59785c0.58296,-1.13878 1.36756,-2.0471 2.35383,-2.72495c0.98627,-0.68123 1.99287,-1.02186 3.01981,-1.02186c1.60989,0 2.58091,0.41688 2.91306,1.25064c0.08474,0.2203 0.1271,0.54567 0.1271,0.9761c0,0.43043 -0.13219,1.20149 -0.39655,2.31315c-0.26436,1.11167 -0.5355,1.91831 -0.81341,2.41992c-0.27454,0.49822 -0.4406,0.74733 -0.49822,0.74733c-0.05422,0 -0.3118,-0.10338 -0.77274,-0.31012c-0.45755,-0.21013 -0.86595,-0.31519 -1.22521,-0.31519c-1.05406,0 -1.58109,0.83207 -1.58109,2.49618zM280.08579,240.80602c0,0.2203 -1.27095,0.33045 -3.81289,0.33045c-2.53854,0 -3.80782,-0.0966 -3.80782,-0.28978v-20.4473c0,-0.19657 1.26927,-0.29486 3.80782,-0.29486c2.54193,0 3.81289,0.08474 3.81289,0.2542zM280.08579,217.89812c0,0.19657 -1.27095,0.29487 -3.81289,0.29487c-2.53854,0 -3.80782,-0.08474 -3.80782,-0.2542v-5.99388c0,-0.27792 1.26927,-0.41687 3.80782,-0.41687c2.54193,0 3.81289,0.08303 3.81289,0.2491zM294.36848,212.15335c0,-0.41688 1.09641,-0.62532 3.28927,-0.62532c0.75241,0 1.62005,0.04914 2.60294,0.14743c0.98627,0.0949 1.4794,0.22539 1.4794,0.39146v21.95214h1.45908c0.69479,0 1.15234,0.62362 1.37264,1.87086c0.05762,0.36264 0.08643,0.85578 0.08643,1.47941c0,0.62363 -0.19488,1.37942 -0.58465,2.2674c-0.55584,1.22352 -1.44382,1.83527 -2.66395,1.83527c-0.91848,0 -1.7319,-0.17963 -2.44025,-0.53889c-0.70497,-0.36264 -1.18285,-0.73886 -1.43365,-1.12861l-0.37621,-0.53888c-1.52515,1.47093 -3.44007,2.2064 -5.74476,2.2064c-2.30469,0 -4.27723,-0.95746 -5.91762,-2.87239c-1.637,-1.91832 -2.4555,-4.59073 -2.4555,-8.01725c0,-3.42991 0.86088,-6.08201 2.5826,-7.95625c1.72174,-1.87425 3.87391,-2.81137 6.45651,-2.81137c0.74903,0 1.51161,0.08304 2.28774,0.24911zM292.99583,226.47968c-1.55566,0 -2.3335,1.40145 -2.3335,4.20436c0,1.4167 0.222,2.43855 0.66598,3.06557c0.44399,0.62363 0.93712,0.93543 1.4794,0.93543c0.54228,0 1.06253,-0.23725 1.56075,-0.71174v-7.07674c-0.4711,-0.27792 -0.92865,-0.41688 -1.37265,-0.41688zM308.23971,233.55642c2.24707,1.36247 4.02303,2.04371 5.32789,2.04371c0.83375,0 1.25064,-0.29148 1.25064,-0.87443c0,-0.41688 -0.72191,-0.95915 -2.16574,-1.62683c-3.47059,-1.41332 -5.20587,-3.73156 -5.20587,-6.95473c0,-2.05389 0.74903,-3.62141 2.24707,-4.70257c1.50144,-1.08456 3.29942,-1.62684 5.39398,-1.62684c2.09794,0 3.8756,0.22199 5.33298,0.66599c1.45738,0.444 2.18606,1.02695 2.18606,1.74885c0,0.61006 -0.29825,1.41501 -0.89476,2.41484c-0.59651,0.99982 -1.0066,1.54211 -1.2303,1.62683c-1.19302,-0.66768 -2.48432,-1.00152 -3.87392,-1.00152c-0.74903,0 -1.12354,0.26436 -1.12354,0.79309c0,0.33214 0.14575,0.61684 0.43722,0.85409c0.29147,0.23387 0.82528,0.52534 1.60141,0.87443c0.77952,0.34571 1.42518,0.65752 1.93696,0.93543c0.51517,0.27792 1.09133,0.66768 1.72851,1.16929c1.33536,1.05406 2.00304,2.42839 2.00304,4.12301c0,2.21995 -0.73716,4.01794 -2.21148,5.39398c-1.47093,1.37265 -3.69088,2.05897 -6.65986,2.05897c-1.97254,0 -3.76376,-0.33214 -5.37365,-0.99644c-1.60989,-0.66768 -2.41484,-1.58447 -2.41484,-2.75037c0,-0.77953 0.18641,-1.59972 0.55922,-2.46059c0.37621,-0.86087 0.75919,-1.43027 1.14895,-1.70819z" fill="none" stroke-opacity="0.50196" stroke="#000000" stroke-width="7.5" stroke-linecap="square"/><path d="M200.86975,158c0,-21.61104 17.51922,-39.13026 39.13026,-39.13026c21.61105,0 39.13026,17.51922 39.13026,39.13026c0,21.61104 -17.51921,39.13026 -39.13026,39.13026c-21.61104,0 -39.13026,-17.51922 -39.13026,-39.13026z" fill="none" stroke="#ffffff" stroke-width="7.5" stroke-linecap="butt"/><path d="M171.17565,240.38915c0,0.55584 -1.37434,0.83375 -4.12301,0.83375c-2.74867,0 -4.12302,-0.27792 -4.12302,-0.83375v-20.90486h-4.99744c-0.4711,0 -0.80325,-0.63888 -0.99643,-1.91663c-0.08473,-0.61345 -0.1271,-1.23876 -0.1271,-1.87594c0,-0.63718 0.04236,-1.2625 0.1271,-1.87594c0.19318,-1.27435 0.52533,-1.91153 0.99643,-1.91153h18.1189c0.4711,0 0.80325,0.63718 0.99643,1.91153c0.08473,0.61345 0.1271,1.23876 0.1271,1.87594c0,0.63718 -0.04237,1.26249 -0.1271,1.87594c-0.19318,1.27775 -0.52533,1.91663 -0.99643,1.91663h-4.87543zM186.96302,240.80602c0,0.2203 -1.27096,0.33045 -3.81291,0.33045c-2.53854,0 -3.80781,-0.0966 -3.80781,-0.28978v-20.4473c0,-0.19658 1.26927,-0.29486 3.80781,-0.29486c2.54194,0 3.81291,0.08474 3.81291,0.2542zM186.96302,217.89812c0,0.19658 -1.27096,0.29487 -3.81291,0.29487c-2.53854,0 -3.80781,-0.08474 -3.80781,-0.2542v-5.99388c0,-0.27792 1.26927,-0.41687 3.80781,-0.41687c2.54194,0 3.81291,0.08303 3.81291,0.2491zM198.29198,240.71959c0,0.2508 -1.4167,0.37621 -4.25011,0.37621c-2.21995,-0.02712 -3.32994,-0.13727 -3.32994,-0.33045v-28.36289c0,-0.41688 1.34553,-0.62532 4.0366,-0.62532c2.3623,0.08473 3.54345,0.2237 3.54345,0.41688zM217.77959,239.9316c-1.74885,1.02694 -3.99762,1.54041 -6.7463,1.54041c-2.74867,0 -5.06692,-0.93713 -6.95473,-2.81139c-1.88781,-1.87425 -2.83172,-4.47042 -2.83172,-7.78849c0,-3.31806 0.90832,-5.99049 2.72495,-8.01726c1.82002,-2.02677 4.11794,-3.04014 6.89373,-3.04014c2.77918,0 4.92458,0.70835 6.43618,2.12506c1.51161,1.4167 2.2674,3.13844 2.2674,5.16521c0,4.49753 -2.5809,6.74629 -7.74273,6.74629h-2.87239c0,0.83375 0.22877,1.40993 0.68632,1.72852c0.45755,0.31859 1.13032,0.47788 2.0183,0.47788c1.94204,0 3.78918,-0.444 5.54142,-1.33197c0.02712,-0.02712 0.15082,0.16777 0.37112,0.58465c0.66768,1.19302 1.00152,2.19961 1.00152,3.01982c0,0.8168 -0.26436,1.35062 -0.79308,1.60142zM212.57371,227.893c0,-1.1659 -0.56939,-1.74886 -1.70817,-1.74886c-0.52534,0 -0.9761,0.16099 -1.35231,0.48298c-0.37283,0.31859 -0.55922,0.78292 -0.55922,1.39298v1.29131h2.24707c0.9151,0 1.37265,-0.47279 1.37265,-1.4184zM245.72768,232.35155l0.08134,-5.66343c0,-0.38976 0.40162,-0.64735 1.20488,-0.77275c0.80664,-0.12541 1.47432,-0.1881 2.00304,-0.1881l1.62176,0.1271c1.05744,0.16608 1.58616,0.45755 1.58616,0.87443l-0.16777,13.03503c-0.55584,0.38976 -1.67428,0.77275 -3.35535,1.14896c-1.67768,0.37283 -3.59938,0.55922 -5.7651,0.55922c-4.02642,0 -7.27501,-1.30486 -9.74577,-3.91458c-2.47075,-2.60971 -3.70613,-6.44125 -3.70613,-11.49462c0,-4.30434 1.20658,-7.80204 3.61972,-10.4931c2.41654,-2.69445 5.7634,-4.04167 10.04063,-4.04167c1.94204,0 3.69767,0.1881 5.26689,0.56431c1.56922,0.37283 2.64531,0.87781 3.22825,1.51499c0.02712,0.22369 0.04067,0.64056 0.04067,1.25063c0,0.61006 -0.20844,1.47771 -0.62532,2.60294c-0.41688,1.12523 -0.88967,1.96577 -1.41839,2.5216c-0.52534,0.55584 -0.90662,0.83376 -1.14387,0.83376c-0.23387,0 -0.48298,-0.10337 -0.74733,-0.31012c-0.26436,-0.21013 -0.7863,-0.43212 -1.56582,-0.66598c-0.77614,-0.23725 -1.52517,-0.35587 -2.24708,-0.35587c-1.72173,0 -3.1164,0.55584 -4.18401,1.6675c-1.06761,1.10828 -1.60142,2.82832 -1.60142,5.16013c0,2.33179 0.54736,4.10267 1.64209,5.31264c1.09811,1.20657 2.3623,1.80986 3.79256,1.80986c1.43026,0 2.14539,-0.36095 2.14539,-1.08286zM265.09331,241.01445c0,0.19318 -1.26419,0.28978 -3.79256,0.28978c-2.52499,-0.05423 -3.78749,-0.16439 -3.78749,-0.33045v-13.82811h-1.12354c-0.44738,0 -0.80326,-0.27114 -1.06761,-0.81342c-0.26097,-0.54227 -0.39145,-1.21504 -0.39145,-2.01829c0,-2.99947 0.88798,-4.49922 2.66395,-4.49922c1.25063,0 2.29113,0.38297 3.1215,1.14894c0.83375,0.76259 1.25063,1.62853 1.25063,2.59786c0.58294,-1.13878 1.36757,-2.0471 2.35384,-2.72495c0.98627,-0.68123 1.99287,-1.02186 3.01981,-1.02186c1.60989,0 2.5809,0.41688 2.91306,1.25063c0.08474,0.2203 0.1271,0.54568 0.1271,0.97611c0,0.43043 -0.13218,1.20149 -0.39655,2.31315c-0.26436,1.11167 -0.5355,1.91831 -0.81342,2.41992c-0.27454,0.49822 -0.4406,0.74733 -0.49822,0.74733c-0.05422,0 -0.31181,-0.10338 -0.77275,-0.31011c-0.45755,-0.21013 -0.86595,-0.31521 -1.22521,-0.31521c-1.05406,0 -1.58108,0.83207 -1.58108,2.49618zM280.08579,240.80602c0,0.2203 -1.27095,0.33045 -3.81289,0.33045c-2.53854,0 -3.80782,-0.0966 -3.80782,-0.28978v-20.4473c0,-0.19658 1.26927,-0.29486 3.80782,-0.29486c2.54193,0 3.81289,0.08474 3.81289,0.2542zM280.08579,217.89812c0,0.19658 -1.27095,0.29487 -3.81289,0.29487c-2.53854,0 -3.80782,-0.08474 -3.80782,-0.2542v-5.99388c0,-0.27792 1.26927,-0.41687 3.80782,-0.41687c2.54193,0 3.81289,0.08303 3.81289,0.2491zM294.36848,212.15334c0,-0.41688 1.09641,-0.62532 3.28927,-0.62532c0.75241,0 1.62007,0.04915 2.60294,0.14744c0.98627,0.0949 1.4794,0.22539 1.4794,0.39146v21.95214h1.45908c0.69479,0 1.15234,0.62362 1.37264,1.87086c0.05762,0.36264 0.08643,0.85578 0.08643,1.47941c0,0.62363 -0.19488,1.37942 -0.58465,2.2674c-0.55584,1.22352 -1.44382,1.83527 -2.66395,1.83527c-0.91848,0 -1.7319,-0.17962 -2.44025,-0.53888c-0.70497,-0.36264 -1.18285,-0.73886 -1.43365,-1.12861l-0.37621,-0.53889c-1.52515,1.47093 -3.44008,2.20641 -5.74476,2.20641c-2.30469,0 -4.27723,-0.95746 -5.91762,-2.87239c-1.637,-1.91832 -2.45551,-4.59073 -2.45551,-8.01725c0,-3.42992 0.86087,-6.082 2.5826,-7.95626c1.72174,-1.87425 3.8739,-2.81137 6.45651,-2.81137c0.74902,0 1.51161,0.08303 2.28774,0.24911zM292.99583,226.47968c-1.55566,0 -2.3335,1.40145 -2.3335,4.20436c0,1.4167 0.222,2.43856 0.66598,3.06557c0.44399,0.62363 0.93713,0.93543 1.47941,0.93543c0.54228,0 1.06253,-0.23725 1.56075,-0.71175v-7.07674c-0.4711,-0.27792 -0.92865,-0.41688 -1.37264,-0.41688zM308.23971,233.55642c2.24707,1.36247 4.02303,2.04371 5.32789,2.04371c0.83375,0 1.25064,-0.29147 1.25064,-0.87443c0,-0.41688 -0.72191,-0.95915 -2.16574,-1.62683c-3.47059,-1.41332 -5.20587,-3.73156 -5.20587,-6.95473c0,-2.05388 0.74902,-3.6214 2.24707,-4.70258c1.50144,-1.08456 3.29942,-1.62683 5.39398,-1.62683c2.09794,0 3.8756,0.22199 5.33298,0.66599c1.45738,0.444 2.18606,1.02694 2.18606,1.74885c0,0.61006 -0.29825,1.41501 -0.89476,2.41484c-0.59651,0.99982 -1.0066,1.54211 -1.2303,1.62683c-1.19302,-0.66768 -2.48432,-1.00152 -3.8739,-1.00152c-0.74902,0 -1.12354,0.26436 -1.12354,0.79308c0,0.33216 0.14573,0.61685 0.43721,0.8541c0.29147,0.23387 0.82529,0.52534 1.60142,0.87443c0.77952,0.34571 1.42518,0.65751 1.93696,0.93543c0.51517,0.27792 1.09134,0.66768 1.72852,1.1693c1.33536,1.05406 2.00304,2.42839 2.00304,4.12301c0,2.21995 -0.73716,4.01795 -2.21148,5.39398c-1.47093,1.37265 -3.69089,2.05897 -6.65987,2.05897c-1.97254,0 -3.76375,-0.33214 -5.37365,-0.99644c-1.60989,-0.66768 -2.41484,-1.58446 -2.41484,-2.75036c0,-0.77953 0.18641,-1.59972 0.55922,-2.46059c0.37621,-0.86087 0.75919,-1.43027 1.14895,-1.70819z" fill="#ffffff" stroke="none" stroke-width="1" stroke-linecap="square"/><path d="M354.0542,209.05947l12.77387,-22.125l12.77387,22.125z" fill="#ffffff" stroke="none" stroke-width="NaN" stroke-linecap="butt"/><path d="M200.86975,158c0,-21.61105 17.51921,-39.13026 39.13026,-39.13026c21.61105,0 39.13026,17.51921 39.13026,39.13026c0,21.61105 -17.51921,39.13026 -39.13026,39.13026c-21.61105,0 -39.13026,-17.51921 -39.13026,-39.13026z" fill="#e50b00" stroke="none" stroke-width="0" stroke-linecap="butt"/><path d="M216.97519,181.02483v-46.04964h46.04964v46.04964z" fill="none" stroke="#ffffff" stroke-width="2" stroke-linecap="butt"/><path d="M262.62716,165.67494h-44.85664" fill="none" stroke="#ffffff" stroke-width="2" stroke-linecap="round"/><path d="M247.67495,180.5874v-45.17477" fill="none" stroke="#ffffff" stroke-width="2" stroke-linecap="round"/><path d="M232.32507,135.41263v45.17477" fill="none" stroke="#ffffff" stroke-width="2" stroke-linecap="round"/><path d="M262.58739,150.32507h-45.17477" fill="none" stroke="#ffffff" stroke-width="2" stroke-linecap="round"/><path d="M234.83036,163.16965v-10.3393h10.3393v10.3393z" fill="#ffffff" stroke="none" stroke-width="0" stroke-linecap="butt"/><path d="M234.83036,178.59907v-10.3393h10.3393v10.3393z" fill="#ffffff" stroke="none" stroke-width="0" stroke-linecap="butt"/><path d="M234.83036,147.74025v-10.3393h10.3393v10.3393z" fill="#ffffff" stroke="none" stroke-width="0" stroke-linecap="butt"/><path d="M219.40095,147.74025v-10.3393h10.3393v10.3393z" fill="#ffffff" stroke="none" stroke-width="0" stroke-linecap="butt"/><path d="M250.10071,147.74025v-10.3393h10.3393v10.3393z" fill="#ffffff" stroke="none" stroke-width="0" stroke-linecap="butt"/><path d="M90.35135,117.67133c0,-6.39897 5.91545,-12.49566 13.1192,-12.49566c28.93252,0 219.72832,0 272.60996,0c8.61359,0 13.56814,4.64378 13.56814,12.24625c0,30.59212 0,109.0924 0,125.70487c0,6.03964 -4.85913,11.69754 -13.31873,11.69754c-52.46667,0 -243.42599,0 -272.60996,0c-7.3279,0 -13.36861,-4.5235 -13.36861,-11.94695c0,-30.16113 0,-108.19342 0,-125.20604z" fill="none" stroke="url(#color-1)" stroke-width="10" stroke-linecap="butt"/></g></g></svg>
