<svg version="1.1" xmlns="http://www.w3.org/2000/svg" xmlns:xlink="http://www.w3.org/1999/xlink" width="309.2973" height="159.64866" viewBox="0,0,309.2973,159.64866"><defs><radialGradient cx="155.30001" cy="137.2" r="150" gradientUnits="userSpaceOnUse" id="color-1"><stop offset="0" stop-color="#3fa2a2"/><stop offset="1" stop-color="#587391"/></radialGradient><linearGradient x1="303.30325" y1="136.77337" x2="303.30325" y2="249.12584" gradientUnits="userSpaceOnUse" id="color-2"><stop offset="0" stop-color="#40a343"/><stop offset="1" stop-color="#2c2711"/></linearGradient><linearGradient x1="173.55001" y1="198.25992" x2="173.55001" y2="210.75992" gradientUnits="userSpaceOnUse" id="color-3"><stop offset="0" stop-color="#296a2b"/><stop offset="1" stop-color="#2f6a2c"/></linearGradient><linearGradient x1="240" y1="105.17567" x2="240" y2="254.82433" gradientUnits="userSpaceOnUse" id="color-4"><stop offset="0" stop-color="#fcfcfc"/><stop offset="1" stop-color="#838383"/></linearGradient><linearGradient x1="118.3" y1="160.2" x2="118.3" y2="205.2" gradientUnits="userSpaceOnUse" id="color-5"><stop offset="0" stop-color="#ffed7b"/><stop offset="1" stop-color="#ffffff" stop-opacity="0.52549"/></linearGradient><linearGradient x1="148.80001" y1="127.84025" x2="276.80001" y2="127.84025" gradientUnits="userSpaceOnUse" id="color-6"><stop offset="0" stop-color="#ffed7b"/><stop offset="1" stop-color="#ffffff" stop-opacity="0.52549"/></linearGradient><linearGradient x1="172.3" y1="152.7" x2="172.3" y2="200.7" gradientUnits="userSpaceOnUse" id="color-7"><stop offset="0" stop-color="#ffed7b"/><stop offset="1" stop-color="#ffffff" stop-opacity="0.52549"/></linearGradient><linearGradient x1="203.3" y1="141.2" x2="203.3" y2="175.2" gradientUnits="userSpaceOnUse" id="color-8"><stop offset="0" stop-color="#ffed7b"/><stop offset="1" stop-color="#ffffff" stop-opacity="0.52549"/></linearGradient><linearGradient x1="140.23616" y1="163.2" x2="140.23616" y2="205.93314" gradientUnits="userSpaceOnUse" id="color-9"><stop offset="0" stop-color="#ffed7b"/><stop offset="1" stop-color="#ffffff" stop-opacity="0.52549"/></linearGradient><linearGradient x1="240.05001" y1="137.2" x2="240.05001" y2="145.2" gradientUnits="userSpaceOnUse" id="color-10"><stop offset="0" stop-color="#40a343"/><stop offset="1" stop-color="#3b8939"/></linearGradient></defs><g transform="translate(-85.35135,-100.17567)"><g fill-rule="nonzero" stroke-linejoin="miter" stroke-miterlimit="10" stroke-dasharray="" stroke-dashoffset="0" style="mix-blend-mode: normal"><path d="M90,240.5c0,-31.41937 0,-104.34889 0,-121.5c0,-7.06467 5.58892,-13.99664 12.46875,-13.99664c28.70985,0 224.65655,0 275.5,0c7.66421,0 12.03125,5.77949 12.03125,14.99664c0,32.12312 0,106.00089 0,122.5c0,6.40128 -4.74834,12.49665 -13.03125,12.49665c-52.23585,0 -245.04675,0 -274,0c-7.13022,0 -12.96875,-5.57476 -12.96875,-14.49666z" fill="url(#color-1)" stroke="#000000" stroke-width="0" stroke-linecap="butt"/><path d="M384.92606,252.7925l-251.05763,0.18915c0,0 33.49187,-9.57717 43.58369,-22.60097c8.44264,-10.8955 38.50505,-25.45352 45.15195,-31.15711c6.70302,-5.75175 -5.07358,-17.93844 2.57637,-31.95104c3.44782,-6.31546 28.58046,-16.24669 50.48962,-19.49916c21.90916,-3.25247 37.37274,3.93622 37.37274,3.93622c0,0 39.94613,-8.83411 46.95567,-5.39499c11.36915,5.5781 28.946,25.91915 28.946,25.91915c0,0 -0.13922,2.66402 -0.29073,5.56313c-0.54251,10.38098 -3.72767,74.99562 -3.72767,74.99562z" fill="url(#color-2)" stroke="#40a343" stroke-width="1.5" stroke-linecap="round"/><path d="M191.80001,204.50992c0,3.45178 -20.67081,8.25 -30.75,8.25c-10.07919,0 -5.75,-4.79822 -5.75,-8.25c0,-3.45178 13.67081,-3.75 23.75,-3.75c10.07919,0 12.75,0.29822 12.75,3.75z" fill="url(#color-3)" stroke="#40a343" stroke-width="1.5" stroke-linecap="butt"/><path d="M106.78281,137.86949c0,-10.594 8.91312,-19.18213 19.908,-19.18213c10.99489,0 19.908,8.58813 19.908,19.18213c0,10.594 -8.91312,19.18213 -19.908,19.18213c-10.99489,0 -19.908,-8.58813 -19.908,-19.18213z" fill="#ffdf00" stroke="none" stroke-width="0" stroke-linecap="butt"/><path d="M365.55603,226.6252c-5.79466,8.85478 -17.68406,11.33836 -26.53885,5.5437c-1.68433,-1.10225 -3.1205,-2.40866 -4.32949,-3.88717c7.84595,2.22477 16.54066,-0.76859 21.24358,-7.95507c4.70292,-7.1865 3.96536,-16.35242 -1.21421,-22.65168c1.83885,0.51603 3.61094,1.30912 5.29527,2.41137c8.85478,5.79466 11.33835,17.68406 5.5437,26.53885z" fill="#ffffff" stroke="none" stroke-width="1" stroke-linecap="butt"/><path d="M325.87654,174.012c0,-1.28861 1.08415,-2.33323 2.42152,-2.33323c1.33737,0 2.42152,1.04462 2.42152,2.33323c0,1.28861 -1.08415,2.33323 -2.42152,2.33323c-1.33737,0 -2.42152,-1.04462 -2.42152,-2.33323z" fill="#c7c7c7" stroke="none" stroke-width="0.5" stroke-linecap="butt"/><path d="M298.89093,217.88637c0,-1.28861 1.08415,-2.33323 2.42152,-2.33323c1.33737,0 2.42152,1.04462 2.42152,2.33323c0,1.28861 -1.08415,2.33323 -2.42152,2.33323c-1.33737,0 -2.42152,-1.04462 -2.42152,-2.33323z" fill="#c7c7c7" stroke="none" stroke-width="0.5" stroke-linecap="butt"/><path d="M322.00054,203.9825c0,-1.28861 1.08415,-2.33323 2.42152,-2.33323c1.33737,0 2.42152,1.04462 2.42152,2.33323c0,1.28861 -1.08415,2.33323 -2.42152,2.33323c-1.33737,0 -2.42152,-1.04462 -2.42152,-2.33323z" fill="#c7c7c7" stroke="none" stroke-width="0.5" stroke-linecap="butt"/><path d="M289.57893,198.9066c0,-1.28861 1.08415,-2.33323 2.42152,-2.33323c1.33737,0 2.42152,1.04462 2.42152,2.33323c0,1.28861 -1.08415,2.33323 -2.42152,2.33323c-1.33737,0 -2.42152,-1.04462 -2.42152,-2.33323z" fill="#c7c7c7" stroke="none" stroke-width="0.5" stroke-linecap="butt"/><path d="M356.90854,170.20508c0,-1.28861 1.08415,-2.33323 2.42152,-2.33323c1.33737,0 2.42152,1.04462 2.42152,2.33323c0,1.28861 -1.08415,2.33323 -2.42152,2.33323c-1.33737,0 -2.42152,-1.04462 -2.42152,-2.33323z" fill="#c7c7c7" stroke="none" stroke-width="0.5" stroke-linecap="butt"/><path d="M371.69735,144.99428c0,-1.28861 1.08415,-2.33323 2.42152,-2.33323c1.33737,0 2.42152,1.04462 2.42152,2.33323c0,1.28861 -1.08415,2.33323 -2.42152,2.33323c-1.33737,0 -2.42152,-1.04462 -2.42152,-2.33323z" fill="#c7c7c7" stroke="none" stroke-width="0.5" stroke-linecap="butt"/><path d="M290.92773,174.04151c0,-1.28861 1.08415,-2.33323 2.42152,-2.33323c1.33737,0 2.42152,1.04462 2.42152,2.33323c0,1.28861 -1.08415,2.33323 -2.42152,2.33323c-1.33737,0 -2.42152,-1.04462 -2.42152,-2.33323z" fill="#c7c7c7" stroke="none" stroke-width="0.5" stroke-linecap="butt"/><path d="M364.61974,129.10052c0,-1.28861 1.08415,-2.33323 2.42152,-2.33323c1.33737,0 2.42152,1.04462 2.42152,2.33323c0,1.28861 -1.08415,2.33323 -2.42152,2.33323c-1.33737,0 -2.42152,-1.04462 -2.42152,-2.33323z" fill="#c7c7c7" stroke="none" stroke-width="0.5" stroke-linecap="butt"/><path d="M264.19413,237.61656c0,-1.28861 1.08415,-2.33323 2.42152,-2.33323c1.33737,0 2.42152,1.04462 2.42152,2.33323c0,1.28861 -1.08415,2.33323 -2.42152,2.33323c-1.33737,0 -2.42152,-1.04462 -2.42152,-2.33323z" fill="#c7c7c7" stroke="none" stroke-width="0.5" stroke-linecap="butt"/><text transform="translate(103.10831,237.12736) scale(0.94033,0.90604)" font-size="40" xml:space="preserve" fill="#000000" fill-rule="nonzero" stroke-opacity="0.50588" stroke="#ffffff" stroke-width="6" stroke-linecap="butt" stroke-linejoin="miter" stroke-miterlimit="10" stroke-dasharray="" stroke-dashoffset="0" font-family="&quot;Microsoft YaHei&quot;" font-weight="normal" text-anchor="start" style="mix-blend-mode: normal"><tspan x="0" dy="0">TIMEZONES</tspan></text><path d="M95.58522,249.69329l-3.20965,-8.25532c0,0 113.57916,-27.5148 162.52121,-51.52132c44.21204,-21.68642 111.5107,-82.46111 111.5107,-82.46111l18.74339,0.20316l1.5,146.01521z" fill-opacity="0.50196" fill="#000000" stroke="none" stroke-width="0" stroke-linecap="butt"/><text transform="translate(103.10831,237.12736) scale(0.94033,0.90604)" font-size="40" xml:space="preserve" fill="#ffffff" fill-rule="nonzero" stroke="#ffffff" stroke-width="0" stroke-linecap="butt" stroke-linejoin="miter" stroke-miterlimit="10" stroke-dasharray="" stroke-dashoffset="0" font-family="&quot;Microsoft YaHei&quot;" font-weight="normal" text-anchor="start" style="mix-blend-mode: normal"><tspan x="0" dy="0">TIMEZONES</tspan></text><path d="M90.35135,117.67133c0,-6.39897 5.91545,-12.49566 13.1192,-12.49566c28.93252,0 219.72832,0 272.60996,0c8.61359,0 13.56814,4.64378 13.56814,12.24625c0,30.59212 0,109.0924 0,125.70487c0,6.03964 -4.85913,11.69754 -13.31873,11.69754c-52.46667,0 -243.42599,0 -272.60996,0c-7.3279,0 -13.36861,-4.5235 -13.36861,-11.94695c0,-30.16113 0,-108.19342 0,-125.20604z" fill="none" stroke="url(#color-4)" stroke-width="10" stroke-linecap="butt"/><path d="M118.3,160.2v45" fill="none" stroke="url(#color-5)" stroke-width="1.5" stroke-linecap="round"/><path d="M148.80001,127.84025h128" fill="none" stroke="url(#color-6)" stroke-width="1.5" stroke-linecap="round"/><path d="M148.3,152.7l48,48" fill="none" stroke="url(#color-7)" stroke-width="1.5" stroke-linecap="round"/><path d="M152.3,141.2l102,34" fill="none" stroke="url(#color-8)" stroke-width="1.5" stroke-linecap="round"/><path d="M132.3,163.2l15.87231,42.73314" fill="none" stroke="url(#color-9)" stroke-width="1.5" stroke-linecap="round"/><path d="M258.30001,141.2c0,1.72951 -3.00801,2.70266 -10.01905,3.2608c-1.9443,0.15479 -6.04265,0.7392 -8.23095,0.7392c-10.07919,0 -18.25,-1.79086 -18.25,-4c0,-1.88262 3.43398,-1.46148 11.42613,-1.88706c1.38612,-0.07381 5.33415,-2.11294 6.82387,-2.11294c10.07919,0 18.25,1.79086 18.25,4z" fill="url(#color-10)" stroke="#40a343" stroke-width="1.5" stroke-linecap="butt"/></g></g></svg>
