<svg version="1.1" xmlns="http://www.w3.org/2000/svg" xmlns:xlink="http://www.w3.org/1999/xlink" width="299.90154" height="149.66566" viewBox="0,0,299.90154,149.66566"><defs><linearGradient x1="240" y1="114.13495" x2="240" y2="251.15016" gradientUnits="userSpaceOnUse" id="color-1"><stop offset="0" stop-color="#3fa2a2"/><stop offset="1" stop-color="#2b2b2b"/></linearGradient><linearGradient x1="303.30326" y1="139.41593" x2="303.30326" y2="251.7684" gradientUnits="userSpaceOnUse" id="color-2"><stop offset="0" stop-color="#40a343"/><stop offset="1" stop-color="#2c2711"/></linearGradient><linearGradient x1="226.51525" y1="131.19502" x2="226.51525" y2="147.63684" gradientUnits="userSpaceOnUse" id="color-3"><stop offset="0" stop-color="#40a343"/><stop offset="1" stop-color="#2c2711"/></linearGradient><linearGradient x1="139.48883" y1="159.14612" x2="139.48883" y2="179.97243" gradientUnits="userSpaceOnUse" id="color-4"><stop offset="0" stop-color="#40a343"/><stop offset="1" stop-color="#2c2711"/></linearGradient><linearGradient x1="318.94526" y1="115.30125" x2="318.94526" y2="252.31646" gradientUnits="userSpaceOnUse" id="color-5"><stop offset="0" stop-color="#000000" stop-opacity="0"/><stop offset="1" stop-color="#000000"/></linearGradient><linearGradient x1="240" y1="112.80973" x2="240" y2="252.47539" gradientUnits="userSpaceOnUse" id="color-6"><stop offset="0" stop-color="#fcfcfc"/><stop offset="1" stop-color="#838383"/></linearGradient></defs><g transform="translate(-90.04923,-107.80973)"><g data-paper-data="{&quot;isPaintingLayer&quot;:true}" fill-rule="nonzero" stroke-linejoin="miter" stroke-miterlimit="10" stroke-dasharray="" stroke-dashoffset="0" style="mix-blend-mode: normal"><path d="M95.52477,251.15016v-137.01521h288.95045v137.01521z" fill="url(#color-1)" stroke="none" stroke-width="10" stroke-linecap="butt"/><path d="M380.94447,178.87631l-64.27441,-39.46038l-94.98962,28.49916l36.40321,26.30692l-30.71521,55.9022l157.55763,1.64418z" fill="url(#color-2)" stroke="#40a343" stroke-width="0.5" stroke-linecap="round"/><path d="M214.85484,137.77175l19.908,9.86509l3.4128,-16.44182z" fill="url(#color-3)" stroke="#40a343" stroke-width="0.5" stroke-linecap="round"/><path d="M130.67243,170.6554l17.6328,9.31703l-0.5688,-20.82631z" fill="url(#color-4)" stroke="#40a343" stroke-width="0.5" stroke-linecap="round"/><path d="M106.78282,140.51205c0,-10.594 8.91312,-19.18213 19.908,-19.18213c10.99489,0 19.908,8.58813 19.908,19.18213c0,10.594 -8.91312,19.18213 -19.908,19.18213c-10.99489,0 -19.908,-8.58813 -19.908,-19.18213z" fill="#c0c84e" stroke="none" stroke-width="0" stroke-linecap="butt"/><path d="M334.30287,232.03821c14.65612,4.99187 25.1779,-6.44575 26.73222,-7.67433c1.76003,-1.39119 6.18579,-16.47048 5.12059,-21.92095c-3.10616,-15.89376 9.1008,6.28127 9.1008,18.08601c0,11.80474 -9.93176,21.37437 -22.1832,21.37437c-12.25145,0 -33.83878,-14.99738 -18.7704,-9.86509z" fill="#c7c7c7" stroke="none" stroke-width="0" stroke-linecap="butt"/><path d="M151.14923,143.25236l109.20962,35.62395" fill="none" stroke="#ffffff" stroke-width="0.5" stroke-linecap="round"/><path d="M152.85563,154.21357l96.12722,59.73863" fill="none" stroke="#ffffff" stroke-width="0.5" stroke-linecap="round"/><path d="M135.79163,161.88642l96.69602,74.53627" fill="none" stroke="#ffffff" stroke-width="0.5" stroke-linecap="round"/><path d="M124.41563,160.7903l58.01761,70.15179" fill="none" stroke="#ffffff" stroke-width="0.5" stroke-linecap="round"/><path d="M114.17723,162.43449l14.7888,69.60373" fill="none" stroke="#ffffff" stroke-width="0.5" stroke-linecap="round"/><path d="M150.01163,129.00277l123.99842,14.79764" fill="none" stroke="#ffffff" stroke-width="0.5" stroke-linecap="round"/><path d="M348.37655,199.15456c0,-1.28861 1.08415,-2.33323 2.42152,-2.33323c1.33737,0 2.42152,1.04462 2.42152,2.33323c0,1.28861 -1.08415,2.33323 -2.42152,2.33323c-1.33737,0 -2.42152,-1.04462 -2.42152,-2.33323z" fill="#c7c7c7" stroke="none" stroke-width="0.5" stroke-linecap="butt"/><path d="M298.89094,220.52893c0,-1.28861 1.08415,-2.33323 2.42152,-2.33323c1.33737,0 2.42152,1.04462 2.42152,2.33323c0,1.28861 -1.08415,2.33323 -2.42152,2.33323c-1.33737,0 -2.42152,-1.04462 -2.42152,-2.33323z" fill="#c7c7c7" stroke="none" stroke-width="0.5" stroke-linecap="butt"/><path d="M337.00055,221.62506c0,-1.28861 1.08415,-2.33323 2.42152,-2.33323c1.33737,0 2.42152,1.04462 2.42152,2.33323c0,1.28861 -1.08415,2.33323 -2.42152,2.33323c-1.33737,0 -2.42152,-1.04462 -2.42152,-2.33323z" fill="#c7c7c7" stroke="none" stroke-width="0.5" stroke-linecap="butt"/><path d="M304.57894,186.54916c0,-1.28861 1.08415,-2.33323 2.42152,-2.33323c1.33737,0 2.42152,1.04462 2.42152,2.33323c0,1.28861 -1.08415,2.33323 -2.42152,2.33323c-1.33737,0 -2.42152,-1.04462 -2.42152,-2.33323z" fill="#c7c7c7" stroke="none" stroke-width="0.5" stroke-linecap="butt"/><path d="M356.90855,172.84764c0,-1.28861 1.08415,-2.33323 2.42152,-2.33323c1.33737,0 2.42152,1.04462 2.42152,2.33323c0,1.28861 -1.08415,2.33323 -2.42152,2.33323c-1.33737,0 -2.42152,-1.04462 -2.42152,-2.33323z" fill="#c7c7c7" stroke="none" stroke-width="0.5" stroke-linecap="butt"/><path d="M371.69736,147.63684c0,-1.28861 1.08415,-2.33323 2.42152,-2.33323c1.33737,0 2.42152,1.04462 2.42152,2.33323c0,1.28861 -1.08415,2.33323 -2.42152,2.33323c-1.33737,0 -2.42152,-1.04462 -2.42152,-2.33323z" fill="#c7c7c7" stroke="none" stroke-width="0.5" stroke-linecap="butt"/><path d="M290.92774,176.68407c0,-1.28861 1.08415,-2.33323 2.42152,-2.33323c1.33737,0 2.42152,1.04462 2.42152,2.33323c0,1.28861 -1.08415,2.33323 -2.42152,2.33323c-1.33737,0 -2.42152,-1.04462 -2.42152,-2.33323z" fill="#c7c7c7" stroke="none" stroke-width="0.5" stroke-linecap="butt"/><path d="M342.11975,131.74308c0,-1.28861 1.08415,-2.33323 2.42152,-2.33323c1.33737,0 2.42152,1.04462 2.42152,2.33323c0,1.28861 -1.08415,2.33323 -2.42152,2.33323c-1.33737,0 -2.42152,-1.04462 -2.42152,-2.33323z" fill="#c7c7c7" stroke="none" stroke-width="0.5" stroke-linecap="butt"/><path d="M264.19414,240.25912c0,-1.28861 1.08415,-2.33323 2.42152,-2.33323c1.33737,0 2.42152,1.04462 2.42152,2.33323c0,1.28861 -1.08415,2.33323 -2.42152,2.33323c-1.33737,0 -2.42152,-1.04462 -2.42152,-2.33323z" fill="#c7c7c7" stroke="none" stroke-width="0.5" stroke-linecap="butt"/><path d="M134.08523,246.83585l170.07123,-133.72684l78.49441,2.19224v137.01521z" fill="url(#color-5)" stroke="none" stroke-width="0" stroke-linecap="butt"/><path d="M95.04923,124.47181c0,-5.9721 5.72975,-11.66208 12.70735,-11.66208c28.02425,0 212.83045,0 264.05199,0c8.34319,0 13.1422,4.334 13.1422,11.42931c0,28.55133 0,101.81489 0,117.31915c0,5.63674 -4.70659,10.9172 -12.90062,10.9172c-50.8196,0 -235.78418,0 -264.05199,0c-7.09786,0 -12.94893,-4.22174 -12.94893,-11.14997c0,-28.14909 0,-100.97588 0,-116.8536z" data-paper-data="{&quot;index&quot;:null}" fill="none" stroke="url(#color-6)" stroke-width="10" stroke-linecap="butt"/><text transform="translate(101.60832,239.76992) scale(0.94033,0.90604)" font-size="40" xml:space="preserve" fill="#ffffff" fill-rule="nonzero" stroke="none" stroke-width="1" stroke-linecap="butt" stroke-linejoin="miter" stroke-miterlimit="10" stroke-dasharray="" stroke-dashoffset="0" font-family="&quot;Microsoft YaHei&quot;, &quot;微软雅黑&quot;, STXihei, &quot;华文细黑&quot;" font-weight="normal" text-anchor="start" style="mix-blend-mode: normal"><tspan x="0" dy="0">TIMEZONES</tspan></text></g></g></svg>