<svg version="1.1" xmlns="http://www.w3.org/2000/svg" xmlns:xlink="http://www.w3.org/1999/xlink" width="309.2973" height="159.64866" viewBox="0,0,309.2973,159.64866"><defs><linearGradient x1="240" y1="105.17567" x2="240" y2="254.82433" gradientUnits="userSpaceOnUse" id="color-1"><stop offset="0" stop-color="#221f4e"/><stop offset="1" stop-color="#34317a"/></linearGradient></defs><g transform="translate(-85.35135,-100.17566)"><g fill-rule="nonzero" stroke-linejoin="miter" stroke-miterlimit="10" stroke-dasharray="" stroke-dashoffset="0" style="mix-blend-mode: normal"><path d="M91.82504,133.73364c0.41001,-1.59942 0.638,-3.22868 0.33857,-4.93329c0,-0.98832 -0.11742,-1.94876 -0.33857,-2.86858v-15.85523h184.86277c0.66638,0.00978 1.35038,0.01272 2.03927,0h100.81574c0.44166,0.02358 0.88427,0.02358 1.32592,0h4.51741v146.78056h-183.20611c-1.0448,-0.28239 -2.12242,-0.42503 -3.20471,-0.42419c-1.08213,-0.00079 -2.15958,0.14185 -3.20422,0.42419h-29.73382c-0.71091,-0.12868 -1.44334,-0.19571 -2.19094,-0.19571c-0.74809,0 -1.48052,0.06703 -2.19144,0.19571h-25.93955c-0.89578,-0.09816 -1.7996,-0.09816 -2.69538,0h-0.25295c-0.71091,-0.12868 -1.44334,-0.19571 -2.19094,-0.19571c-0.74809,0 -1.48052,0.06703 -2.19144,0.19571h-24.83869c-0.89578,-0.09816 -1.7996,-0.09816 -2.69538,0h-6.73478c-0.06438,-2.44279 -0.86259,-4.80965 -2.29075,-6.79252z" fill="#534dc1" stroke="none" stroke-width="1" stroke-linecap="butt"/><path d="M301.64099,213.43598c3.2121,-17.56195 0.54284,-34.88475 -7.80285,-50.41321c-2.49406,-4.65993 -7.8811,-11.76647 -11.78466,-15.55347c-7.99204,-7.76386 -17.25774,-13.23727 -27.50485,-16.30495c-3.17861,-0.94852 -10.55172,-2.24605 -14.01854,-2.46391c-21.60015,-1.38859 -41.52431,7.464 -53.33719,23.67933c-10.5466,14.48703 -13.13926,33.47539 -6.87354,50.20986c1.54667,4.09788 2.43652,5.76087 5.41913,10.05493c3.00747,4.32985 4.30486,5.81585 7.61587,8.63519c9.81174,8.43616 22.9377,11.94443 35.52132,9.51669c15.19101,-2.9126 26.53016,-14.502 27.93739,-28.4762c1.03681,-10.26879 -2.67095,-19.31092 -10.03349,-24.48829c-4.22059,-2.98327 -9.86847,-4.12639 -14.96593,-3.02596c-2.28083,0.49676 -4.65306,1.58747 -6.05656,2.77452c-0.57651,0.50653 -1.00292,0.96186 -0.94774,1.00311c0.03728,0.05367 0.96026,-0.03041 2.02638,-0.21392c2.62678,-0.41876 5.36795,0.09094 7.78664,1.43467c2.46143,1.3671 3.58035,2.36702 5.54637,5.00656c1.61805,2.13857 1.75624,2.41391 2.4856,4.53318c2.88013,8.42342 -1.42528,17.46138 -10.50611,21.99172c-5.08837,2.52641 -9.60782,3.19884 -14.68509,2.18986c-6.84278,-1.37412 -12.12507,-4.89309 -16.23163,-10.76711c-2.62221,-3.7752 -4.23499,-7.85369 -5.06501,-12.71458c-1.91618,-11.42708 1.89794,-22.77618 10.52361,-31.20768c1.80356,-1.75669 2.48195,-2.30747 5.60361,-4.34312c2.5188,-1.64344 4.1266,-2.57453 5.52967,-3.15122c8.49939,-3.64905 16.99606,-4.59076 26.19529,-2.91715c12.20632,2.18426 22.9265,9.14067 30.20904,19.62535c4.85917,6.99575 7.70042,14.33217 8.93043,23.05297c2.39585,16.92918 -3.0375,34.30993 -14.68919,46.93866c-3.6354,3.93088 -4.87788,5.00609 -10.2579,8.71646c-5.34969,3.71584 -6.89835,4.57933 -11.70099,6.56246c-19.42125,7.9728 -42.41214,6.22399 -60.59065,-4.59661c-22.02328,-13.11006 -35.29336,-36.83559 -35.67523,-63.81048c-0.2348,-17.36926 5.11809,-34.21668 15.39385,-48.32991c5.54066,-7.64141 11.51542,-13.4359 19.59015,-19.07104c8.58814,-5.96522 16.74555,-9.80111 26.63523,-12.47959c19.91704,-5.42605 40.88348,-3.99515 60.273,4.1011c3.71,1.56081 11.18923,5.56965 14.52553,7.81442c8.08625,5.41736 14.74607,11.45416 20.95622,18.94383c2.85181,3.45658 8.58294,12.12774 10.54112,15.93979c4.60737,9.0008 7.85935,18.22689 9.61775,27.40293c3.40292,17.76807 2.25651,35.59274 -3.3384,52.74089c-2.67279,8.16367 -6.38837,15.91301 -10.99673,23.09186c-0.58134,-0.0679 -31.42426,-0.78098 -33.32197,-1.11933c11.57521,-11.66031 18.68982,-25.04554 21.52101,-40.51258z" fill="#423e9b" stroke="none" stroke-width="1" stroke-linecap="butt"/><path d="M161.53511,111.5834c-20.30036,19.53782 -31.31994,46.28917 -30.64969,74.44298c0.12527,5.29736 0.42531,8.66969 1.22651,13.60365c1.67503,10.50709 4.74413,19.96631 9.45938,29.23699c4.11983,8.08961 10.32143,16.58314 16.76239,23.02953c-3.05776,-0.08293 -30.71672,3.10345 -31.96022,3.36675c-3.33174,-4.73147 -6.34543,-9.74439 -9.01696,-15.01437c-8.77828,-17.29685 -13.47772,-37.77163 -13.25501,-57.76626c0.30781,-27.72101 9.40339,-54.00034 25.78279,-75.48266c10.53925,0 35.21837,-0.1568 37.14805,-0.28508c-1.95982,1.60449 -3.81134,3.24074 -5.49723,4.86847z" fill="#423e9b" stroke="none" stroke-width="1" stroke-linecap="butt"/><path d="M345.88571,227.87443c6.54622,-27.46365 3.15698,-57.81359 -9.24839,-82.77632c-3.25621,-6.59728 -9.03757,-15.68445 -13.26434,-20.89145c-4.2086,-5.18969 -8.76749,-9.932 -13.62959,-14.20666c11.93038,0 24.46319,0 36.39758,0c1.09481,1.47667 2.27961,3.14545 3.72244,5.22271c5.51783,7.94403 8.89972,13.84396 12.60887,22.00983c16.41008,36.10071 17.68931,77.14372 4.3674,113.77253c-4.5349,0.06723 -28.39988,-1.00507 -28.39988,-1.00507c3.14092,-6.99023 5.56856,-14.23929 7.4459,-22.12557z" fill="#423e9b" stroke="none" stroke-width="1" stroke-linecap="butt"/><path d="M90.35135,117.67133c0,-6.39897 5.91545,-12.49566 13.1192,-12.49566c28.93252,0 219.72832,0 272.60996,0c8.61359,0 13.56814,4.64378 13.56814,12.24625c0,30.59212 0,109.0924 0,125.70487c0,6.03964 -4.85913,11.69754 -13.31873,11.69754c-52.46667,0 -243.42599,0 -272.60996,0c-7.3279,0 -13.36861,-4.5235 -13.36861,-11.94695c0,-30.16113 0,-108.19342 0,-125.20604z" fill="none" stroke="url(#color-1)" stroke-width="10" stroke-linecap="butt"/><path d="M202.29378,166.5572c-4.41014,-21.00536 9.04295,-41.60868 30.04831,-46.01882c21.00536,-4.41013 41.60868,9.04295 46.01882,30.04831c4.41014,21.00536 -9.04295,41.60869 -30.04831,46.01882c-21.00536,4.41013 -41.60868,-9.04295 -46.01882,-30.04831z" fill="none" stroke-opacity="0.49412" stroke="#000000" stroke-width="10" stroke-linecap="butt"/><path d="M243.54307,175.94791c-0.41788,-1.99035 0.85686,-3.9426 2.8472,-4.36048l33.33557,-6.9989c1.99036,-0.41788 3.9426,0.85686 4.36048,2.84721l1.65515,7.88341c0.41788,1.99035 -0.85686,3.9426 -2.84721,4.36048l-33.33556,6.9989c-1.99036,0.41788 -3.9426,-0.85686 -4.36048,-2.84721z" fill="none" stroke-opacity="0.49412" stroke="#000000" stroke-width="10" stroke-linecap="butt"/><path d="M264.95664,196.73274c-1.99036,0.41788 -3.9426,-0.85686 -4.36048,-2.84721l-6.9989,-33.33557c-0.41788,-1.99035 0.85687,-3.9426 2.84721,-4.36048l7.88341,-1.65515c1.99036,-0.41788 3.9426,0.85686 4.36048,2.84721l6.9989,33.33557c0.41788,1.99035 -0.85686,3.9426 -2.84721,4.36048z" fill="none" stroke-opacity="0.49412" stroke="#000000" stroke-width="10" stroke-linecap="butt"/><path d="M202.29378,166.5572c-4.41014,-21.00536 9.04295,-41.60868 30.04831,-46.01882c21.00536,-4.41013 41.60868,9.04295 46.01882,30.04831c4.41014,21.00536 -9.04295,41.60869 -30.04831,46.01882c-21.00536,4.41013 -41.60868,-9.04295 -46.01882,-30.04831z" fill="#5b54d0" stroke="none" stroke-width="0" stroke-linecap="butt"/><path d="M232.66376,189.04318c-16.8288,-4.23247 -27.04016,-21.30601 -22.80767,-38.13481c4.23248,-16.8288 21.30602,-27.04015 38.13482,-22.80767c16.82881,4.23247 27.04015,21.30601 22.80768,38.13481c-4.23248,16.8288 -21.30601,27.04015 -38.13482,22.80768z" fill="#ffffff" stroke="none" stroke-width="0" stroke-linecap="butt"/><path d="M243.4395,156.18088c-0.42989,0.70858 -2.82169,0.14193 -2.86757,-0.73057c-0.11349,-2.15804 -0.0459,-12.68824 -0.0459,-12.68824c0,0 5.71889,-9.27708 6.84472,-11.1328c0.45952,-0.75743 0.99313,-0.62322 1.03967,0.26148c0.27017,5.13762 0.69947,13.30143 0.69947,13.30143c0,0 -4.5684,9.1723 -5.67039,10.9887z" fill="#5b54d0" stroke="none" stroke-width="0" stroke-linecap="butt"/><path d="M237.09687,158.3294c0.58841,0.07376 1.12224,2.2039 0.5856,2.52456c-1.32734,0.79313 -8.52028,3.99095 -8.52028,3.99095c-1.2138,-0.15215 -7.72015,-0.96779 -9.26114,-1.16098c-0.62897,-0.07884 -0.71841,-0.50486 -0.17426,-0.83c1.33319,-0.79662 8.18132,-4.88861 8.18132,-4.88861c0,0 7.68043,0.17498 9.18877,0.36407z" fill="#5b54d0" stroke="none" stroke-width="0" stroke-linecap="butt"/><path d="M235.36582,159.61363c-0.57531,-2.74017 1.17966,-5.42789 3.91983,-6.0032c2.74017,-0.5753 5.42789,1.17965 6.0032,3.91983c0.57531,2.74017 -1.17966,5.42789 -3.91983,6.0032c-2.74017,0.5753 -5.42789,-1.17965 -6.0032,-3.91983z" fill="#5b54d0" stroke="none" stroke-width="0" stroke-linecap="butt"/><path d="M243.54307,175.94791c-0.41788,-1.99035 0.85686,-3.9426 2.8472,-4.36048l33.33557,-6.9989c1.99036,-0.41788 3.9426,0.85686 4.36048,2.84721l1.65515,7.88341c0.41788,1.99035 -0.85686,3.9426 -2.84721,4.36048l-33.33556,6.9989c-1.99036,0.41788 -3.9426,-0.85686 -4.36048,-2.84721z" fill="#5b54d0" stroke="#5b54d0" stroke-width="0" stroke-linecap="butt"/><path d="M264.95664,196.73274c-1.99036,0.41788 -3.9426,-0.85686 -4.36048,-2.84721l-6.9989,-33.33557c-0.41788,-1.99035 0.85687,-3.9426 2.84721,-4.36048l7.88341,-1.65515c1.99036,-0.41788 3.9426,0.85686 4.36048,2.84721l6.9989,33.33557c0.41788,1.99035 -0.85686,3.9426 -2.84721,4.36048z" fill="#5b54d0" stroke="#5b54d0" stroke-width="0" stroke-linecap="butt"/><path d="M266.74929,192.71504c-1.92615,0.4044 -3.81543,-0.82922 -4.21983,-2.75537l-5.62902,-26.81087c-0.4044,-1.92614 0.82922,-3.81542 2.75536,-4.21982l2.83367,-0.59494c1.92615,-0.4044 3.81542,0.82922 4.21982,2.75537l5.62902,26.81087c0.4044,1.92614 -0.82921,3.81543 -2.75536,4.21983z" fill="#ffffff" stroke="none" stroke-width="0" stroke-linecap="butt"/><path d="M247.56076,177.74055c-0.4044,-1.92614 0.82922,-3.81542 2.75536,-4.21982l26.81087,-5.62902c1.92615,-0.4044 3.81542,0.82922 4.21982,2.75536l0.59494,2.83367c0.4044,1.92614 -0.82921,3.81542 -2.75536,4.21982l-26.81088,5.62902c-1.92615,0.4044 -3.81543,-0.82922 -4.21983,-2.75536z" fill="#ffffff" stroke="none" stroke-width="0" stroke-linecap="butt"/><path d="M117.68616,153.79337c-0.04189,0.57109 -1.48215,0.75254 -4.3208,0.54436c-2.83865,-0.20818 -4.23703,-0.59781 -4.19514,-1.1689l1.58292,-21.58381l-5.1566,-0.37817c-0.48711,-0.03572 -0.78298,-0.72164 -0.88764,-2.05777c-0.03799,-0.63324 -0.03276,-1.28019 0.01569,-1.94087c0.04845,-0.66067 0.13767,-1.30146 0.26764,-1.92238c0.29846,-1.30656 0.69125,-1.94198 1.17836,-1.90626l18.70317,1.37166c0.48711,0.03572 0.78299,0.72164 0.88765,2.05777c0.03799,0.63324 0.03276,1.28019 -0.01569,1.94087c-0.04845,0.66067 -0.13767,1.30147 -0.26764,1.92239c-0.29846,1.30656 -0.69124,1.94197 -1.17835,1.90625l-5.03062,-0.36893zM133.94958,155.41673c-0.01683,0.22956 -1.3382,0.24804 -3.96409,0.05546c-2.62029,-0.19216 -3.92305,-0.38904 -3.90826,-0.5906l1.54843,-21.11349c0.01438,-0.19596 1.3317,-0.19785 3.95199,-0.00568c2.62589,0.19258 3.93268,0.37285 3.92037,0.54082zM135.68402,131.76692c-0.01478,0.20156 -1.33512,0.20605 -3.96101,0.01347c-2.62029,-0.19216 -3.92407,-0.37504 -3.91134,-0.5486l0.45394,-6.18959c0.02095,-0.28555 1.34155,-0.33222 3.96184,-0.14006c2.62589,0.19258 3.93248,0.37566 3.91975,0.54922zM157.30033,157.17144c-0.01478,0.20156 -1.24834,0.21242 -3.70066,0.03257c-2.45232,-0.17985 -3.66904,-0.39854 -3.65015,-0.6561l0.91772,-12.51358c0.10512,-1.43332 -0.31543,-2.18468 -1.26164,-2.25407c-0.48711,-0.03572 -1.15418,0.2334 -2.00123,0.80736l-1.00888,13.75653c-0.02095,0.28555 -1.25758,0.33839 -3.7099,0.15855c-2.45232,-0.17985 -3.66699,-0.42655 -3.64399,-0.74008l1.03105,-14.05886l-1.07498,-0.07884c-0.94622,-0.06939 -1.34685,-1.0923 -1.2019,-3.06871c0.06528,-0.89022 0.30516,-1.78172 0.71964,-2.67448c0.5515,-1.22609 1.34235,-1.80134 2.37255,-1.7258c1.0302,0.07555 2.0041,0.41998 2.92168,1.03329c0.92318,0.61372 1.46769,1.17153 1.63352,1.67342c1.89584,-1.44272 3.92435,-2.08483 6.08553,-1.92633c2.16678,0.15891 3.85877,0.95849 5.07596,2.39872c1.64944,-1.23 3.56316,-1.76514 5.74113,-1.60541c4.73109,0.34697 6.88536,3.40109 6.46284,9.16237l-0.95837,13.06787c-0.01478,0.20156 -1.24834,0.21242 -3.70066,0.03257c-2.45232,-0.17985 -3.66904,-0.39854 -3.65015,-0.6561l0.91772,-12.51357c0.10512,-1.43332 -0.31543,-2.18468 -1.26164,-2.25407c-0.5151,-0.03778 -1.19617,0.23031 -2.04322,0.80427zM188.02803,158.47929c-1.88605,0.92557 -4.24841,1.28426 -7.08706,1.07608c-2.83864,-0.20818 -5.16134,-1.34954 -6.9681,-3.42406c-1.80635,-2.08012 -2.58388,-4.83344 -2.33258,-8.25997c0.2513,-3.42654 1.39134,-6.11523 3.42014,-8.06606c2.03481,-1.95603 4.48554,-2.82892 7.35217,-2.61869c2.86663,0.21024 5.02743,1.10329 6.48236,2.67917c1.45493,1.57588 2.1056,3.41082 1.95203,5.50481c-0.3404,4.6415 -3.17568,6.76679 -8.50584,6.37589l-2.97303,-0.21804c-0.06323,0.86223 0.12818,1.47576 0.57427,1.8406c0.45168,0.36524 1.13664,0.58153 2.05486,0.64888c2.01001,0.14741 3.95012,-0.17189 5.82031,-0.95789c0.03004,-0.02594 0.14424,0.18226 0.34259,0.62462c0.59792,1.28787 0.86588,2.35452 0.80388,3.19995c-0.062,0.84544 -0.37399,1.37701 -0.93597,1.59474zM183.56465,145.65551c0.08828,-1.20377 -0.45547,-1.84875 -1.63124,-1.93498c-0.54309,-0.03983 -1.02271,0.09105 -1.43886,0.39264c-0.41055,0.30201 -0.63882,0.76654 -0.68481,1.39362l-0.09793,1.33535l2.32635,0.17061c0.94622,0.06939 1.45506,-0.38302 1.5265,-1.35722z" fill="none" stroke-opacity="0.50196" stroke="#000000" stroke-width="10" stroke-linecap="square"/><path d="M117.68616,153.79337c-0.04189,0.57109 -1.48215,0.75254 -4.3208,0.54436c-2.83865,-0.20818 -4.23703,-0.59781 -4.19514,-1.1689l1.58292,-21.58381l-5.1566,-0.37817c-0.48711,-0.03572 -0.78298,-0.72164 -0.88764,-2.05777c-0.03799,-0.63324 -0.03276,-1.28019 0.01569,-1.94087c0.04845,-0.66067 0.13767,-1.30146 0.26764,-1.92238c0.29846,-1.30656 0.69125,-1.94198 1.17836,-1.90626l18.70317,1.37166c0.48711,0.03572 0.78299,0.72164 0.88765,2.05777c0.03799,0.63324 0.03276,1.28019 -0.01569,1.94087c-0.04845,0.66067 -0.13767,1.30147 -0.26764,1.92239c-0.29846,1.30656 -0.69124,1.94197 -1.17835,1.90625l-5.03062,-0.36893zM133.94958,155.41673c-0.01683,0.22956 -1.3382,0.24804 -3.96409,0.05546c-2.62029,-0.19216 -3.92305,-0.38904 -3.90826,-0.5906l1.54843,-21.11349c0.01438,-0.19596 1.3317,-0.19785 3.95199,-0.00568c2.62589,0.19258 3.93268,0.37285 3.92037,0.54082zM135.68402,131.76692c-0.01478,0.20156 -1.33512,0.20605 -3.96101,0.01347c-2.62029,-0.19216 -3.92407,-0.37504 -3.91134,-0.5486l0.45394,-6.18959c0.02095,-0.28555 1.34155,-0.33222 3.96184,-0.14006c2.62589,0.19258 3.93248,0.37566 3.91975,0.54922zM157.30033,157.17144c-0.01478,0.20156 -1.24834,0.21242 -3.70066,0.03257c-2.45232,-0.17985 -3.66904,-0.39854 -3.65015,-0.6561l0.91772,-12.51358c0.10512,-1.43332 -0.31543,-2.18468 -1.26164,-2.25407c-0.48711,-0.03572 -1.15418,0.2334 -2.00123,0.80736l-1.00888,13.75653c-0.02095,0.28555 -1.25758,0.33839 -3.7099,0.15855c-2.45232,-0.17985 -3.66699,-0.42655 -3.64399,-0.74008l1.03105,-14.05886l-1.07498,-0.07884c-0.94622,-0.06939 -1.34685,-1.0923 -1.2019,-3.06871c0.06528,-0.89022 0.30516,-1.78172 0.71964,-2.67448c0.5515,-1.22609 1.34235,-1.80134 2.37255,-1.7258c1.0302,0.07555 2.0041,0.41998 2.92168,1.03329c0.92318,0.61372 1.46769,1.17153 1.63352,1.67342c1.89584,-1.44272 3.92435,-2.08483 6.08553,-1.92633c2.16678,0.15891 3.85877,0.95849 5.07596,2.39872c1.64944,-1.23 3.56316,-1.76514 5.74113,-1.60541c4.73109,0.34697 6.88536,3.40109 6.46284,9.16237l-0.95837,13.06787c-0.01478,0.20156 -1.24834,0.21242 -3.70066,0.03257c-2.45232,-0.17985 -3.66904,-0.39854 -3.65015,-0.6561l0.91772,-12.51357c0.10512,-1.43332 -0.31543,-2.18468 -1.26164,-2.25407c-0.5151,-0.03778 -1.19617,0.23031 -2.04322,0.80427zM188.02803,158.47929c-1.88605,0.92557 -4.24841,1.28426 -7.08706,1.07608c-2.83864,-0.20818 -5.16134,-1.34954 -6.9681,-3.42406c-1.80635,-2.08012 -2.58388,-4.83344 -2.33258,-8.25997c0.2513,-3.42654 1.39134,-6.11523 3.42014,-8.06606c2.03481,-1.95603 4.48554,-2.82892 7.35217,-2.61869c2.86663,0.21024 5.02743,1.10329 6.48236,2.67917c1.45493,1.57588 2.1056,3.41082 1.95203,5.50481c-0.3404,4.6415 -3.17568,6.76679 -8.50584,6.37589l-2.97303,-0.21804c-0.06323,0.86223 0.12818,1.47576 0.57427,1.8406c0.45168,0.36524 1.13664,0.58153 2.05486,0.64888c2.01001,0.14741 3.95012,-0.17189 5.82031,-0.95789c0.03004,-0.02594 0.14424,0.18226 0.34259,0.62462c0.59792,1.28787 0.86588,2.35452 0.80388,3.19995c-0.062,0.84544 -0.37399,1.37701 -0.93597,1.59474zM183.56465,145.65551c0.08828,-1.20377 -0.45547,-1.84875 -1.63124,-1.93498c-0.54309,-0.03983 -1.02271,0.09105 -1.43886,0.39264c-0.41055,0.30201 -0.63882,0.76654 -0.68481,1.39362l-0.09793,1.33535l2.32635,0.17061c0.94622,0.06939 1.45506,-0.38302 1.5265,-1.35722z" fill="#ffffff" stroke="none" stroke-width="1" stroke-linecap="square"/><path d="M190.42648,213.12403c1.83095,-0.11548 3.45771,0.04121 4.88029,0.47007c1.42652,0.4244 2.16746,1.07543 2.22281,1.95311c0.05535,0.87768 -0.21003,1.98429 -0.79616,3.31982c-0.58219,1.33107 -1.09796,2.01077 -1.5473,2.03911c-0.12598,0.00795 -0.2751,-0.05011 -0.44735,-0.17416c-0.17252,-0.12825 -0.5579,-0.25573 -1.15615,-0.38242c-0.59825,-0.12669 -1.11154,-0.17654 -1.53988,-0.14952c-1.453,0.09164 -2.59219,0.67996 -3.41757,1.76497c-0.82539,1.08501 6.0788,1.43786 6.21255,3.55856c0.13349,2.1165 -6.55958,4.91032 -5.57922,5.88144c0.98036,0.97112 2.17185,1.41244 3.57445,1.32398c0.57532,-0.03628 1.21476,-0.15883 1.91834,-0.36763c0.70777,-0.20907 1.20343,-0.47221 1.48699,-0.78944c0.04721,-0.05357 0.14431,-0.08499 0.29129,-0.09426c0.15118,-0.00953 0.45042,0.25618 0.89772,0.79714c0.45123,0.5365 0.88209,1.25136 1.29258,2.14459c0.41049,0.89323 0.6315,1.5897 0.66301,2.08943c0.06171,0.97847 -0.64295,1.805 -2.11399,2.4796c-1.4671,0.67014 -3.22952,1.0701 -5.28723,1.19988c-3.30914,0.20871 -6.10386,-0.785 -8.38416,-2.98113c-2.28056,-2.20033 -3.55487,-5.4254 -3.8229,-9.6752c-0.2683,-4.25401 0.61692,-7.66587 2.65566,-10.23559c2.04267,-2.57418 4.70808,-3.96497 7.99623,-4.17235zM203.52573,225.35416c-0.78049,-1.21139 -1.19564,-2.21183 -1.24544,-3.00132c-0.04979,-0.78949 0.13023,-1.311 0.54007,-1.56452c1.39254,-0.71603 3.33603,-1.15271 5.83048,-1.31003c2.49445,-0.15733 4.29292,0.31528 5.39541,1.41783c1.10222,1.09835 1.72538,2.78976 1.86946,5.07424l0.37504,5.94638l1.27872,-0.08065c0.42834,-0.02702 0.77585,0.20192 1.04254,0.68682c0.27089,0.48463 0.43413,1.16789 0.48976,2.04976c0.05535,0.87768 -0.11055,1.75666 -0.49772,2.63695c-0.38297,0.88003 -0.95031,1.34375 -1.702,1.39115c-1.35221,0.08528 -2.46697,-0.2091 -3.34427,-0.88316c-0.39282,-0.27879 -0.70352,-0.62599 -0.93211,-1.04162c-1.06293,1.53003 -2.81013,2.37173 -5.24159,2.52508c-1.83095,0.11548 -3.41528,-0.43809 -4.75301,-1.66072c-1.33379,-1.22709 -2.05698,-2.73301 -2.16954,-4.51776c-0.25771,-4.08603 2.0575,-6.28319 6.94562,-6.59149l2.07241,-0.13071l-0.02384,-0.37795c-0.04106,-0.65091 -0.17463,-1.0641 -0.40071,-1.23956c-0.22609,-0.17547 -0.72758,-0.2387 -1.50447,-0.1897c-0.95327,0.06013 -2.29486,0.34711 -4.02479,0.86097zM206.97333,232.087c0.0347,0.55013 0.21026,0.96066 0.52669,1.23162c0.32063,0.27069 0.71192,0.39147 1.17385,0.36233c0.46613,-0.0294 0.87626,-0.24499 1.23037,-0.64678l-0.18275,-2.8976l-1.05195,0.06635c-1.20523,0.07602 -1.77063,0.70404 -1.69621,1.88408zM228.29863,237.19899c0.0143,0.22677 -1.25727,0.4208 -3.81471,0.5821c-2.00891,0.10141 -3.01892,0.06393 -3.03005,-0.11245l-1.61577,-25.61853c-0.02384,-0.37795 1.17998,-0.6436 3.61143,-0.79695c2.13807,-0.05896 3.21267,-0.00025 3.22379,0.17613zM237.28293,227.56979c0.15494,2.45666 1.16048,3.62645 3.01662,3.50939c1.20523,-0.07602 2.19393,-0.37658 2.96609,-0.9017c0.37795,-0.02384 0.72529,0.60353 1.04203,1.88212c0.32068,1.27412 0.49572,2.14426 0.52512,2.61039c0.02913,0.46194 -0.01452,0.77247 -0.13097,0.93159c-1.27484,0.91098 -3.0671,1.4393 -5.37677,1.58498c-2.30548,0.14541 -4.32287,-0.58955 -6.05217,-2.20488c-1.72537,-1.61979 -2.68168,-3.91418 -2.86894,-6.88317c-0.18752,-2.97319 0.45677,-5.42544 1.93287,-7.35677c1.4803,-1.93159 3.54326,-2.98082 6.18889,-3.14768c2.64563,-0.16686 4.52313,0.35558 5.63251,1.56731c0.24425,0.26286 0.38346,0.66515 0.41762,1.20687c0.0339,0.53752 -0.02543,1.20109 -0.17801,1.9907c-0.34816,1.63251 -0.87965,2.5978 -1.59445,2.89585c-0.0992,0.03155 -0.24328,0.05329 -0.43225,0.06521c-0.18477,0.01165 -0.42528,-0.12496 -0.72151,-0.40984c-1.04018,-0.91675 -1.85632,-1.35645 -2.44844,-1.31911c-0.58792,0.03708 -1.07698,0.37149 -1.46718,1.00322c-0.38626,0.62727 -0.53662,1.6191 -0.45107,2.97551zM246.29597,217.70479c-0.01721,-0.27296 1.05132,-0.47738 3.20563,-0.61325c2.1585,-0.13614 3.24636,-0.06773 3.26357,0.20523l0.69287,10.98567c0.0792,1.25563 0.51983,1.85814 1.32192,1.80755c0.60472,-0.03814 1.26637,-0.34338 1.98496,-0.91572l-0.762,-12.08172c-0.01563,-0.24777 1.04111,-0.43879 3.17022,-0.57307c2.1333,-0.13455 3.20776,-0.07794 3.22339,0.16982l0.77829,12.33998l0.98266,-0.06198c0.85248,-0.05377 1.33023,0.73614 1.43326,2.36971c0.05218,0.82728 -0.07123,1.67829 -0.37021,2.55302c-0.43007,1.13596 -1.07135,1.73083 -1.92383,1.7846c-1.68397,0.10621 -2.97056,-0.5062 -3.85979,-1.83722l-0.03541,0.04018c-1.44304,1.45282 -3.04223,2.23458 -4.79759,2.3453c-2.43566,0.15362 -4.26931,-0.34207 -5.50096,-1.48706c-1.22745,-1.14526 -1.92976,-3.12259 -2.10696,-5.932zM274.95326,234.25646c0.0143,0.22677 -1.25727,0.4208 -3.81471,0.5821c-2.00891,0.10141 -3.01892,0.06392 -3.03005,-0.11245l-1.61577,-25.61853c-0.02384,-0.37795 1.17998,-0.6436 3.61143,-0.79695c2.13807,-0.05896 3.21267,-0.00025 3.22379,0.17612zM279.86624,220.53933c-0.78049,-1.21139 -1.19564,-2.21183 -1.24543,-3.00132c-0.04979,-0.78949 0.13023,-1.311 0.54007,-1.56452c1.39254,-0.71603 3.33603,-1.15271 5.83049,-1.31003c2.49445,-0.15733 4.29292,0.31528 5.39541,1.41783c1.10222,1.09835 1.72538,2.78976 1.86946,5.07424l0.37504,5.94638l1.27872,-0.08065c0.42834,-0.02702 0.77585,0.20192 1.04254,0.68682c0.27089,0.48463 0.43414,1.16789 0.48976,2.04976c0.05535,0.87768 -0.11055,1.75666 -0.49772,2.63695c-0.38297,0.88003 -0.95031,1.34375 -1.702,1.39115c-1.35221,0.08528 -2.46697,-0.2091 -3.34427,-0.88316c-0.39282,-0.27879 -0.70352,-0.62599 -0.93211,-1.04162c-1.06293,1.53003 -2.81013,2.37173 -5.24159,2.52508c-1.83095,0.11548 -3.41528,-0.43809 -4.75301,-1.66072c-1.33379,-1.22709 -2.05698,-2.73301 -2.16954,-4.51776c-0.25771,-4.08603 2.0575,-6.28319 6.94562,-6.59149l2.07241,-0.13071l-0.02384,-0.37795c-0.04106,-0.65091 -0.17463,-1.0641 -0.40071,-1.23956c-0.22609,-0.17547 -0.72758,-0.2387 -1.50447,-0.1897c-0.95327,0.06013 -2.29487,0.34711 -4.0248,0.86097zM283.31385,227.27216c0.0347,0.55013 0.21026,0.96066 0.52669,1.23162c0.32063,0.27069 0.71192,0.39147 1.17385,0.36233c0.46613,-0.0294 0.87626,-0.24499 1.23037,-0.64678l-0.18275,-2.8976l-1.05195,0.06635c-1.20523,0.07602 -1.77063,0.70404 -1.69621,1.88408zM306.45176,232.34572c0.01907,0.30236 -1.02545,0.52002 -3.13356,0.65298c-2.5134,0.05733 -3.77725,-0.02738 -3.79155,-0.25415l-0.83987,-13.31635l-1.92123,0.12117c-0.50393,0.03178 -0.81046,-0.81741 -0.91958,-2.54756c-0.0286,-0.45354 -0.01934,-1.00854 0.02779,-1.66501c0.04687,-0.66067 0.20889,-0.99975 0.48605,-1.01723l1.99682,-0.12594l-0.20858,-3.30704c-0.03178,-0.50393 1.01058,-0.82264 3.12709,-0.95613c2.1207,-0.13375 3.19376,0.00094 3.21918,0.40408l0.15176,2.40626l0.10414,1.04957l3.19996,-0.20182c0.42414,-0.02675 0.6917,0.83965 0.80267,2.5992c0.11071,1.75536 -0.046,2.64641 -0.47014,2.67316l-2.67083,0.16845zM318.52759,231.5841c0.01271,0.20157 -1.12947,0.37479 -3.42655,0.51967c-2.29288,0.14461 -3.44489,0.12873 -3.45601,-0.04765l-1.16524,-18.47532c-0.01086,-0.17218 1.13015,-0.33057 3.42303,-0.47518c2.29708,-0.14488 3.45026,-0.14383 3.45953,0.00315zM317.2225,210.89148c0.01112,0.17638 -1.13185,0.33701 -3.42893,0.48188c-2.29288,0.14461 -3.44409,0.14133 -3.45363,-0.00985l-0.34167,-5.41725c-0.01589,-0.25197 1.1226,-0.45025 3.41548,-0.59487c2.29708,-0.14488 3.45039,-0.14173 3.45993,0.00945zM323.42011,229.27708c-1.67577,-1.63557 -2.61006,-3.98194 -2.80288,-7.03911c-0.19308,-3.06137 0.43901,-5.50654 1.89627,-7.33549c1.46146,-1.82922 3.52131,-2.82765 6.17953,-2.99531c2.65823,-0.16765 4.8188,0.5646 6.4817,2.19676c1.66711,1.6319 2.5972,3.97853 2.79028,7.0399c0.19282,3.05717 -0.43507,5.50207 -1.88367,7.3347c-1.44466,1.82816 -3.49611,2.82607 -6.15433,2.99372c-2.65823,0.16765 -4.8272,-0.56407 -6.5069,-2.19517zM329.10803,218.18621c-1.4152,0.08926 -2.04997,1.28873 -1.90429,3.5984c0.14541,2.30548 0.92571,3.41359 2.34091,3.32433c1.4194,-0.08952 9.0564,-2.03702 8.911,-4.3425c-0.14567,-2.30968 -7.92821,-2.66976 -9.34762,-2.58023zM349.07699,229.65733c0.01112,0.17638 -0.88619,0.32151 -2.69194,0.4354c-2.51182,0.08253 -3.77409,0.02301 -3.7868,-0.17856l-0.76875,-12.1888l-0.98266,0.06198c-0.65091,0.04106 -1.11198,-0.48428 -1.38321,-1.57602c-0.07079,-0.32018 -0.11651,-0.64404 -0.13717,-0.9716c-0.049,-0.77689 0.05318,-1.56332 0.30654,-2.35928c0.38388,-1.13305 1.05245,-1.72964 2.00572,-1.78976c0.95327,-0.06013 1.82005,0.11288 2.60035,0.519c0.78003,0.40193 1.3102,0.81962 1.59051,1.25306c1.49369,-1.4518 3.33029,-2.24643 5.50979,-2.38389c2.1837,-0.13773 3.80199,0.35257 4.85488,1.4709c1.05263,1.11412 1.66356,3.0129 1.83281,5.69632l0.71194,11.28803c0.01907,0.30236 -1.04434,0.52121 -3.19024,0.65655c-2.1417,0.13508 -3.22209,0.05144 -3.24116,-0.25092l-0.68572,-10.87228c-0.0792,-1.25563 -0.55763,-1.85576 -1.43531,-1.80041c-0.25197,0.01589 -0.59796,0.14522 -1.03799,0.388c-0.43583,0.24251 -0.71356,0.41813 -0.83319,0.52686zM362.32149,222.25117c2.11012,1.10224 3.7552,1.61614 4.93523,1.54172c0.7517,-0.04741 1.11086,-0.33567 1.07749,-0.8648c-0.02357,-0.37375 -0.70743,-0.8218 -2.05159,-1.34414c-3.21328,-1.07904 -4.9117,-3.07365 -5.09524,-5.98385c-0.11707,-1.85614 0.46965,-3.31608 1.76015,-4.37983c1.2947,-1.06401 2.88901,-1.65575 4.78295,-1.7752c1.89394,-0.11945 3.51083,-0.01906 4.85067,0.30118c1.34378,0.31578 2.03619,0.79912 2.07725,1.45003c0.03496,0.55432 -0.18995,1.3 -0.67473,2.23704c-0.48058,0.93678 -0.81927,1.44931 -1.01608,1.53762c-1.11739,-0.53665 -2.3018,-0.76551 -3.55322,-0.68658c-0.67611,0.04264 -0.99906,0.30334 -0.96886,0.78207c0.01881,0.29816 0.16514,0.54611 0.43901,0.74386c0.27807,0.19748 0.77769,0.43159 1.49886,0.70231c0.7209,0.26652 1.32027,0.5112 1.79809,0.73404c0.48203,0.22257 1.02697,0.54024 1.63483,0.95303c1.26536,0.87725 1.94637,2.08227 2.04304,3.61506c0.12634,2.00312 -0.4369,3.66818 -1.68972,4.99516c-1.25282,1.32699 -3.22094,2.0751 -5.90436,2.24435c-1.78055,0.1123 -3.41836,-0.08585 -4.91343,-0.59447c-1.49114,-0.51307 -2.26995,-1.29664 -2.33643,-2.35069c-0.04423,-0.7013 0.07923,-1.45113 0.37038,-2.24947c0.29115,-0.79834 0.60306,-1.33449 0.93572,-1.60844z" fill="none" stroke-opacity="0.50588" stroke="#000000" stroke-width="10" stroke-linecap="square"/><path d="M190.17647,213.12403c1.83094,-0.11548 3.45771,0.04121 4.88029,0.47007c1.42652,0.4244 2.16746,1.07543 2.22281,1.95311c0.05536,0.87768 -0.21003,1.98428 -0.79616,3.31982c-0.5822,1.33107 -1.09796,2.01077 -1.5473,2.03911c-0.12598,0.00795 -0.2751,-0.05011 -0.44735,-0.17416c-0.17252,-0.12825 -0.5579,-0.25573 -1.15615,-0.38242c-0.59825,-0.1267 -1.11154,-0.17654 -1.53988,-0.14952c-1.453,0.09164 -2.59219,0.67996 -3.41757,1.76497c-0.82539,1.08501 -1.1712,2.68786 -1.03745,4.80857c0.13349,2.11651 0.69041,3.66032 1.67078,4.63143c0.98036,0.97112 2.17185,1.41244 3.57445,1.32398c0.57532,-0.03629 1.21476,-0.15883 1.91834,-0.36763c0.70777,-0.20907 1.20343,-0.47222 1.48698,-0.78944c0.04721,-0.05357 0.14431,-0.08499 0.29129,-0.09426c0.15118,-0.00953 0.45042,0.25618 0.89772,0.79714c0.45123,0.5365 0.88209,1.25136 1.29258,2.14459c0.41049,0.89322 0.63149,1.5897 0.66301,2.08943c0.06171,0.97846 -0.64295,1.805 -2.11399,2.4796c-1.4671,0.67014 -3.22951,1.0701 -5.28723,1.19988c-3.30914,0.20871 -6.10386,-0.785 -8.38416,-2.98113c-2.28056,-2.20033 -3.55487,-5.42539 -3.8229,-9.6752c-0.2683,-4.25401 0.61692,-7.66587 2.65566,-10.23559c2.04268,-2.57418 4.70808,-3.96497 7.99623,-4.17235zM203.52573,225.35416c-0.7805,-1.21139 -1.19564,-2.21183 -1.24543,-3.00133c-0.04979,-0.78949 0.13023,-1.31099 0.54007,-1.56451c1.39254,-0.71603 3.33603,-1.15271 5.83048,-1.31003c2.49445,-0.15733 4.29292,0.31528 5.39541,1.41783c1.10222,1.09835 1.72538,2.78976 1.86946,5.07424l0.37504,5.94637l1.27872,-0.08065c0.42834,-0.02702 0.77585,0.20193 1.04254,0.68682c0.27088,0.48463 0.43414,1.16789 0.48976,2.04977c0.05536,0.87768 -0.11055,1.75666 -0.49772,2.63695c-0.38297,0.88003 -0.95031,1.34374 -1.702,1.39115c-1.35221,0.08528 -2.46697,-0.2091 -3.34427,-0.88316c-0.39282,-0.27879 -0.70352,-0.62599 -0.93211,-1.04162c-1.06293,1.53003 -2.81013,2.37173 -5.24159,2.52508c-1.83094,0.11548 -3.41528,-0.4381 -4.75301,-1.66072c-1.3338,-1.22709 -2.05698,-2.73301 -2.16954,-4.51776c-0.25771,-4.08603 2.0575,-6.28319 6.94562,-6.59149l2.07241,-0.13071l-0.02384,-0.37795c-0.04105,-0.65091 -0.17462,-1.0641 -0.40071,-1.23956c-0.22609,-0.17547 -0.72758,-0.2387 -1.50447,-0.1897c-0.95327,0.06012 -2.29487,0.34711 -4.02479,0.86097zM206.97333,232.087c0.0347,0.55012 0.21026,0.96066 0.5267,1.23162c0.32063,0.27069 0.71192,0.39147 1.17385,0.36233c0.46614,-0.0294 0.87626,-0.24499 1.23037,-0.64678l-0.18275,-2.8976l-1.05195,0.06635c-1.20523,0.07601 -1.77064,0.70404 -1.69621,1.88408zM228.29863,237.19899c0.0143,0.22677 -1.25727,0.4208 -3.81471,0.5821c-2.00891,0.10141 -3.01893,0.06392 -3.03005,-0.11245l-1.61577,-25.61853c-0.02384,-0.37795 1.17997,-0.6436 3.61144,-0.79695c2.13807,-0.05896 3.21267,-0.00025 3.22379,0.17612zM237.28293,227.56979c0.15494,2.45666 1.16049,3.62645 3.01663,3.50939c1.20523,-0.07601 2.19393,-0.37658 2.96609,-0.9017c0.37795,-0.02384 0.72529,0.60354 1.04204,1.88213c0.32068,1.27412 0.49572,2.14425 0.52512,2.61039c0.02913,0.46194 -0.01452,0.77247 -0.13097,0.93159c-1.27484,0.91098 -3.0671,1.43931 -5.37677,1.58498c-2.30548,0.14541 -4.32287,-0.58955 -6.05217,-2.20488c-1.72537,-1.61979 -2.68168,-3.91418 -2.86893,-6.88316c-0.18752,-2.97319 0.45677,-5.42544 1.93287,-7.35677c1.4803,-1.93159 3.54326,-2.98082 6.1889,-3.14768c2.64563,-0.16686 4.52313,0.35557 5.63251,1.56731c0.24425,0.26286 0.38346,0.66515 0.41762,1.20688c0.0339,0.53753 -0.02543,1.20109 -0.17801,1.9907c-0.34816,1.63252 -0.87965,2.5978 -1.59445,2.89585c-0.0992,0.03155 -0.24328,0.05329 -0.43226,0.06521c-0.18477,0.01165 -0.42528,-0.12496 -0.72151,-0.40984c-1.04018,-0.91675 -1.85632,-1.35645 -2.44844,-1.31911c-0.58792,0.03708 -1.07698,0.37149 -1.46718,1.00322c-0.38627,0.62727 -0.53662,1.61911 -0.45107,2.97552zM246.29597,217.70479c-0.01722,-0.27296 1.05133,-0.47738 3.20563,-0.61325c2.1585,-0.13614 3.24636,-0.06773 3.26357,0.20524l0.69287,10.98567c0.07919,1.25563 0.51983,1.85814 1.32192,1.80756c0.60472,-0.03814 1.26637,-0.34338 1.98496,-0.91571l-0.762,-12.08172c-0.01563,-0.24777 1.04111,-0.43879 3.17022,-0.57307c2.1333,-0.13455 3.20777,-0.07794 3.22339,0.16983l0.77829,12.33998l0.98266,-0.06198c0.85248,-0.05377 1.33024,0.73614 1.43327,2.36971c0.05218,0.82729 -0.07123,1.67829 -0.37021,2.55302c-0.43007,1.13597 -1.07135,1.73083 -1.92383,1.7846c-1.68397,0.10621 -2.97056,-0.5062 -3.85979,-1.83722l-0.03541,0.04018c-1.44304,1.45282 -3.04223,2.23459 -4.79759,2.3453c-2.43566,0.15362 -4.26931,-0.34207 -5.50096,-1.48706c-1.22745,-1.14526 -1.92977,-3.12259 -2.10696,-5.932zM274.95326,234.25646c0.0143,0.22677 -1.25727,0.4208 -3.81471,0.5821c-2.00891,0.10141 -3.01893,0.06392 -3.03005,-0.11245l-1.61577,-25.61853c-0.02384,-0.37795 1.17997,-0.6436 3.61144,-0.79695c2.13807,-0.05896 3.21267,-0.00025 3.22379,0.17612zM279.86624,220.53933c-0.7805,-1.21139 -1.19564,-2.21183 -1.24543,-3.00133c-0.04979,-0.78949 0.13023,-1.31099 0.54007,-1.56451c1.39254,-0.71603 3.33603,-1.15271 5.83048,-1.31003c2.49445,-0.15733 4.29292,0.31528 5.39541,1.41783c1.10222,1.09835 1.72538,2.78976 1.86946,5.07424l0.37504,5.94637l1.27872,-0.08065c0.42834,-0.02702 0.77585,0.20193 1.04254,0.68682c0.27088,0.48463 0.43414,1.16789 0.48976,2.04977c0.05536,0.87768 -0.11055,1.75666 -0.49772,2.63695c-0.38297,0.88003 -0.95031,1.34374 -1.702,1.39115c-1.35221,0.08528 -2.46697,-0.2091 -3.34427,-0.88316c-0.39282,-0.27879 -0.70352,-0.62599 -0.93211,-1.04162c-1.06293,1.53003 -2.81013,2.37173 -5.24159,2.52508c-1.83094,0.11548 -3.41528,-0.4381 -4.75301,-1.66072c-1.3338,-1.22709 -2.05698,-2.73301 -2.16954,-4.51776c-0.25771,-4.08603 2.0575,-6.28319 6.94562,-6.59149l2.07241,-0.13071l-0.02384,-0.37795c-0.04105,-0.65091 -0.17462,-1.0641 -0.40071,-1.23956c-0.22609,-0.17547 -0.72758,-0.2387 -1.50447,-0.1897c-0.95327,0.06012 -2.29487,0.34711 -4.02479,0.86097zM283.31384,227.27216c0.0347,0.55012 0.21026,0.96066 0.5267,1.23162c0.32063,0.27069 0.71192,0.39147 1.17385,0.36233c0.46614,-0.0294 0.87626,-0.24499 1.23037,-0.64678l-0.18275,-2.8976l-1.05195,0.06635c-1.20523,0.07601 -1.77064,0.70404 -1.69621,1.88408zM306.45176,232.34572c0.01907,0.30236 -1.02545,0.52002 -3.13355,0.65298c-2.5134,0.05733 -3.77725,-0.02738 -3.79155,-0.25415l-0.83987,-13.31634l-1.92123,0.12117c-0.50393,0.03178 -0.81046,-0.81741 -0.91958,-2.54756c-0.0286,-0.45354 -0.01934,-1.00854 0.02779,-1.66501c0.04687,-0.66067 0.20889,-0.99975 0.48605,-1.01723l1.99682,-0.12594l-0.20858,-3.30704c-0.03178,-0.50393 1.01058,-0.82264 3.12708,-0.95613c2.1207,-0.13375 3.19376,0.00094 3.21918,0.40409l0.15176,2.40626l0.10414,1.04957l3.19995,-0.20182c0.42414,-0.02675 0.6917,0.83965 0.80268,2.59921c0.11071,1.75535 -0.046,2.64641 -0.47014,2.67316l-2.67083,0.16845zM318.52759,231.58409c0.01271,0.20157 -1.12947,0.3748 -3.42655,0.51967c-2.29288,0.14461 -3.44488,0.12873 -3.45601,-0.04764l-1.16525,-18.47533c-0.01086,-0.17218 1.13015,-0.33057 3.42303,-0.47518c2.29708,-0.14488 3.45025,-0.14383 3.45953,0.00315zM317.2225,210.89148c0.01112,0.17638 -1.13185,0.337 -3.42893,0.48188c-2.29288,0.14461 -3.44409,0.14133 -3.45362,-0.00985l-0.34167,-5.41725c-0.01589,-0.25196 1.1226,-0.45025 3.41548,-0.59487c2.29708,-0.14488 3.45039,-0.14173 3.45992,0.00945zM323.42011,229.27708c-1.67577,-1.63557 -2.61006,-3.98194 -2.80288,-7.03911c-0.19308,-3.06137 0.43901,-5.50654 1.89627,-7.33549c1.46146,-1.82922 3.5213,-2.82765 6.17953,-2.99531c2.65823,-0.16766 4.8188,0.5646 6.4817,2.19676c1.66711,1.6319 2.5972,3.97853 2.79028,7.0399c0.19282,3.05717 -0.43507,5.50207 -1.88367,7.33469c-1.44466,1.82816 -3.49611,2.82606 -6.15434,2.99372c-2.65823,0.16766 -4.8272,-0.56407 -6.5069,-2.19517zM329.10803,218.18621c-1.4152,0.08926 -2.04997,1.28873 -1.9043,3.5984c0.14541,2.30548 0.92571,3.41359 2.34092,3.32433c1.4194,-0.08952 2.0564,-1.28702 1.91099,-3.5925c-0.14567,-2.30968 -0.92821,-3.41976 -2.34761,-3.33023zM349.07698,229.65733c0.01112,0.17638 -0.88619,0.32151 -2.69194,0.4354c-2.51182,0.08253 -3.77408,0.02301 -3.7868,-0.17856l-0.76875,-12.1888l-0.98266,0.06198c-0.65091,0.04105 -1.11198,-0.48429 -1.38321,-1.57602c-0.07079,-0.32018 -0.11651,-0.64404 -0.13717,-0.9716c-0.049,-0.77689 0.05318,-1.56332 0.30654,-2.35928c0.38388,-1.13305 1.05245,-1.72964 2.00572,-1.78976c0.95327,-0.06012 1.82005,0.11288 2.60035,0.51901c0.78004,0.40193 1.31021,0.81961 1.59051,1.25306c1.49369,-1.4518 3.33029,-2.24643 5.50979,-2.38389c2.1837,-0.13773 3.80199,0.35257 4.85488,1.4709c1.05262,1.11412 1.66356,3.0129 1.8328,5.69633l0.71194,11.28803c0.01907,0.30236 -1.04435,0.52121 -3.19025,0.65655c-2.1417,0.13508 -3.22209,0.05144 -3.24116,-0.25092l-0.68572,-10.87229c-0.07919,-1.25563 -0.55763,-1.85576 -1.43531,-1.8004c-0.25196,0.01589 -0.59796,0.14522 -1.03799,0.388c-0.43583,0.24251 -0.71356,0.41813 -0.83318,0.52686zM362.32148,222.25117c2.11012,1.10224 3.7552,1.61614 4.93523,1.54172c0.7517,-0.04741 1.11086,-0.33568 1.07748,-0.8648c-0.02357,-0.37375 -0.70744,-0.82179 -2.0516,-1.34414c-3.21328,-1.07904 -4.91169,-3.07365 -5.09524,-5.98385c-0.11707,-1.85614 0.46965,-3.31609 1.76015,-4.37983c1.2947,-1.06401 2.88902,-1.65575 4.78295,-1.7752c1.89394,-0.11945 3.51083,-0.01906 4.85067,0.30119c1.34378,0.31578 2.03619,0.79912 2.07725,1.45003c0.03496,0.55432 -0.18995,1.3 -0.67473,2.23705c-0.48058,0.93678 -0.81927,1.44932 -1.01608,1.53762c-1.11739,-0.53665 -2.3018,-0.76551 -3.55322,-0.68658c-0.67611,0.04264 -0.99906,0.30333 -0.96887,0.78206c0.01881,0.29816 0.16514,0.54611 0.43901,0.74386c0.27807,0.19748 0.77769,0.43159 1.49886,0.70231c0.7209,0.26653 1.32027,0.5112 1.79809,0.73403c0.48203,0.22257 1.02697,0.54024 1.63483,0.95303c1.26536,0.87725 1.94637,2.08227 2.04304,3.61506c0.12634,2.00312 -0.4369,3.66817 -1.68972,4.99516c-1.25282,1.32699 -3.22094,2.0751 -5.90436,2.24435c-1.78055,0.1123 -3.41836,-0.08585 -4.91344,-0.59447c-1.49114,-0.51307 -2.26995,-1.29664 -2.33643,-2.35069c-0.04423,-0.7013 0.07923,-1.45113 0.37038,-2.24947c0.29115,-0.79835 0.60306,-1.33449 0.93572,-1.60844z" fill="#ffffff" stroke="none" stroke-width="1" stroke-linecap="square"/></g></g></svg>
