<svg xmlns="http://www.w3.org/2000/svg" width="309.297" height="159.649" viewBox="0 0 309.297 159.649"><defs><linearGradient x1="240" y1="105.176" x2="240" y2="254.824" gradientUnits="userSpaceOnUse" id="a"><stop offset="0" stop-color="#221f4e"/><stop offset="1" stop-color="#34317a"/></linearGradient></defs><g stroke-miterlimit="10" style="mix-blend-mode:normal"><path d="M6.474 33.558c.41-1.6.638-3.229.339-4.934 0-.988-.118-1.948-.339-2.868V9.901h184.863c.666.01 1.35.012 2.04 0h100.815q.662.034 1.326 0h4.517v146.78H116.829a12.3 12.3 0 0 0-3.205-.424c-1.082 0-2.16.142-3.204.424H80.686a12.3 12.3 0 0 0-4.382 0h-25.94c-.895-.098-1.8-.098-2.695 0h-.253a12.3 12.3 0 0 0-4.382 0H18.195c-.896-.098-1.8-.098-2.695 0H8.765a12.17 12.17 0 0 0-2.291-6.792z" fill="#534dc1"/><path d="M216.29 113.26c3.212-17.562.543-34.885-7.803-50.413-2.494-4.66-7.881-11.767-11.785-15.554-7.992-7.764-17.257-13.237-27.504-16.305-3.179-.948-10.552-2.246-14.019-2.464-21.6-1.388-41.524 7.464-53.337 23.68-10.547 14.487-13.14 33.475-6.874 50.21 1.547 4.098 2.437 5.76 5.42 10.055 3.007 4.33 4.304 5.815 7.615 8.635 9.812 8.436 22.938 11.944 35.522 9.516 15.19-2.912 26.53-14.502 27.937-28.476 1.037-10.269-2.67-19.31-10.033-24.488-4.221-2.983-9.869-4.126-14.966-3.026-2.281.497-4.653 1.587-6.057 2.775-.576.506-1.003.961-.948 1.003.038.053.96-.03 2.027-.214 2.627-.42 5.368.09 7.786 1.434 2.462 1.367 3.58 2.367 5.547 5.007 1.618 2.139 1.756 2.414 2.485 4.533 2.88 8.424-1.425 17.461-10.506 21.992-5.088 2.526-9.608 3.199-14.685 2.19-6.843-1.374-12.125-4.893-16.231-10.767-2.623-3.776-4.235-7.854-5.065-12.715-1.917-11.427 1.897-22.776 10.523-31.208 1.804-1.756 2.482-2.307 5.604-4.343 2.519-1.643 4.126-2.574 5.53-3.151 8.499-3.65 16.995-4.59 26.195-2.917 12.206 2.184 22.926 9.14 30.209 19.625 4.859 6.996 7.7 14.332 8.93 23.053 2.396 16.93-3.037 34.31-14.689 46.939-3.635 3.93-4.878 5.006-10.258 8.716-5.35 3.716-6.898 4.58-11.7 6.563-19.422 7.973-42.413 6.224-60.592-4.597-22.023-13.11-35.293-36.835-35.675-63.81-.235-17.37 5.118-34.217 15.394-48.33 5.54-7.642 11.515-13.436 19.59-19.071 8.588-5.966 16.746-9.801 26.635-12.48 19.917-5.426 40.884-3.995 60.273 4.101 3.71 1.561 11.19 5.57 14.526 7.815 8.086 5.417 14.746 11.454 20.956 18.943 2.852 3.457 8.583 12.128 10.541 15.94 4.608 9.001 7.86 18.227 9.618 27.403 3.403 17.768 2.257 35.593-3.338 52.741a101 101 0 0 1-10.997 23.092c-.581-.068-31.424-.781-33.322-1.12 11.575-11.66 18.69-25.045 21.52-40.512" fill="#423e9b"/><path d="M76.184 11.407c-20.3 19.538-31.32 46.29-30.65 74.443.126 5.298.426 8.67 1.227 13.604 1.675 10.507 4.744 19.966 9.46 29.237 4.12 8.09 10.32 16.583 16.762 23.03-3.058-.083-30.717 3.103-31.96 3.366a121.4 121.4 0 0 1-9.017-15.014c-8.779-17.297-13.478-37.772-13.255-57.766.307-27.721 9.403-54 25.782-75.483 10.54 0 35.219-.157 37.148-.285a90 90 0 0 0-5.497 4.868m184.351 116.291c6.546-27.463 3.157-57.813-9.249-82.776-3.256-6.597-9.037-15.684-13.264-20.891a117 117 0 0 0-13.63-14.207h36.398a209 209 0 0 1 3.722 5.223c5.518 7.944 8.9 13.844 12.61 22.01 16.41 36.1 17.689 77.143 4.367 113.772-4.535.067-28.4-1.005-28.4-1.005 3.14-6.99 5.568-14.24 7.446-22.126" fill="#423e9b"/><path d="M90.351 117.671c0-6.399 5.916-12.495 13.12-12.495h272.61c8.613 0 13.568 4.643 13.568 12.246v125.705c0 6.04-4.86 11.697-13.32 11.697H103.72c-7.328 0-13.369-4.523-13.369-11.947z" fill="none" stroke="url(#a)" stroke-width="10" transform="translate(-85.351 -100.176)"/><path d="M116.943 66.381c-4.41-21.005 9.043-41.608 30.048-46.019 21.005-4.41 41.609 9.043 46.019 30.049 4.41 21.005-9.043 41.608-30.048 46.019-21.006 4.41-41.61-9.043-46.02-30.049z" fill="none" stroke-opacity=".494" stroke="#000" stroke-width="10"/><path d="M158.192 75.772a3.68 3.68 0 0 1 2.847-4.36l33.336-7a3.68 3.68 0 0 1 4.36 2.848l1.655 7.883a3.68 3.68 0 0 1-2.847 4.36l-33.335 7a3.68 3.68 0 0 1-4.36-2.848z" fill="none" stroke-opacity=".494" stroke="#000" stroke-width="10"/><path d="M179.606 96.557a3.68 3.68 0 0 1-4.36-2.847l-7-33.336a3.68 3.68 0 0 1 2.847-4.36l7.884-1.656a3.68 3.68 0 0 1 4.36 2.848l7 33.335a3.68 3.68 0 0 1-2.848 4.36z" fill="none" stroke-opacity=".494" stroke="#000" stroke-width="10"/><path d="M116.943 66.381c-4.41-21.005 9.043-41.608 30.048-46.019 21.005-4.41 41.609 9.043 46.019 30.049 4.41 21.005-9.043 41.608-30.048 46.019-21.006 4.41-41.61-9.043-46.02-30.049" fill="#5b54d0"/><path d="M147.313 88.867c-16.829-4.232-27.04-21.306-22.808-38.135 4.233-16.828 21.306-27.04 38.135-22.807 16.829 4.232 27.04 21.306 22.808 38.135-4.233 16.828-21.306 27.04-38.135 22.807" fill="#fff"/><path d="M158.089 56.004c-.43.71-2.822.143-2.868-.73-.114-2.158-.046-12.688-.046-12.688s5.719-9.277 6.845-11.133c.46-.757.993-.623 1.04.262l.699 13.301s-4.569 9.172-5.67 10.989m-6.343 2.149c.588.073 1.122 2.203.585 2.524-1.327.793-8.52 3.99-8.52 3.99-1.214-.151-7.72-.967-9.26-1.16-.63-.079-.72-.505-.175-.83l8.181-4.889s7.68.175 9.189.364" fill="#5b54d0"/><path d="M150.015 59.438a5.07 5.07 0 1 1 9.923-2.084 5.07 5.07 0 0 1-9.923 2.084m8.177 16.334a3.68 3.68 0 0 1 2.847-4.36l33.336-7a3.68 3.68 0 0 1 4.36 2.848l1.655 7.883a3.68 3.68 0 0 1-2.847 4.36l-33.335 7a3.68 3.68 0 0 1-4.36-2.848z" fill="#5b54d0"/><path d="M179.606 96.557a3.68 3.68 0 0 1-4.36-2.847l-7-33.336a3.68 3.68 0 0 1 2.847-4.36l7.884-1.656a3.68 3.68 0 0 1 4.36 2.848l7 33.335a3.68 3.68 0 0 1-2.848 4.36z" fill="#5b54d0"/><path d="M181.399 92.539a3.564 3.564 0 0 1-4.22-2.755l-5.63-26.811a3.564 3.564 0 0 1 2.756-4.22l2.833-.595a3.564 3.564 0 0 1 4.22 2.755l5.63 26.811a3.564 3.564 0 0 1-2.756 4.22z" fill="#fff"/><path d="M162.209 77.564a3.564 3.564 0 0 1 2.756-4.22l26.811-5.628a3.564 3.564 0 0 1 4.22 2.755l.595 2.834a3.564 3.564 0 0 1-2.756 4.22l-26.81 5.629a3.564 3.564 0 0 1-4.22-2.756z" fill="#fff"/><path d="M32.335 53.617q-.063.857-4.32.545-4.26-.312-4.196-1.17l1.583-21.583-5.156-.378q-.731-.054-.888-2.058a15 15 0 0 1 .016-1.94q.072-.992.267-1.923.448-1.96 1.179-1.906l18.703 1.371q.73.054.887 2.058.057.95-.015 1.94-.073.992-.268 1.923-.447 1.96-1.178 1.907l-5.03-.37zm16.264 1.624q-.026.345-3.965.055-3.93-.288-3.908-.59l1.549-21.114q.02-.294 3.952-.006 3.938.29 3.92.541zm1.734-23.65q-.022.302-3.961.013-3.93-.288-3.911-.548l.454-6.19q.03-.428 3.961-.14 3.94.29 3.92.55zm21.616 25.403q-.022.303-3.7.033-3.68-.27-3.65-.656l.917-12.514q.158-2.15-1.261-2.254-.732-.053-2.002.808l-1.009 13.756q-.03.429-3.71.159-3.678-.27-3.643-.74l1.03-14.06-1.074-.078q-1.42-.104-1.202-3.069.098-1.335.72-2.674.826-1.84 2.372-1.726 1.545.113 2.922 1.033 1.384.921 1.633 1.674 2.844-2.164 6.086-1.927 3.249.24 5.076 2.399 2.475-1.845 5.74-1.605 7.097.52 6.464 9.162l-.959 13.068q-.022.302-3.7.032-3.68-.27-3.65-.656l.917-12.513q.158-2.15-1.261-2.254-.774-.057-2.044.804zm30.728 1.308q-2.829 1.39-7.087 1.076-4.258-.312-6.968-3.424-2.71-3.12-2.333-8.26.378-5.14 3.42-8.066 3.053-2.934 7.353-2.618 4.3.315 6.482 2.679t1.952 5.505q-.51 6.961-8.506 6.375l-2.973-.218q-.095 1.294.574 1.841.678.548 2.055.649 3.015.22 5.82-.958.046-.04.343.625.897 1.93.804 3.2-.093 1.268-.936 1.594zm-4.463-12.823q.132-1.807-1.632-1.935a2.1 2.1 0 0 0-1.438.392q-.617.453-.685 1.394l-.098 1.335 2.326.17q1.419.105 1.527-1.356z" fill="none" stroke-opacity=".502" stroke="#000" stroke-width="10" stroke-linejoin="round"/><path d="M32.335 53.617q-.063.857-4.32.545-4.26-.312-4.196-1.17l1.583-21.583-5.156-.378q-.731-.054-.888-2.058a15 15 0 0 1 .016-1.94q.072-.992.267-1.923.448-1.96 1.179-1.906l18.703 1.371q.73.054.887 2.058.057.95-.015 1.94-.073.992-.268 1.923-.447 1.96-1.178 1.907l-5.03-.37zm16.264 1.624q-.026.345-3.965.055-3.93-.288-3.908-.59l1.549-21.114q.02-.294 3.952-.006 3.938.29 3.92.541zm1.734-23.65q-.022.302-3.961.013-3.93-.288-3.911-.548l.454-6.19q.03-.428 3.961-.14 3.94.29 3.92.55zm21.616 25.403q-.022.303-3.7.033-3.68-.27-3.65-.656l.917-12.514q.158-2.15-1.261-2.254-.732-.053-2.002.808l-1.009 13.756q-.03.429-3.71.159-3.678-.27-3.643-.74l1.03-14.06-1.074-.078q-1.42-.104-1.202-3.069.098-1.335.72-2.674.826-1.84 2.372-1.726 1.545.113 2.922 1.033 1.384.921 1.633 1.674 2.844-2.164 6.086-1.927 3.249.24 5.076 2.399 2.475-1.845 5.74-1.605 7.097.52 6.464 9.162l-.959 13.068q-.022.302-3.7.032-3.68-.27-3.65-.656l.917-12.513q.158-2.15-1.261-2.254-.774-.057-2.044.804zm30.728 1.308q-2.829 1.39-7.087 1.076-4.258-.312-6.968-3.424-2.71-3.12-2.333-8.26.378-5.14 3.42-8.066 3.053-2.934 7.353-2.618 4.3.315 6.482 2.679t1.952 5.505q-.51 6.961-8.506 6.375l-2.973-.218q-.095 1.294.574 1.841.678.548 2.055.649 3.015.22 5.82-.958.046-.04.343.625.897 1.93.804 3.2-.093 1.268-.936 1.594m-4.463-12.823q.132-1.807-1.632-1.935a2.1 2.1 0 0 0-1.438.392q-.617.453-.685 1.394l-.098 1.335 2.326.17q1.419.105 1.527-1.356" fill="#fff"/><path d="M105.075 112.948q2.747-.173 4.88.47 2.14.637 2.224 1.953.083 1.317-.797 3.32-.873 1.996-1.547 2.04-.189.01-.447-.175-.26-.192-1.156-.382-.898-.19-1.54-.15-2.18.138-3.418 1.765c-.825 1.085 6.079 1.438 6.213 3.559.133 2.116-6.56 4.91-5.58 5.881q1.47 1.456 3.575 1.324.863-.054 1.918-.368 1.062-.313 1.487-.79.071-.08.292-.093.226-.015.897.797.677.804 1.293 2.144t.663 2.09q.093 1.467-2.114 2.48-2.201 1.005-5.287 1.2-4.965.312-8.384-2.982-3.421-3.3-3.823-9.675-.403-6.381 2.655-10.236 3.064-3.861 7.996-4.172zm13.1 12.23q-1.17-1.817-1.246-3.001-.075-1.185.54-1.565 2.09-1.073 5.83-1.31 3.743-.235 5.396 1.418 1.654 1.647 1.87 5.074l.375 5.947 1.278-.08q.643-.042 1.043.686.405.727.49 2.05.083 1.315-.498 2.637-.574 1.32-1.702 1.39-2.028.129-3.344-.882a3.1 3.1 0 0 1-.932-1.042q-1.594 2.295-5.242 2.525-2.746.174-4.753-1.66-2-1.842-2.17-4.518-.386-6.13 6.946-6.592l2.073-.13-.024-.379q-.062-.975-.401-1.24-.34-.263-1.504-.189-1.43.09-4.025.861zm3.447 6.733q.052.825.527 1.232.48.405 1.174.362.699-.044 1.23-.647l-.183-2.897-1.051.066q-1.808.114-1.697 1.884zm21.326 5.112q.02.34-3.815.582-3.013.152-3.03-.112l-1.616-25.619q-.036-.566 3.612-.797 3.207-.088 3.223.176zm8.984-9.63q.232 3.686 3.017 3.51 1.807-.113 2.966-.902.567-.035 1.042 1.883.48 1.911.525 2.61.043.692-.131.932-1.912 1.365-5.377 1.585-3.458.218-6.052-2.205-2.588-2.43-2.87-6.883-.28-4.46 1.934-7.357 2.22-2.898 6.189-3.148t5.632 1.567q.367.395.418 1.207.05.807-.178 1.99-.522 2.45-1.595 2.897-.148.047-.432.065-.277.018-.721-.41-1.56-1.375-2.449-1.319-.882.056-1.467 1.003-.58.942-.451 2.976zm9.013-9.864q-.026-.41 3.206-.613 3.237-.205 3.263.205l.693 10.985q.12 1.884 1.322 1.808.907-.057 1.985-.916l-.762-12.081q-.024-.373 3.17-.574 3.2-.2 3.224.17l.778 12.34.982-.062q1.279-.08 1.434 2.37.078 1.24-.37 2.553-.645 1.703-1.924 1.785-2.526.159-3.86-1.838l-.035.04q-2.166 2.18-4.798 2.346-3.654.23-5.501-1.487-1.841-1.718-2.107-5.932zm28.657 16.551q.022.34-3.814.583-3.015.151-3.03-.113l-1.616-25.618q-.036-.567 3.611-.797 3.207-.089 3.224.176zm4.913-13.717q-1.17-1.816-1.245-3.001t.54-1.565q2.089-1.073 5.83-1.31 3.742-.235 5.396 1.418 1.653 1.648 1.87 5.075l.374 5.946 1.279-.08q.642-.042 1.043.686.406.727.49 2.05.082 1.317-.498 2.637-.574 1.32-1.702 1.39-2.029.129-3.345-.882a3.1 3.1 0 0 1-.932-1.042q-1.594 2.295-5.241 2.525-2.747.174-4.753-1.66-2-1.841-2.17-4.518-.387-6.129 6.946-6.592l2.072-.13-.024-.378q-.06-.976-.4-1.24-.34-.263-1.505-.19-1.43.09-4.025.861zm3.448 6.733q.052.825.527 1.232.48.405 1.173.362.7-.045 1.23-.647l-.182-2.897-1.052.066q-1.807.114-1.696 1.884zm23.138 5.074q.028.453-3.134.653-3.77.085-3.791-.254l-.84-13.317-1.921.121q-.756.048-.92-2.547-.044-.681.028-1.665.07-.99.486-1.017l1.997-.126-.209-3.307q-.048-.756 3.127-.957 3.18-.2 3.22.405l.151 2.406.104 1.05 3.2-.202q.636-.04.803 2.599.166 2.632-.47 2.673l-2.671.168zm12.076-.762q.018.303-3.427.52-3.44.216-3.456-.048l-1.165-18.475q-.017-.258 3.423-.475 3.445-.218 3.46.003zm-1.305-20.693q.016.265-3.43.482-3.439.218-3.453-.01l-.342-5.417q-.024-.378 3.416-.595 3.445-.216 3.46.01zm6.197 18.386q-2.514-2.453-2.803-7.039-.289-4.592 1.896-7.336 2.193-2.743 6.18-2.995 3.987-.25 6.482 2.197 2.5 2.447 2.79 7.04.29 4.586-1.884 7.335-2.166 2.742-6.154 2.993-3.987.252-6.507-2.195zm5.688-11.09q-2.123.132-1.904 3.598.218 3.458 2.34 3.324c1.42-.09 9.057-2.037 8.912-4.343-.146-2.31-7.929-2.67-9.348-2.58zm19.969 11.47q.017.265-2.692.436-3.768.124-3.787-.179l-.769-12.189-.982.062q-.977.062-1.383-1.576a6 6 0 0 1-.138-.971 6.4 6.4 0 0 1 .307-2.36q.576-1.7 2.006-1.79t2.6.52q1.17.603 1.59 1.253 2.24-2.178 5.51-2.384 3.276-.207 4.855 1.47 1.58 1.673 1.833 5.697l.712 11.288q.03.453-3.19.657-3.213.202-3.241-.251l-.686-10.873q-.12-1.882-1.435-1.8-.378.024-1.038.388-.654.364-.834.527zm13.244-7.406q3.166 1.653 4.936 1.542 1.126-.072 1.077-.865-.035-.561-2.051-1.344-4.82-1.62-5.096-5.984-.175-2.784 1.76-4.38 1.943-1.595 4.783-1.775t4.851.301q2.016.475 2.077 1.45.052.832-.674 2.237-.721 1.406-1.016 1.538a7.05 7.05 0 0 0-3.554-.687q-1.014.065-.968.782.027.448.439.744.417.297 1.498.703 1.081.398 1.798.734.724.333 1.635.953 1.899 1.315 2.043 3.615.19 3.005-1.69 4.995-1.878 1.99-5.904 2.244-2.67.169-4.913-.594-2.237-.77-2.337-2.35-.065-1.053.37-2.25.438-1.198.937-1.609z" fill="none" stroke-opacity=".506" stroke="#000" stroke-width="10" stroke-linejoin="round"/><path d="M104.825 112.948q2.747-.173 4.88.47 2.14.637 2.224 1.953.083 1.317-.797 3.32-.873 1.996-1.547 2.04-.189.01-.447-.175-.26-.192-1.156-.382-.898-.19-1.54-.15-2.18.138-3.418 1.765t-1.037 4.809q.2 3.174 1.67 4.631 1.47 1.456 3.575 1.324.863-.054 1.918-.368 1.062-.313 1.487-.79.071-.08.292-.093.226-.015.897.797.677.804 1.293 2.144t.663 2.09q.093 1.467-2.114 2.48-2.201 1.005-5.287 1.2-4.964.312-8.385-2.982-3.42-3.3-3.822-9.675-.404-6.381 2.655-10.236 3.064-3.861 7.996-4.172m13.35 12.23q-1.17-1.817-1.246-3.001-.075-1.185.54-1.565 2.09-1.074 5.83-1.31 3.743-.235 5.396 1.418 1.654 1.647 1.87 5.074l.375 5.947 1.278-.08q.643-.042 1.043.686.406.727.49 2.05.083 1.316-.498 2.637-.574 1.32-1.702 1.39-2.028.129-3.344-.882a3.1 3.1 0 0 1-.932-1.042q-1.594 2.295-5.242 2.525-2.746.174-4.753-1.66-2-1.842-2.17-4.518-.386-6.13 6.946-6.592l2.073-.13-.024-.379q-.062-.976-.401-1.24-.34-.263-1.504-.189-1.43.09-4.025.861m3.447 6.733q.052.825.527 1.232.48.405 1.174.362.699-.044 1.23-.647l-.183-2.897-1.051.066q-1.808.114-1.697 1.884m21.326 5.112q.02.34-3.815.582-3.013.152-3.03-.112l-1.616-25.619q-.036-.566 3.612-.797 3.207-.088 3.223.176zm8.984-9.63q.232 3.686 3.017 3.51 1.807-.113 2.966-.902.567-.035 1.042 1.883.48 1.911.525 2.61.043.692-.131.932-1.912 1.365-5.377 1.585-3.458.218-6.052-2.205-2.588-2.43-2.869-6.883-.281-4.46 1.933-7.357 2.22-2.898 6.189-3.148t5.632 1.567q.367.395.418 1.207.05.806-.178 1.991-.522 2.449-1.595 2.896-.149.047-.432.065-.277.018-.721-.41-1.56-1.375-2.449-1.319-.882.056-1.467 1.003-.58.942-.451 2.976m9.013-9.864q-.026-.41 3.206-.613 3.237-.205 3.263.205l.693 10.985q.12 1.884 1.322 1.808.907-.057 1.985-.916l-.762-12.081q-.024-.373 3.17-.573 3.2-.202 3.224.17l.778 12.34.982-.063q1.279-.08 1.434 2.37.078 1.24-.37 2.553-.645 1.703-1.924 1.785-2.526.159-3.86-1.838l-.035.04q-2.166 2.18-4.798 2.346-3.654.23-5.501-1.487-1.841-1.718-2.107-5.932zm28.657 16.551q.022.34-3.814.583-3.015.151-3.03-.113l-1.616-25.618q-.036-.567 3.611-.797 3.207-.089 3.224.176zm4.913-13.717q-1.17-1.816-1.245-3.001t.54-1.565q2.089-1.073 5.83-1.31 3.742-.235 5.396 1.418 1.653 1.648 1.87 5.075l.374 5.946 1.279-.08q.642-.042 1.043.686.406.727.49 2.05.082 1.317-.498 2.637-.574 1.32-1.702 1.39-2.029.129-3.345-.882a3.1 3.1 0 0 1-.932-1.042q-1.594 2.295-5.241 2.525-2.747.174-4.753-1.66-2-1.841-2.17-4.518-.387-6.129 6.946-6.592l2.072-.13-.024-.378q-.06-.976-.4-1.24-.34-.263-1.505-.19-1.43.09-4.025.861m3.448 6.733q.052.825.527 1.232.48.405 1.173.362.7-.045 1.23-.647l-.182-2.897-1.052.066q-1.807.114-1.696 1.884m23.138 5.074q.028.453-3.134.653-3.77.085-3.791-.254l-.84-13.317-1.921.121q-.756.048-.92-2.547-.044-.681.028-1.665.07-.99.486-1.017l1.997-.126-.209-3.307q-.048-.756 3.127-.957 3.18-.2 3.22.405l.151 2.406.104 1.05 3.2-.202q.636-.04.803 2.599.166 2.632-.47 2.673l-2.671.168zm12.076-.762q.018.303-3.427.52-3.44.216-3.456-.048l-1.165-18.475q-.017-.258 3.423-.475 3.445-.218 3.46.003zm-1.305-20.693q.016.265-3.43.482-3.439.218-3.453-.01l-.342-5.417q-.024-.378 3.416-.595 3.445-.216 3.46.01zm6.197 18.386q-2.514-2.453-2.803-7.039-.289-4.592 1.896-7.336 2.193-2.743 6.18-2.995 3.987-.25 6.482 2.197 2.5 2.447 2.79 7.04.29 4.586-1.884 7.335-2.166 2.742-6.154 2.993-3.987.252-6.507-2.195m5.688-11.09q-2.123.132-1.904 3.598.218 3.458 2.34 3.324 2.13-.135 1.912-3.593-.22-3.465-2.348-3.33m19.969 11.47q.017.265-2.692.436-3.768.124-3.787-.179l-.769-12.189-.982.062q-.976.062-1.383-1.576a6 6 0 0 1-.138-.971 6.4 6.4 0 0 1 .307-2.36q.576-1.7 2.006-1.79t2.6.52q1.17.603 1.59 1.253 2.24-2.178 5.51-2.384 3.276-.207 4.855 1.47 1.58 1.673 1.833 5.697l.712 11.288q.029.453-3.19.657-3.213.202-3.241-.251l-.686-10.873q-.12-1.882-1.435-1.8-.378.024-1.038.388-.654.364-.834.527zm13.244-7.406q3.166 1.653 4.936 1.542 1.127-.072 1.077-.865-.035-.561-2.051-1.344-4.82-1.62-5.096-5.984-.175-2.784 1.76-4.38 1.943-1.595 4.783-1.775t4.851.301q2.016.475 2.077 1.45.052.832-.674 2.237-.721 1.406-1.016 1.538a7.05 7.05 0 0 0-3.554-.687q-1.014.065-.969.782.03.449.44.744.417.297 1.498.703 1.081.398 1.798.734.723.333 1.635.953 1.899 1.315 2.043 3.615.19 3.005-1.69 4.995-1.878 1.99-5.904 2.244-2.67.169-4.913-.594-2.236-.77-2.337-2.35-.066-1.053.37-2.25.438-1.198.936-1.609" fill="#fff"/></g></svg>
