<svg version="1.1" xmlns="http://www.w3.org/2000/svg" xmlns:xlink="http://www.w3.org/1999/xlink" width="309.2973" height="159.64866" viewBox="0,0,309.2973,159.64866"><defs><linearGradient x1="325" y1="125.17566" x2="325" y2="274.82432" gradientUnits="userSpaceOnUse" id="color-1"><stop offset="0" stop-color="#363636"/><stop offset="1" stop-color="#787878"/></linearGradient><linearGradient x1="414.6027" y1="153.05425" x2="414.6027" y2="208.38288" gradientUnits="userSpaceOnUse" id="color-2"><stop offset="0" stop-color="#000000"/><stop offset="1" stop-color="#001509"/></linearGradient></defs><g transform="translate(-170.35135,-120.17567)"><g fill-rule="nonzero" stroke-linejoin="miter" stroke-miterlimit="10" stroke-dasharray="" stroke-dashoffset="0" style="mix-blend-mode: normal"><path d="M177.50901,273.65903v-147.31805h294.98198v147.31805z" fill="#949494" stroke="none" stroke-width="0" stroke-linecap="butt"/><path d="M196.45611,151.7674c5.22542,-5.78225 17.2911,-8.09102 23.88885,-3.86486c2.45676,1.57367 2.63155,4.35904 3.93514,6.60304c0.13825,0.23799 2.92127,-0.32324 3.2499,-0.62432c2.07563,-1.90166 8.63072,-2.17891 10.79643,-0.59085c0.1411,0.10346 3.83641,6.64444 3.84058,6.76519c0.03817,1.10471 -1.27767,1.83383 -1.63453,2.87923c-0.08403,0.24617 0.50132,-0.13756 0.73597,-0.24694c1.21046,-0.5642 2.38022,-1.2281 3.59034,-1.72009c3.37674,-1.37286 8.58462,-4.30044 12.4145,-1.49207c0.12923,0.09476 3.8466,6.65608 3.84058,6.76519c-0.06575,1.19134 -3.46286,5.66573 -3.34567,5.8934c0.19081,0.37069 0.82343,-0.4103 1.21467,-0.2717c1.73076,0.61313 3.48116,1.27952 5.00201,2.31271c1.69448,1.15115 0.45396,5.40768 1.62095,5.98254c1.80847,0.89085 4.27343,-0.59359 6.00563,0.96645c1.36739,1.23149 2.53608,2.71669 3.44641,4.32023c1.40159,2.46891 -2.76348,6.19437 -2.10217,8.01461c0.36095,0.99352 0.90536,1.97672 1.69269,2.67744c1.30977,1.16567 3.92007,-0.27792 5.15631,0.96645c5.12078,5.15443 5.12078,8.37595 0,13.53037c-1.38495,1.39406 -4.36324,0.82699 -6.12393,0.96645c-3.6326,0.28772 -6.86333,2.9191 -10.36917,0.21464c-1.04738,-0.80796 -2.17558,-1.56078 -3.00573,-2.59328c-0.25653,-0.31905 0.33615,-1.17379 -0.06786,-1.22946c-2.14615,-0.29576 -12.2398,1.33811 -14.28501,-2.26454c-0.93192,-1.64157 -2.70772,-5.75189 -2.03678,-7.51726c0.4715,-1.24059 1.28536,-2.32505 2.03678,-3.41693c0.40395,-0.58698 1.41507,-2.3243 0.78835,-1.98976c-7.24125,3.86543 -14.35876,11.5492 -22.2956,6.22319c-2.25659,-1.51427 -0.6502,-5.14954 -2.0142,-7.4339c-0.14586,-0.24427 -0.24818,0.52079 -0.43702,0.73315c-0.64398,0.7242 -1.31502,1.42943 -2.04831,2.06177c-0.73218,0.63138 -1.53221,1.18538 -2.35894,1.68467c-1.10233,0.66574 -7.98153,-0.46884 -8.50387,-1.68467c-2.87419,-6.69024 -2.2263,-7.96112 1.88346,-13.5915c0.62952,-0.86245 -2.12779,-0.13043 -3.189,-0.06455c-0.97076,0.06026 -1.89084,0.64335 -2.86114,0.57599c-1.69307,-0.11753 -4.44506,-4.36426 -5.16162,-5.80678c-0.9471,-1.90665 0.85968,-5.66607 1.48299,-7.49222c0.29868,-0.87504 0.63634,-1.73835 1.02415,-2.57721c0.12467,-0.26967 0.76768,-0.71422 0.47478,-0.75355c-0.16925,0.01121 -0.34,0.0169 -0.51208,0.0169c-0.0742,0 -0.14814,-0.00105 -0.22183,-0.00316c-4.1396,-0.11817 -7.45933,-3.5331 -7.45933,-7.72848c0,-1.60921 0.48841,-3.10358 1.32415,-4.34114c0.16073,-0.30639 0.35259,-0.59374 0.58814,-0.8544z" fill="#838383" stroke="none" stroke-width="0.5" stroke-linecap="butt"/><path d="M347.65495,188.92039c0,-2.15705 0.87757,-4.10778 2.29293,-5.5102l0.03224,-0.1154l0.20525,-0.11019c0.95911,-0.87318 2.13824,-1.50605 3.44367,-1.80424l0.78357,-0.19718l1.13725,-0.68684l2.15695,-1.7369l0.309,-0.14255l0.22864,-0.25316l1.53623,-1.03089l0.96618,-0.34733l0.86556,-0.55443l1.01837,-0.34169l1.36996,-0.68948l0.16336,-0.14949l0.20402,0.01416l3.68723,-0.82477l1.79634,1.20543l2.03501,0.14127l0.91224,1.83648l1.69725,1.13894l-0.08762,1.58751l0.3375,-0.0755l0.7464,-0.40069l2.04831,-0.51544h0.40323l0.37344,-0.15314l3.58454,-0.51544l0.54993,0.05727l0.53636,-0.13497h0.05697l1.18694,-0.47789l1.4414,-0.19785l1.41131,-0.35515h2.04831l1.95549,0.49209l0.4735,-0.09533l0.24558,0.27627l1.166,0.29342l1.59987,2.81817l2.15016,2.41892l-0.09218,1.20623l0.18273,0.32187l-0.23958,0.42202l-0.15459,2.02294l-0.51208,1.54633l-0.49115,0.77687l-0.04933,0.15313l0.09586,-0.05146l1.08174,-0.27222l0.0131,-0.02307l0.21403,-0.05386l0.19143,-0.09635l1.72289,-0.38538l1.71222,-0.43087h0.21403l0.21536,-0.04817l0.07179,0.04817h1.54713l1.19788,0.30144l1.23111,0.09532l1.53624,0.51544l2.22658,1.42622l0.50604,0.10188l0.23615,0.37354l0.10069,0.06449l0.71048,-0.30112l0.31166,0.13566l0.98457,-0.22023l1.71222,-0.43087h0.21403l0.21536,-0.04817l0.07179,0.04817h3.08336l1.19788,0.30144l1.23111,0.09533l1.0207,0.34247l2.95127,0.74267l0.15048,0.26507l0.30284,0.01693l2.57634,3.02549l1.02416,2.06177l0.0707,0.32027l0.19083,0.26597l1.02415,2.57721l0.19655,1.45088l0.35283,1.42058v3.6081l-0.11772,0.47398l0.0584,0.48502l-0.47824,3.85101l0.04572,0.09997l-0.76006,1.94207l-0.14004,0.36415h1.90401l3.84058,0.96645l0.8469,1.49181l1.45745,0.6344l0.30724,2.47412l1.22899,2.16486l-0.78781,1.38773l0.1619,1.30375l1.84734,0.10331l2.57634,3.02549l0.28794,0.57968l0.07491,0.04308l0.05351,0.21544l0.09572,0.19269l0.38286,1.73421l0.0335,0.13487l0.05035,0.10136l0.51235,0.51572l2.68817,2.31929l0.42939,7.77982l-6.44085,4.32211l-3.48485,-0.7795l-0.00547,0.0015l-0.00716,-0.00433l-0.36703,-0.08209l-1.02416,-0.51544l-0.93749,-0.80885l-1.05879,-0.63945l-2.00558,-2.01876l-1.09234,0.24434l-1.71223,0.43087h-0.21402l-0.21537,0.04818l-0.07178,-0.04818h-6.15583l-1.47011,-0.36994l-0.56666,0.15555l-0.84631,-0.51112l-0.95749,-0.24095l-0.29141,-0.51332l-1.29941,-0.78477l-2.04831,-2.06177l-0.63528,-1.06575l-0.80356,-0.94365l-0.28794,-0.57968l-0.07491,-0.04308l-0.05351,-0.21544l-0.09571,-0.19269l-0.08156,-0.36944l-0.0043,-0.00721l0.00149,-0.0055l-0.2985,-1.35207l-0.42805,-1.72348v-0.21544l-0.04786,-0.21677l0.04786,-0.07226v-1.11443l-0.54762,0.24499l-2.15747,1.30299l-0.28813,0.08827l-0.22868,0.19729l-1.95757,0.98523l-1.16692,1.17458l-0.03744,0.02261l-0.03797,0.13589l-1.68333,0.90367l-1.6359,0.98799l-0.1353,-0.03714l-0.03852,0.02068l-0.75756,0.19063l-0.4292,0.28802l-0.96618,0.34734l-0.47449,0.30393l-0.02446,0.08755l-1.68332,0.90367l-1.6359,0.98799l-0.1353,-0.03714l-0.03852,0.02068l-1.2303,0.3096l-0.27,0.13589l-3.29892,0.73791l-0.1362,0.07834l-0.05992,-0.03447l-0.36947,0.08264l-3.07885,-2.06606l-3.21277,-1.84794l-0.0918,-0.36959l-0.05743,-0.03853l0.0087,-0.15766l-0.81962,-3.30004v-5.72399l-2.85765,1.07866l-2.48287,0.99968l-1.53876,0.21121l-1.74334,0.38995l-0.1864,-0.12508l-0.45398,0.06231l-2.8604,-2.28642l-2.94007,-1.97293l0.01994,-0.36124l-0.28148,-0.225l0.48832,-3.52262l0.15299,-2.7719l-0.52919,0.0296l-1.24062,-1.87316l-2.04528,-1.17641l-0.75967,-3.05867l-0.24833,-0.37494l0.07304,-0.33083l-0.02518,-0.10138v-1.03088l0.96014,-3.86582l0.0519,-0.02985v-0.06017l1.16902,-1.12768l-5.25353,3.02175l-6.72102,-3.86582l-0.96014,-3.86583v-3.61907l-0.04786,-0.07226l0.04786,-0.21678v-0.21543l0.0827,-0.33297c-2.48142,-1.28164 -4.17932,-3.88285 -4.17932,-6.88324zM368.00303,201.83247l-1.02804,0.73913l-0.58027,0.58409l-0.05431,0.21869l0.03502,-0.03378l0.30173,-0.17355z" fill="#838383" stroke="none" stroke-width="0.5" stroke-linecap="butt"/><path d="M431.12356,167.78724c-2.19527,-0.55242 -6.42428,-0.2273 -7.87844,-1.76391c-5.92215,-6.25792 -4.4378,-18.28361 5.31805,-19.88469c2.47125,-0.40557 3.96452,-0.11933 5.10044,0.63443c2.21728,0.96743 3.89222,2.9568 4.43842,5.37783c0.17641,0.20988 2.31507,-0.37283 2.751,-0.3424c1.31643,0.0919 2.58213,0.5668 3.84058,0.96645c2.62908,0.83494 3.15476,4.70872 4.81985,6.61011c3.55283,4.05705 11.77902,6.43707 10.0571,13.37002c-3.60404,14.51092 -19.965,0.06351 -22.96411,-4.96785z" fill="#838383" stroke="none" stroke-width="0.5" stroke-linecap="butt"/><path d="M306.37813,153.15206c-5.39408,-9.04922 1.51565,-14.13892 11.06425,-13.19874c3.05685,0 5.69665,1.7974 6.93319,4.39952c1.22634,1.23026 3.38617,1.19296 4.64314,3.01946c0.84499,1.22786 2.49104,2.50976 2.10059,3.95079c-0.65184,2.40577 -3.63103,4.96251 -2.35022,7.09701c1.3447,2.24096 2.41561,5.2049 1.59313,7.68855c-1.78309,5.38441 -5.73744,5.75109 -9.71598,4.88992c-8.07988,-1.74893 -17.49219,-7.19862 -12.89137,-16.46073z" fill="#838383" stroke="none" stroke-width="0.5" stroke-linecap="butt"/><path d="M207.89984,236.22284c1.8054,0.56277 9.08505,-2.50709 12.33053,-2.50709c7.29629,0 14.7319,5.12514 21.46658,7.40381c1.07036,0.36216 2.32356,0.23333 3.28649,0.82702c3.04658,1.87837 5.89183,8.96216 2.60027,12.11819c-9.80213,9.39853 -17.92072,10.63188 -29.64845,4.17276c-1.83956,-1.01315 -5.00807,-5.5772 -5.83138,-5.85344c-0.93059,-0.31223 -6.04489,1.45987 -6.78832,1.39096c-2.03466,-0.1886 -4.72933,-2.77326 -6.44792,-4.20927c-5.07443,-4.24005 -10.0199,-8.32638 -13.09313,-14.51325c-3.27256,-6.58813 -1.95471,-23.50926 9.07348,-17.16603c1.38116,-1.3394 3.25937,-2.16308 5.3287,-2.16308c2.80557,0 5.25983,1.51404 6.60035,3.77467c0.4269,0.55573 0.72143,1.27022 0.90087,2.28563c0.11783,0.53822 0.17995,1.09748 0.17995,1.67135c0.33344,6.03806 -5.697,10.97886 0.04201,12.76778z" fill="#838383" stroke="none" stroke-width="0.5" stroke-linecap="butt"/><path d="M175.35135,137.67133c0,-6.39897 5.91545,-12.49566 13.1192,-12.49566c28.93252,0 219.72832,0 272.60996,0c8.61359,0 13.56814,4.64378 13.56814,12.24625c0,30.59212 0,109.0924 0,125.70487c0,6.03964 -4.85913,11.69754 -13.31873,11.69754c-52.46667,0 -243.42599,0 -272.60996,0c-7.3279,0 -13.36861,-4.5235 -13.36861,-11.94695c0,-30.16113 0,-108.19342 0,-125.20604z" fill="none" stroke="url(#color-1)" stroke-width="10" stroke-linecap="butt"/><path d="M186.29381,140.96976c0,-2.75284 2.23162,-4.98446 4.98446,-4.98446c2.75284,0 4.98447,2.23163 4.98447,4.98447c0,2.75284 -2.23163,4.98446 -4.98446,4.98446c-2.75284,0 -4.98446,-2.23162 -4.98446,-4.98446z" fill="#303030" stroke="#212121" stroke-width="2" stroke-linecap="butt"/><path d="M189.8616,142.38643l2.83334,-2.83333" fill="none" stroke="#212121" stroke-width="2" stroke-linecap="round"/><path d="M189.8616,139.5531l2.83334,2.83333" fill="none" stroke="#212121" stroke-width="2" stroke-linecap="round"/><path d="M458.72173,145.95422c-2.75284,0 -4.98446,-2.23162 -4.98446,-4.98446c0,-2.75284 2.23163,-4.98446 4.98447,-4.98446c2.75284,0 4.98446,2.23163 4.98446,4.98447c0,2.75284 -2.23162,4.98446 -4.98446,4.98446z" fill="#303030" stroke="#212121" stroke-width="2" stroke-linecap="butt"/><path d="M460.13839,142.38643l-2.83333,-2.83333" fill="none" stroke="#212121" stroke-width="2" stroke-linecap="round"/><path d="M460.13839,139.5531l-2.83333,2.83333" fill="none" stroke="#212121" stroke-width="2" stroke-linecap="round"/><path d="M191.27827,254.04585c2.75284,0 4.98447,2.23162 4.98447,4.98446c0,2.75284 -2.23163,4.98447 -4.98446,4.98447c-2.75284,0 -4.98446,-2.23163 -4.98446,-4.98446c0,-2.75284 2.23162,-4.98446 4.98446,-4.98446z" fill="#303030" stroke="#212121" stroke-width="2" stroke-linecap="butt"/><path d="M189.8616,257.61365l2.83334,2.83333" fill="none" stroke="#212121" stroke-width="2" stroke-linecap="round"/><path d="M189.86161,260.44698l2.83334,-2.83333" fill="none" stroke="#212121" stroke-width="2" stroke-linecap="round"/><path d="M463.70619,259.03031c0,2.75284 -2.23162,4.98447 -4.98446,4.98447c-2.75284,0 -4.98446,-2.23163 -4.98446,-4.98446c0,-2.75284 2.23163,-4.98446 4.98447,-4.98446c2.75284,0 4.98446,2.23162 4.98446,4.98446z" fill="#303030" stroke="#212121" stroke-width="2" stroke-linecap="butt"/><path d="M457.30506,260.44698l2.83333,-2.83333" fill="none" stroke="#212121" stroke-width="2" stroke-linecap="round"/><path d="M460.1384,260.44698l-2.83333,-2.83333" fill="none" stroke="#212121" stroke-width="2" stroke-linecap="round"/><path d="M217.41727,176.30812c-6.37844,-1.04411 -10.70276,-7.06128 -9.65865,-13.43972c1.04411,-6.37844 7.06128,-10.70276 13.43972,-9.65865c6.37844,1.04411 10.70276,7.06128 9.65865,13.43972c-1.04411,6.37844 -7.06128,10.70276 -13.43972,9.65865z" fill="#414141" stroke="#272727" stroke-width="5" stroke-linecap="butt"/><path d="M213.84125,186.74362c5.71487,-3.01909 12.79514,-0.83373 15.81424,4.88114c3.01909,5.71487 0.83373,12.79514 -4.88114,15.81424c-5.71487,3.01909 -12.79514,0.83372 -15.81424,-4.88115c-3.01909,-5.71487 -0.83373,-12.79514 4.88114,-15.81423z" fill="#414141" stroke="#272727" stroke-width="5" stroke-linecap="butt"/><path d="M217.30358,164.43085l-7.83789,-1.28302" fill="none" stroke="#272727" stroke-width="5" stroke-linecap="round"/><path d="M228.12601,192.43278l-7.02249,3.70988" fill="none" stroke="#272727" stroke-width="5" stroke-linecap="round"/><path d="M392.69205,153.05425c12.96028,0 19.93933,0 43.62758,0c3.85845,0 6.07783,1.71692 6.07783,4.52773c0,11.31062 0,40.33402 0,46.47604c0,2.23299 -2.17664,4.32486 -5.9661,4.32486c-23.50236,0 -30.55466,0 -43.62758,0c-3.28252,0 -5.98845,-1.67245 -5.98845,-4.41707c0,-10.52729 -0.01659,-45.79986 0,-46.29161c0.11421,-3.38476 2.64982,-4.61994 5.87673,-4.61994z" fill="url(#color-2)" stroke="#272727" stroke-width="5" stroke-linecap="butt"/><path d="M247.43746,157.67419c0,-2.36585 2.49592,-4.61993 5.53542,-4.61993c12.20757,0 92.71056,0 115.02305,0c3.63436,0 5.72484,1.71692 5.72484,4.52773c0,11.31062 0,40.33402 0,46.47604c0,2.23299 -2.05022,4.32486 -5.6196,4.32486c-22.1374,0 -102.70937,0 -115.02304,0c-3.09188,0 -5.64065,-1.67245 -5.64065,-4.41707c0,-11.15127 0,-40.00165 0,-46.29161z" fill="#000000" stroke="#272727" stroke-width="5" stroke-linecap="butt"/><path d="M255.0407,194.79666c0,-0.26063 0.45642,-0.50894 1.01223,-0.50894c2.23234,0 16.95349,0 21.03366,0c0.66459,0 1.04687,0.18914 1.04687,0.49879c0,1.24601 0,4.44331 0,5.11993c0,0.24599 -0.37491,0.47644 -1.02763,0.47644c-4.04815,0 -18.78193,0 -21.03366,0c-0.56539,0 -1.03148,-0.18424 -1.03148,-0.4866c0,-1.22845 0,-4.4067 0,-5.09962z" fill="#18ff00" stroke="#0dbd00" stroke-width="2" stroke-linecap="butt"/><path d="M284.24028,194.79666c0,-0.26063 0.45641,-0.50895 1.01223,-0.50895c2.23233,0 16.9535,0 21.03367,0c0.6646,0 1.04687,0.18914 1.04687,0.49879c0,1.24601 0,4.44331 0,5.11993c0,0.24599 -0.37492,0.47644 -1.02763,0.47644c-4.04815,0 -18.78192,0 -21.03366,0c-0.5654,0 -1.03148,-0.18425 -1.03148,-0.4866c0,-1.22846 0,-4.4067 0,-5.09961z" fill="#18ff00" stroke="#0dbd00" stroke-width="2" stroke-linecap="butt"/><path d="M313.43986,194.79666c0,-0.26063 0.45641,-0.50895 1.01223,-0.50895c2.23233,0 16.95349,0 21.03366,0c0.6646,0 1.04687,0.18914 1.04687,0.49879c0,1.24601 0,4.44331 0,5.11993c0,0.24599 -0.37491,0.47644 -1.02763,0.47644c-4.04815,0 -18.78192,0 -21.03366,0c-0.5654,0 -1.03148,-0.18425 -1.03148,-0.4866c0,-1.22846 0,-4.4067 0,-5.09961z" fill="#18ff00" stroke="#0dbd00" stroke-width="2" stroke-linecap="butt"/><path d="M342.63944,194.79666c0,-0.26063 0.45642,-0.50895 1.01223,-0.50895c2.23233,0 16.95349,0 21.03366,0c0.6646,0 1.04687,0.18914 1.04687,0.49879c0,1.24601 0,4.44331 0,5.11993c0,0.24599 -0.37491,0.47644 -1.02763,0.47644c-4.04815,0 -18.78192,0 -21.03366,0c-0.5654,0 -1.03148,-0.18425 -1.03148,-0.4866c0,-1.22846 0,-4.4067 0,-5.09961z" fill="#18ff00" stroke="#0dbd00" stroke-width="2" stroke-linecap="butt"/><path d="M255.0407,183.54666c0,-0.26063 0.45642,-0.50894 1.01223,-0.50894c2.23234,0 16.95349,0 21.03366,0c0.66459,0 1.04687,0.18914 1.04687,0.49879c0,1.24601 0,4.44331 0,5.11993c0,0.24599 -0.37491,0.47644 -1.02763,0.47644c-4.04815,0 -18.78193,0 -21.03366,0c-0.56539,0 -1.03148,-0.18424 -1.03148,-0.4866c0,-1.22845 0,-4.4067 0,-5.09962z" fill="#c7ff00" stroke="#a7d400" stroke-width="2" stroke-linecap="butt"/><path d="M313.43986,183.54666c0,-0.26063 0.45641,-0.50895 1.01223,-0.50895c2.23233,0 16.95349,0 21.03366,0c0.6646,0 1.04687,0.18914 1.04687,0.49879c0,1.24601 0,4.44331 0,5.11993c0,0.24599 -0.37491,0.47644 -1.02763,0.47644c-4.04815,0 -18.78192,0 -21.03366,0c-0.5654,0 -1.03148,-0.18425 -1.03148,-0.4866c0,-1.22846 0,-4.4067 0,-5.09961z" fill="#c7ff00" stroke="#a7d400" stroke-width="2" stroke-linecap="butt"/><path d="M342.63944,183.54666c0,-0.26063 0.45642,-0.50895 1.01223,-0.50895c2.23233,0 16.95349,0 21.03366,0c0.6646,0 1.04687,0.18914 1.04687,0.49879c0,1.24601 0,4.44331 0,5.11993c0,0.24599 -0.37491,0.47644 -1.02763,0.47644c-4.04815,0 -18.78192,0 -21.03366,0c-0.5654,0 -1.03148,-0.18425 -1.03148,-0.4866c0,-1.22846 0,-4.4067 0,-5.09961z" fill="#c7ff00" stroke="#a7d400" stroke-width="2" stroke-linecap="butt"/><path d="M255.0407,172.29666c0,-0.26063 0.45642,-0.50894 1.01223,-0.50894c2.23234,0 16.95349,0 21.03366,0c0.66459,0 1.04687,0.18914 1.04687,0.49879c0,1.24601 0,4.44331 0,5.11993c0,0.24599 -0.37491,0.47644 -1.02763,0.47644c-4.04815,0 -18.78193,0 -21.03366,0c-0.56539,0 -1.03148,-0.18424 -1.03148,-0.4866c0,-1.22845 0,-4.4067 0,-5.09962z" fill="#ffe100" stroke="#ffc400" stroke-width="2" stroke-linecap="butt"/><path d="M313.43986,172.29666c0,-0.26063 0.45641,-0.50895 1.01223,-0.50895c2.23233,0 16.95349,0 21.03366,0c0.6646,0 1.04687,0.18914 1.04687,0.49879c0,1.24601 0,4.44331 0,5.11993c0,0.24599 -0.37491,0.47644 -1.02763,0.47644c-4.04815,0 -18.78192,0 -21.03366,0c-0.5654,0 -1.03148,-0.18425 -1.03148,-0.4866c0,-1.22846 0,-4.4067 0,-5.09961z" fill="#ffe100" stroke="#ffc400" stroke-width="2" stroke-linecap="butt"/><path d="M313.43986,161.04666c0,-0.26063 0.45641,-0.50895 1.01223,-0.50895c2.23233,0 16.95349,0 21.03366,0c0.6646,0 1.04687,0.18914 1.04687,0.49879c0,1.24601 0,4.44331 0,5.11993c0,0.24599 -0.37491,0.47644 -1.02763,0.47644c-4.04815,0 -18.78192,0 -21.03366,0c-0.5654,0 -1.03148,-0.18425 -1.03148,-0.4866c0,-1.22846 0,-4.4067 0,-5.09961z" fill="#ff0000" stroke="#b90000" stroke-width="2" stroke-linecap="butt"/><path d="M389.42955,180.71856h7.75751l3.66667,-9.16667l8.33333,21.83333l6.66667,-17.66667l4.33333,11l6.82955,-20.7102l4.83712,14.7102h7.92211" fill="none" stroke="#00ff73" stroke-width="4" stroke-linecap="round"/><path d="M392.69205,153.05425c12.96028,0 19.93933,0 43.62758,0c3.85845,0 6.07783,1.71692 6.07783,4.52773c0,11.31062 0,40.33402 0,46.47604c0,2.23299 -2.17664,4.32486 -5.9661,4.32486c-23.50236,0 -30.55466,0 -43.62758,0c-3.28252,0 -5.98845,-1.67245 -5.98845,-4.41707c0,-10.52729 -0.01659,-45.79986 0,-46.29161c0.11421,-3.38476 2.64982,-4.61994 5.87673,-4.61994z" fill="none" stroke="#272727" stroke-width="5" stroke-linecap="butt"/><path d="M226.95276,255.09738c0,0.64935 -1.61383,0.97402 -4.84147,0.97402c-3.22765,0 -4.84147,-0.32467 -4.84147,-0.97402v-24.54159h-5.86324c-0.55386,0 -0.94538,-0.7512 -1.17456,-2.25362c-0.09549,-0.71301 -0.14324,-1.44512 -0.14324,-2.19633c0,-0.7512 0.04775,-1.48332 0.14324,-2.19633c0.22918,-1.50242 0.6207,-2.25362 1.17456,-2.25362h21.26619c0.55386,0 0.94538,0.7512 1.17456,2.25362c0.09549,0.71301 0.14324,1.44513 0.14324,2.19633c0,0.7512 -0.04775,1.48332 -0.14324,2.19633c-0.22918,1.50242 -0.6207,2.25362 -1.17456,2.25362h-5.72001zM234.58297,231.73035c0,-0.36287 1.40056,-0.54431 4.20167,-0.54431c2.80112,0 4.20167,0.18144 4.20167,0.54431v14.27614c0,1.62974 0.52203,2.44461 1.56608,2.44461c0.78304,0 1.66476,-0.34377 2.64515,-1.03132v-15.68943c0,-0.32468 1.38464,-0.48701 4.15392,-0.48701c2.76928,0 4.15393,0.16234 4.15393,0.48701v16.0332h1.27005c1.10771,0 1.66157,1.05997 1.66157,3.1799c0,1.07588 -0.226,2.16768 -0.678,3.2754c-0.65571,1.43239 -1.53743,2.14858 -2.64514,2.14858c-2.18359,0 -3.79742,-0.89444 -4.84148,-2.68334l-0.04775,0.04775c-1.98625,1.75706 -4.12209,2.63559 -6.40755,2.63559c-3.15762,0 -5.48764,-0.7894 -6.99006,-2.36822c-1.49605,-1.57881 -2.24408,-4.19531 -2.24408,-7.84949zM271.63673,255.58439c0,0.22918 -1.17137,0.34377 -3.51412,0.34377c-3.25948,-0.09549 -4.88922,-0.27374 -4.88922,-0.53475v-15.84222h-1.27005c-0.8467,0 -1.40056,-0.71619 -1.66157,-2.14858c-0.07003,-0.42653 -0.10504,-0.84989 -0.10504,-1.27006c0,-1.01222 0.19735,-2.02444 0.59205,-3.03666c0.58569,-1.43239 1.49605,-2.14858 2.73109,-2.14858c1.2414,0 2.34912,0.29284 3.32314,0.87853c0.98039,0.58569 1.63611,1.17138 1.96715,1.75706c2.04991,-1.75706 4.49134,-2.63559 7.32428,-2.63559c2.83931,0 4.8924,0.76712 6.15927,2.30137c1.27324,1.52788 1.90985,4.03615 1.90985,7.52481v14.66766c0,0.38834 -1.39419,0.5825 -4.18257,0.5825c-2.78202,0 -4.17302,-0.19417 -4.17302,-0.5825v-14.1329c0,-1.62974 -0.56977,-2.44461 -1.70932,-2.44461c-0.33104,0 -0.78941,0.14006 -1.37509,0.42017c-0.58569,0.27374 -0.96129,0.47746 -1.12681,0.61115zM306.84596,254.56262c-2.05627,1.20321 -4.69823,1.80481 -7.92588,1.80481c-3.22765,0 -5.94919,-1.09816 -8.16461,-3.29449c-2.21543,-2.20269 -3.32314,-5.25209 -3.32314,-9.14819c0,-3.8961 1.06634,-7.03143 3.199,-9.40601c2.13903,-2.38095 4.83829,-3.57142 8.09776,-3.57142c3.25948,0 5.7773,0.83078 7.55346,2.49236c1.77616,1.66157 2.66424,3.68283 2.66424,6.06378c0,5.27755 -3.0303,7.91633 -9.0909,7.91633h-3.38043c0,0.98039 0.26738,1.65839 0.80214,2.03399c0.54112,0.37561 1.33371,0.56341 2.37776,0.56341c2.28546,0 4.45314,-0.52203 6.50304,-1.56608c0.03183,-0.03183 0.17825,0.19417 0.43927,0.678c0.78304,1.40692 1.17456,2.59103 1.17456,3.55232c0,0.96129 -0.30876,1.58836 -0.92628,1.8812zM300.73443,240.42972c0,-1.36873 -0.66845,-2.05309 -2.00535,-2.05309c-0.61752,0 -1.14909,0.1878 -1.59472,0.56341c-0.43927,0.37561 -0.6589,0.91991 -0.6589,1.63292v1.51833h2.64514c1.07588,0 1.61383,-0.55386 1.61383,-1.66157zM322.83023,243.9534c0.61752,0.49019 1.68386,1.15864 3.199,2.00535c1.52151,0.8467 2.973,1.27005 4.35446,1.27005c1.38783,0 2.08174,-0.53795 2.08174,-1.61383c0,-0.49019 -0.19736,-0.92309 -0.59206,-1.2987c-0.38834,-0.37561 -1.10453,-0.80532 -2.14858,-1.28915c-1.04405,-0.49019 -1.82709,-0.87217 -2.34912,-1.14591c-0.52203,-0.28011 -1.21594,-0.73847 -2.08174,-1.37509c-0.85943,-0.63662 -1.51833,-1.2987 -1.9767,-1.98625c-1.2987,-1.85256 -1.94805,-4.21441 -1.94805,-7.08555c0,-2.87114 1.06633,-5.29029 3.199,-7.25743c2.13267,-1.97351 4.92742,-2.96026 8.38425,-2.96026c2.34912,0 4.5168,0.25464 6.50304,0.76394c1.98625,0.50293 3.0112,1.16183 3.07486,1.9767c0,0.09549 0,0.19098 0,0.28648c0,1.14591 -0.35969,2.59103 -1.07907,4.33536c-0.71301,1.73796 -1.21594,2.70562 -1.50878,2.90297c-2.0881,-1.07588 -3.95658,-1.61382 -5.60541,-1.61382c-1.64247,0 -2.46371,0.58569 -2.46371,1.75706c0,0.71938 0.60479,1.35599 1.81436,1.90985c0.26102,0.13369 0.63343,0.31512 1.11726,0.54431c0.49019,0.22282 1.0536,0.49019 1.69022,0.80214c0.63662,0.31194 1.32098,0.70346 2.05309,1.17456c0.73211,0.4711 1.52469,1.09817 2.37776,1.8812c1.72523,1.62974 2.58785,3.78151 2.58785,6.4553c0,3.48866 -0.96129,6.34071 -2.88388,8.55613c-1.92258,2.21543 -4.88922,3.35498 -8.89991,3.41864c-1.95441,0 -3.72421,-0.16234 -5.30939,-0.48701c-1.57881,-0.32468 -2.95708,-0.95811 -4.13483,-1.9003c-1.17137,-0.94856 -1.75706,-2.09129 -1.75706,-3.42818c0,-1.3369 0.2451,-2.66424 0.7353,-3.98204c0.49019,-1.32416 1.01222,-2.19633 1.56607,-2.6165zM355.43825,255.53665c0,0.29284 -1.36236,0.43926 -4.08708,0.43926c-2.71835,0 -4.07753,-0.22599 -4.07753,-0.67799v-33.49879c0,-0.22282 0.50611,-0.38197 1.51833,-0.47746c1.01222,-0.10186 1.85892,-0.15279 2.5401,-0.15279c2.73745,0 4.10618,0.29284 4.10618,0.87853v9.77844c1.82709,-0.55386 3.21491,-0.83078 4.16347,-0.83078c2.47644,0 4.43086,0.66208 5.86324,1.98624c1.43239,1.3178 2.14858,3.76877 2.14858,7.35293v15.15467c0,0.29284 -1.27005,0.43926 -3.81015,0.43926c-2.87114,-0.09549 -4.30671,-0.25783 -4.30671,-0.48701v-14.37163c0,-1.59791 -0.51884,-2.39686 -1.55653,-2.39686c-0.71938,0 -1.55335,0.34058 -2.50191,1.02177zM374.85301,238.12835c-0.91036,-1.62974 -1.36554,-2.95708 -1.36554,-3.98204c0,-1.02495 0.27692,-1.68385 0.83078,-1.9767c1.85256,-0.81487 4.39902,-1.2223 7.63941,-1.2223c3.24675,0 5.53856,0.75757 6.87546,2.27272c1.3369,1.51515 2.00535,3.75604 2.00535,6.72268v7.72535h1.66157c0.55386,0 0.98675,0.32786 1.2987,0.98357c0.31194,0.64935 0.46791,1.54379 0.46791,2.68334c0,1.13955 -0.28648,2.26317 -0.85943,3.37088c-0.57295,1.10771 -1.34645,1.66157 -2.32047,1.66157c-1.76343,0 -3.18309,-0.47109 -4.25897,-1.41329c-0.48383,-0.3947 -0.85625,-0.86898 -1.11726,-1.42284c-1.50242,1.89075 -3.83562,2.83613 -6.9996,2.83613c-2.37458,0 -4.37674,-0.8467 -6.00648,-2.5401c-1.62974,-1.6934 -2.44461,-3.69875 -2.44461,-6.01603c0,-5.30939 3.17671,-7.96408 9.53015,-7.96408h2.69289v-0.49657c0,-0.8467 -0.14006,-1.391 -0.42017,-1.63292c-0.27374,-0.24192 -0.91673,-0.36287 -1.92895,-0.36287c-1.2414,0 -3.00165,0.25783 -5.28074,0.77349zM378.7682,247.1333c0,0.71301 0.19417,1.25731 0.58251,1.63292c0.38834,0.37561 0.8849,0.56341 1.48968,0.56341c0.60479,0 1.15228,-0.2451 1.64247,-0.73529v-3.76241h-1.37509c-1.55971,0 -2.33957,0.76712 -2.33957,2.30137zM407.7601,255.83267c0,0.22918 -1.48332,0.34377 -4.44996,0.34377c-2.96664,-0.07003 -4.44995,-0.20054 -4.44995,-0.39152v-16.23373h-1.3178c-0.52203,0 -0.93901,-0.31831 -1.25096,-0.95493c-0.31194,-0.63662 -0.46791,-1.42602 -0.46791,-2.36821c0,-3.52049 1.04405,-5.28074 3.13215,-5.28074c1.46422,0 2.68653,0.44881 3.66691,1.34644c0.98039,0.89126 1.47059,1.90985 1.47059,3.05576c0.68118,-1.3369 1.60109,-2.40323 2.75973,-3.199c1.15864,-0.80214 2.33957,-1.20321 3.54277,-1.20321c1.89075,0 3.03348,0.48701 3.42818,1.46104c0.09549,0.26102 0.14324,0.64617 0.14324,1.15546c0,0.50293 -0.15597,1.40693 -0.46791,2.71199c-0.30558,1.30506 -0.62389,2.25044 -0.95493,2.83613c-0.32468,0.58569 -0.51884,0.87853 -0.5825,0.87853c-0.06366,0 -0.36606,-0.12096 -0.90718,-0.36287c-0.53476,-0.24828 -1.0154,-0.37242 -1.44194,-0.37242c-1.23504,0 -1.85256,0.97721 -1.85256,2.93162zM416.40712,222.04741c0,-0.52203 1.48332,-0.78304 4.44996,-0.78304c2.77565,0.09549 4.16347,0.30876 4.16347,0.6398v18.77383l4.83192,-8.94765c0.22918,-0.49019 1.61382,-0.73529 4.15392,-0.73529c2.54647,0 5.15535,-0.68573 4.89877,1.22104c-0.25658,1.90677 -6.3598,9.63646 -6.3598,9.63646l7.33383,13.73183c0.06366,0.13369 -0.5475,0.23873 -1.83346,0.31512c-1.28596,0.08276 -2.3523,0.12414 -3.199,0.12414c-3.13215,0 -4.81282,-0.14642 -5.042,-0.43926l-4.84148,-10.84795v10.80021c0,0.42653 -1.42602,0.6398 -4.27807,0.6398c-2.85204,0 -4.27807,-0.19735 -4.27807,-0.59205z" fill="none" stroke-opacity="0.49412" stroke="#000000" stroke-width="10" stroke-linecap="square"/><path d="M226.95276,255.09738c0,0.64935 -1.61383,0.97402 -4.84147,0.97402c-3.22765,0 -4.84147,-0.32467 -4.84147,-0.97402v-24.54159h-5.86324c-0.55386,0 -0.94538,-0.7512 -1.17456,-2.25362c-0.09549,-0.71301 -0.14324,-1.44512 -0.14324,-2.19633c0,-0.7512 0.04775,-1.48332 0.14324,-2.19633c0.22918,-1.50242 0.6207,-2.25362 1.17456,-2.25362h21.26619c0.55386,0 0.94538,0.7512 1.17456,2.25362c0.09549,0.71301 0.14324,1.44513 0.14324,2.19633c0,0.7512 -0.04775,1.48332 -0.14324,2.19633c-0.22918,1.50242 -0.6207,2.25362 -1.17456,2.25362h-5.72001zM234.58297,231.73035c0,-0.36287 1.40056,-0.54431 4.20167,-0.54431c2.80112,0 4.20167,0.18144 4.20167,0.54431v14.27614c0,1.62974 0.52203,2.44461 1.56608,2.44461c0.78304,0 1.66476,-0.34377 2.64515,-1.03132v-15.68943c0,-0.32468 1.38464,-0.48701 4.15392,-0.48701c2.76928,0 4.15393,0.16234 4.15393,0.48701v16.0332h1.27005c1.10771,0 1.66157,1.05997 1.66157,3.1799c0,1.07588 -0.226,2.16768 -0.678,3.2754c-0.65571,1.43239 -1.53743,2.14858 -2.64514,2.14858c-2.18359,0 -3.79742,-0.89444 -4.84148,-2.68334l-0.04775,0.04775c-1.98625,1.75706 -4.12209,2.63559 -6.40755,2.63559c-3.15762,0 -5.48764,-0.7894 -6.99006,-2.36822c-1.49605,-1.57881 -2.24408,-4.19531 -2.24408,-7.84949zM271.63673,255.58439c0,0.22918 -1.17137,0.34377 -3.51412,0.34377c-3.25948,-0.09549 -4.88922,-0.27374 -4.88922,-0.53475v-15.84222h-1.27005c-0.8467,0 -1.40056,-0.71619 -1.66157,-2.14858c-0.07003,-0.42653 -0.10504,-0.84989 -0.10504,-1.27006c0,-1.01222 0.19735,-2.02444 0.59205,-3.03666c0.58569,-1.43239 1.49605,-2.14858 2.73109,-2.14858c1.2414,0 2.34912,0.29284 3.32314,0.87853c0.98039,0.58569 1.63611,1.17138 1.96715,1.75706c2.04991,-1.75706 4.49134,-2.63559 7.32428,-2.63559c2.83931,0 4.8924,0.76712 6.15927,2.30137c1.27324,1.52788 1.90985,4.03615 1.90985,7.52481v14.66766c0,0.38834 -1.39419,0.5825 -4.18257,0.5825c-2.78202,0 -4.17302,-0.19417 -4.17302,-0.5825v-14.1329c0,-1.62974 -0.56977,-2.44461 -1.70932,-2.44461c-0.33104,0 -0.78941,0.14006 -1.37509,0.42017c-0.58569,0.27374 -0.96129,0.47746 -1.12681,0.61115zM306.84596,254.56262c-2.05627,1.20321 -4.69823,1.80481 -7.92588,1.80481c-3.22765,0 -5.94919,-1.09816 -8.16461,-3.29449c-2.21543,-2.20269 -3.32314,-5.25209 -3.32314,-9.14819c0,-3.8961 1.06634,-7.03143 3.199,-9.40601c2.13903,-2.38095 4.83829,-3.57142 8.09776,-3.57142c3.25948,0 5.7773,0.83078 7.55346,2.49236c1.77616,1.66157 2.66424,3.68283 2.66424,6.06378c0,5.27755 -3.0303,7.91633 -9.0909,7.91633h-3.38043c0,0.98039 0.26738,1.65839 0.80214,2.03399c0.54112,0.37561 1.33371,0.56341 2.37776,0.56341c2.28546,0 4.45314,-0.52203 6.50304,-1.56608c0.03183,-0.03183 0.17825,0.19417 0.43927,0.678c0.78304,1.40692 1.17456,2.59103 1.17456,3.55232c0,0.96129 -0.30876,1.58836 -0.92628,1.8812zM300.73443,240.42972c0,-1.36873 -0.66845,-2.05309 -2.00535,-2.05309c-0.61752,0 -1.14909,0.1878 -1.59472,0.56341c-0.43927,0.37561 -0.6589,0.91991 -0.6589,1.63292v1.51833h2.64514c1.07588,0 1.61383,-0.55386 1.61383,-1.66157zM322.83023,243.9534c0.61752,0.49019 1.68386,1.15864 3.199,2.00535c1.52151,0.8467 2.973,1.27005 4.35446,1.27005c1.38783,0 2.08174,-0.53795 2.08174,-1.61383c0,-0.49019 -0.19736,-0.92309 -0.59206,-1.2987c-0.38834,-0.37561 -1.10453,-0.80532 -2.14858,-1.28915c-1.04405,-0.49019 -1.82709,-0.87217 -2.34912,-1.14591c-0.52203,-0.28011 -1.21594,-0.73847 -2.08174,-1.37509c-0.85943,-0.63662 -1.51833,-1.2987 -1.9767,-1.98625c-1.2987,-1.85256 -1.94805,-4.21441 -1.94805,-7.08555c0,-2.87114 1.06633,-5.29029 3.199,-7.25743c2.13267,-1.97351 4.92742,-2.96026 8.38425,-2.96026c2.34912,0 4.5168,0.25464 6.50304,0.76394c1.98625,0.50293 3.0112,1.16183 3.07486,1.9767c0,0.09549 0,0.19098 0,0.28648c0,1.14591 -0.35969,2.59103 -1.07907,4.33536c-0.71301,1.73796 -1.21594,2.70562 -1.50878,2.90297c-2.0881,-1.07588 -3.95658,-1.61382 -5.60541,-1.61382c-1.64247,0 -2.46371,0.58569 -2.46371,1.75706c0,0.71938 0.60479,1.35599 1.81436,1.90985c0.26102,0.13369 0.63343,0.31512 1.11726,0.54431c0.49019,0.22282 1.0536,0.49019 1.69022,0.80214c0.63662,0.31194 1.32098,0.70346 2.05309,1.17456c0.73211,0.4711 1.52469,1.09817 2.37776,1.8812c1.72523,1.62974 2.58785,3.78151 2.58785,6.4553c0,3.48866 -0.96129,6.34071 -2.88388,8.55613c-1.92258,2.21543 -4.88922,3.35498 -8.89991,3.41864c-1.95441,0 -3.72421,-0.16234 -5.30939,-0.48701c-1.57881,-0.32468 -2.95708,-0.95811 -4.13483,-1.9003c-1.17137,-0.94856 -1.75706,-2.09129 -1.75706,-3.42818c0,-1.3369 0.2451,-2.66424 0.7353,-3.98204c0.49019,-1.32416 1.01222,-2.19633 1.56607,-2.6165zM355.43825,255.53665c0,0.29284 -1.36236,0.43926 -4.08708,0.43926c-2.71835,0 -4.07753,-0.22599 -4.07753,-0.67799v-33.49879c0,-0.22282 0.50611,-0.38197 1.51833,-0.47746c1.01222,-0.10186 1.85892,-0.15279 2.5401,-0.15279c2.73745,0 4.10618,0.29284 4.10618,0.87853v9.77844c1.82709,-0.55386 3.21491,-0.83078 4.16347,-0.83078c2.47644,0 4.43086,0.66208 5.86324,1.98624c1.43239,1.3178 2.14858,3.76877 2.14858,7.35293v15.15467c0,0.29284 -1.27005,0.43926 -3.81015,0.43926c-2.87114,-0.09549 -4.30671,-0.25783 -4.30671,-0.48701v-14.37163c0,-1.59791 -0.51884,-2.39686 -1.55653,-2.39686c-0.71938,0 -1.55335,0.34058 -2.50191,1.02177zM374.85301,238.12835c-0.91036,-1.62974 -1.36554,-2.95708 -1.36554,-3.98204c0,-1.02495 0.27692,-1.68385 0.83078,-1.9767c1.85256,-0.81487 4.39902,-1.2223 7.63941,-1.2223c3.24675,0 5.53856,0.75757 6.87546,2.27272c1.3369,1.51515 2.00535,3.75604 2.00535,6.72268v7.72535h1.66157c0.55386,0 0.98675,0.32786 1.2987,0.98357c0.31194,0.64935 0.46791,1.54379 0.46791,2.68334c0,1.13955 -0.28648,2.26317 -0.85943,3.37088c-0.57295,1.10771 -1.34645,1.66157 -2.32047,1.66157c-1.76343,0 -3.18309,-0.47109 -4.25897,-1.41329c-0.48383,-0.3947 -0.85625,-0.86898 -1.11726,-1.42284c-1.50242,1.89075 -3.83562,2.83613 -6.9996,2.83613c-2.37458,0 -4.37674,-0.8467 -6.00648,-2.5401c-1.62974,-1.6934 -2.44461,-3.69875 -2.44461,-6.01603c0,-5.30939 3.17671,-7.96408 9.53015,-7.96408h2.69289v-0.49657c0,-0.8467 -0.14006,-1.391 -0.42017,-1.63292c-0.27374,-0.24192 -0.91673,-0.36287 -1.92895,-0.36287c-1.2414,0 -3.00165,0.25783 -5.28074,0.77349zM378.7682,247.1333c0,0.71301 0.19417,1.25731 0.58251,1.63292c0.38834,0.37561 0.8849,0.56341 1.48968,0.56341c0.60479,0 1.15228,-0.2451 1.64247,-0.73529v-3.76241h-1.37509c-1.55971,0 -2.33957,0.76712 -2.33957,2.30137zM407.7601,255.83267c0,0.22918 -1.48332,0.34377 -4.44996,0.34377c-2.96664,-0.07003 -4.44995,-0.20054 -4.44995,-0.39152v-16.23373h-1.3178c-0.52203,0 -0.93901,-0.31831 -1.25096,-0.95493c-0.31194,-0.63662 -0.46791,-1.42602 -0.46791,-2.36821c0,-3.52049 1.04405,-5.28074 3.13215,-5.28074c1.46422,0 2.68653,0.44881 3.66691,1.34644c0.98039,0.89126 1.47059,1.90985 1.47059,3.05576c0.68118,-1.3369 1.60109,-2.40323 2.75973,-3.199c1.15864,-0.80214 2.33957,-1.20321 3.54277,-1.20321c1.89075,0 3.03348,0.48701 3.42818,1.46104c0.09549,0.26102 0.14324,0.64617 0.14324,1.15546c0,0.50293 -0.15597,1.40693 -0.46791,2.71199c-0.30558,1.30506 -0.62389,2.25044 -0.95493,2.83613c-0.32468,0.58569 -0.51884,0.87853 -0.5825,0.87853c-0.06366,0 -0.36606,-0.12096 -0.90718,-0.36287c-0.53476,-0.24828 -1.0154,-0.37242 -1.44194,-0.37242c-1.23504,0 -1.85256,0.97721 -1.85256,2.93162zM416.40712,222.04741c0,-0.52203 1.48332,-0.78304 4.44996,-0.78304c2.77565,0.09549 4.16347,0.30876 4.16347,0.6398v18.77383l4.83192,-8.94765c0.22918,-0.49019 1.61382,-0.73529 4.15392,-0.73529c2.54647,0 4.17939,0.16233 4.89877,0.48701l-6.3598,10.37049l7.33383,13.73183c0.06366,0.13369 -0.5475,0.23873 -1.83346,0.31512c-1.28596,0.08276 -2.3523,0.12414 -3.199,0.12414c-3.13215,0 -4.81282,-0.14642 -5.042,-0.43926l-4.84148,-10.84795v10.80021c0,0.42653 -1.42602,0.6398 -4.27807,0.6398c-2.85204,0 -4.27807,-0.19735 -4.27807,-0.59205z" fill="#ffffff" stroke="none" stroke-width="1" stroke-linecap="square"/></g></g></svg>
