<svg version="1.1" xmlns="http://www.w3.org/2000/svg" xmlns:xlink="http://www.w3.org/1999/xlink" width="309.2973" height="159.64866" viewBox="0,0,309.2973,159.64866"><defs><linearGradient x1="310.49334" y1="211.29406" x2="310.49334" y2="227.4822" gradientUnits="userSpaceOnUse" id="color-1"><stop offset="0" stop-color="#004d1e"/><stop offset="1" stop-color="#004d1e" stop-opacity="0"/></linearGradient><linearGradient x1="310.49334" y1="211.49406" x2="310.49334" y2="195.30591" gradientUnits="userSpaceOnUse" id="color-2"><stop offset="0" stop-color="#004d1e"/><stop offset="1" stop-color="#004d1e" stop-opacity="0"/></linearGradient><linearGradient x1="310.49334" y1="200.12127" x2="310.49334" y2="222.44674" gradientUnits="userSpaceOnUse" id="color-3"><stop offset="0" stop-color="#00ff73"/><stop offset="1" stop-color="#00fffe"/></linearGradient><linearGradient x1="240" y1="105.17574" x2="240" y2="254.82439" gradientUnits="userSpaceOnUse" id="color-4"><stop offset="0" stop-color="#212121"/><stop offset="1" stop-color="#303030"/></linearGradient><linearGradient x1="216.03321" y1="221.44042" x2="206.65931" y2="221.44042" gradientUnits="userSpaceOnUse" id="color-5"><stop offset="0" stop-color="#595959" stop-opacity="0"/><stop offset="1" stop-color="#595959"/></linearGradient><linearGradient x1="197.31543" y1="221.44042" x2="206.68933" y2="221.44042" gradientUnits="userSpaceOnUse" id="color-6"><stop offset="0" stop-color="#595959" stop-opacity="0"/><stop offset="1" stop-color="#595959"/></linearGradient><linearGradient x1="316.1957" y1="126.25897" x2="338.18825" y2="178.81657" gradientUnits="userSpaceOnUse" id="color-7"><stop offset="0" stop-color="#cefffe"/><stop offset="1" stop-color="#f4c6ff"/></linearGradient><linearGradient x1="141.58792" y1="196.10709" x2="150.96182" y2="196.10709" gradientUnits="userSpaceOnUse" id="color-8"><stop offset="0" stop-color="#595959" stop-opacity="0"/><stop offset="1" stop-color="#595959"/></linearGradient><linearGradient x1="160.30569" y1="196.10709" x2="150.9318" y2="196.10709" gradientUnits="userSpaceOnUse" id="color-9"><stop offset="0" stop-color="#595959" stop-opacity="0"/><stop offset="1" stop-color="#595959"/></linearGradient><radialGradient cx="282.34296" cy="163.61792" r="8.09408" gradientUnits="userSpaceOnUse" id="color-10"><stop offset="0" stop-color="#b0d0ff"/><stop offset="1" stop-color="#0066ff"/></radialGradient><radialGradient cx="282.34296" cy="140.21785" r="8.09407" gradientUnits="userSpaceOnUse" id="color-11"><stop offset="0" stop-color="#b0ffff"/><stop offset="1" stop-color="#00ffff"/></radialGradient><radialGradient cx="258.97322" cy="163.61792" r="8.09408" gradientUnits="userSpaceOnUse" id="color-12"><stop offset="0" stop-color="#efb0ff"/><stop offset="1" stop-color="#cc00ff"/></radialGradient><radialGradient cx="258.97322" cy="140.21785" r="8.09407" gradientUnits="userSpaceOnUse" id="color-13"><stop offset="0" stop-color="#b0ffda"/><stop offset="1" stop-color="#00ff95"/></radialGradient></defs><g transform="translate(-85.35134,-100.17573)"><g fill-rule="nonzero" stroke-miterlimit="10" stroke-dasharray="" stroke-dashoffset="0" style="mix-blend-mode: normal"><path d="M92.50901,253.65909v-147.31805h294.98198v147.31805z" fill="#666666" stroke="none" stroke-width="0" stroke-linecap="butt" stroke-linejoin="miter"/><path d="M260.49334,232.89406c-2.20914,0 -4,-1.79086 -4,-4v-35c0,-2.20914 1.79086,-4 4,-4h100c2.20914,0 4,1.79086 4,4v35c0,2.20914 -1.79086,4 -4,4z" fill="#000000" stroke="#272727" stroke-width="5" stroke-linecap="butt" stroke-linejoin="miter"/><path d="M114.05,124.63757c0.8094,-0.4553 1.56233,-0.68429 2.302,-0.79784c0.46852,-0.09164 0.95265,-0.13966 1.448,-0.13966c0.24267,0 0.48265,0.01153 0.71942,0.03406c0.63166,0.0052 1.28354,0.01549 1.98094,-0.03406c1.33042,-0.09453 1.8869,-1.89689 2.94554,-2.7082c4.36588,-3.34592 10.59587,0.15474 12.01008,4.29421c0.55659,1.62917 3.46606,-0.15233 5.16304,0.13793c5.29493,0.90565 12.35906,4.48139 12.68098,10.27607c0.14079,2.53429 -2.4008,3.34282 -2.97251,5.20188c-0.35867,1.16632 1.42792,2.19907 2.58222,2.59472c1.93949,0.66479 3.25353,1.12649 5.11996,2.24634c2.63635,1.58181 6.06191,7.19315 5.81706,10.37631c-0.04281,0.55658 -1.09923,2.83918 -0.89135,3.33168c1.01933,2.41491 4.56256,3.65468 3.39135,7.16832c-0.79672,2.39017 -2.18373,4.76841 -4.19263,6.28894c-1.02079,0.77263 -2.55639,-0.14398 -3.83475,-0.21304c-3.05965,-0.16529 -9.04134,-0.42749 -11.21198,-2.70622c-4.542,-4.76818 -3.51541,-6.30075 -9.62871,-10.37576c-0.67029,-0.44681 -0.12414,1.69897 -0.61616,2.33682c-0.57529,0.7458 -1.55207,1.07163 -2.36987,1.53894c-1.3718,0.78389 -2.61508,2.12342 -4.19263,2.21106c-0.10584,0.00588 -6.47057,-3.62381 -6.5625,-3.75c-0.75867,-1.04143 -0.66061,-2.49163 -0.9375,-3.75c-0.72364,-3.28871 2.09623,-6.43791 2.39439,-9.43035c0.01177,-0.11816 -2.21262,0.48958 -2.47513,0.47708c-1.44436,-0.06878 -3.56297,-0.41091 -4.77336,-1.33853c-1.38827,-1.06394 -3.77809,-3.33329 -4.05749,-5.22589c-0.38683,-2.62033 0.88913,-3.64662 0.10508,-5.0187c-2.21056,-1.30464 -3.6935,-3.71095 -3.6935,-6.46362c0,-2.44072 1.16587,-4.60913 2.97108,-5.97872c0.2309,-0.22353 0.48835,-0.42033 0.77892,-0.58378z" fill="#4d4d4d" stroke="none" stroke-width="0.5" stroke-linecap="butt" stroke-linejoin="miter"/><path d="M258.94417,227.4822v-16.18815h103.09834v16.18815z" fill="url(#color-1)" stroke="none" stroke-width="0" stroke-linecap="butt" stroke-linejoin="miter"/><path d="M258.94417,211.49406v-16.18814h103.09834v16.18814z" fill="url(#color-2)" stroke="none" stroke-width="0" stroke-linecap="butt" stroke-linejoin="miter"/><path d="M251.83225,240.11737c-1.22672,1.68653 -4.19039,2.55498 -6.10002,2.81488c-3.05948,0.4164 -7.26646,-3.57745 -8.91257,-3.43948c-2.95115,0.24737 -5.44777,1.29696 -8.43389,1.1368c-2.8551,-0.15313 -4.69338,-0.99998 -7.04571,-2.41012c-1.84715,-1.1073 -4.33228,-0.06729 -6.44118,-0.50388c-1.19427,-0.24724 -2.62386,-0.35642 -3.43104,-1.27068c-0.99744,-1.12977 -1.4668,-3.50634 -2.97069,-3.40831c-4.27594,0.27872 -5.82098,1.4707 -10.27451,0.46142c-9.76379,-2.21272 -5.61849,-7.74005 -5.38629,-13.14918c0.06758,-1.5742 -1.48354,-0.93022 -2.03016,-2.18982c-0.48551,-1.11879 -0.44594,-2.40669 -0.49341,-3.62536c-0.20186,-5.18234 2.43173,-13.65735 7.49765,-15.90165c0.95242,-2.2596 2.80268,-2.71749 6.40007,-2.46169c0.72069,0.05124 1.0111,1.20313 1.72536,1.31197c0.5494,0.08372 0.89669,-0.74934 1.44675,-0.82854c0.64775,-0.09327 1.31621,0.11634 1.93591,0.32671c0.82677,0.28067 1.69121,1.51311 2.6206,1.70546c0.27586,0.05709 4.9241,-0.8744 5.2041,-0.84356c2.52161,0.27776 6.02532,6.77954 7.21354,9.26764c0.29947,0.62709 0.4693,1.26417 0.82626,1.94462c0.13327,0.25405 0.47755,0.94211 0.54767,0.66392c0.40543,-1.60834 1.84173,-2.15499 3.13444,-2.67386c5.14963,-2.06691 6.50303,2.36364 9.70546,5.91818c0.8857,0.98309 1.84021,1.91738 2.89587,2.7152c0.1185,0.08956 0.06123,-0.29569 0.13472,-0.42479c0.4435,-0.77913 0.89411,-1.55715 1.41056,-2.28996c0.27742,-0.39364 5.09409,-1.29151 5.49471,-1.02426c4.24594,2.83249 8.04619,9.47166 11.0081,13.2467c0.56387,0.71867 1.43191,3.49084 2.40463,3.86881c0.37058,0.14399 1.3366,-1.38306 1.56358,-1.63195c0.97438,-1.06841 4.47591,-5.12013 6.10053,-4.47883l4.81806,1.90187c0.23714,1.50245 1.17289,3.08425 0.98875,4.53886c-0.02808,0.22184 -0.08221,0.44072 -0.16884,0.65591c-0.13763,0.34189 -0.3297,0.66723 -0.55872,0.97967c-0.2436,0.36241 -0.53654,0.69921 -0.87772,1.00017c-0.86151,0.85755 -1.87794,1.63718 -2.58928,2.4354c-3.39396,3.80847 -6.77913,7.2194 -12.01069,6.77143c-1.89865,-0.16258 -4.51563,-5.42954 -5.29825,-5.39698c-0.07367,0.00306 -0.14413,0.01495 -0.21194,0.03421c-0.41552,1.66487 -1.05773,3.17427 -1.84241,4.25306z" fill="#4d4d4d" stroke="none" stroke-width="0.5" stroke-linecap="butt" stroke-linejoin="miter"/><path d="M323.55,129.63754c3.36242,-1.8914 8.67964,-1.15884 12.29856,-2.21571c10.84357,-3.16676 25.46492,-4.10045 26.45144,9.39293c0.04771,0.65259 1.16859,0.59158 1.72967,0.92823c2.05434,1.2326 4.62201,4.95517 5.18191,7.47473c0.65516,2.94823 -1.83311,4.84896 -2.12039,7.43448c-0.04837,0.43536 0.70814,0.52656 0.99774,0.85521c0.80352,0.91186 1.07715,2.97007 1.41926,4.33853c1.19285,4.77141 2.85839,7.88233 -0.09978,12.46229c-0.43756,0.67745 0.66383,3.1528 0.30317,3.87413c-1.12673,2.25347 -2.64971,4.83609 -5.03988,5.63281c-1.19634,0.39878 -10.33762,-1.5749 -12.00452,-4.07524c-1.62457,-2.43685 -2.07754,-5.74983 -1.0754,-8.39398c0.49009,-1.29311 1.11211,-1.87012 2.04805,-2.80605c0.46731,-0.46731 2.09969,-1.00134 1.50532,-1.29028c-4.39491,-2.13646 -9.4249,-1.54778 -13.47797,-5.00969c-1.48175,-1.26563 0.07183,-5.34598 -1.86719,-5.53988c-1.91469,-0.19147 -4.23281,0.14627 -6.23299,-0.10205c-5.13113,-0.63701 -16.75238,-5.62402 -15.31374,-12.81722c0.24008,-1.20042 1.33485,-1.72528 1.57494,-2.9257c-0.01868,-0.21586 -0.02821,-0.43434 -0.02821,-0.65504c0,-2.44072 1.16587,-4.60913 2.97108,-5.97872c0.2309,-0.22353 0.48835,-0.42033 0.77892,-0.58378z" fill="#4d4d4d" stroke="none" stroke-width="0.5" stroke-linecap="butt" stroke-linejoin="miter"/><path d="M145.76396,236.06615c-1.8644,-0.83443 -3.62456,-1.95858 -5.59321,-2.50329c-0.29631,-0.08199 -0.16579,0.59451 -0.29167,0.875c-0.38047,0.84779 -1.29825,2.8171 -2.07524,3.2611c-1.5555,0.88886 -3.28312,1.51584 -5.03988,1.86719c-1.72333,0.34467 -5.45207,-2.50893 -6.5625,-3.75c-0.56514,-0.63163 0.00737,-2.35359 -0.83889,-2.40028c-1.10007,-0.0607 -1.99856,1.08917 -3.09861,1.15028c-1.86586,0.10366 -5.54296,-2.22069 -6.5625,-3.75c-1.58222,-2.37333 -1.12125,-5.32052 -2.70205,-7.8783c-1.48912,-2.40945 -4.28441,-4.35411 -5.52439,-6.67908c-3.41417,-6.40157 -5.65586,-13.68239 -2.4883,-20.73606c1.56938,-3.49476 1.83664,-4.20482 5.88117,-5.3731c0.69935,-0.20201 1.16926,-1.04309 1.89608,-1.08347c1.86586,-0.10366 5.54296,2.22069 6.5625,3.75c1.69637,2.54456 0.37943,2.89451 0.9375,4.97949c0.6847,2.55808 2.39809,5.35317 3.0625,7.52051c0.36666,1.19605 0.34152,8.52245 1.73929,8.58307c1.10384,0.04787 1.98975,-0.50927 3.18053,-0.24466c0.21875,0.04861 0.40279,0.587 0.5355,0.40643c2.6476,-3.60273 2.07948,-5.2445 7.98219,-5.2445c0.68712,0 1.32583,-0.72318 1.98874,-0.54238c4.14584,1.13068 4.77403,4.30269 6.86606,7.18314c2.44703,3.36924 7.49669,5.86758 7.49669,10.51484c0,1.60704 0.79784,5.4373 -0.88787,6.40056z" fill="#4d4d4d" stroke="none" stroke-width="0.5" stroke-linecap="butt" stroke-linejoin="miter"/><path d="M280.74283,115.08441c0.25886,0.03884 0.56162,0.12233 0.90104,0.24442c0.83716,0.22701 1.64266,0.60154 2.37537,1.12358c4.41735,2.42928 10.94088,7.36605 12.97879,9.29639c4.54862,4.3085 6.00716,5.16396 4.50781,10.57707c-0.34373,1.24098 0.0733,3.08199 -1.04592,3.71881c-7.12568,4.05444 -14.28877,3.23176 -22.31045,3.45717c-1.02003,0.02866 -0.12541,2.16204 -0.75189,2.96751c-0.52168,0.67072 -1.57134,0.70799 -2.21326,1.26471c-0.64191,0.55674 -0.82726,1.59058 -1.56501,2.01216c-3.18252,1.81858 -9.21859,-0.71858 -12.81787,-0.53654c-2.57236,0.1301 -5.09739,2.49995 -7.54086,1.68546c-3.35538,-1.11846 -6.73807,-8.11807 -5.27389,-11.57873c2.1179,-5.00573 5.47122,-6.38393 10.37086,-5.83349c0.84715,0.09517 3.20358,1.1974 3.82405,0.72714c0.54832,-0.41557 -0.0725,-1.42684 0.21238,-2.0531c0.9472,-2.08226 3.27528,-4.09954 5.71583,-4.68444c1.18392,-0.28373 2.5641,-0.3957 3.85403,-0.29646c0.11109,0.00854 2.40397,0.71695 2.3921,0.67936c-0.39069,-0.39281 -0.72892,-0.81812 -1.01469,-1.26719c-1.8458,-2.90063 -1.50268,-6.79267 1.02935,-9.3247c1.48469,-1.48469 3.43698,-2.21679 5.38283,-2.19628c0.3261,-0.03502 0.65557,-0.0329 0.98939,0.01718z" fill="#4d4d4d" stroke="none" stroke-width="0.5" stroke-linecap="butt" stroke-linejoin="miter"/><path d="M257.03074,212.05736l8.64203,0.33333l4.12058,-9.95065l8.03162,20.0067l7.86021,-16.53991l5.10062,9.87884l6.1885,-7.27214l3.33555,2.93793l6.67375,0.02674l5.70311,6.64079l9.03382,-17.99772l7.07549,13.08934l5.89525,-9.0359l8.60638,14.88264l8.0487,-12.05786l3.02861,5.05l9.58097,0.00786" fill="none" stroke="url(#color-3)" stroke-width="3" stroke-linecap="round" stroke-linejoin="miter"/><path d="M90.35135,117.6714c0,-6.39897 5.91545,-12.49566 13.1192,-12.49566c28.93252,0 219.72832,0 272.60996,0c8.61359,0 13.56814,4.64378 13.56814,12.24625c0,30.59212 0,109.0924 0,125.70487c0,6.03964 -4.85913,11.69754 -13.31873,11.69754c-52.46667,0 -243.42599,0 -272.60996,0c-7.3279,0 -13.36861,-4.5235 -13.36861,-11.94695c0,-30.16113 0,-108.19342 0,-125.20604z" fill="none" stroke="url(#color-4)" stroke-width="10" stroke-linecap="butt" stroke-linejoin="miter"/><path d="M118.47723,225.70152c-2.20914,0 -4,-1.47421 -4,-4.2614c0,-2.78719 1.79086,-4.26141 4,-4.26141h120.66666c2.20914,0 4,1.47422 4,4.26141c0,2.78719 -1.79086,4.2614 -4,4.2614z" fill="#000000" stroke="#272727" stroke-width="5" stroke-linecap="butt" stroke-linejoin="miter"/><path d="M193.81057,229.10678c-2.20914,0 -4,-1.79086 -4,-4v-7.33333c0,-2.20914 1.79086,-4 4,-4h26c2.20914,0 4,1.79086 4,4v7.33333c0,2.20914 -1.79086,4 -4,4z" fill="#414141" stroke="#272727" stroke-width="5" stroke-linecap="butt" stroke-linejoin="miter"/><path d="M206.65931,226.54023v-10.19962h9.37391v10.19962z" fill="url(#color-5)" stroke="#272727" stroke-width="0" stroke-linecap="butt" stroke-linejoin="miter"/><path d="M197.31543,226.54023v-10.19962h9.3739v10.19962z" fill="url(#color-6)" stroke="#272727" stroke-width="0" stroke-linecap="butt" stroke-linejoin="miter"/><path d="M101.29381,120.96983c0,-2.75284 2.23162,-4.98446 4.98446,-4.98446c2.75284,0 4.98447,2.23163 4.98447,4.98447c0,2.75284 -2.23163,4.98446 -4.98446,4.98446c-2.75284,0 -4.98446,-2.23162 -4.98446,-4.98446z" fill="#303030" stroke="#212121" stroke-width="2" stroke-linecap="butt" stroke-linejoin="miter"/><path d="M107.69494,119.55317l-2.83334,2.83333" fill="none" stroke="#212121" stroke-width="2" stroke-linecap="round" stroke-linejoin="miter"/><path d="M104.8616,119.55317l2.83334,2.83333" fill="none" stroke="#212121" stroke-width="2" stroke-linecap="round" stroke-linejoin="miter"/><path d="M373.72173,125.95429c-2.75284,0 -4.98446,-2.23162 -4.98446,-4.98446c0,-2.75284 2.23163,-4.98446 4.98447,-4.98446c2.75284,0 4.98446,2.23163 4.98446,4.98447c0,2.75284 -2.23162,4.98446 -4.98446,4.98446z" fill="#303030" stroke="#212121" stroke-width="2" stroke-linecap="butt" stroke-linejoin="miter"/><path d="M375.13839,122.3865l-2.83333,-2.83333" fill="none" stroke="#212121" stroke-width="2" stroke-linecap="round" stroke-linejoin="miter"/><path d="M375.13839,119.55317l-2.83333,2.83333" fill="none" stroke="#212121" stroke-width="2" stroke-linecap="round" stroke-linejoin="miter"/><path d="M106.27827,234.04591c2.75284,0 4.98447,2.23162 4.98447,4.98446c0,2.75284 -2.23163,4.98447 -4.98446,4.98447c-2.75284,0 -4.98446,-2.23163 -4.98446,-4.98446c0,-2.75284 2.23162,-4.98446 4.98446,-4.98446z" fill="#303030" stroke="#212121" stroke-width="2" stroke-linecap="butt" stroke-linejoin="miter"/><path d="M107.69494,240.44705l-2.83334,-2.83333" fill="none" stroke="#212121" stroke-width="2" stroke-linecap="round" stroke-linejoin="miter"/><path d="M260.49334,232.89406c-2.20914,0 -4,-1.79086 -4,-4v-35c0,-2.20914 1.79086,-4 4,-4h100c2.20914,0 4,1.79086 4,4v35c0,2.20914 -1.79086,4 -4,4z" fill="none" stroke="#272727" stroke-width="5" stroke-linecap="butt" stroke-linejoin="miter"/><path d="M104.86161,240.44704l2.83334,-2.83333" fill="none" stroke="#212121" stroke-width="2" stroke-linecap="round" stroke-linejoin="miter"/><path d="M373.72173,244.01483c-2.75284,0 -4.98446,-2.23163 -4.98446,-4.98446c0,-2.75284 2.23163,-4.98446 4.98447,-4.98446c2.75284,0 4.98446,2.11073 4.98446,4.98446c0,2.87373 -2.23163,4.98446 -4.98447,4.98446z" fill="#303030" stroke="#212121" stroke-width="2" stroke-linecap="butt" stroke-linejoin="miter"/><path d="M372.30506,240.44704l2.83333,-2.83333" fill="none" stroke="#212121" stroke-width="2" stroke-linecap="round" stroke-linejoin="miter"/><path d="M372.30507,237.61372l2.83333,2.83333" fill="none" stroke="#212121" stroke-width="2" stroke-linecap="round" stroke-linejoin="miter"/><path d="M121.91727,147.30811c-6.37844,-1.04411 -10.70276,-7.06128 -9.65865,-13.43972c1.04411,-6.37844 7.06128,-10.70276 13.43972,-9.65865c6.37844,1.04411 10.70276,7.06128 9.65865,13.43972c-1.04411,6.37844 -7.06128,10.70276 -13.43972,9.65865z" fill="#414141" stroke="#272727" stroke-width="5" stroke-linecap="butt" stroke-linejoin="miter"/><path d="M118.34125,157.74365c5.71487,-3.01909 12.79514,-0.83373 15.81424,4.88114c3.01909,5.71487 0.83373,12.79514 -4.88114,15.81424c-5.71487,3.01909 -12.79514,0.83372 -15.81424,-4.88115c-3.01909,-5.71487 -0.83373,-12.79514 4.88114,-15.81423z" fill="#414141" stroke="#272727" stroke-width="5" stroke-linecap="butt" stroke-linejoin="miter"/><path d="M121.80358,135.43087l-7.83789,-1.28302" fill="none" stroke="#272727" stroke-width="5" stroke-linecap="round" stroke-linejoin="miter"/><path d="M125.60352,167.14271l7.02249,-3.70988" fill="none" stroke="#272727" stroke-width="5" stroke-linecap="round" stroke-linejoin="miter"/><path d="M148.93746,128.67425c0,-2.36585 2.49592,-4.61993 5.53542,-4.61993c12.20757,0 59.04389,0 81.35638,0c3.63436,0 5.72484,1.71692 5.72484,4.52773c0,11.31062 0,40.33402 0,46.47604c0,2.23299 -2.05022,4.32486 -5.6196,4.32486c-22.1374,0 -69.04271,0 -81.35638,0c-3.09188,0 -5.64065,-1.67245 -5.64065,-4.41707c0,-11.15127 0,-40.00165 0,-46.29161z" fill="#000000" stroke="#272727" stroke-width="5" stroke-linecap="butt" stroke-linejoin="miter"/><path d="M157.25027,165.28779c1.56488,0 11.88446,0 14.74468,0c0.46588,0 0.73386,0.18914 0.73386,0.49879c0,1.24601 0,4.44331 0,5.11993c0,0.24599 -0.26281,0.47644 -0.72037,0.47644c-2.83777,0 -13.16621,0 -14.74468,0c-0.39634,0 -0.72307,-0.18424 -0.72307,-0.4866c0,-1.22845 0,-4.4067 0,-5.09962c0,-0.26063 0.31996,-0.50894 0.70958,-0.50894z" fill="#18ff00" stroke="#0dbd00" stroke-width="2" stroke-linecap="butt" stroke-linejoin="miter"/><path d="M192.47479,171.58293c-1.57848,0 -11.90691,0 -14.74468,0c-0.45755,0 -0.72037,-0.23045 -0.72037,-0.47644c0,-0.67662 0,-3.87392 0,-5.11993c0,-0.30965 0.26798,-0.49879 0.73386,-0.49879c2.86022,0 13.17981,0 14.74469,0c0.38963,0 0.70958,0.24832 0.70958,0.50895c0,0.69291 0,3.87115 0,5.09961c0,0 -0.32673,0.4866 -0.72308,0.4866z" fill="#18ff00" stroke="#0dbd00" stroke-width="2" stroke-linecap="butt" stroke-linejoin="miter"/><path d="M213.66686,170.89633c0,0.30235 -0.32672,0.4866 -0.72307,0.4866c-1.57848,0 -11.90691,0 -14.74468,0c-0.45756,0 -0.72037,-0.23045 -0.72037,-0.47644c0,-0.67662 0,-3.87392 0,-5.11993c0,-0.30965 0.26798,-0.49879 0.73386,-0.49879c2.86022,0 13.17981,0 14.74469,0c0.38963,0 0.70959,0.50895 0.70959,0.50895c0,0 -0.00002,3.87115 -0.00002,5.09961z" fill="#18ff00" stroke="#0dbd00" stroke-width="2" stroke-linecap="butt" stroke-linejoin="miter"/><path d="M217.94778,165.79671c0,-0.26063 0.31996,-0.50895 0.70958,-0.50895c1.56487,0 11.88446,0 14.74468,0c0.46588,0 0.73386,0.18914 0.73386,0.49879c0,1.24601 0,4.44331 0,5.11993c0,0.24599 -0.26281,0.47644 -0.72037,0.47644c-2.83778,0 -13.16621,0 -14.74469,0c-0.39635,0 -0.72307,-0.18425 -0.72307,-0.4866c0,-1.22846 0.00001,-5.09961 0.00001,-5.09961z" fill="#18ff00" stroke="#0dbd00" stroke-width="2" stroke-linecap="butt" stroke-linejoin="miter"/><path d="M157.25027,154.03777c1.56488,0 11.88446,0 14.74468,0c0.46588,0 0.73386,0.18914 0.73386,0.49879c0,1.24601 0,4.44331 0,5.11993c0,0.24599 -0.26281,0.47644 -0.72037,0.47644c-2.83777,0 -13.16621,0 -14.74468,0c-0.39634,0 -0.72307,-0.18424 -0.72307,-0.4866c0,-1.22845 0,-4.4067 0,-5.09962c0,-0.26063 0.31996,-0.50894 0.70958,-0.50894z" fill="#c7ff00" stroke="#a7d400" stroke-width="2" stroke-linecap="butt" stroke-linejoin="miter"/><path d="M213.66686,159.64632c0,0.30235 -0.32672,0.4866 -0.72307,0.4866c-1.57848,0 -11.90691,0 -14.74468,0c-0.45756,0 -0.72037,-0.23045 -0.72037,-0.47644c0,-0.67662 0,-3.87392 0,-5.11993c0,-0.30965 0.26798,-0.49879 0.73386,-0.49879c2.86022,0 13.17981,0 14.74469,0c0.38963,0 0.70959,0.50895 0.70959,0.50895c0,0 -0.00002,3.87115 -0.00002,5.09961z" fill="#c7ff00" stroke="#a7d400" stroke-width="2" stroke-linecap="butt" stroke-linejoin="miter"/><path d="M217.94778,154.54671c0,-0.26063 0.31996,-0.50895 0.70958,-0.50895c1.56487,0 11.88446,0 14.74468,0c0.46588,0 0.73386,0.18914 0.73386,0.49879c0,1.24601 0,4.44331 0,5.11993c0,0.24599 -0.26281,0.47644 -0.72037,0.47644c-2.83778,0 -13.16621,0 -14.74469,0c-0.39635,0 -0.72307,-0.18425 -0.72307,-0.4866c0,-1.22846 0.00001,-5.09961 0.00001,-5.09961z" fill="#c7ff00" stroke="#a7d400" stroke-width="2" stroke-linecap="butt" stroke-linejoin="miter"/><path d="M157.25027,142.78777c1.56488,0 11.88446,0 14.74468,0c0.46588,0 0.73386,0.18914 0.73386,0.49879c0,1.24601 0,4.44331 0,5.11993c0,0.24599 -0.26281,0.47644 -0.72037,0.47644c-2.83777,0 -13.16621,0 -14.74468,0c-0.39634,0 -0.72307,-0.18424 -0.72307,-0.4866c0,-1.22845 0,-4.4067 0,-5.09962c0,-0.26063 0.31996,-0.50894 0.70958,-0.50894z" fill="#ffe100" stroke="#ffc400" stroke-width="2" stroke-linecap="butt" stroke-linejoin="miter"/><path d="M213.66686,148.39632c0,0.30235 -0.32672,0.4866 -0.72307,0.4866c-1.57848,0 -11.90691,0 -14.74468,0c-0.45756,0 -0.72037,-0.23045 -0.72037,-0.47644c0,-0.67662 0,-3.87392 0,-5.11993c0,-0.30965 0.26798,-0.49879 0.73386,-0.49879c2.86022,0 13.17981,0 14.74469,0c0.38963,0 0.70959,0.50895 0.70959,0.50895c0,0 -0.00002,3.87115 -0.00002,5.09961z" fill="#ffe100" stroke="#ffc400" stroke-width="2" stroke-linecap="butt" stroke-linejoin="miter"/><path d="M213.66686,137.14632c0,0.30235 -0.32672,0.4866 -0.72307,0.4866c-1.57848,0 -11.90691,0 -14.74468,0c-0.45756,0 -0.72037,-0.23045 -0.72037,-0.47644c0,-0.67662 0,-3.87392 0,-5.11993c0,-0.30965 0.26798,-0.49879 0.73386,-0.49879c2.86022,0 13.17981,0 14.74469,0c0.38963,0 0.70959,0.50895 0.70959,0.50895c0,0 -0.00002,3.87115 -0.00002,5.09961z" fill="#ff0000" stroke="#b90000" stroke-width="2" stroke-linecap="butt" stroke-linejoin="miter"/><path d="M138.80002,238.6316c0,0.50215 -1.248,0.75323 -3.744,0.75323c-2.496,0 -3.74401,-0.25107 -3.74401,-0.75323v-18.97848h-4.53416c-0.4283,0 -0.73107,-0.58092 -0.9083,-1.74277c-0.07384,-0.55138 -0.11076,-1.11754 -0.11076,-1.69846c0,-0.58092 0.03692,-1.14708 0.11077,-1.69846c0.17723,-1.16184 0.48,-1.74277 0.90831,-1.74277h16.44556c0.4283,0 0.73108,0.58092 0.90831,1.74277c0.07384,0.55138 0.11077,1.11754 0.11077,1.69846c0,0.58092 -0.03692,1.14708 -0.11076,1.69846c-0.17723,1.16184 -0.48,1.74277 -0.9083,1.74277h-4.42338zM144.7006,220.56144c0,-0.28061 1.08308,-0.42092 3.24924,-0.42092c2.16615,0 3.24924,0.14031 3.24924,0.42092v11.04001c0,1.26031 0.40369,1.89046 1.21108,1.89046c0.60553,0 1.28739,-0.26585 2.04554,-0.79754v-12.13294c0,-0.25107 1.07077,-0.37661 3.21232,-0.37661c2.14154,0 3.21232,0.12554 3.21232,0.37662v12.39878h0.98215c0.85662,0 1.28492,0.8197 1.28492,2.45908c0,0.832 -0.17476,1.67631 -0.5243,2.53293c-0.50708,1.10769 -1.18892,1.66154 -2.04554,1.66154c-1.68862,0 -2.93662,-0.69169 -3.744,-2.07508l-0.03692,0.03692c-1.536,1.35877 -3.18769,2.03816 -4.95508,2.03816c-2.44185,0 -4.2437,-0.61046 -5.40555,-1.83139c-1.15693,-1.22092 -1.73538,-3.24431 -1.73538,-6.07016zM173.35499,239.00822c0,0.17723 -0.90584,0.26585 -2.71754,0.26585c-2.52061,-0.07384 -3.78093,-0.21169 -3.78093,-0.41354v-12.25109h-0.98215c-0.65477,0 -1.08308,-0.55384 -1.28492,-1.66154c-0.05415,-0.32985 -0.08122,-0.65723 -0.08122,-0.98215c0,-0.78277 0.15262,-1.56554 0.45784,-2.34831c0.45292,-1.10769 1.15693,-1.66154 2.112,-1.66154c0.96,0 1.81661,0.22646 2.56985,0.67939c0.75815,0.45292 1.26523,0.90584 1.52123,1.35877c1.58523,-1.35877 3.47324,-2.03816 5.66401,-2.03816c2.19569,0 3.78339,0.59323 4.76308,1.77969c0.98461,1.18154 1.47693,3.12123 1.47693,5.81909v11.34278c0,0.30031 -1.07815,0.45046 -3.23446,0.45046c-2.15139,0 -3.22708,-0.15015 -3.22708,-0.45046v-10.92924c0,-1.26031 -0.44061,-1.89046 -1.32184,-1.89046c-0.256,0 -0.61046,0.1083 -1.06339,0.32492c-0.45292,0.21169 -0.74339,0.36923 -0.87138,0.47262zM194.45372,239.61376c-2.496,0 -4.60062,-0.84923 -6.31385,-2.54769c-1.71323,-1.70338 -2.56985,-4.06154 -2.56985,-7.07447c0,-3.01293 0.82461,-5.43754 2.47385,-7.27386c1.65416,-1.84123 3.74154,-2.76185 6.26216,-2.76185c2.52061,0 4.4677,0.64246 5.84124,1.92739c1.37354,1.28492 2.0603,2.848 2.0603,4.68923c0,4.08124 -2.34338,6.12185 -7.03016,6.12185h-2.61415c0,0.75815 0.20677,1.28246 0.62031,1.57292c0.41846,0.29046 1.03138,0.4357 1.83877,0.4357c1.76739,0 3.4437,-0.40369 5.02893,-1.21108c0.02461,-0.02461 0.13784,0.15015 0.33968,0.52431c0.60553,1.088 0.90831,2.00369 0.90831,2.74708c0,0.74339 -0.23877,1.22831 -0.71631,1.45477c0,0 -3.63324,1.39567 -6.12925,1.39567zM195.8568,227.28882c0,-1.05846 -0.51692,-1.58769 -1.55077,-1.58769c-0.47754,0 -0.88861,0.14523 -1.23323,0.4357c-0.33969,0.29046 -0.50954,0.71138 -0.50954,1.26277v1.17416h2.04554c0.832,0 1.248,-0.4283 1.248,-1.28492zM212.9439,230.01375c0.47754,0.37908 1.30215,0.896 2.47385,1.55077c1.17662,0.65477 2.29908,0.98215 3.36739,0.98215c1.07323,0 1.60984,-0.416 1.60984,-1.248c0,-0.37908 -0.15262,-0.71385 -0.45784,-1.00431c-0.30031,-0.29046 -0.85415,-0.62277 -1.66154,-0.99693c-0.80738,-0.37908 -1.41292,-0.67446 -1.81661,-0.88616c-0.40369,-0.21661 -0.94031,-0.57107 -1.60984,-1.06339c-0.66461,-0.49231 -1.17415,-1.00431 -1.52861,-1.536c-1.00431,-1.43261 -1.50646,-3.25908 -1.50646,-5.47939c0,-2.22031 0.82461,-4.09108 2.47385,-5.61232c1.64923,-1.52615 3.81047,-2.28923 6.4837,-2.28923c1.81661,0 3.49293,0.19692 5.02893,0.59077c1.536,0.38893 2.32862,0.89846 2.37785,1.52862c0,0.07384 0,0.14769 0,0.22153c0,0.88616 -0.27815,2.00369 -0.83446,3.35262c-0.55138,1.344 -0.94031,2.09231 -1.16677,2.24493c-1.61477,-0.832 -3.0597,-1.248 -4.33477,-1.248c-1.27016,0 -1.90523,0.45292 -1.90523,1.35877c0,0.55631 0.46769,1.04861 1.40307,1.47693c0.20184,0.10338 0.48985,0.24369 0.864,0.42092c0.37908,0.17231 0.81477,0.37908 1.30708,0.62031c0.49231,0.24123 1.02154,0.544 1.5877,0.90831c0.56616,0.3643 1.17907,0.84923 1.83877,1.45477c1.33416,1.26031 2.00124,2.92431 2.00124,4.99201c0,2.69784 -0.74339,4.90339 -2.23015,6.61663c-1.48677,1.71323 -3.78093,2.59446 -6.88247,2.64369c-1.51139,0 -2.88,-0.12554 -4.10585,-0.37661c-1.22092,-0.25107 -2.28677,-0.74092 -3.19754,-1.46953c-0.90584,-0.73354 -1.35877,-1.61723 -1.35877,-2.65107c0,-1.03385 0.18954,-2.0603 0.56861,-3.07939c0.37908,-1.024 0.78277,-1.69846 1.21108,-2.02338zM238.16032,238.9713c0,0.22646 -1.05354,0.33969 -3.16062,0.33969c-2.10216,0 -3.15323,-0.17476 -3.15323,-0.5243v-25.90525c0,-0.17231 0.39138,-0.29539 1.17416,-0.36923c0.78277,-0.07877 1.43754,-0.11815 1.96431,-0.11815c2.11692,0 3.17539,0.22646 3.17539,0.67939v7.56186c1.41292,-0.4283 2.48616,-0.64246 3.2197,-0.64246c1.91508,0 3.42647,0.51199 4.53416,1.536c1.10769,1.01907 1.66154,2.91446 1.66154,5.68616v11.7194c0,0.22646 -0.98215,0.33969 -2.94646,0.33969c-2.22031,-0.07384 -3.33046,-0.19938 -3.33046,-0.37661v-11.11386c0,-1.23569 -0.40123,-1.85353 -1.20369,-1.85353c-0.55631,0 -1.20123,0.26338 -1.93477,0.79016zM253.17412,225.50913c-0.704,-1.26031 -1.05599,-2.28677 -1.05599,-3.07939c0,-0.79262 0.21415,-1.30215 0.64246,-1.52862c1.43261,-0.63015 3.40185,-0.94523 5.9077,-0.94523c2.51077,0 4.28308,0.58585 5.31693,1.75754c1.03385,1.17169 1.55077,2.90461 1.55077,5.19878v5.97416h1.28492c0.4283,0 0.76308,0.25354 1.00431,0.76062c0.24123,0.50215 0.36184,1.19385 0.36184,2.07508c0,0.88123 -0.22153,1.75015 -0.66461,2.60677c-0.44308,0.85662 -1.04123,1.28492 -1.79446,1.28492c-1.3637,0 -2.46154,-0.3643 -3.29354,-1.09292c-0.37415,-0.30522 -0.66215,-0.67199 -0.864,-1.10031c-1.16184,1.46215 -2.96616,2.19323 -5.41293,2.19323c-1.83631,0 -3.38462,-0.65477 -4.64493,-1.96431c-1.26031,-1.30953 -1.89046,-2.86031 -1.89046,-4.65231c0,-4.10585 2.45662,-6.15877 7.36985,-6.15877h2.08246v-0.384c0,-0.65477 -0.1083,-1.07569 -0.32492,-1.26276c-0.21169,-0.18707 -0.70892,-0.28061 -1.49169,-0.28061c-0.96,0 -2.32124,0.19939 -4.0837,0.59815zM256.20182,232.47283c0,0.55138 0.15015,0.9723 0.45046,1.26277c0.30031,0.29046 0.68431,0.4357 1.152,0.4357c0.46769,0 0.89108,-0.18954 1.27016,-0.56861v-2.90954h-1.06339c-1.20615,0 -1.80923,0.59323 -1.80923,1.77969zM278.62181,239.20023c0,0.17723 -1.14708,0.26585 -3.44123,0.26585c-2.29415,-0.05415 -3.44123,-0.15507 -3.44123,-0.30277v-12.55386h-1.01907c-0.40369,0 -0.72616,-0.24615 -0.96738,-0.73846c-0.24123,-0.49231 -0.36184,-1.10276 -0.36184,-1.83139c0,-2.72247 0.80738,-4.0837 2.42216,-4.0837c1.1323,0 2.07754,0.34708 2.8357,1.04123c0.75815,0.68923 1.13723,1.47693 1.13723,2.36308c0.52677,-1.03385 1.23815,-1.85846 2.13416,-2.47385c0.896,-0.62031 1.80923,-0.93046 2.7397,-0.93046c1.46215,0 2.34585,0.37662 2.65108,1.12985c0.07384,0.20184 0.11077,0.49969 0.11077,0.89354c0,0.38893 -0.12061,1.088 -0.36184,2.09723c-0.23631,1.00923 -0.48246,1.74031 -0.73846,2.19323c-0.25107,0.45292 -0.40123,0.67939 -0.45046,0.67939c-0.04923,0 -0.28308,-0.09354 -0.70153,-0.28061c-0.41354,-0.192 -0.78523,-0.28799 -1.11507,-0.28799c-0.95507,0 -1.43261,0.75569 -1.43261,2.26708zM285.3087,213.07343c0,-0.40369 1.14708,-0.60553 3.44123,-0.60553c2.14646,0.07384 3.2197,0.23877 3.2197,0.49477v14.51817l3.73662,-6.91939c0.17723,-0.37908 1.248,-0.56861 3.21232,-0.56861c1.96923,0 3.232,0.12554 3.78831,0.37662l-4.91816,8.0197l5.67139,10.61909c0.04923,0.10338 -0.42338,0.18461 -1.41785,0.24369c-0.99446,0.064 -1.81908,0.096 -2.47384,0.096c-2.42216,0 -3.72185,-0.11323 -3.89908,-0.33969l-3.744,-8.38893v8.35201c0,0.32985 -1.10276,0.49477 -3.30831,0.49477c-2.20554,0 -3.30831,-0.15262 -3.30831,-0.45784zM311.20864,213.26542c0,-0.12799 0.54892,-0.24862 1.64677,-0.36184c1.09785,-0.11323 1.99877,-0.16984 2.70277,-0.16984c2.79631,0 4.25847,0.3643 4.38646,1.09292l3.24925,16.63755l3.06462,-16.63755c0.15262,-0.72861 1.71569,-1.09292 4.68924,-1.09292c0.72861,0 1.64677,0.05169 2.75446,0.15507c1.11261,0.09846 1.66892,0.20923 1.66892,0.33231l-6.69047,25.03387c-0.10338,0.40369 -0.84677,0.66708 -2.23015,0.79016c-2.14646,0.22646 -4.09601,0.27077 -5.84863,0.13292c-1.7477,-0.13784 -2.67323,-0.384 -2.77662,-0.73846zM336.54024,236.87617c0,-0.704 0.17723,-1.504 0.53169,-2.4c0.35446,-0.896 0.69415,-1.61477 1.01907,-2.15631c0.32985,-0.54153 0.51939,-0.8123 0.56861,-0.8123c1.46215,0.88123 3.00062,1.32185 4.61539,1.32185c1.00923,0 1.82154,-0.20184 2.43692,-0.60553c0.61538,-0.40369 0.92308,-0.96246 0.92308,-1.6763c0,-0.71876 -0.28308,-1.17907 -0.84923,-1.38093c-0.56616,-0.20184 -1.46708,-0.34216 -2.70277,-0.42092h-1.35877c-0.30522,0 -0.59077,-0.37169 -0.85662,-1.11507c-0.26092,-0.74339 -5.11754,2.31385 -5.11754,1.60985c0,-1.18647 5.07816,-5.57293 5.78217,-5.59754l1.10031,-0.03692c0.67939,0 1.39077,-0.19446 2.13416,-0.58338c0.74339,-0.39384 1.11508,-0.89354 1.11508,-1.49907c0,-1.05846 -0.94523,-1.5877 -2.8357,-1.5877c-1.41292,0 -2.77415,0.27815 -4.0837,0.83446c-1.1323,-2.04308 -1.69846,-3.63816 -1.69846,-4.78524c0,-1.14708 0.8,-2.00862 2.4,-2.58461c1.6,-0.58092 3.60862,-0.87138 6.02586,-0.87138c2.42216,0 4.31262,0.50461 5.67139,1.51385c1.3637,1.00431 2.04554,2.37785 2.04554,4.12062c0,3.04739 -1.312,5.39077 -3.936,7.03017c3.18031,1.28492 4.77046,3.46585 4.77046,6.54278c0,2.39262 -0.84677,4.32739 -2.54031,5.80431c-1.68862,1.472 -4.10831,2.20801 -7.25908,2.20801c-1.98892,0 -3.80308,-0.28308 -5.44247,-0.84923c-1.63938,-0.56616 -2.45908,-1.24062 -2.45908,-2.02338z" fill="none" stroke-opacity="0.50196" stroke="#000000" stroke-width="8" stroke-linecap="square" stroke-linejoin="round"/><path d="M138.80004,238.63162c0,0.50215 -1.248,0.75323 -3.744,0.75323c-2.496,0 -3.74401,-0.25107 -3.74401,-0.75323v-18.97848h-4.53416c-0.4283,0 -0.73107,-0.58092 -0.9083,-1.74277c-0.07384,-0.55138 -0.11076,-1.11754 -0.11076,-1.69846c0,-0.58092 0.03692,-1.14708 0.11077,-1.69846c0.17723,-1.16184 0.48,-1.74277 0.90831,-1.74277h16.44556c0.4283,0 0.73108,0.58092 0.90831,1.74277c0.07384,0.55138 0.11077,1.11754 0.11077,1.69846c0,0.58092 -0.03692,1.14708 -0.11076,1.69846c-0.17723,1.16184 -0.48,1.74277 -0.9083,1.74277h-4.42338zM144.70063,220.56145c0,-0.28061 1.08308,-0.42092 3.24924,-0.42092c2.16615,0 3.24924,0.14031 3.24924,0.42092v11.04001c0,1.26031 0.40369,1.89046 1.21108,1.89046c0.60553,0 1.28739,-0.26585 2.04554,-0.79754v-12.13294c0,-0.25107 1.07077,-0.37661 3.21232,-0.37661c2.14154,0 3.21232,0.12554 3.21232,0.37662v12.39878h0.98215c0.85662,0 1.28492,0.8197 1.28492,2.45908c0,0.832 -0.17476,1.67631 -0.5243,2.53293c-0.50708,1.10769 -1.18892,1.66154 -2.04554,1.66154c-1.68862,0 -2.93662,-0.69169 -3.744,-2.07508l-0.03692,0.03692c-1.536,1.35877 -3.18769,2.03816 -4.95508,2.03816c-2.44185,0 -4.2437,-0.61046 -5.40555,-1.83139c-1.15693,-1.22092 -1.73538,-3.24431 -1.73538,-6.07016zM173.35501,239.00824c0,0.17723 -0.90584,0.26585 -2.71754,0.26585c-2.52061,-0.07384 -3.78093,-0.21169 -3.78093,-0.41354v-12.25109h-0.98215c-0.65477,0 -1.08308,-0.55384 -1.28492,-1.66154c-0.05415,-0.32985 -0.08122,-0.65723 -0.08122,-0.98215c0,-0.78277 0.15262,-1.56554 0.45784,-2.34831c0.45292,-1.10769 1.15693,-1.66154 2.112,-1.66154c0.96,0 1.81661,0.22646 2.56985,0.67939c0.75815,0.45292 1.26523,0.90584 1.52123,1.35877c1.58523,-1.35877 3.47324,-2.03816 5.66401,-2.03816c2.19569,0 3.78339,0.59323 4.76308,1.77969c0.98461,1.18154 1.47693,3.12123 1.47693,5.81909v11.34278c0,0.30031 -1.07815,0.45046 -3.23446,0.45046c-2.15139,0 -3.22708,-0.15015 -3.22708,-0.45046v-10.92924c0,-1.26031 -0.44061,-1.89046 -1.32184,-1.89046c-0.256,0 -0.61046,0.1083 -1.06339,0.32492c-0.45292,0.21169 -0.74339,0.36923 -0.87138,0.47262zM200.58298,238.21808c-1.59015,0.93046 -3.63323,1.39569 -6.12924,1.39569c-2.496,0 -4.60062,-0.84923 -6.31385,-2.54769c-1.71323,-1.70338 -2.56985,-4.06154 -2.56985,-7.07447c0,-3.01293 0.82461,-5.43754 2.47385,-7.27386c1.65416,-1.84123 3.74154,-2.76185 6.26216,-2.76185c2.52061,0 4.4677,0.64246 5.84124,1.92739c1.37354,1.28492 2.0603,2.848 2.0603,4.68923c0,4.08124 -2.34338,6.12185 -7.03016,6.12185h-2.61415c0,0.75815 0.20677,1.28246 0.62031,1.57292c0.41846,0.29046 1.03138,0.4357 1.83877,0.4357c1.76739,0 3.4437,-0.40369 5.02893,-1.21108c0.02461,-0.02461 0.13784,0.15015 0.33968,0.52431c0.60553,1.088 0.90831,2.00369 0.90831,2.74708c0,0.74339 -0.23877,1.22831 -0.71631,1.45477zM195.85682,227.28884c0,-1.05846 -0.51692,-1.58769 -1.55077,-1.58769c-0.47754,0 -0.88861,0.14523 -1.23323,0.4357c-0.33969,0.29046 -0.50954,0.71138 -0.50954,1.26277v1.17416h2.04554c0.832,0 1.248,-0.4283 1.248,-1.28492zM212.94393,230.01377c0.47754,0.37908 1.30215,0.896 2.47385,1.55077c1.17662,0.65477 2.29908,0.98215 3.36739,0.98215c1.07323,0 1.60984,-0.416 1.60984,-1.248c0,-0.37908 -0.15262,-0.71385 -0.45784,-1.00431c-0.30031,-0.29046 -0.85415,-0.62277 -1.66154,-0.99693c-0.80738,-0.37908 -1.41292,-0.67446 -1.81661,-0.88616c-0.40369,-0.21661 -0.94031,-0.57107 -1.60984,-1.06339c-0.66461,-0.49231 -1.17415,-1.00431 -1.52861,-1.536c-1.00431,-1.43261 -1.50646,-3.25908 -1.50646,-5.47939c0,-2.22031 0.82461,-4.09108 2.47385,-5.61232c1.64923,-1.52615 3.81047,-2.28923 6.4837,-2.28923c1.81661,0 3.49293,0.19692 5.02893,0.59077c1.536,0.38893 2.32862,0.89846 2.37785,1.52862c0,0.07384 0,0.14769 0,0.22153c0,0.88616 -0.27815,2.00369 -0.83446,3.35262c-0.55138,1.344 -0.94031,2.09231 -1.16677,2.24493c-1.61477,-0.832 -3.0597,-1.248 -4.33477,-1.248c-1.27016,0 -1.90523,0.45292 -1.90523,1.35877c0,0.55631 0.46769,1.04861 1.40307,1.47693c0.20184,0.10338 0.48985,0.24369 0.864,0.42092c0.37908,0.17231 0.81477,0.37908 1.30708,0.62031c0.49231,0.24123 1.02154,0.544 1.5877,0.90831c0.56616,0.3643 1.17907,0.84923 1.83877,1.45477c1.33416,1.26031 2.00124,2.92431 2.00124,4.99201c0,2.69784 -0.74339,4.90339 -2.23015,6.61663c-1.48677,1.71323 -3.78093,2.59446 -6.88247,2.64369c-1.51139,0 -2.88,-0.12554 -4.10585,-0.37661c-1.22092,-0.25107 -2.28677,-0.74092 -3.19754,-1.46953c-0.90584,-0.73354 -1.35877,-1.61723 -1.35877,-2.65107c0,-1.03385 0.18954,-2.0603 0.56861,-3.07939c0.37908,-1.024 0.78277,-1.69846 1.21108,-2.02338zM238.16034,238.97132c0,0.22646 -1.05354,0.33969 -3.16062,0.33969c-2.10216,0 -3.15323,-0.17476 -3.15323,-0.5243v-25.90525c0,-0.17231 0.39138,-0.29539 1.17416,-0.36923c0.78277,-0.07877 1.43754,-0.11815 1.96431,-0.11815c2.11692,0 3.17539,0.22646 3.17539,0.67939v7.56186c1.41292,-0.4283 2.48616,-0.64246 3.2197,-0.64246c1.91508,0 3.42647,0.51199 4.53416,1.536c1.10769,1.01907 1.66154,2.91446 1.66154,5.68616v11.7194c0,0.22646 -0.98215,0.33969 -2.94646,0.33969c-2.22031,-0.07384 -3.33046,-0.19938 -3.33046,-0.37661v-11.11386c0,-1.23569 -0.40123,-1.85353 -1.20369,-1.85353c-0.55631,0 -1.20123,0.26338 -1.93477,0.79016zM253.17414,225.50915c-0.704,-1.26031 -1.05599,-2.28677 -1.05599,-3.07939c0,-0.79262 0.21415,-1.30215 0.64246,-1.52862c1.43261,-0.63015 3.40185,-0.94523 5.9077,-0.94523c2.51077,0 4.28308,0.58585 5.31693,1.75754c1.03385,1.17169 1.55077,2.90461 1.55077,5.19878v5.97416h1.28492c0.4283,0 0.76308,0.25354 1.00431,0.76062c0.24123,0.50215 0.36184,1.19385 0.36184,2.07508c0,0.88123 -0.22153,1.75015 -0.66461,2.60677c-0.44308,0.85662 -1.04123,1.28492 -1.79446,1.28492c-1.3637,0 -2.46154,-0.3643 -3.29354,-1.09292c-0.37415,-0.30522 -0.66215,-0.67199 -0.864,-1.10031c-1.16184,1.46215 -2.96616,2.19323 -5.41293,2.19323c-1.83631,0 -3.38462,-0.65477 -4.64493,-1.96431c-1.26031,-1.30953 -1.89046,-2.86031 -1.89046,-4.65231c0,-4.10585 2.45662,-6.15877 7.36985,-6.15877h2.08246v-0.384c0,-0.65477 -0.1083,-1.07569 -0.32492,-1.26276c-0.21169,-0.18707 -0.70892,-0.28061 -1.49169,-0.28061c-0.96,0 -2.32124,0.19939 -4.0837,0.59815zM256.20184,232.47285c0,0.55138 0.15015,0.9723 0.45046,1.26277c0.30031,0.29046 0.68431,0.4357 1.152,0.4357c0.46769,0 0.89108,-0.18954 1.27016,-0.56861v-2.90954h-1.06339c-1.20615,0 -1.80923,0.59323 -1.80923,1.77969zM278.62183,239.20024c0,0.17723 -1.14708,0.26585 -3.44123,0.26585c-2.29415,-0.05415 -3.44123,-0.15507 -3.44123,-0.30277v-12.55386h-1.01907c-0.40369,0 -0.72616,-0.24615 -0.96738,-0.73846c-0.24123,-0.49231 -0.36184,-1.10276 -0.36184,-1.83139c0,-2.72247 0.80738,-4.0837 2.42216,-4.0837c1.1323,0 2.07754,0.34708 2.8357,1.04123c0.75815,0.68923 1.13723,1.47693 1.13723,2.36308c0.52677,-1.03385 1.23815,-1.85846 2.13416,-2.47385c0.896,-0.62031 1.80923,-0.93046 2.7397,-0.93046c1.46215,0 2.34585,0.37662 2.65108,1.12985c0.07384,0.20184 0.11077,0.49969 0.11077,0.89354c0,0.38893 -0.12061,1.088 -0.36184,2.09723c-0.23631,1.00923 -0.48246,1.74031 -0.73846,2.19323c-0.25107,0.45292 -0.40123,0.67939 -0.45046,0.67939c-0.04923,0 -0.28308,-0.09354 -0.70153,-0.28061c-0.41354,-0.192 -0.78523,-0.28799 -1.11507,-0.28799c-0.95507,0 -1.43261,0.75569 -1.43261,2.26708zM285.30872,213.07345c0,-0.40369 1.14708,-0.60553 3.44123,-0.60553c2.14646,0.07384 3.2197,0.23877 3.2197,0.49477v14.51817l3.73662,-6.91939c0.17723,-0.37908 1.248,-0.56861 3.21232,-0.56861c1.96923,0 3.232,0.12554 3.78831,0.37662l-4.91816,8.0197l5.67139,10.61909c0.04923,0.10338 -0.42338,0.18461 -1.41785,0.24369c-0.99446,0.064 -1.81908,0.096 -2.47384,0.096c-2.42216,0 -3.72185,-0.11323 -3.89908,-0.33969l-3.744,-8.38893v8.35201c0,0.32985 -1.10276,0.49477 -3.30831,0.49477c-2.20554,0 -3.30831,-0.15262 -3.30831,-0.45784zM311.20866,213.26544c0,-0.12799 0.54892,-0.24862 1.64677,-0.36184c1.09785,-0.11323 1.99877,-0.16984 2.70277,-0.16984c2.79631,0 4.25847,0.3643 4.38646,1.09292l3.24925,16.63755l3.06462,-16.63755c0.15262,-0.72861 1.71569,-1.09292 4.68924,-1.09292c0.72861,0 1.64677,0.05169 2.75446,0.15507c1.11261,0.09846 1.66892,0.20923 1.66892,0.33231l-6.69047,25.03387c-0.10338,0.40369 -0.84677,0.66708 -2.23015,0.79016c-2.14646,0.22646 -4.09601,0.27077 -5.84863,0.13292c-1.7477,-0.13784 -2.67323,-0.384 -2.77662,-0.73846zM336.54026,236.74116c0,-0.704 0.17723,-1.504 0.53169,-2.4c0.35446,-0.896 0.69415,-1.61477 1.01907,-2.15631c0.32985,-0.54153 0.51939,-0.8123 0.56861,-0.8123c1.46215,0.88123 3.00062,1.32185 4.61539,1.32185c1.00923,0 1.82154,-0.20184 2.43692,-0.60553c0.61538,-0.40369 0.92308,-0.96246 0.92308,-1.6763c0,-0.71876 -0.28308,-1.17907 -0.84923,-1.38093c-0.56616,-0.20184 -1.46708,-0.34216 -2.70277,-0.42092h-1.35877c-0.30522,0 -0.59077,-0.37169 -0.85662,-1.11507c-0.26092,-0.74339 -0.39138,-1.46708 -0.39138,-2.17108c0,-1.18647 0.352,-1.792 1.056,-1.81661l1.10031,-0.03692c0.67939,0 1.39077,-0.19446 2.13416,-0.58338c0.74339,-0.39384 1.11508,-0.89354 1.11508,-1.49907c0,-1.05846 -0.94523,-1.5877 -2.8357,-1.5877c-1.41292,0 -2.77415,0.27815 -4.0837,0.83446c-1.1323,-2.04308 -1.69846,-3.63816 -1.69846,-4.78524c0,-1.14708 0.8,-2.00862 2.4,-2.58461c1.6,-0.58092 3.60862,-0.87138 6.02586,-0.87138c2.42216,0 4.31262,0.50461 5.67139,1.51385c1.3637,1.00431 2.04554,2.37785 2.04554,4.12062c0,3.04739 -1.312,5.39077 -3.936,7.03017c3.18031,1.28492 4.77046,3.46585 4.77046,6.54278c0,2.39262 -0.84677,4.32739 -2.54031,5.80431c-1.68862,1.472 -4.10831,2.20801 -7.25908,2.20801c-1.98892,0 -3.80308,-0.28308 -5.44247,-0.84923c-1.63938,-0.56616 -2.45908,-1.24062 -2.45908,-2.02338z" fill="#ffffff" stroke="none" stroke-width="1" stroke-linecap="square" stroke-linejoin="round"/><path d="M314.54511,127.01341c14.09672,-6.98467 31.18656,-1.21922 38.17123,12.87749c6.98467,14.09671 1.21922,31.18656 -12.8775,38.17123c-14.09672,6.98467 -31.18655,1.21922 -38.17122,-12.8775c-6.98467,-14.09671 -1.21922,-31.18655 12.8775,-38.17122z" fill="url(#color-7)" stroke="#212121" stroke-width="5" stroke-linecap="butt" stroke-linejoin="miter"/><path d="M318.30596,152.53777c0,-4.90761 3.9784,-8.88601 8.88602,-8.88601c4.90762,0 8.88602,3.9784 8.88602,8.88601c0,4.90761 -3.9784,8.88602 -8.88602,8.88602c-4.90762,0 -8.88602,-3.9784 -8.88602,-8.88602z" fill="#414141" stroke="#272727" stroke-width="4" stroke-linecap="butt" stroke-linejoin="miter"/><path d="M349.42407,149.52066c0.07051,0.52354 0.12316,1.05323 0.15732,1.58853c0.47342,7.41965 -2.71605,14.22661 -8.01451,18.65523" fill="none" stroke="#4d4d4d" stroke-width="1" stroke-linecap="butt" stroke-linejoin="miter"/><path d="M328.09902,174.95448c-8.16391,0.33395 -15.52951,-3.75795 -19.71613,-10.18061" fill="none" stroke="#4d4d4d" stroke-width="1" stroke-linecap="butt" stroke-linejoin="miter"/><path d="M308.85262,139.61378c3.779,-5.35542 9.86035,-9.01555 16.91077,-9.46542c0.60676,-0.03872 1.20942,-0.05294 1.80701,-0.04351" fill="none" stroke="#4d4d4d" stroke-width="1" stroke-linecap="butt" stroke-linejoin="miter"/><path d="M343.43097,151.7563c0.23257,4.8018 -1.649,9.23144 -4.83619,12.3702" fill="none" stroke="#4d4d4d" stroke-width="1" stroke-linecap="butt" stroke-linejoin="miter"/><path d="M326.51734,168.78282c-5.84247,-0.2355 -10.97012,-3.58874 -13.63652,-8.52281" fill="none" stroke="#4d4d4d" stroke-width="1" stroke-linecap="butt" stroke-linejoin="miter"/><path d="M313.18077,144.28838c2.62861,-4.45535 7.33339,-7.58105 12.87485,-7.9686" fill="none" stroke="#4d4d4d" stroke-width="1" stroke-linecap="butt" stroke-linejoin="miter"/><path d="M342.08926,155.51521l9.6409,-22.64052l3.41484,1.43339l-8.12253,19.35072z" fill="#414141" stroke="#272727" stroke-width="2.5" stroke-linecap="butt" stroke-linejoin="miter"/><path d="M351.44653,138.47245c-1.30439,0 -2.36181,-1.05742 -2.36181,-2.36181v-9.64405c0,-1.30439 1.05741,-2.36181 2.36181,-2.36181h6.6918c1.30439,0 2.36181,1.05741 2.36181,2.36181v7.08543c0,1.30439 -1.05741,2.36181 -2.36181,2.36181z" fill="#414141" stroke="#272727" stroke-width="4" stroke-linecap="butt" stroke-linejoin="miter"/><path d="M118.47723,200.36819c-2.20914,0 -4,-1.47422 -4,-4.26141c0,-2.78719 1.79086,-4.26141 4,-4.26141h120.66666c2.20914,0 4,1.47422 4,4.26141c0,2.78719 -1.79086,4.26141 -4,4.26141z" fill="#000000" stroke="#272727" stroke-width="5" stroke-linecap="butt" stroke-linejoin="miter"/><path d="M137.81056,203.77345c-2.20914,0 -4,-1.79086 -4,-4v-7.33334c0,-2.20914 1.79086,-4 4,-4h26c2.20914,0 4,1.79086 4,4v7.33334c0,2.20914 -1.79086,4 -4,4z" fill="#414141" stroke="#272727" stroke-width="5" stroke-linecap="butt" stroke-linejoin="miter"/><path d="M141.58792,201.2069v-10.19962h9.3739v10.19962z" fill="url(#color-8)" stroke="#272727" stroke-width="0" stroke-linecap="butt" stroke-linejoin="miter"/><path d="M150.9318,201.2069v-10.19962h9.3739v10.19962z" fill="url(#color-9)" stroke="#272727" stroke-width="0" stroke-linecap="butt" stroke-linejoin="miter"/><path d="M277.92801,171.71199c-2.03192,0 -3.67912,-1.6472 -3.67912,-3.67912v-8.82989c0,-2.03192 1.6472,-3.67912 3.67912,-3.67912h8.8299c2.03192,0 3.67912,1.6472 3.67912,3.67912v8.82989c0,2.03192 -1.6472,3.67912 -3.67912,3.67912z" fill="url(#color-10)" stroke="#272727" stroke-width="4" stroke-linecap="butt" stroke-linejoin="miter"/><path d="M277.92801,148.31192c-2.03192,0 -3.67912,-1.6472 -3.67912,-3.67912v-8.82989c0,-2.03192 1.6472,-3.67912 3.67912,-3.67912h8.8299c2.03192,0 3.67912,1.6472 3.67912,3.67912v8.82989c0,2.03192 -1.6472,3.67912 -3.67912,3.67912z" fill="url(#color-11)" stroke="#272727" stroke-width="4" stroke-linecap="butt" stroke-linejoin="miter"/><path d="M254.55827,171.71199c-2.03192,0 -3.67912,-1.6472 -3.67912,-3.67912v-8.82989c0,-2.03192 1.6472,-3.67912 3.67912,-3.67912h8.8299c2.03192,0 3.67912,1.6472 3.67912,3.67912v8.82989c0,2.03192 -1.6472,3.67912 -3.67912,3.67912z" fill="url(#color-12)" stroke="#272727" stroke-width="4" stroke-linecap="butt" stroke-linejoin="miter"/><path d="M254.55828,148.31192c-2.03192,0 -3.67912,-1.6472 -3.67912,-3.67912v-8.82989c0,-2.03192 1.6472,-3.67912 3.67912,-3.67912h8.82989c2.03192,0 3.67912,1.6472 3.67912,3.67912v8.82989c0,2.03192 -1.6472,3.67912 -3.67912,3.67912z" fill="url(#color-13)" stroke="#272727" stroke-width="4" stroke-linecap="butt" stroke-linejoin="miter"/></g></g></svg>
