<svg xmlns="http://www.w3.org/2000/svg" width="309.297" height="159.661" viewBox="0 0 309.297 159.661"><defs><linearGradient x1="240" y1="105.176" x2="240" y2="254.824" gradientUnits="userSpaceOnUse" id="a"><stop offset="0" stop-color="#590b1c"/><stop offset="1" stop-color="#a61232"/></linearGradient></defs><path d="M6.039 153.161V6.513h297.22v146.648z" fill="#e81c48"/><g fill-opacity=".102"><path d="M303.239 111.722c-.033 1.587.021 3.178-.114 4.762-1.521-.08-11.606-1.917-21.333-7.278-25.018-13.732-22.95-29.168-41.1-41.816-2.146-1.437-3.795-3.711-9.152-4.56-5.274-.793-7.152-.91-11.534-3.946-.155-.104-15.436-11.468-18.183-13.77-8.218-6.824-8.125-8.348-12.033-11.538-13.458-10.953-8.117-9.43-38.096-23.317-16.093-7.976 61.353-5.366 73.825-3.264 4.047.672 6.502 2.156 10.419 3.412.676.184 4.135 4.63 4.135 4.63s-1.498-5.598-2.245-5.866c-6.74-2.872 4.454-7.13 9.677-3.235 10.468 7.772 2.01.828 13.57 10.662 7.49 6.24 12.796 5.789 25.003 13.246 6.827 4.242 14.973 11.864 16.934 19.693.337 1.453.283 19.43.089 20.493-6.647-5.05-6.747-6.224-9.92-6.74-9.444-1.612-8.887-16.618-15.606-24.12-5.553-6.157-15.925-10.611-23.417-12.747-2.926-.865-3.597-2.448-4.496-3.21-2.548-2.26-6.231-2.137-10.206-2.383.239.108 13.805 4.63 24.768 17.572 10.23 12.224 7.716 15.751 12.604 24.447 2.129 3.89 6.577 10.276 11.542 13.78 4.037 2.739 15.03 8.446 14.852 10.283.001.158.067 9.71-.109 10.805-4.857-1.83-9.034-5.151-12.407-9.053-11.014-12.716-26.026-40.854-42.104-50.672-3.616-2.305-5.336-1.93-13.74-8.376-13.867-10.274-10.007-8.284-35.126-15.888-5.554-1.707-6.925-2.61-9.69-3.371-4.294-1.278-9.099-1.514-15.624-3.45-5.89-1.623-7.145.956-3.967 2.333 20.194 8.471 25.117 12.168 30.877 18.399 4.06 4.3 16.275 13.33 20.005 17.375 2.992 3.16 4.335 6.085 16.01 14.4 32.763 23.23 16.608 16.958 38.431 35.518 12.585 10.56 14.755 11.15 27.234 16.024.317.101.174.515.227.766"/><path d="M170.425 155.213c-7.005-7.883-14.625-15.994-28.501-20.698-14.139-4.8-29.22-5.642-42.183-7.11-4.685-.486-7.544-2.483-16.208-3.63-.155-.02-41.884-5.22-42.914-5.031.297.81.806 1.52 1.313 2.213 8.246 10.931 9.5 9.585 19.065 16.655 9.44 7.043 20.234 8.019 31.066 13.466 1.088.547-76.706 8.638-80.264 3.447-1.272-1.856-5.721-5.964-5.749-6.364.067-2.54-.091-5.086.08-7.623 1.857.053 3.89.05 5.451 1.211 4.295 3.255 4.615 8.31 5.19 8.893.462.33 1.058.383 1.563.63 1.08.476 6.075 1.4 7.798.834 1.46-.478-.204-2.379-.522-2.856-6.758-10-9.229-23.838-19.475-22.699-.007-2.89-.026-5.78.01-8.67.155.059 21.183 9.258 27.09 13.007 9.233 6.078 18.652 8.03 21.634 12.458.2-3.553-4.314-8.153-31.444-24.33-5.427-3.284-10.562-8.466-17.021-10.012-.472-.073-.337-.598-.346-3.783.935-.019 1.862.158 2.799.125 5.919-.082 7.268-1.367 12.717.065 11.035 3.01 9.762 2.807 14.84 6.415-3.534-7.528-18.51-12.901-26.607-14.669-1.21-.271-2.453-.144-3.678-.225-.096-.668-.09-14-.015-15.512 5.175.161 8.212-.95 14.948 4.922 5.026 4.56 8.121 11.314 11.831 15.768 9.91 11.828 16.029 5.805 24.575 9.59 15.709 7.609 19.702 3.833 37.92 3.443 10.112.013 19.613-1.194 37.523 3.998 3.831 1.16 9.897 2.739 13.812 7.62 2.229 2.674.598 3.205 8.038 5.501 4.464 1.047 25.303 9.502 30.333 12.702-5.398-9.517-10.103-7.858-36.746-24.61-4.493-2.773-9.909-6.676-16.842-9.664-5.904-2.503-12.493-5.494-17.8-6.696-3.702-.87-7.833.053-9.494-2.576 4.982-2.544 14.522-.29 18.964.666 10.815 2.176 12.23 3.15 19.524 5.615 5.9 2.127 9.155 2.646 16.439 7.173-1.178-2.295-12.546-12.168-31.047-17.11-4.588-1.166-9.985-1.253-17.374-2.779-18.137-3.323-17.968 1.036-26.117-6.899-5.506-5.152-15.422-8.328-22.84-9.637-6.904-1.214-11.75-.32-23.672-6.537-8.293-4.543-11.033-5.268-16.677-8.352-4.802-2.56-9.621-5.323-15.005-6.443-.45-.053-.31-.585-.354-.902.06-6.112-.079-17.783.07-20.706 3.765 6.175 13.914 3.19 24.468 15.238 4.284 4.836 5.81 9.314 6.23 14.302.226-.704.315-1.443.408-2.171 2.344-18.608-15.435-29.94-29.794-39.215-1.506-1.07-1.428-.046-1.373-4.208.09-1.179-.094-2.36.067-3.534 12.388-1.013 19.62-1.182 31.188 18.749-.998-3.48-2.521-6.806-4.557-9.802-3.75-5.481-7.732-10.808-12.036-15.869-3.142-3.933 91.56-9.264 101.229-4.453 8.841 4.486 12.487 5.426 15.66 7.112 10.957 5.744 19.31 16.413 26.691 21.978 11.165 8.61 20.074 9.097 27.62 11.628 6.926 2.275 10.323 6.029 13.038 8.52 4.854 4.7 8.96 4.97 13.827 7.87 10.22 6.034 16.91 17.162 24.778 25.474 6.11 6.545 2.413.647 18.305 19.695 7.318 8.775 12.416 13.287 18.684 16.03 3.195 1.332 9.287 3.59 13.03 7.613-3.247 1.11-12.082-2.585-15.206-4.046-21.718-10.13-21.018-20.481-31.779-29.179-7.693-6.033-17.703-11.2-21.051-14.104-2.952-2.52-20.392-21.827-21.604-22.912 2.947 8.09 4.513 13.904 5.437 16.582 2.79 7.817 12.193 9.203 18.555 23.026 1.337 2.99 2.402 5.75 6 7.787 6.542 3.796 10.662 5.858 14.713 9.95 3.839 3.75 5.92 9 8.921 12.164 4.625 4.852 12.198 4.896 18.172 5.753 12.872 1.748 20.39 4.086 23.531 4.845 1.306.324 2.672.363 3.96.76q-.006 2.467-.001 4.936c-3.85.19-9.89 1.579-18.839.023-9.594-1.652-13.664-4.855-20.327-9.817-4.36-3.283-13.374-9.302-18.837-8.783.428.19.88.316 1.327.465 6.89 2.332 13.618 9.413 18.876 14.365 2.895 2.879 4.387 7.54 7.454 12.52 1.97 3.198-35.273-1.718-39.219-3.2-18.851-7.08-10.49-2.405-31.537-19.148-12.01-9.653-13.283-9.453-20.968-14.135-8.976-5.343-7.81-4.667-17.545-7.935 14.424 13.875 13.296 16.461 20.428 23.872 4.1 4.191 7.736 6.06 12.145 12.012.783 1.107 1.74 4.3 3.01 8.037 1.84 5.414-23.37 6.996-28.776.911M34.697 5.745l.266.273c2.453 1.498 5.142 2.722 7.178 4.804 6.543 6.087 21.574 27.835 36.811 34.876 13.97 6.597 34.686 2.183 50.391 11.594 9.392 5.742 29.26 12.897 41.633 21.665.366.252.698.58 1.14.704-3.048-4.144-3.025-5.022-15.478-15.995-6.727-6.127-9.536-7.997-13.972-12.383-3.103-3.117-5.734-6.664-13.977-15.477-9.05-10.02-10.26-12.697-34.62-19.718-7.701-2.31-12.524-1.994-25.589-9.868-7.643-4.763-6.673-5.042-8.12-6.22 1.678 8.566 10.762 19.758 15.99 22.227 3.727 1.752 13.465 3.626 14.236 3.726 3.286.497 8.044-.244 12.384 1.739 5.69 2.487 13.407 4.53 15.675 11.25-5.39 1.062-26.718.379-45.65-9.642-11.96-6.281-13.872-9.515-21.524-15.715-4.54-3.673-10.724-8.026-16.774-7.84m26.036 36.839.035-.05c-.21-.082-.262-.316-.387-.477.042.23.05.491.233.665 1.16 2.52 1.811 5.236 2.97 7.756 1.55 3.413 5.722 7.244 9.15 9.317 6.563 3.995 11.261 2.454 16.615 2.293 12.038-.59 15.713 8.064 24.795 8.474 2.297.216 9.734-.924 21.385 2.14 7.423 1.977 13.19 6.184 18.06 5.74-5.575-1.599-9.252-4.51-13.93-7.567-7.681-4.91-19.374-7.755-24.594-8.398-5.916-.864-9.328-3.673-11.44-4.95-12.412-7.743-12.277 3.768-39.127-11.83-1.425-.817-2.603-1.972-3.765-3.113m71.988 49.996c-.249-2.751-1.702-5.245-3.437-7.332-13.502-15.773-39.628-13.977-55.291-19.756-21.926-8.09-12.65-22.186-22.163-32.578-2.295-2.62-4.83-5.064-6.673-8.05-1.543-2.581-3.213-5.095-5.145-7.404C33.913 10.132 27.143.941 15.81 1.2c5.59 1.894 3.942 4.244 14.598 14.389 3.341 3.237 7.807 7.04 10.815 13.034 2.756 5.339 6.26 11.773 6.282 17.822-.523 6.51-.015 14.432-2.632 18.164-.074.107-.25.335-.029.405 2.251 1.592 7.094.254 10.526.602 21.008 2.878 23.796 13.636 33.21 14.587.05.007 16.289.248 19.15.52 14.644 1.065 20.486 10.913 24.99 11.857m1.111-14.993c-.826-.856-1.819-1.765-3.068-1.826.986.666 1.977 1.339 3.068 1.826m27.068 22.46c6.576 4.103 11.704 3.475 14.367 4.004 14.433 2.442 32.997 21.45 55.895 32.696 9.616 4.85 13.638 7.99 24.12 14.373.124.076.279.153.431.192-3.07-2.14-6.746-7.2-8.778-10.358-6.847-10.766-8.152-18.36-12.306-24.235-7.38-10.69-17.252-10.616-23.367-20.112-2.644-3.863-4.967-5.117-6.213-6.615-5.046-5.606-8.232-23.272-14.519-29.683-4.698-5.066-12.019-7.097-15.923-9.221-9.034-4.568-11.735-10.607-19.934-16.633-12.877-9.18-26.998-23.236-43.585-28.367C98.3 2.038 84.379 2.691 82.308 2.985c7.3 4.76 30.398 1.01 55.966 24.927 4.274 4.266 5.392 7.615 6.717 10.2 7.419 15.587 13.107 12.249 23.285 21.817 4.004 3.686 18.755 21.88 21.791 25.9 7.878 10.368 7.074 10.865 10.937 17.036.527.926 1.212 1.76 1.673 2.723-2.817-1.415-3.547-2.682-14.71-5.75-22.901-6.45-21.01-11.113-27.776-15.224-7.324-4.603-12.1.172-25.563-6.409 6.31 7.433 3.176 4.445 8.06 8.09 5.462 3.925 14.277 11.274 18.211 13.751m-130.04 37.56c-2.957-1.656-6.024-3.278-9.407-3.83 2.357 3.074 3.236 6.974 5.475 10.12 2.47 3.494 5.31 6.765 7.655 10.348.999 1.526 52.132 2.579 47.551.54-18.913-8.419-39.943-10.386-51.274-17.178m272.23-104.869c-3.645-5.456-4.334-6.953-11.742-13.234-9.774-8.242-16.606-8.276-25.403-12.435-4.046-1.913-5.881-12.425 12.191-2.438 5.466 2.964 11.635 4.59 16.68 8.323 1.794 1.23 2.447 2.09 8.385 8.522.024 1.075.11 10.16-.112 11.262"/><path d="M6.114 66.399c.983.252 1.92.657 2.895.944 8.964 2.697 11.106 2.608 16.77 5.71 2.385 1.269 6.644 4.396 10.136 5.693 4.425 1.71 9.557 1.9 15.192 4.826 9.887 5.254 20.45 17.48 36.178 18.474-2.875 1.009-3.284 2.187-7.396 1.765-.303-.014-.624-.093-.908.05.02-.03.062-.087.083-.117-3.37-.082-4.925.644-13.286-.246-8.455-.94-12.561-5.543-18.537-9.38-7.358-4.75-10.228-3.19-12.329-3.765-3.567-.809-4.934-4.334-13.418-10.35-3.905-2.789-10.571-6.806-15.363-6.837-.091-.526-.021-6.61-.017-6.767m62.988 64.835.048-.187c-.841-.27-3.6-1.29-4.768-2.08 1.382.303 2.692.91 3.89 1.652 1.823.819 14.155 3.448 23.14 3.692l.08.068c3.579.04 20.917 1.477 31.788 4.674 15.463 4.567 19.87 10.4 22.947 15.841 3.118 5.517-20.167.423-21.833-.835-2.456-1.856-5.258-2.985-8.396-4.454-5.325-2.643-6.113-3.8-12.003-5.424-23.61-6.463-24.543-5.597-29.687-9.373-4.994-3.667-4.895-3.325-4.939-3.678z"/></g><g fill="none" stroke="#690d20" stroke-width="7"><path d="M123.689 43.537a6.49 6.49 0 0 1-6.488-6.489V26.377a6.49 6.49 0 0 1 6.489-6.489h10.67a6.49 6.49 0 0 1 6.49 6.489v10.671a6.49 6.49 0 0 1-6.49 6.489zm8.364-5.336a3.46 3.46 0 0 0 3.46-3.46v-6.057a3.46 3.46 0 0 0-3.46-3.46h-6.057a3.46 3.46 0 0 0-3.46 3.46v6.056a3.46 3.46 0 0 0 3.46 3.46zm42.886 5.336a6.49 6.49 0 0 1-6.49-6.489V26.377a6.49 6.49 0 0 1 6.49-6.489h10.67a6.49 6.49 0 0 1 6.49 6.489v10.671a6.49 6.49 0 0 1-6.49 6.489zm8.364-5.336a3.46 3.46 0 0 0 3.46-3.46v-6.057a3.46 3.46 0 0 0-3.46-3.46h-6.056a3.46 3.46 0 0 0-3.461 3.46v6.056a3.46 3.46 0 0 0 3.46 3.46z"/><path d="M168.449 77.627a6.49 6.49 0 0 1 6.49-6.49h10.67a6.49 6.49 0 0 1 6.49 6.49v10.67a6.49 6.49 0 0 1-6.49 6.489h-10.67a6.49 6.49 0 0 1-6.49-6.489zm5.337 8.363a3.46 3.46 0 0 0 3.46 3.461h6.057a3.46 3.46 0 0 0 3.46-3.46v-6.057a3.46 3.46 0 0 0-3.46-3.46h-6.056a3.46 3.46 0 0 0-3.461 3.46zm-33.687-58.546h29.164v8.537H140.1zm-15.342 44.33V42.609h8.536v29.164zm51.25 0V42.609h8.535v29.164zm-35.908 6.92h29.164v8.536H140.1z"/><path d="M117.199 77.627a6.49 6.49 0 0 1 6.49-6.49h10.672a6.49 6.49 0 0 1 6.488 6.49v10.67a6.49 6.49 0 0 1-6.488 6.489h-10.672a6.49 6.49 0 0 1-6.49-6.489zm5.338 8.363a3.46 3.46 0 0 0 3.46 3.461h6.057a3.46 3.46 0 0 0 3.46-3.46v-6.057a3.46 3.46 0 0 0-3.46-3.46h-6.057a3.46 3.46 0 0 0-3.46 3.46z"/></g><path d="M90.351 118.171c0-6.399 5.916-12.995 13.12-12.995h272.61c8.613 0 13.568 4.643 13.568 12.246v125.705c0 6.04-4.86 11.697-13.32 11.697H103.72c-7.328 0-13.369-4.523-13.369-11.947z" fill="none" stroke="url(#a)" stroke-width="10" transform="translate(-85.351 -100.163)"/><path d="M61.244 137.52q0 .876-4.36.877-4.36 0-4.36-.877v-22.1h-5.279q-.748 0-1.057-2.029a15 15 0 0 1-.13-1.978q0-1.014.13-1.978.309-2.029 1.057-2.029h19.15q.748 0 1.058 2.03.129.962.129 1.977t-.13 1.978q-.309 2.03-1.057 2.03h-5.15zm6.871-21.042q0-.49 3.784-.49t3.783.49v12.855q0 2.202 1.41 2.202 1.059 0 2.382-.929v-14.128q0-.439 3.74-.439 3.742 0 3.741.439v14.438h1.144q1.496 0 1.496 2.863 0 1.453-.61 2.95-.886 1.934-2.382 1.934-2.95 0-4.36-2.416l-.043.043q-2.683 2.373-5.77 2.373-4.264 0-6.294-2.132-2.02-2.133-2.02-7.069zm33.814 21.704q0 .31-4.007.31-4.008-.096-4.008-.353v-14.618h-1.186q-.705 0-1.127-.86-.42-.86-.421-2.133 0-4.755 2.82-4.755 1.979 0 3.302 1.212 1.325 1.204 1.325 2.752.92-1.806 2.485-2.88 1.565-1.084 3.19-1.084 2.555 0 3.087 1.316.129.352.129 1.04 0 .68-.421 2.442-.413 1.763-.86 2.554-.439.79-.525.791-.086 0-.817-.327-.722-.335-1.298-.335-1.668 0-1.668 2.64zm8.01-30.647q0-.524 3.81-.524 3.808 0 3.808.567v8.547q1.893-.352 2.683-.352 9.244 0 9.244 10.611 0 5.899-2.837 9.09t-8.058 3.19-8.65-2.331zm9.072 15.108q-.75 0-1.454.482v8.41a3.3 3.3 0 0 0 1.29.258q.688 0 1.393-.525 1.23-.877 1.23-4.093 0-4.532-2.46-4.532m15.516 12.985q-2.752-3.036-2.752-8.41t2.752-8.41q2.751-3.035 7.42-3.035t7.396 3.035 2.725 8.41-2.725 8.41-7.396 3.035-7.42-3.035m7.438-12.503q-2.485 0-2.485 4.05t2.485 4.05q2.493 0 2.493-4.05t-2.493-4.05m22.874 4.36q.834.662 2.88 1.805 2.055 1.144 3.922 1.144 1.875 0 1.874-1.453 0-.662-.533-1.17-.525-.507-1.935-1.16a58 58 0 0 1-2.115-1.032q-.705-.379-1.875-1.239-1.16-.86-1.78-1.788-1.754-2.502-1.754-6.38t2.88-6.536q2.882-2.665 7.55-2.665 3.174 0 5.857.687 2.682.68 2.769 1.78v.258q0 1.549-.972 3.904-.963 2.348-1.359 2.614-2.82-1.452-5.047-1.453-2.22 0-2.219 1.582 0 .972 1.634 1.72.352.18 1.006.49.662.302 1.522.723.86.42 1.849 1.057.99.638 2.141 1.694 2.33 2.202 2.33 5.813 0 4.713-2.597 7.705t-8.014 3.078q-2.64 0-4.78-.438-2.134-.44-3.724-1.711-1.582-1.282-1.582-3.087t.662-3.586q.662-1.79 1.41-2.356m22.01-19.726q0-.705 4.008-.705 3.75.129 3.75.576v16.905l4.35-8.057q.31-.662 3.74-.662 3.44 0 4.412.438l-5.727 9.339 6.604 12.365q.085.18-1.65.284a46 46 0 0 1-2.882.112q-4.23 0-4.54-.396l-4.36-9.768v9.725q0 .576-3.852.576t-3.852-.533zm31.436 30.2q0 .351-4.033.352-4.024 0-4.024-.31v-21.618q0-.3 4.024-.3 4.033 0 4.033.257zm0-24.215q0 .31-4.033.31-4.024 0-4.024-.267v-6.338q0-.438 4.024-.438 4.033 0 4.033.266zm13.165 24.213q0 .31-3.164.31-4.403-.13-4.403-.482V123.52h-1.144q-1.143 0-1.496-1.935a7 7 0 0 1-.094-1.144q0-1.367.533-2.734.79-1.935 2.459-1.935 1.677 0 2.992.791 1.325.791 1.772 1.582 2.769-2.373 6.595-2.373 3.836 0 5.547 2.072 1.72 2.064 1.72 6.776v13.208q0 .525-3.767.525-3.758 0-3.758-.525v-12.726q0-2.202-1.539-2.202-.447 0-1.238.379-.792.37-1.015.55zm15.987-7.661q3.568 2.157 5.632 2.158 1.324 0 1.324-.92 0-.663-2.287-1.72-5.505-2.244-5.504-7.352 0-3.26 2.374-4.97 2.382-1.72 5.7-1.72 3.33 0 5.633.705 2.313.705 2.313 1.849 0 .963-.946 2.554-.945 1.582-1.298 1.71a8.3 8.3 0 0 0-4.093-1.048q-1.187 0-1.187.834 0 .524.456.903.464.37 1.694.92 1.239.551 2.047.997.817.44 1.831 1.23 2.115 1.668 2.115 4.36 0 3.517-2.338 5.7-2.331 2.176-7.043 2.176-3.122 0-5.675-1.057-2.554-1.058-2.554-2.907 0-1.23.593-2.588.594-1.367 1.213-1.814" fill="none" stroke-opacity=".502" stroke="#000" stroke-width="8" stroke-linecap="round" stroke-linejoin="round"/><path d="M61.244 137.52q0 .876-4.36.877-4.36 0-4.36-.877v-22.1h-5.279q-.748 0-1.057-2.029a15 15 0 0 1-.13-1.978q0-1.014.13-1.978.309-2.029 1.057-2.029h19.15q.748 0 1.058 2.03.129.962.129 1.977t-.13 1.978q-.309 2.03-1.057 2.03h-5.15zm6.871-21.042q0-.49 3.784-.49t3.783.49v12.855q0 2.202 1.41 2.202 1.059 0 2.382-.929v-14.128q0-.438 3.74-.439 3.742 0 3.741.439v14.438h1.144q1.496 0 1.496 2.863 0 1.453-.61 2.95-.886 1.935-2.382 1.934-2.95 0-4.36-2.416l-.043.043q-2.683 2.373-5.77 2.373-4.264 0-6.294-2.132-2.02-2.133-2.02-7.069zm33.814 21.704q0 .31-4.007.31-4.008-.096-4.008-.353v-14.618h-1.186q-.705 0-1.127-.86-.42-.86-.421-2.133 0-4.755 2.82-4.755 1.979 0 3.302 1.212 1.325 1.204 1.325 2.752.92-1.806 2.485-2.88 1.565-1.084 3.19-1.084 2.554 0 3.087 1.316.129.352.129 1.04 0 .68-.421 2.442-.413 1.763-.86 2.554-.439.79-.525.791-.086 0-.817-.327-.722-.335-1.298-.335-1.668 0-1.668 2.64zm8.01-30.647q0-.524 3.81-.524 3.808 0 3.808.567v8.547q1.893-.352 2.683-.352 9.244 0 9.244 10.611 0 5.899-2.837 9.09t-8.058 3.19-8.65-2.331zm9.072 15.108q-.75 0-1.454.482v8.41a3.3 3.3 0 0 0 1.29.258q.688 0 1.393-.525 1.23-.877 1.23-4.093 0-4.532-2.46-4.532m15.516 12.985q-2.752-3.036-2.752-8.41t2.752-8.41q2.752-3.035 7.42-3.035 4.67 0 7.396 3.035t2.725 8.41-2.725 8.41-7.396 3.035-7.42-3.035m7.438-12.503q-2.485 0-2.485 4.05t2.485 4.05q2.493 0 2.493-4.05t-2.493-4.05m22.874 4.36q.834.662 2.88 1.805 2.055 1.144 3.922 1.144 1.875 0 1.874-1.453 0-.662-.533-1.17-.525-.507-1.935-1.16a58 58 0 0 1-2.115-1.032q-.705-.379-1.875-1.239-1.16-.86-1.78-1.788-1.754-2.502-1.754-6.38t2.88-6.536q2.882-2.665 7.55-2.665 3.174 0 5.857.687 2.682.68 2.769 1.78v.258q0 1.548-.972 3.904-.963 2.348-1.359 2.614-2.82-1.453-5.047-1.453-2.22 0-2.219 1.582 0 .972 1.634 1.72.352.18 1.006.49.662.301 1.522.723.86.42 1.849 1.057.989.638 2.14 1.694 2.331 2.202 2.331 5.813 0 4.713-2.597 7.705t-8.014 3.078q-2.64 0-4.78-.438-2.134-.44-3.724-1.711-1.582-1.282-1.582-3.087 0-1.807.662-3.586.662-1.79 1.41-2.356m22.01-19.726q0-.705 4.008-.705 3.75.129 3.75.576v16.905l4.35-8.057q.31-.662 3.74-.662 3.44 0 4.412.438l-5.727 9.339 6.604 12.365q.085.18-1.65.284a46 46 0 0 1-2.882.112q-4.23 0-4.54-.396l-4.36-9.768v9.725q0 .576-3.852.576t-3.852-.533zm31.436 30.2q0 .351-4.033.352-4.024 0-4.024-.31v-21.618q0-.3 4.024-.3 4.033 0 4.033.257zm0-24.215q0 .31-4.033.31-4.024 0-4.024-.267v-6.338q0-.438 4.024-.438 4.033 0 4.033.266zm13.165 24.213q0 .31-3.164.31-4.403-.13-4.403-.482V123.52h-1.144q-1.143 0-1.496-1.935a7 7 0 0 1-.094-1.144q0-1.367.533-2.734.79-1.935 2.459-1.935 1.677 0 2.992.791 1.325.791 1.772 1.582 2.769-2.373 6.595-2.373 3.836 0 5.547 2.072 1.72 2.064 1.72 6.776v13.208q0 .525-3.767.525-3.758 0-3.758-.525v-12.726q0-2.202-1.539-2.202-.447 0-1.238.379-.792.37-1.015.55zm15.987-7.661q3.568 2.157 5.632 2.158 1.324 0 1.324-.92 0-.663-2.287-1.72-5.505-2.244-5.504-7.352 0-3.26 2.374-4.97 2.382-1.72 5.7-1.72 3.33 0 5.633.705 2.313.705 2.313 1.849 0 .963-.946 2.554-.945 1.582-1.298 1.71a8.3 8.3 0 0 0-4.093-1.048q-1.187 0-1.187.834 0 .524.456.903.464.37 1.694.92 1.239.551 2.047.997.817.44 1.831 1.23 2.115 1.668 2.115 4.36 0 3.517-2.338 5.7-2.331 2.176-7.043 2.176-3.121 0-5.675-1.057-2.554-1.058-2.554-2.907 0-1.23.593-2.588.594-1.368 1.213-1.814M123.689 43.537a6.49 6.49 0 0 1-6.488-6.489V26.377a6.49 6.49 0 0 1 6.489-6.489h10.67a6.49 6.49 0 0 1 6.49 6.489v10.671a6.49 6.49 0 0 1-6.49 6.489zm8.364-5.336a3.46 3.46 0 0 0 3.46-3.46v-6.057a3.46 3.46 0 0 0-3.46-3.46h-6.057a3.46 3.46 0 0 0-3.46 3.46v6.056a3.46 3.46 0 0 0 3.46 3.46zm42.886 5.336a6.49 6.49 0 0 1-6.49-6.489V26.377a6.49 6.49 0 0 1 6.49-6.489h10.67a6.49 6.49 0 0 1 6.49 6.489v10.671a6.49 6.49 0 0 1-6.49 6.489zm8.364-5.336a3.46 3.46 0 0 0 3.46-3.46v-6.057a3.46 3.46 0 0 0-3.46-3.46h-6.056a3.46 3.46 0 0 0-3.461 3.46v6.056a3.46 3.46 0 0 0 3.46 3.46z" fill="#fff"/><path d="M168.449 77.627a6.49 6.49 0 0 1 6.49-6.49h10.67a6.49 6.49 0 0 1 6.49 6.49v10.67a6.49 6.49 0 0 1-6.49 6.489h-10.67a6.49 6.49 0 0 1-6.49-6.489zm5.337 8.363a3.46 3.46 0 0 0 3.46 3.461h6.057a3.46 3.46 0 0 0 3.46-3.46v-6.057a3.46 3.46 0 0 0-3.46-3.46h-6.056a3.46 3.46 0 0 0-3.461 3.46zm-33.687-58.546h29.164v8.537H140.1zm-15.342 44.33V42.609h8.536v29.164zm51.25 0V42.609h8.535v29.164zm-35.908 6.92h29.164v8.536H140.1z" fill="#fff"/><path d="M117.199 77.627a6.49 6.49 0 0 1 6.49-6.49h10.672a6.49 6.49 0 0 1 6.488 6.49v10.67a6.49 6.49 0 0 1-6.488 6.489h-10.672a6.49 6.49 0 0 1-6.49-6.489zm5.338 8.363a3.46 3.46 0 0 0 3.46 3.461h6.057a3.46 3.46 0 0 0 3.46-3.46v-6.057a3.46 3.46 0 0 0-3.46-3.46h-6.057a3.46 3.46 0 0 0-3.46 3.46z" fill="#fff"/><path d="M125.798 89.521a3.333 3.333 0 0 1-3.333-3.333v-6.453a3.333 3.333 0 0 1 3.333-3.333h6.453a3.333 3.333 0 0 1 3.333 3.333v6.453a3.333 3.333 0 0 1-3.333 3.333zm51.25 0a3.333 3.333 0 0 1-3.333-3.333v-6.453a3.333 3.333 0 0 1 3.333-3.333h6.454a3.333 3.333 0 0 1 3.332 3.333v6.453a3.333 3.333 0 0 1-3.332 3.333zm6.454-64.368a3.333 3.333 0 0 1 3.332 3.333v6.453a3.333 3.333 0 0 1-3.332 3.333h-6.454a3.333 3.333 0 0 1-3.333-3.333v-6.453a3.333 3.333 0 0 1 3.333-3.333zm-51.251 0a3.333 3.333 0 0 1 3.333 3.333v6.453a3.333 3.333 0 0 1-3.333 3.333h-6.453a3.333 3.333 0 0 1-3.333-3.333v-6.453a3.333 3.333 0 0 1 3.333-3.333z" fill="#e81c48"/><path d="M146.991 57.542c2.255-3.074 7.124-9.698 8.535-11.507.756-.971 1.287-.491 1.06.644l-1.588 7.931s4.873.394 6.478.741c.97.21 1.635 1.47.622 2.867-2.174 2.995-6.539 8.537-7.767 10.23-.808 1.112-1.505.853-1.324-.285l.226-1.42 1.042-6.56-6.444-.805c-.872-.109-1.55-.866-.84-1.836" fill="none" stroke-opacity=".502" stroke="#000" stroke-width="6"/><path d="M146.991 57.542c2.255-3.074 7.124-9.698 8.535-11.507.756-.971 1.287-.491 1.06.644l-1.588 7.931s4.873.394 6.478.741c.971.21 1.635 1.47.622 2.867-2.174 2.995-6.539 8.537-7.767 10.23-.808 1.112-1.505.853-1.324-.285l.226-1.42 1.042-6.56-6.444-.805c-.872-.109-1.55-.866-.84-1.836" fill="#fff"/></svg>
