<?xml version="1.0" encoding="UTF-8"?>
<!DOCTYPE svg PUBLIC "-//W3C//DTD SVG 1.1//EN" "http://www.w3.org/Graphics/SVG/1.1/DTD/svg11.dtd">
<svg xmlns="http://www.w3.org/2000/svg" version="1.1" width="300px" height="150px" style="shape-rendering:geometricPrecision; text-rendering:geometricPrecision; image-rendering:optimizeQuality; fill-rule:evenodd; clip-rule:evenodd" xmlns:xlink="http://www.w3.org/1999/xlink">
<g><path style="opacity:0.999" fill="#a505fe" d="M 14.5,-0.5 C 104.833,-0.5 195.167,-0.5 285.5,-0.5C 289.479,1.31481 292.312,4.31481 294,8.5C 294.667,52.8333 294.667,97.1667 294,141.5C 292.521,144.828 290.355,147.494 287.5,149.5C 195.833,149.5 104.167,149.5 12.5,149.5C 9.64519,147.494 7.47852,144.828 6,141.5C 5.33333,97.1667 5.33333,52.8333 6,8.5C 7.68784,4.31481 10.5212,1.31481 14.5,-0.5 Z"/></g>
<g><path style="opacity:1" fill="#7c00c5" d="M 37.5,11.5 C 33.8333,11.5 30.1667,11.5 26.5,11.5C 25.4972,16.1727 24.4972,20.8394 23.5,25.5C 19.1456,24.6438 16.6456,21.9772 16,17.5C 15.1667,7.66667 19.6667,3.16667 29.5,4C 33.9772,4.64562 36.6438,7.14562 37.5,11.5 Z"/></g>
<g><path style="opacity:1" fill="#7c00c4" d="M 99.5,5.5 C 110.695,5.51532 114.862,10.8487 112,21.5C 105.965,28.0652 99.9646,28.0652 94,21.5C 91.0239,14.4622 92.8572,9.12889 99.5,5.5 Z"/></g>
<g><path style="opacity:1" fill="#7d00c5" d="M 255.5,12.5 C 265.79,12.4453 269.123,17.112 265.5,26.5C 259.387,31.2335 254.554,30.2335 251,23.5C 250.333,21.5 250.333,19.5 251,17.5C 252.366,15.6383 253.866,13.9717 255.5,12.5 Z"/></g>
<g><path style="opacity:1" fill="#633ea4" d="M 37.5,11.5 C 52.5,11.5 67.5,11.5 82.5,11.5C 82.6666,24.1711 82.4999,36.8377 82,49.5C 74.8333,56.6667 67.6667,63.8333 60.5,71C 57.5184,71.498 54.5184,71.6646 51.5,71.5C 47.8689,72.6076 44.8689,74.7742 42.5,78C 40.2884,78.7891 38.2884,78.6225 36.5,77.5C 36.5,75.5 36.5,73.5 36.5,71.5C 32.1667,71.5 27.8333,71.5 23.5,71.5C 23.5,56.1667 23.5,40.8333 23.5,25.5C 24.4972,20.8394 25.4972,16.1727 26.5,11.5C 30.1667,11.5 33.8333,11.5 37.5,11.5 Z"/></g>
<g><path style="opacity:1" fill="#c4bdd8" d="M 76.5,47.5 C 76.5,37.5 76.5,27.5 76.5,17.5C 61.8333,17.5 47.1667,17.5 32.5,17.5C 32.5,30.5 32.5,43.5 32.5,56.5C 36.5,56.5 40.5,56.5 44.5,56.5C 44.1984,59.0593 44.5318,61.3926 45.5,63.5C 45.44,64.0431 45.1067,64.3764 44.5,64.5C 43.5258,62.2573 43.1924,59.924 43.5,57.5C 39.5,57.5 35.5,57.5 31.5,57.5C 31.5,43.8333 31.5,30.1667 31.5,16.5C 46.8333,16.5 62.1667,16.5 77.5,16.5C 77.8276,27.0135 77.4942,37.3468 76.5,47.5 Z"/></g>
<g><path style="opacity:1" fill="#fefefe" d="M 76.5,47.5 C 70.8413,55.9164 62.8413,59.0831 52.5,57C 50.2968,59.3722 47.9635,61.5389 45.5,63.5C 44.5318,61.3926 44.1984,59.0593 44.5,56.5C 40.5,56.5 36.5,56.5 32.5,56.5C 32.5,43.5 32.5,30.5 32.5,17.5C 47.1667,17.5 61.8333,17.5 76.5,17.5C 76.5,27.5 76.5,37.5 76.5,47.5 Z"/></g>
<g><path style="opacity:1" fill="#7d00c6" d="M 160.5,18.5 C 168.845,18.6908 171.178,22.5241 167.5,30C 159.95,32.9838 156.45,30.4838 157,22.5C 157.69,20.6498 158.856,19.3164 160.5,18.5 Z"/></g>
<g><path style="opacity:1" fill="#9b8cc0" d="M 46.5,27.5 C 48.5,27.5 50.5,27.5 52.5,27.5C 52.5,33.1667 52.5,38.8333 52.5,44.5C 50.5,44.5 48.5,44.5 46.5,44.5C 46.5,38.8333 46.5,33.1667 46.5,27.5 Z"/></g>
<g><path style="opacity:1" fill="#5c32a2" d="M 47.5,28.5 C 48.8333,28.5 50.1667,28.5 51.5,28.5C 51.5,33.5 51.5,38.5 51.5,43.5C 50.1667,43.5 48.8333,43.5 47.5,43.5C 47.5,38.5 47.5,33.5 47.5,28.5 Z"/></g>
<g><path style="opacity:1" fill="#9989be" d="M 61.5,27.5 C 63.5,27.5 65.5,27.5 67.5,27.5C 67.5,33.1667 67.5,38.8333 67.5,44.5C 65.5,44.5 63.5,44.5 61.5,44.5C 61.5,38.8333 61.5,33.1667 61.5,27.5 Z"/></g>
<g><path style="opacity:1" fill="#5d33a2" d="M 62.5,28.5 C 63.8333,28.5 65.1667,28.5 66.5,28.5C 66.5,33.5 66.5,38.5 66.5,43.5C 65.1667,43.5 63.8333,43.5 62.5,43.5C 62.5,38.5 62.5,33.5 62.5,28.5 Z"/></g>
<g><path style="opacity:1" fill="#8111c7" d="M 213.5,31.5 C 207.472,35.5747 205.305,41.2414 207,48.5C 208.942,53.2832 212.442,55.2832 217.5,54.5C 211.966,58.7015 206.466,58.3682 201,53.5C 194.928,43.9593 196.761,36.4593 206.5,31C 209.039,30.2042 211.372,30.3709 213.5,31.5 Z"/></g>
<g><path style="opacity:1" fill="#fcf7fe" d="M 108.5,48.5 C 108.66,50.1992 108.494,51.8659 108,53.5C 107,54.8333 106,54.8333 105,53.5C 104.827,47.6518 104.327,41.9851 103.5,36.5C 101.5,36.5 99.5,36.5 97.5,36.5C 97.5,35.1667 97.5,33.8333 97.5,32.5C 103.176,32.3339 108.843,32.5006 114.5,33C 115.833,34 115.833,35 114.5,36C 112.527,36.4955 110.527,36.6621 108.5,36.5C 108.5,40.5 108.5,44.5 108.5,48.5 Z"/></g>
<g><path style="opacity:1" fill="#fbf3ff" d="M 141.5,31.5 C 142.5,31.5 143.5,31.5 144.5,31.5C 144.5,32.8333 144.5,34.1667 144.5,35.5C 141.046,35.7332 140.046,34.3999 141.5,31.5 Z"/></g>
<g><path style="opacity:1" fill="#fbf4ff" d="M 167.5,31.5 C 171.068,31.7593 172.401,33.7593 171.5,37.5C 172.833,37.5 174.167,37.5 175.5,37.5C 175.833,40.5 174.5,41.8333 171.5,41.5C 171.336,44.1873 171.503,46.854 172,49.5C 175.094,49.7928 176.594,51.4594 176.5,54.5C 174.143,54.6633 171.81,54.4966 169.5,54C 168.874,53.2496 168.374,52.4162 168,51.5C 168.079,46.8467 166.913,42.68 164.5,39C 166.628,37.013 167.628,34.513 167.5,31.5 Z"/></g>
<g><path style="opacity:1" fill="#fdf9ff" d="M 179.5,32.5 C 180.833,32.5 182.167,32.5 183.5,32.5C 183.201,34.604 183.534,36.604 184.5,38.5C 189.078,35.5319 192.578,36.5319 195,41.5C 195.667,45.5 195.667,49.5 195,53.5C 193.989,54.3366 192.822,54.67 191.5,54.5C 191.628,50.1186 191.295,45.7853 190.5,41.5C 187.722,41.0217 185.722,42.0217 184.5,44.5C 183.513,47.7683 183.18,51.1016 183.5,54.5C 182.178,54.67 181.011,54.3366 180,53.5C 179.5,46.5079 179.334,39.5079 179.5,32.5 Z"/></g>
<g><path style="opacity:1" fill="#f9f2fc" d="M 213.5,31.5 C 219.929,31.2712 223.596,34.2712 224.5,40.5C 223.85,40.8039 223.183,41.1373 222.5,41.5C 221.059,40.1349 219.726,38.6349 218.5,37C 213.366,35.9576 210.699,38.1243 210.5,43.5C 212.095,51.2514 215.762,52.4181 221.5,47C 222.448,46.5172 223.448,46.3505 224.5,46.5C 224.337,50.9997 222.004,53.6664 217.5,54.5C 212.442,55.2832 208.942,53.2832 207,48.5C 205.305,41.2414 207.472,35.5747 213.5,31.5 Z"/></g>
<g><path style="opacity:1" fill="#fbf4ff" d="M 228.5,32.5 C 229.833,32.5 231.167,32.5 232.5,32.5C 232.201,34.604 232.534,36.604 233.5,38.5C 241.407,35.7111 245.073,38.7111 244.5,47.5C 244.333,49.5 244.167,51.5 244,53.5C 242.951,54.5171 241.784,54.6838 240.5,54C 239.703,50.2546 239.203,46.4213 239,42.5C 236.46,41.1235 234.46,41.7902 233,44.5C 232.502,47.8168 232.335,51.1501 232.5,54.5C 231.167,54.5 229.833,54.5 228.5,54.5C 228.5,47.1667 228.5,39.8333 228.5,32.5 Z"/></g>
<g><path style="opacity:1" fill="#f9edff" d="M 267.5,31.5 C 268.552,31.3505 269.552,31.5172 270.5,32C 271.184,35.0354 272.851,37.3687 275.5,39C 274.692,40.7058 273.359,41.5391 271.5,41.5C 271.336,44.1873 271.503,46.854 272,49.5C 277.581,51.2415 277.748,52.9082 272.5,54.5C 270.626,54.6102 269.126,53.9436 268,52.5C 267.585,47.7426 266.419,43.2426 264.5,39C 265.878,36.6542 266.878,34.1542 267.5,31.5 Z"/></g>
<g><path style="opacity:1" fill="#8010c6" d="M 224.5,40.5 C 224.5,42.5 224.5,44.5 224.5,46.5C 223.448,46.3505 222.448,46.5172 221.5,47C 215.762,52.4181 212.095,51.2514 210.5,43.5C 210.699,38.1243 213.366,35.9576 218.5,37C 219.726,38.6349 221.059,40.1349 222.5,41.5C 223.183,41.1373 223.85,40.8039 224.5,40.5 Z"/></g>
<g><path style="opacity:1" fill="#fbf3ff" d="M 251.5,37.5 C 254.685,37.0196 257.519,37.6863 260,39.5C 260.954,43.8964 262.121,48.2297 263.5,52.5C 262.537,54.4896 261.204,54.8229 259.5,53.5C 259,52.5 258.5,51.5 258,50.5C 252.92,56.3164 249.087,55.6497 246.5,48.5C 247.219,44.3186 248.886,40.652 251.5,37.5 Z"/></g>
<g><path style="opacity:1" fill="#fcf6fe" d="M 122.5,53.5 C 119.064,54.7682 117.064,53.4349 116.5,49.5C 115.756,45.8815 115.423,42.2148 115.5,38.5C 116.833,38.5 118.167,38.5 119.5,38.5C 119.244,49.1198 120.744,50.1198 124,41.5C 125.333,40.1667 126.667,40.1667 128,41.5C 128.895,43.8045 129.729,46.1378 130.5,48.5C 132.718,45.6484 133.718,42.315 133.5,38.5C 134.833,38.5 136.167,38.5 137.5,38.5C 137.276,43.3971 136.109,48.0637 134,52.5C 130.116,55.1605 127.282,54.1605 125.5,49.5C 124.476,50.8518 123.476,52.1851 122.5,53.5 Z"/></g>
<g><path style="opacity:1" fill="#faf0ff" d="M 141.5,37.5 C 142.822,37.33 143.989,37.6634 145,38.5C 145.667,43.5 145.667,48.5 145,53.5C 143.667,54.8333 142.333,54.8333 141,53.5C 140.219,48.0833 140.385,42.7499 141.5,37.5 Z"/></g>
<g><path style="opacity:1" fill="#faf1ff" d="M 152.5,38.5 C 155.187,38.3359 157.854,38.5026 160.5,39C 161.93,40.8803 161.596,42.3803 159.5,43.5C 154.2,41.7905 151.867,43.7905 152.5,49.5C 155.066,49.6556 157.566,49.3223 160,48.5C 161.5,48.6667 162.333,49.5 162.5,51C 158.268,55.2193 153.935,55.3859 149.5,51.5C 147.507,46.3769 148.507,42.0435 152.5,38.5 Z"/></g>
<g><path style="opacity:1" fill="#aa1bff" d="M 253.5,41.5 C 254.552,41.3505 255.552,41.5172 256.5,42C 255.974,44.972 254.641,47.472 252.5,49.5C 251.267,46.6584 251.6,43.9918 253.5,41.5 Z"/></g>
<g><path style="opacity:1" fill="#7f09c6" d="M 103.5,36.5 C 104.327,41.9851 104.827,47.6518 105,53.5C 106,54.8333 107,54.8333 108,53.5C 108.494,51.8659 108.66,50.1992 108.5,48.5C 111.167,48.8333 113.833,49.1667 116.5,49.5C 117.064,53.4349 119.064,54.7682 122.5,53.5C 124.425,60.199 123.425,66.3656 119.5,72C 106.724,78.7779 99.0577,75.1113 96.5,61C 97.0422,56.465 99.2089,52.965 103,50.5C 103.499,45.8452 103.666,41.1785 103.5,36.5 Z"/></g>
<g><path style="opacity:1" fill="#7c00c4" d="M 252.5,56.5 C 265.582,56.0637 270.748,62.0637 268,74.5C 264.373,80.1579 259.207,82.3246 252.5,81C 241.951,72.7192 241.951,64.5526 252.5,56.5 Z"/></g>
<g><path style="opacity:1" fill="#7d00c5" d="M 159.5,65.5 C 168.515,64.6834 172.681,68.6834 172,77.5C 169.818,83.2412 165.651,85.4078 159.5,84C 154.581,81.2588 152.748,77.0921 154,71.5C 155.36,68.9774 157.193,66.9774 159.5,65.5 Z"/></g>
<g><path style="opacity:1" fill="#7c00c4" d="M 51.5,71.5 C 58.12,77.6342 58.12,83.8009 51.5,90C 44.0377,93.1832 38.871,91.0166 36,83.5C 35.2109,81.2884 35.3775,79.2884 36.5,77.5C 38.2884,78.6225 40.2884,78.7891 42.5,78C 44.8689,74.7742 47.8689,72.6076 51.5,71.5 Z"/></g>
<g><path style="opacity:1" fill="#7c00c5" d="M 199.5,76.5 C 213.004,76.1625 218.17,82.4958 215,95.5C 209.879,102.712 203.379,104.212 195.5,100C 187.872,90.55 189.206,82.7167 199.5,76.5 Z"/></g>
<g><path style="opacity:1" fill="#7f07c6" d="M 101.5,113.5 C 100.5,113.5 99.5,113.5 98.5,113.5C 97.039,118.787 96.3723,118.453 96.5,112.5C 95.448,112.351 94.448,112.517 93.5,113C 94.3802,114.356 94.7135,115.856 94.5,117.5C 91.8371,115.765 88.8371,114.765 85.5,114.5C 86.0906,113.849 86.7573,113.182 87.5,112.5C 86.1468,111.476 85.4802,110.143 85.5,108.5C 84.5,108.5 83.5,108.5 82.5,108.5C 82.7373,109.791 82.404,110.791 81.5,111.5C 76.9068,101.022 80.0734,94.3558 91,91.5C 99.8676,92.6935 103.868,97.6935 103,106.5C 102.654,108.848 101.487,110.681 99.5,112C 100.416,112.278 101.082,112.778 101.5,113.5 Z"/></g>
<g><path style="opacity:1" fill="#7d00c6" d="M 275.5,93.5 C 283.818,93.9869 285.485,97.4869 280.5,104C 272.088,103.812 270.421,100.312 275.5,93.5 Z"/></g>
<g><path style="opacity:1" fill="#8113c7" d="M 160.5,111.5 C 159.5,111.5 158.5,111.5 157.5,111.5C 157.337,113.857 157.503,116.19 158,118.5C 158.377,119.942 159.21,120.942 160.5,121.5C 157.116,127.916 151.783,130.416 144.5,129C 142.24,127.212 139.907,125.712 137.5,124.5C 139.144,124.714 140.644,124.38 142,123.5C 143.7,120.533 144.867,117.367 145.5,114C 145.15,112.743 144.483,112.409 143.5,113C 142.773,114.399 142.273,115.899 142,117.5C 141.059,115.273 139.892,113.273 138.5,111.5C 142.746,103.995 148.746,102.495 156.5,107C 158.041,108.371 159.375,109.871 160.5,111.5 Z"/></g>
<g><path style="opacity:1" fill="#7f09c6" d="M 248.5,111.5 C 243.691,114.51 243.358,117.844 247.5,121.5C 243.497,126.484 238.497,127.651 232.5,125C 231.29,123.961 230.29,122.794 229.5,121.5C 231.164,120.051 231.998,118.051 232,115.5C 233.011,114.663 234.178,114.33 235.5,114.5C 235.192,116.924 235.526,119.257 236.5,121.5C 239.045,118.484 239.045,115.317 236.5,112C 234.866,111.506 233.199,111.34 231.5,111.5C 231.737,110.209 231.404,109.209 230.5,108.5C 233.599,104.76 237.599,103.593 242.5,105C 245.409,106.406 247.409,108.572 248.5,111.5 Z"/></g>
<g><path style="opacity:1" fill="#f6e4ff" d="M 20.5,108.5 C 21.7943,110.048 22.4609,112.048 22.5,114.5C 21.7652,123.429 20.7652,123.595 19.5,115C 19.5657,112.745 19.8991,110.578 20.5,108.5 Z"/></g>
<g><path style="opacity:1" fill="#f5e8fb" d="M 41.5,111.5 C 38.5855,114.913 38.9188,117.913 42.5,120.5C 40.3886,121.848 38.5553,121.515 37,119.5C 36.7096,117.08 36.2096,114.746 35.5,112.5C 36.2341,111.292 36.5674,109.959 36.5,108.5C 37.5,108.5 38.5,108.5 39.5,108.5C 39.2852,110.179 39.9519,111.179 41.5,111.5 Z"/></g>
<g><path style="opacity:1" fill="#f5e6fd" d="M 85.5,114.5 C 85.2289,116.821 85.8955,118.821 87.5,120.5C 86.1667,121.833 84.8333,121.833 83.5,120.5C 83.0863,117.59 82.0863,114.923 80.5,112.5C 80.6236,111.893 80.9569,111.56 81.5,111.5C 82.404,110.791 82.7373,109.791 82.5,108.5C 83.5,108.5 84.5,108.5 85.5,108.5C 85.4802,110.143 86.1468,111.476 87.5,112.5C 86.7573,113.182 86.0906,113.849 85.5,114.5 Z"/></g>
<g><path style="opacity:1" fill="#f8ecfe" d="M 119.5,119.5 C 117.581,122.084 115.914,121.75 114.5,118.5C 113.753,115.086 113.753,111.753 114.5,108.5C 115.5,108.5 116.5,108.5 117.5,108.5C 117.48,110.143 118.147,111.476 119.5,112.5C 116.918,115.083 116.918,117.417 119.5,119.5 Z"/></g>
<g><path style="opacity:1" fill="#f6e5ff" d="M 123.5,121.5 C 122.5,121.167 121.833,120.5 121.5,119.5C 121.5,115.833 121.5,112.167 121.5,108.5C 122.5,108.5 123.5,108.5 124.5,108.5C 124.343,109.873 124.51,111.207 125,112.5C 126.667,111.167 128.333,111.167 130,112.5C 131.289,115.351 131.789,118.351 131.5,121.5C 130.5,121.5 129.5,121.5 128.5,121.5C 128.875,118.603 128.375,115.937 127,113.5C 126.333,114.167 125.667,114.833 125,115.5C 124.809,117.708 124.309,119.708 123.5,121.5 Z"/></g>
<g><path style="opacity:1" fill="#f6e6fe" d="M 187.5,120.5 C 185.632,121.674 184.632,121.007 184.5,118.5C 184.5,115.833 184.5,113.167 184.5,110.5C 183.022,110.762 181.689,110.429 180.5,109.5C 184.167,108.167 187.833,108.167 191.5,109.5C 190.311,110.429 188.978,110.762 187.5,110.5C 187.5,113.833 187.5,117.167 187.5,120.5 Z"/></g>
<g><path style="opacity:1" fill="#fcf6ff" d="M 206.5,108.5 C 208.337,108.639 208.67,109.306 207.5,110.5C 206.702,110.043 206.369,109.376 206.5,108.5 Z"/></g>
<g><path style="opacity:1" fill="#fbf4ff" d="M 221.5,108.5 C 223.048,108.821 223.715,109.821 223.5,111.5C 227.5,112.167 227.5,112.833 223.5,113.5C 222.907,116.596 223.907,118.929 226.5,120.5C 224.653,121.83 223.153,121.497 222,119.5C 221.853,116.89 221.019,114.556 219.5,112.5C 220.853,111.476 221.52,110.143 221.5,108.5 Z"/></g>
<g><path style="opacity:1" fill="#f0e1f8" d="M 230.5,108.5 C 231.404,109.209 231.737,110.209 231.5,111.5C 233.199,111.34 234.866,111.506 236.5,112C 239.045,115.317 239.045,118.484 236.5,121.5C 235.526,119.257 235.192,116.924 235.5,114.5C 234.178,114.33 233.011,114.663 232,115.5C 231.998,118.051 231.164,120.051 229.5,121.5C 228.837,119.527 228.504,117.361 228.5,115C 228.533,112.39 229.2,110.223 230.5,108.5 Z"/></g>
<g><path style="opacity:1" fill="#fdf9ff" d="M 254.5,108.5 C 256.045,109.23 256.878,110.563 257,112.5C 259.267,111.065 261.267,111.398 263,113.5C 263.818,116.227 263.652,118.894 262.5,121.5C 260.774,111.498 258.441,111.498 255.5,121.5C 254.508,117.217 254.174,112.884 254.5,108.5 Z"/></g>
<g><path style="opacity:1" fill="#f8ebff" d="M 276.5,108.5 C 277.5,108.5 278.5,108.5 279.5,108.5C 279.48,110.143 280.147,111.476 281.5,112.5C 279.827,114.523 279.16,116.856 279.5,119.5C 280.675,119.281 281.675,119.614 282.5,120.5C 280.389,121.848 278.555,121.515 277,119.5C 275.922,115.771 275.755,112.104 276.5,108.5 Z"/></g>
<g><path style="opacity:1" fill="#e6b7ff" d="M 108.5,108.5 C 109.675,108.281 110.675,108.614 111.5,109.5C 109.948,110.798 108.948,110.465 108.5,108.5 Z"/></g>
<g><path style="opacity:1" fill="#f8e9ff" d="M 33.5,113.5 C 33.8134,116.247 33.48,118.914 32.5,121.5C 31.8319,119.031 31.1653,116.698 30.5,114.5C 29.6715,113.668 28.8382,114.001 28,115.5C 27.5045,117.473 27.3379,119.473 27.5,121.5C 26.5,121.5 25.5,121.5 24.5,121.5C 24.5,118.167 24.5,114.833 24.5,111.5C 27.1873,111.336 29.854,111.503 32.5,112C 33.056,112.383 33.3893,112.883 33.5,113.5 Z"/></g>
<g><path style="opacity:1" fill="#f9eeff" d="M 63.5,111.5 C 65.1439,111.286 66.6439,111.62 68,112.5C 68.5323,115.264 69.3657,117.93 70.5,120.5C 69.132,121.594 67.9653,121.26 67,119.5C 63.7516,122.462 61.585,121.795 60.5,117.5C 60.9837,115.199 61.9837,113.199 63.5,111.5 Z"/></g>
<g><path style="opacity:1" fill="#f7f0fb" d="M 149.5,111.5 C 156.803,112.267 158.136,115.433 153.5,121C 148.008,121.486 146.175,118.986 148,113.5C 148.717,112.956 149.217,112.289 149.5,111.5 Z"/></g>
<g><path style="opacity:1" fill="#f4e4fc" d="M 160.5,111.5 C 160.5,113.833 160.5,116.167 160.5,118.5C 161.822,118.67 162.989,118.337 164,117.5C 164.495,115.527 164.662,113.527 164.5,111.5C 165.5,111.5 166.5,111.5 167.5,111.5C 167.5,114.833 167.5,118.167 167.5,121.5C 165.167,120.167 162.833,120.167 160.5,121.5C 159.21,120.942 158.377,119.942 158,118.5C 157.503,116.19 157.337,113.857 157.5,111.5C 158.5,111.5 159.5,111.5 160.5,111.5 Z"/></g>
<g><path style="opacity:1" fill="#faf1ff" d="M 267.5,111.5 C 269.288,111.215 270.955,111.548 272.5,112.5C 274.004,115.467 274.338,118.467 273.5,121.5C 272.833,120.833 272.167,120.167 271.5,119.5C 269.878,121.439 268.044,121.772 266,120.5C 265.207,117.259 265.707,114.259 267.5,111.5 Z"/></g>
<g><path style="opacity:1" fill="#8110c6" d="M 41.5,111.5 C 42.391,112.11 43.391,112.443 44.5,112.5C 42.3006,118.453 44.3006,121.453 50.5,121.5C 49.4123,129.753 44.7456,133.253 36.5,132C 29.8483,127.881 27.8483,122.048 30.5,114.5C 31.1653,116.698 31.8319,119.031 32.5,121.5C 33.48,118.914 33.8134,116.247 33.5,113.5C 34.1667,113.167 34.8333,112.833 35.5,112.5C 36.2096,114.746 36.7096,117.08 37,119.5C 38.5553,121.515 40.3886,121.848 42.5,120.5C 38.9188,117.913 38.5855,114.913 41.5,111.5 Z"/></g>
<g><path style="opacity:1" fill="#f3e3fa" d="M 50.5,121.5 C 44.3006,121.453 42.3006,118.453 44.5,112.5C 46.9358,110.983 49.1024,111.316 51,113.5C 51.7112,115.367 51.2112,116.867 49.5,118C 51.727,118.704 52.0603,119.871 50.5,121.5 Z"/></g>
<g><path style="opacity:1" fill="#f9eeff" d="M 53.5,111.5 C 55.6957,111.565 57.6957,112.232 59.5,113.5C 56.828,115.425 55.828,118.092 56.5,121.5C 55.5,121.5 54.5,121.5 53.5,121.5C 53.5,118.167 53.5,114.833 53.5,111.5 Z"/></g>
<g><path style="opacity:1" fill="#f7e7ff" d="M 74.5,111.5 C 76.6648,111.116 78.3315,111.783 79.5,113.5C 77.9547,114.452 76.288,114.785 74.5,114.5C 74.5,115.833 74.5,117.167 74.5,118.5C 80.4481,118.626 80.7814,119.626 75.5,121.5C 71.8529,120.514 70.6862,118.181 72,114.5C 73.045,113.627 73.8783,112.627 74.5,111.5 Z"/></g>
<g><path style="opacity:1" fill="#faf1fe" d="M 101.5,113.5 C 101.491,115.308 101.991,116.975 103,118.5C 103.833,116.5 104.667,114.5 105.5,112.5C 107.007,116.127 106.173,119.127 103,121.5C 101.347,121.18 100.347,120.18 100,118.5C 97.4275,122.57 95.5942,122.237 94.5,117.5C 94.7135,115.856 94.3802,114.356 93.5,113C 94.448,112.517 95.448,112.351 96.5,112.5C 96.3723,118.453 97.039,118.787 98.5,113.5C 99.5,113.5 100.5,113.5 101.5,113.5 Z"/></g>
<g><path style="opacity:1" fill="#f5ecfa" d="M 138.5,111.5 C 139.892,113.273 141.059,115.273 142,117.5C 142.273,115.899 142.773,114.399 143.5,113C 144.483,112.409 145.15,112.743 145.5,114C 144.867,117.367 143.7,120.533 142,123.5C 140.644,124.38 139.144,124.714 137.5,124.5C 138.108,123.2 138.775,121.867 139.5,120.5C 138.833,118.167 138.167,115.833 137.5,113.5C 137.543,112.584 137.876,111.917 138.5,111.5 Z"/></g>
<g><path style="opacity:1" fill="#faf0ff" d="M 169.5,111.5 C 171.086,112.413 172.586,112.413 174,111.5C 174.692,112.025 175.192,112.692 175.5,113.5C 174.372,114.262 173.205,114.929 172,115.5C 171.808,117.577 171.308,119.577 170.5,121.5C 169.513,118.232 169.18,114.898 169.5,111.5 Z"/></g>
<g><path style="opacity:1" fill="#f9efff" d="M 191.5,112.5 C 192.943,113.335 193.943,114.668 194.5,116.5C 197.697,112.335 199.53,113.001 200,118.5C 201.319,116.75 201.819,114.75 201.5,112.5C 202.5,112.5 203.5,112.5 204.5,112.5C 204.418,116.266 202.918,119.266 200,121.5C 198.291,118.288 196.791,118.122 195.5,121C 194.551,121.617 193.718,121.451 193,120.5C 191.748,117.986 191.248,115.32 191.5,112.5 Z"/></g>
<g><path style="opacity:1" fill="#fcf7ff" d="M 206.5,111.5 C 207.777,112.694 208.444,114.36 208.5,116.5C 208.167,118.167 207.833,119.833 207.5,121.5C 206.513,118.232 206.18,114.898 206.5,111.5 Z"/></g>
<g><path style="opacity:1" fill="#f8e9ff" d="M 213.5,111.5 C 220.018,112.556 220.018,113.889 213.5,115.5C 213.167,116.167 212.833,116.833 212.5,117.5C 214.5,118.167 216.5,118.833 218.5,119.5C 214.49,122.667 211.823,121.834 210.5,117C 210.863,114.808 211.863,112.974 213.5,111.5 Z"/></g>
<g><path style="opacity:1" fill="#f6e9fd" d="M 248.5,111.5 C 253.784,113.229 253.451,114.396 247.5,115C 246.663,116.011 246.33,117.178 246.5,118.5C 248.604,118.201 250.604,118.534 252.5,119.5C 251.15,120.95 249.484,121.617 247.5,121.5C 243.358,117.844 243.691,114.51 248.5,111.5 Z"/></g>
<g><path style="opacity:1" fill="#b641ff" d="M 64.5,113.5 C 66.6196,114.85 66.453,116.517 64,118.5C 63.3603,116.735 63.5269,115.068 64.5,113.5 Z"/></g>
<g><path style="opacity:1" fill="#963ecf" d="M 150.5,113.5 C 152.484,113.484 153.484,114.484 153.5,116.5C 152.167,120.5 150.833,120.5 149.5,116.5C 149.685,115.416 150.018,114.416 150.5,113.5 Z"/></g>
<g><path style="opacity:1" fill="#b73cff" d="M 269.5,113.5 C 270.325,115.125 269.992,116.792 268.5,118.5C 267.348,116.603 267.681,114.936 269.5,113.5 Z"/></g>
<g><path style="opacity:1" fill="#7d01c5" d="M 184.5,118.5 C 184.632,121.007 185.632,121.674 187.5,120.5C 190.452,121.359 192.285,123.359 193,126.5C 194.455,135.6 190.622,140.6 181.5,141.5C 173.088,140.026 169.588,135.026 171,126.5C 173.543,120.642 178.043,117.975 184.5,118.5 Z"/></g>
<g><path style="opacity:1" fill="#f4e4fd" d="M 111.5,119.5 C 111.179,121.048 110.179,121.715 108.5,121.5C 108.5,118.167 108.5,114.833 108.5,111.5C 109.5,111.5 110.5,111.5 111.5,111.5C 111.5,114.167 111.5,116.833 111.5,119.5 Z"/></g>
<g><path style="opacity:1" fill="#7d04c5" d="M 114.5,118.5 C 115.914,121.75 117.581,122.084 119.5,119.5C 120.167,119.5 120.833,119.5 121.5,119.5C 121.833,120.5 122.5,121.167 123.5,121.5C 127.804,127.527 127.137,133.027 121.5,138C 112.358,141.262 107.025,138.095 105.5,128.5C 105.695,125.782 106.695,123.449 108.5,121.5C 110.179,121.715 111.179,121.048 111.5,119.5C 112.391,118.89 113.391,118.557 114.5,118.5 Z"/></g>
<g><path style="opacity:1" fill="#7d00c6" d="M 255.5,127.5 C 263.845,127.691 266.178,131.524 262.5,139C 254.95,141.984 251.45,139.484 252,131.5C 252.69,129.65 253.856,128.316 255.5,127.5 Z"/></g>
<g><path style="opacity:1" fill="#7d00c6" d="M 72.5,129.5 C 80.8448,129.691 83.1781,133.524 79.5,141C 71.9505,143.984 68.4505,141.484 69,133.5C 69.6897,131.65 70.8564,130.316 72.5,129.5 Z"/></g>
</svg>
