<svg xmlns="http://www.w3.org/2000/svg" width="309.297" height="159.649" viewBox="0 0 309.297 159.649"><defs><linearGradient x1="240" y1="105.176" x2="240" y2="254.824" gradientUnits="userSpaceOnUse" id="a"><stop offset="0" stop-color="#67390a"/><stop offset="1" stop-color="#864a0d"/></linearGradient></defs><g stroke-miterlimit="10" style="mix-blend-mode:normal"><path d="M4.656 139.024v-122.5c0-6.04 7.79-11.695 16.793-11.695h266.5c10.527 0 16.693 7.611 16.693 15.195v118.5c0 9.961-7.998 16.295-17.193 16.295h-263c-12.406 0-19.793-6.112-19.793-15.795" fill="#ff8c1a"/><g fill="#db7816" stroke-width="0"><path d="m229.646 154.821 74.996-74.997v64.5c0 4.986-4.918 10.497-9.509 10.497zm0-74.997L300.64 8.83c2.156-2.156 3.752 2.176 3.752 7.744 0 12.76.25 63.25.25 63.25zm-37.499 74.997 37.499-37.499v37.499zm0-37.499 37.499-37.498v37.498zM79.652 79.824l74.997-74.997v74.997zM9.268 150.209l70.384-70.385v74.997H13.383c-4.269 0-6.563-2.164-4.115-4.612m145.291 4.612 37.5-37.499v37.499zm0-37.499 37.5-37.498v37.498z"/><path d="m192.147 79.83 37.499-37.498V79.83zm0-37.498 37.499-37.498v37.498zM154.559 79.83l37.5-37.498V79.83zm0-37.498 37.5-37.498v37.498zm-37.297 112.489 37.499-37.499v37.499z"/><path d="m117.262 117.322 37.499-37.498v37.498zm-37.587 37.499 37.498-37.499v37.499zm0-37.499 37.498-37.498v37.498zM42.305 79.83l37.498-37.498V79.83zm0-37.498L79.803 4.834v37.498zM4.717 79.83l37.499-37.498V79.83zm0-37.498L42.216 4.834v37.498z"/></g><path d="M180.575 76.144h0a3.32 3.32 0 0 1 3.414-3.226L289.011 75.9a3.32 3.32 0 0 1 3.226 3.414l-1.027 36.19a3.32 3.32 0 0 1-3.415 3.226l-105.022-2.981a3.32 3.32 0 0 1-3.225-3.415z" fill-opacity=".129" fill-rule="evenodd" stroke-opacity=".129" stroke="#000" stroke-width="7.5" stroke-linecap="square"/><path d="M180.589 76.144h0a3.32 3.32 0 0 1 3.414-3.225l104.994 2.98a3.32 3.32 0 0 1 3.226 3.415l-1.027 36.19a3.32 3.32 0 0 1-3.415 3.226l-104.994-2.98a3.32 3.32 0 0 1-3.225-3.415z" fill="#e6f0ff" fill-rule="evenodd" stroke="#cad1dd" stroke-width="2.5" stroke-linecap="square"/><path d="M227.804 92.529q.656.02 1.077.29.42.268.613.753.348-.471.811-.714a2 2 0 0 1 1.003-.23q1.068.03 1.592.6.525.569.496 1.545l-.115 4.054-1.619-.046.098-3.455q.024-.819-.206-1.11-.227-.293-.744-.307-.546-.016-.827.35-.279.364-.3 1.081l-.096 3.382-1.618-.046.104-3.681q.016-.593-.197-.883-.215-.293-.743-.308a1 1 0 0 0-.79.34q-.327.351-.344.967l-.1 3.506-1.618-.046.17-5.979 1.523.044-.023.813h.023q.359-.48.818-.707a2.1 2.1 0 0 1 1.012-.213m7.967.385 1.218 4.13.023.001 1.401-4.056 1.674.047-2.697 6.772q-.24.592-.71.9-.471.309-1.206.288a9 9 0 0 1-1.088-.093l.038-1.349q.294.042.483.059t.361.021q.345.01.54-.199a.78.78 0 0 0 .205-.53q.002-.086-.007-.167a1 1 0 0 0-.055-.209l-1.916-5.664zm9.168.26 1.13 4.117h.022l1.356-4.046 1.608.046-2.167 5.922-1.797-.051-1.85-6.036zm8.368 3.294a1 1 0 0 1-.387.168q-.237.052-.857.125-.553.057-.819.268-.263.21-.275.599-.01.356.224.566.232.21.75.224.646.019.985-.316.342-.335.36-.996zm-.871-3.24q1.307.038 1.93.49.627.453.604 1.244l-.091 3.206q-.01.362.026.724.037.363.144.552l-1.641-.046a2.3 2.3 0 0 1-.1-.574q-.35.346-.86.522-.509.174-1.142.156-.912-.026-1.445-.506-.531-.482-.507-1.346.024-.836.548-1.263.525-.43 1.88-.544.944-.063 1.248-.198.305-.136.314-.492.011-.401-.214-.607-.224-.208-.803-.224-.501-.015-.774.196-.273.21-.331.676l-1.619-.046q.094-.98.84-1.467.747-.488 1.993-.452" fill="#575e75" fill-rule="evenodd"/><path d="M253.307 96.468a1 1 0 0 1-.387.168q-.237.052-.857.125-.553.057-.819.268-.263.21-.275.599-.01.356.224.566.232.21.75.224.646.019.985-.316.342-.335.36-.996zm-.871-3.24q1.307.038 1.93.49.627.453.604 1.244l-.091 3.206q-.01.362.026.724.037.363.144.552l-1.641-.046a2.3 2.3 0 0 1-.1-.574q-.35.346-.86.522-.509.174-1.142.156-.912-.026-1.445-.506-.531-.482-.507-1.346.024-.836.548-1.263.525-.43 1.88-.544.944-.063 1.248-.198.305-.136.314-.492.011-.401-.214-.607-.224-.208-.803-.224-.501-.015-.774.196-.273.21-.331.676l-1.619-.046q.094-.98.84-1.467.747-.488 1.993-.452m7.27.206a1.2 1.2 0 0 1 .36.067l-.043 1.524a2.7 2.7 0 0 0-.577-.073q-.817-.022-1.225.474-.406.496-.43 1.35l-.078 2.743-1.613-.046.17-5.978 1.535.043-.032 1.112.023.001a2.1 2.1 0 0 1 .79-.906q.52-.328 1.12-.311m2.725-2.041-.038 1.349-1.619-.046.038-1.35zm-.064 2.275-.17 5.978-1.619-.046.17-5.978z" fill="#575e75" fill-rule="evenodd"/><path d="m262.431 91.394-.038 1.349-1.619-.046.038-1.35zm-.064 2.275-.17 5.978-1.619-.046.17-5.978zm4.852 3.195a1 1 0 0 1-.386.167q-.238.052-.858.125-.552.058-.818.268-.264.21-.275.599-.01.356.223.566.234.21.75.224.647.019.986-.316.342-.336.36-.996zm-.87-3.24q1.307.036 1.93.49.625.452.604 1.243l-.092 3.206q-.01.361.026.724.039.363.144.552l-1.64-.046a2.3 2.3 0 0 1-.1-.574q-.35.346-.86.522-.51.174-1.143.156-.913-.026-1.444-.506-.533-.483-.507-1.346.023-.835.548-1.263.524-.43 1.88-.544.943-.064 1.247-.198.305-.136.315-.492.012-.401-.215-.607-.225-.208-.803-.224-.5-.014-.773.196-.274.21-.331.676l-1.62-.046q.096-.98.84-1.467.748-.488 1.993-.452" fill="#575e75" fill-rule="evenodd"/><path d="M267.219 96.864a1 1 0 0 1-.386.167q-.238.052-.858.125-.552.058-.818.268-.264.21-.275.599-.01.356.223.566.234.21.75.224.647.019.986-.316.342-.336.36-.996zm-.87-3.24q1.307.036 1.93.49.625.452.604 1.243l-.092 3.206q-.01.361.026.724.039.363.144.552l-1.64-.046a2.3 2.3 0 0 1-.1-.574q-.35.346-.86.522-.51.174-1.143.156-.913-.026-1.444-.506-.533-.483-.507-1.346.023-.835.548-1.263.524-.43 1.88-.544.943-.064 1.247-.198.305-.136.315-.492.012-.401-.215-.607-.225-.208-.803-.224-.5-.014-.773.196-.274.21-.331.676l-1.62-.046q.096-.98.84-1.467.748-.488 1.993-.452m6.73 1.428q-.618-.018-1.009.49-.39.505-.414 1.39-.024.859.333 1.394.359.536.992.554.635.018 1.022-.497.387-.514.412-1.372.025-.864-.326-1.401-.348-.54-1.01-.558m-1.218-3.39-.085 3.003h.028q.273-.399.769-.624.495-.226 1.108-.21 1.035.03 1.714.9.68.87.64 2.315-.042 1.434-.77 2.275-.728.84-1.768.81-.712-.02-1.195-.272a1.6 1.6 0 0 1-.71-.708h-.021l-.022.762-1.535-.044.234-8.254z" fill="#575e75" fill-rule="evenodd"/><path d="M273.078 95.052q-.618-.018-1.009.49-.39.505-.414 1.39-.024.859.333 1.394.359.536.992.554.635.018 1.022-.497.387-.514.412-1.372.025-.864-.326-1.401-.348-.54-1.01-.558m-1.218-3.39-.085 3.003h.028q.273-.399.769-.624.495-.226 1.108-.21 1.035.03 1.714.9.68.87.64 2.315-.042 1.434-.77 2.275-.728.84-1.768.81-.712-.02-1.195-.272a1.6 1.6 0 0 1-.71-.708h-.021l-.022.762-1.535-.044.234-8.254zm7.009.198-.234 8.254-1.619-.046.235-8.254zm3.844 3.465q-.59-.016-.945.313-.354.329-.426.92l2.63.074q-.097-.663-.393-.977-.293-.314-.866-.33m.09-1.234q1.309.036 2.062.972.758.933.717 2.35l-.02.304-4.25-.12q.012.774.364 1.157.355.383 1.034.402.44.012.818-.205.38-.219.489-.538l1.424.04q-.357 1.008-1.056 1.489-.698.48-1.76.45-1.365-.04-2.162-.938-.798-.898-.759-2.293.038-1.338.906-2.223.87-.885 2.193-.847" fill="#575e75" fill-rule="evenodd"/><path d="M282.713 95.325q-.59-.016-.945.313-.354.329-.426.92l2.63.074q-.097-.663-.393-.977-.293-.314-.866-.33m.09-1.234q1.309.036 2.062.972.758.933.717 2.35l-.02.304-4.25-.12q.012.774.364 1.157.355.383 1.034.402.44.012.818-.205.38-.219.489-.538l1.424.04q-.357 1.008-1.056 1.489-.698.48-1.76.45-1.365-.04-2.162-.938-.798-.898-.759-2.293.038-1.338.906-2.223.87-.885 2.193-.847" fill="#575e75" fill-rule="evenodd"/><path d="M190.831 109.454a3.544 3.544 0 0 1-3.442-3.643l.637-22.433a3.544 3.544 0 0 1 3.643-3.442l22.433.637a3.544 3.544 0 0 1 3.442 3.643l-.637 22.433a3.544 3.544 0 0 1-3.643 3.442z" fill="#06f" stroke="#cad1dd" stroke-width="2.5"/><path d="m199.582 102.204-2.703-2.861 12.084-11.417 2.702 2.86z" fill="#fff"/><path d="m193.37 95.625 3.136-2.962 5.032 5.327-3.135 2.962z" fill="#fff"/><g fill-rule="evenodd" stroke-linecap="square"><path d="M18.375 86.108h0a3.32 3.32 0 0 1 2.931-3.67l69.63-7.797a3.32 3.32 0 0 1 3.67 2.931l3.803 33.969a3.32 3.32 0 0 1-2.93 3.67l-69.63 7.796a3.32 3.32 0 0 1-3.67-2.93z" fill-opacity=".129" stroke-opacity=".129" stroke="#000" stroke-width="7.5"/><path d="M18.389 86.106h0a3.32 3.32 0 0 1 2.931-3.67l69.602-7.794a3.32 3.32 0 0 1 3.67 2.932l3.804 33.968a3.32 3.32 0 0 1-2.932 3.67l-69.601 7.794a3.32 3.32 0 0 1-3.67-2.932z" fill="#e6f0ff" stroke="#cad1dd" stroke-width="2.5"/><path d="M30.699 88.262q.653-.073 1.108.136.454.206.712.66.279-.513.703-.819a2 2 0 0 1 .962-.367q1.061-.12 1.66.371.597.49.706 1.461l.452 4.03-1.61.18-.384-3.435q-.09-.813-.36-1.07-.265-.258-.78-.2-.54.06-.77.46-.225.402-.145 1.114l.376 3.362-1.61.18-.409-3.66q-.066-.588-.319-.846-.253-.26-.778-.201a1 1 0 0 0-.734.446q-.275.394-.207 1.006l.39 3.486-1.609.18-.665-5.944 1.515-.17.09.809.023-.003a2.3 2.3 0 0 1 .711-.815q.424-.29.972-.351m7.943-.73 1.783 3.92.022-.002.822-4.212 1.665-.187-1.727 7.082q-.155.62-.578.99-.423.373-1.153.454a9 9 0 0 1-1.091.06l-.15-1.342q.297 0 .486-.01.189-.009.36-.028.344-.039.508-.273a.78.78 0 0 0 .128-.554.9.9 0 0 0-.113-.362l-2.687-5.343zm9.115-1.021 1.693 3.92.022-.003.779-4.196 1.598-.179-1.32 6.166-1.786.2L46.07 86.7zm8.746 2.096a1 1 0 0 1-.36.22q-.228.084-.831.243-.54.135-.774.38-.231.244-.188.63.039.355.3.53.26.175.774.118.642-.072.932-.451.291-.38.218-1.036zm-1.314-3.087q1.299-.146 1.98.216.683.36.77 1.147l.357 3.188q.041.36.127.713.088.354.22.527l-1.632.183a2.3 2.3 0 0 1-.18-.554q-.297.39-.778.636-.478.243-1.109.314-.907.101-1.5-.3-.595-.404-.69-1.262-.094-.83.366-1.327.46-.5 1.786-.801.926-.195 1.208-.37.282-.177.243-.531-.045-.399-.298-.571-.25-.175-.826-.11-.498.056-.739.302-.241.245-.233.716l-1.61.18q-.043-.985.627-1.57.672-.587 1.91-.726" fill="#575e75"/><path d="M56.503 88.607a1 1 0 0 1-.36.22q-.228.084-.831.243-.54.135-.774.38-.231.244-.188.63.039.355.3.53.26.175.774.118.642-.072.932-.451.291-.38.218-1.036zm-1.314-3.087q1.299-.146 1.98.216.683.36.77 1.147l.357 3.188q.041.36.127.713.088.354.22.527l-1.632.183a2.3 2.3 0 0 1-.18-.554q-.297.39-.778.636-.478.243-1.109.314-.907.101-1.5-.3-.595-.404-.69-1.262-.094-.83.366-1.327.46-.5 1.786-.801.926-.195 1.208-.37.282-.177.243-.531-.045-.399-.298-.571-.25-.175-.826-.11-.498.056-.739.302-.241.245-.233.716l-1.61.18q-.043-.985.627-1.57.672-.587 1.91-.726m7.229-.809a1.2 1.2 0 0 1 .366.016l.17 1.515a2.7 2.7 0 0 0-.582.008q-.813.091-1.147.64-.333.549-.238 1.396l.306 2.728-1.604.18-.666-5.944 1.527-.171.123 1.106.023-.003a2.1 2.1 0 0 1 .656-1.007q.469-.398 1.066-.464m2.413-2.402.15 1.342-1.609.18-.15-1.341zm.254 2.262.665 5.944-1.61.18-.665-5.944z" fill="#575e75"/><path d="m64.83 82.309.15 1.342-1.609.18-.15-1.341zm.254 2.262.665 5.944-1.61.18-.665-5.944zm5.251 2.487a1 1 0 0 1-.36.22q-.228.084-.832.243-.54.135-.773.38-.231.244-.188.631.039.353.3.53.26.174.774.117.642-.072.932-.45.291-.381.218-1.037zm-1.315-3.087q1.3-.146 1.98.216.684.361.771 1.147l.357 3.188q.041.36.127.713.088.354.22.527l-1.632.183a2.3 2.3 0 0 1-.18-.554q-.298.39-.778.636-.479.243-1.109.314-.907.102-1.5-.3-.595-.404-.69-1.262-.094-.83.366-1.327.459-.5 1.786-.8.925-.195 1.207-.37.284-.179.243-.532-.044-.399-.297-.57-.251-.175-.826-.111-.498.056-.739.302-.241.245-.233.716l-1.61.18q-.043-.985.627-1.57.672-.586 1.91-.726" fill="#575e75"/><path d="M70.335 87.058a1 1 0 0 1-.36.22q-.228.084-.832.243-.54.135-.773.38-.231.244-.188.631.039.353.3.53.26.174.774.117.642-.072.932-.45.291-.381.218-1.037zm-1.315-3.087q1.3-.146 1.98.216.684.361.771 1.147l.357 3.188q.041.36.127.713.088.354.22.527l-1.632.183a2.3 2.3 0 0 1-.18-.554q-.298.39-.778.636-.479.243-1.109.314-.907.102-1.5-.3-.595-.404-.69-1.262-.094-.83.366-1.327.459-.5 1.786-.8.925-.195 1.207-.37.284-.179.243-.532-.044-.399-.297-.57-.251-.175-.826-.111-.498.056-.739.302-.241.245-.233.716l-1.61.18q-.043-.985.627-1.57.672-.586 1.91-.726m6.863.477q-.615.068-.93.625-.315.555-.217 1.435.096.853.525 1.334.429.48 1.06.41.63-.071.942-.634t.217-1.417q-.097-.859-.518-1.342-.42-.484-1.079-.412m-1.678-3.188.334 2.986.028-.003q.215-.434.674-.726a2.46 2.46 0 0 1 1.069-.362q1.028-.116 1.822.652.794.766.956 2.203.16 1.425-.445 2.36-.603.934-1.638 1.05-.708.078-1.22-.104a1.6 1.6 0 0 1-.802-.602l-.022.002.085.758-1.526.171-.92-8.206z" fill="#575e75"/><path d="M75.883 84.448q-.615.068-.93.625-.315.555-.217 1.435.096.853.525 1.334.429.48 1.06.41.63-.071.942-.634t.217-1.417q-.097-.859-.518-1.342-.42-.484-1.079-.412m-1.678-3.188.334 2.986.028-.003q.215-.434.674-.726a2.46 2.46 0 0 1 1.069-.362q1.028-.116 1.822.652.794.766.956 2.203.16 1.425-.445 2.36-.603.934-1.638 1.05-.708.078-1.22-.104a1.6 1.6 0 0 1-.802-.602l-.022.002.085.758-1.526.171-.92-8.206zm6.968-.78.919 8.206-1.61.18-.918-8.205zm4.289 2.895q-.586.067-.891.442t-.295.97l2.616-.292q-.19-.645-.526-.913-.334-.27-.904-.206m-.082-1.234q1.3-.146 2.177.675.88.818 1.037 2.227l.023.304-4.225.473q.12.765.522 1.095.405.33 1.08.255a1.53 1.53 0 0 0 .781-.317q.345-.27.41-.601l1.415-.158q-.213 1.046-.838 1.62-.625.572-1.68.69-1.356.153-2.272-.626t-1.07-2.165q-.15-1.33.586-2.327.737-.998 2.054-1.145" fill="#575e75"/><path d="M85.462 83.374q-.586.067-.891.442t-.295.97l2.616-.292q-.19-.645-.526-.913-.334-.27-.904-.206m-.082-1.234q1.3-.146 2.177.675.88.818 1.037 2.227l.023.304-4.225.473q.12.765.522 1.095.405.33 1.08.255a1.53 1.53 0 0 0 .781-.317q.345-.27.41-.601l1.415-.158q-.213 1.046-.838 1.62-.625.572-1.68.69-1.356.153-2.272-.626t-1.07-2.165q-.15-1.33.586-2.327.737-.998 2.054-1.145" fill="#575e75"/><path d="M25.406 104.741a5.4 5.4 0 0 1 4.766-5.968l55.73-6.24a5.4 5.4 0 0 1 5.969 4.766l.897 8.011a5.4 5.4 0 0 1-4.766 5.968l-55.731 6.24a5.4 5.4 0 0 1-5.968-4.766z" fill="#ff5800"/></g><path d="M90.351 118.171c0-6.399 5.916-12.995 13.12-12.995h272.61c8.613 0 13.568 4.644 13.568 12.246v125.705c0 6.04-4.86 11.697-13.32 11.697H103.72c-7.328 0-13.369-4.523-13.369-11.947z" fill="none" stroke="url(#a)" stroke-width="10" transform="translate(-85.351 -100.176)"/><g fill-rule="evenodd"><path d="M161.747 40.127h0a3.32 3.32 0 0 1 3.024-3.594l118.141-10.172a3.32 3.32 0 0 1 3.594 3.025l1.045 12.135a3.32 3.32 0 0 1-3.024 3.595l-118.141 10.17a3.32 3.32 0 0 1-3.594-3.024z" fill-opacity=".129" stroke-opacity=".129" stroke="#000" stroke-width="7.5" stroke-linecap="square"/><path d="M161.761 40.125h0a3.32 3.32 0 0 1 3.024-3.594l118.114-10.167a3.32 3.32 0 0 1 3.594 3.024l1.045 12.136a3.32 3.32 0 0 1-3.024 3.594L166.399 55.286a3.32 3.32 0 0 1-3.594-3.025z" fill="#e6f0ff" stroke="#cad1dd" stroke-width="2.5" stroke-linecap="square"/><path d="M174.012 42.596q.654-.056 1.103.164.45.219.696.68.29-.508.724-.802a2 2 0 0 1 .97-.343q1.065-.09 1.65.414.585.505.67 1.479l.347 4.04-1.614.139-.296-3.444q-.07-.816-.331-1.079-.26-.264-.775-.22-.543.046-.781.441-.237.395-.175 1.11l.29 3.37-1.613.139-.316-3.67q-.051-.59-.297-.854-.246-.266-.773-.22a1 1 0 0 0-.745.426q-.285.388-.233 1l.301 3.495-1.613.14-.513-5.96 1.519-.13.07.81.022-.002a2.3 2.3 0 0 1 .732-.796q.432-.28.981-.327m7.959-.526 1.682 3.965.022-.002.93-4.19 1.669-.144-1.908 7.035q-.171.615-.603.976-.433.36-1.165.423a9 9 0 0 1-1.092.032l-.116-1.345q.297.009.487.004.189-.006.36-.02.345-.03.515-.26a.78.78 0 0 0 .142-.55.9.9 0 0 0-.104-.365l-2.549-5.41zm9.138-.787 1.592 3.961.022-.002.886-4.174 1.602-.138-1.477 6.13-1.791.154-2.526-5.785zm8.69 2.319a1 1 0 0 1-.366.21q-.23.08-.838.222-.542.12-.782.36-.239.238-.205.626.03.356.286.537t.772.138q.643-.056.942-.427.302-.373.245-1.03zm-1.236-3.12q1.303-.111 1.975.267t.74 1.166l.276 3.196q.03.36.108.717.079.355.206.532l-1.636.14a2.3 2.3 0 0 1-.165-.558q-.308.384-.794.617a3.2 3.2 0 0 1-1.117.285q-.91.078-1.493-.338-.584-.42-.657-1.28-.072-.833.4-1.317.472-.487 1.807-.755.928-.171 1.216-.339.287-.17.256-.524-.035-.4-.282-.579-.247-.18-.823-.131-.5.042-.747.283-.248.24-.251.71l-1.614.139q-.018-.986.667-1.554.687-.57 1.928-.677" fill="#575e75"/><path d="M199.799 43.602a1 1 0 0 1-.366.21q-.23.08-.838.222-.542.12-.782.36-.239.238-.205.626.03.356.286.537t.772.138q.643-.056.942-.427.302-.373.245-1.03zm-1.236-3.12q1.303-.111 1.975.267t.74 1.166l.276 3.196q.03.36.108.717.079.355.206.532l-1.636.14a2.3 2.3 0 0 1-.165-.558q-.308.384-.794.617a3.2 3.2 0 0 1-1.117.285q-.91.078-1.493-.338-.584-.42-.657-1.28-.072-.833.4-1.317.472-.487 1.807-.755.928-.171 1.216-.339.287-.17.256-.524-.035-.4-.282-.579-.247-.18-.823-.131-.5.042-.747.283-.248.24-.251.71l-1.614.139q-.018-.986.667-1.554.687-.57 1.928-.677m7.247-.623a1.2 1.2 0 0 1 .365.025l.131 1.52a2.7 2.7 0 0 0-.581-.008q-.815.07-1.164.61-.346.54-.273 1.39l.236 2.735-1.608.139-.513-5.96 1.53-.131.095 1.108.023-.002a2.1 2.1 0 0 1 .681-.99q.48-.385 1.078-.436m2.474-2.339.116 1.345-1.613.138-.116-1.344zm.196 2.267.513 5.96-1.614.138-.513-5.959z" fill="#575e75"/><path d="m208.284 37.52.116 1.345-1.613.138-.116-1.344zm.196 2.267.513 5.96-1.614.138-.513-5.959zm5.185 2.621a1 1 0 0 1-.365.21q-.23.08-.838.222-.542.12-.782.36-.239.239-.205.626.03.356.286.537.255.181.772.138.643-.056.942-.427.302-.373.245-1.03zm-1.235-3.12q1.303-.111 1.975.267t.74 1.166l.276 3.197q.03.36.108.716.079.355.206.532l-1.636.14a2.3 2.3 0 0 1-.165-.558q-.308.384-.794.617a3.2 3.2 0 0 1-1.117.285q-.91.078-1.493-.338-.584-.42-.657-1.28-.072-.832.4-1.317.473-.487 1.806-.755.93-.17 1.217-.339.287-.17.256-.524-.034-.4-.282-.579-.247-.18-.823-.131-.5.042-.747.283-.248.24-.251.71l-1.614.139q-.018-.986.667-1.554.687-.57 1.928-.676" fill="#575e75"/><path d="M213.665 42.408a1 1 0 0 1-.365.21q-.23.08-.838.222-.542.12-.782.36-.239.239-.205.626.03.356.286.537.255.181.772.138.643-.056.942-.427.302-.373.245-1.03zm-1.235-3.12q1.303-.111 1.975.267t.74 1.166l.276 3.197q.03.36.108.716.079.355.206.532l-1.636.14a2.3 2.3 0 0 1-.165-.558q-.308.384-.794.617a3.2 3.2 0 0 1-1.117.285q-.91.078-1.493-.338-.584-.42-.657-1.28-.072-.832.4-1.317.473-.487 1.806-.755.93-.17 1.217-.339.287-.17.256-.524-.034-.4-.282-.579-.247-.18-.823-.131-.5.042-.747.283-.248.24-.251.71l-1.614.139q-.018-.986.667-1.554.687-.57 1.928-.676m6.849.651q-.615.054-.947.601-.328.547-.253 1.43.075.856.49 1.347.417.49 1.05.437.63-.055.958-.61.326-.555.253-1.41-.075-.862-.484-1.356-.407-.495-1.067-.439m-1.597-3.23.258 2.994.028-.002q.225-.427.693-.708.466-.282 1.077-.335 1.032-.089 1.805.7.775.785.899 2.225.123 1.43-.505 2.349-.627.917-1.664 1.007-.71.06-1.218-.136-.508-.198-.785-.622l-.022.002.065.76-1.53.132-.709-8.227z" fill="#575e75"/><path d="M219.279 39.94q-.615.054-.947.601-.328.547-.253 1.43.075.856.49 1.347.417.49 1.05.437.63-.055.958-.61.326-.555.253-1.41-.075-.862-.484-1.356-.407-.495-1.067-.439m-1.597-3.23.258 2.994.028-.002q.225-.427.693-.708.466-.282 1.077-.335 1.032-.089 1.805.7.775.785.899 2.225.123 1.43-.505 2.349-.627.917-1.664 1.007-.71.06-1.218-.136-.508-.198-.785-.622l-.022.002.065.76-1.53.132-.709-8.227zm6.987-.601.708 8.227-1.614.139-.708-8.227zm4.213 3.005q-.588.05-.903.417-.315.368-.319.963l2.623-.226q-.173-.648-.503-.926-.327-.277-.898-.228m-.05-1.237q1.302-.113 2.159.73.858.84.98 2.253l.014.305-4.236.365q.1.768.494 1.108.396.34 1.073.282a1.53 1.53 0 0 0 .79-.297q.351-.26.424-.59l1.419-.122q-.24 1.041-.879 1.598-.639.555-1.698.647-1.359.117-2.254-.684-.896-.802-1.016-2.192-.114-1.334.647-2.311.762-.98 2.082-1.092" fill="#575e75"/><path d="M228.882 39.114q-.588.05-.903.417-.315.368-.319.963l2.623-.226q-.173-.648-.503-.926-.327-.277-.898-.228m-.05-1.237q1.302-.113 2.159.73.858.84.98 2.253l.014.305-4.236.365q.1.768.494 1.108.396.34 1.073.282a1.53 1.53 0 0 0 .79-.297q.351-.26.424-.59l1.419-.122q-.24 1.041-.879 1.598-.639.555-1.698.647-1.359.117-2.254-.684-.896-.802-1.016-2.192-.114-1.334.647-2.311.762-.98 2.082-1.092" fill="#575e75"/><path d="M241.581 36.386a3.543 3.543 0 0 1 3.226-3.834l30.336-2.611a3.543 3.543 0 0 1 3.834 3.226l.454 5.269a3.543 3.543 0 0 1-3.226 3.834l-30.336 2.611a3.543 3.543 0 0 1-3.834-3.226z" fill="#ff9400"/><path d="M256.601 33.573a.6.6 0 0 1 .375.76 8.4 8.4 0 0 0-.407 3.41 8.4 8.4 0 0 0 .984 3.289.6.6 0 0 1-1.054.573 9.6 9.6 0 0 1-1.126-3.76 9.6 9.6 0 0 1 .467-3.896.6.6 0 0 1 .761-.376zm5.172 1.914a1.8 1.8 0 0 0-1.342.794l-.176.262-.08-.161a1.2 1.2 0 0 0-1.175-.656l-.193.016a.6.6 0 0 0 .103 1.197l.193-.017.387.768-.553.828a.6.6 0 0 1-.448.264l-.023.002a.6.6 0 1 0 .103 1.196l.023-.002a1.8 1.8 0 0 0 1.343-.794l.175-.262.081.161a1.2 1.2 0 0 0 1.175.657l.194-.017a.6.6 0 1 0-.103-1.196l-.194.016-.386-.768.552-.827a.6.6 0 0 1 .448-.265l.023-.002a.6.6 0 1 0-.103-1.196zm.987-1.652a.6.6 0 0 1 1.055-.572 9.6 9.6 0 0 1 1.127 3.759 9.6 9.6 0 0 1-.467 3.896.6.6 0 1 1-1.137-.384 8.4 8.4 0 0 0 .408-3.41 8.4 8.4 0 0 0-.985-3.289z" fill="#fff" stroke="#fff" stroke-width=".5"/></g><path d="M29.327 22.507h0a3.32 3.32 0 0 1 3.515-3.115l114.855 6.939a3.32 3.32 0 0 1 3.115 3.515l-2.061 34.119a3.32 3.32 0 0 1-3.516 3.115L30.38 60.141a3.32 3.32 0 0 1-3.115-3.516z" fill-opacity=".129" fill-rule="evenodd" stroke-opacity=".129" stroke="#000" stroke-width="7.5" stroke-linecap="square"/><path d="M29.34 22.508h0a3.32 3.32 0 0 1 3.516-3.115l114.827 6.937a3.32 3.32 0 0 1 3.115 3.516l-2.061 34.118a3.32 3.32 0 0 1-3.516 3.115L30.394 60.142a3.32 3.32 0 0 1-3.115-3.516z" fill="#e6f0ff" fill-rule="evenodd" stroke="#cad1dd" stroke-width="2.5" stroke-linecap="square"/><path d="M41.101 26.737q.656.04 1.067.323.413.281.59.773.361-.459.832-.687a2 2 0 0 1 1.01-.198q1.067.065 1.572.65t.447 1.56l-.245 4.048-1.616-.098.208-3.45q.05-.818-.17-1.115-.218-.3-.735-.331-.544-.033-.837.322-.29.357-.334 1.072l-.204 3.377-1.617-.098.222-3.675q.036-.592-.169-.89-.204-.298-.733-.33a1 1 0 0 0-.799.314q-.338.34-.376.956l-.211 3.5-1.617-.097.361-5.97 1.522.092-.049.812h.022q.375-.469.84-.68a2.1 2.1 0 0 1 1.019-.18m7.95.639 1.087 4.168h.022l1.53-4.009 1.672.101-2.912 6.682q-.259.585-.74.877-.48.294-1.213.25a9 9 0 0 1-1.085-.128l.081-1.347q.293.051.481.074t.36.033q.345.02.547-.182a.78.78 0 0 0 .22-.524.9.9 0 0 0-.05-.376l-1.733-5.724zm9.155.553.998 4.15.022.002 1.485-4 1.606.096-2.355 5.85-1.794-.109-1.656-6.092zm8.259 3.56a1 1 0 0 1-.392.155q-.239.045-.86.097-.555.04-.827.243-.27.2-.294.59-.022.354.205.572t.743.248q.644.039.995-.285.352-.324.392-.983zm-.767-3.266q1.305.079 1.914.551.612.473.563 1.262l-.193 3.202q-.023.36.003.725.026.363.126.556l-1.639-.099a2.3 2.3 0 0 1-.082-.576q-.36.335-.875.494a3.2 3.2 0 0 1-1.147.12q-.91-.057-1.427-.553-.517-.499-.464-1.361.05-.835.588-1.245.537-.414 1.897-.484.945-.033 1.252-.158.309-.126.33-.482.025-.4-.195-.613-.218-.215-.795-.25-.5-.03-.78.172-.279.2-.352.665l-1.616-.098q.126-.977.886-1.44.762-.463 2.006-.388" fill="#575e75" fill-rule="evenodd"/><path d="M66.465 31.489a1 1 0 0 1-.392.155q-.239.045-.86.097-.555.04-.827.243-.27.2-.294.59-.022.354.205.572t.743.248q.644.039.995-.285.352-.324.392-.983zm-.767-3.266q1.305.079 1.914.551.612.473.563 1.262l-.193 3.202q-.023.36.003.725.026.363.126.556l-1.639-.099a2.3 2.3 0 0 1-.082-.576q-.36.335-.875.494a3.2 3.2 0 0 1-1.147.12q-.91-.057-1.427-.553-.517-.499-.464-1.361.05-.835.588-1.245.537-.414 1.897-.484.945-.033 1.252-.158.309-.126.33-.482.025-.4-.195-.613-.218-.215-.795-.25-.5-.03-.78.172-.279.2-.352.665l-1.616-.098q.126-.977.886-1.44.762-.463 2.006-.388m7.261.439a1.2 1.2 0 0 1 .357.078l-.092 1.522a2.7 2.7 0 0 0-.574-.091q-.817-.05-1.24.434-.42.484-.473 1.335l-.165 2.74-1.611-.097.36-5.97 1.534.092-.067 1.11.022.002a2.1 2.1 0 0 1 .819-.88q.53-.312 1.13-.275m2.788-1.954-.081 1.348-1.617-.098.081-1.347zm-.137 2.272-.361 5.97-1.616-.097.36-5.97z" fill="#575e75" fill-rule="evenodd"/><path d="m75.747 26.708-.081 1.348-1.617-.098.081-1.347zm-.137 2.272-.361 5.97-1.616-.097.36-5.97zm4.749 3.348a1 1 0 0 1-.393.156q-.24.044-.86.097-.555.04-.827.242-.27.2-.294.59-.022.354.205.572t.743.249q.644.038.995-.285.352-.324.392-.984zm-.768-3.266q1.305.08 1.914.552.612.472.563 1.262l-.193 3.202q-.022.36.003.724.026.364.126.557l-1.639-.1a2.3 2.3 0 0 1-.082-.576q-.36.335-.876.494a3.2 3.2 0 0 1-1.146.12q-.91-.055-1.427-.553t-.464-1.361q.05-.834.588-1.245t1.897-.483q.945-.034 1.252-.159.309-.127.33-.481.025-.4-.195-.614-.218-.214-.795-.25-.5-.03-.78.172-.28.2-.352.665l-1.616-.097q.125-.978.886-1.44.761-.464 2.006-.389" fill="#575e75" fill-rule="evenodd"/><path d="M80.359 32.328a1 1 0 0 1-.393.156q-.24.044-.86.097-.555.04-.827.242-.27.2-.294.59-.022.354.205.572t.743.249q.644.038.995-.285.352-.324.392-.984zm-.768-3.266q1.305.08 1.914.552.612.472.563 1.262l-.193 3.202q-.022.36.003.724.026.364.126.557l-1.639-.1a2.3 2.3 0 0 1-.082-.576q-.36.335-.876.494a3.2 3.2 0 0 1-1.146.12q-.91-.055-1.427-.553t-.464-1.361q.05-.834.588-1.245t1.897-.483q.945-.034 1.252-.159.309-.127.33-.481.025-.4-.195-.614-.218-.214-.795-.25-.5-.03-.78.172-.28.2-.352.665l-1.616-.097q.125-.978.886-1.44.761-.464 2.006-.389m6.68 1.643q-.616-.037-1.023.457-.405.492-.459 1.377-.052.858.289 1.404.34.548.973.585.634.039 1.038-.464.403-.501.455-1.358.052-.862-.28-1.411-.331-.55-.993-.59m-1.108-3.428-.182 3 .028.001q.286-.39.79-.6.502-.21 1.114-.173 1.033.062 1.683.954.653.89.565 2.333-.086 1.433-.842 2.25-.754.817-1.792.754-.711-.043-1.186-.311a1.6 1.6 0 0 1-.686-.73l-.022-.001-.046.76-1.533-.092.498-8.242z" fill="#575e75" fill-rule="evenodd"/><path d="M86.271 30.705q-.616-.037-1.023.457-.405.492-.459 1.377-.052.858.289 1.404.34.548.973.585.634.039 1.038-.464.403-.501.455-1.358.052-.862-.28-1.411-.331-.55-.993-.59m-1.108-3.428-.182 3 .028.001q.286-.39.79-.6.502-.21 1.114-.173 1.033.062 1.683.954.653.89.565 2.333-.086 1.433-.842 2.25-.754.817-1.792.754-.711-.043-1.186-.311a1.6 1.6 0 0 1-.686-.73l-.022-.001-.046.76-1.533-.092.498-8.242zm6.999.423-.498 8.242-1.617-.098.498-8.242zm3.731 3.586q-.59-.035-.954.282-.365.318-.456.906l2.627.159q-.077-.666-.362-.99-.284-.323-.855-.357m.13-1.23q1.305.078 2.03 1.036.726.957.64 2.372l-.029.304-4.244-.256q-.013.774.327 1.168.342.394 1.02.435a1.53 1.53 0 0 0 .825-.178q.386-.207.505-.522l1.422.085q-.388.995-1.102 1.454-.714.456-1.774.393-1.362-.082-2.13-1.006-.77-.924-.686-2.316.082-1.336.976-2.193.897-.857 2.22-.777" fill="#575e75" fill-rule="evenodd"/><path d="M95.893 31.286q-.59-.035-.954.282-.365.318-.456.906l2.627.159q-.077-.666-.362-.99-.284-.323-.855-.357m.13-1.23q1.305.078 2.03 1.036.726.957.64 2.372l-.029.304-4.244-.256q-.013.774.327 1.168.342.394 1.02.435a1.53 1.53 0 0 0 .825-.178q.386-.207.505-.522l1.422.085q-.388.995-1.102 1.454-.714.456-1.774.393-1.362-.082-2.13-1.006-.77-.924-.686-2.316.082-1.336.976-2.193.897-.857 2.22-.777" fill="#575e75" fill-rule="evenodd"/><path d="M33.067 42.068a5.4 5.4 0 0 1 5.717-5.065l100.396 6.065a5.4 5.4 0 0 1 5.065 5.717l-.486 8.047a5.4 5.4 0 0 1-5.717 5.065L37.646 55.831a5.4 5.4 0 0 1-5.065-5.716z" fill="#fff" fill-rule="evenodd"/><path d="m39.552 49.65.086.863a3.5 3.5 0 0 1-.725.042q-.518-.031-.794-.215a.93.93 0 0 1-.376-.462q-.1-.279-.047-1.15l.198-3.282-.698-.043.045-.752.699.042.085-1.413.982-.523-.12 1.994.958.058-.046.752-.958-.058-.201 3.337q-.025.414.018.535.044.12.152.198.11.075.322.09.159.01.42-.013zm4.836-.684.976.183q-.285.862-.944 1.307-.66.446-1.638.387-1.233-.075-1.909-.89-.676-.814-.592-2.206.087-1.44.866-2.19.777-.753 1.942-.682 1.128.069 1.795.89.667.823.582 2.236-.005.085-.021.258l-4.191-.254q-.004.945.436 1.472.441.529 1.145.57.524.033.911-.224t.642-.857zm-3.033-1.753 3.138.19q-.02-.723-.295-1.102-.42-.585-1.146-.63-.656-.04-1.13.38-.475.418-.567 1.162zm4.467 3.684 2.233-2.842-1.734-2.855 1.19.072.782 1.39q.22.396.353.663.255-.34.466-.603l1.03-1.291 1.137.068-2.105 2.57 1.908 3.146-1.17-.07-1.046-1.844-.278-.497-1.612 2.163zm8.185-.374.086.863a3.5 3.5 0 0 1-.725.042q-.519-.03-.794-.215a.93.93 0 0 1-.376-.462q-.1-.278-.047-1.149l.198-3.283-.698-.042.045-.752.698.042.086-1.413.982-.523-.12 1.993.957.058-.045.752-.958-.058-.201 3.337q-.025.414.018.535.044.121.152.198.11.076.322.09.158.01.42-.013zm4.304-5.661.068-1.112.952.057-.067 1.112zm-.408 6.765.345-5.706.952.057-.345 5.707zm2.401.145.345-5.706.857.051-.049.812q.675-.903 1.846-.833.507.031.922.242.415.212.609.525.193.314.253.733.036.27-.004.943l-.212 3.509-.953-.058.21-3.47q.036-.593-.058-.891a.93.93 0 0 0-.366-.492q-.273-.192-.653-.214a1.53 1.53 0 0 0-1.074.328q-.465.366-.532 1.462l-.188 3.117zm5.894 2.551.477-7.893.868.052-.045.742q.333-.417.732-.611.4-.195.95-.161.72.044 1.248.452.527.41.766 1.112.24.702.19 1.519a3.9 3.9 0 0 1-.405 1.558 2.36 2.36 0 0 1-2.228 1.319 1.8 1.8 0 0 1-.842-.256 2 2 0 0 1-.59-.553l-.169 2.778zm1.165-4.956q-.065 1.102.34 1.655.408.554 1.033.59.635.04 1.12-.479.486-.518.555-1.662.066-1.092-.343-1.66-.41-.57-1.023-.607-.61-.038-1.112.513-.504.549-.57 1.65zm8.678 3.356.05-.838q-.714.927-1.841.86a2.25 2.25 0 0 1-.917-.25q-.42-.22-.611-.525a1.8 1.8 0 0 1-.25-.735q-.042-.29-.004-.907l.214-3.535.952.057-.191 3.165q-.046.758-.004 1.025.067.386.345.622.277.234.707.26.428.027.817-.174.39-.2.569-.575.18-.375.223-1.105l.185-3.058.953.058-.345 5.706zm4.475-.598.086.863a3.5 3.5 0 0 1-.725.042q-.519-.03-.794-.215a.93.93 0 0 1-.376-.462q-.1-.279-.047-1.149l.198-3.283-.699-.042.046-.753.698.043.086-1.414.982-.523-.12 1.994.957.058-.045.752-.958-.058-.201 3.337q-.025.414.018.535.043.12.152.198.11.076.322.09.158.01.42-.013zm1.149.938.066-1.102 1.085.066-.066 1.101zm3.011.182.067-1.102 1.085.066-.067 1.101zm3.011.182.067-1.102 1.084.066-.066 1.101z" fill="#575e75" stroke="#575e75" stroke-width=".5"/><path d="M27.259 115.231q0-.152 1.305-.287t2.142-.134q3.324 0 3.476.866l1.78 9.111c.318 1.628 1.252 1.594 1.554-.047l1.67-9.064q.181-.866 3.716-.866.867 0 2.183.122 1.323.117 1.323.264l-5.302 19.839q-.123.48-1.768.626-2.55.27-4.635.106-2.077-.165-2.2-.586zm21.666 9.703q-.837-1.498-.837-2.44 0-.943.51-1.212 1.702-.75 4.68-.749 2.985 0 4.215 1.393 1.229 1.392 1.229 4.12v4.734h1.018q.51 0 .796.603.286.597.287 1.645 0 1.047-.527 2.066-.526 1.017-1.422 1.018-1.621 0-2.61-.866a2.5 2.5 0 0 1-.685-.872q-1.38 1.737-4.29 1.738-2.183 0-3.68-1.557-1.5-1.557-1.5-3.687 0-4.88 5.841-4.88h1.65v-.305q0-.778-.257-1-.25-.223-1.182-.223-1.141 0-3.236.474zm2.4 5.519q0 .655.356 1 .358.346.913.346t1.007-.45v-2.307h-.843q-1.434 0-1.434 1.41zm17.767 5.331q0 .21-2.727.21-2.727-.063-2.727-.24l-.808-9.948q-.48 0-.767-.585-.286-.585-.286-1.452 0-3.236 1.92-3.236 1.346 0 2.246.825c.601.546 1.883.4 2.593-.088q1.065-.737 2.171-.737 1.739 0 2.101.895.088.24.088.709 0 .462-.287 1.662-.28 1.2-.585 1.738-.298.538-.357.538t-.556-.222q-.492-.228-.884-.228-1.135 0-1.135 1.796zm10.783-.152q0 .24-2.745.24-2.739 0-2.739-.21v-14.713q0-.205 2.74-.205 2.744 0 2.744.175zm0-16.48q0 .21-2.745.21-2.739 0-2.739-.18v-4.314q0-.298 2.74-.298 2.744 0 2.744.181zm4.587 5.782q-.837-1.498-.837-2.44 0-.943.509-1.212 1.703-.75 4.682-.749 2.985 0 4.213 1.393 1.23 1.392 1.23 4.12v4.734h1.018q.509 0 .796.603.285.597.286 1.645 0 1.047-.526 2.066-.528 1.017-1.422 1.018-1.621 0-2.61-.866a2.5 2.5 0 0 1-.685-.872q-1.381 1.737-4.29 1.738-2.182 0-3.681-1.557-1.498-1.557-1.498-3.687 0-4.88 5.84-4.88h1.65v-.305q0-.778-.257-1-.252-.223-1.182-.223-1.141 0-3.236.474zm2.4 5.519q0 .655.356 1 .357.346.913.346.555 0 1.007-.45v-2.307h-.843q-1.434 0-1.434 1.41zm11.353-15.526q0-.357 2.592-.357t2.593.386v5.817q1.287-.24 1.826-.24 6.29 0 6.29 7.222 0 4.014-1.93 6.186-1.932 2.17-5.484 2.17t-5.887-1.585zm6.174 10.282q-.51 0-.99.328v5.723q.416.176.879.176.468 0 .948-.357c.558-.398 5.836-.771 5.836-2.23 0-2.056-5.557-3.64-6.673-3.64zm14.709 10.364q0 .27-3.055.27-2.4-.03-2.4-.24v-20.407q0-.445 2.91-.445 2.544.088 2.545.299zm14.026-.567q-1.89 1.106-4.858 1.106t-5.003-2.02q-2.037-2.024-2.037-5.606t1.96-5.764q1.967-2.19 4.963-2.189t4.63 1.528q1.632 1.527 1.632 3.716 0 4.851-5.571 4.851h-2.072q0 .902.492 1.247.497.345 1.457.345 2.101 0 3.985-.96.03-.029.27.416.72 1.293.72 2.177 0 .883-.568 1.153zm-3.746-8.662q0-1.257-1.229-1.258-.567 0-.977.345-.405.345-.404 1.001v.93h1.621q.99 0 .99-1.018zm7.61 4.074q2.43 1.468 3.833 1.468.902 0 .902-.626 0-.45-1.557-1.17-3.746-1.527-3.746-5.004 0-2.218 1.616-3.382 1.62-1.17 3.88-1.17 2.264 0 3.833.479 1.575.48 1.574 1.258 0 .656-.644 1.738-.643 1.077-.883 1.165a5.65 5.65 0 0 0-2.786-.714q-.808 0-.808.568 0 .357.31.614.317.252 1.153.626.844.375 1.393.68.555.297 1.247.836 1.44 1.135 1.44 2.967 0 2.394-1.592 3.88-1.586 1.48-4.793 1.48-2.125 0-3.863-.719-1.738-.72-1.738-1.978 0-.837.404-1.762.404-.93.825-1.234zm28.375-7.251q.568 0 .568 2.1 0 .627-.135 1.481t-.491.855h-3.804v2.996h5.512q.51 0 .685 1.317.094.573.094 1.217t-.182 1.662q-.18 1.018-.597 1.018h-10.247q-1.14 0-1.141-.93v-19.266q0-.778.69-.778h10.728q.626 0 .626 2.65 0 2.652-.626 2.652h-5.542v3.026zm13.87-2.248q.124-.24 1.5-.24 4.493 0 4.377.334l-3.658 7.579 3.687 6.894q0 .175-1.797.298-1.796.117-2.546.117-1.89 0-2.007-.386l-1.621-5.004-1.855 5.215q-.065.204-1.715.204-1.644 0-2.932-.117-1.287-.117-1.17-.298l3.388-6.894q-3.534-7.398-3.535-7.432 0-.176.913-.322a13 13 0 0 1 2.066-.152q1.153 0 2.2.105 1.054.1 1.171.28l1.592 4.858zm14.145 20.349q0 .21-2.563.21-2.558 0-2.558-.21v-15.434h-1.018q-.72 0-.99-1.317a5 5 0 0 1-.093-1.076q0-.662.422-1.563.595-1.317 1.92-1.317.865 0 1.597.404.736.405 1.018.75.287.345.287.403 2.007-1.557 4.342-1.557 2.34 0 4.015 1.815 1.68 1.808 1.68 5.6t-1.68 5.876q-1.674 2.077-4.249 2.077-1.17 0-2.13-.117zm1.229-15.462q-.51 0-.99.328v5.302q.51.064.826.064h.492c.819-.082 7.34-1.131 7.34-3.148 0-1.697-6.63-2.546-7.668-2.546zm10.848-.872q-.837-1.498-.837-2.44 0-.943.509-1.212 1.703-.75 4.682-.749 2.985 0 4.213 1.393 1.23 1.392 1.23 4.12v4.734h1.018q.508 0 .795.603.288.597.287 1.645 0 1.047-.526 2.066-.528 1.017-1.423 1.018-1.62 0-2.61-.866a2.5 2.5 0 0 1-.684-.872q-1.381 1.737-4.29 1.738-2.183 0-3.681-1.557t-1.498-3.687q0-4.88 5.84-4.88h1.65v-.305q0-.778-.257-1-.252-.223-1.182-.223-1.141 0-3.236.474zm2.399 5.519q0 .655.357 1 .357.346.913.346c.37 0 5.52-.891 5.821-1.192l-4.814-1.565h-.843q-1.434 0-1.434 1.41zm17.463 5.179q0 .21-2.153.21-2.997-.087-2.997-.327v-9.709h-.778q-.778 0-1.018-1.317a5 5 0 0 1-.065-.778q0-.93.363-1.861.54-1.317 1.674-1.317 1.14 0 2.037.539.9.537 1.205 1.076 1.885-1.614 4.489-1.615 2.61 0 3.775 1.41 1.17 1.405 1.17 4.612v8.99q0 .356-2.563.356-2.558 0-2.558-.357v-8.661q0-1.498-1.047-1.498-.304 0-.843.257-.54.252-.69.375zm17.833-20.612q0-.45 2.364-.45.808 0 1.873.105t1.065.28v15.796h1.048q.75 0 .989 1.346.058.393.058 1.065 0 .673-.415 1.633-.603 1.317-1.92 1.317-.989 0-1.756-.386-.76-.393-1.03-.814l-.269-.386q-1.65 1.586-4.137 1.586-2.488 0-4.255-2.066t-1.767-5.765q0-3.704 1.855-5.723 1.86-2.025 4.647-2.025.807 0 1.65.182zm-.99 10.306c-1.119 0-7.234 1.009-7.234 3.026 0 1.018 5.715 1.753 6.035 2.206q.48.673 1.065.673t1.124-.51v-5.096q-.51-.3-.99-.299zm21.665 9.68q-1.89 1.106-4.858 1.106t-5.003-2.02q-2.037-2.024-2.037-5.606t1.96-5.764q1.968-2.19 4.963-2.189 2.997 0 4.63 1.528 1.632 1.527 1.632 3.716 0 4.851-5.571 4.851h-2.072q0 .902.492 1.247.497.345 1.457.345 2.101 0 3.985-.96.03-.029.27.416.72 1.293.72 2.177 0 .883-.568 1.153zm-3.746-8.662q0-1.257-1.229-1.258-.567 0-.977.345c-.27.23-4.478 2.046-4.478 2.483l4.074-.551h1.621q.99 0 .99-1.019zm14.563-11.324q0-.45 2.364-.45.807 0 1.873.105t1.065.28v15.796h1.047q.75 0 .99 1.346.057.393.058 1.065 0 .673-.416 1.633-.601 1.317-1.92 1.317-.988 0-1.755-.386-.76-.393-1.03-.814l-.269-.386q-1.65 1.586-4.138 1.586t-4.254-2.066-1.768-5.765q0-3.704 1.856-5.723 1.861-2.025 4.646-2.025.808 0 1.65.182zm-.99 10.306c-1.12 0-6.123 1.009-6.123 3.026 0 1.018 4.604 1.753 4.924 2.206q.48.673 1.065.673t1.124-.51v-5.096q-.51-.3-.99-.299z" fill="none" stroke-opacity=".502" stroke="#000" stroke-width="7.5" stroke-linecap="square"/><path d="M27.259 115.231q0-.152 1.305-.287t2.142-.134q3.324 0 3.476.866l2.575 13.185 2.429-13.185q.181-.867 3.716-.866.867 0 2.183.122 1.323.117 1.323.264l-5.302 19.839q-.123.48-1.768.626-2.55.27-4.635.106-2.077-.165-2.2-.586zm21.666 9.703q-.837-1.498-.837-2.44 0-.943.51-1.212 1.702-.75 4.68-.749 2.985 0 4.215 1.393 1.229 1.392 1.229 4.12v4.734h1.018q.51 0 .796.603.286.597.287 1.645 0 1.047-.527 2.066-.526 1.017-1.422 1.018-1.621 0-2.61-.866a2.5 2.5 0 0 1-.685-.872q-1.38 1.737-4.29 1.738-2.183 0-3.68-1.557-1.5-1.557-1.5-3.687 0-4.88 5.841-4.88h1.65v-.305q0-.778-.257-1-.25-.223-1.182-.223-1.141 0-3.236.474m2.4 5.519q0 .655.356 1 .358.346.913.346t1.007-.45v-2.307h-.843q-1.434 0-1.434 1.41m17.767 5.331q0 .21-2.727.21-2.727-.063-2.727-.24v-9.948h-.808q-.48 0-.767-.585-.286-.585-.286-1.452 0-3.236 1.92-3.236 1.346 0 2.246.825.902.819.902 1.873.625-1.23 1.691-1.96 1.065-.738 2.171-.738 1.739 0 2.101.895.088.24.088.709 0 .462-.287 1.662-.28 1.2-.585 1.738-.298.538-.357.538t-.556-.222q-.492-.228-.884-.228-1.135 0-1.135 1.796zm10.783-.152q0 .24-2.745.24-2.739 0-2.739-.21v-14.713q0-.205 2.74-.205 2.744 0 2.744.175zm0-16.48q0 .21-2.745.21-2.739 0-2.739-.18v-4.314q0-.298 2.74-.298 2.744 0 2.744.181zm4.587 5.782q-.837-1.498-.837-2.44 0-.943.509-1.212 1.703-.75 4.682-.749 2.985 0 4.213 1.393 1.23 1.392 1.23 4.12v4.734h1.018q.509 0 .796.603.285.597.286 1.645 0 1.047-.526 2.066-.528 1.017-1.422 1.018-1.621 0-2.61-.866a2.5 2.5 0 0 1-.685-.872q-1.381 1.737-4.29 1.738-2.182 0-3.681-1.557-1.498-1.557-1.498-3.687 0-4.88 5.84-4.88h1.65v-.305q0-.778-.257-1-.252-.223-1.182-.223-1.141 0-3.236.474m2.4 5.519q0 .655.356 1 .357.346.913.346.555 0 1.007-.45v-2.307h-.843q-1.434 0-1.434 1.41m11.353-15.526q0-.357 2.592-.357t2.593.386v5.817q1.287-.24 1.826-.24 6.29 0 6.29 7.222 0 4.014-1.93 6.186-1.932 2.17-5.484 2.17t-5.887-1.585zm6.174 10.282q-.51 0-.99.328v5.723q.416.176.879.176.468 0 .948-.357.837-.597.837-2.786 0-3.084-1.674-3.084m14.709 10.364q0 .27-3.055.27-2.4-.03-2.4-.24v-20.407q0-.445 2.91-.445 2.544.088 2.545.299zm14.026-.567q-1.89 1.106-4.858 1.106t-5.003-2.02q-2.037-2.024-2.037-5.606t1.96-5.764q1.967-2.19 4.963-2.189t4.63 1.528q1.632 1.527 1.632 3.716 0 4.851-5.571 4.851h-2.072q0 .902.492 1.247.497.345 1.457.345 2.101 0 3.985-.96.03-.029.27.416.72 1.293.72 2.177 0 .883-.568 1.153m-3.746-8.662q0-1.257-1.229-1.258-.567 0-.977.345-.405.345-.404 1.001v.93h1.621q.99 0 .99-1.018m7.61 4.074q2.43 1.468 3.833 1.468.902 0 .902-.626 0-.45-1.557-1.17-3.746-1.527-3.746-5.004 0-2.218 1.616-3.382 1.62-1.17 3.88-1.17 2.264 0 3.833.479 1.575.48 1.574 1.258 0 .656-.644 1.738-.643 1.077-.883 1.165a5.65 5.65 0 0 0-2.786-.714q-.808 0-.808.568 0 .357.31.614.317.252 1.153.626.844.375 1.393.68.555.297 1.247.836 1.44 1.135 1.44 2.967 0 2.394-1.592 3.88-1.586 1.48-4.793 1.48-2.125 0-3.863-.719-1.738-.72-1.738-1.978 0-.837.404-1.762.404-.93.825-1.234m28.375-7.251q.568 0 .568 2.1 0 .627-.135 1.481t-.491.855H161.5v2.996h5.512q.51 0 .685 1.317.094.573.094 1.217t-.182 1.662q-.18 1.018-.597 1.018h-10.247q-1.14 0-1.141-.93v-19.266q0-.778.69-.778h10.728q.626 0 .626 2.65 0 2.652-.626 2.652H161.5v3.026zm13.87-2.248q.124-.24 1.5-.24 4.493 0 4.377.334l-3.658 7.579 3.687 6.894q0 .175-1.797.298-1.796.117-2.546.117-1.89 0-2.007-.386l-1.621-5.004-1.855 5.215q-.065.204-1.715.204-1.644 0-2.932-.117-1.287-.117-1.17-.298l3.388-6.894q-3.534-7.398-3.535-7.432 0-.176.913-.322a13 13 0 0 1 2.066-.152q1.153 0 2.2.105 1.054.1 1.171.28l1.592 4.858zm14.145 20.349q0 .21-2.563.21-2.558 0-2.558-.21v-15.432h-1.018q-.72 0-.99-1.317a5 5 0 0 1-.093-1.076q0-.662.422-1.563.595-1.317 1.92-1.317.865 0 1.597.404.736.405 1.018.75.287.345.287.403 2.007-1.557 4.342-1.557 2.34 0 4.015 1.815 1.68 1.808 1.68 5.6t-1.68 5.876q-1.674 2.077-4.249 2.077-1.17 0-2.13-.117zm1.229-15.462q-.51 0-.99.328v5.302q.51.064.826.064h.492q1.229-.123 1.229-3.148 0-2.546-1.557-2.546m10.848-.872q-.837-1.498-.837-2.44 0-.943.509-1.212 1.703-.75 4.682-.749 2.985 0 4.213 1.393 1.23 1.392 1.23 4.12v4.734h1.018q.508 0 .795.603.288.597.287 1.645 0 1.047-.526 2.066-.528 1.017-1.423 1.018-1.62 0-2.61-.866a2.5 2.5 0 0 1-.684-.872q-1.381 1.737-4.29 1.738-2.183 0-3.681-1.557t-1.498-3.687q0-4.88 5.84-4.88h1.65v-.305q0-.778-.257-1-.252-.223-1.182-.223-1.141 0-3.236.474m2.399 5.519q0 .655.357 1 .357.346.913.346.555 0 1.007-.45v-2.307h-.843q-1.434 0-1.434 1.41m17.463 5.179q0 .21-2.153.21-2.997-.087-2.997-.327v-9.709h-.778q-.778 0-1.018-1.317a5 5 0 0 1-.065-.778q0-.93.363-1.861.54-1.317 1.674-1.317 1.14 0 2.037.539.9.537 1.205 1.076 1.885-1.614 4.489-1.615 2.61 0 3.775 1.41 1.17 1.405 1.17 4.612v8.99q0 .356-2.563.356-2.558 0-2.558-.357v-8.661q0-1.498-1.047-1.498-.304 0-.843.257-.54.252-.69.375zm17.833-20.612q0-.45 2.364-.45.808 0 1.873.105t1.065.28v15.796h1.048q.75 0 .989 1.346.058.393.058 1.065 0 .673-.415 1.633-.603 1.317-1.92 1.317-.989 0-1.756-.386-.76-.393-1.03-.814l-.269-.386q-1.65 1.586-4.137 1.586-2.488 0-4.255-2.066t-1.767-5.765q0-3.704 1.855-5.723 1.86-2.025 4.647-2.025.807 0 1.65.182zm-.99 10.306q-1.679 0-1.679 3.026 0 1.527.48 2.206.48.673 1.065.673t1.124-.51v-5.096q-.51-.3-.99-.299m21.665 9.68q-1.89 1.106-4.858 1.106t-5.003-2.02q-2.037-2.024-2.037-5.606t1.96-5.764q1.968-2.19 4.963-2.189 2.997 0 4.63 1.528 1.632 1.527 1.632 3.716 0 4.851-5.571 4.851h-2.072q0 .902.492 1.247.497.345 1.457.345 2.101 0 3.985-.96.03-.029.27.416.72 1.293.72 2.177 0 .883-.568 1.153m-3.746-8.662q0-1.257-1.229-1.258-.567 0-.977.345-.404.345-.404 1.001v.93h1.621q.99 0 .99-1.018m14.563-11.324q0-.45 2.364-.45.807 0 1.873.105t1.065.28v15.796h1.047q.75 0 .99 1.346.057.393.058 1.065 0 .673-.416 1.633-.601 1.317-1.92 1.317-.988 0-1.755-.386-.76-.393-1.03-.814l-.269-.386q-1.65 1.586-4.138 1.586t-4.254-2.066-1.768-5.765q0-3.704 1.856-5.723 1.861-2.025 4.646-2.025.808 0 1.65.182zm-.99 10.306q-1.68 0-1.679 3.026 0 1.527.48 2.206.48.673 1.065.673t1.124-.51v-5.096q-.51-.3-.99-.299" fill="#fff"/></g></svg>
