<svg version="1.1" xmlns="http://www.w3.org/2000/svg" xmlns:xlink="http://www.w3.org/1999/xlink" width="309.2973" height="159.64866" viewBox="0,0,309.2973,159.64866"><defs><linearGradient x1="240" y1="254.82433" x2="240" y2="105.17568" gradientUnits="userSpaceOnUse" id="color-1"><stop offset="0" stop-color="#ff0000"/><stop offset="1" stop-color="#420000"/></linearGradient></defs><g transform="translate(-85.35135,-100.17567)"><g fill-rule="nonzero" stroke-linejoin="miter" stroke-miterlimit="10" stroke-dasharray="" stroke-dashoffset="0" style="mix-blend-mode: normal"><path d="M92.17803,253.82433v-147.64865h295.64395v147.64865z" fill="#780000" stroke="none" stroke-width="0" stroke-linecap="butt"/><path d="M112.75,180c0,-28.08285 9.09705,-54.04099 24.50504,-75.08827c0.84877,-1.15942 3.0868,-3.34773 3.0868,-3.34773l199.79097,1.23986c0,0 2.87717,2.45186 3.86114,3.84434c14.64941,20.73116 23.25604,46.03639 23.25604,73.35181c0,27.1282 -8.48906,52.27367 -22.95567,72.92489c-1.18975,1.69839 -3.68917,5.00257 -3.68917,5.00257l-201.8418,-0.8209c0,0 -2.21997,-2.97692 -3.28163,-4.50241c-14.33023,-20.59061 -22.73173,-45.61624 -22.73173,-72.60415z" fill="#a90000" stroke="none" stroke-width="0" stroke-linecap="butt"/><path d="M150.25,180c0,-29.78741 14.51131,-56.18551 36.85021,-72.51059c2.72152,-1.98886 8.50099,-5.50598 8.50099,-5.50598l85.62419,-0.72601c0,0 6.8467,2.83855 10.05056,5.07269c23.25696,16.21769 38.47404,43.16672 38.47404,73.66989c0,30.1648 -14.88135,56.85386 -37.70303,73.12622c-1.63194,1.16361 -5.01511,3.3285 -5.01511,3.3285l-94.57962,-0.32045c0,0 -2.88981,-1.86695 -4.29092,-2.85999c-22.93939,-16.25824 -37.91131,-43.01782 -37.91131,-73.27429z" fill="#cb0000" stroke="none" stroke-width="0" stroke-linecap="butt"/><path d="M90.35135,117.67134c0,-6.39897 5.91545,-12.49566 13.1192,-12.49566c28.93252,0 219.72832,0 272.60996,0c8.61359,0 13.56814,4.64378 13.56814,12.24625c0,30.59212 0,109.0924 0,125.70487c0,6.03964 -4.85913,11.69754 -13.31873,11.69754c-52.46667,0 -243.42599,0 -272.60996,0c-7.3279,0 -13.36861,-4.5235 -13.36861,-11.94695c0,-30.16113 0,-108.19342 0,-125.20604z" fill="none" stroke="url(#color-1)" stroke-width="10" stroke-linecap="butt"/><path d="M185.74278,180c0,-29.96544 24.29178,-54.25722 54.25722,-54.25722c29.96544,0 54.25722,24.29178 54.25722,54.25722c0,29.96544 -24.29179,54.25722 -54.25722,54.25722c-29.96544,0 -54.25722,-24.29178 -54.25722,-54.25722z" fill="#ff0000" stroke="none" stroke-width="0" stroke-linecap="butt"/><path d="M186.99574,118.25982c0.32708,-0.8764 1.93102,-1.3146 4.81181,-1.3146c0.72544,0 1.58297,0.05032 2.57259,0.15096c0.98962,0.10064 1.44669,0.22644 1.37121,0.3774l-7.81212,15.69972v9.17075c0,0.42353 -0.6898,0.72334 -2.06939,0.89946c-0.70028,0.10064 -1.39008,0.15096 -2.0694,0.15096c-0.67512,0 -1.35025,-0.03774 -2.02536,-0.11322c-1.37959,-0.17612 -2.06939,-0.48852 -2.06939,-0.9372v-8.94431l-8.0763,-15.85067c-0.10064,-0.15096 0.41304,-0.29563 1.54104,-0.43401c1.128,-0.13838 2.07987,-0.20757 2.85563,-0.20757c3.08208,0 4.77198,0.45078 5.0697,1.35234l2.74871,7.66116zM196.96825,141.10492c-1.5641,-1.73183 -2.34616,-4.12411 -2.34616,-7.17683c0,-3.05692 0.78206,-5.44919 2.34616,-7.17683c1.56829,-1.72764 3.67962,-2.59146 6.33397,-2.59146c2.65436,0 4.7573,0.86382 6.30882,2.59146c1.55572,1.72764 2.33357,4.11992 2.33357,7.17683c0,3.05273 -0.77786,5.445 -2.33357,7.17683c-1.55152,1.72764 -3.65446,2.59146 -6.30882,2.59146c-2.65436,0 -4.76568,-0.86382 -6.33397,-2.59146zM203.32109,130.43086c-1.41314,0 -2.11972,1.15315 -2.11972,3.45947c0,2.30212 0.70658,3.45318 2.11972,3.45318c1.41733,0 6.526,-0.95106 6.526,-3.25318c0,-2.30632 -5.10866,-3.65947 -6.526,-3.65947zM214.42381,124.75734c0,-0.27256 1.07558,-0.40885 3.22674,-0.40885c2.15535,0 3.23304,0.13629 3.23304,0.40885v10.96967c0,1.2538 0.40046,1.8807 1.20138,1.8807c0.60384,0 1.28105,-0.26208 2.03166,-0.78625v-12.06412c0,-0.2474 1.063,-0.37111 3.18901,-0.37111c2.1302,0 3.19529,0.12371 3.19529,0.37111v12.32201h0.98124c0.85124,0 1.27686,0.8156 1.27686,2.44679c0,0.82608 -0.17613,1.66474 -0.52836,2.51598c-0.49901,1.10284 -1.17412,1.65426 -2.02536,1.65426c-1.68151,0 -2.92273,-0.6898 -3.72366,-2.0694l-0.03773,0.03774c-1.52636,1.35443 -3.16595,2.03166 -4.91875,2.03166c-2.43212,0 -4.22474,-0.60802 -5.3779,-1.82408c-1.14896,-1.21606 -1.72345,-3.22675 -1.72345,-6.03207zM246.54858,142.71515c0,0.5032 -1.24122,0.75479 -3.72365,0.75479c-2.47824,0 -3.71736,-0.2516 -3.71736,-0.75479v-18.85727h-4.5099c-0.42352,0 -0.72334,-0.57657 -0.89946,-1.72974c-0.07548,-0.54933 -0.11322,-1.11122 -0.11322,-1.68571c0,-0.57868 0.03774,-1.14267 0.11322,-1.692c0.17612,-1.15316 0.47594,-1.72974 0.89946,-1.72974h16.34129c0.42771,0 0.72963,0.57657 0.90575,1.72974c0.07548,0.54933 0.11322,1.11332 0.11322,1.692c0,0.57449 -0.03774,1.13638 -0.11322,1.68571c-0.17612,1.15316 -0.47804,1.72974 -0.90575,1.72974h-4.39038zM252.40693,124.75734c0,-0.27256 1.07558,-0.40885 3.22674,-0.40885c2.15535,0 3.23304,0.13629 3.23304,0.40885v10.96967c0,1.2538 0.40046,1.8807 1.20138,1.8807c0.60384,0 1.28105,-0.26208 2.03166,-0.78625v-12.06412c0,-0.2474 1.063,-0.37111 3.18901,-0.37111c2.1302,0 3.19529,0.12371 3.19529,0.37111v12.32201h0.98124c0.85124,0 1.27686,0.8156 1.27686,2.44679c0,0.82608 -0.17612,1.66474 -0.52836,2.51598c-0.49901,1.10284 -1.17412,1.65426 -2.02536,1.65426c-1.68151,0 -2.92273,-0.6898 -3.72365,-2.0694l-0.03774,0.03774c-1.52636,1.35443 -3.16595,2.03166 -4.91875,2.03166c-2.43212,0 -4.22474,-0.60802 -5.3779,-1.82408c-1.14896,-1.21606 -1.72345,-3.22675 -1.72345,-6.03207zM273.22237,117.13392c0,-0.30192 1.08187,-0.45288 3.24561,-0.45288c2.16794,0 3.25191,0.16354 3.25191,0.49062v7.29005c1.07768,-0.20128 1.84085,-0.30192 2.28954,-0.30192c5.26259,0 7.89389,3.01708 7.89389,9.05124c0,3.35883 -0.80931,5.94609 -2.42792,7.76179c-1.61442,1.8157 -3.90606,2.72355 -6.87492,2.72355c-2.96467,0 -5.42404,-0.66464 -7.37811,-1.99392zM280.95901,130.02203c-0.42352,0 -0.83656,0.13628 -1.23912,0.40884v7.17684c0.35224,0.15096 0.72124,0.22644 1.10703,0.22644c0.38997,0 0.78415,-0.15096 1.18251,-0.45288c0.70448,-0.49901 1.05671,-1.66264 1.05671,-3.49093c0,-2.57888 -0.70238,-3.86831 -2.10714,-3.86831zM300.68408,143.69639c-2.47824,0 -4.5707,-0.84495 -6.27737,-2.53485c-1.70248,-1.6941 -2.55372,-4.03605 -2.55372,-7.02588c0,-2.99401 0.81979,-5.40516 2.45937,-7.23344c1.64378,-1.82828 3.71736,-2.74241 6.22076,-2.74241c2.5034,0 4.43651,0.63948 5.79933,1.91843c1.36701,1.27477 2.05052,2.82628 2.05052,4.65456c0,4.05911 -2.32938,6.08867 -6.98813,6.08867h-2.59146c0,0.7506 0.20547,1.27057 0.61642,1.55991c0.41514,0.28515 1.02526,0.42772 1.83038,0.42772c1.7528,0 3.41754,-0.40046 4.99422,-1.20138c0.02516,-0.02516 0.13838,0.15096 0.33966,0.52836c0.59965,1.07768 0.89946,1.98553 0.89946,2.72355c0,0.73802 -0.23692,1.22025 -0.71077,1.44669c0,0 -3.61043,1.39007 -6.08867,1.39007zM302.07416,131.44984c0,-1.05252 -0.51368,-1.57878 -1.54104,-1.57878c-0.47384,0 -0.8806,0.14466 -1.22025,0.434c-0.33965,0.28515 -0.50948,0.70237 -0.50948,1.2517v1.16993h2.03166c0.82608,0 1.23912,-0.42562 1.23912,-1.27686z" fill="none" stroke-opacity="0.51373" stroke="#000000" stroke-width="7.5" stroke-linecap="square"/><path d="M179.46035,238.46019c-2.1131,-0.24341 -3.87915,-1.10144 -5.29816,-2.57409c-1.69678,-1.76747 -2.54516,-4.34477 -2.54516,-7.73189c0,-3.39033 0.85803,-5.95799 2.57408,-7.70297c1.71927,-1.74819 3.93664,-2.62229 6.65212,-2.62229c2.71869,0 4.91197,0.85963 6.57981,2.5789c1.67106,1.71606 2.5066,4.31746 2.5066,7.8042c0,3.48352 -0.85482,6.07528 -2.56445,7.77527c-1.70641,1.69678 -3.90933,2.54516 -6.60874,2.54516c0,0 -0.87767,-0.02409 -1.2961,-0.07229zM180.77093,223.35794c-0.91908,0 -1.69035,0.42258 -2.31378,1.26776c-0.62344,0.84518 -0.93516,2.03098 -0.93516,3.55744c0,1.52324 0.29726,2.69299 0.89177,3.50924c0.59452,0.81625 1.37542,1.22437 2.3427,1.22437c0.97051,0 1.75783,-0.41295 2.36199,-1.23884c0.60737,-0.82589 0.91106,-2.00527 0.91106,-3.53815c0,-1.53609 -0.31332,-2.71709 -0.93998,-3.54298c-0.62344,-0.82589 -1.3963,-1.23884 -2.3186,-1.23884zM198.27956,243.48301c0,0.13497 -0.82107,0.20246 -2.46321,0.20246c-1.63893,0 -2.45839,-0.06749 -2.45839,-0.20246v-14.82749h-0.97853c-0.46275,0 -0.7809,-0.42258 -0.95444,-1.26776c-0.05784,-0.26673 -0.08677,-0.61058 -0.08677,-1.03156c0,-0.42419 0.13498,-0.92391 0.40492,-1.49914c0.38563,-0.84518 0.99943,-1.26776 1.84139,-1.26776c0.55917,0 1.07333,0.13015 1.54252,0.39045c0.46919,0.25708 0.79536,0.49651 0.97853,0.71824c0.18318,0.21852 0.27477,0.34706 0.27477,0.38563c1.28544,-0.99621 2.67692,-1.49432 4.17444,-1.49432c1.49752,0 2.78296,0.58006 3.85629,1.74016c1.07655,1.1601 1.61483,2.95489 1.61483,5.38436c0,2.42947 -0.53828,4.31103 -1.61483,5.64467c-1.07333,1.33364 -2.4359,2.00046 -4.08767,2.00046c-0.74876,0 -1.43005,-0.03857 -2.04384,-0.11569zM199.46056,228.62661c-0.32779,0 -0.64432,0.10605 -0.94961,0.31814v5.09515c0.32457,0.03857 0.58809,0.05784 0.79055,0.05784c0.20245,0 0.36153,0 0.47722,0c0.78411,-0.07713 3.92618,-0.95958 3.92618,-2.89738c0,-1.6325 -3.24811,-2.57376 -4.24432,-2.57376zM214.28814,238.53248c-1.89923,0 -3.50281,-0.64754 -4.81074,-1.94261c-1.30471,-1.29829 -1.95708,-3.09307 -1.95708,-5.38437c0,-2.2945 0.62826,-4.14231 1.88477,-5.54343c1.25973,-1.40113 2.84884,-2.10169 4.76736,-2.10169c1.91851,0 3.39997,0.49007 4.44439,1.47021c1.04763,0.97693 1.57144,2.16595 1.57144,3.56708c0,3.11075 -1.78514,4.66613 -5.35544,4.66613h-1.986c0,0.57523 0.15747,0.97372 0.4724,1.19545c0.31815,0.21852 0.78572,0.32779 1.40273,0.32779c1.34328,0 2.61908,-0.3069 3.82738,-0.92069c0.01928,-0.01928 0.10605,0.11569 0.2603,0.40491c0.45954,0.82589 0.68932,1.52164 0.68932,2.08722c0,0.56559 -0.18157,0.93516 -0.54471,1.10869c0,0 -2.76689,1.06531 -4.66612,1.06531zM215.35343,229.14722c0,-0.80661 -0.39366,-1.20991 -1.18099,-1.20991c-0.36313,0 -0.67486,0.11087 -0.93516,0.33261c-0.2603,0.21852 -0.39045,0.53828 -0.39045,0.95926v0.89659h1.55698c0.63308,0 0.94961,-0.32618 0.94961,-0.97854zM228.36789,238.21432c0,0.13497 -0.87409,0.20246 -2.62228,0.20246c-1.74498,-0.03857 -2.61747,-0.11569 -2.61747,-0.23138v-9.55882h-0.77608c-0.30851,0 -0.55435,-0.18639 -0.73752,-0.55916c-0.18318,-0.37599 -0.27476,-0.84196 -0.27476,-1.39791c0,-2.07277 0.6154,-3.10915 1.8462,-3.10915c0.86446,0 1.5843,0.26351 2.15953,0.79054c0.57523,0.52703 0.86285,1.12636 0.86285,1.798c0.4017,-0.78733 0.94319,-1.41558 1.62447,-1.88476c0.68128,-0.46919 1.37702,-0.70378 2.08722,-0.70378c1.11512,0 1.78836,0.28761 2.01974,0.86284c0.05463,0.15425 0.08195,0.38081 0.08195,0.67968c0,0.29565 -0.09159,0.8275 -0.27476,1.59555c-0.17996,0.76805 -0.36635,1.3256 -0.55917,1.67267c-0.19281,0.34385 -0.3085,0.51578 -0.34707,0.51578c-0.03535,0 -0.2121,-0.07231 -0.53024,-0.21692c-0.31815,-0.14461 -0.60094,-0.21692 -0.84838,-0.21692c-0.72949,0 -1.09423,0.57683 -1.09423,1.73051zM235.27699,227.79269c-0.53667,-0.96087 -0.80501,-1.74337 -0.80501,-2.34753c0,-0.60415 0.16229,-0.993 0.48686,-1.16653c1.09584,-0.47883 2.59819,-0.71823 4.50705,-0.71823c1.90887,0 3.25697,0.44669 4.0443,1.34007c0.78733,0.89016 1.18099,2.20934 1.18099,3.95753v4.55044h0.97854c0.32779,0 0.58166,0.19121 0.76162,0.57362c0.18318,0.38241 0.27476,0.91105 0.27476,1.58591c0,0.67164 -0.16871,1.33363 -0.50614,1.98599c-0.33421,0.65236 -0.78894,0.97854 -1.36417,0.97854c-1.03478,0 -1.87031,-0.27798 -2.5066,-0.83393c-0.28601,-0.23138 -0.50614,-0.51096 -0.66039,-0.83874c-0.88374,1.11512 -2.25594,1.67267 -4.1166,1.67267c-1.40112,0 -2.58211,-0.4981 -3.54298,-1.49431c-0.95765,-0.99942 -1.43648,-2.18203 -1.43648,-3.5478c0,-3.12682 1.87031,-4.69023 5.61093,-4.69023h1.58591v-0.28922c0,-0.49811 -0.08195,-0.81947 -0.24584,-0.96408c-0.1639,-0.14461 -0.54309,-0.21692 -1.13761,-0.21692c-0.72949,0 -1.76586,0.15425 -3.10914,0.46276zM237.58113,233.09029c0,0.42098 0.11409,0.74234 0.34225,0.96407c0.23138,0.22174 0.52381,0.33261 0.8773,0.33261c0.35671,0 0.67968,-0.14461 0.9689,-0.43383v-2.21737h-0.805c-0.9223,0 -1.38345,0.45151 -1.38345,1.35453zM254.97328,238.06971c0,0.23138 -0.80661,0.34707 -2.41983,0.34707c-1.91851,-0.07713 -2.87777,-0.20245 -2.87777,-0.37599v-10.19029h-1.47021c-0.38563,0 -0.57845,-0.662 -0.57845,-1.986c0,-0.34706 0.03375,-0.76965 0.10123,-1.26776c0.06748,-0.50132 0.20728,-0.75198 0.41938,-0.75198h1.52806v-2.5307c0,-0.38563 0.80982,-0.57845 2.42947,-0.57845c1.62286,0 2.43429,0.15425 2.43429,0.46276v1.84139l0.02893,0.805h2.44875c0.32457,0 0.48686,0.67324 0.48686,2.01974c0,1.34328 -0.16229,2.01492 -0.48686,2.01492h-2.04384zM264.21427,238.06971c0,0.15425 -0.87892,0.23138 -2.63675,0.23138c-1.75462,0 -2.63192,-0.06748 -2.63192,-0.20245v-14.13817c0,-0.13176 0.8773,-0.19764 2.63192,-0.19764c1.75783,0 2.63675,0.05624 2.63675,0.16872zM264.21427,222.23479c0,0.13497 -0.87892,0.20245 -2.63675,0.20245c-1.75462,0 -2.63192,-0.05784 -2.63192,-0.17353v-4.14552c0,-0.19281 0.8773,-0.28923 2.63192,-0.28923c1.75783,0 2.63675,0.05785 2.63675,0.17354zM268.05432,236.5465c-1.19867,-1.32721 -1.798,-3.16056 -1.798,-5.50005c0,-2.3427 0.59933,-4.17606 1.798,-5.50006c1.20188,-1.32399 2.81992,-1.986 4.85412,-1.986c2.0342,0 3.64582,0.662 4.83484,1.986c1.19224,1.32399 1.78836,3.15735 1.78836,5.50006c0,2.33949 -0.59612,4.17284 -1.78836,5.50005c-1.18903,1.324 -2.80064,1.986 -4.83484,1.986c-2.0342,0 -3.65224,-0.662 -4.85412,-1.986zM272.92291,228.36631c-1.08298,0 -1.62446,0.88374 -1.62446,2.65121c0,1.76426 0.54148,2.64639 1.62446,2.64639c1.08619,0 6.23755,-2.36485 6.20406,-2.62071c-0.15724,-1.20126 -5.30858,-2.67689 -6.20406,-2.67689zM287.59208,238.06971c0,0.13497 -0.69092,0.20246 -2.07277,0.20246c-1.91851,-0.05784 -2.87777,-0.1639 -2.87777,-0.31815v-9.32744h-0.75198c-0.49811,0 -0.82429,-0.42258 -0.97854,-1.26776c-0.03857,-0.24744 -0.05784,-0.49649 -0.05784,-0.74715c0,-0.59452 0.11568,-1.18902 0.34706,-1.78354c0.34706,-0.84518 0.88534,-1.26776 1.61482,-1.26776c0.72949,0 1.38185,0.17354 1.95708,0.5206c0.57523,0.34385 0.95925,0.6877 1.15207,1.03156c1.20831,-1.03477 2.64639,-1.55216 4.31424,-1.55216c1.67106,0 2.88098,0.4515 3.62975,1.35452c0.74876,0.8998 1.12315,2.37645 1.12315,4.42993v8.63812c0,0.23138 -0.82108,0.34706 -2.46321,0.34706c-1.63893,0 -2.45839,-0.11568 -2.45839,-0.34706v-8.31998c0,-0.96087 -0.33582,-1.44129 -1.00746,-1.44129c-0.19281,0 -0.46276,0.08195 -0.80983,0.24584c-0.34386,0.16389 -0.56398,0.2844 -0.66039,0.36153zM301.73085,234.47373c0.57523,0 0.86285,-0.20246 0.86285,-0.60737c0,-0.28601 -0.49972,-0.66039 -1.49914,-1.12315c-2.39733,-0.97693 -3.596,-2.5789 -3.596,-4.80592c0,-1.4204 0.51739,-2.505 1.55217,-3.25376c1.03799,-0.74876 2.28165,-1.12314 3.73097,-1.12314c1.44932,0 2.67692,0.15425 3.68277,0.46275c1.00907,0.30529 1.5136,0.70699 1.5136,1.2051c0,0.42419 -0.20727,0.98175 -0.62183,1.67267c-0.41134,0.69092 -0.69414,1.06531 -0.84839,1.12315c-0.82589,-0.46275 -1.71766,-0.69414 -2.67531,-0.69414c-0.51739,0 -0.77608,0.18318 -0.77608,0.54953c0,0.22816 0.09962,0.42419 0.29886,0.58809c0.20245,0.16389 0.57201,0.36635 1.10868,0.60737c0.53667,0.23781 0.98175,0.45312 1.33524,0.64593c0.35671,0.19281 0.7568,0.46114 1.20028,0.805c0.9223,0.72949 1.38345,1.68071 1.38345,2.85367c0,1.53288 -0.50935,2.77494 -1.52806,3.72616c-1.01871,0.95122 -2.55481,1.42683 -4.60829,1.42683c-1.36256,0 -2.60139,-0.22976 -3.71651,-0.68931c-1.1119,-0.46276 -1.66786,-1.09744 -1.66786,-1.90405c0,-0.53667 0.13015,-1.10226 0.39045,-1.69678c0.2603,-0.59452 0.52381,-0.98818 0.79054,-1.18099c0,0 2.78459,1.41236 3.68761,1.41236z" fill="none" stroke-opacity="0.50588" stroke="#000000" stroke-width="7.5" stroke-linecap="square"/><path d="M186.99574,118.25982c0.32708,-0.8764 1.93102,-1.3146 4.81181,-1.3146c0.72544,0 1.58297,0.05032 2.57259,0.15096c0.98962,0.10064 1.44669,0.22644 1.37121,0.3774l-7.81212,15.69972v9.17075c0,0.42353 -0.6898,0.72334 -2.06939,0.89946c-0.70028,0.10064 -1.39008,0.15096 -2.0694,0.15096c-0.67512,0 -1.35025,-0.03774 -2.02536,-0.11322c-1.37959,-0.17612 -2.06939,-0.48852 -2.06939,-0.9372v-8.94431l-8.0763,-15.85067c-0.10064,-0.15096 0.41304,-0.29563 1.54104,-0.43401c1.128,-0.13838 2.07987,-0.20757 2.85563,-0.20757c3.08208,0 4.77198,0.45078 5.0697,1.35234l2.74871,7.66116zM196.96825,141.10492c-1.5641,-1.73183 -2.34616,-4.12411 -2.34616,-7.17683c0,-3.05692 0.78206,-5.44919 2.34616,-7.17683c1.56829,-1.72764 3.67962,-2.59146 6.33397,-2.59146c2.65436,0 4.7573,0.86382 6.30882,2.59146c1.55572,1.72764 2.33357,4.11992 2.33357,7.17683c0,3.05273 -0.77786,5.445 -2.33357,7.17683c-1.55152,1.72764 -3.65446,2.59146 -6.30882,2.59146c-2.65436,0 -4.76568,-0.86382 -6.33397,-2.59146zM203.32109,130.43086c-1.41314,0 -2.11972,1.15315 -2.11972,3.45947c0,2.30212 0.70658,3.45318 2.11972,3.45318c1.41733,0 2.126,-1.15106 2.126,-3.45318c0,-2.30632 -0.70866,-3.45947 -2.126,-3.45947zM214.42381,124.75734c0,-0.27256 1.07558,-0.40885 3.22674,-0.40885c2.15535,0 3.23304,0.13629 3.23304,0.40885v10.96967c0,1.2538 0.40046,1.8807 1.20138,1.8807c0.60384,0 1.28105,-0.26208 2.03166,-0.78625v-12.06412c0,-0.2474 1.063,-0.37111 3.18901,-0.37111c2.1302,0 3.19529,0.12371 3.19529,0.37111v12.32201h0.98124c0.85124,0 1.27686,0.8156 1.27686,2.44679c0,0.82608 -0.17613,1.66474 -0.52836,2.51598c-0.49901,1.10284 -1.17412,1.65426 -2.02536,1.65426c-1.68151,0 -2.92273,-0.6898 -3.72366,-2.0694l-0.03773,0.03774c-1.52636,1.35443 -3.16595,2.03166 -4.91875,2.03166c-2.43212,0 -4.22474,-0.60802 -5.3779,-1.82408c-1.14896,-1.21606 -1.72345,-3.22675 -1.72345,-6.03207zM246.54858,142.71515c0,0.5032 -1.24122,0.75479 -3.72365,0.75479c-2.47824,0 -3.71736,-0.2516 -3.71736,-0.75479v-18.85727h-4.5099c-0.42352,0 -0.72334,-0.57657 -0.89946,-1.72974c-0.07548,-0.54933 -0.11322,-1.11122 -0.11322,-1.68571c0,-0.57868 0.03774,-1.14267 0.11322,-1.692c0.17612,-1.15316 0.47594,-1.72974 0.89946,-1.72974h16.34129c0.42771,0 0.72963,0.57657 0.90575,1.72974c0.07548,0.54933 0.11322,1.11332 0.11322,1.692c0,0.57449 -0.03774,1.13638 -0.11322,1.68571c-0.17612,1.15316 -0.47804,1.72974 -0.90575,1.72974h-4.39038zM252.40693,124.75734c0,-0.27256 1.07558,-0.40885 3.22674,-0.40885c2.15535,0 3.23304,0.13629 3.23304,0.40885v10.96967c0,1.2538 0.40046,1.8807 1.20138,1.8807c0.60384,0 1.28105,-0.26208 2.03166,-0.78625v-12.06412c0,-0.2474 1.063,-0.37111 3.18901,-0.37111c2.1302,0 3.19529,0.12371 3.19529,0.37111v12.32201h0.98124c0.85124,0 1.27686,0.8156 1.27686,2.44679c0,0.82608 -0.17612,1.66474 -0.52836,2.51598c-0.49901,1.10284 -1.17412,1.65426 -2.02536,1.65426c-1.68151,0 -2.92273,-0.6898 -3.72365,-2.0694l-0.03774,0.03774c-1.52636,1.35443 -3.16595,2.03166 -4.91875,2.03166c-2.43212,0 -4.22474,-0.60802 -5.3779,-1.82408c-1.14896,-1.21606 -1.72345,-3.22675 -1.72345,-6.03207zM273.22237,117.13392c0,-0.30192 1.08187,-0.45288 3.24561,-0.45288c2.16794,0 3.25191,0.16354 3.25191,0.49062v7.29005c1.07768,-0.20128 1.84085,-0.30192 2.28954,-0.30192c5.26259,0 7.89389,3.01708 7.89389,9.05124c0,3.35883 -0.80931,5.94609 -2.42792,7.76179c-1.61442,1.8157 -3.90606,2.72355 -6.87492,2.72355c-2.96467,0 -5.42404,-0.66464 -7.37811,-1.99392zM280.95901,130.02203c-0.42352,0 -0.83656,0.13628 -1.23912,0.40884v7.17684c0.35224,0.15096 0.72124,0.22644 1.10703,0.22644c0.38997,0 0.78415,-0.15096 1.18251,-0.45288c0.70448,-0.49901 1.05671,-1.66264 1.05671,-3.49093c0,-2.57888 -0.70238,-3.86831 -2.10714,-3.86831zM306.77275,142.30631c-1.58087,0.92672 -3.61043,1.39008 -6.08867,1.39008c-2.47824,0 -4.5707,-0.84495 -6.27737,-2.53485c-1.70248,-1.6941 -2.55372,-4.03605 -2.55372,-7.02588c0,-2.99401 0.81979,-5.40516 2.45937,-7.23344c1.64378,-1.82828 3.71736,-2.74241 6.22076,-2.74241c2.5034,0 4.43651,0.63948 5.79933,1.91843c1.36701,1.27477 2.05052,2.82628 2.05052,4.65456c0,4.05911 -2.32938,6.08867 -6.98813,6.08867h-2.59146c0,0.7506 0.20547,1.27057 0.61642,1.55991c0.41514,0.28515 1.02526,0.42772 1.83038,0.42772c1.7528,0 3.41754,-0.40046 4.99422,-1.20138c0.02516,-0.02516 0.13838,0.15096 0.33966,0.52836c0.59965,1.07768 0.89946,1.98553 0.89946,2.72355c0,0.73802 -0.23692,1.22025 -0.71077,1.44669zM302.07416,131.44984c0,-1.05252 -0.51368,-1.57878 -1.54104,-1.57878c-0.47384,0 -0.8806,0.14466 -1.22025,0.434c-0.33965,0.28515 -0.50948,0.70237 -0.50948,1.2517v1.16993h2.03166c0.82608,0 1.23912,-0.42562 1.23912,-1.27686z" fill="#ffffff" stroke="none" stroke-width="1" stroke-linecap="square"/><path d="M180.75647,238.53249c-2.6962,0 -4.89429,-0.88213 -6.59428,-2.64639c-1.69678,-1.76747 -2.54516,-4.34477 -2.54516,-7.73189c0,-3.39033 0.85803,-5.95799 2.57408,-7.70297c1.71927,-1.74819 3.93664,-2.62229 6.65212,-2.62229c2.71869,0 4.91197,0.85963 6.57981,2.5789c1.67106,1.71606 2.5066,4.31746 2.5066,7.8042c0,3.48352 -0.85482,6.07528 -2.56445,7.77527c-1.70641,1.69678 -3.90933,2.54516 -6.60874,2.54516zM180.77093,223.35794c-0.91908,0 -1.69035,0.42258 -2.31378,1.26776c-0.62344,0.84518 -0.93516,2.03098 -0.93516,3.55744c0,1.52324 0.29726,2.69299 0.89177,3.50924c0.59452,0.81625 1.37542,1.22437 2.3427,1.22437c0.97051,0 1.75783,-0.41295 2.36199,-1.23884c0.60737,-0.82589 0.91106,-2.00527 0.91106,-3.53815c0,-1.53609 -0.31332,-2.71709 -0.93998,-3.54298c-0.62344,-0.82589 -1.3963,-1.23884 -2.3186,-1.23884zM198.27956,243.48301c0,0.13497 -0.82107,0.20246 -2.46321,0.20246c-1.63893,0 -2.45839,-0.06749 -2.45839,-0.20246v-14.82749h-0.97853c-0.46275,0 -0.7809,-0.42258 -0.95444,-1.26776c-0.05784,-0.26673 -0.08677,-0.61058 -0.08677,-1.03156c0,-0.42419 0.13498,-0.92391 0.40492,-1.49914c0.38563,-0.84518 0.99943,-1.26776 1.84139,-1.26776c0.55917,0 1.07333,0.13015 1.54252,0.39045c0.46919,0.25708 0.79536,0.49651 0.97853,0.71824c0.18318,0.21852 0.27477,0.34706 0.27477,0.38563c1.28544,-0.99621 2.67692,-1.49432 4.17444,-1.49432c1.49752,0 2.78296,0.58006 3.85629,1.74016c1.07655,1.1601 1.61483,2.95489 1.61483,5.38436c0,2.42947 -0.53828,4.31103 -1.61483,5.64467c-1.07333,1.33364 -2.4359,2.00046 -4.08767,2.00046c-0.74876,0 -1.43005,-0.03857 -2.04384,-0.11569zM199.46056,228.62661c-0.32779,0 -0.64432,0.10605 -0.94961,0.31814v5.09515c0.32457,0.03857 0.58809,0.05784 0.79055,0.05784c0.20245,0 0.36153,0 0.47722,0c0.78411,-0.07713 1.17618,-1.08458 1.17618,-3.02238c0,-1.6325 -0.49811,-2.44876 -1.49432,-2.44876zM218.95426,237.46718c-1.21152,0.7102 -2.76689,1.0653 -4.66612,1.0653c-1.89923,0 -3.50281,-0.64754 -4.81074,-1.94261c-1.30471,-1.29829 -1.95708,-3.09307 -1.95708,-5.38437c0,-2.2945 0.62826,-4.14231 1.88477,-5.54343c1.25973,-1.40113 2.84884,-2.10169 4.76736,-2.10169c1.91851,0 3.39997,0.49007 4.44439,1.47021c1.04763,0.97693 1.57144,2.16595 1.57144,3.56708c0,3.11075 -1.78514,4.66613 -5.35544,4.66613h-1.986c0,0.57523 0.15747,0.97372 0.4724,1.19545c0.31815,0.21852 0.78572,0.32779 1.40273,0.32779c1.34328,0 2.61908,-0.3069 3.82738,-0.92069c0.01928,-0.01928 0.10605,0.11569 0.2603,0.40491c0.45954,0.82589 0.68932,1.52164 0.68932,2.08722c0,0.56559 -0.18157,0.93516 -0.54471,1.10869zM215.35343,229.14722c0,-0.80661 -0.39366,-1.20991 -1.18099,-1.20991c-0.36313,0 -0.67486,0.11087 -0.93516,0.33261c-0.2603,0.21852 -0.39045,0.53828 -0.39045,0.95926v0.89659h1.55698c0.63308,0 0.94961,-0.32618 0.94961,-0.97854zM228.36789,238.21432c0,0.13497 -0.87409,0.20246 -2.62228,0.20246c-1.74498,-0.03857 -2.61747,-0.11569 -2.61747,-0.23138v-9.55882h-0.77608c-0.30851,0 -0.55435,-0.18639 -0.73752,-0.55916c-0.18318,-0.37599 -0.27476,-0.84196 -0.27476,-1.39791c0,-2.07277 0.6154,-3.10915 1.8462,-3.10915c0.86446,0 1.5843,0.26351 2.15953,0.79054c0.57523,0.52703 0.86285,1.12636 0.86285,1.798c0.4017,-0.78733 0.94319,-1.41558 1.62447,-1.88476c0.68128,-0.46919 1.37702,-0.70378 2.08722,-0.70378c1.11512,0 1.78836,0.28761 2.01974,0.86284c0.05463,0.15425 0.08195,0.38081 0.08195,0.67968c0,0.29565 -0.09159,0.8275 -0.27476,1.59555c-0.17996,0.76805 -0.36635,1.3256 -0.55917,1.67267c-0.19281,0.34385 -0.3085,0.51578 -0.34707,0.51578c-0.03535,0 -0.2121,-0.07231 -0.53024,-0.21692c-0.31815,-0.14461 -0.60094,-0.21692 -0.84838,-0.21692c-0.72949,0 -1.09423,0.57683 -1.09423,1.73051zM235.27699,227.79269c-0.53667,-0.96087 -0.80501,-1.74337 -0.80501,-2.34753c0,-0.60415 0.16229,-0.993 0.48686,-1.16653c1.09584,-0.47883 2.59819,-0.71823 4.50705,-0.71823c1.90887,0 3.25697,0.44669 4.0443,1.34007c0.78733,0.89016 1.18099,2.20934 1.18099,3.95753v4.55044h0.97854c0.32779,0 0.58166,0.19121 0.76162,0.57362c0.18318,0.38241 0.27476,0.91105 0.27476,1.58591c0,0.67164 -0.16871,1.33363 -0.50614,1.98599c-0.33421,0.65236 -0.78894,0.97854 -1.36417,0.97854c-1.03478,0 -1.87031,-0.27798 -2.5066,-0.83393c-0.28601,-0.23138 -0.50614,-0.51096 -0.66039,-0.83874c-0.88374,1.11512 -2.25594,1.67267 -4.1166,1.67267c-1.40112,0 -2.58211,-0.4981 -3.54298,-1.49431c-0.95765,-0.99942 -1.43648,-2.18203 -1.43648,-3.5478c0,-3.12682 1.87031,-4.69023 5.61093,-4.69023h1.58591v-0.28922c0,-0.49811 -0.08195,-0.81947 -0.24584,-0.96408c-0.1639,-0.14461 -0.54309,-0.21692 -1.13761,-0.21692c-0.72949,0 -1.76586,0.15425 -3.10914,0.46276zM237.58113,233.09029c0,0.42098 0.11409,0.74234 0.34225,0.96407c0.23138,0.22174 0.52381,0.33261 0.8773,0.33261c0.35671,0 0.67968,-0.14461 0.9689,-0.43383v-2.21737h-0.805c-0.9223,0 -1.38345,0.45151 -1.38345,1.35453zM254.97328,238.06971c0,0.23138 -0.80661,0.34707 -2.41983,0.34707c-1.91851,-0.07713 -2.87777,-0.20245 -2.87777,-0.37599v-10.19029h-1.47021c-0.38563,0 -0.57845,-0.662 -0.57845,-1.986c0,-0.34706 0.03375,-0.76965 0.10123,-1.26776c0.06748,-0.50132 0.20728,-0.75198 0.41938,-0.75198h1.52806v-2.5307c0,-0.38563 0.80982,-0.57845 2.42947,-0.57845c1.62286,0 2.43429,0.15425 2.43429,0.46276v1.84139l0.02893,0.805h2.44875c0.32457,0 0.48686,0.67324 0.48686,2.01974c0,1.34328 -0.16229,2.01492 -0.48686,2.01492h-2.04384zM264.21427,238.06971c0,0.15425 -0.87892,0.23138 -2.63675,0.23138c-1.75462,0 -2.63192,-0.06748 -2.63192,-0.20245v-14.13817c0,-0.13176 0.8773,-0.19764 2.63192,-0.19764c1.75783,0 2.63675,0.05624 2.63675,0.16872zM264.21427,222.23479c0,0.13497 -0.87892,0.20245 -2.63675,0.20245c-1.75462,0 -2.63192,-0.05784 -2.63192,-0.17353v-4.14552c0,-0.19281 0.8773,-0.28923 2.63192,-0.28923c1.75783,0 2.63675,0.05785 2.63675,0.17354zM268.05432,236.5465c-1.19867,-1.32721 -1.798,-3.16056 -1.798,-5.50005c0,-2.3427 0.59933,-4.17606 1.798,-5.50006c1.20188,-1.32399 2.81992,-1.986 4.85412,-1.986c2.0342,0 3.64582,0.662 4.83484,1.986c1.19224,1.32399 1.78836,3.15735 1.78836,5.50006c0,2.33949 -0.59612,4.17284 -1.78836,5.50005c-1.18903,1.324 -2.80064,1.986 -4.83484,1.986c-2.0342,0 -3.65224,-0.662 -4.85412,-1.986zM272.92291,228.36631c-1.08298,0 -1.62446,0.88374 -1.62446,2.65121c0,1.76426 0.54148,2.64639 1.62446,2.64639c1.08619,0 1.62929,-0.88213 1.62929,-2.64639c0,-1.76747 -0.54309,-2.65121 -1.62929,-2.65121zM287.59208,238.06971c0,0.13497 -0.69092,0.20246 -2.07277,0.20246c-1.91851,-0.05784 -2.87777,-0.1639 -2.87777,-0.31815v-9.32744h-0.75198c-0.49811,0 -0.82429,-0.42258 -0.97854,-1.26776c-0.03857,-0.24744 -0.05784,-0.49649 -0.05784,-0.74715c0,-0.59452 0.11568,-1.18902 0.34706,-1.78354c0.34706,-0.84518 0.88534,-1.26776 1.61482,-1.26776c0.72949,0 1.38185,0.17354 1.95708,0.5206c0.57523,0.34385 0.95925,0.6877 1.15207,1.03156c1.20831,-1.03477 2.64639,-1.55216 4.31424,-1.55216c1.67106,0 2.88098,0.4515 3.62975,1.35452c0.74876,0.8998 1.12315,2.37645 1.12315,4.42993v8.63812c0,0.23138 -0.82108,0.34706 -2.46321,0.34706c-1.63893,0 -2.45839,-0.11568 -2.45839,-0.34706v-8.31998c0,-0.96087 -0.33582,-1.44129 -1.00746,-1.44129c-0.19281,0 -0.46276,0.08195 -0.80983,0.24584c-0.34386,0.16389 -0.56398,0.2844 -0.66039,0.36153zM298.04326,233.06136c1.55538,0.94158 2.78457,1.41237 3.68759,1.41237c0.57523,0 0.86285,-0.20246 0.86285,-0.60737c0,-0.28601 -0.49972,-0.66039 -1.49914,-1.12315c-2.39733,-0.97693 -3.596,-2.5789 -3.596,-4.80592c0,-1.4204 0.51739,-2.505 1.55217,-3.25376c1.03799,-0.74876 2.28165,-1.12314 3.73097,-1.12314c1.44932,0 2.67692,0.15425 3.68277,0.46275c1.00907,0.30529 1.5136,0.70699 1.5136,1.2051c0,0.42419 -0.20727,0.98175 -0.62183,1.67267c-0.41134,0.69092 -0.69414,1.06531 -0.84839,1.12315c-0.82589,-0.46275 -1.71766,-0.69414 -2.67531,-0.69414c-0.51739,0 -0.77608,0.18318 -0.77608,0.54953c0,0.22816 0.09962,0.42419 0.29886,0.58809c0.20245,0.16389 0.57201,0.36635 1.10868,0.60737c0.53667,0.23781 0.98175,0.45312 1.33524,0.64593c0.35671,0.19281 0.7568,0.46114 1.20028,0.805c0.9223,0.72949 1.38345,1.68071 1.38345,2.85367c0,1.53288 -0.50935,2.77494 -1.52806,3.72616c-1.01871,0.95122 -2.55481,1.42683 -4.60829,1.42683c-1.36256,0 -2.60139,-0.22976 -3.71651,-0.68931c-1.1119,-0.46276 -1.66786,-1.09744 -1.66786,-1.90405c0,-0.53667 0.13015,-1.10226 0.39045,-1.69678c0.2603,-0.59452 0.52381,-0.98818 0.79054,-1.18099z" fill="#ffffff" stroke="none" stroke-width="1" stroke-linecap="square"/><path d="M256.08243,183.33308c-8.86287,4.61869 -21.96756,11.44791 -26.13333,13.61881c-2.53341,1.32023 -5.28243,0.48062 -5.28243,-2.95117c0,-9.03903 0,-26.12266 0,-30.92025c0,-2.46175 2.36782,-3.83204 4.63757,-2.64921c4.03987,2.10529 17.56341,9.15278 26.66667,13.89674c5.01997,2.61605 5.06657,6.42288 0.11152,9.00509z" fill="none" stroke-opacity="0.47451" stroke="#000000" stroke-width="10" stroke-linecap="butt"/><path d="M256.08243,183.33308c-8.86287,4.61869 -21.96756,11.44791 -26.13333,13.61881c-2.53341,1.32023 -5.28243,0.48062 -5.28243,-2.95117c0,-9.03903 0,-26.12266 0,-30.92025c0,-2.46175 2.36782,-3.83204 4.63757,-2.64921c4.03987,2.10529 17.56341,9.15278 26.66667,13.89674c5.01997,2.61605 5.06657,6.42288 0.11152,9.00509z" fill="#ffffff" stroke="none" stroke-width="0" stroke-linecap="butt"/></g></g></svg>
