<svg version="1.1" xmlns="http://www.w3.org/2000/svg" xmlns:xlink="http://www.w3.org/1999/xlink" width="309.2973" height="159.64866" viewBox="0,0,309.2973,159.64866"><defs><linearGradient x1="240" y1="105.17567" x2="240" y2="254.82433" gradientUnits="userSpaceOnUse" id="color-1"><stop offset="0" stop-color="#421c00"/><stop offset="1" stop-color="#843700"/></linearGradient></defs><g transform="translate(-85.35135,-100.17566)"><g data-paper-data="{&quot;isPaintingLayer&quot;:true}" fill-rule="nonzero" stroke-linejoin="miter" stroke-miterlimit="10" stroke-dasharray="" stroke-dashoffset="0" style="mix-blend-mode: normal"><path d="M93.35134,253.32429v-146.64866h293.29732v146.64866z" fill="#ed6300" stroke="none" stroke-width="0" stroke-linecap="butt"/><path d="M132.26036,198.90674h0.57582h0.57582l0.13595,0.93571c0.07198,0.51184 0.16795,0.9677 0.19994,0.99969c0.03999,0.03999 0.40787,0.05598 0.82374,0.04799l0.75177,-0.02399l0.19994,-0.89571c0.11196,-0.48784 0.22393,-0.91172 0.24793,-0.94371c0.03199,-0.024 0.2879,-0.02399 0.57582,0.008l0.52784,0.05598l0.02399,0.99968l0.02399,1.00769l0.75976,0.13595c0.41587,0.07198 0.78376,0.11196 0.80775,0.07998c0.03199,-0.024 0.18394,-0.40787 0.35189,-0.84774c0.15995,-0.43986 0.3199,-0.83174 0.35988,-0.86373c0.06398,-0.07198 0.85574,0.07198 1.03168,0.17595c0.05598,0.03999 0.04799,0.3039 -0.03199,0.84774c-0.17595,1.22362 -0.21593,1.11965 0.54384,1.35958c0.35989,0.11196 0.69578,0.22393 0.75177,0.24793c0.05598,0.02399 0.27991,-0.30391 0.54383,-0.79975c0.24793,-0.46385 0.47186,-0.86373 0.50385,-0.87973c0.04799,-0.03199 0.9597,0.3039 1.03168,0.38388c0.016,0.016 -0.07998,0.41587 -0.21594,0.89572c-0.12796,0.47985 -0.23992,0.91172 -0.23992,0.95171c0,0.06398 1.2716,0.75976 1.39157,0.75976c0.016,0 0.28791,-0.3439 0.59981,-0.75976c0.3119,-0.41587 0.60781,-0.75976 0.6478,-0.75976c0.05598,0 0.84774,0.43186 0.93571,0.51184c0.016,0.00799 -0.15994,0.42387 -0.37588,0.92771c-0.22393,0.49585 -0.39187,0.91171 -0.38388,0.91971c0.25592,0.19194 1.2716,0.83973 1.31959,0.83973c0.03199,0 0.36789,-0.3039 0.74377,-0.67978l0.67979,-0.67179l0.42387,0.3199c0.22393,0.17595 0.41587,0.3519 0.41587,0.38388c0,0.03199 -0.22393,0.43186 -0.49585,0.87173l-0.48784,0.81575l0.54383,0.49585c0.29591,0.27991 0.57582,0.51984 0.61581,0.52783c0.03199,0.016 0.39987,-0.22393 0.81574,-0.53583c0.43986,-0.3439 0.79175,-0.55183 0.86373,-0.52783c0.06398,0.02399 0.24793,0.20793 0.41587,0.40787l0.29591,0.35189l-0.53583,0.66379c-0.29591,0.35988 -0.57582,0.70378 -0.61581,0.75176c-0.05598,0.07198 0.06397,0.27192 0.38388,0.66379c0.25592,0.3119 0.49585,0.58382 0.52784,0.60781c0.03999,0.02399 0.43186,-0.15995 0.86373,-0.39988c0.43186,-0.24793 0.83174,-0.44786 0.87172,-0.44786c0.08797,0 0.6558,0.73577 0.6558,0.85574c0,0.03999 -0.30391,0.3519 -0.67979,0.69579c-0.37588,0.33589 -0.67979,0.6478 -0.67979,0.68778c0,0.03999 0.18394,0.35189 0.40787,0.70378l0.39988,0.6318l0.91971,-0.35988c0.50384,-0.19194 0.92771,-0.3439 0.9437,-0.3279c0.06398,0.08797 0.52784,0.9837 0.50384,0.99169c-0.00799,0.008 -0.36789,0.26391 -0.79175,0.55183c-0.43186,0.29591 -0.78375,0.56783 -0.78375,0.59182c0,0.03999 0.53583,1.31159 0.60781,1.43955c0,0.00799 0.43986,-0.08797 0.9597,-0.21594c1.07166,-0.25592 0.98369,-0.28791 1.23161,0.42386l0.14396,0.42387l-0.87172,0.43186c-0.47985,0.23193 -0.87173,0.46385 -0.87173,0.51184c0.00799,0.11196 0.39188,1.41556 0.43186,1.46354c0.02399,0.016 0.46385,-0.00799 0.9757,-0.06398c1.05568,-0.10397 1.02368,-0.11996 1.11165,0.46385c0.03199,0.19194 0.07198,0.39988 0.08798,0.45586c0.03199,0.07198 -0.14395,0.16795 -0.50384,0.27991c-0.29591,0.10397 -0.72777,0.24793 -0.95171,0.3279l-0.40788,0.15195l0.10397,0.70378c0.06398,0.38388 0.11196,0.73577 0.11196,0.78375c0,0.05598 0.35189,0.11196 0.9757,0.14396c0.54383,0.03199 0.99169,0.07198 1.00769,0.07998c0.00799,0.016 0.02399,0.27192 0.03999,0.56782l0.016,0.55183l-0.55983,0.10397c-0.3039,0.06398 -0.73577,0.14395 -0.9597,0.19194l-0.39987,0.07198v0.79975v0.79975l0.39987,0.07997c0.22393,0.04799 0.6558,0.12796 0.9597,0.18394l0.55983,0.10397l-0.016,0.54383c-0.016,0.3039 -0.03199,0.55982 -0.04799,0.57582c-0.00799,0.016 -0.45586,0.04799 -0.99169,0.07997l-0.9677,0.05598l-0.09597,0.68779c-0.04799,0.37588 -0.09597,0.73577 -0.10397,0.79975c-0.00799,0.07198 0.28791,0.20794 0.89572,0.41587c0.50384,0.16795 0.91971,0.3199 0.93571,0.32789c0.03199,0.03199 -0.18395,1.02369 -0.23193,1.07166c-0.02399,0.02399 -0.46385,0 -0.97569,-0.04799c-0.51184,-0.04799 -0.95171,-0.07998 -0.9677,-0.05598c-0.03999,0.03999 -0.43186,1.35157 -0.43186,1.45555c0,0.04799 0.39187,0.27992 0.87172,0.51984l0.87173,0.42387l-0.18394,0.51184c-0.10397,0.28791 -0.19993,0.52783 -0.21593,0.54383c-0.016,0.016 -0.22393,-0.01599 -0.46385,-0.07998c-0.23992,-0.06398 -0.6638,-0.16795 -0.94371,-0.23193l-0.51184,-0.11996l-0.3119,0.68779c-0.16795,0.37588 -0.3119,0.71178 -0.3119,0.74376c0,0.03999 0.3519,0.3119 0.78376,0.60781c0.42387,0.28791 0.78375,0.54384 0.79975,0.55183c0.03999,0.03199 -0.50384,0.99968 -0.56782,0.99968c-0.03199,0 -0.44787,-0.15994 -0.93571,-0.35189l-0.87172,-0.35189l-0.35989,0.57582c-0.19994,0.3199 -0.38388,0.6398 -0.40787,0.70378c-0.03199,0.07997 0.17594,0.3279 0.6478,0.76776c0.78376,0.72778 0.77576,0.69579 0.25592,1.32758l-0.22393,0.27991l-0.85574,-0.48784l-0.84774,-0.49584l-0.23992,0.27992c-0.79975,0.94371 -0.79975,0.9437 -0.68778,1.09565c0.05598,0.07198 0.33589,0.41588 0.6158,0.75976l0.51184,0.61581l-0.33589,0.39988c-0.18394,0.22393 -0.37588,0.39988 -0.42387,0.39988c-0.03999,0 -0.41587,-0.25592 -0.83174,-0.55982c-0.48784,-0.37588 -0.78376,-0.54383 -0.85574,-0.50385c-0.05598,0.03199 -0.3279,0.27191 -0.60781,0.51984l-0.50384,0.45586l0.50384,0.84774c0.55183,0.92771 0.55183,0.88772 -0.02399,1.29559l-0.35189,0.25592l-0.67179,-0.67979c-0.36789,-0.36789 -0.69578,-0.67179 -0.73577,-0.67179c-0.04799,0 -1.04767,0.6398 -1.31959,0.83974c-0.00799,0.008 0.15995,0.42387 0.38388,0.91971c0.21594,0.50384 0.39187,0.91971 0.37588,0.92771c-0.00799,0.00799 -0.23192,0.14396 -0.48784,0.29591l-0.47185,0.2879l-0.55183,-0.73577c-0.3039,-0.40787 -0.58382,-0.76775 -0.61581,-0.79974c-0.07998,-0.07997 -1.44755,0.58382 -1.44755,0.70378c0,0.03999 0.11196,0.47186 0.23992,0.95171c0.13595,0.47985 0.23192,0.87973 0.21594,0.89572c-0.07198,0.07998 -0.9837,0.41587 -1.03168,0.38388c-0.03199,-0.01599 -0.25592,-0.40787 -0.49584,-0.86372l-0.44786,-0.83174l-0.73577,0.23992c-0.40787,0.12796 -0.75976,0.24792 -0.77576,0.27192c-0.016,0.01599 0.02399,0.44786 0.09597,0.9677c0.07998,0.6318 0.09597,0.9597 0.04799,0.99169c-0.17595,0.10397 -0.9677,0.24792 -1.03168,0.17595c-0.03999,-0.03199 -0.17594,-0.35189 -0.3039,-0.70378c-0.13595,-0.35189 -0.27992,-0.73577 -0.3199,-0.84774l-0.07997,-0.20794l-0.79175,0.13595l-0.78376,0.12796l-0.02399,1.00768l-0.02399,1.00769l-0.51984,0.05598c-0.2879,0.03199 -0.55183,0.03199 -0.57583,0c-0.03199,-0.02399 -0.14395,-0.45586 -0.25591,-0.94371l-0.19994,-0.89572l-0.75177,-0.02399c-0.41587,-0.008 -0.78376,0.00799 -0.82375,0.04798c-0.03199,0.03199 -0.12796,0.48785 -0.19994,0.99968l-0.13595,0.93571h-0.57583h-0.57582l-0.05598,-0.62381c-0.10397,-1.36757 -0.10397,-1.36757 -0.38388,-1.41555c-0.14396,-0.024 -0.50385,-0.04799 -0.80775,-0.06398l-0.54383,-0.01599l-0.26391,0.87973l-0.25592,0.87973l-0.35189,-0.008c-0.19194,0 -0.45586,-0.03199 -0.58382,-0.06398l-0.22393,-0.05598l0.05598,-0.9837l0.05598,-0.97569l-0.77576,-0.20794l-0.77576,-0.19994l-0.42387,0.90371c-0.27991,0.59181 -0.46385,0.89572 -0.53583,0.87973c-0.05598,-0.02399 -0.2959,-0.09597 -0.51984,-0.16794c-0.23193,-0.07198 -0.42387,-0.17595 -0.42387,-0.22393c0,-0.05598 0.07997,-0.48784 0.16795,-0.9597c0.10397,-0.50384 0.14396,-0.88772 0.10397,-0.92771c-0.16795,-0.15195 -1.40756,-0.58382 -1.45555,-0.51185c-0.03199,0.03999 -0.26391,0.40787 -0.51984,0.80775c-0.26391,0.40787 -0.50385,0.73577 -0.54383,0.73577c-0.15195,0 -0.95171,-0.43986 -0.95171,-0.51984c0,-0.04799 0.14396,-0.47185 0.3119,-0.9437l0.31191,-0.86373l-0.17595,-0.10396c-0.9757,-0.59181 -1.19163,-0.68779 -1.29559,-0.59982c-0.06398,0.05598 -0.35189,0.37589 -0.6478,0.71978c-0.2879,0.3519 -0.55983,0.6318 -0.59981,0.6318c-0.04799,0 -0.27191,-0.13596 -0.50384,-0.29591l-0.42387,-0.3039l0.43186,-0.84774c0.23992,-0.46386 0.43187,-0.86373 0.43187,-0.88773c0,-0.03199 -0.27192,-0.27191 -0.60781,-0.53583l-0.61581,-0.48784l-0.60781,0.53583c-0.33589,0.29591 -0.67179,0.58382 -0.74377,0.6478c-0.12796,0.10397 -0.17595,0.08798 -0.51184,-0.18394c-0.19994,-0.16794 -0.38388,-0.35189 -0.40787,-0.40787c-0.016,-0.05598 0.21593,-0.45586 0.52783,-0.88773l0.55983,-0.78376l-0.56782,-0.57582l-0.56782,-0.56782l-0.79175,0.51184c-0.43186,0.27991 -0.81575,0.51184 -0.85573,0.51184c-0.03999,0 -0.22393,-0.18394 -0.40787,-0.39988l-0.33589,-0.39988l0.67979,-0.74376l0.67979,-0.73577l-0.43986,-0.59981c-0.23992,-0.3279 -0.47985,-0.60781 -0.53583,-0.62381c-0.04799,-0.00799 -0.46385,0.15995 -0.91971,0.38388c-0.45586,0.22393 -0.85573,0.37588 -0.87973,0.3359c-0.45586,-0.68779 -0.58382,-0.91972 -0.51184,-0.9597c0.21594,-0.15195 1.46354,-1.16763 1.46354,-1.19962c0,-0.02399 -0.16795,-0.3439 -0.36789,-0.71178c-0.42387,-0.77576 -0.3039,-0.75177 -1.53552,-0.33589c-0.37588,0.12796 -0.69578,0.21594 -0.71977,0.19994c-0.016,-0.016 -0.12796,-0.24792 -0.25592,-0.51184c-0.16795,-0.35988 -0.20793,-0.50384 -0.13595,-0.55982c0.05598,-0.03999 0.43986,-0.27191 0.86373,-0.51984l0.76776,-0.44787l-0.27991,-0.76775c-0.21594,-0.57582 -0.3119,-0.75177 -0.40787,-0.72778c-0.3279,0.09597 -1.78345,0.29591 -1.82343,0.25592c-0.02399,-0.02399 -0.10396,-0.27192 -0.18394,-0.55183l-0.14396,-0.51184l0.85574,-0.3439c0.46385,-0.19194 0.87972,-0.36789 0.91171,-0.39988c0.05598,-0.05598 -0.07997,-0.90371 -0.23992,-1.47154c-0.03999,-0.14396 -0.10397,-0.15195 -1.03168,-0.09597l-0.98369,0.04799l-0.04799,-0.37588c-0.02399,-0.21594 -0.06398,-0.47186 -0.08797,-0.58382c-0.03199,-0.19194 -0.008,-0.20793 0.90372,-0.44786l0.9437,-0.23992l-0.02399,-0.79975c-0.016,-0.43186 -0.03999,-0.79975 -0.04799,-0.80775c-0.00799,-0.00799 -0.33589,-0.05598 -0.72777,-0.09597c-0.39988,-0.04799 -0.83974,-0.10397 -0.9757,-0.12796l-0.26391,-0.04799v-0.55183v-0.55183l0.26391,-0.03999c0.13595,-0.02399 0.57582,-0.07998 0.9757,-0.12796c0.39187,-0.04799 0.71977,-0.09597 0.72777,-0.10397c0.00799,-0.008 0.03199,-0.37589 0.04799,-0.80775l0.02399,-0.79175l-0.9437,-0.24793c-0.91171,-0.23992 -0.93571,-0.24792 -0.90372,-0.44786c0.02399,-0.11196 0.06398,-0.36789 0.08797,-0.57582l0.04799,-0.38388l0.98369,0.05598c0.92771,0.04799 0.99169,0.03999 1.03168,-0.10397c0.15995,-0.56782 0.29591,-1.41556 0.23992,-1.47154c-0.03199,-0.03199 -0.44786,-0.20794 -0.91171,-0.39988l-0.85574,-0.34389l0.14396,-0.51184c0.07998,-0.27991 0.15995,-0.52783 0.17595,-0.55183c0.02399,-0.016 0.47185,0.03199 0.99169,0.11996c0.51984,0.08797 0.9597,0.15195 0.9597,0.14396c0.00799,-0.008 0.14395,-0.35189 0.2959,-0.75976l0.27192,-0.74376l-0.82375,-0.47985c-0.45586,-0.27192 -0.83174,-0.53583 -0.83174,-0.59182c0,-0.20793 0.40787,-0.99169 0.50384,-0.95969c0.05598,0.016 0.44787,0.14396 0.87973,0.27991c0.43186,0.14396 0.82375,0.23992 0.87973,0.21594c0.14396,-0.05598 0.80775,-1.33559 0.72777,-1.40756c-0.03999,-0.03199 -0.35988,-0.28791 -0.71177,-0.56782c-0.35189,-0.27991 -0.67179,-0.53583 -0.70378,-0.56782c-0.05598,-0.03999 0.35189,-0.79975 0.54383,-1.01569c0.016,-0.016 0.39188,0.15995 0.83974,0.38388c0.44786,0.22393 0.86373,0.39988 0.91971,0.38389c0.05598,-0.016 0.3039,-0.29591 0.54383,-0.62381l0.44787,-0.59982l-0.37589,-0.39988c-0.20793,-0.22393 -0.51984,-0.55183 -0.68778,-0.73577l-0.3119,-0.33589l0.33589,-0.39988c0.19194,-0.22393 0.37589,-0.40787 0.41587,-0.40787c0.03199,0 0.41587,0.23193 0.84774,0.51184l0.78376,0.51984l0.57582,-0.56782c0.35189,-0.3439 0.55183,-0.60781 0.51184,-0.65579c-0.44786,-0.59981 -1.04767,-1.48754 -1.04767,-1.55152c0,-0.04799 0.18394,-0.23192 0.39987,-0.41587l0.39988,-0.33589l0.27192,0.23193c0.15195,0.11996 0.48784,0.41587 0.75177,0.6398l0.47985,0.42387l0.60781,-0.47985c0.33589,-0.26391 0.60781,-0.50384 0.60781,-0.53583c0,-0.02399 -0.19194,-0.43186 -0.43187,-0.89572l-0.43186,-0.84774l0.42387,-0.3039c0.23193,-0.15995 0.45585,-0.29591 0.50384,-0.29591c0.03999,0 0.3119,0.27991 0.59982,0.6318c0.29591,0.3439 0.58382,0.66379 0.6478,0.71978c0.10397,0.08797 0.3199,-0.008 1.29559,-0.59982l0.17595,-0.10396l-0.31191,-0.86373c-0.16795,-0.47186 -0.3119,-0.89572 -0.3119,-0.94371c0,-0.07998 0.79975,-0.51984 0.95171,-0.51984c0.03999,0 0.27992,0.3279 0.54383,0.73577c0.25592,0.39988 0.48784,0.76776 0.51984,0.81574c0.04799,0.07198 1.2716,-0.35988 1.45555,-0.51984c0.03999,-0.03999 0,-0.42387 -0.10396,-0.92771c-0.08797,-0.47186 -0.16795,-0.90372 -0.16795,-0.95171c0,-0.04799 0.20793,-0.15195 0.46385,-0.23192c0.24793,-0.07998 0.47985,-0.15995 0.51984,-0.17595c0.03199,-0.024 0.25592,0.37588 0.48784,0.87973l0.43187,0.91171l0.77575,-0.19994l0.77576,-0.20793l-0.05598,-0.9757l-0.05598,-0.98369l0.22393,-0.05598c0.12796,-0.03199 0.39187,-0.06398 0.58382,-0.06398l0.3439,-0.008l0.26391,0.87973l0.25592,0.87973l0.55183,-0.016c0.3039,-0.016 0.66379,-0.03998 0.80775,-0.06398c0.27991,-0.04799 0.27992,-0.04799 0.38388,-1.42356zM132.96414,220.53198c-1.76745,0.38388 -2.99906,2.15932 -2.71915,3.90278c0.3039,1.91141 2.12733,3.26298 3.96676,2.95907c1.91141,-0.3199 3.24698,-2.14333 2.93508,-3.98275c-0.24793,-1.43155 -1.2796,-2.54321 -2.67117,-2.8711c-0.59982,-0.13596 -0.91172,-0.14395 -1.51153,-0.008z" data-paper-data="{&quot;index&quot;:null}" fill-opacity="0.50196" fill="#000000" stroke="none" stroke-width="1" stroke-linecap="butt"/><path d="M169.6699,188.69808l0.36086,0.00396l0.36085,0.00396l0.07877,0.58732c0.04158,0.32126 0.09859,0.60759 0.11842,0.62786c0.02479,0.02534 0.25522,0.03788 0.5159,0.03573l0.47128,-0.00986l0.13146,-0.55995c0.07352,-0.30496 0.1466,-0.56982 0.16186,-0.5897c0.02022,-0.01481 0.18059,-0.01306 0.3608,0.00897l0.3304,0.03871l0.00815,0.62664l0.00811,0.63166l0.47519,0.09043c0.26012,0.04797 0.49039,0.07555 0.50565,0.05567c0.02022,-0.01481 0.11808,-0.25433 0.22635,-0.52883c0.10326,-0.27455 0.2062,-0.51904 0.23148,-0.5388c0.04059,-0.04467 0.53577,0.05099 0.64532,0.11736c0.03481,0.02544 0.02798,0.19078 -0.02588,0.53103c-0.11867,0.7656 -0.14303,0.70018 0.33146,0.85576c0.22476,0.07264 0.43449,0.14512 0.46941,0.16054c0.03492,0.01542 0.1775,-0.18852 0.3463,-0.49744c0.15856,-0.28898 0.30164,-0.53803 0.3218,-0.54784c0.0303,-0.01972 0.59933,0.19706 0.64389,0.24767c0.00991,0.01013 -0.05298,0.26006 -0.14148,0.55984c-0.08349,0.29983 -0.15663,0.5697 -0.15691,0.59476c-0.00044,0.0401 0.79166,0.48487 0.86684,0.48569c0.01002,0.00011 0.18279,-0.21353 0.38112,-0.47199c0.19833,-0.25848 0.38612,-0.47195 0.41118,-0.47168c0.03508,0.00038 0.52829,0.27648 0.58287,0.3272c0.00997,0.00512 -0.10315,0.26452 -0.24194,0.57879c-0.14375,0.30919 -0.25185,0.56866 -0.2469,0.57372c0.15906,0.12205 0.79111,0.53499 0.82118,0.53533c0.02005,0.00022 0.23264,-0.18792 0.47078,-0.4209l0.43063,-0.41633l0.26342,0.20339c0.13912,0.1118 0.2582,0.22338 0.25798,0.24343c-0.00022,0.02005 -0.1433,0.2691 -0.31673,0.54288l-0.31134,0.50786l0.3374,0.31447c0.18351,0.17745 0.35728,0.32974 0.38229,0.33502c0.01993,0.01024 0.25213,-0.13758 0.5149,-0.33019c0.27802,-0.21248 0.49997,-0.34037 0.54491,-0.32484c0.03993,0.01548 0.15394,0.13201 0.25781,0.25847l0.18302,0.22256l-0.34036,0.4123c-0.18791,0.2235 -0.3657,0.43708 -0.39109,0.46688c-0.03557,0.04472 0.03823,0.17084 0.23601,0.41862c0.15823,0.19723 0.30671,0.36928 0.3266,0.38453c0.0249,0.01531 0.27175,-0.09727 0.54404,-0.24465c0.27234,-0.1524 0.52432,-0.27495 0.54937,-0.27467c0.05513,0.00061 0.40591,0.46561 0.40508,0.54078c-0.00027,0.02506 -0.19287,0.21843 -0.43079,0.43135c-0.23786,0.20791 -0.43047,0.40129 -0.43074,0.42634c-0.00027,0.02506 0.11286,0.22179 0.25077,0.44385l0.24625,0.39869l0.57885,-0.2192c0.31707,-0.11682 0.58374,-0.20913 0.59365,-0.19899c0.03949,0.05557 0.32402,0.62009 0.30893,0.62493c-0.00507,0.00496 -0.23236,0.16286 -0.49997,0.34037c-0.27267,0.18247 -0.49507,0.35045 -0.49523,0.36549c-0.00027,0.02506 0.32677,0.82563 0.37099,0.90632c-0.00005,0.00501 0.27626,-0.0521 0.60291,-0.12872c0.67335,-0.15301 0.61844,-0.17366 0.76891,0.2741l0.0873,0.26662l-0.54926,0.26465c-0.30231,0.14204 -0.54949,0.28469 -0.54982,0.31476c0.00425,0.07022 0.23585,0.88979 0.26058,0.92014c0.01493,0.01019 0.29074,-0.00182 0.61188,-0.03339c0.66228,-0.05789 0.64235,-0.06813 0.69346,0.29834c0.01873,0.12051 0.04235,0.25109 0.05199,0.28628c0.01956,0.04532 -0.09137,0.10425 -0.31767,0.17194c-0.18615,0.06312 -0.45779,0.15036 -0.59867,0.19894l-0.25666,0.09241l0.06032,0.44176c0.03746,0.24101 0.06511,0.46186 0.06477,0.49193c-0.00038,0.03509 0.21976,0.07259 0.61046,0.09692c0.34058,0.02379 0.62098,0.05193 0.63094,0.05705c0.0049,0.01008 0.01316,0.17057 0.02115,0.35612l0.00623,0.34593l-0.35154,0.06131c-0.19089,0.038 -0.46209,0.08515 -0.60275,0.11369l-0.25109,0.04235l-0.00551,0.50118l-0.0055,0.50119l0.25005,0.05287c0.14,0.03161 0.41009,0.0847 0.60015,0.12187l0.35012,0.06901l-0.01376,0.3407c-0.01211,0.19034 -0.0239,0.35061 -0.03403,0.36052c-0.00512,0.00997 -0.286,0.02694 -0.62202,0.0433l-0.60682,0.02842l-0.06487,0.43036c-0.03265,0.23523 -0.06521,0.46043 -0.07066,0.50047c-0.00551,0.04505 0.17899,0.13228 0.55847,0.26677c0.31459,0.10871 0.57416,0.20681 0.58414,0.21193c0.01983,0.02026 -0.12232,0.64026 -0.15272,0.66999c-0.0152,0.01487 -0.29069,-0.00319 -0.61112,-0.03678c-0.32043,-0.03359 -0.59587,-0.05667 -0.60605,-0.04174c-0.02533,0.02479 -0.27993,0.84404 -0.28065,0.90919c-0.00033,0.03008 0.24365,0.17811 0.54272,0.33177l0.54338,0.27163l-0.1188,0.31949c-0.06714,0.17971 -0.12893,0.32941 -0.13906,0.33933c-0.01013,0.00992 -0.14022,-0.01156 -0.29014,-0.05331c-0.14992,-0.04174 -0.41483,-0.10981 -0.58981,-0.15184l-0.31993,-0.0787l-0.20019,0.42888c-0.10784,0.23441 -0.20036,0.44391 -0.20058,0.46396c-0.00027,0.02506 0.21838,0.19788 0.48698,0.38629c0.26364,0.18335 0.48743,0.3462 0.49739,0.35133c0.02484,0.02032 -0.32263,0.62301 -0.36272,0.62257c-0.02005,-0.00022 -0.27956,-0.10332 -0.58396,-0.22696l-0.54387,-0.22652l-0.22949,0.35838c-0.1275,0.19909 -0.24497,0.39831 -0.26045,0.43824c-0.0206,0.0499 0.10801,0.2067 0.40069,0.4856c0.48615,0.46147 0.48136,0.44137 0.15124,0.83373l-0.14225,0.17387l-0.53292,-0.31161l-0.52785,-0.31656l-0.15229,0.17377c-0.50768,0.5859 -0.50768,0.5859 -0.43856,0.68189c0.03458,0.04549 0.20764,0.26293 0.38069,0.48036l0.31653,0.38944l-0.21325,0.24828c-0.11681,0.13906 -0.23831,0.24801 -0.26838,0.24768c-0.02506,-0.00027 -0.25886,-0.16324 -0.51738,-0.35655c-0.30313,-0.23891 -0.48742,-0.3462 -0.5328,-0.32164c-0.0353,0.01967 -0.20736,0.16815 -0.38448,0.3216l-0.31889,0.28221l0.30991,0.53472c0.33944,0.58517 0.33972,0.56011 -0.02394,0.81176l-0.22228,0.15795l-0.41632,-0.43063c-0.22802,-0.23308 -0.43141,-0.42578 -0.45647,-0.42605c-0.03007,-0.00033 -0.66096,0.39374 -0.83274,0.51717c-0.00507,0.00495 0.09732,0.26673 0.23424,0.579c0.13185,0.31723 0.23925,0.57906 0.22917,0.58396c-0.00507,0.00496 -0.14633,0.08862 -0.30775,0.18209l-0.29768,0.17718l-0.34076,-0.46489c-0.18764,-0.2577 -0.36058,-0.48515 -0.38041,-0.50543c-0.04957,-0.05067 -0.91116,0.35591 -0.91199,0.43108c-0.00027,0.02506 0.06692,0.29647 0.1438,0.59806c0.0819,0.30165 0.1393,0.5529 0.12916,0.56282c-0.04566,0.04962 -0.61932,0.25385 -0.64917,0.23347c-0.01993,-0.01024 -0.15758,-0.25736 -0.3048,-0.54469l-0.27495,-0.52432l-0.46274,0.1453c-0.25648,0.07738 -0.47783,0.15015 -0.48802,0.16507c-0.01013,0.00992 0.01195,0.28083 0.05348,0.60709c0.04577,0.39649 0.05354,0.60208 0.02325,0.6218c-0.11097,0.06394 -0.60814,0.14871 -0.64774,0.10317c-0.02484,-0.02032 -0.10784,-0.22174 -0.18561,-0.44314c-0.08278,-0.22145 -0.17035,-0.46302 -0.19464,-0.53346l-0.04869,-0.13085l-0.49711,0.07976l-0.49204,0.07479l-0.02196,0.63133l-0.02197,0.63133l-0.32616,0.03151c-0.18065,0.01807 -0.34604,0.01625 -0.36085,-0.00396c-0.01988,-0.01525 -0.08708,-0.28666 -0.15389,-0.59316l-0.11914,-0.5627l-0.47095,-0.02021c-0.26056,-0.00787 -0.49122,-0.00038 -0.51656,0.02441c-0.02026,0.01982 -0.08355,0.30485 -0.13217,0.62511l-0.09164,0.58545l-0.36086,-0.00396l-0.36085,-0.00396l-0.03079,-0.39131c-0.05575,-0.85774 -0.05575,-0.85775 -0.23083,-0.88974c-0.09005,-0.01603 -0.31542,-0.03354 -0.50576,-0.04565l-0.3407,-0.01377l-0.17144,0.54949l-0.16643,0.54955l-0.22047,-0.00743c-0.12028,-0.00132 -0.28546,-0.02318 -0.36543,-0.04411l-0.13995,-0.03662l0.04185,-0.61607l0.04179,-0.61106l-0.48472,-0.13565l-0.48478,-0.13063l-0.27184,0.56342c-0.17948,0.36895 -0.29685,0.55813 -0.34185,0.54762c-0.03492,-0.01542 -0.18478,-0.06217 -0.32461,-0.10882c-0.14485,-0.04671 -0.26442,-0.11318 -0.26409,-0.14325c0.00038,-0.03508 0.05347,-0.30517 0.11185,-0.60027c0.06862,-0.31503 0.09633,-0.55533 0.07154,-0.58066c-0.10421,-0.09638 -0.87807,-0.37555 -0.90864,-0.33077c-0.02032,0.02484 -0.16819,0.25379 -0.33133,0.50262c-0.16819,0.25379 -0.32081,0.45762 -0.34587,0.45735c-0.09522,-0.00105 -0.59339,-0.2822 -0.59284,-0.33231c0.00033,-0.03008 0.09346,-0.29471 0.20195,-0.58926l0.20141,-0.53913l-0.10954,-0.06636c-0.60737,-0.37759 -0.74204,-0.43922 -0.8078,-0.3848c-0.04048,0.03464 -0.2231,0.23314 -0.41091,0.44661c-0.18285,0.21854 -0.35518,0.39209 -0.38024,0.39181c-0.03007,-0.00033 -0.16947,-0.08707 -0.31371,-0.18891l-0.26353,-0.19337l0.27647,-0.52828c0.15355,-0.28904 0.27658,-0.53831 0.27675,-0.55335c0.00022,-0.02005 -0.16853,-0.17227 -0.37722,-0.33997l-0.38255,-0.30996l-0.38459,0.33161c-0.21254,0.18312 -0.42501,0.36124 -0.47056,0.40085c-0.08091,0.06428 -0.11087,0.05392 -0.31949,-0.11879c-0.12414,-0.10663 -0.23815,-0.22317 -0.2528,-0.25841c-0.00964,-0.03519 0.13845,-0.28419 0.33688,-0.55269l0.35623,-0.48731l-0.35188,-0.36476l-0.35194,-0.35975l-0.4997,0.31532c-0.27256,0.17245 -0.51473,0.31515 -0.53979,0.31488c-0.02506,-0.00027 -0.13907,-0.11682 -0.25285,-0.2534l-0.20775,-0.25291l0.43113,-0.46143l0.43107,-0.45642l-0.27152,-0.37891c-0.1481,-0.20713 -0.29653,-0.3842 -0.3315,-0.39461c-0.03002,-0.00534 -0.29179,0.09704 -0.579,0.23424c-0.28722,0.13719 -0.53886,0.22967 -0.55362,0.20444c-0.28095,-0.43416 -0.35954,-0.58038 -0.31415,-0.60494c0.13637,-0.09374 0.9252,-0.72167 0.92542,-0.74171c0.00017,-0.01504 -0.10289,-0.21666 -0.22565,-0.44858c-0.26029,-0.48907 -0.18528,-0.47321 -0.95997,-0.22106c-0.23644,0.0776 -0.43752,0.13054 -0.45244,0.12035c-0.00992,-0.01013 -0.07849,-0.15625 -0.15686,-0.32252c-0.10278,-0.22669 -0.12684,-0.31717 -0.08135,-0.35177c0.03536,-0.02468 0.27753,-0.16737 0.54486,-0.31983l0.48422,-0.27538l-0.17014,-0.48306c-0.13136,-0.36234 -0.19029,-0.47326 -0.2506,-0.45888c-0.20614,0.05788 -1.11968,0.17317 -1.14446,0.14784c-0.01487,-0.0152 -0.06329,-0.17112 -0.11148,-0.34709l-0.08669,-0.32175l0.53863,-0.20963c0.29201,-0.11709 0.55383,-0.22449 0.57411,-0.24432c0.03547,-0.03469 -0.0439,-0.56689 -0.14023,-0.92383c-0.02407,-0.09049 -0.06411,-0.09594 -0.64587,-0.06724l-0.61679,0.0233l-0.02749,-0.23589c-0.01355,-0.13548 -0.03684,-0.29614 -0.05111,-0.36647c-0.01873,-0.12051 -0.00358,-0.13036 0.56942,-0.27445l0.59305,-0.14387l-0.00953,-0.50135c-0.00706,-0.27075 -0.01956,-0.50146 -0.02451,-0.50653c-0.00495,-0.00507 -0.21012,-0.0374 -0.45542,-0.06515c-0.25026,-0.03283 -0.52553,-0.07093 -0.61057,-0.0869l-0.16507,-0.03189l0.0038,-0.34582l0.00379,-0.34582l0.16566,-0.02325c0.08536,-0.0141 0.36141,-0.04615 0.61233,-0.07348c0.24591,-0.02738 0.45173,-0.05519 0.45679,-0.06015c0.00507,-0.00496 0.02263,-0.23534 0.03563,-0.50587l0.02048,-0.496l-0.58969,-0.16186c-0.5697,-0.15663 -0.58468,-0.16181 -0.56326,-0.28689c0.01581,-0.07 0.04262,-0.2301 0.05909,-0.36025l0.03271,-0.24024l0.61607,0.04185c0.58104,0.03645 0.6212,0.03188 0.64725,-0.05805c0.10414,-0.35474 0.19517,-0.88506 0.16048,-0.92054c-0.01982,-0.02026 -0.27923,-0.13339 -0.5686,-0.25687l-0.53391,-0.2214l0.09374,-0.31976c0.05204,-0.17487 0.10387,-0.32968 0.11406,-0.34461c0.01514,-0.00986 0.29548,0.02329 0.62064,0.082c0.32516,0.05871 0.60038,0.10182 0.60044,0.09681c0.00507,-0.00496 0.09264,-0.21953 0.19066,-0.47409l0.17552,-0.46424l-0.51292,-0.30638c-0.28381,-0.17354 -0.51755,-0.34151 -0.51716,-0.3766c0.00143,-0.13031 0.26243,-0.61866 0.32235,-0.59796c0.03498,0.01041 0.27967,0.0933 0.54938,0.18147c0.26965,0.09319 0.51458,0.15602 0.54982,0.14138c0.0906,-0.0341 0.51538,-0.83142 0.46576,-0.87708c-0.02484,-0.02033 -0.22356,-0.18291 -0.44215,-0.36074c-0.21859,-0.17783 -0.41731,-0.34042 -0.43714,-0.36068c-0.03481,-0.02544 0.22603,-0.49877 0.3478,-0.63276c0.01013,-0.00992 0.24448,0.10293 0.52361,0.24634c0.27912,0.14341 0.53853,0.25654 0.57372,0.2469c0.03519,-0.00964 0.19249,-0.18335 0.3451,-0.38718l0.28479,-0.37281l-0.23281,-0.25318c-0.12877,-0.14176 -0.32198,-0.34939 -0.42596,-0.46582l-0.19315,-0.21264l0.21325,-0.24828c0.12183,-0.13901 0.23837,-0.25302 0.26343,-0.25275c0.02005,0.00022 0.25903,0.1482 0.52774,0.32659l0.48758,0.33116l0.36476,-0.35188c0.22289,-0.21309 0.35,-0.3771 0.32527,-0.40745c-0.27654,-0.37897 -0.64632,-0.93942 -0.64588,-0.97951c0.00033,-0.03008 0.11687,-0.14408 0.25346,-0.25787l0.2529,-0.20775l0.16881,0.14722c0.0944,0.07622 0.30286,0.26397 0.46671,0.40612l0.2978,0.26893l0.38421,-0.29653c0.21231,-0.16308 0.38436,-0.31157 0.38458,-0.33161c0.00017,-0.01504 -0.11731,-0.27196 -0.26448,-0.56429l-0.2648,-0.53423l0.26772,-0.18753c0.14644,-0.09865 0.28771,-0.1823 0.31778,-0.18197c0.02506,0.00027 0.19353,0.17756 0.37154,0.40006c0.18308,0.21755 0.3613,0.42 0.40101,0.45552c0.06455,0.05585 0.20053,-0.00281 0.81605,-0.36697l0.11098,-0.06394l-0.18953,-0.54343c-0.102,-0.29685 -0.1893,-0.56347 -0.18897,-0.59355c0.00055,-0.05012 0.50476,-0.32027 0.59999,-0.31923c0.02506,0.00027 0.17316,0.20742 0.33575,0.46484c0.15762,0.25235 0.30044,0.48449 0.32016,0.51478c0.02957,0.04544 0.79936,-0.21679 0.91573,-0.31576c0.02534,-0.02479 0.00292,-0.26563 -0.05877,-0.58209c-0.05188,-0.2963 -0.09903,-0.56749 -0.0987,-0.59757c0.00033,-0.03007 0.13135,-0.0938 0.29228,-0.14216c0.15592,-0.04842 0.30181,-0.09694 0.32698,-0.10668c0.02022,-0.01481 0.1578,0.23732 0.29968,0.55466l0.26436,0.57432l0.48753,-0.11996l0.48758,-0.12497l-0.02837,-0.61184l-0.02832,-0.61684l0.14072,-0.03355c0.08041,-0.01916 0.24602,-0.0374 0.36631,-0.03608l0.21556,-0.00265l0.15934,0.55312l0.15433,0.55306l0.34592,-0.00623c0.19056,-0.00794 0.41626,-0.02049 0.50664,-0.03454c0.17575,-0.02814 0.17575,-0.02814 0.25036,-0.88947zM169.96218,202.25499c-1.11026,0.22841 -1.8943,1.33257 -1.73087,2.42709c0.1773,1.19993 1.31071,2.05947 2.46553,1.88168c1.20003,-0.18732 2.04955,-1.32084 1.86675,-2.47572c-0.14552,-0.89882 -0.7844,-1.60258 -1.65421,-1.81764c-0.37495,-0.08933 -0.57036,-0.09649 -0.94719,-0.01541z" data-paper-data="{&quot;index&quot;:null}" fill-opacity="0.50196" fill="#000000" stroke="none" stroke-width="1" stroke-linecap="butt"/><path d="M188.76687,112.47763v4.91466h-11.76007h-11.76007v-4.91466v-4.91466h11.76007h11.76007z" data-paper-data="{&quot;index&quot;:null}" fill-opacity="0.50196" fill="#000000" stroke="none" stroke-width="1" stroke-linecap="butt"/><path d="M163.25746,112.47763v4.91466h-11.70156h-11.70157v-4.91466v-4.91466h11.70157h11.70156z" data-paper-data="{&quot;index&quot;:null}" fill-opacity="0.50196" fill="#000000" stroke="none" stroke-width="1" stroke-linecap="butt"/><path d="M137.78315,107.64488c0.04681,0.03511 0.08192,2.2467 0.08192,4.91465v4.83275h-11.76007h-11.76007l0.0234,-4.89126l0.03511,-4.87955l11.65476,-0.0351c6.40076,-0.01171 11.68987,0.0117 11.72497,0.0585z" data-paper-data="{&quot;index&quot;:null}" fill-opacity="0.50196" fill="#000000" stroke="none" stroke-width="1" stroke-linecap="butt"/><path d="M199.64932,123.5356v4.85614h-11.76007h-11.76007v-4.85614v-4.85615h11.76007h11.76007z" data-paper-data="{&quot;index&quot;:null}" fill-opacity="0.50196" fill="#000000" stroke="none" stroke-width="1" stroke-linecap="butt"/><path d="M174.23352,123.55902l-0.0351,4.89126l-11.73667,0.0351l-11.72497,0.02341v-4.91466v-4.91466h11.76008h11.76008z" data-paper-data="{&quot;index&quot;:null}" fill-opacity="0.50196" fill="#000000" stroke="none" stroke-width="1" stroke-linecap="butt"/><path d="M148.74752,123.5356v4.85614h-11.76007h-11.76007v-4.85614v-4.85615h11.76008h11.76008z" data-paper-data="{&quot;index&quot;:null}" fill-opacity="0.50196" fill="#000000" stroke="none" stroke-width="1" stroke-linecap="butt"/><path d="M123.2381,123.5356v4.85614h-15.1911h-15.1911v-4.85614v-4.85615h15.1911h15.1911z" data-paper-data="{&quot;index&quot;:null}" fill-opacity="0.50196" fill="#000000" stroke="none" stroke-width="1" stroke-linecap="butt"/><path d="M163.25746,134.65209v4.85614h-11.70156h-11.70157v-4.85614v-4.85615h11.70157h11.70156z" data-paper-data="{&quot;index&quot;:null}" fill-opacity="0.50196" fill="#000000" stroke="none" stroke-width="1" stroke-linecap="butt"/><path d="M137.86506,134.65209v4.85614h-11.76007h-11.76007v-4.85614v-4.85615h11.76008h11.76008z" data-paper-data="{&quot;index&quot;:null}" fill-opacity="0.50196" fill="#000000" stroke="none" stroke-width="1" stroke-linecap="butt"/><path d="M112.48703,112.47763v4.91466l-9.98857,-0.0234l-9.97861,-0.03511v-4.85615v-4.85615l9.97861,-0.0351l9.98857,-0.0234z" data-paper-data="{&quot;index&quot;:null}" fill-opacity="0.50196" fill="#000000" stroke="none" stroke-width="1" stroke-linecap="butt"/><path d="M112.48703,134.65209v4.85614h-9.98359h-9.98359v-4.85614v-4.85615h9.98359h9.98359z" data-paper-data="{&quot;index&quot;:null}" fill-opacity="0.50196" fill="#000000" stroke="none" stroke-width="1" stroke-linecap="butt"/><path d="M177.88442,145.71006v4.91466h-11.76007h-11.76007v-4.91466v-4.91466h11.76008h11.76008z" data-paper-data="{&quot;index&quot;:null}" fill-opacity="0.50196" fill="#000000" stroke="none" stroke-width="1" stroke-linecap="butt"/><path d="M152.375,145.67496v4.89126l-11.72497,-0.0234l-11.73667,-0.03511v-4.82104v-4.83274l11.72497,-0.03511l11.73667,-0.0234z" data-paper-data="{&quot;index&quot;:null}" fill-opacity="0.50196" fill="#000000" stroke="none" stroke-width="1" stroke-linecap="butt"/><path d="M126.9241,140.94753c0.0351,0.07021 0.04681,2.2584 0.03511,4.85615l-0.03511,4.70403l-11.73667,0.0351l-11.72497,0.0234v-4.89125v-4.87956h11.70156c9.26764,0 11.72497,0.0351 11.76008,0.15212z" data-paper-data="{&quot;index&quot;:null}" fill-opacity="0.50196" fill="#000000" stroke="none" stroke-width="1" stroke-linecap="butt"/><path d="M136.81192,158.17225v4.85615h-11.76007h-11.76007v-4.85615v-4.85615h11.76008h11.76008z" data-paper-data="{&quot;index&quot;:null}" fill-opacity="0.50196" fill="#000000" stroke="none" stroke-width="1" stroke-linecap="butt"/><path d="M111.30251,158.17225v4.85615h-9.40551h-9.40551v-4.85615v-4.85615h9.40551h9.40551z" data-paper-data="{&quot;index&quot;:null}" fill-opacity="0.50196" fill="#000000" stroke="none" stroke-width="1" stroke-linecap="butt"/><path d="M151.32186,169.19512v4.89126h-11.70156h-11.70156v-4.89126v-4.87955h11.70156h11.70156z" data-paper-data="{&quot;index&quot;:null}" fill-opacity="0.50196" fill="#000000" stroke="none" stroke-width="1" stroke-linecap="butt"/><path d="M125.90606,169.17172c-0.0234,2.66796 -0.07021,4.85615 -0.12871,4.85615c-0.04681,0 -5.32421,0 -11.72497,0h-11.64306v-4.85615v-4.85614h11.76008h11.76007z" data-paper-data="{&quot;index&quot;:null}" fill-opacity="0.50196" fill="#000000" stroke="none" stroke-width="1" stroke-linecap="butt"/><path d="M140.43941,180.28821v4.85615h-11.76007h-11.76007v-4.85615v-4.85614h11.76008h11.76008z" data-paper-data="{&quot;index&quot;:null}" fill-opacity="0.50196" fill="#000000" stroke="none" stroke-width="1" stroke-linecap="butt"/><path d="M115.04701,180.28821v4.85615h-11.76007h-11.76007v-4.85615v-4.85614h11.76007h11.76008z" data-paper-data="{&quot;index&quot;:null}" fill-opacity="0.50196" fill="#000000" stroke="none" stroke-width="1" stroke-linecap="butt"/><path d="M125.87095,186.58364c0.0351,0.07021 0.04681,2.27011 0.03511,4.87956l-0.03511,4.73913l-11.73667,0.03511l-11.72496,0.0234v-4.91466v-4.91466h11.70157c9.26764,0 11.72497,0.0351 11.76007,0.15212z" data-paper-data="{&quot;index&quot;:null}" fill-opacity="0.50196" fill="#000000" stroke="none" stroke-width="1" stroke-linecap="butt"/><path d="M101.46462,145.65156l-0.01286,4.85615h-4.28722h-4.28721l-0.01286,-4.85615l-0.00858,-4.85615h4.30864h4.30865z" data-paper-data="{&quot;index&quot;:null}" fill-opacity="0.50196" fill="#000000" stroke="none" stroke-width="1" stroke-linecap="butt"/><path d="M101.08734,169.19512v4.89126l-4.29579,-0.02341l-4.30007,-0.0351l-0.01287,-4.85615l-0.00858,-4.85614h4.30865h4.30865z" data-paper-data="{&quot;index&quot;:null}" fill-opacity="0.50196" fill="#000000" stroke="none" stroke-width="1" stroke-linecap="butt"/><path d="M101.08734,191.34618v4.91466l-4.30007,-0.02341l-4.29578,-0.0351v-4.85615v-4.85615l4.29578,-0.0351l4.30007,-0.02341z" data-paper-data="{&quot;index&quot;:null}" fill-opacity="0.50196" fill="#000000" stroke="none" stroke-width="1" stroke-linecap="butt"/><path d="M277.84544,252.76084c-9.26764,0 -11.72496,-0.03511 -11.76007,-0.15212c-0.0351,-0.07021 -0.04681,-2.27011 -0.03511,-4.87955l0.03511,-4.73913l11.73667,-0.03511l11.72497,-0.0234v4.91465v4.91466z" fill-opacity="0.50196" fill="#000000" stroke="none" stroke-width="1" stroke-linecap="butt"/><path d="M291.53627,247.84617v-4.91465h11.76007h11.76007v4.91465v4.91466h-11.76007h-11.76007z" fill-opacity="0.50196" fill="#000000" stroke="none" stroke-width="1" stroke-linecap="butt"/><path d="M317.04568,247.84617v-4.91465h11.70157h11.70156v4.91465v4.91466h-11.70156h-11.70157z" fill-opacity="0.50196" fill="#000000" stroke="none" stroke-width="1" stroke-linecap="butt"/><path d="M354.24496,252.73743c-6.40076,0.0117 -11.68986,-0.01171 -11.72497,-0.05851c-0.04681,-0.0351 -0.08191,-2.24669 -0.08191,-4.91465v-4.83274h11.76007h11.76008l-0.02341,4.89126l-0.0351,4.87955l-11.65476,0.0351z" fill-opacity="0.50196" fill="#000000" stroke="none" stroke-width="1" stroke-linecap="butt"/><path d="M280.65382,236.7882v-4.85615h11.76007h11.76007v4.85615v4.85615h-11.76007h-11.76007z" fill-opacity="0.50196" fill="#000000" stroke="none" stroke-width="1" stroke-linecap="butt"/><path d="M306.06962,236.7648l0.0351,-4.89126l11.73667,-0.0351l11.72497,-0.0234v4.91466v4.91466h-11.76007h-11.76008z" fill-opacity="0.50196" fill="#000000" stroke="none" stroke-width="1" stroke-linecap="butt"/><path d="M331.55563,236.7882v-4.85615h11.76007h11.76008v4.85615v4.85615h-11.76008h-11.76007z" fill-opacity="0.50196" fill="#000000" stroke="none" stroke-width="1" stroke-linecap="butt"/><path d="M357.06504,236.7882v-4.85615h15.1911h15.19111v4.85615v4.85615h-15.19111h-15.1911z" fill-opacity="0.50196" fill="#000000" stroke="none" stroke-width="1" stroke-linecap="butt"/><path d="M291.53627,225.73022v-4.91466h11.76007h11.76007l-0.0234,4.89126l-0.0351,4.87956l-11.72497,0.03511l-11.73667,0.0234z" fill-opacity="0.50196" fill="#000000" stroke="none" stroke-width="1" stroke-linecap="butt"/><path d="M266.02686,225.67172v-4.85615h11.76007h11.76008v4.85615v4.85615h-11.76008h-11.76007z" fill-opacity="0.50196" fill="#000000" stroke="none" stroke-width="1" stroke-linecap="butt"/><path d="M317.04568,225.67172v-4.85615h11.70157h11.70156v4.85615v4.85615h-11.70156h-11.70157z" fill-opacity="0.50196" fill="#000000" stroke="none" stroke-width="1" stroke-linecap="butt"/><path d="M342.43808,225.67172v-4.85615h11.76007h11.76008v4.85615v4.85615h-11.76008h-11.76007z" fill-opacity="0.50196" fill="#000000" stroke="none" stroke-width="1" stroke-linecap="butt"/><path d="M367.81611,247.84617v-4.91465l9.98857,0.0234l9.97861,0.03511v4.85615v4.85615l-9.97861,0.0351l-9.98857,0.02341z" fill-opacity="0.50196" fill="#000000" stroke="none" stroke-width="1" stroke-linecap="butt"/><path d="M367.81611,225.67172v-4.85615h9.9836h9.98359v4.85615v4.85615h-9.98359h-9.9836z" fill-opacity="0.50196" fill="#000000" stroke="none" stroke-width="1" stroke-linecap="butt"/><path d="M277.02633,214.64883v-4.89126h11.70157h11.70157v4.89126v4.87956h-11.70157h-11.70157z" fill-opacity="0.50196" fill="#000000" stroke="none" stroke-width="1" stroke-linecap="butt"/><path d="M302.41873,214.61373v-4.91466h11.76008h11.76007v4.91466v4.91466h-11.76007h-11.76008z" fill-opacity="0.50196" fill="#000000" stroke="none" stroke-width="1" stroke-linecap="butt"/><path d="M327.92814,214.64884v-4.89126l11.72497,0.0234l11.73667,0.0351v4.82104v4.83274l-11.72497,0.03511l-11.73667,0.0234z" fill-opacity="0.50196" fill="#000000" stroke="none" stroke-width="1" stroke-linecap="butt"/><path d="M365.13911,219.52839c-9.26764,0 -11.72497,-0.03511 -11.76007,-0.15212c-0.0351,-0.07021 -0.04681,-2.2584 -0.0351,-4.85615l0.0351,-4.70403l11.73667,-0.03511l11.72497,-0.0234v4.89126v4.87956h-11.70157z" fill-opacity="0.50196" fill="#000000" stroke="none" stroke-width="1" stroke-linecap="butt"/><path d="M317.98181,202.15157v-4.85615h11.76008h11.76007v4.85615v4.85615h-11.76007h-11.76008z" fill-opacity="0.50196" fill="#000000" stroke="none" stroke-width="1" stroke-linecap="butt"/><path d="M343.49122,202.15157v-4.85615h11.76008h11.76007v4.85615v4.85615h-11.76007h-11.76008z" fill-opacity="0.50196" fill="#000000" stroke="none" stroke-width="1" stroke-linecap="butt"/><path d="M369.00064,202.15157v-4.85615h9.40551h9.40551v4.85615v4.85615h-9.40551h-9.40551z" fill-opacity="0.50196" fill="#000000" stroke="none" stroke-width="1" stroke-linecap="butt"/><path d="M303.47187,191.09358v-4.91465h11.76008h11.76007v4.91465v4.91466h-11.76007h-11.76008z" fill-opacity="0.50196" fill="#000000" stroke="none" stroke-width="1" stroke-linecap="butt"/><path d="M328.98128,191.12869v-4.89126h11.70156h11.70157v4.89126v4.87956h-11.70157h-11.70156z" fill-opacity="0.50196" fill="#000000" stroke="none" stroke-width="1" stroke-linecap="butt"/><path d="M354.39708,191.1521c0.0234,-2.66796 0.0702,-4.85615 0.12871,-4.85615c0.04681,0 5.32421,0 11.72497,0h11.64306v4.85615v4.85615h-11.76008h-11.76007z" fill-opacity="0.50196" fill="#000000" stroke="none" stroke-width="1" stroke-linecap="butt"/><path d="M339.86374,180.03561v-4.85615h11.76007h11.76008v4.85615v4.85615h-11.76008h-11.76007z" fill-opacity="0.50196" fill="#000000" stroke="none" stroke-width="1" stroke-linecap="butt"/><path d="M365.25613,180.03561v-4.85615h11.76007h11.76007v4.85615v4.85615h-11.76007h-11.76007z" fill-opacity="0.50196" fill="#000000" stroke="none" stroke-width="1" stroke-linecap="butt"/><path d="M366.19225,173.89229c-9.26764,0 -11.72496,-0.0351 -11.76007,-0.15212c-0.0351,-0.07021 -0.04681,-2.27011 -0.03511,-4.87956l0.03511,-4.73914l11.73667,-0.0351l11.72497,-0.0234v4.91466v4.91466z" fill-opacity="0.50196" fill="#000000" stroke="none" stroke-width="1" stroke-linecap="butt"/><path d="M378.83853,214.67225l0.01286,-4.85615h4.28722h4.28721l0.01286,4.85615l0.00857,4.85615h-4.30865h-4.30865z" fill-opacity="0.50196" fill="#000000" stroke="none" stroke-width="1" stroke-linecap="butt"/><path d="M379.2158,191.12869v-4.89126l4.29579,0.0234l4.30007,0.0351l0.01286,4.85615l0.00858,4.85615h-4.30865h-4.30865z" fill-opacity="0.50196" fill="#000000" stroke="none" stroke-width="1" stroke-linecap="butt"/><path d="M379.2158,168.97763v-4.91466l4.30007,0.0234l4.29578,0.0351v4.85615v4.85615l-4.29578,0.03511l-4.30007,0.0234z" fill-opacity="0.50196" fill="#000000" stroke="none" stroke-width="1" stroke-linecap="butt"/><path d="M158.98132,230.33762c0,0.48114 -1.07698,0.72172 -3.23093,0.72172c-2.15395,0 -3.32323,-0.17204 -3.50786,-0.51612c0,0 -3.56905,-6.66849 -4.58985,-8.57577c-0.51102,-0.95481 -1.15027,-0.93306 -1.15027,0.03251c0,1.90697 0,8.5097 0,8.5097c0,0.41121 -1.06019,0.61682 -3.18057,0.61682c-2.11758,0 -3.17637,-0.20561 -3.17637,-0.61682v-22.9983c0,-0.34407 0.90494,-0.51611 2.71481,-0.51611c0.71052,0 1.54134,0.06434 2.49242,0.19302c0.9511,0.12588 1.52874,0.35945 1.73295,0.70073c0,0 3.65541,7.03756 4.59692,8.85022c0.41753,0.80385 0.90404,0.84426 0.90404,0.06074c0,-1.82532 -0.00001,-9.11657 -0.00001,-9.11657c0,-0.43359 1.06579,-0.65037 3.19736,-0.65037c2.13157,0 3.19735,0.21679 3.19735,0.65037v22.65424zM168.53738,230.88731c0,0.18183 -1.049,0.27274 -3.14701,0.27274c-2.0952,0 -3.1428,-0.07972 -3.1428,-0.23917v-16.87633c0,-0.16225 1.0476,-0.24337 3.1428,-0.24337c2.098,0 3.14701,0.06993 3.14701,0.2098zM168.53738,211.98012c0,0.16225 -1.049,0.24337 -3.14701,0.24337c-2.0952,0 -3.1428,-0.06994 -3.1428,-0.2098v-4.94709c0,-0.22938 1.0476,-0.34407 3.1428,-0.34407c2.098,0 3.14701,0.06853 3.14701,0.2056zM177.26681,222.56663c0,2.24626 0.8476,3.36939 2.54278,3.36939c1.10215,0 2.01967,-0.2168 2.75258,-0.65038c0.34407,0 0.62381,0.59024 0.8392,1.77071c0.21819,1.17768 0.32729,1.97912 0.32729,2.40431c0,0.42239 -0.05734,0.70353 -0.17203,0.84339c-1.21404,0.75528 -2.87566,1.13292 -4.98486,1.13292c-2.1064,0 -3.89948,-0.78465 -5.37928,-2.35395c-1.47699,-1.5693 -2.21549,-3.71206 -2.21549,-6.42828c0,-2.71622 0.72732,-4.91072 2.18193,-6.58353c1.45461,-1.67281 3.39036,-2.50921 5.80726,-2.50921c2.41969,0 4.09949,0.58464 5.0394,1.75393c0.20421,0.25176 0.30631,0.6238 0.30631,1.11613c0,0.49233 -0.09091,1.09376 -0.27274,1.80428c-0.414,1.4658 -0.95249,2.3134 -1.61545,2.54278c-0.09231,0.02517 -0.22519,0.03777 -0.39862,0.03777c-0.17064,0 -0.38184,-0.13847 -0.6336,-0.41541c-0.89235,-0.89235 -1.60847,-1.33852 -2.14835,-1.33852c-0.53709,0 -1.00144,0.27553 -1.39308,0.82662c-0.38883,0.54827 -0.58324,1.44063 -0.58324,2.67705zM191.94614,230.85374c0,0.20421 -0.95669,0.30631 -2.87007,0.30631c-1.91338,0 -2.87006,-0.15945 -2.87006,-0.47835v-23.54797c0,-0.15945 0.35526,-0.27274 1.06579,-0.33988c0.71053,-0.06993 1.30635,-0.1049 1.7875,-0.1049c1.92456,0 2.88685,0.20561 2.88685,0.61682v6.87725c1.28118,-0.39163 2.25465,-0.58744 2.92042,-0.58744c1.74274,0 3.11763,0.46435 4.12467,1.39307c1.00984,0.92872 1.51476,2.65328 1.51476,5.17368v10.65365c0,0.20701 -0.89375,0.31051 -2.68124,0.31051c-2.01688,-0.06714 -3.02532,-0.18182 -3.02532,-0.34407v-10.10398c0,-1.12453 -0.36784,-1.68679 -1.10354,-1.68679c-0.50352,0 -1.08677,0.24057 -1.74974,0.72171zM210.84995,231.43698c-2.26864,0 -4.18202,-0.77347 -5.74014,-2.32039c-1.55811,-1.54692 -2.33718,-3.68968 -2.33718,-6.42828c0,-2.73859 0.74969,-4.94429 2.24906,-6.6171c1.50217,-1.67281 3.39876,-2.50921 5.68977,-2.50921c2.29381,0 4.06453,0.58464 5.31214,1.75393c1.24761,1.16929 1.87143,2.59034 1.87143,4.26314c0,3.71206 -2.13018,5.5681 -6.39052,5.5681h-2.37074c0,0.68814 0.18883,1.16369 0.56647,1.42664c0.37764,0.26295 0.93291,0.39443 1.66581,0.39443c1.60287,0 3.12742,-0.36645 4.57364,-1.09936c0.02238,-0.02238 0.12448,0.13846 0.30631,0.48253c0.55108,0.98466 0.82662,1.81547 0.82662,2.49243c0,0.67416 -0.21819,1.11474 -0.65458,1.32174c0,0 -3.29945,1.2714 -5.56809,1.2714zM212.12135,220.22946c0,-0.96229 -0.46995,-1.44343 -1.40985,-1.44343c-0.43359,0 -0.80563,0.13288 -1.11613,0.39862c-0.3077,0.26295 -0.46157,0.64619 -0.46157,1.14971v1.06579h1.85464c0.75528,0 1.13292,-0.39023 1.13292,-1.17068zM237.11028,230.54324c0,0.45876 -1.13432,0.68815 -3.40296,0.68815c-2.26864,0 -3.40296,-0.22939 -3.40296,-0.68815v-17.25397h-4.12467c-0.38883,0 -0.66297,-0.52729 -0.82242,-1.58189c-0.06993,-0.50632 -0.1049,-1.02243 -0.1049,-1.54833c0,-0.5259 0.03497,-1.042 0.1049,-1.54832c0.15945,-1.0518 0.43359,-1.5777 0.82242,-1.5777h14.95456c0.38883,0 0.66297,0.5259 0.82242,1.5777c0.06993,0.50632 0.10489,1.02242 0.10489,1.54832c0,0.5259 -0.03496,1.04201 -0.10489,1.54833c-0.15945,1.0546 -0.43359,1.58189 -0.82242,1.58189h-4.02397zM244.14137,229.06625c-1.43223,-1.58329 -2.14835,-3.77221 -2.14835,-6.56674c0,-2.79454 0.71612,-4.98205 2.14835,-6.56255c1.43223,-1.58329 3.36239,-2.37494 5.79048,-2.37494c2.43088,0 4.35685,0.79165 5.7779,2.37494c1.42104,1.5805 2.13157,3.76801 2.13157,6.56255c0,2.79454 -0.71053,4.98345 -2.13157,6.56674c-1.42104,1.5805 -3.34701,2.37073 -5.7779,2.37073c-2.42808,0 -4.35824,-0.79024 -5.79048,-2.37073zM249.94863,219.30213c-1.29237,0 -1.93854,1.0546 -1.93854,3.16379c0,2.10639 0.64618,3.15959 1.93854,3.15959c1.29516,0 10.16835,-1.24903 10.16835,-3.35543c0,-2.10919 -8.87318,-2.96795 -10.16835,-2.96795zM261.77508,229.06625c-1.43225,-1.58329 -2.14837,-3.77221 -2.14837,-6.56674c0,-2.79454 0.71612,-4.98205 2.14837,-6.56255c1.43223,-1.58329 3.36239,-2.37494 5.79048,-2.37494c2.43088,0 4.35685,0.79165 5.7779,2.37494c1.42104,1.5805 2.13157,3.76801 2.13157,6.56255c0,2.79454 -0.71053,4.98345 -2.13157,6.56674c-1.42104,1.5805 -3.34701,2.37073 -5.7779,2.37073c-2.42809,0 -4.35825,-0.79024 -5.79048,-2.37073zM267.58235,219.30213c-1.29237,0 -1.93856,1.0546 -1.93856,3.16379c0,2.10639 0.64619,3.15959 1.93856,3.15959c1.29516,0 9.77666,-0.85734 9.77666,-2.96374c0,-2.10919 -8.48149,-3.35964 -9.77666,-3.35964zM284.17121,230.81598c0,0.20701 -1.16929,0.3105 -3.50786,0.3105c-1.83225,-0.02238 -2.74838,-0.11328 -2.74838,-0.27273v-23.40951c0,-0.34407 1.11054,-0.51611 3.33162,-0.51611c1.94975,0.06993 2.92462,0.18462 2.92462,0.34407zM287.43666,207.13373c0,-0.27414 0.99025,-0.41121 2.97077,-0.41121c1.98331,0 2.97496,0.14826 2.97496,0.44477v6.67164c0.98466,-0.18463 1.684,-0.27693 2.098,-0.27693c4.81142,0 7.21713,2.76097 7.21713,8.28292c0,3.07147 -0.73989,5.43802 -2.21968,7.09964c-1.47699,1.66162 -3.5736,2.49242 -6.28981,2.49242c-2.71341,0 -4.96388,-0.60701 -6.75137,-1.82106zM294.51531,218.9245c-0.38883,0 -0.76647,0.12589 -1.13292,0.37765v6.56674c0.32169,0.13707 0.65877,0.2056 1.01123,0.2056c0.35526,0 0.71751,-0.13707 1.08676,-0.41121c0.64059,-0.45876 6.44462,-1.32869 6.44462,-3.0015c0,-2.36095 -6.12572,-3.73729 -7.4097,-3.73729zM306.63272,229.06625c-1.43223,-1.58329 -2.14835,-3.77221 -2.14835,-6.56674c0,-2.79454 0.71612,-4.98205 2.14835,-6.56255c1.43223,-1.58329 3.36239,-2.37494 5.79048,-2.37494c2.43088,0 4.35685,0.79165 5.7779,2.37494c1.42104,1.5805 2.13157,3.76801 2.13157,6.56255c0,2.79454 -0.71053,4.98345 -2.13157,6.56674c-1.42104,1.5805 -3.34701,2.37073 -5.7779,2.37073c-2.42809,0 -4.35825,-0.79024 -5.79048,-2.37073zM312.43999,219.30213c-1.29237,0 -1.93856,1.0546 -1.93856,3.16379c0,2.10639 0.64619,3.15959 1.93856,3.15959c1.29516,0 11.14758,0.1219 11.14758,-1.9845c0,-2.10919 -9.85242,-4.33888 -11.14758,-4.33888zM333.0822,214.01098c0.09231,-0.18463 0.66576,-0.27693 1.72035,-0.27693c3.43793,0 5.11073,0.12588 5.01842,0.37764l-4.196,8.69832c2.81971,5.27018 4.22957,7.90527 4.22957,7.90527c0,0.13707 -0.68814,0.25176 -2.06443,0.34407c-1.37349,0.09231 -2.34697,0.13847 -2.92043,0.13847c-1.44342,0 -2.2113,-0.14965 -2.30361,-0.44897l-1.85463,-5.74014l-2.13157,5.97931c-0.04476,0.16225 -0.69793,0.24337 -1.95953,0.24337c-1.2588,0 -2.38193,-0.04616 -3.36939,-0.13847c-0.98466,-0.09231 -1.43084,-0.207 -1.33853,-0.34407l3.88551,-7.90527c-2.70502,-5.66181 -4.05754,-8.5039 -4.05754,-8.52628c0,-0.13707 0.34967,-0.26295 1.049,-0.37764c0.69934,-0.11469 1.48958,-0.17204 2.37074,-0.17204c0.88116,0 1.72315,0.04056 2.52599,0.12169c0.80284,0.08112 1.25041,0.19022 1.34272,0.32729l1.82106,5.5681z" fill="none" stroke-opacity="0.42353" stroke="#000000" stroke-width="9.5" stroke-linecap="square"/><path d="M255.64152,132.66505c0.83393,0.68532 1.50683,1.3765 7.55143,7.67911c3.00216,3.13374 3.51403,3.72534 4.44574,5.12527c0.64414,0.96648 0.92021,1.48779 1.55284,2.92287c0.30482,0.69703 0.6959,1.50537 0.86269,1.79238c0.31633,0.53303 1.08124,1.59908 1.48383,2.07354l0.2243,0.25773l0.31057,-0.16401c0.45435,-0.2343 0.82243,-0.32216 1.38605,-0.32216c0.8972,0 1.66212,0.35145 2.34652,1.08363c0.62113,0.66774 0.91445,1.31206 0.96622,2.13797c0.04026,0.60332 -0.04026,1.03677 -0.28181,1.53465c-0.15528,0.32216 -0.52336,0.72047 -2.88714,3.13959c-1.48958,1.52293 -2.82963,2.86429 -2.97917,2.97558c-0.83968,0.6326 -2.00144,0.72047 -3.02517,0.22844c-1.21352,-0.58574 -1.97269,-1.68108 -2.06471,-2.9873c-0.06327,-0.92548 0.2128,-1.59323 0.99498,-2.42498l0.52911,-0.5506l-0.81668,-1.03091c-1.85191,-2.35469 -2.80662,-3.07515 -4.17543,-3.1513c-0.33357,-0.02343 -0.62689,0 -0.92021,0.06444c-1.58736,0.3573 -2.65134,0.25772 -3.67507,-0.32217c-0.36233,-0.21087 -0.82818,-0.53303 -1.04098,-0.73218l-0.14954,-0.13472l-6.02734,6.1386c-3.55429,3.6199 -6.01584,6.16789 -5.99284,6.20889c0.02301,0.03514 0.62689,0.62089 1.3458,1.30621c0.71891,0.68532 1.42057,1.36479 1.56435,1.51122c0.14378,0.14643 0.94321,0.92548 1.7829,1.72795c0.83968,0.80832 1.7944,1.72795 2.12797,2.05011c0.33357,0.32216 1.27678,1.23006 2.09922,2.02082c0.82243,0.79075 1.76564,1.69866 2.09922,2.02081c0.33357,0.32216 1.27679,1.23007 2.09922,2.02083c0.82243,0.79075 1.76565,1.69866 2.09922,2.02081c0.33357,0.32216 1.28829,1.24764 2.12797,2.05011c0.83968,0.80247 1.78289,1.71037 2.09922,2.02081c0.31633,0.31044 0.81093,0.7849 1.09274,1.05434c3.28973,3.15716 5.71677,5.51771 6.04459,5.88087c1.10424,1.21248 1.5931,2.88186 1.32279,4.46337c-0.39108,2.26097 -2.01295,4.21736 -4.08916,4.93197c-0.6959,0.2343 -0.92021,0.27529 -1.69662,0.27529c-0.90295,0 -1.30554,-0.07614 -2.05896,-0.38659c-0.82818,-0.33973 -1.45507,-0.77904 -2.24875,-1.56394c-0.25306,-0.24601 -1.86342,-1.97981 -3.58305,-3.84833c-1.71387,-1.86853 -3.53703,-3.84249 -4.04315,-4.39308c-1.51833,-1.64008 -7.8965,-8.55773 -9.4321,-10.22125c-0.78792,-0.85519 -1.81741,-1.97395 -2.29476,-2.48941c-0.47735,-0.51546 -1.43207,-1.55223 -2.12222,-2.30198c-0.69016,-0.7439 -1.27678,-1.35893 -1.30554,-1.35893c-0.02301,0 -0.15529,0.12301 -0.29331,0.2753c-0.24156,0.2753 -1.43782,1.55808 -4.94035,5.31856c-0.93171,1.00162 -2.36953,2.54213 -3.19771,3.42661c-12.02017,12.90395 -14.44145,15.49294 -14.6715,15.7038c-0.56938,0.52131 -1.19627,0.76733 -1.97269,0.76733c-0.61539,0.00586 -0.9087,-0.05271 -1.56435,-0.31044c-0.92595,-0.36317 -1.22503,-0.62675 -4.2502,-3.72534c-3.07119,-3.13959 -3.25522,-3.36218 -3.55429,-4.28765c-0.26456,-0.82004 -0.09202,-1.66938 0.50612,-2.4777c0.11503,-0.15815 1.3228,-1.3765 2.6801,-2.70028c1.36305,-1.32964 2.84688,-2.78229 3.30698,-3.23331c0.8857,-0.87276 2.38678,-2.33712 5.69376,-5.56457c1.1215,-1.09535 2.40404,-2.34883 2.84688,-2.78229c0.44284,-0.43345 1.71388,-1.67523 2.81813,-2.753c1.11,-1.07777 2.37528,-2.31955 2.81813,-2.753c0.44284,-0.43931 1.69087,-1.65766 2.77787,-2.71786c1.08124,-1.0602 1.96694,-1.94467 1.96694,-1.97395c0,-0.05272 -0.52912,-0.63261 -4.02589,-4.41652c-0.68441,-0.7439 -1.57585,-1.71037 -1.98419,-2.15554c-0.40259,-0.43931 -0.74766,-0.80247 -0.75917,-0.80247c-0.0115,0 -0.20704,0.041 -0.43709,0.08201c-0.23005,0.04686 -0.83969,0.16987 -1.36305,0.26944c-0.52337,0.09957 -1.06399,0.20501 -1.20777,0.2343c-0.14378,0.02929 -0.6844,0.13472 -1.20777,0.2343c-0.52337,0.09957 -1.06399,0.20501 -1.20777,0.2343c-0.14378,0.02929 -0.68441,0.13472 -1.20777,0.2343c-0.52337,0.09957 -1.12725,0.21672 -1.35154,0.26359c-1.93818,0.38659 -2.97916,0.56232 -3.01367,0.52131c-0.02301,-0.02929 -0.96046,-1.39993 -2.07621,-3.04002c-1.1215,-1.64594 -2.77211,-4.04163 -3.66931,-5.33027c-0.90295,-1.28864 -2.07046,-2.95801 -2.59383,-3.71362c-0.52337,-0.74975 -0.94896,-1.41165 -0.93746,-1.46436c0.0115,-0.05272 0.83969,-0.93134 1.84041,-1.95639l1.82315,-1.85681l4.05465,4.1295l4.05466,4.1295l2.7376,-0.79661l2.74336,-0.79661l0.50036,-1.79823c0.28181,-0.98405 0.52912,-1.88024 0.55787,-1.98568c0.04601,-0.18159 0.10353,-0.3983 0.2128,-0.79075c0.08051,-0.26359 0.17829,-0.62089 0.23005,-0.83176c0.04601,-0.16986 -0.04602,-0.27529 -3.99714,-4.30522l-4.0489,-4.1295l2.00144,-2.03839l1.9957,-2.03253l0.54637,0.36902c0.70166,0.48031 8.35086,5.55285 11.12873,7.38037c1.17327,0.76732 2.12222,1.42922 2.12222,1.46437c-0.00575,0.04101 -0.09202,0.42759 -0.18979,0.86104c-0.30482,1.36479 -0.64989,2.89357 -0.6959,3.10444c-0.02301,0.11129 -0.17829,0.80832 -0.34508,1.55222c-0.32782,1.45264 -0.36233,1.62251 -0.4486,2.02081c-0.02875,0.14643 -0.18979,0.86691 -0.35658,1.6108c-0.41985,1.8861 -0.41409,1.86267 -0.42559,1.99153c-0.00575,0.12301 0.20129,0.33387 2.81237,2.84085c0.82243,0.79075 1.76564,1.69866 2.09922,2.02081c0.54062,0.52716 3.1287,3.01658 3.98564,3.83077l0.33357,0.32216l6.10211,-6.21475l6.10211,-6.21475l-0.12653,-0.18158c-0.31633,-0.45102 -0.50612,-1.09534 -0.55788,-1.88024c-0.04601,-0.70289 0.02876,-1.10706 0.32208,-1.75724c0.44285,-0.97233 0.56363,-1.67523 0.4601,-2.62999c-0.2588,-2.29026 -1.84616,-4.54538 -4.67004,-6.61891c-1.51833,-1.11291 -3.65206,-2.17311 -5.48096,-2.72371c-1.74989,-0.52135 -0.31633,-1.73967 1.69662,-1.87439c0.60388,-0.04101 3.53703,0.01757 3.93963,0.08201c0,0 0.5866,0.08787 0.80515,0.12302c0,0 6.02732,1.7748 8.55788,3.88348z" fill="none" stroke-opacity="0.42353" stroke="#000000" stroke-width="10" stroke-linecap="butt"/><path d="M158.98133,230.33762c0,0.48114 -1.07697,0.72171 -3.23092,0.72171c-2.15395,0 -3.32324,-0.17203 -3.50786,-0.51611l-5.74013,-10.72499v10.69142c0,0.41121 -1.06019,0.61682 -3.18057,0.61682c-2.11758,0 -3.17638,-0.2056 -3.17638,-0.61682v-22.9983c0,-0.34407 0.90494,-0.51611 2.71481,-0.51611c0.71052,0 1.54134,0.06434 2.49242,0.19302c0.9511,0.12588 1.52874,0.35945 1.73295,0.70073l5.50096,10.59072v-10.79632c0,-0.43359 1.06578,-0.65038 3.19735,-0.65038c2.13157,0 3.19736,0.2168 3.19736,0.65038v22.65423zM168.53738,230.88731c0,0.18183 -1.049,0.27274 -3.14701,0.27274c-2.0952,0 -3.1428,-0.07972 -3.1428,-0.23917v-16.87633c0,-0.16225 1.0476,-0.24337 3.1428,-0.24337c2.098,0 3.14701,0.06994 3.14701,0.2098zM168.53738,211.98011c0,0.16225 -1.049,0.24337 -3.14701,0.24337c-2.0952,0 -3.1428,-0.06994 -3.1428,-0.2098v-4.94709c0,-0.22938 1.0476,-0.34407 3.1428,-0.34407c2.098,0 3.14701,0.06853 3.14701,0.2056zM177.26681,222.56663c0,2.24626 0.8476,3.36939 2.54278,3.36939c1.10215,0 2.01967,-0.21679 2.75258,-0.65038c0.34407,0 0.62381,0.59024 0.8392,1.77071c0.21819,1.17768 0.32729,1.97911 0.32729,2.40431c0,0.42239 -0.05734,0.70353 -0.17203,0.8434c-1.21404,0.75528 -2.87566,1.13292 -4.98485,1.13292c-2.1064,0 -3.89948,-0.78465 -5.37928,-2.35396c-1.47699,-1.56931 -2.21549,-3.71206 -2.21549,-6.42828c0,-2.71622 0.72731,-4.91073 2.18192,-6.58353c1.45461,-1.67281 3.39037,-2.50921 5.80727,-2.50921c2.41969,0 4.09949,0.58464 5.0394,1.75393c0.20421,0.25176 0.30631,0.62381 0.30631,1.11614c0,0.49233 -0.09091,1.09376 -0.27274,1.80428c-0.414,1.4658 -0.95249,2.3134 -1.61546,2.54278c-0.09231,0.02517 -0.22519,0.03777 -0.39862,0.03777c-0.17064,0 -0.38184,-0.13847 -0.6336,-0.41541c-0.89235,-0.89235 -1.60847,-1.33852 -2.14835,-1.33852c-0.53709,0 -1.00144,0.27553 -1.39308,0.82661c-0.38883,0.54827 -0.58324,1.44063 -0.58324,2.67705zM191.94615,230.85374c0,0.20421 -0.95669,0.30631 -2.87007,0.30631c-1.91338,0 -2.87007,-0.15945 -2.87007,-0.47835v-23.54797c0,-0.15945 0.35526,-0.27274 1.06579,-0.33988c0.71053,-0.06993 1.30635,-0.1049 1.7875,-0.1049c1.92456,0 2.88685,0.2056 2.88685,0.61682v6.87725c1.28118,-0.39163 2.25466,-0.58744 2.92042,-0.58744c1.74274,0 3.11763,0.46435 4.12467,1.39307c1.00984,0.92872 1.51476,2.65328 1.51476,5.17368v10.65366c0,0.20701 -0.89375,0.31051 -2.68124,0.31051c-2.01688,-0.06714 -3.02532,-0.18183 -3.02532,-0.34407v-10.10398c0,-1.12453 -0.36785,-1.68679 -1.10355,-1.68679c-0.50352,0 -1.08677,0.24057 -1.74973,0.72171zM216.41805,230.16559c-1.44342,0.8476 -3.29946,1.27139 -5.5681,1.27139c-2.26864,0 -4.18202,-0.77347 -5.74014,-2.32039c-1.55811,-1.54692 -2.33718,-3.68968 -2.33718,-6.42828c0,-2.73859 0.74968,-4.94429 2.24906,-6.6171c1.50217,-1.67281 3.39876,-2.50921 5.68978,-2.50921c2.29381,0 4.06453,0.58464 5.31214,1.75393c1.24761,1.16929 1.87142,2.59033 1.87142,4.26314c0,3.71206 -2.13017,5.5681 -6.39051,5.5681h-2.37074c0,0.68814 0.18882,1.16369 0.56646,1.42664c0.37764,0.26295 0.93291,0.39442 1.66582,0.39442c1.60287,0 3.12742,-0.36645 4.57364,-1.09936c0.02238,-0.02238 0.12448,0.13847 0.30631,0.48254c0.55108,0.98466 0.82662,1.81547 0.82662,2.49243c0,0.67416 -0.21819,1.11474 -0.65457,1.32174zM212.12135,220.22946c0,-0.96229 -0.46995,-1.44343 -1.40985,-1.44343c-0.43359,0 -0.80564,0.13287 -1.11614,0.39862c-0.3077,0.26295 -0.46156,0.64619 -0.46156,1.14971v1.06579h1.85463c0.75528,0 1.13292,-0.39023 1.13292,-1.17068zM237.11028,230.54324c0,0.45876 -1.13432,0.68815 -3.40296,0.68815c-2.26864,0 -3.40296,-0.22938 -3.40296,-0.68815v-17.25397h-4.12467c-0.38883,0 -0.66297,-0.5273 -0.82241,-1.5819c-0.06993,-0.50632 -0.1049,-1.02242 -0.1049,-1.54833c0,-0.5259 0.03497,-1.04201 0.1049,-1.54833c0.15945,-1.0518 0.43359,-1.5777 0.82241,-1.5777h14.95456c0.38883,0 0.66297,0.5259 0.82241,1.5777c0.06993,0.50632 0.1049,1.02242 0.1049,1.54833c0,0.5259 -0.03496,1.04201 -0.1049,1.54833c-0.15945,1.0546 -0.43359,1.5819 -0.82241,1.5819h-4.02397zM244.14137,229.06623c-1.43223,-1.58329 -2.14835,-3.77221 -2.14835,-6.56674c0,-2.79454 0.71612,-4.98206 2.14835,-6.56255c1.43223,-1.58329 3.36239,-2.37494 5.79048,-2.37494c2.43088,0 4.35685,0.79164 5.7779,2.37494c1.42104,1.5805 2.13157,3.76801 2.13157,6.56255c0,2.79454 -0.71053,4.98345 -2.13157,6.56674c-1.42104,1.5805 -3.34701,2.37074 -5.7779,2.37074c-2.42808,0 -4.35824,-0.79025 -5.79048,-2.37074zM249.94863,219.30213c-1.29237,0 -1.93854,1.05459 -1.93854,3.16378c0,2.10639 0.64618,3.15959 1.93854,3.15959c1.29516,0 1.94275,-1.0532 1.94275,-3.15959c0,-2.10919 -0.64758,-3.16378 -1.94275,-3.16378zM261.77507,229.06623c-1.43225,-1.58329 -2.14837,-3.77221 -2.14837,-6.56674c0,-2.79454 0.71612,-4.98206 2.14837,-6.56255c1.43223,-1.58329 3.3624,-2.37494 5.79048,-2.37494c2.43088,0 4.35685,0.79164 5.7779,2.37494c1.42104,1.5805 2.13157,3.76801 2.13157,6.56255c0,2.79454 -0.71053,4.98345 -2.13157,6.56674c-1.42104,1.5805 -3.34701,2.37074 -5.7779,2.37074c-2.42809,0 -4.35825,-0.79025 -5.79048,-2.37074zM267.58234,219.30213c-1.29237,0 -1.93856,1.05459 -1.93856,3.16378c0,2.10639 0.64619,3.15959 1.93856,3.15959c1.29516,0 1.94275,-1.0532 1.94275,-3.15959c0,-2.10919 -0.64758,-3.16378 -1.94275,-3.16378zM284.17121,230.81598c0,0.20701 -1.16929,0.31051 -3.50786,0.31051c-1.83225,-0.02238 -2.74838,-0.11329 -2.74838,-0.27274v-23.40951c0,-0.34407 1.11054,-0.51611 3.33162,-0.51611c1.94975,0.06993 2.92462,0.18463 2.92462,0.34407zM287.43665,207.13373c0,-0.27414 0.99025,-0.41121 2.97077,-0.41121c1.98331,0 2.97496,0.14826 2.97496,0.44477v6.67165c0.98466,-0.18463 1.684,-0.27694 2.098,-0.27694c4.81142,0 7.21713,2.76097 7.21713,8.28292c0,3.07147 -0.7399,5.43802 -2.21969,7.09964c-1.47699,1.66162 -3.5736,2.49242 -6.28981,2.49242c-2.71341,0 -4.96388,-0.60702 -6.75137,-1.82106zM294.51531,218.9245c-0.38883,0 -0.76647,0.12588 -1.13292,0.37764v6.56674c0.32169,0.13707 0.65877,0.2056 1.01123,0.2056c0.35526,0 0.71751,-0.13707 1.08677,-0.41121c0.64059,-0.45876 0.96089,-1.52455 0.96089,-3.19736c0,-2.36095 -0.64199,-3.54143 -1.92597,-3.54143zM306.63272,229.06623c-1.43223,-1.58329 -2.14836,-3.77221 -2.14836,-6.56674c0,-2.79454 0.71612,-4.98206 2.14836,-6.56255c1.43223,-1.58329 3.3624,-2.37494 5.79048,-2.37494c2.43088,0 4.35685,0.79164 5.7779,2.37494c1.42104,1.5805 2.13157,3.76801 2.13157,6.56255c0,2.79454 -0.71053,4.98345 -2.13157,6.56674c-1.42104,1.5805 -3.34701,2.37074 -5.7779,2.37074c-2.42809,0 -4.35825,-0.79025 -5.79048,-2.37074zM312.43999,219.30213c-1.29237,0 -1.93855,1.05459 -1.93855,3.16378c0,2.10639 0.64618,3.15959 1.93855,3.15959c1.29516,0 1.94275,-1.0532 1.94275,-3.15959c0,-2.10919 -0.64759,-3.16378 -1.94275,-3.16378zM333.0822,214.01098c0.09231,-0.18463 0.66576,-0.27694 1.72036,-0.27694c3.43793,0 5.11073,0.12588 5.01842,0.37764l-4.196,8.69832c2.81971,5.27018 4.22957,7.90527 4.22957,7.90527c0,0.13707 -0.68815,0.25176 -2.06444,0.34407c-1.37349,0.09231 -2.34696,0.13847 -2.92042,0.13847c-1.44342,0 -2.2113,-0.14965 -2.30361,-0.44897l-1.85463,-5.74013l-2.13157,5.9793c-0.04476,0.16225 -0.69794,0.24337 -1.95954,0.24337c-1.2588,0 -2.38193,-0.04615 -3.36939,-0.13847c-0.98466,-0.09231 -1.43084,-0.20701 -1.33853,-0.34407l3.8855,-7.90527c-2.70502,-5.66181 -4.05754,-8.5039 -4.05754,-8.52628c0,-0.13707 0.34967,-0.26295 1.049,-0.37764c0.69934,-0.11469 1.48958,-0.17203 2.37074,-0.17203c0.88116,0 1.72316,0.04056 2.526,0.12169c0.80284,0.08112 1.25041,0.19022 1.34272,0.32729l1.82107,5.5681z" fill="#ffffff" stroke="none" stroke-width="1" stroke-linecap="square"/><path d="M246.27844,128.6586c0.22429,0.02929 0.58663,0.08786 0.80518,0.12301c3.20346,0.49788 6.02734,1.77481 8.55791,3.88349c0.83393,0.68532 1.50683,1.3765 7.55143,7.67911c3.00216,3.13374 3.51404,3.72534 4.44574,5.12527c0.64414,0.96648 0.92021,1.48779 1.55284,2.92287c0.30482,0.69703 0.69591,1.50536 0.8627,1.79237c0.31633,0.53303 1.08124,1.59908 1.48383,2.07353l0.22429,0.25773l0.31057,-0.16401c0.45435,-0.2343 0.82243,-0.32216 1.38605,-0.32216c0.8972,0 1.66212,0.35145 2.34653,1.08363c0.62114,0.66774 0.91445,1.31206 0.96621,2.13796c0.04026,0.60332 -0.04026,1.03677 -0.28181,1.53465c-0.15529,0.32216 -0.52337,0.72047 -2.88714,3.13959c-1.48958,1.52293 -2.82963,2.86429 -2.97917,2.97558c-0.83968,0.6326 -2.00144,0.72047 -3.02517,0.22844c-1.21352,-0.58574 -1.97269,-1.68108 -2.06471,-2.9873c-0.06326,-0.92548 0.2128,-1.59322 0.99498,-2.42498l0.52911,-0.5506l-0.81668,-1.03091c-1.85191,-2.35469 -2.80662,-3.07516 -4.17543,-3.15131c-0.33357,-0.02343 -0.62689,0 -0.92021,0.06444c-1.58736,0.3573 -2.65134,0.25772 -3.67507,-0.32217c-0.36233,-0.21087 -0.82818,-0.53303 -1.04098,-0.73218l-0.14954,-0.13472l-6.02734,6.1386c-3.55429,3.6199 -6.01584,6.16788 -5.99284,6.20889c0.02301,0.03514 0.62689,0.62089 1.3458,1.30621c0.71891,0.68532 1.42057,1.36479 1.56435,1.51122c0.14378,0.14643 0.94321,0.92548 1.78289,1.72795c0.83968,0.80832 1.7944,1.72794 2.12797,2.0501c0.33357,0.32216 1.27678,1.23007 2.09922,2.02082c0.82243,0.79075 1.76564,1.69866 2.09922,2.02081c0.33357,0.32216 1.27678,1.23006 2.09922,2.02082c0.82243,0.79075 1.76565,1.69866 2.09922,2.02081c0.33357,0.32216 1.28828,1.24764 2.12797,2.05011c0.83968,0.80247 1.78289,1.71037 2.09922,2.02081c0.31633,0.31044 0.81093,0.7849 1.09275,1.05434c3.28973,3.15716 5.71676,5.51771 6.04459,5.88087c1.10424,1.21248 1.5931,2.88187 1.32279,4.46337c-0.39108,2.26098 -2.01295,4.21736 -4.08916,4.93197c-0.69591,0.2343 -0.92021,0.27529 -1.69662,0.27529c-0.90295,0 -1.30554,-0.07615 -2.05896,-0.38659c-0.82819,-0.33973 -1.45507,-0.77904 -2.24875,-1.56393c-0.25306,-0.24601 -1.86342,-1.97982 -3.58305,-3.84834c-1.71387,-1.86853 -3.53703,-3.84249 -4.04315,-4.39308c-1.51833,-1.64008 -7.8965,-8.55773 -9.4321,-10.22124c-0.78792,-0.85519 -1.8174,-1.97396 -2.29476,-2.48942c-0.47736,-0.51546 -1.43207,-1.55222 -2.12222,-2.30197c-0.69016,-0.7439 -1.27678,-1.35893 -1.30553,-1.35893c-0.02301,0 -0.15529,0.12301 -0.29332,0.2753c-0.24156,0.2753 -1.43782,1.55808 -4.94035,5.31856c-0.93171,1.00162 -2.36952,2.54214 -3.19771,3.42661c-12.02017,12.90395 -14.44146,15.49294 -14.67151,15.7038c-0.56938,0.52131 -1.19627,0.76732 -1.97269,0.76732c-0.61539,0.00586 -0.9087,-0.05271 -1.56435,-0.31044c-0.92595,-0.36317 -1.22503,-0.62674 -4.2502,-3.72534c-3.07119,-3.13959 -3.25522,-3.36218 -3.55429,-4.28765c-0.26456,-0.82004 -0.09202,-1.66937 0.50612,-2.4777c0.11503,-0.15815 1.32279,-1.37651 2.68009,-2.70029c1.36305,-1.32964 2.84688,-2.78229 3.30698,-3.23331c0.8857,-0.87276 2.38678,-2.33712 5.69376,-5.56457c1.1215,-1.09534 2.40404,-2.34883 2.84688,-2.78229c0.44284,-0.43345 1.71388,-1.67523 2.81813,-2.75301c1.11,-1.07777 2.37528,-2.31955 2.81813,-2.753c0.44284,-0.43931 1.69088,-1.65765 2.77787,-2.71785c1.08124,-1.06019 1.96694,-1.94467 1.96694,-1.97396c0,-0.05272 -0.52912,-0.6326 -4.02589,-4.41651c-0.68441,-0.7439 -1.57585,-1.71037 -1.98419,-2.15554c-0.40259,-0.43931 -0.74766,-0.80247 -0.75917,-0.80247c-0.0115,0 -0.20704,0.041 -0.43709,0.08201c-0.23005,0.04686 -0.83969,0.16987 -1.36306,0.26944c-0.52337,0.09957 -1.06399,0.20501 -1.20777,0.2343c-0.14378,0.02929 -0.6844,0.13472 -1.20777,0.2343c-0.52337,0.09957 -1.06399,0.20501 -1.20777,0.2343c-0.14378,0.02929 -0.6844,0.13472 -1.20777,0.2343c-0.52337,0.09957 -1.12725,0.21672 -1.35155,0.26359c-1.93818,0.38659 -2.97916,0.56232 -3.01367,0.52131c-0.02301,-0.02929 -0.96046,-1.39993 -2.07621,-3.04002c-1.1215,-1.64594 -2.77211,-4.04163 -3.66931,-5.33027c-0.90295,-1.28863 -2.07046,-2.95802 -2.59383,-3.71362c-0.52337,-0.74975 -0.94896,-1.41164 -0.93745,-1.46435c0.0115,-0.05272 0.83969,-0.93134 1.84041,-1.95639l1.82315,-1.85681l4.05465,4.1295l4.05466,4.1295l2.7376,-0.79661l2.74336,-0.79661l0.50036,-1.79824c0.28181,-0.98405 0.52912,-1.88024 0.55788,-1.98568c0.04601,-0.18159 0.10352,-0.3983 0.2128,-0.79075c0.08052,-0.26359 0.17829,-0.62089 0.23005,-0.83176c0.04601,-0.16986 -0.04601,-0.27529 -3.99714,-4.30522l-4.0489,-4.1295l2.00144,-2.03839l1.9957,-2.03253l0.54637,0.36902c0.70166,0.48031 8.35086,5.55285 11.12873,7.38038c1.17326,0.76732 2.12222,1.42921 2.12222,1.46436c-0.00575,0.04101 -0.09202,0.42759 -0.18979,0.86104c-0.30482,1.36479 -0.64989,2.89358 -0.69591,3.10445c-0.02301,0.11129 -0.17829,0.80832 -0.34508,1.55222c-0.32782,1.45264 -0.36233,1.62251 -0.4486,2.02081c-0.02875,0.14643 -0.18979,0.8669 -0.35658,1.6108c-0.41985,1.8861 -0.41409,1.86266 -0.42559,1.99153c-0.00575,0.12301 0.20129,0.33387 2.81237,2.84086c0.82243,0.79075 1.76565,1.69866 2.09922,2.02081c0.54062,0.52716 3.12869,3.01658 3.98564,3.83077l0.33357,0.32216l6.10211,-6.21475l6.10211,-6.21474l-0.12653,-0.18159c-0.31633,-0.45102 -0.50612,-1.09534 -0.55788,-1.88024c-0.04601,-0.70289 0.02876,-1.10706 0.32208,-1.75723c0.44284,-0.97233 0.56363,-1.67523 0.4601,-2.62999c-0.25881,-2.29026 -1.84616,-4.54538 -4.67004,-6.61891c-1.51833,-1.11291 -3.65206,-2.17311 -5.48097,-2.72371c-1.74989,-0.52135 -0.31632,-1.73966 1.69663,-1.87438c0.60388,-0.04101 3.53703,0.01757 3.93963,0.082z" fill="#ffffff" stroke="none" stroke-width="1" stroke-linecap="butt"/><path d="M342.63146,159.93363h-0.57582h-0.57582l-0.13596,-0.9357c-0.07198,-0.51184 -0.16795,-0.96769 -0.19994,-0.99968c-0.03999,-0.03999 -0.40787,-0.05598 -0.82374,-0.04799l-0.75177,0.02399l-0.19993,0.89572c-0.11196,0.48784 -0.22393,0.91171 -0.24793,0.9437c-0.03199,0.02399 -0.28791,0.02399 -0.57582,-0.008l-0.52784,-0.05598l-0.02399,-0.99968l-0.02399,-1.00769l-0.75976,-0.13596c-0.41587,-0.07198 -0.78375,-0.11196 -0.80775,-0.07997c-0.03199,0.02399 -0.18395,0.40787 -0.35189,0.84774c-0.15995,0.43986 -0.3199,0.83174 -0.35988,0.86373c-0.06398,0.07198 -0.85573,-0.07198 -1.03168,-0.17595c-0.05598,-0.03999 -0.04798,-0.3039 0.03199,-0.84774c0.17595,-1.22362 0.21594,-1.11965 -0.54383,-1.35957c-0.35989,-0.11196 -0.69578,-0.22393 -0.75177,-0.24793c-0.05598,-0.02399 -0.27991,0.3039 -0.54383,0.79975c-0.24793,0.46385 -0.47186,0.86373 -0.50385,0.87973c-0.04798,0.03199 -0.9597,-0.30391 -1.03168,-0.38388c-0.01599,-0.016 0.07997,-0.41587 0.21594,-0.89572c0.12796,-0.47985 0.23993,-0.91172 0.23993,-0.95171c0,-0.06398 -1.2716,-0.75976 -1.39157,-0.75976c-0.01599,0 -0.28791,0.3439 -0.59981,0.75976c-0.31191,0.41587 -0.60781,0.75976 -0.6478,0.75976c-0.05598,0 -0.84774,-0.43187 -0.9357,-0.51184c-0.01599,-0.008 0.15995,-0.42386 0.37588,-0.92771c0.22393,-0.49585 0.39187,-0.91171 0.38388,-0.91971c-0.25592,-0.19194 -1.2716,-0.83974 -1.31959,-0.83974c-0.03199,0 -0.36789,0.3039 -0.74377,0.67979l-0.67979,0.67179l-0.42387,-0.3199c-0.22393,-0.17595 -0.41587,-0.35189 -0.41587,-0.38388c0,-0.03199 0.22393,-0.43186 0.49584,-0.87172l0.48785,-0.81574l-0.54383,-0.49585c-0.29591,-0.27991 -0.57582,-0.51984 -0.61581,-0.52784c-0.03199,-0.016 -0.39988,0.22393 -0.81574,0.53583c-0.43986,0.3439 -0.79175,0.55183 -0.86373,0.52784c-0.06398,-0.02399 -0.24793,-0.20794 -0.41587,-0.40788l-0.29591,-0.35189l0.53583,-0.66379c0.29591,-0.35988 0.57582,-0.70378 0.61581,-0.75177c0.05598,-0.07198 -0.06398,-0.27192 -0.38388,-0.66379c-0.25592,-0.3119 -0.49584,-0.58382 -0.52783,-0.60781c-0.03999,-0.02399 -0.43187,0.15995 -0.86373,0.39988c-0.43187,0.24793 -0.83174,0.44786 -0.87172,0.44786c-0.08797,0 -0.6558,-0.73577 -0.6558,-0.85574c0,-0.03999 0.3039,-0.35189 0.67979,-0.69578c0.37588,-0.33589 0.67979,-0.6478 0.67979,-0.68779c0,-0.03999 -0.18394,-0.35189 -0.40787,-0.70378l-0.39988,-0.6318l-0.91971,0.35989c-0.50385,0.19194 -0.92771,0.34389 -0.94371,0.32789c-0.06398,-0.08797 -0.52783,-0.9837 -0.50384,-0.99169c0.008,-0.008 0.36789,-0.26391 0.79175,-0.55183c0.43187,-0.29591 0.78375,-0.56782 0.78375,-0.59181c0,-0.03999 -0.53583,-1.31159 -0.60781,-1.43955c0,-0.008 -0.43986,0.08797 -0.9597,0.21594c-1.07166,0.25592 -0.9837,0.28791 -1.23162,-0.42387l-0.14396,-0.42387l0.87173,-0.43186c0.47985,-0.23192 0.87172,-0.46385 0.87172,-0.51184c-0.008,-0.11196 -0.39187,-1.41556 -0.43186,-1.46354c-0.02399,-0.016 -0.46386,0.008 -0.9757,0.06398c-1.05567,0.10397 -1.02368,0.11996 -1.11165,-0.46385c-0.03199,-0.19194 -0.07198,-0.39987 -0.08797,-0.45585c-0.03199,-0.07198 0.14395,-0.16795 0.50384,-0.27992c0.29591,-0.10397 0.72777,-0.24792 0.95171,-0.32789l0.40788,-0.15195l-0.10397,-0.70378c-0.06398,-0.38388 -0.11196,-0.73577 -0.11196,-0.78375c0,-0.05598 -0.35189,-0.11196 -0.9757,-0.14396c-0.54383,-0.03199 -0.99169,-0.07198 -1.00768,-0.07997c-0.008,-0.016 -0.02399,-0.27192 -0.03999,-0.56782l-0.016,-0.55183l0.55982,-0.10397c0.3039,-0.06398 0.73577,-0.14395 0.9597,-0.19194l0.39988,-0.07198v-0.79975v-0.79975l-0.39988,-0.07997c-0.22393,-0.04799 -0.6558,-0.12796 -0.9597,-0.18395l-0.55982,-0.10397l0.016,-0.54383c0.01599,-0.3039 0.03199,-0.55982 0.04798,-0.57582c0.008,-0.016 0.45585,-0.04799 0.99169,-0.07998l0.96769,-0.05598l0.09597,-0.68779c0.04798,-0.37589 0.09597,-0.73577 0.10397,-0.79975c0.008,-0.07198 -0.28791,-0.20794 -0.89572,-0.41587c-0.50385,-0.16795 -0.91971,-0.3199 -0.9357,-0.32789c-0.03199,-0.03199 0.18394,-1.02368 0.23192,-1.07166c0.02399,-0.02399 0.46386,0 0.9757,0.04798c0.51184,0.04799 0.95171,0.07998 0.96769,0.05598c0.03999,-0.03999 0.43186,-1.35158 0.43186,-1.45555c0,-0.04799 -0.39187,-0.27991 -0.87172,-0.51984l-0.87173,-0.42387l0.18394,-0.51184c0.10397,-0.28791 0.19993,-0.52783 0.21594,-0.54383c0.01599,-0.016 0.22393,0.016 0.46386,0.07997c0.23993,0.06398 0.66379,0.16795 0.94371,0.23192l0.51184,0.11996l0.3119,-0.68779c0.16795,-0.37589 0.31191,-0.71178 0.31191,-0.74377c0,-0.03999 -0.35189,-0.3119 -0.78376,-0.60781c-0.42386,-0.28791 -0.78375,-0.54383 -0.79975,-0.55183c-0.03999,-0.03199 0.50384,-0.99969 0.56782,-0.99969c0.03199,0 0.44786,0.15995 0.9357,0.35189l0.87173,0.35189l0.35988,-0.57582c0.19993,-0.3199 0.38388,-0.6398 0.40788,-0.70378c0.03199,-0.07997 -0.17595,-0.32789 -0.6478,-0.76776c-0.78375,-0.72777 -0.77576,-0.69578 -0.25592,-1.32758l0.22393,-0.27992l0.85573,0.48784l0.84774,0.49585l0.23993,-0.27991c0.79975,-0.9437 0.79975,-0.9437 0.68779,-1.09565c-0.05598,-0.07198 -0.33589,-0.41587 -0.61581,-0.75976l-0.51184,-0.61581l0.33589,-0.39988c0.18394,-0.22393 0.37588,-0.39987 0.42386,-0.39987c0.03999,0 0.41587,0.25592 0.83174,0.55982c0.48784,0.37589 0.78375,0.54383 0.85573,0.50385c0.05598,-0.03199 0.3279,-0.27192 0.60781,-0.51984l0.50385,-0.45585l-0.50385,-0.84774c-0.55183,-0.92771 -0.55183,-0.88773 0.02399,-1.2956l0.35189,-0.25592l0.67179,0.67979c0.36789,0.36789 0.69578,0.67179 0.73577,0.67179c0.04798,0 1.04768,-0.6398 1.31959,-0.83974c0.008,-0.008 -0.15995,-0.42387 -0.38388,-0.91971c-0.21594,-0.50385 -0.39188,-0.91971 -0.37589,-0.92771c0.008,-0.008 0.23192,-0.14396 0.48784,-0.29591l0.47186,-0.28791l0.55183,0.73577c0.3039,0.40787 0.58382,0.76776 0.61581,0.79975c0.07997,0.07997 1.44755,-0.58382 1.44755,-0.70378c0,-0.03999 -0.11197,-0.47185 -0.23993,-0.9517c-0.13596,-0.47985 -0.23192,-0.87973 -0.21594,-0.89572c0.07198,-0.07997 0.9837,-0.41587 1.03168,-0.38388c0.03199,0.016 0.25592,0.40787 0.49584,0.86373l0.44786,0.83174l0.73577,-0.23992c0.40787,-0.12796 0.75976,-0.24793 0.77576,-0.27192c0.01599,-0.016 -0.02399,-0.44786 -0.09597,-0.96769c-0.07997,-0.6318 -0.09597,-0.9597 -0.04798,-0.99169c0.17595,-0.10397 0.96769,-0.24792 1.03168,-0.17594c0.03999,0.03199 0.17595,0.35189 0.3039,0.70378c0.13596,0.35189 0.27992,0.73577 0.3199,0.84774l0.07997,0.20793l0.79175,-0.13596l0.78375,-0.12796l0.02399,-1.00769l0.02399,-1.00769l0.51984,-0.05598c0.28791,-0.03199 0.55183,-0.03199 0.57582,0c0.03199,0.02399 0.14396,0.45585 0.25592,0.9437l0.19993,0.89572l0.75177,0.02399c0.41587,0.008 0.78375,-0.008 0.82374,-0.04798c0.03199,-0.03199 0.12796,-0.48784 0.19994,-0.99968l0.13596,-0.93571h0.57582h0.57582l0.05598,0.62381c0.10397,1.36757 0.10397,1.36757 0.38388,1.41556c0.14396,0.02399 0.50385,0.04799 0.80775,0.06398l0.54383,0.01599l0.26391,-0.87972l0.25592,-0.87973l0.35189,0.008c0.19194,0 0.45585,0.03199 0.58382,0.06398l0.22393,0.05598l-0.05598,0.98369l-0.05598,0.9757l0.77576,0.20794l0.77576,0.19993l0.42387,-0.90371c0.27992,-0.59181 0.46385,-0.89572 0.53583,-0.87973c0.05598,0.02399 0.29591,0.09597 0.51984,0.16795c0.23192,0.07198 0.42387,0.17594 0.42387,0.22393c0,0.05598 -0.07998,0.48784 -0.16795,0.9597c-0.10397,0.50385 -0.14396,0.88773 -0.10397,0.92771c0.16795,0.15195 1.40756,0.58382 1.45555,0.51184c0.03199,-0.03999 0.26391,-0.40787 0.51984,-0.80775c0.26391,-0.40787 0.50385,-0.73577 0.54383,-0.73577c0.15195,0 0.95171,0.43987 0.95171,0.51984c0,0.04799 -0.14396,0.47186 -0.31191,0.9437l-0.31191,0.86373l0.17595,0.10397c0.97569,0.59181 1.19163,0.68778 1.29559,0.59981c0.06398,-0.05598 0.35189,-0.37589 0.6478,-0.71977c0.28791,-0.35189 0.55982,-0.6318 0.59981,-0.6318c0.04798,0 0.27192,0.13596 0.50385,0.29591l0.42386,0.3039l-0.43186,0.84774c-0.23993,0.46385 -0.43187,0.86373 -0.43187,0.88773c0,0.03199 0.27191,0.27192 0.60781,0.53583l0.61581,0.48784l0.60781,-0.53583c0.33589,-0.29591 0.67179,-0.58382 0.74377,-0.6478c0.12796,-0.10397 0.17595,-0.08797 0.51184,0.18394c0.19993,0.16795 0.38388,0.35189 0.40787,0.40787c0.01599,0.05598 -0.21594,0.45586 -0.52783,0.88773l-0.55982,0.78375l0.56782,0.57582l0.56782,0.56782l0.79175,-0.51184c0.43187,-0.27991 0.81574,-0.51184 0.85573,-0.51184c0.03999,0 0.22393,0.18395 0.40787,0.39988l0.33589,0.39988l-0.67979,0.74377l-0.67979,0.73577l0.43986,0.59981c0.23993,0.3279 0.47985,0.60781 0.53583,0.6238c0.04798,0.008 0.46386,-0.15995 0.91972,-0.38388c0.45585,-0.22393 0.85573,-0.37589 0.87972,-0.3359c0.45585,0.68778 0.58382,0.91971 0.51184,0.9597c-0.21594,0.15195 -1.46354,1.16764 -1.46354,1.19963c0,0.02399 0.16795,0.34389 0.36789,0.71178c0.42386,0.77576 0.3039,0.75177 1.53552,0.3359c0.37588,-0.12796 0.69578,-0.21594 0.71978,-0.19994c0.01599,0.016 0.12796,0.24793 0.25592,0.51184c0.16795,0.35988 0.20794,0.50384 0.13596,0.55982c-0.05598,0.03999 -0.43987,0.27192 -0.86373,0.51984l-0.76776,0.44786l0.27992,0.76776c0.21594,0.57582 0.3119,0.75177 0.40787,0.72777c0.3279,-0.09597 1.78345,-0.29591 1.82343,-0.25592c0.02399,0.02399 0.10397,0.27192 0.18394,0.55183l0.14396,0.51184l-0.85574,0.3439c-0.46386,0.19194 -0.87972,0.36788 -0.91171,0.39987c-0.05598,0.05598 0.07997,0.90372 0.23992,1.47154c0.03999,0.14396 0.10397,0.15195 1.03168,0.09597l0.9837,-0.04798l0.04798,0.37588c0.02399,0.21594 0.06398,0.47186 0.08797,0.58382c0.03199,0.19194 0.008,0.20794 -0.90371,0.44786l-0.94371,0.23992l0.02399,0.79975c0.01599,0.43186 0.03999,0.79975 0.04798,0.80775c0.008,0.008 0.33589,0.05598 0.72777,0.09597c0.39988,0.04799 0.83974,0.10397 0.97569,0.12796l0.26391,0.04799v0.55183v0.55183l-0.26391,0.03999c-0.13596,0.02399 -0.57582,0.07997 -0.97569,0.12796c-0.39188,0.04799 -0.71978,0.09597 -0.72777,0.10397c-0.008,0.008 -0.03199,0.37589 -0.04798,0.80775l-0.02399,0.79175l0.94371,0.24793c0.91172,0.23992 0.9357,0.24792 0.90371,0.44786c-0.02399,0.11196 -0.06398,0.36789 -0.08797,0.57582l-0.04798,0.38388l-0.9837,-0.05598c-0.92771,-0.04799 -0.99169,-0.03999 -1.03168,0.10397c-0.15995,0.56782 -0.2959,1.41556 -0.23992,1.47154c0.03199,0.03199 0.44786,0.20794 0.91171,0.39988l0.85574,0.3439l-0.14396,0.51184c-0.07997,0.27991 -0.15995,0.52784 -0.17595,0.55183c-0.02399,0.016 -0.47186,-0.03199 -0.99169,-0.11996c-0.51984,-0.08797 -0.9597,-0.15195 -0.9597,-0.14395c-0.008,0.008 -0.14396,0.35189 -0.29591,0.75976l-0.27191,0.74377l0.82374,0.47985c0.45585,0.27192 0.83174,0.53583 0.83174,0.59181c0,0.20793 -0.40787,0.99169 -0.50385,0.9597c-0.05598,-0.016 -0.44786,-0.14395 -0.87973,-0.27991c-0.43187,-0.14396 -0.82375,-0.23992 -0.87973,-0.21594c-0.14396,0.05598 -0.80775,1.33558 -0.72777,1.40756c0.03999,0.03199 0.35988,0.28791 0.71178,0.56782c0.35189,0.27991 0.67179,0.53583 0.70378,0.56782c0.05598,0.03999 -0.35189,0.79975 -0.54383,1.01568c-0.01599,0.016 -0.39187,-0.15995 -0.83974,-0.38388c-0.44786,-0.22393 -0.86373,-0.39988 -0.91972,-0.38388c-0.05598,0.016 -0.3039,0.29591 -0.54383,0.62381l-0.44786,0.59981l0.37588,0.39988c0.20794,0.22393 0.51984,0.55183 0.68779,0.73577l0.3119,0.33589l-0.33589,0.39988c-0.19194,0.22393 -0.37588,0.40787 -0.41587,0.40787c-0.03199,0 -0.41587,-0.23193 -0.84774,-0.51184l-0.78376,-0.51984l-0.57582,0.56782c-0.35189,0.3439 -0.55183,0.60781 -0.51184,0.65579c0.44786,0.59981 1.04767,1.48754 1.04767,1.55151c0,0.04799 -0.18394,0.23193 -0.39987,0.41587l-0.39988,0.33589l-0.27192,-0.23192c-0.15195,-0.11996 -0.48784,-0.41587 -0.75176,-0.6398l-0.47985,-0.42387l-0.60781,0.47985c-0.33589,0.26391 -0.60781,0.50385 -0.60781,0.53583c0,0.02399 0.19194,0.43187 0.43187,0.89572l0.43186,0.84774l-0.42386,0.3039c-0.23192,0.15995 -0.45585,0.29591 -0.50385,0.29591c-0.03999,0 -0.3119,-0.27991 -0.59981,-0.6318c-0.29591,-0.3439 -0.58382,-0.66379 -0.6478,-0.71977c-0.10397,-0.08797 -0.3199,0.008 -1.29559,0.59981l-0.17594,0.10397l0.3119,0.86373c0.16795,0.47186 0.31191,0.89572 0.31191,0.9437c0,0.07997 -0.79975,0.51984 -0.95171,0.51984c-0.03999,0 -0.27992,-0.3279 -0.54383,-0.73577c-0.25592,-0.39988 -0.48784,-0.76776 -0.51984,-0.81574c-0.04798,-0.07198 -1.2716,0.35988 -1.45555,0.51984c-0.03999,0.03999 0,0.42386 0.10397,0.92771c0.08797,0.47186 0.16795,0.90372 0.16795,0.95171c0,0.04799 -0.20794,0.15195 -0.46386,0.23193c-0.24793,0.07997 -0.47985,0.15995 -0.51984,0.17594c-0.03199,0.02399 -0.25592,-0.37589 -0.48784,-0.87973l-0.43187,-0.91171l-0.77576,0.19993l-0.77576,0.20794l0.05598,0.9757l0.05598,0.98369l-0.22393,0.05598c-0.12796,0.03199 -0.39188,0.06398 -0.58382,0.06398l-0.3439,0.008l-0.26391,-0.87972l-0.25592,-0.87973l-0.55183,0.016c-0.3039,0.016 -0.66379,0.03999 -0.80775,0.06398c-0.27992,0.04799 -0.27991,0.04798 -0.38388,1.42355zM341.92768,138.30838c1.76745,-0.38388 2.99906,-2.15932 2.71915,-3.90278c-0.3039,-1.9114 -2.12733,-3.26298 -3.96676,-2.95907c-1.9114,0.3199 -3.24698,2.14333 -2.93509,3.98275c0.24793,1.43155 1.2796,2.54321 2.67116,2.87111c0.59981,0.13596 0.91172,0.14396 1.51153,0.008z" data-paper-data="{&quot;index&quot;:null}" fill-opacity="0.50196" fill="#000000" stroke="none" stroke-width="1" stroke-linecap="butt"/><path d="M305.22192,170.14229l-0.36086,-0.00396l-0.36086,-0.00396l-0.07876,-0.58732c-0.04158,-0.32126 -0.09859,-0.60759 -0.11842,-0.62786c-0.02479,-0.02534 -0.25522,-0.03789 -0.5159,-0.03574l-0.47128,0.00987l-0.13146,0.55995c-0.07353,0.30495 -0.1466,0.56982 -0.16186,0.5897c-0.02021,0.01481 -0.18059,0.01306 -0.3608,-0.00897l-0.3304,-0.03872l-0.00816,-0.62664l-0.00811,-0.63166l-0.47519,-0.09043c-0.26012,-0.04797 -0.49039,-0.07556 -0.50565,-0.05568c-0.02021,0.01481 -0.11808,0.25434 -0.22636,0.52883c-0.10327,0.27455 -0.20619,0.51904 -0.23147,0.53881c-0.04059,0.04467 -0.53578,-0.051 -0.64532,-0.11736c-0.03481,-0.02544 -0.02798,-0.19078 0.02588,-0.53104c0.11868,-0.7656 0.14302,-0.70018 -0.33146,-0.85576c-0.22476,-0.07264 -0.43449,-0.14512 -0.46941,-0.16054c-0.03492,-0.01542 -0.1775,0.18852 -0.34631,0.49744c-0.15856,0.28898 -0.30164,0.53804 -0.3218,0.54784c-0.03029,0.01971 -0.59933,-0.19705 -0.64389,-0.24766c-0.00991,-0.01013 0.05298,-0.26007 0.14148,-0.55985c0.08349,-0.29983 0.15663,-0.5697 0.1569,-0.59476c0.00044,-0.0401 -0.79166,-0.48487 -0.86684,-0.4857c-0.01002,-0.00011 -0.18279,0.21353 -0.38112,0.472c-0.19833,0.25847 -0.38613,0.47195 -0.41119,0.47167c-0.03508,-0.00038 -0.52829,-0.27648 -0.58287,-0.3272c-0.00997,-0.00512 0.10316,-0.26452 0.24194,-0.57879c0.14374,-0.30919 0.25185,-0.56866 0.24689,-0.57372c-0.15906,-0.12205 -0.79111,-0.535 -0.82118,-0.53533c-0.02004,-0.00022 -0.23264,0.18792 -0.47078,0.42089l-0.43063,0.41632l-0.26343,-0.20339c-0.13912,-0.1118 -0.2582,-0.22339 -0.25797,-0.24343c0.00022,-0.02005 0.1433,-0.2691 0.31673,-0.54288l0.31133,-0.50786l-0.3374,-0.31447c-0.18351,-0.17745 -0.35728,-0.32974 -0.38228,-0.33502c-0.01993,-0.01024 -0.25214,0.13758 -0.5149,0.33019c-0.27802,0.21248 -0.49997,0.34037 -0.54491,0.32484c-0.03993,-0.01548 -0.15394,-0.13201 -0.25781,-0.25846l-0.18302,-0.22256l0.34036,-0.4123c0.18791,-0.2235 0.36569,-0.43708 0.39108,-0.46688c0.03557,-0.04472 -0.03822,-0.17084 -0.236,-0.41862c-0.15823,-0.19723 -0.30672,-0.36928 -0.3266,-0.38453c-0.0249,-0.01531 -0.27174,0.09726 -0.54403,0.24465c-0.27234,0.1524 -0.52432,0.27494 -0.54937,0.27467c-0.05513,-0.00061 -0.40591,-0.4656 -0.40508,-0.54078c0.00027,-0.02506 0.19287,-0.21843 0.43079,-0.43136c0.23787,-0.20791 0.43046,-0.40129 0.43074,-0.42634c0.00027,-0.02506 -0.11285,-0.22179 -0.25076,-0.44385l-0.24625,-0.39869l-0.57884,0.21921c-0.31707,0.11682 -0.58374,0.20913 -0.59366,0.19899c-0.03949,-0.05557 -0.32401,-0.62009 -0.30892,-0.62494c0.00507,-0.00496 0.23236,-0.16286 0.49997,-0.34037c0.27267,-0.18247 0.49507,-0.35045 0.49524,-0.36548c0.00027,-0.02506 -0.32677,-0.82563 -0.371,-0.90632c0.00005,-0.00501 -0.27626,0.0521 -0.60291,0.12872c-0.67335,0.15301 -0.61844,0.17366 -0.76891,-0.2741l-0.0873,-0.26661l0.54926,-0.26465c0.30231,-0.14204 0.54949,-0.28469 0.54982,-0.31477c-0.00424,-0.07022 -0.23585,-0.88979 -0.26058,-0.92014c-0.01493,-0.01019 -0.29074,0.00182 -0.61188,0.03338c-0.66228,0.0579 -0.64235,0.06813 -0.69346,-0.29834c-0.01873,-0.12051 -0.04236,-0.25109 -0.052,-0.28628c-0.01955,-0.04532 0.09137,-0.10426 0.31768,-0.17195c0.18615,-0.06312 0.45779,-0.15036 0.59867,-0.19894l0.25665,-0.09242l-0.06032,-0.44176c-0.03746,-0.24101 -0.06511,-0.46186 -0.06477,-0.49193c0.00038,-0.03508 -0.21976,-0.07259 -0.61046,-0.09692c-0.34058,-0.02379 -0.62097,-0.05193 -0.63094,-0.05705c-0.00491,-0.01008 -0.01317,-0.17057 -0.02116,-0.35611l-0.00623,-0.34593l0.35154,-0.06131c0.19089,-0.038 0.46208,-0.08515 0.60274,-0.11368l0.25109,-0.04236l0.0055,-0.50118l0.0055,-0.50118l-0.25005,-0.05287c-0.14,-0.03161 -0.41009,-0.0847 -0.60015,-0.12187l-0.35012,-0.06901l0.01376,-0.3407c0.01211,-0.19034 0.0239,-0.35061 0.03403,-0.36052c0.00513,-0.00997 0.286,-0.02694 0.62203,-0.0433l0.60682,-0.02842l0.06488,-0.43036c0.03266,-0.23523 0.0652,-0.46043 0.07065,-0.50047c0.00551,-0.04505 -0.17899,-0.13229 -0.55847,-0.26678c-0.31459,-0.10871 -0.57416,-0.2068 -0.58413,-0.21193c-0.01983,-0.02026 0.12232,-0.64025 0.15272,-0.67c0.0152,-0.01487 0.29069,0.00319 0.61112,0.03678c0.32043,0.03359 0.59586,0.05667 0.60605,0.04174c0.02533,-0.02479 0.27993,-0.84403 0.28065,-0.90919c0.00033,-0.03007 -0.24365,-0.17811 -0.54271,-0.33177l-0.54338,-0.27163l0.1188,-0.31949c0.06714,-0.17971 0.12893,-0.3294 0.13907,-0.33932c0.01013,-0.00992 0.14022,0.01156 0.29013,0.05331c0.14992,0.04174 0.41483,0.10981 0.58981,0.15184l0.31993,0.0787l0.2002,-0.42888c0.10784,-0.2344 0.20036,-0.44391 0.20058,-0.46396c0.00027,-0.02506 -0.21838,-0.19789 -0.48698,-0.38629c-0.26364,-0.18334 -0.48742,-0.3462 -0.49739,-0.35132c-0.02484,-0.02032 0.32263,-0.62301 0.36272,-0.62257c0.02004,0.00022 0.27956,0.10331 0.58396,0.22696l0.54387,0.22652l0.22949,-0.35838c0.1275,-0.1991 0.24497,-0.39831 0.26045,-0.43824c0.0206,-0.0499 -0.10801,-0.20669 -0.40068,-0.48559c-0.48615,-0.46147 -0.48136,-0.44137 -0.15124,-0.83373l0.14225,-0.17388l0.53292,0.31161l0.52785,0.31656l0.15228,-0.17377c0.50768,-0.5859 0.50768,-0.5859 0.43856,-0.68189c-0.03458,-0.04549 -0.20764,-0.26293 -0.38069,-0.48037l-0.31653,-0.38943l0.21325,-0.24828c0.11681,-0.13906 0.23831,-0.24801 0.26838,-0.24768c0.02506,0.00027 0.25885,0.16324 0.51738,0.35655c0.30313,0.23891 0.48742,0.3462 0.5328,0.32164c0.0353,-0.01966 0.20736,-0.16815 0.38448,-0.32159l0.31889,-0.28221l-0.30991,-0.53473c-0.33944,-0.58517 -0.33971,-0.56011 0.02395,-0.81175l0.22228,-0.15796l0.41632,0.43063c0.22802,0.23308 0.43141,0.42578 0.45647,0.42605c0.03007,0.00033 0.66096,-0.39374 0.83274,-0.51717c0.00507,-0.00496 -0.09732,-0.26673 -0.23424,-0.579c-0.13185,-0.31724 -0.23926,-0.57906 -0.22917,-0.58396c0.00507,-0.00496 0.14633,-0.08862 0.30776,-0.18209l0.29768,-0.17718l0.34076,0.46489c0.18764,0.2577 0.36058,0.48515 0.38041,0.50542c0.04957,0.05067 0.91116,-0.35591 0.91199,-0.43108c0.00027,-0.02506 -0.06692,-0.29647 -0.14381,-0.59806c-0.0819,-0.30165 -0.13929,-0.5529 -0.12916,-0.56282c0.04566,-0.04962 0.61932,-0.25385 0.64917,-0.23347c0.01993,0.01024 0.15757,0.25736 0.30479,0.54469l0.27495,0.52432l0.46274,-0.1453c0.25648,-0.07738 0.47783,-0.15015 0.48802,-0.16507c0.01013,-0.00992 -0.01195,-0.28083 -0.05348,-0.60709c-0.04577,-0.39649 -0.05354,-0.60208 -0.02325,-0.6218c0.11097,-0.06394 0.60814,-0.14871 0.64774,-0.10317c0.02484,0.02032 0.10784,0.22174 0.18561,0.44314c0.08278,0.22146 0.17036,0.46301 0.19465,0.53346l0.04869,0.13086l0.49711,-0.07976l0.49204,-0.0748l0.02197,-0.63133l0.02197,-0.63133l0.32615,-0.03151c0.18065,-0.01807 0.34604,-0.01625 0.36086,0.00396c0.01988,0.01525 0.08708,0.28666 0.15389,0.59316l0.11913,0.56271l0.47095,0.02021c0.26056,0.00788 0.49122,0.00038 0.51655,-0.02441c0.02026,-0.01982 0.08355,-0.30485 0.13218,-0.62511l0.09164,-0.58545l0.36086,0.00396l0.36086,0.00396l0.03079,0.39131c0.05575,0.85774 0.05575,0.85774 0.23084,0.88974c0.09005,0.01603 0.31542,0.03354 0.50576,0.04565l0.34069,0.01377l0.17145,-0.54949l0.16643,-0.54954l0.22047,0.00743c0.12029,0.00132 0.28546,0.02319 0.36543,0.04411l0.13995,0.03662l-0.04185,0.61607l-0.04179,0.61106l0.48472,0.13565l0.48478,0.13063l0.27184,-0.56342c0.17948,-0.36895 0.29685,-0.55813 0.34185,-0.54762c0.03492,0.01542 0.18478,0.06218 0.32462,0.10882c0.14485,0.0467 0.26441,0.11318 0.26408,0.14325c-0.00038,0.03508 -0.05347,0.30517 -0.11185,0.60027c-0.06862,0.31503 -0.09632,0.55533 -0.07154,0.58066c0.1042,0.09638 0.87807,0.37555 0.90864,0.33077c0.02032,-0.02484 0.1682,-0.25379 0.33133,-0.50262c0.1682,-0.25379 0.32081,-0.45762 0.34587,-0.45735c0.09523,0.00105 0.59338,0.2822 0.59283,0.33232c-0.00033,0.03007 -0.09346,0.29471 -0.20195,0.58925l-0.2014,0.53914l0.10954,0.06636c0.60737,0.37759 0.74203,0.43922 0.80779,0.3848c0.04048,-0.03464 0.22311,-0.23314 0.41091,-0.44661c0.18284,-0.21855 0.35518,-0.39208 0.38024,-0.39181c0.03007,0.00033 0.16947,0.08707 0.31371,0.18891l0.26354,0.19337l-0.27647,0.52829c-0.15355,0.28904 -0.27658,0.53831 -0.27675,0.55334c-0.00022,0.02005 0.16854,0.17228 0.37722,0.33998l0.38256,0.30996l0.38459,-0.33161c0.21254,-0.18313 0.42501,-0.36124 0.47056,-0.40085c0.0809,-0.06428 0.11086,-0.05392 0.3195,0.1188c0.12414,0.10663 0.23815,0.22316 0.2528,0.25841c0.00964,0.03519 -0.13845,0.28419 -0.33689,0.55268l-0.35622,0.48731l0.35188,0.36476l0.35194,0.35975l0.49969,-0.31531c0.27256,-0.17245 0.51473,-0.31515 0.53979,-0.31488c0.02506,0.00027 0.13907,0.11682 0.25286,0.2534l0.20774,0.2529l-0.43113,0.46143l-0.43107,0.45641l0.27152,0.37892c0.1481,0.20713 0.29653,0.3842 0.3315,0.39461c0.03001,0.00535 0.29179,-0.09704 0.579,-0.23424c0.28722,-0.13719 0.53886,-0.22967 0.55362,-0.20445c0.28094,0.43416 0.35954,0.58038 0.31415,0.60495c-0.13637,0.09374 -0.9252,0.72167 -0.92542,0.74171c-0.00016,0.01504 0.10288,0.21666 0.22565,0.44858c0.26029,0.48907 0.18528,0.47321 0.95997,0.22106c0.23644,-0.07761 0.43752,-0.13053 0.45245,-0.12034c0.00991,0.01013 0.07849,0.15625 0.15686,0.32252c0.10278,0.22669 0.12685,0.31718 0.08135,0.35177c-0.03535,0.02468 -0.27752,0.16737 -0.54485,0.31983l-0.48422,0.27539l0.17013,0.48307c0.13136,0.36234 0.19029,0.47326 0.2506,0.45888c0.20614,-0.05788 1.11968,-0.17317 1.14446,-0.14783c0.01487,0.0152 0.06329,0.17112 0.11148,0.34708l0.0867,0.32175l-0.53863,0.20962c-0.29201,0.1171 -0.55384,0.2245 -0.57411,0.24432c-0.03546,0.03469 0.0439,0.56689 0.14024,0.92383c0.02407,0.09049 0.06411,0.09594 0.64587,0.06724l0.61679,-0.02331l0.02749,0.23589c0.01355,0.13548 0.03685,0.29614 0.05111,0.36647c0.01873,0.12051 0.00358,0.13037 -0.56942,0.27445l-0.59305,0.14387l0.00953,0.50135c0.00705,0.27075 0.01956,0.50146 0.02452,0.50653c0.00496,0.00507 0.21012,0.03739 0.45542,0.06515c0.25027,0.03283 0.52553,0.07093 0.61057,0.0869l0.16506,0.03189l-0.00379,0.34582l-0.0038,0.34582l-0.16566,0.02325c-0.08537,0.0141 -0.3614,0.04616 -0.61232,0.07348c-0.24591,0.02738 -0.45173,0.05519 -0.45679,0.06015c-0.00507,0.00496 -0.02263,0.23534 -0.03563,0.50587l-0.02048,0.49601l0.5897,0.16186c0.5697,0.15663 0.58468,0.1618 0.56326,0.28688c-0.01581,0.07 -0.04263,0.23011 -0.05909,0.36025l-0.03271,0.24024l-0.61608,-0.04185c-0.58105,-0.03645 -0.6212,-0.03188 -0.64724,0.05806c-0.10415,0.35474 -0.19518,0.88506 -0.16048,0.92053c0.01983,0.02026 0.27924,0.13339 0.5686,0.25687l0.53391,0.2214l-0.09373,0.31977c-0.05205,0.17487 -0.10387,0.32968 -0.11406,0.34461c-0.01515,0.00986 -0.29548,-0.02329 -0.62065,-0.082c-0.32517,-0.05871 -0.60038,-0.10182 -0.60044,-0.09681c-0.00507,0.00496 -0.09263,0.21953 -0.19066,0.47409l-0.17552,0.46423l0.51292,0.30638c0.2838,0.17354 0.51754,0.34151 0.51716,0.3766c-0.00143,0.13031 -0.26243,0.61867 -0.32235,0.59796c-0.03497,-0.01041 -0.27967,-0.0933 -0.54938,-0.18147c-0.26965,-0.09319 -0.51457,-0.15602 -0.54982,-0.14138c-0.0906,0.03409 -0.51538,0.83142 -0.46576,0.87708c0.02484,0.02032 0.22355,0.1829 0.44215,0.36074c0.2186,0.17783 0.41731,0.34041 0.43714,0.36068c0.03481,0.02544 -0.22602,0.49877 -0.3478,0.63277c-0.01013,0.00992 -0.24448,-0.10294 -0.5236,-0.24634c-0.27913,-0.14341 -0.53853,-0.25654 -0.57373,-0.2469c-0.03519,0.00964 -0.19248,0.18335 -0.3451,0.38719l-0.28479,0.37281l0.2328,0.25317c0.12877,0.14176 0.32198,0.3494 0.42596,0.46582l0.19315,0.21265l-0.21325,0.24828c-0.12183,0.13901 -0.23836,0.25302 -0.26342,0.25275c-0.02004,-0.00022 -0.25903,-0.14821 -0.52774,-0.32659l-0.48759,-0.33116l-0.36476,0.35188c-0.22289,0.21309 -0.35,0.37711 -0.32527,0.40745c0.27654,0.37897 0.64632,0.93941 0.64588,0.97951c-0.00033,0.03007 -0.11687,0.14408 -0.25345,0.25786l-0.2529,0.20775l-0.16881,-0.14722c-0.0944,-0.07622 -0.30286,-0.26397 -0.46672,-0.40612l-0.2978,-0.26893l-0.3842,0.29653c-0.21231,0.16308 -0.38437,0.31157 -0.38459,0.33161c-0.00016,0.01504 0.11732,0.27196 0.26448,0.5643l0.26481,0.53423l-0.26772,0.18753c-0.14645,0.09864 -0.28771,0.18231 -0.31779,0.18198c-0.02506,-0.00027 -0.19353,-0.17756 -0.37154,-0.40006c-0.18307,-0.21755 -0.3613,-0.42 -0.40101,-0.45552c-0.06455,-0.05585 -0.20053,0.00281 -0.81604,0.36697l-0.11097,0.06395l0.18952,0.54342c0.10201,0.29685 0.1893,0.56347 0.18897,0.59355c-0.00055,0.05012 -0.50476,0.32027 -0.59999,0.31922c-0.02506,-0.00027 -0.17316,-0.20741 -0.33575,-0.46483c-0.15763,-0.25235 -0.30044,-0.4845 -0.32016,-0.51479c-0.02958,-0.04543 -0.79936,0.21679 -0.91573,0.31576c-0.02533,0.02479 -0.00292,0.26563 0.05877,0.58209c0.05189,0.2963 0.09904,0.5675 0.0987,0.59757c-0.00033,0.03007 -0.13135,0.0938 -0.29228,0.14216c-0.15592,0.04842 -0.30181,0.09694 -0.32698,0.10668c-0.02021,0.01481 -0.15779,-0.23732 -0.29967,-0.55466l-0.26437,-0.57432l-0.48753,0.11996l-0.48758,0.12498l0.02837,0.61183l0.02832,0.61685l-0.14072,0.03354c-0.08041,0.01916 -0.24602,0.0374 -0.36631,0.03608l-0.21556,0.00265l-0.15934,-0.55312l-0.15432,-0.55307l-0.34593,0.00623c-0.19056,0.00794 -0.41626,0.02049 -0.50664,0.03454c-0.17575,0.02814 -0.17575,0.02815 -0.25036,0.88947zM304.92963,156.58538c1.11026,-0.22841 1.89431,-1.33257 1.73088,-2.42709c-0.1773,-1.19993 -1.31071,-2.05947 -2.46553,-1.88168c-1.20004,0.18732 -2.04956,1.32084 -1.86675,2.47572c0.14552,0.89883 0.7844,1.60258 1.65421,1.81763c0.37495,0.08933 0.57036,0.09649 0.94718,0.01541z" data-paper-data="{&quot;index&quot;:null}" fill-opacity="0.50196" fill="#000000" stroke="none" stroke-width="1" stroke-linecap="butt"/><g stroke="none" stroke-width="0" stroke-linecap="butt"><g><path d="M90.12815,116.74018v-9.71229h99.82121v9.71229z" fill="#000000"/><path d="M140.81514,116.70854l15.9714,-9.67432h15.74956l-15.97139,9.67432z" fill="#ffb900"/><path d="M174.08887,116.70854l15.9714,-9.67432l0.01506,9.67432z" fill="#ffb900"/><path d="M107.5414,116.70854l15.9714,-9.67432h15.74956l-15.97139,9.67432z" fill="#ffb900"/><path d="M94.81406,107.03422c2.94645,0 11.17456,0 11.17456,0l-15.97139,9.67432c0,0 0.00534,-3.98008 0.00767,-5.7103c0.00194,-1.44158 2.86131,-3.96401 4.78916,-3.96401z" fill="#ffb900"/></g><g><path d="M190.06339,116.74018v-9.71229h99.82121v9.71229z" fill="#000000"/><path d="M240.75038,116.70854l15.97139,-9.67432h15.74957l-15.97139,9.67432z" fill="#ffb900"/><path d="M274.02411,116.70854l15.97139,-9.67432l0.01506,9.67432z" fill="#ffb900"/><path d="M207.47664,116.70854l15.9714,-9.67432h15.74957l-15.97139,9.67432z" fill="#ffb900"/><path d="M189.96547,107.03422h15.9584l-15.97139,9.67432z" fill="#ffb900"/></g><g><path d="M289.99863,116.74018v-9.71229h99.82121v9.71229z" fill="#000000"/><path d="M340.68562,116.70854l15.9714,-9.67432h15.74956l-15.97139,9.67432z" fill="#ffb900"/><path d="M373.95935,116.70854l15.9714,-9.67432l0.01506,9.67432z" fill="#ffb900"/><path d="M307.41188,116.70854l15.9714,-9.67432h15.74956l-15.97139,9.67432z" fill="#ffb900"/><path d="M289.90071,107.03422h15.9584l-15.97139,9.67432z" fill="#ffb900"/></g></g><g data-paper-data="{&quot;index&quot;:null}" stroke="none" stroke-width="0" stroke-linecap="butt"><g><path d="M189.94935,243.28185v9.7123h-99.8212v-9.7123z" fill="#000000"/><path d="M156.56471,243.3135l15.97139,9.67432h-15.74956l-15.97139,-9.67432z" fill="#ffb900"/><path d="M190.07533,243.3135l-0.01506,9.67432l-15.9714,-9.67432z" fill="#ffb900"/><path d="M123.29097,243.3135l15.97139,9.67432h-15.74956l-15.97139,-9.67432z" fill="#ffb900"/></g><g><path d="M289.88459,243.28185v9.7123h-99.82121v-9.7123z" fill="#000000"/><path d="M256.49995,243.3135l15.97139,9.67432h-15.74957l-15.97139,-9.67432z" fill="#ffb900"/><path d="M290.01057,243.3135l-0.01506,9.67432l-15.97139,-9.67432z" fill="#ffb900"/><path d="M223.22621,243.3135l15.97139,9.67432h-15.74957l-15.9714,-9.67432z" fill="#ffb900"/><path d="M189.95248,243.3135l15.97139,9.67432h-15.9584z" fill="#ffb900"/></g><g><path d="M389.81983,243.28185v9.7123h-99.82121v-9.7123z" fill="#000000"/><path d="M356.43519,243.3135l15.97139,9.67432h-15.74956l-15.9714,-9.67432z" fill="#ffb900"/><path d="M389.94581,243.3135c0,0 -0.00548,3.51964 -0.00807,5.18587c-0.00241,1.55015 -2.90659,2.73207 -4.85271,1.55325c-2.94886,-1.78621 -11.12567,-6.73913 -11.12567,-6.73913z" fill="#ffb900"/><path d="M323.16145,243.3135l15.97139,9.67432h-15.74956l-15.9714,-9.67432z" fill="#ffb900"/><path d="M289.88772,243.3135l15.97139,9.67432h-15.9584z" fill="#ffb900"/></g></g><path d="M90.35135,117.67133c0,-6.39897 5.91545,-12.49566 13.1192,-12.49566c28.93252,0 219.72832,0 272.60996,0c8.61359,0 13.56814,4.64378 13.56814,12.24625c0,30.59212 0,109.0924 0,125.70487c0,6.03964 -4.85913,11.69754 -13.31873,11.69754c-52.46667,0 -243.42599,0 -272.60996,0c-7.3279,0 -13.36861,-4.5235 -13.36861,-11.94695c0,-30.16113 0,-108.19342 0,-125.20604z" data-paper-data="{&quot;index&quot;:null}" fill="none" stroke="url(#color-1)" stroke-width="10" stroke-linecap="butt"/></g></g></svg>
