<svg xmlns="http://www.w3.org/2000/svg" width="428.958" height="358.879" viewBox="0 0 428.958 358.879"><defs><linearGradient x1="274.525" y1="26.491" x2="274.525" y2="116.491" gradientUnits="userSpaceOnUse" id="a"><stop offset="0" stop-color="#00d439" stop-opacity="0"/><stop offset="1" stop-color="#00d439"/></linearGradient><linearGradient x1="265.025" y1="17.491" x2="265.025" y2="115.491" gradientUnits="userSpaceOnUse" id="b"><stop offset="0" stop-color="red" stop-opacity="0"/><stop offset="1" stop-color="red"/></linearGradient><linearGradient x1="302.867" y1="21.79" x2="287.087" y2="123.575" gradientUnits="userSpaceOnUse" id="c"><stop offset="0" stop-color="#003bff" stop-opacity="0"/><stop offset="1" stop-color="#003bff"/></linearGradient><linearGradient x1="274.525" y1="26.491" x2="274.525" y2="116.491" gradientUnits="userSpaceOnUse" id="d"><stop offset="0" stop-color="#00d439" stop-opacity="0"/><stop offset="1" stop-color="#00d439"/></linearGradient><linearGradient x1="265.025" y1="17.491" x2="265.025" y2="115.491" gradientUnits="userSpaceOnUse" id="e"><stop offset="0" stop-color="red" stop-opacity="0"/><stop offset="1" stop-color="red"/></linearGradient><linearGradient x1="302.867" y1="21.79" x2="287.087" y2="123.575" gradientUnits="userSpaceOnUse" id="f"><stop offset="0" stop-color="#003bff" stop-opacity="0"/><stop offset="1" stop-color="#003bff"/></linearGradient><linearGradient x1="284.425" y1="112.591" x2="284.425" y2="285.591" gradientUnits="userSpaceOnUse" id="g"><stop offset="0" stop-color="#0a00bb"/><stop offset="1" stop-color="#0300ff"/></linearGradient><linearGradient x1="111.146" y1="219.599" x2="107.94" y2="266.113" gradientUnits="userSpaceOnUse" id="j"><stop offset="0" stop-color="#06c"/><stop offset="1" stop-color="#06c" stop-opacity="0"/></linearGradient><linearGradient x1="129.123" y1="338.474" x2="132.329" y2="291.959" gradientUnits="userSpaceOnUse" id="k"><stop offset="0" stop-color="#06c"/><stop offset="1" stop-color="#06c" stop-opacity="0"/></linearGradient><linearGradient x1="267.462" y1="283.741" x2="221.491" y2="280.572" gradientUnits="userSpaceOnUse" id="l"><stop offset="0" stop-color="#0059b3"/><stop offset="1" stop-color="#0059b3" stop-opacity="0"/></linearGradient><linearGradient x1="48.27" y1="285.566" x2="50.484" y2="281.824" gradientUnits="userSpaceOnUse" id="m"><stop offset="0" stop-color="#fff"/><stop offset="1" stop-color="#b4b4b4"/></linearGradient><linearGradient x1="44.093" y1="281.994" x2="45.114" y2="279.056" gradientUnits="userSpaceOnUse" id="n"><stop offset="0" stop-color="#fff"/><stop offset="1" stop-color="#b4b4b4"/></linearGradient><linearGradient x1="38.851" y1="279.913" x2="40.057" y2="277.045" gradientUnits="userSpaceOnUse" id="o"><stop offset="0" stop-color="#fff"/><stop offset="1" stop-color="#b4b4b4"/></linearGradient><linearGradient x1="33.721" y1="277.47" x2="34.676" y2="274.513" gradientUnits="userSpaceOnUse" id="p"><stop offset="0" stop-color="#fff"/><stop offset="1" stop-color="#b4b4b4"/></linearGradient><linearGradient x1="28.399" y1="275.794" x2="29.59" y2="272.322" gradientUnits="userSpaceOnUse" id="q"><stop offset="0" stop-color="#fff"/><stop offset="1" stop-color="#b4b4b4"/></linearGradient><linearGradient x1="24.46" y1="272.43" x2="25.248" y2="270.084" gradientUnits="userSpaceOnUse" id="r"><stop offset="0" stop-color="#fff"/><stop offset="1" stop-color="#b4b4b4"/></linearGradient><linearGradient x1="20.473" y1="269.927" x2="21.261" y2="267.581" gradientUnits="userSpaceOnUse" id="s"><stop offset="0" stop-color="#fff"/><stop offset="1" stop-color="#b4b4b4"/></linearGradient><radialGradient cx="29.438" cy="260.755" r="4.141" gradientUnits="userSpaceOnUse" id="h"><stop offset="0" stop-color="#fff"/><stop offset="1" stop-color="#fff" stop-opacity="0"/></radialGradient><radialGradient cx="46.29" cy="269.716" r="4.141" gradientUnits="userSpaceOnUse" id="i"><stop offset="0" stop-color="#fff"/><stop offset="1" stop-color="#fff" stop-opacity="0"/></radialGradient></defs><g stroke-miterlimit="10"><path d="M284.275 12.24s-9.132 9.507-7.325 21.707c1.69 11.416 6.407 21.61 6.325 35.794-.08 14.183-13.5 40.25-13.5 40.25" fill="none" stroke="url(#a)" stroke-width="7.5" stroke-linecap="round" transform="translate(-15.718 14.214)"/><path d="M268.525 97.49s-11.5-12.378-11.5-26c0-10.17 9.59-30.248 11.823-42.219 1.691-9.069-6.823-29.78-6.823-29.78" fill="none" stroke="url(#b)" stroke-width="7.5" stroke-linecap="round" transform="translate(-15.718 14.214)"/><path d="M299.772-10.464s-16.099 30.188-15.153 47.897c.945 17.71 17.574 24.626 16.346 41.367s-18.128 28.525-18.128 28.525" fill="none" stroke="url(#c)" stroke-width="7.5" stroke-linecap="round" transform="translate(-15.718 14.214)"/><path d="M284.275 12.24s-9.132 9.507-7.325 21.707c1.69 11.416 6.407 21.61 6.325 35.794-.08 14.183-13.5 40.25-13.5 40.25" fill="none" stroke="url(#d)" stroke-width="7.5" stroke-linecap="round" transform="translate(-15.718 14.214)"/><path d="M268.525 97.49s-11.5-12.378-11.5-26c0-10.17 9.59-30.248 11.823-42.219 1.691-9.069-6.823-29.78-6.823-29.78" fill="none" stroke="url(#e)" stroke-width="7.5" stroke-linecap="round" transform="translate(-15.718 14.214)"/><path d="M299.772-10.464s-16.099 30.188-15.153 47.897c.945 17.71 17.574 24.626 16.346 41.367s-18.128 28.525-18.128 28.525" fill="none" stroke="url(#f)" stroke-width="7.5" stroke-linecap="round" transform="translate(-15.718 14.214)"/><path d="M235.935 139.904c-1.976 0-3.578-1.79-3.578-4v-24.25c0-2.208 1.602-4 3.578-4h56.345c1.976 0 3.577 1.792 3.577 4v24.25c0 2.21-1.601 4-3.577 4z" fill="#001836" stroke="#0a00bb" stroke-width="7.5"/><path d="M134.707 299.804c-11.045 0-20-8.953-20-20v-133c0-11.045 8.955-20 20-20h268c11.046 0 20 8.955 20 20v133c0 11.047-8.954 20-20 20z" fill="#001836"/><path d="M240.222 189.234q.8 0 .8 6.066 0 6.05-.8 6.05l-5.299.079v10.11q0 .894-3.291 1.302-3.293.39-5.706.391l-3.292-.156q-4.092-.33-4.091-1.442v-9.954h-15.974q-2.085-2.085-3.778-5.408-1.677-3.34-1.677-4.828 0-1.49.486-2.367l17.572-31.147q.33-.643 4.938-.957 4.608-.33 9.672-.329 5.063 0 5.063.408l.078 32.181zm-19.344.078v-11.653c0-2.053-1.721-2.045-2.872.01l-4.523 8.08c-1.129 2.016-.2 3.563.98 3.563zm49.06 24.72q-10.063 0-16.443-7.383t-6.38-21.585 6.411-21.46q6.427-7.273 16.585-7.273t16.412 7.226 6.255 21.758q0 14.515-6.38 21.616t-16.46 7.101zm.016-42.292q-3.089 0-5.22 3.495c-1.421 2.32-4.465 8.956 4.868 16.574 3.32 2.709-6.32.9-4.962 3.177q2.054 3.402 5.299 3.402 3.26 0 5.298-3.449 2.053-3.465 2.053-9.875c0-4.285-2.377-.577-3.798-2.876-1.411-2.299-1.48-10.448-3.538-10.448zm69.547 17.493q.8 0 .8 6.067 0 6.05-.8 6.05l-5.298.079v10.11q0 .894-3.292 1.302-3.292.39-5.706.391l-3.292-.156q-4.09-.33-4.091-1.442v-9.954h-15.973q-2.085-2.085-3.778-5.408-1.677-3.34-1.677-4.828 0-1.49.486-2.367l17.572-31.147q.33-.643 4.938-.957 4.608-.33 9.671-.329 5.063 0 5.063.408l.079 32.181zm-19.343.079v-12.32c0-1.854-.69-3.222-1.672-1.467l-6.342 11.329c-.649 1.158-.011 2.458.985 2.458z" fill="none" stroke="#006cff" stroke-width="10" stroke-linecap="square"/><path d="M240.222 189.234q.8 0 .8 6.066 0 6.05-.8 6.05l-5.299.079v10.11q0 .894-3.291 1.302-3.293.39-5.706.391l-3.292-.156q-4.092-.33-4.091-1.442v-9.954h-15.974q-2.085-2.085-3.778-5.408-1.677-3.34-1.677-4.828 0-1.49.486-2.367l17.572-31.147q.33-.643 4.938-.957 4.608-.33 9.672-.329 5.063 0 5.063.408l.078 32.181zm-19.344.078v-11.653c0-2.053-1.721-2.045-2.872.01l-4.523 8.08c-1.129 2.016-.2 3.563.98 3.563zm49.06 24.72q-10.063 0-16.443-7.383t-6.38-21.585 6.411-21.46q6.427-7.273 16.585-7.273t16.412 7.226 6.255 21.758q0 14.515-6.38 21.616t-16.46 7.101m.016-42.292q-3.089 0-5.22 3.495-2.132 3.48-2.132 9.907t2.038 9.844q2.054 3.402 5.299 3.402 3.26 0 5.298-3.449 2.053-3.465 2.053-9.875 0-6.427-2.132-9.876-2.115-3.448-5.204-3.448m69.547 17.493q.8 0 .8 6.067 0 6.05-.8 6.05l-5.298.079v10.11q0 .894-3.292 1.302-3.292.39-5.706.391l-3.292-.156q-4.09-.33-4.091-1.442v-9.954h-15.973q-2.085-2.085-3.778-5.408-1.677-3.34-1.677-4.828 0-1.49.486-2.367l17.572-31.147q.33-.643 4.938-.957 4.608-.33 9.671-.329 5.063 0 5.063.408l.079 32.181zm-19.343.079v-12.32c0-1.854-.69-3.222-1.672-1.467l-6.342 11.329c-.649 1.158-.011 2.458.985 2.458z" fill="#00e2ff"/><path d="M118.207 214.369v-4.223h301v4.223zm0 7.917v-4.222h301v4.222zm0 7.918v-4.223h301v4.223zm0 7.918v-4.223h301v4.223zm0 7.918v-4.223h301v4.223zm0 7.917v-4.222h301v4.222zm0 7.918v-4.223h301v4.223zm0 7.918v-4.223h301v4.223zm0 7.918v-4.223h301v4.223zm0 7.917v-4.223h301v4.223zm0 7.918v-4.223h301v4.223zm0-158.26v-4.222h301v4.222zm0 7.918v-4.223h301v4.223zm0 7.918v-4.223h301v4.223zm0 7.918v-4.223h301v4.223zm0 7.917v-4.222h301v4.222zm0 7.918v-4.223h301v4.223zm0 7.918v-4.223h301v4.223zm0 7.918v-4.223h301v4.223zm0 7.917v-4.223h301v4.223zm0 7.918v-4.223h301v4.223z" fill-opacity=".118" fill="#fff"/><path d="M159.223 266.822q0 .923-4.121.923-4.113 0-4.464-.658l-7.31-13.655v13.612q0 .786-4.053.787-4.044 0-4.044-.787v-29.285q0-.658 3.454-.658 1.36 0 3.172.24 1.822.238 2.215.897l7.003 13.484v-13.75q0-.828 4.07-.829 4.078 0 4.078.83zm6.06-1.616q-2.736-3.018-2.736-8.363t2.736-8.362 7.38-3.018q4.641 0 7.352 3.018 2.71 3.018 2.71 8.362t-2.71 8.363-7.353 3.018-7.379-3.018zm7.396-12.432q-2.47 0-2.47 4.027t2.47 4.027q2.48 0 2.48-4.027t-2.48-4.027zm23.228 14.749q0 .53-3.677.53-4.377-.18-4.378-.573v-15.493h-2.231q-.88 0-.881-3.027 0-.787.154-1.924.153-1.137.641-1.137h2.317v-3.856q0-.873 3.694-.872 3.702 0 3.702.7v2.805l.043 1.223h3.728q.744 0 .744 3.07 0 3.06-.744 3.06h-3.112zm13.348-.043q0 .393-3.66.393-3.65 0-3.65-.607v-29.994q0-.3 1.36-.428a23 23 0 0 1 2.274-.137q3.675 0 3.676.787v8.756q2.454-.744 3.728-.744 3.326 0 5.25 1.778 1.924 1.77 1.924 6.584v13.57q0 .393-3.412.393-3.855-.129-3.856-.436v-12.869q0-2.146-1.394-2.146-.965 0-2.24.915zm22.634.043q0 .35-4.01.35-4.002 0-4.002-.307V246.07q0-.3 4.002-.3 4.01 0 4.01.257zm0-24.078q0 .308-4.01.308-4.002 0-4.002-.265v-6.302q0-.435 4.002-.436 4.01 0 4.01.265zm13.088 24.078q0 .308-3.146.308-4.378-.128-4.378-.48v-14.184h-1.137q-1.137 0-1.488-1.924a7 7 0 0 1-.094-1.137q0-1.36.53-2.72.787-1.923 2.446-1.923 1.667 0 2.975.787 1.317.786 1.762 1.573 2.752-2.36 6.558-2.36 3.813 0 5.515 2.06 1.71 2.054 1.71 6.738v13.134q0 .52-3.745.521-3.737 0-3.737-.521V254.74q0-2.19-1.53-2.189-.445 0-1.232.376-.786.369-1.009.548zm23.028.265q-4.242 0-6.567-2.736-2.317-2.736-2.317-8.097t3.044-8.405 8.097-3.044q5.061 0 8.345 2.231v21.804q0 3.24-2.634 4.967-2.625 1.728-6.737 1.728-4.113 0-7.354-1.052-.444-1.052-.444-1.881 0-2.804.923-4.113 2.933 1.266 6.26 1.266 2.41 0 2.41-1.702v-1.317q-1.881.35-3.026.35zm2.017-15.151q-2.932 0-2.932 4.429 0 2.753 1.137 3.582.744.573 1.488.573t1.316-.128v-8.32a4 4 0 0 0-1.009-.136zm37.344-15.494q.744 0 .744 3.874t-.744 3.873h-8.012v4.993h5.344q.744 0 .744 3.395t-.701 3.394h-5.387v10.543q0 .615-1.641.812t-2.737.197l-2.06-.086q-2.146-.264-2.146-.872v-28.985q0-.702.282-.915.29-.222.863-.223zm4.441 28.063q-2.736-3.018-2.736-8.363t2.736-8.362 7.38-3.018 7.352 3.018 2.71 8.362-2.71 8.363-7.353 3.018-7.379-3.018zm7.396-12.432q-2.47 0-2.47 4.027t2.47 4.027q2.48 0 2.48-4.027t-2.48-4.027zm12.942-6.61q0-.487 3.762-.487t3.762.487v12.783q0 2.19 1.402 2.189 1.051 0 2.369-.924v-14.048q0-.435 3.72-.436 3.719 0 3.719.436v14.356h1.137q1.488 0 1.488 2.847 0 1.446-.608 2.933-.88 1.924-2.368 1.924-2.933 0-4.335-2.403l-.043.043q-2.667 2.36-5.737 2.36-4.241 0-6.259-2.12-2.01-2.121-2.01-7.029zm33.177 21.359q0 .308-3.146.308-4.378-.128-4.378-.48v-14.184h-1.137q-1.137 0-1.488-1.924a7 7 0 0 1-.094-1.137q0-1.36.53-2.72.787-1.923 2.446-1.923 1.667 0 2.975.787 1.317.786 1.762 1.573 2.752-2.36 6.558-2.36 3.813 0 5.515 2.06 1.71 2.054 1.71 6.738v13.134q0 .52-3.745.521-3.737 0-3.737-.521V254.74q0-2.19-1.53-2.189-.445 0-1.232.376-.786.369-1.009.548zm26.054-30.114q0-.66 3.455-.659 1.179 0 2.736.154 1.556.155 1.556.41v23.078h1.53q1.095 0 1.445 1.966.086.573.086 1.557 0 .982-.607 2.385-.88 1.924-2.805 1.924-1.445 0-2.565-.564-1.11-.573-1.505-1.189l-.393-.564q-2.41 2.317-6.045 2.317t-6.216-3.018-2.582-8.422q0-5.413 2.71-8.363 2.72-2.958 6.79-2.958 1.18 0 2.41.265zm-1.445 15.057q-2.454 0-2.454 4.42 0 2.232.702 3.224.7.983 1.556.983.855 0 1.641-.744v-7.447q-.743-.436-1.445-.436z" fill="#00e2ff" stroke="#006cff" stroke-width="7" stroke-linecap="square"/><path d="M159.223 266.822q0 .923-4.121.923-4.113 0-4.464-.658l-7.31-13.655v13.612q0 .787-4.053.787-4.044 0-4.044-.787v-29.285q0-.658 3.454-.658 1.36 0 3.172.24 1.822.238 2.215.897l7.003 13.484v-13.75q0-.829 4.07-.829 4.078 0 4.078.83zm6.06-1.616q-2.736-3.018-2.736-8.363t2.736-8.362 7.38-3.018q4.641 0 7.352 3.018 2.71 3.018 2.71 8.362t-2.71 8.363-7.353 3.018-7.379-3.018m7.396-12.432q-2.47 0-2.47 4.027t2.47 4.027q2.48 0 2.48-4.027t-2.48-4.027m23.228 14.749q0 .53-3.677.53-4.377-.18-4.378-.573v-15.493h-2.231q-.88 0-.881-3.027 0-.786.154-1.924.153-1.137.641-1.137h2.317v-3.856q0-.873 3.694-.872 3.702 0 3.702.7v2.805l.043 1.223h3.728q.744 0 .744 3.07 0 3.06-.744 3.06h-3.112zm13.348-.043q0 .393-3.66.393-3.65 0-3.65-.607v-29.994q0-.3 1.36-.428a23 23 0 0 1 2.274-.137q3.675 0 3.676.787v8.756q2.454-.744 3.728-.744 3.326 0 5.25 1.778 1.924 1.77 1.924 6.584v13.57q0 .393-3.412.393-3.855-.129-3.856-.436v-12.869q0-2.145-1.394-2.146-.965 0-2.24.915zm22.634.043q0 .35-4.01.35-4.002 0-4.002-.307V246.07q0-.3 4.002-.3 4.01 0 4.01.257zm0-24.078q0 .308-4.01.308-4.002 0-4.002-.265v-6.302q0-.435 4.002-.436 4.01 0 4.01.265zm13.088 24.078q0 .308-3.146.308-4.378-.128-4.378-.48v-14.184h-1.137q-1.137 0-1.488-1.924a7 7 0 0 1-.094-1.137q0-1.36.53-2.72.787-1.923 2.446-1.923 1.667 0 2.975.787 1.317.786 1.762 1.573 2.752-2.36 6.558-2.36 3.813 0 5.515 2.06 1.71 2.053 1.71 6.738v13.134q0 .52-3.745.521-3.737 0-3.737-.521V254.74q0-2.19-1.53-2.189-.445 0-1.232.376-.786.368-1.009.548zm23.028.265q-4.242 0-6.567-2.736-2.317-2.736-2.317-8.097t3.044-8.405 8.097-3.044q5.061 0 8.345 2.231v21.804q0 3.24-2.634 4.968-2.625 1.727-6.737 1.727-4.113 0-7.354-1.052-.444-1.052-.444-1.881 0-2.804.923-4.113 2.933 1.266 6.26 1.266 2.41 0 2.41-1.702v-1.317q-1.881.35-3.026.35zm2.017-15.151q-2.932 0-2.932 4.429 0 2.753 1.137 3.582.744.573 1.488.573t1.316-.128v-8.32a4 4 0 0 0-1.009-.136m37.344-15.494q.744 0 .744 3.874t-.744 3.873h-8.012v4.993h5.344q.744 0 .744 3.395t-.701 3.394h-5.387v10.543q0 .615-1.641.812t-2.737.197l-2.06-.086q-2.146-.264-2.146-.872v-28.985q0-.702.282-.915.29-.223.863-.223zm4.441 28.063q-2.736-3.018-2.736-8.363t2.736-8.362 7.38-3.018 7.352 3.018 2.71 8.362-2.71 8.363-7.353 3.018-7.379-3.018m7.396-12.432q-2.47 0-2.47 4.027t2.47 4.027q2.48 0 2.48-4.027t-2.48-4.027m12.942-6.61q0-.487 3.762-.487t3.762.487v12.783q0 2.19 1.402 2.189 1.051 0 2.369-.924v-14.048q0-.435 3.72-.436 3.719 0 3.719.436v14.356h1.137q1.488 0 1.488 2.847 0 1.446-.608 2.933-.88 1.924-2.368 1.924-2.933 0-4.335-2.403l-.043.043q-2.667 2.36-5.737 2.36-4.241 0-6.259-2.12-2.01-2.121-2.01-7.029zm33.177 21.359q0 .308-3.146.308-4.378-.128-4.378-.48v-14.184h-1.137q-1.137 0-1.488-1.924a7 7 0 0 1-.094-1.137q0-1.36.53-2.72.787-1.923 2.446-1.923 1.667 0 2.975.787 1.317.786 1.762 1.573 2.752-2.36 6.558-2.36 3.813 0 5.515 2.06 1.71 2.053 1.71 6.738v13.134q0 .52-3.745.521-3.737 0-3.737-.521V254.74q0-2.19-1.53-2.189-.445 0-1.232.376-.786.368-1.009.548zm26.054-30.114q0-.66 3.455-.659 1.179 0 2.736.154 1.556.155 1.556.41v23.078h1.53q1.095 0 1.445 1.966.086.573.086 1.557 0 .982-.607 2.385-.88 1.924-2.805 1.924-1.445 0-2.565-.564-1.11-.573-1.505-1.189l-.393-.564q-2.41 2.317-6.045 2.317t-6.216-3.018-2.582-8.422q0-5.413 2.71-8.363 2.72-2.958 6.79-2.958 1.18 0 2.41.265zm-1.445 15.057q-2.454 0-2.454 4.42 0 2.232.702 3.224.7.983 1.556.983.855 0 1.641-.744v-7.447q-.743-.435-1.445-.436" fill="#00e2ff"/><path d="M150.425 285.59c-11.045 0-20-8.953-20-20v-133c0-11.045 8.955-20 20-20h268c11.046 0 20 8.955 20 20v133c0 11.047-8.954 20-20 20z" fill="none" stroke="url(#g)" stroke-width="12.5" transform="translate(-15.718 14.214)"/><path d="M116.882 205.747q-6.228-1.21-5.937-2.71l.58-2.99q.69-3.547 7.673-7.907a31 31 0 0 0 4.949-3.857q2.361-2.245 2.774-4.369.765-3.932-3.764-4.811-4.527-.88-9.675 1.222-2.408-3.57-2.855-7.588-.226-1.35-.036-2.331.193-.99.755-1.779 1.023-1.927 6.613-2.715 5.592-.8 11.418.333 8.815 1.712 12.492 6.358 3.678 4.635 2.408 11.172-.58 2.99-2.6 5.58-2.01 2.592-4.52 4.36a99 99 0 0 1-4.92 3.243q-5.879 3.766-6.353 6.208l-.46 2.365q-.183.942-3.189.807-2.997-.134-5.352-.591zm4.62 17.407q-.093.47-6.59-.791-6.49-1.26-6.413-1.655l2.402-12.363q.123-.635 6.612.627 6.499 1.262 6.422 1.657z" stroke="#fdfdfd" stroke-width="10" stroke-linecap="square"/><path d="M116.882 205.747q-6.228-1.21-5.937-2.71l.58-2.99q.69-3.547 7.673-7.907a31 31 0 0 0 4.949-3.857q2.361-2.245 2.774-4.369.765-3.932-3.764-4.811-4.527-.88-9.675 1.222-2.408-3.57-2.855-7.588-.226-1.35-.036-2.331.193-.99.755-1.779 1.023-1.927 6.613-2.715 5.592-.8 11.418.333 8.815 1.712 12.492 6.358 3.678 4.635 2.408 11.172-.58 2.99-2.6 5.58-2.01 2.592-4.52 4.36a99 99 0 0 1-4.92 3.243q-5.879 3.766-6.353 6.208l-.46 2.365q-.183.942-3.189.807-2.997-.134-5.352-.591m4.62 17.407q-.093.47-6.59-.791-6.49-1.26-6.413-1.655l2.402-12.363q.123-.635 6.612.627 6.499 1.262 6.422 1.657z"/><path d="M70.672 213.007q-3.936 1.046-4.188.099l-.502-1.89q-.597-2.241 2.215-6.714a19.8 19.8 0 0 0 1.777-3.614q.735-1.957.378-3.3-.66-2.485-3.521-1.724-2.862.76-5.245 3.416-2.391-1.388-3.774-3.582-.51-.717-.674-1.336a2.9 2.9 0 0 1-.063-1.239q.052-1.398 3.058-3.42 3.006-2.028 6.687-3.007 5.57-1.48 8.995.172 3.423 1.647 4.52 5.777.503 1.89.062 3.95a13.5 13.5 0 0 1-1.388 3.784 64 64 0 0 1-1.932 3.252q-2.34 3.822-1.93 5.365l.397 1.494q.158.595-1.616 1.36-1.767.762-3.256 1.157zm7.544 8.759q.078.297-4.028 1.389-4.1 1.09-4.166.84l-2.076-7.811q-.106-.4 3.993-1.49 4.107-1.093 4.173-.843z" stroke="#fdfdfd" stroke-width="10" stroke-linecap="square"/><path d="M70.672 213.007q-3.936 1.046-4.188.099l-.502-1.89q-.597-2.241 2.215-6.714a19.8 19.8 0 0 0 1.777-3.614q.735-1.957.378-3.3-.66-2.485-3.521-1.724-2.862.76-5.245 3.416-2.391-1.388-3.774-3.582-.51-.717-.674-1.336a2.9 2.9 0 0 1-.063-1.239q.052-1.398 3.058-3.42 3.006-2.028 6.687-3.007 5.57-1.48 8.995.172 3.423 1.647 4.52 5.777.503 1.89.062 3.95a13.5 13.5 0 0 1-1.388 3.784 64 64 0 0 1-1.932 3.252q-2.34 3.822-1.93 5.365l.397 1.494q.158.595-1.616 1.36-1.767.762-3.256 1.157m7.544 8.759q.078.297-4.028 1.389-4.1 1.09-4.166.84l-2.076-7.811q-.106-.4 3.993-1.49 4.107-1.093 4.173-.843z"/><path d="M100.22 262.458c-.204 2.187.077 4.731.494 7.014 53.796 9.352 102.132 39.505 106.791 41.688 1.608.753 9.804-14.196 20.133-22.668 9.074-7.444 20.71-11.573 24.56-11.726 3.384-.134-4.354 25.028-7.12 31.255-6.086 13.7-16.078 12.321-16.078 12.321s3.882 3.743 4.186 11.456c.25 6.34-5.767 12.957-5.767 12.957s-4.893-2.98-8.366-8.174c-3.06-4.576-9.854-12.422-12.748-15.612-.055-.061-.462-.068-1.187-.032-8.91 1.639-43.162 7.645-73.575 8.967 1.694 10.362 5.127 24.82 5.127 24.82s-24.562-10.038-33.42-17.628c-2.69-2.304-5.587-5.717-8.343-9.399a192 192 0 0 1-11.322-2.435c-.55 7.78-.784 15.645-.784 15.645s-18.816-12.596-24.686-20.518c-.865-1.167-1.712-2.565-2.528-4.104-11.071-4.388-21.404-9.533-30.117-15.016-10.856-6.83-18.05-13.429-21.272-17.984-.62-.774-1.086-1.478-1.394-2.1 0 0 .91-1.749 3.287-2.76.588-4.697 4.456-7.78 9.062-7.31 2.317.237 4.191 1.342 5.42 2.964 9.913-2.409 20.935-4.439 24.42-4.833q1.064-.12 2.127-.252c8.964-1.113 13.34-1.357 17.52-1.304 3.578-5.787 9.49-14.679 14.396-18.87 7.289-6.224 27.1-13.902 27.1-13.902s-5.218 20.033-5.916 27.54z" fill="none" stroke="#002fa6" stroke-width="5"/><path d="M13.306 286.994c-4.43-.452-7.749-4.09-7.201-8.84.547-4.75 4.436-7.878 9.074-7.404 4.637.474 7.5 4.425 6.967 9.043-.532 4.618-4.41 7.654-8.84 7.201"/><path d="M29.153 264.886a4.141 4.141 0 1 1 .57-8.263 4.141 4.141 0 0 1-.57 8.263" fill="url(#h)" transform="translate(-15.718 14.214)"/><path d="M13.604 276.65a1.686 1.686 0 1 1 .232-3.363 1.686 1.686 0 0 1-.232 3.363" fill="#fff"/><path d="M61.43 272.754s10.023-17.801 17.631-24.3c7.289-6.224 27.1-13.901 27.1-13.901s-5.218 20.032-5.916 27.54c-.518 5.567 2.104 13.45 2.104 13.45z" fill="#007fff"/><path d="M91.437 299.907s-5.245 6.938-6.414 12.457c-1.578 7.442-2.197 28.177-2.197 28.177S64.01 327.945 58.14 320.023c-6.127-8.269-11.339-28.1-11.339-28.1z" fill="#06c"/><path d="M2.829 280.818c-1.889-3.819 35.22-11.15 42.19-11.937q1.063-.12 2.126-.252c21.16-2.63 16.752-.41 44.552-.884 57.313 7.264 110.915 40.745 115.834 43.05 1.607.752 9.803-14.197 20.132-22.669 9.074-7.444 20.71-11.573 24.56-11.726 3.384-.134-4.354 25.028-7.12 31.255-6.086 13.701-16.077 12.322-16.077 12.322s3.88 3.742 4.185 11.455c.25 6.34-5.767 12.957-5.767 12.957s-4.893-2.979-8.366-8.173c-3.06-4.576-9.854-12.423-12.747-15.612-.768-.847-68.005 8.582-118.188.212-47.445-7.914-81.117-31.509-85.314-39.998" fill="#007fff"/><path d="M3.257 281.409c-.184-.326-.49-.719-.41-.985.158-.534.633-.53 1.775.209 1.863 1.206 3.275 3.269 7.405 5.246 4.533 2.171 12.437 4.137 18.771 7.056 5.865 2.702 11.175 6.323 18.798 8.926a221 221 0 0 0 32.756 8.44c43.21 7.685 125.002 9.856 125.002 9.856s-54.297 10.525-91.969 9.58c-30.067-1.35-66.04-13.828-89.89-28.833-12.124-7.628-19.681-14.968-22.238-19.495" fill="#649fdb"/><path d="M134.034 307.142s-3.716 8.87-3.354 15.283c.487 8.648 6.015 31.934 6.015 31.934s-24.562-10.039-33.42-17.629c-9.247-7.922-20.947-28.952-20.947-28.952z" fill="#007fff"/><path d="M36.84 294.474a9.52 9.52 0 0 1-10.986-7.78c-.355-2.083.876-5.875.876-5.875l10.957.032s6.727.845 6.933 2.638c.601 5.222-2.598 10.1-7.78 10.985" fill="#006edd"/><path d="M34.451 291.254a8.364 8.364 0 0 1-8.33-8.398c0-.41-2.051-.476-2.142-.76-.456-1.434 1.03-1.896 4.748-1.734 3.865.167 14.13.415 14.122 2.561a8.364 8.364 0 0 1-8.398 8.33"/><path d="M61.552 309.387s3.985-7.31 4.35-12.595-2.563-13.33-2.563-13.33 5.045 9.117 4.744 13.48c-.295 4.278-6.532 12.445-6.532 12.445" fill="#06c"/><path d="M66.045 312.087s4.938-8.637 5.37-14.891c.43-6.255-3.255-15.792-3.255-15.792s6.332 10.816 5.976 15.98c-.349 5.061-8.091 14.703-8.091 14.703" fill="#06c"/><path d="M80.005 298.232c-.296 4.294-6.846 12.474-6.846 12.474s4.178-7.327 4.544-12.632c.366-5.306-2.75-13.394-2.75-13.394s5.354 9.173 5.052 13.552" fill="#06c"/><path d="M46.006 273.847a4.141 4.141 0 1 1 .57-8.263 4.141 4.141 0 0 1-.57 8.263" fill="url(#i)" transform="translate(-15.718 14.214)"/><path d="M30.456 285.611a1.686 1.686 0 1 1 .232-3.363 1.686 1.686 0 0 1-.232 3.363" fill="#fff"/><path d="M117.456 258.946s-1.147 6.832-4.226 7.504c-1.691.37-16.298-5.383-16.68-8.947-.56-5.221 1.52-10.158 6.417-18.33 4.897-8.173 18.757-18.845 18.757-18.845s-5.302 20.027-5.975 27.536c-.499 5.569 1.707 11.082 1.707 11.082" fill="url(#j)" transform="translate(-15.718 14.214)"/><path d="M144.114 292.8c6.665 1.343 2.261 11.053 2.16 15.477-.175 7.543 6.423 31.822 6.423 31.822s-25.943-9.517-34.972-18.65-19.359-24.127-17.482-28.4c1.635-3.424 40.208-.988 43.871-.25" fill="url(#k)" transform="translate(-15.718 14.214)"/><path d="M234.796 322.002c-1.8-2.693-9.253-10.828-12.188-16.443-3.376-6.458-1.99-10.212.64-8.979 1.608.753 9.804-14.196 20.133-22.668 9.074-7.444 20.71-11.573 24.56-11.726 3.384-.134-4.354 25.028-7.12 31.255-6.086 13.701-16.077 12.322-16.077 12.322s3.88 3.742 4.185 11.455c.25 6.34-5.767 12.957-5.767 12.957s-4.893-2.979-8.366-8.173" fill="url(#l)" transform="translate(-15.718 14.214)"/><g stroke="#000"><path d="M32.105 295.863c-.067-.534.311-1.041.951-.744l3.17 1.475c.605.282.806.966.32 1.197l-3.958 1.884z" fill="none" stroke-width="1.5"/><path d="m48.672 280.983 3.462 1.617c.518.241.66.814.218 1.024-.898.428-4.057 1.834-4.057 1.834s-.417-2.986-.532-3.895c-.06-.47.3-.864.909-.58" fill="url(#m)" transform="translate(-15.718 14.214)" stroke="none"/></g><g stroke="#000"><path d="M27.465 293.375c-.128-.385.066-.79.568-.628l2.49.802c.476.153.723.637.41.849l-2.548 1.729z" fill="none" stroke-width="1.5"/><path d="m43.69 278.598 2.72.881c.408.131.595.539.31.732-.577.392-2.625 1.701-2.625 1.701s-.749-2.152-.968-2.808c-.113-.34.085-.66.563-.506" fill="url(#n)" transform="translate(-15.718 14.214)" stroke="none"/></g><g stroke="#000"><path d="M22.406 291.242c-.104-.393.115-.785.607-.591l2.434.959c.465.183.68.681.355.873l-2.654 1.564z" fill="none" stroke-width="1.5"/><path d="M38.665 276.499c.855.338 2.153.852 2.66 1.051.397.157.559.576.263.75a215 215 0 0 1-2.73 1.531s-.61-2.195-.787-2.864c-.091-.345.127-.654.594-.468" fill="url(#o)" transform="translate(-15.718 14.214)" stroke="none"/></g><g stroke="#000"><path d="m17.613 288.23 2.455.755c.47.145.719.624.416.841l-2.473 1.777-.945-2.734c-.132-.383.052-.792.547-.64z" fill="none" stroke-width="1.5"/><path d="M32.728 274.599c-.117-.337.073-.662.544-.516l2.683.83c.4.123.591.527.315.725-.56.403-2.548 1.75-2.548 1.75s-.769-2.137-.994-2.79z" fill="url(#p)" transform="translate(-15.718 14.214)" stroke="none"/></g><g stroke="#000"><path d="M12.065 286.612c-.089-.461.125-.939.58-.733l2.254 1.018c.43.194.621.776.313 1.02l-2.515 1.995z" fill="none" stroke-width="1.5"/><path d="M27.735 272.329c-.078-.407.133-.784.566-.588l2.462 1.118c.369.166.51.656.23.879-.57.452-2.585 1.959-2.585 1.959s-.522-2.581-.673-3.368" fill="url(#q)" transform="translate(-15.718 14.214)" stroke="none"/></g><g stroke="#000"><path d="M8.564 283.59c.58.38 1.407.925 1.768 1.162.338.222.506.687.278.811l-1.859 1.013-.606-2.55c-.085-.357.062-.67.42-.436z" fill="none" stroke-width="1.5"/><path d="M23.824 269.752c-.075-.315.073-.555.413-.33l1.932 1.273c.289.19.416.577.208.69-.422.23-1.914.975-1.914.975s-.495-2-.64-2.608z" fill="url(#r)" transform="translate(-15.718 14.214)" stroke="none"/></g><g stroke="#000"><path d="M4.577 281.087c.58.38 1.407.925 1.768 1.162.338.222.506.687.278.81l-1.859 1.014-.606-2.55c-.085-.357.062-.67.42-.436z" fill="none" stroke-width="1.5"/><path d="M19.837 267.249c-.075-.315.073-.555.413-.33l1.932 1.273c.289.19.416.577.208.69-.421.23-1.914.975-1.914.975s-.495-2-.64-2.608z" fill="url(#s)" transform="translate(-15.718 14.214)" stroke="none"/></g><path d="M39.242 298.433s-.825-1.068-7.222-4.321c-6.396-3.253-16.237-6.32-19.983-8.318s-8.582-5.24-8.582-5.24" fill="none" stroke="#000" stroke-width="2" stroke-linecap="round"/></g></svg>
