<svg xmlns="http://www.w3.org/2000/svg" width="404.734" height="384.679" viewBox="0 0 404.734 384.679"><defs><linearGradient x1="273.525" y1="-3.509" x2="273.525" y2="86.491" gradientUnits="userSpaceOnUse" id="a"><stop offset="0" stop-color="#00d439" stop-opacity="0"/><stop offset="1" stop-color="#00d439"/></linearGradient><linearGradient x1="264.025" y1="-12.509" x2="264.025" y2="85.491" gradientUnits="userSpaceOnUse" id="b"><stop offset="0" stop-color="red" stop-opacity="0"/><stop offset="1" stop-color="red"/></linearGradient><linearGradient x1="301.867" y1="-8.21" x2="286.087" y2="93.575" gradientUnits="userSpaceOnUse" id="c"><stop offset="0" stop-color="#003bff" stop-opacity="0"/><stop offset="1" stop-color="#003bff"/></linearGradient><linearGradient x1="273.525" y1="-3.509" x2="273.525" y2="86.491" gradientUnits="userSpaceOnUse" id="d"><stop offset="0" stop-color="#00d439" stop-opacity="0"/><stop offset="1" stop-color="#00d439"/></linearGradient><linearGradient x1="264.025" y1="-12.509" x2="264.025" y2="85.491" gradientUnits="userSpaceOnUse" id="e"><stop offset="0" stop-color="red" stop-opacity="0"/><stop offset="1" stop-color="red"/></linearGradient><linearGradient x1="301.867" y1="-8.21" x2="286.087" y2="93.575" gradientUnits="userSpaceOnUse" id="f"><stop offset="0" stop-color="#003bff" stop-opacity="0"/><stop offset="1" stop-color="#003bff"/></linearGradient><linearGradient x1="283.425" y1="82.591" x2="283.425" y2="255.591" gradientUnits="userSpaceOnUse" id="g"><stop offset="0" stop-color="#0a00bb"/><stop offset="1" stop-color="#0300ff"/></linearGradient><linearGradient x1="106.792" y1="316.464" x2="106.792" y2="340.464" gradientUnits="userSpaceOnUse" id="h"><stop offset="0" stop-opacity=".565"/><stop offset="1" stop-opacity="0"/></linearGradient><linearGradient x1="129.866" y1="276.615" x2="202.152" y2="286.074" gradientUnits="userSpaceOnUse" id="i"><stop offset="0" stop-color="#414141"/><stop offset="1" stop-color="#a5a5a5"/></linearGradient><linearGradient x1="88.323" y1="297.173" x2="85.651" y2="288.162" gradientUnits="userSpaceOnUse" id="l"><stop offset="0" stop-color="#fff"/><stop offset="1" stop-color="#b4b4b4"/></linearGradient><linearGradient x1="95.94" y1="293.33" x2="95.649" y2="287.749" gradientUnits="userSpaceOnUse" id="m"><stop offset="0" stop-color="#fff"/><stop offset="1" stop-color="#b4b4b4"/></linearGradient><linearGradient x1="106.419" y1="293.209" x2="106.412" y2="288.262" gradientUnits="userSpaceOnUse" id="n"><stop offset="0" stop-color="#fff"/><stop offset="1" stop-color="#b4b4b4"/></linearGradient><linearGradient x1="117.72" y1="298.049" x2="117.15" y2="288.668" gradientUnits="userSpaceOnUse" id="o"><stop offset="0" stop-color="#fff"/><stop offset="1" stop-color="#b4b4b4"/></linearGradient><linearGradient x1="128.361" y1="296.158" x2="126.897" y2="289.46" gradientUnits="userSpaceOnUse" id="p"><stop offset="0" stop-color="#fff"/><stop offset="1" stop-color="#b4b4b4"/></linearGradient><linearGradient x1="138.13" y1="295.315" x2="135.976" y2="288.806" gradientUnits="userSpaceOnUse" id="q"><stop offset="0" stop-color="#fff"/><stop offset="1" stop-color="#b4b4b4"/></linearGradient><linearGradient x1="88.323" y1="297.173" x2="85.651" y2="288.162" gradientUnits="userSpaceOnUse" id="r"><stop offset="0" stop-color="#fff"/><stop offset="1" stop-color="#b4b4b4"/></linearGradient><linearGradient x1="95.94" y1="293.33" x2="95.649" y2="287.749" gradientUnits="userSpaceOnUse" id="s"><stop offset="0" stop-color="#fff"/><stop offset="1" stop-color="#b4b4b4"/></linearGradient><linearGradient x1="106.419" y1="293.209" x2="106.412" y2="288.262" gradientUnits="userSpaceOnUse" id="t"><stop offset="0" stop-color="#fff"/><stop offset="1" stop-color="#b4b4b4"/></linearGradient><linearGradient x1="117.72" y1="298.049" x2="117.15" y2="288.668" gradientUnits="userSpaceOnUse" id="u"><stop offset="0" stop-color="#fff"/><stop offset="1" stop-color="#b4b4b4"/></linearGradient><linearGradient x1="128.361" y1="296.158" x2="126.897" y2="289.46" gradientUnits="userSpaceOnUse" id="v"><stop offset="0" stop-color="#fff"/><stop offset="1" stop-color="#b4b4b4"/></linearGradient><linearGradient x1="138.13" y1="295.315" x2="135.976" y2="288.806" gradientUnits="userSpaceOnUse" id="w"><stop offset="0" stop-color="#fff"/><stop offset="1" stop-color="#b4b4b4"/></linearGradient><linearGradient x1="109.765" y1="223.236" x2="113.228" y2="258.309" gradientUnits="userSpaceOnUse" id="x"><stop offset="0" stop-color="#ffb800"/><stop offset="1" stop-color="orange"/></linearGradient><linearGradient x1="101.948" y1="190.125" x2="106.654" y2="237.792" gradientUnits="userSpaceOnUse" id="y"><stop offset="0" stop-color="#ffb900"/><stop offset="1" stop-color="orange"/></linearGradient><linearGradient x1="84.777" y1="197.378" x2="88.279" y2="232.855" gradientUnits="userSpaceOnUse" id="z"><stop offset="0" stop-color="#ffb800"/><stop offset="1" stop-color="orange"/></linearGradient><linearGradient x1="108.927" y1="185.127" x2="113.22" y2="228.613" gradientUnits="userSpaceOnUse" id="A"><stop offset="0" stop-color="#ffb800"/><stop offset="1" stop-color="orange"/></linearGradient><linearGradient x1="129.876" y1="189.704" x2="133.035" y2="221.698" gradientUnits="userSpaceOnUse" id="B"><stop offset="0" stop-color="#ffb800"/><stop offset="1" stop-color="orange"/></linearGradient><radialGradient cx="101.604" cy="265.741" r="8" gradientUnits="userSpaceOnUse" id="j"><stop offset="0" stop-color="#fff"/><stop offset="1" stop-color="#fff" stop-opacity="0"/></radialGradient><radialGradient cx="126.872" cy="266.741" r="6.022" gradientUnits="userSpaceOnUse" id="k"><stop offset="0" stop-color="#fff"/><stop offset="1" stop-color="#fff" stop-opacity="0"/></radialGradient></defs><path d="M13.163 314.229c3.731 1.463 12.25 4.588 20.348 7.532 9.462 3.44 8.472 15.073-1.126 23.579-7.176 6.359-14.196 12.752-16.817 15.679-2.7 3.014-6.618 2.094-7.717-4.1-.898-5.055 4.983-16.273 4.983-16.273s-7.65-15.63-10.614-21.347c-1.047-2.018-.645-3.621.83-3.975 2.631-.632 9.209-1.449 10.113-1.095z" fill="#007fff" stroke="#0048ff" stroke-width="5"/><path d="M283.275-17.76s-9.132 9.507-7.325 21.707c1.69 11.416 6.407 21.61 6.325 35.794-.08 14.183-13.5 40.25-13.5 40.25" fill="none" stroke="url(#a)" stroke-width="7.5" stroke-linecap="round" transform="translate(-38.941 44.214)"/><path d="M267.525 67.49s-11.5-12.378-11.5-26c0-10.17 9.59-30.248 11.823-42.219 1.691-9.069-6.823-29.78-6.823-29.78" fill="none" stroke="url(#b)" stroke-width="7.5" stroke-linecap="round" transform="translate(-38.941 44.214)"/><path d="M298.772-40.464S282.673-10.276 283.62 7.433c.945 17.71 17.574 24.626 16.346 41.367s-18.128 28.525-18.128 28.525" fill="none" stroke="url(#c)" stroke-width="7.5" stroke-linecap="round" transform="translate(-38.941 44.214)"/><path d="M283.275-17.76s-9.132 9.507-7.325 21.707c1.69 11.416 6.407 21.61 6.325 35.794-.08 14.183-13.5 40.25-13.5 40.25" fill="none" stroke="url(#d)" stroke-width="7.5" stroke-linecap="round" transform="translate(-38.941 44.214)"/><path d="M267.525 67.49s-11.5-12.378-11.5-26c0-10.17 9.59-30.248 11.823-42.219 1.691-9.069-6.823-29.78-6.823-29.78" fill="none" stroke="url(#e)" stroke-width="7.5" stroke-linecap="round" transform="translate(-38.941 44.214)"/><path d="M298.772-40.464S282.673-10.276 283.62 7.433c.945 17.71 17.574 24.626 16.346 41.367s-18.128 28.525-18.128 28.525" fill="none" stroke="url(#f)" stroke-width="7.5" stroke-linecap="round" transform="translate(-38.941 44.214)"/><path d="M211.712 139.904c-1.976 0-3.578-1.79-3.578-4v-24.25c0-2.208 1.602-4 3.578-4h56.345c1.976 0 3.577 1.792 3.577 4v24.25c0 2.21-1.601 4-3.577 4z" fill="#001836" stroke="#0a00bb" stroke-width="7.5"/><path d="M110.484 299.804c-11.045 0-20-8.953-20-20v-133c0-11.045 8.955-20 20-20h268c11.046 0 20 8.955 20 20v133c0 11.047-8.954 20-20 20z" fill="#001836"/><path d="m199.899 217.111 38.854-67.296c2.769-4.796 8.7-4.55 11.568.418l38.637 66.92c2.452 4.248.215 6.852-5.742 6.852h-78c-4.676 0-7.784-2.621-5.317-6.894z" fill="#00e2ff" stroke="#006cff" stroke-width="5.5"/><path d="M241.457 215.93a3.273 3.273 0 0 1-3.273-3.272v-5.237a3.273 3.273 0 0 1 3.273-3.273h6.055a3.273 3.273 0 0 1 3.272 3.273v5.237a3.273 3.273 0 0 1-3.272 3.272zm-.083-17.036c-1.761 0-3.19-1.465-3.19-3.273l-1.6-22.909c0-1.807 1.429-3.273 3.19-3.273h9.62c1.762 0 3.19 1.466 3.19 3.273l-1.8 22.91c0 1.807-1.428 3.272-3.19 3.272z" fill="#006cff"/><path d="M149.236 251.686q1.083 0 1.083 4.007 0 1.195-.257 2.824-.257 1.63-.938 1.63h-7.256v5.715h10.516q.971 0 1.306 2.512.178 1.094.178 2.322t-.346 3.17q-.345 1.942-1.138 1.942h-19.546q-2.177 0-2.177-1.774v-36.748q0-1.485 1.317-1.485h20.462q1.194 0 1.194 5.057t-1.194 5.057h-10.572v5.77zm21.836 24.067q0 .402-5.202.402-5.202-.123-5.202-.458V256.72h-1.54q-.916 0-1.462-1.116-.547-1.116-.547-2.769 0-6.173 3.661-6.173 2.567 0 4.286 1.574 1.72 1.563 1.72 3.573 1.194-2.345 3.226-3.74 2.03-1.407 4.141-1.407 3.315 0 4.007 1.708.168.459.168 1.351 0 .882-.547 3.17-.536 2.289-1.116 3.316-.57 1.026-.681 1.027t-1.06-.425q-.939-.435-1.686-.435-2.166 0-2.166 3.427zm22.633 0q0 .402-5.202.402-5.202-.123-5.202-.458V256.72h-1.54q-.915 0-1.463-1.116-.546-1.116-.547-2.769 0-6.173 3.662-6.173 2.567 0 4.286 1.574 1.72 1.563 1.72 3.573 1.193-2.345 3.225-3.74 2.032-1.407 4.142-1.407 3.315 0 4.007 1.708.168.459.168 1.351 0 .882-.547 3.17-.537 2.289-1.117 3.316-.57 1.026-.68 1.027-.113 0-1.061-.425-.938-.435-1.686-.435-2.165 0-2.165 3.427zm12.597-3.316q-3.572-3.94-3.572-10.917 0-6.976 3.572-10.917t9.634-3.94q6.06 0 9.6 3.94 3.538 3.94 3.538 10.917t-3.538 10.917-9.6 3.94-9.634-3.94zm9.656-16.23q-3.225 0-3.226 5.257 0 5.258 3.226 5.258 3.237 0 3.237-5.258 0-5.257-3.237-5.257zm29.7 19.546q0 .402-5.203.402-5.202-.123-5.202-.458V256.72h-1.54q-.916 0-1.462-1.116-.547-1.116-.547-2.769 0-6.173 3.661-6.173 2.567 0 4.287 1.574 1.719 1.563 1.719 3.573 1.194-2.345 3.226-3.74 2.031-1.407 4.141-1.407 3.315 0 4.007 1.708.168.459.168 1.351 0 .882-.547 3.17-.536 2.289-1.116 3.316-.57 1.026-.681 1.027t-1.06-.425q-.939-.435-1.686-.435-2.166 0-2.166 3.427zm42.686-39.952q1.094 0 1.094 4.744 0 1.485-.268 3.517-.255 2.031-.937 2.031h-11.14l-.068 4.164h1.887q6.117 0 9.12 3.55 3.003 3.538 3.003 9.376 0 5.827-4.12 9.511-4.108 3.684-10.57 3.684-6.465 0-9.433-1.83-.458-.737-.458-2.312t.458-4.454q.457-2.89 1.261-2.89.056 0 .346.234 4.053 1.652 6.196 1.652t3.538-1.172q1.407-1.173 1.407-3.003 0-4.566-4.912-4.566l-4.923.056q-.57.113-1.138-.48-.57-.603-.57-1.585v-17.883q0-2.344 1.708-2.344zm23.798 40.577q-7.166 0-11.71-5.258-4.543-5.258-4.543-15.371t4.566-15.282q4.576-5.18 11.81-5.18 7.233 0 11.687 5.147 4.454 5.145 4.454 15.494 0 10.336-4.543 15.393t-11.72 5.057zm.011-30.117q-2.199 0-3.717 2.489-1.518 2.478-1.518 7.055t1.451 7.01q1.463 2.422 3.773 2.422 2.322 0 3.773-2.455 1.462-2.468 1.462-7.033 0-4.576-1.518-7.033-1.507-2.455-3.706-2.455zm19.398 25.774q0-1.596.803-3.627.805-2.032 1.54-3.26.75-1.228.86-1.228 3.315 1.998 6.977 1.998 2.288 0 3.684-.915 1.395-.915 1.395-2.534 0-1.63-1.284-2.087-1.283-.459-4.085-.637h-2.054q-.692 0-1.295-1.685-.591-1.686-.592-3.282 0-2.69 1.597-2.746l1.663-.056q1.54 0 3.226-.882 1.685-.892 1.685-2.266 0-2.4-4.286-2.4-3.204 0-6.173 1.262-2.567-4.633-2.567-7.234t3.627-3.907q3.628-1.317 9.11-1.317 5.49 0 8.572 2.288 3.092 2.277 3.092 6.23 0 6.909-5.95 10.626 7.212 2.914 7.212 9.89 0 5.426-3.84 8.774-3.829 3.338-10.973 3.338-4.511 0-8.227-1.284t-3.717-3.058z" stroke="#006cff" stroke-width="7.5" stroke-linecap="square"/><path d="M149.236 251.686q1.083 0 1.083 4.007 0 1.195-.257 2.824-.257 1.63-.938 1.63h-7.256v5.715h10.516q.971 0 1.306 2.512.178 1.094.178 2.322t-.346 3.17q-.345 1.942-1.138 1.942h-19.546q-2.177 0-2.177-1.774v-36.748q0-1.485 1.317-1.485h20.462q1.194 0 1.194 5.057t-1.194 5.057h-10.572v5.77zm21.836 24.067q0 .402-5.202.402-5.202-.123-5.202-.458V256.72h-1.54q-.916 0-1.462-1.116-.547-1.116-.547-2.769 0-6.173 3.661-6.173 2.567 0 4.286 1.574 1.72 1.563 1.72 3.573 1.194-2.345 3.226-3.74 2.03-1.407 4.141-1.407 3.315 0 4.007 1.708.168.459.168 1.351 0 .882-.547 3.17-.536 2.289-1.116 3.316-.57 1.026-.681 1.027t-1.06-.425q-.939-.435-1.686-.435-2.166 0-2.166 3.427zm22.633 0q0 .402-5.202.402-5.202-.123-5.202-.458V256.72h-1.54q-.915 0-1.463-1.116-.547-1.116-.547-2.769 0-6.173 3.662-6.173 2.567 0 4.286 1.574 1.72 1.563 1.72 3.573 1.193-2.345 3.225-3.74 2.032-1.407 4.142-1.407 3.315 0 4.007 1.708.168.459.168 1.351 0 .882-.547 3.17-.537 2.289-1.117 3.316-.57 1.026-.68 1.027-.113 0-1.061-.425-.937-.435-1.686-.435-2.165 0-2.165 3.427zm12.597-3.316q-3.572-3.94-3.572-10.917t3.572-10.917 9.634-3.94q6.06 0 9.6 3.94 3.538 3.94 3.538 10.917 0 6.976-3.538 10.917-3.54 3.94-9.6 3.94-6.061 0-9.634-3.94m9.656-16.23q-3.225 0-3.226 5.257 0 5.258 3.226 5.258 3.237 0 3.237-5.258 0-5.257-3.237-5.257m29.7 19.546q0 .402-5.203.402-5.202-.123-5.202-.458V256.72h-1.54q-.916 0-1.462-1.116-.547-1.116-.547-2.769 0-6.173 3.661-6.173 2.567 0 4.287 1.574 1.719 1.563 1.719 3.573 1.194-2.345 3.226-3.74 2.032-1.407 4.141-1.407 3.315 0 4.007 1.708.168.459.168 1.351 0 .882-.547 3.17-.536 2.289-1.116 3.316-.57 1.026-.681 1.027t-1.06-.425q-.939-.435-1.686-.435-2.166 0-2.166 3.427zm42.686-39.952q1.094 0 1.094 4.744 0 1.485-.268 3.517-.255 2.031-.937 2.031h-11.14l-.068 4.164h1.887q6.117 0 9.12 3.55 3.003 3.538 3.003 9.376 0 5.827-4.12 9.511-4.108 3.684-10.57 3.684-6.465 0-9.433-1.83-.458-.737-.458-2.312t.458-4.454q.457-2.89 1.261-2.89.057 0 .346.234 4.053 1.652 6.196 1.652t3.538-1.172q1.407-1.173 1.407-3.003 0-4.566-4.912-4.566l-4.923.056q-.57.112-1.138-.48-.57-.603-.57-1.585v-17.883q0-2.344 1.708-2.344zm23.798 40.577q-7.166 0-11.71-5.258-4.543-5.258-4.543-15.371t4.566-15.282q4.576-5.18 11.81-5.18 7.233 0 11.687 5.147 4.454 5.145 4.454 15.494 0 10.336-4.543 15.393t-11.72 5.057zm.011-30.117q-2.199 0-3.717 2.489-1.518 2.478-1.518 7.055t1.451 7.01q1.463 2.422 3.773 2.422 2.322 0 3.773-2.455 1.462-2.468 1.462-7.033 0-4.576-1.518-7.033-1.507-2.455-3.706-2.455m19.398 25.774q0-1.596.803-3.627.805-2.032 1.54-3.26.75-1.228.86-1.228 3.315 1.998 6.977 1.998 2.288 0 3.684-.915 1.395-.915 1.395-2.534 0-1.63-1.284-2.087-1.283-.459-4.085-.637h-2.054q-.692 0-1.295-1.685-.592-1.686-.592-3.282 0-2.69 1.597-2.746l1.663-.056q1.54 0 3.226-.882 1.685-.892 1.685-2.266 0-2.4-4.286-2.4-3.204 0-6.173 1.262-2.568-4.633-2.568-7.234t3.628-3.907q3.628-1.317 9.11-1.317 5.49 0 8.572 2.288 3.093 2.277 3.092 6.23 0 6.909-5.95 10.626 7.212 2.914 7.212 9.89 0 5.426-3.84 8.774-3.829 3.338-10.973 3.338-4.511 0-8.227-1.284t-3.717-3.058z" fill="#00e2ff"/><path d="M93.984 214.369v-4.223h301v4.223zm0 7.917v-4.222h301v4.222zm0 7.918v-4.223h301v4.223zm0 7.918v-4.223h301v4.223zm0 7.918v-4.223h301v4.223zm0 7.917v-4.222h301v4.222zm0 7.918v-4.223h301v4.223zm0 7.918v-4.223h301v4.223zm0 7.918v-4.223h301v4.223zm0 7.917v-4.223h301v4.223zm0 7.918v-4.223h301v4.223zm0-158.26v-4.222h301v4.222zm0 7.918v-4.223h301v4.223zm0 7.918v-4.223h301v4.223zm0 7.918v-4.223h301v4.223zm0 7.917v-4.222h301v4.222zm0 7.918v-4.223h301v4.223zm0 7.918v-4.223h301v4.223zm0 7.918v-4.223h301v4.223zm0 7.917v-4.223h301v4.223zm0 7.918v-4.223h301v4.223z" fill-opacity=".118" fill="#fff"/><path d="M149.425 255.59c-11.045 0-20-8.953-20-20v-133c0-11.045 8.955-20 20-20h268c11.046 0 20 8.955 20 20v133c0 11.047-8.954 20-20 20z" fill="none" stroke="url(#g)" stroke-width="12.5" transform="translate(-38.941 44.214)"/><path d="M155.912 328.464c0 6.628-21.992 12-49.12 12s-49.12-5.372-49.12-12c0-6.627 21.992-12 49.12-12s49.12 5.373 49.12 12" fill="url(#h)" transform="translate(-38.941 44.214)"/><path d="M157.997 326.418c-6.255 4.806-14.521 5.01-21.063 1.513q-.406.387-.858.738l-33.411 27.718-.051.04c-4.163 3.2-10.116 2.467-13.317-1.697-3.2-4.164-2.415-10.155 1.748-13.355l.038-.028 35.172-25.444q.467-.354.939-.655c-1.692-7.218.828-15.097 7.078-19.9a19.43 19.43 0 0 1 16.041-3.575 1.683 1.683 0 0 1 .665 2.974l-10.606 8.152 1.932 10.827 9.966 4.653 10.606-8.15a1.681 1.681 0 0 1 2.703 1.406c-.254 5.76-3.02 11.275-7.582 14.783zm-58.944 20.55a3.503 3.503 0 0 0-5.553 4.267 3.502 3.502 0 0 0 5.553-4.267z" fill="none" stroke="#000" stroke-width="7.5"/><path d="M196.938 282.004c-6.255 4.806-14.521 5.21-21.063 1.713q-.406.387-.858.738l-33.411 27.718-.051.04c-4.163 3.2-10.116 2.467-13.317-1.697-3.2-4.164-2.415-10.155 1.748-13.355l.038-.028 35.172-25.444q.467-.354.939-.655c-1.692-7.218.828-15.097 7.078-19.9a19.43 19.43 0 0 1 16.041-3.575 1.683 1.683 0 0 1 .665 2.974l-10.606 8.152 1.932 10.827 9.966 4.653 10.606-8.15a1.681 1.681 0 0 1 2.703 1.406 19.43 19.43 0 0 1-7.582 14.583m-58.944 20.75a3.503 3.503 0 0 0-5.553 4.267 3.502 3.502 0 0 0 5.553-4.267" fill="url(#i)" transform="translate(-38.941 44.214)"/><path d="M42.639 371.012c-11.02 0-19.955-8.934-19.955-19.955V300.06c0-11.02 8.935-19.955 19.956-19.955h50.996c11.021 0 19.955 8.934 19.955 19.955v50.997c0 11.02-8.934 19.955-19.955 19.955z" fill="#007fff"/><path d="M96.225 369.12c-15.82 3.233-40.792 2.164-56.388-.105-3.753-.547-9.039-3.013-11.87-7.622-4.448-7.243-5.284-17.815-3.309-19.565 10.719-9.497 40.664-10.203 59.193-10.203 24.116 0 28.667 10.211 28.667 21.573 0 3.15-6.473 13.915-16.293 15.922" fill="#649fdb"/><path d="M37.342 313.473c0-4.553 4.458-10.95 7.492-13.883 2.9-2.803 4.28-2.242 8.633-2.242 8.905 0 16.125 7.219 16.125 16.125s-7.22 16.125-16.125 16.125-16.125-7.22-16.125-16.125" fill="#006edd"/><path d="M42.639 371.012c-11.02 0-19.955-8.934-19.955-19.955V300.06c0-11.02 8.935-19.955 19.956-19.955h50.996c11.021 0 19.955 8.934 19.955 19.955v50.997c0 11.02-8.934 19.955-19.955 19.955z" fill="none" stroke="#0048ff" stroke-width="6"/><path d="M80.484 310.044c0-5.352 11.902-4.997 20.527-3.223 4.329.89 8.58.536 8.58 3.223 0 8.037-6.516 14.553-14.553 14.553s-14.554-6.516-14.554-14.553" fill="#006edd"/><path d="M40.418 309.954c0-8.086 6.555-14.642 14.642-14.642s14.642 6.556 14.642 14.643-6.555 14.642-14.642 14.642-14.642-6.556-14.642-14.642m53.433 11.099c-6.624.218-12.17-4.974-12.39-11.598-.019-.586-2.965-.573-3.11-.975-.73-2.033 1.375-2.773 6.715-2.74 5.55.036 20.28-.154 20.382 2.923.219 6.624-4.973 12.17-11.597 12.39" data-paper-data="{&quot;index&quot;:null}"/><path d="M85.046 310.954a2.885 2.885 0 1 1 5.77 0 2.885 2.885 0 0 1-5.77 0m-26.428-1a4.045 4.045 0 1 1 8.09 0 4.045 4.045 0 0 1-8.09 0" fill="#fff"/><path d="M93.604 265.74a8 8 0 1 1 16 0 8 8 0 0 1-16 0" fill="url(#j)" transform="translate(-38.941 44.214)"/><path d="M120.85 266.74a6.022 6.022 0 1 1 12.045 0 6.022 6.022 0 0 1-12.045 0" fill="url(#k)" transform="translate(-38.941 44.214)"/><path d="m89.696 287.428-2.54 7.578-5.55-6.11z" fill="url(#l)" stroke="#000" stroke-width="2.5" transform="translate(-38.941 44.214)"/><path d="m99.694 287.938-3.754 5.392-4.336-5.77z" fill="url(#m)" stroke="#000" stroke-width="2.5" transform="translate(-38.941 44.214)"/><path d="m110.854 288.712-4.435 4.497-4.45-5.397z" fill="url(#n)" stroke="#000" stroke-width="2.5" transform="translate(-38.941 44.214)"/><path d="m121.257 288.866-4.184 6.81-4.03-7.206z" fill="url(#o)" stroke="#000" stroke-width="2.5" transform="translate(-38.941 44.214)"/><path d="m130.92 289.309-3.42 5.19-4.626-4.888z" fill="url(#p)" stroke="#000" stroke-width="2.5" transform="translate(-38.941 44.214)"/><path d="m139.96 288.238-2.86 5.517-5.11-4.38z" fill="url(#q)" stroke="#000" stroke-width="2.5" transform="translate(-38.941 44.214)"/><path d="m89.696 287.428-2.54 7.578-5.55-6.11z" fill="url(#r)" transform="translate(-38.941 44.214)"/><path d="m99.694 287.938-3.754 5.392-4.336-5.77z" fill="url(#s)" transform="translate(-38.941 44.214)"/><path d="m110.854 288.712-4.435 4.497-4.45-5.397z" fill="url(#t)" transform="translate(-38.941 44.214)"/><path d="m121.257 288.866-4.184 6.81-4.03-7.206z" fill="url(#u)" transform="translate(-38.941 44.214)"/><path d="m130.92 289.309-3.42 5.19-4.626-4.888z" fill="url(#v)" transform="translate(-38.941 44.214)"/><path d="m139.96 288.238-2.86 5.517-5.11-4.38z" fill="url(#w)" transform="translate(-38.941 44.214)"/><path d="M102.229 331.54s-5.512 1.447-15.448.92c-8.487-.45-20.833-2.93-28.786-2.484-17.263.968-19.17 5.119-19.17 5.119" fill="none" stroke="#000" stroke-width="4.5" stroke-linecap="round"/><path d="M167.653 234.66c1.124 9.25-23.076 19.801-54.053 23.564s-39.46-3.76-48.125-7.911c-7.915-3.793-14.094-7.572-13.208-11.365 1.211-5.184 5.659-7.907 7.277-9.314 7.982-6.943 75.04 1.887 84.732 2.891 13.802 1.43 22.717-3.3 23.377 2.134z" fill="url(#x)" stroke="#ff8d00" stroke-width="4" transform="translate(-38.941 44.214)"/><path d="M62.585 239.366s-.193-1.806-.249-2.701c-1.6-25.65 13.332-43.343 39.29-46.496 25.794-3.133 49.338 14.38 54.062 39.56.196 1.045.49 3.174.49 3.174s-11.185 6.713-21.894 9.199c-10.71 2.485-22.81 4.531-39.318 4.123-16.508-.41-32.381-6.86-32.381-6.86z" fill="url(#y)" stroke="#ff8d00" stroke-width="4" transform="translate(-38.941 44.214)"/><path d="M90.276 208.272c3.19 6.83 2.922 21.077-.796 21.444s-5.797-9.774-9.658-18.038-7.35-5.726-6.995-10.747c.354-5.02 6.495-6.36 10.144-4.825s5.532 8.372 7.305 12.166z" fill="url(#z)" stroke="#ff8d00" stroke-width="4" transform="translate(-38.941 44.214)"/><path d="M115.668 198.48c3.91 8.372 3.581 25.834-.976 26.284s-7.106-11.98-11.838-22.109c-3.525-7.545-6.377-7.492-8.44-9.418-.186-.174-.145-2.815 1.121-3.712 3.505-2.484 10.917-2.957 14.203-1.575 4.473 1.882 3.757 5.879 5.93 10.53z" fill="url(#A)" stroke="#ff8d00" stroke-width="4" transform="translate(-38.941 44.214)"/><path d="M135.05 197.756c2.878 6.16 2.326 19.816-1.027 20.147s-6.284-11.629-9.766-19.081c-1.365-2.921-2.446-4.704-3.256-5.793-1.258-1.688-1.085-1.957.063-2.14 1.55-.246 3.775-.366 5.666.43 3.29 1.384 6.721 3.015 8.32 6.437z" fill="url(#B)" stroke="#ff8d00" stroke-width="4" transform="translate(-38.941 44.214)"/><path d="M92.659 205.747q-6.228-1.21-5.937-2.71l.58-2.99q.69-3.547 7.673-7.907a31 31 0 0 0 4.949-3.857q2.361-2.245 2.774-4.369.765-3.932-3.764-4.811-4.527-.88-9.675 1.222-2.408-3.57-2.855-7.588-.226-1.35-.036-2.331.193-.99.755-1.779 1.023-1.927 6.613-2.715 5.592-.8 11.418.333 8.815 1.712 12.492 6.358 3.678 4.635 2.408 11.172-.58 2.99-2.6 5.58-2.01 2.592-4.52 4.36a99 99 0 0 1-4.92 3.243q-5.879 3.766-6.353 6.208l-.46 2.365q-.183.942-3.189.807-2.997-.134-5.352-.591zm4.62 17.407q-.093.47-6.59-.791-6.49-1.26-6.413-1.655l2.402-12.363q.123-.635 6.612.627 6.499 1.262 6.422 1.657z" stroke="#fdfdfd" stroke-width="10" stroke-linecap="square"/><path d="M92.659 205.747q-6.228-1.21-5.937-2.71l.58-2.99q.69-3.547 7.673-7.907a31 31 0 0 0 4.949-3.857q2.361-2.245 2.774-4.369.765-3.932-3.764-4.811-4.527-.88-9.675 1.222-2.408-3.57-2.855-7.588-.226-1.35-.036-2.331.193-.99.755-1.779 1.023-1.927 6.613-2.715 5.592-.8 11.418.333 8.815 1.712 12.492 6.358 3.678 4.635 2.408 11.172-.58 2.99-2.6 5.58-2.01 2.592-4.52 4.36a99 99 0 0 1-4.92 3.243q-5.879 3.766-6.353 6.208l-.46 2.365q-.183.942-3.189.807-2.997-.134-5.352-.591m4.62 17.407q-.093.47-6.59-.791-6.49-1.26-6.413-1.655l2.402-12.363q.123-.635 6.612.627 6.499 1.262 6.422 1.657z"/><path d="M46.449 213.007q-3.936 1.046-4.188.099l-.502-1.89q-.597-2.241 2.215-6.714a19.8 19.8 0 0 0 1.777-3.614q.735-1.958.378-3.3-.66-2.485-3.521-1.724-2.862.76-5.245 3.416-2.391-1.388-3.774-3.582-.51-.717-.674-1.336a2.9 2.9 0 0 1-.063-1.239q.052-1.398 3.058-3.42 3.006-2.028 6.687-3.007 5.57-1.48 8.995.172 3.423 1.647 4.52 5.777.503 1.89.062 3.95a13.5 13.5 0 0 1-1.388 3.784 64 64 0 0 1-1.932 3.252q-2.34 3.822-1.93 5.365l.397 1.494q.158.595-1.616 1.36-1.767.762-3.256 1.157zm7.544 8.759q.078.297-4.028 1.389-4.1 1.09-4.166.84l-2.076-7.811q-.106-.4 3.993-1.49 4.107-1.093 4.173-.843z" stroke="#fdfdfd" stroke-width="10" stroke-linecap="square"/><path d="M46.449 213.007q-3.936 1.046-4.188.099l-.502-1.89q-.597-2.241 2.215-6.714a19.8 19.8 0 0 0 1.777-3.614q.735-1.958.378-3.3-.66-2.485-3.521-1.724-2.862.76-5.245 3.416-2.391-1.388-3.774-3.582-.51-.717-.674-1.336a2.9 2.9 0 0 1-.063-1.239q.052-1.398 3.058-3.42 3.006-2.028 6.687-3.007 5.57-1.48 8.995.172 3.423 1.647 4.52 5.777.503 1.89.062 3.95a13.5 13.5 0 0 1-1.388 3.784 64 64 0 0 1-1.932 3.252q-2.34 3.822-1.93 5.365l.397 1.494q.158.595-1.616 1.36-1.767.762-3.256 1.157m7.544 8.759q.078.297-4.028 1.389-4.1 1.09-4.166.84l-2.076-7.811q-.106-.4 3.993-1.49 4.107-1.093 4.173-.843z"/></svg>
