<svg xmlns="http://www.w3.org/2000/svg" width="122.446" height="120.037" viewBox="0 0 122.446 120.037"><g stroke-miterlimit="10"><path d="m87.513 15.877 17.192 2.247a4.43 4.43 0 0 1 3.842 4.428l-.097 17.182 12.577 11.92a4.43 4.43 0 0 1 .544 5.893l-10.248 13.831 3.178 17.043a4.44 4.44 0 0 1-3.345 5.13l-16.098 5.106-7.436 15.699a4.41 4.41 0 0 1-5.532 2.24l-16.18-5.383-15.247 8.282a4.44 4.44 0 0 1-5.84-1.475l-9.926-13.899-17.186-2.255a4.43 4.43 0 0 1-3.877-4.39l.118-17.217L1.389 68.336a4.42 4.42 0 0 1-.535-5.83l10.217-13.861-3.178-17.043a4.43 4.43 0 0 1 3.345-5.13l16.095-5.12 7.468-15.656a4.42 4.42 0 0 1 5.537-2.248l16.18 5.382L71.756.543A4.42 4.42 0 0 1 77.6 2.032z" fill="#ff8e00"/><path d="m85.026 19.998 19.101 2.502-.128 19.145 13.978 13.257-11.36 15.404 3.51 18.943-18.238 5.783-8.285 17.393-18.17-6.047-16.926 9.2-11.133-15.564-19.11-2.507.138-19.14L4.423 65.11l11.36-15.404-3.515-18.934 18.244-5.791 8.285-17.393 18.162 6.042 16.926-9.201z" fill="#ffbe00" fill-rule="evenodd"/><path d="m85.14 20.22 19.1 2.502-.128 19.144L65.547 106.6l-16.926 9.2-11.132-15.564zm-28.305-6.45 17.27-9.488L18.212 78.64 4.232 65.382l11.36-15.404L39.018 7.902zM117.875 55l-11.36 15.404 3.51 18.942-18.238 5.784-8.285 17.393-5.282-1.917 37.151-58.104z" fill="#ffd429" fill-rule="evenodd"/><path d="M65.122 29.765c5.245.674 10.065 2.622 14.11 5.694.65.5.9-3.047 1.5-3.946 1.248-1.873 4.145-2.048 5.594-.3.25.325.524.775.624 1.05.1.25.725 4.12 1.424 8.616.874 5.644 1.224 8.392 1.174 8.916-.1.874-.65 1.898-1.299 2.373-1.024.75-1.199.75-9.34-.025-4.147-.375-7.793-.774-8.118-.874-.3-.075-.849-.375-1.149-.65-1.823-1.598-1.398-4.77.775-5.894.523-.262 2.475-1.599 1.644-2.11a22.3 22.3 0 0 0-6.814-2.76c-1.874-.4-6.045-.4-7.993 0-6.157 1.286-11.282 5.172-14.127 10.516-.524.984-2.666 4.924-6.982 3.223-3.11-1.226-3.442-4.448-2.692-6.146 2.922-6.644 8.716-12.413 15.435-15.36 2.672-1.15 6.368-2.148 9.216-2.448 1.448-.15 5.444-.1 7.018.125zm20.555 36.439c2.918.585 3.996 4.788 3.508 5.908-2.024 4.633-5.44 9.027-9.503 12.125-10.348 7.912-24.798 8.275-35.426 1.067q-.564-.382-1.113-.793c-.65-.5-.924 3.322-1.773 4.271-1.449 1.599-3.971 1.599-5.295-.025-.25-.325-.524-.774-.624-1.049-.1-.25-.725-4.12-1.424-8.616-.874-5.645-1.224-8.392-1.174-8.917.175-1.473 1.374-2.822 2.698-2.997.674-.075 15.21 1.274 16.084 1.524.3.075.824.35 1.099.624 1.848 1.624 1.473 4.795-.724 5.92-.6.299-2.437 1.62-1.566 2.152a22.3 22.3 0 0 0 3.938 1.918c5.095 1.849 11.09 1.449 16.084-1.049 3.522-1.77 6.58-4.723 8.573-8.187.707-1.23 3.72-4.46 6.638-3.876z" fill="none" stroke="#ff8e00" stroke-width="7.5"/><path d="M65.122 29.765c5.245.674 10.065 2.622 14.11 5.694.65.5.9-3.047 1.5-3.946 1.248-1.873 4.145-2.048 5.594-.3.25.325.524.775.624 1.05.1.25.725 4.12 1.424 8.616.874 5.644 1.224 8.392 1.174 8.916-.1.874-.65 1.898-1.299 2.373-1.024.75-1.199.75-9.34-.025-4.147-.375-7.793-.774-8.118-.874-.3-.075-.849-.375-1.149-.65-1.823-1.598-1.398-4.77.775-5.894.523-.262 2.475-1.599 1.644-2.11a22.3 22.3 0 0 0-6.814-2.76c-1.874-.4-6.044-.4-7.993 0-6.157 1.286-11.282 5.172-14.127 10.516-.524.984-2.666 4.924-6.982 3.223-3.11-1.226-3.442-4.448-2.692-6.146 2.922-6.644 8.716-12.413 15.435-15.36 2.672-1.15 6.368-2.148 9.216-2.448 1.448-.15 5.444-.1 7.018.125m20.555 36.439c2.918.585 3.996 4.788 3.508 5.908-2.024 4.633-5.44 9.027-9.503 12.125-10.348 7.912-24.798 8.275-35.426 1.067q-.564-.382-1.113-.793c-.65-.5-.924 3.322-1.773 4.271-1.449 1.599-3.971 1.599-5.295-.025-.25-.325-.524-.774-.624-1.049-.1-.25-.725-4.12-1.424-8.616-.874-5.645-1.224-8.392-1.174-8.917.175-1.473 1.374-2.822 2.698-2.997.674-.075 15.21 1.274 16.084 1.524.3.075.824.35 1.099.624 1.848 1.624 1.473 4.795-.724 5.92-.6.299-2.437 1.62-1.566 2.152a22.3 22.3 0 0 0 3.938 1.918c5.095 1.849 11.09 1.449 16.084-1.049 3.522-1.77 6.58-4.723 8.573-8.187.707-1.23 3.72-4.46 6.638-3.876" fill="#fff"/><path d="M23.133 50.479q0-.566 3.082-.566 3.087 0 3.087.566v13.048q0 2.903-2.076 4.736-2.072 1.832-5.725 1.832t-5.94-1.888q-2.288-1.893-2.288-5.102V50.512q0-.57 3.082-.571 3.087 0 3.087.571v12.82q0 .567.594.905.627.345 1.31.345a2.46 2.46 0 0 0 1.233-.311q.555-.317.555-.939zm11.03 19.388q-2.583 0-2.583-.566V50.878q0-.966.878-.966h5.002q4.209 0 6.069 1.738 1.865 1.731 1.865 5.03 0 2.726-1.765 5.002-.878 1.132-2.588 1.816-1.704.683-3.975.683v5.091q0 .339-1.066.466-1.065.128-1.838.128zm2.903-15.007v4.491h.366q.995 0 1.677-.621.683-.628.683-1.766 0-1.139-.472-1.621-.466-.483-1.66-.483zm10.829-3.415q0-.71.355-1.121t.922-.411h4.747q4.525 0 6.868 2.276 2.343 2.27 2.343 7.162 0 10.46-8.922 10.46h-4.864q-1.45 0-1.45-1.31zm5.458 3.87v8.5q0 .594.083.755.09.156.516.156 1.56 0 2.371-1.166t.81-3.881-.838-3.537q-.838-.827-2.66-.827zm25.411 14.552q-2.47 0-2.67-.794l-.939-3.67h-4.52l-.82 3.526q-.174.882-2.732.883-1.367 0-2.021-.156-.65-.156-.65-.244l5.03-19.244q0-.228 3.892-.227 3.898 0 3.898.227l4.92 19.272q0 .2-1.311.316-1.305.111-2.077.111zm-7.417-8.073h2.987l-1.283-5.885h-.166zm20.524 7.562q0 .567-2.815.567t-2.815-.567V55.088h-3.41q-.482 0-.682-1.31a10 10 0 0 1-.083-1.277q0-.655.083-1.277.199-1.31.683-1.31h12.364q.483 0 .683 1.31.084.622.084 1.277t-.084 1.277q-.199 1.31-.683 1.31h-3.325zm14.953-11.543q.538 0 .538 1.994 0 .594-.127 1.404t-.467.81h-3.609v2.844h5.23q.485 0 .65 1.249.09.544.089 1.155 0 .61-.172 1.577-.173.966-.566.966h-9.722q-1.083 0-1.083-.883V50.651q0-.738.655-.738h10.177q.594 0 .594 2.515t-.594 2.515h-5.258v2.87z" fill="#fff" stroke="#ff8e00" stroke-width="7.5" stroke-linejoin="round"/><path d="M23.133 50.479q0-.566 3.082-.566 3.087 0 3.087.566v13.048q0 2.903-2.076 4.736-2.072 1.832-5.725 1.832t-5.94-1.888q-2.288-1.893-2.288-5.102V50.512q0-.57 3.082-.571 3.087 0 3.087.571v12.82q0 .567.594.905.627.345 1.31.345a2.46 2.46 0 0 0 1.233-.311q.555-.317.555-.939zm11.03 19.388q-2.583 0-2.583-.566V50.878q0-.966.878-.966h5.002q4.209 0 6.069 1.738 1.865 1.731 1.865 5.03 0 2.726-1.765 5.002-.878 1.132-2.588 1.816-1.704.683-3.975.683v5.091q0 .339-1.066.466-1.065.128-1.838.128m2.903-15.007v4.491h.366q.995 0 1.677-.621.683-.628.683-1.766 0-1.139-.472-1.621-.466-.483-1.66-.483zM47.894 68.5V51.444q0-.71.355-1.121t.922-.411h4.747q4.525 0 6.868 2.276 2.343 2.27 2.343 7.162 0 10.46-8.922 10.46h-4.864q-1.45 0-1.45-1.31m5.458-13.186v8.5q0 .594.083.755.09.156.516.156 1.56 0 2.371-1.166t.81-3.881-.838-3.537q-.838-.827-2.66-.827zm25.411 14.552q-2.47 0-2.67-.794l-.939-3.67h-4.52l-.82 3.526q-.174.882-2.732.883-1.367 0-2.021-.156-.65-.156-.65-.244l5.03-19.244q0-.228 3.892-.227 3.898 0 3.898.227l4.92 19.272q0 .2-1.311.316-1.305.111-2.077.111m-7.417-8.073h2.987l-1.283-5.885h-.166zm20.524 7.562q0 .567-2.815.567t-2.815-.567V55.088h-3.41q-.482 0-.682-1.31a10 10 0 0 1-.083-1.277q0-.655.083-1.277.199-1.31.683-1.31h12.364q.483 0 .683 1.31.084.622.084 1.277t-.084 1.277q-.199 1.31-.683 1.31h-3.325zm14.953-11.543q.538 0 .538 1.994 0 .594-.127 1.404t-.467.81h-3.609v2.844h5.23q.485 0 .65 1.249.09.544.089 1.155 0 .61-.172 1.577-.173.966-.566.966h-9.722q-1.083 0-1.083-.883V50.65q0-.738.655-.738h10.177q.594 0 .594 2.515t-.594 2.515h-5.258v2.87z" fill="#fff"/></g></svg>
