<svg xmlns="http://www.w3.org/2000/svg" width="61.793" height="59.437" viewBox="0 0 61.793 59.437"><g stroke-linejoin="round"><path d="M44.09 32.094c.986 2.776 1.39 5.548 1.17 8.075-.178 2.054-.767 3.924-1.726 5.523-.468.78-4.966 1.281-6.444-.197l-9.742-9.742L9.44 53.661c-1.126 1.126-3.063 1.522-3.461 1.124-.416-.416-.303-2.252.68-3.235l18.243-18.243-11.434-11.432c-.884-.885 1-4.508 1.96-5.026 1.847-.999 4.02-1.516 6.421-1.516 2.163 0 4.416.413 6.712 1.23L41.692 4.792c1.786-1.6 5.745-2.202 7.65-.296l6.702 6.705c1.494 1.495 1.612 5.757.11 7.433z" fill="none" stroke="#fff" stroke-width="7.5"/><path d="M44.09 32.094c.986 2.776 1.39 5.548 1.17 8.075-.171 1.973-.721 3.777-1.615 5.334-.49.853-4.967 1.58-6.395.152l-9.902-9.902L9.44 53.661c-1.126 1.126-3.063 1.522-3.461 1.124-.416-.416-.11-2.444 1.015-3.57l17.908-17.908-11.434-11.432c-.884-.885 1.38-4.781 2.592-5.344 1.705-.79 3.657-1.198 5.79-1.198 2.162 0 4.415.413 6.71 1.23l13.009-11.66c1.825-1.636 6.088-2.093 7.438-.742l7.26 7.263c1.879 1.88 1.433 5.313-.263 7.206-2.852 3.181-11.915 13.464-11.915 13.464zM42.799 8.446l-9.179 8.226c-1.29 1.157-1.27 2.855-.041 4.084l6.064 6.066c1.033 1.033 3.047 1.65 4.041.54l8.457-9.435c1.191-1.329 1.54-4.197.11-5.628l-4.707-4.71c-.799-.799-3.441-.313-4.745.856zM40.62 32.694 27.961 20.031c-2.096-.81-4.203-1.239-6.113-1.239-1.012 0-1.964.118-2.842.349-.866.227-1.679 1.701-.539 2.841l19.552 19.551c1.236 1.236 3.218 1.096 3.445.311.743-2.579.473-5.767-.844-9.15z" stroke="#000" stroke-width="1.5"/><path d="m47.567 7.539 4.733 4.733c1.43 1.431 1.088 4.33-.103 5.658l-8.508 9.49c-.994 1.108-3.031.489-4.065-.545-1.188-1.188-4.09-4.093-6.098-6.1-1.228-1.229-1.251-2.95.039-4.107l9.233-8.278c1.304-1.169 3.97-1.65 4.77-.85" fill="#fff"/><path d="M40.676 32.705c1.317 3.383 1.572 6.6.829 9.178-.226.785-2.216.93-3.451-.305l-19.63-19.63c-1.14-1.14-.322-2.62.545-2.848a11.3 11.3 0 0 1 2.849-.354c1.91 0 4.038.42 6.134 1.23z" fill="#fff"/></g></svg>
