<svg xmlns="http://www.w3.org/2000/svg" width="32.354" height="31.192" viewBox="0 0 32.354 31.192"><defs><linearGradient x1="240.224" y1="170.302" x2="240.224" y2="193.096" gradientUnits="userSpaceOnUse" id="a"><stop offset="0" stop-color="red"/><stop offset="1" stop-color="#ff4a4a"/></linearGradient><linearGradient x1="240.224" y1="170.302" x2="240.224" y2="193.096" gradientUnits="userSpaceOnUse" id="b"><stop offset="0" stop-color="#ff5656"/><stop offset="1" stop-color="#820000"/></linearGradient></defs><g stroke-miterlimit="10"><path d="M11.997 28.692A9.497 9.497 0 0 1 2.5 19.195v-7.199a9.497 9.497 0 0 1 9.497-9.497h8.36a9.497 9.497 0 0 1 9.497 9.497v7.198a9.497 9.497 0 0 1-9.497 9.497z" fill="none" stroke="#fff" stroke-width="5"/><path d="M235.82025,193.09615c-5.24525,0 -9.49737,-4.25212 -9.49737,-9.49737v-7.19758c0,-5.24525 4.25212,-9.49737 9.49737,-9.49737h8.3595c5.24525,0 9.49737,4.25212 9.49737,9.49737v7.19758c0,5.24525 -4.25212,9.49737 -9.49737,9.49737z" fill="url(#a)" stroke="url(#b)" stroke-width="2.5" transform="translate(-223.823 -164.404)"/><path d="M8.097 10.676a1.424 1.424 0 0 1 0-2.013l.957-.956a1.424 1.424 0 0 1 2.014 0l13.189 13.189a1.424 1.424 0 0 1 0 2.013l-.957.957a1.424 1.424 0 0 1-2.013 0z" fill="#fff"/><path d="M11.067 23.866a1.424 1.424 0 0 1-2.013 0l-.957-.957a1.424 1.424 0 0 1 0-2.013l13.19-13.19a1.424 1.424 0 0 1 2.013 0l.957.957a1.424 1.424 0 0 1 0 2.014z" fill="#fff"/></g></svg>
