<svg xmlns="http://www.w3.org/2000/svg" width="99" height="38.192" viewBox="0 0 99 38.192"><defs><linearGradient x1="240" y1="163.904" x2="240" y2="196.096" gradientUnits="userSpaceOnUse" id="a"><stop offset="0" stop-color="#00b8ff"/><stop offset="1" stop-color="#007dff"/></linearGradient><linearGradient x1="240" y1="163.904" x2="240" y2="196.096" gradientUnits="userSpaceOnUse" id="b"><stop offset="0" stop-color="#0079ff"/><stop offset="1" stop-color="#0035ff"/></linearGradient></defs><g stroke-miterlimit="10"><path d="M16.413 35.192C9.005 35.192 3 29.187 3 21.779v-5.366C3 9.005 9.005 3 16.413 3h66.174C89.995 3 96 9.005 96 16.413v5.366c0 7.408-6.005 13.413-13.413 13.413z" fill="none" stroke="#fff" stroke-width="6"/><path d="M206.913 196.096c-7.408 0-13.413-6.005-13.413-13.413v-5.366c0-7.408 6.005-13.413 13.413-13.413h66.174c7.408 0 13.413 6.005 13.413 13.413v5.366c0 7.408-6.005 13.413-13.413 13.413z" fill="url(#a)" stroke="url(#b)" stroke-width="3" transform="translate(-190.5 -160.904)"/><text transform="matrix(.5 0 0 .5 15.46 25.365)" text-anchor="center" font-size="40" xml:space="preserve" fill="#fff" stroke="#fff" font-family="sans-serif">Submit</text></g></svg>
