<svg xmlns="http://www.w3.org/2000/svg" width="338.5" height="154.5" viewBox="0 0 338.5 154.5"><defs><linearGradient x1="240" y1="110.5" x2="240" y2="249.5" gradientUnits="userSpaceOnUse" id="a"><stop offset="0" stop-color="#00a5ff"/><stop offset="1" stop-color="#0073ff"/></linearGradient><linearGradient x1="240" y1="161.5" x2="240" y2="188.5" gradientUnits="userSpaceOnUse" id="b"><stop offset="0" stop-color="#00a5ff"/><stop offset="1" stop-color="#0073ff"/></linearGradient></defs><g stroke-miterlimit="10"><path d="M18 154.5c-8.284 0-18-8.216-18-16.5V16.5C0 8.216 9.716 0 18 0h302.5c8.284 0 18 8.216 18 16.5V138c0 8.284-9.716 16.5-18 16.5z" fill="#fff"/><path d="M23.25 146.75c-8.284 0-15-6.716-15-15v-109c0-8.284 6.716-15 15-15h292c8.284 0 15 6.716 15 15v109c0 8.284-6.716 15-15 15z" fill="#0c152b"/><path d="M10.75 17.75h317m-317 10.764h317m-317 11.362h317m-317 10.764h317m-317 10.165h317m-317 10.765h317m-317 11.36h317m-317 10.765h317m0 10.165h-317m317 10.764h-317m0 11.362h317m0 10.764h-317" fill="none" stroke-opacity=".184" stroke="#00a6ff" stroke-width="3" stroke-linecap="round"/><path d="M94 249.5c-8.284 0-15-6.716-15-15v-109c0-8.284 6.716-15 15-15h292c8.284 0 15 6.716 15 15v109c0 8.284-6.716 15-15 15z" fill="none" stroke="url(#a)" stroke-width="6" transform="translate(-70.75 -102.75)"/><path d="M43.5 85.75c-8.284 0-15-6.044-15-13.5s6.716-13.5 15-13.5H295c8.284 0 15 6.044 15 13.5s-6.716 13.5-15 13.5z" fill="none" stroke="#fff" stroke-width="6"/><path d="M114.25 188.5c-8.284 0-15-6.044-15-13.5s6.716-13.5 15-13.5h251.5c8.284 0 15 6.044 15 13.5s-6.716 13.5-15 13.5z" fill="none" stroke="url(#b)" stroke-width="3" transform="translate(-70.75 -102.75)"/></g></svg>
