<svg viewBox="0 0 113.422 88.288" height="88.288" width="113.422" xmlns="http://www.w3.org/2000/svg"><defs><radialGradient id="c" gradientUnits="userSpaceOnUse" r="35.636" cy="180.305" cx="213.661"><stop stop-color="#0098ff" offset="0"/><stop stop-opacity="0" stop-color="#0098ff" offset="1"/></radialGradient><radialGradient id="d" gradientUnits="userSpaceOnUse" r="35.894" cy="180.047" cx="266.425"><stop stop-color="#0098ff" offset="0"/><stop stop-opacity="0" stop-color="#0098ff" offset="1"/></radialGradient><linearGradient id="a" gradientUnits="userSpaceOnUse" y2="215.941" x2="213.661" y1="144.67" x1="213.661"><stop stop-color="#00f9ff" offset="0"/><stop stop-color="#000eff" offset="1"/></linearGradient><linearGradient id="b" gradientUnits="userSpaceOnUse" y2="215.941" x2="266.425" y1="144.153" x1="266.425"><stop stop-color="#00f9ff" offset="0"/><stop stop-color="#000eff" offset="1"/></linearGradient></defs><path d="M52.493 16.858c0 4.467-3.7 8.09-8.263 8.09h-17.3c-.57.165-1.364.465-1.77.94-.675.79-.728 2.588-.728 2.588v5.288c.142.542.415 1.346.868 1.765.723.666 2.369.782 2.369.782h16.56c4.564 0 8.264 3.622 8.264 8.091l-.001.132.001.138v27.062c0 4.259-3.156 7.767-7.21 8.216q-.601.087-1.225.088H16.513c-4.564 0-8.263-3.624-8.263-8.091 0-4.47 3.7-8.092 8.263-8.092h16.406s1.55-.337 2.247-.964c.566-.508 1.002-1.599 1.145-1.99v-5.73c-.135-.405-.528-1.474-1.069-1.957-.676-.604-2.064-.72-2.064-.72H16.686a9 9 0 0 1-1.226-.089c-4.055-.449-7.21-3.957-7.21-8.215V17.128c0-3.565 2.21-6.601 5.306-7.761a8.4 8.4 0 0 1 3.13-.6H44.23c4.563 0 8.263 3.622 8.263 8.09zm16.699 63.18c-4.469 0-8.091-3.7-8.091-8.264V16.686l.001-.175-.001-.17c0-4.469 3.7-8.091 8.263-8.091h27.545c4.562 0 8.263 3.622 8.263 8.091l-.001.17.001.174V44.23l-.001.175.001.17c0 4.467-3.7 8.09-8.263 8.09H77.283v19.11c0 4.562-3.623 8.263-8.09 8.263zM88.99 34.486v-7.758a7.26 7.26 0 0 0-2.461-2.296H79.63a7.3 7.3 0 0 0-2.347 2.13v8.09a7.3 7.3 0 0 0 1.866 1.831h7.86a7.3 7.3 0 0 0 1.98-1.997z" stroke-width="16.5" stroke="#fff" fill="#fff"/><path d="M52.493 16.983c0 4.467-3.7 7.966-8.263 7.966h-17.3c-.57.164-1.364.464-1.77.94-.675.788-.728 2.587-.728 2.587v5.288c.142.542.415 1.346.868 1.765.723.666 2.369.782 2.369.782h16.56c4.564 0 8.264 3.622 8.264 8.091l-.001.132.001.138v27.062c0 4.259-3.156 7.767-7.21 8.216q-.601.087-1.225.088H16.513c-4.564 0-8.263-3.624-8.263-8.091 0-4.47 3.7-8.092 8.263-8.092h16.406s1.55-.337 2.247-.964c.566-.508 1.002-1.599 1.145-1.99v-5.73c-.135-.405-.528-1.474-1.069-1.957-.676-.604-2.064-.72-2.064-.72H16.686a9 9 0 0 1-1.226-.089c-4.055-.449-7.21-3.957-7.21-8.215V17.128c0-3.565 2.21-6.601 5.306-7.761a8.4 8.4 0 0 1 3.13-.6H44.23c4.563 0 8.263 3.622 8.263 8.09zm16.699 63.055c-4.469 0-8.091-3.7-8.091-8.264V16.686l.001-.175-.001-.17c0-4.469 3.7-8.091 8.263-8.091h27.545c4.562 0 8.263 3.622 8.263 8.091l-.001.17.001.174V44.23l-.001.175.001.17c0 4.467-3.7 8.09-8.263 8.09H77.283v19.11c0 4.562-3.623 8.263-8.09 8.263zM88.99 34.486v-7.758a7.26 7.26 0 0 0-2.461-2.296H79.63a7.3 7.3 0 0 0-2.347 2.13v8.09a7.3 7.3 0 0 0 1.866 1.831h7.86a7.3 7.3 0 0 0 1.98-1.997z" stroke-width="9" stroke="#000"/><path fill="url(#a)" d="M235.782 152.761c0 4.468-3.7 8.091-8.263 8.091h-17.3c-.57.164-1.364.464-1.77.94-.675.789-.728 2.587-.728 2.587v5.289c.142.541.415 1.345.868 1.764.723.667 2.369.782 2.369.782h16.56c4.564 0 8.264 3.622 8.264 8.091l-.001.133.001.137v27.063c0 4.258-3.156 7.766-7.21 8.215q-.601.088-1.225.088h-27.545c-4.564 0-8.263-3.623-8.263-8.091 0-4.47 3.7-8.091 8.263-8.091h16.406s1.55-.338 2.247-.964c.566-.509 1.002-1.6 1.145-1.99v-5.73c-.135-.406-.528-1.475-1.069-1.958-.676-.603-2.064-.72-2.064-.72h-16.492a9 9 0 0 1-1.226-.089c-4.055-.449-7.21-3.956-7.21-8.215v-27.062c0-3.564 2.21-6.601 5.306-7.76a8.4 8.4 0 0 1 3.13-.601h27.544c4.563 0 8.263 3.622 8.263 8.091" transform="translate(-183.289 -135.559)"/><path fill="url(#b)" d="M252.481 215.941c-4.469 0-8.091-3.7-8.091-8.263v-55.09l.001-.174-.001-.17c0-4.469 3.7-8.09 8.263-8.09h27.545c4.562 0 8.263 3.621 8.263 8.09l-.001.17.001.175v27.544l-.001.175.001.17c0 4.467-3.7 8.09-8.263 8.09h-19.626v19.11c0 4.562-3.623 8.263-8.09 8.263m19.798-45.552v-7.758a7.26 7.26 0 0 0-2.461-2.295h-6.899a7.3 7.3 0 0 0-2.347 2.129v8.091a7.3 7.3 0 0 0 1.866 1.83h7.86a7.3 7.3 0 0 0 1.98-1.997" transform="translate(-183.289 -135.559)"/><path fill="url(#c)" d="M235.782 152.761c0 4.468-3.7 8.091-8.263 8.091h-17.3c-.57.164-1.364.464-1.77.94-.675.789-.728 2.587-.728 2.587v5.289c.142.541.415 1.345.868 1.764.723.667 2.369.782 2.369.782h16.56c4.564 0 8.264 3.622 8.264 8.091l-.001.133.001.137v27.063c0 4.258-3.156 7.766-7.21 8.215q-.601.088-1.225.088h-27.545c-4.564 0-8.263-3.623-8.263-8.091 0-4.47 3.7-8.091 8.263-8.091h16.406s1.55-.338 2.247-.964c.566-.509 1.002-1.6 1.145-1.99v-5.73c-.135-.406-.528-1.475-1.069-1.958-.676-.603-2.064-.72-2.064-.72h-16.492a9 9 0 0 1-1.226-.089c-4.055-.449-7.21-3.956-7.21-8.215v-27.062c0-3.564 2.21-6.601 5.306-7.76a8.4 8.4 0 0 1 3.13-.601h27.544c4.563 0 8.263 3.622 8.263 8.091" transform="translate(-183.289 -135.559)"/><path fill="url(#d)" d="M252.481 215.941c-4.469 0-8.091-3.7-8.091-8.263v-55.09l.001-.174-.001-.17c0-4.469 3.7-8.09 8.263-8.09h27.545c4.562 0 8.263 3.621 8.263 8.09l-.001.17.001.175v27.544l-.001.175.001.17c0 4.467-3.7 8.09-8.263 8.09h-19.626v19.11c0 4.562-3.623 8.263-8.09 8.263m19.798-45.552v-7.758a7.26 7.26 0 0 0-2.461-2.295h-6.899a7.3 7.3 0 0 0-2.347 2.129v8.091a7.3 7.3 0 0 0 1.866 1.83h7.86a7.3 7.3 0 0 0 1.98-1.997" transform="translate(-183.289 -135.559)"/></svg>
