<svg xmlns="http://www.w3.org/2000/svg" width="141.75" height="141.75" viewBox="0 0 141.75 141.75"><g stroke-miterlimit="10"><path d="M10 70.875C10 37.255 37.255 10 70.875 10s60.875 27.255 60.875 60.875-27.255 60.875-60.875 60.875S10 104.495 10 70.875z" fill="none" stroke="#007dff" stroke-width="20"/><path d="M10 70.875C10 37.255 37.255 10 70.875 10s60.875 27.255 60.875 60.875-27.255 60.875-60.875 60.875S10 104.495 10 70.875" fill="#00b8ff"/><g fill="#fff"><path d="m79.29 48.203 3.365 49.734a7.075 7.075 0 0 1-6.574 7.528l-42.316 2.863a7.075 7.075 0 0 1-7.528-6.574L22.872 52.02a7.075 7.075 0 0 1 6.574-7.527l6.163-.417c1.38-1.041 2.906-1.836 4.326-2.432a12 12 0 0 1 2.844-4.856c1.924-1.982 4.471-3.175 7.173-3.358 2.702-.182 5.387.656 7.56 2.362a12 12 0 0 1 3.473 4.428c1.487.399 3.106.98 4.614 1.827l6.163-.417c3.888-.263 7.265 2.685 7.528 6.573m-35.904-2.299c-2.473.834-4.46 1.966-5.688 3.25a6 6 0 0 0-.525.617c-.764 1.032.022 2.485 1.304 2.399l25.37-1.717c1.282-.086 1.866-1.633.97-2.553a6 6 0 0 0-.604-.54c-1.39-1.106-3.51-1.96-6.074-2.454a1.87 1.87 0 0 1-1.467-1.349q-.12-.457-.297-.886c-1.033-2.53-3.417-4.225-6.071-4.045s-4.789 2.18-5.47 4.826a7 7 0 0 0-.176.918 1.87 1.87 0 0 1-1.272 1.534M77.46 98.289l-3.365-49.734a1.86 1.86 0 0 0-1.981-1.73l-1.962.132q.12.38.192.775a6.7 6.7 0 0 1-.333 3.621 6.68 6.68 0 0 1-5.811 4.295l-25.372 1.717a6.68 6.68 0 0 1-6.337-3.473 6.72 6.72 0 0 1-.732-4.337l-1.962.133a1.86 1.86 0 0 0-1.73 1.98l3.366 49.735a1.86 1.86 0 0 0 1.98 1.73l42.317-2.863a1.86 1.86 0 0 0 1.73-1.981"/><path d="m76.085 105.525-42.316 2.864c-3.921.265-7.327-2.71-7.592-6.63l-3.365-49.735a7.135 7.135 0 0 1 6.63-7.592l6.145-.416c1.216-.915 2.662-1.728 4.298-2.417a12.1 12.1 0 0 1 2.85-4.853c1.935-1.993 4.496-3.192 7.213-3.376s5.417.66 7.602 2.374a12.1 12.1 0 0 1 3.478 4.425c1.714.462 3.257 1.073 4.585 1.816l6.145-.416a7.135 7.135 0 0 1 7.593 6.63l3.364 49.734c.266 3.921-2.708 7.327-6.63 7.592M29.45 44.553a7.014 7.014 0 0 0-6.517 7.463l3.365 49.734a7.014 7.014 0 0 0 7.463 6.517l42.316-2.863a7.014 7.014 0 0 0 6.517-7.463l-3.365-49.734a7.014 7.014 0 0 0-7.463-6.517l-6.181.418-.016-.008c-1.33-.747-2.877-1.36-4.6-1.821l-.027-.008-.012-.026a12 12 0 0 0-3.455-4.406c-2.161-1.696-4.832-2.53-7.519-2.348-2.686.182-5.22 1.368-7.133 3.34a12 12 0 0 0-2.83 4.83l-.008.028-.027.011c-1.644.69-3.094 1.506-4.312 2.424l-.015.011zm46.284 55.777-42.316 2.864a1.923 1.923 0 0 1-2.046-1.787l-3.365-49.734a1.923 1.923 0 0 1 1.786-2.046l2.039-.138-.013.076a6.66 6.66 0 0 0 .726 4.297 6.62 6.62 0 0 0 6.28 3.442l25.37-1.716a6.62 6.62 0 0 0 5.76-4.257 6.66 6.66 0 0 0 .14-4.356l-.023-.073 2.038-.138a1.923 1.923 0 0 1 2.046 1.786l3.365 49.735a1.923 1.923 0 0 1-1.787 2.045M29.802 49.748a1.8 1.8 0 0 0-1.674 1.917l3.365 49.734a1.8 1.8 0 0 0 1.916 1.673l42.317-2.863a1.8 1.8 0 0 0 1.673-1.916l-3.365-49.734a1.8 1.8 0 0 0-1.916-1.674l-1.885.128q.106.354.171.708a6.8 6.8 0 0 1-.336 3.654 6.74 6.74 0 0 1-5.864 4.334l-25.372 1.716a6.74 6.74 0 0 1-6.394-3.504 6.78 6.78 0 0 1-.751-4.3zm34.05.766L38.481 52.23a1.54 1.54 0 0 1-1.474-.807 1.56 1.56 0 0 1 .117-1.688 7 7 0 0 1 .53-.624c1.239-1.293 3.214-2.422 5.713-3.264a1.82 1.82 0 0 0 1.231-1.484c.038-.308.098-.62.177-.926.706-2.738 2.926-4.696 5.525-4.872s5.063 1.465 6.131 4.083c.12.294.22.595.3.894a1.82 1.82 0 0 0 1.42 1.304c2.589.499 4.698 1.351 6.1 2.466q.337.268.609.546c.433.444.565 1.08.344 1.657-.22.575-.738.957-1.352.999M50.308 38.686c-2.547.172-4.723 2.094-5.416 4.78a7 7 0 0 0-.173.912 1.94 1.94 0 0 1-1.313 1.584c-2.48.836-4.439 1.954-5.664 3.233q-.294.306-.52.612a1.44 1.44 0 0 0-.109 1.558c.272.497.793.782 1.36.744l25.37-1.717a1.42 1.42 0 0 0 1.247-.92 1.44 1.44 0 0 0-.317-1.53 6 6 0 0 0-.597-.535c-1.387-1.103-3.478-1.947-6.048-2.441a1.94 1.94 0 0 1-1.515-1.393 7 7 0 0 0-.295-.88c-1.048-2.569-3.464-4.18-6.01-4.007"/><path d="M48.045 44.175a2.628 2.628 0 1 1 5.244-.354 2.628 2.628 0 0 1-5.244.354"/><path d="M50.849 46.681a2.692 2.692 0 0 1-2.752-3.472 2.7 2.7 0 0 1 2.389-1.893 2.705 2.705 0 0 1 2.622 1.554q.208.452.242.947a2.69 2.69 0 0 1-2.501 2.864m-.355-5.244a2.58 2.58 0 0 0-2.281 1.808 2.57 2.57 0 0 0 2.628 3.315 2.57 2.57 0 0 0 2.157-3.639 2.58 2.58 0 0 0-2.504-1.484M35.429 65.633a2.603 2.603 0 0 1 2.422-2.774l13.21-.893a2.604 2.604 0 0 1 .352 5.195l-13.21.894a2.603 2.603 0 0 1-2.774-2.422"/><path d="m51.417 67.221-13.21.894a2.667 2.667 0 0 1-2.839-2.478 2.667 2.667 0 0 1 2.478-2.838l13.21-.894a2.667 2.667 0 0 1 2.839 2.478 2.667 2.667 0 0 1-2.478 2.838m-13.562-4.3a2.546 2.546 0 0 0-2.366 2.708 2.546 2.546 0 0 0 2.709 2.365l13.21-.894a2.546 2.546 0 0 0 2.366-2.708 2.546 2.546 0 0 0-2.709-2.366zm31.774 14.471a2.603 2.603 0 0 1-2.421 2.773L39.15 82.063a2.603 2.603 0 1 1-.352-5.195l28.058-1.898a2.603 2.603 0 0 1 2.773 2.422"/><path d="m67.212 80.225-28.058 1.899a2.667 2.667 0 0 1-2.838-2.478 2.667 2.667 0 0 1 2.478-2.838l28.058-1.899a2.667 2.667 0 0 1 2.838 2.479 2.667 2.667 0 0 1-2.478 2.838m-28.41-3.296a2.546 2.546 0 0 0-2.365 2.708 2.546 2.546 0 0 0 2.709 2.366l28.057-1.899a2.546 2.546 0 0 0 2.366-2.708 2.546 2.546 0 0 0-2.709-2.365zM62.553 92a2.603 2.603 0 0 1-2.422 2.773l-20.03 1.356a2.604 2.604 0 1 1-.351-5.196l20.03-1.355A2.603 2.603 0 0 1 62.553 92"/><path d="m60.135 94.834-20.03 1.355a2.667 2.667 0 0 1-2.837-2.478 2.667 2.667 0 0 1 2.478-2.838l20.03-1.355a2.667 2.667 0 0 1 2.837 2.478 2.667 2.667 0 0 1-2.478 2.838m-20.38-3.84a2.546 2.546 0 0 0-2.366 2.709 2.546 2.546 0 0 0 2.708 2.365l20.03-1.355a2.546 2.546 0 0 0 2.365-2.709 2.546 2.546 0 0 0-2.708-2.365z"/></g><g fill="#fff" stroke="#fff"><path d="m110.662 75.075-4.708 3.474c-.015.012-.033.017-.049.028a2 2 0 0 1-.175.102q-.053.028-.106.053a2 2 0 0 1-.202.064q-.05.015-.103.027a2 2 0 0 1-.238.022c-.027 0-.055.005-.082.004a1.5 1.5 0 0 1-.635-.153c-.026-.012-.047-.029-.072-.042a1.5 1.5 0 0 1-.202-.127q-.04-.035-.078-.072a2 2 0 0 1-.15-.15q-.038-.046-.071-.094a1.4 1.4 0 0 1-.11-.17q-.017-.025-.031-.049l-2.604-5.239a1.548 1.548 0 1 1 2.772-1.377l.71 1.431 4.495-18.613a1.548 1.548 0 1 1 3.01.726l-4.495 18.613 1.286-.949a1.55 1.55 0 0 1 1.838 2.491z"/><path d="M91.678 86.101a3.014 3.014 0 0 1-2.22-3.632l5.126-21.23a3.014 3.014 0 0 1 3.633-2.218l5.454 1.317a1.548 1.548 0 0 1-.727 3.01l-5.371-1.298-5.086 21.063 21.063 5.086 5.086-21.063-5.25-1.268a1.548 1.548 0 0 1 .727-3.01l5.332 1.288a3.014 3.014 0 0 1 2.22 3.632l-5.126 21.23a3.013 3.013 0 0 1-3.632 2.22z"/></g></g></svg>
