<svg xmlns="http://www.w3.org/2000/svg" width="141.75" height="141.75" viewBox="0 0 141.75 141.75"><g stroke-miterlimit="10"><path d="M10 70.875C10 37.255 37.255 10 70.875 10s60.875 27.255 60.875 60.875-27.255 60.875-60.875 60.875S10 104.495 10 70.875z" fill="none" stroke="#007dff" stroke-width="20"/><path d="M10 70.875C10 37.255 37.255 10 70.875 10s60.875 27.255 60.875 60.875-27.255 60.875-60.875 60.875S10 104.495 10 70.875" fill="#00b8ff"/><g fill="#fff" stroke="#fff"><path d="m120.59 66.005-5.544 21.884a3.204 3.204 0 0 1-3.889 2.316l-18.62-4.718a3.204 3.204 0 0 1-2.316-3.888l5.544-21.884a3.204 3.204 0 0 1 3.889-2.316l2.712.687a9.2 9.2 0 0 1 2.204-.439 5.44 5.44 0 0 1 1.907-1.69 5 5 0 0 1 3.56-.437 5 5 0 0 1 2.923 2.08c.474.708.773 1.534.872 2.394.584.38 1.2.859 1.73 1.435l2.712.687a3.204 3.204 0 0 1 2.316 3.889zm-15.133-6.039c-1.182.012-2.197.22-2.906.6q-.168.09-.313.191a.68.68 0 0 0 .224 1.217l11.164 2.828a.68.68 0 0 0 .776-.963 3 3 0 0 0-.184-.318c-.443-.671-1.236-1.337-2.27-1.91a.85.85 0 0 1-.442-.787 3 3 0 0 0-.003-.423c-.089-1.234-.877-2.3-2.045-2.595s-2.368.265-3.033 1.308a3 3 0 0 0-.205.37.85.85 0 0 1-.763.482zm7.303 27.344 5.544-21.885a.84.84 0 0 0-.61-1.023l-.862-.218a3.04 3.04 0 0 1-2.02 2.823 3.03 3.03 0 0 1-1.765.081l-11.164-2.829a3.03 3.03 0 0 1-2.24-2.386 3.04 3.04 0 0 1 .295-1.97l-.863-.218a.84.84 0 0 0-1.024.61l-5.544 21.883a.84.84 0 0 0 .61 1.023l18.62 4.718a.84.84 0 0 0 1.023-.61z"/><path d="m111.15 90.232-18.62-4.718a3.23 3.23 0 0 1-2.336-3.922l5.545-21.884a3.23 3.23 0 0 1 3.921-2.336l2.705.685a9 9 0 0 1 2.19-.436 5.5 5.5 0 0 1 1.91-1.689 5.03 5.03 0 0 1 3.58-.439 5.03 5.03 0 0 1 2.938 2.091c.47.703.773 1.53.875 2.394.673.44 1.251.92 1.718 1.427l2.705.685a3.23 3.23 0 0 1 2.336 3.922l-5.545 21.884a3.23 3.23 0 0 1-3.922 2.336zM99.647 57.425a3.176 3.176 0 0 0-3.855 2.297l-5.545 21.884a3.176 3.176 0 0 0 2.297 3.855l18.62 4.717c1.696.43 3.425-.6 3.855-2.296l5.544-21.884a3.176 3.176 0 0 0-2.296-3.855l-2.72-.69-.005-.005a9 9 0 0 0-1.725-1.43l-.01-.008-.002-.013a5.4 5.4 0 0 0-.868-2.382 4.97 4.97 0 0 0-2.906-2.069 4.97 4.97 0 0 0-3.541.435c-.744.392-1.4.974-1.898 1.682l-.007.01-.013.002a9 9 0 0 0-2.197.437l-.008.002zm12.083 30.52-18.62-4.717a.87.87 0 0 1-.63-1.057l5.545-21.884a.87.87 0 0 1 1.056-.63l.897.228-.016.031a3.016 3.016 0 0 0 1.928 4.317l11.164 2.828a3 3 0 0 0 3.077-1.022 3 3 0 0 0 .673-1.856v-.035l.898.228a.87.87 0 0 1 .629 1.056l-5.545 21.884a.87.87 0 0 1-1.056.63zM99.068 59.711a.816.816 0 0 0-.99.59l-5.545 21.884c-.11.435.155.88.59.99l18.62 4.717c.436.11.88-.154.99-.59l5.545-21.883a.816.816 0 0 0-.59-.99l-.83-.21a3.07 3.07 0 0 1-3.818 2.896l-11.164-2.829a3.05 3.05 0 0 1-2.26-2.408 3.07 3.07 0 0 1 .281-1.957zm14.551 5.118L102.455 62a.7.7 0 0 1-.52-.555.7.7 0 0 1 .287-.71q.144-.102.316-.194c.715-.382 1.724-.59 2.918-.602a.83.83 0 0 0 .74-.466q.089-.19.205-.374c.69-1.08 1.92-1.61 3.064-1.32s1.974 1.343 2.065 2.62q.016.216.004.427a.82.82 0 0 0 .428.761c1.044.579 1.833 1.242 2.28 1.92q.106.161.184.32a.7.7 0 0 1-.084.762.7.7 0 0 1-.723.24zm-4.168-6.997c-1.12-.284-2.327.238-3.003 1.297q-.114.18-.203.368a.88.88 0 0 1-.788.497c-1.185.011-2.186.217-2.893.596q-.168.09-.31.19a.65.65 0 0 0-.266.655.65.65 0 0 0 .48.512l11.165 2.828a.65.65 0 0 0 .666-.22.65.65 0 0 0 .078-.704 3 3 0 0 0-.182-.314c-.442-.67-1.223-1.327-2.26-1.902a.88.88 0 0 1-.456-.812 3 3 0 0 0-.003-.42c-.09-1.254-.904-2.287-2.024-2.57z"/><path d="M107.705 59.877a1.187 1.187 0 0 1 1.447-.861 1.19 1.19 0 1 1-1.446.861z"/><path d="M108.56 61.35a1.22 1.22 0 0 1-.696-1.881c.288-.41.809-.603 1.294-.48a1.225 1.225 0 0 1 .882 1.48 1.22 1.22 0 0 1-1.48.881zm.585-2.307a1.17 1.17 0 0 0-1.413.841 1.164 1.164 0 1 0 2.282.15 1.17 1.17 0 0 0-.87-.991zm-9.888 8.298a1.18 1.18 0 0 1 1.432-.854l5.813 1.473a1.18 1.18 0 0 1-.579 2.286l-5.813-1.473a1.18 1.18 0 0 1-.853-1.432z"/><path d="m105.916 70.273-5.813-1.473a1.21 1.21 0 0 1-.873-1.466 1.21 1.21 0 0 1 1.466-.873l5.813 1.473c.645.163 1.037.82.873 1.466a1.21 1.21 0 0 1-1.466.873zm-5.233-3.759a1.153 1.153 0 0 0-1.4.834 1.153 1.153 0 0 0 .834 1.399l5.813 1.472a1.153 1.153 0 0 0 1.399-.833 1.153 1.153 0 0 0-.833-1.4zm11.644 10.698a1.18 1.18 0 0 1-1.433.854l-12.346-3.128a1.18 1.18 0 1 1 .58-2.286l12.346 3.128a1.18 1.18 0 0 1 .853 1.432z"/><path d="m110.888 78.092-12.346-3.128a1.21 1.21 0 0 1-.874-1.466 1.21 1.21 0 0 1 1.466-.873l12.346 3.128c.645.163 1.037.821.874 1.466a1.21 1.21 0 0 1-1.466.873zm-11.767-5.414a1.153 1.153 0 0 0-1.4.834 1.153 1.153 0 0 0 .834 1.399l12.346 3.128a1.153 1.153 0 0 0 1.4-.834 1.153 1.153 0 0 0-.834-1.399zm8.105 9.828a1.18 1.18 0 0 1-1.432.853l-8.814-2.233a1.18 1.18 0 1 1 .58-2.285l8.813 2.233a1.18 1.18 0 0 1 .853 1.432z"/><path d="m105.787 83.386-8.813-2.233a1.21 1.21 0 0 1-.874-1.466 1.21 1.21 0 0 1 1.466-.873l8.814 2.233c.645.163 1.036.82.873 1.466a1.21 1.21 0 0 1-1.466.873zm-8.234-4.519a1.153 1.153 0 0 0-1.4.834 1.153 1.153 0 0 0 .834 1.399l8.814 2.233a1.153 1.153 0 0 0 1.399-.834 1.153 1.153 0 0 0-.834-1.399z"/></g><g fill="#fff"><path d="m64.856 72.492-7.025 10.08c-.023.033-.054.057-.079.09q-.13.169-.28.32-.085.091-.176.175a3 3 0 0 1-.358.264c-.062.041-.12.086-.185.124a3 3 0 0 1-.46.202c-.054.02-.105.047-.16.065a3.2 3.2 0 0 1-.677.137 3.3 3.3 0 0 1-.69-.014c-.059-.008-.113-.026-.17-.035a3 3 0 0 1-.488-.118c-.07-.026-.136-.06-.204-.09a3 3 0 0 1-.4-.195q-.104-.066-.204-.141a3 3 0 0 1-.334-.266c-.03-.027-.065-.046-.094-.074l-8.707-8.668a3.251 3.251 0 1 1 4.586-4.606l2.378 2.367-3.592-40.051a3.25 3.25 0 1 1 6.474-.581l3.592 40.05 1.92-2.753a3.251 3.251 0 0 1 5.334 3.718"/><path d="m80.197 103.11-45.679 4.097a6.33 6.33 0 0 1-6.861-5.73l-4.098-45.68a6.33 6.33 0 0 1 5.733-6.86l11.735-1.053a3.25 3.25 0 0 1 .58 6.475L30.05 55.396l4.065 45.321 45.323-4.065-4.066-45.323-11.296 1.014a3.251 3.251 0 0 1-.58-6.476l11.473-1.03a6.33 6.33 0 0 1 6.861 5.731l4.098 45.682a6.326 6.326 0 0 1-5.73 6.86"/></g></g></svg>
