<svg xmlns="http://www.w3.org/2000/svg" width="122.446" height="120.037" viewBox="0 0 122.446 120.037"><g stroke-miterlimit="10"><path d="m87.513 15.877 17.192 2.247a4.43 4.43 0 0 1 3.842 4.428l-.097 17.182 12.577 11.92a4.43 4.43 0 0 1 .544 5.893l-10.248 13.831 3.178 17.043a4.44 4.44 0 0 1-3.345 5.13l-16.098 5.106-7.436 15.699a4.41 4.41 0 0 1-5.532 2.24l-16.18-5.383-15.247 8.282a4.44 4.44 0 0 1-5.84-1.475l-9.926-13.899-17.186-2.255a4.43 4.43 0 0 1-3.877-4.39l.118-17.217L1.389 68.336a4.42 4.42 0 0 1-.535-5.83l10.217-13.861-3.178-17.043a4.43 4.43 0 0 1 3.345-5.13l16.095-5.12 7.468-15.656a4.42 4.42 0 0 1 5.537-2.248l16.18 5.382L71.756.543A4.42 4.42 0 0 1 77.6 2.032z" fill="#005fff"/><path d="m85.026 19.998 19.101 2.502-.129 19.145 13.98 13.257-11.36 15.404 3.51 18.943-18.239 5.783-8.285 17.393-18.17-6.047-16.926 9.2-11.133-15.564-19.11-2.507.138-19.14L4.423 65.11l11.36-15.404-3.515-18.934 18.244-5.791 8.285-17.393 18.162 6.042 16.926-9.201z" fill="#0080ff" fill-rule="evenodd"/><path d="m85.14 20.22 19.1 2.502-.128 19.145L65.547 106.6l-16.926 9.2-11.132-15.564zm-28.305-6.45 17.27-9.488L18.211 78.64 4.233 65.382l11.36-15.404L39.018 7.902z" fill="#0098ff" fill-rule="evenodd"/><path d="M34.119 58.05c-.171-.573-1.853 8.077-1.853 8.077l-4.275-.677c-1.1-.174-2.895-1.476-2.67-3.028.679-4.648 2.091-14.296 2.562-17.183.265-1.628 1.976-3.055 3.057-2.882 1.198.192 4.619.796 4.619.796l4.276 9.012c.173.59 1.833-8.033 1.833-8.033l7.315 1.16-3.681 22.8-6.87-1.11zm30.784 4.44-7.323-1.164-.45 2.776 8.924 1.435-.946 5.848-16.18-2.61 3.693-22.849 16.04 2.59-1.857 5.695-7.862-1.267-.493 3.063 7.315 1.16-.849 5.296zm27.624-10.111 4.6.746c1.115.18 2.578 1.877 2.15 3.188l-5.55 16.978c-.512 1.567-2.151 2.364-3.127 2.207l-7.25-1.172-.36-8.667-.437-.069-3.01 8.143-9.501-1.546.113-23.425 7.64 1.242-.345 13.029.218.034 4.698-12.328 5.59.905.533 13.157.203.092z" fill="none" stroke="#005fff" stroke-width="9"/><path d="M38.282 67.011s-4.482-10.19-4.376-10.78l-.133-.059-1.288 7.872c-.147.899-1.173 1.9-2.215 1.734l-3.52-.558c-.8-.127-1.818-.886-1.66-1.859l3.116-19.125c.183-1.12 1.325-2.08 2.036-1.967l5.203.832s4.48 10.225 4.364 10.828l.124.056 1.264-7.725c.156-.949 1.29-2.032 2.388-1.857l3 .475c.91.144 2.118 1.392 1.947 2.447l-3.04 18.832c-.189 1.168-1.674 1.662-2.558 1.52l-4.617-.745zm26.621-4.521-7.323-1.164-.45 2.776 6.672 1.073c.95.153 1.672 1.482 1.523 2.9-.15 1.42-1.088 3.104-2.099 2.94-3.099-.5-9.431-1.456-11.536-1.795-1.267-.205-2.6-1.439-2.35-2.991l2.83-17.511c.219-1.356 1.887-2.56 3.115-2.362l11.224 1.813c1.292.208 1.54 2.222 1.232 3.167-.31.954-2.135 2.681-2.995 2.543l-5.804-.935-.494 3.063 7.316 1.16-.849 5.296zm29.8-9.758 2.845.461c1.01.164 2.205 1.664 1.81 2.871l-5.627 17.215c-.514 1.575-2.384 2.34-3.465 2.165l-5.11-.826c-1.042-.168-1.843-1.163-1.873-1.882l-.293-7.077-.437-.069-2.233 6.042c-.325.88-1.925 1.914-3.347 1.683l-4.88-.794c-.897-.146-2.044-1.85-2.037-3.27l.085-17.464c.008-1.827 1.165-2.838 1.995-2.703l3.203.52c1.303.212 2.422 1.697 2.393 2.77l-.282 10.659.218.034 3.893-10.215c.369-.968 1.705-1.968 2.664-1.812l1.884.305c.723.117 1.892 1.421 1.932 2.395l.448 11.061.203.092 3.194-10.422c.295-.963 1.654-1.928 2.816-1.74" fill="#fff"/><path d="m117.875 55-11.36 15.404 3.51 18.942-18.238 5.784-8.285 17.393-5.282-1.917 37.151-58.104z" fill="#0098ff" fill-rule="evenodd"/></g></svg>
