<svg xmlns="http://www.w3.org/2000/svg" width="338.5" height="248.5" viewBox="0 0 338.5 248.5"><defs><linearGradient x1="240" y1="108.659" x2="240" y2="295.341" gradientUnits="userSpaceOnUse" id="a"><stop offset="0" stop-color="#00a5ff"/><stop offset="1" stop-color="#0073ff"/></linearGradient></defs><g stroke-miterlimit="10"><path d="M18 248.5c-8.284 0-18-10.875-18-21.84V21.84C0 10.875 9.716 0 18 0h302.5c8.284 0 18 10.875 18 21.84v204.82c0 10.965-9.716 21.84-18 21.84z" fill="#fff"/><path d="M23.25 239.591c-8.284 0-15-9.02-15-20.145V29.054c0-11.126 6.716-20.145 15-20.145h292c8.284 0 15 9.02 15 20.145v190.392c0 11.126-6.716 20.145-15 20.145z" fill="#0c152b"/><path d="M327.75 94.839h-317m317 11.879h-317m317 12.538h-317m317 11.879h-317m317 11.217h-317m317 11.88h-317m317 12.536h-317m317 11.88h-317m0 11.217h317m-317 11.879h317m0 12.538h-317m0 11.879h317" fill="none" stroke-opacity=".184" stroke="#00a6ff" stroke-width="3" stroke-linecap="round"/><path d="M94 295.341c-8.284 0-15-9.02-15-20.145V84.804c0-11.126 6.716-20.145 15-20.145h292c8.284 0 15 9.02 15 20.145v190.392c0 11.126-6.716 20.145-15 20.145z" fill="none" stroke="url(#a)" stroke-width="6" transform="translate(-70.75 -55.75)"/><path d="M327.75 24.268h-317m317 11.88h-317m0 11.217h317m-317 11.879h317m0 12.538h-317m0 11.879h317" fill="none" stroke-opacity=".184" stroke="#00a6ff" stroke-width="3" stroke-linecap="round"/></g></svg>
