<svg xmlns="http://www.w3.org/2000/svg" width="50" height="50" viewBox="0 0 50 50"><path fill="#fff" d="m24.866-.03.301.001c1.427.005 2.826.029 4.228.323l.288.059c4.23.885 8.28 2.679 11.536 5.556a13 13 0 0 0 .694.552l.212.158.16.119.162-.165a549 549 0 0 1 1.521-1.539l.782-.791q.377-.383.756-.764l.287-.291c1.033-1.055 1.033-1.055 1.844-1.18.731-.001 1.242.106 1.778.623.461.508.597.822.599 1.515l.001.195.002.648.002.464.004 1.525.001.525.004 2.467q.001 1.423.008 2.847.004 1.101.005 2.201 0 .657.004 1.314.003.619.002 1.237 0 .227.002.453c.007.892-.01 1.577-.602 2.292l-.16.132-.158.137c-.479.283-.993.34-1.54.341l-.387.003h-.42l-.446.002q-.604.003-1.207.002l-.755.001q-1.319.003-2.638.003-1.227 0-2.454.005-1.056.004-2.111.004-.63 0-1.259.003-.592.003-1.185 0l-.433.001c-.874.007-1.768.008-2.451-.611-.436-.469-.621-.925-.629-1.569l-.008-.289c.135-.946.803-1.514 1.456-2.149l.3-.297q.393-.389.788-.775.634-.622 1.265-1.246.221-.218.443-.434l.269-.265.238-.233c.189-.171.189-.171.168-.384-3.181-3.015-7.49-4.304-11.787-4.227-4.147.128-7.824 1.87-10.869 4.617l-.222.2c-1.673 1.595-2.682 3.595-3.589 5.683l-.291.66-.129.293-.122.263-.104.227c-.177.257-.341.349-.622.486-.319.037-.319.037-.684.036l-.203.001q-.33.001-.66-.002H6.39q-.482 0-.964-.003a177 177 0 0 0-1.234-.002l-.951-.001h-.455l-.637-.003-.365-.001c-.431-.034-.702-.133-1.033-.41-.339-.616-.197-1.328-.014-1.982q.099-.319.204-.636l.108-.339c.267-.823.56-1.626.905-2.42l.172-.413c1.032-2.443 2.513-4.619 4.297-6.573a29 29 0 0 0 .424-.477c1.069-1.224 2.297-2.219 3.602-3.181l.271-.201c2.771-1.996 5.957-3.286 9.3-3.931l.226-.044q.373-.066.75-.121l.353-.052c1.171-.162 2.336-.178 3.517-.173M3.229 29.062l.446-.002q.603-.003 1.206-.001l1.009-.001q1.191-.002 2.382 0 1.225.002 2.452-.003 1.055-.003 2.11-.002l1.258-.002q.592-.002 1.184.001l.432-.001c.874-.006 1.767-.006 2.45.612.436.469.621.925.629 1.569l.008.289c-.135.946-.805 1.518-1.456 2.156l-.3.299-.788.778-.805.797a569 569 0 0 1-1.579 1.558 13.2 13.2 0 0 0 2.477 1.951 18 18 0 0 1 .4.258c1.793 1.157 4.015 1.771 6.108 2.088l.354.055c4.135.496 8.491-.708 11.787-3.246 2.524-1.985 4.074-4.266 5.341-7.184l.291-.66.129-.293.122-.263.104-.227c.177-.257.342-.349.622-.487.311-.037.311-.037.665-.038l.197-.002q.32-.001.64.001l.447-.001.936.002q.598.002 1.196-.001h.923l.441-.001.618.002.354.001c.461.053.793.191 1.092.55.284.693.018 1.369-.189 2.051l-.094.314c-1.164 3.832-3.017 7.521-5.903 10.353a7 7 0 0 0-.473.527c-3.135 3.613-8.039 5.879-12.646 6.775l-.229.045c-1.53.28-3.034.358-4.587.352h-.294c-1.414-.004-2.795-.044-4.186-.323l-.255-.048c-4.494-.851-8.838-2.969-12.148-6.146-.191-.185-.191-.185-.487-.154-.205.165-.205.165-.417.39l-.254.258-.135.139-.421.43a326 326 0 0 0-1.198 1.222l-.734.746-.412.423c-.527.533-.926.907-1.683 1.024-.731.001-1.242-.106-1.778-.623-.461-.508-.597-.822-.599-1.515l-.001-.195-.002-.648-.002-.464-.004-1.525-.001-.525-.004-2.467a903 903 0 0 0-.008-2.847q-.004-1.101-.005-2.201l-.004-1.314q-.003-.619-.002-1.237 0-.227-.002-.453c-.008-.951.008-1.655.707-2.369.831-.559 1.595-.549 2.57-.546"/></svg>
