<svg xmlns="http://www.w3.org/2000/svg" width="1150.875" height="901.195" viewBox="0 0 1150.875 901.195"><defs><linearGradient x1="325" y1="130.5" x2="325" y2="269.5" gradientUnits="userSpaceOnUse" id="a"><stop offset="0" stop-color="#00a5ff"/><stop offset="1" stop-color="#0073ff"/></linearGradient><linearGradient x1="325" y1="181.5" x2="325" y2="208.5" gradientUnits="userSpaceOnUse" id="b"><stop offset="0" stop-color="#00a5ff"/><stop offset="1" stop-color="#0073ff"/></linearGradient></defs><g stroke-miterlimit="10"><path fill-opacity=".5" fill="#171717" d="M-9749-9748.078v19998h19998v-19998z"/><path d="M423.75 528.172c-8.284 0-18-8.216-18-16.5v-121.5c0-8.284 9.716-16.5 18-16.5h302.5c8.284 0 18 8.216 18 16.5v121.5c0 8.284-9.716 16.5-18 16.5z" fill="#fff"/><path d="M429 520.422c-8.284 0-15-6.716-15-15v-109c0-8.284 6.716-15 15-15h292c8.284 0 15 6.716 15 15v109c0 8.284-6.716 15-15 15z" fill="#0c152b"/><path d="M416.5 391.422h317m-317 10.764h317m-317 11.362h317m-317 10.764h317m-317 10.165h317m-317 10.765h317m-317 11.36h317m-317 10.765h317m0 10.165h-317m317 10.764h-317m0 11.362h317m0 10.764h-317" fill="none" stroke-opacity=".184" stroke="#00a6ff" stroke-width="3" stroke-linecap="round"/><path d="M179 269.5c-8.284 0-15-6.716-15-15v-109c0-8.284 6.716-15 15-15h292c8.284 0 15 6.716 15 15v109c0 8.284-6.716 15-15 15z" fill="none" stroke="url(#a)" stroke-width="6" transform="translate(250 250.922)"/><path d="M449.25 459.422c-8.284 0-15-6.044-15-13.5s6.716-13.5 15-13.5h251.5c8.284 0 15 6.044 15 13.5s-6.716 13.5-15 13.5z" fill="none" stroke="#fff" stroke-width="6"/><path d="M199.25 208.5c-8.284 0-15-6.044-15-13.5s6.716-13.5 15-13.5h251.5c8.284 0 15 6.044 15 13.5s-6.716 13.5-15 13.5z" fill="none" stroke="url(#b)" stroke-width="3" transform="translate(250 250.922)"/></g></svg>
