<svg xmlns="http://www.w3.org/2000/svg" width="141.75" height="141.75" viewBox="0 0 141.75 141.75"><path d="M10 70.875C10 37.255 37.255 10 70.875 10s60.875 27.255 60.875 60.875-27.255 60.875-60.875 60.875S10 104.495 10 70.875z" fill="none" stroke="#007dff" stroke-width="20"/><path d="M10 70.875C10 37.255 37.255 10 70.875 10s60.875 27.255 60.875 60.875-27.255 60.875-60.875 60.875S10 104.495 10 70.875" fill="#00b8ff"/><path d="m108.776 85.751-3.253 6.507c-1.092 2.183-3.743 3-5.924 1.91l-3.846-1.923a32.2 32.2 0 0 1-7.18 6.157l1.365 4.172a4.4 4.4 0 0 1-.24 3.375 4.4 4.4 0 0 1-2.556 2.217l-6.907 2.298a4.4 4.4 0 0 1-3.376-.243 4.4 4.4 0 0 1-2.22-2.56l-1.438-4.29a32 32 0 0 1-9.24-.722l-2.054 4.109a4.383 4.383 0 0 1-5.895 1.978l-6.511-3.256c-2.182-1.09-3.019-3.708-1.928-5.89l2.054-4.107a32.2 32.2 0 0 1-6.135-6.967l-4.323 1.419c-1.12.37-2.32.285-3.375-.242a4.4 4.4 0 0 1-2.217-2.554l-2.304-6.908a4.4 4.4 0 0 1 .243-3.38 4.4 4.4 0 0 1 2.558-2.223l4.155-1.399a32.1 32.1 0 0 1 .619-9.437l-3.846-1.923c-2.183-1.091-3.088-3.687-1.996-5.87l3.253-6.507a4.396 4.396 0 0 1 5.91-1.958l3.846 1.923a32 32 0 0 1 7.174-6.14l-1.376-4.158a4.38 4.38 0 0 1 .242-3.374 4.45 4.45 0 0 1 2.557-2.217l6.904-2.3c2.243-.743 4.856.561 5.6 2.803l1.448 4.302a32 32 0 0 1 9.254.729l2.056-4.112c1.09-2.182 3.704-3.117 5.885-2.027l6.512 3.256c2.181 1.091 3.028 3.756 1.937 5.938l-2.057 4.113a32 32 0 0 1 6.119 6.956l4.311-1.423c2.234-.748 4.845.555 5.592 2.798l2.305 6.904a4.4 4.4 0 0 1-.242 3.375 4.4 4.4 0 0 1-2.556 2.22l-4.148 1.388c.26 3.114.072 6.28-.607 9.424l3.844 1.922c2.182 1.09 3.097 3.74 2.007 5.917m-25.39-8.628c3.42-6.843.588-15.184-6.32-18.638-6.906-3.453-15.276-.713-18.697 6.13-3.42 6.838-.593 15.186 6.313 18.639 6.907 3.453 15.282.708 18.703-6.131" fill="none" stroke="#fff" stroke-width="5" stroke-linecap="round" stroke-linejoin="round"/></svg>
