<svg xmlns="http://www.w3.org/2000/svg" xmlns:xlink="http://www.w3.org/1999/xlink" version="1.1" width="170.03523" height="170.47779" viewBox="0,0,170.03523,170.47779"><defs><linearGradient x1="325.21997" y1="125.61411" x2="325.21997" y2="273.59191" gradientUnits="userSpaceOnUse" id="color-1"><stop offset="0" stop-color="#0004e2"/><stop offset="1" stop-color="#00066f"/></linearGradient><radialGradient cx="325.48762" cy="240.3408" r="145.04907" gradientUnits="userSpaceOnUse" id="color-2"><stop offset="0" stop-color="#004bff"/><stop offset="1" stop-color="#004bff" stop-opacity="0"/></radialGradient><radialGradient cx="268.89135" cy="215.00388" r="6.62817" gradientUnits="userSpaceOnUse" id="color-3"><stop offset="0" stop-color="#00f3ff"/><stop offset="1" stop-color="#00f3ff" stop-opacity="0.57647"/></radialGradient><radialGradient cx="264.72949" cy="197.27737" r="4.31602" gradientUnits="userSpaceOnUse" id="color-4"><stop offset="0" stop-color="#00f3ff"/><stop offset="1" stop-color="#00f3ff" stop-opacity="0.57647"/></radialGradient><radialGradient cx="268.89135" cy="184.39946" r="2.77458" gradientUnits="userSpaceOnUse" id="color-5"><stop offset="0" stop-color="#00f3ff"/><stop offset="1" stop-color="#00f3ff" stop-opacity="0.57647"/></radialGradient><radialGradient cx="360.0564" cy="162.60857" r="4.31601" gradientUnits="userSpaceOnUse" id="color-6"><stop offset="0" stop-color="#00f3ff"/><stop offset="1" stop-color="#00f3ff" stop-opacity="0.57647"/></radialGradient><radialGradient cx="375.08835" cy="173.54683" r="7.39889" gradientUnits="userSpaceOnUse" id="color-7"><stop offset="0" stop-color="#00f3ff"/><stop offset="1" stop-color="#00f3ff" stop-opacity="0.57647"/></radialGradient><radialGradient cx="359.43983" cy="149.04789" r="2.77458" gradientUnits="userSpaceOnUse" id="color-8"><stop offset="0" stop-color="#00f3ff"/><stop offset="1" stop-color="#00f3ff" stop-opacity="0.57647"/></radialGradient><radialGradient cx="381.01992" cy="190.97098" r="4.31602" gradientUnits="userSpaceOnUse" id="color-9"><stop offset="0" stop-color="#00f3ff"/><stop offset="1" stop-color="#00f3ff" stop-opacity="0.57647"/></radialGradient><radialGradient cx="314.3678" cy="139.87536" r="6.31988" gradientUnits="userSpaceOnUse" id="color-10"><stop offset="0" stop-color="#00f3ff"/><stop offset="1" stop-color="#00f3ff" stop-opacity="0.57647"/></radialGradient><radialGradient cx="327.77344" cy="136.72035" r="4.00773" gradientUnits="userSpaceOnUse" id="color-11"><stop offset="0" stop-color="#00f3ff"/><stop offset="1" stop-color="#00f3ff" stop-opacity="0.57647"/></radialGradient><radialGradient cx="333.6153" cy="258.02918" r="6.31988" gradientUnits="userSpaceOnUse" id="color-12"><stop offset="0" stop-color="#00f3ff"/><stop offset="1" stop-color="#00f3ff" stop-opacity="0.57647"/></radialGradient><radialGradient cx="295.82845" cy="156.88964" r="117.04245" gradientUnits="userSpaceOnUse" id="color-13"><stop offset="0" stop-color="#40a7ff"/><stop offset="1" stop-color="#40a7ff" stop-opacity="0"/></radialGradient><radialGradient cx="300.51432" cy="216.17473" r="1.77876" gradientUnits="userSpaceOnUse" id="color-14"><stop offset="0" stop-color="#71bdff"/><stop offset="1" stop-color="#71bdff" stop-opacity="0"/></radialGradient><radialGradient cx="302.15704" cy="147.30337" r="0.88939" gradientUnits="userSpaceOnUse" id="color-15"><stop offset="0" stop-color="#71bdff"/><stop offset="1" stop-color="#71bdff" stop-opacity="0"/></radialGradient><linearGradient x1="340.85706" y1="169.84217" x2="327.68987" y2="229.12211" gradientUnits="userSpaceOnUse" id="color-16"><stop offset="0" stop-color="#1c688f"/><stop offset="1" stop-color="#323232"/></linearGradient><linearGradient x1="336.95496" y1="171.61134" x2="323.78778" y2="230.89128" gradientUnits="userSpaceOnUse" id="color-17"><stop offset="0" stop-color="#1c688f"/><stop offset="1" stop-color="#323232"/></linearGradient><radialGradient cx="295.48876" cy="217.57053" r="7.11918" gradientUnits="userSpaceOnUse" id="color-18"><stop offset="0" stop-color="#1d538f"/><stop offset="1" stop-color="#1d538f" stop-opacity="0"/></radialGradient><radialGradient cx="299.7621" cy="221.70015" r="7.11918" gradientUnits="userSpaceOnUse" id="color-19"><stop offset="0" stop-color="#1d538f"/><stop offset="1" stop-color="#1d538f" stop-opacity="0"/></radialGradient><radialGradient cx="307.61546" cy="225.74187" r="8.49306" gradientUnits="userSpaceOnUse" id="color-20"><stop offset="0" stop-color="#1d538f"/><stop offset="1" stop-color="#1d538f" stop-opacity="0"/></radialGradient><radialGradient cx="316.9782" cy="227.20255" r="8.49306" gradientUnits="userSpaceOnUse" id="color-21"><stop offset="0" stop-color="#1d538f"/><stop offset="1" stop-color="#1d538f" stop-opacity="0"/></radialGradient><radialGradient cx="325.59776" cy="230.49761" r="8.49306" gradientUnits="userSpaceOnUse" id="color-22"><stop offset="0" stop-color="#1d538f"/><stop offset="1" stop-color="#1d538f" stop-opacity="0"/></radialGradient><radialGradient cx="335.15143" cy="229.70308" r="8.49306" gradientUnits="userSpaceOnUse" id="color-23"><stop offset="0" stop-color="#1d538f"/><stop offset="1" stop-color="#1d538f" stop-opacity="0"/></radialGradient><radialGradient cx="360.31512" cy="221.59877" r="8.49306" gradientUnits="userSpaceOnUse" id="color-24"><stop offset="0" stop-color="#1d538f"/><stop offset="1" stop-color="#1d538f" stop-opacity="0"/></radialGradient><radialGradient cx="330.56192" cy="230.57048" r="8.49306" gradientUnits="userSpaceOnUse" id="color-25"><stop offset="0" stop-color="#275ac4"/><stop offset="1" stop-color="#275ac4" stop-opacity="0"/></radialGradient><radialGradient cx="322.06043" cy="229.98436" r="8.49306" gradientUnits="userSpaceOnUse" id="color-26"><stop offset="0" stop-color="#275ac4"/><stop offset="1" stop-color="#275ac4" stop-opacity="0"/></radialGradient><radialGradient cx="314.3678" cy="228.05044" r="8.49305" gradientUnits="userSpaceOnUse" id="color-27"><stop offset="0" stop-color="#275ac4"/><stop offset="1" stop-color="#275ac4" stop-opacity="0"/></radialGradient><radialGradient cx="307.92444" cy="226.19557" r="8.49306" gradientUnits="userSpaceOnUse" id="color-28"><stop offset="0" stop-color="#275ac4"/><stop offset="1" stop-color="#275ac4" stop-opacity="0"/></radialGradient><radialGradient cx="300.95549" cy="220.44819" r="8.49306" gradientUnits="userSpaceOnUse" id="color-29"><stop offset="0" stop-color="#275ac4"/><stop offset="1" stop-color="#275ac4" stop-opacity="0"/></radialGradient><radialGradient cx="360.31511" cy="221.59879" r="8.49306" gradientUnits="userSpaceOnUse" id="color-30"><stop offset="0" stop-color="#275ac4"/><stop offset="1" stop-color="#275ac4" stop-opacity="0"/></radialGradient><radialGradient cx="329.31885" cy="234.20636" r="8.49306" gradientUnits="userSpaceOnUse" id="color-31"><stop offset="0" stop-color="#003cff"/><stop offset="1" stop-color="#003cff" stop-opacity="0"/></radialGradient><radialGradient cx="322.52031" cy="233.39031" r="8.49306" gradientUnits="userSpaceOnUse" id="color-32"><stop offset="0" stop-color="#003cff"/><stop offset="1" stop-color="#003cff" stop-opacity="0"/></radialGradient><radialGradient cx="316.59635" cy="231.713" r="8.49306" gradientUnits="userSpaceOnUse" id="color-33"><stop offset="0" stop-color="#003cff"/><stop offset="1" stop-color="#003cff" stop-opacity="0"/></radialGradient><radialGradient cx="306.63516" cy="231.32398" r="8.49306" gradientUnits="userSpaceOnUse" id="color-34"><stop offset="0" stop-color="#003cff"/><stop offset="1" stop-color="#003cff" stop-opacity="0"/></radialGradient><radialGradient cx="296.41961" cy="224.4687" r="8.49306" gradientUnits="userSpaceOnUse" id="color-35"><stop offset="0" stop-color="#003cff"/><stop offset="1" stop-color="#003cff" stop-opacity="0"/></radialGradient><radialGradient cx="338.26401" cy="229.3781" r="8.49306" gradientUnits="userSpaceOnUse" id="color-36"><stop offset="0" stop-color="#275ac4"/><stop offset="1" stop-color="#275ac4" stop-opacity="0"/></radialGradient><radialGradient cx="343.50171" cy="232.54122" r="8.49305" gradientUnits="userSpaceOnUse" id="color-37"><stop offset="0" stop-color="#003cff"/><stop offset="1" stop-color="#003cff" stop-opacity="0"/></radialGradient><radialGradient cx="346.16718" cy="226.0849" r="8.49306" gradientUnits="userSpaceOnUse" id="color-38"><stop offset="0" stop-color="#275ac4"/><stop offset="1" stop-color="#275ac4" stop-opacity="0"/></radialGradient><radialGradient cx="352.12148" cy="230.03071" r="8.49306" gradientUnits="userSpaceOnUse" id="color-39"><stop offset="0" stop-color="#003cff"/><stop offset="1" stop-color="#003cff" stop-opacity="0"/></radialGradient><radialGradient cx="351.96484" cy="225.75958" r="8.49306" gradientUnits="userSpaceOnUse" id="color-40"><stop offset="0" stop-color="#275ac4"/><stop offset="1" stop-color="#275ac4" stop-opacity="0"/></radialGradient><radialGradient cx="357.68481" cy="229.15764" r="8.49306" gradientUnits="userSpaceOnUse" id="color-41"><stop offset="0" stop-color="#003cff"/><stop offset="1" stop-color="#003cff" stop-opacity="0"/></radialGradient><radialGradient cx="316.59635" cy="255.12981" r="4.31601" gradientUnits="userSpaceOnUse" id="color-42"><stop offset="0" stop-color="#00f3ff"/><stop offset="1" stop-color="#00f3ff" stop-opacity="0.57647"/></radialGradient></defs><g transform="translate(-240.3263,-114.24974)"><g data-paper-data="{&quot;isPaintingLayer&quot;:true}" fill-rule="nonzero" stroke-linejoin="miter" stroke-miterlimit="10" stroke-dasharray="" stroke-dashoffset="0" style="mix-blend-mode: normal"><path d="M251.57631,199.48863c0,-40.86294 33.02689,-73.98889 73.76761,-73.98889c40.74072,0 73.76762,33.12595 73.76762,73.98889c0,40.86294 -33.02689,73.9889 -73.76762,73.9889c-40.74072,0 -73.76761,-33.12596 -73.76761,-73.9889z" fill="none" stroke-opacity="0.59608" stroke="#020081" stroke-width="22.5" stroke-linecap="butt"/><path d="M251.23107,199.60301c0,-40.86294 33.12596,-73.9889 73.9889,-73.9889c40.86294,0 73.9889,33.12596 73.9889,73.9889c0,40.86294 -33.12596,73.98889 -73.9889,73.98889c-40.86294,0 -73.9889,-33.12595 -73.9889,-73.98889z" fill="url(#color-1)" stroke="#00ffff" stroke-width="7.5" stroke-linecap="butt"/><path d="M325.86204,274.50026c-45.18327,0 -86.37942,-58.26329 -72.2451,-64.88533c33.31217,-15.60704 39.0739,-4.57124 70.79706,-4.57124c26.75738,0 36.15386,-11.12624 68.03215,-0.68313c21.9523,7.19143 -21.40083,70.13969 -66.5841,70.13969z" data-paper-data="{&quot;index&quot;:null}" fill="url(#color-2)" stroke="none" stroke-width="NaN" stroke-linecap="butt"/><path d="M262.26319,215.00388c0,-3.66064 2.96753,-6.62817 6.62817,-6.62817c3.66064,0 6.62817,2.96753 6.62817,6.62817c0,3.66064 -2.96753,6.62817 -6.62817,6.62817c-3.66064,0 -6.62817,-2.96753 -6.62817,-6.62817z" fill="url(#color-3)" stroke="none" stroke-width="0" stroke-linecap="butt"/><path d="M260.41346,197.27737c0,-2.38367 1.93234,-4.31601 4.31601,-4.31601c2.38367,0 4.31602,1.93234 4.31602,4.31601c0,2.38367 -1.93235,4.31602 -4.31602,4.31602c-2.38367,0 -4.31601,-1.93235 -4.31601,-4.31602z" fill="url(#color-4)" stroke="none" stroke-width="0" stroke-linecap="butt"/><path d="M266.11677,184.39946c0,-1.53236 1.24222,-2.77459 2.77459,-2.77459c1.53236,0 2.77458,1.24223 2.77458,2.77459c0,1.53236 -1.24222,2.77458 -2.77458,2.77458c-1.53236,0 -2.77459,-1.24222 -2.77459,-2.77458z" fill="url(#color-5)" stroke="none" stroke-width="0" stroke-linecap="butt"/><path d="M355.74038,162.60857c0,-2.38367 1.93235,-4.31602 4.31602,-4.31602c2.38367,0 4.31601,1.93235 4.31601,4.31602c0,2.38367 -1.93234,4.31602 -4.31601,4.31602c-2.38367,0 -4.31602,-1.93235 -4.31602,-4.31602z" fill="url(#color-6)" stroke="none" stroke-width="0" stroke-linecap="butt"/><path d="M367.68947,173.54683c0,-4.0863 3.31259,-7.39889 7.39888,-7.39889c4.0863,0 7.39889,3.31259 7.39889,7.39889c0,4.0863 -3.31259,7.39889 -7.39889,7.39889c-4.0863,0 -7.39888,-3.31259 -7.39888,-7.39889z" fill="url(#color-7)" stroke="none" stroke-width="0" stroke-linecap="butt"/><path d="M356.66524,149.04789c0,-1.53236 1.24223,-2.77459 2.77459,-2.77459c1.53236,0 2.77458,1.24223 2.77458,2.77459c0,1.53236 -1.24222,2.77458 -2.77458,2.77458c-1.53236,0 -2.77459,-1.24222 -2.77459,-2.77458z" fill="url(#color-8)" stroke="none" stroke-width="0" stroke-linecap="butt"/><path d="M376.7039,190.97098c0,-2.38367 1.93235,-4.31602 4.31602,-4.31602c2.38367,0 4.31602,1.93235 4.31602,4.31602c0,2.38367 -1.93235,4.31601 -4.31602,4.31601c-2.38367,0 -4.31602,-1.93234 -4.31602,-4.31601z" fill="url(#color-9)" stroke="none" stroke-width="0" stroke-linecap="butt"/><path d="M308.04793,139.87536c0,-3.49037 2.82951,-6.31988 6.31988,-6.31988c3.49038,0 6.31988,2.8295 6.31988,6.31988c0,3.49038 -2.82951,6.31988 -6.31988,6.31988c-3.49037,0 -6.31988,-2.82951 -6.31988,-6.31988z" fill="url(#color-10)" stroke="none" stroke-width="0" stroke-linecap="butt"/><path d="M323.76572,136.72035c0,-2.21341 1.79432,-4.00773 4.00773,-4.00773c2.21341,0 4.00773,1.79433 4.00773,4.00773c0,2.21341 -1.79432,4.00773 -4.00773,4.00773c-2.21341,0 -4.00773,-1.79432 -4.00773,-4.00773z" fill="url(#color-11)" stroke="none" stroke-width="0" stroke-linecap="butt"/><path d="M327.29541,258.02918c0,-3.49037 2.82951,-6.31988 6.31988,-6.31988c3.49038,0 6.31988,2.82951 6.31988,6.31988c0,3.49038 -2.82951,6.31988 -6.31988,6.31988c-3.49037,0 -6.31988,-2.82951 -6.31988,-6.31988z" fill="url(#color-12)" stroke="none" stroke-width="0" stroke-linecap="butt"/><path d="M384.01085,241.76003c-0.00246,-0.0011 -0.0049,-0.0022 -0.00735,-0.00329c0.00336,-0.00401 0.00674,-0.00803 0.01011,-0.01203z" fill="url(#color-13)" stroke="none" stroke-width="0" stroke-linecap="butt"/><path d="M299.22621,217.06429c-0.46615,-0.89708 -0.14373,-2.01671 0.72013,-2.50077c0.86387,-0.48406 1.94207,-0.14925 2.40823,0.74782c0.46615,0.89708 0.14372,2.01672 -0.72015,2.50079c-0.86387,0.48406 -1.94207,0.14924 -2.40823,-0.74783z" fill="url(#color-14)" stroke="none" stroke-width="0.5" stroke-linecap="butt"/><path d="M301.44248,147.87156c-0.23308,-0.44854 -0.07187,-1.00836 0.36007,-1.25039c0.43195,-0.24203 0.97102,-0.07462 1.2041,0.37392c0.23308,0.44854 0.07186,1.00835 -0.36008,1.25038c-0.43195,0.24203 -0.97104,0.07462 -1.2041,-0.37391z" fill="url(#color-15)" stroke="none" stroke-width="0.5" stroke-linecap="butt"/><path d="M302.16057,217.25533c0,0 11.08918,-12.24615 13.01762,-20.92819c2.01925,-9.09082 -4.94687,-30.83154 -4.94687,-30.83154c0,0 27.2063,7.89498 35.9272,20.33094c8.72089,12.43596 10.50671,30.93175 10.50671,30.93175c0,0 -0.42534,7.25109 -3.50528,9.37475c-5.86268,4.04239 -17.19345,4.15438 -24.37945,3.15094c-10.96114,-1.53058 -26.61995,-12.02865 -26.61995,-12.02865z" data-paper-data="{&quot;index&quot;:null}" fill="url(#color-16)" stroke="#000000" stroke-width="2.5" stroke-linecap="round"/><path d="M298.25847,219.02449c0,0 11.08917,-12.24615 13.01762,-20.92819c2.01925,-9.09082 -1.16201,-32.44683 -1.16201,-32.44683c0,0 23.42147,9.51029 32.14237,21.94625c8.72089,12.43597 10.63772,39.05799 10.63772,39.05799c0,0 -17.0546,5.93005 -28.01574,4.39946c-10.96114,-1.53058 -26.61995,-12.02865 -26.61995,-12.02865z" data-paper-data="{&quot;index&quot;:null}" fill="url(#color-17)" stroke="#000000" stroke-width="2.5" stroke-linecap="round"/><path d="M302.42228,216.63436c0.52612,3.89646 -2.15162,7.47431 -5.98091,7.99133c-3.82928,0.51704 -7.36001,-2.22252 -7.88612,-6.11897c-0.52612,-3.89646 2.15162,-7.4743 5.98091,-7.99133c3.82928,-0.51704 7.36001,2.22252 7.88612,6.11897z" data-paper-data="{&quot;index&quot;:null}" fill="url(#color-18)" stroke="#000000" stroke-width="0" stroke-linecap="butt"/><path d="M306.69561,220.76396c0.52612,3.89646 -2.15162,7.4743 -5.98091,7.99133c-3.82928,0.51704 -7.36002,-2.22251 -7.88613,-6.11896c-0.52612,-3.89646 2.15162,-7.47431 5.98091,-7.99134c3.82928,-0.51704 7.36001,2.22252 7.88612,6.11897z" data-paper-data="{&quot;index&quot;:null}" fill="url(#color-19)" stroke="#000000" stroke-width="0" stroke-linecap="butt"/><path d="M315.88702,224.625c0.62764,4.6484 -2.56685,8.91671 -7.13511,9.53354c-4.56825,0.61683 -8.78036,-2.65142 -9.40802,-7.29982c-0.62764,-4.6484 2.56686,-8.91671 7.13512,-9.53354c4.56825,-0.61683 8.78036,2.65142 9.40801,7.29982z" data-paper-data="{&quot;index&quot;:null}" fill="url(#color-20)" stroke="#000000" stroke-width="0" stroke-linecap="butt"/><path d="M325.24977,226.08571c0.62764,4.6484 -2.56685,8.91671 -7.13512,9.53354c-4.56827,0.61683 -8.78037,-2.65143 -9.40802,-7.29983c-0.62764,-4.6484 2.56684,-8.9167 7.13512,-9.53353c4.56828,-0.61683 8.78036,2.65142 9.40801,7.29982z" data-paper-data="{&quot;index&quot;:null}" fill="url(#color-21)" stroke="#000000" stroke-width="0" stroke-linecap="butt"/><path d="M333.86931,229.38076c0.62764,4.6484 -2.56685,8.91671 -7.13512,9.53354c-4.56827,0.61683 -8.78036,-2.65142 -9.40801,-7.29982c-0.62764,-4.6484 2.56685,-8.91671 7.13512,-9.53353c4.56828,-0.61683 8.78036,2.65142 9.40801,7.29982z" data-paper-data="{&quot;index&quot;:null}" fill="url(#color-22)" stroke="#000000" stroke-width="0" stroke-linecap="butt"/><path d="M343.42298,228.58622c0.62764,4.6484 -2.56685,8.91671 -7.13512,9.53353c-4.56827,0.61683 -8.78036,-2.65142 -9.40801,-7.29982c-0.62764,-4.6484 2.56685,-8.91671 7.13511,-9.53353c4.56828,-0.61683 8.78036,2.65142 9.40802,7.29982z" data-paper-data="{&quot;index&quot;:null}" fill="url(#color-23)" stroke="#000000" stroke-width="0" stroke-linecap="butt"/><path d="M368.58667,220.48193c0.62764,4.6484 -2.56683,8.91671 -7.13511,9.53353c-4.56828,0.61683 -8.78037,-2.65141 -9.40801,-7.29981c-0.62764,-4.6484 2.56685,-8.91671 7.13512,-9.53353c4.56828,-0.61683 8.78036,2.65142 9.408,7.29982z" data-paper-data="{&quot;index&quot;:null}" fill="url(#color-24)" stroke="#000000" stroke-width="0" stroke-linecap="butt"/><path d="M338.8335,229.45363c0.62764,4.6484 -2.56685,8.9167 -7.13512,9.53354c-4.56827,0.61683 -8.78036,-2.65142 -9.40801,-7.29982c-0.62764,-4.6484 2.56685,-8.91671 7.13512,-9.53353c4.56828,-0.61683 8.78036,2.65142 9.40801,7.29982z" data-paper-data="{&quot;index&quot;:null}" fill="url(#color-25)" stroke="#000000" stroke-width="0" stroke-linecap="butt"/><path d="M330.33198,228.8675c0.62764,4.6484 -2.56685,8.9167 -7.13511,9.53354c-4.56827,0.61683 -8.78037,-2.65142 -9.40802,-7.29982c-0.62764,-4.6484 2.56685,-8.91671 7.13512,-9.53353c4.56828,-0.61683 8.78036,2.65142 9.408,7.29982z" data-paper-data="{&quot;index&quot;:null}" fill="url(#color-26)" stroke="#000000" stroke-width="0" stroke-linecap="butt"/><path d="M322.63937,226.9336c0.62764,4.6484 -2.56685,8.9167 -7.13511,9.53354c-4.56827,0.61683 -8.78037,-2.65142 -9.40803,-7.29983c-0.62764,-4.6484 2.56685,-8.91671 7.13513,-9.53353c4.56828,-0.61683 8.78036,2.65142 9.40801,7.29982z" data-paper-data="{&quot;index&quot;:null}" fill="url(#color-27)" stroke="#000000" stroke-width="0" stroke-linecap="butt"/><path d="M316.19601,225.07872c0.62764,4.6484 -2.56685,8.9167 -7.13512,9.53354c-4.56827,0.61683 -8.78037,-2.65142 -9.40802,-7.29982c-0.62764,-4.6484 2.56685,-8.91671 7.13511,-9.53353c4.56828,-0.61683 8.78036,2.65142 9.40801,7.29982z" data-paper-data="{&quot;index&quot;:null}" fill="url(#color-28)" stroke="#000000" stroke-width="0" stroke-linecap="butt"/><path d="M309.22706,219.33135c0.62764,4.6484 -2.56685,8.9167 -7.13512,9.53354c-4.56827,0.61683 -8.78036,-2.65142 -9.40802,-7.29983c-0.62764,-4.6484 2.56685,-8.9167 7.13512,-9.53354c4.56828,-0.61683 8.78036,2.65142 9.40802,7.29983z" data-paper-data="{&quot;index&quot;:null}" fill="url(#color-29)" stroke="#000000" stroke-width="0" stroke-linecap="butt"/><path d="M368.58667,220.48193c0.62764,4.6484 -2.56685,8.9167 -7.13511,9.53354c-4.56828,0.61683 -8.78037,-2.65142 -9.40802,-7.29982c-0.62764,-4.6484 2.56685,-8.9167 7.13512,-9.53354c4.56827,-0.61683 8.78036,2.65142 9.40801,7.29982z" data-paper-data="{&quot;index&quot;:null}" fill="url(#color-30)" stroke="#000000" stroke-width="0" stroke-linecap="butt"/><path d="M337.59041,233.0895c0.62764,4.6484 -2.56685,8.91671 -7.13512,9.53354c-4.56827,0.61683 -8.78036,-2.65142 -9.40802,-7.29982c-0.62764,-4.6484 2.56685,-8.91671 7.13512,-9.53354c4.56828,-0.61683 8.78037,2.65142 9.40802,7.29982z" data-paper-data="{&quot;index&quot;:null}" fill="url(#color-31)" stroke="#000000" stroke-width="0" stroke-linecap="butt"/><path d="M330.79186,232.27345c0.62764,4.6484 -2.56685,8.9167 -7.13511,9.53354c-4.56827,0.61683 -8.78037,-2.65142 -9.40802,-7.29983c-0.62764,-4.6484 2.56685,-8.91671 7.13512,-9.53353c4.56828,-0.61683 8.78036,2.65142 9.40801,7.29982z" data-paper-data="{&quot;index&quot;:null}" fill="url(#color-32)" stroke="#000000" stroke-width="0" stroke-linecap="butt"/><path d="M324.86792,230.59614c0.62764,4.6484 -2.56685,8.91671 -7.13513,9.53354c-4.56827,0.61683 -8.78036,-2.65142 -9.40802,-7.29982c-0.62764,-4.6484 2.56685,-8.91671 7.13512,-9.53353c4.56828,-0.61683 8.78037,2.65142 9.40802,7.29982z" data-paper-data="{&quot;index&quot;:null}" fill="url(#color-33)" stroke="#000000" stroke-width="0" stroke-linecap="butt"/><path d="M314.90672,230.20713c0.62764,4.6484 -2.56685,8.91671 -7.13512,9.53354c-4.56827,0.61683 -8.78036,-2.65142 -9.40801,-7.29982c-0.62764,-4.6484 2.56684,-8.91671 7.13511,-9.53354c4.56828,-0.61683 8.78036,2.65142 9.40802,7.29982z" data-paper-data="{&quot;index&quot;:null}" fill="url(#color-34)" stroke="#000000" stroke-width="0" stroke-linecap="butt"/><path d="M304.69117,223.35185c0.62764,4.6484 -2.56685,8.9167 -7.13512,9.53354c-4.56827,0.61683 -8.78037,-2.65142 -9.40802,-7.29982c-0.62764,-4.6484 2.56685,-8.91671 7.13512,-9.53354c4.56828,-0.61683 8.78037,2.65142 9.40802,7.29983z" data-paper-data="{&quot;index&quot;:null}" fill="url(#color-35)" stroke="#000000" stroke-width="0" stroke-linecap="butt"/><path d="M346.53556,228.26125c0.62764,4.6484 -2.56685,8.9167 -7.13511,9.53354c-4.56827,0.61683 -8.78036,-2.65142 -9.40801,-7.29982c-0.62764,-4.6484 2.56685,-8.91671 7.13511,-9.53353c4.56827,-0.61683 8.78037,2.65142 9.40801,7.29982z" data-paper-data="{&quot;index&quot;:null}" fill="url(#color-36)" stroke="#000000" stroke-width="0" stroke-linecap="butt"/><path d="M351.77326,231.42438c0.62764,4.6484 -2.56685,8.91671 -7.13513,9.53354c-4.56827,0.61683 -8.78036,-2.65143 -9.40802,-7.29983c-0.62764,-4.6484 2.56685,-8.9167 7.13512,-9.53354c4.56827,-0.61683 8.78037,2.65142 9.40802,7.29983z" data-paper-data="{&quot;index&quot;:null}" fill="url(#color-37)" stroke="#000000" stroke-width="0" stroke-linecap="butt"/><path d="M354.43874,224.96803c0.62764,4.6484 -2.56685,8.91671 -7.13512,9.53354c-4.56827,0.61683 -8.78036,-2.65143 -9.40801,-7.29983c-0.62764,-4.6484 2.56685,-8.9167 7.13511,-9.53353c4.56828,-0.61683 8.78036,2.65142 9.408,7.29982z" data-paper-data="{&quot;index&quot;:null}" fill="url(#color-38)" stroke="#000000" stroke-width="0" stroke-linecap="butt"/><path d="M360.39304,228.91386c0.62764,4.6484 -2.56684,8.91671 -7.13512,9.53354c-4.56828,0.61683 -8.78037,-2.65143 -9.40802,-7.29983c-0.62764,-4.6484 2.56685,-8.9167 7.13512,-9.53354c4.56827,-0.61683 8.78036,2.65142 9.40802,7.29983z" data-paper-data="{&quot;index&quot;:null}" fill="url(#color-39)" stroke="#000000" stroke-width="0" stroke-linecap="butt"/><path d="M359.0813,221.39815c2.45101,3.99928 1.2518,9.194 -2.67852,11.60274c-3.93032,2.40876 -9.1034,1.11938 -11.55441,-2.87989c-2.45101,-3.99928 -1.2518,-9.19399 2.67852,-11.60273c3.93032,-2.40876 9.1034,-1.11938 11.55441,2.87989z" data-paper-data="{&quot;index&quot;:null}" fill="url(#color-40)" stroke="#000000" stroke-width="0" stroke-linecap="butt"/><path d="M364.80127,224.79621c2.45101,3.99928 1.2518,9.194 -2.67852,11.60275c-3.93032,2.40876 -9.1034,1.11938 -11.55441,-2.8799c-2.45101,-3.99928 -1.2518,-9.194 2.67852,-11.60275c3.93032,-2.40876 9.1034,-1.11938 11.55441,2.8799z" data-paper-data="{&quot;index&quot;:null}" fill="url(#color-41)" stroke="#000000" stroke-width="0" stroke-linecap="butt"/><path d="M306.6391,150.23143c-0.04836,11.57773 -9.47317,20.92414 -21.0509,20.87577c-8.56582,-0.03578 -15.91027,-5.20407 -19.13224,-12.57946c0.95407,-0.52994 1.75308,-1.30579 2.31106,-2.24225c1.7354,-0.98207 2.1679,-3.75536 3.17007,-5.32429c2.21274,-3.4641 4.52701,-7.51138 7.17713,-10.3785c2.99489,-3.2401 12.39181,-6.50549 16.92043,-7.82578c0.25528,-0.07443 0.5796,-0.16567 0.9468,-0.26984c5.83445,3.74361 9.68874,10.29879 9.65763,17.74435z" fill="#00ffff" stroke="none" stroke-width="0" stroke-linecap="butt"/><path d="M346.72799,245.88515c0.71676,-11.55562 10.66548,-20.34226 22.22111,-19.62552c8.54947,0.53029 15.58325,6.11402 18.37401,13.66313c-0.98308,0.47398 -1.82554,1.20238 -2.43667,2.10507c-1.7892,0.88023 -2.38111,3.62393 -3.4722,5.13238c-2.40906,3.33056 -4.95314,7.23746 -7.76438,9.94678c-3.17696,3.06178 -12.74675,5.77917 -17.34404,6.83577c-0.25914,0.05956 -0.5882,0.13193 -0.96081,0.21473c-5.60858,-4.07423 -9.07794,-10.84102 -8.61701,-18.27236z" data-paper-data="{&quot;index&quot;:null}" fill="#00ffff" stroke="none" stroke-width="0" stroke-linecap="butt"/><path d="M251.23107,199.60301c0,-40.86294 33.12596,-73.9889 73.9889,-73.9889c40.86294,0 73.9889,33.12596 73.9889,73.9889c0,40.86294 -33.12596,73.98889 -73.9889,73.98889c-40.86294,0 -73.9889,-33.12595 -73.9889,-73.98889z" fill="none" stroke="#00ffff" stroke-width="7.5" stroke-linecap="butt"/><path d="M281.23035,155.37131c0.40085,0.2704 1.08321,0.62997 2.04706,1.07869c0.96618,0.44854 1.87314,0.64088 2.72084,0.57697c0.8477,-0.0639 1.24675,-0.42513 1.1971,-1.08367c-0.02254,-0.29891 -0.16269,-0.55374 -0.42048,-0.76447c-0.25545,-0.2109 -0.71321,-0.44178 -1.37328,-0.69264c-0.66007,-0.25087 -1.1564,-0.4483 -1.48901,-0.59232c-0.33044,-0.14654 -0.77534,-0.39366 -1.33468,-0.74135c-0.55717,-0.35021 -0.99047,-0.72384 -1.29988,-1.12091c-0.88207,-1.07725 -1.38911,-2.49162 -1.52114,-4.24308c-0.1322,-1.7538 0.40782,-3.28232 1.62008,-4.58555c1.21442,-1.30575 2.87833,-2.03827 4.99176,-2.19759c1.43387,-0.10809 2.76969,-0.0526 4.00745,0.16645c1.23992,0.21654 1.89847,0.57202 1.97567,1.06645c0.00457,0.06072 0.00906,0.12027 0.01347,0.17865c0.05264,0.69825 -0.10034,1.59754 -0.45893,2.69786c-0.35643,1.09781 -0.62006,1.71304 -0.79091,1.8457c-1.32471,-0.56243 -2.49032,-0.80571 -3.49683,-0.72984c-1.00651,0.07587 -1.48265,0.47344 -1.42843,1.1927c0.03292,0.43669 0.43112,0.79654 1.19459,1.07953c0.16495,0.06977 0.40218,0.16344 0.71166,0.28102c0.3093,0.11525 0.66491,0.25284 1.06682,0.41277c0.40425,0.15976 0.84149,0.36753 1.31169,0.62331c0.4702,0.25577 0.98247,0.60233 1.53682,1.03964c1.13072,0.9176 1.75768,2.19375 1.88091,3.82845c0.16072,2.13211 -0.29637,3.91976 -1.37124,5.36296c-1.07255,1.44302 -2.83218,2.2767 -5.27891,2.50106c-1.19566,0.09014 -2.28438,0.07238 -3.26616,-0.05324c-0.98177,-0.12562 -1.85403,-0.44973 -2.61678,-0.97233c-0.76058,-0.52511 -1.1717,-1.19633 -1.2333,-2.01369c-0.06161,-0.81736 0.02667,-1.64014 0.26486,-2.46833c0.23801,-0.83054 0.51772,-1.38828 0.83913,-1.67319z" fill="#000000" stroke="#001c7b" stroke-width="5" stroke-linecap="square"/><path d="M281.23035,155.37131c0.40085,0.2704 1.08321,0.62997 2.04706,1.07869c0.96618,0.44854 1.87314,0.64088 2.72084,0.57697c0.8477,-0.0639 1.24675,-0.42513 1.1971,-1.08367c-0.02254,-0.29891 -0.16269,-0.55374 -0.42048,-0.76447c-0.25545,-0.2109 -0.71321,-0.44178 -1.37328,-0.69264c-0.66007,-0.25087 -1.1564,-0.4483 -1.48901,-0.59232c-0.33044,-0.14654 -0.77534,-0.39366 -1.33468,-0.74135c-0.55717,-0.35021 -0.99047,-0.72384 -1.29988,-1.12091c-0.88207,-1.07725 -1.38911,-2.49162 -1.52114,-4.24308c-0.1322,-1.7538 0.40782,-3.28232 1.62008,-4.58555c1.21442,-1.30575 2.87833,-2.03827 4.99176,-2.19759c1.43387,-0.10809 2.76969,-0.0526 4.00745,0.16645c1.23992,0.21654 1.89847,0.57202 1.97567,1.06645c0.00457,0.06072 0.00906,0.12027 0.01347,0.17865c0.05264,0.69825 -0.10034,1.59754 -0.45893,2.69786c-0.35643,1.09781 -0.62006,1.71304 -0.79091,1.8457c-1.32471,-0.56243 -2.49032,-0.80571 -3.49683,-0.72984c-1.00651,0.07587 -1.48265,0.47344 -1.42843,1.1927c0.03292,0.43669 0.43112,0.79654 1.19459,1.07953c0.16495,0.06977 0.40218,0.16344 0.71166,0.28102c0.3093,0.11525 0.66491,0.25284 1.06682,0.41277c0.40425,0.15976 0.84149,0.36753 1.31169,0.62331c0.4702,0.25577 0.98247,0.60233 1.53682,1.03964c1.13072,0.9176 1.75768,2.19375 1.88091,3.82845c0.16072,2.13211 -0.29637,3.91976 -1.37124,5.36296c-1.07255,1.44302 -2.83218,2.2767 -5.27891,2.50106c-1.19566,0.09014 -2.28438,0.07238 -3.26616,-0.05324c-0.98177,-0.12562 -1.85403,-0.44973 -2.61678,-0.97233c-0.76058,-0.52511 -1.1717,-1.19633 -1.2333,-2.01369c-0.06161,-0.81736 0.02667,-1.64014 0.26486,-2.46833c0.23801,-0.83054 0.51772,-1.38828 0.83913,-1.67319z" fill="#ffffff" stroke="none" stroke-width="1" stroke-linecap="square"/><path d="M358.54782,254.61795l1.95069,-19.89462c0.06822,-0.69566 0.41896,-1.01244 1.05224,-0.95035l5.40454,0.52992c3.0297,0.29706 5.15378,1.13623 6.37218,2.5175c1.21864,1.37887 1.71152,3.25572 1.47866,5.63056c-0.19263,1.96463 -1.00376,3.70394 -2.43338,5.21791c-0.7159,0.75566 -1.71206,1.31916 -2.98847,1.69049c-1.27618,0.36893 -2.73347,0.47307 -4.37186,0.31243l-0.5391,5.49809c-0.024,0.24468 -0.42439,0.37616 -1.20118,0.39445c-0.77657,0.01589 -1.44071,-0.00322 -1.99243,-0.05731c0,0 -2.77211,-0.47889 -2.73189,-0.88909zM365.99959,239.60396l-0.47559,4.85042l0.3994,0.03916c0.71724,0.07032 1.34386,-0.09589 1.87984,-0.49865c0.53598,-0.40276 0.84407,-1.01314 0.92427,-1.83114c0.0802,-0.818 -0.03176,-1.41749 -0.33589,-1.79849c-0.30413,-0.381 -0.88558,-0.61359 -1.74436,-0.6978z" fill="#000000" stroke="#001c7b" stroke-width="5" stroke-linecap="square"/><path d="M361.27972,255.50704c-1.86149,-0.18251 -2.77212,-0.47888 -2.7319,-0.88908l1.95069,-19.89462c0.06822,-0.69566 0.41896,-1.01244 1.05224,-0.95035l5.40454,0.52992c3.0297,0.29706 5.15378,1.13623 6.37218,2.5175c1.21864,1.37887 1.71152,3.25572 1.47866,5.63056c-0.19263,1.96463 -1.00376,3.70394 -2.43338,5.21791c-0.7159,0.75566 -1.71206,1.31916 -2.98847,1.69049c-1.27618,0.36893 -2.73347,0.47307 -4.37186,0.31243l-0.5391,5.49809c-0.024,0.24468 -0.42439,0.37616 -1.20118,0.39445c-0.77657,0.01589 -1.44071,-0.00322 -1.99243,-0.05731zM365.99959,239.60396l-0.47559,4.85042l0.3994,0.03916c0.71724,0.07032 1.34386,-0.09589 1.87984,-0.49865c0.53598,-0.40276 0.84407,-1.01314 0.92427,-1.83114c0.0802,-0.818 -0.03176,-1.41749 -0.33589,-1.79849c-0.30413,-0.381 -0.88558,-0.61359 -1.74436,-0.6978z" fill="#ffffff" stroke="none" stroke-width="1" stroke-linecap="square"/><path d="M312.28033,255.12981c0,-2.38367 1.93235,-4.31601 4.31602,-4.31601c2.38367,0 4.31601,1.93234 4.31601,4.31601c0,2.38367 -1.93234,4.31602 -4.31601,4.31602c-2.38367,0 -4.31602,-1.93235 -4.31602,-4.31602z" fill="url(#color-42)" stroke="none" stroke-width="0" stroke-linecap="butt"/></g></g></svg>
